<?xml version="1.0" encoding="UTF-8" standalone="no"?>
<!DOCTYPE svg PUBLIC "-//W3C//DTD SVG 1.1//EN"
"http://www.w3.org/Graphics/SVG/1.1/DTD/svg11.dtd">


<!-- Page 1 -->
<svg x="0" y="0" width="1870" height="1210" viewBox="0 0 1870 1210" version="1.1" xmlns="http://www.w3.org/2000/svg" xmlns:xlink="http://www.w3.org/1999/xlink"
style="display: block;margin-left: auto;margin-right: auto;">
<defs>
<clipPath id="c0_1"><path d="M1705,1164.2v-39.8h76.9v39.8H1705Z" /></clipPath>
<clipPath id="c1_1"><path d="M1739.4,861.1h-22.9V791.3h22.9v69.8Z" /></clipPath>
<clipPath id="c2_1"><path d="M1715.7,582.1v-84h13.7v84h-13.7Z" /></clipPath>
<clipPath id="c3_1"><path d="M1716.5,750.9V703.7h13.7v47.2h-13.7Z" /></clipPath>
<clipPath id="c4_1"><path d="M1768.2,413V182.4h31.3V413Z" /></clipPath>
<clipPath id="c5_1"><path d="M1768.9,1100h-31.5v-96.3h31.5V1100Z" /></clipPath>
<clipPath id="c6_1"><path d="M1720.9,116c4.6,0,9.1,-4.5,10.2,-10.8c.3,-1.8,.3,-3.5,.1,-5.2c2.4,2.7,5.8,4.2,8.8,4.2c.5,0,.9,-.1,1.4,-.1c4.9,-.9,9.1,-7.6,8.1,-14.3c2.1,3.3,5.4,5.2,8.5,5.2c.5,0,.9,-.1,1.4,-.1c4.8,-.9,8.3,-8.7,7.1,-15.6c-.4,-1.8,-1,-3.4,-1.8,-4.7c.2,.6,.3,1.1,.4,1.7c1.2,6.9,-1.9,14.7,-6.5,15.5c-.4,.1,-.8,.1,-1.2,.1c-3.7,0,-7.8,-3.1,-9.4,-8.1c-.2,.2,-.3,.3,-.5,.4c0,.2,0,.3,.1,.4c-.1,-.1,-.2,-.2,-.2,-.2c-.1,0,-.2,.1,-.2,.1c.3,.9,.6,1.8,.8,2.8c1.2,6.9,-2.6,13.7,-7.2,14.5c-.3,.1,-.7,.1,-1.1,.1c-3.8,0,-8.4,-2.9,-10.4,-7.6c.9,2.4,1.2,5.4,.6,8.5c-1.1,6.4,-5.2,11,-9.4,11c-.4,0,-.7,0,-1,0c-2.6,-.5,-4.5,-2.6,-5.6,-5.6c-.4,-.1,-.9,-.3,-1.3,-.6l-.1,-.1c.8,4.4,3.5,7.8,7.1,8.4c.4,.1,.9,.1,1.3,.1ZM1791,77.8c3,0,5.5,-2.4,5.5,-5.4c0,-3,-2.5,-5.5,-5.5,-5.5c-3,0,-5.4,2.5,-5.4,5.5c0,3,2.4,5.4,5.4,5.4ZM1738.2,139c-.5,0,-.9,-.1,-1.3,-.2c-3.8,-.8,-6.1,-5.3,-5.8,-10.7c-3.9,-1.3,-7.3,-3.4,-9.8,-6.5c-.3,-.3,-.6,-.7,-.9,-1.1c-1.6,3.1,-4.1,5,-6.9,5c-.1,0,-.2,0,-.3,0c-4.6,-.2,-8.1,-6,-7.7,-13c.2,-4.3,1.9,-8.1,4.2,-10.2c-.3,-3,.6,-6.6,2.8,-9.9c1.8,-2.8,4.3,-4.9,6.8,-6c.4,-2.6,1.6,-5.4,3.7,-7.9c2.7,-3.3,6.2,-5.2,9.3,-5.6c.2,-.6,.5,-1.3,.9,-1.9c2.5,-4.3,7.3,-6.8,11.3,-6.9c1.4,-.9,2.7,-1.7,4.1,-2.4c.6,-.7,1.2,-1.3,1.9,-1.9c3,-2.5,6.8,-3.8,10.1,-3.8c.7,0,1.5,0,2.2,.2c3.3,-.8,6.5,-1.2,9.6,-1.2c2.8,0,5.4,.3,7.9,1c.3,0,.6,0,1,0c6.5,0,13.1,2.7,16.7,9c4.8,8.3,4,20.3,-1,27c.4,.9,.7,1.9,.8,2.9c1.3,6.9,-1.9,14.7,-6.5,15.5c-.4,0,-.8,.1,-1.2,.1c-2.3,0,-4.8,-1.2,-6.7,-3.3c-.3,.4,-.7,.7,-1,1.1c0,.2,.1,.4,.1,.7c1.2,6.8,-2.6,13.6,-7.2,14.4c-.3,.1,-.7,.1,-1,.1c-2.2,0,-4.4,-1.1,-6.2,-3.1c-.8,.5,-1.5,.9,-2.3,1.4c0,.1,0,.2,0,.2c-1.1,6.4,-5.3,11.1,-9.5,11.1c-.3,0,-.6,-.1,-1,-.1c-2.3,-.4,-4.1,-2.2,-5.2,-4.8c-.8,.2,-1.5,.4,-2.2,.5c-1.5,6,-5.6,10.3,-9.7,10.3Z" /></clipPath>
<clipPath id="c7_1"><path d="M1732,404c5.9,0,10.6,-4.7,10.6,-10.5c0,-5.8,-4.7,-10.5,-10.6,-10.5c-5.9,0,-10.7,4.7,-10.7,10.5c0,5.8,4.8,10.5,10.7,10.5Zm-3.4,-35c4.6,0,8.4,-3.7,8.4,-8.2c0,-4.6,-3.8,-8.3,-8.4,-8.3c-4.7,0,-8.4,3.7,-8.4,8.3c0,4.5,3.7,8.2,8.4,8.2Zm-.2,-22c4.6,0,8.3,-3.7,8.3,-8.2c0,-4.5,-3.7,-8.1,-8.3,-8.1c-4.6,0,-8.3,3.6,-8.3,8.1c0,4.5,3.7,8.2,8.3,8.2Zm-8.8,62.1c-1.3,0,-2.6,-.1,-2.6,-2.2l.2,-87.3c0,-1.2,-.2,-2.3,2.5,-2.3c8.8,.1,15.9,.1,21.1,.1c0,0,0,43.3,0,60.7h8.1v31Z" /></clipPath>
<clipPath id="c8_1"><path d="M1731.8,400.3c-1.2,0,-2.1,-.3,-2.8,-1c-.7,-.6,-1,-1.5,-1,-2.5c0,-1.5,.6,-2.5,1.8,-3.2l.8,1.6c-.7,.3,-1,.8,-1,1.4c0,1,.7,1.6,2.2,1.6c1.4,0,2.1,-.6,2.1,-1.6c0,-.7,-.3,-1.2,-1,-1.5l.8,-1.5c1.2,.7,1.9,1.8,1.9,3.2c0,1,-.4,1.9,-1,2.6c-.7,.6,-1.6,.9,-2.8,.9Zm0,-6.9c-1.2,0,-2.1,-.4,-2.8,-1c-.7,-.7,-1,-1.5,-1,-2.5c0,-1.5,.6,-2.6,1.8,-3.2l.8,1.6c-.7,.3,-1,.7,-1,1.3c0,1.1,.7,1.7,2.2,1.7c1.4,0,2.1,-.6,2.1,-1.7c0,-.7,-.3,-1.2,-1,-1.4l.8,-1.6c1.2,.7,1.9,1.8,1.9,3.2c0,1.1,-.4,1.9,-1,2.6c-.7,.6,-1.6,1,-2.8,1Zm0,10c2.7,0,5,-1,7,-3c2,-1.9,3,-4.2,3,-6.9c0,-2.7,-1,-5.1,-3,-7c-1.9,-1.9,-4.2,-2.9,-7,-2.9c-2.8,0,-5.2,1,-7.1,2.9c-2,1.9,-3,4.2,-3,7c0,2.7,1,5,3,6.9c2,2,4.4,3,7.1,3Zm0,2.1c-3.4,0,-6.3,-1.2,-8.7,-3.5c-2.4,-2.3,-3.6,-5.2,-3.6,-8.5c0,-3.4,1.2,-6.2,3.6,-8.5c2.4,-2.4,5.2,-3.5,8.7,-3.5c3.4,0,6.3,1.1,8.6,3.4c2.4,2.4,3.6,5.3,3.6,8.6c0,3.3,-1.2,6.1,-3.6,8.5c-2.4,2.3,-5.3,3.5,-8.6,3.5Zm11.1,-40.8v-1.1c0,-.1,.1,-.2,.1,-.3c0,-.1,0,-.2,.1,-.2c0,-.1,.1,-.2,.1,-.2c.1,0,.2,-.1,.3,-.1c.3,0,.4,.1,.5,.2c.1,.2,.2,.3,.2,.5v1.2Zm2,0v-1.3c0,-.2,.1,-.4,.2,-.6c.1,-.1,.3,-.2,.6,-.2c.1,0,.2,0,.3,.1c.1,0,.2,.1,.2,.2q.1,.1,.1,.2c0,.1,.1,.2,.1,.4v1.2Zm2.3,1.1v-2.5c0,-.2,0,-.4,0,-.7c-.1,-.2,-.2,-.4,-.3,-.5c-.1,-.2,-.3,-.3,-.5,-.5c-.2,-.1,-.4,-.1,-.7,-.1c-.3,0,-.6,.1,-.8,.2c-.2,.2,-.4,.4,-.5,.7c-.1,-.2,-.2,-.4,-.4,-.5c-.2,-.1,-.4,-.2,-.7,-.2c-.2,0,-.4,.1,-.6,.2c-.1,0,-.3,.2,-.4,.3c-.1,.1,-.1,.3,-.2,.5c0,.2,0,.4,0,.7v2.4ZM1723.6,362c-.7,0,-1.3,-.5,-1.3,-1.2c0,-.7,.6,-1.3,1.3,-1.3c.7,0,1.3,.6,1.3,1.3c0,.7,-.6,1.2,-1.3,1.2Zm2.3,1.2c-.3,0,-.6,-.3,-.6,-.6V359c0,-.3,.3,-.6,.6,-.6h3.7v1h4.4v2.8h-4.4v1Zm16.2,-1.9l3.1,-1.9h2v-1.1h-1.9l-3.2,-1.9v1.3l2,1.1l-2,1.2v1.3Zm-13.9,6.8c2,0,3.7,-.7,5.2,-2.2c1.5,-1.4,2.2,-3.1,2.2,-5.1c0,-2,-.8,-3.7,-2.2,-5.2c-1.4,-1.4,-3.1,-2.1,-5.2,-2.1c-2.1,0,-3.8,.7,-5.3,2.1c-1.4,1.4,-2.2,3.2,-2.2,5.2c0,2,.8,3.7,2.2,5.1c1.5,1.5,3.3,2.2,5.3,2.2Zm0,1.6c-2.5,0,-4.6,-.9,-6.5,-2.6c-1.7,-1.7,-2.6,-3.8,-2.6,-6.3c0,-2.5,.9,-4.6,2.6,-6.3c1.8,-1.8,3.9,-2.6,6.5,-2.6c2.5,0,4.6,.8,6.3,2.5c1.8,1.8,2.7,3.9,2.7,6.4c0,2.4,-.9,4.5,-2.6,6.3c-1.8,1.7,-3.9,2.6,-6.4,2.6Zm17.3,-25.4c.4,0,.6,0,.8,-.1c.3,-.2,.5,-.3,.6,-.5c.2,-.2,.3,-.5,.3,-.7c.1,-.3,.2,-.6,.2,-.8c0,-.4,-.1,-.7,-.2,-1c-.1,-.2,-.2,-.4,-.3,-.6c-.2,-.2,-.3,-.3,-.5,-.4c-.2,-.1,-.5,-.2,-.7,-.2c-.3,0,-.5,.1,-.7,.2c-.2,.1,-.3,.3,-.5,.4c-.1,.2,-.2,.4,-.2,.5c-.1,.2,-.1,.3,-.1,.4c-.1,.4,-.2,.6,-.2,.8c-.1,.2,-.1,.4,-.2,.5c0,.1,-.1,.2,-.1,.2c-.1,0,-.2,.1,-.3,.1c-.1,0,-.2,-.1,-.3,-.1c0,-.1,-.1,-.1,-.1,-.2q-.1,-.1,-.1,-.2c-.1,-.1,-.1,-.2,-.1,-.3c0,-.1,0,-.3,.1,-.4c0,-.1,0,-.2,.1,-.3c0,-.1,.1,-.2,.2,-.2c.1,-.1,.2,-.1,.4,-.1v-1.1c-.3,0,-.5,.1,-.8,.2c-.2,.1,-.3,.2,-.5,.4c-.1,.2,-.2,.4,-.3,.7c0,.2,-.1,.5,-.1,.7c0,.3,.1,.5,.1,.7c.1,.3,.2,.5,.3,.6c.2,.2,.3,.4,.5,.5c.2,.1,.4,.2,.7,.2c.2,0,.4,-.1,.6,-.2c.2,-.1,.3,-.2,.4,-.3c.1,-.2,.2,-.3,.3,-.5c.1,-.2,.1,-.4,.2,-.6c0,-.2,.1,-.3,.1,-.5c.1,-.2,.1,-.4,.2,-.5c0,-.1,.1,-.3,.2,-.3c.1,-.1,.2,-.2,.3,-.2c.2,0,.3,.1,.4,.1c0,.1,.1,.2,.2,.3c0,.1,0,.2,0,.3c.1,.1,.1,.2,.1,.3c0,.2,0,.3,-.1,.4c0,.2,-.1,.3,-.1,.4c-.1,.1,-.2,.2,-.3,.2c-.2,.1,-.3,.1,-.5,.1v1.1Zm-.3,-6.2l-1.9,-.7l1.9,-.6v1.3Zm2,1.8v-1.1l-1.1,-.4v-1.9l1.1,-.4v-1.2l-5.1,1.9V338l5.1,1.9Zm-20.3,3.7v-.7c-2.3,-.4,-3.5,-2,-3.5,-3.9c0,-2.9,2.1,-4.6,4.9,-4.6c2.7,0,4.9,1.8,4.9,4.6c0,1.9,-1.2,3.6,-3.6,4v-2.3c1.2,-.1,1.7,-.8,1.7,-2c0,-1.2,-1.2,-2.1,-3.1,-2.1c-1.9,0,-2.9,.8,-2.9,2.1c0,1,.4,1.8,1.6,2V340l1.8,1.8l-1.8,1.8Zm1.3,2.6c2,0,3.7,-.7,5.2,-2.1c1.5,-1.5,2.2,-3.2,2.2,-5.2c0,-2,-.8,-3.7,-2.2,-5.2c-1.4,-1.4,-3.1,-2.1,-5.2,-2.1c-2.1,0,-3.8,.7,-5.3,2.1c-1.4,1.5,-2.2,3.2,-2.2,5.2c0,2,.8,3.7,2.2,5.1c1.5,1.5,3.3,2.2,5.3,2.2Zm0,1.6c-2.5,0,-4.6,-.8,-6.5,-2.6c-1.7,-1.7,-2.6,-3.8,-2.6,-6.3c0,-2.5,.9,-4.6,2.6,-6.3c1.8,-1.8,3.9,-2.6,6.5,-2.6c2.5,0,4.6,.8,6.3,2.5c1.8,1.8,2.7,4,2.7,6.4c0,2.5,-.9,4.5,-2.6,6.3c-1.8,1.8,-3.9,2.6,-6.4,2.6Zm11.3,61v-3.3c4.3,-2.4,7.2,-6.8,7.2,-12c0,-5.2,-2.9,-9.6,-7.2,-12V317.9h-21.3c-.5,0,-.9,.5,-.9,1v89c0,.5,.4,.9,.9,.9Zm-21.3,.8c-.9,0,-1.7,-.8,-1.7,-1.7v-89c0,-1,.8,-1.7,1.7,-1.7h30.7c.2,0,.4,.1,.4,.4v91.6c0,.2,-.2,.4,-.4,.4Z" /></clipPath>
<clipPath id="c9_1"><path d="M311.4,895.8V843.6H421.2V880H376.6v15.8Z" /></clipPath>
<clipPath id="c10_1"><path d="M376.6,895.8V880h44.6v15.8Z" /></clipPath>
<clipPath id="c11_1"><path d="M459.1,868.2V852.5H422.5v15.7ZM351.9,889V830.1H529.7V889Z" /></clipPath>
<clipPath id="c12_1"><path d="M422.5,868.2V852.5h36.6v15.7Z" /></clipPath>
<clipPath id="c13_1"><path d="M603.3,868.2V852.5H566.7v15.7ZM496.1,889V830.1H673.9V889Z" /></clipPath>
<clipPath id="c14_1"><path d="M566.7,868.2V852.5h36.6v15.7Z" /></clipPath>
<clipPath id="c15_1"><path d="M747.4,868.2V852.5H710.9v15.7ZM640.3,889V830.1H818.1V889Z" /></clipPath>
<clipPath id="c16_1"><path d="M710.9,868.2V852.5h36.5v15.7Z" /></clipPath>
<clipPath id="c17_1"><path d="M1514.3,895.8V880h-44.7V830.1h109.9v65.7Z" /></clipPath>
<clipPath id="c18_1"><path d="M1469.6,895.8V880h44.7v15.8Z" /></clipPath>
<clipPath id="c19_1"><path d="M1468.3,868.2V852.5h-36.5v15.7ZM1361.1,889V830.1h177.8V889Z" /></clipPath>
<clipPath id="c20_1"><path d="M1431.8,868.2V852.5h36.5v15.7Z" /></clipPath>
<clipPath id="c21_1"><path d="M967,1040v-15.7H923.8V1040Zm-655.6,20.7V843.6H1579.5v217.1Z" /></clipPath>
<clipPath id="c22_1"><path d="M923.8,1040v-15.7H967V1040Z" /></clipPath>
<clipPath id="c23_1"><path d="M666.5,953.2V937.5H607.1v15.7ZM311.4,973.9V843.6H962.2V973.9Z" /></clipPath>
<clipPath id="c24_1"><path d="M607.1,953.2V937.5h59.4v15.7Z" /></clipPath>
<clipPath id="c25_1"><path d="M519.6,435.6l25.8,-25.8L534.3,398.6l-25.9,25.9l11.2,11.1ZM208.3,824.8V98.6H934.6V824.8Z" /></clipPath>
<clipPath id="c26_1"><path d="M519.6,435.6L508.4,424.5l25.9,-25.9l11.1,11.2l-25.8,25.8Z" /></clipPath>
<clipPath id="c27_1"><path d="M1034,561.9V487.1h-15.7v74.8Zm-81.8,285V202.1h102.6V846.9Z" /></clipPath>
<clipPath id="c28_1"><path d="M1018.3,561.9V487.1H1034v74.8Z" /></clipPath>
<clipPath id="c29_1"><path d="M1169.1,631.8V557.1h-15.7v74.7Zm-86.3,215.1V342h107.1V846.9Z" /></clipPath>
<clipPath id="c30_1"><path d="M1153.4,631.8V557.1h15.7v74.7Z" /></clipPath>
<clipPath id="c31_1"><path d="M1302.2,698.2V634.9h-15.7v63.3ZM1227,846.9V486.2h96V846.9Z" /></clipPath>
<clipPath id="c32_1"><path d="M1286.5,698.2V634.9h15.7v63.3Z" /></clipPath>
<clipPath id="c33_1"><path d="M1439.7,776V701.2H1424V776Zm-68.5,70.9V630.3h89.3V846.9Z" /></clipPath>
<clipPath id="c34_1"><path d="M1424,776V701.2h15.7V776Z" /></clipPath>
<clipPath id="c35_1"><path d="M1515.4,846.9V723.5h35.8v60H1567v63.4Z" /></clipPath>
<clipPath id="c36_1"><path d="M1551.2,783.5v-60H1567v60Z" /></clipPath>
<clipPath id="c37_1"><path d="M993.1,222.1L1004.3,211v11.1Zm-58.5,0V172.8h69.7V211L980.8,187.5l-11.1,11.1l23.4,23.5Z" /></clipPath>
<clipPath id="c38_1"><path d="M993.1,222.1L969.7,198.6l11.1,-11.1l23.5,23.5l-11.2,11.1Z" /></clipPath>

<style type="text/css"><![CDATA[

.g0_1{
fill: none;
stroke: #000000;
stroke-width: 0.7638889;
stroke-linecap: butt;
stroke-linejoin: miter;
}
.g1_1{
}
.g2_1{
fill: #A3ABA1;
}
.g3_1{
fill: #0A0B09;
}
.g4_1{
fill: none;
stroke: #000000;
stroke-width: 0.7638889;
stroke-linecap: round;
stroke-linejoin: round;
}
.g5_1{
fill: none;
stroke: #000000;
stroke-width: 0.38194445;
stroke-linecap: butt;
stroke-linejoin: miter;
}

.s1_1{
font-size: 27.50px;
font-family: Arial-Black_9;
fill: TRANSPARENT;
}
.s2_1{
font-size: 9.17px;
font-family: Arial-Black_9;
fill: TRANSPARENT;
}
.s3_1{
font-size: 9.17px;
font-family: ArialMT_a;
fill: TRANSPARENT;
}
.s4_1{
font-size: 27.50px;
font-family: ArialMT_a;
fill: TRANSPARENT;
}
.s5_1{
font-size: 13.75px;
font-family: ArialMT_a;
fill: TRANSPARENT;
}
text::-moz-selection {
	color: transparent;
	background: rgba(0, 106, 173, 0.4);
}
text::selection {
	color: transparent;
	background: rgba(0, 106, 173, 0.4);
}

]]></style>

</defs>
<path d="M0,0
L0,1210
L1870,1210
L1870,0 Z " 
fill="#FFFFFF" stroke="none" />
<path d="M82.5,55H1691.3V1155H82.5V55ZM1705,1113.8h96.3" class="g0_1" />
<g clip-path="url(#c0_1)">
<g fill="#000000" >
<use xlink:href="#f0_7" transform="matrix(18,0,0,18,1708.8,1155)" />
<use xlink:href="#f0_3" transform="matrix(18,0,0,18,1730.7,1155)" />
<use xlink:href="#f0_4" transform="matrix(18,0,0,18,1739.8,1155)" />
<use xlink:href="#f0_5" transform="matrix(18,0,0,18,1758.2,1155)" />
</g>
</g>
<g clip-path="url(#c1_1)">
<g fill="#000000" >
<use xlink:href="#f0_a" transform="matrix(0,-6,6,0,1727.2,857.2)" />
</g>
</g>
<text transform="matrix(1, 0, 0, 1, 1708, 1155)" dx="0,-0.5,0,0" class="s1_1">C.02</text>
<g clip-path="url(#c1_1)">
<g fill="#000000" >
<use xlink:href="#f0_e" transform="matrix(0,-6,6,0,1727.2,853.7)" />
<use xlink:href="#f0_e" transform="matrix(0,-6,6,0,1727.2,847.1)" />
<use xlink:href="#f0_g" transform="matrix(0,-6,6,0,1727.2,840.4)" />
<use xlink:href="#f0_9" transform="matrix(0,-6,6,0,1727.2,832.8)" />
<use xlink:href="#f0_8" transform="matrix(0,-6,6,0,1727.2,823.1)" />
<use xlink:href="#f0_6" transform="matrix(0,-6,6,0,1727.2,816.4)" />
<use xlink:href="#f0_f" transform="matrix(0,-6,6,0,1727.2,809.9)" />
<use xlink:href="#f0_9" transform="matrix(0,-6,6,0,1727.2,803.3)" />
</g>
</g>
<g clip-path="url(#c2_1)">
<g fill="#000000" >
<use xlink:href="#f0_e" transform="matrix(0,-6,6,0,1726.4,578.3)" />
</g>
</g>
<text transform="matrix(0, -1, 1, 0, 1727, 857)" dx="0,0,0,0,0,0,0,-0.4,-0.6,0" class="s2_1">ISSUE DATE</text>
<g clip-path="url(#c2_1)">
<g fill="#000000" >
<use xlink:href="#f0_a" transform="matrix(0,-6,6,0,1726.4,571.6)" />
<use xlink:href="#f0_f" transform="matrix(0,-6,6,0,1726.4,568.1)" />
<use xlink:href="#f0_9" transform="matrix(0,-6,6,0,1726.4,561.5)" />
<use xlink:href="#f0_6" transform="matrix(0,-6,6,0,1726.4,551.8)" />
<use xlink:href="#f0_8" transform="matrix(0,-6,6,0,1726.4,544.6)" />
<use xlink:href="#f0_8" transform="matrix(0,-6,6,0,1726.4,537.5)" />
<use xlink:href="#f0_d" transform="matrix(0,-6,6,0,1726.4,530.4)" />
<use xlink:href="#f0_9" transform="matrix(0,-6,6,0,1726.4,523.2)" />
<use xlink:href="#f0_e" transform="matrix(0,-6,6,0,1726.4,516.6)" />
<use xlink:href="#f0_e" transform="matrix(0,-6,6,0,1726.4,510)" />
</g>
</g>
<g clip-path="url(#c3_1)">
<g fill="#000000" >
<use xlink:href="#f0_c" transform="matrix(0,-6,6,0,1727.2,747.1)" />
</g>
</g>
<text transform="matrix(0, -1, 1, 0, 1726, 578)" class="s2_1">SITE ADDRESS</text>
<g clip-path="url(#c3_1)">
<g fill="#000000" >
<use xlink:href="#f0_h" transform="matrix(0,-6,6,0,1727.2,739.6)" />
<use xlink:href="#f0_b" transform="matrix(0,-6,6,0,1727.2,730.4)" />
<use xlink:href="#f0_9" transform="matrix(0,-6,6,0,1727.2,722.8)" />
<use xlink:href="#f0_d" transform="matrix(0,-6,6,0,1727.2,716.2)" />
</g>
</g>
<g clip-path="url(#c4_1)">
<g fill="#000000" >
<use xlink:href="#f1_m" transform="matrix(0,-6,6,0,1775.9,409.2)" />
</g>
</g>
<text transform="matrix(0, -1, 1, 0, 1727, 747)" dx="0,-0.2,0,0,0" class="s2_1">OWNER</text>
<g clip-path="url(#c4_1)">
<g fill="#000000" >
<use xlink:href="#f1_t" transform="matrix(0,-6,6,0,1775.9,403.6)" />
<use xlink:href="#f1_u" transform="matrix(0,-6,6,0,1775.9,398.5)" />
<use xlink:href="#f1_12" transform="matrix(0,-6,6,0,1775.9,396.5)" />
<use xlink:href="#f1_16" transform="matrix(0,-6,6,0,1775.9,389.3)" />
<use xlink:href="#f1_z" transform="matrix(0,-6,6,0,1775.9,382.7)" />
<use xlink:href="#f1_11" transform="matrix(0,-6,6,0,1775.9,377.6)" />
<use xlink:href="#f1_v" transform="matrix(0,-6,6,0,1775.9,374.6)" />
<use xlink:href="#f1_u" transform="matrix(0,-6,6,0,1775.9,367.4)" />
<use xlink:href="#f1_12" transform="matrix(0,-6,6,0,1775.9,365.4)" />
<use xlink:href="#f1_w" transform="matrix(0,-6,6,0,1775.9,358.3)" />
<use xlink:href="#f1_u" transform="matrix(0,-6,6,0,1775.9,356.2)" />
<use xlink:href="#f1_p" transform="matrix(0,-6,6,0,1775.9,354.2)" />
<use xlink:href="#f1_r" transform="matrix(0,-6,6,0,1775.9,349.6)" />
<use xlink:href="#f1_y" transform="matrix(0,-6,6,0,1775.9,344.5)" />
<use xlink:href="#f1_12" transform="matrix(0,-6,6,0,1775.9,339.4)" />
<use xlink:href="#f1_r" transform="matrix(0,-6,6,0,1775.9,334.8)" />
<use xlink:href="#f1_q" transform="matrix(0,-6,6,0,1775.9,329.7)" />
<use xlink:href="#f1_14" transform="matrix(0,-6,6,0,1775.9,322.1)" />
<use xlink:href="#f1_y" transform="matrix(0,-6,6,0,1775.9,317)" />
<use xlink:href="#f1_q" transform="matrix(0,-6,6,0,1775.9,311.9)" />
<use xlink:href="#f1_r" transform="matrix(0,-6,6,0,1775.9,306.8)" />
<use xlink:href="#f1_11" transform="matrix(0,-6,6,0,1775.9,301.7)" />
<use xlink:href="#f1_n" transform="matrix(0,-6,6,0,1775.9,296.1)" />
<use xlink:href="#f1_h" transform="matrix(0,-6,6,0,1775.9,288.5)" />
<use xlink:href="#f1_11" transform="matrix(0,-6,6,0,1775.9,281.8)" />
<use xlink:href="#f1_r" transform="matrix(0,-6,6,0,1775.9,278.8)" />
<use xlink:href="#f1_n" transform="matrix(0,-6,6,0,1775.9,273.7)" />
<use xlink:href="#f1_13" transform="matrix(0,-6,6,0,1775.9,268.6)" />
<use xlink:href="#f1_u" transform="matrix(0,-6,6,0,1775.9,266)" />
<use xlink:href="#f1_15" transform="matrix(0,-6,6,0,1775.9,264)" />
<use xlink:href="#f1_r" transform="matrix(0,-6,6,0,1775.9,259.4)" />
<use xlink:href="#f1_h" transform="matrix(0,-6,6,0,1775.9,251.8)" />
<use xlink:href="#f1_z" transform="matrix(0,-6,6,0,1775.9,245.2)" />
<use xlink:href="#f1_x" transform="matrix(0,-6,6,0,1775.9,240.1)" />
<use xlink:href="#f1_x" transform="matrix(0,-6,6,0,1775.9,232.4)" />
<use xlink:href="#f1_z" transform="matrix(0,-6,6,0,1775.9,224.8)" />
<use xlink:href="#f1_y" transform="matrix(0,-6,6,0,1775.9,219.7)" />
<use xlink:href="#f1_12" transform="matrix(0,-6,6,0,1775.9,214.6)" />
<use xlink:href="#f1_g" transform="matrix(0,-6,6,0,1785.3,409.2)" />
</g>
</g>
<text transform="matrix(0, -1, 1, 0, 1775, 409)" class="s3_1">This work is licensed under a Creative Commons </text>
<g clip-path="url(#c4_1)">
<g fill="#000000" >
<use xlink:href="#f1_13" transform="matrix(0,-6,6,0,1785.3,403.1)" />
<use xlink:href="#f1_13" transform="matrix(0,-6,6,0,1785.3,400.5)" />
<use xlink:href="#f1_11" transform="matrix(0,-6,6,0,1785.3,398)" />
<use xlink:href="#f1_u" transform="matrix(0,-6,6,0,1785.3,394.9)" />
<use xlink:href="#f1_o" transform="matrix(0,-6,6,0,1785.3,392.9)" />
<use xlink:href="#f1_14" transform="matrix(0,-6,6,0,1785.3,387.8)" />
<use xlink:href="#f1_13" transform="matrix(0,-6,6,0,1785.3,382.7)" />
<use xlink:href="#f1_u" transform="matrix(0,-6,6,0,1785.3,380.2)" />
<use xlink:href="#f1_z" transform="matrix(0,-6,6,0,1785.3,378.1)" />
<use xlink:href="#f1_y" transform="matrix(0,-6,6,0,1785.3,373)" />
<use xlink:href="#f1_5" transform="matrix(0,-6,6,0,1785.3,367.9)" />
<use xlink:href="#f1_l" transform="matrix(0,-6,6,0,1785.3,362.3)" />
<use xlink:href="#f1_t" transform="matrix(0,-6,6,0,1785.3,356.2)" />
<use xlink:href="#f1_n" transform="matrix(0,-6,6,0,1785.3,351.1)" />
<use xlink:href="#f1_11" transform="matrix(0,-6,6,0,1785.3,346)" />
<use xlink:href="#f1_r" transform="matrix(0,-6,6,0,1785.3,343)" />
<use xlink:href="#f1_g" transform="matrix(0,-6,6,0,1785.3,337.9)" />
<use xlink:href="#f1_w" transform="matrix(0,-6,6,0,1785.3,331.8)" />
<use xlink:href="#f1_u" transform="matrix(0,-6,6,0,1785.3,329.7)" />
<use xlink:href="#f1_v" transform="matrix(0,-6,6,0,1785.3,327.7)" />
<use xlink:href="#f1_r" transform="matrix(0,-6,6,0,1785.3,323.1)" />
<use xlink:href="#f1_c" transform="matrix(0,-6,6,0,1785.3,315.5)" />
<use xlink:href="#f1_6" transform="matrix(0,-6,6,0,1785.3,310.4)" />
<use xlink:href="#f1_8" transform="matrix(0,-6,6,0,1785.3,307.8)" />
<use xlink:href="#f1_j" transform="matrix(0,-6,6,0,1785.3,300.2)" />
<use xlink:href="#f1_y" transform="matrix(0,-6,6,0,1785.3,297.6)" />
<use xlink:href="#f1_13" transform="matrix(0,-6,6,0,1785.3,292.5)" />
<use xlink:href="#f1_r" transform="matrix(0,-6,6,0,1785.3,290)" />
<use xlink:href="#f1_11" transform="matrix(0,-6,6,0,1785.3,284.9)" />
<use xlink:href="#f1_y" transform="matrix(0,-6,6,0,1785.3,281.8)" />
<use xlink:href="#f1_n" transform="matrix(0,-6,6,0,1785.3,276.7)" />
<use xlink:href="#f1_13" transform="matrix(0,-6,6,0,1785.3,271.6)" />
<use xlink:href="#f1_u" transform="matrix(0,-6,6,0,1785.3,269.1)" />
<use xlink:href="#f1_z" transform="matrix(0,-6,6,0,1785.3,267)" />
<use xlink:href="#f1_y" transform="matrix(0,-6,6,0,1785.3,261.9)" />
<use xlink:href="#f1_n" transform="matrix(0,-6,6,0,1785.3,256.8)" />
<use xlink:href="#f1_w" transform="matrix(0,-6,6,0,1785.3,251.7)" />
<use xlink:href="#f1_k" transform="matrix(0,-6,6,0,1785.3,247.2)" />
<use xlink:href="#f1_u" transform="matrix(0,-6,6,0,1785.3,242.1)" />
<use xlink:href="#f1_p" transform="matrix(0,-6,6,0,1785.3,240)" />
<use xlink:href="#f1_r" transform="matrix(0,-6,6,0,1785.3,235.4)" />
<use xlink:href="#f1_y" transform="matrix(0,-6,6,0,1785.3,230.3)" />
<use xlink:href="#f1_12" transform="matrix(0,-6,6,0,1785.3,225.2)" />
<use xlink:href="#f1_r" transform="matrix(0,-6,6,0,1785.3,220.7)" />
<use xlink:href="#f1_t" transform="matrix(0,-6,6,0,1794.8,409.2)" />
</g>
</g>
<text transform="matrix(0, -1, 1, 0, 1785, 409)" class="s3_1">Attribution- ShareAlike 4.0 International License</text>
<g clip-path="url(#c4_1)">
<g fill="#000000" >
<use xlink:href="#f1_13" transform="matrix(0,-6,6,0,1794.8,404.1)" />
<use xlink:href="#f1_13" transform="matrix(0,-6,6,0,1794.8,401.6)" />
<use xlink:href="#f1_10" transform="matrix(0,-6,6,0,1794.8,399)" />
<use xlink:href="#f1_f" transform="matrix(0,-6,6,0,1794.8,393.9)" />
<use xlink:href="#f1_7" transform="matrix(0,-6,6,0,1794.8,391.4)" />
<use xlink:href="#f1_7" transform="matrix(0,-6,6,0,1794.8,388.8)" />
<use xlink:href="#f1_p" transform="matrix(0,-6,6,0,1794.8,386.3)" />
<use xlink:href="#f1_11" transform="matrix(0,-6,6,0,1794.8,381.7)" />
<use xlink:href="#f1_r" transform="matrix(0,-6,6,0,1794.8,378.6)" />
<use xlink:href="#f1_n" transform="matrix(0,-6,6,0,1794.8,373.5)" />
<use xlink:href="#f1_13" transform="matrix(0,-6,6,0,1794.8,368.4)" />
<use xlink:href="#f1_u" transform="matrix(0,-6,6,0,1794.8,365.9)" />
<use xlink:href="#f1_15" transform="matrix(0,-6,6,0,1794.8,363.9)" />
<use xlink:href="#f1_r" transform="matrix(0,-6,6,0,1794.8,359.3)" />
<use xlink:href="#f1_p" transform="matrix(0,-6,6,0,1794.8,354.2)" />
<use xlink:href="#f1_z" transform="matrix(0,-6,6,0,1794.8,349.6)" />
<use xlink:href="#f1_x" transform="matrix(0,-6,6,0,1794.8,344.5)" />
<use xlink:href="#f1_x" transform="matrix(0,-6,6,0,1794.8,336.9)" />
<use xlink:href="#f1_z" transform="matrix(0,-6,6,0,1794.8,329.2)" />
<use xlink:href="#f1_y" transform="matrix(0,-6,6,0,1794.8,324.1)" />
<use xlink:href="#f1_12" transform="matrix(0,-6,6,0,1794.8,319)" />
<use xlink:href="#f1_6" transform="matrix(0,-6,6,0,1794.8,314.4)" />
<use xlink:href="#f1_z" transform="matrix(0,-6,6,0,1794.8,311.9)" />
<use xlink:href="#f1_11" transform="matrix(0,-6,6,0,1794.8,306.8)" />
<use xlink:href="#f1_s" transform="matrix(0,-6,6,0,1794.8,303.7)" />
<use xlink:href="#f1_7" transform="matrix(0,-6,6,0,1794.8,298.7)" />
<use xlink:href="#f1_w" transform="matrix(0,-6,6,0,1794.8,296.1)" />
<use xlink:href="#f1_u" transform="matrix(0,-6,6,0,1794.8,294.1)" />
<use xlink:href="#f1_p" transform="matrix(0,-6,6,0,1794.8,292)" />
<use xlink:href="#f1_r" transform="matrix(0,-6,6,0,1794.8,287.4)" />
<use xlink:href="#f1_y" transform="matrix(0,-6,6,0,1794.8,282.3)" />
<use xlink:href="#f1_12" transform="matrix(0,-6,6,0,1794.8,277.3)" />
<use xlink:href="#f1_r" transform="matrix(0,-6,6,0,1794.8,272.7)" />
<use xlink:href="#f1_12" transform="matrix(0,-6,6,0,1794.8,267.6)" />
<use xlink:href="#f1_7" transform="matrix(0,-6,6,0,1794.8,263)" />
<use xlink:href="#f1_o" transform="matrix(0,-6,6,0,1794.8,260.4)" />
<use xlink:href="#f1_17" transform="matrix(0,-6,6,0,1794.8,255.3)" />
<use xlink:href="#f1_5" transform="matrix(0,-6,6,0,1794.8,250.8)" />
<use xlink:href="#f1_12" transform="matrix(0,-6,6,0,1794.8,247.7)" />
<use xlink:href="#f1_n" transform="matrix(0,-6,6,0,1794.8,243.1)" />
<use xlink:href="#f1_7" transform="matrix(0,-6,6,0,1794.8,238)" />
<use xlink:href="#f1_c" transform="matrix(0,-6,6,0,1794.8,235.5)" />
<use xlink:href="#f1_6" transform="matrix(0,-6,6,0,1794.8,230.4)" />
<use xlink:href="#f1_8" transform="matrix(0,-6,6,0,1794.8,227.8)" />
<use xlink:href="#f1_7" transform="matrix(0,-6,6,0,1794.8,222.7)" />
</g>
</g>
<g clip-path="url(#c5_1)">
<g fill="#000000" >
<use xlink:href="#f1_i" transform="matrix(0,-18,18,0,1761.8,1096.2)" />
</g>
</g>
<text transform="matrix(0, -1, 1, 0, 1794, 409)" class="s3_1">http://creativecommons.org/licenses/by-sa/4.0/</text>
<g clip-path="url(#c5_1)">
<g fill="#000000" >
<use xlink:href="#f1_n" transform="matrix(0,-18,18,0,1761.8,1074.8)" />
<use xlink:href="#f1_o" transform="matrix(0,-18,18,0,1761.8,1059.5)" />
<use xlink:href="#f1_w" transform="matrix(0,-18,18,0,1761.8,1044.2)" />
<use xlink:href="#f1_r" transform="matrix(0,-18,18,0,1761.8,1038.1)" />
<use xlink:href="#f1_12" transform="matrix(0,-18,18,0,1761.8,1022.8)" />
</g>
</g>
<text transform="matrix(0, -1, 1, 0, 1761, 1096)" class="s4_1">Gables</text>
<g clip-path="url(#c6_1)">
<path d="M1704.6,139.9h97.5V54.1h-97.5v85.8Z" class="g1_1" />
</g>
<g clip-path="url(#c7_1)">
<path d="M1713.1,413h39.7V313.5h-39.7V413Z" class="g2_1" />
</g>
<g clip-path="url(#c8_1)">
<path d="M1712.6,413.4h40.6V313.3h-40.6V413.4Z" class="g3_1" />
</g>
<path d="M1594.2,849.2h-13.5m13.5,49.6h-13.5V849.2m13.5,49.6V849.2m-1284,0H296.6m13.6,49.6H296.6V849.2m13.6,49.6V849.2m1287.4,50.7v-1.1m-868.4,1.1v-1.1m-432.6,0v1.1m432.6,-1.1h-419m1284,1.1v-1.1m-432.5,0v1.1m419,-1.1H729.2m-435.9,0v1.1M1594.2,843.6V830.1m-31.5,0h31.5m-31.5,13.5V830.1m-1234.5,0H296.6m31.6,13.5V830.1m-31.6,13.5V830.1m1257.5,0h-25.2m-13.5,0H1384.7m-13.5,0H1240.5m-13.5,0H1096.4m-13.6,0H952.2m-13.5,0H808m-13.5,0H663.8m-13.5,0H519.7m-13.6,0H375.5m-13.5,0H336.7m615.5,-602l130.6,130.7m13.6,13.5L1227,503m13.5,13.5l130.7,130.7m13.5,13.5l130.7,130.6m13.5,13.5l25.2,25.3m13.9,-5.3L956.3,213.1m606.4,617l5.3,-5.3M952.2,217.2v1.7m4.1,-5.8l-4.1,4.1M663.8,830.1V503m-13.5,13.5V830.1m734.4,0V660.7m-13.5,-13.5V830.1m-274.8,0V372.3m-13.6,-13.5V830.1m157.7,0V516.5M1227,503V830.1m301.9,0V804.8m-13.5,-13.5v38.8m-1178.7,0L362,804.8m13.5,-13.5L506.1,660.7m13.6,-13.5L650.3,516.5M663.8,503L794.5,372.3M808,358.8L938.7,228.1m-4.1,-15L322.9,824.8M952.2,218.9H938.7M808,830.1V358.8m-13.5,13.5V830.1m-419,0V791.3M362,804.8v25.3m157.7,0V647.2m-13.6,13.5V830.1m1056.6,0h-8.6m-890.3,0H650.3M663.8,503l-13.5,13.5m720.9,313.6h13.5M1371.2,647.2l13.5,13.5M1082.8,830.1h13.6M1082.8,358.8l13.6,13.5M1227,830.1h13.5M1227,503l13.5,13.5m274.9,313.6h13.5m-13.5,-38.8l13.5,13.5M328.2,830.1h8.5m-8.5,0l-5.3,-5.3M934.6,213.1l4.1,4.1m13.5,612.9H938.7m-130.7,0H794.5M808,358.8l-13.5,13.5m-419,457.8H362m13.5,-38.8L362,804.8m157.7,25.3H506.1M519.7,647.2l-13.6,13.5M1594.2,849.2v-5.6m-13.5,5.6v-5.6h13.5m-1284,0v5.6m-13.6,0v-5.6h13.6m419,5.6v-5.6m833.5,0H729.2m851.5,5.6H729.2m0,-5.6h-401m401,5.6h-419m1284,49.6h3.4m-1304.3,0h3.3m-3.3,1.1h-.6m1305.5,0h-.6m-34.9,-56.3h18m-1270.5,0h18m624,-13.5v-602m-13.5,-9.2V830.1m0,-612.9v1.7m223,681H293.3m1304.3,0H1161.7M952.2,228.1v-9.2m-659.5,681V1089M1598.2,899.9V1089" class="g4_1" />
<g clip-path="url(#c9_1)">
<path d="M328.2,857.3v14.9m0,0v11.4m40.5,-26.3v14.9m0,0v11.4" class="g0_1" />
<path d="M339.7,872.2h17.6" class="g5_1" />
<path d="M329.3,872.2l10.4,-1.8v3.5l-10.4,-1.7Z" class="g1_1" />
<path d="M329.3,872.2l10.4,-1.8v3.5l-10.4,-1.7Z" class="g5_1" />
<path d="M367.6,872.2l-10.3,1.7v-3.5l10.3,1.8Z" class="g1_1" />
<path d="M367.6,872.2l-10.3,1.7v-3.5l10.3,1.8Z" class="g5_1" />
<path d="M348.5,873.7c.9,9.4,10.4,14.2,28.1,14.2" class="g0_1" />
<path d="M349.5,871.1c.6,.6,.6,1.5,0,2.1c-.6,.6,-1.5,.6,-2.1,0c-.6,-.6,-.6,-1.5,0,-2.1c.6,-.6,1.5,-.6,2.1,0Z" class="g1_1" />
<path d="M349.5,871.1c.6,.6,.6,1.5,0,2.1c-.6,.6,-1.5,.6,-2.1,0c-.6,-.6,-.6,-1.5,0,-2.1c.6,-.6,1.5,-.6,2.1,0" class="g0_1" />
</g>
<g clip-path="url(#c10_1)">
<g fill="#000000" >
<use xlink:href="#f1_c" transform="matrix(9,0,0,9,380.4,892.2)" />
<use xlink:href="#f1_9" transform="matrix(9,0,0,9,391.9,892.2)" />
<use xlink:href="#f1_7" transform="matrix(9,0,0,9,399.5,892.2)" />
<use xlink:href="#f1_a" transform="matrix(9,0,0,9,403.4,892.2)" />
<use xlink:href="#f1_3" transform="matrix(9,0,0,9,411,892.2)" />
</g>
</g>
<text x="380" y="892" class="s5_1">4 1/2"</text>
<g clip-path="url(#c11_1)">
<path d="M368.7,843.8v28.4m0,0v11.4M512.9,843.8v28.4m0,0v11.4" class="g0_1" />
<path d="M380.2,872.2H501.4" class="g5_1" />
<path d="M369.9,872.2l10.3,-1.8v3.5l-10.3,-1.7Z" class="g1_1" />
<path d="M369.9,872.2l10.3,-1.8v3.5l-10.3,-1.7Z" class="g5_1" />
<path d="M511.7,872.2l-10.3,1.7v-3.5l10.3,1.8Z" class="g1_1" />
<path d="M511.7,872.2l-10.3,1.7v-3.5l10.3,1.8Z" class="g5_1" />
</g>
<g clip-path="url(#c12_1)">
<g fill="#000000" >
<use xlink:href="#f1_9" transform="matrix(9,0,0,9,426.4,864.7)" />
<use xlink:href="#f1_4" transform="matrix(9,0,0,9,434,864.7)" />
<use xlink:href="#f1_5" transform="matrix(9,0,0,9,436.6,864.7)" />
<use xlink:href="#f1_c" transform="matrix(9,0,0,9,441.2,864.7)" />
<use xlink:href="#f1_3" transform="matrix(9,0,0,9,448.9,864.7)" />
</g>
</g>
<text x="426" y="864" class="s5_1">1'-4"</text>
<g clip-path="url(#c13_1)">
<path d="M512.9,843.8v28.4m0,0v11.4M657.1,843.8v28.4m0,0v11.4" class="g0_1" />
<path d="M524.4,872.2H645.6" class="g5_1" />
<path d="M514.1,872.2l10.3,-1.8v3.5l-10.3,-1.7Z" class="g1_1" />
<path d="M514.1,872.2l10.3,-1.8v3.5l-10.3,-1.7Z" class="g5_1" />
<path d="M655.9,872.2l-10.3,1.7v-3.5l10.3,1.8Z" class="g1_1" />
<path d="M655.9,872.2l-10.3,1.7v-3.5l10.3,1.8Z" class="g5_1" />
</g>
<g clip-path="url(#c14_1)">
<g fill="#000000" >
<use xlink:href="#f1_9" transform="matrix(9,0,0,9,570.5,864.7)" />
<use xlink:href="#f1_4" transform="matrix(9,0,0,9,578.2,864.7)" />
<use xlink:href="#f1_5" transform="matrix(9,0,0,9,580.8,864.7)" />
<use xlink:href="#f1_c" transform="matrix(9,0,0,9,585.4,864.7)" />
<use xlink:href="#f1_3" transform="matrix(9,0,0,9,593,864.7)" />
</g>
</g>
<text x="570" y="864" class="s5_1">1'-4"</text>
<g clip-path="url(#c15_1)">
<path d="M657.1,843.8v28.4m0,0v11.4M801.3,843.8v28.4m0,0v11.4" class="g0_1" />
<path d="M668.6,872.2H789.8" class="g5_1" />
<path d="M658.2,872.2l10.4,-1.8v3.5l-10.4,-1.7Z" class="g1_1" />
<path d="M658.2,872.2l10.4,-1.8v3.5l-10.4,-1.7Z" class="g5_1" />
<path d="M800.1,872.2l-10.3,1.7v-3.5l10.3,1.8Z" class="g1_1" />
<path d="M800.1,872.2l-10.3,1.7v-3.5l10.3,1.8Z" class="g5_1" />
</g>
<g clip-path="url(#c16_1)">
<g fill="#000000" >
<use xlink:href="#f1_9" transform="matrix(9,0,0,9,714.7,864.7)" />
<use xlink:href="#f1_4" transform="matrix(9,0,0,9,722.4,864.7)" />
<use xlink:href="#f1_5" transform="matrix(9,0,0,9,725,864.7)" />
<use xlink:href="#f1_c" transform="matrix(9,0,0,9,729.6,864.7)" />
<use xlink:href="#f1_3" transform="matrix(9,0,0,9,737.2,864.7)" />
</g>
</g>
<text x="714" y="864" class="s5_1">1'-4"</text>
<g clip-path="url(#c17_1)">
<path d="M1562.7,843.8v28.4m0,0v11.4m-40.6,-39.8v28.4m0,0v11.4" class="g0_1" />
<path d="M1551.2,872.2h-17.6" class="g5_1" />
<path d="M1561.5,872.2l-10.3,1.7v-3.5l10.3,1.8Z" class="g1_1" />
<path d="M1561.5,872.2l-10.3,1.7v-3.5l10.3,1.8Z" class="g5_1" />
<path d="M1523.3,872.2l10.3,-1.8v3.5l-10.3,-1.7Z" class="g1_1" />
<path d="M1523.3,872.2l10.3,-1.8v3.5l-10.3,-1.7Z" class="g5_1" />
<path d="M1542.3,873.7c-.9,9.4,-10.4,14.2,-28,14.2" class="g0_1" />
<path d="M1543.5,871.1c.6,.6,.6,1.5,0,2.1c-.6,.6,-1.6,.6,-2.2,0c-.6,-.6,-.6,-1.5,0,-2.1c.6,-.6,1.6,-.6,2.2,0Z" class="g1_1" />
<path d="M1543.5,871.1c.6,.6,.6,1.5,0,2.1c-.6,.6,-1.6,.6,-2.2,0c-.6,-.6,-.6,-1.5,0,-2.1c.6,-.6,1.6,-.6,2.2,0" class="g0_1" />
</g>
<g clip-path="url(#c18_1)">
<g fill="#000000" >
<use xlink:href="#f1_c" transform="matrix(9,0,0,9,1473.5,892.2)" />
<use xlink:href="#f1_9" transform="matrix(9,0,0,9,1484.9,892.2)" />
<use xlink:href="#f1_7" transform="matrix(9,0,0,9,1492.6,892.2)" />
<use xlink:href="#f1_a" transform="matrix(9,0,0,9,1496.4,892.2)" />
<use xlink:href="#f1_3" transform="matrix(9,0,0,9,1504.1,892.2)" />
</g>
</g>
<text x="1473" y="892" class="s5_1">4 1/2"</text>
<g clip-path="url(#c19_1)">
<path d="M1522.1,843.8v28.4m0,0v11.4M1378,843.8v28.4m0,0v11.4" class="g0_1" />
<path d="M1510.7,872.2H1389.4" class="g5_1" />
<path d="M1521,872.2l-10.3,1.7v-3.5l10.3,1.8Z" class="g1_1" />
<path d="M1521,872.2l-10.3,1.7v-3.5l10.3,1.8Z" class="g5_1" />
<path d="M1379.1,872.2l10.3,-1.8v3.5l-10.3,-1.7Z" class="g1_1" />
<path d="M1379.1,872.2l10.3,-1.8v3.5l-10.3,-1.7Z" class="g5_1" />
</g>
<g clip-path="url(#c20_1)">
<g fill="#000000" >
<use xlink:href="#f1_9" transform="matrix(9,0,0,9,1435.6,864.7)" />
<use xlink:href="#f1_4" transform="matrix(9,0,0,9,1443.2,864.7)" />
<use xlink:href="#f1_5" transform="matrix(9,0,0,9,1445.9,864.7)" />
<use xlink:href="#f1_c" transform="matrix(9,0,0,9,1450.4,864.7)" />
<use xlink:href="#f1_3" transform="matrix(9,0,0,9,1458.1,864.7)" />
</g>
</g>
<text x="1435" y="864" class="s5_1">1'-4"</text>
<g clip-path="url(#c21_1)">
<path d="M328.2,857.3v186.6m0,0v11.5M1562.7,857.3v186.6m0,0v11.5" class="g0_1" />
<path d="M339.7,1043.9H1551.2" class="g5_1" />
<path d="M329.3,1043.9l10.4,-1.7v3.4l-10.4,-1.7Z" class="g1_1" />
<path d="M329.3,1043.9l10.4,-1.7v3.4l-10.4,-1.7Z" class="g5_1" />
<path d="M1561.5,1043.9l-10.3,1.7v-3.4l10.3,1.7Z" class="g1_1" />
<path d="M1561.5,1043.9l-10.3,1.7v-3.4l10.3,1.7Z" class="g5_1" />
</g>
<g clip-path="url(#c22_1)">
<g fill="#000000" >
<use xlink:href="#f1_9" transform="matrix(9,0,0,9,927.7,1036.5)" />
<use xlink:href="#f1_9" transform="matrix(9,0,0,9,934.3,1036.5)" />
<use xlink:href="#f1_4" transform="matrix(9,0,0,9,941.9,1036.5)" />
<use xlink:href="#f1_5" transform="matrix(9,0,0,9,944.6,1036.5)" />
<use xlink:href="#f1_d" transform="matrix(9,0,0,9,949.1,1036.5)" />
<use xlink:href="#f1_3" transform="matrix(9,0,0,9,956.8,1036.5)" />
</g>
</g>
<text x="927" y="1036" dx="0,-1,0,0,0,0" class="s5_1">11'-5"</text>
<g clip-path="url(#c23_1)">
<path d="M328.2,857.3v99.8m0,0v11.5M945.4,857.3v99.8m0,0v11.5" class="g0_1" />
<path d="M339.7,957.1H934" class="g5_1" />
<path d="M329.3,957.1l10.4,-1.7v3.4l-10.4,-1.7Z" class="g1_1" />
<path d="M329.3,957.1l10.4,-1.7v3.4l-10.4,-1.7Z" class="g5_1" />
<path d="M944.3,957.1L934,958.8v-3.4l10.3,1.7Z" class="g1_1" />
<path d="M944.3,957.1L934,958.8v-3.4l10.3,1.7Z" class="g5_1" />
</g>
<g clip-path="url(#c24_1)">
<g fill="#000000" >
<use xlink:href="#f1_d" transform="matrix(9,0,0,9,610.9,949.7)" />
<use xlink:href="#f1_4" transform="matrix(9,0,0,9,618.5,949.7)" />
<use xlink:href="#f1_5" transform="matrix(9,0,0,9,621.2,949.7)" />
<use xlink:href="#f1_e" transform="matrix(9,0,0,9,625.7,949.7)" />
<use xlink:href="#f1_9" transform="matrix(9,0,0,9,637.2,949.7)" />
<use xlink:href="#f1_7" transform="matrix(9,0,0,9,644.9,949.7)" />
<use xlink:href="#f1_a" transform="matrix(9,0,0,9,648.7,949.7)" />
<use xlink:href="#f1_3" transform="matrix(9,0,0,9,656.3,949.7)" />
</g>
</g>
<text x="610" y="949" class="s5_1">5'-8 1/2"</text>
<g clip-path="url(#c25_1)">
<path d="M924.9,203.4L841.1,119.6m0,0L833,111.5M313.2,815.1L229.4,731.3m0,0l-8.1,-8.1" class="g0_1" />
<path d="M833,127.7L237.5,723.2" class="g5_1" />
<path d="M840.3,120.5l-6.1,8.5l-2.4,-2.5l8.5,-6Z" class="g1_1" />
<path d="M840.3,120.5l-6.1,8.5l-2.4,-2.5l8.5,-6Z" class="g5_1" />
<path d="M230.2,730.5l6.1,-8.5l2.4,2.4l-8.5,6.1Z" class="g1_1" />
<path d="M230.2,730.5l6.1,-8.5l2.4,2.4l-8.5,6.1Z" class="g5_1" />
</g>
<g clip-path="url(#c26_1)">
<g fill="#000000" >
<use xlink:href="#f1_e" transform="matrix(6.4,-6.4,6.4,6.4,519.8,430.4)" />
<use xlink:href="#f1_4" transform="matrix(6.4,-6.4,6.4,6.4,525.2,425)" />
<use xlink:href="#f1_5" transform="matrix(6.4,-6.4,6.4,6.4,527,423.2)" />
<use xlink:href="#f1_8" transform="matrix(6.4,-6.4,6.4,6.4,530.3,419.9)" />
<use xlink:href="#f1_3" transform="matrix(6.4,-6.4,6.4,6.4,535.7,414.5)" />
</g>
</g>
<text transform="matrix(0.71, -0.71, 0.71, 0.71, 519, 430)" class="s5_1">8'-0"</text>
<g clip-path="url(#c27_1)">
<path d="M965.9,830.1H1038m0,0h11.4M965.9,218.9H1038m0,0h11.4" class="g0_1" />
<path d="M1038,818.6V230.4" class="g5_1" />
<path d="M1038,828.9l-1.7,-10.3h3.4l-1.7,10.3Z" class="g1_1" />
<path d="M1038,828.9l-1.7,-10.3h3.4l-1.7,10.3Z" class="g5_1" />
<path d="M1038,220.1l1.7,10.3h-3.4l1.7,-10.3Z" class="g1_1" />
<path d="M1038,220.1l1.7,10.3h-3.4l1.7,-10.3Z" class="g5_1" />
</g>
<g clip-path="url(#c28_1)">
<g fill="#000000" >
<use xlink:href="#f1_d" transform="matrix(0,-9,9,0,1030.5,558.1)" />
<use xlink:href="#f1_19" transform="matrix(0,-9,9,0,1030.5,550.4)" />
<use xlink:href="#f1_5" transform="matrix(0,-9,9,0,1030.5,547.4)" />
<use xlink:href="#f1_e" transform="matrix(0,-9,9,0,1030.5,542.8)" />
<use xlink:href="#f1_18" transform="matrix(0,-9,9,0,1030.5,535.1)" />
</g>
</g>
<text transform="matrix(0, -1, 1, 0, 1030, 558)" class="s5_1">5’-8”</text>
<g clip-path="url(#c29_1)">
<path d="M1096.6,830.1h76.5m0,0h11.4M1096.6,358.8h76.5m0,0h11.4" class="g0_1" />
<path d="M1173.1,818.6V370.3" class="g5_1" />
<path d="M1173.1,828.9l-1.7,-10.3h3.4l-1.7,10.3Z" class="g1_1" />
<path d="M1173.1,828.9l-1.7,-10.3h3.4l-1.7,10.3Z" class="g5_1" />
<path d="M1173.1,360l1.7,10.3h-3.4l1.7,-10.3Z" class="g1_1" />
<path d="M1173.1,360l1.7,10.3h-3.4l1.7,-10.3Z" class="g5_1" />
</g>
<g clip-path="url(#c30_1)">
<g fill="#000000" >
<use xlink:href="#f1_c" transform="matrix(0,-9,9,0,1165.6,628)" />
<use xlink:href="#f1_4" transform="matrix(0,-9,9,0,1165.6,620.4)" />
<use xlink:href="#f1_5" transform="matrix(0,-9,9,0,1165.6,617.7)" />
<use xlink:href="#f1_c" transform="matrix(0,-9,9,0,1165.6,613.2)" />
<use xlink:href="#f1_3" transform="matrix(0,-9,9,0,1165.6,605.5)" />
</g>
</g>
<text transform="matrix(0, -1, 1, 0, 1165, 628)" class="s5_1">4'-4"</text>
<g clip-path="url(#c31_1)">
<path d="M1240.8,830.1h65.4m0,0h11.4M1240.8,503h65.4m0,0h11.4" class="g0_1" />
<path d="M1306.2,818.6V514.5" class="g5_1" />
<path d="M1306.2,828.9l-1.7,-10.3h3.4l-1.7,10.3Z" class="g1_1" />
<path d="M1306.2,828.9l-1.7,-10.3h3.4l-1.7,10.3Z" class="g5_1" />
<path d="M1306.2,504.1l1.7,10.4h-3.4l1.7,-10.4Z" class="g1_1" />
<path d="M1306.2,504.1l1.7,10.4h-3.4l1.7,-10.4Z" class="g5_1" />
</g>
<g clip-path="url(#c32_1)">
<g fill="#000000" >
<use xlink:href="#f1_b" transform="matrix(0,-9,9,0,1298.7,694.4)" />
<use xlink:href="#f1_4" transform="matrix(0,-9,9,0,1298.7,686.7)" />
</g>
</g>
<text transform="matrix(0, -1, 1, 0, 1298, 694)" class="s5_1">3'</text>
<g clip-path="url(#c33_1)">
<path d="M1384.9,830.1h58.7m0,0h11.5M1384.9,647.2h58.7m0,0h11.5" class="g0_1" />
<path d="M1443.6,818.6v-160" class="g5_1" />
<path d="M1443.6,828.9l-1.7,-10.3h3.5l-1.8,10.3Z" class="g1_1" />
<path d="M1443.6,828.9l-1.7,-10.3h3.5l-1.8,10.3Z" class="g5_1" />
<path d="M1443.6,648.3l1.8,10.3h-3.5l1.7,-10.3Z" class="g1_1" />
<path d="M1443.6,648.3l1.8,10.3h-3.5l1.7,-10.3Z" class="g5_1" />
</g>
<g clip-path="url(#c34_1)">
<g fill="#000000" >
<use xlink:href="#f1_9" transform="matrix(0,-9,9,0,1436.2,772.2)" />
<use xlink:href="#f1_4" transform="matrix(0,-9,9,0,1436.2,764.5)" />
<use xlink:href="#f1_5" transform="matrix(0,-9,9,0,1436.2,761.9)" />
<use xlink:href="#f1_e" transform="matrix(0,-9,9,0,1436.2,757.3)" />
<use xlink:href="#f1_3" transform="matrix(0,-9,9,0,1436.2,749.7)" />
</g>
</g>
<text transform="matrix(0, -1, 1, 0, 1436, 772)" class="s5_1">1'-8"</text>
<g clip-path="url(#c35_1)">
<path d="M1529.1,830.1h14.3m0,0h11.4m-25.7,-38.8h14.3m0,0h11.4" class="g0_1" />
<path d="M1543.4,818.6V802.8" class="g5_1" />
<path d="M1543.4,828.9l-1.7,-10.3h3.4l-1.7,10.3Z" class="g1_1" />
<path d="M1543.4,828.9l-1.7,-10.3h3.4l-1.7,10.3Z" class="g5_1" />
<path d="M1543.4,792.5l1.7,10.3h-3.4l1.7,-10.3Z" class="g1_1" />
<path d="M1543.4,792.5l1.7,10.3h-3.4l1.7,-10.3Z" class="g5_1" />
<path d="M1544.9,810.6c9.4,-.8,14.2,-10.1,14.2,-27.1" class="g0_1" />
<path d="M1544.5,809.6c.6,.6,.6,1.6,0,2.2c-.6,.6,-1.6,.6,-2.2,0c-.6,-.6,-.6,-1.6,0,-2.2c.6,-.6,1.6,-.6,2.2,0Z" class="g1_1" />
<path d="M1544.5,809.6c.6,.6,.6,1.6,0,2.2c-.6,.6,-1.6,.6,-2.2,0c-.6,-.6,-.6,-1.6,0,-2.2c.6,-.6,1.6,-.6,2.2,0" class="g0_1" />
</g>
<g clip-path="url(#c36_1)">
<g fill="#000000" >
<use xlink:href="#f1_c" transform="matrix(0,-9,9,0,1563.5,779.6)" />
<use xlink:href="#f1_3" transform="matrix(0,-9,9,0,1563.5,772)" />
</g>
</g>
<text transform="matrix(0, -1, 1, 0, 1563, 779)" class="s5_1">4"</text>
<g clip-path="url(#c37_1)">
<path d="M944.3,203.4l9.5,-9.5m0,0l8.1,-8.1m-12.8,22.3l9.5,-9.5m0,0l8.1,-8.1" class="g0_1" />
<path d="M945.7,185.8l-8.1,-8.1" class="g5_1" />
<path d="M953,193.1L944.5,187l2.4,-2.4l6.1,8.5Z" class="g1_1" />
<path d="M953,193.1L944.5,187l2.4,-2.4l6.1,8.5ZM974.8,214.9l-8.1,-8.2" class="g5_1" />
<path d="M959.4,199.5l8.5,6l-2.4,2.5l-6.1,-8.5Z" class="g1_1" />
<path d="M959.4,199.5l8.5,6l-2.4,2.5l-6.1,-8.5Z" class="g5_1" />
<path d="M957.3,195.2c6.9,-6.4,13,-7.1,18,-2.1" class="g0_1" />
<path d="M957.3,195.2c.6,.6,.6,1.5,0,2.1c-.6,.6,-1.6,.6,-2.2,0c-.6,-.6,-.6,-1.5,0,-2.1c.6,-.6,1.6,-.6,2.2,0Z" class="g1_1" />
<path d="M957.3,195.2c.6,.6,.6,1.5,0,2.1c-.6,.6,-1.6,.6,-2.2,0c-.6,-.6,-.6,-1.5,0,-2.1c.6,-.6,1.6,-.6,2.2,0" class="g0_1" />
</g>
<g clip-path="url(#c38_1)">
<g fill="#000000" >
<use xlink:href="#f1_b" transform="matrix(6.4,6.4,-6.4,6.4,974.9,198.8)" />
<use xlink:href="#f1_7" transform="matrix(6.4,6.4,-6.4,6.4,980.3,204.3)" />
<use xlink:href="#f1_c" transform="matrix(6.4,6.4,-6.4,6.4,983,207)" />
<use xlink:href="#f1_3" transform="matrix(6.4,6.4,-6.4,6.4,988.4,212.4)" />
</g>
</g>
<text transform="matrix(0.71, 0.71, -0.71, 0.71, 974, 198)" class="s5_1">3/4"</text>

<defs>
<path d="M641,-18c0,0,-178,0,-291,51c0,0,-114,52,-196,182c0,0,-82,131,-82,334c0,0,0,271,145,417c0,0,144,146,408,146c0,0,207,0,325,-84c0,0,118,-83,175,-257L827,705c0,0,-15,50,-33,73c0,0,-28,39,-69,60c0,0,-41,21,-92,21c0,0,-115,0,-176,-93c0,0,-46,-68,-46,-215c0,0,0,-182,55,-249c0,0,55,-67,155,-67c0,0,97,0,147,54c0,0,50,55,72,159l296,-90c0,0,-30,-124,-94,-208c0,0,-64,-84,-159,-126c0,0,-95,-42,-242,-42Z" 
id="f0_7"
transform="scale(0.001,-0.001)" />

<path d="M93,0V304H418V0Z" 
id="f0_3"
transform="scale(0.001,-0.001)" />

<path d="M508,189c0,0,46,0,80,32c0,0,34,33,50,103c0,0,16,70,16,218c0,0,0,218,-37,292c0,0,-37,75,-111,75c0,0,-75,0,-109,-76c0,0,-33,-76,-33,-283c0,0,0,-209,37,-285c0,0,37,-76,107,-76Zm1,-207c0,0,-138,0,-223,43c0,0,-85,44,-140,129c0,0,-39,61,-61,166c0,0,-22,104,-22,231c0,0,0,312,112,436c0,0,112,125,342,125c0,0,110,0,181,-27c0,0,71,-28,116,-71c0,0,45,-44,70,-92c0,0,26,-48,42,-112c0,0,30,-122,30,-255c0,0,0,-298,-100,-436C856,119,755,-18,509,-18Z" 
id="f0_4"
transform="scale(0.001,-0.001)" />

<path d="M40,0c0,0,16,135,95,254c0,0,80,119,298,280c0,0,134,100,171,151c0,0,37,51,37,98c0,0,0,50,-37,85c0,0,-36,35,-92,35c0,0,-59,0,-96,-36c0,0,-37,-36,-49,-129L63,763c0,0,17,128,65,200c0,0,48,72,135,110c0,0,87,39,241,39c0,0,160,0,249,-37c0,0,89,-36,140,-112c0,0,52,-76,52,-170c0,0,0,-100,-59,-191c0,0,-59,-91,-213,-200c0,0,-92,-63,-123,-88c0,0,-31,-26,-73,-67H952V0Z" 
id="f0_5"
transform="scale(0.001,-0.001)" />

<path d="M125,0V1093H463V0Z" 
id="f0_a"
transform="scale(0.001,-0.001)" />

<path d="M561,-18c0,0,-279,0,-387,107C174,89,67,196,53,362l321,20c0,0,11,-78,43,-119c0,0,52,-66,149,-66c0,0,72,0,112,33c0,0,39,34,39,79c0,0,0,43,-37,76c0,0,-38,34,-174,63c0,0,-222,50,-317,133c0,0,-95,83,-95,211c0,0,0,84,49,159c0,0,49,75,147,118c0,0,98,43,269,43c0,0,209,0,319,-78c0,0,110,-78,131,-248L690,768c0,0,-12,73,-53,107c0,0,-40,33,-112,33c0,0,-59,0,-88,-25c0,0,-30,-25,-30,-60c0,0,0,-26,24,-47c0,0,24,-22,114,-41c0,0,221,-47,317,-96c0,0,96,-49,140,-121c0,0,43,-73,43,-162c0,0,0,-105,-58,-194C987,162,929,73,824,27c0,0,-104,-45,-263,-45Z" 
id="f0_e"
transform="scale(0.001,-0.001)" />

<path d="M664,-18c0,0,-80,0,-174,12c0,0,-95,10,-158,43c0,0,-64,33,-116,94c0,0,-53,61,-72,126c0,0,-32,104,-32,185v651H450V427c0,0,0,-90,49,-140c0,0,50,-50,138,-50c0,0,87,0,137,49c0,0,49,50,49,141v666h338V442c0,0,0,-97,-31,-183c0,0,-30,-86,-94,-151c0,0,-65,-64,-136,-90c0,0,-98,-36,-236,-36Z" 
id="f0_g"
transform="scale(0.001,-0.001)" />

<path d="M111,0V1093h906V859H450V685H976V462H450V247h584V0Z" 
id="f0_9"
transform="scale(0.001,-0.001)" />

<path d="M537,248c0,0,106,0,151,24c0,0,45,23,70,82c0,0,25,58,25,190c0,0,0,174,-56,238c0,0,-57,64,-188,64H455V248ZM116,0V1093H618c0,0,149,0,240,-40c0,0,91,-40,151,-116c0,0,60,-75,87,-175c0,0,26,-100,26,-212c0,0,0,-175,-39,-271c0,0,-40,-97,-111,-162c0,0,-71,-66,-152,-87C820,30,709,0,618,0Z" 
id="f0_8"
transform="scale(0.001,-0.001)" />

<path d="M713,418L593,810L474,418ZM2,0L412,1093H781L1192,0H838L784,181H401L347,0Z" 
id="f0_6"
transform="scale(0.001,-0.001)" />

<path d="M379,0V823H35v270H1062V823H718V0Z" 
id="f0_f"
transform="scale(0.001,-0.001)" />

<path d="M598,650c0,0,23,0,90,15c0,0,33,7,54,34c0,0,22,28,22,64c0,0,0,53,-34,81c0,0,-33,28,-126,28H456V650ZM116,0V1093H679c0,0,157,0,240,-27c0,0,83,-27,133,-99c0,0,51,-73,51,-177c0,0,0,-91,-39,-157c0,0,-39,-66,-107,-107c0,0,-43,-26,-119,-43c0,0,61,-21,89,-41c0,0,18,-13,54,-57c0,0,35,-44,47,-68L1192,0H810L629,334c0,0,-34,65,-61,85c0,0,-36,25,-83,25H456V0Z" 
id="f0_d"
transform="scale(0.001,-0.001)" />

<path d="M636,235c0,0,109,0,169,70c0,0,59,71,59,254c0,0,0,154,-62,225c0,0,-62,72,-169,72c0,0,-102,0,-163,-73c0,0,-62,-72,-62,-239c0,0,0,-165,61,-237c0,0,62,-72,167,-72ZM648,-18c0,0,-185,0,-307,58c0,0,-121,59,-196,187c0,0,-76,127,-76,319c0,0,0,267,150,417c0,0,149,149,415,149c0,0,273,0,421,-147c0,0,148,-146,148,-410c0,0,0,-192,-65,-314c0,0,-64,-123,-186,-191c0,0,-122,-68,-304,-68Z" 
id="f0_c"
transform="scale(0.001,-0.001)" />

<path d="M243,0L0,1093H321L436,483l169,610H924L1094,484l116,609h319L1288,0H957L765,688L574,0Z" 
id="f0_h"
transform="scale(0.001,-0.001)" />

<path d="M114,0V1093H430L841,489v604h319V0H841L432,601V0Z" 
id="f0_b"
transform="scale(0.001,-0.001)" />

<path d="M396,0V964H35v129H902V964H541V0Z" 
id="f1_m"
transform="scale(0.001,-0.001)" />

<path d="M101,0V1093H235V701c0,0,94,109,237,109c0,0,88,0,153,-35c0,0,65,-35,93,-96c0,0,28,-61,28,-177V0H612V502c0,0,0,101,-44,146c0,0,-43,46,-123,46c0,0,-60,0,-113,-31c0,0,-52,-31,-75,-84c0,0,-22,-53,-22,-146V0Z" 
id="f1_t"
transform="scale(0.001,-0.001)" />

<path d="M102,0V792H236V0Zm0,939v154H236V939Z" 
id="f1_u"
transform="scale(0.001,-0.001)" />

<path d="M386,-17c0,0,-155,0,-236,64c0,0,-81,64,-103,190l133,20c0,0,11,-79,62,-122c0,0,51,-42,143,-42c0,0,93,0,138,37c0,0,44,38,44,89c0,0,0,45,-39,71c0,0,-28,18,-138,46c0,0,-147,37,-204,64c0,0,-58,27,-87,75c0,0,-30,48,-30,107c0,0,0,52,25,98c0,0,24,45,66,74c0,0,31,24,85,40c0,0,54,16,116,16c0,0,93,0,164,-27c0,0,70,-27,104,-73c0,0,33,-46,46,-122L544,570c0,0,-9,61,-52,95c0,0,-43,34,-121,34c0,0,-93,0,-132,-30c0,0,-40,-31,-40,-72c0,0,0,-26,17,-47c0,0,16,-21,51,-35c0,0,20,-8,119,-35c0,0,142,-38,199,-62c0,0,56,-24,88,-70c0,0,32,-47,32,-115c0,0,0,-67,-39,-126c0,0,-39,-60,-113,-92c0,0,-74,-32,-167,-32Z" 
id="f1_12"
transform="scale(0.001,-0.001)" />

<path d="M247,0L4,792H143L270,335L316,165c0,0,3,12,41,163L484,792H620L740,333L779,181l45,153L960,792h131L843,0H704L578,474L547,609L386,0Z" 
id="f1_16"
transform="scale(0.001,-0.001)" />

<path d="M422,93c0,0,100,0,167,76c0,0,66,76,66,231c0,0,0,147,-67,223c0,0,-66,75,-166,75c0,0,-100,0,-167,-75c0,0,-66,-75,-66,-227c0,0,0,-152,66,-228c0,0,67,-75,167,-75Zm0,-110c0,0,-166,0,-269,106C153,89,51,196,51,396c0,0,0,220,122,326c0,0,102,88,249,88c0,0,164,0,267,-107c0,0,104,-107,104,-296c0,0,0,-153,-46,-240C747,167,701,79,614,31c0,0,-88,-48,-192,-48Z" 
id="f1_z"
transform="scale(0.001,-0.001)" />

<path d="M99,0V792H219V672c0,0,46,84,86,111c0,0,39,27,86,27c0,0,68,0,138,-43L482,642c0,0,-49,29,-98,29c0,0,-44,0,-79,-27c0,0,-35,-26,-50,-73c0,0,-22,-72,-22,-157V0Z" 
id="f1_11"
transform="scale(0.001,-0.001)" />

<path d="M101,0V1093H235V470L554,792H728L425,498L758,0H592L329,405L235,314V0Z" 
id="f1_v"
transform="scale(0.001,-0.001)" />

<path d="M98,0V1093H232V0Z" 
id="f1_w"
transform="scale(0.001,-0.001)" />

<path d="M420,-17c0,0,-163,0,-262,106c0,0,-98,106,-98,304c0,0,0,128,42,224c0,0,43,96,129,145c0,0,87,48,189,48c0,0,129,0,211,-66c0,0,82,-65,106,-185L606,539c0,0,-19,80,-66,120c0,0,-48,40,-115,40c0,0,-101,0,-164,-72c0,0,-63,-73,-63,-230c0,0,0,-160,61,-232c0,0,61,-72,159,-72c0,0,79,0,132,48c0,0,53,49,67,149L749,273C749,273,728,137,639,59c0,0,-90,-76,-219,-76Z" 
id="f1_p"
transform="scale(0.001,-0.001)" />

<path d="M644,472c0,0,-9,100,-50,150c0,0,-65,77,-167,77c0,0,-93,0,-156,-62c0,0,-63,-61,-70,-165ZM433,-17c0,0,-174,0,-275,106C158,89,56,196,56,389c0,0,0,200,103,310c0,0,103,111,267,111c0,0,159,0,259,-108c0,0,101,-109,101,-304c0,0,0,-12,-1,-36H194c0,0,7,-131,74,-200c0,0,66,-69,166,-69c0,0,74,0,126,39c0,0,52,39,83,124L782,239C782,239,749,117,660,50c0,0,-89,-67,-227,-67Z" 
id="f1_r"
transform="scale(0.001,-0.001)" />

<path d="M101,0V792H221V679c0,0,87,131,252,131c0,0,72,0,132,-26c0,0,60,-26,90,-68c0,0,30,-41,42,-99c0,0,7,-37,7,-130V0H610V482c0,0,0,82,-16,122c0,0,-15,41,-55,65c0,0,-40,24,-94,24c0,0,-86,0,-148,-54c0,0,-62,-55,-62,-207V0Z" 
id="f1_y"
transform="scale(0.001,-0.001)" />

<path d="M406,93c0,0,88,0,149,72c0,0,62,72,62,219c0,0,0,162,-63,238c0,0,-63,76,-154,76c0,0,-90,0,-150,-73c0,0,-60,-73,-60,-230c0,0,0,-152,64,-227c0,0,64,-75,152,-75ZM393,-17c0,0,-95,0,-174,52c0,0,-80,52,-123,145c0,0,-44,94,-44,215c0,0,0,119,39,215c0,0,40,97,119,148c0,0,79,52,177,52c0,0,71,0,127,-31c0,0,56,-30,91,-79v393H739V0H615V100c0,0,-75,-117,-222,-117Z" 
id="f1_q"
transform="scale(0.001,-0.001)" />

<path d="M369,-17c0,0,-70,0,-131,26c0,0,-61,27,-91,68c0,0,-29,40,-41,99c0,0,-8,40,-8,125V792H232V353c0,0,0,-105,8,-142c0,0,13,-53,54,-83c0,0,41,-30,101,-30c0,0,61,0,114,31c0,0,53,31,75,84c0,0,22,53,22,155V792H740V0H621V116c0,0,-93,-133,-252,-133Z" 
id="f1_14"
transform="scale(0.001,-0.001)" />

<path d="M358,88c0,0,78,0,139,34c0,0,60,34,89,92c0,0,21,46,21,134l1,49c0,0,-73,-30,-221,-51c0,0,-83,-11,-117,-26c0,0,-35,-15,-54,-44c0,0,-18,-28,-18,-63c0,0,0,-54,40,-89c0,0,41,-36,120,-36ZM326,-17c0,0,-131,0,-201,63c0,0,-70,64,-70,163c0,0,0,58,26,106c0,0,27,48,70,77c0,0,43,29,97,44c0,0,39,11,119,20c0,0,163,20,240,47c0,0,1,27,1,35c0,0,0,81,-38,115c0,0,-52,45,-153,45c0,0,-95,0,-141,-33c0,0,-45,-33,-67,-116L78,566c0,0,18,84,59,136c0,0,41,52,119,80c0,0,78,28,180,28c0,0,102,0,165,-24c0,0,64,-24,94,-60c0,0,29,-36,41,-91c0,0,7,-35,7,-124V332c0,0,0,-187,9,-236c0,0,8,-50,33,-96H645c0,0,-20,42,-26,98C619,98,544,34,475,8c0,0,-70,-25,-149,-25Z" 
id="f1_n"
transform="scale(0.001,-0.001)" />

<path d="M590,-18c0,0,-177,0,-287,71c0,0,-111,72,-169,209c0,0,-58,137,-58,293c0,0,0,171,66,298c0,0,65,128,185,194c0,0,121,66,265,66c0,0,164,0,276,-84c0,0,112,-84,156,-235L881,760c0,0,-38,120,-110,174c0,0,-72,55,-182,55c0,0,-126,0,-210,-61c0,0,-85,-60,-119,-162c0,0,-34,-102,-34,-210c0,0,0,-139,40,-243c0,0,41,-104,127,-156c0,0,85,-51,185,-51c0,0,122,0,206,70c0,0,84,70,114,208l145,-37c0,0,-46,-178,-164,-272c0,0,-118,-93,-289,-93Z" 
id="f1_h"
transform="scale(0.001,-0.001)" />

<path d="M312,-10c0,0,-73,0,-114,22c0,0,-40,23,-56,61c0,0,-17,38,-17,159V687H26V792h99V988l134,81V792H394V687H259V224c0,0,0,-57,7,-74c0,0,7,-16,23,-26c0,0,16,-10,46,-10c0,0,23,0,59,6L414,1c0,0,-57,-11,-102,-11Z" 
id="f1_13"
transform="scale(0.001,-0.001)" />

<path d="M320,0L20,792H161L331,318c0,0,28,-77,51,-160c0,0,18,63,50,151L608,792H746L447,0Z" 
id="f1_15"
transform="scale(0.001,-0.001)" />

<path d="M101,0V792H220V681c0,0,37,58,99,93c0,0,62,36,141,36c0,0,88,0,145,-37c0,0,56,-36,79,-102c0,0,94,139,245,139c0,0,118,0,182,-66c0,0,63,-65,63,-201V0H1040V499c0,0,0,80,-13,116c0,0,-13,35,-47,57c0,0,-35,21,-81,21c0,0,-83,0,-139,-55c0,0,-55,-56,-55,-178V0H571V514c0,0,0,90,-33,135c0,0,-33,44,-107,44c0,0,-57,0,-105,-30c0,0,-48,-29,-70,-87c0,0,-21,-57,-21,-165V0Z" 
id="f1_x"
transform="scale(0.001,-0.001)" />

<path d="M684,450L570,752c0,0,-52,138,-78,227c0,0,-21,-105,-59,-209L313,450ZM-1,0L417,1093H574L1021,0H857L729,331H271L152,0Z" 
id="f1_g"
transform="scale(0.001,-0.001)" />

<path d="M433,93c0,0,88,0,152,76c0,0,64,77,64,228c0,0,0,155,-61,228c0,0,-62,74,-149,74c0,0,-89,0,-153,-76c0,0,-64,-77,-64,-221c0,0,0,-142,39,-206c0,0,63,-103,172,-103ZM444,-17c0,0,-140,0,-220,117V0H100V1093H234V703c0,0,85,107,217,107c0,0,73,0,139,-30c0,0,65,-29,107,-83c0,0,42,-53,66,-128c0,0,24,-75,24,-161c0,0,0,-204,-101,-315C686,93,585,-17,444,-17Z" 
id="f1_o"
transform="scale(0.001,-0.001)" />

<path d="M48,329V463H461V329Z" 
id="f1_5"
transform="scale(0.001,-0.001)" />

<path d="M535,-18c0,0,-149,0,-249,43c0,0,-100,43,-158,130c0,0,-57,87,-60,197l137,12c0,0,10,-83,45,-135c0,0,36,-53,110,-86c0,0,75,-32,168,-32c0,0,83,0,146,24c0,0,63,25,94,68c0,0,31,43,31,94c0,0,0,51,-30,90c0,0,-30,38,-98,64c0,0,-44,17,-195,54c0,0,-151,36,-211,68c0,0,-79,41,-117,102c0,0,-38,61,-38,136c0,0,0,83,47,155c0,0,47,72,137,109c0,0,90,38,200,38c0,0,122,0,215,-39c0,0,93,-40,143,-116c0,0,50,-76,54,-172L767,775c0,0,-11,104,-76,158c0,0,-64,53,-190,53c0,0,-132,0,-192,-49c0,0,-60,-48,-60,-116c0,0,0,-59,43,-97c0,0,42,-38,218,-78c0,0,176,-40,242,-70c0,0,96,-44,141,-111c0,0,46,-68,46,-156c0,0,0,-87,-50,-165C889,144,839,67,745,24c0,0,-93,-42,-210,-42Z" 
id="f1_l"
transform="scale(0.001,-0.001)" />

<path d="M494,385V878L152,385ZM494,0V262H20V385l498,708H628V385H775V262H628V0Z" 
id="f1_c"
transform="scale(0.001,-0.001)" />

<path d="M139,0V153H291V0Z" 
id="f1_6"
transform="scale(0.001,-0.001)" />

<path d="M420,92c0,0,92,0,155,89c0,0,64,89,64,358c0,0,0,270,-63,359c0,0,-63,89,-158,89c0,0,-92,0,-147,-79c0,0,-70,-100,-70,-369c0,0,0,-269,63,-358c0,0,63,-89,156,-89Zm0,-110c0,0,-158,0,-248,112C172,94,64,231,64,539c0,0,0,194,39,313c0,0,40,118,119,182c0,0,79,64,198,64c0,0,88,0,155,-35c0,0,66,-36,109,-103c0,0,43,-66,68,-162c0,0,24,-96,24,-259c0,0,0,-192,-39,-311C737,228,697,110,619,46c0,0,-79,-64,-199,-64Z" 
id="f1_8"
transform="scale(0.001,-0.001)" />

<path d="M143,0V1093H287V0Z" 
id="f1_j"
transform="scale(0.001,-0.001)" />

<path d="M111,0V1093H256V129H795V0Z" 
id="f1_k"
transform="scale(0.001,-0.001)" />

<path d="M433,93c0,0,90,0,154,75c0,0,63,76,63,235c0,0,0,151,-62,226c0,0,-62,75,-149,75c0,0,-85,0,-151,-80c0,0,-66,-80,-66,-233c0,0,0,-152,62,-225c0,0,62,-73,149,-73ZM101,-303V792H223V688c0,0,43,61,98,91c0,0,54,31,132,31c0,0,101,0,179,-53c0,0,77,-52,117,-147c0,0,39,-95,39,-208c0,0,0,-122,-44,-219C744,183,701,86,618,34c0,0,-84,-51,-175,-51c0,0,-67,0,-121,28c0,0,-53,28,-87,71V-303Z" 
id="f1_10"
transform="scale(0.001,-0.001)" />

<path d="M138,0V153H290V0Zm0,639V792H290V639Z" 
id="f1_f"
transform="scale(0.001,-0.001)" />

<path d="M0,-18L317,1113H425L108,-18Z" 
id="f1_7"
transform="scale(0.001,-0.001)" />

<path d="M404,111c0,0,93,0,155,72c0,0,63,71,63,223c0,0,0,145,-65,218c0,0,-64,74,-155,74c0,0,-89,0,-152,-72c0,0,-62,-73,-62,-216c0,0,0,-156,61,-227c0,0,62,-72,155,-72ZM390,-321c0,0,-142,0,-230,64c0,0,-87,64,-84,193L207,-84c0,0,8,-60,46,-88c0,0,49,-37,136,-37c0,0,93,0,144,37c0,0,50,37,68,104c0,0,11,41,10,172C611,104,523,0,392,0C392,0,229,0,139,118c0,0,-89,118,-89,282c0,0,0,114,41,209c0,0,41,96,119,148c0,0,77,53,183,53c0,0,140,0,231,-114v96H748V107c0,0,0,-184,-38,-261c0,0,-38,-77,-119,-122c0,0,-82,-45,-201,-45Z" 
id="f1_s"
transform="scale(0.001,-0.001)" />

<path d="M182,-321c0,0,-39,0,-87,17L80,-178c0,0,44,-12,77,-12c0,0,45,0,72,15c0,0,26,15,44,42c0,0,12,20,41,100c0,0,3,11,12,33L24,792H169L334,334c0,0,32,-87,58,-183c0,0,23,91,55,179L616,792H750L450,-13c0,0,-49,-130,-75,-179c0,0,-36,-67,-83,-98c0,0,-46,-31,-110,-31Z" 
id="f1_17"
transform="scale(0.001,-0.001)" />

<path d="M640,-18c0,0,-161,0,-293,68c0,0,-132,69,-199,200c0,0,-67,131,-67,292c0,0,0,160,67,298c0,0,67,138,192,206c0,0,125,67,289,67c0,0,118,0,214,-39c0,0,96,-38,150,-107c0,0,55,-69,83,-179L946,752c0,0,-25,83,-62,131c0,0,-36,48,-104,77c0,0,-68,29,-150,29c0,0,-100,0,-172,-31c0,0,-72,-30,-117,-79c0,0,-44,-49,-69,-108c0,0,-41,-102,-41,-220c0,0,0,-146,50,-245c0,0,50,-98,147,-146c0,0,96,-48,204,-48c0,0,94,0,183,37c0,0,90,36,136,76V428H630V557h463V152C1093,152,986,67,873,24c0,0,-114,-42,-233,-42Z" 
id="f1_i"
transform="scale(0.001,-0.001)" />

<path d="M435,0V856c0,0,-48,-47,-127,-93c0,0,-79,-46,-142,-69V824c0,0,113,52,197,128c0,0,85,75,120,146h86V0Z" 
id="f1_9"
transform="scale(0.001,-0.001)" />

<path d="M46,0c0,0,-2,48,16,93c0,0,27,74,88,146c0,0,61,71,176,165c0,0,178,146,241,232c0,0,63,85,63,161c0,0,0,80,-57,135c0,0,-58,55,-149,55c0,0,-98,0,-156,-59c0,0,-58,-58,-59,-160L71,782c0,0,15,154,107,235c0,0,93,81,249,81c0,0,157,0,249,-87c0,0,92,-88,92,-217c0,0,0,-65,-27,-129c0,0,-27,-63,-89,-133c0,0,-62,-70,-207,-193C445,339,324,238,290,202c0,0,-35,-36,-57,-73H770V0Z" 
id="f1_a"
transform="scale(0.001,-0.001)" />

<path d="M108,706L70,914v179H223V914L189,706Zm247,0L319,914v179H471V914L436,706Z" 
id="f1_3"
transform="scale(0.001,-0.001)" />

<path d="M102,706L67,910v183H220V910L184,706Z" 
id="f1_4"
transform="scale(0.001,-0.001)" />

<path d="M415,-18c0,0,-149,0,-244,83c0,0,-94,84,-107,222l140,11c0,0,16,-103,73,-154c0,0,56,-52,137,-52c0,0,98,0,165,73c0,0,66,73,66,194c0,0,0,115,-64,182c0,0,-64,66,-169,66c0,0,-65,0,-117,-29c0,0,-52,-30,-82,-77L87,517l106,562H736V951H300L241,657c0,0,99,69,207,69c0,0,143,0,242,-100c0,0,98,-99,98,-255c0,0,0,-149,-86,-257C702,114,597,-18,415,-18Z" 
id="f1_d"
transform="scale(0.001,-0.001)" />

<path d="M423,92c0,0,97,0,159,62c0,0,62,62,62,157c0,0,0,97,-64,160c0,0,-64,64,-161,64c0,0,-96,0,-158,-63c0,0,-62,-62,-62,-156c0,0,0,-58,27,-111c0,0,27,-54,81,-84c0,0,54,-29,116,-29Zm0,552c0,0,78,0,127,49c0,0,49,49,49,120c0,0,0,74,-50,124c0,0,-51,51,-128,51c0,0,-77,0,-127,-50c0,0,-51,-49,-51,-118c0,0,0,-77,50,-126c0,0,50,-50,130,-50ZM422,-18c0,0,-162,0,-261,95c0,0,-99,96,-99,239c0,0,0,107,54,179c0,0,54,72,154,98c0,0,-84,31,-124,87c0,0,-40,57,-40,136c0,0,0,119,85,201c0,0,86,81,229,81c0,0,143,0,230,-83c0,0,87,-83,87,-203c0,0,0,-76,-40,-132c0,0,-39,-56,-121,-87c0,0,101,-33,154,-106c0,0,52,-73,52,-174c0,0,0,-141,-99,-236c0,0,-99,-95,-261,-95Z" 
id="f1_e"
transform="scale(0.001,-0.001)" />

<path d="M114,747L81,800c0,0,40,16,60,52c0,0,20,35,22,97H93v156H237V982c0,0,0,-100,-23,-144c0,0,-32,-60,-100,-91Z" 
id="f1_19"
transform="scale(0.001,-0.001)" />

<path d="M86,747L53,800c0,0,40,16,60,52c0,0,19,35,22,97H65v156H208V982c0,0,0,-100,-23,-144c0,0,-32,-60,-99,-91Zm231,0l-33,53c0,0,39,16,59,52c0,0,19,35,22,97H295v156H439V982c0,0,0,-100,-23,-144c0,0,-32,-60,-99,-91Z" 
id="f1_18"
transform="scale(0.001,-0.001)" />

<path d="M412,-18c0,0,-144,0,-239,85c0,0,-95,86,-108,222l133,18c0,0,24,-114,79,-164c0,0,55,-50,135,-50c0,0,96,0,161,65c0,0,65,66,65,163c0,0,0,92,-61,152c0,0,-60,60,-153,60c0,0,-38,0,-95,-15l15,119c0,0,13,-2,21,-2c0,0,86,0,155,45c0,0,69,44,69,137c0,0,0,74,-50,122c0,0,-50,49,-129,49c0,0,-79,0,-131,-50c0,0,-52,-49,-67,-147L78,815c0,0,25,135,112,209c0,0,87,74,217,74c0,0,89,0,164,-38c0,0,76,-39,116,-105c0,0,40,-66,40,-141c0,0,0,-70,-39,-129c0,0,-38,-58,-112,-92c0,0,97,-22,151,-93c0,0,53,-70,53,-176c0,0,0,-143,-104,-243c0,0,-105,-99,-264,-99Z" 
id="f1_b"
transform="scale(0.001,-0.001)" />


</defs>

<!-- Any embedded fonts defined here -->
<style type="text/css" ><![CDATA[

@font-face {
	font-family: ArialMT_a;
	src: url("fonts/ArialMT_a.woff") format("woff");
}

@font-face {
	font-family: Arial-Black_9;
	src: url("fonts/Arial-Black_9.woff") format("woff");
}

]]></style>

</svg>
