<?xml version="1.0" encoding="UTF-8" standalone="no"?>
<!DOCTYPE svg PUBLIC "-//W3C//DTD SVG 1.1//EN"
"http://www.w3.org/Graphics/SVG/1.1/DTD/svg11.dtd">


<!-- Page 1 -->
<svg x="0" y="0" width="1870" height="1210" viewBox="0 0 1870 1210" version="1.1" xmlns="http://www.w3.org/2000/svg" xmlns:xlink="http://www.w3.org/1999/xlink"
style="display: block;margin-left: auto;margin-right: auto;">
<defs>
<clipPath id="c0_1"><path d="M1705,1164.2v-39.8h98.3v39.8H1705Z" /></clipPath>
<clipPath id="c1_1"><path d="M1739.4,861.1h-22.9V791.3h22.9v69.8Z" /></clipPath>
<clipPath id="c2_1"><path d="M1715.7,582.1v-84h13.7v84h-13.7Z" /></clipPath>
<clipPath id="c3_1"><path d="M1716.5,750.9V703.7h13.7v47.2h-13.7Z" /></clipPath>
<clipPath id="c4_1"><path d="M1768.2,413V182.4h31.3V413Z" /></clipPath>
<clipPath id="c5_1"><path d="M1768.9,1100h-31.5V960.9h31.5V1100Z" /></clipPath>
<clipPath id="c6_1"><path d="M628.3,454.8V133.4H846.4v15.7h36.5V133.4H1101V454.8Z" /></clipPath>
<clipPath id="c7_1"><path d="M846.4,149.1V133.4h36.5v15.7Z" /></clipPath>
<clipPath id="c8_1"><path d="M445,500.9v-54h15.7V402.3H645.1v98.6Z" /></clipPath>
<clipPath id="c9_1"><path d="M445,446.9V402.3h15.7v44.6Z" /></clipPath>
<clipPath id="c10_1"><path d="M1462.3,620.5V584h-15.7v36.5ZM1084.2,755.2V449.3H1483V755.2Z" /></clipPath>
<clipPath id="c11_1"><path d="M1446.6,620.5V584h15.7v36.5Z" /></clipPath>

<style type="text/css"><![CDATA[

.g0_1{
fill: none;
stroke: #000000;
stroke-width: 0.7638889;
stroke-linecap: butt;
stroke-linejoin: miter;
}
.g1_1{
fill: none;
stroke: #000000;
stroke-width: 0.7638889;
stroke-linecap: round;
stroke-linejoin: round;
}
.g2_1{
fill: none;
stroke: #000000;
stroke-width: 0.38194445;
stroke-linecap: butt;
stroke-linejoin: miter;
}
.g3_1{
}

.s1_1{
font-size: 27.50px;
font-family: Arial-Black_9;
fill: TRANSPARENT;
}
.s2_1{
font-size: 9.17px;
font-family: Arial-Black_9;
fill: TRANSPARENT;
}
.s3_1{
font-size: 9.17px;
font-family: ArialMT_a;
fill: TRANSPARENT;
}
.s4_1{
font-size: 27.50px;
font-family: ArialMT_a;
fill: TRANSPARENT;
}
.s5_1{
font-size: 13.75px;
font-family: ArialMT_a;
fill: TRANSPARENT;
}
text::-moz-selection {
	color: transparent;
	background: rgba(0, 106, 173, 0.4);
}
text::selection {
	color: transparent;
	background: rgba(0, 106, 173, 0.4);
}

]]></style>

</defs>
<path d="M0,0
L0,1210
L1870,1210
L1870,0 Z " 
fill="#FFFFFF" stroke="none" />
<path d="M82.5,55H1691.3V1155H82.5V55ZM1705,1113.8h96.3" class="g0_1" />
<g clip-path="url(#c0_1)">
<g fill="#000000" >
<use xlink:href="#f0_7" transform="matrix(18,0,0,18,1708.8,1155)" />
<use xlink:href="#f0_3" transform="matrix(18,0,0,18,1730.7,1155)" />
<use xlink:href="#f0_4" transform="matrix(18,0,0,18,1739.8,1155)" />
<use xlink:href="#f0_5" transform="matrix(18,0,0,18,1758.2,1155)" />
<use xlink:href="#f0_6" transform="matrix(18,0,0,18,1776.5,1155)" />
</g>
</g>
<g clip-path="url(#c1_1)">
<g fill="#000000" >
<use xlink:href="#f0_a" transform="matrix(0,-6,6,0,1727.2,857.2)" />
</g>
</g>
<text transform="matrix(1, 0, 0, 1, 1708, 1155)" dx="0,-0.5,0,0,0" class="s1_1">C.06A</text>
<g clip-path="url(#c1_1)">
<g fill="#000000" >
<use xlink:href="#f0_e" transform="matrix(0,-6,6,0,1727.2,853.7)" />
<use xlink:href="#f0_e" transform="matrix(0,-6,6,0,1727.2,847.1)" />
<use xlink:href="#f0_g" transform="matrix(0,-6,6,0,1727.2,840.4)" />
<use xlink:href="#f0_9" transform="matrix(0,-6,6,0,1727.2,832.8)" />
<use xlink:href="#f0_8" transform="matrix(0,-6,6,0,1727.2,823.1)" />
<use xlink:href="#f0_6" transform="matrix(0,-6,6,0,1727.2,816.4)" />
<use xlink:href="#f0_f" transform="matrix(0,-6,6,0,1727.2,809.9)" />
<use xlink:href="#f0_9" transform="matrix(0,-6,6,0,1727.2,803.3)" />
</g>
</g>
<g clip-path="url(#c2_1)">
<g fill="#000000" >
<use xlink:href="#f0_e" transform="matrix(0,-6,6,0,1726.4,578.3)" />
</g>
</g>
<text transform="matrix(0, -1, 1, 0, 1727, 857)" dx="0,0,0,0,0,0,0,-0.4,-0.6,0" class="s2_1">ISSUE DATE</text>
<g clip-path="url(#c2_1)">
<g fill="#000000" >
<use xlink:href="#f0_a" transform="matrix(0,-6,6,0,1726.4,571.6)" />
<use xlink:href="#f0_f" transform="matrix(0,-6,6,0,1726.4,568.1)" />
<use xlink:href="#f0_9" transform="matrix(0,-6,6,0,1726.4,561.5)" />
<use xlink:href="#f0_6" transform="matrix(0,-6,6,0,1726.4,551.8)" />
<use xlink:href="#f0_8" transform="matrix(0,-6,6,0,1726.4,544.6)" />
<use xlink:href="#f0_8" transform="matrix(0,-6,6,0,1726.4,537.5)" />
<use xlink:href="#f0_d" transform="matrix(0,-6,6,0,1726.4,530.4)" />
<use xlink:href="#f0_9" transform="matrix(0,-6,6,0,1726.4,523.2)" />
<use xlink:href="#f0_e" transform="matrix(0,-6,6,0,1726.4,516.6)" />
<use xlink:href="#f0_e" transform="matrix(0,-6,6,0,1726.4,510)" />
</g>
</g>
<g clip-path="url(#c3_1)">
<g fill="#000000" >
<use xlink:href="#f0_c" transform="matrix(0,-6,6,0,1727.2,747.1)" />
</g>
</g>
<text transform="matrix(0, -1, 1, 0, 1726, 578)" class="s2_1">SITE ADDRESS</text>
<g clip-path="url(#c3_1)">
<g fill="#000000" >
<use xlink:href="#f0_h" transform="matrix(0,-6,6,0,1727.2,739.6)" />
<use xlink:href="#f0_b" transform="matrix(0,-6,6,0,1727.2,730.4)" />
<use xlink:href="#f0_9" transform="matrix(0,-6,6,0,1727.2,722.8)" />
<use xlink:href="#f0_d" transform="matrix(0,-6,6,0,1727.2,716.2)" />
</g>
</g>
<g clip-path="url(#c4_1)">
<g fill="#000000" >
<use xlink:href="#f1_m" transform="matrix(0,-6,6,0,1775.9,409.2)" />
</g>
</g>
<text transform="matrix(0, -1, 1, 0, 1727, 747)" dx="0,-0.2,0,0,0" class="s2_1">OWNER</text>
<g clip-path="url(#c4_1)">
<g fill="#000000" >
<use xlink:href="#f1_t" transform="matrix(0,-6,6,0,1775.9,403.6)" />
<use xlink:href="#f1_u" transform="matrix(0,-6,6,0,1775.9,398.5)" />
<use xlink:href="#f1_12" transform="matrix(0,-6,6,0,1775.9,396.5)" />
<use xlink:href="#f1_16" transform="matrix(0,-6,6,0,1775.9,389.3)" />
<use xlink:href="#f1_z" transform="matrix(0,-6,6,0,1775.9,382.7)" />
<use xlink:href="#f1_11" transform="matrix(0,-6,6,0,1775.9,377.6)" />
<use xlink:href="#f1_v" transform="matrix(0,-6,6,0,1775.9,374.6)" />
<use xlink:href="#f1_u" transform="matrix(0,-6,6,0,1775.9,367.4)" />
<use xlink:href="#f1_12" transform="matrix(0,-6,6,0,1775.9,365.4)" />
<use xlink:href="#f1_w" transform="matrix(0,-6,6,0,1775.9,358.3)" />
<use xlink:href="#f1_u" transform="matrix(0,-6,6,0,1775.9,356.2)" />
<use xlink:href="#f1_p" transform="matrix(0,-6,6,0,1775.9,354.2)" />
<use xlink:href="#f1_r" transform="matrix(0,-6,6,0,1775.9,349.6)" />
<use xlink:href="#f1_y" transform="matrix(0,-6,6,0,1775.9,344.5)" />
<use xlink:href="#f1_12" transform="matrix(0,-6,6,0,1775.9,339.4)" />
<use xlink:href="#f1_r" transform="matrix(0,-6,6,0,1775.9,334.8)" />
<use xlink:href="#f1_q" transform="matrix(0,-6,6,0,1775.9,329.7)" />
<use xlink:href="#f1_14" transform="matrix(0,-6,6,0,1775.9,322.1)" />
<use xlink:href="#f1_y" transform="matrix(0,-6,6,0,1775.9,317)" />
<use xlink:href="#f1_q" transform="matrix(0,-6,6,0,1775.9,311.9)" />
<use xlink:href="#f1_r" transform="matrix(0,-6,6,0,1775.9,306.8)" />
<use xlink:href="#f1_11" transform="matrix(0,-6,6,0,1775.9,301.7)" />
<use xlink:href="#f1_n" transform="matrix(0,-6,6,0,1775.9,296.1)" />
<use xlink:href="#f1_i" transform="matrix(0,-6,6,0,1775.9,288.5)" />
<use xlink:href="#f1_11" transform="matrix(0,-6,6,0,1775.9,281.8)" />
<use xlink:href="#f1_r" transform="matrix(0,-6,6,0,1775.9,278.8)" />
<use xlink:href="#f1_n" transform="matrix(0,-6,6,0,1775.9,273.7)" />
<use xlink:href="#f1_13" transform="matrix(0,-6,6,0,1775.9,268.6)" />
<use xlink:href="#f1_u" transform="matrix(0,-6,6,0,1775.9,266)" />
<use xlink:href="#f1_15" transform="matrix(0,-6,6,0,1775.9,264)" />
<use xlink:href="#f1_r" transform="matrix(0,-6,6,0,1775.9,259.4)" />
<use xlink:href="#f1_i" transform="matrix(0,-6,6,0,1775.9,251.8)" />
<use xlink:href="#f1_z" transform="matrix(0,-6,6,0,1775.9,245.2)" />
<use xlink:href="#f1_x" transform="matrix(0,-6,6,0,1775.9,240.1)" />
<use xlink:href="#f1_x" transform="matrix(0,-6,6,0,1775.9,232.4)" />
<use xlink:href="#f1_z" transform="matrix(0,-6,6,0,1775.9,224.8)" />
<use xlink:href="#f1_y" transform="matrix(0,-6,6,0,1775.9,219.7)" />
<use xlink:href="#f1_12" transform="matrix(0,-6,6,0,1775.9,214.6)" />
<use xlink:href="#f1_h" transform="matrix(0,-6,6,0,1785.3,409.2)" />
</g>
</g>
<text transform="matrix(0, -1, 1, 0, 1775, 409)" class="s3_1">This work is licensed under a Creative Commons </text>
<g clip-path="url(#c4_1)">
<g fill="#000000" >
<use xlink:href="#f1_13" transform="matrix(0,-6,6,0,1785.3,403.1)" />
<use xlink:href="#f1_13" transform="matrix(0,-6,6,0,1785.3,400.5)" />
<use xlink:href="#f1_11" transform="matrix(0,-6,6,0,1785.3,398)" />
<use xlink:href="#f1_u" transform="matrix(0,-6,6,0,1785.3,394.9)" />
<use xlink:href="#f1_o" transform="matrix(0,-6,6,0,1785.3,392.9)" />
<use xlink:href="#f1_14" transform="matrix(0,-6,6,0,1785.3,387.8)" />
<use xlink:href="#f1_13" transform="matrix(0,-6,6,0,1785.3,382.7)" />
<use xlink:href="#f1_u" transform="matrix(0,-6,6,0,1785.3,380.2)" />
<use xlink:href="#f1_z" transform="matrix(0,-6,6,0,1785.3,378.1)" />
<use xlink:href="#f1_y" transform="matrix(0,-6,6,0,1785.3,373)" />
<use xlink:href="#f1_5" transform="matrix(0,-6,6,0,1785.3,367.9)" />
<use xlink:href="#f1_l" transform="matrix(0,-6,6,0,1785.3,362.3)" />
<use xlink:href="#f1_t" transform="matrix(0,-6,6,0,1785.3,356.2)" />
<use xlink:href="#f1_n" transform="matrix(0,-6,6,0,1785.3,351.1)" />
<use xlink:href="#f1_11" transform="matrix(0,-6,6,0,1785.3,346)" />
<use xlink:href="#f1_r" transform="matrix(0,-6,6,0,1785.3,343)" />
<use xlink:href="#f1_h" transform="matrix(0,-6,6,0,1785.3,337.9)" />
<use xlink:href="#f1_w" transform="matrix(0,-6,6,0,1785.3,331.8)" />
<use xlink:href="#f1_u" transform="matrix(0,-6,6,0,1785.3,329.7)" />
<use xlink:href="#f1_v" transform="matrix(0,-6,6,0,1785.3,327.7)" />
<use xlink:href="#f1_r" transform="matrix(0,-6,6,0,1785.3,323.1)" />
<use xlink:href="#f1_c" transform="matrix(0,-6,6,0,1785.3,315.5)" />
<use xlink:href="#f1_6" transform="matrix(0,-6,6,0,1785.3,310.4)" />
<use xlink:href="#f1_8" transform="matrix(0,-6,6,0,1785.3,307.8)" />
<use xlink:href="#f1_j" transform="matrix(0,-6,6,0,1785.3,300.2)" />
<use xlink:href="#f1_y" transform="matrix(0,-6,6,0,1785.3,297.6)" />
<use xlink:href="#f1_13" transform="matrix(0,-6,6,0,1785.3,292.5)" />
<use xlink:href="#f1_r" transform="matrix(0,-6,6,0,1785.3,290)" />
<use xlink:href="#f1_11" transform="matrix(0,-6,6,0,1785.3,284.9)" />
<use xlink:href="#f1_y" transform="matrix(0,-6,6,0,1785.3,281.8)" />
<use xlink:href="#f1_n" transform="matrix(0,-6,6,0,1785.3,276.7)" />
<use xlink:href="#f1_13" transform="matrix(0,-6,6,0,1785.3,271.6)" />
<use xlink:href="#f1_u" transform="matrix(0,-6,6,0,1785.3,269.1)" />
<use xlink:href="#f1_z" transform="matrix(0,-6,6,0,1785.3,267)" />
<use xlink:href="#f1_y" transform="matrix(0,-6,6,0,1785.3,261.9)" />
<use xlink:href="#f1_n" transform="matrix(0,-6,6,0,1785.3,256.8)" />
<use xlink:href="#f1_w" transform="matrix(0,-6,6,0,1785.3,251.7)" />
<use xlink:href="#f1_k" transform="matrix(0,-6,6,0,1785.3,247.2)" />
<use xlink:href="#f1_u" transform="matrix(0,-6,6,0,1785.3,242.1)" />
<use xlink:href="#f1_p" transform="matrix(0,-6,6,0,1785.3,240)" />
<use xlink:href="#f1_r" transform="matrix(0,-6,6,0,1785.3,235.4)" />
<use xlink:href="#f1_y" transform="matrix(0,-6,6,0,1785.3,230.3)" />
<use xlink:href="#f1_12" transform="matrix(0,-6,6,0,1785.3,225.2)" />
<use xlink:href="#f1_r" transform="matrix(0,-6,6,0,1785.3,220.7)" />
<use xlink:href="#f1_t" transform="matrix(0,-6,6,0,1794.8,409.2)" />
</g>
</g>
<text transform="matrix(0, -1, 1, 0, 1785, 409)" class="s3_1">Attribution- ShareAlike 4.0 International License</text>
<g clip-path="url(#c4_1)">
<g fill="#000000" >
<use xlink:href="#f1_13" transform="matrix(0,-6,6,0,1794.8,404.1)" />
<use xlink:href="#f1_13" transform="matrix(0,-6,6,0,1794.8,401.6)" />
<use xlink:href="#f1_10" transform="matrix(0,-6,6,0,1794.8,399)" />
<use xlink:href="#f1_g" transform="matrix(0,-6,6,0,1794.8,393.9)" />
<use xlink:href="#f1_7" transform="matrix(0,-6,6,0,1794.8,391.4)" />
<use xlink:href="#f1_7" transform="matrix(0,-6,6,0,1794.8,388.8)" />
<use xlink:href="#f1_p" transform="matrix(0,-6,6,0,1794.8,386.3)" />
<use xlink:href="#f1_11" transform="matrix(0,-6,6,0,1794.8,381.7)" />
<use xlink:href="#f1_r" transform="matrix(0,-6,6,0,1794.8,378.6)" />
<use xlink:href="#f1_n" transform="matrix(0,-6,6,0,1794.8,373.5)" />
<use xlink:href="#f1_13" transform="matrix(0,-6,6,0,1794.8,368.4)" />
<use xlink:href="#f1_u" transform="matrix(0,-6,6,0,1794.8,365.9)" />
<use xlink:href="#f1_15" transform="matrix(0,-6,6,0,1794.8,363.9)" />
<use xlink:href="#f1_r" transform="matrix(0,-6,6,0,1794.8,359.3)" />
<use xlink:href="#f1_p" transform="matrix(0,-6,6,0,1794.8,354.2)" />
<use xlink:href="#f1_z" transform="matrix(0,-6,6,0,1794.8,349.6)" />
<use xlink:href="#f1_x" transform="matrix(0,-6,6,0,1794.8,344.5)" />
<use xlink:href="#f1_x" transform="matrix(0,-6,6,0,1794.8,336.9)" />
<use xlink:href="#f1_z" transform="matrix(0,-6,6,0,1794.8,329.2)" />
<use xlink:href="#f1_y" transform="matrix(0,-6,6,0,1794.8,324.1)" />
<use xlink:href="#f1_12" transform="matrix(0,-6,6,0,1794.8,319)" />
<use xlink:href="#f1_6" transform="matrix(0,-6,6,0,1794.8,314.4)" />
<use xlink:href="#f1_z" transform="matrix(0,-6,6,0,1794.8,311.9)" />
<use xlink:href="#f1_11" transform="matrix(0,-6,6,0,1794.8,306.8)" />
<use xlink:href="#f1_s" transform="matrix(0,-6,6,0,1794.8,303.7)" />
<use xlink:href="#f1_7" transform="matrix(0,-6,6,0,1794.8,298.7)" />
<use xlink:href="#f1_w" transform="matrix(0,-6,6,0,1794.8,296.1)" />
<use xlink:href="#f1_u" transform="matrix(0,-6,6,0,1794.8,294.1)" />
<use xlink:href="#f1_p" transform="matrix(0,-6,6,0,1794.8,292)" />
<use xlink:href="#f1_r" transform="matrix(0,-6,6,0,1794.8,287.4)" />
<use xlink:href="#f1_y" transform="matrix(0,-6,6,0,1794.8,282.3)" />
<use xlink:href="#f1_12" transform="matrix(0,-6,6,0,1794.8,277.3)" />
<use xlink:href="#f1_r" transform="matrix(0,-6,6,0,1794.8,272.7)" />
<use xlink:href="#f1_12" transform="matrix(0,-6,6,0,1794.8,267.6)" />
<use xlink:href="#f1_7" transform="matrix(0,-6,6,0,1794.8,263)" />
<use xlink:href="#f1_o" transform="matrix(0,-6,6,0,1794.8,260.4)" />
<use xlink:href="#f1_17" transform="matrix(0,-6,6,0,1794.8,255.3)" />
<use xlink:href="#f1_5" transform="matrix(0,-6,6,0,1794.8,250.8)" />
<use xlink:href="#f1_12" transform="matrix(0,-6,6,0,1794.8,247.7)" />
<use xlink:href="#f1_n" transform="matrix(0,-6,6,0,1794.8,243.1)" />
<use xlink:href="#f1_7" transform="matrix(0,-6,6,0,1794.8,238)" />
<use xlink:href="#f1_c" transform="matrix(0,-6,6,0,1794.8,235.5)" />
<use xlink:href="#f1_6" transform="matrix(0,-6,6,0,1794.8,230.4)" />
<use xlink:href="#f1_8" transform="matrix(0,-6,6,0,1794.8,227.8)" />
<use xlink:href="#f1_7" transform="matrix(0,-6,6,0,1794.8,222.7)" />
</g>
</g>
<g clip-path="url(#c5_1)">
<g fill="#000000" >
<use xlink:href="#f1_i" transform="matrix(0,-18,18,0,1761.8,1096.2)" />
</g>
</g>
<text transform="matrix(0, -1, 1, 0, 1794, 409)" class="s3_1">http://creativecommons.org/licenses/by-sa/4.0/</text>
<g clip-path="url(#c5_1)">
<g fill="#000000" >
<use xlink:href="#f1_z" transform="matrix(0,-18,18,0,1761.8,1076.3)" />
<use xlink:href="#f1_w" transform="matrix(0,-18,18,0,1761.8,1061)" />
<use xlink:href="#f1_w" transform="matrix(0,-18,18,0,1761.8,1054.9)" />
<use xlink:href="#f1_n" transform="matrix(0,-18,18,0,1761.8,1048.8)" />
<use xlink:href="#f1_11" transform="matrix(0,-18,18,0,1761.8,1033.5)" />
<use xlink:href="#f1_m" transform="matrix(0,-18,18,0,1761.8,1017.2)" />
<use xlink:href="#f1_u" transform="matrix(0,-18,18,0,1761.8,1001.4)" />
<use xlink:href="#f1_r" transform="matrix(0,-18,18,0,1761.8,995.3)" />
<use xlink:href="#f1_12" transform="matrix(0,-18,18,0,1761.8,980)" />
</g>
</g>
<text transform="matrix(0, -1, 1, 0, 1761, 1096)" dx="0,0,0,0,0,0,0,-0.5,-1,0,0" class="s4_1">Collar Ties</text>
<path d="M1314,674.5l123.3,123.3m-125,-121.6l1.7,-1.7m121.5,125l1.8,-1.7M1094.8,455.3L875.6,236.2m-1.7,1.7l219.2,219.2M1314,674.5L1094.8,455.3m-1.7,1.8l219.2,219.1M1093.1,457.1l1.7,-1.8M873.9,237.9l1.7,-1.7m208.6,218.6v22.6M645.1,454.8v22.6m222,-186.6h-4.9m0,-59.8h4.9m-4.9,50.3v9.5m548.3,533.9l-80.9,-80.9m105.7,80.9h-24.8M867.1,231v50.3m568.2,518v25.4M294,824.7h24.8l80.9,-80.9M294,799.3v25.4m120.8,-96H399.7M862.2,231v50.3m-5.7,5.7l3.3,3.3M421.6,728.7l-3.4,-3.4m4.1,3.4h6.2M859.8,290.8v-.5m216.3,438.4V504m-9.6,224.7h9.6m-9.6,-234.4V728.7m0,-234.4l9.6,9.7M559.6,728.7V597.6m-9.7,131.1V607.3m9.7,121.4h-9.7m9.7,-131.1l-9.7,9.7M766.2,728.7V477.4m0,-22.6V391m-9.7,337.7V477.4m0,-22.6V400.7m9.7,328h-9.7M766.2,391l-9.7,9.7m-93.6,328V494.3m-9.7,234.4V504m9.7,224.7h-9.7m9.7,-234.4l-9.7,9.7m-197,224.7V701m-9.6,27.7V710.6m9.6,18.1h-9.6M456.2,701l-9.6,9.6M872.8,287l-3.3,3.3m438.2,438.4l3.4,-3.4m-441.6,3.4V477.4m0,-22.6V297.4m-9.7,431.3h9.7M859.8,477.4V728.7m113,0V477.4m0,-22.6V400.7m-9.7,328h9.7M963.1,391v63.8m0,22.6V728.7m0,-337.7l9.7,9.7m310,328V710.6m-9.7,18.1h9.7M1273.1,701v27.7m0,-27.7l9.7,9.6m-103.3,18.1V607.3m-9.7,121.4h9.7m-9.7,-131.1V728.7m0,-131.1l9.7,9.7m121.4,121.4h-18.1m-9.7,0h-93.6m-9.7,0h-93.7m-9.6,0H972.8m-9.7,0H869.5m-9.7,0H766.2m-9.7,0H662.9m-9.7,0H559.6m-9.7,0H456.2m-9.6,0H428.5m-6.2,9.7v-9.7m-.7,0h-6.8m892.2,9.7v-9.7m22.6,9.7v-9.7m-15.1,0h-6.8m-908,9.7v-9.7M725,870H687.9m644.5,-91.2V870m-935.5,0V778.8m44,91.2h-44m887.5,121.9h48m-48,19.3h48M397.3,778.8h-.4m285.3,96V1089m-235.6,0V874.8H682.2m322.9,0V1089m-274.4,0V874.8m548.8,0V1089M1005.1,874.8h274.4M687.9,869.2h-247m844.3,0H725m586,.8v10.5m-26.6,0H1311M725.8,874.8V1089M687.1,874.8V1089M1319.9,742.5H1019.6v-4.1m310,4.1v-4.1m-22.6,0H1019.6m0,4.1H709.7v-4.1m0,4.1H409.4m300.3,-4.1H422.3m-22.6,0v4.1m9.7,0v-4.1m-9.7,4.1h9.7m0,-4.1h-9.7m920.2,0v4.1h9.7m0,-4.1h-9.7m9.7,39.6V743.8M409.4,778V742.5M1329.6,778h-9.7V742.5M409.4,778h-9.7m-2.4,0v.8m2.4,-.8h-2.4m934.7,0h-2.4m2.4,.8V778m-314.8,0H409.4m607.8,.8V778m302.7,0H1017.2M853.7,236.2L634.5,455.3M855.4,237.9l-1.7,-1.7M415.4,674.5L292.1,797.8m125,-121.6l-1.7,-1.7m-121.6,125l.2,-.2m-.2,.2l-1.7,-1.7M634.5,455.3L415.4,674.5m1.7,1.7L636.2,457.1l-1.7,-1.8M855.4,237.9L636.2,457.1m676.1,219.1l123,123.1l.2,.2M1084.2,477.4h-21M645.1,454.8h43.6M867.1,281.3v9.5m447.4,437.9l-3.4,-3.4L1063.2,477.4m-22.6,-22.6L872.8,287l-5.7,-5.7M414.8,728.7l3.4,-3.4L666.1,477.4m22.6,-22.6L856.5,287l5.7,-5.7m-2.4,16.1v-6.6m113,109.9l54.1,54.1m255.9,255.8l18.1,18.1m6.8,0h-6.8M869.5,297.4v-7.1m-9.7,7.1V454.8m7.3,-164h2.4M1307,738.4h12.9m-910.5,0h12.9M1332.4,870h-47.2m47.2,219V991.9m-935.5,0V1089m44.8,0V991.9m842.7,97.1V991.9M396.9,870V991.9m887.5,0V880.5M682.2,874.8h4.9M440.9,869.2v5.6h.8m246.2,0v-5.6m37.9,5.6h4.9M725,869.2v5.6m560.2,0v-5.6m44.4,-125.4v-1.3M399.7,778V742.5m17.4,-66.3L294,799.3M666.1,477.4h-21m43.6,-22.6h13.7M867.1,231l6.8,6.9M428.5,728.7l18.1,-18.1M702.4,454.8l54.1,-54.1M859.8,290.8h2.4m452.3,437.9h15.1m-907.3,0h-.7m-24.3,50.1h619.9m315.2,213.1V870m-890.7,4.8h4.9m832.9,0h4.9v5.7M679.8,477.4H666.1M456.2,701l93.7,-93.7m113,-113l16.9,-16.9m337.4,301.4h315.2m-645.3,96h.8m37.1,0h.8m558.6,0h.8M702.4,454.8H859.8M559.6,597.6L653.2,504m396.3,-26.6l17,16.9m113,113l93.6,93.7M1063.2,477.4h-13.7m-283.3,0H679.8m180,-22.6h9.7M1076.1,504l93.7,93.6M1040.6,454.8h43.6m-34.7,22.6H972.8m-103.3,0H766.2m260.7,-22.6h13.7m-67.8,22.6H869.5M972.8,454.8h54.1m-157.4,0H972.8m-531.1,420V991.9M862.2,231l-6.8,6.9m4.4,59.5L766.2,391M869.5,297.4L963.1,391M396.9,991.9h44.8m-44.8,19.3h44.8m289,-136.4h274.4M709.7,738.4h309.9" class="g1_1" />
<g clip-path="url(#c6_1)">
<path d="M645.1,441.1v-288m0,0V141.6m439.1,299.5v-288m0,0V141.6" class="g0_1" />
<path d="M656.6,153.1h416.1" class="g2_1" />
<path d="M646.3,153.1l10.3,-1.7v3.4l-10.3,-1.7Z" class="g3_1" />
<path d="M646.3,153.1l10.3,-1.7v3.4l-10.3,-1.7Z" class="g2_1" />
<path d="M1083,153.1l-10.3,1.7v-3.4l10.3,1.7Z" class="g3_1" />
<path d="M1083,153.1l-10.3,1.7v-3.4l10.3,1.7Z" class="g2_1" />
</g>
<g clip-path="url(#c7_1)">
<g fill="#000000" >
<use xlink:href="#f1_d" transform="matrix(9,0,0,9,850.2,145.6)" />
<use xlink:href="#f1_4" transform="matrix(9,0,0,9,857.9,145.6)" />
<use xlink:href="#f1_5" transform="matrix(9,0,0,9,860.5,145.6)" />
<use xlink:href="#f1_f" transform="matrix(9,0,0,9,865.1,145.6)" />
<use xlink:href="#f1_3" transform="matrix(9,0,0,9,872.7,145.6)" />
</g>
</g>
<text x="850" y="145" class="s5_1">5'-8"</text>
<g clip-path="url(#c8_1)">
<path d="M631.4,477.4H468.6m0,0H457.2M631.4,454.8H468.6m0,0H457.2" class="g0_1" />
<path d="M468.6,488.9v11.5" class="g2_1" />
<path d="M468.6,478.6l1.7,10.3h-3.4l1.7,-10.3Z" class="g3_1" />
<path d="M468.6,478.6l1.7,10.3h-3.4l1.7,-10.3ZM468.6,431.9v11.4" class="g2_1" />
<path d="M468.6,453.6l-1.7,-10.3h3.4l-1.7,10.3Z" class="g3_1" />
<path d="M468.6,453.6l-1.7,-10.3h3.4l-1.7,10.3Z" class="g2_1" />
<path d="M467.1,466.1c-9.4,-.7,-14.2,-7.1,-14.2,-19.2" class="g0_1" />
<path d="M469.7,465c.6,.6,.6,1.6,0,2.2c-.6,.6,-1.6,.6,-2.2,0c-.6,-.6,-.6,-1.6,0,-2.2c.6,-.6,1.6,-.6,2.2,0Z" class="g3_1" />
<path d="M469.7,465c.6,.6,.6,1.6,0,2.2c-.6,.6,-1.6,.6,-2.2,0c-.6,-.6,-.6,-1.6,0,-2.2c.6,-.6,1.6,-.6,2.2,0" class="g0_1" />
</g>
<g clip-path="url(#c9_1)">
<g fill="#000000" >
<use xlink:href="#f1_b" transform="matrix(0,-9,9,0,457.2,443.1)" />
<use xlink:href="#f1_9" transform="matrix(0,-9,9,0,457.2,431.7)" />
<use xlink:href="#f1_7" transform="matrix(0,-9,9,0,457.2,424)" />
<use xlink:href="#f1_a" transform="matrix(0,-9,9,0,457.2,420.2)" />
<use xlink:href="#f1_3" transform="matrix(0,-9,9,0,457.2,412.5)" />
</g>
</g>
<text transform="matrix(0, -1, 1, 0, 457, 443)" class="s5_1">3 1/2"</text>
<g clip-path="url(#c10_1)">
<path d="M1098,466.1h368.2m0,0h11.5M1098,738.4h368.2m0,0h11.5" class="g0_1" />
<path d="M1466.2,477.6V726.9" class="g2_1" />
<path d="M1466.2,467.3l1.8,10.3h-3.5l1.7,-10.3Z" class="g3_1" />
<path d="M1466.2,467.3l1.8,10.3h-3.5l1.7,-10.3Z" class="g2_1" />
<path d="M1466.2,737.3l-1.7,-10.4h3.5l-1.8,10.4Z" class="g3_1" />
<path d="M1466.2,737.3l-1.7,-10.4h3.5l-1.8,10.4Z" class="g2_1" />
</g>
<g clip-path="url(#c11_1)">
<g fill="#000000" >
<use xlink:href="#f1_b" transform="matrix(0,-9,9,0,1458.8,616.7)" />
<use xlink:href="#f1_4" transform="matrix(0,-9,9,0,1458.8,609.1)" />
<use xlink:href="#f1_5" transform="matrix(0,-9,9,0,1458.8,606.4)" />
<use xlink:href="#f1_e" transform="matrix(0,-9,9,0,1458.8,601.9)" />
<use xlink:href="#f1_3" transform="matrix(0,-9,9,0,1458.8,594.2)" />
</g>
</g>
<text transform="matrix(0, -1, 1, 0, 1458, 616)" class="s5_1">3'-6"</text>
<image preserveAspectRatio="none" x="1716" y="317" width="34" height="93" xlink:href="1/img/1.png" />
<image preserveAspectRatio="none" x="1705" y="55" width="96" height="84" xlink:href="1/img/2.png" />

<defs>
<path d="M641,-18c0,0,-178,0,-291,51c0,0,-114,52,-196,182c0,0,-82,131,-82,334c0,0,0,271,145,417c0,0,144,146,408,146c0,0,207,0,325,-84c0,0,118,-83,175,-257L827,705c0,0,-15,50,-33,73c0,0,-28,39,-69,60c0,0,-41,21,-92,21c0,0,-115,0,-176,-93c0,0,-46,-68,-46,-215c0,0,0,-182,55,-249c0,0,55,-67,155,-67c0,0,97,0,147,54c0,0,50,55,72,159l296,-90c0,0,-30,-124,-94,-208c0,0,-64,-84,-159,-126c0,0,-95,-42,-242,-42Z" 
id="f0_7"
transform="scale(0.001,-0.001)" />

<path d="M93,0V304H418V0Z" 
id="f0_3"
transform="scale(0.001,-0.001)" />

<path d="M508,189c0,0,46,0,80,32c0,0,34,33,50,103c0,0,16,70,16,218c0,0,0,218,-37,292c0,0,-37,75,-111,75c0,0,-75,0,-109,-76c0,0,-33,-76,-33,-283c0,0,0,-209,37,-285c0,0,37,-76,107,-76Zm1,-207c0,0,-138,0,-223,43c0,0,-85,44,-140,129c0,0,-39,61,-61,166c0,0,-22,104,-22,231c0,0,0,312,112,436c0,0,112,125,342,125c0,0,110,0,181,-27c0,0,71,-28,116,-71c0,0,45,-44,70,-92c0,0,26,-48,42,-112c0,0,30,-122,30,-255c0,0,0,-298,-100,-436C856,119,755,-18,509,-18Z" 
id="f0_4"
transform="scale(0.001,-0.001)" />

<path d="M537,171c0,0,59,0,99,46c0,0,41,45,41,135c0,0,0,93,-42,141c0,0,-42,49,-103,49c0,0,-64,0,-106,-47c0,0,-43,-47,-43,-134c0,0,0,-89,45,-140c0,0,44,-50,109,-50Zm8,-189c0,0,-164,0,-263,55c0,0,-99,56,-158,179c0,0,-59,123,-59,325c0,0,0,296,124,433c0,0,124,138,345,138c0,0,130,0,206,-30c0,0,76,-31,126,-89c0,0,50,-58,76,-146L639,810c0,0,-11,63,-39,89c0,0,-28,26,-69,26c0,0,-74,0,-115,-74c0,0,-29,-54,-43,-230c0,0,54,56,111,82c0,0,58,26,133,26c0,0,146,0,247,-104c0,0,101,-104,101,-265c0,0,0,-108,-51,-197C914,163,863,73,772,27c0,0,-90,-45,-227,-45Z" 
id="f0_5"
transform="scale(0.001,-0.001)" />

<path d="M713,418L593,810L474,418ZM2,0L412,1093H781L1192,0H838L784,181H401L347,0Z" 
id="f0_6"
transform="scale(0.001,-0.001)" />

<path d="M125,0V1093H463V0Z" 
id="f0_a"
transform="scale(0.001,-0.001)" />

<path d="M561,-18c0,0,-279,0,-387,107C174,89,67,196,53,362l321,20c0,0,11,-78,43,-119c0,0,52,-66,149,-66c0,0,72,0,112,33c0,0,39,34,39,79c0,0,0,43,-37,76c0,0,-38,34,-174,63c0,0,-222,50,-317,133c0,0,-95,83,-95,211c0,0,0,84,49,159c0,0,49,75,147,118c0,0,98,43,269,43c0,0,209,0,319,-78c0,0,110,-78,131,-248L690,768c0,0,-12,73,-53,107c0,0,-40,33,-112,33c0,0,-59,0,-88,-25c0,0,-30,-25,-30,-60c0,0,0,-26,24,-47c0,0,24,-22,114,-41c0,0,221,-47,317,-96c0,0,96,-49,140,-121c0,0,43,-73,43,-162c0,0,0,-105,-58,-194C987,162,929,73,824,27c0,0,-104,-45,-263,-45Z" 
id="f0_e"
transform="scale(0.001,-0.001)" />

<path d="M664,-18c0,0,-80,0,-174,12c0,0,-95,10,-158,43c0,0,-64,33,-116,94c0,0,-53,61,-72,126c0,0,-32,104,-32,185v651H450V427c0,0,0,-90,49,-140c0,0,50,-50,138,-50c0,0,87,0,137,49c0,0,49,50,49,141v666h338V442c0,0,0,-97,-31,-183c0,0,-30,-86,-94,-151c0,0,-65,-64,-136,-90c0,0,-98,-36,-236,-36Z" 
id="f0_g"
transform="scale(0.001,-0.001)" />

<path d="M111,0V1093h906V859H450V685H976V462H450V247h584V0Z" 
id="f0_9"
transform="scale(0.001,-0.001)" />

<path d="M537,248c0,0,106,0,151,24c0,0,45,23,70,82c0,0,25,58,25,190c0,0,0,174,-56,238c0,0,-57,64,-188,64H455V248ZM116,0V1093H618c0,0,149,0,240,-40c0,0,91,-40,151,-116c0,0,60,-75,87,-175c0,0,26,-100,26,-212c0,0,0,-175,-39,-271c0,0,-40,-97,-111,-162c0,0,-71,-66,-152,-87C820,30,709,0,618,0Z" 
id="f0_8"
transform="scale(0.001,-0.001)" />

<path d="M379,0V823H35v270H1062V823H718V0Z" 
id="f0_f"
transform="scale(0.001,-0.001)" />

<path d="M598,650c0,0,23,0,90,15c0,0,33,7,54,34c0,0,22,28,22,64c0,0,0,53,-34,81c0,0,-33,28,-126,28H456V650ZM116,0V1093H679c0,0,157,0,240,-27c0,0,83,-27,133,-99c0,0,51,-73,51,-177c0,0,0,-91,-39,-157c0,0,-39,-66,-107,-107c0,0,-43,-26,-119,-43c0,0,61,-21,89,-41c0,0,18,-13,54,-57c0,0,35,-44,47,-68L1192,0H810L629,334c0,0,-34,65,-61,85c0,0,-36,25,-83,25H456V0Z" 
id="f0_d"
transform="scale(0.001,-0.001)" />

<path d="M636,235c0,0,109,0,169,70c0,0,59,71,59,254c0,0,0,154,-62,225c0,0,-62,72,-169,72c0,0,-102,0,-163,-73c0,0,-62,-72,-62,-239c0,0,0,-165,61,-237c0,0,62,-72,167,-72ZM648,-18c0,0,-185,0,-307,58c0,0,-121,59,-196,187c0,0,-76,127,-76,319c0,0,0,267,150,417c0,0,149,149,415,149c0,0,273,0,421,-147c0,0,148,-146,148,-410c0,0,0,-192,-65,-314c0,0,-64,-123,-186,-191c0,0,-122,-68,-304,-68Z" 
id="f0_c"
transform="scale(0.001,-0.001)" />

<path d="M243,0L0,1093H321L436,483l169,610H924L1094,484l116,609h319L1288,0H957L765,688L574,0Z" 
id="f0_h"
transform="scale(0.001,-0.001)" />

<path d="M114,0V1093H430L841,489v604h319V0H841L432,601V0Z" 
id="f0_b"
transform="scale(0.001,-0.001)" />

<path d="M396,0V964H35v129H902V964H541V0Z" 
id="f1_m"
transform="scale(0.001,-0.001)" />

<path d="M101,0V1093H235V701c0,0,94,109,237,109c0,0,88,0,153,-35c0,0,65,-35,93,-96c0,0,28,-61,28,-177V0H612V502c0,0,0,101,-44,146c0,0,-43,46,-123,46c0,0,-60,0,-113,-31c0,0,-52,-31,-75,-84c0,0,-22,-53,-22,-146V0Z" 
id="f1_t"
transform="scale(0.001,-0.001)" />

<path d="M102,0V792H236V0Zm0,939v154H236V939Z" 
id="f1_u"
transform="scale(0.001,-0.001)" />

<path d="M386,-17c0,0,-155,0,-236,64c0,0,-81,64,-103,190l133,20c0,0,11,-79,62,-122c0,0,51,-42,143,-42c0,0,93,0,138,37c0,0,44,38,44,89c0,0,0,45,-39,71c0,0,-28,18,-138,46c0,0,-147,37,-204,64c0,0,-58,27,-87,75c0,0,-30,48,-30,107c0,0,0,52,25,98c0,0,24,45,66,74c0,0,31,24,85,40c0,0,54,16,116,16c0,0,93,0,164,-27c0,0,70,-27,104,-73c0,0,33,-46,46,-122L544,570c0,0,-9,61,-52,95c0,0,-43,34,-121,34c0,0,-93,0,-132,-30c0,0,-40,-31,-40,-72c0,0,0,-26,17,-47c0,0,16,-21,51,-35c0,0,20,-8,119,-35c0,0,142,-38,199,-62c0,0,56,-24,88,-70c0,0,32,-47,32,-115c0,0,0,-67,-39,-126c0,0,-39,-60,-113,-92c0,0,-74,-32,-167,-32Z" 
id="f1_12"
transform="scale(0.001,-0.001)" />

<path d="M247,0L4,792H143L270,335L316,165c0,0,3,12,41,163L484,792H620L740,333L779,181l45,153L960,792h131L843,0H704L578,474L547,609L386,0Z" 
id="f1_16"
transform="scale(0.001,-0.001)" />

<path d="M422,93c0,0,100,0,167,76c0,0,66,76,66,231c0,0,0,147,-67,223c0,0,-66,75,-166,75c0,0,-100,0,-167,-75c0,0,-66,-75,-66,-227c0,0,0,-152,66,-228c0,0,67,-75,167,-75Zm0,-110c0,0,-166,0,-269,106C153,89,51,196,51,396c0,0,0,220,122,326c0,0,102,88,249,88c0,0,164,0,267,-107c0,0,104,-107,104,-296c0,0,0,-153,-46,-240C747,167,701,79,614,31c0,0,-88,-48,-192,-48Z" 
id="f1_z"
transform="scale(0.001,-0.001)" />

<path d="M99,0V792H219V672c0,0,46,84,86,111c0,0,39,27,86,27c0,0,68,0,138,-43L482,642c0,0,-49,29,-98,29c0,0,-44,0,-79,-27c0,0,-35,-26,-50,-73c0,0,-22,-72,-22,-157V0Z" 
id="f1_11"
transform="scale(0.001,-0.001)" />

<path d="M101,0V1093H235V470L554,792H728L425,498L758,0H592L329,405L235,314V0Z" 
id="f1_v"
transform="scale(0.001,-0.001)" />

<path d="M98,0V1093H232V0Z" 
id="f1_w"
transform="scale(0.001,-0.001)" />

<path d="M420,-17c0,0,-163,0,-262,106c0,0,-98,106,-98,304c0,0,0,128,42,224c0,0,43,96,129,145c0,0,87,48,189,48c0,0,129,0,211,-66c0,0,82,-65,106,-185L606,539c0,0,-19,80,-66,120c0,0,-48,40,-115,40c0,0,-101,0,-164,-72c0,0,-63,-73,-63,-230c0,0,0,-160,61,-232c0,0,61,-72,159,-72c0,0,79,0,132,48c0,0,53,49,67,149L749,273C749,273,728,137,639,59c0,0,-90,-76,-219,-76Z" 
id="f1_p"
transform="scale(0.001,-0.001)" />

<path d="M644,472c0,0,-9,100,-50,150c0,0,-65,77,-167,77c0,0,-93,0,-156,-62c0,0,-63,-61,-70,-165ZM433,-17c0,0,-174,0,-275,106C158,89,56,196,56,389c0,0,0,200,103,310c0,0,103,111,267,111c0,0,159,0,259,-108c0,0,101,-109,101,-304c0,0,0,-12,-1,-36H194c0,0,7,-131,74,-200c0,0,66,-69,166,-69c0,0,74,0,126,39c0,0,52,39,83,124L782,239C782,239,749,117,660,50c0,0,-89,-67,-227,-67Z" 
id="f1_r"
transform="scale(0.001,-0.001)" />

<path d="M101,0V792H221V679c0,0,87,131,252,131c0,0,72,0,132,-26c0,0,60,-26,90,-68c0,0,30,-41,42,-99c0,0,7,-37,7,-130V0H610V482c0,0,0,82,-16,122c0,0,-15,41,-55,65c0,0,-40,24,-94,24c0,0,-86,0,-148,-54c0,0,-62,-55,-62,-207V0Z" 
id="f1_y"
transform="scale(0.001,-0.001)" />

<path d="M406,93c0,0,88,0,149,72c0,0,62,72,62,219c0,0,0,162,-63,238c0,0,-63,76,-154,76c0,0,-90,0,-150,-73c0,0,-60,-73,-60,-230c0,0,0,-152,64,-227c0,0,64,-75,152,-75ZM393,-17c0,0,-95,0,-174,52c0,0,-80,52,-123,145c0,0,-44,94,-44,215c0,0,0,119,39,215c0,0,40,97,119,148c0,0,79,52,177,52c0,0,71,0,127,-31c0,0,56,-30,91,-79v393H739V0H615V100c0,0,-75,-117,-222,-117Z" 
id="f1_q"
transform="scale(0.001,-0.001)" />

<path d="M369,-17c0,0,-70,0,-131,26c0,0,-61,27,-91,68c0,0,-29,40,-41,99c0,0,-8,40,-8,125V792H232V353c0,0,0,-105,8,-142c0,0,13,-53,54,-83c0,0,41,-30,101,-30c0,0,61,0,114,31c0,0,53,31,75,84c0,0,22,53,22,155V792H740V0H621V116c0,0,-93,-133,-252,-133Z" 
id="f1_14"
transform="scale(0.001,-0.001)" />

<path d="M358,88c0,0,78,0,139,34c0,0,60,34,89,92c0,0,21,46,21,134l1,49c0,0,-73,-30,-221,-51c0,0,-83,-11,-117,-26c0,0,-35,-15,-54,-44c0,0,-18,-28,-18,-63c0,0,0,-54,40,-89c0,0,41,-36,120,-36ZM326,-17c0,0,-131,0,-201,63c0,0,-70,64,-70,163c0,0,0,58,26,106c0,0,27,48,70,77c0,0,43,29,97,44c0,0,39,11,119,20c0,0,163,20,240,47c0,0,1,27,1,35c0,0,0,81,-38,115c0,0,-52,45,-153,45c0,0,-95,0,-141,-33c0,0,-45,-33,-67,-116L78,566c0,0,18,84,59,136c0,0,41,52,119,80c0,0,78,28,180,28c0,0,102,0,165,-24c0,0,64,-24,94,-60c0,0,29,-36,41,-91c0,0,7,-35,7,-124V332c0,0,0,-187,9,-236c0,0,8,-50,33,-96H645c0,0,-20,42,-26,98C619,98,544,34,475,8c0,0,-70,-25,-149,-25Z" 
id="f1_n"
transform="scale(0.001,-0.001)" />

<path d="M590,-18c0,0,-177,0,-287,71c0,0,-111,72,-169,209c0,0,-58,137,-58,293c0,0,0,171,66,298c0,0,65,128,185,194c0,0,121,66,265,66c0,0,164,0,276,-84c0,0,112,-84,156,-235L881,760c0,0,-38,120,-110,174c0,0,-72,55,-182,55c0,0,-126,0,-210,-61c0,0,-85,-60,-119,-162c0,0,-34,-102,-34,-210c0,0,0,-139,40,-243c0,0,41,-104,127,-156c0,0,85,-51,185,-51c0,0,122,0,206,70c0,0,84,70,114,208l145,-37c0,0,-46,-178,-164,-272c0,0,-118,-93,-289,-93Z" 
id="f1_i"
transform="scale(0.001,-0.001)" />

<path d="M312,-10c0,0,-73,0,-114,22c0,0,-40,23,-56,61c0,0,-17,38,-17,159V687H26V792h99V988l134,81V792H394V687H259V224c0,0,0,-57,7,-74c0,0,7,-16,23,-26c0,0,16,-10,46,-10c0,0,23,0,59,6L414,1c0,0,-57,-11,-102,-11Z" 
id="f1_13"
transform="scale(0.001,-0.001)" />

<path d="M320,0L20,792H161L331,318c0,0,28,-77,51,-160c0,0,18,63,50,151L608,792H746L447,0Z" 
id="f1_15"
transform="scale(0.001,-0.001)" />

<path d="M101,0V792H220V681c0,0,37,58,99,93c0,0,62,36,141,36c0,0,88,0,145,-37c0,0,56,-36,79,-102c0,0,94,139,245,139c0,0,118,0,182,-66c0,0,63,-65,63,-201V0H1040V499c0,0,0,80,-13,116c0,0,-13,35,-47,57c0,0,-35,21,-81,21c0,0,-83,0,-139,-55c0,0,-55,-56,-55,-178V0H571V514c0,0,0,90,-33,135c0,0,-33,44,-107,44c0,0,-57,0,-105,-30c0,0,-48,-29,-70,-87c0,0,-21,-57,-21,-165V0Z" 
id="f1_x"
transform="scale(0.001,-0.001)" />

<path d="M684,450L570,752c0,0,-52,138,-78,227c0,0,-21,-105,-59,-209L313,450ZM-1,0L417,1093H574L1021,0H857L729,331H271L152,0Z" 
id="f1_h"
transform="scale(0.001,-0.001)" />

<path d="M433,93c0,0,88,0,152,76c0,0,64,77,64,228c0,0,0,155,-61,228c0,0,-62,74,-149,74c0,0,-89,0,-153,-76c0,0,-64,-77,-64,-221c0,0,0,-142,39,-206c0,0,63,-103,172,-103ZM444,-17c0,0,-140,0,-220,117V0H100V1093H234V703c0,0,85,107,217,107c0,0,73,0,139,-30c0,0,65,-29,107,-83c0,0,42,-53,66,-128c0,0,24,-75,24,-161c0,0,0,-204,-101,-315C686,93,585,-17,444,-17Z" 
id="f1_o"
transform="scale(0.001,-0.001)" />

<path d="M48,329V463H461V329Z" 
id="f1_5"
transform="scale(0.001,-0.001)" />

<path d="M535,-18c0,0,-149,0,-249,43c0,0,-100,43,-158,130c0,0,-57,87,-60,197l137,12c0,0,10,-83,45,-135c0,0,36,-53,110,-86c0,0,75,-32,168,-32c0,0,83,0,146,24c0,0,63,25,94,68c0,0,31,43,31,94c0,0,0,51,-30,90c0,0,-30,38,-98,64c0,0,-44,17,-195,54c0,0,-151,36,-211,68c0,0,-79,41,-117,102c0,0,-38,61,-38,136c0,0,0,83,47,155c0,0,47,72,137,109c0,0,90,38,200,38c0,0,122,0,215,-39c0,0,93,-40,143,-116c0,0,50,-76,54,-172L767,775c0,0,-11,104,-76,158c0,0,-64,53,-190,53c0,0,-132,0,-192,-49c0,0,-60,-48,-60,-116c0,0,0,-59,43,-97c0,0,42,-38,218,-78c0,0,176,-40,242,-70c0,0,96,-44,141,-111c0,0,46,-68,46,-156c0,0,0,-87,-50,-165C889,144,839,67,745,24c0,0,-93,-42,-210,-42Z" 
id="f1_l"
transform="scale(0.001,-0.001)" />

<path d="M494,385V878L152,385ZM494,0V262H20V385l498,708H628V385H775V262H628V0Z" 
id="f1_c"
transform="scale(0.001,-0.001)" />

<path d="M139,0V153H291V0Z" 
id="f1_6"
transform="scale(0.001,-0.001)" />

<path d="M420,92c0,0,92,0,155,89c0,0,64,89,64,358c0,0,0,270,-63,359c0,0,-63,89,-158,89c0,0,-92,0,-147,-79c0,0,-70,-100,-70,-369c0,0,0,-269,63,-358c0,0,63,-89,156,-89Zm0,-110c0,0,-158,0,-248,112C172,94,64,231,64,539c0,0,0,194,39,313c0,0,40,118,119,182c0,0,79,64,198,64c0,0,88,0,155,-35c0,0,66,-36,109,-103c0,0,43,-66,68,-162c0,0,24,-96,24,-259c0,0,0,-192,-39,-311C737,228,697,110,619,46c0,0,-79,-64,-199,-64Z" 
id="f1_8"
transform="scale(0.001,-0.001)" />

<path d="M143,0V1093H287V0Z" 
id="f1_j"
transform="scale(0.001,-0.001)" />

<path d="M111,0V1093H256V129H795V0Z" 
id="f1_k"
transform="scale(0.001,-0.001)" />

<path d="M433,93c0,0,90,0,154,75c0,0,63,76,63,235c0,0,0,151,-62,226c0,0,-62,75,-149,75c0,0,-85,0,-151,-80c0,0,-66,-80,-66,-233c0,0,0,-152,62,-225c0,0,62,-73,149,-73ZM101,-303V792H223V688c0,0,43,61,98,91c0,0,54,31,132,31c0,0,101,0,179,-53c0,0,77,-52,117,-147c0,0,39,-95,39,-208c0,0,0,-122,-44,-219C744,183,701,86,618,34c0,0,-84,-51,-175,-51c0,0,-67,0,-121,28c0,0,-53,28,-87,71V-303Z" 
id="f1_10"
transform="scale(0.001,-0.001)" />

<path d="M138,0V153H290V0Zm0,639V792H290V639Z" 
id="f1_g"
transform="scale(0.001,-0.001)" />

<path d="M0,-18L317,1113H425L108,-18Z" 
id="f1_7"
transform="scale(0.001,-0.001)" />

<path d="M404,111c0,0,93,0,155,72c0,0,63,71,63,223c0,0,0,145,-65,218c0,0,-64,74,-155,74c0,0,-89,0,-152,-72c0,0,-62,-73,-62,-216c0,0,0,-156,61,-227c0,0,62,-72,155,-72ZM390,-321c0,0,-142,0,-230,64c0,0,-87,64,-84,193L207,-84c0,0,8,-60,46,-88c0,0,49,-37,136,-37c0,0,93,0,144,37c0,0,50,37,68,104c0,0,11,41,10,172C611,104,523,0,392,0C392,0,229,0,139,118c0,0,-89,118,-89,282c0,0,0,114,41,209c0,0,41,96,119,148c0,0,77,53,183,53c0,0,140,0,231,-114v96H748V107c0,0,0,-184,-38,-261c0,0,-38,-77,-119,-122c0,0,-82,-45,-201,-45Z" 
id="f1_s"
transform="scale(0.001,-0.001)" />

<path d="M182,-321c0,0,-39,0,-87,17L80,-178c0,0,44,-12,77,-12c0,0,45,0,72,15c0,0,26,15,44,42c0,0,12,20,41,100c0,0,3,11,12,33L24,792H169L334,334c0,0,32,-87,58,-183c0,0,23,91,55,179L616,792H750L450,-13c0,0,-49,-130,-75,-179c0,0,-36,-67,-83,-98c0,0,-46,-31,-110,-31Z" 
id="f1_17"
transform="scale(0.001,-0.001)" />

<path d="M415,-18c0,0,-149,0,-244,83c0,0,-94,84,-107,222l140,11c0,0,16,-103,73,-154c0,0,56,-52,137,-52c0,0,98,0,165,73c0,0,66,73,66,194c0,0,0,115,-64,182c0,0,-64,66,-169,66c0,0,-65,0,-117,-29c0,0,-52,-30,-82,-77L87,517l106,562H736V951H300L241,657c0,0,99,69,207,69c0,0,143,0,242,-100c0,0,98,-99,98,-255c0,0,0,-149,-86,-257C702,114,597,-18,415,-18Z" 
id="f1_d"
transform="scale(0.001,-0.001)" />

<path d="M102,706L67,910v183H220V910L184,706Z" 
id="f1_4"
transform="scale(0.001,-0.001)" />

<path d="M423,92c0,0,97,0,159,62c0,0,62,62,62,157c0,0,0,97,-64,160c0,0,-64,64,-161,64c0,0,-96,0,-158,-63c0,0,-62,-62,-62,-156c0,0,0,-58,27,-111c0,0,27,-54,81,-84c0,0,54,-29,116,-29Zm0,552c0,0,78,0,127,49c0,0,49,49,49,120c0,0,0,74,-50,124c0,0,-51,51,-128,51c0,0,-77,0,-127,-50c0,0,-51,-49,-51,-118c0,0,0,-77,50,-126c0,0,50,-50,130,-50ZM422,-18c0,0,-162,0,-261,95c0,0,-99,96,-99,239c0,0,0,107,54,179c0,0,54,72,154,98c0,0,-84,31,-124,87c0,0,-40,57,-40,136c0,0,0,119,85,201c0,0,86,81,229,81c0,0,143,0,230,-83c0,0,87,-83,87,-203c0,0,0,-76,-40,-132c0,0,-39,-56,-121,-87c0,0,101,-33,154,-106c0,0,52,-73,52,-174c0,0,0,-141,-99,-236c0,0,-99,-95,-261,-95Z" 
id="f1_f"
transform="scale(0.001,-0.001)" />

<path d="M108,706L70,914v179H223V914L189,706Zm247,0L319,914v179H471V914L436,706Z" 
id="f1_3"
transform="scale(0.001,-0.001)" />

<path d="M412,-18c0,0,-144,0,-239,85c0,0,-95,86,-108,222l133,18c0,0,24,-114,79,-164c0,0,55,-50,135,-50c0,0,96,0,161,65c0,0,65,66,65,163c0,0,0,92,-61,152c0,0,-60,60,-153,60c0,0,-38,0,-95,-15l15,119c0,0,13,-2,21,-2c0,0,86,0,155,45c0,0,69,44,69,137c0,0,0,74,-50,122c0,0,-50,49,-129,49c0,0,-79,0,-131,-50c0,0,-52,-49,-67,-147L78,815c0,0,25,135,112,209c0,0,87,74,217,74c0,0,89,0,164,-38c0,0,76,-39,116,-105c0,0,40,-66,40,-141c0,0,0,-70,-39,-129c0,0,-38,-58,-112,-92c0,0,97,-22,151,-93c0,0,53,-70,53,-176c0,0,0,-143,-104,-243c0,0,-105,-99,-264,-99Z" 
id="f1_b"
transform="scale(0.001,-0.001)" />

<path d="M435,0V856c0,0,-48,-47,-127,-93c0,0,-79,-46,-142,-69V824c0,0,113,52,197,128c0,0,85,75,120,146h86V0Z" 
id="f1_9"
transform="scale(0.001,-0.001)" />

<path d="M46,0c0,0,-2,48,16,93c0,0,27,74,88,146c0,0,61,71,176,165c0,0,178,146,241,232c0,0,63,85,63,161c0,0,0,80,-57,135c0,0,-58,55,-149,55c0,0,-98,0,-156,-59c0,0,-58,-58,-59,-160L71,782c0,0,15,154,107,235c0,0,93,81,249,81c0,0,157,0,249,-87c0,0,92,-88,92,-217c0,0,0,-65,-27,-129c0,0,-27,-63,-89,-133c0,0,-62,-70,-207,-193C445,339,324,238,290,202c0,0,-35,-36,-57,-73H770V0Z" 
id="f1_a"
transform="scale(0.001,-0.001)" />

<path d="M435,92c0,0,86,0,147,69c0,0,60,68,60,186c0,0,0,114,-60,179c0,0,-60,66,-152,66c0,0,-91,0,-154,-66c0,0,-64,-65,-64,-171c0,0,0,-70,30,-133c0,0,29,-64,82,-97c0,0,52,-33,111,-33Zm3,-110c0,0,-168,0,-274,123C164,105,58,228,58,512c0,0,0,317,117,461c0,0,102,125,275,125c0,0,129,0,212,-72c0,0,82,-72,99,-200L627,815c0,0,-18,79,-51,115c0,0,-54,58,-134,58c0,0,-64,0,-113,-36c0,0,-63,-46,-99,-135c0,0,-37,-89,-38,-253c0,0,48,74,118,110c0,0,70,36,147,36c0,0,135,0,229,-99c0,0,94,-99,94,-256c0,0,0,-103,-44,-191C736,164,691,75,614,28c0,0,-78,-46,-176,-46Z" 
id="f1_e"
transform="scale(0.001,-0.001)" />


</defs>

<!-- Any embedded fonts defined here -->
<style type="text/css" ><![CDATA[

@font-face {
	font-family: ArialMT_a;
	src: url("fonts/ArialMT_a.woff") format("woff");
}

@font-face {
	font-family: Arial-Black_9;
	src: url("fonts/Arial-Black_9.woff") format("woff");
}

]]></style>

</svg>
