<?xml version="1.0" encoding="UTF-8" standalone="no"?>
<!DOCTYPE svg PUBLIC "-//W3C//DTD SVG 1.1//EN"
"http://www.w3.org/Graphics/SVG/1.1/DTD/svg11.dtd">


<!-- Page 1 -->
<svg x="0" y="0" viewBox="0 0 1870 1210" version="1.1" xmlns="http://www.w3.org/2000/svg" xmlns:xlink="http://www.w3.org/1999/xlink"
style="display: block;margin-left: auto;margin-right: auto;">
<defs>
<clipPath id="c0_1"><path d="M1720.9,116c4.6,0,9.1,-4.5,10.2,-10.8c.3,-1.8,.3,-3.5,.1,-5.2c2.4,2.7,5.8,4.2,8.8,4.2c.5,0,.9,-.1,1.4,-.1c4.9,-.9,9.1,-7.6,8.1,-14.3c2.1,3.3,5.4,5.2,8.5,5.2c.5,0,.9,-.1,1.4,-.1c4.8,-.9,8.3,-8.7,7.1,-15.6c-.4,-1.8,-1,-3.4,-1.8,-4.7c.2,.6,.3,1.1,.4,1.7c1.2,6.9,-1.9,14.7,-6.5,15.5c-.4,.1,-.8,.1,-1.2,.1c-3.7,0,-7.8,-3.1,-9.4,-8.1c-.2,.2,-.3,.3,-.5,.4c0,.2,0,.3,.1,.4c-.1,-.1,-.2,-.2,-.2,-.2c-.1,0,-.2,.1,-.2,.1c.3,.9,.6,1.8,.8,2.8c1.2,6.9,-2.6,13.7,-7.2,14.5c-.3,.1,-.7,.1,-1.1,.1c-3.8,0,-8.4,-2.9,-10.4,-7.6c.9,2.4,1.2,5.4,.6,8.5c-1.1,6.4,-5.2,11,-9.4,11c-.4,0,-.7,0,-1,0c-2.6,-.5,-4.5,-2.6,-5.6,-5.6c-.4,-.1,-.9,-.3,-1.3,-.6l-.1,-.1c.8,4.4,3.5,7.8,7.1,8.4c.4,.1,.9,.1,1.3,.1ZM1791,77.8c3,0,5.5,-2.4,5.5,-5.4c0,-3,-2.5,-5.5,-5.5,-5.5c-3,0,-5.4,2.5,-5.4,5.5c0,3,2.4,5.4,5.4,5.4ZM1738.2,139c-.5,0,-.9,-.1,-1.3,-.2c-3.8,-.8,-6.1,-5.3,-5.8,-10.7c-3.9,-1.3,-7.3,-3.4,-9.8,-6.5c-.3,-.3,-.6,-.7,-.9,-1.1c-1.6,3.1,-4.1,5,-6.9,5c-.1,0,-.2,0,-.3,0c-4.6,-.2,-8.1,-6,-7.7,-13c.2,-4.3,1.9,-8.1,4.2,-10.2c-.3,-3,.6,-6.6,2.8,-9.9c1.8,-2.8,4.3,-4.9,6.8,-6c.4,-2.6,1.6,-5.4,3.7,-7.9c2.7,-3.3,6.2,-5.2,9.3,-5.6c.2,-.6,.5,-1.3,.9,-1.9c2.5,-4.3,7.3,-6.8,11.3,-6.9c1.4,-.9,2.7,-1.7,4.1,-2.4c.6,-.7,1.2,-1.3,1.9,-1.9c3,-2.5,6.8,-3.8,10.1,-3.8c.7,0,1.5,0,2.2,.2c3.3,-.8,6.5,-1.2,9.6,-1.2c2.8,0,5.4,.3,7.9,1c.3,0,.6,0,1,0c6.5,0,13.1,2.7,16.7,9c4.8,8.3,4,20.3,-1,27c.4,.9,.7,1.9,.8,2.9c1.3,6.9,-1.9,14.7,-6.5,15.5c-.4,0,-.8,.1,-1.2,.1c-2.3,0,-4.8,-1.2,-6.7,-3.3c-.3,.4,-.7,.7,-1,1.1c0,.2,.1,.4,.1,.7c1.2,6.8,-2.6,13.6,-7.2,14.4c-.3,.1,-.7,.1,-1,.1c-2.2,0,-4.4,-1.1,-6.2,-3.1c-.8,.5,-1.5,.9,-2.3,1.4c0,.1,0,.2,0,.2c-1.1,6.4,-5.3,11.1,-9.5,11.1c-.3,0,-.6,-.1,-1,-.1c-2.3,-.4,-4.1,-2.2,-5.2,-4.8c-.8,.2,-1.5,.4,-2.2,.5c-1.5,6,-5.6,10.3,-9.7,10.3Z" /></clipPath>
<clipPath id="c1_1"><path d="M1732,404c5.9,0,10.6,-4.7,10.6,-10.5c0,-5.8,-4.7,-10.5,-10.6,-10.5c-5.9,0,-10.7,4.7,-10.7,10.5c0,5.8,4.8,10.5,10.7,10.5Zm-3.4,-35c4.6,0,8.4,-3.7,8.4,-8.2c0,-4.6,-3.8,-8.3,-8.4,-8.3c-4.7,0,-8.4,3.7,-8.4,8.3c0,4.5,3.7,8.2,8.4,8.2Zm-.2,-22c4.6,0,8.3,-3.7,8.3,-8.2c0,-4.5,-3.7,-8.1,-8.3,-8.1c-4.6,0,-8.3,3.6,-8.3,8.1c0,4.5,3.7,8.2,8.3,8.2Zm-8.8,62.1c-1.3,0,-2.6,-.1,-2.6,-2.2l.2,-87.3c0,-1.2,-.2,-2.3,2.5,-2.3c8.8,.1,15.9,.1,21.1,.1c0,0,0,43.3,0,60.7h8.1v31Z" /></clipPath>
<clipPath id="c2_1"><path d="M1731.8,400.3c-1.2,0,-2.1,-.3,-2.8,-1c-.7,-.6,-1,-1.5,-1,-2.5c0,-1.5,.6,-2.5,1.8,-3.2l.8,1.6c-.7,.3,-1,.8,-1,1.4c0,1,.7,1.6,2.2,1.6c1.4,0,2.1,-.6,2.1,-1.6c0,-.7,-.3,-1.2,-1,-1.5l.8,-1.5c1.2,.7,1.9,1.8,1.9,3.2c0,1,-.4,1.9,-1,2.6c-.7,.6,-1.6,.9,-2.8,.9Zm0,-6.9c-1.2,0,-2.1,-.4,-2.8,-1c-.7,-.7,-1,-1.5,-1,-2.5c0,-1.5,.6,-2.6,1.8,-3.2l.8,1.6c-.7,.3,-1,.7,-1,1.3c0,1.1,.7,1.7,2.2,1.7c1.4,0,2.1,-.6,2.1,-1.7c0,-.7,-.3,-1.2,-1,-1.4l.8,-1.6c1.2,.7,1.9,1.8,1.9,3.2c0,1.1,-.4,1.9,-1,2.6c-.7,.6,-1.6,1,-2.8,1Zm0,10c2.7,0,5,-1,7,-3c2,-1.9,3,-4.2,3,-6.9c0,-2.7,-1,-5.1,-3,-7c-1.9,-1.9,-4.2,-2.9,-7,-2.9c-2.8,0,-5.2,1,-7.1,2.9c-2,1.9,-3,4.2,-3,7c0,2.7,1,5,3,6.9c2,2,4.4,3,7.1,3Zm0,2.1c-3.4,0,-6.3,-1.2,-8.7,-3.5c-2.4,-2.3,-3.6,-5.2,-3.6,-8.5c0,-3.4,1.2,-6.2,3.6,-8.5c2.4,-2.4,5.2,-3.5,8.7,-3.5c3.4,0,6.3,1.1,8.6,3.4c2.4,2.4,3.6,5.3,3.6,8.6c0,3.3,-1.2,6.1,-3.6,8.5c-2.4,2.3,-5.3,3.5,-8.6,3.5Zm11.1,-40.8v-1.1c0,-.1,.1,-.2,.1,-.3c0,-.1,0,-.2,.1,-.2c0,-.1,.1,-.2,.1,-.2c.1,0,.2,-.1,.3,-.1c.3,0,.4,.1,.5,.2c.1,.2,.2,.3,.2,.5v1.2Zm2,0v-1.3c0,-.2,.1,-.4,.2,-.6c.1,-.1,.3,-.2,.6,-.2c.1,0,.2,0,.3,.1c.1,0,.2,.1,.2,.2q.1,.1,.1,.2c0,.1,.1,.2,.1,.4v1.2Zm2.3,1.1v-2.5c0,-.2,0,-.4,0,-.7c-.1,-.2,-.2,-.4,-.3,-.5c-.1,-.2,-.3,-.3,-.5,-.4c-.2,-.2,-.4,-.2,-.7,-.2c-.3,0,-.6,.1,-.8,.2c-.2,.2,-.4,.4,-.5,.7c-.1,-.2,-.2,-.4,-.4,-.5c-.2,-.1,-.4,-.2,-.7,-.2c-.2,0,-.4,.1,-.6,.2c-.1,0,-.3,.2,-.4,.3c-.1,.1,-.1,.3,-.2,.5c0,.2,0,.4,0,.7v2.4ZM1723.6,362c-.7,0,-1.3,-.5,-1.3,-1.2c0,-.7,.6,-1.3,1.3,-1.3c.7,0,1.3,.6,1.3,1.3c0,.7,-.6,1.2,-1.3,1.2Zm2.3,1.2c-.3,0,-.6,-.3,-.6,-.6V359c0,-.3,.3,-.6,.6,-.6h3.7v1h4.4v2.8h-4.4v1Zm16.2,-1.9l3.1,-1.9h2v-1.1h-1.9l-3.2,-1.9v1.3l2,1.1l-2,1.2v1.3Zm-13.9,6.8c2,0,3.7,-.7,5.2,-2.2c1.5,-1.4,2.2,-3.1,2.2,-5.1c0,-2,-.8,-3.7,-2.2,-5.2c-1.4,-1.4,-3.1,-2.1,-5.2,-2.1c-2.1,0,-3.8,.7,-5.3,2.1c-1.4,1.4,-2.2,3.2,-2.2,5.2c0,2,.8,3.7,2.2,5.1c1.5,1.5,3.3,2.2,5.3,2.2Zm0,1.6c-2.5,0,-4.6,-.9,-6.5,-2.6c-1.7,-1.7,-2.6,-3.8,-2.6,-6.3c0,-2.5,.9,-4.6,2.6,-6.3c1.8,-1.8,3.9,-2.6,6.5,-2.6c2.5,0,4.6,.8,6.3,2.5c1.8,1.8,2.7,3.9,2.7,6.4c0,2.4,-.9,4.5,-2.6,6.3c-1.8,1.7,-3.9,2.6,-6.4,2.6Zm17.3,-25.4c.4,0,.6,0,.8,-.1c.3,-.2,.5,-.3,.6,-.5c.2,-.2,.3,-.5,.3,-.7c.1,-.3,.2,-.6,.2,-.8c0,-.4,-.1,-.7,-.2,-1c-.1,-.2,-.2,-.4,-.3,-.6c-.2,-.2,-.3,-.3,-.5,-.4c-.2,-.1,-.5,-.2,-.7,-.2c-.3,0,-.5,.1,-.7,.2c-.2,.1,-.3,.3,-.5,.4c-.1,.2,-.2,.4,-.2,.5c-.1,.2,-.1,.3,-.1,.4c-.1,.4,-.2,.6,-.2,.8c-.1,.2,-.1,.4,-.2,.5c0,.1,-.1,.2,-.1,.2c-.1,0,-.2,.1,-.3,.1c-.1,0,-.2,-.1,-.3,-.1c0,-.1,-.1,-.1,-.1,-.2q-.1,-.1,-.1,-.2c-.1,-.1,-.1,-.2,-.1,-.3c0,-.1,0,-.3,.1,-.4c0,-.1,0,-.2,.1,-.3c0,-.1,.1,-.2,.2,-.2c.1,-.1,.2,-.1,.4,-.1v-1.1c-.3,0,-.5,.1,-.8,.2c-.2,.1,-.3,.2,-.5,.4c-.1,.2,-.2,.4,-.3,.7c0,.2,-.1,.5,-.1,.7c0,.3,.1,.5,.1,.7c.1,.3,.2,.5,.3,.6c.2,.2,.3,.4,.5,.5c.2,.1,.4,.2,.7,.2c.2,0,.4,-.1,.6,-.2c.2,-.1,.3,-.2,.4,-.3c.1,-.2,.2,-.3,.3,-.5c.1,-.2,.1,-.4,.2,-.6c0,-.2,.1,-.3,.1,-.5c.1,-.2,.1,-.4,.2,-.5c0,-.1,.1,-.3,.2,-.3c.1,-.1,.2,-.2,.3,-.2c.2,0,.3,.1,.4,.1c0,.1,.1,.2,.2,.3c0,.1,0,.2,0,.3c.1,.1,.1,.2,.1,.3c0,.2,0,.3,-.1,.4c0,.2,-.1,.3,-.1,.4c-.1,.1,-.2,.2,-.3,.2c-.2,.1,-.3,.1,-.5,.1v1.1Zm-.3,-6.2l-1.9,-.7l1.9,-.6v1.3Zm2,1.8v-1.1l-1.1,-.4v-1.9l1.1,-.4v-1.2l-5.1,1.9V338l5.1,1.9Zm-20.3,3.7v-.7c-2.3,-.4,-3.5,-2,-3.5,-3.9c0,-2.9,2.1,-4.6,4.9,-4.6c2.7,0,4.9,1.8,4.9,4.6c0,1.9,-1.2,3.6,-3.6,4v-2.3c1.2,-.1,1.7,-.8,1.7,-2c0,-1.2,-1.2,-2.1,-3.1,-2.1c-1.9,0,-2.9,.8,-2.9,2.1c0,1,.4,1.8,1.6,2V340l1.8,1.8l-1.8,1.8Zm1.3,2.6c2,0,3.7,-.7,5.2,-2.1c1.5,-1.5,2.2,-3.2,2.2,-5.2c0,-2,-.8,-3.7,-2.2,-5.2c-1.4,-1.4,-3.1,-2.1,-5.2,-2.1c-2.1,0,-3.8,.7,-5.3,2.1c-1.4,1.5,-2.2,3.2,-2.2,5.2c0,2,.8,3.7,2.2,5.1c1.5,1.5,3.3,2.2,5.3,2.2Zm0,1.6c-2.5,0,-4.6,-.8,-6.5,-2.6c-1.7,-1.7,-2.6,-3.8,-2.6,-6.3c0,-2.5,.9,-4.6,2.6,-6.3c1.8,-1.8,3.9,-2.6,6.5,-2.6c2.5,0,4.6,.8,6.3,2.5c1.8,1.8,2.7,4,2.7,6.4c0,2.5,-.9,4.5,-2.6,6.3c-1.8,1.8,-3.9,2.6,-6.4,2.6Zm11.3,61v-3.3c4.3,-2.4,7.2,-6.8,7.2,-12c0,-5.2,-2.9,-9.6,-7.2,-12V317.9h-21.3c-.5,0,-.9,.5,-.9,1v89c0,.5,.4,.9,.9,.9Zm-21.3,.8c-.9,0,-1.7,-.8,-1.7,-1.7v-89c0,-1,.8,-1.7,1.7,-1.7h30.7c.2,0,.4,.1,.4,.4v91.6c0,.2,-.2,.4,-.4,.4Z" /></clipPath>
<clipPath id="c3_1"><path d="M1215.4,370.3V333.8h-15.7v36.5Zm-74.2,188.4V145.4h94.9V558.7Z" /></clipPath>
<clipPath id="c4_1"><path d="M1277.3,632.7V589.6h-15.7v43.1Zm-136.1,64.5V525.1h156.9V697.2Z" /></clipPath>
<clipPath id="c5_1"><path d="M1306.7,888.5V852H1291v36.5ZM1141.2,1077V663.6h186.2V1077Z" /></clipPath>

<style type="text/css"><![CDATA[

.g0_1{
fill: none;
stroke: #000000;
stroke-width: 0.7638889;
stroke-linecap: butt;
stroke-linejoin: miter;
}
.g1_1{
}
.g2_1{
fill: #A3ABA1;
}
.g3_1{
fill: #0A0B09;
}
.g4_1{
fill: none;
stroke: #000000;
stroke-width: 0.7638889;
stroke-linecap: round;
stroke-linejoin: round;
}
.g5_1{
fill: none;
stroke: #000000;
stroke-width: 0.38194445;
stroke-linecap: butt;
stroke-linejoin: miter;
}
.g6_1{
fill: #FFFFFF;
}

.s1_1{
font-size: 27.50px;
font-family: Arial-Black_9;
fill: #000000;
}
.s2_1{
font-size: 9.17px;
font-family: Arial-Black_9;
fill: #000000;
}
.s3_1{
font-size: 9.17px;
font-family: ArialMT_a;
fill: #000000;
}
.s4_1{
font-size: 27.50px;
font-family: ArialMT_a;
fill: #000000;
}
.s5_1{
font-size: 13.75px;
font-family: ArialMT_a;
fill: #000000;
}

]]></style>

</defs>
<path d="M0,0
L0,1210
L1870,1210
L1870,0 Z " 
fill="#FFFFFF" stroke="none" />
<path d="M82.5,55H1691.3V1155H82.5V55ZM1705,1113.8h96.3" class="g0_1" />
<text transform="matrix(1, 0, 0, 1, 1708, 1155)" dx="0,-0.5,0,0" class="s1_1">C.01</text>
<text transform="matrix(0, -1, 1, 0, 1727, 857)" dx="0,0,0,0,0,0,0,-0.4,-0.6,0" class="s2_1">ISSUE DATE</text>
<text transform="matrix(0, -1, 1, 0, 1726, 578)" class="s2_1">SITE ADDRESS</text>
<text transform="matrix(0, -1, 1, 0, 1727, 747)" dx="0,-0.2,0,0,0" class="s2_1">OWNER</text>
<text transform="matrix(0, -1, 1, 0, 1775, 409)" class="s3_1">This work is licensed under a Creative Commons </text>
<text transform="matrix(0, -1, 1, 0, 1785, 409)" class="s3_1">Attribution- ShareAlike 4.0 International License</text>
<text transform="matrix(0, -1, 1, 0, 1794, 409)" class="s3_1">http://creativecommons.org/licenses/by-sa/4.0/</text>
<text transform="matrix(0, -1, 1, 0, 1746, 1096)" class="s4_1">Raised </text>
<text transform="matrix(0, -1, 1, 0, 1777, 1096)" dx="0,-3.1,0,0,0,0,0,0,0" class="s4_1">Top Plate</text>
<g clip-path="url(#c0_1)">
<path d="M1704.6,139.9h97.5V54.1h-97.5v85.8Z" class="g1_1" />
</g>
<g clip-path="url(#c1_1)">
<path d="M1713.1,413h39.7V313.5h-39.7V413Z" class="g2_1" />
</g>
<g clip-path="url(#c2_1)">
<path d="M1712.6,413.4h40.6V313.3h-40.6V413.4Z" class="g3_1" />
</g>
<path d="M1141.2,1060.2V680.4m-13.8,379.8h13.8M1127.4,680.4V983m0,13.9v63.3m13.8,-379.8h-13.8M585.4,541.9V239.3m0,-13.8V162.2M571.6,541.9h13.8M571.6,162.2V541.9M585.4,162.2H571.6m13.8,898V996.9m0,-13.9V680.4m-13.8,379.8h13.8M571.6,680.4v379.8M585.4,680.4H571.6M1141.2,541.9V162.2m-13.8,379.7h13.8M1127.4,162.2v63.3m0,13.8V541.9m13.8,-379.7h-13.8m-542,518.2V541.9m-13.8,0V680.4m569.6,0V541.9m-13.8,0V680.4m-542,316.5h542M585.4,983v13.9m542,-13.9h-542m542,13.9V983M585.4,239.3h542m-542,-13.8v13.8m542,-13.8h-542m542,13.8V225.5" class="g4_1" />
<g clip-path="url(#c3_1)">
<path d="M1155,162.2h64.3m0,0h11.5M1155,541.9h64.3m0,0h11.5" class="g0_1" />
<path d="M1219.3,173.6V530.5" class="g5_1" />
<path d="M1219.3,163.3l1.7,10.3h-3.4l1.7,-10.3Z" class="g1_1" />
<path d="M1219.3,163.3l1.7,10.3h-3.4l1.7,-10.3Z" class="g5_1" />
<path d="M1219.3,540.8l-1.7,-10.3h3.4l-1.7,10.3Z" class="g1_1" />
<path d="M1219.3,540.8l-1.7,-10.3h3.4l-1.7,10.3Z" class="g5_1" />
</g>
<text transform="matrix(0, -1, 1, 0, 1211, 366)" class="s5_1">8'-0"</text>
<g clip-path="url(#c4_1)">
<path d="M1155,541.9h126.3m0,0h11.4M1155,680.4h126.3m0,0h11.4" class="g0_1" />
<path d="M1281.3,553.4V668.9" class="g5_1" />
<path d="M1281.3,543.1l1.7,10.3h-3.5l1.8,-10.3Z" class="g1_1" />
<path d="M1281.3,543.1l1.7,10.3h-3.5l1.8,-10.3Z" class="g5_1" />
<path d="M1281.3,679.2l-1.8,-10.3h3.5l-1.7,10.3Z" class="g1_1" />
<path d="M1281.3,679.2l-1.8,-10.3h3.5l-1.7,10.3Z" class="g5_1" />
</g>
<text transform="matrix(0, -1, 1, 0, 1273, 628)" dx="0,0,0,0,-1,0" class="s5_1">2'-11"</text>
<g clip-path="url(#c5_1)">
<path d="M1155,680.4h155.6m0,0h11.5M1155,1060.2h155.6m0,0h11.5" class="g0_1" />
<path d="M1310.6,691.9v356.8" class="g5_1" />
<path d="M1310.6,681.5l1.7,10.4h-3.4l1.7,-10.4Z" class="g1_1" />
<path d="M1310.6,681.5l1.7,10.4h-3.4l1.7,-10.4Z" class="g5_1" />
<path d="M1310.6,1059l-1.7,-10.3h3.4l-1.7,10.3Z" class="g1_1" />
<path d="M1310.6,1059l-1.7,-10.3h3.4l-1.7,10.3Z" class="g5_1" />
</g>
<text transform="matrix(0, -1, 1, 0, 1303, 884)" class="s5_1">8'-0"</text>
<path d="M585.4,225.5h542V996.9h-542V225.5Z" class="g6_1" />
<path d="M585.4,225.5h542V996.9h-542V225.5Z" class="g0_1" />


<!-- Any embedded fonts defined here -->
<style type="text/css" ><![CDATA[

@font-face {
	font-family: ArialMT_a;
	src: url("fonts/ArialMT_a.woff") format("woff");
}

@font-face {
	font-family: Arial-Black_9;
	src: url("fonts/Arial-Black_9.woff") format("woff");
}

]]></style>

</svg>
