<?xml version="1.0" encoding="UTF-8" standalone="no"?>
<!DOCTYPE svg PUBLIC "-//W3C//DTD SVG 1.1//EN"
"http://www.w3.org/Graphics/SVG/1.1/DTD/svg11.dtd">


<!-- Page 1 -->
<svg x="0" y="0" width="1870" height="1210" viewBox="0 0 1870 1210" version="1.1" xmlns="http://www.w3.org/2000/svg" xmlns:xlink="http://www.w3.org/1999/xlink"
style="display: block;margin-left: auto;margin-right: auto;">
<defs>
<clipPath id="c0_1"><path d="M1705,1164.2v-39.8h76.9v39.8H1705Z" /></clipPath>
<clipPath id="c1_1"><path d="M1739.4,861.1h-22.9V791.3h22.9v69.8Z" /></clipPath>
<clipPath id="c2_1"><path d="M1715.7,582.1v-84h13.7v84h-13.7Z" /></clipPath>
<clipPath id="c3_1"><path d="M1716.5,750.9V703.7h13.7v47.2h-13.7Z" /></clipPath>
<clipPath id="c4_1"><path d="M1768.2,413V182.4h31.3V413Z" /></clipPath>
<clipPath id="c5_1"><path d="M1768.9,1100h-31.5V939.5h31.5V1100Z" /></clipPath>
<clipPath id="c6_1"><path d="M1719.3,408.6c-1.3,0,-2.5,-.2,-2.5,-2.2l.2,-86.6c0,-1.2,-.2,-2.3,2.4,-2.3l28.5,.1v91Z" /></clipPath>
<clipPath id="c7_1"><path d="M1731.4,403.4c-5.7,0,-10.4,-4.6,-10.4,-10.4c0,-5.7,4.7,-10.4,10.4,-10.4c5.8,0,10.4,4.7,10.4,10.4c0,5.8,-4.6,10.4,-10.4,10.4Z" /></clipPath>
<clipPath id="c8_1"><path d="M1731.6,399.5c-.1,0,-.1,-.1,-.2,-.1q-.1,0,-.2,0c-.9,0,-1.8,-.3,-2.5,-.9c-.7,-.7,-1.1,-1.6,-1,-2.5c-.1,-1.3,.6,-2.6,1.7,-3.2l.8,1.8c-.5,.1,-.9,.7,-.9,1.3c0,1,.7,1.5,2.1,1.5c1.4,0,2.1,-.5,2.1,-1.5c0,-.7,-.4,-1.3,-1,-1.5l.7,-1.6c1.2,.6,1.9,1.8,1.9,3.1c0,1,-.3,1.9,-1,2.6c-.7,.6,-1.6,1,-2.5,1Zm-.2,-6.8c-1,0,-1.9,-.3,-2.7,-1c-.8,-.8,-1.1,-1.9,-1,-3c.2,-1.1,.8,-2,1.7,-2.6l.8,1.6l.1,.1c-.6,.2,-1,.7,-1,1.3c0,1.1,.7,1.6,2.1,1.7c1.4,0,2.1,-.6,2.1,-1.7c.1,-.6,-.4,-1.3,-1,-1.5l.8,-1.5c1.1,.6,1.8,1.8,1.8,3c.1,1,-.3,1.9,-1,2.6c-.8,.7,-1.7,1,-2.7,1Zm0,9.9c5.4,0,9.7,-4.4,9.8,-9.8c0,-2.6,-1,-5.1,-2.9,-7c-1.8,-1.8,-4.2,-2.8,-6.6,-2.8c-.1,0,-.2,0,-.3,0c-2.6,0,-5.1,1.1,-6.9,2.9c-1.9,1.8,-2.9,4.3,-2.9,6.9c-.1,2.7,1,5.2,2.9,7.1v-.2c1.8,1.9,4.3,2.9,6.9,2.9Zm-.1,2.2c-3.1,0,-6.1,-1.3,-8.3,-3.5c-2.3,-2.2,-3.6,-5.3,-3.5,-8.4c0,-3.1,1.2,-6.2,3.5,-8.4v-.1c2.1,-2.2,5.1,-3.5,8.2,-3.5c.1,0,.2,0,.2,0c.1,0,.2,0,.3,0c3.1,0,6,1.3,8.1,3.5c2.3,2.2,3.6,5.3,3.6,8.5c-.1,6.6,-5.4,11.9,-12,11.9h-.1Z" /></clipPath>
<clipPath id="c9_1"><path d="M1739,408.2v-3.3c4.3,-2.3,7,-6.9,7,-11.8c0,-5,-2.7,-9.5,-7,-11.9V318.1h-20.8c-.5,0,-1,.4,-1,1v88.2c0,.5,.5,.9,1,.9Zm-20.8,.8c-1,0,-1.7,-.8,-1.7,-1.7V319.1c-.1,-.5,.1,-.9,.4,-1.3c.4,-.3,.8,-.5,1.3,-.5h29.9c.3,0,.4,.2,.4,.4v90.9c0,.2,-.1,.4,-.4,.4Z" /></clipPath>
<clipPath id="c10_1"><path d="M1745,344.2q-.1,0,-.1,0v-1.1c.2,0,.3,0,.4,-.1v.1c.1,-.1,.2,-.2,.3,-.3c.1,-.1,.1,-.2,.1,-.3c.1,-.2,.1,-.3,0,-.5c.1,-.1,.1,-.2,0,-.3c0,-.1,0,-.2,0,-.3c-.1,-.1,-.2,-.2,-.2,-.2c-.1,-.1,-.2,-.1,-.4,-.1c-.1,0,-.2,0,-.3,.1c-.1,.1,-.2,.2,-.2,.3c-.1,.2,-.1,.3,-.2,.5c0,.2,-.1,.4,-.1,.6c0,.1,-.1,.3,-.2,.5c0,.2,-.1,.3,-.2,.5c-.3,.3,-.6,.4,-1,.4h-.1c-.2,0,-.4,0,-.6,-.1c-.2,-.1,-.3,-.3,-.5,-.5c-.1,-.1,-.2,-.4,-.3,-.6c0,-.2,-.1,-.4,-.1,-.6c0,-.3,.1,-.6,.1,-.8c.1,-.2,.2,-.5,.3,-.7c.2,-.1,.3,-.3,.5,-.4c.2,-.1,.5,-.2,.7,-.2c0,0,.1,0,.1,0v1.1c-.2,0,-.3,.1,-.4,.1c-.1,.1,-.2,.1,-.2,.2c-.1,.1,-.1,.2,-.2,.3c0,.2,0,.3,0,.4c0,.1,0,.2,0,.3q.1,.1,.2,.2c0,.1,.1,.2,.1,.2q.1,0,.2,0c0,0,.1,0,.1,0q.1,0,.1,0q.1,0,.2,0c0,-.1,.1,-.1,.1,-.2c.1,-.2,.1,-.3,.2,-.5l.2,-.7c0,-.1,0,-.3,.1,-.4c0,-.2,.1,-.4,.2,-.6c.1,-.1,.3,-.3,.5,-.4c.2,-.1,.4,-.2,.6,-.2c0,0,.1,0,.1,0c.2,0,.4,.1,.6,.2c.2,.1,.4,.2,.5,.4c.2,.2,.3,.4,.4,.6c.1,.3,.1,.6,.1,.9c0,.3,0,.6,-.1,.9c-.1,.2,-.2,.4,-.3,.6c-.2,.2,-.4,.4,-.6,.5c-.2,.1,-.5,.2,-.7,.2Z" /></clipPath>
<clipPath id="c11_1"><path d="M1744.6,338v-1.3l-1.9,.7l1.9,.6Zm2,1.8l-5.1,-1.9v-1.2l5.1,-1.9V336l-1.2,.4v1.9l1.2,.4v1.1Z" /></clipPath>
<clipPath id="c12_1"><path d="M1743.6,364.4v-1.1c0,-.2,-.1,-.4,-.2,-.5c-.1,-.1,-.2,-.2,-.4,-.2q-.1,0,-.2,0c0,0,-.1,0,-.1,0c-.1,0,-.2,.1,-.2,.2q-.1,.1,-.1,.2c0,.1,0,.2,0,.3v1.1Zm2.1,.1v-1.3c0,-.1,0,-.2,0,-.3c-.1,-.1,-.1,-.2,-.1,-.2c-.1,-.1,-.2,-.2,-.2,-.2q-.1,0,-.2,0q-.1,0,-.2,0c-.2,0,-.4,0,-.5,.2c-.1,.2,-.2,.4,-.2,.6v1.2Zm-4.3,1l.1,-2.4c0,-.2,0,-.4,0,-.6c.1,-.2,.1,-.4,.2,-.5c.1,-.2,.3,-.3,.4,-.4c.2,0,.4,-.1,.6,-.1h.1c.2,0,.4,.1,.5,.2c.2,.1,.4,.3,.5,.5c0,-.3,.2,-.5,.4,-.7c.3,-.1,.5,-.2,.8,-.2c0,0,.1,0,.1,0c.2,0,.4,0,.6,.1c.2,.1,.3,.3,.5,.4c.1,.2,.2,.4,.2,.6c.1,.2,.1,.4,.1,.7v2.4Z" /></clipPath>
<clipPath id="c13_1"><path d="M1741.5,361.1v-1.3l2,-1.1l-2,-1.2v-1.3l3.1,1.9h1.9v1.1h-1.9l-3.1,1.9Z" /></clipPath>
<clipPath id="c14_1"><path d="M1727.9,346.9c-4.5,0,-8.1,-3.6,-8.1,-8.1c0,-4.4,3.6,-8.1,8.1,-8.1c4.5,0,8.1,3.7,8.1,8.1c0,4.5,-3.6,8.1,-8.1,8.1Z" /></clipPath>
<clipPath id="c15_1"><path d="M1728,346.2c.9,0,1.8,-.2,2.7,-.5c2.7,-1.2,4.5,-3.8,4.5,-6.8c0,-1.9,-.8,-3.8,-2.2,-5.1c-1.3,-1.4,-3.1,-2.1,-4.9,-2.1q-.1,0,-.2,0c-4,0,-7.3,3.2,-7.3,7.2h.1c-.1,2,.7,3.8,2.1,5.1c1.4,1.5,3.3,2.2,5.2,2.2Zm-.1,1.6c-2.3,0,-4.6,-1,-6.2,-2.6c-1.7,-1.7,-2.6,-3.9,-2.6,-6.3h-.1c0,-2.3,.9,-4.6,2.6,-6.3c1.6,-1.6,3.8,-2.5,6.2,-2.5h.1c0,0,.1,0,.2,0c2.2,0,4.4,.9,6,2.5c1.7,1.7,2.6,3.9,2.6,6.3c0,4.8,-3.9,8.8,-8.7,8.9c0,0,-.1,0,-.1,0Z" /></clipPath>
<clipPath id="c16_1"><path d="M1726.6,343.5v-.7c-2,-.2,-3.4,-1.9,-3.4,-3.9c0,-1.3,.5,-2.5,1.4,-3.4c.8,-.7,1.9,-1.2,3.1,-1.2c.1,0,.2,0,.3,0q.1,0,.2,0c1.1,0,2.3,.5,3.1,1.3c.9,.9,1.4,2.1,1.4,3.3c.1,2,-1.4,3.8,-3.4,3.9v-2.2c1.2,0,1.6,-.8,1.6,-1.9c0,-1.1,-1.2,-2.1,-3,-2.1c-1.7,0,-2.8,.7,-2.8,2c-.1,.5,0,1,.3,1.3c.3,.4,.7,.6,1.2,.7v-.7l1.7,1.8l-1.7,1.8Z" /></clipPath>
<clipPath id="c17_1"><path d="M1728.1,368.8c-4.5,0,-8.2,-3.7,-8.2,-8.2c0,-4.6,3.7,-8.2,8.2,-8.2c4.5,0,8.2,3.6,8.2,8.2c0,4.5,-3.7,8.2,-8.2,8.2Z" /></clipPath>
<clipPath id="c18_1"><path d="M1725.7,362.9c-.1,0,-.3,0,-.4,-.1c-.1,-.1,-.1,-.3,-.1,-.4v-3.6c0,-.4,.2,-.6,.5,-.6h3.7v1h4.2v2.7h-4.2v1h-3.7Z" /></clipPath>
<clipPath id="c19_1"><path d="M1723.4,361.8c-.7,0,-1.2,-.5,-1.2,-1.2c0,-.7,.5,-1.3,1.2,-1.3c.7,0,1.3,.6,1.3,1.3c0,.7,-.6,1.2,-1.3,1.2Z" /></clipPath>
<clipPath id="c20_1"><path d="M1727.9,367.8c4,0,7.2,-3.3,7.2,-7.3c.1,-1.9,-.7,-3.8,-2.1,-5.1c-1.3,-1.3,-3.1,-2.1,-4.9,-2.1q-.1,0,-.2,0c-4,0,-7.3,3.3,-7.3,7.3v-.1c0,2,.8,3.8,2.2,5.2c1.3,1.3,3.1,2.1,5.1,2.1Zm0,1.6c-2.3,0,-4.6,-.9,-6.2,-2.6c-1.7,-1.7,-2.6,-3.9,-2.6,-6.3v.1c0,-2.4,.9,-4.7,2.6,-6.3c1.6,-1.7,3.9,-2.6,6.2,-2.6c0,0,.1,0,.1,0q.1,0,.2,0c2.3,0,4.4,.9,6,2.5c1.7,1.7,2.7,4,2.6,6.3c0,4.9,-3.9,8.9,-8.8,8.9q-.1,0,-.1,0Z" /></clipPath>
<clipPath id="c21_1"><path d="M492.3,309.5V202H635.8v15.7h36.6V202H815.9V309.5Z" /></clipPath>
<clipPath id="c22_1"><path d="M635.8,217.7V202h36.6v15.7Z" /></clipPath>
<clipPath id="c23_1"><path d="M782.3,309.5V202h220v15.7h43.2V202h220V309.5Z" /></clipPath>
<clipPath id="c24_1"><path d="M1002.3,217.7V202h43.2v15.7Z" /></clipPath>
<clipPath id="c25_1"><path d="M497.2,334.2V259.6h35.5v15.7h59.5V259.6h35.6v74.6Z" /></clipPath>
<clipPath id="c26_1"><path d="M532.7,275.3V259.6h59.5v15.7Z" /></clipPath>
<clipPath id="c27_1"><path d="M1130.1,334.2V245.3h35.5v15.8h59.5V245.3h35.5v88.9Z" /></clipPath>
<clipPath id="c28_1"><path d="M1165.6,261.1V245.3h59.5v15.8Z" /></clipPath>
<clipPath id="c29_1"><path d="M492.3,309.5V145.1H621.2v15.7h36.5V145.1H786.6V309.5Z" /></clipPath>
<clipPath id="c30_1"><path d="M621.2,160.8V145.1h36.5v15.7Z" /></clipPath>
<clipPath id="c31_1"><path d="M746.3,309.5V145.1h27.3v15.7h21.7V145.1h27.3V309.5Z" /></clipPath>
<clipPath id="c32_1"><path d="M773.6,160.8V145.1h21.7v15.7Z" /></clipPath>
<clipPath id="c33_1"><path d="M775.6,309.5V145.1h24v15.7h21.7V145.1h24.1V309.5Z" /></clipPath>
<clipPath id="c34_1"><path d="M799.6,160.8V145.1h21.7v15.7Z" /></clipPath>
<clipPath id="c35_1"><path d="M805.1,309.5V145.1h204.8v15.7h50.8V145.1h204.8V309.5Z" /></clipPath>
<clipPath id="c36_1"><path d="M1009.9,160.8V145.1h50.8v15.7Z" /></clipPath>

<style type="text/css"><![CDATA[

.g0_1{
fill: none;
stroke: #000000;
stroke-width: 0.7638889;
stroke-linecap: butt;
stroke-linejoin: miter;
}
.g1_1{
fill: #A9B1AA;
}
.g2_1{
fill: #FFFFFF;
}
.g3_1{
}
.g4_1{
fill: none;
stroke: #000000;
stroke-width: 0.7638889;
stroke-linecap: round;
stroke-linejoin: round;
}
.g5_1{
fill: none;
stroke: #000000;
stroke-width: 0.38194445;
stroke-linecap: butt;
stroke-linejoin: miter;
}

.s1_1{
font-size: 27.50px;
font-family: Arial-Black_9;
fill: TRANSPARENT;
}
.s2_1{
font-size: 9.17px;
font-family: Arial-Black_9;
fill: TRANSPARENT;
}
.s3_1{
font-size: 9.17px;
font-family: ArialMT_a;
fill: TRANSPARENT;
}
.s4_1{
font-size: 27.50px;
font-family: ArialMT_a;
fill: TRANSPARENT;
}
.s5_1{
font-size: 13.75px;
font-family: ArialMT_a;
fill: TRANSPARENT;
}
text::-moz-selection {
	color: transparent;
	background: rgba(0, 106, 173, 0.4);
}
text::selection {
	color: transparent;
	background: rgba(0, 106, 173, 0.4);
}

]]></style>

</defs>
<path d="M0,0
L0,1210
L1870,1210
L1870,0 Z " 
fill="#FFFFFF" stroke="none" />
<path d="M82.5,55H1691.3V1155H82.5V55ZM1705,1113.8h96.3" class="g0_1" />
<g clip-path="url(#c0_1)">
<g fill="#000000" >
<use xlink:href="#f0_7" transform="matrix(18,0,0,18,1708.8,1155)" />
<use xlink:href="#f0_3" transform="matrix(18,0,0,18,1730.7,1155)" />
<use xlink:href="#f0_4" transform="matrix(18,0,0,18,1739.8,1155)" />
<use xlink:href="#f0_5" transform="matrix(18,0,0,18,1758.2,1155)" />
</g>
</g>
<g clip-path="url(#c1_1)">
<g fill="#000000" >
<use xlink:href="#f0_a" transform="matrix(0,-6,6,0,1727.2,857.2)" />
</g>
</g>
<text transform="matrix(1, 0, 0, 1, 1708, 1155)" dx="0,-0.5,0,0" class="s1_1">C.04</text>
<g clip-path="url(#c1_1)">
<g fill="#000000" >
<use xlink:href="#f0_e" transform="matrix(0,-6,6,0,1727.2,853.7)" />
<use xlink:href="#f0_e" transform="matrix(0,-6,6,0,1727.2,847.1)" />
<use xlink:href="#f0_g" transform="matrix(0,-6,6,0,1727.2,840.4)" />
<use xlink:href="#f0_9" transform="matrix(0,-6,6,0,1727.2,832.8)" />
<use xlink:href="#f0_8" transform="matrix(0,-6,6,0,1727.2,823.1)" />
<use xlink:href="#f0_6" transform="matrix(0,-6,6,0,1727.2,816.4)" />
<use xlink:href="#f0_f" transform="matrix(0,-6,6,0,1727.2,809.9)" />
<use xlink:href="#f0_9" transform="matrix(0,-6,6,0,1727.2,803.3)" />
</g>
</g>
<g clip-path="url(#c2_1)">
<g fill="#000000" >
<use xlink:href="#f0_e" transform="matrix(0,-6,6,0,1726.4,578.3)" />
</g>
</g>
<text transform="matrix(0, -1, 1, 0, 1727, 857)" dx="0,0,0,0,0,0,0,-0.4,-0.6,0" class="s2_1">ISSUE DATE</text>
<g clip-path="url(#c2_1)">
<g fill="#000000" >
<use xlink:href="#f0_a" transform="matrix(0,-6,6,0,1726.4,571.6)" />
<use xlink:href="#f0_f" transform="matrix(0,-6,6,0,1726.4,568.1)" />
<use xlink:href="#f0_9" transform="matrix(0,-6,6,0,1726.4,561.5)" />
<use xlink:href="#f0_6" transform="matrix(0,-6,6,0,1726.4,551.8)" />
<use xlink:href="#f0_8" transform="matrix(0,-6,6,0,1726.4,544.6)" />
<use xlink:href="#f0_8" transform="matrix(0,-6,6,0,1726.4,537.5)" />
<use xlink:href="#f0_d" transform="matrix(0,-6,6,0,1726.4,530.4)" />
<use xlink:href="#f0_9" transform="matrix(0,-6,6,0,1726.4,523.2)" />
<use xlink:href="#f0_e" transform="matrix(0,-6,6,0,1726.4,516.6)" />
<use xlink:href="#f0_e" transform="matrix(0,-6,6,0,1726.4,510)" />
</g>
</g>
<g clip-path="url(#c3_1)">
<g fill="#000000" >
<use xlink:href="#f0_c" transform="matrix(0,-6,6,0,1727.2,747.1)" />
</g>
</g>
<text transform="matrix(0, -1, 1, 0, 1726, 578)" class="s2_1">SITE ADDRESS</text>
<g clip-path="url(#c3_1)">
<g fill="#000000" >
<use xlink:href="#f0_h" transform="matrix(0,-6,6,0,1727.2,739.6)" />
<use xlink:href="#f0_b" transform="matrix(0,-6,6,0,1727.2,730.4)" />
<use xlink:href="#f0_9" transform="matrix(0,-6,6,0,1727.2,722.8)" />
<use xlink:href="#f0_d" transform="matrix(0,-6,6,0,1727.2,716.2)" />
</g>
</g>
<g clip-path="url(#c4_1)">
<g fill="#000000" >
<use xlink:href="#f1_q" transform="matrix(0,-6,6,0,1775.9,409.2)" />
</g>
</g>
<text transform="matrix(0, -1, 1, 0, 1727, 747)" dx="0,-0.2,0,0,0" class="s2_1">OWNER</text>
<g clip-path="url(#c4_1)">
<g fill="#000000" >
<use xlink:href="#f1_x" transform="matrix(0,-6,6,0,1775.9,403.6)" />
<use xlink:href="#f1_y" transform="matrix(0,-6,6,0,1775.9,398.5)" />
<use xlink:href="#f1_16" transform="matrix(0,-6,6,0,1775.9,396.5)" />
<use xlink:href="#f1_1a" transform="matrix(0,-6,6,0,1775.9,389.3)" />
<use xlink:href="#f1_13" transform="matrix(0,-6,6,0,1775.9,382.7)" />
<use xlink:href="#f1_15" transform="matrix(0,-6,6,0,1775.9,377.6)" />
<use xlink:href="#f1_z" transform="matrix(0,-6,6,0,1775.9,374.6)" />
<use xlink:href="#f1_y" transform="matrix(0,-6,6,0,1775.9,367.4)" />
<use xlink:href="#f1_16" transform="matrix(0,-6,6,0,1775.9,365.4)" />
<use xlink:href="#f1_10" transform="matrix(0,-6,6,0,1775.9,358.3)" />
<use xlink:href="#f1_y" transform="matrix(0,-6,6,0,1775.9,356.2)" />
<use xlink:href="#f1_t" transform="matrix(0,-6,6,0,1775.9,354.2)" />
<use xlink:href="#f1_v" transform="matrix(0,-6,6,0,1775.9,349.6)" />
<use xlink:href="#f1_12" transform="matrix(0,-6,6,0,1775.9,344.5)" />
<use xlink:href="#f1_16" transform="matrix(0,-6,6,0,1775.9,339.4)" />
<use xlink:href="#f1_v" transform="matrix(0,-6,6,0,1775.9,334.8)" />
<use xlink:href="#f1_u" transform="matrix(0,-6,6,0,1775.9,329.7)" />
<use xlink:href="#f1_18" transform="matrix(0,-6,6,0,1775.9,322.1)" />
<use xlink:href="#f1_12" transform="matrix(0,-6,6,0,1775.9,317)" />
<use xlink:href="#f1_u" transform="matrix(0,-6,6,0,1775.9,311.9)" />
<use xlink:href="#f1_v" transform="matrix(0,-6,6,0,1775.9,306.8)" />
<use xlink:href="#f1_15" transform="matrix(0,-6,6,0,1775.9,301.7)" />
<use xlink:href="#f1_r" transform="matrix(0,-6,6,0,1775.9,296.1)" />
<use xlink:href="#f1_l" transform="matrix(0,-6,6,0,1775.9,288.5)" />
<use xlink:href="#f1_15" transform="matrix(0,-6,6,0,1775.9,281.8)" />
<use xlink:href="#f1_v" transform="matrix(0,-6,6,0,1775.9,278.8)" />
<use xlink:href="#f1_r" transform="matrix(0,-6,6,0,1775.9,273.7)" />
<use xlink:href="#f1_17" transform="matrix(0,-6,6,0,1775.9,268.6)" />
<use xlink:href="#f1_y" transform="matrix(0,-6,6,0,1775.9,266)" />
<use xlink:href="#f1_19" transform="matrix(0,-6,6,0,1775.9,264)" />
<use xlink:href="#f1_v" transform="matrix(0,-6,6,0,1775.9,259.4)" />
<use xlink:href="#f1_l" transform="matrix(0,-6,6,0,1775.9,251.8)" />
<use xlink:href="#f1_13" transform="matrix(0,-6,6,0,1775.9,245.2)" />
<use xlink:href="#f1_11" transform="matrix(0,-6,6,0,1775.9,240.1)" />
<use xlink:href="#f1_11" transform="matrix(0,-6,6,0,1775.9,232.4)" />
<use xlink:href="#f1_13" transform="matrix(0,-6,6,0,1775.9,224.8)" />
<use xlink:href="#f1_12" transform="matrix(0,-6,6,0,1775.9,219.7)" />
<use xlink:href="#f1_16" transform="matrix(0,-6,6,0,1775.9,214.6)" />
<use xlink:href="#f1_j" transform="matrix(0,-6,6,0,1785.3,409.2)" />
</g>
</g>
<text transform="matrix(0, -1, 1, 0, 1775, 409)" class="s3_1">This work is licensed under a Creative Commons </text>
<g clip-path="url(#c4_1)">
<g fill="#000000" >
<use xlink:href="#f1_17" transform="matrix(0,-6,6,0,1785.3,403.1)" />
<use xlink:href="#f1_17" transform="matrix(0,-6,6,0,1785.3,400.5)" />
<use xlink:href="#f1_15" transform="matrix(0,-6,6,0,1785.3,398)" />
<use xlink:href="#f1_y" transform="matrix(0,-6,6,0,1785.3,394.9)" />
<use xlink:href="#f1_s" transform="matrix(0,-6,6,0,1785.3,392.9)" />
<use xlink:href="#f1_18" transform="matrix(0,-6,6,0,1785.3,387.8)" />
<use xlink:href="#f1_17" transform="matrix(0,-6,6,0,1785.3,382.7)" />
<use xlink:href="#f1_y" transform="matrix(0,-6,6,0,1785.3,380.2)" />
<use xlink:href="#f1_13" transform="matrix(0,-6,6,0,1785.3,378.1)" />
<use xlink:href="#f1_12" transform="matrix(0,-6,6,0,1785.3,373)" />
<use xlink:href="#f1_5" transform="matrix(0,-6,6,0,1785.3,367.9)" />
<use xlink:href="#f1_p" transform="matrix(0,-6,6,0,1785.3,362.3)" />
<use xlink:href="#f1_x" transform="matrix(0,-6,6,0,1785.3,356.2)" />
<use xlink:href="#f1_r" transform="matrix(0,-6,6,0,1785.3,351.1)" />
<use xlink:href="#f1_15" transform="matrix(0,-6,6,0,1785.3,346)" />
<use xlink:href="#f1_v" transform="matrix(0,-6,6,0,1785.3,343)" />
<use xlink:href="#f1_j" transform="matrix(0,-6,6,0,1785.3,337.9)" />
<use xlink:href="#f1_10" transform="matrix(0,-6,6,0,1785.3,331.8)" />
<use xlink:href="#f1_y" transform="matrix(0,-6,6,0,1785.3,329.7)" />
<use xlink:href="#f1_z" transform="matrix(0,-6,6,0,1785.3,327.7)" />
<use xlink:href="#f1_v" transform="matrix(0,-6,6,0,1785.3,323.1)" />
<use xlink:href="#f1_c" transform="matrix(0,-6,6,0,1785.3,315.5)" />
<use xlink:href="#f1_6" transform="matrix(0,-6,6,0,1785.3,310.4)" />
<use xlink:href="#f1_8" transform="matrix(0,-6,6,0,1785.3,307.8)" />
<use xlink:href="#f1_m" transform="matrix(0,-6,6,0,1785.3,300.2)" />
<use xlink:href="#f1_12" transform="matrix(0,-6,6,0,1785.3,297.6)" />
<use xlink:href="#f1_17" transform="matrix(0,-6,6,0,1785.3,292.5)" />
<use xlink:href="#f1_v" transform="matrix(0,-6,6,0,1785.3,290)" />
<use xlink:href="#f1_15" transform="matrix(0,-6,6,0,1785.3,284.9)" />
<use xlink:href="#f1_12" transform="matrix(0,-6,6,0,1785.3,281.8)" />
<use xlink:href="#f1_r" transform="matrix(0,-6,6,0,1785.3,276.7)" />
<use xlink:href="#f1_17" transform="matrix(0,-6,6,0,1785.3,271.6)" />
<use xlink:href="#f1_y" transform="matrix(0,-6,6,0,1785.3,269.1)" />
<use xlink:href="#f1_13" transform="matrix(0,-6,6,0,1785.3,267)" />
<use xlink:href="#f1_12" transform="matrix(0,-6,6,0,1785.3,261.9)" />
<use xlink:href="#f1_r" transform="matrix(0,-6,6,0,1785.3,256.8)" />
<use xlink:href="#f1_10" transform="matrix(0,-6,6,0,1785.3,251.7)" />
<use xlink:href="#f1_n" transform="matrix(0,-6,6,0,1785.3,247.2)" />
<use xlink:href="#f1_y" transform="matrix(0,-6,6,0,1785.3,242.1)" />
<use xlink:href="#f1_t" transform="matrix(0,-6,6,0,1785.3,240)" />
<use xlink:href="#f1_v" transform="matrix(0,-6,6,0,1785.3,235.4)" />
<use xlink:href="#f1_12" transform="matrix(0,-6,6,0,1785.3,230.3)" />
<use xlink:href="#f1_16" transform="matrix(0,-6,6,0,1785.3,225.2)" />
<use xlink:href="#f1_v" transform="matrix(0,-6,6,0,1785.3,220.7)" />
<use xlink:href="#f1_x" transform="matrix(0,-6,6,0,1794.8,409.2)" />
</g>
</g>
<text transform="matrix(0, -1, 1, 0, 1785, 409)" class="s3_1">Attribution- ShareAlike 4.0 International License</text>
<g clip-path="url(#c4_1)">
<g fill="#000000" >
<use xlink:href="#f1_17" transform="matrix(0,-6,6,0,1794.8,404.1)" />
<use xlink:href="#f1_17" transform="matrix(0,-6,6,0,1794.8,401.6)" />
<use xlink:href="#f1_14" transform="matrix(0,-6,6,0,1794.8,399)" />
<use xlink:href="#f1_i" transform="matrix(0,-6,6,0,1794.8,393.9)" />
<use xlink:href="#f1_7" transform="matrix(0,-6,6,0,1794.8,391.4)" />
<use xlink:href="#f1_7" transform="matrix(0,-6,6,0,1794.8,388.8)" />
<use xlink:href="#f1_t" transform="matrix(0,-6,6,0,1794.8,386.3)" />
<use xlink:href="#f1_15" transform="matrix(0,-6,6,0,1794.8,381.7)" />
<use xlink:href="#f1_v" transform="matrix(0,-6,6,0,1794.8,378.6)" />
<use xlink:href="#f1_r" transform="matrix(0,-6,6,0,1794.8,373.5)" />
<use xlink:href="#f1_17" transform="matrix(0,-6,6,0,1794.8,368.4)" />
<use xlink:href="#f1_y" transform="matrix(0,-6,6,0,1794.8,365.9)" />
<use xlink:href="#f1_19" transform="matrix(0,-6,6,0,1794.8,363.9)" />
<use xlink:href="#f1_v" transform="matrix(0,-6,6,0,1794.8,359.3)" />
<use xlink:href="#f1_t" transform="matrix(0,-6,6,0,1794.8,354.2)" />
<use xlink:href="#f1_13" transform="matrix(0,-6,6,0,1794.8,349.6)" />
<use xlink:href="#f1_11" transform="matrix(0,-6,6,0,1794.8,344.5)" />
<use xlink:href="#f1_11" transform="matrix(0,-6,6,0,1794.8,336.9)" />
<use xlink:href="#f1_13" transform="matrix(0,-6,6,0,1794.8,329.2)" />
<use xlink:href="#f1_12" transform="matrix(0,-6,6,0,1794.8,324.1)" />
<use xlink:href="#f1_16" transform="matrix(0,-6,6,0,1794.8,319)" />
<use xlink:href="#f1_6" transform="matrix(0,-6,6,0,1794.8,314.4)" />
<use xlink:href="#f1_13" transform="matrix(0,-6,6,0,1794.8,311.9)" />
<use xlink:href="#f1_15" transform="matrix(0,-6,6,0,1794.8,306.8)" />
<use xlink:href="#f1_w" transform="matrix(0,-6,6,0,1794.8,303.7)" />
<use xlink:href="#f1_7" transform="matrix(0,-6,6,0,1794.8,298.7)" />
<use xlink:href="#f1_10" transform="matrix(0,-6,6,0,1794.8,296.1)" />
<use xlink:href="#f1_y" transform="matrix(0,-6,6,0,1794.8,294.1)" />
<use xlink:href="#f1_t" transform="matrix(0,-6,6,0,1794.8,292)" />
<use xlink:href="#f1_v" transform="matrix(0,-6,6,0,1794.8,287.4)" />
<use xlink:href="#f1_12" transform="matrix(0,-6,6,0,1794.8,282.3)" />
<use xlink:href="#f1_16" transform="matrix(0,-6,6,0,1794.8,277.3)" />
<use xlink:href="#f1_v" transform="matrix(0,-6,6,0,1794.8,272.7)" />
<use xlink:href="#f1_16" transform="matrix(0,-6,6,0,1794.8,267.6)" />
<use xlink:href="#f1_7" transform="matrix(0,-6,6,0,1794.8,263)" />
<use xlink:href="#f1_s" transform="matrix(0,-6,6,0,1794.8,260.4)" />
<use xlink:href="#f1_1b" transform="matrix(0,-6,6,0,1794.8,255.3)" />
<use xlink:href="#f1_5" transform="matrix(0,-6,6,0,1794.8,250.8)" />
<use xlink:href="#f1_16" transform="matrix(0,-6,6,0,1794.8,247.7)" />
<use xlink:href="#f1_r" transform="matrix(0,-6,6,0,1794.8,243.1)" />
<use xlink:href="#f1_7" transform="matrix(0,-6,6,0,1794.8,238)" />
<use xlink:href="#f1_c" transform="matrix(0,-6,6,0,1794.8,235.5)" />
<use xlink:href="#f1_6" transform="matrix(0,-6,6,0,1794.8,230.4)" />
<use xlink:href="#f1_8" transform="matrix(0,-6,6,0,1794.8,227.8)" />
<use xlink:href="#f1_7" transform="matrix(0,-6,6,0,1794.8,222.7)" />
</g>
</g>
<g clip-path="url(#c5_1)">
<g fill="#000000" >
<use xlink:href="#f1_o" transform="matrix(0,-18,18,0,1761.8,1096.2)" />
</g>
</g>
<text transform="matrix(0, -1, 1, 0, 1794, 409)" class="s3_1">http://creativecommons.org/licenses/by-sa/4.0/</text>
<g clip-path="url(#c5_1)">
<g fill="#000000" >
<use xlink:href="#f1_y" transform="matrix(0,-18,18,0,1761.8,1076.3)" />
<use xlink:href="#f1_u" transform="matrix(0,-18,18,0,1761.8,1070.2)" />
<use xlink:href="#f1_w" transform="matrix(0,-18,18,0,1761.8,1054.9)" />
<use xlink:href="#f1_v" transform="matrix(0,-18,18,0,1761.8,1039.6)" />
<use xlink:href="#f1_k" transform="matrix(0,-18,18,0,1761.8,1016.7)" />
<use xlink:href="#f1_v" transform="matrix(0,-18,18,0,1761.8,998.3)" />
<use xlink:href="#f1_r" transform="matrix(0,-18,18,0,1761.8,983)" />
<use xlink:href="#f1_11" transform="matrix(0,-18,18,0,1761.8,967.7)" />
</g>
</g>
<text transform="matrix(0, -1, 1, 0, 1761, 1096)" class="s4_1">Ridge Beam</text>
<g clip-path="url(#c6_1)">
<path d="M1716.7,408.6h31.4V317.5h-31.4v91.1Z" class="g1_1" />
</g>
<g clip-path="url(#c7_1)">
<path d="M1720.9,403.5h20.9V382.6h-20.9v20.9Z" class="g2_1" />
</g>
<g clip-path="url(#c8_1)">
<path d="M1719.5,404.9h24v-24h-24v24Z" class="g3_1" />
</g>
<g clip-path="url(#c9_1)">
<path d="M1716.4,409.1h32.2V317.3h-32.2v91.8Z" class="g3_1" />
</g>
<g clip-path="url(#c10_1)">
<path d="M1741.3,344.2h5.5v-4.4h-5.5v4.4Z" class="g2_1" />
</g>
<g clip-path="url(#c11_1)">
<path d="M1741.5,339.8h5.1v-5.1h-5.1v5.1Z" class="g2_1" />
</g>
<g clip-path="url(#c12_1)">
<path d="M1741.3,365.7h5.3v-4.6h-5.3v4.6Z" class="g2_1" />
</g>
<g clip-path="url(#c13_1)">
<path d="M1741.5,361.1h5.1v-4.9h-5.1v4.9Z" class="g2_1" />
</g>
<g clip-path="url(#c14_1)">
<path d="M1719.7,347h16.5V330.7h-16.5V347Z" class="g2_1" />
</g>
<g clip-path="url(#c15_1)">
<path d="M1718.9,347.9h17.8v-18h-17.8v18Z" class="g3_1" />
</g>
<g clip-path="url(#c16_1)">
<path d="M1723.1,343.5h9.8v-9.3h-9.8v9.3Z" class="g3_1" />
</g>
<g clip-path="url(#c17_1)">
<path d="M1719.8,368.8h16.5V352.3h-16.5v16.5Z" class="g2_1" />
</g>
<g clip-path="url(#c18_1)">
<path d="M1725.2,362.9h8.6v-4.7h-8.6v4.7Z" class="g3_1" />
</g>
<g clip-path="url(#c19_1)">
<path d="M1722,361.8h2.8v-2.5H1722v2.5Z" class="g3_1" />
</g>
<g clip-path="url(#c20_1)">
<path d="M1719.1,369.5h17.8V351.6h-17.8v17.9Z" class="g3_1" />
</g>


    <g id="Artboard" stroke="none" stroke-width="1" fill="none" fill-rule="evenodd">
        <g id="Clipped" transform="translate(1705.000000, 55.000000)">
            <mask id="mask-2wb" fill="white">
                        <path d="M15.8,61.2 C20.5,61.2 24.9,56.7 26,50.4 C26.3,48.6 26.3,46.9 26.1,45.3 C28.5,47.9 31.9,49.4 34.8,49.4 C35.3,49.4 35.8,49.4 36.2,49.3 C41.1,48.5 45.3,41.8 44.3,35.1 C46.3,38.4 49.6,40.3 52.8,40.3 C53.2,40.3 53.7,40.3 54.1,40.2 C58.9,39.3 62.4,31.5 61.2,24.7 C60.8,22.9 60.2,21.4 59.4,20.1 C59.6,20.6 59.7,21.2 59.8,21.8 C61,28.6 57.9,36.3 53.3,37.1 C53,37.2 52.6,37.2 52.2,37.2 C48.4,37.2 44.4,34.2 42.8,29.2 C42.6,29.4 42.5,29.5 42.3,29.6 C42.3,29.8 42.3,29.9 42.4,30 C42.3,29.9 42.2,29.8 42.2,29.7 C42.1,29.8 42.1,29.8 42,29.9 C42.3,30.8 42.6,31.7 42.8,32.7 C44,39.5 40.2,46.3 35.7,47.1 C35.3,47.2 34.9,47.2 34.5,47.2 C30.8,47.2 26.2,44.3 24.2,39.6 C25.1,42 25.4,45 24.9,48.1 C23.7,54.4 19.7,59 15.4,59 C15.1,59 14.8,59 14.5,59 C11.9,58.5 10,56.4 8.9,53.4 C8.5,53.3 8.1,53.1 7.7,52.8 C7.6,52.8 7.6,52.8 7.6,52.8 C8.4,57.1 11,60.5 14.6,61.1 C15,61.2 15.4,61.2 15.8,61.2 Z M85.5,23.3 C88.5,23.3 91,20.8 91,17.9 C91,14.9 88.5,12.4 85.5,12.4 C82.6,12.4 80.1,14.9 80.1,17.9 C80.1,20.8 82.6,23.3 85.5,23.3 Z M33,84 C32.6,84 32.2,84 31.8,83.9 C28,83 25.8,78.5 26,73.2 C22.1,71.9 18.8,69.8 16.3,66.8 C16,66.4 15.7,66 15.4,65.7 C13.8,68.7 11.3,70.7 8.6,70.7 C8.5,70.7 8.4,70.7 8.3,70.6 C3.7,70.4 0.2,64.6 0.6,57.7 C0.8,53.4 2.5,49.7 4.8,47.6 C4.5,44.6 5.4,41 7.5,37.8 C9.3,34.9 11.8,32.8 14.2,31.7 C14.6,29.2 15.9,26.4 18,23.9 C20.7,20.7 24.1,18.7 27.2,18.3 C27.4,17.7 27.7,17.1 28.1,16.5 C30.6,12.2 35.4,9.8 39.3,9.6 C40.7,8.7 42.1,7.9 43.4,7.2 C44,6.5 44.6,5.9 45.3,5.3 C48.3,2.8 52.1,1.5 55.3,1.5 C56.1,1.5 56.8,1.6 57.5,1.7 C60.8,1 64,0.6 67,0.6 C69.8,0.6 72.4,0.9 74.9,1.6 C75.2,1.6 75.5,1.5 75.9,1.5 C82.3,1.5 88.9,4.2 92.5,10.5 C97.3,18.7 96.4,30.6 91.5,37.3 C91.9,38.2 92.2,39.2 92.3,40.2 C93.5,47 90.4,54.8 85.9,55.6 C85.5,55.6 85.1,55.7 84.7,55.7 C82.3,55.7 79.9,54.5 78,52.4 C77.7,52.8 77.3,53.2 77,53.6 C77,53.8 77.1,54 77.1,54.2 C78.3,61 74.5,67.8 70,68.6 C69.6,68.6 69.3,68.7 68.9,68.7 C66.7,68.7 64.5,67.5 62.8,65.6 C62,66 61.3,66.5 60.5,66.9 C60.5,67 60.5,67.1 60.5,67.2 C59.4,73.5 55.3,78.1 51.1,78.1 C50.7,78.1 50.4,78.1 50.1,78.1 C47.8,77.7 46,75.9 44.9,73.3 C44.1,73.5 43.4,73.7 42.7,73.8 C41.2,79.8 37.1,84 33.1,84 L33,84 Z" id="path-1wb"></path>
            </mask>
            <g id="Shape"></g>
            <polygon id="Shape" fill="#000000" fill-rule="nonzero" mask="url(#mask-2wb)" points="0 84.6 96.2 84.6 96.2 0 0 0"></polygon>
        </g>
    </g>
<path d="M799.1,339.7V309.5m397.5,286.8h-4.9m-419.5,0h-4.9m57,0h-4.8m429.2,0h-4.9m-96.9,0H1142m-526.2,0h-4.9m-44.8,0h-4.8m-47.3,0h-4.9M1191.7,416h-44.8m44.8,-36.8h-44.8m44.8,184.3h-44.8m44.8,-73.8h-44.8m44.8,36.9h-44.8m44.8,-73.7h-44.8m44.8,-110.6h-44.8M610.9,416H566.1m-4.8,-36.8H514m47.3,184.3H514m47.3,-73.8H514m47.3,36.9H514m47.3,-73.7H514M561.3,342.3H514M1243.8,416h-47.2m47.2,-36.8h-47.2m47.2,184.3h-47.2m47.2,-73.8h-47.2m47.2,36.9h-47.2m47.2,-73.7h-47.2m47.2,-110.6h-47.2M561.3,416H514m96.9,-36.8H566.1m44.8,184.3H566.1m44.8,-73.8H566.1m44.8,36.9H566.1m44.8,-73.7H566.1M610.9,342.3H566.1M1191.7,416h4.9m-4.9,-36.8h4.9m-4.9,110.5h4.9m-4.9,-36.8h4.9m-4.9,-110.6h4.9M561.3,567.6v-.7m16.6,366.8V919h-.4m-11.4,0h-.3m11.7,0v-.8m7.3,17.1v-1.6m-19,0V919m11.7,14.7V919m-11.4,14.7V919m18.5,14.7h.2m-12.1,0H576m-6.7,0h3.4m-13.9,1.6v-1.6m633.2,0V919m-12,14.7V919m12,0h-.3m0,14.7V919m-11.7,0h.3m0,14.7V919m11.4,0v-.8m7.2,17.1v-1.6m-.2,0h.2m-12.1,0h3.4m-6.8,0h3.4m-13.9,1.6v-1.6M552.3,937v55.4m0,-55.4h39.1m575,0h39.1m-614.1,0v55.4M1205.5,937v55.4M1166.4,937v55.4m-13,45.6h65.2M1209,992.4h-3.5m-39.1,0h-13m55.6,0h9.6m-65.2,45.6V992.4m65.2,45.6V992.4M571.8,1038h32.6m-65.1,0h32.5m23.1,-45.6h9.5m-9.5,0h-3.5m-39.1,0h-13m65.1,45.6V992.4M539.3,1038V992.4m66.8,-52.2h34.2M606.1,937v3.2M640.3,937v3.2m104.2,0H710.3M744.5,937v3.2M710.3,937v3.2M814.5,937v3.2M848.8,937v3.2m70,0H953M918.8,937v3.2M953,937v3.2m104.3,0h-34.2m0,-3.2v3.2m34.2,-3.2v3.2m104.3,0h-34.3m0,-3.2v3.2m34.3,-3.2v3.2m-86.4,0h34.2M1075.2,937v3.2m34.2,-3.2v3.2m-104.2,0H971m0,-3.2v3.2m34.2,-3.2v3.2m-104.3,0H866.7m0,-3.2v3.2M900.9,937v3.2m-104.3,0H762.4m0,-3.2v3.2M796.6,937v3.2m-104.2,0H658.2m0,-3.2v3.2M692.4,937v3.2M516,937v-1.7m0,1.7h36.3m609.3,0h4.8m39.1,0h36.3v-1.7m-393.1,4.9V937M577.5,918.2h18.8m34.2,0h17.9m34.2,0h17.9m34.2,0h18m34.2,0h17.9m34.2,0h17.9m34.2,0h18m34.2,0h17.9m34.2,0h17.9m34.2,0h17.9m34.2,0h18M1243.8,408h-42.3m-16.3,0h-38.3m96.9,-36.9h-42.3m-16.3,0h-38.3m96.9,184.3h-42.3m-16.3,0h-38.3m96.9,-73.7h-42.3m-16.3,0h-38.3m96.9,36.8h-42.3m-16.3,0h-38.3m96.9,-73.7h-42.3m-16.3,0h-38.3M1243.8,416v3.5m0,-11.5v8m-96.9,-8v8m96.9,-36.8v3.4m0,-11.5v8.1m-96.9,-8.1v8.1m96.9,184.3v3.4m0,-11.5v8.1m0,3.4h-47.2m-49.7,-11.5v8.1m96.9,-73.8v3.5m0,-11.5v8m-96.9,-8v8m96.9,36.9v3.5m0,-11.6v8.1m-96.9,-8.1v8.1m96.9,-73.7v3.4m0,-11.5v8.1m-96.9,-8.1v8.1m96.9,-110.6v3.5m0,-11.6v8.1m-96.9,-8.1v8.1M615.8,339.7H767.3m4.9,0h47.3m4.8,0H1142m49.7,223.8v3.4m4.9,-3.4h-4.9m4.9,-8.1h-4.9m0,-28.8v3.5m4.9,-3.5h-4.9m4.9,-8.1h-4.9m0,-28.8v3.5m4.9,-11.5h-4.9m0,-28.8v3.4m4.9,-11.5h-4.9m0,-28.8v3.5m4.9,-11.5h-4.9m0,-28.8v3.4m4.9,-11.5h-4.9m0,-28.8v3.5m4.9,-11.6h-4.9m0,-24.7v24.7m0,-24.7h4.9m0,299.6h-4.9m4.9,-12.8v12.8m-4.9,-12.8v12.8M767.3,309.5h4.9m0,299.6h-4.9m4.9,-12.8v12.8m-4.9,-12.8v12.8M819.5,309.5h4.8m0,299.6h-4.8m4.8,-12.8v12.8m-4.8,-12.8v12.8M1243.8,309.5v24.7m0,-24.7h4.9m0,299.6h-4.9m4.9,-12.8v12.8m-4.9,-12.8v12.8m-96.9,-53.7V530.1m0,-11.6V493.2m0,-11.5V456.3m0,-11.5V419.5m0,-11.5V382.6m0,-11.5V345.8M1142,309.5h4.9m0,299.6H1142m4.9,-12.8v12.8M1142,596.3v12.8M610.9,309.5v24.7m0,-24.7h4.9m0,299.6h-4.9m4.9,-12.8v12.8m-4.9,-12.8v12.8M566.1,555.4V530.1m0,-11.6V493.2m0,-11.5V456.3m0,-11.5V419.5m0,-11.5V382.6m0,-11.5V345.8m-4.8,217.7v3.4m4.8,-3.4h-4.8m4.8,-8.1h-4.8m0,-28.8v3.5m4.8,-3.5h-4.8m4.8,-8.1h-4.8m0,-28.8v3.5m4.8,-3.5h-4.8m4.8,-8h-4.8m0,-28.8v3.4m4.8,-3.4h-4.8m4.8,-8.1h-4.8m0,-28.8v3.5m4.8,-3.5h-4.8m4.8,-8h-4.8m0,-28.8v3.4m4.8,-3.4h-4.8m4.8,-8.1h-4.8m0,-28.8v3.5m4.8,-3.5h-4.8m4.8,-8.1h-4.8m0,-24.7v24.7m4.8,-24.7v24.7m-4.8,-24.7h4.8m0,299.6h-4.8m4.8,-12.8v12.8M514,555.4V530.1m0,-11.6V493.2m0,-11.5V456.3m0,-11.5V419.5M514,408V382.6m0,-11.5V345.8m-4.9,-36.3H514m0,299.6h-4.9M514,596.3v12.8m-4.9,-12.8v12.8M1142,339.7v221M1243.8,345.8v25.3m0,11.5V408m0,11.5v25.3m0,11.5v25.4m0,11.5v25.3m0,11.6v25.3m0,30.1v10.8M824.3,560.7v-221m-4.8,0v221m-47.3,0v-221m-4.9,0v221m-151.5,0v-221m-4.9,6.1v25.3m0,11.5V408m0,11.5v25.3m0,11.5v25.4m0,11.5v25.3m0,11.6v25.3M561.3,345.8v25.3m0,85.2v25.4m623.9,-25.4v25.4m0,-135.9v25.3M1142,560.7H935.9m-116.4,0H772.2m-4.9,0H615.8m0,4.8H767.3m4.9,0h47.3m116.4,0H1142m-206.1,0v-4.8H824.3M559.4,631.9h-.2m.2,-46h-.2m.8,107.5h638.2m0,117.3H560m0,-9.8h638.2M566.1,585.9h44.8m161.3,0h47.3m378.7,117.3H560m-.4,-117.3h-.2m.2,26.1V585.9m0,332.3V898.3m0,19.9h-.2m.2,-296h-.2m0,276.1v19.9M557.6,634.4V898.3m2.4,19.9V898.3m14.3,0v-.8m-14.3,.8h14.3M557.2,631.5v2.9m2,-2.9h-2m2.2,0h.2M560,612h-.4m.4,25.2h-.4m0,-5.7v5.7m-2,261.1h1.8M874,567.6H824.3m-4.8,0H772.2m-4.9,0H615.8m-4.9,0H566.1M874,565.5H824.3m49.7,2.1v-2.1m312.8,2.1h-39.9m39.9,0v-.7M514,567.6h47.3m635.3,0h47.2m-47.2,0v-.7m-9.8,.7h4.9m6.1,17.9h46M1142,567.6H952.2m0,17.9V567.6M819.5,585.5H772.2m-161.3,0H566.1m-52.1,0h46m637.8,.4v-.4m-167.4,0v.4m-156.4,0v-.4m-156.4,0h49.7m57,0H874m-156.4,.4v-.4m-157.6,0v.4m1.3,-.4H560m1.3,.4v-.4m636.5,0h-1.2m-4.9,0h-4.9v.4m14.7,-30.5V530.1m0,-11.6V493.2m0,-11.5V456.3m0,-11.5V419.5m0,-11.5V382.6m0,-11.5V345.8m0,-11.6v-2.6h-4.9M615.8,585.5H717.6m312.8,0H1142m4.9,0h39.9M734.7,935.3V918.2m-34.2,17.1V918.2m-70,17.1V918.2m-34.2,17.1V918.2M839,935.3V918.2m-34.2,17.1V918.2m138.5,17.1V918.2m-34.2,17.1V918.2m138.4,17.1V918.2m-34.2,17.1V918.2m138.5,17.1V918.2m-34.2,17.1V918.2m-435,17.1V918.2m-34.2,17.1V918.2m138.5,17.1V918.2m-34.2,17.1V918.2m138.4,17.1V918.2m-34.2,17.1V918.2m138.5,17.1V918.2m-34.2,17.1V918.2m138.4,17.1V918.2m-34.2,17.1V918.2M610.9,416v3.5m0,-11.5v8m-49.6,3.5H514M514,408v8m96.9,-36.8v3.4m0,-11.5v8.1m-49.6,3.4H514m0,-11.5v8.1m96.9,184.3v3.4m0,-11.5v8.1m0,3.4H566.1m-4.8,0H514m0,-11.5v8.1m96.9,-73.8v3.5m0,-11.5v8m-49.6,3.5H514m0,-11.5v8m96.9,36.9v3.5m0,-11.6v8.1m-49.6,3.5H514m0,-11.6v8.1m96.9,-73.7v3.4m0,-11.5v8.1m-49.6,3.4H514m0,-11.5v8.1M610.9,342.3v3.5m0,-11.6v8.1m-49.6,3.5H514m0,-11.6v8.1M610.9,408H572.7m-11.4,0H514m96.9,-36.9H572.7m-11.4,0H514m96.9,184.3H572.7m-11.4,0H514m96.9,-73.7H572.7m-11.4,0H514m96.9,36.8H572.7m-11.4,0H514m96.9,-73.7H572.7m-11.4,0H514m58.7,36.9V456.3m0,-85.2V345.8m6.4,587.9h-1.2M566.1,919v-.8m-.3,15.5h3.5m611,-14.7v-.8m-.3,15.5h.2m11.8,0h1.2m-13,0h3.2m-14.3,58.7h.6m6.5,0h19.6m-632.4,0h18.2m-26,0H558M848.7,937h.1m-.1,3.2h.1m-290,-4.9H516m50.1,-17.1h11.4M1243.8,419.5h-47.2m-4.9,0h-44.8m96.9,-36.9h-47.2m-4.9,0h-44.8m44.8,184.3h-44.8m96.9,-73.7h-47.2m-4.9,0h-44.8m96.9,36.9h-47.2m-4.9,0h-44.8m96.9,-73.8h-47.2m-4.9,0h-44.8m96.9,-110.5h-47.2m-4.9,0h-44.8m44.8,-11.6h-44.8M799.1,309.5h20.4m372.2,257.4v.7m4.9,-225.3v28.8m0,8.1V408m0,8v28.8m0,8.1v28.8m0,8v28.8m0,8.1v28.8m0,8.1v3.4m-4.9,-36.8v25.3m0,-62.2v25.3m0,-62.2v25.4m0,-62.2v25.3m0,-62.2V408m0,-62.2v25.3m4.9,-61.6v24.7m47.2,232.7v.7m-632.9,-.7v.7M566.1,342.3v3.5m0,33.4v3.4m0,33.4v3.5m0,33.4v3.4m0,33.4v3.5m0,33.4v3.5M514,585.5v10.8M874,565.5h61.9M559.4,585.9v36.3m-.2,-36.3v46m639,169v9.8m-638.2,0v-9.8m638.2,9.8V918.2m-638.2,0V897.5M1198.2,585.9V703.2M560,585.9h1.3m54.5,0H767.3m57,0H874m272.9,0h44.8M560,703.2v-9.8m0,-107.5h-.4m14.7,311.6H559.6m0,.8v-.8m.4,20.7h-.4m0,-283.8h-2.4M559.6,612v10.2m-.2,276.1h.2M952.2,567.6H874m156.4,17.9H874M610.9,419.5H566.1m44.8,-36.9H566.1m44.8,110.6H566.1m44.8,36.9H566.1m44.8,-73.8H566.1M610.9,345.8H566.1m44.8,-11.6H566.1M576,933.7h1.9m612.3,0h1.8m-24.9,58.7h2m.6,0h6.5m19.6,0h6.5m2.6,0h.6m-623.9,0h9.8m-36.5,0h.7m2.4,0h5.4M1191.7,408h-6.5m6.5,-36.9h-6.5m6.5,184.3h-6.5m6.5,-73.7h-6.5m6.5,36.8h-6.5m6.5,-73.7h-6.5m58.6,-110.6h-42.3m-4.9,262.1V585.9M772.2,596.3V585.9m-4.9,-25.2v6.9m0,18.3v10.4m57,0V585.9m-4.8,-25.2v6.9m0,18.3v10.4M1142,560.7v6.9m0,18.3v10.4M610.9,585.9v10.4M566.1,585.9v10.4m-6.7,25.9v9.7m638.8,71.3v97.7m-638.2,0V703.2m0,194.3V810.7M874,585.9h268m54.6,0h1.2M560,612V585.9m1.3,-251.7H514m652.4,658.2h.7m35.2,0h2.6m-652.6,0h2.6M561,935.3h-2.2M1201.5,334.2h-4.9M514,309.5h47.3m4.8,0h44.8m4.9,0H767.3m57,0H1142m49.7,276.4v10.4m4.9,-10.4v-.4m-424.4,.4v-.4m-4.9,0v.4m4.9,-20.4v2.1m52.1,18.3v-.4m-4.8,0v.4m4.8,-20.4v2.1m322.6,28.7V585.5m-4.9,0v.4M615.8,596.3V585.5m-4.9,0v.4m4.9,-20.4v2.1m-49.7,-4.1v4.1m0,17.9v.4M560,693.4V612m-.4,10.2v9.3M572.7,408h-6.6m6.6,-36.9h-6.6m6.6,184.3h-6.6m6.6,-73.7h-6.6m6.6,36.8h-6.6m6.6,-73.7h-6.6m0,490.5H561M1201.5,408h-4.9m4.9,-36.9h-4.9m4.9,184.3h-4.9m4.9,-73.7h-4.9m4.9,36.8h-4.9m4.9,-73.7h-4.9M772.2,309.5h26.9m392.6,276v.4M772.2,560.7v4.8m52.1,-4.8v4.8M615.8,560.7v4.8M514,566.9v.7m62,367.7h-3.3M1146.9,309.5h44.8m-44.8,254v4.1M514,563.5v3.4m70.8,368.4h-.2m-11.9,0h-6.6M1146.9,526.6v3.5m33.3,405.2h-2.8m-592.8,0h-1.1M1196.6,309.5h47.2m-96.9,180.2v3.5m43.3,442.1h-3.4m-9.4,0h-2.3m-591.6,0h-1.9m660.2,0h-42.9m-3.1,0h-5.6m-3.4,0h-6.6m-5.1,0h-1.5m-592,0H576M1146.9,452.9v3.4M514,526.6v3.5m684.9,405.2h-.2m-25.1,0h-.7M1146.9,416v3.5M514,489.7v3.5m684.7,442.1h-2.9m-461.1,0H700.5M1146.9,309.5v24.7m0,8.1v3.5m0,33.4v3.4M839,935.3H804.8M514,452.9v3.4m429.3,479H909.1m-104.3,0H786.9m-86.4,0H682.6m-52.1,0H584.8m588.1,0h-21.1m-104.3,0h-34.2m-104.2,0h-18m-104.2,0H734.7m-52.1,0H630.5m521.3,0h-34.2m-104.3,0H995.4m-104.3,0H839M514,416v3.5m603.6,515.8h-18m-104.2,0H943.3m156.3,0h-52.1M514,379.2v3.4m0,-40.3v3.5m0,-36.3v24.7m47.3,262.1v12.8m0,-12.8V585.9m4.5,347.8h-2.6m18.4,0h1.9m-1.9,0h-2.5m4.4,0h1.1m-25.8,0h4.4m616.8,0h-2.6m18.4,0h1.8m-1.8,0h-2.6m4.4,0h1.1m-25.8,0h4.5m-328.7,6.5H814.5m-248.4,-22H560M1196.6,567.6v17.9m-4.9,0V567.6m-419.5,0v17.9m-4.9,-17.9v17.9m4.9,-245.8V309.5m-4.9,0v30.2m57,227.9v17.9m-4.8,-17.9v17.9m4.8,-245.8V309.5m-4.8,0v30.2m424.3,227.9v17.9m-96.9,0V567.6m-4.9,0v17.9m0,-276v30.2M615.8,585.5V567.6m-4.9,0v17.9m4.9,-245.8V309.5M566.1,567.6v17.9m-4.8,0V567.6M514,585.5V567.6M1185.2,444.8V419.5m0,99V493.2m0,-85.2V382.6m0,172.8V530.1m12.6,55.8h.4M509.1,596.3V309.5m739.6,286.8V309.5m-50.5,608.7h-6.5m-11.4,0h11.4m-457,0H700.5m9.8,18.8H692.4m17.9,0h34.2m-114,-18.8H596.3m9.8,18.8H591.4m14.7,0h34.2M839,918.2H804.8m9.7,18.8H796.6m17.9,0h34.2m94.6,-18.8H909.1m9.7,18.8H900.9m17.9,0H953m94.5,-18.8h-34.2m9.8,18.8h-17.9m17.9,0h34.2m94.5,-18.8h-34.2m9.7,18.8h-17.9m17.9,0h34.3m-479,-18.8H648.4m9.8,18.8H640.3m17.9,0h34.2m94.5,-18.8H752.7m9.7,18.8H744.5m17.9,0h34.2m94.5,-18.8H856.9m9.8,18.8H848.8m17.9,0h34.2m94.5,-18.8H961.2M971,937H953m18,0h34.2m94.4,-18.8h-34.2m9.8,18.8h-17.9m17.9,0h34.2m70.9,-18.8h-28.5M572.7,444.8V419.5m-11.4,25.3V419.5m0,99V493.2m0,-85.2V382.6m0,172.8V530.1M572.7,408V382.6m0,172.8V530.1m0,-11.6V493.2" class="g4_1" />
<g clip-path="url(#c21_1)">
<path d="M509.1,295.8V221.6m0,0V210.2m290,85.6V221.6m0,0V210.2" class="g0_1" />
<path d="M520.6,221.6h267" class="g5_1" />
<path d="M510.3,221.6l10.3,-1.7v3.5l-10.3,-1.8Z" class="g3_1" />
<path d="M510.3,221.6l10.3,-1.7v3.5l-10.3,-1.8Z" class="g5_1" />
<path d="M797.9,221.6l-10.3,1.8v-3.5l10.3,1.7Z" class="g3_1" />
<path d="M797.9,221.6l-10.3,1.8v-3.5l10.3,1.7Z" class="g5_1" />
</g>
<g clip-path="url(#c22_1)">
<g fill="#000000" >
<use xlink:href="#f1_f" transform="matrix(9,0,0,9,639.7,214.2)" />
<use xlink:href="#f1_4" transform="matrix(9,0,0,9,647.3,214.2)" />
<use xlink:href="#f1_5" transform="matrix(9,0,0,9,649.9,214.2)" />
<use xlink:href="#f1_d" transform="matrix(9,0,0,9,654.5,214.2)" />
<use xlink:href="#f1_3" transform="matrix(9,0,0,9,662.2,214.2)" />
</g>
</g>
<text x="639" y="214" class="s5_1">7'-5"</text>
<g clip-path="url(#c23_1)">
<path d="M1248.7,295.8V221.6m0,0V210.2M799.1,295.8V221.6m0,0V210.2" class="g0_1" />
<path d="M1237.2,221.6H810.6" class="g5_1" />
<path d="M1247.5,221.6l-10.3,1.8v-3.5l10.3,1.7Z" class="g3_1" />
<path d="M1247.5,221.6l-10.3,1.8v-3.5l10.3,1.7Z" class="g5_1" />
<path d="M800.3,221.6l10.3,-1.7v3.5l-10.3,-1.8Z" class="g3_1" />
<path d="M800.3,221.6l10.3,-1.7v3.5l-10.3,-1.8Z" class="g5_1" />
</g>
<g clip-path="url(#c24_1)">
<g fill="#000000" >
<use xlink:href="#f1_9" transform="matrix(9,0,0,9,1006.1,214.2)" />
<use xlink:href="#f1_9" transform="matrix(9,0,0,9,1012.8,214.2)" />
<use xlink:href="#f1_4" transform="matrix(9,0,0,9,1020.4,214.2)" />
<use xlink:href="#f1_5" transform="matrix(9,0,0,9,1023,214.2)" />
<use xlink:href="#f1_e" transform="matrix(9,0,0,9,1027.6,214.2)" />
<use xlink:href="#f1_3" transform="matrix(9,0,0,9,1035.3,214.2)" />
</g>
</g>
<text x="1006" y="214" dx="0,-1,0,0,0,0" class="s5_1">11'-6"</text>
<g clip-path="url(#c25_1)">
<path d="M514,320.5V279.2m0,0V267.8m96.9,52.7V279.2m0,0V267.8" class="g0_1" />
<path d="M525.5,279.2h74" class="g5_1" />
<path d="M515.2,279.2l10.3,-1.7v3.4l-10.3,-1.7Z" class="g3_1" />
<path d="M515.2,279.2l10.3,-1.7v3.4l-10.3,-1.7Z" class="g5_1" />
<path d="M609.8,279.2l-10.3,1.7v-3.4l10.3,1.7Z" class="g3_1" />
<path d="M609.8,279.2l-10.3,1.7v-3.4l10.3,1.7Z" class="g5_1" />
</g>
<g clip-path="url(#c26_1)">
<g fill="#000000" >
<use xlink:href="#f1_a" transform="matrix(9,0,0,9,536.6,271.8)" />
<use xlink:href="#f1_4" transform="matrix(9,0,0,9,544.2,271.8)" />
<use xlink:href="#f1_5" transform="matrix(9,0,0,9,546.8,271.8)" />
<use xlink:href="#f1_d" transform="matrix(9,0,0,9,551.4,271.8)" />
<use xlink:href="#f1_b" transform="matrix(9,0,0,9,562.9,271.8)" />
<use xlink:href="#f1_7" transform="matrix(9,0,0,9,570.5,271.8)" />
<use xlink:href="#f1_c" transform="matrix(9,0,0,9,574.3,271.8)" />
<use xlink:href="#f1_3" transform="matrix(9,0,0,9,582,271.8)" />
</g>
</g>
<text x="536" y="271" class="s5_1">2'-5 3/4"</text>
<g clip-path="url(#c27_1)">
<path d="M1146.9,320.5V265m0,0V253.5m96.9,67V265m0,0V253.5" class="g0_1" />
<path d="M1158.4,265h73.9" class="g5_1" />
<path d="M1148.1,265l10.3,-1.7v3.4L1148.1,265Z" class="g3_1" />
<path d="M1148.1,265l10.3,-1.7v3.4L1148.1,265Z" class="g5_1" />
<path d="M1242.7,265l-10.4,1.7v-3.4l10.4,1.7Z" class="g3_1" />
<path d="M1242.7,265l-10.4,1.7v-3.4l10.4,1.7Z" class="g5_1" />
</g>
<g clip-path="url(#c28_1)">
<g fill="#000000" >
<use xlink:href="#f1_a" transform="matrix(9,0,0,9,1169.4,257.5)" />
<use xlink:href="#f1_4" transform="matrix(9,0,0,9,1177.1,257.5)" />
<use xlink:href="#f1_5" transform="matrix(9,0,0,9,1179.7,257.5)" />
<use xlink:href="#f1_d" transform="matrix(9,0,0,9,1184.3,257.5)" />
<use xlink:href="#f1_b" transform="matrix(9,0,0,9,1195.8,257.5)" />
<use xlink:href="#f1_7" transform="matrix(9,0,0,9,1203.4,257.5)" />
<use xlink:href="#f1_c" transform="matrix(9,0,0,9,1207.2,257.5)" />
<use xlink:href="#f1_3" transform="matrix(9,0,0,9,1214.9,257.5)" />
</g>
</g>
<text x="1169" y="257" class="s5_1">2'-5 3/4"</text>
<g clip-path="url(#c29_1)">
<path d="M509.1,295.8v-131m0,0V153.3M769.8,295.8v-131m0,0V153.3" class="g0_1" />
<path d="M520.6,164.8H758.3" class="g5_1" />
<path d="M510.3,164.8L520.6,163v3.5l-10.3,-1.7Z" class="g3_1" />
<path d="M510.3,164.8L520.6,163v3.5l-10.3,-1.7Z" class="g5_1" />
<path d="M768.6,164.8l-10.3,1.7V163l10.3,1.8Z" class="g3_1" />
<path d="M768.6,164.8l-10.3,1.7V163l10.3,1.8Z" class="g5_1" />
</g>
<g clip-path="url(#c30_1)">
<g fill="#000000" >
<use xlink:href="#f1_e" transform="matrix(9,0,0,9,625,157.3)" />
<use xlink:href="#f1_4" transform="matrix(9,0,0,9,632.6,157.3)" />
<use xlink:href="#f1_5" transform="matrix(9,0,0,9,635.3,157.3)" />
<use xlink:href="#f1_g" transform="matrix(9,0,0,9,639.8,157.3)" />
<use xlink:href="#f1_3" transform="matrix(9,0,0,9,647.5,157.3)" />
</g>
</g>
<text x="624" y="157" class="s5_1">6'-8"</text>
<g clip-path="url(#c31_1)">
<path d="M799.1,295.8v-131m0,0V153.3M769.8,295.8v-131m0,0V153.3" class="g0_1" />
<path d="M810.6,164.8H822" class="g5_1" />
<path d="M800.3,164.8L810.6,163v3.5l-10.3,-1.7Z" class="g3_1" />
<path d="M800.3,164.8L810.6,163v3.5l-10.3,-1.7ZM746.8,164.8h11.5" class="g5_1" />
<path d="M768.6,164.8l-10.3,1.7V163l10.3,1.8Z" class="g3_1" />
<path d="M768.6,164.8l-10.3,1.7V163l10.3,1.8Z" class="g5_1" />
</g>
<g clip-path="url(#c32_1)">
<g fill="#000000" >
<use xlink:href="#f1_h" transform="matrix(9,0,0,9,777.4,157.3)" />
<use xlink:href="#f1_3" transform="matrix(9,0,0,9,785.1,157.3)" />
</g>
</g>
<text x="777" y="157" class="s5_1">9"</text>
<g clip-path="url(#c33_1)">
<path d="M799.1,295.8v-131m0,0V153.3m22.8,142.5v-131m0,0V153.3" class="g0_1" />
<path d="M787.6,164.8H776.1" class="g5_1" />
<path d="M797.9,164.8l-10.3,1.7V163l10.3,1.8Z" class="g3_1" />
<path d="M797.9,164.8l-10.3,1.7V163l10.3,1.8ZM844.8,164.8H833.4" class="g5_1" />
<path d="M823.1,164.8L833.4,163v3.5l-10.3,-1.7Z" class="g3_1" />
<path d="M823.1,164.8L833.4,163v3.5l-10.3,-1.7Z" class="g5_1" />
</g>
<g clip-path="url(#c34_1)">
<g fill="#000000" >
<use xlink:href="#f1_f" transform="matrix(9,0,0,9,803.5,157.3)" />
<use xlink:href="#f1_3" transform="matrix(9,0,0,9,811.1,157.3)" />
</g>
</g>
<text x="803" y="157" class="s5_1">7"</text>
<g clip-path="url(#c35_1)">
<path d="M1248.7,295.8v-131m0,0V153.3M821.9,295.8v-131m0,0V153.3" class="g0_1" />
<path d="M1237.2,164.8H833.4" class="g5_1" />
<path d="M1247.5,164.8l-10.3,1.7V163l10.3,1.8Z" class="g3_1" />
<path d="M1247.5,164.8l-10.3,1.7V163l10.3,1.8Z" class="g5_1" />
<path d="M823.1,164.8L833.4,163v3.5l-10.3,-1.7Z" class="g3_1" />
<path d="M823.1,164.8L833.4,163v3.5l-10.3,-1.7Z" class="g5_1" />
</g>
<g clip-path="url(#c36_1)">
<g fill="#000000" >
<use xlink:href="#f1_9" transform="matrix(9,0,0,9,1013.7,157.3)" />
<use xlink:href="#f1_8" transform="matrix(9,0,0,9,1021.4,157.3)" />
<use xlink:href="#f1_4" transform="matrix(9,0,0,9,1029,157.3)" />
<use xlink:href="#f1_5" transform="matrix(9,0,0,9,1031.6,157.3)" />
<use xlink:href="#f1_9" transform="matrix(9,0,0,9,1036.2,157.3)" />
<use xlink:href="#f1_9" transform="matrix(9,0,0,9,1042.8,157.3)" />
<use xlink:href="#f1_3" transform="matrix(9,0,0,9,1050.5,157.3)" />
</g>
</g>
<text x="1013" y="157" dx="0,0,0,0,0,-1,0" class="s5_1">10'-11"</text>

<defs>
<path d="M641,-18c0,0,-178,0,-291,51c0,0,-114,52,-196,182c0,0,-82,131,-82,334c0,0,0,271,145,417c0,0,144,146,408,146c0,0,207,0,325,-84c0,0,118,-83,175,-257L827,705c0,0,-15,50,-33,73c0,0,-28,39,-69,60c0,0,-41,21,-92,21c0,0,-115,0,-176,-93c0,0,-46,-68,-46,-215c0,0,0,-182,55,-249c0,0,55,-67,155,-67c0,0,97,0,147,54c0,0,50,55,72,159l296,-90c0,0,-30,-124,-94,-208c0,0,-64,-84,-159,-126c0,0,-95,-42,-242,-42Z" 
id="f0_7"
transform="scale(0.001,-0.001)" />

<path d="M93,0V304H418V0Z" 
id="f0_3"
transform="scale(0.001,-0.001)" />

<path d="M508,189c0,0,46,0,80,32c0,0,34,33,50,103c0,0,16,70,16,218c0,0,0,218,-37,292c0,0,-37,75,-111,75c0,0,-75,0,-109,-76c0,0,-33,-76,-33,-283c0,0,0,-209,37,-285c0,0,37,-76,107,-76Zm1,-207c0,0,-138,0,-223,43c0,0,-85,44,-140,129c0,0,-39,61,-61,166c0,0,-22,104,-22,231c0,0,0,312,112,436c0,0,112,125,342,125c0,0,110,0,181,-27c0,0,71,-28,116,-71c0,0,45,-44,70,-92c0,0,26,-48,42,-112c0,0,30,-122,30,-255c0,0,0,-298,-100,-436C856,119,755,-18,509,-18Z" 
id="f0_4"
transform="scale(0.001,-0.001)" />

<path d="M585,440V784L292,440ZM585,0V204H31V454l554,658H850V440H987V204H850V0Z" 
id="f0_5"
transform="scale(0.001,-0.001)" />

<path d="M125,0V1093H463V0Z" 
id="f0_a"
transform="scale(0.001,-0.001)" />

<path d="M561,-18c0,0,-279,0,-387,107C174,89,67,196,53,362l321,20c0,0,11,-78,43,-119c0,0,52,-66,149,-66c0,0,72,0,112,33c0,0,39,34,39,79c0,0,0,43,-37,76c0,0,-38,34,-174,63c0,0,-222,50,-317,133c0,0,-95,83,-95,211c0,0,0,84,49,159c0,0,49,75,147,118c0,0,98,43,269,43c0,0,209,0,319,-78c0,0,110,-78,131,-248L690,768c0,0,-12,73,-53,107c0,0,-40,33,-112,33c0,0,-59,0,-88,-25c0,0,-30,-25,-30,-60c0,0,0,-26,24,-47c0,0,24,-22,114,-41c0,0,221,-47,317,-96c0,0,96,-49,140,-121c0,0,43,-73,43,-162c0,0,0,-105,-58,-194C987,162,929,73,824,27c0,0,-104,-45,-263,-45Z" 
id="f0_e"
transform="scale(0.001,-0.001)" />

<path d="M664,-18c0,0,-80,0,-174,12c0,0,-95,10,-158,43c0,0,-64,33,-116,94c0,0,-53,61,-72,126c0,0,-32,104,-32,185v651H450V427c0,0,0,-90,49,-140c0,0,50,-50,138,-50c0,0,87,0,137,49c0,0,49,50,49,141v666h338V442c0,0,0,-97,-31,-183c0,0,-30,-86,-94,-151c0,0,-65,-64,-136,-90c0,0,-98,-36,-236,-36Z" 
id="f0_g"
transform="scale(0.001,-0.001)" />

<path d="M111,0V1093h906V859H450V685H976V462H450V247h584V0Z" 
id="f0_9"
transform="scale(0.001,-0.001)" />

<path d="M537,248c0,0,106,0,151,24c0,0,45,23,70,82c0,0,25,58,25,190c0,0,0,174,-56,238c0,0,-57,64,-188,64H455V248ZM116,0V1093H618c0,0,149,0,240,-40c0,0,91,-40,151,-116c0,0,60,-75,87,-175c0,0,26,-100,26,-212c0,0,0,-175,-39,-271c0,0,-40,-97,-111,-162c0,0,-71,-66,-152,-87C820,30,709,0,618,0Z" 
id="f0_8"
transform="scale(0.001,-0.001)" />

<path d="M713,418L593,810L474,418ZM2,0L412,1093H781L1192,0H838L784,181H401L347,0Z" 
id="f0_6"
transform="scale(0.001,-0.001)" />

<path d="M379,0V823H35v270H1062V823H718V0Z" 
id="f0_f"
transform="scale(0.001,-0.001)" />

<path d="M598,650c0,0,23,0,90,15c0,0,33,7,54,34c0,0,22,28,22,64c0,0,0,53,-34,81c0,0,-33,28,-126,28H456V650ZM116,0V1093H679c0,0,157,0,240,-27c0,0,83,-27,133,-99c0,0,51,-73,51,-177c0,0,0,-91,-39,-157c0,0,-39,-66,-107,-107c0,0,-43,-26,-119,-43c0,0,61,-21,89,-41c0,0,18,-13,54,-57c0,0,35,-44,47,-68L1192,0H810L629,334c0,0,-34,65,-61,85c0,0,-36,25,-83,25H456V0Z" 
id="f0_d"
transform="scale(0.001,-0.001)" />

<path d="M636,235c0,0,109,0,169,70c0,0,59,71,59,254c0,0,0,154,-62,225c0,0,-62,72,-169,72c0,0,-102,0,-163,-73c0,0,-62,-72,-62,-239c0,0,0,-165,61,-237c0,0,62,-72,167,-72ZM648,-18c0,0,-185,0,-307,58c0,0,-121,59,-196,187c0,0,-76,127,-76,319c0,0,0,267,150,417c0,0,149,149,415,149c0,0,273,0,421,-147c0,0,148,-146,148,-410c0,0,0,-192,-65,-314c0,0,-64,-123,-186,-191c0,0,-122,-68,-304,-68Z" 
id="f0_c"
transform="scale(0.001,-0.001)" />

<path d="M243,0L0,1093H321L436,483l169,610H924L1094,484l116,609h319L1288,0H957L765,688L574,0Z" 
id="f0_h"
transform="scale(0.001,-0.001)" />

<path d="M114,0V1093H430L841,489v604h319V0H841L432,601V0Z" 
id="f0_b"
transform="scale(0.001,-0.001)" />

<path d="M396,0V964H35v129H902V964H541V0Z" 
id="f1_q"
transform="scale(0.001,-0.001)" />

<path d="M101,0V1093H235V701c0,0,94,109,237,109c0,0,88,0,153,-35c0,0,65,-35,93,-96c0,0,28,-61,28,-177V0H612V502c0,0,0,101,-44,146c0,0,-43,46,-123,46c0,0,-60,0,-113,-31c0,0,-52,-31,-75,-84c0,0,-22,-53,-22,-146V0Z" 
id="f1_x"
transform="scale(0.001,-0.001)" />

<path d="M102,0V792H236V0Zm0,939v154H236V939Z" 
id="f1_y"
transform="scale(0.001,-0.001)" />

<path d="M386,-17c0,0,-155,0,-236,64c0,0,-81,64,-103,190l133,20c0,0,11,-79,62,-122c0,0,51,-42,143,-42c0,0,93,0,138,37c0,0,44,38,44,89c0,0,0,45,-39,71c0,0,-28,18,-138,46c0,0,-147,37,-204,64c0,0,-58,27,-87,75c0,0,-30,48,-30,107c0,0,0,52,25,98c0,0,24,45,66,74c0,0,31,24,85,40c0,0,54,16,116,16c0,0,93,0,164,-27c0,0,70,-27,104,-73c0,0,33,-46,46,-122L544,570c0,0,-9,61,-52,95c0,0,-43,34,-121,34c0,0,-93,0,-132,-30c0,0,-40,-31,-40,-72c0,0,0,-26,17,-47c0,0,16,-21,51,-35c0,0,20,-8,119,-35c0,0,142,-38,199,-62c0,0,56,-24,88,-70c0,0,32,-47,32,-115c0,0,0,-67,-39,-126c0,0,-39,-60,-113,-92c0,0,-74,-32,-167,-32Z" 
id="f1_16"
transform="scale(0.001,-0.001)" />

<path d="M247,0L4,792H143L270,335L316,165c0,0,3,12,41,163L484,792H620L740,333L779,181l45,153L960,792h131L843,0H704L578,474L547,609L386,0Z" 
id="f1_1a"
transform="scale(0.001,-0.001)" />

<path d="M422,93c0,0,100,0,167,76c0,0,66,76,66,231c0,0,0,147,-67,223c0,0,-66,75,-166,75c0,0,-100,0,-167,-75c0,0,-66,-75,-66,-227c0,0,0,-152,66,-228c0,0,67,-75,167,-75Zm0,-110c0,0,-166,0,-269,106C153,89,51,196,51,396c0,0,0,220,122,326c0,0,102,88,249,88c0,0,164,0,267,-107c0,0,104,-107,104,-296c0,0,0,-153,-46,-240C747,167,701,79,614,31c0,0,-88,-48,-192,-48Z" 
id="f1_13"
transform="scale(0.001,-0.001)" />

<path d="M99,0V792H219V672c0,0,46,84,86,111c0,0,39,27,86,27c0,0,68,0,138,-43L482,642c0,0,-49,29,-98,29c0,0,-44,0,-79,-27c0,0,-35,-26,-50,-73c0,0,-22,-72,-22,-157V0Z" 
id="f1_15"
transform="scale(0.001,-0.001)" />

<path d="M101,0V1093H235V470L554,792H728L425,498L758,0H592L329,405L235,314V0Z" 
id="f1_z"
transform="scale(0.001,-0.001)" />

<path d="M98,0V1093H232V0Z" 
id="f1_10"
transform="scale(0.001,-0.001)" />

<path d="M420,-17c0,0,-163,0,-262,106c0,0,-98,106,-98,304c0,0,0,128,42,224c0,0,43,96,129,145c0,0,87,48,189,48c0,0,129,0,211,-66c0,0,82,-65,106,-185L606,539c0,0,-19,80,-66,120c0,0,-48,40,-115,40c0,0,-101,0,-164,-72c0,0,-63,-73,-63,-230c0,0,0,-160,61,-232c0,0,61,-72,159,-72c0,0,79,0,132,48c0,0,53,49,67,149L749,273C749,273,728,137,639,59c0,0,-90,-76,-219,-76Z" 
id="f1_t"
transform="scale(0.001,-0.001)" />

<path d="M644,472c0,0,-9,100,-50,150c0,0,-65,77,-167,77c0,0,-93,0,-156,-62c0,0,-63,-61,-70,-165ZM433,-17c0,0,-174,0,-275,106C158,89,56,196,56,389c0,0,0,200,103,310c0,0,103,111,267,111c0,0,159,0,259,-108c0,0,101,-109,101,-304c0,0,0,-12,-1,-36H194c0,0,7,-131,74,-200c0,0,66,-69,166,-69c0,0,74,0,126,39c0,0,52,39,83,124L782,239C782,239,749,117,660,50c0,0,-89,-67,-227,-67Z" 
id="f1_v"
transform="scale(0.001,-0.001)" />

<path d="M101,0V792H221V679c0,0,87,131,252,131c0,0,72,0,132,-26c0,0,60,-26,90,-68c0,0,30,-41,42,-99c0,0,7,-37,7,-130V0H610V482c0,0,0,82,-16,122c0,0,-15,41,-55,65c0,0,-40,24,-94,24c0,0,-86,0,-148,-54c0,0,-62,-55,-62,-207V0Z" 
id="f1_12"
transform="scale(0.001,-0.001)" />

<path d="M406,93c0,0,88,0,149,72c0,0,62,72,62,219c0,0,0,162,-63,238c0,0,-63,76,-154,76c0,0,-90,0,-150,-73c0,0,-60,-73,-60,-230c0,0,0,-152,64,-227c0,0,64,-75,152,-75ZM393,-17c0,0,-95,0,-174,52c0,0,-80,52,-123,145c0,0,-44,94,-44,215c0,0,0,119,39,215c0,0,40,97,119,148c0,0,79,52,177,52c0,0,71,0,127,-31c0,0,56,-30,91,-79v393H739V0H615V100c0,0,-75,-117,-222,-117Z" 
id="f1_u"
transform="scale(0.001,-0.001)" />

<path d="M369,-17c0,0,-70,0,-131,26c0,0,-61,27,-91,68c0,0,-29,40,-41,99c0,0,-8,40,-8,125V792H232V353c0,0,0,-105,8,-142c0,0,13,-53,54,-83c0,0,41,-30,101,-30c0,0,61,0,114,31c0,0,53,31,75,84c0,0,22,53,22,155V792H740V0H621V116c0,0,-93,-133,-252,-133Z" 
id="f1_18"
transform="scale(0.001,-0.001)" />

<path d="M358,88c0,0,78,0,139,34c0,0,60,34,89,92c0,0,21,46,21,134l1,49c0,0,-73,-30,-221,-51c0,0,-83,-11,-117,-26c0,0,-35,-15,-54,-44c0,0,-18,-28,-18,-63c0,0,0,-54,40,-89c0,0,41,-36,120,-36ZM326,-17c0,0,-131,0,-201,63c0,0,-70,64,-70,163c0,0,0,58,26,106c0,0,27,48,70,77c0,0,43,29,97,44c0,0,39,11,119,20c0,0,163,20,240,47c0,0,1,27,1,35c0,0,0,81,-38,115c0,0,-52,45,-153,45c0,0,-95,0,-141,-33c0,0,-45,-33,-67,-116L78,566c0,0,18,84,59,136c0,0,41,52,119,80c0,0,78,28,180,28c0,0,102,0,165,-24c0,0,64,-24,94,-60c0,0,29,-36,41,-91c0,0,7,-35,7,-124V332c0,0,0,-187,9,-236c0,0,8,-50,33,-96H645c0,0,-20,42,-26,98C619,98,544,34,475,8c0,0,-70,-25,-149,-25Z" 
id="f1_r"
transform="scale(0.001,-0.001)" />

<path d="M590,-18c0,0,-177,0,-287,71c0,0,-111,72,-169,209c0,0,-58,137,-58,293c0,0,0,171,66,298c0,0,65,128,185,194c0,0,121,66,265,66c0,0,164,0,276,-84c0,0,112,-84,156,-235L881,760c0,0,-38,120,-110,174c0,0,-72,55,-182,55c0,0,-126,0,-210,-61c0,0,-85,-60,-119,-162c0,0,-34,-102,-34,-210c0,0,0,-139,40,-243c0,0,41,-104,127,-156c0,0,85,-51,185,-51c0,0,122,0,206,70c0,0,84,70,114,208l145,-37c0,0,-46,-178,-164,-272c0,0,-118,-93,-289,-93Z" 
id="f1_l"
transform="scale(0.001,-0.001)" />

<path d="M312,-10c0,0,-73,0,-114,22c0,0,-40,23,-56,61c0,0,-17,38,-17,159V687H26V792h99V988l134,81V792H394V687H259V224c0,0,0,-57,7,-74c0,0,7,-16,23,-26c0,0,16,-10,46,-10c0,0,23,0,59,6L414,1c0,0,-57,-11,-102,-11Z" 
id="f1_17"
transform="scale(0.001,-0.001)" />

<path d="M320,0L20,792H161L331,318c0,0,28,-77,51,-160c0,0,18,63,50,151L608,792H746L447,0Z" 
id="f1_19"
transform="scale(0.001,-0.001)" />

<path d="M101,0V792H220V681c0,0,37,58,99,93c0,0,62,36,141,36c0,0,88,0,145,-37c0,0,56,-36,79,-102c0,0,94,139,245,139c0,0,118,0,182,-66c0,0,63,-65,63,-201V0H1040V499c0,0,0,80,-13,116c0,0,-13,35,-47,57c0,0,-35,21,-81,21c0,0,-83,0,-139,-55c0,0,-55,-56,-55,-178V0H571V514c0,0,0,90,-33,135c0,0,-33,44,-107,44c0,0,-57,0,-105,-30c0,0,-48,-29,-70,-87c0,0,-21,-57,-21,-165V0Z" 
id="f1_11"
transform="scale(0.001,-0.001)" />

<path d="M684,450L570,752c0,0,-52,138,-78,227c0,0,-21,-105,-59,-209L313,450ZM-1,0L417,1093H574L1021,0H857L729,331H271L152,0Z" 
id="f1_j"
transform="scale(0.001,-0.001)" />

<path d="M433,93c0,0,88,0,152,76c0,0,64,77,64,228c0,0,0,155,-61,228c0,0,-62,74,-149,74c0,0,-89,0,-153,-76c0,0,-64,-77,-64,-221c0,0,0,-142,39,-206c0,0,63,-103,172,-103ZM444,-17c0,0,-140,0,-220,117V0H100V1093H234V703c0,0,85,107,217,107c0,0,73,0,139,-30c0,0,65,-29,107,-83c0,0,42,-53,66,-128c0,0,24,-75,24,-161c0,0,0,-204,-101,-315C686,93,585,-17,444,-17Z" 
id="f1_s"
transform="scale(0.001,-0.001)" />

<path d="M48,329V463H461V329Z" 
id="f1_5"
transform="scale(0.001,-0.001)" />

<path d="M535,-18c0,0,-149,0,-249,43c0,0,-100,43,-158,130c0,0,-57,87,-60,197l137,12c0,0,10,-83,45,-135c0,0,36,-53,110,-86c0,0,75,-32,168,-32c0,0,83,0,146,24c0,0,63,25,94,68c0,0,31,43,31,94c0,0,0,51,-30,90c0,0,-30,38,-98,64c0,0,-44,17,-195,54c0,0,-151,36,-211,68c0,0,-79,41,-117,102c0,0,-38,61,-38,136c0,0,0,83,47,155c0,0,47,72,137,109c0,0,90,38,200,38c0,0,122,0,215,-39c0,0,93,-40,143,-116c0,0,50,-76,54,-172L767,775c0,0,-11,104,-76,158c0,0,-64,53,-190,53c0,0,-132,0,-192,-49c0,0,-60,-48,-60,-116c0,0,0,-59,43,-97c0,0,42,-38,218,-78c0,0,176,-40,242,-70c0,0,96,-44,141,-111c0,0,46,-68,46,-156c0,0,0,-87,-50,-165C889,144,839,67,745,24c0,0,-93,-42,-210,-42Z" 
id="f1_p"
transform="scale(0.001,-0.001)" />

<path d="M494,385V878L152,385ZM494,0V262H20V385l498,708H628V385H775V262H628V0Z" 
id="f1_c"
transform="scale(0.001,-0.001)" />

<path d="M139,0V153H291V0Z" 
id="f1_6"
transform="scale(0.001,-0.001)" />

<path d="M420,92c0,0,92,0,155,89c0,0,64,89,64,358c0,0,0,270,-63,359c0,0,-63,89,-158,89c0,0,-92,0,-147,-79c0,0,-70,-100,-70,-369c0,0,0,-269,63,-358c0,0,63,-89,156,-89Zm0,-110c0,0,-158,0,-248,112C172,94,64,231,64,539c0,0,0,194,39,313c0,0,40,118,119,182c0,0,79,64,198,64c0,0,88,0,155,-35c0,0,66,-36,109,-103c0,0,43,-66,68,-162c0,0,24,-96,24,-259c0,0,0,-192,-39,-311C737,228,697,110,619,46c0,0,-79,-64,-199,-64Z" 
id="f1_8"
transform="scale(0.001,-0.001)" />

<path d="M143,0V1093H287V0Z" 
id="f1_m"
transform="scale(0.001,-0.001)" />

<path d="M111,0V1093H256V129H795V0Z" 
id="f1_n"
transform="scale(0.001,-0.001)" />

<path d="M433,93c0,0,90,0,154,75c0,0,63,76,63,235c0,0,0,151,-62,226c0,0,-62,75,-149,75c0,0,-85,0,-151,-80c0,0,-66,-80,-66,-233c0,0,0,-152,62,-225c0,0,62,-73,149,-73ZM101,-303V792H223V688c0,0,43,61,98,91c0,0,54,31,132,31c0,0,101,0,179,-53c0,0,77,-52,117,-147c0,0,39,-95,39,-208c0,0,0,-122,-44,-219C744,183,701,86,618,34c0,0,-84,-51,-175,-51c0,0,-67,0,-121,28c0,0,-53,28,-87,71V-303Z" 
id="f1_14"
transform="scale(0.001,-0.001)" />

<path d="M138,0V153H290V0Zm0,639V792H290V639Z" 
id="f1_i"
transform="scale(0.001,-0.001)" />

<path d="M0,-18L317,1113H425L108,-18Z" 
id="f1_7"
transform="scale(0.001,-0.001)" />

<path d="M404,111c0,0,93,0,155,72c0,0,63,71,63,223c0,0,0,145,-65,218c0,0,-64,74,-155,74c0,0,-89,0,-152,-72c0,0,-62,-73,-62,-216c0,0,0,-156,61,-227c0,0,62,-72,155,-72ZM390,-321c0,0,-142,0,-230,64c0,0,-87,64,-84,193L207,-84c0,0,8,-60,46,-88c0,0,49,-37,136,-37c0,0,93,0,144,37c0,0,50,37,68,104c0,0,11,41,10,172C611,104,523,0,392,0C392,0,229,0,139,118c0,0,-89,118,-89,282c0,0,0,114,41,209c0,0,41,96,119,148c0,0,77,53,183,53c0,0,140,0,231,-114v96H748V107c0,0,0,-184,-38,-261c0,0,-38,-77,-119,-122c0,0,-82,-45,-201,-45Z" 
id="f1_w"
transform="scale(0.001,-0.001)" />

<path d="M182,-321c0,0,-39,0,-87,17L80,-178c0,0,44,-12,77,-12c0,0,45,0,72,15c0,0,26,15,44,42c0,0,12,20,41,100c0,0,3,11,12,33L24,792H169L334,334c0,0,32,-87,58,-183c0,0,23,91,55,179L616,792H750L450,-13c0,0,-49,-130,-75,-179c0,0,-36,-67,-83,-98c0,0,-46,-31,-110,-31Z" 
id="f1_1b"
transform="scale(0.001,-0.001)" />

<path d="M576,610c0,0,99,0,155,21c0,0,56,20,85,65c0,0,29,45,29,98c0,0,0,78,-56,128c0,0,-56,50,-178,50H265V610ZM120,0V1093H605c0,0,147,0,223,-29c0,0,76,-30,121,-104c0,0,46,-75,46,-165c0,0,0,-117,-76,-197c0,0,-75,-80,-232,-101c0,0,57,-28,87,-55c0,0,63,-58,120,-145L1084,0H902L757,227c0,0,-63,98,-104,151c0,0,-41,52,-73,73c0,0,-33,21,-67,29c0,0,-24,5,-80,5H265V0Z" 
id="f1_o"
transform="scale(0.001,-0.001)" />

<path d="M529,129c0,0,70,0,99,5c0,0,50,9,83,30c0,0,34,21,56,61c0,0,21,40,21,92c0,0,0,61,-31,106c0,0,-32,45,-87,63c0,0,-56,19,-161,19H256V129ZM493,634c0,0,96,0,138,12c0,0,55,17,83,55c0,0,28,38,28,95c0,0,0,55,-26,96c0,0,-26,42,-74,57c0,0,-49,15,-167,15H256V634ZM111,0V1093H522c0,0,126,0,201,-33c0,0,76,-33,119,-102c0,0,43,-69,43,-144c0,0,0,-70,-38,-132c0,0,-38,-62,-115,-100c0,0,99,-29,153,-99c0,0,53,-71,53,-166c0,0,0,-77,-33,-143c0,0,-32,-66,-80,-102C825,72,777,37,705,18C705,18,633,0,529,0Z" 
id="f1_k"
transform="scale(0.001,-0.001)" />

<path d="M225,0c0,0,2,129,51,312c0,0,48,183,139,352c0,0,91,170,193,286H72v129H780V975C780,975,676,864,573,680C573,680,470,495,414,301C414,301,374,163,363,0Z" 
id="f1_f"
transform="scale(0.001,-0.001)" />

<path d="M102,706L67,910v183H220V910L184,706Z" 
id="f1_4"
transform="scale(0.001,-0.001)" />

<path d="M415,-18c0,0,-149,0,-244,83c0,0,-94,84,-107,222l140,11c0,0,16,-103,73,-154c0,0,56,-52,137,-52c0,0,98,0,165,73c0,0,66,73,66,194c0,0,0,115,-64,182c0,0,-64,66,-169,66c0,0,-65,0,-117,-29c0,0,-52,-30,-82,-77L87,517l106,562H736V951H300L241,657c0,0,99,69,207,69c0,0,143,0,242,-100c0,0,98,-99,98,-255c0,0,0,-149,-86,-257C702,114,597,-18,415,-18Z" 
id="f1_d"
transform="scale(0.001,-0.001)" />

<path d="M108,706L70,914v179H223V914L189,706Zm247,0L319,914v179H471V914L436,706Z" 
id="f1_3"
transform="scale(0.001,-0.001)" />

<path d="M435,0V856c0,0,-48,-47,-127,-93c0,0,-79,-46,-142,-69V824c0,0,113,52,197,128c0,0,85,75,120,146h86V0Z" 
id="f1_9"
transform="scale(0.001,-0.001)" />

<path d="M435,92c0,0,86,0,147,69c0,0,60,68,60,186c0,0,0,114,-60,179c0,0,-60,66,-152,66c0,0,-91,0,-154,-66c0,0,-64,-65,-64,-171c0,0,0,-70,30,-133c0,0,29,-64,82,-97c0,0,52,-33,111,-33Zm3,-110c0,0,-168,0,-274,123C164,105,58,228,58,512c0,0,0,317,117,461c0,0,102,125,275,125c0,0,129,0,212,-72c0,0,82,-72,99,-200L627,815c0,0,-18,79,-51,115c0,0,-54,58,-134,58c0,0,-64,0,-113,-36c0,0,-63,-46,-99,-135c0,0,-37,-89,-38,-253c0,0,48,74,118,110c0,0,70,36,147,36c0,0,135,0,229,-99c0,0,94,-99,94,-256c0,0,0,-103,-44,-191C736,164,691,75,614,28c0,0,-78,-46,-176,-46Z" 
id="f1_e"
transform="scale(0.001,-0.001)" />

<path d="M46,0c0,0,-2,48,16,93c0,0,27,74,88,146c0,0,61,71,176,165c0,0,178,146,241,232c0,0,63,85,63,161c0,0,0,80,-57,135c0,0,-58,55,-149,55c0,0,-98,0,-156,-59c0,0,-58,-58,-59,-160L71,782c0,0,15,154,107,235c0,0,93,81,249,81c0,0,157,0,249,-87c0,0,92,-88,92,-217c0,0,0,-65,-27,-129c0,0,-27,-63,-89,-133c0,0,-62,-70,-207,-193C445,339,324,238,290,202c0,0,-35,-36,-57,-73H770V0Z" 
id="f1_a"
transform="scale(0.001,-0.001)" />

<path d="M412,-18c0,0,-144,0,-239,85c0,0,-95,86,-108,222l133,18c0,0,24,-114,79,-164c0,0,55,-50,135,-50c0,0,96,0,161,65c0,0,65,66,65,163c0,0,0,92,-61,152c0,0,-60,60,-153,60c0,0,-38,0,-95,-15l15,119c0,0,13,-2,21,-2c0,0,86,0,155,45c0,0,69,44,69,137c0,0,0,74,-50,122c0,0,-50,49,-129,49c0,0,-79,0,-131,-50c0,0,-52,-49,-67,-147L78,815c0,0,25,135,112,209c0,0,87,74,217,74c0,0,89,0,164,-38c0,0,76,-39,116,-105c0,0,40,-66,40,-141c0,0,0,-70,-39,-129c0,0,-38,-58,-112,-92c0,0,97,-22,151,-93c0,0,53,-70,53,-176c0,0,0,-143,-104,-243c0,0,-105,-99,-264,-99Z" 
id="f1_b"
transform="scale(0.001,-0.001)" />

<path d="M423,92c0,0,97,0,159,62c0,0,62,62,62,157c0,0,0,97,-64,160c0,0,-64,64,-161,64c0,0,-96,0,-158,-63c0,0,-62,-62,-62,-156c0,0,0,-58,27,-111c0,0,27,-54,81,-84c0,0,54,-29,116,-29Zm0,552c0,0,78,0,127,49c0,0,49,49,49,120c0,0,0,74,-50,124c0,0,-51,51,-128,51c0,0,-77,0,-127,-50c0,0,-51,-49,-51,-118c0,0,0,-77,50,-126c0,0,50,-50,130,-50ZM422,-18c0,0,-162,0,-261,95c0,0,-99,96,-99,239c0,0,0,107,54,179c0,0,54,72,154,98c0,0,-84,31,-124,87c0,0,-40,57,-40,136c0,0,0,119,85,201c0,0,86,81,229,81c0,0,143,0,230,-83c0,0,87,-83,87,-203c0,0,0,-76,-40,-132c0,0,-39,-56,-121,-87c0,0,101,-33,154,-106c0,0,52,-73,52,-174c0,0,0,-141,-99,-236c0,0,-99,-95,-261,-95Z" 
id="f1_g"
transform="scale(0.001,-0.001)" />

<path d="M420,489c0,0,93,0,153,65c0,0,60,65,60,181c0,0,0,116,-62,184c0,0,-61,68,-148,68c0,0,-90,0,-156,-74c0,0,-66,-73,-66,-189c0,0,0,-105,63,-170c0,0,63,-65,156,-65ZM391,-18c0,0,-128,0,-209,71c0,0,-82,71,-98,200l129,12c0,0,17,-91,63,-132c0,0,46,-41,118,-41c0,0,62,0,109,28c0,0,47,29,76,76c0,0,30,47,50,128c0,0,20,80,20,164c0,0,0,9,-1,27c0,0,-40,-65,-110,-105c0,0,-69,-39,-151,-39c0,0,-135,0,-229,98c0,0,-94,99,-94,260c0,0,0,166,98,268c0,0,98,101,245,101c0,0,107,0,195,-57c0,0,89,-58,134,-164c0,0,46,-106,46,-308c0,0,0,-209,-45,-334C737,235,691,111,602,46c0,0,-90,-64,-211,-64Z" 
id="f1_h"
transform="scale(0.001,-0.001)" />


</defs>

<!-- Any embedded fonts defined here -->
<style type="text/css" ><![CDATA[

@font-face {
	font-family: ArialMT_a;
	src: url("fonts/ArialMT_a.woff") format("woff");
}

@font-face {
	font-family: Arial-Black_9;
	src: url("fonts/Arial-Black_9.woff") format("woff");
}

]]></style>

</svg>
