<?xml version="1.0" encoding="UTF-8" standalone="no"?>
<!DOCTYPE svg PUBLIC "-//W3C//DTD SVG 1.1//EN"
"http://www.w3.org/Graphics/SVG/1.1/DTD/svg11.dtd">


<!-- Page 1 -->
<svg x="0" y="0" viewBox="0 0 1870 1210" version="1.1" xmlns="http://www.w3.org/2000/svg" xmlns:xlink="http://www.w3.org/1999/xlink"
style="display: block;margin-left: auto;margin-right: auto;">
<defs>
<clipPath id="c0_1"><path d="M1705,1164.2v-39.8h98.3v39.8H1705Z" /></clipPath>
<clipPath id="c1_1"><path d="M1739.4,861.1h-22.9V791.3h22.9v69.8Z" /></clipPath>
<clipPath id="c2_1"><path d="M1715.7,582.1v-84h13.7v84h-13.7Z" /></clipPath>
<clipPath id="c3_1"><path d="M1716.5,750.9V703.7h13.7v47.2h-13.7Z" /></clipPath>
<clipPath id="c4_1"><path d="M1768.2,413V182.4h31.3V413Z" /></clipPath>
<clipPath id="c5_1"><path d="M1784.6,1100h-62.9V960.9h62.9V1100Z" /></clipPath>
<clipPath id="c6_1"><path d="M1719.3,408.6c-1.3,0,-2.5,-.2,-2.5,-2.2l.2,-86.6c0,-1.2,-.2,-2.3,2.4,-2.3l28.5,.1v91Z" /></clipPath>
<clipPath id="c7_1"><path d="M1731.4,403.4c-5.7,0,-10.4,-4.6,-10.4,-10.4c0,-5.7,4.7,-10.4,10.4,-10.4c5.8,0,10.4,4.7,10.4,10.4c0,5.8,-4.6,10.4,-10.4,10.4Z" /></clipPath>
<clipPath id="c8_1"><path d="M1731.6,399.5c-.1,0,-.1,-.1,-.2,-.1q-.1,0,-.2,0c-.9,0,-1.8,-.3,-2.5,-.9c-.7,-.7,-1.1,-1.6,-1,-2.5c-.1,-1.3,.6,-2.6,1.7,-3.2l.8,1.8c-.5,.1,-.9,.7,-.9,1.3c0,1,.7,1.5,2.1,1.5c1.4,0,2.1,-.5,2.1,-1.5c0,-.7,-.4,-1.3,-1,-1.5l.7,-1.6c1.2,.6,1.9,1.8,1.9,3.1c0,1,-.3,1.9,-1,2.6c-.7,.6,-1.6,1,-2.5,1Zm-.2,-6.8c-1,0,-1.9,-.3,-2.7,-1c-.8,-.8,-1.1,-1.9,-1,-3c.2,-1.1,.8,-2,1.7,-2.6l.8,1.6l.1,.1c-.6,.2,-1,.7,-1,1.3c0,1.1,.7,1.6,2.1,1.7c1.4,0,2.1,-.6,2.1,-1.7c.1,-.6,-.4,-1.3,-1,-1.5l.8,-1.5c1.1,.6,1.8,1.8,1.8,3c.1,1,-.3,1.9,-1,2.6c-.8,.7,-1.7,1,-2.7,1Zm0,9.9c5.4,0,9.7,-4.4,9.8,-9.8c0,-2.6,-1,-5.1,-2.9,-7c-1.8,-1.8,-4.2,-2.8,-6.6,-2.8c-.1,0,-.2,0,-.3,0c-2.6,0,-5.1,1.1,-6.9,2.9c-1.9,1.8,-2.9,4.3,-2.9,6.9c-.1,2.7,1,5.2,2.9,7.1v-.2c1.8,1.9,4.3,2.9,6.9,2.9Zm-.1,2.2c-3.1,0,-6.1,-1.3,-8.3,-3.5c-2.3,-2.2,-3.6,-5.3,-3.5,-8.4c0,-3.1,1.2,-6.2,3.5,-8.4v-.1c2.1,-2.2,5.1,-3.5,8.2,-3.5c.1,0,.2,0,.2,0c.1,0,.2,0,.3,0c3.1,0,6,1.3,8.1,3.5c2.3,2.2,3.6,5.3,3.6,8.5c-.1,6.6,-5.4,11.9,-12,11.9h-.1Z" /></clipPath>
<clipPath id="c9_1"><path d="M1739,408.2v-3.3c4.3,-2.3,7,-6.9,7,-11.8c0,-5,-2.7,-9.5,-7,-11.9V318.1h-20.8c-.5,0,-1,.4,-1,1v88.2c0,.5,.5,.9,1,.9Zm-20.8,.8c-1,0,-1.7,-.8,-1.7,-1.7V319.1c-.1,-.5,.1,-.9,.4,-1.3c.4,-.3,.8,-.5,1.3,-.5h29.9c.3,0,.4,.2,.4,.4v90.9c0,.2,-.1,.4,-.4,.4Z" /></clipPath>
<clipPath id="c10_1"><path d="M1745,344.2q-.1,0,-.1,0v-1.1c.2,0,.3,0,.4,-.1v.1c.1,-.1,.2,-.2,.3,-.3c.1,-.1,.1,-.2,.1,-.3c.1,-.2,.1,-.3,0,-.5c.1,-.1,.1,-.2,0,-.3c0,-.1,0,-.2,0,-.3c-.1,-.1,-.2,-.2,-.2,-.2c-.1,-.1,-.2,-.1,-.4,-.1c-.1,0,-.2,0,-.3,.1c-.1,.1,-.2,.2,-.2,.3c-.1,.2,-.1,.3,-.2,.5c0,.2,-.1,.4,-.1,.6c0,.1,-.1,.3,-.2,.5c0,.2,-.1,.3,-.2,.5c-.3,.3,-.6,.4,-1,.4h-.1c-.2,0,-.4,0,-.6,-.1c-.2,-.1,-.3,-.3,-.5,-.5c-.1,-.1,-.2,-.4,-.3,-.6c0,-.2,-.1,-.4,-.1,-.6c0,-.3,.1,-.6,.1,-.8c.1,-.2,.2,-.5,.3,-.7c.2,-.1,.3,-.3,.5,-.4c.2,-.1,.5,-.2,.7,-.2c0,0,.1,0,.1,0v1.1c-.2,0,-.3,.1,-.4,.1c-.1,.1,-.2,.1,-.2,.2c-.1,.1,-.1,.2,-.2,.3c0,.2,0,.3,0,.4c0,.1,0,.2,0,.3q.1,.1,.2,.2c0,.1,.1,.2,.1,.2q.1,0,.2,0c0,0,.1,0,.1,0q.1,0,.1,0q.1,0,.2,0c0,-.1,.1,-.1,.1,-.2c.1,-.2,.1,-.3,.2,-.5l.2,-.7c0,-.1,0,-.3,.1,-.4c0,-.2,.1,-.4,.2,-.6c.1,-.1,.3,-.3,.5,-.4c.2,-.1,.4,-.2,.6,-.2c0,0,.1,0,.1,0c.2,0,.4,.1,.6,.2c.2,.1,.4,.2,.5,.4c.2,.2,.3,.4,.4,.6c.1,.3,.1,.6,.1,.9c0,.3,0,.6,-.1,.9c-.1,.2,-.2,.4,-.3,.6c-.2,.2,-.4,.4,-.6,.5c-.2,.1,-.5,.2,-.7,.2Z" /></clipPath>
<clipPath id="c11_1"><path d="M1744.6,338v-1.3l-1.9,.7l1.9,.6Zm2,1.8l-5.1,-1.9v-1.2l5.1,-1.9V336l-1.2,.4v1.9l1.2,.4v1.1Z" /></clipPath>
<clipPath id="c12_1"><path d="M1743.6,364.4v-1.1c0,-.2,-.1,-.4,-.2,-.5c-.1,-.1,-.2,-.2,-.4,-.2q-.1,0,-.2,0c0,0,-.1,0,-.1,0c-.1,0,-.2,.1,-.2,.2q-.1,.1,-.1,.2c0,.1,0,.2,0,.3v1.1Zm2.1,.1v-1.3c0,-.1,0,-.2,0,-.3c-.1,-.1,-.1,-.2,-.1,-.2c-.1,-.1,-.2,-.2,-.2,-.2q-.1,0,-.2,0q-.1,0,-.2,0c-.2,0,-.4,0,-.5,.2c-.1,.2,-.2,.4,-.2,.6v1.2Zm-4.3,1l.1,-2.4c0,-.2,0,-.4,0,-.6c.1,-.2,.1,-.4,.2,-.5c.1,-.2,.3,-.3,.4,-.4c.2,0,.4,-.1,.6,-.1h.1c.2,0,.4,.1,.5,.2c.2,.1,.4,.3,.5,.5c0,-.3,.2,-.5,.4,-.7c.3,-.1,.5,-.2,.8,-.2c0,0,.1,0,.1,0c.2,0,.4,0,.6,.1c.2,.1,.3,.3,.5,.4c.1,.2,.2,.4,.2,.6c.1,.2,.1,.4,.1,.7v2.4Z" /></clipPath>
<clipPath id="c13_1"><path d="M1741.5,361.1v-1.3l2,-1.1l-2,-1.2v-1.3l3.1,1.9h1.9v1.1h-1.9l-3.1,1.9Z" /></clipPath>
<clipPath id="c14_1"><path d="M1727.9,346.9c-4.5,0,-8.1,-3.6,-8.1,-8.1c0,-4.4,3.6,-8.1,8.1,-8.1c4.5,0,8.1,3.7,8.1,8.1c0,4.5,-3.6,8.1,-8.1,8.1Z" /></clipPath>
<clipPath id="c15_1"><path d="M1728,346.2c.9,0,1.8,-.2,2.7,-.5c2.7,-1.2,4.5,-3.8,4.5,-6.8c0,-1.9,-.8,-3.8,-2.2,-5.1c-1.3,-1.4,-3.1,-2.1,-4.9,-2.1q-.1,0,-.2,0c-4,0,-7.3,3.2,-7.3,7.2h.1c-.1,2,.7,3.8,2.1,5.1c1.4,1.5,3.3,2.2,5.2,2.2Zm-.1,1.6c-2.3,0,-4.6,-1,-6.2,-2.6c-1.7,-1.7,-2.6,-3.9,-2.6,-6.3h-.1c0,-2.3,.9,-4.6,2.6,-6.3c1.6,-1.6,3.8,-2.5,6.2,-2.5h.1c0,0,.1,0,.2,0c2.2,0,4.4,.9,6,2.5c1.7,1.7,2.6,3.9,2.6,6.3c0,4.8,-3.9,8.8,-8.7,8.9c0,0,-.1,0,-.1,0Z" /></clipPath>
<clipPath id="c16_1"><path d="M1726.6,343.5v-.7c-2,-.2,-3.4,-1.9,-3.4,-3.9c0,-1.3,.5,-2.5,1.4,-3.4c.8,-.7,1.9,-1.2,3.1,-1.2c.1,0,.2,0,.3,0q.1,0,.2,0c1.1,0,2.3,.5,3.1,1.3c.9,.9,1.4,2.1,1.4,3.3c.1,2,-1.4,3.8,-3.4,3.9v-2.2c1.2,0,1.6,-.8,1.6,-1.9c0,-1.1,-1.2,-2.1,-3,-2.1c-1.7,0,-2.8,.7,-2.8,2c-.1,.5,0,1,.3,1.3c.3,.4,.7,.6,1.2,.7v-.7l1.7,1.8l-1.7,1.8Z" /></clipPath>
<clipPath id="c17_1"><path d="M1728.1,368.8c-4.5,0,-8.2,-3.7,-8.2,-8.2c0,-4.6,3.7,-8.2,8.2,-8.2c4.5,0,8.2,3.6,8.2,8.2c0,4.5,-3.7,8.2,-8.2,8.2Z" /></clipPath>
<clipPath id="c18_1"><path d="M1725.7,362.9c-.1,0,-.3,0,-.4,-.1c-.1,-.1,-.1,-.3,-.1,-.4v-3.6c0,-.4,.2,-.6,.5,-.6h3.7v1h4.2v2.7h-4.2v1h-3.7Z" /></clipPath>
<clipPath id="c19_1"><path d="M1723.4,361.8c-.7,0,-1.2,-.5,-1.2,-1.2c0,-.7,.5,-1.3,1.2,-1.3c.7,0,1.3,.6,1.3,1.3c0,.7,-.6,1.2,-1.3,1.2Z" /></clipPath>
<clipPath id="c20_1"><path d="M1727.9,367.8c4,0,7.2,-3.3,7.2,-7.3c.1,-1.9,-.7,-3.8,-2.1,-5.1c-1.3,-1.3,-3.1,-2.1,-4.9,-2.1q-.1,0,-.2,0c-4,0,-7.3,3.3,-7.3,7.3v-.1c0,2,.8,3.8,2.2,5.2c1.3,1.3,3.1,2.1,5.1,2.1Zm0,1.6c-2.3,0,-4.6,-.9,-6.2,-2.6c-1.7,-1.7,-2.6,-3.9,-2.6,-6.3v.1c0,-2.4,.9,-4.7,2.6,-6.3c1.6,-1.7,3.9,-2.6,6.2,-2.6c0,0,.1,0,.1,0q.1,0,.2,0c2.3,0,4.4,.9,6,2.5c1.7,1.7,2.7,4,2.6,6.3c0,4.9,-3.9,8.9,-8.8,8.9q-.1,0,-.1,0Z" /></clipPath>
<clipPath id="c21_1"><path d="M504.6,271.7V160.2h83.9v15.7h36.6V160.2H709V271.7Z" /></clipPath>
<clipPath id="c22_1"><path d="M588.5,175.9V160.2h36.6v15.7Z" /></clipPath>
<clipPath id="c23_1"><path d="M675.4,271.7V160.2h83.9v15.7h36.5V160.2h84V271.7Z" /></clipPath>
<clipPath id="c24_1"><path d="M759.3,175.9V160.2h36.5v15.7Z" /></clipPath>
<clipPath id="c25_1"><path d="M846.1,271.7V160.2H930v15.7h36.6V160.2h83.9V271.7Z" /></clipPath>
<clipPath id="c26_1"><path d="M930,175.9V160.2h36.6v15.7Z" /></clipPath>

<style type="text/css"><![CDATA[

.g0_1{
fill: none;
stroke: #000000;
stroke-width: 0.7638889;
stroke-linecap: butt;
stroke-linejoin: miter;
}
.g1_1{
fill: #A9B1AA;
}
.g2_1{
fill: #FFFFFF;
}
.g3_1{
}
.g4_1{
fill: none;
stroke: #000000;
stroke-width: 0.7638889;
stroke-linecap: round;
stroke-linejoin: round;
}
.g5_1{
fill: none;
stroke: #000000;
stroke-width: 0.38194445;
stroke-linecap: butt;
stroke-linejoin: miter;
}

.s1_1{
font-size: 27.50px;
font-family: Arial-Black_9;
fill: TRANSPARENT;
}
.s2_1{
font-size: 9.17px;
font-family: Arial-Black_9;
fill: TRANSPARENT;
}
.s3_1{
font-size: 9.17px;
font-family: ArialMT_a;
fill: TRANSPARENT;
}
.s4_1{
font-size: 27.50px;
font-family: ArialMT_a;
fill: TRANSPARENT;
}
.s5_1{
font-size: 13.75px;
font-family: ArialMT_a;
fill: TRANSPARENT;
}
text::-moz-selection {
	color: transparent;
	background: rgba(0, 106, 173, 0.4);
}
text::selection {
	color: transparent;
	background: rgba(0, 106, 173, 0.4);
}

]]></style>

</defs>
<path d="M0,0
L0,1210
L1870,1210
L1870,0 Z " 
fill="#FFFFFF" stroke="none" />
<path d="M82.5,55H1691.3V1155H82.5V55ZM1705,1113.8h96.3" class="g0_1" />
<g clip-path="url(#c0_1)">
<g fill="#000000" >
<use xlink:href="#f0_8" transform="matrix(18,0,0,18,1708.8,1155)" />
<use xlink:href="#f0_3" transform="matrix(18,0,0,18,1730.7,1155)" />
<use xlink:href="#f0_4" transform="matrix(18,0,0,18,1739.8,1155)" />
<use xlink:href="#f0_5" transform="matrix(18,0,0,18,1758.2,1155)" />
<use xlink:href="#f0_7" transform="matrix(18,0,0,18,1776.5,1155)" />
</g>
</g>
<g clip-path="url(#c1_1)">
<g fill="#000000" >
<use xlink:href="#f0_b" transform="matrix(0,-6,6,0,1727.2,857.2)" />
</g>
</g>

<g clip-path="url(#c1_1)">
<g fill="#000000" >
<use xlink:href="#f0_f" transform="matrix(0,-6,6,0,1727.2,853.7)" />
<use xlink:href="#f0_f" transform="matrix(0,-6,6,0,1727.2,847.1)" />
<use xlink:href="#f0_h" transform="matrix(0,-6,6,0,1727.2,840.4)" />
<use xlink:href="#f0_a" transform="matrix(0,-6,6,0,1727.2,832.8)" />
<use xlink:href="#f0_9" transform="matrix(0,-6,6,0,1727.2,823.1)" />
<use xlink:href="#f0_6" transform="matrix(0,-6,6,0,1727.2,816.4)" />
<use xlink:href="#f0_g" transform="matrix(0,-6,6,0,1727.2,809.9)" />
<use xlink:href="#f0_a" transform="matrix(0,-6,6,0,1727.2,803.3)" />
</g>
</g>
<g clip-path="url(#c2_1)">
<g fill="#000000" >
<use xlink:href="#f0_f" transform="matrix(0,-6,6,0,1726.4,578.3)" />
</g>
</g>

<g clip-path="url(#c2_1)">
<g fill="#000000" >
<use xlink:href="#f0_b" transform="matrix(0,-6,6,0,1726.4,571.6)" />
<use xlink:href="#f0_g" transform="matrix(0,-6,6,0,1726.4,568.1)" />
<use xlink:href="#f0_a" transform="matrix(0,-6,6,0,1726.4,561.5)" />
<use xlink:href="#f0_6" transform="matrix(0,-6,6,0,1726.4,551.8)" />
<use xlink:href="#f0_9" transform="matrix(0,-6,6,0,1726.4,544.6)" />
<use xlink:href="#f0_9" transform="matrix(0,-6,6,0,1726.4,537.5)" />
<use xlink:href="#f0_e" transform="matrix(0,-6,6,0,1726.4,530.4)" />
<use xlink:href="#f0_a" transform="matrix(0,-6,6,0,1726.4,523.2)" />
<use xlink:href="#f0_f" transform="matrix(0,-6,6,0,1726.4,516.6)" />
<use xlink:href="#f0_f" transform="matrix(0,-6,6,0,1726.4,510)" />
</g>
</g>
<g clip-path="url(#c3_1)">
<g fill="#000000" >
<use xlink:href="#f0_d" transform="matrix(0,-6,6,0,1727.2,747.1)" />
</g>
</g>

<g clip-path="url(#c3_1)">
<g fill="#000000" >
<use xlink:href="#f0_i" transform="matrix(0,-6,6,0,1727.2,739.6)" />
<use xlink:href="#f0_c" transform="matrix(0,-6,6,0,1727.2,730.4)" />
<use xlink:href="#f0_a" transform="matrix(0,-6,6,0,1727.2,722.8)" />
<use xlink:href="#f0_e" transform="matrix(0,-6,6,0,1727.2,716.2)" />
</g>
</g>
<g clip-path="url(#c4_1)">
<g fill="#000000" >
<use xlink:href="#f1_h" transform="matrix(0,-6,6,0,1775.9,409.2)" />
</g>
</g>

<g clip-path="url(#c4_1)">
<g fill="#000000" >
<use xlink:href="#f1_o" transform="matrix(0,-6,6,0,1775.9,403.6)" />
<use xlink:href="#f1_p" transform="matrix(0,-6,6,0,1775.9,398.5)" />
<use xlink:href="#f1_x" transform="matrix(0,-6,6,0,1775.9,396.5)" />
<use xlink:href="#f1_11" transform="matrix(0,-6,6,0,1775.9,389.3)" />
<use xlink:href="#f1_u" transform="matrix(0,-6,6,0,1775.9,382.7)" />
<use xlink:href="#f1_w" transform="matrix(0,-6,6,0,1775.9,377.6)" />
<use xlink:href="#f1_q" transform="matrix(0,-6,6,0,1775.9,374.6)" />
<use xlink:href="#f1_p" transform="matrix(0,-6,6,0,1775.9,367.4)" />
<use xlink:href="#f1_x" transform="matrix(0,-6,6,0,1775.9,365.4)" />
<use xlink:href="#f1_r" transform="matrix(0,-6,6,0,1775.9,358.3)" />
<use xlink:href="#f1_p" transform="matrix(0,-6,6,0,1775.9,356.2)" />
<use xlink:href="#f1_k" transform="matrix(0,-6,6,0,1775.9,354.2)" />
<use xlink:href="#f1_m" transform="matrix(0,-6,6,0,1775.9,349.6)" />
<use xlink:href="#f1_t" transform="matrix(0,-6,6,0,1775.9,344.5)" />
<use xlink:href="#f1_x" transform="matrix(0,-6,6,0,1775.9,339.4)" />
<use xlink:href="#f1_m" transform="matrix(0,-6,6,0,1775.9,334.8)" />
<use xlink:href="#f1_l" transform="matrix(0,-6,6,0,1775.9,329.7)" />
<use xlink:href="#f1_z" transform="matrix(0,-6,6,0,1775.9,322.1)" />
<use xlink:href="#f1_t" transform="matrix(0,-6,6,0,1775.9,317)" />
<use xlink:href="#f1_l" transform="matrix(0,-6,6,0,1775.9,311.9)" />
<use xlink:href="#f1_m" transform="matrix(0,-6,6,0,1775.9,306.8)" />
<use xlink:href="#f1_w" transform="matrix(0,-6,6,0,1775.9,301.7)" />
<use xlink:href="#f1_i" transform="matrix(0,-6,6,0,1775.9,296.1)" />
<use xlink:href="#f1_c" transform="matrix(0,-6,6,0,1775.9,288.5)" />
<use xlink:href="#f1_w" transform="matrix(0,-6,6,0,1775.9,281.8)" />
<use xlink:href="#f1_m" transform="matrix(0,-6,6,0,1775.9,278.8)" />
<use xlink:href="#f1_i" transform="matrix(0,-6,6,0,1775.9,273.7)" />
<use xlink:href="#f1_y" transform="matrix(0,-6,6,0,1775.9,268.6)" />
<use xlink:href="#f1_p" transform="matrix(0,-6,6,0,1775.9,266)" />
<use xlink:href="#f1_10" transform="matrix(0,-6,6,0,1775.9,264)" />
<use xlink:href="#f1_m" transform="matrix(0,-6,6,0,1775.9,259.4)" />
<use xlink:href="#f1_c" transform="matrix(0,-6,6,0,1775.9,251.8)" />
<use xlink:href="#f1_u" transform="matrix(0,-6,6,0,1775.9,245.2)" />
<use xlink:href="#f1_s" transform="matrix(0,-6,6,0,1775.9,240.1)" />
<use xlink:href="#f1_s" transform="matrix(0,-6,6,0,1775.9,232.4)" />
<use xlink:href="#f1_u" transform="matrix(0,-6,6,0,1775.9,224.8)" />
<use xlink:href="#f1_t" transform="matrix(0,-6,6,0,1775.9,219.7)" />
<use xlink:href="#f1_x" transform="matrix(0,-6,6,0,1775.9,214.6)" />
<use xlink:href="#f1_b" transform="matrix(0,-6,6,0,1785.3,409.2)" />
</g>
</g>

<g clip-path="url(#c4_1)">
<g fill="#000000" >
<use xlink:href="#f1_y" transform="matrix(0,-6,6,0,1785.3,403.1)" />
<use xlink:href="#f1_y" transform="matrix(0,-6,6,0,1785.3,400.5)" />
<use xlink:href="#f1_w" transform="matrix(0,-6,6,0,1785.3,398)" />
<use xlink:href="#f1_p" transform="matrix(0,-6,6,0,1785.3,394.9)" />
<use xlink:href="#f1_j" transform="matrix(0,-6,6,0,1785.3,392.9)" />
<use xlink:href="#f1_z" transform="matrix(0,-6,6,0,1785.3,387.8)" />
<use xlink:href="#f1_y" transform="matrix(0,-6,6,0,1785.3,382.7)" />
<use xlink:href="#f1_p" transform="matrix(0,-6,6,0,1785.3,380.2)" />
<use xlink:href="#f1_u" transform="matrix(0,-6,6,0,1785.3,378.1)" />
<use xlink:href="#f1_t" transform="matrix(0,-6,6,0,1785.3,373)" />
<use xlink:href="#f1_5" transform="matrix(0,-6,6,0,1785.3,367.9)" />
<use xlink:href="#f1_g" transform="matrix(0,-6,6,0,1785.3,362.3)" />
<use xlink:href="#f1_o" transform="matrix(0,-6,6,0,1785.3,356.2)" />
<use xlink:href="#f1_i" transform="matrix(0,-6,6,0,1785.3,351.1)" />
<use xlink:href="#f1_w" transform="matrix(0,-6,6,0,1785.3,346)" />
<use xlink:href="#f1_m" transform="matrix(0,-6,6,0,1785.3,343)" />
<use xlink:href="#f1_b" transform="matrix(0,-6,6,0,1785.3,337.9)" />
<use xlink:href="#f1_r" transform="matrix(0,-6,6,0,1785.3,331.8)" />
<use xlink:href="#f1_p" transform="matrix(0,-6,6,0,1785.3,329.7)" />
<use xlink:href="#f1_q" transform="matrix(0,-6,6,0,1785.3,327.7)" />
<use xlink:href="#f1_m" transform="matrix(0,-6,6,0,1785.3,323.1)" />
<use xlink:href="#f1_9" transform="matrix(0,-6,6,0,1785.3,315.5)" />
<use xlink:href="#f1_6" transform="matrix(0,-6,6,0,1785.3,310.4)" />
<use xlink:href="#f1_8" transform="matrix(0,-6,6,0,1785.3,307.8)" />
<use xlink:href="#f1_d" transform="matrix(0,-6,6,0,1785.3,300.2)" />
<use xlink:href="#f1_t" transform="matrix(0,-6,6,0,1785.3,297.6)" />
<use xlink:href="#f1_y" transform="matrix(0,-6,6,0,1785.3,292.5)" />
<use xlink:href="#f1_m" transform="matrix(0,-6,6,0,1785.3,290)" />
<use xlink:href="#f1_w" transform="matrix(0,-6,6,0,1785.3,284.9)" />
<use xlink:href="#f1_t" transform="matrix(0,-6,6,0,1785.3,281.8)" />
<use xlink:href="#f1_i" transform="matrix(0,-6,6,0,1785.3,276.7)" />
<use xlink:href="#f1_y" transform="matrix(0,-6,6,0,1785.3,271.6)" />
<use xlink:href="#f1_p" transform="matrix(0,-6,6,0,1785.3,269.1)" />
<use xlink:href="#f1_u" transform="matrix(0,-6,6,0,1785.3,267)" />
<use xlink:href="#f1_t" transform="matrix(0,-6,6,0,1785.3,261.9)" />
<use xlink:href="#f1_i" transform="matrix(0,-6,6,0,1785.3,256.8)" />
<use xlink:href="#f1_r" transform="matrix(0,-6,6,0,1785.3,251.7)" />
<use xlink:href="#f1_e" transform="matrix(0,-6,6,0,1785.3,247.2)" />
<use xlink:href="#f1_p" transform="matrix(0,-6,6,0,1785.3,242.1)" />
<use xlink:href="#f1_k" transform="matrix(0,-6,6,0,1785.3,240)" />
<use xlink:href="#f1_m" transform="matrix(0,-6,6,0,1785.3,235.4)" />
<use xlink:href="#f1_t" transform="matrix(0,-6,6,0,1785.3,230.3)" />
<use xlink:href="#f1_x" transform="matrix(0,-6,6,0,1785.3,225.2)" />
<use xlink:href="#f1_m" transform="matrix(0,-6,6,0,1785.3,220.7)" />
<use xlink:href="#f1_o" transform="matrix(0,-6,6,0,1794.8,409.2)" />
</g>
</g>

<g clip-path="url(#c4_1)">
<g fill="#000000" >
<use xlink:href="#f1_y" transform="matrix(0,-6,6,0,1794.8,404.1)" />
<use xlink:href="#f1_y" transform="matrix(0,-6,6,0,1794.8,401.6)" />
<use xlink:href="#f1_v" transform="matrix(0,-6,6,0,1794.8,399)" />
<use xlink:href="#f1_a" transform="matrix(0,-6,6,0,1794.8,393.9)" />
<use xlink:href="#f1_7" transform="matrix(0,-6,6,0,1794.8,391.4)" />
<use xlink:href="#f1_7" transform="matrix(0,-6,6,0,1794.8,388.8)" />
<use xlink:href="#f1_k" transform="matrix(0,-6,6,0,1794.8,386.3)" />
<use xlink:href="#f1_w" transform="matrix(0,-6,6,0,1794.8,381.7)" />
<use xlink:href="#f1_m" transform="matrix(0,-6,6,0,1794.8,378.6)" />
<use xlink:href="#f1_i" transform="matrix(0,-6,6,0,1794.8,373.5)" />
<use xlink:href="#f1_y" transform="matrix(0,-6,6,0,1794.8,368.4)" />
<use xlink:href="#f1_p" transform="matrix(0,-6,6,0,1794.8,365.9)" />
<use xlink:href="#f1_10" transform="matrix(0,-6,6,0,1794.8,363.9)" />
<use xlink:href="#f1_m" transform="matrix(0,-6,6,0,1794.8,359.3)" />
<use xlink:href="#f1_k" transform="matrix(0,-6,6,0,1794.8,354.2)" />
<use xlink:href="#f1_u" transform="matrix(0,-6,6,0,1794.8,349.6)" />
<use xlink:href="#f1_s" transform="matrix(0,-6,6,0,1794.8,344.5)" />
<use xlink:href="#f1_s" transform="matrix(0,-6,6,0,1794.8,336.9)" />
<use xlink:href="#f1_u" transform="matrix(0,-6,6,0,1794.8,329.2)" />
<use xlink:href="#f1_t" transform="matrix(0,-6,6,0,1794.8,324.1)" />
<use xlink:href="#f1_x" transform="matrix(0,-6,6,0,1794.8,319)" />
<use xlink:href="#f1_6" transform="matrix(0,-6,6,0,1794.8,314.4)" />
<use xlink:href="#f1_u" transform="matrix(0,-6,6,0,1794.8,311.9)" />
<use xlink:href="#f1_w" transform="matrix(0,-6,6,0,1794.8,306.8)" />
<use xlink:href="#f1_n" transform="matrix(0,-6,6,0,1794.8,303.7)" />
<use xlink:href="#f1_7" transform="matrix(0,-6,6,0,1794.8,298.7)" />
<use xlink:href="#f1_r" transform="matrix(0,-6,6,0,1794.8,296.1)" />
<use xlink:href="#f1_p" transform="matrix(0,-6,6,0,1794.8,294.1)" />
<use xlink:href="#f1_k" transform="matrix(0,-6,6,0,1794.8,292)" />
<use xlink:href="#f1_m" transform="matrix(0,-6,6,0,1794.8,287.4)" />
<use xlink:href="#f1_t" transform="matrix(0,-6,6,0,1794.8,282.3)" />
<use xlink:href="#f1_x" transform="matrix(0,-6,6,0,1794.8,277.3)" />
<use xlink:href="#f1_m" transform="matrix(0,-6,6,0,1794.8,272.7)" />
<use xlink:href="#f1_x" transform="matrix(0,-6,6,0,1794.8,267.6)" />
<use xlink:href="#f1_7" transform="matrix(0,-6,6,0,1794.8,263)" />
<use xlink:href="#f1_j" transform="matrix(0,-6,6,0,1794.8,260.4)" />
<use xlink:href="#f1_12" transform="matrix(0,-6,6,0,1794.8,255.3)" />
<use xlink:href="#f1_5" transform="matrix(0,-6,6,0,1794.8,250.8)" />
<use xlink:href="#f1_x" transform="matrix(0,-6,6,0,1794.8,247.7)" />
<use xlink:href="#f1_i" transform="matrix(0,-6,6,0,1794.8,243.1)" />
<use xlink:href="#f1_7" transform="matrix(0,-6,6,0,1794.8,238)" />
<use xlink:href="#f1_9" transform="matrix(0,-6,6,0,1794.8,235.5)" />
<use xlink:href="#f1_6" transform="matrix(0,-6,6,0,1794.8,230.4)" />
<use xlink:href="#f1_8" transform="matrix(0,-6,6,0,1794.8,227.8)" />
<use xlink:href="#f1_7" transform="matrix(0,-6,6,0,1794.8,222.7)" />
</g>
</g>
<g clip-path="url(#c5_1)">
<g fill="#000000" >
<use xlink:href="#f1_c" transform="matrix(0,-18,18,0,1746.1,1096.2)" />
</g>
</g>

<g clip-path="url(#c5_1)">
<g fill="#000000" >
<use xlink:href="#f1_u" transform="matrix(0,-18,18,0,1746.1,1076.3)" />
<use xlink:href="#f1_r" transform="matrix(0,-18,18,0,1746.1,1061)" />
<use xlink:href="#f1_r" transform="matrix(0,-18,18,0,1746.1,1054.9)" />
<use xlink:href="#f1_i" transform="matrix(0,-18,18,0,1746.1,1048.8)" />
<use xlink:href="#f1_w" transform="matrix(0,-18,18,0,1746.1,1033.5)" />
<use xlink:href="#f1_h" transform="matrix(0,-18,18,0,1746.1,1017.2)" />
<use xlink:href="#f1_p" transform="matrix(0,-18,18,0,1746.1,1001.4)" />
<use xlink:href="#f1_m" transform="matrix(0,-18,18,0,1746.1,995.3)" />
<use xlink:href="#f1_x" transform="matrix(0,-18,18,0,1746.1,980)" />
<use xlink:href="#f1_f" transform="matrix(0,-18,18,0,1777.6,1096.2)" />
</g>
</g>

<g clip-path="url(#c5_1)">
<g fill="#000000" >
<use xlink:href="#f1_u" transform="matrix(0,-18,18,0,1777.6,1076.3)" />
<use xlink:href="#f1_w" transform="matrix(0,-18,18,0,1777.6,1061)" />
<use xlink:href="#f1_y" transform="matrix(0,-18,18,0,1777.6,1051.9)" />
<use xlink:href="#f1_o" transform="matrix(0,-18,18,0,1777.6,1044.2)" />
</g>
</g>

<g clip-path="url(#c6_1)">
<path d="M1716.7,408.6h31.4V317.5h-31.4v91.1Z" class="g1_1" />
</g>
<g clip-path="url(#c7_1)">
<path d="M1720.9,403.5h20.9V382.6h-20.9v20.9Z" class="g2_1" />
</g>
<g clip-path="url(#c8_1)">
<path d="M1719.5,404.9h24v-24h-24v24Z" class="g3_1" />
</g>
<g clip-path="url(#c9_1)">
<path d="M1716.4,409.1h32.2V317.3h-32.2v91.8Z" class="g3_1" />
</g>
<g clip-path="url(#c10_1)">
<path d="M1741.3,344.2h5.5v-4.4h-5.5v4.4Z" class="g2_1" />
</g>
<g clip-path="url(#c11_1)">
<path d="M1741.5,339.8h5.1v-5.1h-5.1v5.1Z" class="g2_1" />
</g>
<g clip-path="url(#c12_1)">
<path d="M1741.3,365.7h5.3v-4.6h-5.3v4.6Z" class="g2_1" />
</g>
<g clip-path="url(#c13_1)">
<path d="M1741.5,361.1h5.1v-4.9h-5.1v4.9Z" class="g2_1" />
</g>
<g clip-path="url(#c14_1)">
<path d="M1719.7,347h16.5V330.7h-16.5V347Z" class="g2_1" />
</g>
<g clip-path="url(#c15_1)">
<path d="M1718.9,347.9h17.8v-18h-17.8v18Z" class="g3_1" />
</g>
<g clip-path="url(#c16_1)">
<path d="M1723.1,343.5h9.8v-9.3h-9.8v9.3Z" class="g3_1" />
</g>
<g clip-path="url(#c17_1)">
<path d="M1719.8,368.8h16.5V352.3h-16.5v16.5Z" class="g2_1" />
</g>
<g clip-path="url(#c18_1)">
<path d="M1725.2,362.9h8.6v-4.7h-8.6v4.7Z" class="g3_1" />
</g>
<g clip-path="url(#c19_1)">
<path d="M1722,361.8h2.8v-2.5H1722v2.5Z" class="g3_1" />
</g>
<g clip-path="url(#c20_1)">
<path d="M1719.1,369.5h17.8V351.6h-17.8v17.9Z" class="g3_1" />
</g>
    <g id="Artboard" stroke="none" stroke-width="1" fill="none" fill-rule="evenodd">
        <g id="Clipped" transform="translate(1705.000000, 55.000000)">
            <mask id="mask-2wb" fill="white">
                        <path d="M15.8,61.2 C20.5,61.2 24.9,56.7 26,50.4 C26.3,48.6 26.3,46.9 26.1,45.3 C28.5,47.9 31.9,49.4 34.8,49.4 C35.3,49.4 35.8,49.4 36.2,49.3 C41.1,48.5 45.3,41.8 44.3,35.1 C46.3,38.4 49.6,40.3 52.8,40.3 C53.2,40.3 53.7,40.3 54.1,40.2 C58.9,39.3 62.4,31.5 61.2,24.7 C60.8,22.9 60.2,21.4 59.4,20.1 C59.6,20.6 59.7,21.2 59.8,21.8 C61,28.6 57.9,36.3 53.3,37.1 C53,37.2 52.6,37.2 52.2,37.2 C48.4,37.2 44.4,34.2 42.8,29.2 C42.6,29.4 42.5,29.5 42.3,29.6 C42.3,29.8 42.3,29.9 42.4,30 C42.3,29.9 42.2,29.8 42.2,29.7 C42.1,29.8 42.1,29.8 42,29.9 C42.3,30.8 42.6,31.7 42.8,32.7 C44,39.5 40.2,46.3 35.7,47.1 C35.3,47.2 34.9,47.2 34.5,47.2 C30.8,47.2 26.2,44.3 24.2,39.6 C25.1,42 25.4,45 24.9,48.1 C23.7,54.4 19.7,59 15.4,59 C15.1,59 14.8,59 14.5,59 C11.9,58.5 10,56.4 8.9,53.4 C8.5,53.3 8.1,53.1 7.7,52.8 C7.6,52.8 7.6,52.8 7.6,52.8 C8.4,57.1 11,60.5 14.6,61.1 C15,61.2 15.4,61.2 15.8,61.2 Z M85.5,23.3 C88.5,23.3 91,20.8 91,17.9 C91,14.9 88.5,12.4 85.5,12.4 C82.6,12.4 80.1,14.9 80.1,17.9 C80.1,20.8 82.6,23.3 85.5,23.3 Z M33,84 C32.6,84 32.2,84 31.8,83.9 C28,83 25.8,78.5 26,73.2 C22.1,71.9 18.8,69.8 16.3,66.8 C16,66.4 15.7,66 15.4,65.7 C13.8,68.7 11.3,70.7 8.6,70.7 C8.5,70.7 8.4,70.7 8.3,70.6 C3.7,70.4 0.2,64.6 0.6,57.7 C0.8,53.4 2.5,49.7 4.8,47.6 C4.5,44.6 5.4,41 7.5,37.8 C9.3,34.9 11.8,32.8 14.2,31.7 C14.6,29.2 15.9,26.4 18,23.9 C20.7,20.7 24.1,18.7 27.2,18.3 C27.4,17.7 27.7,17.1 28.1,16.5 C30.6,12.2 35.4,9.8 39.3,9.6 C40.7,8.7 42.1,7.9 43.4,7.2 C44,6.5 44.6,5.9 45.3,5.3 C48.3,2.8 52.1,1.5 55.3,1.5 C56.1,1.5 56.8,1.6 57.5,1.7 C60.8,1 64,0.6 67,0.6 C69.8,0.6 72.4,0.9 74.9,1.6 C75.2,1.6 75.5,1.5 75.9,1.5 C82.3,1.5 88.9,4.2 92.5,10.5 C97.3,18.7 96.4,30.6 91.5,37.3 C91.9,38.2 92.2,39.2 92.3,40.2 C93.5,47 90.4,54.8 85.9,55.6 C85.5,55.6 85.1,55.7 84.7,55.7 C82.3,55.7 79.9,54.5 78,52.4 C77.7,52.8 77.3,53.2 77,53.6 C77,53.8 77.1,54 77.1,54.2 C78.3,61 74.5,67.8 70,68.6 C69.6,68.6 69.3,68.7 68.9,68.7 C66.7,68.7 64.5,67.5 62.8,65.6 C62,66 61.3,66.5 60.5,66.9 C60.5,67 60.5,67.1 60.5,67.2 C59.4,73.5 55.3,78.1 51.1,78.1 C50.7,78.1 50.4,78.1 50.1,78.1 C47.8,77.7 46,75.9 44.9,73.3 C44.1,73.5 43.4,73.7 42.7,73.8 C41.2,79.8 37.1,84 33.1,84 L33,84 Z" id="path-1wb"></path>
            </mask>
            <g id="Shape"></g>
            <polygon id="Shape" fill="#000000" fill-rule="nonzero" mask="url(#mask-2wb)" points="0 84.6 96.2 84.6 96.2 0 0 0"></polygon>
        </g>
    </g>
<path d="M1215.1,584.8h-5.3m-458,0h-5.4m62.3,0h-5.3m62.2,0h-5.3m62.2,0h-5.3m62.2,0h-5.3m62.3,0H1031m62.3,0h-5.4m62.3,0h-5.3m127.1,0h-5.3m-105.8,0h-5.4m-460.7,0h-5.3m-51.6,0h-5.3m-51.6,0h-5.3m-48.9,0h-5.4m-51.6,0h-5.3M1209.8,388h-48.9m48.9,-40.3h-48.9M1209.8,549h-48.9m48.9,-80.5h-48.9m48.9,40.2h-48.9m48.9,-80.5h-48.9m48.9,-120.7h-48.9M575.7,388H526.8m-5.4,-40.3H469.8M521.4,549H469.8m51.6,-80.5H469.8m51.6,40.2H469.8m51.6,-80.5H469.8M521.4,307.5H469.8M1266.7,388h-51.6m51.6,-40.3h-51.6M1266.7,549h-51.6m51.6,-80.5h-51.6m51.6,40.2h-51.6m51.6,-80.5h-51.6m51.6,-120.7h-51.6M521.4,388H469.8M575.7,347.7H526.8M575.7,549H526.8m48.9,-80.5H526.8m48.9,40.2H526.8m48.9,-80.5H526.8M575.7,307.5H526.8m683,80.5h5.3m-5.3,-40.3h5.3m-5.3,120.8h5.3m-5.3,-40.3h5.3m-5.3,-120.7h5.3m-693.7,246v-.7m18.2,400.5V937.2h-.4m-12.4,0h-.4m12.8,0v-.8m7.9,18.6v-1.7m-20.7,0V937.2m12.8,16.1V937.2m-12.4,16.1V937.2m20.1,16.1h.2m-13.2,0h3.6m-7.3,0h3.7M518.7,955v-1.7m691.4,0V937.2M1197,953.3V937.2m13.1,0h-.3m0,16.1V937.2m-12.8,0h.3m0,16.1V937.2m12.5,0v-.8m7.9,18.6v-1.7m-.2,0h.2m-13.2,0h3.6m-7.3,0h3.7m-15.2,1.7v-1.7m-677.7,3.5v60.5m0,-60.5h42.7m627.9,0h42.7m-670.6,0v60.5m670.6,-60.5v60.5m-42.7,-60.5v60.5m-14.2,49.8h71.1m-10.4,-49.8h-3.8m-42.7,0H1168m60.7,0h10.4m-71.1,49.8v-49.8m71.1,49.8v-49.8M533,1067.1h35.6m-71.2,0H533m25.1,-49.8h10.5m-10.5,0h-3.8m-42.7,0H497.4m71.2,49.8v-49.8m-71.2,49.8v-49.8m72.9,-56.9h37.4m-37.4,-3.6v3.6m37.4,-3.6v3.6m113.8,0H684.2m37.3,-3.6v3.6m-37.3,-3.6v3.6M798,956.8v3.6m37.4,-3.6v3.6m76.5,0h37.3m-37.3,-3.6v3.6m37.3,-3.6v3.6m113.8,0h-37.3m0,-3.6v3.6m37.3,-3.6v3.6m113.9,0h-37.4m0,-3.6v3.6m37.4,-3.6v3.6m-94.3,0H1120m-37.4,-3.6v3.6m37.4,-3.6v3.6m-113.9,0H968.8m0,-3.6v3.6m37.3,-3.6v3.6m-113.8,0H854.9m0,-3.6v3.6m37.4,-3.6v3.6m-113.9,0H741.1m0,-3.6v3.6m37.3,-3.6v3.6m-113.8,0H627.3m0,-3.6v3.6m37.3,-3.6v3.6M472.1,956.8V955m0,1.8h39.5m665.3,0h5.3m42.7,0h39.6V955m-429.2,5.4v-3.6M539.2,936.4h20.5m37.3,0h19.6m37.3,0h19.6m37.4,0h19.5m37.4,0h19.5m37.4,0h19.6m37.3,0h19.6m37.3,0h19.6m37.4,0H1015m37.4,0h19.5m37.4,0h19.6M1039,395v12.5M1036.4,395h2.6m-2.6,12.5h2.6M868.3,395v12.5M865.6,395h2.7m-2.7,12.5h2.7M697.5,395v12.5M694.8,395h2.7m-2.7,12.5h2.7m569.2,-28.3h-46.2m-17.8,0h-41.8m105.8,-40.3h-46.2m-17.8,0h-41.8m105.8,201.3h-46.2m-17.8,0h-41.8m105.8,-80.5h-46.2m-17.8,0h-41.8m105.8,40.2h-46.2m-17.8,0h-41.8m105.8,-80.5h-46.2m-17.8,0h-41.8M1266.7,388v3.8m0,-12.6V388m-105.8,-8.8V388m105.8,-40.3v3.8m0,-12.6v8.8m-105.8,-8.8v8.8M1266.7,549v3.8m0,-12.6V549m0,3.8h-51.6m-54.2,-12.6V549m105.8,-80.5v3.8m0,-12.6v8.8m-105.8,-8.8v8.8m105.8,40.2v3.8m0,-12.6v8.8m-105.8,-8.8v8.8m105.8,-80.5V432m0,-12.6v8.8m-105.8,-8.8v8.8M1266.7,307.5v3.8m0,-12.6v8.8m-105.8,-8.8v8.8M581,304.6h51.6m5.3,0h51.6m5.3,0h51.6m62.3,0h51.6m5.3,0h51.6m5.3,0h51.6m5.3,0H1031m5.4,0h51.5m5.4,0h51.6m5.3,0h5.3M1209.8,549v3.8m5.3,-3.8h-5.3m5.3,-8.8h-5.3m0,-31.5v3.8m5.3,-3.8h-5.3m5.3,-8.8h-5.3m0,-31.4v3.8m5.3,-12.6h-5.3m0,-31.5V432m5.3,-12.6h-5.3m0,-31.4v3.8m5.3,-12.6h-5.3m0,-31.5v3.8m5.3,-12.6h-5.3m0,-31.4v3.8m5.3,-12.6h-5.3m0,-27v27m0,-27h5.3m0,327.1h-5.3m5.3,-14v14m-5.3,-14v14M746.4,271.7h5.4m0,327.1h-5.4m5.4,-14v14m-5.4,-14v14m57,-327.1h5.3m0,327.1h-5.3m5.3,-14v14m-5.3,-14v14m62.2,-52.9V407.5M860.3,271.7h5.3m0,327.1h-5.3m5.3,-14v14m-5.3,-14v14M917.2,271.7h5.3m0,327.1h-5.3m5.3,-14v14m-5.3,-14v14M974.1,271.7h5.3m0,327.1h-5.3m5.3,-14v14m-5.3,-14v14m62.3,-52.9V407.5M1031,271.7h5.4m0,327.1H1031m5.4,-14v14m-5.4,-14v14m56.9,-327.1h5.4m0,327.1h-5.4m5.4,-14v14m-5.4,-14v14m57,-327.1h5.3m0,327.1h-5.3m5.3,-14v14m-5.3,-14v14M1266.7,271.7v27m0,-27h5.3m0,327.1h-5.3m5.3,-14v14m-5.3,-14v14M1160.9,540.2V512.5m0,-12.6V472.3m0,-12.6V432m0,-12.6V391.8m0,-12.6V351.5m0,-12.6V311.3m-5.4,-39.6h5.4m0,327.1h-5.4m5.4,-14v14m-5.4,-14v14M694.8,545.9V407.5M689.5,271.7h5.3m0,327.1h-5.3m5.3,-14v14m-5.3,-14v14M632.6,271.7h5.3m0,327.1h-5.3m5.3,-14v14m-5.3,-14v14M575.7,271.7v27m0,-27H581m0,327.1h-5.3m5.3,-14v14m-5.3,-14v14M526.8,540.2V512.5m0,-12.6V472.3m0,-12.6V432m0,-12.6V391.8m0,-12.6V351.5m0,-12.6V311.3M521.4,549v3.8m5.4,-3.8h-5.4m5.4,-8.8h-5.4m0,-31.5v3.8m5.4,-3.8h-5.4m5.4,-8.8h-5.4m0,-31.4v3.8m5.4,-3.8h-5.4m5.4,-8.8h-5.4m0,-31.5V432m5.4,-3.8h-5.4m5.4,-8.8h-5.4m0,-31.4v3.8m5.4,-3.8h-5.4m5.4,-8.8h-5.4m0,-31.5v3.8m5.4,-3.8h-5.4m5.4,-8.8h-5.4m0,-31.4v3.8m5.4,-3.8h-5.4m5.4,-8.8h-5.4m0,-27v27m5.4,-27v27m-5.4,-27h5.4m0,327.1h-5.4m5.4,-14v14m-57,-58.6V512.5m0,-12.6V472.3m0,-12.6V432m0,-12.6V391.8m0,-12.6V351.5m0,-12.6V311.3m-5.3,-39.6h5.3m0,327.1h-5.3m5.3,-14v14m-5.3,-14v14M865.6,395V304.6m-5.3,0V545.9m233,0V304.6m-5.4,0V545.9m-108.5,0V304.6m-5.3,0V545.9M1155.5,304.6V545.9M1266.7,311.3v27.6m0,12.6v27.7m0,12.6v27.6m0,12.6v27.7m0,12.6v27.6m0,12.6v27.7m0,32.8v11.8m-458,-38.9V304.6m-5.3,0V545.9m119.1,0V304.6m-5.3,0V545.9M1036.4,395V304.6m-5.4,0V545.9m119.2,0V304.6m-5.3,0V545.9m-393.1,0V304.6m-5.4,0V545.9M694.8,395V304.6m-5.3,0V545.9m-51.6,0V304.6m-5.3,0V545.9m-51.6,0V304.6m-5.3,6.7v27.6m0,12.6v27.7m0,12.6v27.6m0,12.6v27.7m0,12.6v27.6m0,12.6v27.7M521.4,311.3v27.6m0,93.1v27.7M1202.7,432v27.7m0,-148.4v27.6m-47.2,207h-5.3m-5.3,0h-51.6m-5.4,0h-51.5m-5.4,0H979.4m-5.3,0H930.5m-127.1,0H751.8m-5.4,0H694.8m-5.3,0H637.9m-5.3,0H581m0,5.4h51.6m5.3,0h51.6m5.3,0h51.6m5.4,0h51.6m127.1,0h43.6m5.3,0H1031m5.4,0h51.5m5.4,0h51.6m5.3,0h5.3m-225,0v-5.4h-8m-5.3,0H865.6m-5.3,0H808.7m0,5.4h51.6m5.3,0h51.6m5.3,0h8M519.4,623.7h-.2m.2,-50.2h-.2m.8,117.4h696.8m0,128.1H520m0,-10.7h696.8M526.8,573.5h48.9m5.3,0h51.6m5.3,0h51.6m5.3,0h51.6m5.4,0h51.6m5.3,0h51.6m5.3,0h51.6m5.3,0h51.6m5.3,0H1031m5.4,0h51.5m5.4,0h51.6m5.3,0h5.3m61.3,128.1H520m-.4,-128.1h-.2m.2,28.5V573.5m0,362.9V914.6m0,21.8h-.2m.2,-323.3h-.2m0,301.5v21.8m-2,-310V914.6m2.7,21.8V914.6m15.6,0v-.9m-15.6,.9h15.6M517,623.3v3.1m2.2,-3.1H517m2.4,0h.2M520,602h-.4m.4,27.5h-.4m0,-6.2v6.2m-2.2,285.1h2M860.3,553.5H808.7m-5.3,0H751.8m-5.4,0H694.8m-5.3,0H637.9m-5.3,0H581m-5.3,0H526.8m677.7,0h-43.6m-5.4,0h-5.3m-5.3,0h-51.6m-5.4,0h-51.5m-5.4,0H979.4m-62.2,0H865.6m338.9,0v-.7m-734.7,.7h51.6m693.7,0h51.6m-51.6,0v-.7m-10.6,.7h5.3m6.7,19.5h50.2M974.1,553.5H948.3M1155.5,573h-5.3m-5.3,0h-51.6m-5.4,0h-51.5m-5.4,0H979.4m-5.3,0H948.3V553.5H922.5M948.3,573H922.5m-5.3,0H865.6m-5.3,0H808.7m-5.3,0H751.8m-5.4,0H694.8m-5.3,0H637.9m-5.3,0H581m-5.3,0H526.8m-57,0h50.3m696.4,.5V573m-696.4,0v.5m1.3,-.5h-1.3m1.3,.5V573m695.1,0h-1.4m-5.3,0h-5.3v.5m16,-33.3V512.5m0,-12.6V472.3m0,-12.6V432m0,-12.6V391.8m0,-12.6V351.5m0,-12.6V311.3m0,-12.6v-2.8h-5.4M1160.9,573h43.6M710.9,955V936.4M673.5,955V936.4M597,955V936.4M559.7,955V936.4m265,18.6V936.4M787.3,955V936.4M938.5,955V936.4M901.2,955V936.4M1052.4,955V936.4M1015,955V936.4M1166.2,955V936.4M1128.9,955V936.4M653.9,955V936.4M616.6,955V936.4M767.8,955V936.4M730.4,955V936.4M881.6,955V936.4M844.3,955V936.4M995.5,955V936.4M958.1,955V936.4M1109.3,955V936.4M1071.9,955V936.4M575.7,388v3.8m0,-12.6V388m-54.3,3.8H469.8m0,-12.6V388M575.7,347.7v3.8m0,-12.6v8.8m-54.3,3.8H469.8m0,-12.6v8.8M575.7,549v3.8m0,-12.6V549m0,3.8H526.8m-5.4,0H469.8m0,-12.6V549M575.7,468.5v3.8m0,-12.6v8.8m-54.3,3.8H469.8m0,-12.6v8.8m105.9,40.2v3.8m0,-12.6v8.8m-54.3,3.8H469.8m0,-12.6v8.8M575.7,428.2V432m0,-12.6v8.8M521.4,432H469.8m0,-12.6v8.8M575.7,307.5v3.8m0,-12.6v8.8m-54.3,3.8H469.8m0,-12.6v8.8m105.9,71.7H533.9m-12.5,0H469.8M575.7,338.9H533.9m-12.5,0H469.8M575.7,540.2H533.9m-12.5,0H469.8M575.7,459.7H533.9m-12.5,0H469.8m105.9,40.2H533.9m-12.5,0H469.8M575.7,419.4H533.9m-12.5,0H469.8m64.1,40.3V432m0,-93.1V311.3m7,642h-1.3M526.8,937.2v-.8m-.4,16.9h3.8m667.1,-16.1v-.8m-.3,16.9h.3m12.8,0h1.4m-14.2,0h3.5m-15.7,64h.7m7.1,0h21.3m-690.4,0h19.9m-28.5,0h2.7M835.3,956.8h.1m-.1,3.6h.1M518.7,955H472.1m54.7,-18.6h12.4M1266.7,391.8h-51.6m-5.3,0h-48.9m105.8,-40.3h-51.6m-5.3,0h-48.9m48.9,201.3h-48.9m105.8,-80.5h-51.6m-5.3,0h-48.9m105.8,40.2h-51.6m-5.3,0h-48.9M1266.7,432h-51.6m-5.3,0h-48.9M1266.7,311.3h-51.6m-5.3,0h-48.9m48.9,-12.6h-48.9m48.9,254.1v.7m5.3,-246v31.4m0,8.8v31.5m0,8.8v31.4m0,8.8v31.5m0,8.8v31.4m0,8.8v31.5m0,8.8v3.8m-5.3,-40.3v27.7m0,-67.9v27.6m0,-67.9v27.7m0,-67.9v27.6m0,-67.9v27.7m0,-67.9v27.6m5.3,-67.2v27m51.6,254.1v.7m-111.2,20v11.3m-579.8,-32v.7m-48.9,-246v3.8m0,36.4v3.8m0,36.5v3.8m0,36.4V432m0,36.5v3.8m0,36.4v3.8m-57,60.5v11.8m49.6,-11.3v39.6m-.2,-39.6v50.2m697.6,184.6V819M520,819V808.3M1216.8,819V936.4m-696.8,0V913.7m.1,22.7H520M1216.8,573.5V701.6M520,573.5h1.4m639.5,0h48.9M520,701.6V690.9m0,-117.4h-.4m16.1,340.2H519.6m0,.9v-.9m.4,22.7h-.4m0,-310H517M519.6,602v11.1m-.2,301.5h.2M575.7,391.8H526.8m48.9,-40.3H526.8m48.9,120.8H526.8m48.9,40.2H526.8M575.7,432H526.8M575.7,311.3H526.8m48.9,-12.6H526.8m10.7,654.6h2.1m668.5,0h2m-27.2,64h2.2m.7,0h7.1m21.3,0h7.2m2.8,0h.7m-681.2,0h10.6m-39.8,0h.7m2.7,0h5.9m686,-638.1h-7.1m7.1,-40.3h-7.1m7.1,201.3h-7.1m7.1,-80.5h-7.1m7.1,40.2h-7.1m7.1,-80.5h-7.1m64,-120.7h-46.2m-5.4,286.1V573.5M746.4,545.9v7.6m0,20v11.3m62.3,0V573.5m-5.3,-27.6v7.6m0,20v11.3m62.2,0V573.5m-5.3,-27.6v7.6m0,20v11.3m62.2,0V573.5m-5.3,-27.6v7.6m0,20v11.3m56.9,-38.9v7.6m0,20v11.3m62.3,0V573.5M1031,545.9v7.6m0,20v11.3m56.9,-38.9v7.6m0,20v11.3m57,-38.9v7.6m0,20v11.3m10.6,-38.9v7.6m0,19.5v.5m5.4,-.5v11.8m-466.1,0V573.5m-5.3,-27.6v7.6m0,20v11.3m-51.6,0V573.5m-5.3,-27.6v7.6m0,20v11.3m-51.6,0V573.5m-5.3,0v11.3M526.8,573.5v11.3m-7.4,28.3v10.6m697.4,77.9V808.3m-696.8,0V701.6m0,212.1V819M1215.1,573.5h1.4M520,602V573.5M533.9,459.7h-7.1m-5.4,-161H469.8m712.4,718.6h.7m38.5,0h2.8m-712.6,0h2.9M521.1,955h-2.4M1220.5,298.7h-5.4m-745.3,-27h51.6m5.4,0h48.9m5.3,0h51.6m176.1,0h51.6m349.5,301.8v11.3m5.3,-11.3V573M751.8,584.8V573m-5.4,0v.5m5.4,-22.2v2.2m56.9,20V573m-5.3,0v.5m5.3,-22.2v2.2m56.9,20V573m-5.3,0v.5m5.3,-22.2v2.2m56.9,20V573m-5.3,0v.5m5.3,-22.2v2.2m56.9,31.3V573m-5.3,0v.5m5.3,-22.2v2.2m57,20V573m-5.4,0v.5m5.4,-22.2v2.2m56.9,31.3V573m-5.4,0v.5m5.4,-22.2v2.2m56.9,31.3V573m-5.3,0v.5m5.3,-22.2v2.2m-455.4,20V573m-5.3,0v.5m5.3,-22.2v2.2m-56.9,20V573m-5.3,0v.5m5.3,-22.2v2.2m-56.9,20V573m-5.3,0v.5M581,551.3v2.2M526.8,549v4.5m0,19.5v.5M520,690.9V602m-.4,11.1v10.2M533.9,379.2h-7.1m7.1,-40.3h-7.1m7.1,201.3h-7.1m7.1,-40.3h-7.1m7.1,-80.5h-7.1M526.7,955h-5.6M1220.5,379.2h-5.4m5.4,-40.3h-5.4m5.4,201.3h-5.4m5.4,-80.5h-5.4m5.4,40.2h-5.4m5.4,-80.5h-5.4M1209.8,573v.5m-458,-27.6v5.4m56.9,-5.4v5.4m56.9,-5.4v5.4m56.9,-5.4v5.4m56.9,-5.4v5.4m57,-5.4v5.4m56.9,-5.4v5.4m56.9,-5.4v5.4M694.8,545.9v5.4m-56.9,-5.4v5.4M581,545.9v5.4m-111.2,1.5v.7M537.5,955h-3.6m104,-683.3h51.6m176.1,0h51.6M469.8,549v3.8M547.1,955h-.2m-13,0h-7.2M865.6,395v12.5M1036.4,395v12.5M1160.9,549v4.5M694.8,395v12.5M1197.3,955h-3.1m-647.3,0h-1.2M694.8,271.7h51.6m176.1,0h51.6m186.8,237v3.8M1208.1,955h-3.6m-10.3,0h-2.5m-646,0h-2.1M1160.9,468.5v3.8M1264.5,955h-46.8m-3.5,0h-6.1m-3.6,0h-7.2m-5.6,0H1190m-646.4,0h-6.1M979.4,271.7H1031m-561.2,237v3.8M1217.7,955h-.2m-27.5,0h-.7M1160.9,428.2V432m56.6,523h-3.3M1036.4,271.7h51.5m73,116.3v3.8M469.8,468.5v3.8M710.9,955H673.5m151.2,0H787.3m306,-683.3h51.6m16,0v27m0,8.8v3.8m0,36.4v3.8M469.8,428.2V432M938.5,955H901.2m-113.9,0H767.8m-94.3,0H653.9M597,955H547.1M469.8,388v3.8M1189.3,955h-23.1m-113.8,0H1015m-113.8,0H881.6m-113.8,0H710.9m-57,0H597M1150.2,271.7h5.3M1166.2,955h-37.3M1015,955H995.5m-113.9,0H824.7m304.2,0h-19.6m-113.8,0h-57M1160.9,271.7h48.9m-740,76v3.8M1109.3,955h-56.9M1215.1,271.7h51.6M469.8,307.5v3.8m0,-39.6v27m51.6,286.1v14m0,-14V573.5m5,379.8h-2.8m20,0h2.1m-2.1,0h-2.7m4.8,0h1.2m-28.2,0h4.9m673.4,0h-2.8m20,0h2.1m-2.1,0h-2.7m4.8,0h1.2m-28.2,0h4.9m-358.9,7.1H798m-271.2,-24h-6.7M803.4,271.7H751.8m0,32.9h51.6m411.7,248.9V573m-5.3,0V553.5M751.8,573V553.5m-5.4,0V573m5.4,-268.4V271.7m-5.4,0v32.9m62.3,248.9V573m-5.3,-19.5V573m5.3,-268.4V271.7m-5.3,0v32.9m62.2,248.9V573m-5.3,-19.5V573m5.3,-268.4V271.7m-5.3,0v32.9m62.2,248.9V573m-5.3,-19.5V573m5.3,-268.4V271.7m-5.3,0v32.9M979.4,573V553.5m-5.3,0V573m5.3,-268.4V271.7m-5.3,0v32.9m62.3,248.9V573M1031,553.5V573m5.4,-268.4V271.7m-5.4,0v32.9M1093.3,573V553.5m-5.4,0V573m5.4,-268.4V271.7m-5.4,0v32.9M1150.2,573V553.5m-5.3,0V573m5.3,-268.4V271.7m-5.3,0v32.9m121.8,248.9V573m-105.8,0V553.5m-5.4,0V573m0,-301.3v32.9M694.8,553.5V573m-5.3,-19.5V573m5.3,-268.4V271.7m-5.3,0v32.9M637.9,553.5V573m-5.3,-19.5V573m5.3,-268.4V271.7m-5.3,0v32.9M581,553.5V573m-5.3,-19.5V573M581,304.6V271.7M526.8,553.5V573m-5.4,0V553.5M469.8,573V553.5M1202.7,419.4V391.8m0,108.1V472.3m0,-93.1V351.5m0,188.7V512.5m13.8,61h.3M464.5,584.8V271.7M1272,584.8V271.7m-55.2,664.7h-7m-12.5,0h12.5m-498.9,0H673.5m10.7,20.4H664.6m19.6,0h37.3M597,936.4H559.7m10.6,20.4h-16m16,0h37.4m217,-20.4H787.3M798,956.8H778.4m19.6,0h37.3M938.5,936.4H901.2m10.7,20.4H892.3m19.6,0h37.3m103.2,-20.4H1015m10.7,20.4h-19.6m19.6,0H1063m103.2,-20.4h-37.3m10.6,20.4H1120m19.5,0h37.4m-523,-20.4H616.6m10.7,20.4H607.7m19.6,0h37.3M767.8,936.4H730.4m10.7,20.4H721.5m19.6,0h37.3M881.6,936.4H844.3m10.6,20.4H835.4m19.5,0h37.4M995.5,936.4H958.1m10.7,20.4H949.2m19.6,0h37.3m103.2,-20.4h-37.4m10.7,20.4H1063m19.6,0H1120m77.3,-20.4h-31.1M533.9,419.4V391.8m-12.5,27.6V391.8m0,108.1V472.3m0,-93.1V351.5m0,188.7V512.5M533.9,379.2V351.5m0,188.7V512.5m0,-12.6V472.3" class="g4_1" />
<g clip-path="url(#c21_1)">
<path d="M692.2,258V179.9m0,0V168.4M521.4,258V179.9m0,0V168.4" class="g0_1" />
<path d="M680.7,179.9H532.9" class="g5_1" />
<path d="M691,179.9l-10.3,1.7v-3.5l10.3,1.8Z" class="g3_1" />
<path d="M691,179.9l-10.3,1.7v-3.5l10.3,1.8Z" class="g5_1" />
<path d="M522.6,179.9l10.3,-1.8v3.5l-10.3,-1.7Z" class="g3_1" />
<path d="M522.6,179.9l10.3,-1.8v3.5l-10.3,-1.7Z" class="g5_1" />
</g>
<g clip-path="url(#c22_1)">
<g fill="#000000" >
<use xlink:href="#f1_9" transform="matrix(9,0,0,9,592.3,172.4)" />
<use xlink:href="#f1_4" transform="matrix(9,0,0,9,600,172.4)" />
<use xlink:href="#f1_5" transform="matrix(9,0,0,9,602.6,172.4)" />
<use xlink:href="#f1_8" transform="matrix(9,0,0,9,607.2,172.4)" />
<use xlink:href="#f1_3" transform="matrix(9,0,0,9,614.8,172.4)" />
</g>
</g>

<g clip-path="url(#c23_1)">
<path d="M692.2,258V179.9m0,0V168.4M862.9,258V179.9m0,0V168.4" class="g0_1" />
<path d="M703.7,179.9H851.5" class="g5_1" />
<path d="M693.3,179.9l10.4,-1.8v3.5l-10.4,-1.7Z" class="g3_1" />
<path d="M693.3,179.9l10.4,-1.8v3.5l-10.4,-1.7Z" class="g5_1" />
<path d="M861.8,179.9l-10.3,1.7v-3.5l10.3,1.8Z" class="g3_1" />
<path d="M861.8,179.9l-10.3,1.7v-3.5l10.3,1.8Z" class="g5_1" />
</g>
<g clip-path="url(#c24_1)">
<g fill="#000000" >
<use xlink:href="#f1_9" transform="matrix(9,0,0,9,763.1,172.4)" />
<use xlink:href="#f1_4" transform="matrix(9,0,0,9,770.8,172.4)" />
<use xlink:href="#f1_5" transform="matrix(9,0,0,9,773.4,172.4)" />
<use xlink:href="#f1_8" transform="matrix(9,0,0,9,778,172.4)" />
<use xlink:href="#f1_3" transform="matrix(9,0,0,9,785.6,172.4)" />
</g>
</g>

<g clip-path="url(#c25_1)">
<path d="M862.9,258V179.9m0,0V168.4M1033.7,258V179.9m0,0V168.4" class="g0_1" />
<path d="M874.4,179.9h147.8" class="g5_1" />
<path d="M864.1,179.9l10.3,-1.8v3.5l-10.3,-1.7Z" class="g3_1" />
<path d="M864.1,179.9l10.3,-1.8v3.5l-10.3,-1.7Z" class="g5_1" />
<path d="M1032.5,179.9l-10.3,1.7v-3.5l10.3,1.8Z" class="g3_1" />
<path d="M1032.5,179.9l-10.3,1.7v-3.5l10.3,1.8Z" class="g5_1" />
</g>
<g clip-path="url(#c26_1)">
<g fill="#000000" >
<use xlink:href="#f1_9" transform="matrix(9,0,0,9,933.9,172.4)" />
<use xlink:href="#f1_4" transform="matrix(9,0,0,9,941.5,172.4)" />
<use xlink:href="#f1_5" transform="matrix(9,0,0,9,944.1,172.4)" />
<use xlink:href="#f1_8" transform="matrix(9,0,0,9,948.7,172.4)" />
<use xlink:href="#f1_3" transform="matrix(9,0,0,9,956.4,172.4)" />
</g>
</g>


<defs>
<path d="M641,-18c0,0,-178,0,-291,51c0,0,-114,52,-196,182c0,0,-82,131,-82,334c0,0,0,271,145,417c0,0,144,146,408,146c0,0,207,0,325,-84c0,0,118,-83,175,-257L827,705c0,0,-15,50,-33,73c0,0,-28,39,-69,60c0,0,-41,21,-92,21c0,0,-115,0,-176,-93c0,0,-46,-68,-46,-215c0,0,0,-182,55,-249c0,0,55,-67,155,-67c0,0,97,0,147,54c0,0,50,55,72,159l296,-90c0,0,-30,-124,-94,-208c0,0,-64,-84,-159,-126c0,0,-95,-42,-242,-42Z" 
id="f0_8"
transform="scale(0.001,-0.001)" />

<path d="M93,0V304H418V0Z" 
id="f0_3"
transform="scale(0.001,-0.001)" />

<path d="M508,189c0,0,46,0,80,32c0,0,34,33,50,103c0,0,16,70,16,218c0,0,0,218,-37,292c0,0,-37,75,-111,75c0,0,-75,0,-109,-76c0,0,-33,-76,-33,-283c0,0,0,-209,37,-285c0,0,37,-76,107,-76Zm1,-207c0,0,-138,0,-223,43c0,0,-85,44,-140,129c0,0,-39,61,-61,166c0,0,-22,104,-22,231c0,0,0,312,112,436c0,0,112,125,342,125c0,0,110,0,181,-27c0,0,71,-28,116,-71c0,0,45,-44,70,-92c0,0,26,-48,42,-112c0,0,30,-122,30,-255c0,0,0,-298,-100,-436C856,119,755,-18,509,-18Z" 
id="f0_4"
transform="scale(0.001,-0.001)" />

<path d="M537,171c0,0,59,0,99,46c0,0,41,45,41,135c0,0,0,93,-42,141c0,0,-42,49,-103,49c0,0,-64,0,-106,-47c0,0,-43,-47,-43,-134c0,0,0,-89,45,-140c0,0,44,-50,109,-50Zm8,-189c0,0,-164,0,-263,55c0,0,-99,56,-158,179c0,0,-59,123,-59,325c0,0,0,296,124,433c0,0,124,138,345,138c0,0,130,0,206,-30c0,0,76,-31,126,-89c0,0,50,-58,76,-146L639,810c0,0,-11,63,-39,89c0,0,-28,26,-69,26c0,0,-74,0,-115,-74c0,0,-29,-54,-43,-230c0,0,54,56,111,82c0,0,58,26,133,26c0,0,146,0,247,-104c0,0,101,-104,101,-265c0,0,0,-108,-51,-197C914,163,863,73,772,27c0,0,-90,-45,-227,-45Z" 
id="f0_5"
transform="scale(0.001,-0.001)" />

<path d="M626,235c0,0,88,0,123,31c0,0,36,30,36,83c0,0,0,48,-35,77c0,0,-36,30,-125,30H454V235ZM600,664c0,0,79,0,110,27c0,0,31,27,31,79c0,0,0,48,-31,74c0,0,-31,27,-107,27H454V664ZM112,0V1093H745c0,0,158,0,243,-78c0,0,85,-79,85,-194c0,0,0,-97,-61,-167c0,0,-40,-46,-118,-73c0,0,118,-28,174,-97c0,0,55,-69,55,-173c0,0,0,-85,-39,-153c0,0,-40,-68,-108,-107C976,51,933,26,847,15C847,15,733,0,696,0Z" 
id="f0_7"
transform="scale(0.001,-0.001)" />

<path d="M125,0V1093H463V0Z" 
id="f0_b"
transform="scale(0.001,-0.001)" />

<path d="M561,-18c0,0,-279,0,-387,107C174,89,67,196,53,362l321,20c0,0,11,-78,43,-119c0,0,52,-66,149,-66c0,0,72,0,112,33c0,0,39,34,39,79c0,0,0,43,-37,76c0,0,-38,34,-174,63c0,0,-222,50,-317,133c0,0,-95,83,-95,211c0,0,0,84,49,159c0,0,49,75,147,118c0,0,98,43,269,43c0,0,209,0,319,-78c0,0,110,-78,131,-248L690,768c0,0,-12,73,-53,107c0,0,-40,33,-112,33c0,0,-59,0,-88,-25c0,0,-30,-25,-30,-60c0,0,0,-26,24,-47c0,0,24,-22,114,-41c0,0,221,-47,317,-96c0,0,96,-49,140,-121c0,0,43,-73,43,-162c0,0,0,-105,-58,-194C987,162,929,73,824,27c0,0,-104,-45,-263,-45Z" 
id="f0_f"
transform="scale(0.001,-0.001)" />

<path d="M664,-18c0,0,-80,0,-174,12c0,0,-95,10,-158,43c0,0,-64,33,-116,94c0,0,-53,61,-72,126c0,0,-32,104,-32,185v651H450V427c0,0,0,-90,49,-140c0,0,50,-50,138,-50c0,0,87,0,137,49c0,0,49,50,49,141v666h338V442c0,0,0,-97,-31,-183c0,0,-30,-86,-94,-151c0,0,-65,-64,-136,-90c0,0,-98,-36,-236,-36Z" 
id="f0_h"
transform="scale(0.001,-0.001)" />

<path d="M111,0V1093h906V859H450V685H976V462H450V247h584V0Z" 
id="f0_a"
transform="scale(0.001,-0.001)" />

<path d="M537,248c0,0,106,0,151,24c0,0,45,23,70,82c0,0,25,58,25,190c0,0,0,174,-56,238c0,0,-57,64,-188,64H455V248ZM116,0V1093H618c0,0,149,0,240,-40c0,0,91,-40,151,-116c0,0,60,-75,87,-175c0,0,26,-100,26,-212c0,0,0,-175,-39,-271c0,0,-40,-97,-111,-162c0,0,-71,-66,-152,-87C820,30,709,0,618,0Z" 
id="f0_9"
transform="scale(0.001,-0.001)" />

<path d="M713,418L593,810L474,418ZM2,0L412,1093H781L1192,0H838L784,181H401L347,0Z" 
id="f0_6"
transform="scale(0.001,-0.001)" />

<path d="M379,0V823H35v270H1062V823H718V0Z" 
id="f0_g"
transform="scale(0.001,-0.001)" />

<path d="M598,650c0,0,23,0,90,15c0,0,33,7,54,34c0,0,22,28,22,64c0,0,0,53,-34,81c0,0,-33,28,-126,28H456V650ZM116,0V1093H679c0,0,157,0,240,-27c0,0,83,-27,133,-99c0,0,51,-73,51,-177c0,0,0,-91,-39,-157c0,0,-39,-66,-107,-107c0,0,-43,-26,-119,-43c0,0,61,-21,89,-41c0,0,18,-13,54,-57c0,0,35,-44,47,-68L1192,0H810L629,334c0,0,-34,65,-61,85c0,0,-36,25,-83,25H456V0Z" 
id="f0_e"
transform="scale(0.001,-0.001)" />

<path d="M636,235c0,0,109,0,169,70c0,0,59,71,59,254c0,0,0,154,-62,225c0,0,-62,72,-169,72c0,0,-102,0,-163,-73c0,0,-62,-72,-62,-239c0,0,0,-165,61,-237c0,0,62,-72,167,-72ZM648,-18c0,0,-185,0,-307,58c0,0,-121,59,-196,187c0,0,-76,127,-76,319c0,0,0,267,150,417c0,0,149,149,415,149c0,0,273,0,421,-147c0,0,148,-146,148,-410c0,0,0,-192,-65,-314c0,0,-64,-123,-186,-191c0,0,-122,-68,-304,-68Z" 
id="f0_d"
transform="scale(0.001,-0.001)" />

<path d="M243,0L0,1093H321L436,483l169,610H924L1094,484l116,609h319L1288,0H957L765,688L574,0Z" 
id="f0_i"
transform="scale(0.001,-0.001)" />

<path d="M114,0V1093H430L841,489v604h319V0H841L432,601V0Z" 
id="f0_c"
transform="scale(0.001,-0.001)" />

<path d="M396,0V964H35v129H902V964H541V0Z" 
id="f1_h"
transform="scale(0.001,-0.001)" />

<path d="M101,0V1093H235V701c0,0,94,109,237,109c0,0,88,0,153,-35c0,0,65,-35,93,-96c0,0,28,-61,28,-177V0H612V502c0,0,0,101,-44,146c0,0,-43,46,-123,46c0,0,-60,0,-113,-31c0,0,-52,-31,-75,-84c0,0,-22,-53,-22,-146V0Z" 
id="f1_o"
transform="scale(0.001,-0.001)" />

<path d="M102,0V792H236V0Zm0,939v154H236V939Z" 
id="f1_p"
transform="scale(0.001,-0.001)" />

<path d="M386,-17c0,0,-155,0,-236,64c0,0,-81,64,-103,190l133,20c0,0,11,-79,62,-122c0,0,51,-42,143,-42c0,0,93,0,138,37c0,0,44,38,44,89c0,0,0,45,-39,71c0,0,-28,18,-138,46c0,0,-147,37,-204,64c0,0,-58,27,-87,75c0,0,-30,48,-30,107c0,0,0,52,25,98c0,0,24,45,66,74c0,0,31,24,85,40c0,0,54,16,116,16c0,0,93,0,164,-27c0,0,70,-27,104,-73c0,0,33,-46,46,-122L544,570c0,0,-9,61,-52,95c0,0,-43,34,-121,34c0,0,-93,0,-132,-30c0,0,-40,-31,-40,-72c0,0,0,-26,17,-47c0,0,16,-21,51,-35c0,0,20,-8,119,-35c0,0,142,-38,199,-62c0,0,56,-24,88,-70c0,0,32,-47,32,-115c0,0,0,-67,-39,-126c0,0,-39,-60,-113,-92c0,0,-74,-32,-167,-32Z" 
id="f1_x"
transform="scale(0.001,-0.001)" />

<path d="M247,0L4,792H143L270,335L316,165c0,0,3,12,41,163L484,792H620L740,333L779,181l45,153L960,792h131L843,0H704L578,474L547,609L386,0Z" 
id="f1_11"
transform="scale(0.001,-0.001)" />

<path d="M422,93c0,0,100,0,167,76c0,0,66,76,66,231c0,0,0,147,-67,223c0,0,-66,75,-166,75c0,0,-100,0,-167,-75c0,0,-66,-75,-66,-227c0,0,0,-152,66,-228c0,0,67,-75,167,-75Zm0,-110c0,0,-166,0,-269,106C153,89,51,196,51,396c0,0,0,220,122,326c0,0,102,88,249,88c0,0,164,0,267,-107c0,0,104,-107,104,-296c0,0,0,-153,-46,-240C747,167,701,79,614,31c0,0,-88,-48,-192,-48Z" 
id="f1_u"
transform="scale(0.001,-0.001)" />

<path d="M99,0V792H219V672c0,0,46,84,86,111c0,0,39,27,86,27c0,0,68,0,138,-43L482,642c0,0,-49,29,-98,29c0,0,-44,0,-79,-27c0,0,-35,-26,-50,-73c0,0,-22,-72,-22,-157V0Z" 
id="f1_w"
transform="scale(0.001,-0.001)" />

<path d="M101,0V1093H235V470L554,792H728L425,498L758,0H592L329,405L235,314V0Z" 
id="f1_q"
transform="scale(0.001,-0.001)" />

<path d="M98,0V1093H232V0Z" 
id="f1_r"
transform="scale(0.001,-0.001)" />

<path d="M420,-17c0,0,-163,0,-262,106c0,0,-98,106,-98,304c0,0,0,128,42,224c0,0,43,96,129,145c0,0,87,48,189,48c0,0,129,0,211,-66c0,0,82,-65,106,-185L606,539c0,0,-19,80,-66,120c0,0,-48,40,-115,40c0,0,-101,0,-164,-72c0,0,-63,-73,-63,-230c0,0,0,-160,61,-232c0,0,61,-72,159,-72c0,0,79,0,132,48c0,0,53,49,67,149L749,273C749,273,728,137,639,59c0,0,-90,-76,-219,-76Z" 
id="f1_k"
transform="scale(0.001,-0.001)" />

<path d="M644,472c0,0,-9,100,-50,150c0,0,-65,77,-167,77c0,0,-93,0,-156,-62c0,0,-63,-61,-70,-165ZM433,-17c0,0,-174,0,-275,106C158,89,56,196,56,389c0,0,0,200,103,310c0,0,103,111,267,111c0,0,159,0,259,-108c0,0,101,-109,101,-304c0,0,0,-12,-1,-36H194c0,0,7,-131,74,-200c0,0,66,-69,166,-69c0,0,74,0,126,39c0,0,52,39,83,124L782,239C782,239,749,117,660,50c0,0,-89,-67,-227,-67Z" 
id="f1_m"
transform="scale(0.001,-0.001)" />

<path d="M101,0V792H221V679c0,0,87,131,252,131c0,0,72,0,132,-26c0,0,60,-26,90,-68c0,0,30,-41,42,-99c0,0,7,-37,7,-130V0H610V482c0,0,0,82,-16,122c0,0,-15,41,-55,65c0,0,-40,24,-94,24c0,0,-86,0,-148,-54c0,0,-62,-55,-62,-207V0Z" 
id="f1_t"
transform="scale(0.001,-0.001)" />

<path d="M406,93c0,0,88,0,149,72c0,0,62,72,62,219c0,0,0,162,-63,238c0,0,-63,76,-154,76c0,0,-90,0,-150,-73c0,0,-60,-73,-60,-230c0,0,0,-152,64,-227c0,0,64,-75,152,-75ZM393,-17c0,0,-95,0,-174,52c0,0,-80,52,-123,145c0,0,-44,94,-44,215c0,0,0,119,39,215c0,0,40,97,119,148c0,0,79,52,177,52c0,0,71,0,127,-31c0,0,56,-30,91,-79v393H739V0H615V100c0,0,-75,-117,-222,-117Z" 
id="f1_l"
transform="scale(0.001,-0.001)" />

<path d="M369,-17c0,0,-70,0,-131,26c0,0,-61,27,-91,68c0,0,-29,40,-41,99c0,0,-8,40,-8,125V792H232V353c0,0,0,-105,8,-142c0,0,13,-53,54,-83c0,0,41,-30,101,-30c0,0,61,0,114,31c0,0,53,31,75,84c0,0,22,53,22,155V792H740V0H621V116c0,0,-93,-133,-252,-133Z" 
id="f1_z"
transform="scale(0.001,-0.001)" />

<path d="M358,88c0,0,78,0,139,34c0,0,60,34,89,92c0,0,21,46,21,134l1,49c0,0,-73,-30,-221,-51c0,0,-83,-11,-117,-26c0,0,-35,-15,-54,-44c0,0,-18,-28,-18,-63c0,0,0,-54,40,-89c0,0,41,-36,120,-36ZM326,-17c0,0,-131,0,-201,63c0,0,-70,64,-70,163c0,0,0,58,26,106c0,0,27,48,70,77c0,0,43,29,97,44c0,0,39,11,119,20c0,0,163,20,240,47c0,0,1,27,1,35c0,0,0,81,-38,115c0,0,-52,45,-153,45c0,0,-95,0,-141,-33c0,0,-45,-33,-67,-116L78,566c0,0,18,84,59,136c0,0,41,52,119,80c0,0,78,28,180,28c0,0,102,0,165,-24c0,0,64,-24,94,-60c0,0,29,-36,41,-91c0,0,7,-35,7,-124V332c0,0,0,-187,9,-236c0,0,8,-50,33,-96H645c0,0,-20,42,-26,98C619,98,544,34,475,8c0,0,-70,-25,-149,-25Z" 
id="f1_i"
transform="scale(0.001,-0.001)" />

<path d="M590,-18c0,0,-177,0,-287,71c0,0,-111,72,-169,209c0,0,-58,137,-58,293c0,0,0,171,66,298c0,0,65,128,185,194c0,0,121,66,265,66c0,0,164,0,276,-84c0,0,112,-84,156,-235L881,760c0,0,-38,120,-110,174c0,0,-72,55,-182,55c0,0,-126,0,-210,-61c0,0,-85,-60,-119,-162c0,0,-34,-102,-34,-210c0,0,0,-139,40,-243c0,0,41,-104,127,-156c0,0,85,-51,185,-51c0,0,122,0,206,70c0,0,84,70,114,208l145,-37c0,0,-46,-178,-164,-272c0,0,-118,-93,-289,-93Z" 
id="f1_c"
transform="scale(0.001,-0.001)" />

<path d="M312,-10c0,0,-73,0,-114,22c0,0,-40,23,-56,61c0,0,-17,38,-17,159V687H26V792h99V988l134,81V792H394V687H259V224c0,0,0,-57,7,-74c0,0,7,-16,23,-26c0,0,16,-10,46,-10c0,0,23,0,59,6L414,1c0,0,-57,-11,-102,-11Z" 
id="f1_y"
transform="scale(0.001,-0.001)" />

<path d="M320,0L20,792H161L331,318c0,0,28,-77,51,-160c0,0,18,63,50,151L608,792H746L447,0Z" 
id="f1_10"
transform="scale(0.001,-0.001)" />

<path d="M101,0V792H220V681c0,0,37,58,99,93c0,0,62,36,141,36c0,0,88,0,145,-37c0,0,56,-36,79,-102c0,0,94,139,245,139c0,0,118,0,182,-66c0,0,63,-65,63,-201V0H1040V499c0,0,0,80,-13,116c0,0,-13,35,-47,57c0,0,-35,21,-81,21c0,0,-83,0,-139,-55c0,0,-55,-56,-55,-178V0H571V514c0,0,0,90,-33,135c0,0,-33,44,-107,44c0,0,-57,0,-105,-30c0,0,-48,-29,-70,-87c0,0,-21,-57,-21,-165V0Z" 
id="f1_s"
transform="scale(0.001,-0.001)" />

<path d="M684,450L570,752c0,0,-52,138,-78,227c0,0,-21,-105,-59,-209L313,450ZM-1,0L417,1093H574L1021,0H857L729,331H271L152,0Z" 
id="f1_b"
transform="scale(0.001,-0.001)" />

<path d="M433,93c0,0,88,0,152,76c0,0,64,77,64,228c0,0,0,155,-61,228c0,0,-62,74,-149,74c0,0,-89,0,-153,-76c0,0,-64,-77,-64,-221c0,0,0,-142,39,-206c0,0,63,-103,172,-103ZM444,-17c0,0,-140,0,-220,117V0H100V1093H234V703c0,0,85,107,217,107c0,0,73,0,139,-30c0,0,65,-29,107,-83c0,0,42,-53,66,-128c0,0,24,-75,24,-161c0,0,0,-204,-101,-315C686,93,585,-17,444,-17Z" 
id="f1_j"
transform="scale(0.001,-0.001)" />

<path d="M48,329V463H461V329Z" 
id="f1_5"
transform="scale(0.001,-0.001)" />

<path d="M535,-18c0,0,-149,0,-249,43c0,0,-100,43,-158,130c0,0,-57,87,-60,197l137,12c0,0,10,-83,45,-135c0,0,36,-53,110,-86c0,0,75,-32,168,-32c0,0,83,0,146,24c0,0,63,25,94,68c0,0,31,43,31,94c0,0,0,51,-30,90c0,0,-30,38,-98,64c0,0,-44,17,-195,54c0,0,-151,36,-211,68c0,0,-79,41,-117,102c0,0,-38,61,-38,136c0,0,0,83,47,155c0,0,47,72,137,109c0,0,90,38,200,38c0,0,122,0,215,-39c0,0,93,-40,143,-116c0,0,50,-76,54,-172L767,775c0,0,-11,104,-76,158c0,0,-64,53,-190,53c0,0,-132,0,-192,-49c0,0,-60,-48,-60,-116c0,0,0,-59,43,-97c0,0,42,-38,218,-78c0,0,176,-40,242,-70c0,0,96,-44,141,-111c0,0,46,-68,46,-156c0,0,0,-87,-50,-165C889,144,839,67,745,24c0,0,-93,-42,-210,-42Z" 
id="f1_g"
transform="scale(0.001,-0.001)" />

<path d="M494,385V878L152,385ZM494,0V262H20V385l498,708H628V385H775V262H628V0Z" 
id="f1_9"
transform="scale(0.001,-0.001)" />

<path d="M139,0V153H291V0Z" 
id="f1_6"
transform="scale(0.001,-0.001)" />

<path d="M420,92c0,0,92,0,155,89c0,0,64,89,64,358c0,0,0,270,-63,359c0,0,-63,89,-158,89c0,0,-92,0,-147,-79c0,0,-70,-100,-70,-369c0,0,0,-269,63,-358c0,0,63,-89,156,-89Zm0,-110c0,0,-158,0,-248,112C172,94,64,231,64,539c0,0,0,194,39,313c0,0,40,118,119,182c0,0,79,64,198,64c0,0,88,0,155,-35c0,0,66,-36,109,-103c0,0,43,-66,68,-162c0,0,24,-96,24,-259c0,0,0,-192,-39,-311C737,228,697,110,619,46c0,0,-79,-64,-199,-64Z" 
id="f1_8"
transform="scale(0.001,-0.001)" />

<path d="M143,0V1093H287V0Z" 
id="f1_d"
transform="scale(0.001,-0.001)" />

<path d="M111,0V1093H256V129H795V0Z" 
id="f1_e"
transform="scale(0.001,-0.001)" />

<path d="M433,93c0,0,90,0,154,75c0,0,63,76,63,235c0,0,0,151,-62,226c0,0,-62,75,-149,75c0,0,-85,0,-151,-80c0,0,-66,-80,-66,-233c0,0,0,-152,62,-225c0,0,62,-73,149,-73ZM101,-303V792H223V688c0,0,43,61,98,91c0,0,54,31,132,31c0,0,101,0,179,-53c0,0,77,-52,117,-147c0,0,39,-95,39,-208c0,0,0,-122,-44,-219C744,183,701,86,618,34c0,0,-84,-51,-175,-51c0,0,-67,0,-121,28c0,0,-53,28,-87,71V-303Z" 
id="f1_v"
transform="scale(0.001,-0.001)" />

<path d="M138,0V153H290V0Zm0,639V792H290V639Z" 
id="f1_a"
transform="scale(0.001,-0.001)" />

<path d="M0,-18L317,1113H425L108,-18Z" 
id="f1_7"
transform="scale(0.001,-0.001)" />

<path d="M404,111c0,0,93,0,155,72c0,0,63,71,63,223c0,0,0,145,-65,218c0,0,-64,74,-155,74c0,0,-89,0,-152,-72c0,0,-62,-73,-62,-216c0,0,0,-156,61,-227c0,0,62,-72,155,-72ZM390,-321c0,0,-142,0,-230,64c0,0,-87,64,-84,193L207,-84c0,0,8,-60,46,-88c0,0,49,-37,136,-37c0,0,93,0,144,37c0,0,50,37,68,104c0,0,11,41,10,172C611,104,523,0,392,0C392,0,229,0,139,118c0,0,-89,118,-89,282c0,0,0,114,41,209c0,0,41,96,119,148c0,0,77,53,183,53c0,0,140,0,231,-114v96H748V107c0,0,0,-184,-38,-261c0,0,-38,-77,-119,-122c0,0,-82,-45,-201,-45Z" 
id="f1_n"
transform="scale(0.001,-0.001)" />

<path d="M182,-321c0,0,-39,0,-87,17L80,-178c0,0,44,-12,77,-12c0,0,45,0,72,15c0,0,26,15,44,42c0,0,12,20,41,100c0,0,3,11,12,33L24,792H169L334,334c0,0,32,-87,58,-183c0,0,23,91,55,179L616,792H750L450,-13c0,0,-49,-130,-75,-179c0,0,-36,-67,-83,-98c0,0,-46,-31,-110,-31Z" 
id="f1_12"
transform="scale(0.001,-0.001)" />

<path d="M116,0V1093H265L839,235v858H978V0H830L255,858V0Z" 
id="f1_f"
transform="scale(0.001,-0.001)" />

<path d="M102,706L67,910v183H220V910L184,706Z" 
id="f1_4"
transform="scale(0.001,-0.001)" />

<path d="M108,706L70,914v179H223V914L189,706Zm247,0L319,914v179H471V914L436,706Z" 
id="f1_3"
transform="scale(0.001,-0.001)" />


</defs>

<!-- Any embedded fonts defined here -->
<style type="text/css" ><![CDATA[

@font-face {
	font-family: ArialMT_a;
	src: url("fonts/ArialMT_a.woff") format("woff");
}

@font-face {
	font-family: Arial-Black_9;
	src: url("fonts/Arial-Black_9.woff") format("woff");
}

]]></style>

</svg>
