<?xml version="1.0" encoding="UTF-8" standalone="no"?>
<!DOCTYPE svg PUBLIC "-//W3C//DTD SVG 1.1//EN"
"http://www.w3.org/Graphics/SVG/1.1/DTD/svg11.dtd">


<!-- Page 1 -->
<svg x="0" y="0" width="1870" height="1210" viewBox="0 0 1870 1210" version="1.1" xmlns="http://www.w3.org/2000/svg" xmlns:xlink="http://www.w3.org/1999/xlink"
style="display: block;margin-left: auto;margin-right: auto;">
<defs>
<clipPath id="c0_1"><path d="M1705,1164.2v-39.8h76.9v39.8H1705Z" /></clipPath>
<clipPath id="c1_1"><path d="M1739.4,861.1h-22.9V791.3h22.9v69.8Z" /></clipPath>
<clipPath id="c2_1"><path d="M1715.7,582.1v-84h13.7v84h-13.7Z" /></clipPath>
<clipPath id="c3_1"><path d="M1716.5,750.9V703.7h13.7v47.2h-13.7Z" /></clipPath>
<clipPath id="c4_1"><path d="M1768.2,413V182.4h31.3V413Z" /></clipPath>
<clipPath id="c5_1"><path d="M1784.6,1100h-62.9V967h62.9v133Z" /></clipPath>
<clipPath id="c6_1"><path d="M1719.3,408.5c-1.3,0,-2.5,-.1,-2.5,-2.1l.2,-86.6c0,-1.2,-.2,-2.3,2.4,-2.3l28.5,.1v90.9Z" /></clipPath>
<clipPath id="c7_1"><path d="M1731.4,403.4c-5.7,0,-10.4,-4.6,-10.4,-10.4c0,-5.7,4.7,-10.4,10.4,-10.4c5.8,0,10.4,4.7,10.4,10.4c0,5.8,-4.6,10.4,-10.4,10.4Z" /></clipPath>
<clipPath id="c8_1"><path d="M1731.6,399.5c-.1,0,-.1,-.1,-.2,-.1q-.1,0,-.2,0c-.9,0,-1.8,-.3,-2.5,-.9c-.7,-.7,-1.1,-1.6,-1,-2.5c-.1,-1.3,.6,-2.6,1.7,-3.2l.8,1.8c-.5,.1,-.9,.7,-.9,1.3c0,1,.7,1.5,2.1,1.5c1.4,0,2.1,-.5,2.1,-1.5c0,-.7,-.4,-1.3,-1,-1.5l.7,-1.6c1.2,.6,1.9,1.8,1.9,3.1c0,1,-.3,1.9,-1,2.6c-.7,.6,-1.6,1,-2.5,1Zm-.2,-6.8c-1,0,-1.9,-.3,-2.7,-1c-.8,-.8,-1.1,-1.9,-1,-3c.2,-1.1,.8,-2,1.7,-2.6l.8,1.6l.1,.1c-.6,.2,-1,.7,-1,1.3c0,1.1,.7,1.6,2.1,1.7c1.4,0,2.1,-.6,2.1,-1.7c.1,-.6,-.4,-1.3,-1,-1.5l.8,-1.5c1.1,.6,1.8,1.8,1.8,3c.1,1,-.3,1.9,-1,2.6c-.8,.7,-1.7,1,-2.7,1Zm0,9.9c5.4,0,9.7,-4.4,9.8,-9.8c0,-2.6,-1,-5.1,-2.9,-7c-1.8,-1.8,-4.2,-2.8,-6.7,-2.8c0,0,-.1,0,-.2,0c-2.6,0,-5.1,1.1,-6.9,2.9c-1.9,1.8,-2.9,4.3,-2.9,6.9c-.1,2.7,1,5.2,2.9,7.1v-.2c1.8,1.9,4.3,2.9,6.9,2.9Zm-.1,2.2c-3.1,0,-6.1,-1.3,-8.3,-3.5c-2.3,-2.2,-3.6,-5.3,-3.5,-8.4c0,-3.1,1.2,-6.2,3.5,-8.4v-.1c2.1,-2.2,5.1,-3.5,8.2,-3.5c.1,0,.2,0,.2,0c.1,0,.2,0,.3,0c3.1,0,6,1.3,8.1,3.4c2.3,2.3,3.6,5.4,3.6,8.6c-.1,6.6,-5.4,11.9,-12,11.9h-.1Z" /></clipPath>
<clipPath id="c9_1"><path d="M1739,408.2v-3.3c4.3,-2.3,7,-6.9,7,-11.8c0,-5,-2.7,-9.5,-7,-11.9V318.1h-20.8c-.5,0,-1,.4,-1,1v88.2c0,.5,.5,.9,1,.9Zm-20.8,.8c-1,0,-1.7,-.8,-1.7,-1.7V319.1c-.1,-.5,.1,-.9,.4,-1.3c.4,-.3,.8,-.5,1.3,-.5h29.9c.3,0,.4,.2,.4,.4v90.9c0,.2,-.1,.4,-.4,.4Z" /></clipPath>
<clipPath id="c10_1"><path d="M1745,344.2q-.1,0,-.1,0v-1.1c.2,0,.3,0,.4,-.1v.1c.1,-.1,.2,-.2,.3,-.3c.1,-.1,.1,-.2,.1,-.3c.1,-.2,.1,-.3,0,-.5c.1,-.1,.1,-.2,0,-.3c0,-.1,0,-.2,0,-.3c-.1,-.1,-.2,-.2,-.2,-.2c-.1,-.1,-.2,-.1,-.4,-.1c-.1,0,-.2,0,-.3,.1c-.1,.1,-.2,.2,-.2,.3c-.1,.2,-.1,.3,-.2,.5c0,.2,-.1,.4,-.1,.5c0,.2,-.1,.4,-.2,.6c0,.2,-.1,.3,-.2,.5c-.3,.3,-.6,.4,-1,.4h-.1c-.2,0,-.4,0,-.6,-.1c-.2,-.1,-.3,-.3,-.5,-.5c-.1,-.1,-.2,-.4,-.3,-.6c0,-.2,-.1,-.4,-.1,-.6c0,-.3,.1,-.6,.1,-.8c.1,-.2,.2,-.5,.3,-.7c.2,-.1,.3,-.3,.5,-.4c.2,-.1,.5,-.2,.7,-.2c0,0,.1,0,.1,0v1.1c-.2,0,-.3,.1,-.4,.1c-.1,.1,-.2,.1,-.2,.2c-.1,.1,-.1,.2,-.2,.3c0,.2,0,.3,0,.4c0,.1,0,.2,0,.3q.1,.1,.2,.2c0,.1,.1,.2,.1,.2q.1,0,.2,0c0,0,.1,0,.1,0q.1,0,.1,0q.1,0,.2,0c0,-.1,.1,-.1,.1,-.2c.1,-.2,.1,-.3,.2,-.5l.2,-.8c0,0,0,-.2,.1,-.3c0,-.2,.1,-.4,.2,-.6c.1,-.1,.3,-.3,.5,-.4c.2,-.1,.4,-.2,.6,-.2c0,0,.1,0,.1,0c.2,0,.4,.1,.6,.2c.2,.1,.4,.2,.5,.4c.2,.2,.3,.4,.4,.6c.1,.3,.1,.6,.1,.9c0,.3,0,.6,-.1,.9c-.1,.2,-.2,.4,-.3,.6c-.2,.2,-.4,.4,-.6,.5c-.2,.1,-.5,.2,-.7,.2Z" /></clipPath>
<clipPath id="c11_1"><path d="M1744.6,338v-1.3l-1.9,.7l1.9,.6Zm2,1.8l-5.1,-1.9v-1.2l5.1,-1.9V336l-1.2,.4v1.9l1.2,.4v1.1Z" /></clipPath>
<clipPath id="c12_1"><path d="M1743.6,364.4v-1.1c0,-.2,-.1,-.4,-.2,-.5c-.1,-.1,-.2,-.2,-.4,-.2q-.1,0,-.2,0c0,0,-.1,0,-.1,0c-.1,0,-.2,.1,-.2,.2q-.1,.1,-.1,.2c0,.1,0,.2,0,.3v1.1Zm2.1,.1v-1.3c0,-.1,0,-.2,0,-.3c-.1,-.1,-.1,-.2,-.1,-.2c-.1,-.1,-.2,-.2,-.2,-.2q-.1,0,-.2,0q-.1,0,-.2,0c-.2,0,-.4,0,-.5,.2c-.1,.2,-.2,.4,-.2,.6v1.2Zm-4.3,1l.1,-2.4c0,-.2,0,-.4,0,-.6c.1,-.2,.1,-.4,.2,-.5c.1,-.2,.3,-.3,.4,-.4c.2,0,.4,-.1,.6,-.1h.1c.2,0,.4,.1,.5,.2c.2,.1,.4,.3,.5,.5c0,-.3,.2,-.5,.4,-.7c.3,-.1,.5,-.2,.8,-.2c0,0,.1,0,.1,0c.2,0,.4,0,.6,.1c.2,.1,.3,.3,.5,.4c.1,.2,.2,.4,.2,.6c.1,.2,.1,.4,.1,.7v2.4Z" /></clipPath>
<clipPath id="c13_1"><path d="M1741.5,361.1v-1.3l2,-1.1l-2,-1.2v-1.3l3.1,1.9h1.9v1.1h-1.9l-3.1,1.9Z" /></clipPath>
<clipPath id="c14_1"><path d="M1727.9,346.9c-4.5,0,-8.1,-3.6,-8.1,-8.1c0,-4.4,3.6,-8.1,8.1,-8.1c4.5,0,8.1,3.7,8.1,8.1c0,4.5,-3.6,8.1,-8.1,8.1Z" /></clipPath>
<clipPath id="c15_1"><path d="M1728,346.2c.9,0,1.8,-.2,2.7,-.5c2.7,-1.2,4.5,-3.8,4.5,-6.8c0,-1.9,-.8,-3.8,-2.2,-5.2c-1.3,-1.3,-3.1,-2,-4.9,-2q-.1,0,-.2,0c-4,0,-7.3,3.2,-7.3,7.2h.1c-.1,2,.7,3.8,2.1,5.1c1.4,1.5,3.3,2.2,5.2,2.2Zm-.1,1.6c-2.3,0,-4.6,-1,-6.2,-2.6c-1.7,-1.7,-2.6,-3.9,-2.6,-6.3h-.1c0,-2.3,.9,-4.6,2.6,-6.3c1.6,-1.6,3.8,-2.5,6.2,-2.5h.1c0,0,.1,0,.2,0c2.2,0,4.4,.9,6,2.5c1.7,1.7,2.6,3.9,2.6,6.3c0,4.8,-3.9,8.8,-8.7,8.9c0,0,-.1,0,-.1,0Z" /></clipPath>
<clipPath id="c16_1"><path d="M1726.6,343.5v-.7c-2,-.2,-3.4,-1.9,-3.4,-3.9c0,-1.3,.5,-2.5,1.4,-3.4c.8,-.7,1.9,-1.2,3.1,-1.2c.1,0,.2,0,.3,0q.1,0,.2,0c1.1,0,2.3,.5,3.1,1.3c.9,.9,1.4,2.1,1.4,3.3c.1,2,-1.4,3.8,-3.4,3.9v-2.2c1.2,0,1.6,-.8,1.6,-1.9c0,-1.1,-1.2,-2.1,-3,-2.1c-1.7,0,-2.8,.7,-2.8,2c-.1,.5,0,1,.3,1.3c.3,.4,.7,.6,1.2,.7v-.7l1.7,1.8l-1.7,1.8Z" /></clipPath>
<clipPath id="c17_1"><path d="M1728.1,368.8c-4.5,0,-8.2,-3.7,-8.2,-8.2c0,-4.6,3.7,-8.2,8.2,-8.2c4.5,0,8.2,3.6,8.2,8.2c0,4.5,-3.7,8.2,-8.2,8.2Z" /></clipPath>
<clipPath id="c18_1"><path d="M1725.7,362.9c-.1,0,-.3,0,-.4,-.1c-.1,-.1,-.1,-.3,-.1,-.4v-3.6c0,-.4,.2,-.6,.5,-.6h3.7v1h4.2v2.7h-4.2v1h-3.7Z" /></clipPath>
<clipPath id="c19_1"><path d="M1723.4,361.8c-.7,0,-1.2,-.5,-1.2,-1.2c0,-.7,.5,-1.3,1.2,-1.3c.7,0,1.3,.6,1.3,1.3c0,.7,-.6,1.2,-1.3,1.2Z" /></clipPath>
<clipPath id="c20_1"><path d="M1727.9,367.8c4,0,7.2,-3.3,7.2,-7.3c.1,-1.9,-.7,-3.8,-2.1,-5.1c-1.3,-1.3,-3.1,-2.1,-4.9,-2.1q-.1,0,-.2,0c-4,0,-7.3,3.3,-7.3,7.3v-.1c0,2,.8,3.8,2.2,5.1c1.3,1.4,3.1,2.2,5.1,2.2Zm0,1.6c-2.3,0,-4.6,-.9,-6.2,-2.6c-1.7,-1.7,-2.6,-3.9,-2.6,-6.3v.1c0,-2.4,.9,-4.7,2.6,-6.3c1.6,-1.7,3.9,-2.6,6.2,-2.6c0,0,.1,0,.1,0q.1,0,.2,0c2.3,0,4.4,.9,6,2.5c1.7,1.7,2.7,4,2.6,6.3c0,4.9,-3.9,8.9,-8.8,8.9q-.1,0,-.1,0Z" /></clipPath>
<clipPath id="c21_1"><path d="M1408.1,466.1V406.6h-15.7v59.5Zm-399.4,110V296.5h420.2V576.1Z" /></clipPath>
<clipPath id="c22_1"><path d="M1392.4,466.1V406.6h15.7v59.5Z" /></clipPath>
<clipPath id="c23_1"><path d="M314.4,576.6V415h15.8V355.5H314.4V193.9H894.9V576.6Z" /></clipPath>
<clipPath id="c24_1"><path d="M314.4,415V355.5h15.8V415Z" /></clipPath>
<clipPath id="c25_1"><path d="M577,612V502.2H713.8v65.2H698V612Z" /></clipPath>
<clipPath id="c26_1"><path d="M698,612V567.4h15.8V612Z" /></clipPath>
<clipPath id="c27_1"><path d="M869.7,422.7V406.9H802.6v15.8ZM767.4,443.4V313.5H904.9V443.4Z" /></clipPath>
<clipPath id="c28_1"><path d="M802.6,422.7V406.9h67.1v15.8Z" /></clipPath>
<clipPath id="c29_1"><path d="M710.6,636.1V620.3H651.1v15.8ZM560.2,656.8V559.7H801.5v97.1Z" /></clipPath>
<clipPath id="c30_1"><path d="M651.1,636.1V620.3h59.5v15.8Z" /></clipPath>
<clipPath id="c31_1"><path d="M914.9,636.1V620.3H878.4v15.8Zm-147,20.7V559.5h257.6v97.3Z" /></clipPath>
<clipPath id="c32_1"><path d="M878.4,636.1V620.3h36.5v15.8Z" /></clipPath>
<clipPath id="c33_1"><path d="M1142.2,636.2V620.5h-59.5v15.7ZM991.8,656.9V559.4h241.3v97.5Z" /></clipPath>
<clipPath id="c34_1"><path d="M1082.7,636.2V620.5h59.5v15.7Z" /></clipPath>

<style type="text/css"><![CDATA[

.g0_1{
fill: none;
stroke: #000000;
stroke-width: 0.7638889;
stroke-linecap: butt;
stroke-linejoin: miter;
}
.g1_1{
fill: #A9B1AA;
}
.g2_1{
fill: #FFFFFF;
}
.g3_1{
}
.g4_1{
fill: none;
stroke: #000000;
stroke-width: 0.7638889;
stroke-linecap: round;
stroke-linejoin: round;
}
.g5_1{
fill: none;
stroke: #000000;
stroke-width: 0.38194445;
stroke-linecap: butt;
stroke-linejoin: miter;
}

.s1_1{
font-size: 27.50px;
font-family: Arial-Black_9;
fill: TRANSPARENT;
}
.s2_1{
font-size: 9.17px;
font-family: Arial-Black_9;
fill: TRANSPARENT;
}
.s3_1{
font-size: 9.17px;
font-family: ArialMT_a;
fill: TRANSPARENT;
}
.s4_1{
font-size: 27.50px;
font-family: ArialMT_a;
fill: TRANSPARENT;
}
.s5_1{
font-size: 13.75px;
font-family: ArialMT_a;
fill: TRANSPARENT;
}
text::-moz-selection {
	color: transparent;
	background: rgba(0, 106, 173, 0.4);
}
text::selection {
	color: transparent;
	background: rgba(0, 106, 173, 0.4);
}

]]></style>

</defs>
<path d="M0,0
L0,1210
L1870,1210
L1870,0 Z " 
fill="#FFFFFF" stroke="none" />
<path d="M82.5,55H1691.3V1155H82.5V55ZM1705,1113.8h96.3" class="g0_1" />
<g clip-path="url(#c0_1)">
<g fill="#000000" >
<use xlink:href="#f0_7" transform="matrix(18,0,0,18,1708.8,1155)" />
<use xlink:href="#f0_3" transform="matrix(18,0,0,18,1730.7,1155)" />
<use xlink:href="#f0_4" transform="matrix(18,0,0,18,1739.8,1155)" />
<use xlink:href="#f0_5" transform="matrix(18,0,0,18,1758.2,1155)" />
</g>
</g>
<g clip-path="url(#c1_1)">
<g fill="#000000" >
<use xlink:href="#f0_a" transform="matrix(0,-6,6,0,1727.2,857.2)" />
</g>
</g>
<text transform="matrix(1, 0, 0, 1, 1708, 1155)" dx="0,-0.5,0,0" class="s1_1">C.09</text>
<g clip-path="url(#c1_1)">
<g fill="#000000" >
<use xlink:href="#f0_e" transform="matrix(0,-6,6,0,1727.2,853.7)" />
<use xlink:href="#f0_e" transform="matrix(0,-6,6,0,1727.2,847.1)" />
<use xlink:href="#f0_g" transform="matrix(0,-6,6,0,1727.2,840.4)" />
<use xlink:href="#f0_9" transform="matrix(0,-6,6,0,1727.2,832.8)" />
<use xlink:href="#f0_8" transform="matrix(0,-6,6,0,1727.2,823.1)" />
<use xlink:href="#f0_6" transform="matrix(0,-6,6,0,1727.2,816.4)" />
<use xlink:href="#f0_f" transform="matrix(0,-6,6,0,1727.2,809.9)" />
<use xlink:href="#f0_9" transform="matrix(0,-6,6,0,1727.2,803.3)" />
</g>
</g>
<g clip-path="url(#c2_1)">
<g fill="#000000" >
<use xlink:href="#f0_e" transform="matrix(0,-6,6,0,1726.4,578.3)" />
</g>
</g>
<text transform="matrix(0, -1, 1, 0, 1727, 857)" dx="0,0,0,0,0,0,0,-0.4,-0.6,0" class="s2_1">ISSUE DATE</text>
<g clip-path="url(#c2_1)">
<g fill="#000000" >
<use xlink:href="#f0_a" transform="matrix(0,-6,6,0,1726.4,571.6)" />
<use xlink:href="#f0_f" transform="matrix(0,-6,6,0,1726.4,568.1)" />
<use xlink:href="#f0_9" transform="matrix(0,-6,6,0,1726.4,561.5)" />
<use xlink:href="#f0_6" transform="matrix(0,-6,6,0,1726.4,551.8)" />
<use xlink:href="#f0_8" transform="matrix(0,-6,6,0,1726.4,544.6)" />
<use xlink:href="#f0_8" transform="matrix(0,-6,6,0,1726.4,537.5)" />
<use xlink:href="#f0_d" transform="matrix(0,-6,6,0,1726.4,530.4)" />
<use xlink:href="#f0_9" transform="matrix(0,-6,6,0,1726.4,523.2)" />
<use xlink:href="#f0_e" transform="matrix(0,-6,6,0,1726.4,516.6)" />
<use xlink:href="#f0_e" transform="matrix(0,-6,6,0,1726.4,510)" />
</g>
</g>
<g clip-path="url(#c3_1)">
<g fill="#000000" >
<use xlink:href="#f0_c" transform="matrix(0,-6,6,0,1727.2,747.1)" />
</g>
</g>
<text transform="matrix(0, -1, 1, 0, 1726, 578)" class="s2_1">SITE ADDRESS</text>
<g clip-path="url(#c3_1)">
<g fill="#000000" >
<use xlink:href="#f0_h" transform="matrix(0,-6,6,0,1727.2,739.6)" />
<use xlink:href="#f0_b" transform="matrix(0,-6,6,0,1727.2,730.4)" />
<use xlink:href="#f0_9" transform="matrix(0,-6,6,0,1727.2,722.8)" />
<use xlink:href="#f0_d" transform="matrix(0,-6,6,0,1727.2,716.2)" />
</g>
</g>
<g clip-path="url(#c4_1)">
<g fill="#000000" >
<use xlink:href="#f1_n" transform="matrix(0,-6,6,0,1775.9,409.2)" />
</g>
</g>
<text transform="matrix(0, -1, 1, 0, 1727, 747)" dx="0,-0.2,0,0,0" class="s2_1">OWNER</text>
<g clip-path="url(#c4_1)">
<g fill="#000000" >
<use xlink:href="#f1_u" transform="matrix(0,-6,6,0,1775.9,403.6)" />
<use xlink:href="#f1_v" transform="matrix(0,-6,6,0,1775.9,398.5)" />
<use xlink:href="#f1_13" transform="matrix(0,-6,6,0,1775.9,396.5)" />
<use xlink:href="#f1_17" transform="matrix(0,-6,6,0,1775.9,389.3)" />
<use xlink:href="#f1_10" transform="matrix(0,-6,6,0,1775.9,382.7)" />
<use xlink:href="#f1_12" transform="matrix(0,-6,6,0,1775.9,377.6)" />
<use xlink:href="#f1_w" transform="matrix(0,-6,6,0,1775.9,374.6)" />
<use xlink:href="#f1_v" transform="matrix(0,-6,6,0,1775.9,367.4)" />
<use xlink:href="#f1_13" transform="matrix(0,-6,6,0,1775.9,365.4)" />
<use xlink:href="#f1_x" transform="matrix(0,-6,6,0,1775.9,358.3)" />
<use xlink:href="#f1_v" transform="matrix(0,-6,6,0,1775.9,356.2)" />
<use xlink:href="#f1_q" transform="matrix(0,-6,6,0,1775.9,354.2)" />
<use xlink:href="#f1_s" transform="matrix(0,-6,6,0,1775.9,349.6)" />
<use xlink:href="#f1_z" transform="matrix(0,-6,6,0,1775.9,344.5)" />
<use xlink:href="#f1_13" transform="matrix(0,-6,6,0,1775.9,339.4)" />
<use xlink:href="#f1_s" transform="matrix(0,-6,6,0,1775.9,334.8)" />
<use xlink:href="#f1_r" transform="matrix(0,-6,6,0,1775.9,329.7)" />
<use xlink:href="#f1_15" transform="matrix(0,-6,6,0,1775.9,322.1)" />
<use xlink:href="#f1_z" transform="matrix(0,-6,6,0,1775.9,317)" />
<use xlink:href="#f1_r" transform="matrix(0,-6,6,0,1775.9,311.9)" />
<use xlink:href="#f1_s" transform="matrix(0,-6,6,0,1775.9,306.8)" />
<use xlink:href="#f1_12" transform="matrix(0,-6,6,0,1775.9,301.7)" />
<use xlink:href="#f1_o" transform="matrix(0,-6,6,0,1775.9,296.1)" />
<use xlink:href="#f1_i" transform="matrix(0,-6,6,0,1775.9,288.5)" />
<use xlink:href="#f1_12" transform="matrix(0,-6,6,0,1775.9,281.8)" />
<use xlink:href="#f1_s" transform="matrix(0,-6,6,0,1775.9,278.8)" />
<use xlink:href="#f1_o" transform="matrix(0,-6,6,0,1775.9,273.7)" />
<use xlink:href="#f1_14" transform="matrix(0,-6,6,0,1775.9,268.6)" />
<use xlink:href="#f1_v" transform="matrix(0,-6,6,0,1775.9,266)" />
<use xlink:href="#f1_16" transform="matrix(0,-6,6,0,1775.9,264)" />
<use xlink:href="#f1_s" transform="matrix(0,-6,6,0,1775.9,259.4)" />
<use xlink:href="#f1_i" transform="matrix(0,-6,6,0,1775.9,251.8)" />
<use xlink:href="#f1_10" transform="matrix(0,-6,6,0,1775.9,245.2)" />
<use xlink:href="#f1_y" transform="matrix(0,-6,6,0,1775.9,240.1)" />
<use xlink:href="#f1_y" transform="matrix(0,-6,6,0,1775.9,232.4)" />
<use xlink:href="#f1_10" transform="matrix(0,-6,6,0,1775.9,224.8)" />
<use xlink:href="#f1_z" transform="matrix(0,-6,6,0,1775.9,219.7)" />
<use xlink:href="#f1_13" transform="matrix(0,-6,6,0,1775.9,214.6)" />
<use xlink:href="#f1_h" transform="matrix(0,-6,6,0,1785.3,409.2)" />
</g>
</g>
<text transform="matrix(0, -1, 1, 0, 1775, 409)" class="s3_1">This work is licensed under a Creative Commons </text>
<g clip-path="url(#c4_1)">
<g fill="#000000" >
<use xlink:href="#f1_14" transform="matrix(0,-6,6,0,1785.3,403.1)" />
<use xlink:href="#f1_14" transform="matrix(0,-6,6,0,1785.3,400.5)" />
<use xlink:href="#f1_12" transform="matrix(0,-6,6,0,1785.3,398)" />
<use xlink:href="#f1_v" transform="matrix(0,-6,6,0,1785.3,394.9)" />
<use xlink:href="#f1_p" transform="matrix(0,-6,6,0,1785.3,392.9)" />
<use xlink:href="#f1_15" transform="matrix(0,-6,6,0,1785.3,387.8)" />
<use xlink:href="#f1_14" transform="matrix(0,-6,6,0,1785.3,382.7)" />
<use xlink:href="#f1_v" transform="matrix(0,-6,6,0,1785.3,380.2)" />
<use xlink:href="#f1_10" transform="matrix(0,-6,6,0,1785.3,378.1)" />
<use xlink:href="#f1_z" transform="matrix(0,-6,6,0,1785.3,373)" />
<use xlink:href="#f1_5" transform="matrix(0,-6,6,0,1785.3,367.9)" />
<use xlink:href="#f1_m" transform="matrix(0,-6,6,0,1785.3,362.3)" />
<use xlink:href="#f1_u" transform="matrix(0,-6,6,0,1785.3,356.2)" />
<use xlink:href="#f1_o" transform="matrix(0,-6,6,0,1785.3,351.1)" />
<use xlink:href="#f1_12" transform="matrix(0,-6,6,0,1785.3,346)" />
<use xlink:href="#f1_s" transform="matrix(0,-6,6,0,1785.3,343)" />
<use xlink:href="#f1_h" transform="matrix(0,-6,6,0,1785.3,337.9)" />
<use xlink:href="#f1_x" transform="matrix(0,-6,6,0,1785.3,331.8)" />
<use xlink:href="#f1_v" transform="matrix(0,-6,6,0,1785.3,329.7)" />
<use xlink:href="#f1_w" transform="matrix(0,-6,6,0,1785.3,327.7)" />
<use xlink:href="#f1_s" transform="matrix(0,-6,6,0,1785.3,323.1)" />
<use xlink:href="#f1_c" transform="matrix(0,-6,6,0,1785.3,315.5)" />
<use xlink:href="#f1_6" transform="matrix(0,-6,6,0,1785.3,310.4)" />
<use xlink:href="#f1_8" transform="matrix(0,-6,6,0,1785.3,307.8)" />
<use xlink:href="#f1_k" transform="matrix(0,-6,6,0,1785.3,300.2)" />
<use xlink:href="#f1_z" transform="matrix(0,-6,6,0,1785.3,297.6)" />
<use xlink:href="#f1_14" transform="matrix(0,-6,6,0,1785.3,292.5)" />
<use xlink:href="#f1_s" transform="matrix(0,-6,6,0,1785.3,290)" />
<use xlink:href="#f1_12" transform="matrix(0,-6,6,0,1785.3,284.9)" />
<use xlink:href="#f1_z" transform="matrix(0,-6,6,0,1785.3,281.8)" />
<use xlink:href="#f1_o" transform="matrix(0,-6,6,0,1785.3,276.7)" />
<use xlink:href="#f1_14" transform="matrix(0,-6,6,0,1785.3,271.6)" />
<use xlink:href="#f1_v" transform="matrix(0,-6,6,0,1785.3,269.1)" />
<use xlink:href="#f1_10" transform="matrix(0,-6,6,0,1785.3,267)" />
<use xlink:href="#f1_z" transform="matrix(0,-6,6,0,1785.3,261.9)" />
<use xlink:href="#f1_o" transform="matrix(0,-6,6,0,1785.3,256.8)" />
<use xlink:href="#f1_x" transform="matrix(0,-6,6,0,1785.3,251.7)" />
<use xlink:href="#f1_l" transform="matrix(0,-6,6,0,1785.3,247.2)" />
<use xlink:href="#f1_v" transform="matrix(0,-6,6,0,1785.3,242.1)" />
<use xlink:href="#f1_q" transform="matrix(0,-6,6,0,1785.3,240)" />
<use xlink:href="#f1_s" transform="matrix(0,-6,6,0,1785.3,235.4)" />
<use xlink:href="#f1_z" transform="matrix(0,-6,6,0,1785.3,230.3)" />
<use xlink:href="#f1_13" transform="matrix(0,-6,6,0,1785.3,225.2)" />
<use xlink:href="#f1_s" transform="matrix(0,-6,6,0,1785.3,220.7)" />
<use xlink:href="#f1_u" transform="matrix(0,-6,6,0,1794.8,409.2)" />
</g>
</g>
<text transform="matrix(0, -1, 1, 0, 1785, 409)" class="s3_1">Attribution- ShareAlike 4.0 International License</text>
<g clip-path="url(#c4_1)">
<g fill="#000000" >
<use xlink:href="#f1_14" transform="matrix(0,-6,6,0,1794.8,404.1)" />
<use xlink:href="#f1_14" transform="matrix(0,-6,6,0,1794.8,401.6)" />
<use xlink:href="#f1_11" transform="matrix(0,-6,6,0,1794.8,399)" />
<use xlink:href="#f1_g" transform="matrix(0,-6,6,0,1794.8,393.9)" />
<use xlink:href="#f1_7" transform="matrix(0,-6,6,0,1794.8,391.4)" />
<use xlink:href="#f1_7" transform="matrix(0,-6,6,0,1794.8,388.8)" />
<use xlink:href="#f1_q" transform="matrix(0,-6,6,0,1794.8,386.3)" />
<use xlink:href="#f1_12" transform="matrix(0,-6,6,0,1794.8,381.7)" />
<use xlink:href="#f1_s" transform="matrix(0,-6,6,0,1794.8,378.6)" />
<use xlink:href="#f1_o" transform="matrix(0,-6,6,0,1794.8,373.5)" />
<use xlink:href="#f1_14" transform="matrix(0,-6,6,0,1794.8,368.4)" />
<use xlink:href="#f1_v" transform="matrix(0,-6,6,0,1794.8,365.9)" />
<use xlink:href="#f1_16" transform="matrix(0,-6,6,0,1794.8,363.9)" />
<use xlink:href="#f1_s" transform="matrix(0,-6,6,0,1794.8,359.3)" />
<use xlink:href="#f1_q" transform="matrix(0,-6,6,0,1794.8,354.2)" />
<use xlink:href="#f1_10" transform="matrix(0,-6,6,0,1794.8,349.6)" />
<use xlink:href="#f1_y" transform="matrix(0,-6,6,0,1794.8,344.5)" />
<use xlink:href="#f1_y" transform="matrix(0,-6,6,0,1794.8,336.9)" />
<use xlink:href="#f1_10" transform="matrix(0,-6,6,0,1794.8,329.2)" />
<use xlink:href="#f1_z" transform="matrix(0,-6,6,0,1794.8,324.1)" />
<use xlink:href="#f1_13" transform="matrix(0,-6,6,0,1794.8,319)" />
<use xlink:href="#f1_6" transform="matrix(0,-6,6,0,1794.8,314.4)" />
<use xlink:href="#f1_10" transform="matrix(0,-6,6,0,1794.8,311.9)" />
<use xlink:href="#f1_12" transform="matrix(0,-6,6,0,1794.8,306.8)" />
<use xlink:href="#f1_t" transform="matrix(0,-6,6,0,1794.8,303.7)" />
<use xlink:href="#f1_7" transform="matrix(0,-6,6,0,1794.8,298.7)" />
<use xlink:href="#f1_x" transform="matrix(0,-6,6,0,1794.8,296.1)" />
<use xlink:href="#f1_v" transform="matrix(0,-6,6,0,1794.8,294.1)" />
<use xlink:href="#f1_q" transform="matrix(0,-6,6,0,1794.8,292)" />
<use xlink:href="#f1_s" transform="matrix(0,-6,6,0,1794.8,287.4)" />
<use xlink:href="#f1_z" transform="matrix(0,-6,6,0,1794.8,282.3)" />
<use xlink:href="#f1_13" transform="matrix(0,-6,6,0,1794.8,277.3)" />
<use xlink:href="#f1_s" transform="matrix(0,-6,6,0,1794.8,272.7)" />
<use xlink:href="#f1_13" transform="matrix(0,-6,6,0,1794.8,267.6)" />
<use xlink:href="#f1_7" transform="matrix(0,-6,6,0,1794.8,263)" />
<use xlink:href="#f1_p" transform="matrix(0,-6,6,0,1794.8,260.4)" />
<use xlink:href="#f1_18" transform="matrix(0,-6,6,0,1794.8,255.3)" />
<use xlink:href="#f1_5" transform="matrix(0,-6,6,0,1794.8,250.8)" />
<use xlink:href="#f1_13" transform="matrix(0,-6,6,0,1794.8,247.7)" />
<use xlink:href="#f1_o" transform="matrix(0,-6,6,0,1794.8,243.1)" />
<use xlink:href="#f1_7" transform="matrix(0,-6,6,0,1794.8,238)" />
<use xlink:href="#f1_c" transform="matrix(0,-6,6,0,1794.8,235.5)" />
<use xlink:href="#f1_6" transform="matrix(0,-6,6,0,1794.8,230.4)" />
<use xlink:href="#f1_8" transform="matrix(0,-6,6,0,1794.8,227.8)" />
<use xlink:href="#f1_7" transform="matrix(0,-6,6,0,1794.8,222.7)" />
</g>
</g>
<g clip-path="url(#c5_1)">
<g fill="#000000" >
<use xlink:href="#f1_j" transform="matrix(0,-18,18,0,1746.1,1096.2)" />
</g>
</g>
<text transform="matrix(0, -1, 1, 0, 1794, 409)" class="s3_1">http://creativecommons.org/licenses/by-sa/4.0/</text>
<g clip-path="url(#c5_1)">
<g fill="#000000" >
<use xlink:href="#f1_o" transform="matrix(0,-18,18,0,1746.1,1074.8)" />
<use xlink:href="#f1_p" transform="matrix(0,-18,18,0,1746.1,1059.5)" />
<use xlink:href="#f1_x" transform="matrix(0,-18,18,0,1746.1,1044.2)" />
<use xlink:href="#f1_s" transform="matrix(0,-18,18,0,1746.1,1038.1)" />
<use xlink:href="#f1_m" transform="matrix(0,-18,18,0,1777.6,1096.2)" />
</g>
</g>
<text transform="matrix(0, -1, 1, 0, 1746, 1096)" class="s4_1">Gable</text>
<g clip-path="url(#c5_1)">
<g fill="#000000" >
<use xlink:href="#f1_u" transform="matrix(0,-18,18,0,1777.6,1077.8)" />
<use xlink:href="#f1_s" transform="matrix(0,-18,18,0,1777.6,1062.5)" />
<use xlink:href="#f1_o" transform="matrix(0,-18,18,0,1777.6,1047.2)" />
<use xlink:href="#f1_14" transform="matrix(0,-18,18,0,1777.6,1031.9)" />
<use xlink:href="#f1_u" transform="matrix(0,-18,18,0,1777.6,1024.3)" />
<use xlink:href="#f1_v" transform="matrix(0,-18,18,0,1777.6,1009)" />
<use xlink:href="#f1_z" transform="matrix(0,-18,18,0,1777.6,1002.9)" />
<use xlink:href="#f1_t" transform="matrix(0,-18,18,0,1777.6,987.6)" />
</g>
</g>
<text transform="matrix(0, -1, 1, 0, 1777, 1096)" class="s4_1">Sheathing</text>
<image preserveAspectRatio="none" x="1705" y="55" width="96" height="84" xlink:href="1/img/1.png" />
<g clip-path="url(#c6_1)">
<path d="M1716.7,408.6h31.4V317.5h-31.4v91.1Z" class="g1_1" />
</g>
<g clip-path="url(#c7_1)">
<path d="M1720.9,403.5h20.9V382.6h-20.9v20.9Z" class="g2_1" />
</g>
<g clip-path="url(#c8_1)">
<path d="M1719.5,404.9h24v-24h-24v24Z" class="g3_1" />
</g>
<g clip-path="url(#c9_1)">
<path d="M1716.4,409.1h32.2V317.3h-32.2v91.8Z" class="g3_1" />
</g>
<g clip-path="url(#c10_1)">
<path d="M1741.3,344.2h5.5v-4.4h-5.5v4.4Z" class="g2_1" />
</g>
<g clip-path="url(#c11_1)">
<path d="M1741.5,339.8h5.1v-5.1h-5.1v5.1Z" class="g2_1" />
</g>
<g clip-path="url(#c12_1)">
<path d="M1741.3,365.7h5.3v-4.6h-5.3v4.6Z" class="g2_1" />
</g>
<g clip-path="url(#c13_1)">
<path d="M1741.5,361.1h5.1v-4.9h-5.1v4.9Z" class="g2_1" />
</g>
<g clip-path="url(#c14_1)">
<path d="M1719.7,347h16.5V330.7h-16.5V347Z" class="g2_1" />
</g>
<g clip-path="url(#c15_1)">
<path d="M1718.9,347.9h17.8v-18h-17.8v18Z" class="g3_1" />
</g>
<g clip-path="url(#c16_1)">
<path d="M1723.1,343.5h9.8v-9.3h-9.8v9.3Z" class="g3_1" />
</g>
<g clip-path="url(#c17_1)">
<path d="M1719.8,368.8h16.5V352.3h-16.5v16.5Z" class="g2_1" />
</g>
<g clip-path="url(#c18_1)">
<path d="M1725.2,362.9h8.6v-4.7h-8.6v4.7Z" class="g3_1" />
</g>
<g clip-path="url(#c19_1)">
<path d="M1722,361.8h2.8v-2.5H1722v2.5Z" class="g3_1" />
</g>
<g clip-path="url(#c20_1)">
<path d="M1719.1,369.5h17.8V351.6h-17.8v17.9Z" class="g3_1" />
</g>
<path d="M594.7,1033.1v5.8m28,8.8v-14.6m97.1,9.5v5m28,0v-5m145.5,-9.7v5.9m28,8.7v-14.6m121.6,9.6v5m28,0v-5m121.1,-9.7v5.8m-568.8,47v3.4m-.3,-12.3l-.2,-6.6H603.9m18.8,-4.6v4.6m125.2,16.6l-.1,-6.6h-49m49,-4.6v4.6m174,5.4v3.5m-.5,-19h-49m49.2,6.6l-.2,-6.6m0,-4.7v4.7m149.6,10h-49m49.2,6.6l-.2,-6.6m0,-4.7v4.7m118.6,-10.2l-18.5,.1m126.2,-20.2v-2.3m-674.4,-5.7l249.5,-.1m49.1,0l249.6,-.1m54.7,-.1h.2m-9.6,-482V531.1M881.6,217.1l-.2,-8.9m-52.6,61.3l-.2,-8.9M776,321.8l-.2,-8.9m-52.6,61.2l-.2,-8.9M617.7,478.8l-.3,-8.9m53.1,-43.4l-.3,-8.9m-93.5,97l-.1,-4.2M911.5,208.2l.2,8.9m52.6,43.4l.2,8.9m52.6,43.4l.2,8.9m52.6,43.4l.2,8.9m105.3,95.6l.3,8.9m-53,-61.1l.2,8.8m93.4,83.9l.1,4.3M894.7,200.9h3.5m.2,9.8l-.2,-9.8m-396,392.6l58.3,-57.8m-74.4,57.8h16.1m0,0v.9m-15.9,8.7h16.2l58,-57.5m-58,57.5v.9M488.9,705.6H505l54,-53.4m-54,53.4l.1,1m-15.7,18.7h16.1l53.5,-53m-53.5,53l.1,.9m-.3,-11L559,662m-69.9,53.2h16.2m0,0v1M488.6,695.6h16.2L559,641.9m-54.2,53.7v.9m-16.4,-11h16.1l54.5,-54m-54.5,54l.1,.9m-16.5,-11h16.2L559,621.2m-54.7,54.2v1m-16.4,-11H504l55,-54.5m-55,54.5v.9m-16.4,-11h16.2L559,600.6m-55.2,54.7v.9m-16.5,-11h16.2L559,590.3m-55.5,54.9v1m-16.4,-11h16.2L559,580m-55.7,55.2v.9m-16.5,-11H503l56,-55.5m-56,55.5v.9M486.6,615h16.2l57.9,-57.4M502.8,615v1M486.3,605h16.2l58,-57.5m-58,57.5v.9M485.8,583.4H502l58.5,-58m-58.5,58v.9m69.3,-69.7L894.7,194.1M1308.8,635v19.9m-16.1,1v-1l-57.4,-56.7m73.5,56.7h-16.1m16.2,1l-.1,-1m-1,-60.2v20m-16.1,.9v-.9l-58.5,-58m74.6,58h-16.1m16.2,.9l-.1,-.9m.5,.1v20m-16.1,.9v-.9L1234.8,578m73.5,56.8h-16.1m16.2,.9l-.1,-.9m-1,-61.6v19.9m0,0h-16.2m16.2,.9v-.9m-16.2,1v-1l-58.5,-57.9m78,169.8v19.9m-16.1,1l-.1,-1l-57.3,-56.7m73.5,56.7h-16.2m16.2,1v-1m-3.1,-142.1v19.9m-16.1,.9v-.9m0,0l-58.5,-57.9m74.6,57.9h-16.1m16.2,.9l-.1,-.9m-.5,-39.6V583m-16.1,1v-1l-58.5,-57.9M1307,583h-16.1m16.2,1l-.1,-1m-85.5,-68.6L898.2,194.1m412.1,500.8v20m0,0h-16.1m16.2,.9l-.1,-.9m-16.1,.9v-.9l-57.3,-56.8m73.2,27.2v20m-16.1,.9l-.1,-.9l-57.3,-56.8m73.5,56.8h-16.2m16.2,.9v-.9m-.8,-50.2v20m-16.1,.9v-.9l-57.3,-56.8m73.4,56.8h-16.1m16.2,.9l-.1,-.9m.6,.2v19.9m-16.2,.9v-.9l-57.3,-56.8m73.5,56.8h-16.2m16.2,.9v-.9m-.3,-30v19.9m-16.1,1l-.1,-1l-57.3,-56.7m73.5,56.7h-16.2m16.2,1v-1m-.5,-40V665m-16.2,.9V665l-57.3,-56.8m73.5,56.8h-16.2m16.2,.9V665m-.5,-40.1v20m-16.2,.9v-.9l-57.3,-56.8m73.5,56.8h-16.2m16.2,.9v-.9m-.5,-40.1v19.9m-16.2,1v-1m0,0L1234.6,568m73.5,56.7h-16.2m16.2,1v-1m-.5,-40.1v20m-16.2,.9v-.9m0,0l-58.5,-57.9m74.7,57.9h-16.2m16.2,.9v-.9m-75.1,-78.4l.1,5.2m.4,16.3l.2,5.2m.1,4.9v1.6m-17.2,-38.1h16.3m-655.6,.3l.2,9.8m-.2,-9.8v-7m-16.3,7h16.3m655.6,28h-7m7.2,9.8l-.2,-9.8m-664.9,.3h-7m7,0V524.5m.2,35.2l-.2,-9.8m666.9,484.2l.4,13.3M784.7,1031.8l447.9,-.2m-671.9,.3l224,-.1m449.7,-28.5V559.4m-1.8,472.2h1.8m0,-28.3v30.8M559,1031.9h1.7M584.1,1034.2v-1.1m641.6,.8v-1.1M898.2,200.9v-6.8m334.6,342.1l.1,4.7m-.5,8.7V525.1M893.2,205.9l1.6,-1.6M560.5,521.6v2.9M900.2,205.9l-1.8,-1.7M567.7,1033.1h16.4m641.6,1.9v-2.2m-16.4,0h16.4m-621.8,52.8h19.3m.1,3.4l-.1,-3.4m-19.3,-20.1h18.8m.2,6.6l-.2,-6.6m.1,-23.8v-8.1m0,9.1v-1m76,33.8h49m.1,6.6l-.1,-6.6m0,-27.9v-4m125,41.9h49m.1,3.5l-.1,-3.5m-49.5,-20.1l49,-.1m.2,6.6l-.2,-6.6m.1,-23.7v-8.1m0,9v-.9m100.5,33.8l49,-.1m.2,6.6l-.2,-6.6m.1,-27.8v-4m100.5,41.9h18M1171,1065.2h18.5M575.8,1057l7.3,.1m-14.5,0l7.2,-.1m-14,.5l6.8,-.4m-12.5,1l5.7,-.6m-10.2,1.4l4.5,-.8m-7.2,1.7l2.7,-.9m-3.7,1.9l1,-1m54,0l1,1m-3.8,-1.9l2.8,.9m-7.2,-1.7l4.4,.8m-10.3,-1.4l5.9,.6m-12.6,-1l6.7,.4m654.7,2l1,1m-3.8,-1.9l2.8,.9m-7.2,-1.7l4.4,.8m-10.3,-1.4l5.9,.6m-12.6,-1l6.7,.4m-14,-.5l7.3,.1m-14.5,0l7.2,-.1m-14,.5l6.8,-.4m-12.5,1l5.7,-.6m-10.2,1.4l4.5,-.8m-7.2,1.7l2.7,-.9m-3.7,1.9l1,-1m42.5,-12.1l-.3,-13.3m-227,-723.9l3,2.9m-224,.1l2.9,-2.9M894.9,210.7h3.5m6.9,0l6.4,6.4m-30.1,0l6.4,-6.4M776,321.8l8.7,-8.6M577,531.4v-6.9m0,-5.4l11.4,-11.3M1058.5,362.5l11.6,11.5m-61.4,-60.9l8.6,8.6m146.8,145.4l11.6,11.4m29.3,29l11.1,11M1111.3,414.8l11.6,11.4m93.4,133.2V534.2m0,-2.8v-.3M881.4,208.2l11.5,-11.4m-16,15.9l4.6,4.5m-52.9,43.4l11.6,-11.5M824.1,265l4.6,4.6m-52.9,43.3l11.6,-11.4m-16.1,15.9l4.6,4.5M723,365.2l11.6,-11.4m-16.1,15.9l4.6,4.5M617.4,469.9L629,458.5m-16.1,15.9l4.6,4.5m52.7,-61.3l11.6,-11.5M665.7,422l4.6,4.6m-93.7,83.8l11.6,-11.5m-11.3,20.5l.1,-.1M899.9,196.8l11.6,11.4m.3,9l4.4,-4.3m36.5,36.2l11.6,11.4m.3,9l4.4,-4.3m36.5,36.2l11.6,11.4m.3,9l4.4,-4.3m36.5,36.1l11.6,11.5m.3,9l4.4,-4.4m89.3,88.5l11.5,11.4m.4,9.1l4.4,-4.4m-69.1,-68.4l11.6,11.5m.3,9l4.4,-4.4m77.3,76.6l11.6,11.5M898.7,210.7v-5.4M898.2,195v-.9M560.5,522.5v-.9m672.7,36.1v-1m-.5,-20.6l-.1,-.9v-1m0,-2.8v-5.1M902.5,208.3l2.6,2.4m327.8,335v-1.9m-.5,-17.7v-1m.5,22.5v-.9m-7.3,12.7h7m-671.9,.3h7m0,488v-13.5h16.4m0,13.5v-13.5m-16.4,0v-1.1m641.6,14.3v-13.5h16.4m0,13.5V1034m-16.4,-.1v-1.1m-586.4,14.9v-5m-21.2,-9.6v5.8m-6.9,-5.8v5.8m28,-5.8v.5m76,14v-5m28,0v5m-7,-4.6v4.6m0,-4.6v-.4m28,0v1m173.7,3.9v-5m-21.2,-9.6v5.9m-6.9,-5.9v5.9m28,-5.9v.6m100.5,14v-5m28,0v5m-6.9,-4.6v4.6m0,-4.6v-.4m28,0v1m128,-10.7v5.8m-7,-5.8v5.8m105.2,11.1l.9,39.3m-801.4,0l-1,-39l801.5,-.3m-749.3,11.1V1089m697.6,-28.5V1089M603.9,1076.7h19m0,-4.6v4.6m75.9,3.4l.1,6.6h49m0,-4.6v4.6m-49.1,-11.2v4.6m174,5.4v3.5m-.5,-19l.2,6.6h49m-49.2,-11.2v4.6m49.2,1.9v4.7m100.4,3.4l.2,6.6h49m-49.2,-11.2v4.6m49.2,1.9v4.7m100.4,-1.2v3.6m-.5,-19.1l.1,6.6h18.4M1171,1065.2v4.7m127.2,19.1l-1,-41.6M495.7,1050v-2.3m730,-14.9h7m-6.8,8.6v1h-.2m-665,-9.3h7m-7,0v-.9m671.9,-.4l.1,1m-224,-473.3V313.1m-224,246.5l224,-.1M784.7,313.2V559.6M577,559.7l207.7,-.1m431.6,-.2l-207.6,.1M893.2,205.9l-.3,-9.1M840.4,258l-.2,-8.9m-52.6,61.2l-.2,-8.8m-52.6,61.2l-.2,-8.9M629.2,467.3l-.2,-8.8M682,415l-.2,-8.9M588.4,507.8l-.2,-8.9M899.9,196.8l.3,9.1m52.5,43.2l.3,8.9m52.5,43.4l.2,8.8m52.6,43.4l.2,8.9m105.4,95.7l.2,8.9m-53,-61.2l.2,8.9m93.4,83.8l.3,8.9M898.2,158.1h-3.5M486.1,584.4v9.1M891.3,208.7l3.5,-3.4M486.1,593.5v.9m16.1,0l58.3,-57.7m-58,67.3l58,-57.5m-74.2,56.6v.9m0,-9.6v8.7m18.8,103.5L559,653.1m-70.1,52.5v1m0,-10.1v9.1m16.7,20.6L559,673.3m-69.6,52.9h16.2m-16.2,-.9v.9m0,-10v9.1m-.3,-18.7v8.6m0,0v1m16.2,0L559,663m-54.2,33.5L559,642.8m-70.4,52.8v.9m0,-10.1v9.2m16,-9.2L559,632.5m-70.6,53v.9m0,-10v9.1m15.9,-9.1L559,622.2m-70.9,53.2v1m0,-10.1v9.1M504,666.3l55,-54.4m-71.1,53.5v.9m0,-10.1v9.2m15.9,-9.2L559,601.6m-71.4,53.7v.9m0,-10v9.1m15.9,-9.1l55.5,-55m-71.7,54l.1,1m-.1,-10.1v9.1m16,-9.1L559,580.9m-71.9,54.3v.9m0,-10.1v9.2M503,626l56,-55.4m-72.2,54.5l.1,.9m-.1,-10v9.1m16,-9.1L559,560.3m.5,-.6l1.2,-1.1M486.6,615v1m0,-10.1V615m15.9,-9.1l58,-57.4M486.3,605l.1,.9m-.1,-1.9v1m74.2,-82.5v2M502,584.3l58.5,-57.9m-74.7,57v1m0,-20.9v19.9m85.5,-68.8l-10.8,.1M894.7,158.1L485.8,563.5M894.7,194.2v-.1M1308.8,635l.1,.9m0,20h-16.2l-57.3,-56.8m73.2,35.7l.2,.2m-1,-40.3l.1,1m0,19.9h-16.2m15.9,-21.1l.2,.2m.5,20.1l.1,1m0,19.9h-16.2L1234.9,579m73.2,35.6l.2,.2m-1,-41.6v.9m-.2,-1.2l.2,.3m0,20.8l-16.2,.1M898.4,195.3v9.8M1310.6,705v.9m0,20h-16.1l-57.4,-56.8m73.5,36.8v20m-.2,-21.1l.2,.2m-3.1,-122.2l.1,.9m0,19.9h-16.2m-58.5,-62.7v2.9m74.4,38.7l.2,.3m-86,-68.4l10.9,-.1m74.6,48.8l.1,.9m0,20h-16.2M898.2,158.1l408.8,405M898.2,158.1v36m412.1,500.8l.1,1m-.3,-1.2l.2,.2m-16.1,20.9L1236.9,659m73.5,56.8h-16.2m15.9,-30.5v1m0,19.9H1294l-57.4,-56.8m73.3,35.7l.2,.2m-.8,-30.2l.1,1m0,19.9h-16.2l-57.3,-56.8m73.2,35.7l.2,.2m.6,20.2v.9m0,19.9h-16.2l-57.3,-56.7m73.2,35.6l.3,.3m-.3,-10.1v.9m0,20h-16.1l-57.4,-56.8m73.3,35.7l.2,.2m-.5,-20.1v.9m0,19.9h-16.2l-57.3,-56.7m73.3,35.6l.2,.3m-.5,-20.2v1m0,19.9h-16.2L1235.1,589m73.3,35.7l.2,.2m-.5,-20.1v.9m0,20h-16.2l-57.3,-56.8m-1.2,-11v1.5m74.5,45.2l.2,.2m-.5,-20.2v1m0,19.9h-16.2m-58.5,-59.8v1M900.2,210.7v-.1m-11.9,.1l2.5,-2.4m2.4,2.4v-.1m323.2,323h-.1m0,-2.2l.1,2.2m16,-12.3v-7m-671.9,7.3v-6.9m672.8,44.7l-.1,-1.7m0,-1.9l-.2,-8.2m-.4,-13.4l-.2,-8.1m0,-1.9h-7m0,25.4l.2,9.8M567.7,534.5l-.2,-10m9.5,10h-9.3m0,25.2V534.5m669,512.9V652.5m-.7,-30.2v425.1m-.8,-455.3v443.8l.3,11.5M784.7,1003.5V559.6m-224,.1v443.9l224,-.1m447.9,-.2V559.4m-223.9,.1v443.9l223.9,-.1m-447.9,.2l224,-.1m224,30.7h1.7m0,-28.4v28.4m-449.7,-2l447.9,-.3m-447.9,.3v-.3m447.9,-.2v-28.3m-447.9,.2v28.3m447.9,0v-.2m4.9,15.8V682.6m-3.1,-120.7v443.8l.8,30.2m-674.5,-3.7l224,-.1m-224,.1v-.3m0,-28.3v28.3m.4,15.8l-.3,-13.3m-1.5,13.3l-.3,-13.3m1.8,0H559m675.4,-28.7v-2.4m0,-443.9v2.5m-1.8,441.4h1.8M559,1031.9v2.5m0,-30.8v28.3m0,-28.3h1.7m665,43.8v-5m-631,-3.5h7m270.6,2.7V1033m21,5.8h7m270.7,8.6v-5m21,-3.8h7m-595.1,47v3.4m585.6,-3.6v3.6m36.5,-41.6l-.1,-5m6.8,-9.6v1.3m-311.2,8.4h-.1m-298.5,.2h-.1m-62,-8.3l-.1,-1.3M890.8,208.3l2.4,-2.4m7,0l2.3,2.4m-7.7,-4l-.1,-3.4m0,-5.8v5.8M486.1,594.4h16.1M486.3,604h16.2M488.9,706.6h16.2m-16,9.6h16.2M488.6,696.5h16.2M488.4,686.4h16.2m-16.5,-10h16.2M487.9,666.3H504M487.6,656.2h16.2m-16.4,-10h16.1M487.1,636.1h16.2M486.9,626H503M486.6,616h16.2M486.4,605.9h16.1m58,-81.4v.9m-74.7,59h.3l15.9,-.1m70.3,-69.7l4.3,-4.2m732.3,125.5v20m-17.2,-40.3l-58.3,-57.7m-.2,-2.1v.9m74.7,39v19.9m.5,.2v19.9M902.1,208.7l-3.4,-3.4l-.3,-.2m408.9,369V594M1291.4,603.6l-58.5,-57.9m74.7,38v19.9m-.5,-39.6v20m3.3,111.9v19.9m-.3,-29.5v19.9m-.7,-50.1V676m.5,.2v19.9m-.3,-30v20m-.5,-40.1v19.9m-.5,-40v19.9m-.5,-40.1v20m-.5,-40.1v19.9M902.5,208.3l-.4,.4l-1.9,1.9m-9.4,-2.3l.5,.4l1.9,1.9m322.9,303.8h.3m-.3,6.9v-6.9m.2,16.7l-.2,-9.8M576.8,514.6l.1,4.8l.1,5.1m-16.5,0v-2m672.4,21.3l-.2,-7.7m-7.3,13.5V524.2m7,.9v-.9M560.5,549.9l.2,7.7m664.7,-23.4h-9.1m20.4,118.3l-.1,-3.1m.9,33.2l-.4,-13.5M559,559.7h1.7m665,482.7v-1m-353.4,6.2v-6m298.7,.8v-9.6m-567.1,28v4.7m585.6,11v8.9M584.1,1047.7h-23m460.8,-5.2H921.5m-222.7,.1l-75.9,.1M888,210.7h.3M577,559.7V531.4m639.3,2.8v-2.8M894.9,210.7l-.1,-5.4v-1m338.6,353.6l-.1,-.1m-.1,-10v8m-.6,-24.4v2.8m.2,2l-.1,-.1m58.2,47.9l-58.3,-57.7l-.1,-.1l-.1,-.1m0,-4.8v2.9M952.7,249.1L916.2,212.9m375.2,392.6l-58.2,-57.7l-.2,-.1v-.1h-.1m-661.6,-33h5.5m-9.3,9.9h-7m0,12.2v-1m.2,21.9v2.1m675.9,89.7v-.9m-.6,-26.2l-.1,-3.1m-.5,-20.1l-.1,-.9l-.1,-6.1M1225.6,559.4h-9.3m20.8,109.7v-.9m-1.9,-76.1l-.1,-3.1m-.2,-10l-.1,-1m-2.2,-18.6h1.8M559,653.1v-.9m44.9,424.5v8.9m585.6,-15.8v6.7M561.1,1047.7H495.7m730.2,-6.3l-.2,-6.4m-182.8,7.5h-21m-302.1,.1h-21M881.6,217.1l-.1,.1m30.2,-.1l.1,.1m-23.5,-6.5h6.6m3.5,0h.3M776,321.8l-.1,.1M577,524.5v-5.4M1017.3,321.7l.1,.1l41.1,40.7M894.7,194.2v.9m338.6,362.7l-.1,-.1m57.9,36.4l-58.2,-57.8l-.1,-.1m-16.4,-21.8h5.1m-5.1,19.8v-.6m-655.9,12v-8.9m0,-1V525.4m676.1,123.1l-.2,-9.1m-.5,-20.2v-.9M577,559.7h-9.3m669.4,108.5l-.2,-9.2m-1.8,-70v-.9l-.2,-9.1m-.1,-1l-.2,-9.1M559,652.2V641.9m44.9,423.6v11.2m585.6,-16.2v9.3M622.7,1047.7H584.1M828.7,269.6l-41.1,40.7M911.8,217.2L953,258M905.1,210.7h.2M617.5,478.9l-29.1,28.9M718.5,369.7l4.5,-4.5m282.5,-63.8L969,265.2l-4.7,-4.7M916.2,212.9l-4.7,-4.7M899.9,196.8l-1.5,-1.5l-.2,-.3M560.5,546.5v-.9m675.9,93.8v-1m-.5,-20.1l-.3,-9.1m1.3,49.8v-.9l-.2,-5.6m-2.1,-83.6V568l-.2,-6.1M559,1003.6V672.3M559,662v-8.9m0,-11.2V631.5m63.9,416.2h-.2m548.3,-5.3l-100,.1h-21.1m-302.1,.1h-28M828.8,269.5l-.1,.1m135.9,-.1l41.1,40.7m-107,-99.5h6.4M617.7,478.8l-.2,.1M1070.1,374l.1,.1l41.1,40.7m-376.7,-61l36.7,-36.4m287,36.2l-36.5,-36.1m-461.3,230v-1m675.9,91.9l-.3,-9.1m-.5,-20.1v-1l-.2,-9.1M559,672.3V662m0,-30.5V621.2m139.8,426.4l-75.9,.1m427,-5.2h-7m-170.6,.1H747.8m-153.1,-9.5H584.1M881.5,217.2L840.4,258l-11.6,11.5M953,258l11.5,11.4l.1,.1M629.2,467.3l-11.5,11.5m505.2,-52.6l.1,.2l41.1,40.7m11.6,11.4l.1,.2l29.2,28.8M588.2,498.9l24.7,-24.5l4.5,-4.5M771.3,317.4l4.5,-4.5m246,4.6l-4.7,-4.7M560.5,549.9v-2.4m675.6,81.8v-.9l-.1,-6.1M559,621.2V610.9m160.8,436.7h-21m-28.5,-621l-41.1,40.7m481.9,-61.4l-36.5,-36.2l-4.7,-4.6M559,610.9V600.6m63.8,432.5H601.7M670.5,426.5l-.2,.1M629,458.5L665.7,422l4.5,-4.4m11.6,-11.5l36.7,-36.4M824.1,265l4.5,-4.4M559,600.6V590.3m167.8,457.3h-7M872.3,1033l-249.5,.1m-21.1,0h-7M682,415l-11.5,11.5m116.9,-125L824.1,265m16.1,-15.9l36.7,-36.4m287,245.5L1127.4,422l-4.7,-4.6M559,590.3V580m188.8,467.6h-21m166.5,-14.7l-21,.1M723.1,374.2L682,415M876.9,212.7l4.5,-4.5M559,580V559.7m313.3,487.9H747.8M723.2,374.1l-.1,.1M892.9,196.8l1.8,-1.7m325.9,319.3l-4.3,-4.3m-11.6,-11.5l-24.5,-24.3l-4.8,-4.7m-254,563.3H900.3M775.9,321.9l-41.1,40.8l-11.6,11.4m574,673.3H1236m-26.7,0H1171l-100,.1m-49.1,0H921.3l-49,.1M1171,1032.8l-249.6,.1m-21.1,0h-7m342.7,14.5h-.5m-2.5,0h-23.7m-166.4,.1h-21M1192,1032.8h-21m64.5,14.6H1233m-162,.1h-.1m138.4,-14.7H1199m-128.1,14.7h-21M1199,1032.8h-7m-142.1,14.7h-7M584.1,1033.1v14.6M1225.7,1035v6.4M894.7,158.1v36M1225.7,1033.9v.1" class="g4_1" />
<g clip-path="url(#c21_1)">
<path d="M1022.4,313.4h389.7m0,0h11.4M1022.4,559.3h389.7m0,0h11.4" class="g0_1" />
<path d="M1412.1,324.8v223" class="g5_1" />
<path d="M1412.1,314.5l1.7,10.3h-3.4l1.7,-10.3Z" class="g3_1" />
<path d="M1412.1,314.5l1.7,10.3h-3.4l1.7,-10.3Z" class="g5_1" />
<path d="M1412.1,558.1l-1.7,-10.3h3.4l-1.7,10.3Z" class="g3_1" />
<path d="M1412.1,558.1l-1.7,-10.3h3.4l-1.7,10.3Z" class="g5_1" />
</g>
<g clip-path="url(#c22_1)">
<g fill="#000000" >
<use xlink:href="#f1_c" transform="matrix(0,-9,9,0,1404.6,462.3)" />
<use xlink:href="#f1_4" transform="matrix(0,-9,9,0,1404.6,454.6)" />
<use xlink:href="#f1_5" transform="matrix(0,-9,9,0,1404.6,452)" />
<use xlink:href="#f1_d" transform="matrix(0,-9,9,0,1404.6,447.4)" />
<use xlink:href="#f1_9" transform="matrix(0,-9,9,0,1404.6,435.9)" />
<use xlink:href="#f1_7" transform="matrix(0,-9,9,0,1404.6,428.3)" />
<use xlink:href="#f1_c" transform="matrix(0,-9,9,0,1404.6,424.5)" />
<use xlink:href="#f1_3" transform="matrix(0,-9,9,0,1404.6,416.8)" />
</g>
</g>
<text transform="matrix(0, -1, 1, 0, 1404, 462)" class="s5_1">4'-5 1/4"</text>
<g clip-path="url(#c23_1)">
<path d="M881.2,210.7H334.1m0,0H322.6M881.2,559.8H334.1m0,0H322.6" class="g0_1" />
<path d="M334.1,222.2V548.3" class="g5_1" />
<path d="M334.1,211.9l1.7,10.3h-3.4l1.7,-10.3Z" class="g3_1" />
<path d="M334.1,211.9l1.7,10.3h-3.4l1.7,-10.3Z" class="g5_1" />
<path d="M334.1,558.7l-1.7,-10.4h3.4l-1.7,10.4Z" class="g3_1" />
<path d="M334.1,558.7l-1.7,-10.4h3.4l-1.7,10.4Z" class="g5_1" />
</g>
<g clip-path="url(#c24_1)">
<g fill="#000000" >
<use xlink:href="#f1_e" transform="matrix(0,-9,9,0,326.7,411.2)" />
<use xlink:href="#f1_4" transform="matrix(0,-9,9,0,326.7,403.6)" />
<use xlink:href="#f1_5" transform="matrix(0,-9,9,0,326.7,400.9)" />
<use xlink:href="#f1_b" transform="matrix(0,-9,9,0,326.7,396.4)" />
<use xlink:href="#f1_9" transform="matrix(0,-9,9,0,326.7,384.9)" />
<use xlink:href="#f1_7" transform="matrix(0,-9,9,0,326.7,377.2)" />
<use xlink:href="#f1_a" transform="matrix(0,-9,9,0,326.7,373.4)" />
<use xlink:href="#f1_3" transform="matrix(0,-9,9,0,326.7,365.8)" />
</g>
</g>
<text transform="matrix(0, -1, 1, 0, 326, 411)" class="s5_1">6'-3 1/2"</text>
<g clip-path="url(#c25_1)">
<path d="M590.8,519.1h99.4m0,0h11.4M590.8,559.5h99.4m0,0h11.4" class="g0_1" />
<path d="M690.2,530.5v17.6" class="g5_1" />
<path d="M690.2,520.2l1.7,10.3h-3.4l1.7,-10.3Z" class="g3_1" />
<path d="M690.2,520.2l1.7,10.3h-3.4l1.7,-10.3Z" class="g5_1" />
<path d="M690.2,558.4l-1.7,-10.3h3.4l-1.7,10.3Z" class="g3_1" />
<path d="M690.2,558.4l-1.7,-10.3h3.4l-1.7,10.3Z" class="g5_1" />
<path d="M691.7,539.4c9.4,.9,14.2,10.4,14.2,28" class="g0_1" />
<path d="M691.3,538.2c.5,.6,.5,1.6,0,2.2c-.6,.6,-1.6,.6,-2.2,0c-.6,-.6,-.6,-1.6,0,-2.2c.6,-.6,1.6,-.6,2.2,0Z" class="g3_1" />
<path d="M691.3,538.2c.5,.6,.5,1.6,0,2.2c-.6,.6,-1.6,.6,-2.2,0c-.6,-.6,-.6,-1.6,0,-2.2c.6,-.6,1.6,-.6,2.2,0" class="g0_1" />
</g>
<g clip-path="url(#c26_1)">
<g fill="#000000" >
<use xlink:href="#f1_f" transform="matrix(0,-9,9,0,710.3,608.2)" />
<use xlink:href="#f1_b" transform="matrix(0,-9,9,0,710.3,596.7)" />
<use xlink:href="#f1_7" transform="matrix(0,-9,9,0,710.3,589.1)" />
<use xlink:href="#f1_c" transform="matrix(0,-9,9,0,710.3,585.3)" />
<use xlink:href="#f1_3" transform="matrix(0,-9,9,0,710.3,577.6)" />
</g>
</g>
<text transform="matrix(0, -1, 1, 0, 710, 608)" class="s5_1">8 3/4"</text>
<g clip-path="url(#c27_1)">
<path d="M888,327.2v99.4m0,0V438M784.2,327.2v99.4m0,0V438" class="g0_1" />
<path d="M876.6,426.6H795.7" class="g5_1" />
<path d="M886.9,426.6l-10.3,1.7v-3.4l10.3,1.7Z" class="g3_1" />
<path d="M886.9,426.6l-10.3,1.7v-3.4l10.3,1.7Z" class="g5_1" />
<path d="M785.4,426.6l10.3,-1.7v3.4l-10.3,-1.7Z" class="g3_1" />
<path d="M785.4,426.6l10.3,-1.7v3.4l-10.3,-1.7Z" class="g5_1" />
</g>
<g clip-path="url(#c28_1)">
<g fill="#000000" >
<use xlink:href="#f1_9" transform="matrix(9,0,0,9,806.4,419.2)" />
<use xlink:href="#f1_4" transform="matrix(9,0,0,9,814,419.2)" />
<use xlink:href="#f1_5" transform="matrix(9,0,0,9,816.7,419.2)" />
<use xlink:href="#f1_9" transform="matrix(9,0,0,9,821.2,419.2)" />
<use xlink:href="#f1_8" transform="matrix(9,0,0,9,828.9,419.2)" />
<use xlink:href="#f1_9" transform="matrix(9,0,0,9,840.4,419.2)" />
<use xlink:href="#f1_7" transform="matrix(9,0,0,9,848,419.2)" />
<use xlink:href="#f1_c" transform="matrix(9,0,0,9,851.8,419.2)" />
<use xlink:href="#f1_3" transform="matrix(9,0,0,9,859.5,419.2)" />
</g>
</g>
<text x="806" y="419" class="s5_1">1'-10 1/4"</text>
<g clip-path="url(#c29_1)">
<path d="M784.7,573.6V640m0,0v11.4M577,573.5V640m0,0v11.4" class="g0_1" />
<path d="M773.2,640H588.5" class="g5_1" />
<path d="M783.5,640l-10.3,1.7v-3.4l10.3,1.7Z" class="g3_1" />
<path d="M783.5,640l-10.3,1.7v-3.4l10.3,1.7Z" class="g5_1" />
<path d="M578.2,640l10.3,-1.7v3.4L578.2,640Z" class="g3_1" />
<path d="M578.2,640l10.3,-1.7v3.4L578.2,640Z" class="g5_1" />
</g>
<g clip-path="url(#c30_1)">
<g fill="#000000" >
<use xlink:href="#f1_b" transform="matrix(9,0,0,9,654.9,632.6)" />
<use xlink:href="#f1_4" transform="matrix(9,0,0,9,662.6,632.6)" />
<use xlink:href="#f1_5" transform="matrix(9,0,0,9,665.2,632.6)" />
<use xlink:href="#f1_f" transform="matrix(9,0,0,9,669.8,632.6)" />
<use xlink:href="#f1_9" transform="matrix(9,0,0,9,681.3,632.6)" />
<use xlink:href="#f1_7" transform="matrix(9,0,0,9,688.9,632.6)" />
<use xlink:href="#f1_a" transform="matrix(9,0,0,9,692.7,632.6)" />
<use xlink:href="#f1_3" transform="matrix(9,0,0,9,700.4,632.6)" />
</g>
</g>
<text x="654" y="632" class="s5_1">3'-8 1/2"</text>
<g clip-path="url(#c31_1)">
<path d="M1008.7,573.3V640m0,0v11.4m-224,-78V640m0,0v11.4" class="g0_1" />
<path d="M997.2,640h-201" class="g5_1" />
<path d="M1007.5,640l-10.3,1.7v-3.4l10.3,1.7Z" class="g3_1" />
<path d="M1007.5,640l-10.3,1.7v-3.4l10.3,1.7Z" class="g5_1" />
<path d="M785.8,640l10.4,-1.7v3.4L785.8,640Z" class="g3_1" />
<path d="M785.8,640l10.4,-1.7v3.4L785.8,640Z" class="g5_1" />
</g>
<g clip-path="url(#c32_1)">
<g fill="#000000" >
<use xlink:href="#f1_c" transform="matrix(9,0,0,9,882.2,632.6)" />
<use xlink:href="#f1_4" transform="matrix(9,0,0,9,889.9,632.6)" />
<use xlink:href="#f1_5" transform="matrix(9,0,0,9,892.5,632.6)" />
<use xlink:href="#f1_8" transform="matrix(9,0,0,9,897.1,632.6)" />
<use xlink:href="#f1_3" transform="matrix(9,0,0,9,904.7,632.6)" />
</g>
</g>
<text x="882" y="632" class="s5_1">4'-0"</text>
<g clip-path="url(#c33_1)">
<path d="M1216.3,573.2v66.9m0,0v11.5M1008.7,573.5v66.6m0,0v11.5" class="g0_1" />
<path d="M1204.8,640.1H1020.1" class="g5_1" />
<path d="M1215.1,640.1l-10.3,1.7v-3.4l10.3,1.7Z" class="g3_1" />
<path d="M1215.1,640.1l-10.3,1.7v-3.4l10.3,1.7Z" class="g5_1" />
<path d="M1009.8,640.1l10.3,-1.7v3.4l-10.3,-1.7Z" class="g3_1" />
<path d="M1009.8,640.1l10.3,-1.7v3.4l-10.3,-1.7Z" class="g5_1" />
</g>
<g clip-path="url(#c34_1)">
<g fill="#000000" >
<use xlink:href="#f1_b" transform="matrix(9,0,0,9,1086.6,632.7)" />
<use xlink:href="#f1_4" transform="matrix(9,0,0,9,1094.2,632.7)" />
<use xlink:href="#f1_5" transform="matrix(9,0,0,9,1096.8,632.7)" />
<use xlink:href="#f1_f" transform="matrix(9,0,0,9,1101.4,632.7)" />
<use xlink:href="#f1_9" transform="matrix(9,0,0,9,1112.9,632.7)" />
<use xlink:href="#f1_7" transform="matrix(9,0,0,9,1120.5,632.7)" />
<use xlink:href="#f1_a" transform="matrix(9,0,0,9,1124.3,632.7)" />
<use xlink:href="#f1_3" transform="matrix(9,0,0,9,1132,632.7)" />
</g>
</g>
<text x="1086" y="632" class="s5_1">3'-8 1/2"</text>

<defs>
<path d="M641,-18c0,0,-178,0,-291,51c0,0,-114,52,-196,182c0,0,-82,131,-82,334c0,0,0,271,145,417c0,0,144,146,408,146c0,0,207,0,325,-84c0,0,118,-83,175,-257L827,705c0,0,-15,50,-33,73c0,0,-28,39,-69,60c0,0,-41,21,-92,21c0,0,-115,0,-176,-93c0,0,-46,-68,-46,-215c0,0,0,-182,55,-249c0,0,55,-67,155,-67c0,0,97,0,147,54c0,0,50,55,72,159l296,-90c0,0,-30,-124,-94,-208c0,0,-64,-84,-159,-126c0,0,-95,-42,-242,-42Z" 
id="f0_7"
transform="scale(0.001,-0.001)" />

<path d="M93,0V304H418V0Z" 
id="f0_3"
transform="scale(0.001,-0.001)" />

<path d="M508,189c0,0,46,0,80,32c0,0,34,33,50,103c0,0,16,70,16,218c0,0,0,218,-37,292c0,0,-37,75,-111,75c0,0,-75,0,-109,-76c0,0,-33,-76,-33,-283c0,0,0,-209,37,-285c0,0,37,-76,107,-76Zm1,-207c0,0,-138,0,-223,43c0,0,-85,44,-140,129c0,0,-39,61,-61,166c0,0,-22,104,-22,231c0,0,0,312,112,436c0,0,112,125,342,125c0,0,110,0,181,-27c0,0,71,-28,116,-71c0,0,45,-44,70,-92c0,0,26,-48,42,-112c0,0,30,-122,30,-255c0,0,0,-298,-100,-436C856,119,755,-18,509,-18Z" 
id="f0_4"
transform="scale(0.001,-0.001)" />

<path d="M486,551c0,0,65,0,107,47c0,0,43,47,43,135c0,0,0,88,-45,139c0,0,-45,50,-109,50c0,0,-61,0,-101,-45c0,0,-40,-46,-40,-137c0,0,0,-92,42,-140c0,0,41,-49,103,-49ZM484,-18c0,0,-130,0,-206,30c0,0,-75,30,-125,88c0,0,-50,58,-77,146l302,38c0,0,12,-64,41,-90c0,0,28,-26,69,-26c0,0,73,0,114,74c0,0,30,54,45,230c0,0,-54,-56,-112,-82c0,0,-57,-26,-133,-26c0,0,-147,0,-248,104C154,468,53,573,53,732c0,0,0,109,51,198c0,0,52,90,142,136c0,0,90,46,227,46c0,0,164,0,263,-57c0,0,100,-56,159,-179c0,0,59,-122,59,-323c0,0,0,-296,-124,-434C830,119,705,-18,484,-18Z" 
id="f0_5"
transform="scale(0.001,-0.001)" />

<path d="M125,0V1093H463V0Z" 
id="f0_a"
transform="scale(0.001,-0.001)" />

<path d="M561,-18c0,0,-279,0,-387,107C174,89,67,196,53,362l321,20c0,0,11,-78,43,-119c0,0,52,-66,149,-66c0,0,72,0,112,33c0,0,39,34,39,79c0,0,0,43,-37,76c0,0,-38,34,-174,63c0,0,-222,50,-317,133c0,0,-95,83,-95,211c0,0,0,84,49,159c0,0,49,75,147,118c0,0,98,43,269,43c0,0,209,0,319,-78c0,0,110,-78,131,-248L690,768c0,0,-12,73,-53,107c0,0,-40,33,-112,33c0,0,-59,0,-88,-25c0,0,-30,-25,-30,-60c0,0,0,-26,24,-47c0,0,24,-22,114,-41c0,0,221,-47,317,-96c0,0,96,-49,140,-121c0,0,43,-73,43,-162c0,0,0,-105,-58,-194C987,162,929,73,824,27c0,0,-104,-45,-263,-45Z" 
id="f0_e"
transform="scale(0.001,-0.001)" />

<path d="M664,-18c0,0,-80,0,-174,12c0,0,-95,10,-158,43c0,0,-64,33,-116,94c0,0,-53,61,-72,126c0,0,-32,104,-32,185v651H450V427c0,0,0,-90,49,-140c0,0,50,-50,138,-50c0,0,87,0,137,49c0,0,49,50,49,141v666h338V442c0,0,0,-97,-31,-183c0,0,-30,-86,-94,-151c0,0,-65,-64,-136,-90c0,0,-98,-36,-236,-36Z" 
id="f0_g"
transform="scale(0.001,-0.001)" />

<path d="M111,0V1093h906V859H450V685H976V462H450V247h584V0Z" 
id="f0_9"
transform="scale(0.001,-0.001)" />

<path d="M537,248c0,0,106,0,151,24c0,0,45,23,70,82c0,0,25,58,25,190c0,0,0,174,-56,238c0,0,-57,64,-188,64H455V248ZM116,0V1093H618c0,0,149,0,240,-40c0,0,91,-40,151,-116c0,0,60,-75,87,-175c0,0,26,-100,26,-212c0,0,0,-175,-39,-271c0,0,-40,-97,-111,-162c0,0,-71,-66,-152,-87C820,30,709,0,618,0Z" 
id="f0_8"
transform="scale(0.001,-0.001)" />

<path d="M713,418L593,810L474,418ZM2,0L412,1093H781L1192,0H838L784,181H401L347,0Z" 
id="f0_6"
transform="scale(0.001,-0.001)" />

<path d="M379,0V823H35v270H1062V823H718V0Z" 
id="f0_f"
transform="scale(0.001,-0.001)" />

<path d="M598,650c0,0,23,0,90,15c0,0,33,7,54,34c0,0,22,28,22,64c0,0,0,53,-34,81c0,0,-33,28,-126,28H456V650ZM116,0V1093H679c0,0,157,0,240,-27c0,0,83,-27,133,-99c0,0,51,-73,51,-177c0,0,0,-91,-39,-157c0,0,-39,-66,-107,-107c0,0,-43,-26,-119,-43c0,0,61,-21,89,-41c0,0,18,-13,54,-57c0,0,35,-44,47,-68L1192,0H810L629,334c0,0,-34,65,-61,85c0,0,-36,25,-83,25H456V0Z" 
id="f0_d"
transform="scale(0.001,-0.001)" />

<path d="M636,235c0,0,109,0,169,70c0,0,59,71,59,254c0,0,0,154,-62,225c0,0,-62,72,-169,72c0,0,-102,0,-163,-73c0,0,-62,-72,-62,-239c0,0,0,-165,61,-237c0,0,62,-72,167,-72ZM648,-18c0,0,-185,0,-307,58c0,0,-121,59,-196,187c0,0,-76,127,-76,319c0,0,0,267,150,417c0,0,149,149,415,149c0,0,273,0,421,-147c0,0,148,-146,148,-410c0,0,0,-192,-65,-314c0,0,-64,-123,-186,-191c0,0,-122,-68,-304,-68Z" 
id="f0_c"
transform="scale(0.001,-0.001)" />

<path d="M243,0L0,1093H321L436,483l169,610H924L1094,484l116,609h319L1288,0H957L765,688L574,0Z" 
id="f0_h"
transform="scale(0.001,-0.001)" />

<path d="M114,0V1093H430L841,489v604h319V0H841L432,601V0Z" 
id="f0_b"
transform="scale(0.001,-0.001)" />

<path d="M396,0V964H35v129H902V964H541V0Z" 
id="f1_n"
transform="scale(0.001,-0.001)" />

<path d="M101,0V1093H235V701c0,0,94,109,237,109c0,0,88,0,153,-35c0,0,65,-35,93,-96c0,0,28,-61,28,-177V0H612V502c0,0,0,101,-44,146c0,0,-43,46,-123,46c0,0,-60,0,-113,-31c0,0,-52,-31,-75,-84c0,0,-22,-53,-22,-146V0Z" 
id="f1_u"
transform="scale(0.001,-0.001)" />

<path d="M102,0V792H236V0Zm0,939v154H236V939Z" 
id="f1_v"
transform="scale(0.001,-0.001)" />

<path d="M386,-17c0,0,-155,0,-236,64c0,0,-81,64,-103,190l133,20c0,0,11,-79,62,-122c0,0,51,-42,143,-42c0,0,93,0,138,37c0,0,44,38,44,89c0,0,0,45,-39,71c0,0,-28,18,-138,46c0,0,-147,37,-204,64c0,0,-58,27,-87,75c0,0,-30,48,-30,107c0,0,0,52,25,98c0,0,24,45,66,74c0,0,31,24,85,40c0,0,54,16,116,16c0,0,93,0,164,-27c0,0,70,-27,104,-73c0,0,33,-46,46,-122L544,570c0,0,-9,61,-52,95c0,0,-43,34,-121,34c0,0,-93,0,-132,-30c0,0,-40,-31,-40,-72c0,0,0,-26,17,-47c0,0,16,-21,51,-35c0,0,20,-8,119,-35c0,0,142,-38,199,-62c0,0,56,-24,88,-70c0,0,32,-47,32,-115c0,0,0,-67,-39,-126c0,0,-39,-60,-113,-92c0,0,-74,-32,-167,-32Z" 
id="f1_13"
transform="scale(0.001,-0.001)" />

<path d="M247,0L4,792H143L270,335L316,165c0,0,3,12,41,163L484,792H620L740,333L779,181l45,153L960,792h131L843,0H704L578,474L547,609L386,0Z" 
id="f1_17"
transform="scale(0.001,-0.001)" />

<path d="M422,93c0,0,100,0,167,76c0,0,66,76,66,231c0,0,0,147,-67,223c0,0,-66,75,-166,75c0,0,-100,0,-167,-75c0,0,-66,-75,-66,-227c0,0,0,-152,66,-228c0,0,67,-75,167,-75Zm0,-110c0,0,-166,0,-269,106C153,89,51,196,51,396c0,0,0,220,122,326c0,0,102,88,249,88c0,0,164,0,267,-107c0,0,104,-107,104,-296c0,0,0,-153,-46,-240C747,167,701,79,614,31c0,0,-88,-48,-192,-48Z" 
id="f1_10"
transform="scale(0.001,-0.001)" />

<path d="M99,0V792H219V672c0,0,46,84,86,111c0,0,39,27,86,27c0,0,68,0,138,-43L482,642c0,0,-49,29,-98,29c0,0,-44,0,-79,-27c0,0,-35,-26,-50,-73c0,0,-22,-72,-22,-157V0Z" 
id="f1_12"
transform="scale(0.001,-0.001)" />

<path d="M101,0V1093H235V470L554,792H728L425,498L758,0H592L329,405L235,314V0Z" 
id="f1_w"
transform="scale(0.001,-0.001)" />

<path d="M98,0V1093H232V0Z" 
id="f1_x"
transform="scale(0.001,-0.001)" />

<path d="M420,-17c0,0,-163,0,-262,106c0,0,-98,106,-98,304c0,0,0,128,42,224c0,0,43,96,129,145c0,0,87,48,189,48c0,0,129,0,211,-66c0,0,82,-65,106,-185L606,539c0,0,-19,80,-66,120c0,0,-48,40,-115,40c0,0,-101,0,-164,-72c0,0,-63,-73,-63,-230c0,0,0,-160,61,-232c0,0,61,-72,159,-72c0,0,79,0,132,48c0,0,53,49,67,149L749,273C749,273,728,137,639,59c0,0,-90,-76,-219,-76Z" 
id="f1_q"
transform="scale(0.001,-0.001)" />

<path d="M644,472c0,0,-9,100,-50,150c0,0,-65,77,-167,77c0,0,-93,0,-156,-62c0,0,-63,-61,-70,-165ZM433,-17c0,0,-174,0,-275,106C158,89,56,196,56,389c0,0,0,200,103,310c0,0,103,111,267,111c0,0,159,0,259,-108c0,0,101,-109,101,-304c0,0,0,-12,-1,-36H194c0,0,7,-131,74,-200c0,0,66,-69,166,-69c0,0,74,0,126,39c0,0,52,39,83,124L782,239C782,239,749,117,660,50c0,0,-89,-67,-227,-67Z" 
id="f1_s"
transform="scale(0.001,-0.001)" />

<path d="M101,0V792H221V679c0,0,87,131,252,131c0,0,72,0,132,-26c0,0,60,-26,90,-68c0,0,30,-41,42,-99c0,0,7,-37,7,-130V0H610V482c0,0,0,82,-16,122c0,0,-15,41,-55,65c0,0,-40,24,-94,24c0,0,-86,0,-148,-54c0,0,-62,-55,-62,-207V0Z" 
id="f1_z"
transform="scale(0.001,-0.001)" />

<path d="M406,93c0,0,88,0,149,72c0,0,62,72,62,219c0,0,0,162,-63,238c0,0,-63,76,-154,76c0,0,-90,0,-150,-73c0,0,-60,-73,-60,-230c0,0,0,-152,64,-227c0,0,64,-75,152,-75ZM393,-17c0,0,-95,0,-174,52c0,0,-80,52,-123,145c0,0,-44,94,-44,215c0,0,0,119,39,215c0,0,40,97,119,148c0,0,79,52,177,52c0,0,71,0,127,-31c0,0,56,-30,91,-79v393H739V0H615V100c0,0,-75,-117,-222,-117Z" 
id="f1_r"
transform="scale(0.001,-0.001)" />

<path d="M369,-17c0,0,-70,0,-131,26c0,0,-61,27,-91,68c0,0,-29,40,-41,99c0,0,-8,40,-8,125V792H232V353c0,0,0,-105,8,-142c0,0,13,-53,54,-83c0,0,41,-30,101,-30c0,0,61,0,114,31c0,0,53,31,75,84c0,0,22,53,22,155V792H740V0H621V116c0,0,-93,-133,-252,-133Z" 
id="f1_15"
transform="scale(0.001,-0.001)" />

<path d="M358,88c0,0,78,0,139,34c0,0,60,34,89,92c0,0,21,46,21,134l1,49c0,0,-73,-30,-221,-51c0,0,-83,-11,-117,-26c0,0,-35,-15,-54,-44c0,0,-18,-28,-18,-63c0,0,0,-54,40,-89c0,0,41,-36,120,-36ZM326,-17c0,0,-131,0,-201,63c0,0,-70,64,-70,163c0,0,0,58,26,106c0,0,27,48,70,77c0,0,43,29,97,44c0,0,39,11,119,20c0,0,163,20,240,47c0,0,1,27,1,35c0,0,0,81,-38,115c0,0,-52,45,-153,45c0,0,-95,0,-141,-33c0,0,-45,-33,-67,-116L78,566c0,0,18,84,59,136c0,0,41,52,119,80c0,0,78,28,180,28c0,0,102,0,165,-24c0,0,64,-24,94,-60c0,0,29,-36,41,-91c0,0,7,-35,7,-124V332c0,0,0,-187,9,-236c0,0,8,-50,33,-96H645c0,0,-20,42,-26,98C619,98,544,34,475,8c0,0,-70,-25,-149,-25Z" 
id="f1_o"
transform="scale(0.001,-0.001)" />

<path d="M590,-18c0,0,-177,0,-287,71c0,0,-111,72,-169,209c0,0,-58,137,-58,293c0,0,0,171,66,298c0,0,65,128,185,194c0,0,121,66,265,66c0,0,164,0,276,-84c0,0,112,-84,156,-235L881,760c0,0,-38,120,-110,174c0,0,-72,55,-182,55c0,0,-126,0,-210,-61c0,0,-85,-60,-119,-162c0,0,-34,-102,-34,-210c0,0,0,-139,40,-243c0,0,41,-104,127,-156c0,0,85,-51,185,-51c0,0,122,0,206,70c0,0,84,70,114,208l145,-37c0,0,-46,-178,-164,-272c0,0,-118,-93,-289,-93Z" 
id="f1_i"
transform="scale(0.001,-0.001)" />

<path d="M312,-10c0,0,-73,0,-114,22c0,0,-40,23,-56,61c0,0,-17,38,-17,159V687H26V792h99V988l134,81V792H394V687H259V224c0,0,0,-57,7,-74c0,0,7,-16,23,-26c0,0,16,-10,46,-10c0,0,23,0,59,6L414,1c0,0,-57,-11,-102,-11Z" 
id="f1_14"
transform="scale(0.001,-0.001)" />

<path d="M320,0L20,792H161L331,318c0,0,28,-77,51,-160c0,0,18,63,50,151L608,792H746L447,0Z" 
id="f1_16"
transform="scale(0.001,-0.001)" />

<path d="M101,0V792H220V681c0,0,37,58,99,93c0,0,62,36,141,36c0,0,88,0,145,-37c0,0,56,-36,79,-102c0,0,94,139,245,139c0,0,118,0,182,-66c0,0,63,-65,63,-201V0H1040V499c0,0,0,80,-13,116c0,0,-13,35,-47,57c0,0,-35,21,-81,21c0,0,-83,0,-139,-55c0,0,-55,-56,-55,-178V0H571V514c0,0,0,90,-33,135c0,0,-33,44,-107,44c0,0,-57,0,-105,-30c0,0,-48,-29,-70,-87c0,0,-21,-57,-21,-165V0Z" 
id="f1_y"
transform="scale(0.001,-0.001)" />

<path d="M684,450L570,752c0,0,-52,138,-78,227c0,0,-21,-105,-59,-209L313,450ZM-1,0L417,1093H574L1021,0H857L729,331H271L152,0Z" 
id="f1_h"
transform="scale(0.001,-0.001)" />

<path d="M433,93c0,0,88,0,152,76c0,0,64,77,64,228c0,0,0,155,-61,228c0,0,-62,74,-149,74c0,0,-89,0,-153,-76c0,0,-64,-77,-64,-221c0,0,0,-142,39,-206c0,0,63,-103,172,-103ZM444,-17c0,0,-140,0,-220,117V0H100V1093H234V703c0,0,85,107,217,107c0,0,73,0,139,-30c0,0,65,-29,107,-83c0,0,42,-53,66,-128c0,0,24,-75,24,-161c0,0,0,-204,-101,-315C686,93,585,-17,444,-17Z" 
id="f1_p"
transform="scale(0.001,-0.001)" />

<path d="M48,329V463H461V329Z" 
id="f1_5"
transform="scale(0.001,-0.001)" />

<path d="M535,-18c0,0,-149,0,-249,43c0,0,-100,43,-158,130c0,0,-57,87,-60,197l137,12c0,0,10,-83,45,-135c0,0,36,-53,110,-86c0,0,75,-32,168,-32c0,0,83,0,146,24c0,0,63,25,94,68c0,0,31,43,31,94c0,0,0,51,-30,90c0,0,-30,38,-98,64c0,0,-44,17,-195,54c0,0,-151,36,-211,68c0,0,-79,41,-117,102c0,0,-38,61,-38,136c0,0,0,83,47,155c0,0,47,72,137,109c0,0,90,38,200,38c0,0,122,0,215,-39c0,0,93,-40,143,-116c0,0,50,-76,54,-172L767,775c0,0,-11,104,-76,158c0,0,-64,53,-190,53c0,0,-132,0,-192,-49c0,0,-60,-48,-60,-116c0,0,0,-59,43,-97c0,0,42,-38,218,-78c0,0,176,-40,242,-70c0,0,96,-44,141,-111c0,0,46,-68,46,-156c0,0,0,-87,-50,-165C889,144,839,67,745,24c0,0,-93,-42,-210,-42Z" 
id="f1_m"
transform="scale(0.001,-0.001)" />

<path d="M494,385V878L152,385ZM494,0V262H20V385l498,708H628V385H775V262H628V0Z" 
id="f1_c"
transform="scale(0.001,-0.001)" />

<path d="M139,0V153H291V0Z" 
id="f1_6"
transform="scale(0.001,-0.001)" />

<path d="M420,92c0,0,92,0,155,89c0,0,64,89,64,358c0,0,0,270,-63,359c0,0,-63,89,-158,89c0,0,-92,0,-147,-79c0,0,-70,-100,-70,-369c0,0,0,-269,63,-358c0,0,63,-89,156,-89Zm0,-110c0,0,-158,0,-248,112C172,94,64,231,64,539c0,0,0,194,39,313c0,0,40,118,119,182c0,0,79,64,198,64c0,0,88,0,155,-35c0,0,66,-36,109,-103c0,0,43,-66,68,-162c0,0,24,-96,24,-259c0,0,0,-192,-39,-311C737,228,697,110,619,46c0,0,-79,-64,-199,-64Z" 
id="f1_8"
transform="scale(0.001,-0.001)" />

<path d="M143,0V1093H287V0Z" 
id="f1_k"
transform="scale(0.001,-0.001)" />

<path d="M111,0V1093H256V129H795V0Z" 
id="f1_l"
transform="scale(0.001,-0.001)" />

<path d="M433,93c0,0,90,0,154,75c0,0,63,76,63,235c0,0,0,151,-62,226c0,0,-62,75,-149,75c0,0,-85,0,-151,-80c0,0,-66,-80,-66,-233c0,0,0,-152,62,-225c0,0,62,-73,149,-73ZM101,-303V792H223V688c0,0,43,61,98,91c0,0,54,31,132,31c0,0,101,0,179,-53c0,0,77,-52,117,-147c0,0,39,-95,39,-208c0,0,0,-122,-44,-219C744,183,701,86,618,34c0,0,-84,-51,-175,-51c0,0,-67,0,-121,28c0,0,-53,28,-87,71V-303Z" 
id="f1_11"
transform="scale(0.001,-0.001)" />

<path d="M138,0V153H290V0Zm0,639V792H290V639Z" 
id="f1_g"
transform="scale(0.001,-0.001)" />

<path d="M0,-18L317,1113H425L108,-18Z" 
id="f1_7"
transform="scale(0.001,-0.001)" />

<path d="M404,111c0,0,93,0,155,72c0,0,63,71,63,223c0,0,0,145,-65,218c0,0,-64,74,-155,74c0,0,-89,0,-152,-72c0,0,-62,-73,-62,-216c0,0,0,-156,61,-227c0,0,62,-72,155,-72ZM390,-321c0,0,-142,0,-230,64c0,0,-87,64,-84,193L207,-84c0,0,8,-60,46,-88c0,0,49,-37,136,-37c0,0,93,0,144,37c0,0,50,37,68,104c0,0,11,41,10,172C611,104,523,0,392,0C392,0,229,0,139,118c0,0,-89,118,-89,282c0,0,0,114,41,209c0,0,41,96,119,148c0,0,77,53,183,53c0,0,140,0,231,-114v96H748V107c0,0,0,-184,-38,-261c0,0,-38,-77,-119,-122c0,0,-82,-45,-201,-45Z" 
id="f1_t"
transform="scale(0.001,-0.001)" />

<path d="M182,-321c0,0,-39,0,-87,17L80,-178c0,0,44,-12,77,-12c0,0,45,0,72,15c0,0,26,15,44,42c0,0,12,20,41,100c0,0,3,11,12,33L24,792H169L334,334c0,0,32,-87,58,-183c0,0,23,91,55,179L616,792H750L450,-13c0,0,-49,-130,-75,-179c0,0,-36,-67,-83,-98c0,0,-46,-31,-110,-31Z" 
id="f1_18"
transform="scale(0.001,-0.001)" />

<path d="M640,-18c0,0,-161,0,-293,68c0,0,-132,69,-199,200c0,0,-67,131,-67,292c0,0,0,160,67,298c0,0,67,138,192,206c0,0,125,67,289,67c0,0,118,0,214,-39c0,0,96,-38,150,-107c0,0,55,-69,83,-179L946,752c0,0,-25,83,-62,131c0,0,-36,48,-104,77c0,0,-68,29,-150,29c0,0,-100,0,-172,-31c0,0,-72,-30,-117,-79c0,0,-44,-49,-69,-108c0,0,-41,-102,-41,-220c0,0,0,-146,50,-245c0,0,50,-98,147,-146c0,0,96,-48,204,-48c0,0,94,0,183,37c0,0,90,36,136,76V428H630V557h463V152C1093,152,986,67,873,24c0,0,-114,-42,-233,-42Z" 
id="f1_j"
transform="scale(0.001,-0.001)" />

<path d="M102,706L67,910v183H220V910L184,706Z" 
id="f1_4"
transform="scale(0.001,-0.001)" />

<path d="M415,-18c0,0,-149,0,-244,83c0,0,-94,84,-107,222l140,11c0,0,16,-103,73,-154c0,0,56,-52,137,-52c0,0,98,0,165,73c0,0,66,73,66,194c0,0,0,115,-64,182c0,0,-64,66,-169,66c0,0,-65,0,-117,-29c0,0,-52,-30,-82,-77L87,517l106,562H736V951H300L241,657c0,0,99,69,207,69c0,0,143,0,242,-100c0,0,98,-99,98,-255c0,0,0,-149,-86,-257C702,114,597,-18,415,-18Z" 
id="f1_d"
transform="scale(0.001,-0.001)" />

<path d="M435,0V856c0,0,-48,-47,-127,-93c0,0,-79,-46,-142,-69V824c0,0,113,52,197,128c0,0,85,75,120,146h86V0Z" 
id="f1_9"
transform="scale(0.001,-0.001)" />

<path d="M108,706L70,914v179H223V914L189,706Zm247,0L319,914v179H471V914L436,706Z" 
id="f1_3"
transform="scale(0.001,-0.001)" />

<path d="M435,92c0,0,86,0,147,69c0,0,60,68,60,186c0,0,0,114,-60,179c0,0,-60,66,-152,66c0,0,-91,0,-154,-66c0,0,-64,-65,-64,-171c0,0,0,-70,30,-133c0,0,29,-64,82,-97c0,0,52,-33,111,-33Zm3,-110c0,0,-168,0,-274,123C164,105,58,228,58,512c0,0,0,317,117,461c0,0,102,125,275,125c0,0,129,0,212,-72c0,0,82,-72,99,-200L627,815c0,0,-18,79,-51,115c0,0,-54,58,-134,58c0,0,-64,0,-113,-36c0,0,-63,-46,-99,-135c0,0,-37,-89,-38,-253c0,0,48,74,118,110c0,0,70,36,147,36c0,0,135,0,229,-99c0,0,94,-99,94,-256c0,0,0,-103,-44,-191C736,164,691,75,614,28c0,0,-78,-46,-176,-46Z" 
id="f1_e"
transform="scale(0.001,-0.001)" />

<path d="M412,-18c0,0,-144,0,-239,85c0,0,-95,86,-108,222l133,18c0,0,24,-114,79,-164c0,0,55,-50,135,-50c0,0,96,0,161,65c0,0,65,66,65,163c0,0,0,92,-61,152c0,0,-60,60,-153,60c0,0,-38,0,-95,-15l15,119c0,0,13,-2,21,-2c0,0,86,0,155,45c0,0,69,44,69,137c0,0,0,74,-50,122c0,0,-50,49,-129,49c0,0,-79,0,-131,-50c0,0,-52,-49,-67,-147L78,815c0,0,25,135,112,209c0,0,87,74,217,74c0,0,89,0,164,-38c0,0,76,-39,116,-105c0,0,40,-66,40,-141c0,0,0,-70,-39,-129c0,0,-38,-58,-112,-92c0,0,97,-22,151,-93c0,0,53,-70,53,-176c0,0,0,-143,-104,-243c0,0,-105,-99,-264,-99Z" 
id="f1_b"
transform="scale(0.001,-0.001)" />

<path d="M46,0c0,0,-2,48,16,93c0,0,27,74,88,146c0,0,61,71,176,165c0,0,178,146,241,232c0,0,63,85,63,161c0,0,0,80,-57,135c0,0,-58,55,-149,55c0,0,-98,0,-156,-59c0,0,-58,-58,-59,-160L71,782c0,0,15,154,107,235c0,0,93,81,249,81c0,0,157,0,249,-87c0,0,92,-88,92,-217c0,0,0,-65,-27,-129c0,0,-27,-63,-89,-133c0,0,-62,-70,-207,-193C445,339,324,238,290,202c0,0,-35,-36,-57,-73H770V0Z" 
id="f1_a"
transform="scale(0.001,-0.001)" />

<path d="M423,92c0,0,97,0,159,62c0,0,62,62,62,157c0,0,0,97,-64,160c0,0,-64,64,-161,64c0,0,-96,0,-158,-63c0,0,-62,-62,-62,-156c0,0,0,-58,27,-111c0,0,27,-54,81,-84c0,0,54,-29,116,-29Zm0,552c0,0,78,0,127,49c0,0,49,49,49,120c0,0,0,74,-50,124c0,0,-51,51,-128,51c0,0,-77,0,-127,-50c0,0,-51,-49,-51,-118c0,0,0,-77,50,-126c0,0,50,-50,130,-50ZM422,-18c0,0,-162,0,-261,95c0,0,-99,96,-99,239c0,0,0,107,54,179c0,0,54,72,154,98c0,0,-84,31,-124,87c0,0,-40,57,-40,136c0,0,0,119,85,201c0,0,86,81,229,81c0,0,143,0,230,-83c0,0,87,-83,87,-203c0,0,0,-76,-40,-132c0,0,-39,-56,-121,-87c0,0,101,-33,154,-106c0,0,52,-73,52,-174c0,0,0,-141,-99,-236c0,0,-99,-95,-261,-95Z" 
id="f1_f"
transform="scale(0.001,-0.001)" />


</defs>

<!-- Any embedded fonts defined here -->
<style type="text/css" ><![CDATA[

@font-face {
	font-family: ArialMT_a;
	src: url("fonts/ArialMT_a.woff") format("woff");
}

@font-face {
	font-family: Arial-Black_9;
	src: url("fonts/Arial-Black_9.woff") format("woff");
}

]]></style>

</svg>
