<?xml version="1.0" encoding="utf-8"?>
<!-- Generator: Adobe Illustrator 20.1.0, SVG Export Plug-In . SVG Version: 6.00 Build 0)  -->
<svg version="1.1" id="Layer_18" xmlns="http://www.w3.org/2000/svg" xmlns:xlink="http://www.w3.org/1999/xlink" x="0px" y="0px"
	 viewBox="0 0 473.1 377.2" style="enable-background:new 0 0 473.1 377.2;" xml:space="preserve">
<style type="text/css">
	.st0{fill:#8F7B5C;}
	.st1{fill:#D1A46E;}
	.st2{fill:#F7C283;}
	.st3{fill:#9F7C52;}
	.st4{fill:#BDA27C;}
	.st5{fill:#DFC093;}
	.st6{fill:#414141;}
	.st7{fill:#686868;}
	.st8{fill:#8A8A8B;}
	.st9{fill:#272727;}
	.st10{fill:#2C2C2C;}
	.st11{fill:#222222;}
	.st12{fill:#A4A4A5;}
	.st13{fill:#363636;}
	.st14{fill:#543404;}
	.st15{fill:#6A4109;}
	.st16{fill:#87550D;}
	.st17{fill:#9F6512;}
	.st18{fill:#B17115;}
	.st19{fill:#BD7918;}
	.st20{fill:#C27C19;}
	.st21{fill:#BF7B18;}
	.st22{fill:#B67416;}
	.st23{fill:#A66A14;}
	.st24{fill:#915B0F;}
	.st25{fill:#75490A;}
	.st26{fill:#6F4508;}
	.st27{fill:#915127;}
	.st28{fill:#A45C2E;}
	.st29{fill:#A75E2E;}
	.st30{fill:#9F592B;}
	.st31{fill:#7D4621;}
	.st32{fill:#A95F2F;}
	.st33{fill:#653718;}
	.st34{fill:#8A4D25;}
	.st35{fill:#75411E;}
	.st36{fill:#5B3115;}
	.st37{fill:#49260E;}
	.st38{fill:#777777;}
	.st39{fill:#997D21;}
	.st40{fill:#8C8D8D;}
	.st41{fill:#BBBBBC;}
	.st42{fill:#9E9E9E;}
	.st43{fill:none;stroke:#000000;stroke-width:0.5;stroke-linecap:round;stroke-linejoin:round;stroke-miterlimit:10;}
	.st44{fill:none;stroke:#000000;stroke-linecap:round;stroke-linejoin:round;stroke-miterlimit:10;}
</style>
<g>
	<g>
		<g>
			<polygon class="st0" points="332.3,29.7 411.2,48.2 346.9,57.5 255.7,33.4 316.4,26 			"/>
			<polygon class="st1" points="411.2,48.2 332.3,29.7 332.3,27.3 418.5,47.1 			"/>
			<polygon class="st1" points="332.3,29.7 316.4,26 298.4,21.8 298.4,19.5 332.3,27.3 			"/>
			<polygon class="st0" points="298.4,21.8 316.4,26 255.7,33.4 177.1,12.5 233.9,6.8 			"/>
			<polygon class="st1" points="298.4,21.8 233.9,6.8 233.9,4.6 298.4,19.5 			"/>
			<polygon class="st2" points="233.9,4.6 233.9,6.8 177.1,12.5 110.8,19.3 49.5,25.5 44.2,23.6 			"/>
			<path class="st0" d="M145.1,24.8l24.8,7.5l45.7-5.2l-26-7L145.1,24.8z M110.8,19.3l66.2-6.7l78.7,20.8L184.3,42L110.8,19.3"/>
			<polygon class="st0" points="49.5,25.5 110.8,19.3 184.3,41.9 117.5,50 96.8,42.5 			"/>
			<polygon class="st0" points="255.7,33.4 346.9,57.5 270.5,68.5 184.3,41.9 			"/>
			<polygon class="st3" points="332.3,27.3 298.4,19.5 303,19 336.9,26.7 			"/>
			<polygon class="st3" points="332.3,27.3 336.9,26.7 448.5,52.2 443.6,52.9 422.9,48.1 418.5,47.1 			"/>
			<polygon class="st3" points="418.5,47.1 422.9,48.1 201.8,80.4 198,79 270.5,68.5 346.9,57.5 411.2,48.2 			"/>
			<polygon class="st1" points="27.8,31.9 27.3,23.2 36.8,26.8 38.7,27.4 87.4,45.6 87.9,55.3 70.9,48.7 39.5,36.4 37.2,35.5 			"/>
			<polygon class="st4" points="38.7,27.4 36.8,26.8 36.8,25.8 38.6,26.4 			"/>
			<polygon class="st0" points="39.5,36.4 70.9,48.7 70.3,48.8 38.9,36.5 			"/>
			<polygon class="st1" points="87.9,55.3 87.4,45.6 105.9,52.5 195.4,85.9 213.2,92.5 213.4,104.4 196.8,97.9 196.7,97.9 
				196.6,97.9 196,97.6 148.1,78.9 106.8,62.7 			"/>
			<polygon class="st4" points="195.4,85.9 105.9,52.5 105.9,51.4 119,56.2 195.3,84.5 			"/>
			<polygon class="st0" points="106.8,62.7 148.1,78.9 147.4,79 106.1,62.8 			"/>
			<polygon class="st1" points="221.7,4.9 224.5,4.7 221.7,4 			"/>
			<polygon class="st4" points="221.7,4 224.5,4.7 224.7,4.6 221.7,3.9 			"/>
			<polygon class="st2" points="448.3,56.1 447.9,66.3 445.8,66.7 446.2,56.4 			"/>
			<polygon class="st5" points="448.3,56.1 446.2,56.4 446.3,55.3 448.4,55 			"/>
			<polygon class="st1" points="446.2,56.4 445.8,66.7 428.6,62.4 426.5,61.9 426.4,61.9 426.2,61.9 426.2,61.9 425.6,61.7 
				425.1,61.6 425.5,51.6 			"/>
			<polygon class="st2" points="425.5,51.6 425.1,61.6 357.9,72.1 216.1,94.3 216.1,92.1 216.1,90.7 219.9,90.1 219.8,86.9 
				210.7,83.6 281.2,73.1 358.1,61.6 			"/>
			<polygon class="st5" points="358.1,61.6 281.2,73.1 281.2,71.8 358.1,60.4 			"/>
			<polygon class="st0" points="425.1,61.6 425.6,61.7 358.4,72.2 357.9,72.1 			"/>
			<polygon class="st5" points="425.5,51.6 358.1,61.6 358.1,60.4 422.8,50.9 425.5,51.5 			"/>
			<polygon class="st4" points="425.5,51.6 425.5,51.5 443.5,55.7 446.3,55.3 446.2,56.4 			"/>
			<polygon class="st2" points="422.8,50.9 358.1,60.4 281.2,71.8 208.1,82.6 201.8,80.4 422.9,48.1 			"/>
			<polygon class="st1" points="422.8,50.9 422.9,48.1 443.6,52.9 443.5,55.7 425.5,51.5 			"/>
			<polygon class="st2" points="213.4,104.4 213.2,92.5 216.1,92.1 216.1,94.3 216.1,94.5 216.1,94.8 216.1,94.9 216.3,104 			"/>
			<polygon class="st5" points="216.1,92.1 213.2,92.5 213.2,91.2 216.1,90.7 			"/>
			<polygon class="st6" points="213.4,104.4 216.3,104 216.1,94.9 426.5,61.9 428.6,62.4 427.7,87 427.4,87.1 423,87.9 418.1,88.7 
				417.6,88.6 285.9,111.7 285.9,111.9 285.8,111.9 276.7,113.5 276.2,113.3 208.8,125.2 208.8,125.4 208.7,125.4 196.2,127.6 
				195.5,98.1 196.8,97.9 			"/>
			<polygon class="st7" points="208.8,125.2 276.2,113.3 276.7,113.5 277,113.6 209.5,125.4 			"/>
			<polygon class="st8" points="208.8,125.4 208.7,125.4 208.8,126.9 209,127 209.5,127.3 209.5,125.4 208.8,125.2 			"/>
			<polygon class="st6" points="208.7,125.4 208.8,126.9 209,127 209.7,163.8 197,166.4 196.1,127.6 196.2,127.6 			"/>
			<polygon class="st7" points="285.9,111.7 417.6,88.6 418.1,88.7 418.4,88.8 286.6,111.9 			"/>
			<polygon class="st8" points="285.9,111.9 285.8,111.9 285.8,113.3 286,113.4 286.6,113.6 286.6,111.9 285.9,111.7 			"/>
			<polygon class="st6" points="285.8,111.9 285.8,113.3 286,113.4 286,266 286,277 286,277.1 276.4,279.8 276.3,269.2 277,269.1 
				276.6,115.4 277,115.3 277,113.6 276.7,113.5 			"/>
			<polygon class="st0" points="216.1,94.3 357.9,72.1 358.4,72.2 216.1,94.5 			"/>
			<polygon class="st0" points="106.8,62.7 106.1,62.8 70.3,48.8 70.9,48.7 87.9,55.3 			"/>
			<polygon class="st4" points="106.1,62.8 147.4,79 147.4,79.2 106.1,63 			"/>
			<polygon class="st9" points="106.1,63 147.4,79.2 195.3,98 195.5,98 195.5,98.1 195.4,98.1 36.4,35.7 36.6,35.7 36.6,35.7 
				36.6,35.8 36.6,35.8 38.9,36.7 70.3,49 			"/>
			<polygon class="st4" points="106.1,63 70.3,49 70.3,48.8 106.1,62.8 			"/>
			<polygon class="st4" points="195.3,98 147.4,79.2 147.4,79 195.3,97.7 			"/>
			<polygon class="st4" points="70.3,49 38.9,36.7 38.9,36.5 70.3,48.8 			"/>
			<polygon class="st4" points="38.9,36.7 36.6,35.8 36.6,35.7 36.6,35.7 36.6,35.6 38.9,36.5 			"/>
			<polygon class="st0" points="147.4,79 148.1,78.9 196,97.6 195.3,97.7 			"/>
			<polygon class="st1" points="27.2,22.2 27.1,19.8 90.9,43.2 91.1,45.9 38.6,26.4 36.8,25.8 			"/>
			<polygon class="st1" points="91.1,45.9 90.9,43.2 118.9,53.4 119,56.2 105.9,51.4 			"/>
			<polygon class="st3" points="90.9,43.2 27.1,19.8 32.4,19.3 42.1,22.8 44.2,23.6 49.5,25.5 96.8,42.5 			"/>
			<polygon class="st3" points="90.9,43.2 96.8,42.5 117.5,50 124.9,52.7 118.9,53.4 			"/>
			<polygon class="st2" points="443.5,55.7 443.6,52.9 448.5,52.2 448.4,55 446.3,55.3 			"/>
			<polygon class="st1" points="219.2,3.4 219.2,1.2 231.2,4 224.7,4.6 221.7,3.9 			"/>
			<polygon class="st3" points="219.2,1.2 223.4,0.8 303,19 298.4,19.5 233.9,4.6 231.2,4 			"/>
			<polygon class="st1" points="119,56.2 118.9,53.4 213.1,87.9 213.2,91.2 195.3,84.5 			"/>
			<polygon class="st2" points="213.2,91.2 213.1,87.9 219.8,86.9 219.9,90.1 216.1,90.7 			"/>
			<polygon class="st3" points="213.1,87.9 118.9,53.4 124.9,52.7 198,79 201.8,80.4 208.1,82.6 210.7,83.6 219.8,86.9 			"/>
			<polygon class="st3" points="231.2,4 233.9,4.6 44.2,23.6 42.1,22.8 221.7,4.9 224.5,4.7 224.7,4.6 			"/>
			<polygon class="st10" points="276.6,115.4 277,269.1 276.3,269.2 276.3,269.3 275.7,269.4 275.3,115.6 			"/>
			<polygon class="st5" points="275.3,115.6 275.7,269.4 214.1,286.6 211,127 			"/>
			<polygon class="st10" points="211,127 214,286.6 212.7,287 209.6,127.2 			"/>
			<polygon class="st11" points="209.6,127.2 212.7,287 212.1,286.6 211.1,235.1 211,229.2 209.8,169.8 209.7,163.8 209,127 
				209.5,127.3 			"/>
			<polygon class="st12" points="212.1,286.6 212.7,287 214.1,286.6 275.7,269.4 276.3,269.3 276.3,279.8 212.4,298.1 			"/>
			<polygon class="st13" points="276.3,269.3 276.3,279.8 276.4,279.8 276.3,269.2 			"/>
			<polygon class="st14" points="393.2,297.4 393.5,299.4 394.2,274.8 393.9,273 			"/>
			<polygon class="st15" points="394.9,301.3 393.5,299.4 394.2,274.8 395.6,276.7 			"/>
			<polygon class="st16" points="397.4,303.1 394.9,301.3 395.7,276.7 398.2,278.3 			"/>
			<polygon class="st17" points="400.9,304.6 397.4,303.1 398.2,278.3 401.7,279.8 			"/>
			<polygon class="st18" points="405,305.6 400.9,304.6 401.7,279.8 405.8,280.8 			"/>
			<polygon class="st19" points="409.6,306.3 405,305.6 405.8,280.8 410.4,281.4 			"/>
			<polygon class="st20" points="414.2,306.4 409.6,306.3 410.4,281.4 415.1,281.5 			"/>
			<polygon class="st21" points="418.6,305.9 414.2,306.4 415.1,281.5 419.5,281.1 			"/>
			<polygon class="st22" points="422.4,305 418.6,305.9 419.5,281.1 423.3,280.2 			"/>
			<polygon class="st23" points="425.4,303.6 422.4,305 423.3,280.2 426.3,278.9 			"/>
			<polygon class="st24" points="427.3,302 425.4,303.6 426.3,278.9 428.3,277.3 			"/>
			<polygon class="st25" points="428.1,300.1 427.3,302 428.3,277.3 429,275.5 			"/>
			<polygon class="st26" points="424.4,270.2 427.1,271.8 428.6,273.6 429,275.5 428.3,277.3 426.3,278.9 423.3,280.2 419.5,281.1 
				415.1,281.5 410.4,281.4 405.8,280.8 401.7,279.8 398.2,278.3 395.6,276.7 394.2,274.8 393.9,273 394.9,271.2 396.9,269.7 
				399.9,268.5 401.1,268.2 400.9,273.5 401.1,274.6 402,275.7 403.5,276.7 405.6,277.5 408.1,278.1 410.8,278.5 413.6,278.5 
				416.2,278.3 418.5,277.8 420.3,277 421.5,276.1 422,275 422.2,269.3 			"/>
			<polygon class="st27" points="420.3,277 418.5,277.8 419.1,260.8 420.9,260.3 			"/>
			<polygon class="st28" points="410.8,278.5 408.1,278.1 408.6,264 411.4,263.2 			"/>
			<polygon class="st29" points="416.2,278.3 413.6,278.5 414.2,262.3 416.8,261.5 			"/>
			<polygon class="st30" points="418.5,277.8 416.2,278.3 416.8,261.5 419.1,260.8 			"/>
			<polygon class="st31" points="421.5,276.1 420.3,277 420.9,260.3 422.1,259.9 			"/>
			<polygon class="st32" points="413.6,278.5 410.8,278.5 411.4,263.2 414.2,262.3 			"/>
			<polygon class="st15" points="402,275.7 401.1,274.6 401.4,266.2 402.3,265.9 			"/>
			<polygon class="st18" points="408.1,278.1 405.6,277.5 406,264.8 408.6,264 			"/>
			<polygon class="st16" points="403.5,276.7 402,275.7 402.3,265.9 403.9,265.4 			"/>
			<polygon class="st33" points="422,275 421.5,276.1 422.1,259.9 422.6,259.8 422.2,269.3 			"/>
			<polygon class="st14" points="401.2,266.3 401.1,268.2 400.9,273.5 401.1,274.6 401.4,266.2 			"/>
			<polygon class="st17" points="405.6,277.5 403.5,276.7 403.9,265.4 406,264.8 			"/>
			<polygon class="st15" points="184.8,369.9 184.2,367.3 183.4,339.5 184,342 			"/>
			<polygon class="st16" points="186.8,372.2 184.8,369.9 184,342 186,344.2 			"/>
			<polygon class="st17" points="190,374.2 186.8,372.2 186,344.2 189.2,346.1 			"/>
			<polygon class="st18" points="194.2,375.6 190,374.2 189.2,346.1 193.5,347.4 			"/>
			<polygon class="st19" points="199.1,376.4 194.2,375.6 193.5,347.4 198.4,348.2 			"/>
			<polygon class="st20" points="204.4,376.5 199.1,376.4 198.4,348.2 203.7,348.3 			"/>
			<polygon class="st21" points="209.6,376 204.4,376.5 203.7,348.3 209.1,347.8 			"/>
			<polygon class="st22" points="214.5,374.7 209.6,376 209,347.8 214,346.6 			"/>
			<polygon class="st23" points="218.7,373 214.5,374.7 214,346.6 218.1,344.9 			"/>
			<polygon class="st24" points="221.8,370.7 218.7,373 218.1,344.9 221.3,342.8 			"/>
			<polygon class="st25" points="223.7,368.2 221.8,370.7 221.3,342.8 223.2,340.4 			"/>
			<polygon class="st14" points="224.2,365.6 223.7,368.2 223.2,340.4 223.8,337.9 			"/>
			<polygon class="st26" points="198.4,348.2 193.5,347.4 189.2,346.1 186,344.2 184,342 183.4,339.5 184.2,337.1 186.2,334.7 
				189.5,332.7 191.3,332 191.5,339.2 191.9,340.7 193.1,342 195,343.1 197.6,343.9 200.5,344.4 203.7,344.5 206.9,344.1 
				209.8,343.4 212.3,342.4 214.2,341.2 215.4,339.7 215.7,338.3 215.6,331 217.6,331.6 220.8,333.4 223,335.5 223.8,337.9 
				223.2,340.4 221.3,342.8 218.1,344.9 214,346.6 209,347.8 203.7,348.3 			"/>
			<polygon class="st29" points="206.9,344.1 203.7,344.5 203.3,326 206.4,325.1 			"/>
			<polygon class="st32" points="203.7,344.5 200.5,344.4 200.1,327 203.3,326 			"/>
			<polygon class="st28" points="200.5,344.4 197.6,343.9 197.2,327.9 200.1,327 			"/>
			<polygon class="st30" points="209.8,343.4 206.9,344.1 206.4,325.1 209.4,324.2 			"/>
			<polygon class="st18" points="197.6,343.9 195,343.1 194.7,328.6 197.2,327.9 			"/>
			<polygon class="st23" points="212.3,342.4 209.8,343.4 209.4,324.2 211.9,323.4 			"/>
			<polygon class="st34" points="195,343.1 193.1,342 192.8,329.2 194.7,328.6 			"/>
			<polygon class="st24" points="214.2,341.2 212.3,342.4 211.9,323.4 213.8,322.9 			"/>
			<polygon class="st35" points="193.1,342 191.9,340.7 191.6,329.6 192.8,329.2 			"/>
			<polygon class="st33" points="215.4,339.7 214.2,341.2 213.8,322.9 215,322.5 			"/>
			<polygon class="st36" points="191.3,329.7 191.3,332 191.5,339.2 191.9,340.7 191.6,329.6 			"/>
			<polygon class="st37" points="215,322.5 215.4,339.7 215.7,338.3 215.6,331 215.4,322.4 			"/>
			<polygon class="st17" points="44.6,252.6 42.6,251.5 41.2,229.3 43.2,230.4 			"/>
			<polygon class="st18" points="47.6,253.5 44.6,252.6 43.2,230.4 46.2,231.2 			"/>
			<polygon class="st19" points="51.2,254 47.6,253.5 46.2,231.2 49.8,231.6 			"/>
			<polygon class="st20" points="55.2,254 51.2,254 49.8,231.6 53.8,231.7 			"/>
			<polygon class="st21" points="59.4,253.7 55.2,254 53.8,231.7 58,231.4 			"/>
			<polygon class="st22" points="63.4,253 59.4,253.7 58,231.4 60.4,231 62.2,232.3 			"/>
			<polygon class="st23" points="67,251.9 63.4,253 62.2,232.3 66,235.3 			"/>
			<polygon class="st24" points="69.9,250.6 67,251.9 66,235.3 69.1,237.6 			"/>
			<polygon class="st25" points="71.9,249.1 69.9,250.6 69.1,237.7 71.3,239.3 			"/>
			<polygon class="st14" points="72.9,247.6 71.9,249.1 71.3,239.3 72.5,240.2 			"/>
			<polygon class="st15" points="72.9,247.6 72.8,246.1 72.5,240.2 72.5,240.2 			"/>
			<polygon class="st16" points="42.6,251.5 41.6,250.1 40.2,228 41.2,229.3 			"/>
			<polygon class="st26" points="43.2,230.4 41.2,229.3 40.2,228 40.2,226.5 41.4,225.1 43.5,223.7 46.2,222.6 46.5,227.2 47.1,228 
				48.4,228.6 50.1,229.1 52.3,229.4 54.7,229.4 57.2,229.2 58,229.1 60.4,231 58,231.4 53.8,231.7 49.8,231.6 46.2,231.2 			"/>
			<polygon class="st35" points="47.1,228 46.5,227.2 46.2,222.6 46,220 46.6,220.4 			"/>
			<polygon class="st17" points="48.4,228.6 47.1,228 46.6,220.4 47.9,221.4 			"/>
			<polygon class="st18" points="50.1,229.1 48.4,228.6 47.9,221.4 49.7,222.8 			"/>
			<polygon class="st19" points="52.3,229.4 50.1,229.1 49.7,222.8 52,224.5 			"/>
			<polygon class="st20" points="54.7,229.4 52.3,229.4 52,224.5 54.5,226.5 			"/>
			<polygon class="st21" points="57.2,229.2 54.7,229.4 54.5,226.5 57.1,228.5 			"/>
			<polygon class="st22" points="57.2,229.2 58,229.1 57.1,228.5 			"/>
			<polygon class="st5" points="195.3,97.7 195.3,98 195.5,98 196,98 196,97.6 			"/>
			<polygon class="st5" points="196,98 196.6,97.9 196,97.6 			"/>
			<polygon class="st0" points="36.6,35.6 38.9,36.5 39.5,36.4 37.2,35.5 			"/>
			<polygon class="st5" points="216.1,94.5 358.4,72.2 358.4,72.6 216.1,94.8 			"/>
			<polygon class="st5" points="358.4,72.6 358.4,72.2 425.6,61.7 426.2,61.9 418,63.1 418,63.2 			"/>
			<polygon class="st9" points="418,63.1 426.2,61.9 426.2,61.9 			"/>
			<polygon class="st13" points="418,63.2 418,63.2 418,63.1 418,63.1 			"/>
			<polygon class="st5" points="281.2,71.8 281.2,73.1 210.7,83.6 208.1,82.6 			"/>
			<polygon class="st0" points="184.3,41.9 270.5,68.5 198,79 124.9,52.7 117.5,50 			"/>
			<polygon class="st4" points="195.4,85.9 195.3,84.5 213.2,91.2 213.2,92.5 			"/>
			<polygon class="st4" points="105.9,51.4 105.9,52.5 87.4,45.6 38.7,27.4 38.6,26.4 91.1,45.9 			"/>
			<polygon class="st7" points="422.3,227.5 422.4,227.5 413.3,230.1 413.3,230 			"/>
			<polygon class="st6" points="422.3,227.5 413.3,230 414.8,184.9 423.9,182.7 			"/>
			<polygon class="st12" points="413.3,230.1 422.4,227.5 422.2,234.1 422,238.1 417.1,239.5 412.5,240.8 412.4,240.9 408.1,242.1 
				408,242.1 286,277 286,266 286.6,266.4 287.8,266 352.7,247.9 412.2,231.3 413.3,231 			"/>
			<polygon class="st11" points="286,266 286.6,266.4 286.7,113.6 286.6,113.6 286,113.4 			"/>
			<polygon class="st10" points="286.6,266.4 286.7,113.6 287.9,113.4 287.8,266 			"/>
			<polygon class="st5" points="287.8,266 287.9,113.4 355.4,101.5 352.7,247.9 			"/>
			<polygon class="st10" points="413.3,231 412.2,231.3 417,90.6 418,90.4 418,91.6 416.9,122.3 416.8,127.6 415,179.8 414.8,184.9 
				413.3,230 413.3,230.1 			"/>
			<polygon class="st5" points="417,90.6 412.2,231.3 352.7,247.9 355.4,101.5 			"/>
			<polygon class="st38" points="212.4,298.1 276.3,279.8 276.4,279.8 286,277.1 286,277 408,242.1 408,243.9 407.4,244 
				406.3,244.5 405.6,245.2 405.3,245.8 405.6,246.5 406.3,247.2 407.5,247.8 409,248.3 410.7,248.6 412.5,248.8 414.4,248.8 
				416.1,248.6 417.5,248.2 418.6,247.7 419.3,247.1 419.5,246.4 419.2,245.7 418.5,245 417.3,244.4 417,244.3 417.1,239.5 
				422,238.1 422.2,234.1 455.5,249 189.8,329.1 19,198.6 46.9,193 50.4,195.5 50.7,199.5 50.2,199.6 49.1,200.1 48.4,200.6 
				48.1,201.1 48.2,201.7 48.7,202.1 49.6,202.5 50.9,202.8 52.4,202.9 54,202.9 55.7,202.8 57.3,202.5 58.1,202.2 58.3,204.2 
				64.8,208.9 68.3,208.2 78.6,215.5 78.8,218.9 85.9,224 89.5,223.2 100.9,231.3 101.1,234.9 108.8,240.4 112.5,239.5 125.2,248.6 
				125.4,252.2 133.8,258.3 137.6,257.3 151.8,267.4 152,271.3 161.2,277.9 165.2,276.9 181.1,288.2 181.2,292.2 191.4,299.5 
				195.5,298.4 197.8,300 197.9,304.3 196.8,304.8 195.6,305.6 194.9,306.5 194.8,307.4 195.2,308.3 196.2,309.1 197.6,309.8 
				199.4,310.2 201.4,310.4 203.6,310.4 205.7,310.1 207.6,309.7 209.1,309 210.3,308.1 210.9,307.2 211,306.3 210.6,305.4 
				209.6,304.6 208.2,304 207.8,303.9 207.7,299.5 			"/>
			<polygon class="st38" points="195.2,308.3 194.8,307.4 194.9,306.5 195.6,305.6 196.8,304.8 197.9,304.3 197.9,306.4 198,306.4 
				201.6,309 201.7,309.1 207.9,307.3 207.8,303.9 208.2,304 209.6,304.6 210.6,305.4 211,306.3 210.9,307.2 210.3,308.1 209.1,309 
				207.6,309.7 205.7,310.1 203.6,310.4 201.4,310.4 199.4,310.2 197.6,309.8 196.2,309.1 			"/>
			<polygon class="st12" points="207.9,307.3 201.7,309.1 201.6,301.2 207.7,299.5 207.8,303.9 			"/>
			<polygon class="st8" points="197.9,304.3 197.9,306.4 198,306.4 197.9,300.1 197.8,300 			"/>
			<polygon class="st8" points="201.5,301.3 201.6,309 201.7,309.1 201.6,301.2 			"/>
			<polygon class="st39" points="201.6,309 198,306.4 197.9,300.1 199.9,301.5 200,301.6 200.1,301.7 201.5,301.3 			"/>
			<polygon class="st40" points="406.3,247.2 405.6,246.5 405.3,245.8 405.6,245.2 406.3,244.5 407.4,244 408,243.9 407.9,245.8 
				408,245.8 412.1,247.7 412.3,247.8 416.9,246.5 417,244.3 417.3,244.4 418.5,245 419.2,245.7 419.5,246.4 419.3,247.1 
				418.6,247.7 417.5,248.2 416.1,248.6 414.4,248.8 412.5,248.8 410.7,248.6 409,248.3 407.5,247.8 			"/>
			<polygon class="st12" points="416.9,246.5 412.3,247.8 412.5,240.8 417.1,239.5 417,244.3 			"/>
			<polygon class="st8" points="408,242.1 408,243.9 407.9,245.8 408,245.8 408.1,242.1 			"/>
			<polygon class="st8" points="412.4,240.9 412.1,247.7 412.3,247.8 412.5,240.8 			"/>
			<polygon class="st39" points="412.1,247.7 408,245.8 408.1,242.1 412.4,240.9 			"/>
			<polygon class="st40" points="48.2,201.7 48.1,201.1 48.4,200.6 49.1,200.1 50.2,199.6 50.7,199.5 50.7,200.5 50.8,200.6 
				52.9,202.1 53,202.1 58.1,201.1 58.1,202.2 57.3,202.5 55.7,202.8 54,202.9 52.4,202.9 50.9,202.8 49.6,202.5 48.7,202.1 			"/>
			<polygon class="st12" points="58.1,201.1 53,202.1 52.7,197.1 58.1,200.9 			"/>
			<polygon class="st8" points="50.7,199.5 50.7,200.5 50.8,200.6 50.5,195.6 50.4,195.5 			"/>
			<polygon class="st8" points="52.9,202.1 53,202.1 52.6,197.1 52.6,197.1 			"/>
			<polygon class="st39" points="52.9,202.1 50.8,200.6 50.5,195.6 52.6,197.1 			"/>
			<polygon class="st41" points="165.2,276.9 161.2,277.9 161.1,274 			"/>
			<polygon class="st42" points="161.2,277.9 152,271.3 151.8,267.4 161.1,274 			"/>
			<polygon class="st41" points="195.5,298.4 191.4,299.5 191.3,295.5 			"/>
			<polygon class="st42" points="191.4,299.5 181.2,292.2 181.1,288.2 191.3,295.5 			"/>
			<polygon class="st41" points="137.6,257.3 133.8,258.3 133.7,254.6 			"/>
			<polygon class="st42" points="133.8,258.3 125.4,252.2 125.2,248.6 133.7,254.6 			"/>
			<polygon class="st41" points="112.5,239.5 108.8,240.4 108.6,236.8 			"/>
			<polygon class="st42" points="108.8,240.4 101.1,234.9 100.9,231.3 108.6,236.8 			"/>
			<polygon class="st41" points="89.5,223.2 85.9,224 85.7,220.5 			"/>
			<polygon class="st42" points="85.9,224 78.8,218.9 78.6,215.5 85.7,220.5 			"/>
			<polygon class="st41" points="68.3,208.2 64.8,208.9 64.6,205.6 			"/>
			<polygon class="st42" points="64.8,208.9 58.3,204.2 58.1,202.2 58.1,201.1 58.1,200.9 64.6,205.6 			"/>
			<polygon class="st8" points="200,301.6 199.9,301.5 199.6,289.9 195.1,286.8 195.1,286.3 199.7,289.5 			"/>
			<polygon class="st13" points="200,301.6 199.7,289.5 195.1,286.3 195.1,286.8 199.6,289.9 199.9,301.5 197.9,300.1 197.8,300 
				195.5,298.4 191.3,295.5 181.1,288.2 165.2,276.9 161.1,274 151.8,267.4 137.6,257.3 133.7,254.6 125.2,248.6 112.5,239.5 
				108.6,236.8 100.9,231.3 89.5,223.2 85.7,220.5 78.6,215.5 68.3,208.2 64.6,205.6 58.1,200.9 52.6,197.1 52.6,197.1 50.5,195.6 
				50.4,195.5 46.9,193 46.3,192.6 43.2,143.2 198.6,238.2 200.1,301.7 			"/>
			<polygon class="st13" points="198.6,238.2 43.2,143.2 42.9,138.7 198.5,232.3 			"/>
			<polygon class="st4" points="27.3,23.2 27.2,22.2 36.8,25.8 36.8,26.8 			"/>
			<polygon class="st41" points="455.5,249 455.5,249.8 422.6,259.8 422.1,259.9 420.9,260.3 419.1,260.8 416.8,261.5 414.2,262.3 
				411.4,263.2 408.6,264 406,264.8 403.9,265.4 402.3,265.9 401.4,266.2 401.2,266.3 215.4,322.4 215,322.5 213.8,322.9 
				211.9,323.4 209.4,324.2 206.4,325.1 203.3,326 200.1,327 197.2,327.9 194.7,328.6 192.8,329.2 191.6,329.6 191.3,329.7 
				189.8,330.1 189.8,329.1 			"/>
			<polygon class="st42" points="189.8,329.1 189.8,330.1 72.5,240.2 72.5,240.2 71.3,239.3 69.1,237.6 66,235.3 62.2,232.3 
				60.4,231 58,229.1 57.1,228.5 54.5,226.5 52,224.5 49.7,222.8 47.9,221.4 46.6,220.4 46,220 19.1,199.3 19,198.6 			"/>
			<polygon class="st6" points="423.9,182.7 414.8,184.9 415,179.8 424.1,177.6 			"/>
			<polygon class="st6" points="424.1,177.6 415,179.8 416.8,127.6 426,125.7 			"/>
			<polygon class="st13" points="198.5,232.3 42.9,138.7 40,92.5 197.1,172.4 			"/>
			<polygon class="st6" points="418,63.1 426.2,61.9 426.4,61.9 418,63.2 			"/>
			<polygon class="st6" points="426,125.7 416.8,127.6 416.9,122.3 426.2,120.4 			"/>
			<polygon class="st6" points="426.2,120.4 416.9,122.3 418,91.6 422.9,90.7 423,87.9 427.4,87.1 			"/>
			<polygon class="st13" points="197.1,172.4 40,92.5 39.7,87.9 197,166.4 			"/>
			<polygon class="st13" points="197,166.4 39.7,87.9 36.4,35.7 195.4,98.1 196.1,127.6 			"/>
			<polygon class="st6" points="36.6,35.8 36.6,35.8 36.6,35.7 			"/>
			<polygon class="st9" points="196,98 195.5,98 195.5,98.1 196.7,97.9 196.6,97.9 			"/>
			<polygon class="st9" points="195.5,98.1 195.4,98.1 195.5,98.1 196.8,97.9 196.7,97.9 			"/>
			<polygon class="st13" points="196.1,127.6 196.2,127.6 195.5,98.1 195.4,98.1 			"/>
			<polygon class="st9" points="426.5,61.9 216.1,94.9 216.1,94.8 358.4,72.6 418,63.2 418,63.2 426.4,61.9 			"/>
			<polygon class="st12" points="209.5,125.4 277,113.6 277,115.3 276.6,115.4 275.3,115.6 211,127 209.6,127.2 209.5,127.3 			"/>
			<polygon class="st12" points="286.6,111.9 418.4,88.8 418.4,90.4 418,90.4 417,90.6 355.4,101.5 287.9,113.4 286.7,113.6 
				286.6,113.6 			"/>
			<polygon class="st12" points="418.4,90.4 418.4,88.8 418.1,88.7 423,87.9 422.9,90.7 418,91.6 418,90.4 			"/>
			<polygon class="st6" points="209.7,163.8 209.8,169.9 197.1,172.4 197,166.4 			"/>
			<polygon class="st6" points="211.1,235.1 212.1,286.6 212.4,298.1 212.4,298.1 207.7,299.5 201.6,301.2 201.5,301.3 200.1,301.7 
				198.6,238.2 			"/>
			<polygon class="st6" points="211,229.2 211.1,235.1 198.6,238.2 198.5,232.3 			"/>
			<polygon class="st6" points="209.8,169.8 211,229.2 198.5,232.3 197.1,172.4 			"/>
			<polygon class="st0" points="170,32.3 145.1,24.8 189.7,20.1 215.7,27.1 			"/>
			<line class="st43" x1="195.2" y1="308.3" x2="194.8" y2="307.4"/>
			<line class="st43" x1="195.2" y1="308.3" x2="196.2" y2="309.1"/>
			<line class="st43" x1="210.9" y1="307.2" x2="211" y2="306.3"/>
			<line class="st43" x1="210.3" y1="308.1" x2="210.9" y2="307.2"/>
			<line class="st43" x1="209.1" y1="309" x2="210.3" y2="308.1"/>
			<line class="st43" x1="207.6" y1="309.7" x2="209.1" y2="309"/>
			<line class="st43" x1="205.7" y1="310.1" x2="207.6" y2="309.7"/>
			<line class="st43" x1="203.6" y1="310.4" x2="205.7" y2="310.1"/>
			<line class="st43" x1="201.4" y1="310.4" x2="203.6" y2="310.4"/>
			<line class="st43" x1="199.4" y1="310.2" x2="201.4" y2="310.4"/>
			<line class="st43" x1="197.6" y1="309.8" x2="199.4" y2="310.2"/>
			<line class="st43" x1="196.2" y1="309.1" x2="197.6" y2="309.8"/>
			<polyline class="st43" points="405.6,246.5 406.3,247.2 407.5,247.8 			"/>
			<line class="st43" x1="419.3" y1="247.1" x2="419.5" y2="246.4"/>
			<line class="st43" x1="418.6" y1="247.7" x2="419.3" y2="247.1"/>
			<line class="st43" x1="417.5" y1="248.2" x2="418.6" y2="247.7"/>
			<line class="st43" x1="416.1" y1="248.6" x2="417.5" y2="248.2"/>
			<line class="st43" x1="414.4" y1="248.8" x2="416.1" y2="248.6"/>
			<line class="st43" x1="412.5" y1="248.8" x2="414.4" y2="248.8"/>
			<line class="st43" x1="410.7" y1="248.6" x2="412.5" y2="248.8"/>
			<line class="st43" x1="409" y1="248.3" x2="410.7" y2="248.6"/>
			<line class="st43" x1="407.5" y1="247.8" x2="409" y2="248.3"/>
			<line class="st43" x1="405.6" y1="246.5" x2="405.3" y2="245.8"/>
			<line class="st43" x1="48.2" y1="201.7" x2="48.1" y2="201.1"/>
			<line class="st43" x1="48.2" y1="201.7" x2="48.7" y2="202.1"/>
			<line class="st43" x1="57.3" y1="202.5" x2="58.1" y2="202.2"/>
			<line class="st43" x1="55.7" y1="202.8" x2="57.3" y2="202.5"/>
			<line class="st43" x1="54" y1="202.9" x2="55.7" y2="202.8"/>
			<line class="st43" x1="52.4" y1="202.9" x2="54" y2="202.9"/>
			<line class="st43" x1="50.9" y1="202.8" x2="52.4" y2="202.9"/>
			<line class="st43" x1="49.6" y1="202.5" x2="50.9" y2="202.8"/>
			<line class="st43" x1="48.7" y1="202.1" x2="49.6" y2="202.5"/>
			<line class="st43" x1="145.1" y1="24.8" x2="170" y2="32.3"/>
			<line class="st43" x1="170" y1="32.3" x2="215.7" y2="27.1"/>
			<line class="st43" x1="418.5" y1="277.8" x2="420.3" y2="277"/>
			<line class="st43" x1="408.1" y1="278.1" x2="410.8" y2="278.5"/>
			<polyline class="st43" points="413.6,278.5 416.2,278.3 418.5,277.8 			"/>
			<line class="st43" x1="420.3" y1="277" x2="421.5" y2="276.1"/>
			<line class="st43" x1="410.8" y1="278.5" x2="413.6" y2="278.5"/>
			<line class="st43" x1="402" y1="275.7" x2="401.1" y2="274.6"/>
			<line class="st43" x1="405.6" y1="277.5" x2="408.1" y2="278.1"/>
			<line class="st43" x1="402" y1="275.7" x2="403.5" y2="276.7"/>
			<line class="st43" x1="421.5" y1="276.1" x2="422" y2="275"/>
			<line class="st43" x1="401.1" y1="274.6" x2="400.9" y2="273.5"/>
			<line class="st43" x1="403.5" y1="276.7" x2="405.6" y2="277.5"/>
			<line class="st43" x1="203.7" y1="344.5" x2="206.9" y2="344.1"/>
			<line class="st43" x1="200.5" y1="344.4" x2="203.7" y2="344.5"/>
			<line class="st43" x1="197.6" y1="343.9" x2="200.5" y2="344.4"/>
			<line class="st43" x1="206.9" y1="344.1" x2="209.8" y2="343.4"/>
			<line class="st43" x1="195" y1="343.1" x2="197.6" y2="343.9"/>
			<line class="st43" x1="209.8" y1="343.4" x2="212.3" y2="342.4"/>
			<line class="st43" x1="193.1" y1="342" x2="195" y2="343.1"/>
			<line class="st43" x1="212.3" y1="342.4" x2="214.2" y2="341.2"/>
			<line class="st43" x1="193.1" y1="342" x2="191.9" y2="340.7"/>
			<line class="st43" x1="214.2" y1="341.2" x2="215.4" y2="339.7"/>
			<line class="st43" x1="191.9" y1="340.7" x2="191.5" y2="339.2"/>
			<line class="st43" x1="215.4" y1="339.7" x2="215.7" y2="338.3"/>
			<line class="st43" x1="47.1" y1="228" x2="46.5" y2="227.2"/>
			<polyline class="st43" points="47.1,228 48.4,228.6 50.1,229.1 52.3,229.4 54.7,229.4 57.2,229.2 58,229.1 			"/>
			<line class="st43" x1="200" y1="301.6" x2="199.7" y2="289.5"/>
			<line class="st43" x1="195.1" y1="286.3" x2="199.7" y2="289.5"/>
			<line class="st43" x1="39.7" y1="87.9" x2="197" y2="166.4"/>
			<line class="st43" x1="445.8" y1="66.7" x2="446.2" y2="56.4"/>
			<line class="st43" x1="213.4" y1="104.4" x2="213.2" y2="92.5"/>
			<line class="st43" x1="147.4" y1="79" x2="106.1" y2="62.8"/>
			<line class="st43" x1="106.1" y1="62.8" x2="70.3" y2="48.8"/>
			<line class="st43" x1="27.1" y1="19.8" x2="90.9" y2="43.2"/>
			<line class="st43" x1="443.5" y1="55.7" x2="443.6" y2="52.9"/>
			<line class="st43" x1="443.6" y1="52.9" x2="448.5" y2="52.2"/>
			<line class="st43" x1="213.2" y1="91.2" x2="213.1" y2="87.9"/>
			<line class="st43" x1="118.9" y1="53.4" x2="213.1" y2="87.9"/>
			<line class="st43" x1="213.1" y1="87.9" x2="219.8" y2="86.9"/>
			<line class="st43" x1="298.4" y1="19.5" x2="332.3" y2="27.3"/>
			<line class="st43" x1="90.9" y1="43.2" x2="118.9" y2="53.4"/>
			<line class="st43" x1="44.2" y1="23.6" x2="233.9" y2="4.6"/>
			<line class="st43" x1="201.8" y1="80.4" x2="422.9" y2="48.1"/>
			<line class="st43" x1="286.7" y1="113.6" x2="286.6" y2="266.4"/>
			<line class="st43" x1="209.6" y1="127.2" x2="212.7" y2="287"/>
			<line class="st43" x1="201.7" y1="309.1" x2="201.6" y2="301.2"/>
			<line class="st43" x1="412.3" y1="247.8" x2="412.5" y2="240.8"/>
			<line class="st43" x1="53" y1="202.1" x2="52.6" y2="197.1"/>
			<line class="st43" x1="161.2" y1="277.9" x2="161.1" y2="274"/>
			<line class="st43" x1="191.4" y1="299.5" x2="191.3" y2="295.5"/>
			<line class="st43" x1="133.8" y1="258.3" x2="133.7" y2="254.6"/>
			<line class="st43" x1="108.8" y1="240.4" x2="108.6" y2="236.8"/>
			<line class="st43" x1="85.9" y1="224" x2="85.7" y2="220.5"/>
			<line class="st43" x1="64.8" y1="208.9" x2="64.6" y2="205.6"/>
			<polyline class="st43" points="393.9,273 394.2,274.8 395.6,276.7 398.2,278.3 401.7,279.8 405.8,280.8 410.4,281.4 415.1,281.5 
				419.5,281.1 423.3,280.2 426.3,278.9 428.3,277.3 429,275.5 			"/>
			<polyline class="st43" points="193.5,347.4 198.4,348.2 203.7,348.3 209.1,347.8 214,346.6 218.1,344.9 221.3,342.8 223.2,340.4 
				223.8,337.9 			"/>
			<polyline class="st43" points="183.4,339.5 184,342 186,344.2 189.2,346.1 193.5,347.4 			"/>
			<polyline class="st43" points="41.2,229.3 43.2,230.4 46.2,231.2 49.8,231.6 53.8,231.7 58,231.4 60.4,231 			"/>
			<line class="st43" x1="40.2" y1="228" x2="41.2" y2="229.3"/>
			<polyline class="st43" points="195.3,98 195.3,97.7 147.4,79 			"/>
			<line class="st43" x1="196" y1="97.6" x2="195.3" y2="97.7"/>
			<line class="st43" x1="70.3" y1="48.8" x2="38.9" y2="36.5"/>
			<line class="st43" x1="358.4" y1="72.2" x2="216.1" y2="94.5"/>
			<line class="st43" x1="425.6" y1="61.7" x2="358.4" y2="72.2"/>
			<line class="st43" x1="422.4" y1="227.5" x2="413.3" y2="230.1"/>
			<line class="st43" x1="213.2" y1="91.2" x2="213.2" y2="92.5"/>
			<line class="st43" x1="446.3" y1="55.3" x2="446.2" y2="56.4"/>
			<line class="st43" x1="36.6" y1="35.6" x2="38.9" y2="36.5"/>
			<line class="st43" x1="455.5" y1="249" x2="189.8" y2="329.1"/>
			<polyline class="st43" points="189.8,330.1 189.8,329.1 19,198.6 			"/>
			<line class="st43" x1="416.9" y1="122.3" x2="426.2" y2="120.4"/>
			<line class="st43" x1="415" y1="179.8" x2="424.1" y2="177.6"/>
			<line class="st43" x1="198.5" y1="232.3" x2="42.9" y2="138.7"/>
			<line class="st43" x1="418" y1="63.1" x2="426.2" y2="61.9"/>
			<line class="st43" x1="195.4" y1="98.1" x2="36.4" y2="35.7"/>
			<line class="st43" x1="36.6" y1="35.7" x2="36.6" y2="35.8"/>
			<line class="st43" x1="195.5" y1="98" x2="195.5" y2="98.1"/>
			<line class="st43" x1="418" y1="63.1" x2="418" y2="63.1"/>
			<line class="st43" x1="418" y1="63.2" x2="418" y2="63.1"/>
			<polyline class="st43" points="195.4,98.1 195.5,98.1 196.8,97.9 			"/>
			<line class="st43" x1="216.1" y1="94.9" x2="426.5" y2="61.9"/>
			<line class="st43" x1="196.2" y1="127.6" x2="195.5" y2="98.1"/>
			<line class="st43" x1="276.3" y1="269.2" x2="276.4" y2="279.8"/>
			<polyline class="st43" points="277,113.6 209.5,125.4 209.5,127.3 			"/>
			<polyline class="st43" points="418.4,88.8 286.6,111.9 286.6,113.6 			"/>
			<line class="st43" x1="285.9" y1="111.7" x2="286.6" y2="111.9"/>
			<line class="st43" x1="208.8" y1="125.2" x2="209.5" y2="125.4"/>
			<line class="st43" x1="422.9" y1="48.1" x2="443.6" y2="52.9"/>
			<line class="st43" x1="233.9" y1="4.6" x2="298.4" y2="19.5"/>
			<line class="st43" x1="197" y1="166.4" x2="197.1" y2="172.4"/>
			<polyline class="st43" points="198.5,232.3 198.6,238.2 200.1,301.7 			"/>
			<line class="st43" x1="332.3" y1="27.3" x2="418.5" y2="47.1"/>
			<line class="st43" x1="219.2" y1="1.2" x2="231.2" y2="4"/>
			<line class="st43" x1="197.1" y1="172.4" x2="198.5" y2="232.3"/>
			<line class="st43" x1="196.1" y1="127.6" x2="197" y2="166.4"/>
			<line class="st43" x1="209.7" y1="163.8" x2="197" y2="166.4"/>
			<line class="st43" x1="198.5" y1="232.3" x2="211" y2="229.2"/>
			<line class="st44" x1="332.3" y1="29.7" x2="411.2" y2="48.2"/>
			<line class="st44" x1="316.4" y1="26" x2="332.3" y2="29.7"/>
			<line class="st44" x1="425.5" y1="51.6" x2="425.5" y2="51.5"/>
			<line class="st44" x1="36.8" y1="26.8" x2="38.7" y2="27.4"/>
			<line class="st44" x1="39.5" y1="36.4" x2="70.9" y2="48.7"/>
			<line class="st44" x1="281.2" y1="73.1" x2="358.1" y2="61.6"/>
			<line class="st44" x1="425.1" y1="61.6" x2="425.5" y2="51.6"/>
			<line class="st44" x1="425.1" y1="61.6" x2="425.6" y2="61.7"/>
			<line class="st44" x1="105.9" y1="52.5" x2="195.4" y2="85.9"/>
			<line class="st44" x1="106.8" y1="62.7" x2="148.1" y2="78.9"/>
			<line class="st44" x1="106.1" y1="63" x2="147.4" y2="79.2"/>
			<line class="st44" x1="70.3" y1="49" x2="106.1" y2="63"/>
			<line class="st44" x1="422.8" y1="50.9" x2="422.9" y2="48.1"/>
			<line class="st44" x1="418.5" y1="47.1" x2="422.9" y2="48.1"/>
			<line class="st44" x1="233.9" y1="6.8" x2="298.4" y2="21.8"/>
			<line class="st44" x1="233.9" y1="6.8" x2="233.9" y2="4.6"/>
			<line class="st44" x1="298.4" y1="21.8" x2="316.4" y2="26"/>
			<polyline class="st44" points="110.8,19.3 177.1,12.5 233.9,6.8 			"/>
			<line class="st44" x1="49.5" y1="25.5" x2="110.8" y2="19.3"/>
			<line class="st44" x1="201.7" y1="309.1" x2="207.9" y2="307.3"/>
			<line class="st44" x1="197.9" y1="306.4" x2="198" y2="306.4"/>
			<line class="st44" x1="201.6" y1="309" x2="201.7" y2="309.1"/>
			<line class="st44" x1="198" y1="306.4" x2="201.6" y2="309"/>
			<polyline class="st44" points="194.9,306.5 195.6,305.6 196.8,304.8 197.9,304.3 			"/>
			<polyline class="st44" points="207.8,303.9 208.2,304 209.6,304.6 210.6,305.4 			"/>
			<line class="st44" x1="211" y1="306.3" x2="210.6" y2="305.4"/>
			<line class="st44" x1="194.8" y1="307.4" x2="194.9" y2="306.5"/>
			<line class="st44" x1="412.3" y1="247.8" x2="416.9" y2="246.5"/>
			<line class="st44" x1="407.9" y1="245.8" x2="408" y2="245.8"/>
			<line class="st44" x1="412.1" y1="247.7" x2="412.3" y2="247.8"/>
			<line class="st44" x1="408" y1="245.8" x2="412.1" y2="247.7"/>
			<line class="st44" x1="419.5" y1="246.4" x2="419.2" y2="245.7"/>
			<polyline class="st44" points="405.3,245.8 405.6,245.2 406.3,244.5 407.4,244 408,243.9 			"/>
			<polyline class="st44" points="417,244.3 417.3,244.4 418.5,245 419.2,245.7 			"/>
			<line class="st44" x1="53" y1="202.1" x2="58.1" y2="201.1"/>
			<line class="st44" x1="50.7" y1="200.5" x2="50.8" y2="200.6"/>
			<line class="st44" x1="52.9" y1="202.1" x2="53" y2="202.1"/>
			<line class="st44" x1="50.8" y1="200.6" x2="52.9" y2="202.1"/>
			<polyline class="st44" points="48.4,200.6 49.1,200.1 50.2,199.6 50.7,199.5 			"/>
			<line class="st44" x1="48.1" y1="201.1" x2="48.4" y2="200.6"/>
			<line class="st44" x1="189.7" y1="20.1" x2="215.7" y2="27.1"/>
			<line class="st44" x1="145.1" y1="24.8" x2="189.7" y2="20.1"/>
			<line class="st44" x1="147.4" y1="79.2" x2="195.3" y2="98"/>
			<line class="st44" x1="38.9" y1="36.7" x2="70.3" y2="49"/>
			<line class="st44" x1="276.3" y1="279.8" x2="276.3" y2="269.3"/>
			<line class="st44" x1="199.9" y1="301.5" x2="200" y2="301.6"/>
			<line class="st44" x1="199.9" y1="301.5" x2="199.6" y2="289.9"/>
			<line class="st44" x1="195.1" y1="286.8" x2="195.1" y2="286.3"/>
			<line class="st44" x1="195.1" y1="286.8" x2="199.6" y2="289.9"/>
			<line class="st44" x1="36.6" y1="35.8" x2="38.9" y2="36.7"/>
			<line class="st44" x1="43.2" y1="143.2" x2="198.6" y2="238.2"/>
			<polyline class="st44" points="425.5,51.6 358.1,61.6 358.1,60.4 			"/>
			<polyline class="st44" points="346.9,57.5 255.7,33.4 316.4,26 			"/>
			<line class="st44" x1="422.8" y1="50.9" x2="358.1" y2="60.4"/>
			<line class="st44" x1="27.8" y1="31.9" x2="27.3" y2="23.2"/>
			<line class="st44" x1="87.9" y1="55.3" x2="87.4" y2="45.6"/>
			<line class="st44" x1="224.5" y1="4.7" x2="221.7" y2="4"/>
			<line class="st44" x1="221.7" y1="4.9" x2="221.7" y2="4"/>
			<polyline class="st44" points="448.3,56.1 446.2,56.4 425.5,51.6 			"/>
			<line class="st44" x1="447.9" y1="66.3" x2="448.3" y2="56.1"/>
			<line class="st44" x1="447.9" y1="66.3" x2="445.8" y2="66.7"/>
			<line class="st44" x1="216.1" y1="92.1" x2="213.2" y2="92.5"/>
			<line class="st44" x1="216.3" y1="104" x2="213.4" y2="104.4"/>
			<polyline class="st44" points="216.1,94.3 357.9,72.1 425.1,61.6 			"/>
			<line class="st44" x1="147.4" y1="79.2" x2="147.4" y2="79"/>
			<line class="st44" x1="106.1" y1="62.8" x2="106.1" y2="63"/>
			<line class="st44" x1="106.8" y1="62.7" x2="106.1" y2="62.8"/>
			<line class="st44" x1="148.1" y1="78.9" x2="147.4" y2="79"/>
			<line class="st44" x1="70.3" y1="48.8" x2="70.3" y2="49"/>
			<line class="st44" x1="70.9" y1="48.7" x2="70.3" y2="48.8"/>
			<line class="st44" x1="91.1" y1="45.9" x2="90.9" y2="43.2"/>
			<line class="st44" x1="27.2" y1="22.2" x2="27.1" y2="19.8"/>
			<line class="st44" x1="32.4" y1="19.3" x2="27.1" y2="19.8"/>
			<line class="st44" x1="90.9" y1="43.2" x2="96.8" y2="42.5"/>
			<line class="st44" x1="332.3" y1="29.7" x2="332.3" y2="27.3"/>
			<line class="st44" x1="336.9" y1="26.7" x2="332.3" y2="27.3"/>
			<line class="st44" x1="448.5" y1="52.2" x2="336.9" y2="26.7"/>
			<line class="st44" x1="448.4" y1="55" x2="448.5" y2="52.2"/>
			<line class="st44" x1="298.4" y1="21.8" x2="298.4" y2="19.5"/>
			<line class="st44" x1="219.2" y1="3.4" x2="219.2" y2="1.2"/>
			<line class="st44" x1="223.4" y1="0.8" x2="219.2" y2="1.2"/>
			<line class="st44" x1="303" y1="19" x2="223.4" y2="0.8"/>
			<line class="st44" x1="298.4" y1="19.5" x2="303" y2="19"/>
			<line class="st44" x1="119" y1="56.2" x2="118.9" y2="53.4"/>
			<line class="st44" x1="124.9" y1="52.7" x2="118.9" y2="53.4"/>
			<line class="st44" x1="219.9" y1="90.1" x2="219.8" y2="86.9"/>
			<line class="st44" x1="336.9" y1="26.7" x2="303" y2="19"/>
			<line class="st44" x1="233.9" y1="4.6" x2="231.2" y2="4"/>
			<line class="st44" x1="42.1" y1="22.8" x2="44.2" y2="23.6"/>
			<line class="st44" x1="198" y1="79" x2="201.8" y2="80.4"/>
			<line class="st44" x1="287.9" y1="113.4" x2="287.8" y2="266"/>
			<line class="st44" x1="286.6" y1="266.4" x2="286" y2="266"/>
			<line class="st44" x1="287.8" y1="266" x2="286.6" y2="266.4"/>
			<line class="st44" x1="417" y1="90.6" x2="412.2" y2="231.3"/>
			<line class="st44" x1="413.3" y1="231" x2="412.2" y2="231.3"/>
			<line class="st44" x1="276.6" y1="115.4" x2="277" y2="269.1"/>
			<line class="st44" x1="275.3" y1="115.6" x2="275.7" y2="269.4"/>
			<line class="st44" x1="211" y1="127" x2="214" y2="286.6"/>
			<line class="st44" x1="212.7" y1="287" x2="212.1" y2="286.6"/>
			<line class="st44" x1="214.1" y1="286.6" x2="212.7" y2="287"/>
			<line class="st44" x1="275.7" y1="269.4" x2="214" y2="286.6"/>
			<line class="st44" x1="352.7" y1="247.9" x2="287.8" y2="266"/>
			<line class="st44" x1="355.4" y1="101.5" x2="352.7" y2="247.9"/>
			<line class="st44" x1="412.2" y1="231.3" x2="352.7" y2="247.9"/>
			<line class="st44" x1="198" y1="306.4" x2="197.9" y2="300.1"/>
			<line class="st44" x1="201.6" y1="309" x2="201.5" y2="301.3"/>
			<line class="st44" x1="408" y1="245.8" x2="408.1" y2="242.1"/>
			<line class="st44" x1="412.1" y1="247.7" x2="412.4" y2="240.9"/>
			<line class="st44" x1="50.8" y1="200.6" x2="50.5" y2="195.6"/>
			<line class="st44" x1="52.9" y1="202.1" x2="52.6" y2="197.1"/>
			<line class="st44" x1="152" y1="271.3" x2="151.8" y2="267.4"/>
			<line class="st44" x1="181.2" y1="292.2" x2="181.1" y2="288.2"/>
			<line class="st44" x1="125.4" y1="252.2" x2="125.2" y2="248.6"/>
			<line class="st44" x1="101.1" y1="234.9" x2="100.9" y2="231.3"/>
			<line class="st44" x1="78.8" y1="218.9" x2="78.6" y2="215.5"/>
			<polyline class="st44" points="393.2,297.4 393.5,299.4 394.9,301.3 397.4,303.1 400.9,304.6 405,305.6 409.6,306.3 414.2,306.4 
				418.6,305.9 422.4,305 425.4,303.6 427.3,302 428.1,300.1 			"/>
			<polyline class="st44" points="427.1,271.8 424.4,270.2 422.2,269.3 			"/>
			<polyline class="st44" points="401.1,268.2 399.9,268.5 396.9,269.7 394.9,271.2 393.9,273 			"/>
			<polyline class="st44" points="429,275.5 428.6,273.6 427.1,271.8 			"/>
			<line class="st44" x1="393.2" y1="297.4" x2="393.9" y2="273"/>
			<line class="st44" x1="428.1" y1="300.1" x2="429" y2="275.5"/>
			<polyline class="st44" points="184.2,367.3 184.8,369.9 186.8,372.2 190,374.2 194.2,375.6 199.1,376.4 204.4,376.5 209.6,376 
				214.5,374.7 218.7,373 221.8,370.7 223.7,368.2 224.2,365.6 			"/>
			<polyline class="st44" points="223.8,337.9 223,335.5 220.8,333.4 217.6,331.6 215.6,331 			"/>
			<polyline class="st44" points="191.3,332 189.5,332.7 186.2,334.7 184.2,337.1 183.4,339.5 			"/>
			<line class="st44" x1="224.2" y1="365.6" x2="223.8" y2="337.9"/>
			<line class="st44" x1="184.2" y1="367.3" x2="183.4" y2="339.5"/>
			<polyline class="st44" points="42.6,251.5 44.6,252.6 47.6,253.5 51.2,254 55.2,254 59.4,253.7 63.4,253 67,251.9 69.9,250.6 
				71.9,249.1 72.9,247.6 72.8,246.1 			"/>
			<line class="st44" x1="41.6" y1="250.1" x2="42.6" y2="251.5"/>
			<polyline class="st44" points="46.2,222.6 43.5,223.7 41.4,225.1 40.2,226.5 40.2,228 			"/>
			<line class="st44" x1="72.8" y1="246.1" x2="72.5" y2="240.2"/>
			<line class="st44" x1="41.6" y1="250.1" x2="40.2" y2="228"/>
			<line class="st44" x1="196" y1="98" x2="196" y2="97.6"/>
			<line class="st44" x1="38.9" y1="36.5" x2="38.9" y2="36.7"/>
			<line class="st44" x1="39.5" y1="36.4" x2="38.9" y2="36.5"/>
			<line class="st44" x1="357.9" y1="72.1" x2="358.4" y2="72.2"/>
			<line class="st44" x1="358.4" y1="72.6" x2="358.4" y2="72.2"/>
			<line class="st44" x1="281.2" y1="73.1" x2="281.2" y2="71.8"/>
			<polyline class="st44" points="270.5,68.5 184.3,41.9 255.7,33.4 			"/>
			<line class="st44" x1="358.1" y1="60.4" x2="281.2" y2="71.8"/>
			<line class="st44" x1="281.2" y1="73.1" x2="210.7" y2="83.6"/>
			<line class="st44" x1="195.4" y1="85.9" x2="195.3" y2="84.5"/>
			<line class="st44" x1="105.9" y1="52.5" x2="105.9" y2="51.4"/>
			<line class="st44" x1="117.5" y1="50" x2="184.3" y2="41.9"/>
			<line class="st44" x1="281.2" y1="71.8" x2="208.1" y2="82.6"/>
			<line class="st44" x1="177.1" y1="12.5" x2="255.7" y2="33.4"/>
			<line class="st44" x1="184.3" y1="41.9" x2="110.8" y2="19.3"/>
			<line class="st44" x1="38.7" y1="27.4" x2="38.6" y2="26.4"/>
			<line class="st44" x1="422.3" y1="227.5" x2="422.4" y2="227.5"/>
			<line class="st44" x1="212.4" y1="298.1" x2="276.3" y2="279.8"/>
			<line class="st44" x1="213.2" y1="92.5" x2="195.4" y2="85.9"/>
			<line class="st44" x1="216.1" y1="92.1" x2="216.1" y2="90.7"/>
			<line class="st44" x1="213.2" y1="91.2" x2="195.3" y2="84.5"/>
			<line class="st44" x1="216.1" y1="90.7" x2="213.2" y2="91.2"/>
			<line class="st44" x1="448.3" y1="56.1" x2="448.4" y2="55"/>
			<line class="st44" x1="448.4" y1="55" x2="446.3" y2="55.3"/>
			<line class="st44" x1="27.2" y1="22.2" x2="27.3" y2="23.2"/>
			<line class="st44" x1="36.8" y1="26.8" x2="27.3" y2="23.2"/>
			<line class="st44" x1="36.8" y1="25.8" x2="36.8" y2="26.8"/>
			<line class="st44" x1="36.8" y1="25.8" x2="27.2" y2="22.2"/>
			<line class="st44" x1="221.7" y1="3.9" x2="221.7" y2="4"/>
			<line class="st44" x1="36.8" y1="25.8" x2="38.6" y2="26.4"/>
			<line class="st44" x1="37.2" y1="35.5" x2="36.6" y2="35.6"/>
			<line class="st44" x1="455.5" y1="249.8" x2="455.6" y2="249"/>
			<line class="st44" x1="19.1" y1="199.3" x2="19" y2="198.6"/>
			<line class="st44" x1="422.2" y1="234.1" x2="455.5" y2="249"/>
			<line class="st44" x1="19" y1="198.6" x2="46.9" y2="193"/>
			<line class="st44" x1="414.8" y1="184.9" x2="423.9" y2="182.7"/>
			<line class="st44" x1="36.4" y1="35.7" x2="36.6" y2="35.7"/>
			<line class="st44" x1="416.8" y1="127.6" x2="426" y2="125.7"/>
			<line class="st44" x1="40" y1="92.5" x2="197.1" y2="172.4"/>
			<line class="st44" x1="195.5" y1="98.1" x2="196.7" y2="97.9"/>
			<line class="st44" x1="196.1" y1="127.6" x2="196.2" y2="127.6"/>
			<line class="st44" x1="428.6" y1="62.4" x2="427.7" y2="87"/>
			<line class="st44" x1="196.1" y1="127.6" x2="195.4" y2="98.1"/>
			<line class="st44" x1="276.4" y1="279.8" x2="286" y2="277.1"/>
			<line class="st44" x1="276.3" y1="279.8" x2="276.4" y2="279.8"/>
			<line class="st44" x1="277" y1="115.3" x2="277" y2="113.6"/>
			<line class="st44" x1="418.4" y1="90.4" x2="418.4" y2="88.8"/>
			<line class="st44" x1="423" y1="87.9" x2="422.9" y2="90.7"/>
			<line class="st44" x1="418" y1="91.6" x2="422.9" y2="90.7"/>
			<polyline class="st44" points="209.8,169.8 209.7,163.8 209,127 			"/>
			<polyline class="st44" points="212.1,286.6 211.1,235.1 211,229.2 			"/>
			<line class="st44" x1="37.2" y1="35.5" x2="27.8" y2="31.9"/>
			<line class="st44" x1="216.1" y1="94.3" x2="216.1" y2="92.1"/>
			<line class="st44" x1="87.9" y1="55.3" x2="70.9" y2="48.7"/>
			<line class="st44" x1="38.6" y1="26.4" x2="91.1" y2="45.9"/>
			<line class="st44" x1="96.8" y1="42.5" x2="49.5" y2="25.5"/>
			<polyline class="st44" points="422.8,50.9 425.5,51.5 443.5,55.7 			"/>
			<line class="st44" x1="443.5" y1="55.7" x2="446.3" y2="55.3"/>
			<polyline class="st44" points="219.2,3.4 221.7,3.9 224.7,4.6 			"/>
			<line class="st44" x1="119" y1="56.2" x2="195.3" y2="84.5"/>
			<line class="st44" x1="219.8" y1="86.9" x2="210.7" y2="83.6"/>
			<line class="st44" x1="216.1" y1="90.7" x2="219.9" y2="90.1"/>
			<polyline class="st44" points="91.1,45.9 105.9,51.4 119,56.2 			"/>
			<polyline class="st44" points="124.9,52.7 117.5,50 96.8,42.5 			"/>
			<line class="st44" x1="270.5" y1="68.5" x2="198" y2="79"/>
			<line class="st44" x1="276.3" y1="269.3" x2="275.7" y2="269.4"/>
			<polyline class="st44" points="207.9,307.3 207.8,303.9 207.7,299.5 			"/>
			<polyline class="st44" points="197.9,306.4 197.9,304.3 197.8,300 			"/>
			<polyline class="st44" points="416.9,246.5 417,244.3 417.1,239.5 			"/>
			<polyline class="st44" points="407.9,245.8 408,243.9 408,242.1 			"/>
			<polyline class="st44" points="50.7,200.5 50.7,199.5 50.4,195.5 			"/>
			<line class="st44" x1="58.3" y1="204.2" x2="58.1" y2="202.2"/>
			<polyline class="st44" points="191.3,329.7 191.3,332 191.5,339.2 			"/>
			<polyline class="st44" points="215.4,322.4 215.6,331 215.7,338.3 			"/>
			<line class="st44" x1="19.1" y1="199.3" x2="46" y2="220"/>
			<line class="st44" x1="189.8" y1="330.1" x2="191.3" y2="329.7"/>
			<polyline class="st44" points="422.6,259.8 422.2,269.3 422,275 			"/>
			<polyline class="st44" points="401.2,266.3 401.1,268.2 400.9,273.5 			"/>
			<polyline class="st44" points="46,220 46.2,222.6 46.5,227.2 			"/>
			<polyline class="st44" points="105.9,52.5 87.4,45.6 38.7,27.4 			"/>
			<polyline class="st44" points="422,238.1 422.2,234.1 422.4,227.5 			"/>
			<line class="st44" x1="286" y1="277" x2="408" y2="242.1"/>
			<line class="st44" x1="36.6" y1="35.7" x2="36.6" y2="35.6"/>
			<line class="st44" x1="423.9" y1="182.7" x2="424.1" y2="177.6"/>
			<line class="st44" x1="42.9" y1="138.7" x2="43.2" y2="143.2"/>
			<line class="st44" x1="422.3" y1="227.5" x2="423.9" y2="182.7"/>
			<line class="st44" x1="46.3" y1="192.6" x2="46.9" y2="193"/>
			<line class="st44" x1="43.2" y1="143.2" x2="46.3" y2="192.6"/>
			<polyline class="st44" points="426,125.7 426.2,120.4 427.4,87.1 			"/>
			<polyline class="st44" points="36.4,35.7 39.7,87.9 40,92.5 			"/>
			<line class="st44" x1="36.6" y1="35.8" x2="36.6" y2="35.8"/>
			<polyline class="st44" points="195.5,98 196,98 196.6,97.9 			"/>
			<line class="st44" x1="423" y1="87.9" x2="418.1" y2="88.7"/>
			<polyline class="st44" points="285.9,111.9 285.8,111.9 276.7,113.5 			"/>
			<line class="st44" x1="216.1" y1="94.8" x2="358.4" y2="72.6"/>
			<polyline class="st44" points="208.8,125.4 208.7,125.4 196.2,127.6 			"/>
			<line class="st44" x1="209.5" y1="127.3" x2="209.6" y2="127.2"/>
			<line class="st44" x1="286.6" y1="113.6" x2="286.7" y2="113.6"/>
			<polyline class="st44" points="285.8,113.3 286,113.4 286.6,113.6 			"/>
			<polyline class="st44" points="418.4,88.8 418.1,88.7 417.6,88.6 			"/>
			<polyline class="st44" points="276.2,113.3 276.7,113.5 277,113.6 			"/>
			<polyline class="st44" points="208.8,126.9 209,127 209.5,127.3 			"/>
			<line class="st44" x1="211" y1="229.2" x2="209.8" y2="169.9"/>
			<line class="st44" x1="426.2" y1="61.9" x2="425.6" y2="61.7"/>
			<line class="st44" x1="216.1" y1="94.5" x2="216.1" y2="94.3"/>
			<line class="st44" x1="49.5" y1="25.5" x2="44.2" y2="23.6"/>
			<line class="st44" x1="198" y1="79" x2="124.9" y2="52.7"/>
			<polyline class="st44" points="231.2,4 224.7,4.6 224.5,4.7 221.7,4.9 42.1,22.8 			"/>
			<line class="st44" x1="418.5" y1="47.1" x2="411.2" y2="48.2"/>
			<polyline class="st44" points="414.8,184.9 413.3,230 413.3,230.1 413.3,231 			"/>
			<polyline class="st44" points="277,269.1 276.3,269.2 276.3,269.3 			"/>
			<polyline class="st44" points="58.1,202.2 58.1,201.1 58.1,200.9 			"/>
			<line class="st44" x1="46" y1="220" x2="46.6" y2="220.4"/>
			<line class="st44" x1="191.3" y1="329.7" x2="191.6" y2="329.6"/>
			<line class="st44" x1="408" y1="242.1" x2="408.1" y2="242.1"/>
			<polyline class="st44" points="36.6,35.8 36.6,35.7 36.6,35.7 			"/>
			<line class="st44" x1="424.1" y1="177.6" x2="426" y2="125.7"/>
			<line class="st44" x1="40" y1="92.5" x2="42.9" y2="138.7"/>
			<line class="st44" x1="46.9" y1="193" x2="50.4" y2="195.5"/>
			<polyline class="st44" points="201.5,301.3 201.6,301.2 207.7,299.5 212.4,298.1 			"/>
			<polyline class="st44" points="427.7,87 427.4,87.1 423,87.9 			"/>
			<line class="st44" x1="358.4" y1="72.6" x2="418" y2="63.2"/>
			<polyline class="st44" points="286,277.1 286,277 286,266 			"/>
			<line class="st44" x1="286.7" y1="113.6" x2="287.9" y2="113.4"/>
			<line class="st44" x1="426.2" y1="61.9" x2="426.2" y2="61.9"/>
			<line class="st44" x1="216.1" y1="94.8" x2="216.1" y2="94.5"/>
			<line class="st44" x1="42.1" y1="22.8" x2="32.4" y2="19.3"/>
			<line class="st44" x1="210.7" y1="83.6" x2="208.1" y2="82.6"/>
			<polyline class="st44" points="411.2,48.2 346.9,57.5 270.5,68.5 			"/>
			<line class="st44" x1="415" y1="179.8" x2="414.8" y2="184.9"/>
			<line class="st44" x1="46.6" y1="220.4" x2="47.9" y2="221.4"/>
			<line class="st44" x1="191.6" y1="329.6" x2="192.8" y2="329.2"/>
			<line class="st44" x1="50.4" y1="195.5" x2="50.5" y2="195.6"/>
			<polyline class="st44" points="212.1,286.6 212.4,298.1 212.4,298.1 			"/>
			<polyline class="st44" points="418,63.2 418,63.2 426.4,61.9 			"/>
			<polyline class="st44" points="209.6,127.2 211,127 275.3,115.6 276.6,115.4 277,115.3 			"/>
			<line class="st44" x1="287.9" y1="113.4" x2="355.4" y2="101.5"/>
			<line class="st44" x1="426.4" y1="61.9" x2="426.2" y2="61.9"/>
			<polyline class="st44" points="216.3,104 216.1,94.9 216.1,94.8 			"/>
			<polyline class="st44" points="213.4,104.4 196.8,97.9 196.7,97.9 196.6,97.9 196,97.6 			"/>
			<line class="st44" x1="208.1" y1="82.6" x2="201.8" y2="80.4"/>
			<line class="st44" x1="416.8" y1="127.6" x2="415" y2="179.8"/>
			<line class="st44" x1="47.9" y1="221.4" x2="49.7" y2="222.8"/>
			<line class="st44" x1="192.8" y1="329.2" x2="194.7" y2="328.6"/>
			<polyline class="st44" points="408.1,242.1 412.4,240.9 412.5,240.8 417.1,239.5 422,238.1 			"/>
			<line class="st44" x1="195.3" y1="98" x2="195.5" y2="98"/>
			<line class="st44" x1="355.4" y1="101.5" x2="417" y2="90.6"/>
			<line class="st44" x1="426.5" y1="61.9" x2="426.4" y2="61.9"/>
			<line class="st44" x1="416.9" y1="122.3" x2="416.8" y2="127.6"/>
			<line class="st44" x1="49.7" y1="222.8" x2="52" y2="224.5"/>
			<line class="st44" x1="194.7" y1="328.6" x2="197.2" y2="327.9"/>
			<polyline class="st44" points="50.5,195.6 52.6,197.1 52.7,197.1 			"/>
			<polyline class="st44" points="417,90.6 418,90.4 418.4,90.4 			"/>
			<polyline class="st44" points="445.8,66.7 428.6,62.4 426.5,61.9 			"/>
			<polyline class="st44" points="418,90.4 418,91.6 416.9,122.3 			"/>
			<line class="st44" x1="52" y1="224.5" x2="54.5" y2="226.5"/>
			<line class="st44" x1="197.2" y1="327.9" x2="200.1" y2="327"/>
			<polyline class="st44" points="52.6,197.1 58.1,200.9 64.6,205.6 68.3,208.2 			"/>
			<line class="st44" x1="54.5" y1="226.5" x2="57.1" y2="228.5"/>
			<line class="st44" x1="200.1" y1="327" x2="203.3" y2="326"/>
			<line class="st44" x1="68.3" y1="208.2" x2="78.6" y2="215.5"/>
			<line class="st44" x1="57.1" y1="228.5" x2="58" y2="229.1"/>
			<line class="st44" x1="203.3" y1="326" x2="206.4" y2="325.1"/>
			<line class="st44" x1="78.6" y1="215.5" x2="85.7" y2="220.5"/>
			<line class="st44" x1="58" y1="229.1" x2="60.4" y2="231"/>
			<line class="st44" x1="206.4" y1="325.1" x2="209.4" y2="324.2"/>
			<line class="st44" x1="60.4" y1="231" x2="62.2" y2="232.3"/>
			<line class="st44" x1="209.4" y1="324.2" x2="211.9" y2="323.4"/>
			<polyline class="st44" points="85.7,220.5 89.5,223.2 100.9,231.3 108.6,236.8 			"/>
			<line class="st44" x1="62.2" y1="232.3" x2="66" y2="235.3"/>
			<line class="st44" x1="211.9" y1="323.4" x2="213.8" y2="322.9"/>
			<line class="st44" x1="66" y1="235.3" x2="69.1" y2="237.7"/>
			<line class="st44" x1="213.8" y1="322.9" x2="215" y2="322.5"/>
			<polyline class="st44" points="108.6,236.8 112.5,239.5 125.2,248.6 133.7,254.6 			"/>
			<line class="st44" x1="69.1" y1="237.7" x2="71.3" y2="239.3"/>
			<line class="st44" x1="215" y1="322.5" x2="215.4" y2="322.4"/>
			<line class="st44" x1="71.3" y1="239.3" x2="72.5" y2="240.2"/>
			<polyline class="st44" points="133.7,254.6 137.6,257.3 151.8,267.4 161.1,274 			"/>
			<polyline class="st44" points="72.5,240.2 72.5,240.2 189.8,330.1 			"/>
			<polyline class="st44" points="215.4,322.4 401.2,266.3 401.4,266.2 402.3,265.9 403.9,265.4 406,264.8 			"/>
			<polyline class="st44" points="161.1,274 165.2,276.9 181.1,288.2 191.3,295.5 			"/>
			<line class="st44" x1="406" y1="264.8" x2="408.6" y2="264"/>
			<line class="st44" x1="191.3" y1="295.5" x2="195.5" y2="298.4"/>
			<line class="st44" x1="408.6" y1="264" x2="411.4" y2="263.2"/>
			<line class="st44" x1="195.5" y1="298.4" x2="197.8" y2="300"/>
			<line class="st44" x1="411.4" y1="263.2" x2="414.2" y2="262.3"/>
			<line class="st44" x1="197.8" y1="300" x2="197.9" y2="300.1"/>
			<line class="st44" x1="414.2" y1="262.3" x2="416.8" y2="261.5"/>
			<line class="st44" x1="200" y1="301.6" x2="200.1" y2="301.7"/>
			<line class="st44" x1="416.8" y1="261.5" x2="419.1" y2="260.8"/>
			<line class="st44" x1="197.9" y1="300.1" x2="199.9" y2="301.5"/>
			<line class="st44" x1="419.1" y1="260.8" x2="420.9" y2="260.3"/>
			<line class="st44" x1="422.6" y1="259.8" x2="455.5" y2="249.8"/>
			<polyline class="st44" points="420.9,260.3 422.1,259.9 422.6,259.8 			"/>
			<line class="st44" x1="196" y1="97.6" x2="148.1" y2="78.9"/>
			<line class="st44" x1="286" y1="266" x2="286" y2="113.4"/>
			<line class="st44" x1="211.1" y1="235.1" x2="198.6" y2="238.2"/>
			<line class="st44" x1="195.5" y1="98.1" x2="195.4" y2="98.1"/>
			<line class="st44" x1="37.2" y1="35.5" x2="39.5" y2="36.4"/>
			<line class="st44" x1="106.8" y1="62.7" x2="87.9" y2="55.3"/>
			<line class="st44" x1="200.1" y1="301.7" x2="201.5" y2="301.3"/>
			<line class="st44" x1="197.1" y1="172.4" x2="209.8" y2="169.8"/>
		</g>
	</g>
</g>
</svg>
