<?xml version="1.0" encoding="utf-8"?>
<!-- Generator: Adobe Illustrator 20.1.0, SVG Export Plug-In . SVG Version: 6.00 Build 0)  -->
<svg version="1.1" id="Layer_26" xmlns="http://www.w3.org/2000/svg" xmlns:xlink="http://www.w3.org/1999/xlink" x="0px" y="0px"
	 viewBox="0 0 473.1 487" style="enable-background:new 0 0 473.1 487;" xml:space="preserve">
<style type="text/css">
	.st0{fill:#D1A46E;}
	.st1{fill:#F7C283;}
	.st2{fill:#D4A670;}
	.st3{fill:#9F7C52;}
	.st4{fill:#DFC093;}
	.st5{fill:#99774F;}
	.st6{fill:#272727;}
	.st7{fill:#363636;}
	.st8{fill:#414141;}
	.st9{fill:#686868;}
	.st10{fill:#8A8A8B;}
	.st11{fill:#2C2C2C;}
	.st12{fill:#222222;}
	.st13{fill:#A4A4A5;}
	.st14{fill:#897659;}
	.st15{fill:#543404;}
	.st16{fill:#6A4109;}
	.st17{fill:#87550D;}
	.st18{fill:#9F6512;}
	.st19{fill:#B17115;}
	.st20{fill:#BD7918;}
	.st21{fill:#C27C19;}
	.st22{fill:#BF7B18;}
	.st23{fill:#B67416;}
	.st24{fill:#A66A14;}
	.st25{fill:#915B0F;}
	.st26{fill:#75490A;}
	.st27{fill:#6F4508;}
	.st28{fill:#A95F2F;}
	.st29{fill:#7D4621;}
	.st30{fill:#9F592B;}
	.st31{fill:#A75E2E;}
	.st32{fill:#A45C2E;}
	.st33{fill:#915127;}
	.st34{fill:#653718;}
	.st35{fill:#8A4D25;}
	.st36{fill:#75411E;}
	.st37{fill:#5B3115;}
	.st38{fill:#49260E;}
	.st39{fill:#777777;}
	.st40{fill:#997D21;}
	.st41{fill:#8C8D8D;}
	.st42{fill:#BBBBBC;}
	.st43{fill:#9E9E9E;}
	.st44{fill:#BFA47D;}
	.st45{fill:#BDA27C;}
	.st46{fill:none;stroke:#000000;stroke-width:0.5;stroke-linecap:round;stroke-linejoin:round;stroke-miterlimit:10;}
	.st47{fill:none;stroke:#000000;stroke-linecap:round;stroke-linejoin:round;stroke-miterlimit:10;}
</style>
<g>
	<g>
		<g>
			<polygon class="st0" points="302.9,16.2 302.9,14.3 319.6,15.5 318.2,17.4 			"/>
			<polygon class="st1" points="302.9,14.3 302.9,16.2 301.5,16.1 			"/>
			<polygon class="st2" points="302.9,14.3 301.5,16.1 299.7,16 301.1,14.2 			"/>
			<polygon class="st3" points="302.9,14.3 301.1,14.2 284.4,13 282.7,12.8 266.8,11.7 265.1,11.6 250,10.4 248.4,10.3 238.1,9.6 
				239.3,9.5 343.3,17.1 342,17.2 321.5,15.7 319.6,15.5 			"/>
			<polygon class="st2" points="282.7,12.8 284.4,13 283,14.7 281.3,14.6 			"/>
			<polygon class="st2" points="319.6,15.5 321.5,15.7 320.1,17.5 318.2,17.4 			"/>
			<polygon class="st2" points="265.1,11.6 266.8,11.7 265.4,13.4 263.8,13.3 			"/>
			<polygon class="st2" points="248.4,10.3 250,10.4 248.6,12.1 247.1,12 			"/>
			<polygon class="st1" points="342,17.2 343.3,17.1 343,34 343,36.2 343,37.2 341.7,37.2 341.8,34.1 			"/>
			<polygon class="st1" points="342,17.2 341.8,34.1 339.5,37 338.1,38.9 333.5,44.9 281.5,113.1 218.3,196.1 217.6,197 
				213.1,197.7 213.2,201 213.2,202.3 213.2,202.6 213.2,202.8 189.4,234 189.4,234 189.4,234 182.6,235.1 182.3,225.7 218,179.2 
				280.4,97.6 340.2,19.6 			"/>
			<polygon class="st4" points="213.2,202.3 213.2,201 216.1,200.5 216.1,201.9 			"/>
			<polygon class="st4" points="280.4,97.6 218,179.2 217.4,178.7 280,97.1 			"/>
			<polygon class="st4" points="340.2,19.6 280.4,97.6 280,97.1 339.7,19 			"/>
			<polygon class="st1" points="213.2,202.3 216.1,201.9 216.3,213.8 213.4,214.2 213.2,202.8 213.2,202.8 213.2,202.6 			"/>
			<polygon class="st4" points="216.3,213.8 216.1,201.9 216.1,200.5 217,200.4 217.2,213.6 			"/>
			<polygon class="st1" points="213.4,214.2 216.3,213.8 217.2,213.6 217.3,214.6 204.6,231.4 196,232.8 196,232.8 189.4,234 
				213.2,202.8 			"/>
			<polygon class="st5" points="341.7,37.2 343,37.2 343,36.2 345.7,39.7 341.6,39.3 338.1,38.9 339.5,37 			"/>
			<polygon class="st5" points="345.7,39.7 343,36.2 343,34 445.2,162.4 443.3,162 442.1,160.5 441.8,160.1 438.5,156 436,152.9 
				430,145.4 426.6,141.2 424.2,138.1 422.3,135.7 414.4,125.7 410.9,121.4 408.5,118.3 406.8,116.3 398.1,105.4 394.5,100.8 
				392.1,97.9 390.8,96.2 381.3,84.3 377.5,79.6 375.2,76.7 374.2,75.4 363.9,62.4 360,57.5 357.7,54.7 357,53.8 			"/>
			<polygon class="st3" points="443.3,162 445.2,162.4 443.6,162.7 423.3,158 423.4,157.9 424.5,157.7 427.7,157.2 434,158.6 
				442.1,160.5 			"/>
			<polygon class="st1" points="424.5,157.7 423.4,157.9 423.4,156.3 			"/>
			<polygon class="st1" points="427.7,157.2 424.5,157.7 423.4,156.3 423.4,155.9 433.7,158.3 434,158.6 			"/>
			<polygon class="st5" points="434,158.6 433.7,158.3 441.8,160.1 442.1,160.5 			"/>
			<polygon class="st5" points="360,57.5 363.9,62.4 359.7,61.9 345.7,60.1 341.9,55.3 			"/>
			<polygon class="st4" points="341.9,55.3 345.7,60.1 359.1,76.6 359.4,76.9 360.3,78.1 358.4,182 281.6,194 281.5,113.1 
				333.5,44.9 341.6,55 			"/>
			<polygon class="st5" points="377.5,79.6 381.3,84.3 377.2,83.7 363.1,81.5 360.3,78.1 359.4,76.9 			"/>
			<polygon class="st4" points="360.3,78.1 363.1,81.5 376,97.4 376.3,97.8 379.9,102.2 392.3,117.5 392.6,117.9 396.1,122.2 
				408.1,137 408.4,137.3 411.7,141.5 419.9,151.5 420.2,151.9 423.4,155.9 423.4,155.9 423.4,156.3 423.4,157.9 423.3,158 
				423.2,160.8 422.9,171.9 358.4,182 			"/>
			<polygon class="st5" points="394.5,100.8 398.1,105.4 394,104.7 379.9,102.2 376.3,97.8 			"/>
			<polygon class="st5" points="426.6,141.2 430,145.4 425.9,144.5 411.7,141.5 408.4,137.3 			"/>
			<polygon class="st5" points="410.9,121.4 414.4,125.7 410.2,124.9 396.1,122.2 392.6,117.9 			"/>
			<polygon class="st5" points="438.5,156 441.8,160.1 433.7,158.3 423.4,155.9 423.4,155.9 420.2,151.9 			"/>
			<polygon class="st0" points="341.7,37.2 339.5,37 341.8,34.1 			"/>
			<polygon class="st3" points="239.3,9.5 238.1,9.6 234,9.3 232.5,9.2 218.7,8.2 217.3,8 204.1,7.1 202.8,7 190.1,6.1 188.9,6 
				176.8,5.1 175.6,5 164,4.1 162.8,4.1 151.7,3.2 150.6,3.2 149.5,3.1 148.3,3 138.3,2.3 137.2,2.2 127,1.4 126,1.4 127.1,1.3 			
				"/>
			<polygon class="st2" points="232.5,9.2 234,9.3 232.7,10.9 231.2,10.8 			"/>
			<polygon class="st2" points="217.3,8 218.7,8.1 217.4,9.7 216,9.6 			"/>
			<polygon class="st2" points="202.8,7 204.1,7.1 202.8,8.6 201.5,8.5 			"/>
			<polygon class="st2" points="188.9,6 190.1,6.1 188.9,7.6 187.6,7.5 			"/>
			<polygon class="st2" points="148.3,3 149.5,3.1 148.3,4.5 147.2,4.4 			"/>
			<polygon class="st2" points="175.6,5 176.8,5.1 175.6,6.6 174.4,6.5 			"/>
			<polygon class="st2" points="162.8,4.1 164,4.1 162.8,5.6 161.6,5.5 			"/>
			<polygon class="st2" points="150.6,3.2 151.7,3.2 150.5,4.7 149.4,4.6 149.5,4.5 			"/>
			<polygon class="st2" points="137.2,2.2 138.3,2.3 137.1,3.6 136.1,3.6 			"/>
			<polygon class="st0" points="423.3,158 443.6,162.7 443.5,165.5 423.3,160.8 			"/>
			<polygon class="st0" points="423.3,160.8 443.5,165.5 442.5,190.3 428,186.5 422.7,185.1 423.2,172.3 423.1,172.2 422.9,172.3 
				422.9,172.2 422.9,172.2 422.9,171.9 			"/>
			<polygon class="st4" points="422.9,171.9 422.9,172.2 418,172.9 418,173 358.4,182.4 358.4,182 			"/>
			<polygon class="st6" points="418,172.9 418,172.9 422.9,172.2 422.9,172.2 			"/>
			<polygon class="st7" points="418,173 418,173 418,172.9 418,172.9 			"/>
			<polygon class="st6" points="423.1,172.2 423.2,172.3 219.9,204.1 219.9,204 358.4,182.4 418,173 418,173 422.9,172.3 			"/>
			<polygon class="st8" points="423.2,172.3 422.7,185.1 428,186.5 427.7,196.8 427.4,196.9 423,197.7 418.1,198.5 417.6,198.4 
				285.9,221.5 285.9,221.7 285.8,221.7 276.7,223.3 276.2,223.1 208.8,235 208.8,235.2 208.7,235.2 196.2,237.4 196,232.8 
				204.6,231.4 217.5,229.1 220.4,228.6 219.9,204.1 			"/>
			<polygon class="st8" points="418,172.9 418,173 422.9,172.3 422.9,172.2 			"/>
			<polygon class="st9" points="285.9,221.5 417.6,198.4 418.1,198.5 418.4,198.6 286.6,221.7 			"/>
			<polygon class="st10" points="285.9,221.7 285.8,221.7 285.8,223.1 286,223.2 286.6,223.4 286.6,221.7 285.9,221.5 			"/>
			<polygon class="st9" points="208.8,235 276.2,223.1 276.7,223.3 277,223.4 209.5,235.2 			"/>
			<polygon class="st10" points="208.8,235.2 208.7,235.2 208.8,236.7 209,236.8 209.5,237.1 209.5,235.2 208.8,235 			"/>
			<polygon class="st8" points="208.7,235.2 208.8,236.7 209,236.8 209.7,273.6 197,276.2 196.1,237.4 196.2,237.4 			"/>
			<polygon class="st8" points="285.8,221.7 285.8,223.1 286,223.2 286,375.8 286,386.8 286,386.9 276.4,389.6 276.3,379 277,378.9 
				276.6,225.2 277,225.1 277,223.4 276.7,223.3 			"/>
			<polygon class="st1" points="443.5,165.5 443.6,162.7 445.2,162.4 448.5,162 448.4,164.8 446.3,165.1 445.6,165.2 			"/>
			<polygon class="st1" points="448.4,164.8 448.5,162 445.2,162.4 343,34 343.3,17.1 344.5,18.7 345,19.4 397.9,86.8 445.4,147.3 
				469.4,177.9 469.4,178.9 469.1,185.7 464.4,186.6 464.4,186.5 448.3,166.3 448.3,166.3 448.3,165.9 			"/>
			<polygon class="st1" points="213.2,201 213.1,197.7 217.6,197 219.8,196.7 219.9,199.9 217,200.4 216.1,200.5 			"/>
			<polygon class="st4" points="219.9,199.9 219.8,196.7 218.3,196.1 281.5,113.1 281.6,194 219.9,203.7 			"/>
			<polygon class="st3" points="217.6,197 219.8,196.7 218.3,196.1 			"/>
			<polygon class="st11" points="276.6,225.2 277,378.9 276.3,379 276.3,379.1 275.7,379.2 275.3,225.4 			"/>
			<polygon class="st4" points="275.3,225.4 275.7,379.2 214.1,396.4 211,236.8 			"/>
			<polygon class="st11" points="211,236.8 214,396.4 212.7,396.8 209.6,237 			"/>
			<polygon class="st12" points="209.6,237 212.7,396.8 212.1,396.4 211.1,344.9 211,339 209.8,279.6 209.7,273.6 209,236.8 
				209.5,237.1 			"/>
			<polygon class="st13" points="212.1,396.4 212.7,396.8 214.1,396.4 275.7,379.2 276.3,379.1 276.3,389.6 212.4,407.9 			"/>
			<polygon class="st7" points="276.3,379.1 276.3,389.6 276.4,389.6 276.3,379 			"/>
			<polygon class="st2" points="360,57.5 341.9,55.3 341.6,55 343.1,52.9 352.3,54 357.7,54.7 			"/>
			<polygon class="st1" points="343.1,52.9 341.6,55 333.5,44.9 338.1,38.9 341.6,39.3 352.9,53.3 352.3,54 			"/>
			<polygon class="st2" points="377.5,79.6 359.4,76.9 359.1,76.6 360.6,74.6 369.3,75.8 375.2,76.7 			"/>
			<polygon class="st1" points="360.6,74.6 359.1,76.6 345.7,60.1 359.7,61.9 370.1,74.8 369.3,75.8 			"/>
			<polygon class="st2" points="394.5,100.8 376.3,97.8 376,97.4 377.5,95.4 385.7,96.8 392.1,97.9 			"/>
			<polygon class="st1" points="377.5,95.4 376,97.4 363.1,81.5 377.2,83.7 386.7,95.5 385.7,96.8 			"/>
			<polygon class="st2" points="385.7,96.8 386.7,95.5 390.8,96.2 392.1,97.9 			"/>
			<polygon class="st14" points="390.8,96.2 386.7,95.5 377.2,83.7 381.3,84.3 			"/>
			<polygon class="st2" points="426.6,141.2 408.4,137.3 408.1,137 409.5,135 416.9,136.6 424.2,138.1 			"/>
			<polygon class="st1" points="409.5,135 408.1,137 396.1,122.2 410.2,124.9 418.1,134.8 416.9,136.6 			"/>
			<polygon class="st2" points="410.9,121.4 392.6,117.9 392.3,117.5 393.7,115.6 401.5,117 408.5,118.3 			"/>
			<polygon class="st1" points="393.7,115.6 392.3,117.5 379.9,102.2 394,104.7 402.7,115.5 401.5,117 			"/>
			<polygon class="st2" points="438.5,156 420.2,151.9 419.9,151.5 421.3,149.6 431.8,152 436,152.9 			"/>
			<polygon class="st1" points="421.3,149.6 419.9,151.5 411.7,141.5 425.9,144.5 431.8,152 			"/>
			<polygon class="st14" points="431.8,152 425.9,144.5 430,145.4 436,152.9 			"/>
			<polygon class="st4" points="281.6,194 358.4,182 358.4,182.4 219.9,204 219.9,203.7 			"/>
			<polygon class="st15" points="393.2,407.2 393.5,409.2 394.2,384.6 393.9,382.8 			"/>
			<polygon class="st16" points="394.9,411.1 393.5,409.2 394.2,384.6 395.6,386.5 			"/>
			<polygon class="st17" points="397.4,412.9 394.9,411.1 395.7,386.5 398.2,388.1 			"/>
			<polygon class="st18" points="400.9,414.4 397.4,412.9 398.2,388.1 401.7,389.6 			"/>
			<polygon class="st19" points="405,415.4 400.9,414.4 401.7,389.6 405.8,390.6 			"/>
			<polygon class="st20" points="409.6,416.1 405,415.4 405.8,390.6 410.4,391.2 			"/>
			<polygon class="st21" points="414.2,416.2 409.6,416.1 410.4,391.2 415.1,391.3 			"/>
			<polygon class="st22" points="418.6,415.7 414.2,416.2 415.1,391.3 419.5,390.9 			"/>
			<polygon class="st23" points="422.4,414.8 418.6,415.7 419.5,390.9 423.3,390 			"/>
			<polygon class="st24" points="425.4,413.4 422.4,414.8 423.3,390 426.3,388.7 			"/>
			<polygon class="st25" points="427.3,411.8 425.4,413.4 426.3,388.7 428.3,387.1 			"/>
			<polygon class="st26" points="428.1,409.9 427.3,411.8 428.3,387.1 429,385.3 			"/>
			<polygon class="st27" points="424.4,380 427.1,381.6 428.6,383.4 429,385.3 428.3,387.1 426.3,388.7 423.3,390 419.5,390.9 
				415.1,391.3 410.4,391.2 405.8,390.6 401.7,389.6 398.2,388.1 395.6,386.5 394.2,384.6 393.9,382.8 394.9,381 396.9,379.5 
				399.9,378.3 401.1,378 400.9,383.3 401.1,384.4 402,385.5 403.5,386.5 405.6,387.3 408.1,387.9 410.8,388.3 413.6,388.3 
				416.2,388.1 418.5,387.6 420.3,386.8 421.5,385.9 422,384.8 422.2,379.1 			"/>
			<polygon class="st28" points="413.6,388.3 410.8,388.3 411.4,373 414.2,372.1 			"/>
			<polygon class="st16" points="402,385.5 401.1,384.4 401.4,376 402.3,375.7 			"/>
			<polygon class="st29" points="421.5,385.9 420.3,386.8 420.9,370.1 422.1,369.7 			"/>
			<polygon class="st30" points="418.5,387.6 416.2,388.1 416.8,371.3 419.1,370.6 			"/>
			<polygon class="st31" points="416.2,388.1 413.6,388.3 414.2,372.1 416.8,371.3 			"/>
			<polygon class="st32" points="410.8,388.3 408.1,387.9 408.6,373.8 411.4,373 			"/>
			<polygon class="st33" points="420.3,386.8 418.5,387.6 419.1,370.6 420.9,370.1 			"/>
			<polygon class="st17" points="403.5,386.5 402,385.5 402.3,375.7 403.9,375.2 			"/>
			<polygon class="st34" points="422,384.8 421.5,385.9 422.1,369.7 422.6,369.6 422.2,379.1 			"/>
			<polygon class="st15" points="401.2,376.1 401.1,378 400.9,383.3 401.1,384.4 401.4,376 			"/>
			<polygon class="st19" points="408.1,387.9 405.6,387.3 406,374.6 408.6,373.8 			"/>
			<polygon class="st18" points="405.6,387.3 403.5,386.5 403.9,375.2 406,374.6 			"/>
			<polygon class="st16" points="184.8,479.7 184.2,477.1 183.4,449.3 184,451.8 			"/>
			<polygon class="st17" points="186.8,482 184.8,479.7 184,451.8 186,454 			"/>
			<polygon class="st18" points="190,484 186.8,482 186,454 189.2,455.9 			"/>
			<polygon class="st19" points="194.2,485.4 190,484 189.2,455.9 193.5,457.2 			"/>
			<polygon class="st20" points="199.1,486.2 194.2,485.4 193.5,457.2 198.4,458 			"/>
			<polygon class="st21" points="204.4,486.3 199.1,486.2 198.4,458 203.7,458.1 			"/>
			<polygon class="st22" points="209.6,485.8 204.4,486.3 203.7,458.1 209.1,457.6 			"/>
			<polygon class="st23" points="214.5,484.5 209.6,485.8 209,457.6 214,456.4 			"/>
			<polygon class="st24" points="218.7,482.8 214.5,484.5 214,456.4 218.1,454.7 			"/>
			<polygon class="st25" points="221.8,480.5 218.7,482.8 218.1,454.7 221.3,452.6 			"/>
			<polygon class="st26" points="223.7,478 221.8,480.5 221.3,452.6 223.2,450.2 			"/>
			<polygon class="st15" points="224.2,475.4 223.7,478 223.2,450.2 223.8,447.7 			"/>
			<polygon class="st27" points="198.4,458 193.5,457.2 189.2,455.9 186,454 184,451.8 183.4,449.3 184.2,446.9 186.2,444.5 
				189.5,442.5 191.3,441.8 191.5,449 191.9,450.5 193.1,451.8 195,452.9 197.6,453.7 200.5,454.2 203.7,454.3 206.9,453.9 
				209.8,453.2 212.3,452.2 214.2,451 215.4,449.5 215.7,448.1 215.6,440.8 217.6,441.4 220.8,443.2 223,445.3 223.8,447.7 
				223.2,450.2 221.3,452.6 218.1,454.7 214,456.4 209,457.6 203.7,458.1 			"/>
			<polygon class="st28" points="203.7,454.3 200.5,454.2 200.1,436.8 203.3,435.8 			"/>
			<polygon class="st31" points="206.9,453.9 203.7,454.3 203.3,435.8 206.4,434.9 			"/>
			<polygon class="st32" points="200.5,454.2 197.6,453.7 197.2,437.7 200.1,436.8 			"/>
			<polygon class="st30" points="209.8,453.2 206.9,453.9 206.4,434.9 209.4,434 			"/>
			<polygon class="st19" points="197.6,453.7 195,452.9 194.7,438.4 197.2,437.7 			"/>
			<polygon class="st24" points="212.3,452.2 209.8,453.2 209.4,434 211.9,433.2 			"/>
			<polygon class="st35" points="195,452.9 193.1,451.8 192.8,439 194.7,438.4 			"/>
			<polygon class="st25" points="214.2,451 212.3,452.2 211.9,433.2 213.8,432.7 			"/>
			<polygon class="st36" points="193.1,451.8 191.9,450.5 191.6,439.4 192.8,439 			"/>
			<polygon class="st34" points="215.4,449.5 214.2,451 213.8,432.7 215,432.3 			"/>
			<polygon class="st37" points="191.3,439.5 191.3,441.8 191.5,449 191.9,450.5 191.6,439.4 			"/>
			<polygon class="st38" points="215,432.3 215.4,449.5 215.7,448.1 215.6,440.8 215.4,432.2 			"/>
			<polygon class="st18" points="44.6,362.4 42.6,361.3 41.2,339.1 43.2,340.2 			"/>
			<polygon class="st19" points="47.6,363.3 44.6,362.4 43.2,340.2 46.2,341 			"/>
			<polygon class="st20" points="51.2,363.8 47.6,363.3 46.2,341 49.8,341.4 			"/>
			<polygon class="st21" points="55.2,363.8 51.2,363.8 49.8,341.4 53.8,341.5 			"/>
			<polygon class="st22" points="59.4,363.5 55.2,363.8 53.8,341.5 58,341.2 			"/>
			<polygon class="st23" points="63.4,362.8 59.4,363.5 58,341.2 60.4,340.8 62.2,342.1 			"/>
			<polygon class="st24" points="67,361.7 63.4,362.8 62.2,342.1 66,345.1 			"/>
			<polygon class="st25" points="69.9,360.4 67,361.7 66,345.1 69.1,347.4 			"/>
			<polygon class="st26" points="71.9,358.9 69.9,360.4 69.1,347.5 71.3,349.1 			"/>
			<polygon class="st15" points="72.9,357.4 71.9,358.9 71.3,349.1 72.5,350 			"/>
			<polygon class="st16" points="72.9,357.4 72.8,355.9 72.5,350 72.5,350 			"/>
			<polygon class="st17" points="42.6,361.3 41.6,359.9 40.2,337.8 41.2,339.1 			"/>
			<polygon class="st27" points="43.2,340.2 41.2,339.1 40.2,337.8 40.2,336.3 41.4,334.9 43.5,333.5 46.2,332.4 46.5,337 
				47.1,337.8 48.4,338.4 50.1,338.9 52.3,339.2 54.7,339.2 57.2,339 58,338.9 60.4,340.8 58,341.2 53.8,341.5 49.8,341.4 46.2,341 
							"/>
			<polygon class="st18" points="48.4,338.4 47.1,337.8 46.6,330.2 47.9,331.2 			"/>
			<polygon class="st19" points="50.1,338.9 48.4,338.4 47.9,331.2 49.7,332.6 			"/>
			<polygon class="st21" points="54.7,339.2 52.3,339.2 52,334.3 54.5,336.3 			"/>
			<polygon class="st36" points="47.1,337.8 46.5,337 46.2,332.4 46,329.8 46.6,330.2 			"/>
			<polygon class="st20" points="52.3,339.2 50.1,338.9 49.7,332.6 52,334.3 			"/>
			<polygon class="st22" points="57.2,339 54.7,339.2 54.5,336.3 57.1,338.3 			"/>
			<polygon class="st23" points="57.2,339 58,338.9 57.1,338.3 			"/>
			<polygon class="st14" points="418.1,134.8 410.2,124.9 414.4,125.7 422.3,135.7 			"/>
			<polygon class="st2" points="418.1,134.8 422.3,135.7 424.2,138.1 416.9,136.6 			"/>
			<polygon class="st14" points="402.7,115.5 394,104.7 398.1,105.4 406.8,116.3 			"/>
			<polygon class="st2" points="402.7,115.5 406.8,116.3 408.5,118.3 401.5,117 			"/>
			<polygon class="st2" points="369.3,75.8 370.1,74.8 374.2,75.4 375.2,76.7 			"/>
			<polygon class="st14" points="374.2,75.4 370.1,74.8 359.7,61.9 363.9,62.4 			"/>
			<polygon class="st2" points="352.3,54 352.9,53.3 357,53.8 357.7,54.7 			"/>
			<polygon class="st14" points="357,53.8 352.9,53.3 341.6,39.3 345.7,39.7 			"/>
			<polygon class="st1" points="20.5,158.1 19.4,159.6 13.8,160.2 13.5,155.1 			"/>
			<polygon class="st0" points="13.5,155.1 13.8,160.2 13,159.8 12.7,155.2 12.6,154.7 			"/>
			<polygon class="st0" points="137.2,2.2 136.1,3.6 127.1,2.9 127,1.4 			"/>
			<polygon class="st1" points="127,1.4 127.1,2.9 125.9,2.8 			"/>
			<polygon class="st1" points="137.1,3.6 138.3,2.3 138.3,3.7 			"/>
			<polygon class="st0" points="138.3,3.7 138.3,2.3 148.3,3 147.2,4.4 			"/>
			<polygon class="st0" points="22,163.8 21.7,158.6 22.6,159 23,164.2 			"/>
			<polygon class="st1" points="23.8,164.1 23,164.2 22.6,159 22.7,159.1 23.5,159.4 			"/>
			<polygon class="st1" points="148.3,4.5 149.5,3.1 149.5,4.5 149.4,4.6 149.3,4.6 			"/>
			<polygon class="st0" points="149.5,4.5 149.5,3.1 150.6,3.2 			"/>
			<polygon class="st0" points="3.8,155.7 3.5,150.7 4.3,151.1 4.7,156.1 			"/>
			<polygon class="st1" points="10.1,155.5 4.7,156.1 4.3,151.1 11.2,154.1 			"/>
			<polygon class="st2" points="124.9,2.7 126,1.4 127,1.4 125.9,2.8 			"/>
			<polygon class="st0" points="301.1,14.2 299.7,16 284.4,14.8 284.4,13 			"/>
			<polygon class="st1" points="284.4,13 284.4,14.8 283,14.7 			"/>
			<polygon class="st7" points="182.6,235.1 189.4,234 189.4,234 196,232.8 196.1,237.4 197,276.2 39.7,197.7 37.9,169.1 
				40.5,168.8 41.8,167.3 44,168.3 44.3,173.7 45.3,174.2 51.1,173.5 52.4,171.9 54.9,173 55.3,178.6 56.3,179 62.2,178.3 
				63.5,176.7 66.4,178 66.7,183.7 67.8,184.2 73.8,183.4 75.1,181.8 78.4,183.2 78.7,189 79.8,189.5 85.9,188.7 87.2,187 
				90.2,188.3 91,188.6 91.3,194.6 92.5,195.1 98.7,194.2 100,192.6 104.2,194.4 104.5,200.4 105.7,201 112,200.1 113.4,198.4 
				118.1,200.4 118.3,206.6 119.7,207.2 126.1,206.2 127.5,204.5 132.7,206.7 132.9,213.1 134.3,213.7 140.8,212.7 142.3,210.9 
				148.1,213.4 148.3,219.9 149.8,220.6 156.4,219.5 157.9,217.6 163.6,220.1 163.8,226.8 165.4,227.5 172.1,226.4 173.6,224.4 
				180.7,227.6 180.9,234.4 			"/>
			<polygon class="st7" points="39.7,197.7 197,276.2 197.1,282.2 40,202.3 			"/>
			<polygon class="st0" points="148.3,219.9 148.1,213.4 149.6,214.1 149.8,220.6 			"/>
			<polygon class="st1" points="156.4,219.5 149.8,220.6 149.6,214.1 157.9,217.6 			"/>
			<polygon class="st0" points="180.9,234.4 180.7,227.6 180.9,227.6 182.3,225.7 182.6,235.1 			"/>
			<polygon class="st0" points="163.8,226.8 163.6,220.1 165.2,220.8 165.4,227.5 			"/>
			<polygon class="st1" points="165.4,227.5 165.2,220.8 173.6,224.4 172.1,226.4 			"/>
			<polygon class="st1" points="320.1,17.5 321.5,15.7 321.5,17.6 			"/>
			<polygon class="st0" points="321.5,17.6 321.5,15.7 342,17.2 342,17.2 340,17 338.6,18.9 			"/>
			<polygon class="st2" points="340,17 342,17.2 340.2,19.6 339.7,19 338.6,18.9 			"/>
			<polygon class="st0" points="132.9,213.1 132.7,206.7 134.1,207.3 134.3,213.7 			"/>
			<polygon class="st1" points="140.8,212.7 134.3,213.7 134.1,207.3 142.3,210.9 			"/>
			<polygon class="st0" points="282.7,12.8 281.3,14.6 266.8,13.5 266.8,11.7 			"/>
			<polygon class="st1" points="266.8,11.7 266.8,13.5 265.4,13.4 			"/>
			<polygon class="st0" points="118.3,206.6 118.1,200.4 119.4,201 119.7,207.2 			"/>
			<polygon class="st1" points="126.1,206.2 119.7,207.2 119.4,201 127.5,204.5 			"/>
			<polygon class="st0" points="265.1,11.6 263.8,13.3 250,12.2 250,10.4 			"/>
			<polygon class="st1" points="250,10.4 250,12.2 248.6,12.1 			"/>
			<polygon class="st0" points="104.5,200.4 104.2,194.4 105.4,194.9 105.7,201 			"/>
			<polygon class="st1" points="112,200.1 105.7,201 105.4,194.9 113.4,198.4 			"/>
			<polygon class="st0" points="248.4,10.3 247.1,12 238.2,11.3 238.1,9.6 			"/>
			<polygon class="st0" points="238.1,9.6 238.2,11.3 234,11 234,9.3 			"/>
			<polygon class="st1" points="234,9.3 234,11 232.7,10.9 			"/>
			<polygon class="st0" points="91.3,194.6 91,188.7 92.2,189.2 92.5,195.1 			"/>
			<polygon class="st1" points="98.7,194.2 92.5,195.1 92.2,189.2 100,192.6 			"/>
			<polygon class="st0" points="232.5,9.2 231.2,10.8 231.2,10.8 218.7,9.8 218.7,8.1 			"/>
			<polygon class="st1" points="218.7,8.1 218.7,9.8 217.4,9.7 			"/>
			<polygon class="st0" points="78.7,189 78.4,183.2 79.5,183.7 79.8,189.5 			"/>
			<polygon class="st1" points="85.9,188.7 79.8,189.5 79.5,183.7 87.2,187 			"/>
			<polygon class="st0" points="217.3,8 216,9.6 204.1,8.7 204.1,7.1 			"/>
			<polygon class="st1" points="204.1,7.1 204.1,8.7 202.8,8.6 			"/>
			<polygon class="st0" points="66.7,183.7 66.4,178 67.5,178.5 67.8,184.2 			"/>
			<polygon class="st1" points="73.8,183.4 67.8,184.2 67.5,178.5 75.1,181.8 			"/>
			<polygon class="st0" points="202.8,7 201.5,8.5 190.2,7.7 190.1,6.1 			"/>
			<polygon class="st1" points="190.1,6.1 190.2,7.7 188.9,7.6 			"/>
			<polygon class="st0" points="55.3,178.6 54.9,173 56,173.5 56.3,179 			"/>
			<polygon class="st1" points="62.2,178.3 56.3,179 56,173.5 63.5,176.7 			"/>
			<polygon class="st0" points="188.9,6 187.6,7.5 176.8,6.7 176.8,5.1 			"/>
			<polygon class="st1" points="176.8,5.1 176.8,6.7 175.6,6.6 			"/>
			<polygon class="st0" points="44.3,173.7 44,168.3 45,168.7 45.3,174.2 			"/>
			<polygon class="st1" points="51.1,173.5 45.3,174.2 45,168.7 52.4,171.9 			"/>
			<polygon class="st0" points="175.6,5 174.4,6.5 164,5.7 164,4.1 			"/>
			<polygon class="st1" points="164,4.1 164,5.7 162.8,5.6 			"/>
			<polygon class="st0" points="33.9,169.1 33.5,163.8 34.5,164.2 34.8,169.5 			"/>
			<polygon class="st1" points="41.8,167.3 40.5,168.8 37.9,169.1 34.8,169.5 34.5,164.2 			"/>
			<polygon class="st0" points="162.8,4.1 161.6,5.5 151.7,4.8 151.7,3.2 			"/>
			<polygon class="st1" points="151.7,3.2 151.7,4.8 150.5,4.7 			"/>
			<polygon class="st1" points="30.4,164.4 24.8,165 24.5,159.8 31.6,162.9 			"/>
			<polygon class="st0" points="24.8,165 23.9,164.6 23.8,164.1 23.5,159.4 24.5,159.8 			"/>
			<polygon class="st9" points="422.3,337.3 422.4,337.3 413.3,339.9 413.3,339.8 			"/>
			<polygon class="st8" points="422.3,337.3 413.3,339.8 414.8,294.7 423.9,292.5 			"/>
			<polygon class="st13" points="413.3,339.9 422.4,337.3 422.2,343.9 422,347.9 417.1,349.3 412.5,350.6 412.4,350.7 408.1,351.9 
				408,351.9 286,386.8 286,375.8 286.6,376.2 287.8,375.8 352.7,357.7 412.2,341.1 413.3,340.8 			"/>
			<polygon class="st12" points="286,375.8 286.6,376.2 286.7,223.4 286.6,223.4 286,223.2 			"/>
			<polygon class="st11" points="286.6,376.2 286.7,223.4 287.9,223.2 287.8,375.8 			"/>
			<polygon class="st4" points="287.8,375.8 287.9,223.2 355.4,211.3 352.7,357.7 			"/>
			<polygon class="st11" points="413.3,340.8 412.2,341.1 417,200.4 418,200.2 418,201.4 416.9,232.1 416.8,237.4 415,289.6 
				414.8,294.7 413.3,339.8 413.3,339.9 			"/>
			<polygon class="st4" points="417,200.4 412.2,341.1 352.7,357.7 355.4,211.3 			"/>
			<polygon class="st39" points="212.4,407.9 276.3,389.6 276.4,389.6 286,386.9 286,386.8 408,351.9 408,353.7 407.4,353.8 
				406.3,354.3 405.6,355 405.3,355.6 405.6,356.3 406.3,357 407.5,357.6 409,358.1 410.7,358.4 412.5,358.6 414.4,358.6 
				416.1,358.4 417.5,358 418.6,357.5 419.3,356.9 419.5,356.2 419.2,355.5 418.5,354.8 417.3,354.2 417,354.1 417.1,349.3 
				422,347.9 422.2,343.9 455.5,358.8 189.8,438.9 19,308.4 46.9,302.8 50.4,305.3 50.7,309.3 50.2,309.4 49.1,309.9 48.4,310.4 
				48.1,310.9 48.2,311.5 48.7,311.9 49.6,312.3 50.9,312.6 52.4,312.7 54,312.7 55.7,312.6 57.3,312.3 58.1,312 58.3,314 
				64.8,318.7 68.3,318 78.6,325.3 78.8,328.7 85.9,333.8 89.5,333 100.9,341.1 101.1,344.7 108.8,350.2 112.5,349.3 125.2,358.4 
				125.4,362 133.8,368.1 137.6,367.1 151.8,377.2 152,381.1 161.2,387.7 165.2,386.7 181.1,398 181.2,402 191.4,409.3 195.5,408.2 
				197.8,409.8 197.9,414.1 196.8,414.6 195.6,415.4 194.9,416.3 194.8,417.2 195.2,418.1 196.2,418.9 197.6,419.6 199.4,420 
				201.4,420.2 203.6,420.2 205.7,419.9 207.6,419.5 209.1,418.8 210.3,417.9 210.9,417 211,416.1 210.6,415.2 209.6,414.4 
				208.2,413.8 207.8,413.7 207.7,409.3 			"/>
			<polygon class="st39" points="195.2,418.1 194.8,417.2 194.9,416.3 195.6,415.4 196.8,414.6 197.9,414.1 197.9,416.2 198,416.2 
				201.6,418.8 201.7,418.9 207.9,417.1 207.8,413.7 208.2,413.8 209.6,414.4 210.6,415.2 211,416.1 210.9,417 210.3,417.9 
				209.1,418.8 207.6,419.5 205.7,419.9 203.6,420.2 201.4,420.2 199.4,420 197.6,419.6 196.2,418.9 			"/>
			<polygon class="st13" points="207.9,417.1 201.7,418.9 201.6,411 207.7,409.3 207.8,413.7 			"/>
			<polygon class="st10" points="197.9,414.1 197.9,416.2 198,416.2 197.9,409.9 197.8,409.8 			"/>
			<polygon class="st10" points="201.5,411.1 201.6,418.8 201.7,418.9 201.6,411 			"/>
			<polygon class="st40" points="201.6,418.8 198,416.2 197.9,409.9 199.9,411.3 200,411.4 200.1,411.5 201.5,411.1 			"/>
			<polygon class="st41" points="406.3,357 405.6,356.3 405.3,355.6 405.6,355 406.3,354.3 407.4,353.8 408,353.7 407.9,355.6 
				408,355.6 412.1,357.5 412.3,357.6 416.9,356.3 417,354.1 417.3,354.2 418.5,354.8 419.2,355.5 419.5,356.2 419.3,356.9 
				418.6,357.5 417.5,358 416.1,358.4 414.4,358.6 412.5,358.6 410.7,358.4 409,358.1 407.5,357.6 			"/>
			<polygon class="st13" points="416.9,356.3 412.3,357.6 412.5,350.6 417.1,349.3 417,354.1 			"/>
			<polygon class="st10" points="408,351.9 408,353.7 407.9,355.6 408,355.6 408.1,351.9 			"/>
			<polygon class="st10" points="412.4,350.7 412.1,357.5 412.3,357.6 412.5,350.6 			"/>
			<polygon class="st40" points="412.1,357.5 408,355.6 408.1,351.9 412.4,350.7 			"/>
			<polygon class="st41" points="48.2,311.5 48.1,310.9 48.4,310.4 49.1,309.9 50.2,309.4 50.7,309.3 50.7,310.3 50.8,310.4 
				52.9,311.9 53,311.9 58.1,310.9 58.1,312 57.3,312.3 55.7,312.6 54,312.7 52.4,312.7 50.9,312.6 49.6,312.3 48.7,311.9 			"/>
			<polygon class="st13" points="58.1,310.9 53,311.9 52.7,306.9 58.1,310.7 			"/>
			<polygon class="st10" points="50.7,309.3 50.7,310.3 50.8,310.4 50.5,305.4 50.4,305.3 			"/>
			<polygon class="st10" points="52.9,311.9 53,311.9 52.6,306.9 52.6,306.9 			"/>
			<polygon class="st40" points="52.9,311.9 50.8,310.4 50.5,305.4 52.6,306.9 			"/>
			<polygon class="st42" points="165.2,386.7 161.2,387.7 161.1,383.8 			"/>
			<polygon class="st43" points="161.2,387.7 152,381.1 151.8,377.2 161.1,383.8 			"/>
			<polygon class="st42" points="195.5,408.2 191.4,409.3 191.3,405.3 			"/>
			<polygon class="st43" points="191.4,409.3 181.2,402 181.1,398 191.3,405.3 			"/>
			<polygon class="st42" points="137.6,367.1 133.8,368.1 133.7,364.4 			"/>
			<polygon class="st43" points="133.8,368.1 125.4,362 125.2,358.4 133.7,364.4 			"/>
			<polygon class="st42" points="112.5,349.3 108.8,350.2 108.6,346.6 			"/>
			<polygon class="st43" points="108.8,350.2 101.1,344.7 100.9,341.1 108.6,346.6 			"/>
			<polygon class="st42" points="89.5,333 85.9,333.8 85.7,330.3 			"/>
			<polygon class="st43" points="85.9,333.8 78.8,328.7 78.6,325.3 85.7,330.3 			"/>
			<polygon class="st42" points="68.3,318 64.8,318.7 64.6,315.4 			"/>
			<polygon class="st43" points="64.8,318.7 58.3,314 58.1,312 58.1,310.9 58.1,310.7 64.6,315.4 			"/>
			<polygon class="st10" points="200,411.4 199.9,411.3 199.6,399.7 195.1,396.6 195.1,396.1 199.7,399.3 			"/>
			<polygon class="st7" points="200,411.4 199.7,399.3 195.1,396.1 195.1,396.6 199.6,399.7 199.9,411.3 197.9,409.9 197.8,409.8 
				195.5,408.2 191.3,405.3 181.1,398 165.2,386.7 161.1,383.8 151.8,377.2 137.6,367.1 133.7,364.4 125.2,358.4 112.5,349.3 
				108.6,346.6 100.9,341.1 89.5,333 85.7,330.3 78.6,325.3 68.3,318 64.6,315.4 58.1,310.7 52.6,306.9 52.6,306.9 50.5,305.4 
				50.4,305.3 46.9,302.8 46.3,302.4 43.2,253 198.6,348 200.1,411.5 			"/>
			<polygon class="st7" points="198.6,348 43.2,253 42.9,248.5 198.5,342.1 			"/>
			<polygon class="st1" points="12.7,155.2 10.1,155.5 11.2,154.1 12.6,154.7 			"/>
			<polygon class="st1" points="217.5,229.1 204.6,231.4 217.3,214.6 			"/>
			<polygon class="st1" points="217.3,214.6 217.2,213.6 217,200.4 219.9,199.9 219.9,203.7 219.9,204 220,204.1 220.4,228.6 
				217.5,229.1 			"/>
			<polygon class="st1" points="453.9,188.4 444.6,190 445.1,177.5 			"/>
			<polygon class="st1" points="453.9,188.4 445.1,177.5 445.1,176.6 445.8,176.5 447.9,176.1 448.3,166.3 464.4,186.5 464.4,186.5 
							"/>
			<polygon class="st1" points="447.9,176.1 445.8,176.5 446.2,166.2 448.3,165.9 448.3,166.3 448.3,166.3 			"/>
			<polygon class="st4" points="448.3,165.9 446.2,166.2 446.3,165.1 448.4,164.8 			"/>
			<polygon class="st1" points="445.1,176.6 445.1,177.5 444.6,190 442.5,190.3 443.5,165.5 445.6,165.2 			"/>
			<polygon class="st4" points="445.1,176.6 445.6,165.2 446.3,165.1 446.2,166.2 445.8,176.5 			"/>
			<polygon class="st4" points="398.4,86.2 445.8,146.7 445.4,147.2 397.9,86.8 			"/>
			<polygon class="st4" points="445.4,147.2 445.8,146.7 470.4,178.2 470.4,179.1 469.4,177.9 			"/>
			<polygon class="st4" points="398.4,86.2 397.9,86.8 345,19.4 345.5,18.8 			"/>
			<polygon class="st14" points="469.4,178.9 470.4,179.1 469.4,177.9 			"/>
			<polygon class="st44" points="345,19.4 345.5,18.8 344.5,18.7 			"/>
			<polygon class="st44" points="339.7,19 280,97.1 177.8,77.5 231.2,10.8 231.2,10.8 232.7,10.9 234,11 238.2,11.3 247.1,12 
				248.6,12.1 250,12.2 263.8,13.3 265.4,13.4 266.8,13.5 281.3,14.6 283,14.7 284.4,14.8 299.7,16 301.5,16.1 302.9,16.2 
				318.2,17.4 320.1,17.5 321.5,17.6 338.6,18.9 			"/>
			<polygon class="st44" points="177.8,77.5 280,97.1 217.4,178.7 122.4,146.9 			"/>
			<polygon class="st44" points="231.2,10.8 177.8,77.5 101.2,62.9 149.3,4.6 149.4,4.6 150.5,4.7 151.7,4.8 161.6,5.5 162.8,5.6 
				164,5.7 174.4,6.5 175.6,6.6 176.8,6.7 187.6,7.5 188.9,7.6 190.2,7.7 201.5,8.5 202.8,8.6 204.1,8.7 216,9.6 217.4,9.7 
				218.7,9.8 			"/>
			<polygon class="st44" points="101.2,62.9 177.8,77.5 122.4,146.9 51.5,123.2 			"/>
			<polygon class="st44" points="149.3,4.6 101.2,62.9 77.8,58.4 124.2,2.7 124.9,2.7 125.9,2.8 127.1,2.9 136.1,3.6 137.1,3.6 
				138.3,3.7 147.2,4.4 148.3,4.5 			"/>
			<polygon class="st44" points="122.4,146.9 217.4,178.7 180.9,226.5 90.1,187.3 			"/>
			<polygon class="st4" points="217.4,178.7 218,179.2 182.3,225.7 180.9,227.6 180.9,226.5 			"/>
			<polygon class="st44" points="51.5,123.2 122.4,146.9 90.1,187.3 22.7,158.2 			"/>
			<polygon class="st44" points="101.2,62.9 51.5,123.2 29.9,116 77.8,58.4 			"/>
			<polygon class="st45" points="22.7,158.2 90.1,187.3 90.2,188.3 87.2,187 79.5,183.7 78.4,183.2 75.1,181.8 67.5,178.5 66.4,178 
				63.5,176.7 56,173.5 54.9,173 52.4,171.9 45,168.7 44,168.3 41.8,167.3 34.5,164.2 33.5,163.8 31.6,162.9 24.5,159.8 23.5,159.4 
				22.7,159.1 			"/>
			<polygon class="st45" points="90.2,188.3 90.1,187.3 180.9,226.5 180.9,227.6 180.7,227.6 173.6,224.4 165.2,220.8 163.6,220.1 
				157.9,217.6 149.6,214.1 148.1,213.4 142.3,210.9 134.1,207.3 132.7,206.7 127.5,204.5 119.4,201 118.1,200.4 113.4,198.4 
				105.4,194.9 104.2,194.4 100,192.6 92.2,189.2 91,188.6 			"/>
			<polygon class="st45" points="22.7,158.2 22.7,159.1 22.6,159 21.7,158.6 20.5,158.1 13.5,155.1 12.6,154.7 11.2,154.1 
				4.3,151.1 3.5,150.7 2.2,150.2 2.2,149.4 			"/>
			<polygon class="st44" points="51.5,123.2 22.7,158.2 2.2,149.4 29.9,116 			"/>
			<polygon class="st42" points="455.5,358.8 455.5,359.6 422.6,369.6 422.1,369.7 420.9,370.1 419.1,370.6 416.8,371.3 
				414.2,372.1 411.4,373 408.6,373.8 406,374.6 403.9,375.2 402.3,375.7 401.4,376 401.2,376.1 215.4,432.2 215,432.3 213.8,432.7 
				211.9,433.2 209.4,434 206.4,434.9 203.3,435.8 200.1,436.8 197.2,437.7 194.7,438.4 192.8,439 191.6,439.4 191.3,439.5 
				189.8,439.9 189.8,438.9 			"/>
			<polygon class="st43" points="189.8,438.9 189.8,439.9 72.5,350 72.5,350 71.3,349.1 69.1,347.4 66,345.1 62.2,342.1 60.4,340.8 
				58,338.9 57.1,338.3 54.5,336.3 52,334.3 49.7,332.6 47.9,331.2 46.6,330.2 46,329.8 19.1,309.1 19,308.4 			"/>
			<polygon class="st8" points="423.9,292.5 414.8,294.7 415,289.6 424.1,287.4 			"/>
			<polygon class="st8" points="424.1,287.4 415,289.6 416.8,237.4 426,235.5 			"/>
			<polygon class="st7" points="198.5,342.1 42.9,248.5 40,202.3 197.1,282.2 			"/>
			<polygon class="st8" points="426,235.5 416.8,237.4 416.9,232.1 426.2,230.2 			"/>
			<polygon class="st8" points="426.2,230.2 416.9,232.1 418,201.4 422.9,200.5 423,197.7 427.4,196.9 			"/>
			<polygon class="st7" points="196,232.8 196.1,237.4 196.2,237.4 			"/>
			<polygon class="st13" points="209.5,235.2 277,223.4 277,225.1 276.6,225.2 275.3,225.4 211,236.8 209.6,237 209.5,237.1 			"/>
			<polygon class="st13" points="286.6,221.7 418.4,198.6 418.4,200.2 418,200.2 417,200.4 355.4,211.3 287.9,223.2 286.7,223.4 
				286.6,223.4 			"/>
			<polygon class="st13" points="418.4,200.2 418.4,198.6 418.1,198.5 423,197.7 422.9,200.5 418,201.4 418,200.2 			"/>
			<polygon class="st8" points="209.7,273.6 209.8,279.7 197.1,282.2 197,276.2 			"/>
			<polygon class="st8" points="211.1,344.9 212.1,396.4 212.4,407.9 212.4,407.9 207.7,409.3 201.6,411 201.5,411.1 200.1,411.5 
				198.6,348 			"/>
			<polygon class="st8" points="211,339 211.1,344.9 198.6,348 198.5,342.1 			"/>
			<polygon class="st8" points="209.8,279.6 211,339 198.5,342.1 197.1,282.2 			"/>
			<line class="st46" x1="195.2" y1="418.1" x2="194.8" y2="417.2"/>
			<line class="st46" x1="195.2" y1="418.1" x2="196.2" y2="418.9"/>
			<line class="st46" x1="210.9" y1="417" x2="211" y2="416.1"/>
			<line class="st46" x1="210.3" y1="417.9" x2="210.9" y2="417"/>
			<line class="st46" x1="209.1" y1="418.8" x2="210.3" y2="417.9"/>
			<line class="st46" x1="207.6" y1="419.5" x2="209.1" y2="418.8"/>
			<line class="st46" x1="205.7" y1="419.9" x2="207.6" y2="419.5"/>
			<line class="st46" x1="203.6" y1="420.2" x2="205.7" y2="419.9"/>
			<line class="st46" x1="201.4" y1="420.2" x2="203.6" y2="420.2"/>
			<line class="st46" x1="199.4" y1="420" x2="201.4" y2="420.2"/>
			<line class="st46" x1="197.6" y1="419.6" x2="199.4" y2="420"/>
			<line class="st46" x1="196.2" y1="418.9" x2="197.6" y2="419.6"/>
			<polyline class="st46" points="405.6,356.3 406.3,357 407.5,357.6 			"/>
			<line class="st46" x1="419.3" y1="356.9" x2="419.5" y2="356.2"/>
			<line class="st46" x1="418.6" y1="357.5" x2="419.3" y2="356.9"/>
			<line class="st46" x1="417.5" y1="358" x2="418.6" y2="357.5"/>
			<line class="st46" x1="416.1" y1="358.4" x2="417.5" y2="358"/>
			<line class="st46" x1="414.4" y1="358.6" x2="416.1" y2="358.4"/>
			<line class="st46" x1="412.5" y1="358.6" x2="414.4" y2="358.6"/>
			<line class="st46" x1="410.7" y1="358.4" x2="412.5" y2="358.6"/>
			<line class="st46" x1="409" y1="358.1" x2="410.7" y2="358.4"/>
			<line class="st46" x1="407.5" y1="357.6" x2="409" y2="358.1"/>
			<line class="st46" x1="405.6" y1="356.3" x2="405.3" y2="355.6"/>
			<line class="st46" x1="48.2" y1="311.5" x2="48.1" y2="310.9"/>
			<line class="st46" x1="48.2" y1="311.5" x2="48.7" y2="311.9"/>
			<line class="st46" x1="57.3" y1="312.3" x2="58.1" y2="312"/>
			<line class="st46" x1="55.7" y1="312.6" x2="57.3" y2="312.3"/>
			<line class="st46" x1="54" y1="312.7" x2="55.7" y2="312.6"/>
			<line class="st46" x1="52.4" y1="312.7" x2="54" y2="312.7"/>
			<line class="st46" x1="50.9" y1="312.6" x2="52.4" y2="312.7"/>
			<line class="st46" x1="49.6" y1="312.3" x2="50.9" y2="312.6"/>
			<line class="st46" x1="48.7" y1="311.9" x2="49.6" y2="312.3"/>
			<line class="st46" x1="410.8" y1="388.3" x2="413.6" y2="388.3"/>
			<line class="st46" x1="402" y1="385.5" x2="401.1" y2="384.4"/>
			<line class="st46" x1="420.3" y1="386.8" x2="421.5" y2="385.9"/>
			<line class="st46" x1="416.2" y1="388.1" x2="418.5" y2="387.6"/>
			<line class="st46" x1="413.6" y1="388.3" x2="416.2" y2="388.1"/>
			<line class="st46" x1="408.1" y1="387.9" x2="410.8" y2="388.3"/>
			<line class="st46" x1="418.5" y1="387.6" x2="420.3" y2="386.8"/>
			<line class="st46" x1="402" y1="385.5" x2="403.5" y2="386.5"/>
			<line class="st46" x1="421.5" y1="385.9" x2="422" y2="384.8"/>
			<line class="st46" x1="401.1" y1="384.4" x2="400.9" y2="383.3"/>
			<line class="st46" x1="405.6" y1="387.3" x2="408.1" y2="387.9"/>
			<line class="st46" x1="403.5" y1="386.5" x2="405.6" y2="387.3"/>
			<polyline class="st46" points="200.5,454.2 203.7,454.3 206.9,453.9 			"/>
			<line class="st46" x1="197.6" y1="453.7" x2="200.5" y2="454.2"/>
			<line class="st46" x1="206.9" y1="453.9" x2="209.8" y2="453.2"/>
			<line class="st46" x1="195" y1="452.9" x2="197.6" y2="453.7"/>
			<line class="st46" x1="209.8" y1="453.2" x2="212.3" y2="452.2"/>
			<line class="st46" x1="193.1" y1="451.8" x2="195" y2="452.9"/>
			<line class="st46" x1="212.3" y1="452.2" x2="214.2" y2="451"/>
			<line class="st46" x1="193.1" y1="451.8" x2="191.9" y2="450.5"/>
			<line class="st46" x1="214.2" y1="451" x2="215.4" y2="449.5"/>
			<line class="st46" x1="191.9" y1="450.5" x2="191.5" y2="449"/>
			<line class="st46" x1="215.4" y1="449.5" x2="215.7" y2="448.1"/>
			<polyline class="st46" points="47.1,337.8 48.4,338.4 50.1,338.9 			"/>
			<line class="st46" x1="52.3" y1="339.2" x2="54.7" y2="339.2"/>
			<line class="st46" x1="47.1" y1="337.8" x2="46.5" y2="337"/>
			<line class="st46" x1="50.1" y1="338.9" x2="52.3" y2="339.2"/>
			<polyline class="st46" points="54.7,339.2 57.2,339 58,338.9 			"/>
			<line class="st46" x1="200" y1="411.4" x2="199.7" y2="399.3"/>
			<line class="st46" x1="195.1" y1="396.1" x2="199.7" y2="399.3"/>
			<line class="st46" x1="39.7" y1="197.7" x2="197" y2="276.2"/>
			<line class="st46" x1="342" y1="17.2" x2="343.3" y2="17.1"/>
			<line class="st46" x1="238.1" y1="9.6" x2="239.3" y2="9.5"/>
			<line class="st46" x1="238.1" y1="9.6" x2="238.2" y2="11.3"/>
			<line class="st46" x1="443.5" y1="165.5" x2="443.6" y2="162.7"/>
			<line class="st46" x1="423.3" y1="158" x2="443.6" y2="162.7"/>
			<line class="st46" x1="286.7" y1="223.4" x2="286.6" y2="376.2"/>
			<line class="st46" x1="209.6" y1="237" x2="212.7" y2="396.8"/>
			<line class="st46" x1="201.7" y1="418.9" x2="201.6" y2="411"/>
			<line class="st46" x1="412.3" y1="357.6" x2="412.5" y2="350.6"/>
			<line class="st46" x1="53" y1="311.9" x2="52.6" y2="306.9"/>
			<line class="st46" x1="360" y1="57.5" x2="341.9" y2="55.3"/>
			<line class="st46" x1="377.5" y1="79.6" x2="359.4" y2="76.9"/>
			<line class="st46" x1="394.5" y1="100.8" x2="376.3" y2="97.8"/>
			<line class="st46" x1="426.6" y1="141.2" x2="408.4" y2="137.3"/>
			<line class="st46" x1="410.9" y1="121.4" x2="392.6" y2="117.9"/>
			<line class="st46" x1="438.5" y1="156" x2="420.2" y2="151.9"/>
			<line class="st46" x1="161.2" y1="387.7" x2="161.1" y2="383.8"/>
			<line class="st46" x1="191.4" y1="409.3" x2="191.3" y2="405.3"/>
			<line class="st46" x1="133.8" y1="368.1" x2="133.7" y2="364.4"/>
			<line class="st46" x1="108.8" y1="350.2" x2="108.6" y2="346.6"/>
			<line class="st46" x1="85.9" y1="333.8" x2="85.7" y2="330.3"/>
			<line class="st46" x1="64.8" y1="318.7" x2="64.6" y2="315.4"/>
			<polyline class="st46" points="393.9,382.8 394.2,384.6 395.6,386.5 398.2,388.1 401.7,389.6 405.8,390.6 410.4,391.2 
				415.1,391.3 419.5,390.9 423.3,390 426.3,388.7 428.3,387.1 429,385.3 			"/>
			<polyline class="st46" points="193.5,457.2 198.4,458 203.7,458.1 209.1,457.6 214,456.4 218.1,454.7 221.3,452.6 223.2,450.2 
				223.8,447.7 			"/>
			<polyline class="st46" points="183.4,449.3 184,451.8 186,454 189.2,455.9 193.5,457.2 			"/>
			<polyline class="st46" points="41.2,339.1 43.2,340.2 46.2,341 49.8,341.4 53.8,341.5 58,341.2 60.4,340.8 			"/>
			<line class="st46" x1="40.2" y1="337.8" x2="41.2" y2="339.1"/>
			<line class="st46" x1="445.2" y1="162.4" x2="343" y2="34"/>
			<line class="st46" x1="13.5" y1="155.1" x2="13.8" y2="160.2"/>
			<line class="st46" x1="138.3" y1="2.3" x2="137.1" y2="3.6"/>
			<line class="st46" x1="22.6" y1="159" x2="23" y2="164.2"/>
			<line class="st46" x1="149.5" y1="3.1" x2="148.3" y2="4.5"/>
			<line class="st46" x1="4.3" y1="151.1" x2="4.7" y2="156.1"/>
			<line class="st46" x1="127" y1="1.4" x2="125.9" y2="2.8"/>
			<line class="st46" x1="149.6" y1="214.1" x2="149.8" y2="220.6"/>
			<line class="st46" x1="302.9" y1="14.3" x2="301.5" y2="16.1"/>
			<line class="st46" x1="182.3" y1="225.7" x2="182.6" y2="235.1"/>
			<line class="st46" x1="165.2" y1="220.8" x2="165.4" y2="227.5"/>
			<line class="st46" x1="321.5" y1="15.7" x2="320.1" y2="17.5"/>
			<line class="st46" x1="134.1" y1="207.3" x2="134.3" y2="213.7"/>
			<line class="st46" x1="284.4" y1="13" x2="283" y2="14.7"/>
			<line class="st46" x1="119.4" y1="201" x2="119.7" y2="207.2"/>
			<line class="st46" x1="266.8" y1="11.7" x2="265.4" y2="13.4"/>
			<line class="st46" x1="105.4" y1="194.9" x2="105.7" y2="201"/>
			<line class="st46" x1="250" y1="10.4" x2="248.6" y2="12.1"/>
			<line class="st46" x1="92.2" y1="189.2" x2="92.5" y2="195.1"/>
			<line class="st46" x1="234" y1="9.3" x2="232.7" y2="10.9"/>
			<line class="st46" x1="79.5" y1="183.7" x2="79.8" y2="189.5"/>
			<line class="st46" x1="218.7" y1="8.1" x2="217.4" y2="9.7"/>
			<line class="st46" x1="67.5" y1="178.5" x2="67.8" y2="184.2"/>
			<line class="st46" x1="204.1" y1="7.1" x2="202.8" y2="8.6"/>
			<line class="st46" x1="56" y1="173.5" x2="56.3" y2="179"/>
			<line class="st46" x1="190.1" y1="6.1" x2="188.9" y2="7.6"/>
			<line class="st46" x1="45" y1="168.7" x2="45.3" y2="174.2"/>
			<line class="st46" x1="176.8" y1="5.1" x2="175.6" y2="6.6"/>
			<line class="st46" x1="34.5" y1="164.2" x2="34.8" y2="169.5"/>
			<line class="st46" x1="164" y1="4.1" x2="162.8" y2="5.6"/>
			<line class="st46" x1="24.5" y1="159.8" x2="24.8" y2="165"/>
			<line class="st46" x1="151.7" y1="3.2" x2="150.5" y2="4.7"/>
			<line class="st46" x1="422.4" y1="337.3" x2="413.3" y2="339.9"/>
			<line class="st46" x1="189.4" y1="234" x2="213.2" y2="202.8"/>
			<line class="st46" x1="217.3" y1="214.6" x2="204.6" y2="231.4"/>
			<line class="st46" x1="445.1" y1="177.5" x2="453.9" y2="188.4"/>
			<line class="st46" x1="443.5" y1="165.5" x2="442.5" y2="190.3"/>
			<line class="st46" x1="345" y1="19.4" x2="345.5" y2="18.8"/>
			<line class="st46" x1="339.7" y1="19" x2="280" y2="97.1"/>
			<line class="st46" x1="280" y1="97.1" x2="217.4" y2="178.7"/>
			<line class="st46" x1="217.4" y1="178.7" x2="180.9" y2="226.5"/>
			<line class="st46" x1="455.5" y1="358.8" x2="189.8" y2="438.9"/>
			<polyline class="st46" points="189.8,439.9 189.8,438.9 19,308.4 			"/>
			<line class="st46" x1="416.9" y1="232.1" x2="426.2" y2="230.2"/>
			<line class="st46" x1="415" y1="289.6" x2="424.1" y2="287.4"/>
			<line class="st46" x1="198.5" y1="342.1" x2="42.9" y2="248.5"/>
			<line class="st46" x1="418" y1="172.9" x2="422.9" y2="172.2"/>
			<line class="st46" x1="418" y1="172.9" x2="418" y2="172.9"/>
			<line class="st46" x1="418" y1="173" x2="418" y2="172.9"/>
			<line class="st46" x1="219.9" y1="204.1" x2="423.2" y2="172.3"/>
			<line class="st46" x1="196.2" y1="237.4" x2="196" y2="232.8"/>
			<line class="st46" x1="276.3" y1="379" x2="276.4" y2="389.6"/>
			<polyline class="st46" points="277,223.4 209.5,235.2 209.5,237.1 			"/>
			<polyline class="st46" points="418.4,198.6 286.6,221.7 286.6,223.4 			"/>
			<line class="st46" x1="285.9" y1="221.5" x2="286.6" y2="221.7"/>
			<line class="st46" x1="208.8" y1="235" x2="209.5" y2="235.2"/>
			<line class="st46" x1="341.7" y1="37.2" x2="341.8" y2="34.1"/>
			<line class="st46" x1="238.1" y1="9.6" x2="234" y2="9.3"/>
			<line class="st46" x1="443.6" y1="162.7" x2="445.2" y2="162.4"/>
			<line class="st46" x1="217.6" y1="197" x2="219.8" y2="196.7"/>
			<line class="st46" x1="464.4" y1="186.6" x2="464.4" y2="186.5"/>
			<line class="st46" x1="469.4" y1="177.9" x2="470.4" y2="179.1"/>
			<line class="st46" x1="197" y1="276.2" x2="197.1" y2="282.2"/>
			<polyline class="st46" points="198.5,342.1 198.6,348 200.1,411.5 			"/>
			<line class="st46" x1="342" y1="17.2" x2="342" y2="17.2"/>
			<line class="st46" x1="301.1" y1="14.2" x2="284.4" y2="13"/>
			<line class="st46" x1="197.1" y1="282.2" x2="198.5" y2="342.1"/>
			<line class="st46" x1="196.1" y1="237.4" x2="197" y2="276.2"/>
			<line class="st46" x1="342" y1="17.2" x2="321.5" y2="15.7"/>
			<line class="st46" x1="232.5" y1="9.2" x2="218.7" y2="8.1"/>
			<line class="st46" x1="342" y1="17.2" x2="340.2" y2="19.6"/>
			<line class="st46" x1="319.6" y1="15.5" x2="302.9" y2="14.3"/>
			<line class="st46" x1="282.7" y1="12.8" x2="266.8" y2="11.7"/>
			<line class="st46" x1="217.3" y1="8" x2="204.1" y2="7.1"/>
			<line class="st46" x1="265.1" y1="11.6" x2="250" y2="10.4"/>
			<line class="st46" x1="248.4" y1="10.3" x2="238.1" y2="9.6"/>
			<line class="st46" x1="202.8" y1="7" x2="190.1" y2="6.1"/>
			<line class="st46" x1="188.9" y1="6" x2="176.8" y2="5.1"/>
			<line class="st46" x1="137.2" y1="2.2" x2="127" y2="1.4"/>
			<line class="st46" x1="175.6" y1="5" x2="164" y2="4.1"/>
			<line class="st46" x1="162.8" y1="4.1" x2="151.7" y2="3.2"/>
			<line class="st46" x1="148.3" y1="3" x2="138.3" y2="2.3"/>
			<line class="st46" x1="150.6" y1="3.2" x2="149.5" y2="3.1"/>
			<line class="st46" x1="209.7" y1="273.6" x2="197" y2="276.2"/>
			<line class="st46" x1="198.5" y1="342.1" x2="211" y2="339"/>
			<line class="st47" x1="302.9" y1="16.2" x2="302.9" y2="14.3"/>
			<line class="st47" x1="301.1" y1="14.2" x2="302.9" y2="14.3"/>
			<line class="st47" x1="341.8" y1="34.1" x2="342" y2="17.2"/>
			<line class="st47" x1="340" y1="17" x2="342" y2="17.2"/>
			<line class="st47" x1="321.5" y1="17.6" x2="321.5" y2="15.7"/>
			<line class="st47" x1="284.4" y1="14.8" x2="284.4" y2="13"/>
			<line class="st47" x1="282.7" y1="12.8" x2="284.4" y2="13"/>
			<line class="st47" x1="319.6" y1="15.5" x2="321.5" y2="15.7"/>
			<line class="st47" x1="266.8" y1="13.5" x2="266.8" y2="11.7"/>
			<line class="st47" x1="265.1" y1="11.6" x2="266.8" y2="11.7"/>
			<line class="st47" x1="250" y1="12.2" x2="250" y2="10.4"/>
			<line class="st47" x1="248.4" y1="10.3" x2="250" y2="10.4"/>
			<line class="st47" x1="234" y1="11" x2="234" y2="9.3"/>
			<line class="st47" x1="232.5" y1="9.2" x2="234" y2="9.3"/>
			<line class="st47" x1="218.7" y1="9.8" x2="218.7" y2="8.1"/>
			<line class="st47" x1="217.3" y1="8" x2="218.7" y2="8.1"/>
			<line class="st47" x1="204.1" y1="8.7" x2="204.1" y2="7.1"/>
			<line class="st47" x1="202.8" y1="7" x2="204.1" y2="7.1"/>
			<line class="st47" x1="190.2" y1="7.7" x2="190.1" y2="6.1"/>
			<line class="st47" x1="188.9" y1="6" x2="190.1" y2="6.1"/>
			<line class="st47" x1="138.3" y1="3.7" x2="138.3" y2="2.3"/>
			<line class="st47" x1="149.5" y1="4.5" x2="149.5" y2="3.1"/>
			<line class="st47" x1="148.3" y1="3" x2="149.5" y2="3.1"/>
			<line class="st47" x1="127.1" y1="2.9" x2="127" y2="1.4"/>
			<line class="st47" x1="176.8" y1="6.7" x2="176.8" y2="5.1"/>
			<line class="st47" x1="175.6" y1="5" x2="176.8" y2="5.1"/>
			<line class="st47" x1="164" y1="5.7" x2="164" y2="4.1"/>
			<line class="st47" x1="162.8" y1="4.1" x2="164" y2="4.1"/>
			<line class="st47" x1="151.7" y1="4.8" x2="151.7" y2="3.2"/>
			<line class="st47" x1="150.6" y1="3.2" x2="151.7" y2="3.2"/>
			<line class="st47" x1="137.2" y1="2.2" x2="138.3" y2="2.3"/>
			<line class="st47" x1="423.4" y1="157.9" x2="424.5" y2="157.7"/>
			<line class="st47" x1="443.3" y1="162" x2="445.2" y2="162.4"/>
			<line class="st47" x1="424.5" y1="157.7" x2="427.7" y2="157.2"/>
			<line class="st47" x1="434" y1="158.6" x2="433.7" y2="158.3"/>
			<line class="st47" x1="385.7" y1="96.8" x2="386.7" y2="95.5"/>
			<line class="st47" x1="201.7" y1="418.9" x2="207.9" y2="417.1"/>
			<line class="st47" x1="197.9" y1="416.2" x2="198" y2="416.2"/>
			<line class="st47" x1="201.6" y1="418.8" x2="201.7" y2="418.9"/>
			<line class="st47" x1="198" y1="416.2" x2="201.6" y2="418.8"/>
			<polyline class="st47" points="194.9,416.3 195.6,415.4 196.8,414.6 197.9,414.1 			"/>
			<polyline class="st47" points="207.8,413.7 208.2,413.8 209.6,414.4 210.6,415.2 			"/>
			<line class="st47" x1="211" y1="416.1" x2="210.6" y2="415.2"/>
			<line class="st47" x1="194.8" y1="417.2" x2="194.9" y2="416.3"/>
			<line class="st47" x1="412.3" y1="357.6" x2="416.9" y2="356.3"/>
			<line class="st47" x1="407.9" y1="355.6" x2="408" y2="355.6"/>
			<line class="st47" x1="412.1" y1="357.5" x2="412.3" y2="357.6"/>
			<line class="st47" x1="408" y1="355.6" x2="412.1" y2="357.5"/>
			<line class="st47" x1="419.5" y1="356.2" x2="419.2" y2="355.5"/>
			<polyline class="st47" points="405.3,355.6 405.6,355 406.3,354.3 407.4,353.8 408,353.7 			"/>
			<polyline class="st47" points="417,354.1 417.3,354.2 418.5,354.8 419.2,355.5 			"/>
			<line class="st47" x1="53" y1="311.9" x2="58.1" y2="310.9"/>
			<line class="st47" x1="50.7" y1="310.3" x2="50.8" y2="310.4"/>
			<line class="st47" x1="52.9" y1="311.9" x2="53" y2="311.9"/>
			<line class="st47" x1="50.8" y1="310.4" x2="52.9" y2="311.9"/>
			<polyline class="st47" points="48.4,310.4 49.1,309.9 50.2,309.4 50.7,309.3 			"/>
			<line class="st47" x1="48.1" y1="310.9" x2="48.4" y2="310.4"/>
			<line class="st47" x1="345.7" y1="39.7" x2="343" y2="36.2"/>
			<line class="st47" x1="363.9" y1="62.4" x2="360" y2="57.5"/>
			<line class="st47" x1="345.7" y1="60.1" x2="341.9" y2="55.3"/>
			<line class="st47" x1="341.6" y1="55" x2="343.1" y2="52.9"/>
			<line class="st47" x1="381.3" y1="84.3" x2="377.5" y2="79.6"/>
			<polyline class="st47" points="363.1,81.5 360.3,78.1 359.4,76.9 			"/>
			<line class="st47" x1="359.1" y1="76.6" x2="360.6" y2="74.6"/>
			<line class="st47" x1="398.1" y1="105.4" x2="394.5" y2="100.8"/>
			<line class="st47" x1="379.9" y1="102.2" x2="376.3" y2="97.8"/>
			<line class="st47" x1="376" y1="97.4" x2="377.5" y2="95.4"/>
			<line class="st47" x1="430" y1="145.4" x2="426.6" y2="141.2"/>
			<line class="st47" x1="411.7" y1="141.5" x2="408.4" y2="137.3"/>
			<line class="st47" x1="408.1" y1="137" x2="409.5" y2="135"/>
			<line class="st47" x1="414.4" y1="125.7" x2="410.9" y2="121.4"/>
			<line class="st47" x1="396.1" y1="122.2" x2="392.6" y2="117.9"/>
			<line class="st47" x1="392.3" y1="117.5" x2="393.7" y2="115.6"/>
			<line class="st47" x1="441.8" y1="160.1" x2="438.5" y2="156"/>
			<line class="st47" x1="423.4" y1="155.9" x2="420.2" y2="151.9"/>
			<line class="st47" x1="419.9" y1="151.5" x2="421.3" y2="149.6"/>
			<line class="st47" x1="422.9" y1="172.2" x2="422.9" y2="171.9"/>
			<line class="st47" x1="431.8" y1="152" x2="425.9" y2="144.5"/>
			<line class="st47" x1="213.2" y1="202.3" x2="213.2" y2="201"/>
			<line class="st47" x1="189.4" y1="234" x2="213.2" y2="202.8"/>
			<polyline class="st47" points="218,179.2 280.4,97.6 340.2,19.6 			"/>
			<line class="st47" x1="276.3" y1="389.6" x2="276.3" y2="379.1"/>
			<line class="st47" x1="199.9" y1="411.3" x2="200" y2="411.4"/>
			<line class="st47" x1="199.9" y1="411.3" x2="199.6" y2="399.7"/>
			<line class="st47" x1="195.1" y1="396.6" x2="195.1" y2="396.1"/>
			<line class="st47" x1="195.1" y1="396.6" x2="199.6" y2="399.7"/>
			<line class="st47" x1="43.2" y1="253" x2="198.6" y2="348"/>
			<line class="st47" x1="448.3" y1="165.9" x2="446.2" y2="166.2"/>
			<line class="st47" x1="447.9" y1="176.1" x2="445.8" y2="176.5"/>
			<line class="st47" x1="216.1" y1="201.9" x2="213.2" y2="202.3"/>
			<line class="st47" x1="216.3" y1="213.8" x2="216.1" y2="201.9"/>
			<line class="st47" x1="216.3" y1="213.8" x2="213.4" y2="214.2"/>
			<line class="st47" x1="126" y1="1.4" x2="127.1" y2="1.3"/>
			<polyline class="st47" points="343,37.2 341.7,37.2 339.5,37 			"/>
			<line class="st47" x1="423.3" y1="160.8" x2="443.5" y2="165.5"/>
			<line class="st47" x1="448.4" y1="164.8" x2="448.5" y2="162"/>
			<line class="st47" x1="213.2" y1="201" x2="213.1" y2="197.7"/>
			<line class="st47" x1="219.8" y1="196.7" x2="218.3" y2="196.1"/>
			<line class="st47" x1="219.9" y1="199.9" x2="219.8" y2="196.7"/>
			<line class="st47" x1="287.9" y1="223.2" x2="287.8" y2="375.8"/>
			<line class="st47" x1="286.6" y1="376.2" x2="286" y2="375.8"/>
			<line class="st47" x1="287.8" y1="375.8" x2="286.6" y2="376.2"/>
			<line class="st47" x1="417" y1="200.4" x2="412.2" y2="341.1"/>
			<line class="st47" x1="413.3" y1="340.8" x2="412.2" y2="341.1"/>
			<line class="st47" x1="276.6" y1="225.2" x2="277" y2="378.9"/>
			<line class="st47" x1="275.3" y1="225.4" x2="275.7" y2="379.2"/>
			<line class="st47" x1="211" y1="236.8" x2="214" y2="396.4"/>
			<line class="st47" x1="212.7" y1="396.8" x2="212.1" y2="396.4"/>
			<line class="st47" x1="214.1" y1="396.4" x2="212.7" y2="396.8"/>
			<line class="st47" x1="275.7" y1="379.2" x2="214" y2="396.4"/>
			<line class="st47" x1="352.7" y1="357.7" x2="287.8" y2="375.8"/>
			<line class="st47" x1="355.4" y1="211.3" x2="352.7" y2="357.7"/>
			<line class="st47" x1="412.2" y1="341.1" x2="352.7" y2="357.7"/>
			<line class="st47" x1="370.1" y1="74.8" x2="374.2" y2="75.4"/>
			<line class="st47" x1="352.9" y1="53.3" x2="357" y2="53.8"/>
			<line class="st47" x1="402.7" y1="115.5" x2="406.8" y2="116.3"/>
			<line class="st47" x1="418.1" y1="134.8" x2="422.3" y2="135.7"/>
			<line class="st47" x1="386.7" y1="95.5" x2="390.8" y2="96.2"/>
			<line class="st47" x1="198" y1="416.2" x2="197.9" y2="409.9"/>
			<line class="st47" x1="201.6" y1="418.8" x2="201.5" y2="411.1"/>
			<line class="st47" x1="408" y1="355.6" x2="408.1" y2="351.9"/>
			<line class="st47" x1="412.1" y1="357.5" x2="412.4" y2="350.7"/>
			<line class="st47" x1="50.8" y1="310.4" x2="50.5" y2="305.4"/>
			<line class="st47" x1="52.9" y1="311.9" x2="52.6" y2="306.9"/>
			<line class="st47" x1="423.4" y1="156.3" x2="424.5" y2="157.7"/>
			<line class="st47" x1="358.4" y1="182" x2="360.3" y2="78.1"/>
			<polyline class="st47" points="422.9,171.9 358.4,182 281.6,194 281.5,113.1 			"/>
			<line class="st47" x1="219.9" y1="203.7" x2="281.6" y2="194"/>
			<line class="st47" x1="152" y1="381.1" x2="151.8" y2="377.2"/>
			<line class="st47" x1="181.2" y1="402" x2="181.1" y2="398"/>
			<line class="st47" x1="125.4" y1="362" x2="125.2" y2="358.4"/>
			<line class="st47" x1="101.1" y1="344.7" x2="100.9" y2="341.1"/>
			<line class="st47" x1="78.8" y1="328.7" x2="78.6" y2="325.3"/>
			<polyline class="st47" points="393.2,407.2 393.5,409.2 394.9,411.1 397.4,412.9 400.9,414.4 405,415.4 409.6,416.1 414.2,416.2 
				418.6,415.7 422.4,414.8 425.4,413.4 427.3,411.8 428.1,409.9 			"/>
			<polyline class="st47" points="427.1,381.6 424.4,380 422.2,379.1 			"/>
			<polyline class="st47" points="401.1,378 399.9,378.3 396.9,379.5 394.9,381 393.9,382.8 			"/>
			<polyline class="st47" points="429,385.3 428.6,383.4 427.1,381.6 			"/>
			<line class="st47" x1="393.2" y1="407.2" x2="393.9" y2="382.8"/>
			<line class="st47" x1="428.1" y1="409.9" x2="429" y2="385.3"/>
			<polyline class="st47" points="184.2,477.1 184.8,479.7 186.8,482 190,484 194.2,485.4 199.1,486.2 204.4,486.3 209.6,485.8 
				214.5,484.5 218.7,482.8 221.8,480.5 223.7,478 224.2,475.4 			"/>
			<polyline class="st47" points="223.8,447.7 223,445.3 220.8,443.2 217.6,441.4 215.6,440.8 			"/>
			<polyline class="st47" points="191.3,441.8 189.5,442.5 186.2,444.5 184.2,446.9 183.4,449.3 			"/>
			<line class="st47" x1="224.2" y1="475.4" x2="223.8" y2="447.7"/>
			<line class="st47" x1="184.2" y1="477.1" x2="183.4" y2="449.3"/>
			<polyline class="st47" points="42.6,361.3 44.6,362.4 47.6,363.3 51.2,363.8 55.2,363.8 59.4,363.5 63.4,362.8 67,361.7 
				69.9,360.4 71.9,358.9 72.9,357.4 72.8,355.9 			"/>
			<line class="st47" x1="41.6" y1="359.9" x2="42.6" y2="361.3"/>
			<polyline class="st47" points="46.2,332.4 43.5,333.5 41.4,334.9 40.2,336.3 40.2,337.8 			"/>
			<line class="st47" x1="72.8" y1="355.9" x2="72.5" y2="350"/>
			<line class="st47" x1="41.6" y1="359.9" x2="40.2" y2="337.8"/>
			<line class="st47" x1="358.4" y1="182.4" x2="358.4" y2="182"/>
			<line class="st47" x1="445.2" y1="162.4" x2="448.5" y2="162"/>
			<line class="st47" x1="464.4" y1="186.5" x2="464.4" y2="186.6"/>
			<line class="st47" x1="469.1" y1="185.7" x2="464.4" y2="186.6"/>
			<line class="st47" x1="343.3" y1="17.1" x2="343" y2="34"/>
			<line class="st47" x1="410.2" y1="124.9" x2="418.1" y2="134.8"/>
			<line class="st47" x1="394" y1="104.7" x2="402.7" y2="115.5"/>
			<line class="st47" x1="369.3" y1="75.8" x2="370.1" y2="74.8"/>
			<line class="st47" x1="377.2" y1="83.7" x2="386.7" y2="95.5"/>
			<line class="st47" x1="352.3" y1="54" x2="352.9" y2="53.3"/>
			<line class="st47" x1="359.7" y1="61.9" x2="370.1" y2="74.8"/>
			<line class="st47" x1="341.6" y1="39.3" x2="352.9" y2="53.3"/>
			<line class="st47" x1="19.4" y1="159.6" x2="20.5" y2="158.1"/>
			<line class="st47" x1="13.8" y1="160.2" x2="19.4" y2="159.6"/>
			<line class="st47" x1="13.8" y1="160.2" x2="13" y2="159.8"/>
			<line class="st47" x1="137.2" y1="2.2" x2="136.1" y2="3.6"/>
			<line class="st47" x1="21.7" y1="158.6" x2="22" y2="163.8"/>
			<line class="st47" x1="23" y1="164.2" x2="23.8" y2="164.1"/>
			<line class="st47" x1="23" y1="164.2" x2="22" y2="163.8"/>
			<line class="st47" x1="148.3" y1="3" x2="147.2" y2="4.4"/>
			<line class="st47" x1="3.5" y1="150.7" x2="3.8" y2="155.7"/>
			<line class="st47" x1="4.7" y1="156.1" x2="10.1" y2="155.5"/>
			<line class="st47" x1="4.7" y1="156.1" x2="3.8" y2="155.7"/>
			<line class="st47" x1="126" y1="1.4" x2="124.9" y2="2.7"/>
			<line class="st47" x1="126" y1="1.4" x2="127" y2="1.4"/>
			<line class="st47" x1="148.1" y1="213.4" x2="148.3" y2="219.9"/>
			<polyline class="st47" points="149.8,220.6 156.4,219.5 157.9,217.6 			"/>
			<line class="st47" x1="149.8" y1="220.6" x2="148.3" y2="219.9"/>
			<line class="st47" x1="301.1" y1="14.2" x2="299.7" y2="16"/>
			<line class="st47" x1="180.7" y1="227.6" x2="180.9" y2="234.4"/>
			<line class="st47" x1="182.6" y1="235.1" x2="189.4" y2="234"/>
			<line class="st47" x1="182.6" y1="235.1" x2="180.9" y2="234.4"/>
			<line class="st47" x1="217.6" y1="197" x2="213.1" y2="197.7"/>
			<line class="st47" x1="340" y1="17" x2="338.6" y2="18.9"/>
			<line class="st47" x1="163.6" y1="220.1" x2="163.8" y2="226.8"/>
			<line class="st47" x1="172.1" y1="226.4" x2="173.6" y2="224.4"/>
			<line class="st47" x1="165.4" y1="227.5" x2="172.1" y2="226.4"/>
			<line class="st47" x1="165.4" y1="227.5" x2="163.8" y2="226.8"/>
			<line class="st47" x1="319.6" y1="15.5" x2="318.2" y2="17.4"/>
			<line class="st47" x1="132.7" y1="206.7" x2="132.9" y2="213.1"/>
			<polyline class="st47" points="134.3,213.7 140.8,212.7 142.3,210.9 			"/>
			<line class="st47" x1="134.3" y1="213.7" x2="132.9" y2="213.1"/>
			<line class="st47" x1="282.7" y1="12.8" x2="281.3" y2="14.6"/>
			<line class="st47" x1="118.1" y1="200.4" x2="118.3" y2="206.6"/>
			<polyline class="st47" points="119.7,207.2 126.1,206.2 127.5,204.5 			"/>
			<line class="st47" x1="119.7" y1="207.2" x2="118.3" y2="206.6"/>
			<line class="st47" x1="265.1" y1="11.6" x2="263.8" y2="13.3"/>
			<line class="st47" x1="104.2" y1="194.4" x2="104.5" y2="200.4"/>
			<polyline class="st47" points="105.7,201 112,200.1 113.4,198.4 			"/>
			<line class="st47" x1="105.7" y1="201" x2="104.5" y2="200.4"/>
			<line class="st47" x1="248.4" y1="10.3" x2="247.1" y2="12"/>
			<line class="st47" x1="91" y1="188.7" x2="91.3" y2="194.6"/>
			<polyline class="st47" points="92.5,195.1 98.7,194.2 100,192.6 			"/>
			<line class="st47" x1="92.5" y1="195.1" x2="91.3" y2="194.6"/>
			<line class="st47" x1="232.5" y1="9.2" x2="231.2" y2="10.8"/>
			<line class="st47" x1="78.4" y1="183.2" x2="78.7" y2="189"/>
			<polyline class="st47" points="79.8,189.5 85.9,188.7 87.2,187 			"/>
			<line class="st47" x1="79.8" y1="189.5" x2="78.7" y2="189"/>
			<line class="st47" x1="217.3" y1="8" x2="216" y2="9.6"/>
			<line class="st47" x1="66.4" y1="178" x2="66.7" y2="183.7"/>
			<polyline class="st47" points="67.8,184.2 73.8,183.4 75.1,181.8 			"/>
			<line class="st47" x1="67.8" y1="184.2" x2="66.7" y2="183.7"/>
			<line class="st47" x1="202.8" y1="7" x2="201.5" y2="8.5"/>
			<line class="st47" x1="54.9" y1="173" x2="55.3" y2="178.6"/>
			<polyline class="st47" points="56.3,179 62.2,178.3 63.5,176.7 			"/>
			<line class="st47" x1="56.3" y1="179" x2="55.3" y2="178.6"/>
			<line class="st47" x1="188.9" y1="6" x2="187.6" y2="7.5"/>
			<line class="st47" x1="44" y1="168.3" x2="44.3" y2="173.7"/>
			<polyline class="st47" points="45.3,174.2 51.1,173.5 52.4,171.9 			"/>
			<line class="st47" x1="45.3" y1="174.2" x2="44.3" y2="173.7"/>
			<line class="st47" x1="175.6" y1="5" x2="174.4" y2="6.5"/>
			<line class="st47" x1="33.5" y1="163.8" x2="33.9" y2="169.1"/>
			<line class="st47" x1="40.5" y1="168.8" x2="41.8" y2="167.3"/>
			<line class="st47" x1="34.8" y1="169.5" x2="33.9" y2="169.1"/>
			<line class="st47" x1="162.8" y1="4.1" x2="161.6" y2="5.5"/>
			<polyline class="st47" points="24.8,165 30.4,164.4 31.6,162.9 			"/>
			<line class="st47" x1="24.8" y1="165" x2="23.9" y2="164.6"/>
			<line class="st47" x1="422.3" y1="337.3" x2="422.4" y2="337.3"/>
			<line class="st47" x1="212.4" y1="407.9" x2="276.3" y2="389.6"/>
			<polyline class="st47" points="216.1,201.9 216.1,200.5 213.2,201 			"/>
			<polyline class="st47" points="12.7,155.2 10.1,155.5 11.2,154.1 			"/>
			<line class="st47" x1="217.5" y1="229.1" x2="204.6" y2="231.4"/>
			<polyline class="st47" points="217.2,213.6 217.3,214.6 217.5,229.1 			"/>
			<line class="st47" x1="217" y1="200.4" x2="219.9" y2="199.9"/>
			<line class="st47" x1="217.5" y1="229.1" x2="220.4" y2="228.6"/>
			<polyline class="st47" points="217,200.4 217.2,213.6 216.3,213.8 			"/>
			<line class="st47" x1="216.1" y1="200.5" x2="217" y2="200.4"/>
			<line class="st47" x1="444.6" y1="190" x2="453.9" y2="188.4"/>
			<line class="st47" x1="445.1" y1="176.6" x2="445.1" y2="177.5"/>
			<line class="st47" x1="445.6" y1="165.2" x2="443.5" y2="165.5"/>
			<line class="st47" x1="444.6" y1="190" x2="442.5" y2="190.3"/>
			<polyline class="st47" points="445.6,165.2 445.1,176.6 445.8,176.5 			"/>
			<line class="st47" x1="446.3" y1="165.1" x2="445.6" y2="165.2"/>
			<line class="st47" x1="448.3" y1="165.9" x2="448.4" y2="164.8"/>
			<line class="st47" x1="446.3" y1="165.1" x2="446.2" y2="166.2"/>
			<line class="st47" x1="448.4" y1="164.8" x2="446.3" y2="165.1"/>
			<line class="st47" x1="445.4" y1="147.2" x2="445.8" y2="146.7"/>
			<line class="st47" x1="398.4" y1="86.2" x2="445.8" y2="146.7"/>
			<line class="st47" x1="397.9" y1="86.8" x2="445.4" y2="147.3"/>
			<line class="st47" x1="397.9" y1="86.8" x2="398.4" y2="86.2"/>
			<line class="st47" x1="445.8" y1="146.7" x2="470.4" y2="178.2"/>
			<line class="st47" x1="470.4" y1="179.1" x2="469.4" y2="178.9"/>
			<polyline class="st47" points="344.5,18.7 345.5,18.8 398.4,86.2 			"/>
			<line class="st47" x1="345" y1="19.4" x2="397.9" y2="86.8"/>
			<line class="st47" x1="280" y1="97.1" x2="177.8" y2="77.5"/>
			<line class="st47" x1="280.4" y1="97.6" x2="280" y2="97.1"/>
			<line class="st47" x1="177.8" y1="77.5" x2="231.2" y2="10.8"/>
			<line class="st47" x1="340.2" y1="19.6" x2="339.7" y2="19"/>
			<polyline class="st47" points="177.8,77.5 101.2,62.9 149.3,4.6 			"/>
			<line class="st47" x1="217.4" y1="178.7" x2="122.4" y2="146.9"/>
			<line class="st47" x1="218" y1="179.2" x2="217.4" y2="178.7"/>
			<line class="st47" x1="122.4" y1="146.9" x2="177.8" y2="77.5"/>
			<polyline class="st47" points="122.4,146.9 51.5,123.2 101.2,62.9 			"/>
			<line class="st47" x1="122.4" y1="146.9" x2="90.1" y2="187.3"/>
			<line class="st47" x1="22.7" y1="158.2" x2="51.5" y2="123.2"/>
			<polyline class="st47" points="101.2,62.9 77.8,58.4 124.2,2.7 			"/>
			<polyline class="st47" points="51.5,123.2 29.9,116 77.8,58.4 			"/>
			<line class="st47" x1="2.2" y1="149.4" x2="29.9" y2="116"/>
			<line class="st47" x1="455.5" y1="359.6" x2="455.6" y2="358.8"/>
			<line class="st47" x1="19.1" y1="309.1" x2="19" y2="308.4"/>
			<line class="st47" x1="422.2" y1="343.9" x2="455.5" y2="358.8"/>
			<line class="st47" x1="19" y1="308.4" x2="46.9" y2="302.8"/>
			<line class="st47" x1="414.8" y1="294.7" x2="423.9" y2="292.5"/>
			<line class="st47" x1="416.8" y1="237.4" x2="426" y2="235.5"/>
			<line class="st47" x1="40" y1="202.3" x2="197.1" y2="282.2"/>
			<line class="st47" x1="196.1" y1="237.4" x2="196.2" y2="237.4"/>
			<line class="st47" x1="428" y1="186.5" x2="427.7" y2="196.8"/>
			<line class="st47" x1="196.1" y1="237.4" x2="196" y2="232.8"/>
			<line class="st47" x1="276.4" y1="389.6" x2="286" y2="386.9"/>
			<line class="st47" x1="276.3" y1="389.6" x2="276.4" y2="389.6"/>
			<line class="st47" x1="277" y1="225.1" x2="277" y2="223.4"/>
			<line class="st47" x1="418.4" y1="200.2" x2="418.4" y2="198.6"/>
			<line class="st47" x1="423" y1="197.7" x2="422.9" y2="200.5"/>
			<line class="st47" x1="418" y1="201.4" x2="422.9" y2="200.5"/>
			<line class="st47" x1="448.3" y1="166.3" x2="448.3" y2="166.3"/>
			<line class="st47" x1="213.2" y1="202.8" x2="213.2" y2="202.8"/>
			<polyline class="st47" points="209.8,279.6 209.7,273.6 209,236.8 			"/>
			<polyline class="st47" points="212.1,396.4 211.1,344.9 211,339 			"/>
			<line class="st47" x1="343" y1="36.2" x2="343" y2="37.2"/>
			<polyline class="st47" points="442.1,160.5 434,158.6 427.7,157.2 			"/>
			<line class="st47" x1="276.3" y1="379.1" x2="275.7" y2="379.2"/>
			<polyline class="st47" points="207.9,417.1 207.8,413.7 207.7,409.3 			"/>
			<polyline class="st47" points="197.9,416.2 197.9,414.1 197.8,409.8 			"/>
			<polyline class="st47" points="416.9,356.3 417,354.1 417.1,349.3 			"/>
			<polyline class="st47" points="407.9,355.6 408,353.7 408,351.9 			"/>
			<polyline class="st47" points="50.7,310.3 50.7,309.3 50.4,305.3 			"/>
			<polyline class="st47" points="345.7,39.7 341.6,39.3 338.1,38.9 			"/>
			<polyline class="st47" points="363.9,62.4 359.7,61.9 345.7,60.1 			"/>
			<polyline class="st47" points="357.7,54.7 352.3,54 343.1,52.9 			"/>
			<polyline class="st47" points="381.3,84.3 377.2,83.7 363.1,81.5 			"/>
			<polyline class="st47" points="375.2,76.7 369.3,75.8 360.6,74.6 			"/>
			<polyline class="st47" points="398.1,105.4 394,104.7 379.9,102.2 			"/>
			<polyline class="st47" points="392.1,97.9 385.7,96.8 377.5,95.4 			"/>
			<polyline class="st47" points="430,145.4 425.9,144.5 411.7,141.5 			"/>
			<polyline class="st47" points="424.2,138.1 416.9,136.6 409.5,135 			"/>
			<polyline class="st47" points="414.4,125.7 410.2,124.9 396.1,122.2 			"/>
			<polyline class="st47" points="408.5,118.3 401.5,117 393.7,115.6 			"/>
			<polyline class="st47" points="441.8,160.1 433.7,158.3 423.4,155.9 			"/>
			<polyline class="st47" points="436,152.9 431.8,152 421.3,149.6 			"/>
			<line class="st47" x1="333.5" y1="44.9" x2="341.6" y2="55"/>
			<line class="st47" x1="58.3" y1="314" x2="58.1" y2="312"/>
			<polyline class="st47" points="191.3,439.5 191.3,441.8 191.5,449 			"/>
			<polyline class="st47" points="215.4,432.2 215.6,440.8 215.7,448.1 			"/>
			<line class="st47" x1="19.1" y1="309.1" x2="46" y2="329.8"/>
			<line class="st47" x1="189.8" y1="439.9" x2="191.3" y2="439.5"/>
			<polyline class="st47" points="422.6,369.6 422.2,379.1 422,384.8 			"/>
			<polyline class="st47" points="401.2,376.1 401.1,378 400.9,383.3 			"/>
			<polyline class="st47" points="46,329.8 46.2,332.4 46.5,337 			"/>
			<polyline class="st47" points="469.4,177.9 469.4,178.9 469.1,185.7 			"/>
			<line class="st47" x1="448.3" y1="165.9" x2="448.3" y2="166.3"/>
			<line class="st47" x1="464.4" y1="186.5" x2="448.3" y2="166.3"/>
			<polyline class="st47" points="12.6,154.7 12.7,155.2 13,159.8 			"/>
			<line class="st47" x1="10.1" y1="155.5" x2="10.1" y2="155.5"/>
			<line class="st47" x1="189.4" y1="234" x2="189.4" y2="234"/>
			<line class="st47" x1="217.6" y1="197" x2="218.3" y2="196.1"/>
			<line class="st47" x1="218" y1="179.2" x2="182.3" y2="225.7"/>
			<polyline class="st47" points="34.8,169.5 37.9,169.1 40.5,168.8 			"/>
			<polyline class="st47" points="23.5,159.4 23.8,164.1 23.9,164.6 			"/>
			<polyline class="st47" points="150.6,3.2 149.5,4.5 149.4,4.6 			"/>
			<polyline class="st47" points="422,347.9 422.2,343.9 422.4,337.3 			"/>
			<line class="st47" x1="286" y1="386.8" x2="408" y2="351.9"/>
			<line class="st47" x1="189.4" y1="234" x2="189.4" y2="234"/>
			<line class="st47" x1="219.9" y1="199.9" x2="219.9" y2="203.7"/>
			<polyline class="st47" points="453.9,188.4 464.4,186.5 464.4,186.5 			"/>
			<polyline class="st47" points="442.5,190.3 428,186.5 422.7,185.1 			"/>
			<line class="st47" x1="445.4" y1="147.2" x2="469.4" y2="177.9"/>
			<line class="st47" x1="218.7" y1="9.8" x2="231.2" y2="10.8"/>
			<line class="st47" x1="182.3" y1="225.7" x2="180.9" y2="227.6"/>
			<line class="st47" x1="423.9" y1="292.5" x2="424.1" y2="287.4"/>
			<line class="st47" x1="42.9" y1="248.5" x2="43.2" y2="253"/>
			<line class="st47" x1="422.3" y1="337.3" x2="423.9" y2="292.5"/>
			<line class="st47" x1="46.3" y1="302.4" x2="46.9" y2="302.8"/>
			<line class="st47" x1="43.2" y1="253" x2="46.3" y2="302.4"/>
			<polyline class="st47" points="426,235.5 426.2,230.2 427.4,196.9 			"/>
			<polyline class="st47" points="37.9,169.1 39.7,197.7 40,202.3 			"/>
			<line class="st47" x1="427.7" y1="196.8" x2="427.4" y2="196.9"/>
			<polyline class="st47" points="285.9,221.7 285.8,221.7 276.7,223.3 			"/>
			<polyline class="st47" points="208.8,235.2 208.7,235.2 196.2,237.4 			"/>
			<line class="st47" x1="209.5" y1="237.1" x2="209.6" y2="237"/>
			<line class="st47" x1="286.6" y1="223.4" x2="286.7" y2="223.4"/>
			<polyline class="st47" points="285.8,223.1 286,223.2 286.6,223.4 			"/>
			<polyline class="st47" points="418.4,198.6 418.1,198.5 417.6,198.4 			"/>
			<polyline class="st47" points="276.2,223.1 276.7,223.3 277,223.4 			"/>
			<polyline class="st47" points="208.8,236.7 209,236.8 209.5,237.1 			"/>
			<line class="st47" x1="211" y1="339" x2="209.8" y2="279.7"/>
			<line class="st47" x1="343" y1="34" x2="343" y2="36.2"/>
			<polyline class="st47" points="413.3,339.8 413.3,339.9 413.3,340.8 			"/>
			<polyline class="st47" points="277,378.9 276.3,379 276.3,379.1 			"/>
			<line class="st47" x1="341.6" y1="55" x2="341.9" y2="55.3"/>
			<polyline class="st47" points="58.1,312 58.1,310.9 58.1,310.7 			"/>
			<line class="st47" x1="46" y1="329.8" x2="46.6" y2="330.2"/>
			<line class="st47" x1="191.3" y1="439.5" x2="191.6" y2="439.4"/>
			<line class="st47" x1="343.3" y1="17.1" x2="344.5" y2="18.7"/>
			<line class="st47" x1="218.3" y1="196.1" x2="281.5" y2="113.1"/>
			<line class="st47" x1="408" y1="351.9" x2="408.1" y2="351.9"/>
			<line class="st47" x1="196" y1="232.8" x2="189.4" y2="234"/>
			<line class="st47" x1="219.9" y1="203.7" x2="219.9" y2="204"/>
			<line class="st47" x1="90.2" y1="188.3" x2="87.2" y2="187"/>
			<line class="st47" x1="180.9" y1="227.6" x2="180.7" y2="227.6"/>
			<line class="st47" x1="148.3" y1="4.5" x2="149.3" y2="4.6"/>
			<polyline class="st47" points="20.5,158.1 13.5,155.1 12.6,154.7 			"/>
			<line class="st47" x1="424.1" y1="287.4" x2="426" y2="235.5"/>
			<line class="st47" x1="40" y1="202.3" x2="42.9" y2="248.5"/>
			<line class="st47" x1="46.9" y1="302.8" x2="50.4" y2="305.3"/>
			<polyline class="st47" points="201.5,411.1 201.6,411 207.7,409.3 212.4,407.9 			"/>
			<polyline class="st47" points="427.4,196.9 423,197.7 418.1,198.5 			"/>
			<polyline class="st47" points="219.9,204 358.4,182.4 418,173 418,173 			"/>
			<polyline class="st47" points="286,386.9 286,386.8 286,375.8 			"/>
			<line class="st47" x1="209.6" y1="237" x2="211" y2="236.8"/>
			<line class="st47" x1="286.7" y1="223.4" x2="287.9" y2="223.2"/>
			<polyline class="st47" points="213.2,202.8 213.2,202.6 213.2,202.3 			"/>
			<polyline class="st47" points="418,200.2 418,201.4 416.9,232.1 			"/>
			<line class="st47" x1="414.8" y1="294.7" x2="413.3" y2="339.8"/>
			<line class="st47" x1="392.3" y1="117.5" x2="392.6" y2="117.9"/>
			<line class="st47" x1="46.6" y1="330.2" x2="47.9" y2="331.2"/>
			<line class="st47" x1="191.6" y1="439.4" x2="192.8" y2="439"/>
			<line class="st47" x1="344.5" y1="18.7" x2="345" y2="19.4"/>
			<line class="st47" x1="339.5" y1="37" x2="341.8" y2="34.1"/>
			<polyline class="st47" points="204.6,231.4 196,232.8 196,232.8 			"/>
			<polyline class="st47" points="219.9,204 220,204.1 220.4,228.6 			"/>
			<line class="st47" x1="284.4" y1="14.8" x2="299.7" y2="16"/>
			<line class="st47" x1="302.9" y1="16.2" x2="318.2" y2="17.4"/>
			<polyline class="st47" points="321.5,17.6 338.6,18.9 339.7,19 			"/>
			<polyline class="st47" points="204.1,8.7 216,9.6 217.4,9.7 218.7,9.8 			"/>
			<polyline class="st47" points="87.2,187 79.5,183.7 78.4,183.2 75.1,181.8 			"/>
			<polyline class="st47" points="134.1,207.3 132.7,206.7 127.5,204.5 			"/>
			<line class="st47" x1="124.2" y1="2.7" x2="124.9" y2="2.7"/>
			<line class="st47" x1="127.1" y1="2.9" x2="136.1" y2="3.6"/>
			<polyline class="st47" points="138.3,3.7 147.2,4.4 148.3,4.5 			"/>
			<line class="st47" x1="21.7" y1="158.6" x2="20.5" y2="158.1"/>
			<line class="st47" x1="3.5" y1="150.7" x2="2.2" y2="150.2"/>
			<line class="st47" x1="50.4" y1="305.3" x2="50.5" y2="305.4"/>
			<polyline class="st47" points="212.1,396.4 212.4,407.9 212.4,407.9 			"/>
			<polyline class="st47" points="418,173 422.9,172.3 423.1,172.2 			"/>
			<line class="st47" x1="211" y1="236.8" x2="275.3" y2="225.4"/>
			<line class="st47" x1="287.9" y1="223.2" x2="355.4" y2="211.3"/>
			<line class="st47" x1="415" y1="289.6" x2="414.8" y2="294.7"/>
			<line class="st47" x1="379.9" y1="102.2" x2="392.3" y2="117.5"/>
			<polyline class="st47" points="396.1,122.2 408.1,137 408.4,137.3 			"/>
			<polyline class="st47" points="411.7,141.5 419.9,151.5 420.2,151.9 			"/>
			<line class="st47" x1="359.1" y1="76.6" x2="359.4" y2="76.9"/>
			<line class="st47" x1="47.9" y1="331.2" x2="49.7" y2="332.6"/>
			<line class="st47" x1="192.8" y1="439" x2="194.7" y2="438.4"/>
			<line class="st47" x1="357" y1="53.8" x2="345.7" y2="39.7"/>
			<line class="st47" x1="338.1" y1="38.9" x2="339.5" y2="37"/>
			<polyline class="st47" points="408.1,351.9 412.4,350.7 412.5,350.6 417.1,349.3 422,347.9 			"/>
			<polyline class="st47" points="266.8,13.5 281.3,14.6 283,14.7 284.4,14.8 			"/>
			<polyline class="st47" points="299.7,16 301.5,16.1 302.9,16.2 			"/>
			<polyline class="st47" points="318.2,17.4 320.1,17.5 321.5,17.6 			"/>
			<polyline class="st47" points="75.1,181.8 67.5,178.5 66.4,178 63.5,176.7 			"/>
			<line class="st47" x1="54.9" y1="173" x2="52.4" y2="171.9"/>
			<polyline class="st47" points="180.7,227.6 173.6,224.4 165.2,220.8 163.6,220.1 			"/>
			<polyline class="st47" points="148.1,213.4 142.3,210.9 134.1,207.3 			"/>
			<line class="st47" x1="127.5" y1="204.5" x2="119.4" y2="201"/>
			<polyline class="st47" points="124.9,2.7 125.9,2.8 127.1,2.9 			"/>
			<polyline class="st47" points="136.1,3.6 137.1,3.6 138.3,3.7 			"/>
			<polyline class="st47" points="22.7,159.1 22.6,159 21.7,158.6 			"/>
			<line class="st47" x1="12.6" y1="154.7" x2="11.2" y2="154.1"/>
			<polyline class="st47" points="275.3,225.4 276.6,225.2 277,225.1 			"/>
			<line class="st47" x1="355.4" y1="211.3" x2="417" y2="200.4"/>
			<polyline class="st47" points="416.9,232.1 416.8,237.4 415,289.6 			"/>
			<line class="st47" x1="345.7" y1="60.1" x2="359.1" y2="76.6"/>
			<line class="st47" x1="49.7" y1="332.6" x2="52" y2="334.3"/>
			<line class="st47" x1="194.7" y1="438.4" x2="197.2" y2="437.7"/>
			<line class="st47" x1="374.2" y1="75.4" x2="363.9" y2="62.4"/>
			<polyline class="st47" points="360,57.5 357.7,54.7 357,53.8 			"/>
			<polyline class="st47" points="281.5,113.1 333.5,44.9 338.1,38.9 			"/>
			<polyline class="st47" points="190.2,7.7 201.5,8.5 202.8,8.6 204.1,8.7 			"/>
			<polyline class="st47" points="63.5,176.7 56,173.5 54.9,173 			"/>
			<line class="st47" x1="149.6" y1="214.1" x2="148.1" y2="213.4"/>
			<line class="st47" x1="119.4" y1="201" x2="118.1" y2="200.4"/>
			<polyline class="st47" points="11.2,154.1 4.3,151.1 3.5,150.7 			"/>
			<polyline class="st47" points="50.5,305.4 52.6,306.9 52.7,306.9 			"/>
			<polyline class="st47" points="417,200.4 418,200.2 418.4,200.2 			"/>
			<line class="st47" x1="423.3" y1="158" x2="423.4" y2="157.9"/>
			<line class="st47" x1="376" y1="97.4" x2="376.3" y2="97.8"/>
			<line class="st47" x1="52" y1="334.3" x2="54.5" y2="336.3"/>
			<line class="st47" x1="197.2" y1="437.7" x2="200.1" y2="436.8"/>
			<polyline class="st47" points="408.5,118.3 406.8,116.3 398.1,105.4 			"/>
			<line class="st47" x1="394.5" y1="100.8" x2="392.1" y2="97.9"/>
			<polyline class="st47" points="377.5,79.6 375.2,76.7 374.2,75.4 			"/>
			<polyline class="st47" points="250,12.2 263.8,13.3 265.4,13.4 266.8,13.5 			"/>
			<polyline class="st47" points="52.4,171.9 45,168.7 44,168.3 41.8,167.3 			"/>
			<polyline class="st47" points="163.6,220.1 157.9,217.6 149.6,214.1 			"/>
			<line class="st47" x1="118.1" y1="200.4" x2="113.4" y2="198.4"/>
			<polyline class="st47" points="52.6,306.9 58.1,310.7 64.6,315.4 			"/>
			<line class="st47" x1="423.4" y1="157.9" x2="423.4" y2="156.3"/>
			<line class="st47" x1="363.1" y1="81.5" x2="376" y2="97.4"/>
			<line class="st47" x1="54.5" y1="336.3" x2="57.1" y2="338.3"/>
			<line class="st47" x1="200.1" y1="436.8" x2="203.3" y2="435.8"/>
			<line class="st47" x1="422.3" y1="135.7" x2="414.4" y2="125.7"/>
			<line class="st47" x1="410.9" y1="121.4" x2="408.5" y2="118.3"/>
			<polyline class="st47" points="392.1,97.9 390.8,96.2 381.3,84.3 			"/>
			<polyline class="st47" points="176.8,6.7 187.6,7.5 188.9,7.6 190.2,7.7 			"/>
			<line class="st47" x1="41.8" y1="167.3" x2="34.5" y2="164.2"/>
			<polyline class="st47" points="64.6,315.4 68.3,318 78.6,325.3 85.7,330.3 			"/>
			<polyline class="st47" points="423.4,156.3 423.4,155.9 423.4,155.9 			"/>
			<line class="st47" x1="203.3" y1="435.8" x2="206.4" y2="434.9"/>
			<polyline class="st47" points="247.1,12 248.6,12.1 250,12.2 			"/>
			<line class="st47" x1="34.5" y1="164.2" x2="33.5" y2="163.8"/>
			<polyline class="st47" points="113.4,198.4 105.4,194.9 104.2,194.4 			"/>
			<line class="st47" x1="91" y1="188.7" x2="90.2" y2="188.3"/>
			<line class="st47" x1="57.1" y1="338.3" x2="58" y2="338.9"/>
			<line class="st47" x1="66" y1="345.1" x2="69.1" y2="347.5"/>
			<line class="st47" x1="206.4" y1="434.9" x2="209.4" y2="434"/>
			<polyline class="st47" points="443.3,162 442.1,160.5 441.8,160.1 			"/>
			<line class="st47" x1="424.2" y1="138.1" x2="422.3" y2="135.7"/>
			<line class="st47" x1="231.2" y1="10.8" x2="231.2" y2="10.8"/>
			<polyline class="st47" points="234,11 238.2,11.3 247.1,12 			"/>
			<line class="st47" x1="149.3" y1="4.6" x2="149.4" y2="4.6"/>
			<polyline class="st47" points="174.4,6.5 175.6,6.6 176.8,6.7 			"/>
			<line class="st47" x1="33.5" y1="163.8" x2="31.6" y2="162.9"/>
			<line class="st47" x1="92.2" y1="189.2" x2="91" y2="188.6"/>
			<polyline class="st47" points="85.7,330.3 89.5,333 100.9,341.1 108.6,346.6 			"/>
			<line class="st47" x1="62.2" y1="342.1" x2="66" y2="345.1"/>
			<line class="st47" x1="69.1" y1="347.5" x2="71.3" y2="349.1"/>
			<line class="st47" x1="209.4" y1="434" x2="211.9" y2="433.2"/>
			<line class="st47" x1="426.6" y1="141.2" x2="424.2" y2="138.1"/>
			<polyline class="st47" points="231.2,10.8 232.7,10.9 234,11 			"/>
			<line class="st47" x1="164" y1="5.7" x2="174.4" y2="6.5"/>
			<line class="st47" x1="31.6" y1="162.9" x2="24.5" y2="159.8"/>
			<polyline class="st47" points="104.2,194.4 100,192.6 92.2,189.2 			"/>
			<polyline class="st47" points="58,338.9 60.4,340.8 62.2,342.1 			"/>
			<line class="st47" x1="71.3" y1="349.1" x2="72.5" y2="350"/>
			<line class="st47" x1="211.9" y1="433.2" x2="213.8" y2="432.7"/>
			<polyline class="st47" points="24.5,159.8 23.5,159.4 22.7,159.1 			"/>
			<polyline class="st47" points="108.6,346.6 112.5,349.3 125.2,358.4 133.7,364.4 			"/>
			<polyline class="st47" points="72.5,350 72.5,350 189.8,439.9 			"/>
			<line class="st47" x1="213.8" y1="432.7" x2="215" y2="432.3"/>
			<polyline class="st47" points="151.7,4.8 161.6,5.5 162.8,5.6 164,5.7 			"/>
			<line class="st47" x1="215" y1="432.3" x2="215.4" y2="432.2"/>
			<polyline class="st47" points="438.5,156 436,152.9 430,145.4 			"/>
			<polyline class="st47" points="149.4,4.6 150.5,4.7 151.7,4.8 			"/>
			<polyline class="st47" points="133.7,364.4 137.6,367.1 151.8,377.2 161.1,383.8 			"/>
			<polyline class="st47" points="215.4,432.2 401.2,376.1 401.4,376 			"/>
			<polyline class="st47" points="161.1,383.8 165.2,386.7 181.1,398 191.3,405.3 			"/>
			<polyline class="st47" points="403.9,375.2 406,374.6 408.6,373.8 			"/>
			<line class="st47" x1="191.3" y1="405.3" x2="195.5" y2="408.2"/>
			<polyline class="st47" points="401.4,376 402.3,375.7 403.9,375.2 			"/>
			<line class="st47" x1="408.6" y1="373.8" x2="411.4" y2="373"/>
			<line class="st47" x1="195.5" y1="408.2" x2="197.8" y2="409.8"/>
			<line class="st47" x1="411.4" y1="373" x2="414.2" y2="372.1"/>
			<line class="st47" x1="197.8" y1="409.8" x2="197.9" y2="409.9"/>
			<line class="st47" x1="414.2" y1="372.1" x2="416.8" y2="371.3"/>
			<line class="st47" x1="200" y1="411.4" x2="200.1" y2="411.5"/>
			<line class="st47" x1="422.6" y1="369.6" x2="455.5" y2="359.6"/>
			<line class="st47" x1="197.9" y1="409.9" x2="199.9" y2="411.3"/>
			<line class="st47" x1="422.1" y1="369.7" x2="422.6" y2="369.6"/>
			<line class="st47" x1="420.9" y1="370.1" x2="422.1" y2="369.7"/>
			<polyline class="st47" points="416.8,371.3 419.1,370.6 420.9,370.1 			"/>
			<line class="st47" x1="448.3" y1="166.3" x2="447.9" y2="176.1"/>
			<line class="st47" x1="446.2" y1="166.2" x2="445.8" y2="176.5"/>
			<line class="st47" x1="213.2" y1="202.8" x2="213.4" y2="214.2"/>
			<line class="st47" x1="423.3" y1="160.8" x2="423.3" y2="158"/>
			<line class="st47" x1="286" y1="375.8" x2="286" y2="223.2"/>
			<line class="st47" x1="401.5" y1="117" x2="402.7" y2="115.5"/>
			<line class="st47" x1="416.9" y1="136.6" x2="418.1" y2="134.8"/>
			<line class="st47" x1="423.3" y1="160.8" x2="422.9" y2="171.9"/>
			<line class="st47" x1="445.1" y1="177.5" x2="444.6" y2="190"/>
			<line class="st47" x1="211.1" y1="344.9" x2="198.6" y2="348"/>
			<line class="st47" x1="239.3" y1="9.5" x2="343.3" y2="17.1"/>
			<line class="st47" x1="127.1" y1="1.3" x2="239.3" y2="9.5"/>
			<line class="st47" x1="200.1" y1="411.5" x2="201.5" y2="411.1"/>
			<line class="st47" x1="197.1" y1="282.2" x2="209.8" y2="279.6"/>
		</g>
	</g>
</g>
</svg>
