<?xml version="1.0" encoding="utf-8"?>
<!-- Generator: Adobe Illustrator 20.1.0, SVG Export Plug-In . SVG Version: 6.00 Build 0)  -->
<svg version="1.1" id="Layer_27" xmlns="http://www.w3.org/2000/svg" xmlns:xlink="http://www.w3.org/1999/xlink" x="0px" y="0px"
	 viewBox="0 0 473.1 487.2" style="enable-background:new 0 0 473.1 487.2;" xml:space="preserve">
<style type="text/css">
	.st0{fill:#D1A46E;}
	.st1{fill:#F7C283;}
	.st2{fill:#D4A670;}
	.st3{fill:#9F7C52;}
	.st4{fill:#DFC093;}
	.st5{fill:#99774F;}
	.st6{fill:#272727;}
	.st7{fill:#363636;}
	.st8{fill:#414141;}
	.st9{fill:#686868;}
	.st10{fill:#8A8A8B;}
	.st11{fill:#2C2C2C;}
	.st12{fill:#222222;}
	.st13{fill:#A4A4A5;}
	.st14{fill:#897659;}
	.st15{fill:#543404;}
	.st16{fill:#6A4109;}
	.st17{fill:#87550D;}
	.st18{fill:#9F6512;}
	.st19{fill:#B17115;}
	.st20{fill:#BD7918;}
	.st21{fill:#C27C19;}
	.st22{fill:#BF7B18;}
	.st23{fill:#B67416;}
	.st24{fill:#A66A14;}
	.st25{fill:#915B0F;}
	.st26{fill:#75490A;}
	.st27{fill:#6F4508;}
	.st28{fill:#7D4621;}
	.st29{fill:#9F592B;}
	.st30{fill:#A75E2E;}
	.st31{fill:#A45C2E;}
	.st32{fill:#915127;}
	.st33{fill:#A95F2F;}
	.st34{fill:#653718;}
	.st35{fill:#8A4D25;}
	.st36{fill:#75411E;}
	.st37{fill:#5B3115;}
	.st38{fill:#49260E;}
	.st39{fill:#777777;}
	.st40{fill:#997D21;}
	.st41{fill:#8C8D8D;}
	.st42{fill:#BBBBBC;}
	.st43{fill:#9E9E9E;}
	.st44{fill:#BFA47D;}
	.st45{fill:#BDA27C;}
	.st46{fill:#242424;}
	.st47{fill:none;stroke:#000000;stroke-width:0.5;stroke-linecap:round;stroke-linejoin:round;stroke-miterlimit:10;}
	.st48{fill:none;stroke:#000000;stroke-linecap:round;stroke-linejoin:round;stroke-miterlimit:10;}
</style>
<g>
	<g>
		<g>
			<polygon class="st0" points="302.9,16.3 302.9,14.5 319.6,15.7 318.3,17.5 			"/>
			<polygon class="st1" points="302.9,14.5 302.9,16.3 301.6,16.2 			"/>
			<polygon class="st2" points="302.9,14.5 301.6,16.2 299.8,16.1 301.1,14.4 			"/>
			<polygon class="st3" points="302.9,14.5 301.1,14.4 284.4,13.2 282.7,13 266.8,11.9 265.1,11.8 250,10.6 248.4,10.5 238.1,9.8 
				239.3,9.7 343.3,17.3 342,17.4 321.5,15.9 319.6,15.7 			"/>
			<polygon class="st2" points="282.7,13 284.4,13.2 283.1,14.8 281.4,14.7 			"/>
			<polygon class="st2" points="319.6,15.7 321.5,15.9 320.1,17.6 318.3,17.5 			"/>
			<polygon class="st2" points="265.1,11.8 266.8,11.9 265.5,13.5 263.9,13.4 			"/>
			<polygon class="st2" points="248.4,10.5 250,10.6 248.7,12.2 247.2,12.1 			"/>
			<polygon class="st1" points="342,17.4 343.3,17.3 343,34.2 343,36.4 343,37.4 341.7,37.4 341.8,34.3 			"/>
			<polygon class="st1" points="342,17.4 341.8,34.3 339.5,37.2 338.1,39.1 333.5,45.1 281.5,113.3 218.3,196.3 217.6,197.2 
				213.1,197.9 213.2,201.2 213.2,202.5 213.2,202.8 213.2,203 189.4,234.2 189.4,234.2 189.4,234.2 182.6,235.3 182.3,225.9 
				218,179.4 280.4,97.8 340.2,19.8 			"/>
			<polygon class="st4" points="213.2,202.5 213.2,201.2 216.1,200.7 216.1,202.1 			"/>
			<polygon class="st4" points="280.4,97.8 218,179.4 217.4,178.9 226.6,166.9 229.2,163.5 270.9,109.1 273.4,105.8 280,97.3 			"/>
			<polygon class="st4" points="340.2,19.8 280.4,97.8 280,97.3 313.8,53.1 316.3,49.9 339.7,19.2 			"/>
			<polygon class="st1" points="213.2,202.5 216.1,202.1 216.3,214 213.4,214.4 213.2,203 213.2,203 213.2,202.8 			"/>
			<polygon class="st4" points="216.3,214 216.1,202.1 216.1,200.7 217,200.6 217.2,213.8 			"/>
			<polygon class="st1" points="213.4,214.4 216.3,214 217.2,213.8 217.3,214.8 204.6,231.6 196,233 196,233 189.4,234.2 213.2,203 
							"/>
			<polygon class="st5" points="341.7,37.4 343,37.4 343,36.4 345.7,39.9 341.6,39.5 338.1,39.1 339.5,37.2 			"/>
			<polygon class="st5" points="345.7,39.9 343,36.4 343,34.2 445.2,162.6 443.3,162.2 442.1,160.7 441.8,160.3 438.5,156.2 
				436,153.1 430,145.6 426.6,141.4 424.2,138.3 422.3,135.9 414.4,125.9 410.9,121.6 408.5,118.5 406.8,116.5 398.1,105.6 
				394.5,101 392.1,98.1 390.8,96.4 381.3,84.5 377.5,79.8 375.2,76.9 374.2,75.6 363.9,62.6 360,57.7 357.7,54.9 357,54 			"/>
			<polygon class="st3" points="443.3,162.2 445.2,162.6 443.6,162.9 423.3,158.2 423.4,158.1 424.5,157.9 427.7,157.4 434,158.8 
				442.1,160.7 			"/>
			<polygon class="st1" points="424.5,157.9 423.4,158.1 423.4,156.5 			"/>
			<polygon class="st1" points="427.7,157.4 424.5,157.9 423.4,156.5 423.4,156.1 433.7,158.5 434,158.8 			"/>
			<polygon class="st5" points="434,158.8 433.7,158.5 441.8,160.3 442.1,160.7 			"/>
			<polygon class="st5" points="360,57.7 363.9,62.6 359.7,62.1 345.7,60.3 341.9,55.5 			"/>
			<polygon class="st4" points="341.9,55.5 345.7,60.3 359.1,76.8 359.4,77.1 360.3,78.3 358.4,182.2 281.6,194.2 281.5,113.3 
				333.5,45.1 341.6,55.2 			"/>
			<polygon class="st5" points="377.5,79.8 381.3,84.5 377.2,83.9 363.1,81.7 360.3,78.3 359.4,77.1 			"/>
			<polygon class="st4" points="360.3,78.3 363.1,81.7 376,97.6 376.3,98 379.9,102.4 392.3,117.7 392.6,118.1 396.1,122.4 
				408.1,137.2 408.4,137.5 411.7,141.7 419.9,151.7 420.2,152.1 423.4,156.1 423.4,156.1 423.4,156.5 423.4,158.1 423.3,158.2 
				423.2,161 422.9,172.1 358.4,182.2 			"/>
			<polygon class="st5" points="394.5,101 398.1,105.6 394,104.9 379.9,102.4 376.3,98 			"/>
			<polygon class="st5" points="426.6,141.4 430,145.6 425.9,144.7 411.7,141.7 408.4,137.5 			"/>
			<polygon class="st5" points="410.9,121.6 414.4,125.9 410.2,125.1 396.1,122.4 392.6,118.1 			"/>
			<polygon class="st5" points="438.5,156.2 441.8,160.3 433.7,158.5 423.4,156.1 423.4,156.1 420.2,152.1 			"/>
			<polygon class="st0" points="341.7,37.4 339.5,37.2 341.8,34.3 			"/>
			<polygon class="st3" points="239.3,9.7 238.1,9.8 234,9.5 232.5,9.4 218.7,8.4 217.3,8.2 204.1,7.3 202.8,7.2 190.1,6.3 
				188.9,6.2 176.8,5.3 175.6,5.2 164,4.3 162.8,4.3 151.7,3.4 150.6,3.4 149.5,3.3 148.3,3.2 138.3,2.5 137.2,2.4 127,1.6 126,1.6 
				127.1,1.5 			"/>
			<polygon class="st2" points="232.5,9.4 234,9.5 232.7,11 231.3,10.9 			"/>
			<polygon class="st2" points="217.3,8.2 218.7,8.3 217.5,9.9 216.1,9.8 			"/>
			<polygon class="st2" points="202.8,7.2 204.1,7.3 202.9,8.8 201.6,8.7 			"/>
			<polygon class="st2" points="188.9,6.2 190.1,6.3 189,7.7 187.7,7.6 			"/>
			<polygon class="st2" points="148.3,3.2 149.5,3.3 148.3,4.6 147.2,4.5 			"/>
			<polygon class="st2" points="175.6,5.2 176.8,5.3 175.6,6.7 174.4,6.6 			"/>
			<polygon class="st2" points="162.8,4.3 164,4.3 162.8,5.7 161.7,5.6 			"/>
			<polygon class="st2" points="150.6,3.4 151.7,3.4 150.6,4.8 149.5,4.7 149.5,4.7 			"/>
			<polygon class="st2" points="137.2,2.4 138.3,2.5 137.2,3.8 136.1,3.7 			"/>
			<polygon class="st0" points="423.3,158.2 443.6,162.9 443.5,165.7 423.3,161 			"/>
			<polygon class="st0" points="423.3,161 443.5,165.7 442.5,190.5 428,186.7 422.7,185.3 423.2,172.5 423.1,172.4 422.9,172.5 
				422.9,172.4 422.9,172.4 422.9,172.1 			"/>
			<polygon class="st4" points="422.9,172.1 422.9,172.4 418,173.1 418,173.2 358.4,182.6 358.4,182.2 			"/>
			<polygon class="st6" points="418,173.1 418,173.1 422.9,172.4 422.9,172.4 			"/>
			<polygon class="st7" points="418,173.2 418,173.2 418,173.1 418,173.1 			"/>
			<polygon class="st6" points="423.1,172.4 423.2,172.5 219.9,204.3 219.9,204.2 358.4,182.6 418,173.2 418,173.2 422.9,172.5 			
				"/>
			<polygon class="st8" points="423.2,172.5 422.7,185.3 428,186.7 427.7,197 427.4,197.1 423,197.9 418.1,198.7 417.6,198.6 
				285.9,221.7 285.9,221.9 285.8,221.9 276.7,223.5 276.2,223.3 208.8,235.2 208.8,235.4 208.7,235.4 196.2,237.6 196,233 
				204.6,231.6 217.5,229.3 220.4,228.8 219.9,204.3 			"/>
			<polygon class="st8" points="418,173.1 418,173.2 422.9,172.5 422.9,172.4 			"/>
			<polygon class="st9" points="285.9,221.7 417.6,198.6 418.1,198.7 418.4,198.8 286.6,221.9 			"/>
			<polygon class="st10" points="285.9,221.9 285.8,221.9 285.8,223.3 286,223.4 286.6,223.6 286.6,221.9 285.9,221.7 			"/>
			<polygon class="st9" points="208.8,235.2 276.2,223.3 276.7,223.5 277,223.6 209.5,235.4 			"/>
			<polygon class="st10" points="208.8,235.4 208.7,235.4 208.8,236.9 209,237 209.5,237.3 209.5,235.4 208.8,235.2 			"/>
			<polygon class="st8" points="208.7,235.4 208.8,236.9 209,237 209.7,273.8 197,276.4 196.1,237.6 196.2,237.6 			"/>
			<polygon class="st8" points="285.8,221.9 285.8,223.3 286,223.4 286,376 286,387 286,387.1 276.4,389.8 276.3,379.2 277,379.1 
				276.6,225.4 277,225.3 277,223.6 276.7,223.5 			"/>
			<polygon class="st1" points="443.5,165.7 443.6,162.9 445.2,162.6 448.5,162.2 448.4,165 446.3,165.3 445.6,165.4 			"/>
			<polygon class="st1" points="448.4,165 448.5,162.2 445.2,162.6 343,34.2 343.3,17.3 344.4,18.8 344.5,18.9 345,19.6 397.9,87 
				445.4,147.5 469.4,178.1 469.4,179.1 469.1,185.9 464.4,186.8 464.4,186.7 448.3,166.5 448.3,166.5 448.3,166.1 			"/>
			<polygon class="st1" points="213.2,201.2 213.1,197.9 217.6,197.2 219.8,196.9 219.9,200.1 217,200.6 216.1,200.7 			"/>
			<polygon class="st4" points="219.9,200.1 219.8,196.9 218.3,196.3 281.5,113.3 281.6,194.2 219.9,203.9 			"/>
			<polygon class="st3" points="217.6,197.2 219.8,196.9 218.3,196.3 			"/>
			<polygon class="st11" points="276.6,225.4 277,379.1 276.3,379.2 276.3,379.3 275.7,379.4 275.3,225.6 			"/>
			<polygon class="st4" points="275.3,225.6 275.7,379.4 214.1,396.6 211,237 			"/>
			<polygon class="st11" points="211,237 214,396.6 212.7,397 209.6,237.2 			"/>
			<polygon class="st12" points="209.6,237.2 212.7,397 212.1,396.6 211.1,345.1 211,339.2 209.8,279.8 209.7,273.8 209,237 
				209.5,237.3 			"/>
			<polygon class="st13" points="212.1,396.6 212.7,397 214.1,396.6 275.7,379.4 276.3,379.3 276.3,389.8 212.4,408.1 			"/>
			<polygon class="st7" points="276.3,379.3 276.3,389.8 276.4,389.8 276.3,379.2 			"/>
			<polygon class="st2" points="360,57.7 341.9,55.5 341.6,55.2 343.1,53.1 352.3,54.2 357.7,54.9 			"/>
			<polygon class="st1" points="343.1,53.1 341.6,55.2 333.5,45.1 338.1,39.1 341.6,39.5 352.9,53.5 352.3,54.2 			"/>
			<polygon class="st2" points="377.5,79.8 359.4,77.1 359.1,76.8 360.6,74.8 369.3,76 375.2,76.9 			"/>
			<polygon class="st1" points="360.6,74.8 359.1,76.8 345.7,60.3 359.7,62.1 370.1,75 369.3,76 			"/>
			<polygon class="st2" points="394.5,101 376.3,98 376,97.6 377.5,95.6 385.7,97 392.1,98.1 			"/>
			<polygon class="st1" points="377.5,95.6 376,97.6 363.1,81.7 377.2,83.9 386.7,95.7 385.7,97 			"/>
			<polygon class="st2" points="385.7,97 386.7,95.7 390.8,96.4 392.1,98.1 			"/>
			<polygon class="st14" points="390.8,96.4 386.7,95.7 377.2,83.9 381.3,84.5 			"/>
			<polygon class="st2" points="426.6,141.4 408.4,137.5 408.1,137.2 409.5,135.2 416.9,136.8 424.2,138.3 			"/>
			<polygon class="st1" points="409.5,135.2 408.1,137.2 396.1,122.4 410.2,125.1 418.1,135 416.9,136.8 			"/>
			<polygon class="st2" points="410.9,121.6 392.6,118.1 392.3,117.7 393.7,115.8 401.5,117.2 408.5,118.5 			"/>
			<polygon class="st1" points="393.7,115.8 392.3,117.7 379.9,102.4 394,104.9 402.7,115.7 401.5,117.2 			"/>
			<polygon class="st2" points="438.5,156.2 420.2,152.1 419.9,151.7 421.3,149.8 431.8,152.2 436,153.1 			"/>
			<polygon class="st1" points="421.3,149.8 419.9,151.7 411.7,141.7 425.9,144.7 431.8,152.2 			"/>
			<polygon class="st14" points="431.8,152.2 425.9,144.7 430,145.6 436,153.1 			"/>
			<polygon class="st4" points="281.6,194.2 358.4,182.2 358.4,182.6 219.9,204.2 219.9,203.9 			"/>
			<polygon class="st15" points="393.2,407.4 393.5,409.4 394.2,384.8 393.9,383 			"/>
			<polygon class="st16" points="394.9,411.3 393.5,409.4 394.2,384.8 395.6,386.7 			"/>
			<polygon class="st17" points="397.4,413.1 394.9,411.3 395.7,386.7 398.2,388.3 			"/>
			<polygon class="st18" points="400.9,414.6 397.4,413.1 398.2,388.3 401.7,389.8 			"/>
			<polygon class="st19" points="405,415.6 400.9,414.6 401.7,389.8 405.8,390.8 			"/>
			<polygon class="st20" points="409.6,416.3 405,415.6 405.8,390.8 410.4,391.4 			"/>
			<polygon class="st21" points="414.2,416.4 409.6,416.3 410.4,391.4 415.1,391.5 			"/>
			<polygon class="st22" points="418.6,415.9 414.2,416.4 415.1,391.5 419.5,391.1 			"/>
			<polygon class="st23" points="422.4,415 418.6,415.9 419.5,391.1 423.3,390.2 			"/>
			<polygon class="st24" points="425.4,413.6 422.4,415 423.3,390.2 426.3,388.9 			"/>
			<polygon class="st25" points="427.3,412 425.4,413.6 426.3,388.9 428.3,387.3 			"/>
			<polygon class="st26" points="428.1,410.1 427.3,412 428.3,387.3 429,385.5 			"/>
			<polygon class="st27" points="424.4,380.2 427.1,381.8 428.6,383.6 429,385.5 428.3,387.3 426.3,388.9 423.3,390.2 419.5,391.1 
				415.1,391.5 410.4,391.4 405.8,390.8 401.7,389.8 398.2,388.3 395.6,386.7 394.2,384.8 393.9,383 394.9,381.2 396.9,379.7 
				399.9,378.5 401.1,378.2 400.9,383.5 401.1,384.6 402,385.7 403.5,386.7 405.6,387.5 408.1,388.1 410.8,388.5 413.6,388.5 
				416.2,388.3 418.5,387.8 420.3,387 421.5,386.1 422,385 422.2,379.3 			"/>
			<polygon class="st28" points="421.5,386.1 420.3,387 420.9,370.3 422.1,369.9 			"/>
			<polygon class="st29" points="418.5,387.8 416.2,388.3 416.8,371.5 419.1,370.8 			"/>
			<polygon class="st30" points="416.2,388.3 413.6,388.5 414.2,372.3 416.8,371.5 			"/>
			<polygon class="st31" points="410.8,388.5 408.1,388.1 408.6,374 411.4,373.2 			"/>
			<polygon class="st32" points="420.3,387 418.5,387.8 419.1,370.8 420.9,370.3 			"/>
			<polygon class="st16" points="402,385.7 401.1,384.6 401.4,376.2 402.3,375.9 			"/>
			<polygon class="st17" points="403.5,386.7 402,385.7 402.3,375.9 403.9,375.4 			"/>
			<polygon class="st33" points="413.6,388.5 410.8,388.5 411.4,373.2 414.2,372.3 			"/>
			<polygon class="st34" points="422,385 421.5,386.1 422.1,369.9 422.6,369.8 422.2,379.3 			"/>
			<polygon class="st15" points="401.2,376.3 401.1,378.2 400.9,383.5 401.1,384.6 401.4,376.2 			"/>
			<polygon class="st19" points="408.1,388.1 405.6,387.5 406,374.8 408.6,374 			"/>
			<polygon class="st18" points="405.6,387.5 403.5,386.7 403.9,375.4 406,374.8 			"/>
			<polygon class="st16" points="184.8,479.9 184.2,477.3 183.4,449.5 184,452 			"/>
			<polygon class="st17" points="186.8,482.2 184.8,479.9 184,452 186,454.2 			"/>
			<polygon class="st18" points="190,484.2 186.8,482.2 186,454.2 189.2,456.1 			"/>
			<polygon class="st19" points="194.2,485.6 190,484.2 189.2,456.1 193.5,457.4 			"/>
			<polygon class="st20" points="199.1,486.4 194.2,485.6 193.5,457.4 198.4,458.2 			"/>
			<polygon class="st21" points="204.4,486.5 199.1,486.4 198.4,458.2 203.7,458.3 			"/>
			<polygon class="st22" points="209.6,486 204.4,486.5 203.7,458.3 209.1,457.8 			"/>
			<polygon class="st23" points="214.5,484.7 209.6,486 209,457.8 214,456.6 			"/>
			<polygon class="st24" points="218.7,483 214.5,484.7 214,456.6 218.1,454.9 			"/>
			<polygon class="st25" points="221.8,480.7 218.7,483 218.1,454.9 221.3,452.8 			"/>
			<polygon class="st26" points="223.7,478.2 221.8,480.7 221.3,452.8 223.2,450.4 			"/>
			<polygon class="st15" points="224.2,475.6 223.7,478.2 223.2,450.4 223.8,447.9 			"/>
			<polygon class="st27" points="198.4,458.2 193.5,457.4 189.2,456.1 186,454.2 184,452 183.4,449.5 184.2,447.1 186.2,444.7 
				189.5,442.7 191.3,442 191.5,449.2 191.9,450.7 193.1,452 195,453.1 197.6,453.9 200.5,454.4 203.7,454.5 206.9,454.1 
				209.8,453.4 212.3,452.4 214.2,451.2 215.4,449.7 215.7,448.3 215.6,441 217.6,441.6 220.8,443.4 223,445.5 223.8,447.9 
				223.2,450.4 221.3,452.8 218.1,454.9 214,456.6 209,457.8 203.7,458.3 			"/>
			<polygon class="st30" points="206.9,454.1 203.7,454.5 203.3,436 206.4,435.1 			"/>
			<polygon class="st33" points="203.7,454.5 200.5,454.4 200.1,437 203.3,436 			"/>
			<polygon class="st31" points="200.5,454.4 197.6,453.9 197.2,437.9 200.1,437 			"/>
			<polygon class="st29" points="209.8,453.4 206.9,454.1 206.4,435.1 209.4,434.2 			"/>
			<polygon class="st19" points="197.6,453.9 195,453.1 194.7,438.6 197.2,437.9 			"/>
			<polygon class="st24" points="212.3,452.4 209.8,453.4 209.4,434.2 211.9,433.4 			"/>
			<polygon class="st35" points="195,453.1 193.1,452 192.8,439.2 194.7,438.6 			"/>
			<polygon class="st25" points="214.2,451.2 212.3,452.4 211.9,433.4 213.8,432.9 			"/>
			<polygon class="st36" points="193.1,452 191.9,450.7 191.6,439.6 192.8,439.2 			"/>
			<polygon class="st34" points="215.4,449.7 214.2,451.2 213.8,432.9 215,432.5 			"/>
			<polygon class="st37" points="191.3,439.7 191.3,442 191.5,449.2 191.9,450.7 191.6,439.6 			"/>
			<polygon class="st38" points="215,432.5 215.4,449.7 215.7,448.3 215.6,441 215.4,432.4 			"/>
			<polygon class="st18" points="44.6,362.6 42.6,361.5 41.2,339.3 43.2,340.4 			"/>
			<polygon class="st19" points="47.6,363.5 44.6,362.6 43.2,340.4 46.2,341.2 			"/>
			<polygon class="st20" points="51.2,364 47.6,363.5 46.2,341.2 49.8,341.6 			"/>
			<polygon class="st21" points="55.2,364 51.2,364 49.8,341.6 53.8,341.7 			"/>
			<polygon class="st22" points="59.4,363.7 55.2,364 53.8,341.7 58,341.4 			"/>
			<polygon class="st23" points="63.4,363 59.4,363.7 58,341.4 60.4,341 62.2,342.3 			"/>
			<polygon class="st24" points="67,361.9 63.4,363 62.2,342.3 66,345.3 			"/>
			<polygon class="st25" points="69.9,360.6 67,361.9 66,345.3 69.1,347.6 			"/>
			<polygon class="st26" points="71.9,359.1 69.9,360.6 69.1,347.7 71.3,349.3 			"/>
			<polygon class="st15" points="72.9,357.6 71.9,359.1 71.3,349.3 72.5,350.2 			"/>
			<polygon class="st16" points="72.9,357.6 72.8,356.1 72.5,350.2 72.5,350.2 			"/>
			<polygon class="st17" points="42.6,361.5 41.6,360.1 40.2,338 41.2,339.3 			"/>
			<polygon class="st27" points="43.2,340.4 41.2,339.3 40.2,338 40.2,336.5 41.4,335.1 43.5,333.7 46.2,332.6 46.5,337.2 47.1,338 
				48.4,338.6 50.1,339.1 52.3,339.4 54.7,339.4 57.2,339.2 58,339.1 60.4,341 58,341.4 53.8,341.7 49.8,341.6 46.2,341.2 			"/>
			<polygon class="st18" points="48.4,338.6 47.1,338 46.6,330.4 47.9,331.4 			"/>
			<polygon class="st19" points="50.1,339.1 48.4,338.6 47.9,331.4 49.7,332.8 			"/>
			<polygon class="st21" points="54.7,339.4 52.3,339.4 52,334.5 54.5,336.5 			"/>
			<polygon class="st36" points="47.1,338 46.5,337.2 46.2,332.6 46,330 46.6,330.4 			"/>
			<polygon class="st20" points="52.3,339.4 50.1,339.1 49.7,332.8 52,334.5 			"/>
			<polygon class="st22" points="57.2,339.2 54.7,339.4 54.5,336.5 57.1,338.5 			"/>
			<polygon class="st23" points="57.2,339.2 58,339.1 57.1,338.5 			"/>
			<polygon class="st14" points="418.1,135 410.2,125.1 414.4,125.9 422.3,135.9 			"/>
			<polygon class="st2" points="418.1,135 422.3,135.9 424.2,138.3 416.9,136.8 			"/>
			<polygon class="st14" points="402.7,115.7 394,104.9 398.1,105.6 406.8,116.5 			"/>
			<polygon class="st2" points="402.7,115.7 406.8,116.5 408.5,118.5 401.5,117.2 			"/>
			<polygon class="st2" points="369.3,76 370.1,75 374.2,75.6 375.2,76.9 			"/>
			<polygon class="st14" points="374.2,75.6 370.1,75 359.7,62.1 363.9,62.6 			"/>
			<polygon class="st2" points="352.3,54.2 352.9,53.5 357,54 357.7,54.9 			"/>
			<polygon class="st14" points="357,54 352.9,53.5 341.6,39.5 345.7,39.9 			"/>
			<polygon class="st1" points="20.5,158.3 19.4,159.8 13.8,160.4 13.5,155.3 			"/>
			<polygon class="st0" points="13.5,155.3 13.8,160.4 13,160 12.7,155.4 12.6,154.9 			"/>
			<polygon class="st0" points="137.2,2.4 136.1,3.7 127.1,3 127,1.6 			"/>
			<polygon class="st1" points="127,1.6 127.1,3 126,2.9 			"/>
			<polygon class="st1" points="137.2,3.8 138.3,2.5 138.3,3.9 			"/>
			<polygon class="st0" points="138.3,3.9 138.3,2.5 148.3,3.2 147.2,4.5 			"/>
			<polygon class="st0" points="22,164 21.7,158.8 22.6,159.2 23,164.4 			"/>
			<polygon class="st1" points="23.8,164.3 23,164.4 22.6,159.2 22.7,159.3 23.5,159.6 			"/>
			<polygon class="st1" points="148.3,4.6 149.5,3.3 149.5,4.7 149.5,4.7 			"/>
			<polygon class="st0" points="149.5,4.7 149.5,3.3 150.6,3.4 			"/>
			<polygon class="st0" points="3.8,155.9 3.5,150.9 4.3,151.3 4.7,156.3 			"/>
			<polygon class="st1" points="10.1,155.7 4.7,156.3 4.3,151.3 11.2,154.3 			"/>
			<polygon class="st2" points="124.9,2.9 126,1.6 127,1.6 126,2.9 			"/>
			<polygon class="st0" points="301.1,14.4 299.8,16.1 284.4,14.9 284.4,13.2 			"/>
			<polygon class="st1" points="284.4,13.2 284.4,14.9 283.1,14.8 			"/>
			<polygon class="st7" points="182.6,235.3 189.4,234.2 189.4,234.2 196,233 196.1,237.6 197,276.4 39.7,197.9 37.9,169.3 
				40.5,169 41.8,167.5 44,168.5 44.3,173.9 45.3,174.4 51.1,173.7 52.4,172.1 54.9,173.2 55.3,178.8 56.3,179.2 62.2,178.5 
				63.5,176.9 66.4,178.2 66.7,183.9 67.8,184.4 73.8,183.6 75.1,182 78.4,183.4 78.7,189.2 79.8,189.7 85.9,188.9 87.2,187.2 
				90.2,188.5 91,188.8 91.3,194.8 92.5,195.3 98.7,194.4 100,192.8 104.2,194.6 104.5,200.6 105.7,201.2 112,200.3 113.4,198.6 
				118.1,200.6 118.3,206.8 119.7,207.4 126.1,206.4 127.5,204.7 132.7,206.9 132.9,213.3 134.3,213.9 140.8,212.9 142.3,211.1 
				148.1,213.6 148.3,220.1 149.8,220.8 156.4,219.7 157.9,217.8 163.6,220.3 163.8,227 165.4,227.7 172.1,226.6 173.6,224.6 
				180.7,227.8 180.9,234.6 			"/>
			<polygon class="st7" points="39.7,197.9 197,276.4 197.1,282.4 40,202.5 			"/>
			<polygon class="st0" points="148.3,220.1 148.1,213.6 149.6,214.3 149.8,220.8 			"/>
			<polygon class="st1" points="156.4,219.7 149.8,220.8 149.6,214.3 157.9,217.8 			"/>
			<polygon class="st0" points="180.9,234.6 180.7,227.8 180.9,227.8 182.3,225.9 182.6,235.3 			"/>
			<polygon class="st0" points="163.8,227 163.6,220.3 165.2,221 165.4,227.7 			"/>
			<polygon class="st1" points="165.4,227.7 165.2,221 173.6,224.6 172.1,226.6 			"/>
			<polygon class="st1" points="320.1,17.6 321.5,15.9 321.5,17.7 			"/>
			<polygon class="st0" points="321.5,17.7 321.5,15.9 342,17.4 342,17.4 340,17.2 338.7,19 			"/>
			<polygon class="st2" points="340,17.2 342,17.4 340.2,19.8 339.7,19.2 339.7,19.1 338.7,19 			"/>
			<polygon class="st0" points="132.9,213.3 132.7,206.9 134.1,207.5 134.3,213.9 			"/>
			<polygon class="st1" points="140.8,212.9 134.3,213.9 134.1,207.5 142.3,211.1 			"/>
			<polygon class="st0" points="282.7,13 281.4,14.7 266.8,13.6 266.8,11.9 			"/>
			<polygon class="st1" points="266.8,11.9 266.8,13.6 265.5,13.5 			"/>
			<polygon class="st0" points="118.3,206.8 118.1,200.6 119.4,201.2 119.7,207.4 			"/>
			<polygon class="st1" points="126.1,206.4 119.7,207.4 119.4,201.2 127.5,204.7 			"/>
			<polygon class="st0" points="265.1,11.8 263.9,13.4 250,12.3 250,10.6 			"/>
			<polygon class="st1" points="250,10.6 250,12.3 248.7,12.2 			"/>
			<polygon class="st0" points="104.5,200.6 104.2,194.6 105.4,195.1 105.7,201.2 			"/>
			<polygon class="st1" points="112,200.3 105.7,201.2 105.4,195.1 113.4,198.6 			"/>
			<polygon class="st0" points="248.4,10.5 247.2,12.1 238.2,11.4 238.1,9.8 			"/>
			<polygon class="st0" points="238.1,9.8 238.2,11.4 234,11.1 234,9.5 			"/>
			<polygon class="st1" points="234,9.5 234,11.1 232.7,11 			"/>
			<polygon class="st0" points="91.3,194.8 91,188.9 92.2,189.4 92.5,195.3 			"/>
			<polygon class="st1" points="98.7,194.4 92.5,195.3 92.2,189.4 100,192.8 			"/>
			<polygon class="st0" points="232.5,9.4 231.3,10.9 218.7,10 218.7,8.3 			"/>
			<polygon class="st1" points="218.7,8.3 218.7,10 217.5,9.9 			"/>
			<polygon class="st0" points="78.7,189.2 78.4,183.4 79.5,183.9 79.8,189.7 			"/>
			<polygon class="st1" points="85.9,188.9 79.8,189.7 79.5,183.9 87.2,187.2 			"/>
			<polygon class="st0" points="217.3,8.2 216.1,9.8 204.1,8.9 204.1,7.3 			"/>
			<polygon class="st1" points="204.1,7.3 204.1,8.9 202.9,8.8 			"/>
			<polygon class="st0" points="66.7,183.9 66.4,178.2 67.5,178.7 67.8,184.4 			"/>
			<polygon class="st1" points="73.8,183.6 67.8,184.4 67.5,178.7 75.1,182 			"/>
			<polygon class="st0" points="202.8,7.2 201.6,8.7 190.2,7.8 190.1,6.3 			"/>
			<polygon class="st1" points="190.1,6.3 190.2,7.8 189,7.7 			"/>
			<polygon class="st0" points="55.3,178.8 54.9,173.2 56,173.7 56.3,179.2 			"/>
			<polygon class="st1" points="62.2,178.5 56.3,179.2 56,173.7 63.5,176.9 			"/>
			<polygon class="st0" points="188.9,6.2 187.7,7.6 176.8,6.8 176.8,5.3 			"/>
			<polygon class="st1" points="176.8,5.3 176.8,6.8 175.6,6.7 			"/>
			<polygon class="st0" points="44.3,173.9 44,168.5 45,168.9 45.3,174.4 			"/>
			<polygon class="st1" points="51.1,173.7 45.3,174.4 45,168.9 52.4,172.1 			"/>
			<polygon class="st0" points="175.6,5.2 174.4,6.6 164,5.8 164,4.3 			"/>
			<polygon class="st1" points="164,4.3 164,5.8 162.8,5.7 			"/>
			<polygon class="st0" points="33.9,169.3 33.5,164 34.5,164.4 34.8,169.7 			"/>
			<polygon class="st1" points="41.8,167.5 40.5,169 37.9,169.3 34.8,169.7 34.5,164.4 			"/>
			<polygon class="st0" points="162.8,4.3 161.7,5.6 151.7,4.9 151.7,3.4 			"/>
			<polygon class="st1" points="151.7,3.4 151.7,4.9 150.6,4.8 			"/>
			<polygon class="st1" points="30.4,164.6 24.8,165.2 24.5,160 31.6,163.1 			"/>
			<polygon class="st0" points="24.8,165.2 23.9,164.8 23.8,164.3 23.5,159.6 24.5,160 			"/>
			<polygon class="st9" points="422.3,337.5 422.4,337.5 413.3,340.1 413.3,340 			"/>
			<polygon class="st8" points="422.3,337.5 413.3,340 414.8,294.9 423.9,292.7 			"/>
			<polygon class="st13" points="413.3,340.1 422.4,337.5 422.2,344.1 422,348.1 417.1,349.5 412.5,350.8 412.4,350.9 408.1,352.1 
				408,352.1 286,387 286,376 286.6,376.4 287.8,376 352.7,357.9 412.2,341.3 413.3,341 			"/>
			<polygon class="st12" points="286,376 286.6,376.4 286.7,223.6 286.6,223.6 286,223.4 			"/>
			<polygon class="st11" points="286.6,376.4 286.7,223.6 287.9,223.4 287.8,376 			"/>
			<polygon class="st4" points="287.8,376 287.9,223.4 355.4,211.5 352.7,357.9 			"/>
			<polygon class="st11" points="413.3,341 412.2,341.3 417,200.6 418,200.4 418,201.6 416.9,232.3 416.8,237.6 415,289.8 
				414.8,294.9 413.3,340 413.3,340.1 			"/>
			<polygon class="st4" points="417,200.6 412.2,341.3 352.7,357.9 355.4,211.5 			"/>
			<polygon class="st39" points="212.4,408.1 276.3,389.8 276.4,389.8 286,387.1 286,387 408,352.1 408,353.9 407.4,354 
				406.3,354.5 405.6,355.2 405.3,355.8 405.6,356.5 406.3,357.2 407.5,357.8 409,358.3 410.7,358.6 412.5,358.8 414.4,358.8 
				416.1,358.6 417.5,358.2 418.6,357.7 419.3,357.1 419.5,356.4 419.2,355.7 418.5,355 417.3,354.4 417,354.3 417.1,349.5 
				422,348.1 422.2,344.1 455.5,359 189.8,439.1 19,308.6 46.9,303 50.4,305.5 50.7,309.5 50.2,309.6 49.1,310.1 48.4,310.6 
				48.1,311.1 48.2,311.7 48.7,312.1 49.6,312.5 50.9,312.8 52.4,312.9 54,312.9 55.7,312.8 57.3,312.5 58.1,312.2 58.3,314.2 
				64.8,318.9 68.3,318.2 78.6,325.5 78.8,328.9 85.9,334 89.5,333.2 100.9,341.3 101.1,344.9 108.8,350.4 112.5,349.5 125.2,358.6 
				125.4,362.2 133.8,368.3 137.6,367.3 151.8,377.4 152,381.3 161.2,387.9 165.2,386.9 181.1,398.2 181.2,402.2 191.4,409.5 
				195.5,408.4 197.8,410 197.9,414.3 196.8,414.8 195.6,415.6 194.9,416.5 194.8,417.4 195.2,418.3 196.2,419.1 197.6,419.8 
				199.4,420.2 201.4,420.4 203.6,420.4 205.7,420.1 207.6,419.7 209.1,419 210.3,418.1 210.9,417.2 211,416.3 210.6,415.4 
				209.6,414.6 208.2,414 207.8,413.9 207.7,409.5 			"/>
			<polygon class="st39" points="195.2,418.3 194.8,417.4 194.9,416.5 195.6,415.6 196.8,414.8 197.9,414.3 197.9,416.4 198,416.4 
				201.6,419 201.7,419.1 207.9,417.3 207.8,413.9 208.2,414 209.6,414.6 210.6,415.4 211,416.3 210.9,417.2 210.3,418.1 209.1,419 
				207.6,419.7 205.7,420.1 203.6,420.4 201.4,420.4 199.4,420.2 197.6,419.8 196.2,419.1 			"/>
			<polygon class="st13" points="207.9,417.3 201.7,419.1 201.6,411.2 207.7,409.5 207.8,413.9 			"/>
			<polygon class="st10" points="197.9,414.3 197.9,416.4 198,416.4 197.9,410.1 197.8,410 			"/>
			<polygon class="st10" points="201.5,411.3 201.6,419 201.7,419.1 201.6,411.2 			"/>
			<polygon class="st40" points="201.6,419 198,416.4 197.9,410.1 199.9,411.5 200,411.6 200.1,411.7 201.5,411.3 			"/>
			<polygon class="st41" points="406.3,357.2 405.6,356.5 405.3,355.8 405.6,355.2 406.3,354.5 407.4,354 408,353.9 407.9,355.8 
				408,355.8 412.1,357.7 412.3,357.8 416.9,356.5 417,354.3 417.3,354.4 418.5,355 419.2,355.7 419.5,356.4 419.3,357.1 
				418.6,357.7 417.5,358.2 416.1,358.6 414.4,358.8 412.5,358.8 410.7,358.6 409,358.3 407.5,357.8 			"/>
			<polygon class="st13" points="416.9,356.5 412.3,357.8 412.5,350.8 417.1,349.5 417,354.3 			"/>
			<polygon class="st10" points="408,352.1 408,353.9 407.9,355.8 408,355.8 408.1,352.1 			"/>
			<polygon class="st10" points="412.4,350.9 412.1,357.7 412.3,357.8 412.5,350.8 			"/>
			<polygon class="st40" points="412.1,357.7 408,355.8 408.1,352.1 412.4,350.9 			"/>
			<polygon class="st41" points="48.2,311.7 48.1,311.1 48.4,310.6 49.1,310.1 50.2,309.6 50.7,309.5 50.7,310.5 50.8,310.6 
				52.9,312.1 53,312.1 58.1,311.1 58.1,312.2 57.3,312.5 55.7,312.8 54,312.9 52.4,312.9 50.9,312.8 49.6,312.5 48.7,312.1 			"/>
			<polygon class="st13" points="58.1,311.1 53,312.1 52.7,307.1 58.1,310.9 			"/>
			<polygon class="st10" points="50.7,309.5 50.7,310.5 50.8,310.6 50.5,305.6 50.4,305.5 			"/>
			<polygon class="st10" points="52.9,312.1 53,312.1 52.6,307.1 52.6,307.1 			"/>
			<polygon class="st40" points="52.9,312.1 50.8,310.6 50.5,305.6 52.6,307.1 			"/>
			<polygon class="st42" points="165.2,386.9 161.2,387.9 161.1,384 			"/>
			<polygon class="st43" points="161.2,387.9 152,381.3 151.8,377.4 161.1,384 			"/>
			<polygon class="st42" points="195.5,408.4 191.4,409.5 191.3,405.5 			"/>
			<polygon class="st43" points="191.4,409.5 181.2,402.2 181.1,398.2 191.3,405.5 			"/>
			<polygon class="st42" points="137.6,367.3 133.8,368.3 133.7,364.6 			"/>
			<polygon class="st43" points="133.8,368.3 125.4,362.2 125.2,358.6 133.7,364.6 			"/>
			<polygon class="st42" points="112.5,349.5 108.8,350.4 108.6,346.8 			"/>
			<polygon class="st43" points="108.8,350.4 101.1,344.9 100.9,341.3 108.6,346.8 			"/>
			<polygon class="st42" points="89.5,333.2 85.9,334 85.7,330.5 			"/>
			<polygon class="st43" points="85.9,334 78.8,328.9 78.6,325.5 85.7,330.5 			"/>
			<polygon class="st42" points="68.3,318.2 64.8,318.9 64.6,315.6 			"/>
			<polygon class="st43" points="64.8,318.9 58.3,314.2 58.1,312.2 58.1,311.1 58.1,310.9 64.6,315.6 			"/>
			<polygon class="st10" points="200,411.6 199.9,411.5 199.6,399.9 195.1,396.8 195.1,396.3 199.7,399.5 			"/>
			<polygon class="st7" points="200,411.6 199.7,399.5 195.1,396.3 195.1,396.8 199.6,399.9 199.9,411.5 197.9,410.1 197.8,410 
				195.5,408.4 191.3,405.5 181.1,398.2 165.2,386.9 161.1,384 151.8,377.4 137.6,367.3 133.7,364.6 125.2,358.6 112.5,349.5 
				108.6,346.8 100.9,341.3 89.5,333.2 85.7,330.5 78.6,325.5 68.3,318.2 64.6,315.6 58.1,310.9 52.6,307.1 52.6,307.1 50.5,305.6 
				50.4,305.5 46.9,303 46.3,302.6 43.2,253.2 198.6,348.2 200.1,411.7 			"/>
			<polygon class="st7" points="198.6,348.2 43.2,253.2 42.9,248.7 198.5,342.3 			"/>
			<polygon class="st1" points="12.7,155.4 10.1,155.7 11.2,154.3 12.6,154.9 			"/>
			<polygon class="st1" points="217.5,229.3 204.6,231.6 217.3,214.8 			"/>
			<polygon class="st1" points="217.3,214.8 217.2,213.8 217,200.6 219.9,200.1 219.9,203.9 219.9,204.2 220,204.3 220.4,228.8 
				217.5,229.3 			"/>
			<polygon class="st1" points="453.9,188.6 444.6,190.2 445.1,177.7 			"/>
			<polygon class="st1" points="453.9,188.6 445.1,177.7 445.1,176.8 445.8,176.7 447.9,176.3 448.3,166.5 464.4,186.7 464.4,186.7 
							"/>
			<polygon class="st1" points="447.9,176.3 445.8,176.7 446.2,166.4 448.3,166.1 448.3,166.5 448.3,166.5 			"/>
			<polygon class="st4" points="448.3,166.1 446.2,166.4 446.3,165.3 448.4,165 			"/>
			<polygon class="st1" points="445.1,176.8 445.1,177.7 444.6,190.2 442.5,190.5 443.5,165.7 445.6,165.4 			"/>
			<polygon class="st4" points="445.1,176.8 445.6,165.4 446.3,165.3 446.2,166.4 445.8,176.7 			"/>
			<polygon class="st4" points="445.4,147.4 397.9,87 398.4,86.4 403.6,93.2 405.7,95.8 437.3,136.2 439.3,138.6 445.8,146.9 			"/>
			<polygon class="st4" points="445.4,147.4 445.8,146.9 470.4,178.4 470.4,179.3 469.4,178.1 			"/>
			<polygon class="st4" points="398.4,86.4 397.9,87 345,19.6 345.5,19 367.2,46.7 369.5,49.6 			"/>
			<polygon class="st8" points="470.4,178.4 445.8,146.9 439.3,138.6 439.3,138.5 470.5,178.3 			"/>
			<polygon class="st8" points="439.3,138.5 439.3,138.6 437.3,136.2 437.4,136.1 			"/>
			<polygon class="st14" points="469.4,179.1 470.4,179.3 469.4,178.1 			"/>
			<polygon class="st44" points="345,19.6 345.5,19 344.5,18.9 			"/>
			<polygon class="st7" points="344.5,18.9 345.5,19 345.5,18.9 344.4,18.8 			"/>
			<polygon class="st4" points="217.4,178.9 218,179.4 182.3,225.9 180.9,227.8 180.9,226.7 			"/>
			<polygon class="st8" points="217.4,178.9 180.9,226.7 180.8,226.6 226.5,166.8 226.6,166.9 			"/>
			<polygon class="st8" points="226.6,166.9 226.5,166.8 229.2,163.4 229.2,163.5 			"/>
			<polygon class="st45" points="180.9,226.7 180.9,227.8 180.7,227.8 173.6,224.6 165.2,221 163.6,220.3 157.9,217.8 149.6,214.3 
				148.1,213.6 142.3,211.1 134.1,207.5 132.7,206.9 127.5,204.7 119.4,201.2 118.1,200.6 113.4,198.6 105.4,195.1 104.2,194.6 
				100,192.8 92.2,189.4 91,188.9 90.2,188.5 90.1,187.5 			"/>
			<polygon class="st45" points="90.1,187.5 90.2,188.5 87.2,187.2 79.5,183.9 78.4,183.4 75.1,182 67.5,178.7 66.4,178.2 
				63.5,176.9 56,173.7 54.9,173.2 52.4,172.1 45,168.9 44,168.5 41.8,167.5 34.5,164.4 33.5,164 31.6,163.1 24.5,160 23.5,159.6 
				22.7,159.3 22.7,158.4 			"/>
			<polygon class="st46" points="90.1,187.5 22.7,158.4 2.2,149.6 2.1,149.5 180.8,226.6 180.9,226.7 			"/>
			<polygon class="st45" points="22.7,158.4 22.7,159.3 22.6,159.2 21.7,158.8 20.5,158.3 13.5,155.3 12.6,154.9 11.2,154.3 
				4.3,151.3 3.5,150.9 2.2,150.4 2.2,149.6 			"/>
			<polygon class="st42" points="455.5,359 455.5,359.8 422.6,369.8 422.1,369.9 420.9,370.3 419.1,370.8 416.8,371.5 414.2,372.3 
				411.4,373.2 408.6,374 406,374.8 403.9,375.4 402.3,375.9 401.4,376.2 401.2,376.3 215.4,432.4 215,432.5 213.8,432.9 
				211.9,433.4 209.4,434.2 206.4,435.1 203.3,436 200.1,437 197.2,437.9 194.7,438.6 192.8,439.2 191.6,439.6 191.3,439.7 
				189.8,440.1 189.8,439.1 			"/>
			<polygon class="st43" points="189.8,439.1 189.8,440.1 72.5,350.2 72.5,350.2 71.3,349.3 69.1,347.6 66,345.3 62.2,342.3 
				60.4,341 58,339.1 57.1,338.5 54.5,336.5 52,334.5 49.7,332.8 47.9,331.4 46.6,330.4 46,330 19.1,309.3 19,308.6 			"/>
			<polygon class="st8" points="423.9,292.7 414.8,294.9 415,289.8 424.1,287.6 			"/>
			<polygon class="st8" points="424.1,287.6 415,289.8 416.8,237.6 426,235.7 			"/>
			<polygon class="st7" points="198.5,342.3 42.9,248.7 40,202.5 197.1,282.4 			"/>
			<polygon class="st8" points="426,235.7 416.8,237.6 416.9,232.3 426.2,230.4 			"/>
			<polygon class="st8" points="426.2,230.4 416.9,232.3 418,201.6 422.9,200.7 423,197.9 427.4,197.1 			"/>
			<polygon class="st7" points="196,233 196.1,237.6 196.2,237.6 			"/>
			<polygon class="st13" points="209.5,235.4 277,223.6 277,225.3 276.6,225.4 275.3,225.6 211,237 209.6,237.2 209.5,237.3 			"/>
			<polygon class="st13" points="286.6,221.9 418.4,198.8 418.4,200.4 418,200.4 417,200.6 355.4,211.5 287.9,223.4 286.7,223.6 
				286.6,223.6 			"/>
			<polygon class="st13" points="418.4,200.4 418.4,198.8 418.1,198.7 423,197.9 422.9,200.7 418,201.6 418,200.4 			"/>
			<polygon class="st8" points="229.2,163.5 229.2,163.4 270.8,109 270.9,109.1 			"/>
			<polygon class="st7" points="180.8,226.6 2.1,149.5 36.8,107.8 226.5,166.8 			"/>
			<polygon class="st7" points="226.5,166.8 36.8,107.8 38.8,105.3 229.2,163.4 			"/>
			<polygon class="st7" points="229.2,163.4 38.8,105.3 70.7,67 270.8,109 			"/>
			<polygon class="st8" points="339.7,19.1 339.7,19.2 316.3,49.9 316.2,49.8 			"/>
			<polygon class="st8" points="270.9,109.1 270.8,109 273.4,105.7 273.4,105.8 			"/>
			<polygon class="st8" points="273.4,105.8 273.4,105.7 313.7,53 313.8,53.1 280,97.3 			"/>
			<polygon class="st8" points="313.8,53.1 313.7,53 316.2,49.8 316.3,49.9 			"/>
			<polygon class="st7" points="270.8,109 70.7,67 72.7,64.6 273.4,105.7 			"/>
			<polygon class="st7" points="273.4,105.7 72.7,64.6 103.9,27.1 313.7,53 			"/>
			<polygon class="st7" points="313.7,53 103.9,27.1 105.8,24.8 316.2,49.8 			"/>
			<polygon class="st7" points="316.2,49.8 105.8,24.8 124.1,2.8 124.9,2.9 126,2.9 127.1,3 136.1,3.7 137.2,3.8 138.3,3.9 
				147.2,4.5 148.3,4.6 149.5,4.7 150.6,4.8 151.7,4.9 161.7,5.6 162.8,5.7 164,5.8 174.4,6.6 175.6,6.7 176.8,6.8 187.7,7.6 
				189,7.7 190.2,7.8 201.6,8.7 202.9,8.8 204.1,8.9 216.1,9.8 217.5,9.9 218.7,10 231.3,10.9 232.7,11 234,11.1 238.2,11.4 
				247.2,12.1 248.7,12.2 250,12.3 263.9,13.4 265.5,13.5 266.8,13.6 281.4,14.7 283.1,14.8 284.4,14.9 299.8,16.1 301.6,16.2 
				302.9,16.3 318.3,17.5 320.1,17.6 321.5,17.7 338.7,19 339.7,19.1 			"/>
			<polygon class="st8" points="345.5,19 345.5,18.9 367.3,46.6 367.2,46.7 			"/>
			<polygon class="st8" points="367.2,46.7 367.3,46.6 369.5,49.5 369.5,49.6 			"/>
			<polygon class="st8" points="369.5,49.6 369.5,49.5 403.7,93.1 403.6,93.2 398.4,86.4 			"/>
			<polygon class="st8" points="403.6,93.2 403.7,93.1 405.8,95.7 405.7,95.8 			"/>
			<polygon class="st8" points="405.7,95.8 405.8,95.7 437.4,136.1 437.3,136.2 			"/>
			<polygon class="st8" points="209.7,273.8 209.8,279.9 197.1,282.4 197,276.4 			"/>
			<polygon class="st8" points="211.1,345.1 212.1,396.6 212.4,408.1 212.4,408.1 207.7,409.5 201.6,411.2 201.5,411.3 200.1,411.7 
				198.6,348.2 			"/>
			<polygon class="st8" points="211,339.2 211.1,345.1 198.6,348.2 198.5,342.3 			"/>
			<polygon class="st8" points="209.8,279.8 211,339.2 198.5,342.3 197.1,282.4 			"/>
			<line class="st47" x1="195.2" y1="418.3" x2="194.8" y2="417.4"/>
			<line class="st47" x1="195.2" y1="418.3" x2="196.2" y2="419.1"/>
			<line class="st47" x1="210.9" y1="417.2" x2="211" y2="416.3"/>
			<line class="st47" x1="210.3" y1="418.1" x2="210.9" y2="417.2"/>
			<line class="st47" x1="209.1" y1="419" x2="210.3" y2="418.1"/>
			<line class="st47" x1="207.6" y1="419.7" x2="209.1" y2="419"/>
			<line class="st47" x1="205.7" y1="420.1" x2="207.6" y2="419.7"/>
			<line class="st47" x1="203.6" y1="420.4" x2="205.7" y2="420.1"/>
			<line class="st47" x1="201.4" y1="420.4" x2="203.6" y2="420.4"/>
			<line class="st47" x1="199.4" y1="420.2" x2="201.4" y2="420.4"/>
			<line class="st47" x1="197.6" y1="419.8" x2="199.4" y2="420.2"/>
			<line class="st47" x1="196.2" y1="419.1" x2="197.6" y2="419.8"/>
			<polyline class="st47" points="405.6,356.5 406.3,357.2 407.5,357.8 			"/>
			<line class="st47" x1="419.3" y1="357.1" x2="419.5" y2="356.4"/>
			<line class="st47" x1="418.6" y1="357.7" x2="419.3" y2="357.1"/>
			<line class="st47" x1="417.5" y1="358.2" x2="418.6" y2="357.7"/>
			<line class="st47" x1="416.1" y1="358.6" x2="417.5" y2="358.2"/>
			<line class="st47" x1="414.4" y1="358.8" x2="416.1" y2="358.6"/>
			<line class="st47" x1="412.5" y1="358.8" x2="414.4" y2="358.8"/>
			<line class="st47" x1="410.7" y1="358.6" x2="412.5" y2="358.8"/>
			<line class="st47" x1="409" y1="358.3" x2="410.7" y2="358.6"/>
			<line class="st47" x1="407.5" y1="357.8" x2="409" y2="358.3"/>
			<line class="st47" x1="405.6" y1="356.5" x2="405.3" y2="355.8"/>
			<line class="st47" x1="48.2" y1="311.7" x2="48.1" y2="311.1"/>
			<line class="st47" x1="48.2" y1="311.7" x2="48.7" y2="312.1"/>
			<line class="st47" x1="57.3" y1="312.5" x2="58.1" y2="312.2"/>
			<line class="st47" x1="55.7" y1="312.8" x2="57.3" y2="312.5"/>
			<line class="st47" x1="54" y1="312.9" x2="55.7" y2="312.8"/>
			<line class="st47" x1="52.4" y1="312.9" x2="54" y2="312.9"/>
			<line class="st47" x1="50.9" y1="312.8" x2="52.4" y2="312.9"/>
			<line class="st47" x1="49.6" y1="312.5" x2="50.9" y2="312.8"/>
			<line class="st47" x1="48.7" y1="312.1" x2="49.6" y2="312.5"/>
			<line class="st47" x1="420.3" y1="387" x2="421.5" y2="386.1"/>
			<line class="st47" x1="416.2" y1="388.3" x2="418.5" y2="387.8"/>
			<line class="st47" x1="413.6" y1="388.5" x2="416.2" y2="388.3"/>
			<line class="st47" x1="408.1" y1="388.1" x2="410.8" y2="388.5"/>
			<line class="st47" x1="418.5" y1="387.8" x2="420.3" y2="387"/>
			<line class="st47" x1="402" y1="385.7" x2="401.1" y2="384.6"/>
			<line class="st47" x1="402" y1="385.7" x2="403.5" y2="386.7"/>
			<line class="st47" x1="410.8" y1="388.5" x2="413.6" y2="388.5"/>
			<line class="st47" x1="421.5" y1="386.1" x2="422" y2="385"/>
			<line class="st47" x1="401.1" y1="384.6" x2="400.9" y2="383.5"/>
			<line class="st47" x1="405.6" y1="387.5" x2="408.1" y2="388.1"/>
			<line class="st47" x1="403.5" y1="386.7" x2="405.6" y2="387.5"/>
			<line class="st47" x1="203.7" y1="454.5" x2="206.9" y2="454.1"/>
			<line class="st47" x1="200.5" y1="454.4" x2="203.7" y2="454.5"/>
			<line class="st47" x1="197.6" y1="453.9" x2="200.5" y2="454.4"/>
			<line class="st47" x1="206.9" y1="454.1" x2="209.8" y2="453.4"/>
			<line class="st47" x1="195" y1="453.1" x2="197.6" y2="453.9"/>
			<line class="st47" x1="209.8" y1="453.4" x2="212.3" y2="452.4"/>
			<line class="st47" x1="193.1" y1="452" x2="195" y2="453.1"/>
			<line class="st47" x1="212.3" y1="452.4" x2="214.2" y2="451.2"/>
			<line class="st47" x1="193.1" y1="452" x2="191.9" y2="450.7"/>
			<line class="st47" x1="214.2" y1="451.2" x2="215.4" y2="449.7"/>
			<line class="st47" x1="191.9" y1="450.7" x2="191.5" y2="449.2"/>
			<line class="st47" x1="215.4" y1="449.7" x2="215.7" y2="448.3"/>
			<polyline class="st47" points="47.1,338 48.4,338.6 50.1,339.1 			"/>
			<line class="st47" x1="52.3" y1="339.4" x2="54.7" y2="339.4"/>
			<line class="st47" x1="47.1" y1="338" x2="46.5" y2="337.2"/>
			<line class="st47" x1="50.1" y1="339.1" x2="52.3" y2="339.4"/>
			<polyline class="st47" points="54.7,339.4 57.2,339.2 58,339.1 			"/>
			<line class="st47" x1="200" y1="411.6" x2="199.7" y2="399.5"/>
			<line class="st47" x1="195.1" y1="396.3" x2="199.7" y2="399.5"/>
			<line class="st47" x1="39.7" y1="197.9" x2="197" y2="276.4"/>
			<polyline class="st47" points="36.8,107.8 226.5,166.8 226.6,166.9 			"/>
			<line class="st47" x1="313.8" y1="53.1" x2="313.7" y2="53"/>
			<line class="st47" x1="103.9" y1="27.1" x2="313.7" y2="53"/>
			<line class="st47" x1="403.6" y1="93.2" x2="403.7" y2="93.1"/>
			<line class="st47" x1="342" y1="17.4" x2="343.3" y2="17.3"/>
			<line class="st47" x1="238.1" y1="9.8" x2="239.3" y2="9.7"/>
			<line class="st47" x1="238.1" y1="9.8" x2="238.2" y2="11.4"/>
			<line class="st47" x1="443.5" y1="165.7" x2="443.6" y2="162.9"/>
			<line class="st47" x1="423.3" y1="158.2" x2="443.6" y2="162.9"/>
			<line class="st47" x1="286.7" y1="223.6" x2="286.6" y2="376.4"/>
			<line class="st47" x1="209.6" y1="237.2" x2="212.7" y2="397"/>
			<line class="st47" x1="201.7" y1="419.1" x2="201.6" y2="411.2"/>
			<line class="st47" x1="412.3" y1="357.8" x2="412.5" y2="350.8"/>
			<line class="st47" x1="53" y1="312.1" x2="52.6" y2="307.1"/>
			<line class="st47" x1="360" y1="57.7" x2="341.9" y2="55.5"/>
			<line class="st47" x1="377.5" y1="79.8" x2="359.4" y2="77.1"/>
			<line class="st47" x1="394.5" y1="101" x2="376.3" y2="98"/>
			<line class="st47" x1="426.6" y1="141.4" x2="408.4" y2="137.5"/>
			<line class="st47" x1="410.9" y1="121.6" x2="392.6" y2="118.1"/>
			<line class="st47" x1="438.5" y1="156.2" x2="420.2" y2="152.1"/>
			<line class="st47" x1="161.2" y1="387.9" x2="161.1" y2="384"/>
			<line class="st47" x1="191.4" y1="409.5" x2="191.3" y2="405.5"/>
			<line class="st47" x1="133.8" y1="368.3" x2="133.7" y2="364.6"/>
			<line class="st47" x1="108.8" y1="350.4" x2="108.6" y2="346.8"/>
			<line class="st47" x1="85.9" y1="334" x2="85.7" y2="330.5"/>
			<line class="st47" x1="64.8" y1="318.9" x2="64.6" y2="315.6"/>
			<polyline class="st47" points="393.9,383 394.2,384.8 395.6,386.7 398.2,388.3 401.7,389.8 405.8,390.8 410.4,391.4 415.1,391.5 
				419.5,391.1 423.3,390.2 426.3,388.9 428.3,387.3 429,385.5 			"/>
			<polyline class="st47" points="193.5,457.4 198.4,458.2 203.7,458.3 209.1,457.8 214,456.6 218.1,454.9 221.3,452.8 223.2,450.4 
				223.8,447.9 			"/>
			<polyline class="st47" points="183.4,449.5 184,452 186,454.2 189.2,456.1 193.5,457.4 			"/>
			<polyline class="st47" points="41.2,339.3 43.2,340.4 46.2,341.2 49.8,341.6 53.8,341.7 58,341.4 60.4,341 			"/>
			<line class="st47" x1="40.2" y1="338" x2="41.2" y2="339.3"/>
			<line class="st47" x1="445.2" y1="162.6" x2="343" y2="34.2"/>
			<line class="st47" x1="13.5" y1="155.3" x2="13.8" y2="160.4"/>
			<line class="st47" x1="138.3" y1="2.5" x2="137.2" y2="3.8"/>
			<line class="st47" x1="22.6" y1="159.2" x2="23" y2="164.4"/>
			<line class="st47" x1="149.5" y1="3.3" x2="148.3" y2="4.6"/>
			<line class="st47" x1="4.3" y1="151.3" x2="4.7" y2="156.3"/>
			<line class="st47" x1="127" y1="1.6" x2="126" y2="2.9"/>
			<line class="st47" x1="149.6" y1="214.3" x2="149.8" y2="220.8"/>
			<line class="st47" x1="302.9" y1="14.5" x2="301.6" y2="16.2"/>
			<line class="st47" x1="182.3" y1="225.9" x2="182.6" y2="235.3"/>
			<line class="st47" x1="165.2" y1="221" x2="165.4" y2="227.7"/>
			<line class="st47" x1="321.5" y1="15.9" x2="320.1" y2="17.6"/>
			<line class="st47" x1="134.1" y1="207.5" x2="134.3" y2="213.9"/>
			<line class="st47" x1="284.4" y1="13.2" x2="283.1" y2="14.8"/>
			<line class="st47" x1="119.4" y1="201.2" x2="119.7" y2="207.4"/>
			<line class="st47" x1="266.8" y1="11.9" x2="265.5" y2="13.5"/>
			<line class="st47" x1="105.4" y1="195.1" x2="105.7" y2="201.2"/>
			<line class="st47" x1="250" y1="10.6" x2="248.7" y2="12.2"/>
			<line class="st47" x1="92.2" y1="189.4" x2="92.5" y2="195.3"/>
			<line class="st47" x1="234" y1="9.5" x2="232.7" y2="11"/>
			<line class="st47" x1="79.5" y1="183.9" x2="79.8" y2="189.7"/>
			<line class="st47" x1="218.7" y1="8.3" x2="217.5" y2="9.9"/>
			<line class="st47" x1="67.5" y1="178.7" x2="67.8" y2="184.4"/>
			<line class="st47" x1="204.1" y1="7.3" x2="202.9" y2="8.8"/>
			<line class="st47" x1="56" y1="173.7" x2="56.3" y2="179.2"/>
			<line class="st47" x1="190.1" y1="6.3" x2="189" y2="7.7"/>
			<line class="st47" x1="45" y1="168.9" x2="45.3" y2="174.4"/>
			<line class="st47" x1="176.8" y1="5.3" x2="175.6" y2="6.7"/>
			<line class="st47" x1="34.5" y1="164.4" x2="34.8" y2="169.7"/>
			<line class="st47" x1="164" y1="4.3" x2="162.8" y2="5.7"/>
			<line class="st47" x1="24.5" y1="160" x2="24.8" y2="165.2"/>
			<line class="st47" x1="151.7" y1="3.4" x2="150.6" y2="4.8"/>
			<line class="st47" x1="422.4" y1="337.5" x2="413.3" y2="340.1"/>
			<line class="st47" x1="189.4" y1="234.2" x2="213.2" y2="203"/>
			<line class="st47" x1="217.3" y1="214.8" x2="204.6" y2="231.6"/>
			<line class="st47" x1="445.1" y1="177.7" x2="453.9" y2="188.6"/>
			<line class="st47" x1="443.5" y1="165.7" x2="442.5" y2="190.5"/>
			<line class="st47" x1="345" y1="19.6" x2="345.5" y2="19"/>
			<line class="st47" x1="455.5" y1="359" x2="189.8" y2="439.1"/>
			<polyline class="st47" points="189.8,440.1 189.8,439.1 19,308.6 			"/>
			<line class="st47" x1="416.9" y1="232.3" x2="426.2" y2="230.4"/>
			<line class="st47" x1="415" y1="289.8" x2="424.1" y2="287.6"/>
			<line class="st47" x1="198.5" y1="342.3" x2="42.9" y2="248.7"/>
			<line class="st47" x1="418" y1="173.1" x2="422.9" y2="172.4"/>
			<line class="st47" x1="418" y1="173.1" x2="418" y2="173.1"/>
			<line class="st47" x1="418" y1="173.2" x2="418" y2="173.1"/>
			<line class="st47" x1="219.9" y1="204.3" x2="423.2" y2="172.5"/>
			<line class="st47" x1="196.2" y1="237.6" x2="196" y2="233"/>
			<line class="st47" x1="276.3" y1="379.2" x2="276.4" y2="389.8"/>
			<polyline class="st47" points="277,223.6 209.5,235.4 209.5,237.3 			"/>
			<polyline class="st47" points="418.4,198.8 286.6,221.9 286.6,223.6 			"/>
			<line class="st47" x1="285.9" y1="221.7" x2="286.6" y2="221.9"/>
			<line class="st47" x1="208.8" y1="235.2" x2="209.5" y2="235.4"/>
			<line class="st47" x1="180.9" y1="226.7" x2="180.8" y2="226.6"/>
			<line class="st47" x1="2.1" y1="149.5" x2="180.8" y2="226.6"/>
			<line class="st47" x1="270.9" y1="109.1" x2="270.8" y2="109"/>
			<line class="st47" x1="70.7" y1="67" x2="270.8" y2="109"/>
			<line class="st47" x1="345.5" y1="19" x2="345.5" y2="18.9"/>
			<line class="st47" x1="367.2" y1="46.7" x2="367.3" y2="46.6"/>
			<line class="st47" x1="437.3" y1="136.2" x2="437.4" y2="136.1"/>
			<line class="st47" x1="341.7" y1="37.4" x2="341.8" y2="34.3"/>
			<line class="st47" x1="238.1" y1="9.8" x2="234" y2="9.5"/>
			<line class="st47" x1="443.6" y1="162.9" x2="445.2" y2="162.6"/>
			<line class="st47" x1="217.6" y1="197.2" x2="219.8" y2="196.9"/>
			<line class="st47" x1="464.4" y1="186.8" x2="464.4" y2="186.7"/>
			<line class="st47" x1="469.4" y1="178.1" x2="470.4" y2="179.3"/>
			<line class="st47" x1="197" y1="276.4" x2="197.1" y2="282.4"/>
			<polyline class="st47" points="198.5,342.3 198.6,348.2 200.1,411.7 			"/>
			<line class="st47" x1="226.5" y1="166.8" x2="229.2" y2="163.4"/>
			<line class="st47" x1="180.8" y1="226.6" x2="226.5" y2="166.8"/>
			<polyline class="st47" points="313.7,53 316.2,49.8 339.7,19.1 			"/>
			<line class="st47" x1="270.8" y1="109" x2="273.4" y2="105.7"/>
			<line class="st47" x1="342" y1="17.4" x2="342" y2="17.4"/>
			<line class="st47" x1="301.1" y1="14.4" x2="284.4" y2="13.2"/>
			<line class="st47" x1="197.1" y1="282.4" x2="198.5" y2="342.3"/>
			<line class="st47" x1="196.1" y1="237.6" x2="197" y2="276.4"/>
			<line class="st47" x1="229.2" y1="163.4" x2="270.8" y2="109"/>
			<line class="st47" x1="273.4" y1="105.7" x2="313.7" y2="53"/>
			<line class="st47" x1="342" y1="17.4" x2="321.5" y2="15.9"/>
			<line class="st47" x1="232.5" y1="9.4" x2="218.7" y2="8.3"/>
			<line class="st47" x1="342" y1="17.4" x2="340.2" y2="19.8"/>
			<line class="st47" x1="319.6" y1="15.7" x2="302.9" y2="14.5"/>
			<line class="st47" x1="282.7" y1="13" x2="266.8" y2="11.9"/>
			<line class="st47" x1="217.3" y1="8.2" x2="204.1" y2="7.3"/>
			<line class="st47" x1="265.1" y1="11.8" x2="250" y2="10.6"/>
			<line class="st47" x1="248.4" y1="10.5" x2="238.1" y2="9.8"/>
			<line class="st47" x1="202.8" y1="7.2" x2="190.1" y2="6.3"/>
			<line class="st47" x1="188.9" y1="6.2" x2="176.8" y2="5.3"/>
			<line class="st47" x1="137.2" y1="2.4" x2="127" y2="1.6"/>
			<line class="st47" x1="175.6" y1="5.2" x2="164" y2="4.3"/>
			<line class="st47" x1="162.8" y1="4.3" x2="151.7" y2="3.4"/>
			<line class="st47" x1="148.3" y1="3.2" x2="138.3" y2="2.5"/>
			<line class="st47" x1="150.6" y1="3.4" x2="149.5" y2="3.3"/>
			<line class="st47" x1="209.7" y1="273.8" x2="197" y2="276.4"/>
			<line class="st47" x1="198.5" y1="342.3" x2="211" y2="339.2"/>
			<line class="st48" x1="302.9" y1="16.3" x2="302.9" y2="14.5"/>
			<line class="st48" x1="301.1" y1="14.4" x2="302.9" y2="14.5"/>
			<line class="st48" x1="341.8" y1="34.3" x2="342" y2="17.4"/>
			<line class="st48" x1="340" y1="17.2" x2="342" y2="17.4"/>
			<line class="st48" x1="321.5" y1="17.7" x2="321.5" y2="15.9"/>
			<line class="st48" x1="284.4" y1="14.9" x2="284.4" y2="13.2"/>
			<line class="st48" x1="282.7" y1="13" x2="284.4" y2="13.2"/>
			<line class="st48" x1="319.6" y1="15.7" x2="321.5" y2="15.9"/>
			<line class="st48" x1="266.8" y1="13.6" x2="266.8" y2="11.9"/>
			<line class="st48" x1="265.1" y1="11.8" x2="266.8" y2="11.9"/>
			<line class="st48" x1="250" y1="12.3" x2="250" y2="10.6"/>
			<line class="st48" x1="248.4" y1="10.5" x2="250" y2="10.6"/>
			<line class="st48" x1="234" y1="11.1" x2="234" y2="9.5"/>
			<line class="st48" x1="232.5" y1="9.4" x2="234" y2="9.5"/>
			<line class="st48" x1="218.7" y1="10" x2="218.7" y2="8.3"/>
			<line class="st48" x1="217.3" y1="8.2" x2="218.7" y2="8.3"/>
			<line class="st48" x1="204.1" y1="8.9" x2="204.1" y2="7.3"/>
			<line class="st48" x1="202.8" y1="7.2" x2="204.1" y2="7.3"/>
			<line class="st48" x1="190.2" y1="7.8" x2="190.1" y2="6.3"/>
			<line class="st48" x1="188.9" y1="6.2" x2="190.1" y2="6.3"/>
			<line class="st48" x1="138.3" y1="3.9" x2="138.3" y2="2.5"/>
			<line class="st48" x1="149.5" y1="4.7" x2="149.5" y2="3.3"/>
			<line class="st48" x1="148.3" y1="3.2" x2="149.5" y2="3.3"/>
			<line class="st48" x1="127.1" y1="3" x2="127" y2="1.6"/>
			<line class="st48" x1="176.8" y1="6.8" x2="176.8" y2="5.3"/>
			<line class="st48" x1="175.6" y1="5.2" x2="176.8" y2="5.3"/>
			<line class="st48" x1="164" y1="5.8" x2="164" y2="4.3"/>
			<line class="st48" x1="162.8" y1="4.3" x2="164" y2="4.3"/>
			<line class="st48" x1="151.7" y1="4.9" x2="151.7" y2="3.4"/>
			<line class="st48" x1="150.6" y1="3.4" x2="151.7" y2="3.4"/>
			<line class="st48" x1="137.2" y1="2.4" x2="138.3" y2="2.5"/>
			<line class="st48" x1="423.4" y1="158.1" x2="424.5" y2="157.9"/>
			<line class="st48" x1="443.3" y1="162.2" x2="445.2" y2="162.6"/>
			<line class="st48" x1="424.5" y1="157.9" x2="427.7" y2="157.4"/>
			<line class="st48" x1="434" y1="158.8" x2="433.7" y2="158.5"/>
			<line class="st48" x1="385.7" y1="97" x2="386.7" y2="95.7"/>
			<line class="st48" x1="201.7" y1="419.1" x2="207.9" y2="417.3"/>
			<line class="st48" x1="197.9" y1="416.4" x2="198" y2="416.4"/>
			<line class="st48" x1="201.6" y1="419" x2="201.7" y2="419.1"/>
			<line class="st48" x1="198" y1="416.4" x2="201.6" y2="419"/>
			<polyline class="st48" points="194.9,416.5 195.6,415.6 196.8,414.8 197.9,414.3 			"/>
			<polyline class="st48" points="207.8,413.9 208.2,414 209.6,414.6 210.6,415.4 			"/>
			<line class="st48" x1="211" y1="416.3" x2="210.6" y2="415.4"/>
			<line class="st48" x1="194.8" y1="417.4" x2="194.9" y2="416.5"/>
			<line class="st48" x1="412.3" y1="357.8" x2="416.9" y2="356.5"/>
			<line class="st48" x1="407.9" y1="355.8" x2="408" y2="355.8"/>
			<line class="st48" x1="412.1" y1="357.7" x2="412.3" y2="357.8"/>
			<line class="st48" x1="408" y1="355.8" x2="412.1" y2="357.7"/>
			<line class="st48" x1="419.5" y1="356.4" x2="419.2" y2="355.7"/>
			<polyline class="st48" points="405.3,355.8 405.6,355.2 406.3,354.5 407.4,354 408,353.9 			"/>
			<polyline class="st48" points="417,354.3 417.3,354.4 418.5,355 419.2,355.7 			"/>
			<line class="st48" x1="53" y1="312.1" x2="58.1" y2="311.1"/>
			<line class="st48" x1="50.7" y1="310.5" x2="50.8" y2="310.6"/>
			<line class="st48" x1="52.9" y1="312.1" x2="53" y2="312.1"/>
			<line class="st48" x1="50.8" y1="310.6" x2="52.9" y2="312.1"/>
			<polyline class="st48" points="48.4,310.6 49.1,310.1 50.2,309.6 50.7,309.5 			"/>
			<line class="st48" x1="48.1" y1="311.1" x2="48.4" y2="310.6"/>
			<line class="st48" x1="345.7" y1="39.9" x2="343" y2="36.4"/>
			<line class="st48" x1="363.9" y1="62.6" x2="360" y2="57.7"/>
			<line class="st48" x1="345.7" y1="60.3" x2="341.9" y2="55.5"/>
			<line class="st48" x1="341.6" y1="55.2" x2="343.1" y2="53.1"/>
			<line class="st48" x1="381.3" y1="84.5" x2="377.5" y2="79.8"/>
			<polyline class="st48" points="363.1,81.7 360.3,78.3 359.4,77.1 			"/>
			<line class="st48" x1="359.1" y1="76.8" x2="360.6" y2="74.8"/>
			<line class="st48" x1="398.1" y1="105.6" x2="394.5" y2="101"/>
			<line class="st48" x1="379.9" y1="102.4" x2="376.3" y2="98"/>
			<line class="st48" x1="376" y1="97.6" x2="377.5" y2="95.6"/>
			<line class="st48" x1="430" y1="145.6" x2="426.6" y2="141.4"/>
			<line class="st48" x1="411.7" y1="141.7" x2="408.4" y2="137.5"/>
			<line class="st48" x1="408.1" y1="137.2" x2="409.5" y2="135.2"/>
			<line class="st48" x1="414.4" y1="125.9" x2="410.9" y2="121.6"/>
			<line class="st48" x1="396.1" y1="122.4" x2="392.6" y2="118.1"/>
			<line class="st48" x1="392.3" y1="117.7" x2="393.7" y2="115.8"/>
			<line class="st48" x1="441.8" y1="160.3" x2="438.5" y2="156.2"/>
			<line class="st48" x1="423.4" y1="156.1" x2="420.2" y2="152.1"/>
			<line class="st48" x1="419.9" y1="151.7" x2="421.3" y2="149.8"/>
			<line class="st48" x1="422.9" y1="172.4" x2="422.9" y2="172.1"/>
			<line class="st48" x1="431.8" y1="152.2" x2="425.9" y2="144.7"/>
			<line class="st48" x1="213.2" y1="202.5" x2="213.2" y2="201.2"/>
			<line class="st48" x1="189.4" y1="234.2" x2="213.2" y2="203"/>
			<polyline class="st48" points="218,179.4 280.4,97.8 340.2,19.8 			"/>
			<line class="st48" x1="276.3" y1="389.8" x2="276.3" y2="379.3"/>
			<line class="st48" x1="199.9" y1="411.5" x2="200" y2="411.6"/>
			<line class="st48" x1="199.9" y1="411.5" x2="199.6" y2="399.9"/>
			<line class="st48" x1="195.1" y1="396.8" x2="195.1" y2="396.3"/>
			<line class="st48" x1="195.1" y1="396.8" x2="199.6" y2="399.9"/>
			<line class="st48" x1="22.7" y1="158.4" x2="90.1" y2="187.5"/>
			<line class="st48" x1="43.2" y1="253.2" x2="198.6" y2="348.2"/>
			<line class="st48" x1="72.7" y1="64.6" x2="273.4" y2="105.7"/>
			<line class="st48" x1="273.4" y1="105.8" x2="273.4" y2="105.7"/>
			<line class="st48" x1="369.5" y1="49.6" x2="369.5" y2="49.5"/>
			<line class="st48" x1="439.3" y1="138.6" x2="439.3" y2="138.5"/>
			<line class="st48" x1="448.3" y1="166.1" x2="446.2" y2="166.4"/>
			<line class="st48" x1="447.9" y1="176.3" x2="445.8" y2="176.7"/>
			<line class="st48" x1="216.1" y1="202.1" x2="213.2" y2="202.5"/>
			<line class="st48" x1="216.3" y1="214" x2="216.1" y2="202.1"/>
			<line class="st48" x1="216.3" y1="214" x2="213.4" y2="214.4"/>
			<line class="st48" x1="126" y1="1.6" x2="127.1" y2="1.5"/>
			<polyline class="st48" points="343,37.4 341.7,37.4 339.5,37.2 			"/>
			<line class="st48" x1="423.3" y1="161" x2="443.5" y2="165.7"/>
			<line class="st48" x1="448.4" y1="165" x2="448.5" y2="162.2"/>
			<line class="st48" x1="213.2" y1="201.2" x2="213.1" y2="197.9"/>
			<line class="st48" x1="219.8" y1="196.9" x2="218.3" y2="196.3"/>
			<line class="st48" x1="219.9" y1="200.1" x2="219.8" y2="196.9"/>
			<line class="st48" x1="287.9" y1="223.4" x2="287.8" y2="376"/>
			<line class="st48" x1="286.6" y1="376.4" x2="286" y2="376"/>
			<line class="st48" x1="287.8" y1="376" x2="286.6" y2="376.4"/>
			<line class="st48" x1="417" y1="200.6" x2="412.2" y2="341.3"/>
			<line class="st48" x1="413.3" y1="341" x2="412.2" y2="341.3"/>
			<line class="st48" x1="276.6" y1="225.4" x2="277" y2="379.1"/>
			<line class="st48" x1="275.3" y1="225.6" x2="275.7" y2="379.4"/>
			<line class="st48" x1="211" y1="237" x2="214" y2="396.6"/>
			<line class="st48" x1="212.7" y1="397" x2="212.1" y2="396.6"/>
			<line class="st48" x1="214.1" y1="396.6" x2="212.7" y2="397"/>
			<line class="st48" x1="275.7" y1="379.4" x2="214" y2="396.6"/>
			<line class="st48" x1="352.7" y1="357.9" x2="287.8" y2="376"/>
			<line class="st48" x1="355.4" y1="211.5" x2="352.7" y2="357.9"/>
			<line class="st48" x1="412.2" y1="341.3" x2="352.7" y2="357.9"/>
			<line class="st48" x1="370.1" y1="75" x2="374.2" y2="75.6"/>
			<line class="st48" x1="352.9" y1="53.5" x2="357" y2="54"/>
			<line class="st48" x1="402.7" y1="115.7" x2="406.8" y2="116.5"/>
			<line class="st48" x1="418.1" y1="135" x2="422.3" y2="135.9"/>
			<line class="st48" x1="386.7" y1="95.7" x2="390.8" y2="96.4"/>
			<line class="st48" x1="198" y1="416.4" x2="197.9" y2="410.1"/>
			<line class="st48" x1="201.6" y1="419" x2="201.5" y2="411.3"/>
			<line class="st48" x1="408" y1="355.8" x2="408.1" y2="352.1"/>
			<line class="st48" x1="412.1" y1="357.7" x2="412.4" y2="350.9"/>
			<line class="st48" x1="50.8" y1="310.6" x2="50.5" y2="305.6"/>
			<line class="st48" x1="52.9" y1="312.1" x2="52.6" y2="307.1"/>
			<line class="st48" x1="423.4" y1="156.5" x2="424.5" y2="157.9"/>
			<line class="st48" x1="358.4" y1="182.2" x2="360.3" y2="78.3"/>
			<polyline class="st48" points="422.9,172.1 358.4,182.2 281.6,194.2 281.5,113.3 			"/>
			<line class="st48" x1="219.9" y1="203.9" x2="281.6" y2="194.2"/>
			<line class="st48" x1="152" y1="381.3" x2="151.8" y2="377.4"/>
			<line class="st48" x1="181.2" y1="402.2" x2="181.1" y2="398.2"/>
			<line class="st48" x1="125.4" y1="362.2" x2="125.2" y2="358.6"/>
			<line class="st48" x1="101.1" y1="344.9" x2="100.9" y2="341.3"/>
			<line class="st48" x1="78.8" y1="328.9" x2="78.6" y2="325.5"/>
			<polyline class="st48" points="393.2,407.4 393.5,409.4 394.9,411.3 397.4,413.1 400.9,414.6 405,415.6 409.6,416.3 414.2,416.4 
				418.6,415.9 422.4,415 425.4,413.6 427.3,412 428.1,410.1 			"/>
			<polyline class="st48" points="427.1,381.8 424.4,380.2 422.2,379.3 			"/>
			<polyline class="st48" points="401.1,378.2 399.9,378.5 396.9,379.7 394.9,381.2 393.9,383 			"/>
			<polyline class="st48" points="429,385.5 428.6,383.6 427.1,381.8 			"/>
			<line class="st48" x1="393.2" y1="407.4" x2="393.9" y2="383"/>
			<line class="st48" x1="428.1" y1="410.1" x2="429" y2="385.5"/>
			<polyline class="st48" points="184.2,477.3 184.8,479.9 186.8,482.2 190,484.2 194.2,485.6 199.1,486.4 204.4,486.5 209.6,486 
				214.5,484.7 218.7,483 221.8,480.7 223.7,478.2 224.2,475.6 			"/>
			<polyline class="st48" points="223.8,447.9 223,445.5 220.8,443.4 217.6,441.6 215.6,441 			"/>
			<polyline class="st48" points="191.3,442 189.5,442.7 186.2,444.7 184.2,447.1 183.4,449.5 			"/>
			<line class="st48" x1="224.2" y1="475.6" x2="223.8" y2="447.9"/>
			<line class="st48" x1="184.2" y1="477.3" x2="183.4" y2="449.5"/>
			<polyline class="st48" points="42.6,361.5 44.6,362.6 47.6,363.5 51.2,364 55.2,364 59.4,363.7 63.4,363 67,361.9 69.9,360.6 
				71.9,359.1 72.9,357.6 72.8,356.1 			"/>
			<line class="st48" x1="41.6" y1="360.1" x2="42.6" y2="361.5"/>
			<polyline class="st48" points="46.2,332.6 43.5,333.7 41.4,335.1 40.2,336.5 40.2,338 			"/>
			<line class="st48" x1="72.8" y1="356.1" x2="72.5" y2="350.2"/>
			<line class="st48" x1="41.6" y1="360.1" x2="40.2" y2="338"/>
			<line class="st48" x1="358.4" y1="182.6" x2="358.4" y2="182.2"/>
			<line class="st48" x1="445.2" y1="162.6" x2="448.5" y2="162.2"/>
			<line class="st48" x1="464.4" y1="186.7" x2="464.4" y2="186.8"/>
			<line class="st48" x1="469.1" y1="185.9" x2="464.4" y2="186.8"/>
			<line class="st48" x1="343.3" y1="17.3" x2="343" y2="34.2"/>
			<line class="st48" x1="410.2" y1="125.1" x2="418.1" y2="135"/>
			<line class="st48" x1="394" y1="104.9" x2="402.7" y2="115.7"/>
			<line class="st48" x1="369.3" y1="76" x2="370.1" y2="75"/>
			<line class="st48" x1="377.2" y1="83.9" x2="386.7" y2="95.7"/>
			<line class="st48" x1="352.3" y1="54.2" x2="352.9" y2="53.5"/>
			<line class="st48" x1="359.7" y1="62.1" x2="370.1" y2="75"/>
			<line class="st48" x1="341.6" y1="39.5" x2="352.9" y2="53.5"/>
			<line class="st48" x1="19.4" y1="159.8" x2="20.5" y2="158.3"/>
			<line class="st48" x1="13.8" y1="160.4" x2="19.4" y2="159.8"/>
			<line class="st48" x1="13.8" y1="160.4" x2="13" y2="160"/>
			<line class="st48" x1="137.2" y1="2.4" x2="136.1" y2="3.7"/>
			<line class="st48" x1="21.7" y1="158.8" x2="22" y2="164"/>
			<line class="st48" x1="23" y1="164.4" x2="23.8" y2="164.3"/>
			<line class="st48" x1="23" y1="164.4" x2="22" y2="164"/>
			<line class="st48" x1="148.3" y1="3.2" x2="147.2" y2="4.5"/>
			<line class="st48" x1="3.5" y1="150.9" x2="3.8" y2="155.9"/>
			<line class="st48" x1="4.7" y1="156.3" x2="10.1" y2="155.7"/>
			<line class="st48" x1="4.7" y1="156.3" x2="3.8" y2="155.9"/>
			<line class="st48" x1="126" y1="1.6" x2="124.9" y2="2.9"/>
			<line class="st48" x1="126" y1="1.6" x2="127" y2="1.6"/>
			<line class="st48" x1="148.1" y1="213.6" x2="148.3" y2="220.1"/>
			<polyline class="st48" points="149.8,220.8 156.4,219.7 157.9,217.8 			"/>
			<line class="st48" x1="149.8" y1="220.8" x2="148.3" y2="220.1"/>
			<line class="st48" x1="301.1" y1="14.4" x2="299.8" y2="16.1"/>
			<line class="st48" x1="180.7" y1="227.8" x2="180.9" y2="234.6"/>
			<line class="st48" x1="182.6" y1="235.3" x2="189.4" y2="234.2"/>
			<line class="st48" x1="182.6" y1="235.3" x2="180.9" y2="234.6"/>
			<line class="st48" x1="217.6" y1="197.2" x2="213.1" y2="197.9"/>
			<line class="st48" x1="340" y1="17.2" x2="338.7" y2="19"/>
			<line class="st48" x1="163.6" y1="220.3" x2="163.8" y2="227"/>
			<line class="st48" x1="172.1" y1="226.6" x2="173.6" y2="224.6"/>
			<line class="st48" x1="165.4" y1="227.7" x2="172.1" y2="226.6"/>
			<line class="st48" x1="165.4" y1="227.7" x2="163.8" y2="227"/>
			<line class="st48" x1="319.6" y1="15.7" x2="318.3" y2="17.5"/>
			<line class="st48" x1="132.7" y1="206.9" x2="132.9" y2="213.3"/>
			<polyline class="st48" points="134.3,213.9 140.8,212.9 142.3,211.1 			"/>
			<line class="st48" x1="134.3" y1="213.9" x2="132.9" y2="213.3"/>
			<line class="st48" x1="282.7" y1="13" x2="281.4" y2="14.7"/>
			<line class="st48" x1="118.1" y1="200.6" x2="118.3" y2="206.8"/>
			<polyline class="st48" points="119.7,207.4 126.1,206.4 127.5,204.7 			"/>
			<line class="st48" x1="119.7" y1="207.4" x2="118.3" y2="206.8"/>
			<line class="st48" x1="265.1" y1="11.8" x2="263.9" y2="13.4"/>
			<line class="st48" x1="104.2" y1="194.6" x2="104.5" y2="200.6"/>
			<polyline class="st48" points="105.7,201.2 112,200.3 113.4,198.6 			"/>
			<line class="st48" x1="105.7" y1="201.2" x2="104.5" y2="200.6"/>
			<line class="st48" x1="248.4" y1="10.5" x2="247.2" y2="12.1"/>
			<line class="st48" x1="91" y1="188.9" x2="91.3" y2="194.8"/>
			<polyline class="st48" points="92.5,195.3 98.7,194.4 100,192.8 			"/>
			<line class="st48" x1="92.5" y1="195.3" x2="91.3" y2="194.8"/>
			<line class="st48" x1="232.5" y1="9.4" x2="231.3" y2="10.9"/>
			<line class="st48" x1="78.4" y1="183.4" x2="78.7" y2="189.2"/>
			<polyline class="st48" points="79.8,189.7 85.9,188.9 87.2,187.2 			"/>
			<line class="st48" x1="79.8" y1="189.7" x2="78.7" y2="189.2"/>
			<line class="st48" x1="217.3" y1="8.2" x2="216.1" y2="9.8"/>
			<line class="st48" x1="66.4" y1="178.2" x2="66.7" y2="183.9"/>
			<polyline class="st48" points="67.8,184.4 73.8,183.6 75.1,182 			"/>
			<line class="st48" x1="67.8" y1="184.4" x2="66.7" y2="183.9"/>
			<line class="st48" x1="202.8" y1="7.2" x2="201.6" y2="8.7"/>
			<line class="st48" x1="54.9" y1="173.2" x2="55.3" y2="178.8"/>
			<polyline class="st48" points="56.3,179.2 62.2,178.5 63.5,176.9 			"/>
			<line class="st48" x1="56.3" y1="179.2" x2="55.3" y2="178.8"/>
			<line class="st48" x1="188.9" y1="6.2" x2="187.7" y2="7.6"/>
			<line class="st48" x1="44" y1="168.5" x2="44.3" y2="173.9"/>
			<polyline class="st48" points="45.3,174.4 51.1,173.7 52.4,172.1 			"/>
			<line class="st48" x1="45.3" y1="174.4" x2="44.3" y2="173.9"/>
			<line class="st48" x1="175.6" y1="5.2" x2="174.4" y2="6.6"/>
			<line class="st48" x1="33.5" y1="164" x2="33.9" y2="169.3"/>
			<line class="st48" x1="40.5" y1="169" x2="41.8" y2="167.5"/>
			<line class="st48" x1="34.8" y1="169.7" x2="33.9" y2="169.3"/>
			<line class="st48" x1="162.8" y1="4.3" x2="161.7" y2="5.6"/>
			<polyline class="st48" points="24.8,165.2 30.4,164.6 31.6,163.1 			"/>
			<line class="st48" x1="24.8" y1="165.2" x2="23.9" y2="164.8"/>
			<line class="st48" x1="422.3" y1="337.5" x2="422.4" y2="337.5"/>
			<line class="st48" x1="212.4" y1="408.1" x2="276.3" y2="389.8"/>
			<polyline class="st48" points="216.1,202.1 216.1,200.7 213.2,201.2 			"/>
			<polyline class="st48" points="12.7,155.4 10.1,155.7 11.2,154.3 			"/>
			<line class="st48" x1="217.5" y1="229.3" x2="204.6" y2="231.6"/>
			<polyline class="st48" points="217.2,213.8 217.3,214.8 217.5,229.3 			"/>
			<line class="st48" x1="217" y1="200.6" x2="219.9" y2="200.1"/>
			<line class="st48" x1="217.5" y1="229.3" x2="220.4" y2="228.8"/>
			<polyline class="st48" points="217,200.6 217.2,213.8 216.3,214 			"/>
			<line class="st48" x1="216.1" y1="200.7" x2="217" y2="200.6"/>
			<line class="st48" x1="444.6" y1="190.2" x2="453.9" y2="188.6"/>
			<line class="st48" x1="445.1" y1="176.8" x2="445.1" y2="177.7"/>
			<line class="st48" x1="445.6" y1="165.4" x2="443.5" y2="165.7"/>
			<line class="st48" x1="444.6" y1="190.2" x2="442.5" y2="190.5"/>
			<polyline class="st48" points="445.6,165.4 445.1,176.8 445.8,176.7 			"/>
			<line class="st48" x1="446.3" y1="165.3" x2="445.6" y2="165.4"/>
			<line class="st48" x1="448.3" y1="166.1" x2="448.4" y2="165"/>
			<line class="st48" x1="446.3" y1="165.3" x2="446.2" y2="166.4"/>
			<line class="st48" x1="448.4" y1="165" x2="446.3" y2="165.3"/>
			<line class="st48" x1="445.4" y1="147.4" x2="445.8" y2="146.9"/>
			<line class="st48" x1="397.9" y1="87" x2="445.4" y2="147.5"/>
			<line class="st48" x1="397.9" y1="87" x2="398.4" y2="86.4"/>
			<line class="st48" x1="445.8" y1="146.9" x2="470.4" y2="178.4"/>
			<line class="st48" x1="470.4" y1="179.3" x2="469.4" y2="179.1"/>
			<line class="st48" x1="344.5" y1="18.9" x2="345.5" y2="19"/>
			<line class="st48" x1="345" y1="19.6" x2="397.9" y2="87"/>
			<line class="st48" x1="280.4" y1="97.8" x2="280" y2="97.3"/>
			<line class="st48" x1="340.2" y1="19.8" x2="339.7" y2="19.2"/>
			<polyline class="st48" points="218,179.4 217.4,178.9 180.9,226.7 90.1,187.5 			"/>
			<line class="st48" x1="22.7" y1="158.4" x2="2.2" y2="149.6"/>
			<line class="st48" x1="455.5" y1="359.8" x2="455.6" y2="359"/>
			<line class="st48" x1="19.1" y1="309.3" x2="19" y2="308.6"/>
			<line class="st48" x1="422.2" y1="344.1" x2="455.5" y2="359"/>
			<line class="st48" x1="19" y1="308.6" x2="46.9" y2="303"/>
			<line class="st48" x1="414.8" y1="294.9" x2="423.9" y2="292.7"/>
			<line class="st48" x1="416.8" y1="237.6" x2="426" y2="235.7"/>
			<line class="st48" x1="40" y1="202.5" x2="197.1" y2="282.4"/>
			<line class="st48" x1="196.1" y1="237.6" x2="196.2" y2="237.6"/>
			<line class="st48" x1="428" y1="186.7" x2="427.7" y2="197"/>
			<line class="st48" x1="196.1" y1="237.6" x2="196" y2="233"/>
			<line class="st48" x1="276.4" y1="389.8" x2="286" y2="387.1"/>
			<line class="st48" x1="276.3" y1="389.8" x2="276.4" y2="389.8"/>
			<line class="st48" x1="277" y1="225.3" x2="277" y2="223.6"/>
			<line class="st48" x1="418.4" y1="200.4" x2="418.4" y2="198.8"/>
			<line class="st48" x1="423" y1="197.9" x2="422.9" y2="200.7"/>
			<line class="st48" x1="418" y1="201.6" x2="422.9" y2="200.7"/>
			<line class="st48" x1="2.2" y1="149.6" x2="2.1" y2="149.5"/>
			<polyline class="st48" points="229.2,163.5 229.2,163.4 38.8,105.3 			"/>
			<line class="st48" x1="339.7" y1="19.2" x2="339.7" y2="19.1"/>
			<polyline class="st48" points="316.3,49.9 316.2,49.8 105.8,24.8 			"/>
			<line class="st48" x1="345.5" y1="18.9" x2="344.4" y2="18.8"/>
			<line class="st48" x1="405.7" y1="95.8" x2="405.8" y2="95.7"/>
			<line class="st48" x1="470.4" y1="178.4" x2="470.5" y2="178.3"/>
			<line class="st48" x1="448.3" y1="166.5" x2="448.3" y2="166.5"/>
			<line class="st48" x1="213.2" y1="203" x2="213.2" y2="203"/>
			<polyline class="st48" points="209.8,279.8 209.7,273.8 209,237 			"/>
			<polyline class="st48" points="212.1,396.6 211.1,345.1 211,339.2 			"/>
			<line class="st48" x1="226.6" y1="166.9" x2="229.2" y2="163.5"/>
			<line class="st48" x1="343" y1="36.4" x2="343" y2="37.4"/>
			<polyline class="st48" points="442.1,160.7 434,158.8 427.7,157.4 			"/>
			<line class="st48" x1="276.3" y1="379.3" x2="275.7" y2="379.4"/>
			<polyline class="st48" points="207.9,417.3 207.8,413.9 207.7,409.5 			"/>
			<polyline class="st48" points="197.9,416.4 197.9,414.3 197.8,410 			"/>
			<polyline class="st48" points="416.9,356.5 417,354.3 417.1,349.5 			"/>
			<polyline class="st48" points="407.9,355.8 408,353.9 408,352.1 			"/>
			<polyline class="st48" points="50.7,310.5 50.7,309.5 50.4,305.5 			"/>
			<polyline class="st48" points="345.7,39.9 341.6,39.5 338.1,39.1 			"/>
			<polyline class="st48" points="363.9,62.6 359.7,62.1 345.7,60.3 			"/>
			<polyline class="st48" points="357.7,54.9 352.3,54.2 343.1,53.1 			"/>
			<polyline class="st48" points="381.3,84.5 377.2,83.9 363.1,81.7 			"/>
			<polyline class="st48" points="375.2,76.9 369.3,76 360.6,74.8 			"/>
			<polyline class="st48" points="398.1,105.6 394,104.9 379.9,102.4 			"/>
			<polyline class="st48" points="392.1,98.1 385.7,97 377.5,95.6 			"/>
			<polyline class="st48" points="430,145.6 425.9,144.7 411.7,141.7 			"/>
			<polyline class="st48" points="424.2,138.3 416.9,136.8 409.5,135.2 			"/>
			<polyline class="st48" points="414.4,125.9 410.2,125.1 396.1,122.4 			"/>
			<polyline class="st48" points="408.5,118.5 401.5,117.2 393.7,115.8 			"/>
			<polyline class="st48" points="441.8,160.3 433.7,158.5 423.4,156.1 			"/>
			<polyline class="st48" points="436,153.1 431.8,152.2 421.3,149.8 			"/>
			<line class="st48" x1="333.5" y1="45.1" x2="341.6" y2="55.2"/>
			<line class="st48" x1="58.3" y1="314.2" x2="58.1" y2="312.2"/>
			<polyline class="st48" points="191.3,439.7 191.3,442 191.5,449.2 			"/>
			<polyline class="st48" points="215.4,432.4 215.6,441 215.7,448.3 			"/>
			<line class="st48" x1="19.1" y1="309.3" x2="46" y2="330"/>
			<line class="st48" x1="189.8" y1="440.1" x2="191.3" y2="439.7"/>
			<polyline class="st48" points="422.6,369.8 422.2,379.3 422,385 			"/>
			<polyline class="st48" points="401.2,376.3 401.1,378.2 400.9,383.5 			"/>
			<polyline class="st48" points="46,330 46.2,332.6 46.5,337.2 			"/>
			<polyline class="st48" points="469.4,178.1 469.4,179.1 469.1,185.9 			"/>
			<line class="st48" x1="448.3" y1="166.1" x2="448.3" y2="166.5"/>
			<line class="st48" x1="464.4" y1="186.7" x2="448.3" y2="166.5"/>
			<polyline class="st48" points="12.6,154.9 12.7,155.4 13,160 			"/>
			<line class="st48" x1="10.1" y1="155.7" x2="10.1" y2="155.7"/>
			<line class="st48" x1="189.4" y1="234.2" x2="189.4" y2="234.2"/>
			<line class="st48" x1="217.6" y1="197.2" x2="218.3" y2="196.3"/>
			<line class="st48" x1="218" y1="179.4" x2="182.3" y2="225.9"/>
			<polyline class="st48" points="34.8,169.7 37.9,169.3 40.5,169 			"/>
			<polyline class="st48" points="23.5,159.6 23.8,164.3 23.9,164.8 			"/>
			<polyline class="st48" points="150.6,3.4 149.5,4.7 149.5,4.7 			"/>
			<polyline class="st48" points="422,348.1 422.2,344.1 422.4,337.5 			"/>
			<line class="st48" x1="286" y1="387" x2="408" y2="352.1"/>
			<line class="st48" x1="189.4" y1="234.2" x2="189.4" y2="234.2"/>
			<line class="st48" x1="219.9" y1="200.1" x2="219.9" y2="203.9"/>
			<polyline class="st48" points="453.9,188.6 464.4,186.7 464.4,186.7 			"/>
			<polyline class="st48" points="442.5,190.5 428,186.7 422.7,185.3 			"/>
			<line class="st48" x1="398.4" y1="86.4" x2="403.6" y2="93.2"/>
			<line class="st48" x1="445.4" y1="147.4" x2="469.4" y2="178.1"/>
			<line class="st48" x1="369.5" y1="49.6" x2="398.4" y2="86.4"/>
			<line class="st48" x1="313.8" y1="53.1" x2="280" y2="97.3"/>
			<line class="st48" x1="226.6" y1="166.9" x2="217.4" y2="178.9"/>
			<line class="st48" x1="182.3" y1="225.9" x2="180.9" y2="227.8"/>
			<line class="st48" x1="423.9" y1="292.7" x2="424.1" y2="287.6"/>
			<line class="st48" x1="42.9" y1="248.7" x2="43.2" y2="253.2"/>
			<line class="st48" x1="422.3" y1="337.5" x2="423.9" y2="292.7"/>
			<line class="st48" x1="46.3" y1="302.6" x2="46.9" y2="303"/>
			<line class="st48" x1="43.2" y1="253.2" x2="46.3" y2="302.6"/>
			<polyline class="st48" points="426,235.7 426.2,230.4 427.4,197.1 			"/>
			<polyline class="st48" points="37.9,169.3 39.7,197.9 40,202.5 			"/>
			<line class="st48" x1="427.7" y1="197" x2="427.4" y2="197.1"/>
			<polyline class="st48" points="285.9,221.9 285.8,221.9 276.7,223.5 			"/>
			<polyline class="st48" points="208.8,235.4 208.7,235.4 196.2,237.6 			"/>
			<line class="st48" x1="209.5" y1="237.3" x2="209.6" y2="237.2"/>
			<line class="st48" x1="286.6" y1="223.6" x2="286.7" y2="223.6"/>
			<polyline class="st48" points="285.8,223.3 286,223.4 286.6,223.6 			"/>
			<polyline class="st48" points="418.4,198.8 418.1,198.7 417.6,198.6 			"/>
			<polyline class="st48" points="276.2,223.3 276.7,223.5 277,223.6 			"/>
			<polyline class="st48" points="208.8,236.9 209,237 209.5,237.3 			"/>
			<line class="st48" x1="38.8" y1="105.3" x2="36.8" y2="107.8"/>
			<line class="st48" x1="36.8" y1="107.8" x2="2.1" y2="149.5"/>
			<polyline class="st48" points="313.8,53.1 316.3,49.9 339.7,19.2 			"/>
			<polyline class="st48" points="124.1,2.8 105.8,24.8 103.9,27.1 			"/>
			<line class="st48" x1="270.9" y1="109.1" x2="273.4" y2="105.8"/>
			<line class="st48" x1="72.7" y1="64.6" x2="70.8" y2="67"/>
			<polyline class="st48" points="369.5,49.6 367.2,46.7 345.5,19 			"/>
			<polyline class="st48" points="369.5,49.5 367.3,46.6 345.5,18.9 			"/>
			<line class="st48" x1="405.7" y1="95.8" x2="403.6" y2="93.2"/>
			<line class="st48" x1="405.8" y1="95.7" x2="403.7" y2="93.1"/>
			<polyline class="st48" points="470.5,178.3 439.3,138.5 437.4,136.1 			"/>
			<line class="st48" x1="211" y1="339.2" x2="209.8" y2="279.9"/>
			<line class="st48" x1="229.2" y1="163.5" x2="270.9" y2="109.1"/>
			<line class="st48" x1="343" y1="34.2" x2="343" y2="36.4"/>
			<polyline class="st48" points="413.3,340 413.3,340.1 413.3,341 			"/>
			<polyline class="st48" points="277,379.1 276.3,379.2 276.3,379.3 			"/>
			<line class="st48" x1="341.6" y1="55.2" x2="341.9" y2="55.5"/>
			<polyline class="st48" points="58.1,312.2 58.1,311.1 58.1,310.9 			"/>
			<line class="st48" x1="46" y1="330" x2="46.6" y2="330.4"/>
			<line class="st48" x1="191.3" y1="439.7" x2="191.6" y2="439.6"/>
			<line class="st48" x1="218.3" y1="196.3" x2="281.5" y2="113.3"/>
			<line class="st48" x1="408" y1="352.1" x2="408.1" y2="352.1"/>
			<line class="st48" x1="196" y1="233" x2="189.4" y2="234.2"/>
			<line class="st48" x1="219.9" y1="203.9" x2="219.9" y2="204.2"/>
			<line class="st48" x1="280" y1="97.3" x2="273.4" y2="105.8"/>
			<line class="st48" x1="90.2" y1="188.5" x2="87.2" y2="187.2"/>
			<line class="st48" x1="180.9" y1="227.8" x2="180.7" y2="227.8"/>
			<polyline class="st48" points="22.7,159.3 22.6,159.2 21.7,158.8 			"/>
			<line class="st48" x1="424.1" y1="287.6" x2="426" y2="235.7"/>
			<line class="st48" x1="40" y1="202.5" x2="42.9" y2="248.7"/>
			<line class="st48" x1="46.9" y1="303" x2="50.4" y2="305.5"/>
			<polyline class="st48" points="201.5,411.3 201.6,411.2 207.7,409.5 212.4,408.1 			"/>
			<polyline class="st48" points="427.4,197.1 423,197.9 418.1,198.7 			"/>
			<polyline class="st48" points="219.9,204.2 358.4,182.6 418,173.2 418,173.2 			"/>
			<polyline class="st48" points="286,387.1 286,387 286,376 			"/>
			<line class="st48" x1="209.6" y1="237.2" x2="211" y2="237"/>
			<line class="st48" x1="286.7" y1="223.6" x2="287.9" y2="223.4"/>
			<line class="st48" x1="70.7" y1="67" x2="38.8" y2="105.3"/>
			<line class="st48" x1="103.9" y1="27.1" x2="72.7" y2="64.6"/>
			<polyline class="st48" points="439.3,138.6 437.3,136.2 405.7,95.8 			"/>
			<line class="st48" x1="437.4" y1="136.1" x2="405.8" y2="95.7"/>
			<line class="st48" x1="403.7" y1="93.1" x2="369.5" y2="49.5"/>
			<line class="st48" x1="445.8" y1="146.9" x2="439.3" y2="138.6"/>
			<polyline class="st48" points="213.2,203 213.2,202.8 213.2,202.5 			"/>
			<polyline class="st48" points="418,200.4 418,201.6 416.9,232.3 			"/>
			<line class="st48" x1="414.8" y1="294.9" x2="413.3" y2="340"/>
			<line class="st48" x1="392.3" y1="117.7" x2="392.6" y2="118.1"/>
			<line class="st48" x1="46.6" y1="330.4" x2="47.9" y2="331.4"/>
			<line class="st48" x1="191.6" y1="439.6" x2="192.8" y2="439.2"/>
			<polyline class="st48" points="343.3,17.3 344.4,18.8 344.5,18.9 345,19.6 			"/>
			<line class="st48" x1="339.5" y1="37.2" x2="341.8" y2="34.3"/>
			<polyline class="st48" points="204.6,231.6 196,233 196,233 			"/>
			<polyline class="st48" points="219.9,204.2 220,204.3 220.4,228.8 			"/>
			<polyline class="st48" points="87.2,187.2 79.5,183.9 78.4,183.4 75.1,182 			"/>
			<polyline class="st48" points="134.1,207.5 132.7,206.9 127.5,204.7 			"/>
			<polyline class="st48" points="21.7,158.8 20.5,158.3 13.5,155.3 12.6,154.9 			"/>
			<line class="st48" x1="50.4" y1="305.5" x2="50.5" y2="305.6"/>
			<polyline class="st48" points="212.1,396.6 212.4,408.1 212.4,408.1 			"/>
			<polyline class="st48" points="418,173.2 422.9,172.5 423.1,172.4 			"/>
			<line class="st48" x1="211" y1="237" x2="275.3" y2="225.6"/>
			<line class="st48" x1="287.9" y1="223.4" x2="355.4" y2="211.5"/>
			<polyline class="st48" points="339.7,19.1 338.7,19 321.5,17.7 			"/>
			<line class="st48" x1="318.3" y1="17.5" x2="302.9" y2="16.3"/>
			<line class="st48" x1="299.8" y1="16.1" x2="284.4" y2="14.9"/>
			<line class="st48" x1="415" y1="289.8" x2="414.8" y2="294.9"/>
			<line class="st48" x1="379.9" y1="102.4" x2="392.3" y2="117.7"/>
			<polyline class="st48" points="396.1,122.4 408.1,137.2 408.4,137.5 			"/>
			<polyline class="st48" points="411.7,141.7 419.9,151.7 420.2,152.1 			"/>
			<line class="st48" x1="359.1" y1="76.8" x2="359.4" y2="77.1"/>
			<line class="st48" x1="47.9" y1="331.4" x2="49.7" y2="332.8"/>
			<line class="st48" x1="192.8" y1="439.2" x2="194.7" y2="438.6"/>
			<line class="st48" x1="357" y1="54" x2="345.7" y2="39.9"/>
			<line class="st48" x1="338.1" y1="39.1" x2="339.5" y2="37.2"/>
			<polyline class="st48" points="408.1,352.1 412.4,350.9 412.5,350.8 417.1,349.5 422,348.1 			"/>
			<polyline class="st48" points="75.1,182 67.5,178.7 66.4,178.2 63.5,176.9 			"/>
			<line class="st48" x1="54.9" y1="173.2" x2="52.4" y2="172.1"/>
			<polyline class="st48" points="180.7,227.8 173.6,224.6 165.2,221 163.6,220.3 			"/>
			<polyline class="st48" points="148.1,213.6 142.3,211.1 134.1,207.5 			"/>
			<line class="st48" x1="127.5" y1="204.7" x2="119.4" y2="201.2"/>
			<line class="st48" x1="3.5" y1="150.9" x2="2.2" y2="150.4"/>
			<polyline class="st48" points="275.3,225.6 276.6,225.4 277,225.3 			"/>
			<line class="st48" x1="355.4" y1="211.5" x2="417" y2="200.6"/>
			<polyline class="st48" points="321.5,17.7 320.1,17.6 318.3,17.5 			"/>
			<polyline class="st48" points="302.9,16.3 301.6,16.2 299.8,16.1 			"/>
			<polyline class="st48" points="284.4,14.9 283.1,14.8 281.4,14.7 266.8,13.6 			"/>
			<polyline class="st48" points="416.9,232.3 416.8,237.6 415,289.8 			"/>
			<line class="st48" x1="345.7" y1="60.3" x2="359.1" y2="76.8"/>
			<line class="st48" x1="49.7" y1="332.8" x2="52" y2="334.5"/>
			<line class="st48" x1="194.7" y1="438.6" x2="197.2" y2="437.9"/>
			<line class="st48" x1="374.2" y1="75.6" x2="363.9" y2="62.6"/>
			<polyline class="st48" points="360,57.7 357.7,54.9 357,54 			"/>
			<polyline class="st48" points="281.5,113.3 333.5,45.1 338.1,39.1 			"/>
			<polyline class="st48" points="63.5,176.9 56,173.7 54.9,173.2 			"/>
			<line class="st48" x1="149.6" y1="214.3" x2="148.1" y2="213.6"/>
			<line class="st48" x1="119.4" y1="201.2" x2="118.1" y2="200.6"/>
			<line class="st48" x1="12.6" y1="154.9" x2="11.2" y2="154.3"/>
			<polyline class="st48" points="50.5,305.6 52.6,307.1 52.7,307.1 			"/>
			<polyline class="st48" points="417,200.6 418,200.4 418.4,200.4 			"/>
			<line class="st48" x1="423.3" y1="158.2" x2="423.4" y2="158.1"/>
			<line class="st48" x1="376" y1="97.6" x2="376.3" y2="98"/>
			<line class="st48" x1="52" y1="334.5" x2="54.5" y2="336.5"/>
			<line class="st48" x1="197.2" y1="437.9" x2="200.1" y2="437"/>
			<polyline class="st48" points="408.5,118.5 406.8,116.5 398.1,105.6 			"/>
			<line class="st48" x1="394.5" y1="101" x2="392.1" y2="98.1"/>
			<polyline class="st48" points="377.5,79.8 375.2,76.9 374.2,75.6 			"/>
			<polyline class="st48" points="52.4,172.1 45,168.9 44,168.5 41.8,167.5 			"/>
			<polyline class="st48" points="163.6,220.3 157.9,217.8 149.6,214.3 			"/>
			<line class="st48" x1="118.1" y1="200.6" x2="113.4" y2="198.6"/>
			<polyline class="st48" points="11.2,154.3 4.3,151.3 3.5,150.9 			"/>
			<polyline class="st48" points="52.6,307.1 58.1,310.9 64.6,315.6 			"/>
			<polyline class="st48" points="266.8,13.6 265.5,13.5 263.9,13.4 250,12.3 			"/>
			<line class="st48" x1="423.4" y1="158.1" x2="423.4" y2="156.5"/>
			<line class="st48" x1="363.1" y1="81.7" x2="376" y2="97.6"/>
			<line class="st48" x1="54.5" y1="336.5" x2="57.1" y2="338.5"/>
			<line class="st48" x1="200.1" y1="437" x2="203.3" y2="436"/>
			<line class="st48" x1="422.3" y1="135.9" x2="414.4" y2="125.9"/>
			<line class="st48" x1="410.9" y1="121.6" x2="408.5" y2="118.5"/>
			<polyline class="st48" points="392.1,98.1 390.8,96.4 381.3,84.5 			"/>
			<line class="st48" x1="23.5" y1="159.6" x2="22.7" y2="159.3"/>
			<polyline class="st48" points="64.6,315.6 68.3,318.2 78.6,325.5 85.7,330.5 			"/>
			<polyline class="st48" points="423.4,156.5 423.4,156.1 423.4,156.1 			"/>
			<line class="st48" x1="203.3" y1="436" x2="206.4" y2="435.1"/>
			<line class="st48" x1="41.8" y1="167.5" x2="34.5" y2="164.4"/>
			<polyline class="st48" points="113.4,198.6 105.4,195.1 104.2,194.6 			"/>
			<line class="st48" x1="91" y1="188.9" x2="90.2" y2="188.5"/>
			<polyline class="st48" points="250,12.3 248.7,12.2 247.2,12.1 			"/>
			<line class="st48" x1="57.1" y1="338.5" x2="58" y2="339.1"/>
			<line class="st48" x1="66" y1="345.3" x2="69.1" y2="347.7"/>
			<line class="st48" x1="206.4" y1="435.1" x2="209.4" y2="434.2"/>
			<polyline class="st48" points="443.3,162.2 442.1,160.7 441.8,160.3 			"/>
			<line class="st48" x1="424.2" y1="138.3" x2="422.3" y2="135.9"/>
			<line class="st48" x1="34.5" y1="164.4" x2="33.5" y2="164"/>
			<line class="st48" x1="92.2" y1="189.4" x2="91" y2="188.8"/>
			<polyline class="st48" points="85.7,330.5 89.5,333.2 100.9,341.3 108.6,346.8 			"/>
			<polyline class="st48" points="247.2,12.1 238.2,11.4 234,11.1 			"/>
			<line class="st48" x1="62.2" y1="342.3" x2="66" y2="345.3"/>
			<line class="st48" x1="69.1" y1="347.7" x2="71.3" y2="349.3"/>
			<line class="st48" x1="209.4" y1="434.2" x2="211.9" y2="433.4"/>
			<line class="st48" x1="426.6" y1="141.4" x2="424.2" y2="138.3"/>
			<line class="st48" x1="33.5" y1="164" x2="31.6" y2="163.1"/>
			<polyline class="st48" points="104.2,194.6 100,192.8 92.2,189.4 			"/>
			<polyline class="st48" points="234,11.1 232.7,11 231.3,10.9 218.7,10 			"/>
			<polyline class="st48" points="58,339.1 60.4,341 62.2,342.3 			"/>
			<line class="st48" x1="71.3" y1="349.3" x2="72.5" y2="350.2"/>
			<line class="st48" x1="211.9" y1="433.4" x2="213.8" y2="432.9"/>
			<polyline class="st48" points="31.6,163.1 24.5,160 23.5,159.6 			"/>
			<polyline class="st48" points="108.6,346.8 112.5,349.5 125.2,358.6 133.7,364.6 			"/>
			<polyline class="st48" points="72.5,350.2 72.5,350.2 189.8,440.1 			"/>
			<line class="st48" x1="213.8" y1="432.9" x2="215" y2="432.5"/>
			<polyline class="st48" points="218.7,10 217.5,9.9 216.1,9.8 204.1,8.9 			"/>
			<line class="st48" x1="215" y1="432.5" x2="215.4" y2="432.4"/>
			<polyline class="st48" points="438.5,156.2 436,153.1 430,145.6 			"/>
			<polyline class="st48" points="133.7,364.6 137.6,367.3 151.8,377.4 161.1,384 			"/>
			<polyline class="st48" points="204.1,8.9 202.9,8.8 201.6,8.7 190.2,7.8 			"/>
			<polyline class="st48" points="215.4,432.4 401.2,376.3 401.4,376.2 			"/>
			<polyline class="st48" points="161.1,384 165.2,386.9 181.1,398.2 191.3,405.5 			"/>
			<polyline class="st48" points="403.9,375.4 406,374.8 408.6,374 			"/>
			<line class="st48" x1="191.3" y1="405.5" x2="195.5" y2="408.4"/>
			<polyline class="st48" points="190.2,7.8 189,7.7 187.7,7.6 176.8,6.8 			"/>
			<polyline class="st48" points="401.4,376.2 402.3,375.9 403.9,375.4 			"/>
			<line class="st48" x1="408.6" y1="374" x2="411.4" y2="373.2"/>
			<line class="st48" x1="195.5" y1="408.4" x2="197.8" y2="410"/>
			<line class="st48" x1="411.4" y1="373.2" x2="414.2" y2="372.3"/>
			<line class="st48" x1="197.8" y1="410" x2="197.9" y2="410.1"/>
			<polyline class="st48" points="176.8,6.8 175.6,6.7 174.4,6.6 			"/>
			<line class="st48" x1="414.2" y1="372.3" x2="416.8" y2="371.5"/>
			<line class="st48" x1="200" y1="411.6" x2="200.1" y2="411.7"/>
			<line class="st48" x1="422.6" y1="369.8" x2="455.5" y2="359.8"/>
			<line class="st48" x1="197.9" y1="410.1" x2="199.9" y2="411.5"/>
			<line class="st48" x1="174.4" y1="6.6" x2="164" y2="5.8"/>
			<line class="st48" x1="147.2" y1="4.5" x2="138.3" y2="3.9"/>
			<line class="st48" x1="136.1" y1="3.7" x2="127.1" y2="3"/>
			<line class="st48" x1="124.9" y1="2.9" x2="124.1" y2="2.8"/>
			<line class="st48" x1="422.1" y1="369.9" x2="422.6" y2="369.8"/>
			<polyline class="st48" points="149.5,4.7 148.3,4.6 147.2,4.5 			"/>
			<polyline class="st48" points="138.3,3.9 137.2,3.8 136.1,3.7 			"/>
			<polyline class="st48" points="127.1,3 126,2.9 124.9,2.9 			"/>
			<line class="st48" x1="420.9" y1="370.3" x2="422.1" y2="369.9"/>
			<polyline class="st48" points="164,5.8 162.8,5.7 161.7,5.6 151.7,4.9 			"/>
			<polyline class="st48" points="416.8,371.5 419.1,370.8 420.9,370.3 			"/>
			<polyline class="st48" points="151.7,4.9 150.6,4.8 149.5,4.7 			"/>
			<line class="st48" x1="448.3" y1="166.5" x2="447.9" y2="176.3"/>
			<line class="st48" x1="446.2" y1="166.4" x2="445.8" y2="176.7"/>
			<line class="st48" x1="213.2" y1="203" x2="213.4" y2="214.4"/>
			<line class="st48" x1="423.3" y1="161" x2="423.3" y2="158.2"/>
			<line class="st48" x1="286" y1="376" x2="286" y2="223.4"/>
			<line class="st48" x1="401.5" y1="117.2" x2="402.7" y2="115.7"/>
			<line class="st48" x1="416.9" y1="136.8" x2="418.1" y2="135"/>
			<line class="st48" x1="423.3" y1="161" x2="422.9" y2="172.1"/>
			<line class="st48" x1="445.1" y1="177.7" x2="444.6" y2="190.2"/>
			<line class="st48" x1="211.1" y1="345.1" x2="198.6" y2="348.2"/>
			<line class="st48" x1="239.3" y1="9.7" x2="343.3" y2="17.3"/>
			<line class="st48" x1="127.1" y1="1.5" x2="239.3" y2="9.7"/>
			<line class="st48" x1="200.1" y1="411.7" x2="201.5" y2="411.3"/>
			<line class="st48" x1="197.1" y1="282.4" x2="209.8" y2="279.8"/>
		</g>
	</g>
</g>
</svg>
