<?xml version="1.0" encoding="utf-8"?>
<!-- Generator: Adobe Illustrator 20.1.0, SVG Export Plug-In . SVG Version: 6.00 Build 0)  -->
<svg version="1.1" id="Layer_29" xmlns="http://www.w3.org/2000/svg" xmlns:xlink="http://www.w3.org/1999/xlink" x="0px" y="0px"
	 viewBox="0 0 473.1 487.1" style="enable-background:new 0 0 473.1 487.1;" xml:space="preserve">
<style type="text/css">
	.st0{fill:#D1A46E;}
	.st1{fill:#F7C283;}
	.st2{fill:#D4A670;}
	.st3{fill:#9F7C52;}
	.st4{fill:#2C2C2C;}
	.st5{fill:#DFC093;}
	.st6{fill:#242424;}
	.st7{fill:#222222;}
	.st8{fill:#363636;}
	.st9{fill:#BDA27C;}
	.st10{fill:#414141;}
	.st11{fill:#8A8A8B;}
	.st12{fill:#997D21;}
	.st13{fill:#777777;}
	.st14{fill:#A4A4A5;}
	.st15{fill:#8C8D8D;}
	.st16{fill:#BBBBBC;}
	.st17{fill:#9E9E9E;}
	.st18{fill:#686868;}
	.st19{fill:#99774F;}
	.st20{fill:#897659;}
	.st21{fill:#543404;}
	.st22{fill:#6A4109;}
	.st23{fill:#87550D;}
	.st24{fill:#9F6512;}
	.st25{fill:#B17115;}
	.st26{fill:#BD7918;}
	.st27{fill:#C27C19;}
	.st28{fill:#BF7B18;}
	.st29{fill:#B67416;}
	.st30{fill:#A66A14;}
	.st31{fill:#915B0F;}
	.st32{fill:#75490A;}
	.st33{fill:#6F4508;}
	.st34{fill:#7D4621;}
	.st35{fill:#9F592B;}
	.st36{fill:#A75E2E;}
	.st37{fill:#A45C2E;}
	.st38{fill:#915127;}
	.st39{fill:#653718;}
	.st40{fill:#A95F2F;}
	.st41{fill:#8A4D25;}
	.st42{fill:#75411E;}
	.st43{fill:#5B3115;}
	.st44{fill:#49260E;}
	.st45{fill:#171717;}
	.st46{fill:none;stroke:#000000;stroke-width:0.5;stroke-linecap:round;stroke-linejoin:round;stroke-miterlimit:10;}
	.st47{fill:none;stroke:#000000;stroke-linecap:round;stroke-linejoin:round;stroke-miterlimit:10;}
</style>
<g>
	<g>
		<g>
			<polygon class="st0" points="302.9,16.2 302.9,14.4 319.6,15.6 318.3,17.4 			"/>
			<polygon class="st1" points="302.9,14.4 302.9,16.2 301.6,16.1 			"/>
			<polygon class="st2" points="302.9,14.4 301.6,16.1 299.8,16 301.1,14.3 			"/>
			<polygon class="st3" points="302.9,14.4 301.1,14.3 284.4,13.1 282.7,12.9 266.8,11.8 265.1,11.7 250,10.5 248.4,10.4 238.1,9.7 
				239.3,9.6 342.1,17.1 342,17.3 321.5,15.8 319.6,15.6 			"/>
			<polygon class="st2" points="282.7,12.9 284.4,13.1 283.1,14.7 281.4,14.6 			"/>
			<polygon class="st2" points="319.6,15.6 321.5,15.8 320.1,17.5 318.3,17.4 			"/>
			<polygon class="st2" points="265.1,11.7 266.8,11.8 265.5,13.4 263.9,13.3 			"/>
			<polygon class="st2" points="248.4,10.4 250,10.5 248.7,12.1 247.2,12 			"/>
			<polygon class="st3" points="239.3,9.6 238.1,9.7 234,9.4 232.5,9.3 218.7,8.3 217.3,8.1 204.1,7.2 202.8,7.1 190.1,6.2 
				188.9,6.1 176.8,5.2 175.6,5.1 164,4.2 162.8,4.2 151.7,3.3 150.6,3.3 149.5,3.2 148.3,3.1 138.3,2.4 137.2,2.3 127,1.5 126,1.5 
				126.5,1.4 127.1,1.4 			"/>
			<polygon class="st4" points="126.5,1.4 127.1,1.4 126.5,0.9 			"/>
			<polygon class="st4" points="126,1.5 126.5,1.4 126.5,0.9 			"/>
			<polygon class="st2" points="232.5,9.3 234,9.4 232.7,10.9 231.3,10.8 			"/>
			<polygon class="st2" points="217.3,8.1 218.7,8.2 217.5,9.8 216.1,9.7 			"/>
			<polygon class="st2" points="202.8,7.1 204.1,7.2 202.9,8.7 201.6,8.6 			"/>
			<polygon class="st2" points="188.9,6.1 190.1,6.2 189,7.6 187.7,7.5 			"/>
			<polygon class="st2" points="148.3,3.1 149.5,3.2 148.3,4.5 147.2,4.4 			"/>
			<polygon class="st2" points="175.6,5.1 176.8,5.2 175.6,6.6 174.4,6.5 			"/>
			<polygon class="st2" points="162.8,4.2 164,4.2 162.8,5.6 161.7,5.5 			"/>
			<polygon class="st2" points="150.6,3.3 151.7,3.3 150.6,4.7 149.5,4.6 149.5,4.6 			"/>
			<polygon class="st2" points="137.2,2.3 138.3,2.4 137.2,3.7 136.1,3.6 			"/>
			<polygon class="st0" points="137.2,2.3 136.1,3.6 127.1,2.9 127,1.5 			"/>
			<polygon class="st1" points="127,1.5 127.1,2.9 126,2.8 			"/>
			<polygon class="st1" points="137.2,3.7 138.3,2.4 138.3,3.8 			"/>
			<polygon class="st0" points="138.3,3.8 138.3,2.4 148.3,3.1 147.2,4.4 			"/>
			<polygon class="st1" points="148.3,4.5 149.5,3.2 149.5,4.6 149.5,4.6 			"/>
			<polygon class="st0" points="149.5,4.6 149.5,3.2 150.6,3.3 			"/>
			<polygon class="st2" points="127,1.5 126,2.8 124.9,2.8 126,1.5 			"/>
			<polygon class="st0" points="301.1,14.3 299.8,16 284.4,14.8 284.4,13.1 			"/>
			<polygon class="st1" points="284.4,13.1 284.4,14.8 283.1,14.7 			"/>
			<polygon class="st1" points="320.1,17.5 321.5,15.8 321.5,17.6 			"/>
			<polygon class="st0" points="321.5,17.6 321.5,15.8 342,17.3 342,17.3 340,17.1 338.7,18.9 			"/>
			<polygon class="st2" points="340,17.1 342,17.3 340.2,19.7 339.7,19.1 339.7,19 338.7,18.9 			"/>
			<polygon class="st0" points="282.7,12.9 281.4,14.6 266.8,13.5 266.8,11.8 			"/>
			<polygon class="st1" points="266.8,11.8 266.8,13.5 265.5,13.4 			"/>
			<polygon class="st0" points="265.1,11.7 263.9,13.3 250,12.2 250,10.5 			"/>
			<polygon class="st1" points="250,10.5 250,12.2 248.7,12.1 			"/>
			<polygon class="st0" points="248.4,10.4 247.2,12 238.2,11.3 238.1,9.7 			"/>
			<polygon class="st0" points="238.1,9.7 238.2,11.3 234,11 234,9.4 			"/>
			<polygon class="st1" points="234,9.4 234,11 232.7,10.9 			"/>
			<polygon class="st0" points="232.5,9.3 231.3,10.8 218.7,9.9 218.7,8.2 			"/>
			<polygon class="st1" points="218.7,8.2 218.7,9.9 217.5,9.8 			"/>
			<polygon class="st0" points="217.3,8.1 216.1,9.7 204.1,8.8 204.1,7.2 			"/>
			<polygon class="st1" points="204.1,7.2 204.1,8.8 202.9,8.7 			"/>
			<polygon class="st0" points="202.8,7.1 201.6,8.6 190.2,7.7 190.1,6.2 			"/>
			<polygon class="st1" points="190.1,6.2 190.2,7.7 189,7.6 			"/>
			<polygon class="st0" points="188.9,6.1 187.7,7.5 176.8,6.7 176.8,5.2 			"/>
			<polygon class="st1" points="176.8,5.2 176.8,6.7 175.6,6.6 			"/>
			<polygon class="st0" points="175.6,5.1 174.4,6.5 164,5.7 164,4.2 			"/>
			<polygon class="st1" points="164,4.2 164,5.7 162.8,5.6 			"/>
			<polygon class="st0" points="162.8,4.2 161.7,5.5 151.7,4.8 151.7,3.3 			"/>
			<polygon class="st1" points="151.7,3.3 151.7,4.8 150.6,4.7 			"/>
			<polygon class="st5" points="339.7,19.1 340.2,19.7 280.4,97.7 280,97.2 313.8,53 316.3,49.8 			"/>
			<polygon class="st5" points="280,97.2 280.4,97.7 218,179.3 217.4,178.8 226.6,166.8 229.2,163.4 270.9,109 273.4,105.7 			"/>
			<polygon class="st6" points="218,179.3 280.4,97.7 340.2,19.7 342,17.3 342,17.3 342.1,17.1 342.6,16.4 343.6,16.5 181.7,228.1 
				180.9,227.7 180.9,227.7 180.9,227.7 			"/>
			<polygon class="st7" points="180.9,227.7 180.9,227.7 181.1,237.1 101.3,201.3 100.9,193 100.9,193 			"/>
			<polygon class="st8" points="101.3,201.3 181.1,237.1 182,237.5 191.6,235.8 196,235.1 196.1,237.5 197,276.3 39.7,197.8 
				38.1,173 			"/>
			<polygon class="st8" points="39.7,197.8 197,276.3 197.1,282.3 40,202.4 			"/>
			<polygon class="st7" points="100.9,193 101.3,201.3 38.1,173 2.7,157.1 2.7,156.5 2.2,150.3 2.2,150.3 22.7,159.2 22.7,159.2 
				90.2,188.4 90.2,188.4 			"/>
			<polygon class="st9" points="2.2,150.3 2.2,150.3 2.2,150.3 2.2,149.7 2.2,149.5 22.7,158.3 22.7,159.2 			"/>
			<polygon class="st9" points="22.7,159.2 22.7,159.2 22.7,158.3 90.1,187.4 90.2,188.4 			"/>
			<polygon class="st6" points="90.1,187.4 22.7,158.3 2.2,149.5 2.1,149.4 180.8,226.5 180.9,226.6 			"/>
			<polygon class="st6" points="1.8,150.1 2.2,150.3 2.2,150.3 2.2,149.7 			"/>
			<polygon class="st5" points="217.4,178.8 218,179.3 180.9,227.7 180.9,226.6 			"/>
			<polygon class="st10" points="217.4,178.8 180.9,226.6 180.8,226.5 226.5,166.7 226.6,166.8 			"/>
			<polygon class="st10" points="226.6,166.8 226.5,166.7 229.2,163.3 229.2,163.4 			"/>
			<polygon class="st9" points="180.9,226.6 180.9,227.7 100.9,193 100.9,193 90.2,188.4 90.1,187.4 			"/>
			<polygon class="st8" points="40,202.4 197.1,282.3 198.5,342.2 42.9,248.6 			"/>
			<polygon class="st8" points="42.9,248.6 198.5,342.2 198.6,348.1 43.2,253.1 			"/>
			<polygon class="st8" points="43.2,253.1 198.6,348.1 200.1,411.6 200,411.5 199.7,399.4 195.1,396.2 195.1,396.7 199.6,399.8 
				199.9,411.4 197.9,410 197.8,409.9 195.5,408.3 191.3,405.4 181.1,398.1 165.2,386.8 161.1,383.9 151.8,377.3 137.6,367.2 
				133.7,364.5 125.2,358.5 112.5,349.4 108.6,346.7 100.9,341.2 89.5,333.1 85.7,330.4 78.6,325.4 68.3,318.1 64.6,315.5 
				58.1,310.8 52.6,307 52.6,307 50.5,305.5 50.4,305.4 46.9,302.9 46.3,302.5 			"/>
			<polygon class="st11" points="199.7,399.4 200,411.5 199.9,411.4 199.6,399.8 195.1,396.7 195.1,396.2 			"/>
			<polygon class="st12" points="199.9,411.4 200,411.5 200.1,411.6 201.5,411.2 201.6,418.9 198,416.3 197.9,410 			"/>
			<polygon class="st13" points="198,416.3 201.6,418.9 201.7,419 207.9,417.2 207.8,413.8 208.2,413.9 209.6,414.5 210.6,415.3 
				211,416.2 210.9,417.1 210.3,418 209.1,418.9 207.6,419.6 205.7,420 203.6,420.3 201.4,420.3 199.4,420.1 197.6,419.7 196.2,419 
				195.2,418.2 194.8,417.3 194.9,416.4 195.6,415.5 196.8,414.7 197.9,414.2 197.9,416.3 			"/>
			<polygon class="st14" points="207.9,417.2 201.7,419 201.6,411.1 207.7,409.4 207.8,413.8 			"/>
			<polygon class="st11" points="197.9,414.2 197.9,416.3 198,416.3 197.9,410 197.8,409.9 			"/>
			<polygon class="st11" points="201.5,411.2 201.6,418.9 201.7,419 201.6,411.1 			"/>
			<polygon class="st13" points="194.8,417.3 195.2,418.2 196.2,419 197.6,419.7 199.4,420.1 201.4,420.3 203.6,420.3 205.7,420 
				207.6,419.6 209.1,418.9 210.3,418 210.9,417.1 211,416.2 210.6,415.3 209.6,414.5 208.2,413.9 207.8,413.8 207.7,409.4 
				212.4,408 212.4,408 276.3,389.7 276.4,389.7 286,387 286,386.9 408,352 408,353.8 407.4,353.9 406.3,354.4 405.6,355.1 
				405.3,355.7 405.6,356.4 406.3,357.1 407.5,357.7 409,358.2 410.7,358.5 412.5,358.7 414.4,358.7 416.1,358.5 417.5,358.1 
				418.6,357.6 419.3,357 419.5,356.3 419.2,355.6 418.5,354.9 417.3,354.3 417,354.2 417.1,349.4 422,348 422.2,344 455.6,358.9 
				189.8,439 19,308.5 46.9,302.9 50.4,305.4 50.7,309.4 50.2,309.5 49.1,310 48.4,310.5 48.1,311 48.2,311.6 48.7,312 49.6,312.4 
				50.9,312.7 52.4,312.8 54,312.8 55.7,312.7 57.3,312.4 58.1,312.1 58.3,314.1 64.8,318.8 68.3,318.1 78.6,325.4 78.8,328.8 
				85.9,333.9 89.5,333.1 100.9,341.2 101.1,344.8 108.8,350.3 112.5,349.4 125.2,358.5 125.4,362.1 133.8,368.2 137.6,367.2 
				151.8,377.3 152,381.2 161.2,387.8 165.2,386.8 181.1,398.1 181.2,402.1 191.4,409.4 195.5,408.3 197.8,409.9 197.9,414.2 
				196.8,414.7 195.6,415.5 194.9,416.4 			"/>
			<polygon class="st15" points="406.3,357.1 405.6,356.4 405.3,355.7 405.6,355.1 406.3,354.4 407.4,353.9 408,353.8 407.9,355.7 
				408,355.7 412.1,357.6 412.3,357.7 416.9,356.4 417,354.2 417.3,354.3 418.5,354.9 419.2,355.6 419.5,356.3 419.3,357 
				418.6,357.6 417.5,358.1 416.1,358.5 414.4,358.7 412.5,358.7 410.7,358.5 409,358.2 407.5,357.7 			"/>
			<polygon class="st14" points="416.9,356.4 412.3,357.7 412.5,350.7 417.1,349.4 417,354.2 			"/>
			<polygon class="st11" points="408,352 408,353.8 407.9,355.7 408,355.7 408.1,352 			"/>
			<polygon class="st11" points="412.4,350.8 412.1,357.6 412.3,357.7 412.5,350.7 			"/>
			<polygon class="st12" points="412.1,357.6 408,355.7 408.1,352 412.4,350.8 			"/>
			<polygon class="st15" points="48.2,311.6 48.1,311 48.4,310.5 49.1,310 50.2,309.5 50.7,309.4 50.7,310.4 50.8,310.5 52.9,312 
				53,312 58.1,311 58.1,312.1 57.3,312.4 55.7,312.7 54,312.8 52.4,312.8 50.9,312.7 49.6,312.4 48.7,312 			"/>
			<polygon class="st14" points="58.1,311 53,312 52.7,307 58.1,310.8 			"/>
			<polygon class="st11" points="50.7,309.4 50.7,310.4 50.8,310.5 50.5,305.5 50.4,305.4 			"/>
			<polygon class="st11" points="52.9,312 53,312 52.6,307 52.6,307 			"/>
			<polygon class="st12" points="52.9,312 50.8,310.5 50.5,305.5 52.6,307 			"/>
			<polygon class="st16" points="165.2,386.8 161.2,387.8 161.1,383.9 			"/>
			<polygon class="st17" points="161.2,387.8 152,381.2 151.8,377.3 161.1,383.9 			"/>
			<polygon class="st16" points="195.5,408.3 191.4,409.4 191.3,405.4 			"/>
			<polygon class="st17" points="191.4,409.4 181.2,402.1 181.1,398.1 191.3,405.4 			"/>
			<polygon class="st16" points="137.6,367.2 133.8,368.2 133.7,364.5 			"/>
			<polygon class="st17" points="133.8,368.2 125.4,362.1 125.2,358.5 133.7,364.5 			"/>
			<polygon class="st16" points="112.5,349.4 108.8,350.3 108.6,346.7 			"/>
			<polygon class="st17" points="108.8,350.3 101.1,344.8 100.9,341.2 108.6,346.7 			"/>
			<polygon class="st16" points="89.5,333.1 85.9,333.9 85.7,330.4 			"/>
			<polygon class="st17" points="85.9,333.9 78.8,328.8 78.6,325.4 85.7,330.4 			"/>
			<polygon class="st16" points="68.3,318.1 64.8,318.8 64.6,315.5 			"/>
			<polygon class="st17" points="64.8,318.8 58.3,314.1 58.1,312.1 58.1,311 58.1,310.8 64.6,315.5 			"/>
			<polygon class="st14" points="276.3,389.7 212.4,408 212.1,396.5 212.7,396.9 214.1,396.5 275.7,379.3 276.3,379.2 			"/>
			<polygon class="st8" points="276.3,379.2 276.3,389.7 276.4,389.7 276.3,379.1 			"/>
			<polygon class="st7" points="212.7,396.9 212.1,396.5 211.1,345 211,339.1 209.8,279.7 209.7,273.7 209,236.9 209.5,237.2 
				209.6,237.1 			"/>
			<polygon class="st4" points="212.7,396.9 209.6,237.1 211,236.9 214.1,396.5 			"/>
			<polygon class="st5" points="214.1,396.5 211,236.9 275.3,225.5 275.7,379.3 			"/>
			<polygon class="st4" points="275.7,379.3 275.3,225.5 276.6,225.3 277,379 276.3,379.1 276.3,379.2 			"/>
			<polygon class="st10" points="277,379 276.6,225.3 277,225.2 277,223.5 276.7,223.4 285.8,221.8 285.8,223.2 286,223.3 
				286,375.9 286,386.9 286,387 276.4,389.7 276.3,379.1 			"/>
			<polygon class="st11" points="285.9,221.8 285.8,221.8 285.8,223.2 286,223.3 286.6,223.5 286.6,221.8 285.9,221.6 			"/>
			<polygon class="st10" points="285.9,221.6 285.9,221.8 285.8,221.8 276.7,223.4 276.2,223.2 208.8,235.1 208.8,235.3 
				208.7,235.3 196.2,237.5 196.1,235.1 209.5,232.7 222.7,230.4 222.4,215.6 222.3,210 423,177.8 422.7,185.2 423.3,185.4 
				423.2,187.2 428,188.4 427.7,196.9 427.4,197 423,197.8 418.1,198.6 417.6,198.5 			"/>
			<polygon class="st18" points="285.9,221.6 417.6,198.5 418.1,198.6 418.4,198.7 286.6,221.8 			"/>
			<polygon class="st18" points="208.8,235.1 276.2,223.2 276.7,223.4 277,223.5 209.5,235.3 			"/>
			<polygon class="st11" points="208.8,235.3 208.7,235.3 208.8,236.8 209,236.9 209.5,237.2 209.5,235.3 208.8,235.1 			"/>
			<polygon class="st10" points="208.7,235.3 208.8,236.8 209,236.9 209.7,273.7 197,276.3 196.1,237.5 196.2,237.5 			"/>
			<polygon class="st0" points="423.3,185.4 422.7,185.2 423,177.8 423.2,172.4 423.6,161 424.1,161.1 423.8,170.6 423.4,182.5 			
				"/>
			<polygon class="st0" points="423.6,161 424.1,161.1 424.2,158.3 423.7,158.2 			"/>
			<polygon class="st10" points="423.7,158.2 423.6,161 423.2,172.4 222.2,203.8 222.1,195.8 268.2,135.2 394.9,120.5 396.4,122.4 
				408.2,136.9 408.7,137.5 412.1,141.7 420,151.5 420.5,152.1 423.7,156.1 423.7,156.1 423.7,156.8 423.7,157.9 			"/>
			<polygon class="st19" points="412.1,141.7 408.7,137.5 425.9,141.1 429.3,145.3 425.9,144.6 			"/>
			<polygon class="st19" points="423.7,156.1 420.5,152.1 437.7,155.9 440,158.7 424.3,155.2 424.3,156.2 			"/>
			<polygon class="st7" points="424.3,155.2 440,158.7 442.6,162 442.1,175.1 423.8,170.6 424.1,161.1 424.2,158.3 424.2,157.8 
				424.3,157.5 424.3,156.2 			"/>
			<polygon class="st10" points="222.2,203.8 423.2,172.4 423,177.8 222.3,210 			"/>
			<polygon class="st3" points="423.7,157.9 423.7,158.2 424.2,158.3 424.2,157.8 			"/>
			<polygon class="st1" points="423.7,157.9 424.2,157.8 424.3,157.5 423.7,156.8 			"/>
			<polygon class="st1" points="423.7,156.8 424.3,157.5 424.3,156.2 423.7,156.1 			"/>
			<polygon class="st2" points="425.9,141.1 408.7,137.5 408.2,136.9 409.5,135.1 416.9,136.7 423.5,138 			"/>
			<polygon class="st1" points="409.5,135.1 408.2,136.9 396.4,122.4 410.2,125 418.1,134.9 416.9,136.7 			"/>
			<polygon class="st2" points="437.7,155.9 420.5,152.1 420,151.5 421.3,149.7 431.8,152.1 435.3,152.8 			"/>
			<polygon class="st1" points="421.3,149.7 420,151.5 412.1,141.7 425.9,144.6 431.8,152.1 			"/>
			<polygon class="st20" points="431.8,152.1 425.9,144.6 429.3,145.3 435.3,152.8 			"/>
			<polygon class="st20" points="418.1,134.9 410.2,125 413.6,125.7 421.6,135.6 			"/>
			<polygon class="st2" points="418.1,134.9 421.6,135.6 423.5,138 416.9,136.7 			"/>
			<polygon class="st16" points="189.8,439 455.5,358.9 455.5,359.7 422.6,369.7 422.1,369.8 420.9,370.2 419.1,370.7 416.8,371.4 
				414.2,372.2 411.4,373.1 408.6,373.9 406,374.7 403.9,375.3 402.3,375.8 401.4,376.1 401.2,376.2 215.4,432.3 215,432.4 
				213.8,432.8 211.9,433.3 209.4,434.1 206.4,435 203.3,435.9 200.1,436.9 197.2,437.8 194.7,438.5 192.8,439.1 191.6,439.5 
				191.3,439.6 189.8,440 			"/>
			<polygon class="st21" points="393.2,407.3 393.5,409.3 394.2,384.7 393.9,382.9 			"/>
			<polygon class="st22" points="394.9,411.2 393.5,409.3 394.2,384.7 395.6,386.6 			"/>
			<polygon class="st23" points="397.4,413 394.9,411.2 395.7,386.6 398.2,388.2 			"/>
			<polygon class="st24" points="400.9,414.5 397.4,413 398.2,388.2 401.7,389.7 			"/>
			<polygon class="st25" points="405,415.5 400.9,414.5 401.7,389.7 405.8,390.7 			"/>
			<polygon class="st26" points="409.6,416.2 405,415.5 405.8,390.7 410.4,391.3 			"/>
			<polygon class="st27" points="414.2,416.3 409.6,416.2 410.4,391.3 415.1,391.4 			"/>
			<polygon class="st28" points="418.6,415.8 414.2,416.3 415.1,391.4 419.5,391 			"/>
			<polygon class="st29" points="422.4,414.9 418.6,415.8 419.5,391 423.3,390.1 			"/>
			<polygon class="st30" points="425.4,413.5 422.4,414.9 423.3,390.1 426.3,388.8 			"/>
			<polygon class="st31" points="427.3,411.9 425.4,413.5 426.3,388.8 428.3,387.2 			"/>
			<polygon class="st32" points="428.1,410 427.3,411.9 428.3,387.2 429,385.4 			"/>
			<polygon class="st33" points="424.4,380.1 427.1,381.7 428.6,383.5 429,385.4 428.3,387.2 426.3,388.8 423.3,390.1 419.5,391 
				415.1,391.4 410.4,391.3 405.8,390.7 401.7,389.7 398.2,388.2 395.6,386.6 394.2,384.7 393.9,382.9 394.9,381.1 396.9,379.6 
				399.9,378.4 401.1,378.1 400.9,383.4 401.1,384.5 402,385.6 403.5,386.6 405.6,387.4 408.1,388 410.8,388.4 413.6,388.4 
				416.2,388.2 418.5,387.7 420.3,386.9 421.5,386 422,384.9 422.2,379.2 			"/>
			<polygon class="st34" points="421.5,386 420.3,386.9 420.9,370.2 422.1,369.8 			"/>
			<polygon class="st35" points="418.5,387.7 416.2,388.2 416.8,371.4 419.1,370.7 			"/>
			<polygon class="st36" points="416.2,388.2 413.6,388.4 414.2,372.2 416.8,371.4 			"/>
			<polygon class="st37" points="410.8,388.4 408.1,388 408.6,373.9 411.4,373.1 			"/>
			<polygon class="st38" points="420.3,386.9 418.5,387.7 419.1,370.7 420.9,370.2 			"/>
			<polygon class="st23" points="403.5,386.6 402,385.6 402.3,375.8 403.9,375.3 			"/>
			<polygon class="st39" points="422,384.9 421.5,386 422.1,369.8 422.6,369.7 422.2,379.2 			"/>
			<polygon class="st21" points="401.2,376.2 401.1,378.1 400.9,383.4 401.1,384.5 401.4,376.1 			"/>
			<polygon class="st25" points="408.1,388 405.6,387.4 406,374.7 408.6,373.9 			"/>
			<polygon class="st40" points="413.6,388.4 410.8,388.4 411.4,373.1 414.2,372.2 			"/>
			<polygon class="st24" points="405.6,387.4 403.5,386.6 403.9,375.3 406,374.7 			"/>
			<polygon class="st22" points="402,385.6 401.1,384.5 401.4,376.1 402.3,375.8 			"/>
			<polygon class="st22" points="184.8,479.8 184.2,477.2 183.4,449.4 184,451.9 			"/>
			<polygon class="st23" points="186.8,482.1 184.8,479.8 184,451.9 186,454.1 			"/>
			<polygon class="st24" points="190,484.1 186.8,482.1 186,454.1 189.2,456 			"/>
			<polygon class="st25" points="194.2,485.5 190,484.1 189.2,456 193.5,457.3 			"/>
			<polygon class="st26" points="199.1,486.3 194.2,485.5 193.5,457.3 198.4,458.1 			"/>
			<polygon class="st27" points="204.4,486.4 199.1,486.3 198.4,458.1 203.7,458.2 			"/>
			<polygon class="st28" points="209.6,485.9 204.4,486.4 203.7,458.2 209.1,457.7 			"/>
			<polygon class="st29" points="214.5,484.6 209.6,485.9 209,457.7 214,456.5 			"/>
			<polygon class="st30" points="218.7,482.9 214.5,484.6 214,456.5 218.1,454.8 			"/>
			<polygon class="st31" points="221.8,480.6 218.7,482.9 218.1,454.8 221.3,452.7 			"/>
			<polygon class="st32" points="223.7,478.1 221.8,480.6 221.3,452.7 223.2,450.3 			"/>
			<polygon class="st21" points="224.2,475.5 223.7,478.1 223.2,450.3 223.8,447.8 			"/>
			<polygon class="st33" points="198.4,458.1 193.5,457.3 189.2,456 186,454.1 184,451.9 183.4,449.4 184.2,447 186.2,444.6 
				189.5,442.6 191.3,441.9 191.5,449.1 191.9,450.6 193.1,451.9 195,453 197.6,453.8 200.5,454.3 203.7,454.4 206.9,454 
				209.8,453.3 212.3,452.3 214.2,451.1 215.4,449.6 215.7,448.2 215.6,440.9 217.6,441.5 220.8,443.3 223,445.4 223.8,447.8 
				223.2,450.3 221.3,452.7 218.1,454.8 214,456.5 209,457.7 203.7,458.2 			"/>
			<polygon class="st40" points="203.7,454.4 200.5,454.3 200.1,436.9 203.3,435.9 			"/>
			<polygon class="st36" points="206.9,454 203.7,454.4 203.3,435.9 206.4,435 			"/>
			<polygon class="st37" points="200.5,454.3 197.6,453.8 197.2,437.8 200.1,436.9 			"/>
			<polygon class="st35" points="209.8,453.3 206.9,454 206.4,435 209.4,434.1 			"/>
			<polygon class="st25" points="197.6,453.8 195,453 194.7,438.5 197.2,437.8 			"/>
			<polygon class="st30" points="212.3,452.3 209.8,453.3 209.4,434.1 211.9,433.3 			"/>
			<polygon class="st41" points="195,453 193.1,451.9 192.8,439.1 194.7,438.5 			"/>
			<polygon class="st31" points="214.2,451.1 212.3,452.3 211.9,433.3 213.8,432.8 			"/>
			<polygon class="st42" points="193.1,451.9 191.9,450.6 191.6,439.5 192.8,439.1 			"/>
			<polygon class="st39" points="215.4,449.6 214.2,451.1 213.8,432.8 215,432.4 			"/>
			<polygon class="st43" points="191.3,439.6 191.3,441.9 191.5,449.1 191.9,450.6 191.6,439.5 			"/>
			<polygon class="st44" points="215,432.4 215.4,449.6 215.7,448.2 215.6,440.9 215.4,432.3 			"/>
			<polygon class="st24" points="44.6,362.5 42.6,361.4 41.2,339.2 43.2,340.3 			"/>
			<polygon class="st25" points="47.6,363.4 44.6,362.5 43.2,340.3 46.2,341.1 			"/>
			<polygon class="st26" points="51.2,363.9 47.6,363.4 46.2,341.1 49.8,341.5 			"/>
			<polygon class="st27" points="55.2,363.9 51.2,363.9 49.8,341.5 53.8,341.6 			"/>
			<polygon class="st28" points="59.4,363.6 55.2,363.9 53.8,341.6 58,341.3 			"/>
			<polygon class="st29" points="63.4,362.9 59.4,363.6 58,341.3 60.4,340.9 62.2,342.2 			"/>
			<polygon class="st30" points="67,361.8 63.4,362.9 62.2,342.2 66,345.2 			"/>
			<polygon class="st31" points="69.9,360.5 67,361.8 66,345.2 69.1,347.5 			"/>
			<polygon class="st32" points="71.9,359 69.9,360.5 69.1,347.6 71.3,349.2 			"/>
			<polygon class="st21" points="72.9,357.5 71.9,359 71.3,349.2 72.5,350.1 			"/>
			<polygon class="st22" points="72.9,357.5 72.8,356 72.5,350.1 72.5,350.1 			"/>
			<polygon class="st23" points="42.6,361.4 41.6,360 40.2,337.9 41.2,339.2 			"/>
			<polygon class="st33" points="43.2,340.3 41.2,339.2 40.2,337.9 40.2,336.4 41.4,335 43.5,333.6 46.2,332.5 46.5,337.1 
				47.1,337.9 48.4,338.5 50.1,339 52.3,339.3 54.7,339.3 57.2,339.1 58,339 60.4,340.9 58,341.3 53.8,341.6 49.8,341.5 46.2,341.1 
							"/>
			<polygon class="st24" points="48.4,338.5 47.1,337.9 46.6,330.3 47.9,331.3 			"/>
			<polygon class="st25" points="50.1,339 48.4,338.5 47.9,331.3 49.7,332.7 			"/>
			<polygon class="st27" points="54.7,339.3 52.3,339.3 52,334.4 54.5,336.4 			"/>
			<polygon class="st42" points="47.1,337.9 46.5,337.1 46.2,332.5 46,329.9 46.6,330.3 			"/>
			<polygon class="st26" points="52.3,339.3 50.1,339 49.7,332.7 52,334.4 			"/>
			<polygon class="st28" points="57.2,339.1 54.7,339.3 54.5,336.4 57.1,338.4 			"/>
			<polygon class="st29" points="57.2,339.1 58,339 57.1,338.4 			"/>
			<polygon class="st18" points="422.3,337.4 422.4,337.4 413.3,340 413.3,339.9 			"/>
			<polygon class="st10" points="422.3,337.4 413.3,339.9 414.8,294.8 423.9,292.6 			"/>
			<polygon class="st14" points="413.3,340 422.4,337.4 422.2,344 422,348 417.1,349.4 412.5,350.7 412.4,350.8 408.1,352 408,352 
				286,386.9 286,375.9 286.6,376.3 287.8,375.9 352.7,357.8 412.2,341.2 413.3,340.9 			"/>
			<polygon class="st7" points="286,375.9 286.6,376.3 286.7,223.5 286.6,223.5 286,223.3 			"/>
			<polygon class="st4" points="286.6,376.3 286.7,223.5 287.9,223.3 287.8,375.9 			"/>
			<polygon class="st5" points="287.8,375.9 287.9,223.3 355.4,211.4 352.7,357.8 			"/>
			<polygon class="st4" points="413.3,340.9 412.2,341.2 417,200.5 418,200.3 418,201.5 416.9,232.2 416.8,237.5 415,289.7 
				414.8,294.8 413.3,339.9 413.3,340 			"/>
			<polygon class="st5" points="417,200.5 412.2,341.2 352.7,357.8 355.4,211.4 			"/>
			<polygon class="st17" points="189.8,439 189.8,440 72.5,350.1 72.5,350.1 71.3,349.2 69.1,347.5 66,345.2 62.2,342.2 60.4,340.9 
				58,339 57.1,338.4 54.5,336.4 52,334.4 49.7,332.7 47.9,331.3 46.6,330.3 46,329.9 19.1,309.2 19,308.5 			"/>
			<polygon class="st10" points="423.9,292.6 414.8,294.8 415,289.7 424.1,287.5 			"/>
			<polygon class="st10" points="424.1,287.5 415,289.7 416.8,237.5 426,235.6 			"/>
			<polygon class="st10" points="426,235.6 416.8,237.5 416.9,232.2 426.2,230.3 			"/>
			<polygon class="st10" points="426.2,230.3 416.9,232.2 418,201.5 422.9,200.6 423,197.8 427.4,197 			"/>
			<polygon class="st8" points="196,235.1 196.1,237.5 196.2,237.5 196.1,235.1 			"/>
			<polygon class="st14" points="209.5,235.3 277,223.5 277,225.2 276.6,225.3 275.3,225.5 211,236.9 209.6,237.1 209.5,237.2 			
				"/>
			<polygon class="st14" points="286.6,221.8 418.4,198.7 418.4,200.3 418,200.3 417,200.5 355.4,211.4 287.9,223.3 286.7,223.5 
				286.6,223.5 			"/>
			<polygon class="st14" points="418.4,200.3 418.4,198.7 418.1,198.6 423,197.8 422.9,200.6 418,201.5 418,200.3 			"/>
			<polygon class="st10" points="229.2,163.4 229.2,163.3 270.8,108.9 270.9,109 			"/>
			<polygon class="st8" points="180.8,226.5 2.1,149.4 36.8,107.7 226.5,166.7 			"/>
			<polygon class="st8" points="226.5,166.7 36.8,107.7 38.8,105.2 229.2,163.3 			"/>
			<polygon class="st8" points="229.2,163.3 38.8,105.2 70.7,66.9 270.8,108.9 			"/>
			<polygon class="st10" points="339.7,19 339.7,19.1 316.3,49.8 316.2,49.7 			"/>
			<polygon class="st10" points="270.9,109 270.8,108.9 273.4,105.6 273.4,105.7 			"/>
			<polygon class="st10" points="273.4,105.7 273.4,105.6 313.7,52.9 313.8,53 280,97.2 			"/>
			<polygon class="st10" points="313.8,53 313.7,52.9 316.2,49.7 316.3,49.8 			"/>
			<polygon class="st8" points="270.8,108.9 70.7,66.9 72.7,64.5 273.4,105.6 			"/>
			<polygon class="st8" points="273.4,105.6 72.7,64.5 103.9,27 313.7,52.9 			"/>
			<polygon class="st8" points="313.7,52.9 103.9,27 105.8,24.7 316.2,49.7 			"/>
			<polygon class="st8" points="316.2,49.7 105.8,24.7 124.1,2.7 124.4,2.7 124.9,2.8 126,2.8 127.1,2.9 136.1,3.6 137.2,3.7 
				138.3,3.8 147.2,4.4 148.3,4.5 149.5,4.6 150.6,4.7 151.7,4.8 161.7,5.5 162.8,5.6 164,5.7 174.4,6.5 175.6,6.6 176.8,6.7 
				187.7,7.5 189,7.6 190.2,7.7 201.6,8.6 202.9,8.7 204.1,8.8 216.1,9.7 217.5,9.8 218.7,9.9 231.3,10.8 232.7,10.9 234,11 
				238.2,11.3 247.2,12 248.7,12.1 250,12.2 263.9,13.3 265.5,13.4 266.8,13.5 281.4,14.6 283.1,14.7 284.4,14.8 299.8,16 
				301.6,16.1 302.9,16.2 318.3,17.4 320.1,17.5 321.5,17.6 338.7,18.9 339.7,19 			"/>
			<polygon class="st8" points="345.5,18.9 345.5,18.8 345.4,18.8 			"/>
			<polygon class="st10" points="345.5,18.9 345.5,18.8 367.3,46.5 367.2,46.6 			"/>
			<polygon class="st10" points="367.2,46.6 367.3,46.5 369.5,49.4 369.5,49.5 			"/>
			<polygon class="st10" points="369.5,49.5 369.5,49.4 403.7,93 403.6,93.1 			"/>
			<polygon class="st10" points="403.6,93.1 403.7,93 405.8,95.6 405.7,95.7 			"/>
			<polygon class="st10" points="405.7,95.7 405.8,95.6 437.4,136 437.4,136.1 			"/>
			<polygon class="st10" points="470.5,178.2 470.4,178.2 439.3,138.5 439.3,138.4 			"/>
			<polygon class="st10" points="439.3,138.4 439.3,138.5 437.4,136.1 437.4,136 			"/>
			<polygon class="st10" points="394.9,120.5 268.2,135.2 273.4,128.4 390.7,115.3 392.4,117.5 392.9,118 			"/>
			<polygon class="st19" points="394.9,120.5 392.9,118 410.1,121.3 413.6,125.7 410.2,125 396.4,122.4 			"/>
			<polygon class="st10" points="390.7,115.3 273.4,128.4 324.3,61.5 345.9,60 346.1,60.2 359.2,76.5 359.7,77.1 363.4,81.7 
				376.1,97.3 376.6,97.9 380.2,102.4 			"/>
			<polygon class="st19" points="363.4,81.7 359.7,77.1 376.8,79.6 380.6,84.3 377.2,83.8 			"/>
			<polygon class="st19" points="380.2,102.4 376.6,97.9 393.8,100.8 397.4,105.4 394,104.8 			"/>
			<polygon class="st2" points="376.8,79.6 359.7,77.1 359.2,76.5 360.6,74.7 369.3,75.9 374.5,76.7 			"/>
			<polygon class="st1" points="360.6,74.7 359.2,76.5 346.1,60.2 359.7,62 370.1,74.9 369.3,75.9 			"/>
			<polygon class="st2" points="393.8,100.8 376.6,97.9 376.1,97.3 377.5,95.5 385.7,96.9 391.4,97.9 			"/>
			<polygon class="st1" points="377.5,95.5 376.1,97.3 363.4,81.7 377.2,83.8 386.7,95.6 385.7,96.9 			"/>
			<polygon class="st2" points="385.7,96.9 386.7,95.6 390.1,96.2 391.4,97.9 			"/>
			<polygon class="st20" points="390.1,96.2 386.7,95.6 377.2,83.8 380.6,84.3 			"/>
			<polygon class="st2" points="410.1,121.3 392.9,118 392.5,117.5 393.7,115.7 401.5,117.1 407.7,118.3 			"/>
			<polygon class="st1" points="393.7,115.7 392.5,117.5 390.7,115.3 380.2,102.4 394,104.8 402.7,115.6 401.5,117.1 			"/>
			<polygon class="st20" points="402.7,115.6 394,104.8 397.4,105.4 406.1,116.2 			"/>
			<polygon class="st2" points="402.7,115.6 406.1,116.2 407.7,118.3 401.5,117.1 			"/>
			<polygon class="st2" points="369.3,75.9 370.1,74.9 373.5,75.4 374.5,76.7 			"/>
			<polygon class="st20" points="373.5,75.4 370.1,74.9 359.7,62 363.1,62.4 			"/>
			<polygon class="st10" points="345.9,60 324.3,61.5 329.3,54.9 341.1,54.2 341.7,54.9 342.2,55.4 			"/>
			<polygon class="st19" points="345.9,60 342.2,55.4 359.2,57.5 363.1,62.4 359.7,62 346.1,60.2 			"/>
			<polygon class="st10" points="341.1,54.2 329.3,54.9 335.3,47 			"/>
			<polygon class="st2" points="359.2,57.5 342.2,55.4 341.7,54.9 343.1,53 352.3,54.1 357,54.7 			"/>
			<polygon class="st1" points="343.1,53 341.7,54.9 341.1,54.2 335.3,47 341.2,39.3 341.6,39.4 352.9,53.4 352.3,54.1 			"/>
			<polygon class="st2" points="352.3,54.1 352.9,53.4 356.3,53.8 357,54.7 			"/>
			<polygon class="st20" points="356.3,53.8 352.9,53.4 341.6,39.4 345,39.7 			"/>
			<polygon class="st6" points="126,0.8 126.5,0.9 126,1.5 124.9,2.8 124.4,2.7 			"/>
			<polygon class="st7" points="2.3,156.3 2.7,156.5 2.2,150.3 1.8,150.1 			"/>
			<polygon class="st4" points="181.7,228.1 343.6,16.5 343.3,36.5 342.9,37 342.7,37.3 341.2,39.3 335.3,47 329.3,54.9 324.3,61.5 
				273.4,128.4 268.2,135.2 222.1,195.8 191.6,235.8 182,237.5 			"/>
			<polygon class="st4" points="343.3,36.5 343.6,16.5 345.4,18.8 345.5,18.9 367.2,46.6 369.5,49.5 403.6,93.1 405.7,95.7 
				437.4,136.1 439.3,138.5 470.4,178.2 471.4,179.5 471,187.3 464.5,188.4 443.6,162.2 			"/>
			<polygon class="st7" points="181.7,228.1 182,237.5 181.1,237.1 180.9,227.7 			"/>
			<polygon class="st4" points="452,190.6 442.4,192.3 442.9,179.4 			"/>
			<polygon class="st7" points="442.9,179.4 442.4,192.3 441.4,192 441.6,187.2 441.9,179.2 			"/>
			<polygon class="st7" points="442.9,179.4 441.9,179.2 442.1,175.1 442.6,162 443.6,162.2 			"/>
			<polygon class="st45" points="443.6,162.2 442.6,162 440,158.7 437.7,155.9 435.3,152.8 429.3,145.3 425.9,141.1 423.5,138 
				421.6,135.6 413.6,125.7 410.1,121.3 407.7,118.3 406.1,116.2 397.4,105.4 393.8,100.8 391.4,97.9 390.1,96.2 380.6,84.3 
				376.8,79.6 374.5,76.7 373.5,75.4 363.1,62.4 359.2,57.5 357,54.7 356.3,53.8 345,39.7 343,37.1 342.9,37 343.3,36.5 			"/>
			<polygon class="st1" points="342.7,37.3 343,37.3 343,37.1 342.9,37 			"/>
			<polygon class="st19" points="343,37.3 343,37.1 345,39.7 341.6,39.4 341.2,39.3 342.7,37.3 			"/>
			<polygon class="st4" points="442.9,179.4 443.6,162.2 464.5,188.4 452,190.6 			"/>
			<polygon class="st7" points="423.8,170.6 442.1,175.1 441.9,179.2 441.6,187.2 423.4,182.5 			"/>
			<polygon class="st7" points="423.4,182.5 441.6,187.2 441.4,192 428,188.4 423.2,187.2 423.3,185.4 			"/>
			<polygon class="st4" points="222.4,215.6 222.7,230.4 209.5,232.7 			"/>
			<polygon class="st10" points="209.7,273.7 209.8,279.8 197.1,282.3 197,276.3 			"/>
			<polygon class="st10" points="211.1,345 212.1,396.5 212.4,408 212.4,408 207.7,409.4 201.6,411.1 201.5,411.2 200.1,411.6 
				198.6,348.1 			"/>
			<polygon class="st10" points="211,339.1 211.1,345 198.6,348.1 198.5,342.2 			"/>
			<polygon class="st4" points="222.1,195.8 222.2,203.8 222.3,210 222.4,215.6 209.5,232.7 196.1,235.1 196,235.1 191.6,235.8 			
				"/>
			<polygon class="st10" points="209.8,279.7 211,339.1 198.5,342.2 197.1,282.3 			"/>
			<line class="st46" x1="195.2" y1="418.2" x2="194.8" y2="417.3"/>
			<line class="st46" x1="195.2" y1="418.2" x2="196.2" y2="419"/>
			<line class="st46" x1="210.9" y1="417.1" x2="211" y2="416.2"/>
			<line class="st46" x1="210.3" y1="418" x2="210.9" y2="417.1"/>
			<line class="st46" x1="209.1" y1="418.9" x2="210.3" y2="418"/>
			<line class="st46" x1="207.6" y1="419.6" x2="209.1" y2="418.9"/>
			<line class="st46" x1="205.7" y1="420" x2="207.6" y2="419.6"/>
			<line class="st46" x1="203.6" y1="420.3" x2="205.7" y2="420"/>
			<line class="st46" x1="201.4" y1="420.3" x2="203.6" y2="420.3"/>
			<line class="st46" x1="199.4" y1="420.1" x2="201.4" y2="420.3"/>
			<line class="st46" x1="197.6" y1="419.7" x2="199.4" y2="420.1"/>
			<line class="st46" x1="196.2" y1="419" x2="197.6" y2="419.7"/>
			<polyline class="st46" points="405.6,356.4 406.3,357.1 407.5,357.7 			"/>
			<line class="st46" x1="419.3" y1="357" x2="419.5" y2="356.3"/>
			<line class="st46" x1="418.6" y1="357.6" x2="419.3" y2="357"/>
			<line class="st46" x1="417.5" y1="358.1" x2="418.6" y2="357.6"/>
			<line class="st46" x1="416.1" y1="358.5" x2="417.5" y2="358.1"/>
			<line class="st46" x1="414.4" y1="358.7" x2="416.1" y2="358.5"/>
			<line class="st46" x1="412.5" y1="358.7" x2="414.4" y2="358.7"/>
			<line class="st46" x1="410.7" y1="358.5" x2="412.5" y2="358.7"/>
			<line class="st46" x1="409" y1="358.2" x2="410.7" y2="358.5"/>
			<line class="st46" x1="407.5" y1="357.7" x2="409" y2="358.2"/>
			<line class="st46" x1="405.6" y1="356.4" x2="405.3" y2="355.7"/>
			<line class="st46" x1="48.2" y1="311.6" x2="48.1" y2="311"/>
			<line class="st46" x1="48.2" y1="311.6" x2="48.7" y2="312"/>
			<line class="st46" x1="57.3" y1="312.4" x2="58.1" y2="312.1"/>
			<line class="st46" x1="55.7" y1="312.7" x2="57.3" y2="312.4"/>
			<line class="st46" x1="54" y1="312.8" x2="55.7" y2="312.7"/>
			<line class="st46" x1="52.4" y1="312.8" x2="54" y2="312.8"/>
			<line class="st46" x1="50.9" y1="312.7" x2="52.4" y2="312.8"/>
			<line class="st46" x1="49.6" y1="312.4" x2="50.9" y2="312.7"/>
			<line class="st46" x1="48.7" y1="312" x2="49.6" y2="312.4"/>
			<line class="st46" x1="420.3" y1="386.9" x2="421.5" y2="386"/>
			<line class="st46" x1="416.2" y1="388.2" x2="418.5" y2="387.7"/>
			<line class="st46" x1="413.6" y1="388.4" x2="416.2" y2="388.2"/>
			<line class="st46" x1="408.1" y1="388" x2="410.8" y2="388.4"/>
			<line class="st46" x1="418.5" y1="387.7" x2="420.3" y2="386.9"/>
			<line class="st46" x1="402" y1="385.6" x2="403.5" y2="386.6"/>
			<line class="st46" x1="421.5" y1="386" x2="422" y2="384.9"/>
			<line class="st46" x1="401.1" y1="384.5" x2="400.9" y2="383.4"/>
			<line class="st46" x1="405.6" y1="387.4" x2="408.1" y2="388"/>
			<line class="st46" x1="410.8" y1="388.4" x2="413.6" y2="388.4"/>
			<line class="st46" x1="403.5" y1="386.6" x2="405.6" y2="387.4"/>
			<line class="st46" x1="402" y1="385.6" x2="401.1" y2="384.5"/>
			<polyline class="st46" points="200.5,454.3 203.7,454.4 206.9,454 			"/>
			<line class="st46" x1="197.6" y1="453.8" x2="200.5" y2="454.3"/>
			<line class="st46" x1="206.9" y1="454" x2="209.8" y2="453.3"/>
			<line class="st46" x1="195" y1="453" x2="197.6" y2="453.8"/>
			<line class="st46" x1="209.8" y1="453.3" x2="212.3" y2="452.3"/>
			<line class="st46" x1="193.1" y1="451.9" x2="195" y2="453"/>
			<line class="st46" x1="212.3" y1="452.3" x2="214.2" y2="451.1"/>
			<line class="st46" x1="193.1" y1="451.9" x2="191.9" y2="450.6"/>
			<line class="st46" x1="214.2" y1="451.1" x2="215.4" y2="449.6"/>
			<line class="st46" x1="191.9" y1="450.6" x2="191.5" y2="449.1"/>
			<line class="st46" x1="215.4" y1="449.6" x2="215.7" y2="448.2"/>
			<polyline class="st46" points="47.1,337.9 48.4,338.5 50.1,339 			"/>
			<line class="st46" x1="52.3" y1="339.3" x2="54.7" y2="339.3"/>
			<line class="st46" x1="47.1" y1="337.9" x2="46.5" y2="337.1"/>
			<line class="st46" x1="50.1" y1="339" x2="52.3" y2="339.3"/>
			<polyline class="st46" points="54.7,339.3 57.2,339.1 58,339 			"/>
			<line class="st46" x1="200" y1="411.5" x2="199.7" y2="399.4"/>
			<line class="st46" x1="195.1" y1="396.2" x2="199.7" y2="399.4"/>
			<line class="st46" x1="22.7" y1="159.2" x2="90.2" y2="188.4"/>
			<line class="st46" x1="39.7" y1="197.8" x2="197" y2="276.3"/>
			<line class="st46" x1="222.2" y1="203.8" x2="423.2" y2="172.4"/>
			<polyline class="st46" points="36.8,107.7 226.5,166.7 226.6,166.8 			"/>
			<line class="st46" x1="313.8" y1="53" x2="313.7" y2="52.9"/>
			<line class="st46" x1="103.9" y1="27" x2="313.7" y2="52.9"/>
			<line class="st46" x1="403.6" y1="93.1" x2="403.7" y2="93"/>
			<line class="st46" x1="273.4" y1="128.4" x2="390.7" y2="115.3"/>
			<line class="st46" x1="329.3" y1="54.9" x2="341.1" y2="54.2"/>
			<line class="st46" x1="238.1" y1="9.7" x2="239.3" y2="9.6"/>
			<line class="st46" x1="238.1" y1="9.7" x2="238.2" y2="11.3"/>
			<line class="st46" x1="423.7" y1="158.2" x2="424.2" y2="158.3"/>
			<line class="st46" x1="286.7" y1="223.5" x2="286.6" y2="376.3"/>
			<line class="st46" x1="209.6" y1="237.1" x2="212.7" y2="396.9"/>
			<line class="st46" x1="201.7" y1="419" x2="201.6" y2="411.1"/>
			<line class="st46" x1="412.3" y1="357.7" x2="412.5" y2="350.7"/>
			<line class="st46" x1="53" y1="312" x2="52.6" y2="307"/>
			<line class="st46" x1="359.2" y1="57.5" x2="342.2" y2="55.4"/>
			<line class="st46" x1="376.8" y1="79.6" x2="359.7" y2="77.1"/>
			<line class="st46" x1="393.8" y1="100.8" x2="376.6" y2="97.9"/>
			<line class="st46" x1="425.9" y1="141.1" x2="408.7" y2="137.5"/>
			<line class="st46" x1="410.1" y1="121.3" x2="392.9" y2="118"/>
			<line class="st46" x1="437.7" y1="155.9" x2="420.5" y2="152.1"/>
			<line class="st46" x1="161.2" y1="387.8" x2="161.1" y2="383.9"/>
			<line class="st46" x1="191.4" y1="409.4" x2="191.3" y2="405.4"/>
			<line class="st46" x1="133.8" y1="368.2" x2="133.7" y2="364.5"/>
			<line class="st46" x1="108.8" y1="350.3" x2="108.6" y2="346.7"/>
			<line class="st46" x1="85.9" y1="333.9" x2="85.7" y2="330.4"/>
			<line class="st46" x1="64.8" y1="318.8" x2="64.6" y2="315.5"/>
			<polyline class="st46" points="393.9,382.9 394.2,384.7 395.6,386.6 398.2,388.2 401.7,389.7 405.8,390.7 410.4,391.3 
				415.1,391.4 419.5,391 423.3,390.1 426.3,388.8 428.3,387.2 429,385.4 			"/>
			<polyline class="st46" points="193.5,457.3 198.4,458.1 203.7,458.2 209.1,457.7 214,456.5 218.1,454.8 221.3,452.7 223.2,450.3 
				223.8,447.8 			"/>
			<polyline class="st46" points="183.4,449.4 184,451.9 186,454.1 189.2,456 193.5,457.3 			"/>
			<polyline class="st46" points="41.2,339.2 43.2,340.3 46.2,341.1 49.8,341.5 53.8,341.6 58,341.3 60.4,340.9 			"/>
			<line class="st46" x1="40.2" y1="337.9" x2="41.2" y2="339.2"/>
			<line class="st46" x1="138.3" y1="2.4" x2="137.2" y2="3.7"/>
			<line class="st46" x1="149.5" y1="3.2" x2="148.3" y2="4.5"/>
			<line class="st46" x1="127" y1="1.5" x2="126" y2="2.8"/>
			<line class="st46" x1="302.9" y1="14.4" x2="301.6" y2="16.1"/>
			<line class="st46" x1="321.5" y1="15.8" x2="320.1" y2="17.5"/>
			<line class="st46" x1="284.4" y1="13.1" x2="283.1" y2="14.7"/>
			<line class="st46" x1="266.8" y1="11.8" x2="265.5" y2="13.4"/>
			<line class="st46" x1="250" y1="10.5" x2="248.7" y2="12.1"/>
			<line class="st46" x1="234" y1="9.4" x2="232.7" y2="10.9"/>
			<line class="st46" x1="218.7" y1="8.2" x2="217.5" y2="9.8"/>
			<line class="st46" x1="204.1" y1="7.2" x2="202.9" y2="8.7"/>
			<line class="st46" x1="190.1" y1="6.2" x2="189" y2="7.6"/>
			<line class="st46" x1="176.8" y1="5.2" x2="175.6" y2="6.6"/>
			<line class="st46" x1="164" y1="4.2" x2="162.8" y2="5.6"/>
			<line class="st46" x1="151.7" y1="3.3" x2="150.6" y2="4.7"/>
			<line class="st46" x1="422.4" y1="337.4" x2="413.3" y2="340"/>
			<line class="st46" x1="455.5" y1="358.9" x2="189.8" y2="439"/>
			<polyline class="st46" points="189.8,440 189.8,439 19,308.5 			"/>
			<line class="st46" x1="416.9" y1="232.2" x2="426.2" y2="230.3"/>
			<line class="st46" x1="415" y1="289.7" x2="424.1" y2="287.5"/>
			<line class="st46" x1="198.5" y1="342.2" x2="42.9" y2="248.6"/>
			<line class="st46" x1="196.2" y1="237.5" x2="196.1" y2="235.1"/>
			<line class="st46" x1="276.3" y1="379.1" x2="276.4" y2="389.7"/>
			<polyline class="st46" points="277,223.5 209.5,235.3 209.5,237.2 			"/>
			<polyline class="st46" points="418.4,198.7 286.6,221.8 286.6,223.5 			"/>
			<line class="st46" x1="285.9" y1="221.6" x2="286.6" y2="221.8"/>
			<line class="st46" x1="208.8" y1="235.1" x2="209.5" y2="235.3"/>
			<line class="st46" x1="180.9" y1="226.6" x2="180.8" y2="226.5"/>
			<line class="st46" x1="2.1" y1="149.4" x2="180.8" y2="226.5"/>
			<line class="st46" x1="270.9" y1="109" x2="270.8" y2="108.9"/>
			<line class="st46" x1="70.7" y1="66.9" x2="270.8" y2="108.9"/>
			<line class="st46" x1="345.5" y1="18.9" x2="345.5" y2="18.8"/>
			<line class="st46" x1="367.2" y1="46.6" x2="367.3" y2="46.5"/>
			<line class="st46" x1="437.4" y1="136.1" x2="437.4" y2="136"/>
			<line class="st46" x1="1.8" y1="150.1" x2="2.2" y2="150.3"/>
			<line class="st46" x1="181.7" y1="228.1" x2="343.6" y2="16.5"/>
			<line class="st46" x1="181.7" y1="228.1" x2="182" y2="237.5"/>
			<line class="st46" x1="181.7" y1="228.1" x2="180.9" y2="227.7"/>
			<line class="st46" x1="442.9" y1="179.4" x2="442.4" y2="192.3"/>
			<line class="st46" x1="443.6" y1="162.2" x2="442.9" y2="179.4"/>
			<polyline class="st46" points="90.2,188.4 100.9,193 100.9,193 			"/>
			<line class="st46" x1="238.1" y1="9.7" x2="234" y2="9.4"/>
			<line class="st46" x1="180.9" y1="227.7" x2="100.9" y2="193"/>
			<line class="st46" x1="198.5" y1="342.2" x2="198.6" y2="348.1"/>
			<line class="st46" x1="198.6" y1="348.1" x2="200.1" y2="411.6"/>
			<line class="st46" x1="197" y1="276.3" x2="197.1" y2="282.3"/>
			<line class="st46" x1="226.5" y1="166.7" x2="229.2" y2="163.3"/>
			<line class="st46" x1="180.8" y1="226.5" x2="226.5" y2="166.7"/>
			<polyline class="st46" points="313.7,52.9 316.2,49.7 339.7,19 			"/>
			<line class="st46" x1="270.8" y1="108.9" x2="273.4" y2="105.6"/>
			<line class="st46" x1="126" y1="1.5" x2="126.5" y2="0.9"/>
			<line class="st46" x1="301.1" y1="14.3" x2="284.4" y2="13.1"/>
			<line class="st46" x1="197.1" y1="282.3" x2="198.5" y2="342.2"/>
			<line class="st46" x1="196.1" y1="237.5" x2="197" y2="276.3"/>
			<line class="st46" x1="229.2" y1="163.3" x2="270.8" y2="108.9"/>
			<line class="st46" x1="273.4" y1="105.6" x2="313.7" y2="52.9"/>
			<line class="st46" x1="343.3" y1="36.5" x2="443.6" y2="162.2"/>
			<line class="st46" x1="342" y1="17.3" x2="321.5" y2="15.8"/>
			<line class="st46" x1="232.5" y1="9.3" x2="218.7" y2="8.2"/>
			<line class="st46" x1="319.6" y1="15.6" x2="302.9" y2="14.4"/>
			<line class="st46" x1="282.7" y1="12.9" x2="266.8" y2="11.8"/>
			<line class="st46" x1="217.3" y1="8.1" x2="204.1" y2="7.2"/>
			<line class="st46" x1="265.1" y1="11.7" x2="250" y2="10.5"/>
			<line class="st46" x1="248.4" y1="10.4" x2="238.1" y2="9.7"/>
			<line class="st46" x1="202.8" y1="7.1" x2="190.1" y2="6.2"/>
			<line class="st46" x1="188.9" y1="6.1" x2="176.8" y2="5.2"/>
			<line class="st46" x1="137.2" y1="2.3" x2="127" y2="1.5"/>
			<line class="st46" x1="175.6" y1="5.1" x2="164" y2="4.2"/>
			<line class="st46" x1="162.8" y1="4.2" x2="151.7" y2="3.3"/>
			<line class="st46" x1="148.3" y1="3.1" x2="138.3" y2="2.4"/>
			<line class="st46" x1="150.6" y1="3.3" x2="149.5" y2="3.2"/>
			<line class="st46" x1="209.7" y1="273.7" x2="197" y2="276.3"/>
			<line class="st46" x1="198.5" y1="342.2" x2="211" y2="339.1"/>
			<line class="st47" x1="302.9" y1="16.2" x2="302.9" y2="14.4"/>
			<line class="st47" x1="301.1" y1="14.3" x2="302.9" y2="14.4"/>
			<line class="st47" x1="340" y1="17.1" x2="342" y2="17.3"/>
			<line class="st47" x1="321.5" y1="17.6" x2="321.5" y2="15.8"/>
			<line class="st47" x1="284.4" y1="14.8" x2="284.4" y2="13.1"/>
			<line class="st47" x1="282.7" y1="12.9" x2="284.4" y2="13.1"/>
			<line class="st47" x1="319.6" y1="15.6" x2="321.5" y2="15.8"/>
			<line class="st47" x1="266.8" y1="13.5" x2="266.8" y2="11.8"/>
			<line class="st47" x1="265.1" y1="11.7" x2="266.8" y2="11.8"/>
			<line class="st47" x1="250" y1="12.2" x2="250" y2="10.5"/>
			<line class="st47" x1="248.4" y1="10.4" x2="250" y2="10.5"/>
			<line class="st47" x1="126.5" y1="1.4" x2="127.1" y2="1.4"/>
			<line class="st47" x1="126" y1="1.5" x2="126.5" y2="1.4"/>
			<line class="st47" x1="343" y1="37.1" x2="342.9" y2="37"/>
			<line class="st47" x1="234" y1="11" x2="234" y2="9.4"/>
			<line class="st47" x1="232.5" y1="9.3" x2="234" y2="9.4"/>
			<line class="st47" x1="218.7" y1="9.9" x2="218.7" y2="8.2"/>
			<line class="st47" x1="217.3" y1="8.1" x2="218.7" y2="8.2"/>
			<line class="st47" x1="204.1" y1="8.8" x2="204.1" y2="7.2"/>
			<line class="st47" x1="202.8" y1="7.1" x2="204.1" y2="7.2"/>
			<line class="st47" x1="190.2" y1="7.7" x2="190.1" y2="6.2"/>
			<line class="st47" x1="188.9" y1="6.1" x2="190.1" y2="6.2"/>
			<line class="st47" x1="138.3" y1="3.8" x2="138.3" y2="2.4"/>
			<line class="st47" x1="149.5" y1="4.6" x2="149.5" y2="3.2"/>
			<line class="st47" x1="148.3" y1="3.1" x2="149.5" y2="3.2"/>
			<line class="st47" x1="127.1" y1="2.9" x2="127" y2="1.5"/>
			<line class="st47" x1="176.8" y1="6.7" x2="176.8" y2="5.2"/>
			<line class="st47" x1="175.6" y1="5.1" x2="176.8" y2="5.2"/>
			<line class="st47" x1="164" y1="5.7" x2="164" y2="4.2"/>
			<line class="st47" x1="162.8" y1="4.2" x2="164" y2="4.2"/>
			<line class="st47" x1="151.7" y1="4.8" x2="151.7" y2="3.3"/>
			<line class="st47" x1="150.6" y1="3.3" x2="151.7" y2="3.3"/>
			<line class="st47" x1="137.2" y1="2.3" x2="138.3" y2="2.4"/>
			<line class="st47" x1="423.6" y1="161" x2="423.7" y2="158.2"/>
			<line class="st47" x1="423.7" y1="157.9" x2="424.2" y2="157.8"/>
			<line class="st47" x1="385.7" y1="96.9" x2="386.7" y2="95.6"/>
			<line class="st47" x1="201.7" y1="419" x2="207.9" y2="417.2"/>
			<line class="st47" x1="197.9" y1="416.3" x2="198" y2="416.3"/>
			<line class="st47" x1="201.6" y1="418.9" x2="201.7" y2="419"/>
			<line class="st47" x1="198" y1="416.3" x2="201.6" y2="418.9"/>
			<polyline class="st47" points="194.9,416.4 195.6,415.5 196.8,414.7 197.9,414.2 			"/>
			<polyline class="st47" points="207.8,413.8 208.2,413.9 209.6,414.5 210.6,415.3 			"/>
			<line class="st47" x1="211" y1="416.2" x2="210.6" y2="415.3"/>
			<line class="st47" x1="194.8" y1="417.3" x2="194.9" y2="416.4"/>
			<line class="st47" x1="412.3" y1="357.7" x2="416.9" y2="356.4"/>
			<line class="st47" x1="407.9" y1="355.7" x2="408" y2="355.7"/>
			<line class="st47" x1="412.1" y1="357.6" x2="412.3" y2="357.7"/>
			<line class="st47" x1="408" y1="355.7" x2="412.1" y2="357.6"/>
			<line class="st47" x1="419.5" y1="356.3" x2="419.2" y2="355.6"/>
			<polyline class="st47" points="405.3,355.7 405.6,355.1 406.3,354.4 407.4,353.9 408,353.8 			"/>
			<polyline class="st47" points="417,354.2 417.3,354.3 418.5,354.9 419.2,355.6 			"/>
			<line class="st47" x1="53" y1="312" x2="58.1" y2="311"/>
			<line class="st47" x1="50.7" y1="310.4" x2="50.8" y2="310.5"/>
			<line class="st47" x1="52.9" y1="312" x2="53" y2="312"/>
			<line class="st47" x1="50.8" y1="310.5" x2="52.9" y2="312"/>
			<polyline class="st47" points="48.4,310.5 49.1,310 50.2,309.5 50.7,309.4 			"/>
			<line class="st47" x1="48.1" y1="311" x2="48.4" y2="310.5"/>
			<line class="st47" x1="345.9" y1="60" x2="342.2" y2="55.4"/>
			<line class="st47" x1="341.7" y1="54.9" x2="343.1" y2="53"/>
			<line class="st47" x1="363.4" y1="81.7" x2="359.7" y2="77.1"/>
			<line class="st47" x1="359.2" y1="76.5" x2="360.6" y2="74.7"/>
			<line class="st47" x1="380.2" y1="102.4" x2="376.6" y2="97.9"/>
			<line class="st47" x1="376.1" y1="97.3" x2="377.5" y2="95.5"/>
			<line class="st47" x1="412.1" y1="141.7" x2="408.7" y2="137.5"/>
			<line class="st47" x1="408.2" y1="136.9" x2="409.5" y2="135.1"/>
			<line class="st47" x1="394.9" y1="120.5" x2="392.9" y2="118"/>
			<line class="st47" x1="392.4" y1="117.5" x2="393.7" y2="115.7"/>
			<line class="st47" x1="423.7" y1="156.1" x2="420.5" y2="152.1"/>
			<line class="st47" x1="420" y1="151.5" x2="421.3" y2="149.7"/>
			<line class="st47" x1="431.8" y1="152.1" x2="425.9" y2="144.6"/>
			<line class="st47" x1="218" y1="179.3" x2="280.4" y2="97.7"/>
			<line class="st47" x1="276.3" y1="389.7" x2="276.3" y2="379.2"/>
			<line class="st47" x1="199.9" y1="411.4" x2="200" y2="411.5"/>
			<line class="st47" x1="199.9" y1="411.4" x2="199.6" y2="399.8"/>
			<line class="st47" x1="195.1" y1="396.7" x2="195.1" y2="396.2"/>
			<line class="st47" x1="195.1" y1="396.7" x2="199.6" y2="399.8"/>
			<line class="st47" x1="180.9" y1="227.7" x2="180.9" y2="227.7"/>
			<line class="st47" x1="2.2" y1="150.3" x2="2.2" y2="150.3"/>
			<line class="st47" x1="22.7" y1="159.2" x2="22.7" y2="159.2"/>
			<line class="st47" x1="22.7" y1="158.3" x2="90.1" y2="187.4"/>
			<line class="st47" x1="43.2" y1="253.1" x2="198.6" y2="348.1"/>
			<line class="st47" x1="72.7" y1="64.5" x2="273.4" y2="105.6"/>
			<line class="st47" x1="273.4" y1="105.7" x2="273.4" y2="105.6"/>
			<line class="st47" x1="369.5" y1="49.5" x2="369.5" y2="49.4"/>
			<line class="st47" x1="439.3" y1="138.5" x2="439.3" y2="138.4"/>
			<line class="st47" x1="442.6" y1="162" x2="443.6" y2="162.2"/>
			<polyline class="st47" points="343,37.1 343,37.3 342.7,37.3 			"/>
			<line class="st47" x1="423.6" y1="161" x2="424.1" y2="161.1"/>
			<line class="st47" x1="287.9" y1="223.3" x2="287.8" y2="375.9"/>
			<line class="st47" x1="286.6" y1="376.3" x2="286" y2="375.9"/>
			<line class="st47" x1="287.8" y1="375.9" x2="286.6" y2="376.3"/>
			<line class="st47" x1="417" y1="200.5" x2="412.2" y2="341.2"/>
			<line class="st47" x1="413.3" y1="340.9" x2="412.2" y2="341.2"/>
			<line class="st47" x1="276.6" y1="225.3" x2="277" y2="379"/>
			<line class="st47" x1="275.3" y1="225.5" x2="275.7" y2="379.3"/>
			<line class="st47" x1="211" y1="236.9" x2="214" y2="396.5"/>
			<line class="st47" x1="212.7" y1="396.9" x2="212.1" y2="396.5"/>
			<line class="st47" x1="214.1" y1="396.5" x2="212.7" y2="396.9"/>
			<line class="st47" x1="275.7" y1="379.3" x2="214" y2="396.5"/>
			<line class="st47" x1="352.7" y1="357.8" x2="287.8" y2="375.9"/>
			<line class="st47" x1="355.4" y1="211.4" x2="352.7" y2="357.8"/>
			<line class="st47" x1="412.2" y1="341.2" x2="352.7" y2="357.8"/>
			<line class="st47" x1="370.1" y1="74.9" x2="373.5" y2="75.4"/>
			<line class="st47" x1="352.9" y1="53.4" x2="356.3" y2="53.8"/>
			<line class="st47" x1="402.7" y1="115.6" x2="406.1" y2="116.2"/>
			<line class="st47" x1="418.1" y1="134.9" x2="421.6" y2="135.6"/>
			<line class="st47" x1="386.7" y1="95.6" x2="390.1" y2="96.2"/>
			<line class="st47" x1="198" y1="416.3" x2="197.9" y2="410"/>
			<line class="st47" x1="201.6" y1="418.9" x2="201.5" y2="411.2"/>
			<line class="st47" x1="408" y1="355.7" x2="408.1" y2="352"/>
			<line class="st47" x1="412.1" y1="357.6" x2="412.4" y2="350.8"/>
			<line class="st47" x1="50.8" y1="310.5" x2="50.5" y2="305.5"/>
			<line class="st47" x1="52.9" y1="312" x2="52.6" y2="307"/>
			<line class="st47" x1="423.7" y1="156.8" x2="424.3" y2="157.5"/>
			<line class="st47" x1="424.3" y1="156.2" x2="423.7" y2="156.1"/>
			<line class="st47" x1="152" y1="381.2" x2="151.8" y2="377.3"/>
			<line class="st47" x1="181.2" y1="402.1" x2="181.1" y2="398.1"/>
			<line class="st47" x1="125.4" y1="362.1" x2="125.2" y2="358.5"/>
			<line class="st47" x1="101.1" y1="344.8" x2="100.9" y2="341.2"/>
			<line class="st47" x1="78.8" y1="328.8" x2="78.6" y2="325.4"/>
			<polyline class="st47" points="393.2,407.3 393.5,409.3 394.9,411.2 397.4,413 400.9,414.5 405,415.5 409.6,416.2 414.2,416.3 
				418.6,415.8 422.4,414.9 425.4,413.5 427.3,411.9 428.1,410 			"/>
			<polyline class="st47" points="427.1,381.7 424.4,380.1 422.2,379.2 			"/>
			<polyline class="st47" points="401.1,378.1 399.9,378.4 396.9,379.6 394.9,381.1 393.9,382.9 			"/>
			<polyline class="st47" points="429,385.4 428.6,383.5 427.1,381.7 			"/>
			<line class="st47" x1="393.2" y1="407.3" x2="393.9" y2="382.9"/>
			<line class="st47" x1="428.1" y1="410" x2="429" y2="385.4"/>
			<polyline class="st47" points="184.2,477.2 184.8,479.8 186.8,482.1 190,484.1 194.2,485.5 199.1,486.3 204.4,486.4 209.6,485.9 
				214.5,484.6 218.7,482.9 221.8,480.6 223.7,478.1 224.2,475.5 			"/>
			<polyline class="st47" points="223.8,447.8 223,445.4 220.8,443.3 217.6,441.5 215.6,440.9 			"/>
			<polyline class="st47" points="191.3,441.9 189.5,442.6 186.2,444.6 184.2,447 183.4,449.4 			"/>
			<line class="st47" x1="224.2" y1="475.5" x2="223.8" y2="447.8"/>
			<line class="st47" x1="184.2" y1="477.2" x2="183.4" y2="449.4"/>
			<polyline class="st47" points="42.6,361.4 44.6,362.5 47.6,363.4 51.2,363.9 55.2,363.9 59.4,363.6 63.4,362.9 67,361.8 
				69.9,360.5 71.9,359 72.9,357.5 72.8,356 			"/>
			<line class="st47" x1="41.6" y1="360" x2="42.6" y2="361.4"/>
			<polyline class="st47" points="46.2,332.5 43.5,333.6 41.4,335 40.2,336.4 40.2,337.9 			"/>
			<line class="st47" x1="72.8" y1="356" x2="72.5" y2="350.1"/>
			<line class="st47" x1="41.6" y1="360" x2="40.2" y2="337.9"/>
			<line class="st47" x1="410.2" y1="125" x2="418.1" y2="134.9"/>
			<line class="st47" x1="394" y1="104.8" x2="402.7" y2="115.6"/>
			<line class="st47" x1="369.3" y1="75.9" x2="370.1" y2="74.9"/>
			<line class="st47" x1="377.2" y1="83.8" x2="386.7" y2="95.6"/>
			<line class="st47" x1="352.3" y1="54.1" x2="352.9" y2="53.4"/>
			<line class="st47" x1="359.7" y1="62" x2="370.1" y2="74.9"/>
			<line class="st47" x1="341.6" y1="39.4" x2="352.9" y2="53.4"/>
			<line class="st47" x1="137.2" y1="2.3" x2="136.1" y2="3.6"/>
			<line class="st47" x1="148.3" y1="3.1" x2="147.2" y2="4.4"/>
			<line class="st47" x1="126" y1="1.5" x2="127" y2="1.5"/>
			<line class="st47" x1="301.1" y1="14.3" x2="299.8" y2="16"/>
			<line class="st47" x1="340" y1="17.1" x2="338.7" y2="18.9"/>
			<line class="st47" x1="319.6" y1="15.6" x2="318.3" y2="17.4"/>
			<line class="st47" x1="282.7" y1="12.9" x2="281.4" y2="14.6"/>
			<line class="st47" x1="265.1" y1="11.7" x2="263.9" y2="13.3"/>
			<line class="st47" x1="248.4" y1="10.4" x2="247.2" y2="12"/>
			<line class="st47" x1="232.5" y1="9.3" x2="231.3" y2="10.8"/>
			<line class="st47" x1="217.3" y1="8.1" x2="216.1" y2="9.7"/>
			<line class="st47" x1="202.8" y1="7.1" x2="201.6" y2="8.6"/>
			<line class="st47" x1="188.9" y1="6.1" x2="187.7" y2="7.5"/>
			<line class="st47" x1="175.6" y1="5.1" x2="174.4" y2="6.5"/>
			<line class="st47" x1="162.8" y1="4.2" x2="161.7" y2="5.5"/>
			<line class="st47" x1="422.3" y1="337.4" x2="422.4" y2="337.4"/>
			<line class="st47" x1="212.4" y1="408" x2="276.3" y2="389.7"/>
			<line class="st47" x1="423.3" y1="185.4" x2="422.7" y2="185.2"/>
			<polyline class="st47" points="181.1,237.1 101.3,201.3 100.9,193 			"/>
			<line class="st47" x1="280.4" y1="97.7" x2="280" y2="97.2"/>
			<line class="st47" x1="340.2" y1="19.7" x2="339.7" y2="19.1"/>
			<polyline class="st47" points="218,179.3 217.4,178.8 180.9,226.6 90.1,187.4 			"/>
			<line class="st47" x1="22.7" y1="158.3" x2="2.2" y2="149.5"/>
			<line class="st47" x1="455.5" y1="359.7" x2="455.6" y2="358.9"/>
			<line class="st47" x1="19.1" y1="309.2" x2="19" y2="308.5"/>
			<line class="st47" x1="422.2" y1="344" x2="455.5" y2="358.9"/>
			<line class="st47" x1="19" y1="308.5" x2="46.9" y2="302.9"/>
			<line class="st47" x1="414.8" y1="294.8" x2="423.9" y2="292.6"/>
			<line class="st47" x1="416.8" y1="237.5" x2="426" y2="235.6"/>
			<line class="st47" x1="40" y1="202.4" x2="197.1" y2="282.3"/>
			<line class="st47" x1="196.1" y1="237.5" x2="196.2" y2="237.5"/>
			<line class="st47" x1="428" y1="188.5" x2="427.7" y2="196.9"/>
			<line class="st47" x1="196.1" y1="237.5" x2="196" y2="235.1"/>
			<line class="st47" x1="276.4" y1="389.7" x2="286" y2="387"/>
			<line class="st47" x1="276.3" y1="389.7" x2="276.4" y2="389.7"/>
			<line class="st47" x1="277" y1="225.2" x2="277" y2="223.5"/>
			<line class="st47" x1="418.4" y1="200.3" x2="418.4" y2="198.7"/>
			<line class="st47" x1="423" y1="197.8" x2="422.9" y2="200.6"/>
			<line class="st47" x1="418" y1="201.5" x2="422.9" y2="200.6"/>
			<line class="st47" x1="2.2" y1="149.5" x2="2.1" y2="149.4"/>
			<polyline class="st47" points="229.2,163.4 229.2,163.3 38.8,105.2 			"/>
			<line class="st47" x1="339.7" y1="19.1" x2="339.7" y2="19"/>
			<polyline class="st47" points="316.3,49.8 316.2,49.7 105.8,24.7 			"/>
			<line class="st47" x1="345.5" y1="18.8" x2="345.4" y2="18.8"/>
			<line class="st47" x1="405.7" y1="95.7" x2="405.8" y2="95.6"/>
			<line class="st47" x1="470.4" y1="178.2" x2="470.5" y2="178.2"/>
			<line class="st47" x1="222.3" y1="210" x2="423" y2="177.8"/>
			<line class="st47" x1="268.2" y1="135.2" x2="394.9" y2="120.5"/>
			<line class="st47" x1="324.3" y1="61.5" x2="345.9" y2="60"/>
			<polyline class="st47" points="127.1,1.4 126.5,0.9 126.5,1.4 			"/>
			<line class="st47" x1="126" y1="0.8" x2="126.5" y2="0.9"/>
			<line class="st47" x1="1.8" y1="150.1" x2="2.2" y2="149.7"/>
			<line class="st47" x1="124.4" y1="2.7" x2="126" y2="0.8"/>
			<line class="st47" x1="1.8" y1="150.1" x2="2.3" y2="156.3"/>
			<line class="st47" x1="2.2" y1="150.3" x2="2.7" y2="156.5"/>
			<line class="st47" x1="2.3" y1="156.3" x2="2.7" y2="156.5"/>
			<line class="st47" x1="343.6" y1="16.5" x2="343.3" y2="36.5"/>
			<line class="st47" x1="343.6" y1="16.5" x2="342.6" y2="16.4"/>
			<line class="st47" x1="180.9" y1="227.7" x2="181.1" y2="237.1"/>
			<line class="st47" x1="182" y1="237.5" x2="191.6" y2="235.8"/>
			<line class="st47" x1="182" y1="237.5" x2="181.1" y2="237.1"/>
			<polyline class="st47" points="471.4,179.5 471,187.3 464.5,188.4 			"/>
			<line class="st47" x1="442.9" y1="179.4" x2="441.9" y2="179.2"/>
			<polyline class="st47" points="452,190.6 442.4,192.3 441.4,192 			"/>
			<line class="st47" x1="464.5" y1="188.4" x2="452" y2="190.6"/>
			<line class="st47" x1="442.1" y1="175.1" x2="442.6" y2="162"/>
			<line class="st47" x1="423.8" y1="170.6" x2="442.1" y2="175.1"/>
			<line class="st47" x1="423.4" y1="182.5" x2="441.6" y2="187.2"/>
			<line class="st47" x1="423.8" y1="170.6" x2="423.4" y2="182.5"/>
			<line class="st47" x1="441.4" y1="192" x2="441.6" y2="187.2"/>
			<line class="st47" x1="222.4" y1="215.6" x2="222.7" y2="230.4"/>
			<line class="st47" x1="209.5" y1="232.7" x2="222.7" y2="230.4"/>
			<polyline class="st47" points="209.8,279.7 209.7,273.7 209,236.9 			"/>
			<polyline class="st47" points="212.1,396.5 211.1,345 211,339.1 			"/>
			<line class="st47" x1="346.1" y1="60.2" x2="345.9" y2="60"/>
			<line class="st47" x1="396.4" y1="122.4" x2="394.9" y2="120.5"/>
			<line class="st47" x1="340.2" y1="19.7" x2="342" y2="17.3"/>
			<polyline class="st47" points="423,177.8 423.2,172.4 423.6,161 			"/>
			<line class="st47" x1="2.2" y1="150.3" x2="22.7" y2="159.2"/>
			<line class="st47" x1="226.6" y1="166.8" x2="229.2" y2="163.4"/>
			<line class="st47" x1="276.3" y1="379.2" x2="275.7" y2="379.3"/>
			<polyline class="st47" points="207.9,417.2 207.8,413.8 207.7,409.4 			"/>
			<polyline class="st47" points="197.9,416.3 197.9,414.2 197.8,409.9 			"/>
			<polyline class="st47" points="416.9,356.4 417,354.2 417.1,349.4 			"/>
			<polyline class="st47" points="407.9,355.7 408,353.8 408,352 			"/>
			<polyline class="st47" points="50.7,310.4 50.7,309.4 50.4,305.4 			"/>
			<polyline class="st47" points="345,39.7 341.6,39.4 341.2,39.3 			"/>
			<polyline class="st47" points="363.1,62.4 359.7,62 346.1,60.2 			"/>
			<polyline class="st47" points="357,54.7 352.3,54.1 343.1,53 			"/>
			<polyline class="st47" points="380.6,84.3 377.2,83.8 363.4,81.7 			"/>
			<polyline class="st47" points="374.5,76.7 369.3,75.9 360.6,74.7 			"/>
			<polyline class="st47" points="397.4,105.4 394,104.8 380.2,102.4 			"/>
			<polyline class="st47" points="391.4,97.9 385.7,96.9 377.5,95.5 			"/>
			<polyline class="st47" points="429.3,145.3 425.9,144.6 412.1,141.7 			"/>
			<polyline class="st47" points="423.5,138 416.9,136.7 409.5,135.1 			"/>
			<polyline class="st47" points="413.6,125.7 410.2,125 396.4,122.4 			"/>
			<polyline class="st47" points="407.7,118.3 401.5,117.1 393.7,115.7 			"/>
			<polyline class="st47" points="435.3,152.8 431.8,152.1 421.3,149.7 			"/>
			<line class="st47" x1="58.3" y1="314.1" x2="58.1" y2="312.1"/>
			<polyline class="st47" points="191.3,439.6 191.3,441.9 191.5,449.1 			"/>
			<polyline class="st47" points="215.4,432.3 215.6,440.9 215.7,448.2 			"/>
			<line class="st47" x1="19.1" y1="309.2" x2="46" y2="329.9"/>
			<line class="st47" x1="189.8" y1="440" x2="191.3" y2="439.6"/>
			<polyline class="st47" points="422.6,369.7 422.2,379.2 422,384.9 			"/>
			<polyline class="st47" points="401.2,376.2 401.1,378.1 400.9,383.4 			"/>
			<polyline class="st47" points="46,329.9 46.2,332.5 46.5,337.1 			"/>
			<polyline class="st47" points="150.6,3.3 149.5,4.6 149.5,4.6 			"/>
			<polyline class="st47" points="422,348 422.2,344 422.4,337.4 			"/>
			<line class="st47" x1="286" y1="386.9" x2="408" y2="352"/>
			<polyline class="st47" points="101.3,201.3 38.1,173 2.7,157.1 2.7,156.5 			"/>
			<line class="st47" x1="313.8" y1="53" x2="280" y2="97.2"/>
			<line class="st47" x1="226.6" y1="166.8" x2="217.4" y2="178.8"/>
			<line class="st47" x1="90.2" y1="188.4" x2="22.7" y2="159.2"/>
			<line class="st47" x1="423.9" y1="292.6" x2="424.1" y2="287.5"/>
			<line class="st47" x1="42.9" y1="248.6" x2="43.2" y2="253.1"/>
			<line class="st47" x1="422.3" y1="337.4" x2="423.9" y2="292.6"/>
			<line class="st47" x1="43.2" y1="253.1" x2="46.3" y2="302.5"/>
			<polyline class="st47" points="426,235.6 426.2,230.3 427.4,197 			"/>
			<polyline class="st47" points="38.1,173 39.7,197.8 40,202.4 			"/>
			<line class="st47" x1="423" y1="197.8" x2="418.1" y2="198.6"/>
			<polyline class="st47" points="285.9,221.8 285.8,221.8 276.7,223.4 			"/>
			<polyline class="st47" points="208.8,235.3 208.7,235.3 196.2,237.5 			"/>
			<line class="st47" x1="209.5" y1="237.2" x2="209.6" y2="237.1"/>
			<line class="st47" x1="286.6" y1="223.5" x2="286.7" y2="223.5"/>
			<polyline class="st47" points="285.8,223.2 286,223.3 286.6,223.5 			"/>
			<polyline class="st47" points="418.4,198.7 418.1,198.6 417.6,198.5 			"/>
			<polyline class="st47" points="276.2,223.2 276.7,223.4 277,223.5 			"/>
			<polyline class="st47" points="208.8,236.8 209,236.9 209.5,237.2 			"/>
			<line class="st47" x1="38.8" y1="105.2" x2="36.8" y2="107.7"/>
			<line class="st47" x1="36.8" y1="107.7" x2="2.1" y2="149.4"/>
			<polyline class="st47" points="313.8,53 316.3,49.8 339.7,19.1 			"/>
			<polyline class="st47" points="124.1,2.7 105.8,24.7 103.9,27 			"/>
			<line class="st47" x1="270.9" y1="109" x2="273.4" y2="105.7"/>
			<line class="st47" x1="72.7" y1="64.5" x2="70.8" y2="66.9"/>
			<polyline class="st47" points="369.5,49.4 367.3,46.5 345.5,18.8 			"/>
			<line class="st47" x1="405.8" y1="95.6" x2="403.7" y2="93"/>
			<polyline class="st47" points="470.5,178.2 439.3,138.4 437.4,136 			"/>
			<line class="st47" x1="341.7" y1="54.9" x2="341.1" y2="54.2"/>
			<line class="st47" x1="441.9" y1="179.2" x2="441.6" y2="187.2"/>
			<line class="st47" x1="442.1" y1="175.1" x2="441.9" y2="179.2"/>
			<line class="st47" x1="424.1" y1="161.1" x2="423.8" y2="170.6"/>
			<polyline class="st47" points="423.2,187.2 428,188.5 441.4,192 			"/>
			<polyline class="st47" points="423.4,182.5 423.3,185.4 423.2,187.2 			"/>
			<line class="st47" x1="222.1" y1="195.8" x2="222.2" y2="203.8"/>
			<line class="st47" x1="191.6" y1="235.8" x2="196" y2="235.1"/>
			<line class="st47" x1="211" y1="339.1" x2="209.8" y2="279.8"/>
			<line class="st47" x1="229.2" y1="163.4" x2="270.9" y2="109"/>
			<polyline class="st47" points="414.8,294.8 413.3,339.9 413.3,340 413.3,340.9 			"/>
			<polyline class="st47" points="277,379 276.3,379.1 276.3,379.2 			"/>
			<polyline class="st47" points="58.1,312.1 58.1,311 58.1,310.8 			"/>
			<line class="st47" x1="46" y1="329.9" x2="46.6" y2="330.3"/>
			<line class="st47" x1="191.3" y1="439.6" x2="191.6" y2="439.5"/>
			<line class="st47" x1="408" y1="352" x2="408.1" y2="352"/>
			<line class="st47" x1="280" y1="97.2" x2="273.4" y2="105.7"/>
			<line class="st47" x1="424.1" y1="287.5" x2="426" y2="235.6"/>
			<line class="st47" x1="40" y1="202.4" x2="42.9" y2="248.6"/>
			<line class="st47" x1="181.1" y1="398.1" x2="191.3" y2="405.4"/>
			<polyline class="st47" points="212.1,396.5 212.4,408 212.4,408 			"/>
			<polyline class="st47" points="201.5,411.2 201.6,411.1 207.7,409.4 212.4,408 			"/>
			<polyline class="st47" points="427.7,196.9 427.4,197 423,197.8 			"/>
			<polyline class="st47" points="286,387 286,386.9 286,375.9 			"/>
			<line class="st47" x1="209.6" y1="237.1" x2="211" y2="236.9"/>
			<line class="st47" x1="286.7" y1="223.5" x2="287.9" y2="223.3"/>
			<line class="st47" x1="70.7" y1="66.9" x2="38.8" y2="105.2"/>
			<line class="st47" x1="103.9" y1="27" x2="72.7" y2="64.5"/>
			<line class="st47" x1="437.4" y1="136" x2="405.8" y2="95.6"/>
			<line class="st47" x1="403.7" y1="93" x2="369.5" y2="49.4"/>
			<polyline class="st47" points="392.9,118 392.5,117.5 390.7,115.3 			"/>
			<line class="st47" x1="342.2" y1="55.4" x2="341.7" y2="54.9"/>
			<line class="st47" x1="335.3" y1="47" x2="341.1" y2="54.2"/>
			<line class="st47" x1="180.9" y1="227.7" x2="180.9" y2="227.7"/>
			<line class="st47" x1="343" y1="37.1" x2="345" y2="39.7"/>
			<polyline class="st47" points="403.6,93.1 369.5,49.5 367.2,46.6 			"/>
			<line class="st47" x1="424.2" y1="158.3" x2="424.1" y2="161.1"/>
			<polyline class="st47" points="222.2,203.8 222.3,210 222.4,215.6 			"/>
			<polyline class="st47" points="196,235.1 196.1,235.1 209.5,232.7 			"/>
			<line class="st47" x1="415" y1="289.7" x2="414.8" y2="294.8"/>
			<line class="st47" x1="46.6" y1="330.3" x2="47.9" y2="331.3"/>
			<line class="st47" x1="191.6" y1="439.5" x2="192.8" y2="439.1"/>
			<line class="st47" x1="46.3" y1="302.5" x2="46.9" y2="302.9"/>
			<line class="st47" x1="151.8" y1="377.3" x2="161.1" y2="383.9"/>
			<line class="st47" x1="191.3" y1="405.4" x2="195.5" y2="408.3"/>
			<line class="st47" x1="211" y1="236.9" x2="275.3" y2="225.5"/>
			<line class="st47" x1="287.9" y1="223.3" x2="355.4" y2="211.4"/>
			<polyline class="st47" points="339.7,19 338.7,18.9 321.5,17.6 			"/>
			<line class="st47" x1="318.3" y1="17.4" x2="302.9" y2="16.2"/>
			<line class="st47" x1="299.8" y1="16" x2="284.4" y2="14.8"/>
			<line class="st47" x1="423.7" y1="158.2" x2="423.7" y2="157.9"/>
			<polyline class="st47" points="420.5,152.1 420,151.5 412.1,141.7 			"/>
			<polyline class="st47" points="408.7,137.5 408.2,136.9 396.4,122.4 			"/>
			<line class="st47" x1="405.7" y1="95.7" x2="403.6" y2="93.1"/>
			<line class="st47" x1="367.2" y1="46.6" x2="345.5" y2="18.9"/>
			<line class="st47" x1="424.2" y1="157.8" x2="424.2" y2="158.3"/>
			<line class="st47" x1="416.8" y1="237.5" x2="415" y2="289.7"/>
			<line class="st47" x1="47.9" y1="331.3" x2="49.7" y2="332.7"/>
			<line class="st47" x1="192.8" y1="439.1" x2="194.7" y2="438.5"/>
			<polyline class="st47" points="408.1,352 412.4,350.8 412.5,350.7 417.1,349.4 422,348 			"/>
			<line class="st47" x1="46.9" y1="302.9" x2="50.4" y2="305.4"/>
			<polyline class="st47" points="161.1,383.9 165.2,386.8 181.1,398.1 			"/>
			<line class="st47" x1="195.5" y1="408.3" x2="197.8" y2="409.9"/>
			<polyline class="st47" points="275.3,225.5 276.6,225.3 277,225.2 			"/>
			<line class="st47" x1="355.4" y1="211.4" x2="417" y2="200.5"/>
			<polyline class="st47" points="321.5,17.6 320.1,17.5 318.3,17.4 			"/>
			<polyline class="st47" points="302.9,16.2 301.6,16.1 299.8,16 			"/>
			<polyline class="st47" points="284.4,14.8 283.1,14.7 281.4,14.6 266.8,13.5 			"/>
			<line class="st47" x1="423.7" y1="157.9" x2="423.7" y2="156.8"/>
			<line class="st47" x1="390.7" y1="115.3" x2="380.2" y2="102.4"/>
			<line class="st47" x1="345" y1="39.7" x2="356.3" y2="53.8"/>
			<line class="st47" x1="471.4" y1="179.5" x2="470.4" y2="178.2"/>
			<polyline class="st47" points="345.5,18.9 345.4,18.8 343.6,16.5 			"/>
			<line class="st47" x1="424.3" y1="157.5" x2="424.2" y2="157.8"/>
			<line class="st47" x1="416.9" y1="232.2" x2="416.8" y2="237.5"/>
			<line class="st47" x1="49.7" y1="332.7" x2="52" y2="334.4"/>
			<line class="st47" x1="194.7" y1="438.5" x2="197.2" y2="437.8"/>
			<line class="st47" x1="50.4" y1="305.4" x2="50.5" y2="305.5"/>
			<line class="st47" x1="197.8" y1="409.9" x2="197.9" y2="410"/>
			<polyline class="st47" points="417,200.5 418,200.3 418.4,200.3 			"/>
			<polyline class="st47" points="423.7,156.8 423.7,156.1 423.7,156.1 			"/>
			<line class="st47" x1="376.6" y1="97.9" x2="376.1" y2="97.3"/>
			<polyline class="st47" points="273.4,128.4 268.2,135.2 222.1,195.8 			"/>
			<polyline class="st47" points="359.2,57.5 363.1,62.4 373.5,75.4 			"/>
			<line class="st47" x1="470.4" y1="178.2" x2="439.3" y2="138.5"/>
			<polyline class="st47" points="424.3,155.2 424.3,156.2 424.3,157.5 			"/>
			<polyline class="st47" points="418,200.3 418,201.5 416.9,232.2 			"/>
			<line class="st47" x1="52" y1="334.4" x2="54.5" y2="336.4"/>
			<line class="st47" x1="197.2" y1="437.8" x2="200.1" y2="436.9"/>
			<line class="st47" x1="200" y1="411.5" x2="200.1" y2="411.6"/>
			<polyline class="st47" points="266.8,13.5 265.5,13.4 263.9,13.3 250,12.2 			"/>
			<polyline class="st47" points="335.3,47 329.3,54.9 324.3,61.5 273.4,128.4 			"/>
			<polyline class="st47" points="356.3,53.8 357,54.7 359.2,57.5 			"/>
			<polyline class="st47" points="376.8,79.6 380.6,84.3 390.1,96.2 391.4,97.9 393.8,100.8 			"/>
			<polyline class="st47" points="439.3,138.5 437.4,136.1 405.7,95.7 			"/>
			<line class="st47" x1="54.5" y1="336.4" x2="57.1" y2="338.4"/>
			<line class="st47" x1="200.1" y1="436.9" x2="203.3" y2="435.9"/>
			<polyline class="st47" points="50.5,305.5 52.6,307 52.7,307 			"/>
			<line class="st47" x1="197.9" y1="410" x2="199.9" y2="411.4"/>
			<line class="st47" x1="376.1" y1="97.3" x2="363.4" y2="81.7"/>
			<line class="st47" x1="341.2" y1="39.3" x2="335.3" y2="47"/>
			<polyline class="st47" points="373.5,75.4 374.5,76.7 376.8,79.6 			"/>
			<line class="st47" x1="393.8" y1="100.8" x2="397.4" y2="105.4"/>
			<line class="st47" x1="203.3" y1="435.9" x2="206.4" y2="435"/>
			<polyline class="st47" points="52.6,307 58.1,310.8 64.6,315.5 			"/>
			<polyline class="st47" points="250,12.2 248.7,12.1 247.2,12 			"/>
			<line class="st47" x1="342.1" y1="17.1" x2="342.6" y2="16.4"/>
			<line class="st47" x1="342.7" y1="37.3" x2="341.2" y2="39.3"/>
			<line class="st47" x1="57.1" y1="338.4" x2="58" y2="339"/>
			<line class="st47" x1="66" y1="345.2" x2="69.1" y2="347.6"/>
			<line class="st47" x1="206.4" y1="435" x2="209.4" y2="434.1"/>
			<polyline class="st47" points="64.6,315.5 68.3,318.1 78.6,325.4 85.7,330.4 			"/>
			<polyline class="st47" points="247.2,12 238.2,11.3 234,11 			"/>
			<polyline class="st47" points="359.7,77.1 359.2,76.5 346.1,60.2 			"/>
			<polyline class="st47" points="342,17.3 342,17.3 342.1,17.2 			"/>
			<polyline class="st47" points="343.3,36.5 342.9,37 342.7,37.3 			"/>
			<polyline class="st47" points="397.4,105.4 406.1,116.2 407.7,118.3 410.1,121.3 			"/>
			<line class="st47" x1="62.2" y1="342.2" x2="66" y2="345.2"/>
			<line class="st47" x1="69.1" y1="347.6" x2="71.3" y2="349.2"/>
			<line class="st47" x1="209.4" y1="434.1" x2="211.9" y2="433.3"/>
			<polyline class="st47" points="234,11 232.7,10.9 231.3,10.8 			"/>
			<line class="st47" x1="410.1" y1="121.3" x2="413.6" y2="125.7"/>
			<polyline class="st47" points="58,339 60.4,340.9 62.2,342.2 			"/>
			<line class="st47" x1="71.3" y1="349.2" x2="72.5" y2="350.1"/>
			<line class="st47" x1="211.9" y1="433.3" x2="213.8" y2="432.8"/>
			<polyline class="st47" points="85.7,330.4 89.5,333.1 100.9,341.2 108.6,346.7 			"/>
			<polyline class="st47" points="126,2.8 124.9,2.8 124.4,2.7 124.1,2.7 			"/>
			<polyline class="st47" points="72.5,350.1 72.5,350.1 189.8,440 			"/>
			<line class="st47" x1="213.8" y1="432.8" x2="215" y2="432.4"/>
			<line class="st47" x1="231.3" y1="10.8" x2="218.7" y2="9.9"/>
			<polyline class="st47" points="413.6,125.7 421.6,135.6 423.5,138 			"/>
			<line class="st47" x1="440" y1="158.7" x2="442.6" y2="162"/>
			<line class="st47" x1="215" y1="432.4" x2="215.4" y2="432.3"/>
			<polyline class="st47" points="108.6,346.7 112.5,349.4 125.2,358.5 133.7,364.5 			"/>
			<line class="st47" x1="437.7" y1="155.9" x2="440" y2="158.7"/>
			<polyline class="st47" points="133.7,364.5 137.6,367.2 151.8,377.3 			"/>
			<polyline class="st47" points="218.7,9.9 217.5,9.8 216.1,9.7 204.1,8.8 			"/>
			<polyline class="st47" points="215.4,432.3 401.2,376.2 401.4,376.1 			"/>
			<polyline class="st47" points="423.5,138 425.9,141.1 429.3,145.3 435.3,152.8 437.7,155.9 			"/>
			<polyline class="st47" points="403.9,375.3 406,374.7 408.6,373.9 			"/>
			<polyline class="st47" points="204.1,8.8 202.9,8.7 201.6,8.6 190.2,7.7 			"/>
			<polyline class="st47" points="401.4,376.1 402.3,375.8 403.9,375.3 			"/>
			<polyline class="st47" points="408.6,373.9 411.4,373.1 414.2,372.2 			"/>
			<polyline class="st47" points="190.2,7.7 189,7.6 187.7,7.5 176.8,6.7 			"/>
			<polyline class="st47" points="414.2,372.2 416.8,371.4 419.1,370.7 			"/>
			<polyline class="st47" points="176.8,6.7 175.6,6.6 174.4,6.5 			"/>
			<line class="st47" x1="419.1" y1="370.7" x2="420.9" y2="370.2"/>
			<line class="st47" x1="127.1" y1="2.9" x2="126" y2="2.8"/>
			<line class="st47" x1="422.6" y1="369.7" x2="455.5" y2="359.7"/>
			<line class="st47" x1="174.4" y1="6.5" x2="164" y2="5.7"/>
			<line class="st47" x1="147.2" y1="4.4" x2="138.3" y2="3.8"/>
			<line class="st47" x1="136.1" y1="3.6" x2="127.1" y2="2.9"/>
			<polyline class="st47" points="420.9,370.2 422.1,369.8 422.6,369.7 			"/>
			<polyline class="st47" points="149.5,4.6 148.3,4.5 147.2,4.4 			"/>
			<polyline class="st47" points="138.3,3.8 137.2,3.7 136.1,3.6 			"/>
			<polyline class="st47" points="164,5.7 162.8,5.6 161.7,5.5 151.7,4.8 150.6,4.7 149.5,4.6 			"/>
			<line class="st47" x1="286" y1="375.9" x2="286" y2="223.3"/>
			<line class="st47" x1="401.5" y1="117.1" x2="402.7" y2="115.6"/>
			<line class="st47" x1="416.9" y1="136.7" x2="418.1" y2="134.9"/>
			<line class="st47" x1="124.9" y1="2.8" x2="126" y2="1.5"/>
			<line class="st47" x1="280.4" y1="97.7" x2="340.2" y2="19.7"/>
			<line class="st47" x1="211.1" y1="345" x2="198.6" y2="348.1"/>
			<line class="st47" x1="239.3" y1="9.6" x2="342.1" y2="17.2"/>
			<line class="st47" x1="127.1" y1="1.4" x2="239.3" y2="9.6"/>
			<line class="st47" x1="200.1" y1="411.6" x2="201.5" y2="411.2"/>
			<line class="st47" x1="197.1" y1="282.3" x2="209.8" y2="279.7"/>
			<line class="st47" x1="442.9" y1="179.4" x2="452" y2="190.6"/>
			<line class="st47" x1="222.4" y1="215.6" x2="209.5" y2="232.7"/>
			<line class="st47" x1="191.6" y1="235.8" x2="222.1" y2="195.8"/>
			<line class="st47" x1="180.9" y1="227.7" x2="218" y2="179.3"/>
			<line class="st47" x1="464.5" y1="188.4" x2="443.6" y2="162.2"/>
		</g>
	</g>
</g>
</svg>
