<?xml version="1.0" encoding="UTF-8" standalone="no"?>
<!DOCTYPE svg PUBLIC "-//W3C//DTD SVG 1.1//EN"
"http://www.w3.org/Graphics/SVG/1.1/DTD/svg11.dtd">


<!-- Page 1 -->
<svg x="0" y="0" viewBox="0 0 1870 1210" version="1.1" xmlns="http://www.w3.org/2000/svg" xmlns:xlink="http://www.w3.org/1999/xlink"
style="display: block;margin-left: auto;margin-right: auto;">
<defs>
<clipPath id="c0_1"><path d="M1705,1164.2v-39.8h76.9v39.8H1705Z" /></clipPath>
<clipPath id="c1_1"><path d="M1739.4,861.1h-22.9V791.3h22.9v69.8Z" /></clipPath>
<clipPath id="c2_1"><path d="M1715.7,582.1v-84h13.7v84h-13.7Z" /></clipPath>
<clipPath id="c3_1"><path d="M1716.5,750.9V703.7h13.7v47.2h-13.7Z" /></clipPath>
<clipPath id="c4_1"><path d="M1768.2,413V182.4h31.3V413Z" /></clipPath>
<clipPath id="c5_1"><path d="M1768.9,1100h-31.5v-97.8h31.5V1100Z" /></clipPath>
<clipPath id="c6_1"><path d="M1720.9,116c4.6,0,9.1,-4.5,10.2,-10.8c.3,-1.8,.3,-3.5,.1,-5.2c2.4,2.7,5.8,4.2,8.8,4.2c.5,0,.9,-.1,1.4,-.1c4.9,-.9,9.1,-7.6,8.1,-14.3c2.1,3.3,5.4,5.2,8.5,5.2c.5,0,.9,-.1,1.4,-.1c4.8,-.9,8.3,-8.7,7.1,-15.6c-.4,-1.8,-1,-3.4,-1.8,-4.7c.2,.6,.3,1.1,.4,1.7c1.2,6.9,-1.9,14.7,-6.5,15.5c-.4,.1,-.8,.1,-1.2,.1c-3.7,0,-7.8,-3.1,-9.4,-8.1c-.2,.2,-.3,.3,-.5,.4c0,.2,0,.3,.1,.4c-.1,-.1,-.2,-.2,-.2,-.2c-.1,0,-.2,.1,-.2,.1c.3,.9,.6,1.8,.8,2.8c1.2,6.9,-2.6,13.7,-7.2,14.5c-.3,.1,-.7,.1,-1.1,.1c-3.8,0,-8.4,-2.9,-10.4,-7.6c.9,2.4,1.2,5.4,.6,8.5c-1.1,6.4,-5.2,11,-9.4,11c-.4,0,-.7,0,-1,0c-2.6,-.5,-4.5,-2.6,-5.6,-5.6c-.4,-.1,-.9,-.3,-1.3,-.6l-.1,-.1c.8,4.4,3.5,7.8,7.1,8.4c.4,.1,.9,.1,1.3,.1ZM1791,77.8c3,0,5.5,-2.4,5.5,-5.4c0,-3,-2.5,-5.5,-5.5,-5.5c-3,0,-5.4,2.5,-5.4,5.5c0,3,2.4,5.4,5.4,5.4ZM1738.2,139c-.5,0,-.9,-.1,-1.3,-.2c-3.8,-.8,-6.1,-5.3,-5.8,-10.7c-3.9,-1.3,-7.3,-3.4,-9.8,-6.5c-.3,-.3,-.6,-.7,-.9,-1.1c-1.6,3.1,-4.1,5,-6.9,5c-.1,0,-.2,0,-.3,0c-4.6,-.2,-8.1,-6,-7.7,-13c.2,-4.3,1.9,-8.1,4.2,-10.2c-.3,-3,.6,-6.6,2.8,-9.9c1.8,-2.8,4.3,-4.9,6.8,-6c.4,-2.6,1.6,-5.4,3.7,-7.9c2.7,-3.3,6.2,-5.2,9.3,-5.6c.2,-.6,.5,-1.3,.9,-1.9c2.5,-4.3,7.3,-6.8,11.3,-6.9c1.4,-.9,2.7,-1.7,4.1,-2.4c.6,-.7,1.2,-1.3,1.9,-1.9c3,-2.5,6.8,-3.8,10.1,-3.8c.7,0,1.5,0,2.2,.2c3.3,-.8,6.5,-1.2,9.6,-1.2c2.8,0,5.4,.3,7.9,1c.3,0,.6,0,1,0c6.5,0,13.1,2.7,16.7,9c4.8,8.3,4,20.3,-1,27c.4,.9,.7,1.9,.8,2.9c1.3,6.9,-1.9,14.7,-6.5,15.5c-.4,0,-.8,.1,-1.2,.1c-2.3,0,-4.8,-1.2,-6.7,-3.3c-.3,.4,-.7,.7,-1,1.1c0,.2,.1,.4,.1,.7c1.2,6.8,-2.6,13.6,-7.2,14.4c-.3,.1,-.7,.1,-1,.1c-2.2,0,-4.4,-1.1,-6.2,-3.1c-.8,.5,-1.5,.9,-2.3,1.4c0,.1,0,.2,0,.2c-1.1,6.4,-5.3,11.1,-9.5,11.1c-.3,0,-.6,-.1,-1,-.1c-2.3,-.4,-4.1,-2.2,-5.2,-4.8c-.8,.2,-1.5,.4,-2.2,.5c-1.5,6,-5.6,10.3,-9.7,10.3Z" /></clipPath>
<clipPath id="c7_1"><path d="M1732,404c5.9,0,10.6,-4.7,10.6,-10.5c0,-5.8,-4.7,-10.5,-10.6,-10.5c-5.9,0,-10.7,4.7,-10.7,10.5c0,5.8,4.8,10.5,10.7,10.5Zm-3.4,-35c4.6,0,8.4,-3.7,8.4,-8.2c0,-4.6,-3.8,-8.3,-8.4,-8.3c-4.7,0,-8.4,3.7,-8.4,8.3c0,4.5,3.7,8.2,8.4,8.2Zm-.2,-22c4.6,0,8.3,-3.7,8.3,-8.2c0,-4.5,-3.7,-8.1,-8.3,-8.1c-4.6,0,-8.3,3.6,-8.3,8.1c0,4.5,3.7,8.2,8.3,8.2Zm-8.8,62.1c-1.3,0,-2.6,-.1,-2.6,-2.2l.2,-87.3c0,-1.2,-.2,-2.3,2.5,-2.3c8.8,.1,15.9,.1,21.1,.1c0,0,0,43.3,0,60.7h8.1v31Z" /></clipPath>
<clipPath id="c8_1"><path d="M1731.8,400.3c-1.2,0,-2.1,-.3,-2.8,-1c-.7,-.6,-1,-1.5,-1,-2.5c0,-1.5,.6,-2.5,1.8,-3.2l.8,1.6c-.7,.3,-1,.8,-1,1.4c0,1,.7,1.6,2.2,1.6c1.4,0,2.1,-.6,2.1,-1.6c0,-.7,-.3,-1.2,-1,-1.5l.8,-1.5c1.2,.7,1.9,1.8,1.9,3.2c0,1,-.4,1.9,-1,2.6c-.7,.6,-1.6,.9,-2.8,.9Zm0,-6.9c-1.2,0,-2.1,-.4,-2.8,-1c-.7,-.7,-1,-1.5,-1,-2.5c0,-1.5,.6,-2.6,1.8,-3.2l.8,1.6c-.7,.3,-1,.7,-1,1.3c0,1.1,.7,1.7,2.2,1.7c1.4,0,2.1,-.6,2.1,-1.7c0,-.7,-.3,-1.2,-1,-1.4l.8,-1.6c1.2,.7,1.9,1.8,1.9,3.2c0,1.1,-.4,1.9,-1,2.6c-.7,.6,-1.6,1,-2.8,1Zm0,10c2.7,0,5,-1,7,-3c2,-1.9,3,-4.2,3,-6.9c0,-2.7,-1,-5.1,-3,-7c-1.9,-1.9,-4.2,-2.9,-7,-2.9c-2.8,0,-5.2,1,-7.1,2.9c-2,1.9,-3,4.2,-3,7c0,2.7,1,5,3,6.9c2,2,4.4,3,7.1,3Zm0,2.1c-3.4,0,-6.3,-1.2,-8.7,-3.5c-2.4,-2.3,-3.6,-5.2,-3.6,-8.5c0,-3.4,1.2,-6.2,3.6,-8.5c2.4,-2.4,5.2,-3.5,8.7,-3.5c3.4,0,6.3,1.1,8.6,3.4c2.4,2.4,3.6,5.3,3.6,8.6c0,3.3,-1.2,6.1,-3.6,8.5c-2.4,2.3,-5.3,3.5,-8.6,3.5Zm11.1,-40.8v-1.1c0,-.1,.1,-.2,.1,-.3c0,-.1,0,-.2,.1,-.2c0,-.1,.1,-.2,.1,-.2c.1,0,.2,-.1,.3,-.1c.3,0,.4,.1,.5,.2c.1,.2,.2,.3,.2,.5v1.2Zm2,0v-1.3c0,-.2,.1,-.4,.2,-.6c.1,-.1,.3,-.2,.6,-.2c.1,0,.2,0,.3,.1c.1,0,.2,.1,.2,.2q.1,.1,.1,.2c0,.1,.1,.2,.1,.4v1.2Zm2.3,1.1v-2.5c0,-.2,0,-.4,0,-.7c-.1,-.2,-.2,-.4,-.3,-.5c-.1,-.2,-.3,-.3,-.5,-.5c-.2,-.1,-.4,-.1,-.7,-.1c-.3,0,-.6,.1,-.8,.2c-.2,.2,-.4,.4,-.5,.7c-.1,-.2,-.2,-.4,-.4,-.5c-.2,-.1,-.4,-.2,-.7,-.2c-.2,0,-.4,.1,-.6,.2c-.1,0,-.3,.2,-.4,.3c-.1,.1,-.1,.3,-.2,.5c0,.2,0,.4,0,.7v2.4ZM1723.6,362c-.7,0,-1.3,-.5,-1.3,-1.2c0,-.7,.6,-1.3,1.3,-1.3c.7,0,1.3,.6,1.3,1.3c0,.7,-.6,1.2,-1.3,1.2Zm2.3,1.2c-.3,0,-.6,-.3,-.6,-.6V359c0,-.3,.3,-.6,.6,-.6h3.7v1h4.4v2.8h-4.4v1Zm16.2,-1.9l3.1,-1.9h2v-1.1h-1.9l-3.2,-1.9v1.3l2,1.1l-2,1.2v1.3Zm-13.9,6.8c2,0,3.7,-.7,5.2,-2.2c1.5,-1.4,2.2,-3.1,2.2,-5.1c0,-2,-.8,-3.7,-2.2,-5.2c-1.4,-1.4,-3.1,-2.1,-5.2,-2.1c-2.1,0,-3.8,.7,-5.3,2.1c-1.4,1.4,-2.2,3.2,-2.2,5.2c0,2,.8,3.7,2.2,5.1c1.5,1.5,3.3,2.2,5.3,2.2Zm0,1.6c-2.5,0,-4.6,-.9,-6.5,-2.6c-1.7,-1.7,-2.6,-3.8,-2.6,-6.3c0,-2.5,.9,-4.6,2.6,-6.3c1.8,-1.8,3.9,-2.6,6.5,-2.6c2.5,0,4.6,.8,6.3,2.5c1.8,1.8,2.7,3.9,2.7,6.4c0,2.4,-.9,4.5,-2.6,6.3c-1.8,1.7,-3.9,2.6,-6.4,2.6Zm17.3,-25.4c.4,0,.6,0,.8,-.1c.3,-.2,.5,-.3,.6,-.5c.2,-.2,.3,-.5,.3,-.7c.1,-.3,.2,-.6,.2,-.8c0,-.4,-.1,-.7,-.2,-1c-.1,-.2,-.2,-.4,-.3,-.6c-.2,-.2,-.3,-.3,-.5,-.4c-.2,-.1,-.5,-.2,-.7,-.2c-.3,0,-.5,.1,-.7,.2c-.2,.1,-.3,.3,-.5,.4c-.1,.2,-.2,.4,-.2,.5c-.1,.2,-.1,.3,-.1,.4c-.1,.4,-.2,.6,-.2,.8c-.1,.2,-.1,.4,-.2,.5c0,.1,-.1,.2,-.1,.2c-.1,0,-.2,.1,-.3,.1c-.1,0,-.2,-.1,-.3,-.1c0,-.1,-.1,-.1,-.1,-.2q-.1,-.1,-.1,-.2c-.1,-.1,-.1,-.2,-.1,-.3c0,-.1,0,-.3,.1,-.4c0,-.1,0,-.2,.1,-.3c0,-.1,.1,-.2,.2,-.2c.1,-.1,.2,-.1,.4,-.1v-1.1c-.3,0,-.5,.1,-.8,.2c-.2,.1,-.3,.2,-.5,.4c-.1,.2,-.2,.4,-.3,.7c0,.2,-.1,.5,-.1,.7c0,.3,.1,.5,.1,.7c.1,.3,.2,.5,.3,.6c.2,.2,.3,.4,.5,.5c.2,.1,.4,.2,.7,.2c.2,0,.4,-.1,.6,-.2c.2,-.1,.3,-.2,.4,-.3c.1,-.2,.2,-.3,.3,-.5c.1,-.2,.1,-.4,.2,-.6c0,-.2,.1,-.3,.1,-.5c.1,-.2,.1,-.4,.2,-.5c0,-.1,.1,-.3,.2,-.3c.1,-.1,.2,-.2,.3,-.2c.2,0,.3,.1,.4,.1c0,.1,.1,.2,.2,.3c0,.1,0,.2,0,.3c.1,.1,.1,.2,.1,.3c0,.2,0,.3,-.1,.4c0,.2,-.1,.3,-.1,.4c-.1,.1,-.2,.2,-.3,.2c-.2,.1,-.3,.1,-.5,.1v1.1Zm-.3,-6.2l-1.9,-.7l1.9,-.6v1.3Zm2,1.8v-1.1l-1.1,-.4v-1.9l1.1,-.4v-1.2l-5.1,1.9V338l5.1,1.9Zm-20.3,3.7v-.7c-2.3,-.4,-3.5,-2,-3.5,-3.9c0,-2.9,2.1,-4.6,4.9,-4.6c2.7,0,4.9,1.8,4.9,4.6c0,1.9,-1.2,3.6,-3.6,4v-2.3c1.2,-.1,1.7,-.8,1.7,-2c0,-1.2,-1.2,-2.1,-3.1,-2.1c-1.9,0,-2.9,.8,-2.9,2.1c0,1,.4,1.8,1.6,2V340l1.8,1.8l-1.8,1.8Zm1.3,2.6c2,0,3.7,-.7,5.2,-2.1c1.5,-1.5,2.2,-3.2,2.2,-5.2c0,-2,-.8,-3.7,-2.2,-5.2c-1.4,-1.4,-3.1,-2.1,-5.2,-2.1c-2.1,0,-3.8,.7,-5.3,2.1c-1.4,1.5,-2.2,3.2,-2.2,5.2c0,2,.8,3.7,2.2,5.1c1.5,1.5,3.3,2.2,5.3,2.2Zm0,1.6c-2.5,0,-4.6,-.8,-6.5,-2.6c-1.7,-1.7,-2.6,-3.8,-2.6,-6.3c0,-2.5,.9,-4.6,2.6,-6.3c1.8,-1.8,3.9,-2.6,6.5,-2.6c2.5,0,4.6,.8,6.3,2.5c1.8,1.8,2.7,4,2.7,6.4c0,2.5,-.9,4.5,-2.6,6.3c-1.8,1.8,-3.9,2.6,-6.4,2.6Zm11.3,61v-3.3c4.3,-2.4,7.2,-6.8,7.2,-12c0,-5.2,-2.9,-9.6,-7.2,-12V317.9h-21.3c-.5,0,-.9,.5,-.9,1v89c0,.5,.4,.9,.9,.9Zm-21.3,.8c-.9,0,-1.7,-.8,-1.7,-1.7v-89c0,-1,.8,-1.7,1.7,-1.7h30.7c.2,0,.4,.1,.4,.4v91.6c0,.2,-.2,.4,-.4,.4Z" /></clipPath>
<clipPath id="c9_1"><path d="M1370.9,486.7l14,-7.2L1368,447.1l-14,7.2l16.9,32.4Zm-81.2,48.4v-120h107.5v120Z" /></clipPath>
<clipPath id="c10_1"><path d="M1370.9,486.7L1354,454.3l14,-7.2l16.9,32.4l-14,7.2Z" /></clipPath>
<clipPath id="c11_1"><path d="M1318.3,385.8l13.9,-7.3l-16.9,-32.4l-14,7.3l17,32.4Zm-95.4,76.5V285.9h136.4V462.3Z" /></clipPath>
<clipPath id="c12_1"><path d="M1318.3,385.8l-17,-32.4l14,-7.3l16.9,32.4l-13.9,7.3Z" /></clipPath>
<clipPath id="c13_1"><path d="M1250.8,256.6l14,-7.3l-16.9,-32.4l-14,7.3l16.9,32.4Zm-94.7,76.1v-176h135.8v176Z" /></clipPath>
<clipPath id="c14_1"><path d="M1250.8,256.6l-16.9,-32.4l14,-7.3l16.9,32.4l-14,7.3Z" /></clipPath>
<clipPath id="c15_1"><path d="M770.7,645.8l32.5,-16.6l-7.2,-14l-32.5,16.6l7.2,14ZM712.4,731V593.4H875.8V731Z" /></clipPath>
<clipPath id="c16_1"><path d="M770.7,645.8l-7.2,-14L796,615.2l7.2,14l-32.5,16.6Z" /></clipPath>
<clipPath id="c17_1"><path d="M936.9,560.7l32.6,-16.6l-7.2,-14l-32.5,16.6l7.1,14ZM823.4,674.2V480h273.8V674.2Z" /></clipPath>
<clipPath id="c18_1"><path d="M936.9,560.7l-7.1,-14l32.5,-16.6l7.2,14l-32.6,16.6Z" /></clipPath>
<clipPath id="c19_1"><path d="M1140.7,456.4l38.4,-19.6l-7.2,-14l-38.4,19.6l7.2,14Zm-95.9,104.4v-179h244.4v179Z" /></clipPath>
<clipPath id="c20_1"><path d="M1140.7,456.4l-7.2,-14l38.4,-19.6l7.2,14l-38.4,19.6Z" /></clipPath>
<clipPath id="c21_1"><path d="M1247.1,525.7L1285.5,506l-7.1,-14l-38.5,19.7l7.2,14Zm-40.3,50.9V479.4h120.5v97.2Z" /></clipPath>
<clipPath id="c22_1"><path d="M1247.1,525.7l-7.2,-14L1278.4,492l7.1,14l-38.4,19.7Z" /></clipPath>
<clipPath id="c23_1"><path d="M1098.1,602l32.5,-16.6l-7.2,-14L1090.9,588l7.2,14ZM984.2,690.5V521.1h261.6V690.5Z" /></clipPath>
<clipPath id="c24_1"><path d="M1098.1,602l-7.2,-14l32.5,-16.6l7.2,14L1098.1,602Z" /></clipPath>
<clipPath id="c25_1"><path d="M876.6,715.4l32.5,-16.7l-7.1,-14l-32.6,16.7l7.2,14ZM762.8,803.9V634.5h261.5V803.9Z" /></clipPath>
<clipPath id="c26_1"><path d="M876.6,715.4l-7.2,-14L902,684.7l7.1,14l-32.5,16.7Z" /></clipPath>
<clipPath id="c27_1"><path d="M628.6,472.2v-345h667.6V188l-20.5,-39.7l-14,7.2l20.5,39.7l14,-7.2V472.2Z" /></clipPath>
<clipPath id="c28_1"><path d="M1282.2,195.2l-20.5,-39.7l14,-7.2l20.5,39.7l-14,7.2Z" /></clipPath>

<style type="text/css"><![CDATA[

.g0_1{
fill: none;
stroke: #000000;
stroke-width: 0.7638889;
stroke-linecap: butt;
stroke-linejoin: miter;
}
.g1_1{
fill: none;
stroke: #000000;
stroke-width: 0.7638889;
stroke-linecap: round;
stroke-linejoin: round;
}
.g2_1{
}
.g3_1{
fill: #A3ABA1;
}
.g4_1{
fill: #0A0B09;
}
.g5_1{
fill: none;
stroke: #000000;
stroke-width: 0.38194445;
stroke-linecap: butt;
stroke-linejoin: miter;
}

.s1_1{
font-size: 27.50px;
font-family: Arial-Black_9;
fill: TRANSPARENT;
}
.s2_1{
font-size: 9.17px;
font-family: Arial-Black_9;
fill: TRANSPARENT;
}
.s3_1{
font-size: 9.17px;
font-family: ArialMT_a;
fill: TRANSPARENT;
}
.s4_1{
font-size: 27.50px;
font-family: ArialMT_a;
fill: TRANSPARENT;
}
.s5_1{
font-size: 13.75px;
font-family: ArialMT_a;
fill: TRANSPARENT;
}
text::-moz-selection {
	color: transparent;
	background: rgba(0, 106, 173, 0.4);
}
text::selection {
	color: transparent;
	background: rgba(0, 106, 173, 0.4);
}

]]></style>

</defs>
<path d="M0,0
L0,1210
L1870,1210
L1870,0 Z " 
fill="#FFFFFF" stroke="none" />
<path d="M82.5,55H1691.3V1155H82.5V55ZM1705,1113.8h96.3" class="g0_1" />
<g clip-path="url(#c0_1)">
<g fill="#000000" >
<use xlink:href="#f0_7" transform="matrix(18,0,0,18,1708.8,1155)" />
<use xlink:href="#f0_3" transform="matrix(18,0,0,18,1730.7,1155)" />
<use xlink:href="#f0_4" transform="matrix(18,0,0,18,1739.8,1155)" />
<use xlink:href="#f0_5" transform="matrix(18,0,0,18,1758.2,1155)" />
</g>
</g>
<g clip-path="url(#c1_1)">
<g fill="#000000" >
<use xlink:href="#f0_a" transform="matrix(0,-6,6,0,1727.2,857.2)" />
</g>
</g>
<text transform="matrix(1, 0, 0, 1, 1708, 1155)" dx="0,-0.5,0,0" class="s1_1">C.05</text>
<g clip-path="url(#c1_1)">
<g fill="#000000" >
<use xlink:href="#f0_e" transform="matrix(0,-6,6,0,1727.2,853.7)" />
<use xlink:href="#f0_e" transform="matrix(0,-6,6,0,1727.2,847.1)" />
<use xlink:href="#f0_g" transform="matrix(0,-6,6,0,1727.2,840.4)" />
<use xlink:href="#f0_9" transform="matrix(0,-6,6,0,1727.2,832.8)" />
<use xlink:href="#f0_8" transform="matrix(0,-6,6,0,1727.2,823.1)" />
<use xlink:href="#f0_6" transform="matrix(0,-6,6,0,1727.2,816.4)" />
<use xlink:href="#f0_f" transform="matrix(0,-6,6,0,1727.2,809.9)" />
<use xlink:href="#f0_9" transform="matrix(0,-6,6,0,1727.2,803.3)" />
</g>
</g>
<g clip-path="url(#c2_1)">
<g fill="#000000" >
<use xlink:href="#f0_e" transform="matrix(0,-6,6,0,1726.4,578.3)" />
</g>
</g>
<text transform="matrix(0, -1, 1, 0, 1727, 857)" dx="0,0,0,0,0,0,0,-0.4,-0.6,0" class="s2_1">ISSUE DATE</text>
<g clip-path="url(#c2_1)">
<g fill="#000000" >
<use xlink:href="#f0_a" transform="matrix(0,-6,6,0,1726.4,571.6)" />
<use xlink:href="#f0_f" transform="matrix(0,-6,6,0,1726.4,568.1)" />
<use xlink:href="#f0_9" transform="matrix(0,-6,6,0,1726.4,561.5)" />
<use xlink:href="#f0_6" transform="matrix(0,-6,6,0,1726.4,551.8)" />
<use xlink:href="#f0_8" transform="matrix(0,-6,6,0,1726.4,544.6)" />
<use xlink:href="#f0_8" transform="matrix(0,-6,6,0,1726.4,537.5)" />
<use xlink:href="#f0_d" transform="matrix(0,-6,6,0,1726.4,530.4)" />
<use xlink:href="#f0_9" transform="matrix(0,-6,6,0,1726.4,523.2)" />
<use xlink:href="#f0_e" transform="matrix(0,-6,6,0,1726.4,516.6)" />
<use xlink:href="#f0_e" transform="matrix(0,-6,6,0,1726.4,510)" />
</g>
</g>
<g clip-path="url(#c3_1)">
<g fill="#000000" >
<use xlink:href="#f0_c" transform="matrix(0,-6,6,0,1727.2,747.1)" />
</g>
</g>
<text transform="matrix(0, -1, 1, 0, 1726, 578)" class="s2_1">SITE ADDRESS</text>
<g clip-path="url(#c3_1)">
<g fill="#000000" >
<use xlink:href="#f0_h" transform="matrix(0,-6,6,0,1727.2,739.6)" />
<use xlink:href="#f0_b" transform="matrix(0,-6,6,0,1727.2,730.4)" />
<use xlink:href="#f0_9" transform="matrix(0,-6,6,0,1727.2,722.8)" />
<use xlink:href="#f0_d" transform="matrix(0,-6,6,0,1727.2,716.2)" />
</g>
</g>
<g clip-path="url(#c4_1)">
<g fill="#000000" >
<use xlink:href="#f1_m" transform="matrix(0,-6,6,0,1775.9,409.2)" />
</g>
</g>
<text transform="matrix(0, -1, 1, 0, 1727, 747)" dx="0,-0.2,0,0,0" class="s2_1">OWNER</text>
<g clip-path="url(#c4_1)">
<g fill="#000000" >
<use xlink:href="#f1_u" transform="matrix(0,-6,6,0,1775.9,403.6)" />
<use xlink:href="#f1_v" transform="matrix(0,-6,6,0,1775.9,398.5)" />
<use xlink:href="#f1_13" transform="matrix(0,-6,6,0,1775.9,396.5)" />
<use xlink:href="#f1_17" transform="matrix(0,-6,6,0,1775.9,389.3)" />
<use xlink:href="#f1_10" transform="matrix(0,-6,6,0,1775.9,382.7)" />
<use xlink:href="#f1_12" transform="matrix(0,-6,6,0,1775.9,377.6)" />
<use xlink:href="#f1_w" transform="matrix(0,-6,6,0,1775.9,374.6)" />
<use xlink:href="#f1_v" transform="matrix(0,-6,6,0,1775.9,367.4)" />
<use xlink:href="#f1_13" transform="matrix(0,-6,6,0,1775.9,365.4)" />
<use xlink:href="#f1_x" transform="matrix(0,-6,6,0,1775.9,358.3)" />
<use xlink:href="#f1_v" transform="matrix(0,-6,6,0,1775.9,356.2)" />
<use xlink:href="#f1_p" transform="matrix(0,-6,6,0,1775.9,354.2)" />
<use xlink:href="#f1_r" transform="matrix(0,-6,6,0,1775.9,349.6)" />
<use xlink:href="#f1_z" transform="matrix(0,-6,6,0,1775.9,344.5)" />
<use xlink:href="#f1_13" transform="matrix(0,-6,6,0,1775.9,339.4)" />
<use xlink:href="#f1_r" transform="matrix(0,-6,6,0,1775.9,334.8)" />
<use xlink:href="#f1_q" transform="matrix(0,-6,6,0,1775.9,329.7)" />
<use xlink:href="#f1_15" transform="matrix(0,-6,6,0,1775.9,322.1)" />
<use xlink:href="#f1_z" transform="matrix(0,-6,6,0,1775.9,317)" />
<use xlink:href="#f1_q" transform="matrix(0,-6,6,0,1775.9,311.9)" />
<use xlink:href="#f1_r" transform="matrix(0,-6,6,0,1775.9,306.8)" />
<use xlink:href="#f1_12" transform="matrix(0,-6,6,0,1775.9,301.7)" />
<use xlink:href="#f1_n" transform="matrix(0,-6,6,0,1775.9,296.1)" />
<use xlink:href="#f1_h" transform="matrix(0,-6,6,0,1775.9,288.5)" />
<use xlink:href="#f1_12" transform="matrix(0,-6,6,0,1775.9,281.8)" />
<use xlink:href="#f1_r" transform="matrix(0,-6,6,0,1775.9,278.8)" />
<use xlink:href="#f1_n" transform="matrix(0,-6,6,0,1775.9,273.7)" />
<use xlink:href="#f1_14" transform="matrix(0,-6,6,0,1775.9,268.6)" />
<use xlink:href="#f1_v" transform="matrix(0,-6,6,0,1775.9,266)" />
<use xlink:href="#f1_16" transform="matrix(0,-6,6,0,1775.9,264)" />
<use xlink:href="#f1_r" transform="matrix(0,-6,6,0,1775.9,259.4)" />
<use xlink:href="#f1_h" transform="matrix(0,-6,6,0,1775.9,251.8)" />
<use xlink:href="#f1_10" transform="matrix(0,-6,6,0,1775.9,245.2)" />
<use xlink:href="#f1_y" transform="matrix(0,-6,6,0,1775.9,240.1)" />
<use xlink:href="#f1_y" transform="matrix(0,-6,6,0,1775.9,232.4)" />
<use xlink:href="#f1_10" transform="matrix(0,-6,6,0,1775.9,224.8)" />
<use xlink:href="#f1_z" transform="matrix(0,-6,6,0,1775.9,219.7)" />
<use xlink:href="#f1_13" transform="matrix(0,-6,6,0,1775.9,214.6)" />
<use xlink:href="#f1_g" transform="matrix(0,-6,6,0,1785.3,409.2)" />
</g>
</g>
<text transform="matrix(0, -1, 1, 0, 1775, 409)" class="s3_1">This work is licensed under a Creative Commons </text>
<g clip-path="url(#c4_1)">
<g fill="#000000" >
<use xlink:href="#f1_14" transform="matrix(0,-6,6,0,1785.3,403.1)" />
<use xlink:href="#f1_14" transform="matrix(0,-6,6,0,1785.3,400.5)" />
<use xlink:href="#f1_12" transform="matrix(0,-6,6,0,1785.3,398)" />
<use xlink:href="#f1_v" transform="matrix(0,-6,6,0,1785.3,394.9)" />
<use xlink:href="#f1_o" transform="matrix(0,-6,6,0,1785.3,392.9)" />
<use xlink:href="#f1_15" transform="matrix(0,-6,6,0,1785.3,387.8)" />
<use xlink:href="#f1_14" transform="matrix(0,-6,6,0,1785.3,382.7)" />
<use xlink:href="#f1_v" transform="matrix(0,-6,6,0,1785.3,380.2)" />
<use xlink:href="#f1_10" transform="matrix(0,-6,6,0,1785.3,378.1)" />
<use xlink:href="#f1_z" transform="matrix(0,-6,6,0,1785.3,373)" />
<use xlink:href="#f1_5" transform="matrix(0,-6,6,0,1785.3,367.9)" />
<use xlink:href="#f1_l" transform="matrix(0,-6,6,0,1785.3,362.3)" />
<use xlink:href="#f1_u" transform="matrix(0,-6,6,0,1785.3,356.2)" />
<use xlink:href="#f1_n" transform="matrix(0,-6,6,0,1785.3,351.1)" />
<use xlink:href="#f1_12" transform="matrix(0,-6,6,0,1785.3,346)" />
<use xlink:href="#f1_r" transform="matrix(0,-6,6,0,1785.3,343)" />
<use xlink:href="#f1_g" transform="matrix(0,-6,6,0,1785.3,337.9)" />
<use xlink:href="#f1_x" transform="matrix(0,-6,6,0,1785.3,331.8)" />
<use xlink:href="#f1_v" transform="matrix(0,-6,6,0,1785.3,329.7)" />
<use xlink:href="#f1_w" transform="matrix(0,-6,6,0,1785.3,327.7)" />
<use xlink:href="#f1_r" transform="matrix(0,-6,6,0,1785.3,323.1)" />
<use xlink:href="#f1_c" transform="matrix(0,-6,6,0,1785.3,315.5)" />
<use xlink:href="#f1_6" transform="matrix(0,-6,6,0,1785.3,310.4)" />
<use xlink:href="#f1_8" transform="matrix(0,-6,6,0,1785.3,307.8)" />
<use xlink:href="#f1_i" transform="matrix(0,-6,6,0,1785.3,300.2)" />
<use xlink:href="#f1_z" transform="matrix(0,-6,6,0,1785.3,297.6)" />
<use xlink:href="#f1_14" transform="matrix(0,-6,6,0,1785.3,292.5)" />
<use xlink:href="#f1_r" transform="matrix(0,-6,6,0,1785.3,290)" />
<use xlink:href="#f1_12" transform="matrix(0,-6,6,0,1785.3,284.9)" />
<use xlink:href="#f1_z" transform="matrix(0,-6,6,0,1785.3,281.8)" />
<use xlink:href="#f1_n" transform="matrix(0,-6,6,0,1785.3,276.7)" />
<use xlink:href="#f1_14" transform="matrix(0,-6,6,0,1785.3,271.6)" />
<use xlink:href="#f1_v" transform="matrix(0,-6,6,0,1785.3,269.1)" />
<use xlink:href="#f1_10" transform="matrix(0,-6,6,0,1785.3,267)" />
<use xlink:href="#f1_z" transform="matrix(0,-6,6,0,1785.3,261.9)" />
<use xlink:href="#f1_n" transform="matrix(0,-6,6,0,1785.3,256.8)" />
<use xlink:href="#f1_x" transform="matrix(0,-6,6,0,1785.3,251.7)" />
<use xlink:href="#f1_j" transform="matrix(0,-6,6,0,1785.3,247.2)" />
<use xlink:href="#f1_v" transform="matrix(0,-6,6,0,1785.3,242.1)" />
<use xlink:href="#f1_p" transform="matrix(0,-6,6,0,1785.3,240)" />
<use xlink:href="#f1_r" transform="matrix(0,-6,6,0,1785.3,235.4)" />
<use xlink:href="#f1_z" transform="matrix(0,-6,6,0,1785.3,230.3)" />
<use xlink:href="#f1_13" transform="matrix(0,-6,6,0,1785.3,225.2)" />
<use xlink:href="#f1_r" transform="matrix(0,-6,6,0,1785.3,220.7)" />
<use xlink:href="#f1_u" transform="matrix(0,-6,6,0,1794.8,409.2)" />
</g>
</g>
<text transform="matrix(0, -1, 1, 0, 1785, 409)" class="s3_1">Attribution- ShareAlike 4.0 International License</text>
<g clip-path="url(#c4_1)">
<g fill="#000000" >
<use xlink:href="#f1_14" transform="matrix(0,-6,6,0,1794.8,404.1)" />
<use xlink:href="#f1_14" transform="matrix(0,-6,6,0,1794.8,401.6)" />
<use xlink:href="#f1_11" transform="matrix(0,-6,6,0,1794.8,399)" />
<use xlink:href="#f1_f" transform="matrix(0,-6,6,0,1794.8,393.9)" />
<use xlink:href="#f1_7" transform="matrix(0,-6,6,0,1794.8,391.4)" />
<use xlink:href="#f1_7" transform="matrix(0,-6,6,0,1794.8,388.8)" />
<use xlink:href="#f1_p" transform="matrix(0,-6,6,0,1794.8,386.3)" />
<use xlink:href="#f1_12" transform="matrix(0,-6,6,0,1794.8,381.7)" />
<use xlink:href="#f1_r" transform="matrix(0,-6,6,0,1794.8,378.6)" />
<use xlink:href="#f1_n" transform="matrix(0,-6,6,0,1794.8,373.5)" />
<use xlink:href="#f1_14" transform="matrix(0,-6,6,0,1794.8,368.4)" />
<use xlink:href="#f1_v" transform="matrix(0,-6,6,0,1794.8,365.9)" />
<use xlink:href="#f1_16" transform="matrix(0,-6,6,0,1794.8,363.9)" />
<use xlink:href="#f1_r" transform="matrix(0,-6,6,0,1794.8,359.3)" />
<use xlink:href="#f1_p" transform="matrix(0,-6,6,0,1794.8,354.2)" />
<use xlink:href="#f1_10" transform="matrix(0,-6,6,0,1794.8,349.6)" />
<use xlink:href="#f1_y" transform="matrix(0,-6,6,0,1794.8,344.5)" />
<use xlink:href="#f1_y" transform="matrix(0,-6,6,0,1794.8,336.9)" />
<use xlink:href="#f1_10" transform="matrix(0,-6,6,0,1794.8,329.2)" />
<use xlink:href="#f1_z" transform="matrix(0,-6,6,0,1794.8,324.1)" />
<use xlink:href="#f1_13" transform="matrix(0,-6,6,0,1794.8,319)" />
<use xlink:href="#f1_6" transform="matrix(0,-6,6,0,1794.8,314.4)" />
<use xlink:href="#f1_10" transform="matrix(0,-6,6,0,1794.8,311.9)" />
<use xlink:href="#f1_12" transform="matrix(0,-6,6,0,1794.8,306.8)" />
<use xlink:href="#f1_t" transform="matrix(0,-6,6,0,1794.8,303.7)" />
<use xlink:href="#f1_7" transform="matrix(0,-6,6,0,1794.8,298.7)" />
<use xlink:href="#f1_x" transform="matrix(0,-6,6,0,1794.8,296.1)" />
<use xlink:href="#f1_v" transform="matrix(0,-6,6,0,1794.8,294.1)" />
<use xlink:href="#f1_p" transform="matrix(0,-6,6,0,1794.8,292)" />
<use xlink:href="#f1_r" transform="matrix(0,-6,6,0,1794.8,287.4)" />
<use xlink:href="#f1_z" transform="matrix(0,-6,6,0,1794.8,282.3)" />
<use xlink:href="#f1_13" transform="matrix(0,-6,6,0,1794.8,277.3)" />
<use xlink:href="#f1_r" transform="matrix(0,-6,6,0,1794.8,272.7)" />
<use xlink:href="#f1_13" transform="matrix(0,-6,6,0,1794.8,267.6)" />
<use xlink:href="#f1_7" transform="matrix(0,-6,6,0,1794.8,263)" />
<use xlink:href="#f1_o" transform="matrix(0,-6,6,0,1794.8,260.4)" />
<use xlink:href="#f1_18" transform="matrix(0,-6,6,0,1794.8,255.3)" />
<use xlink:href="#f1_5" transform="matrix(0,-6,6,0,1794.8,250.8)" />
<use xlink:href="#f1_13" transform="matrix(0,-6,6,0,1794.8,247.7)" />
<use xlink:href="#f1_n" transform="matrix(0,-6,6,0,1794.8,243.1)" />
<use xlink:href="#f1_7" transform="matrix(0,-6,6,0,1794.8,238)" />
<use xlink:href="#f1_c" transform="matrix(0,-6,6,0,1794.8,235.5)" />
<use xlink:href="#f1_6" transform="matrix(0,-6,6,0,1794.8,230.4)" />
<use xlink:href="#f1_8" transform="matrix(0,-6,6,0,1794.8,227.8)" />
<use xlink:href="#f1_7" transform="matrix(0,-6,6,0,1794.8,222.7)" />
</g>
</g>
<g clip-path="url(#c5_1)">
<g fill="#000000" >
<use xlink:href="#f1_k" transform="matrix(0,-18,18,0,1761.8,1096.2)" />
</g>
</g>
<text transform="matrix(0, -1, 1, 0, 1794, 409)" class="s3_1">http://creativecommons.org/licenses/by-sa/4.0/</text>
<g clip-path="url(#c5_1)">
<g fill="#000000" >
<use xlink:href="#f1_n" transform="matrix(0,-18,18,0,1761.8,1076.3)" />
<use xlink:href="#f1_s" transform="matrix(0,-18,18,0,1761.8,1061)" />
<use xlink:href="#f1_14" transform="matrix(0,-18,18,0,1761.8,1053.4)" />
<use xlink:href="#f1_r" transform="matrix(0,-18,18,0,1761.8,1045.7)" />
<use xlink:href="#f1_12" transform="matrix(0,-18,18,0,1761.8,1030.4)" />
<use xlink:href="#f1_13" transform="matrix(0,-18,18,0,1761.8,1021.3)" />
</g>
</g>
<text transform="matrix(0, -1, 1, 0, 1761, 1096)" class="s4_1">Rafters</text>
<path d="M1237.4,836l4.7,.6m4.7,-.1l4.6,-.9m7.1,-3.7l2.2,-2.5l1,-2.8m-32,6.2l3.5,1.9m-3.6,-2l.1,.1m21.7,2.8l3.9,-1.6l3.2,-2.1m-25.3,2.8l4.2,1.3m4.7,.6l4.7,-.1M806.2,1059.8l4.7,-.2m-9.4,-.4l4.7,.6m4.7,-.2l4.6,-.9m-18.2,-.8l4.2,1.3m14,-.5l3.9,-1.5m-25.6,-1.3l3.5,2m22.1,-.7l3.2,-2.1m-31.4,-1.6l2.6,2.4m28.8,-.8l2.2,-2.6m-33.6,1l-1.5,-2.7m35.1,1.7l1,-2.8m-36.1,1.1l-.2,-2.8M519.1,859.5l-.2,-2.8m1.7,5.6l-1.5,-2.8m1.5,2.8l2.6,2.4l3.5,1.9l4.2,1.3l4.7,.6l4.7,-.2l1.6,-.3m249.9,37.4l14.7,10.4M791.8,825.4l14.7,10.3L1259.4,603.8M806.5,1003.1V987.6M536.2,818.5v-6.1m.7,8.8L540,821m-6.3,0l3.2,.2m8.6,-2.1l.1,-.1m-2.6,1.3l2.5,-1.2M540,821l3,-.7m-12.2,-.1l2.9,.8m-5.4,-2l2.5,1.2m-4.4,-2.7l1.9,1.5m-3.1,-3.2l1.2,1.7m-1.6,-3.6l.4,1.9m281.6,194v-6.9m.7,9.6l3.1,-.2m-6.3,-.1l3.2,.3m11.8,-5.3l.4,-1.9m-1.7,3.6l1.3,-1.7m-3.2,3.2l1.9,-1.5m-4.4,2.7l2.5,-1.2m-5.5,1.9l3,-.7m-12.2,-.1l2.9,.7m-5.4,-1.9l2.5,1.2m-4.4,-2.7l1.9,1.5m-3.1,-3.3l1.2,1.8m-1.6,-3.7l.4,1.9M1242.7,786.6v-6.8m.7,9.6l3.1,-.3m-6.3,0l3.2,.3m11.8,-5.4l.4,-1.9m-1.7,3.7l1.3,-1.8m-3.2,3.3l1.9,-1.5m-4.4,2.6l2.5,-1.1m-5.5,1.8l3,-.7m-12.2,-.1l2.9,.8m-5.4,-1.9l2.5,1.1m-4.4,-2.7l1.9,1.6m-2.3,-2.2l.4,.6m-12.6,51.8l.1,.1l5.9,3.2l7.1,2.2l7.7,1l7.9,-.3l7.6,-1.4l6.6,-2.6l5.3,-3.5l3.6,-4.3l1.7,-4.7M820.7,1065.3l6.6,-2.6l5.3,-3.5l3.6,-4.2l1.7,-4.7m-60.5,-2.9l.4,4.7l2.4,4.6l4.3,4l5.9,3.2l7,2.1l7.8,1l7.9,-.2l7.6,-1.5M506.8,856.1l.4,4.8l2.4,4.5l4.3,4l5.9,3.2l7.1,2.2l7.7,1l7.9,-.3l7.6,-1.4l.2,-.1m251.4,177.7v-1.2L463.7,811.6m853.1,-24.8L801.7,1050.5M764.8,731l37.5,72.9m-.5,.2l.5,-.2m222,-113.7l-222,113.7M631.2,471.9L698,601.5m548.3,-24.9l-222,113.6m303,-155.1l-81,41.5M698,601.5L764.8,731M625,468.2l-.5,-1m2.6,-.1l1.5,1M837.5,359.4l1.5,1M1113,220.1l2.1,4.1m171.1,332v9.4M700.8,431.1l2.1,4.1M874,767.2v9.4M801.7,804v9.6M665.6,449.2l2,4m171.1,332v9.4M737.8,412.2l2.1,4M911,748.2v9.4M774.8,393.3l2.1,4M948,729.3v9.4M811.8,374.3l2.1,4.1M985,710.4v9.3M848.8,355.4l2.1,4m171.1,332v9.4M885.8,336.4l2.1,4.1m171.1,332v9.4M922.8,317.5l2.1,4m171.1,332v9.4M959.8,298.6l2.1,4m171.1,332V644M996.8,279.6l2.1,4.1m171.1,332V625M1033.8,260.7l2.1,4m171.1,332v9.4M1070.8,241.7l2.1,4.1m171.1,332v9.4m-94,-386l2.1,4m171.1,332v9.4M1077.8,238.2l2,4m171.1,332v9.4M461.5,573l24.6,-12.9m4.6,-2.4L627.1,486m-55.3,83.9V520.7m63,93.7V499.1m-31.5,93.1V504.1m-63,43.6V537.2m126,23v76.5m31.5,-15.4v37.6M493,559.3l37,-19m-37,22.6v-3.6m31.4,-2.4L745,712.9m61.5,202.9L1259.4,683.9M534.6,798.1v13.3m.2,-247.5l-.2,.1m86.6,308.6V859.3m185,128.4L791.6,977.4m14.6,25.8V987.7M608.1,651.8L532.8,598.6m75.3,55.3v-2.1m158.5,112L619.4,659.8m-9.9,-8.7l-1.4,.7m182,148.6V978.8M608.1,653.9V850.1M489.1,561.7v-1.6m0,14.9V561.7M710.4,687.4L525.2,556.5m219,154.8L710.4,687.4M900,960.3v-5.1m-74,43v-5.1M974,922.4v-5.1m74,-32.7v-5.1m74,-32.8v-5.1m74,-32.8v-5.1M540.3,537.2h.2m62.8,-33.1h.1m-31.6,16.6l.1,-.1M628.6,487v3.6M839,360.4l9.8,-5M527.7,538.7l1.1,-.5M762.6,749.9l2.3,1.6M490.7,557.7l2.3,1.6M806.5,843v-7.3m0,87.3v-7.2m0,-80.1V801.8m10.1,180.6l-10.1,5.2l-.3,.1M769.5,773.2V760.4M628.6,468.1l2,4.1m-98.7,69.5l5.5,-2.9m269.1,377V843m0,144.6V923M632,466.4l33.6,-17.2m38.7,-19.8l33.5,-17.2M852.3,353.6l33.5,-17.2M531.9,541.7l5.5,3.9m2.9,2.1l28.6,20.1M669,447.4l31.8,-16.3m-97.4,73L630.1,490M741.3,410.4l33.5,-17.1M889.3,334.7l33.5,-17.2M540.5,537.2l28.4,-15m3,-1.6l28.5,-14.9m-28.6,64.2l28.6,20.2M778.3,391.5l33.5,-17.2M926.3,315.7l33.5,-17.1M603.3,592.2l28.6,20.1M815.3,372.5L839,360.4m-204.2,254l28.5,20.2m300,-337.8l33.5,-17.2M666.3,636.7l28.5,20.1m3,2.1l28.5,20.2m274,-401.3l33.5,-17.1m3.5,-1.8l33.5,-17.2m3.5,-1.7l3.5,-1.8m3.4,-1.8L1113,220.1m3.5,-1.7L1150,201.2M533.3,643.1L521,634.4m0,80l12.3,8.8m2.9,95.3l.2,-.1m-7.1,-4.7l6.9,4.8m.2,-.1l4.9,-2.5m265.5,193.9l.2,-.1m-7.1,-4.8l6.9,4.9m8.3,-4.3l.3,-.1m-8.4,4.3l8.1,-4.2M1242.7,786.6l.2,-.1m-5.8,-3.8l5.6,3.9m8.3,-4.2l.3,-.1m-8.4,4.2l8.1,-4.1M491.4,538.4l66.8,-35.1M700.8,431.1l3.5,-1.7m33.5,-17.2l3.5,-1.8m33.5,-17.1l3.5,-1.8m33.5,-17.2l3.5,-1.8m33.5,-17.1l3.5,-1.8m33.5,-17.2l3.5,-1.7m33.5,-17.2l3.5,-1.8m33.5,-17.1l3.5,-1.8m33.5,-17.2l3.5,-1.8m33.5,-17.1l3.5,-1.8m33.5,-17.2l3.5,-1.7M486.1,559.6v-1.5m4.6,-.4l3.5,-1.8m34.6,-17.7l98.3,-51.7m-99.4,52.2l1.1,-.5m3.1,3.5l5.5,-2.9m0,0l2.9,-1.6m60.1,-31.5l2.9,-1.6m-34.4,18.1l2.9,-1.5m-42,19.5l.2,.1m41.8,29.6l8.1,-4.1m54.9,48.6l8.1,-4.1M603.3,592.2l8.1,-4.2M540.3,547.7l8.1,-4.2m117.9,93.2l8.1,-4.2m23.4,26.4l8.1,-4.1M530,544v-3.7m18.4,-5.7l20.5,-10.5m11,-5.7L600.4,508m11,-5.7l19.8,-10.1M791.8,832.6L806.5,843m-14.7,69.7L806.5,923L1259.4,691.2M534.8,811.3V798.2m86.6,74.3V859.4M526.1,556.1V546m-.9,10.5l.9,-.4m10.3,262.3v-5.9m-9.9,-2.3l-1.2,1.8m4,-3.7l-.8,.4m-3.7,6.4v-1.2m.5,-1.9l-.5,1.9m3.7,-5.2l-2,1.5m288.6,195.3v-6.8m-8.1,11v-6.9m-9.9,-1.3l-1.2,1.7m4,-3.6l-.8,.4m17.1,.1l-.8,-.4m2.8,1.9l-2,-1.5m3.1,3.3l-1.1,-1.8m1.5,3.7l-.4,-1.9m.4,3.1v-1.2m-24.3,1v-1.2m.5,-1.9l-.5,1.9m3.7,-5.1l-2,1.5M1251,782.4v-6.9m-8.1,11v-6.9m9.3,-2.7l-.9,-.4m2.8,2l-1.9,-1.6m3,3.3l-1.1,-1.7m1.5,3.6l-.4,-1.9m.4,3.1v-1.2M518.9,851.8v4.9m306.9,182.7v10.3M789.5,1043v5M1261.7,816.2v10.4m-48.4,31.6l.4,4.7l2.4,4.6l4.3,4l5.9,3.2l7.1,2.1l7.7,1l7.9,-.2l7.6,-1.5l6.6,-2.5l5.3,-3.6l3.6,-4.2l1.7,-4.7m0,-34l-.4,-4.7l-2.4,-4.6l-4.3,-4h-.2m-53.2,44.4V841m60.5,20.1v-34M836.2,1089v-.1l1.7,-4.6m-60.5,-3l.4,4.8l1.5,2.9m58.6,-38.7l-.4,-4.8l-2.4,-4.5l-4.3,-4l-.2,-.1m-47.8,1.4l-.2,.2l-3.6,4.2l-1.6,4.7m60.5,36.9v-34m-60.5,31v-33.9M556.7,905.4l5.3,-3.5l3.6,-4.3l1.7,-4.6m-60.5,-2.9l.4,4.7l2.4,4.6l4.3,4l5.9,3.2l7.1,2.1l7.7,1l7.9,-.2l7.6,-1.5l6.6,-2.6m-48.3,-54l-1.6,4.7m5.4,-9l-.2,.1l-3.6,4.2m-1.6,38.7v-34M567.3,893v-7M463.7,812.8v-1.2L521,782.3m795.8,5.7v-1.2m-57.4,-40.6l57.4,40.6M764.2,731.3l.6,-.3m259.5,-40.8L986.8,617.4m37,73.1l.5,-.3M1142,374.2l80.9,-41.5M1075.2,244.6L1142,374.2m80.9,-41.5L1156.1,203.2M1031,431l66.8,129.5m191.9,-98.2L1222.9,332.7m-525.5,269l.6,-.2M920,487.8L853.2,358.3M630.6,472.2l66.8,129.5M630.6,472.2l.6,-.3m615.1,104.7l-37.5,-72.9m37,73.2l.5,-.3m43.4,-114.3l-80.9,41.4m118.5,31.4l-37.6,-72.8M809,544.6L698,601.5M764.8,731l111,-56.8m0,0L809,544.6M697.4,601.7l66.8,129.6M1068.5,239.9l-222,113.6M1069,240.9l-.5,-1M847,354.5l-.5,-1M490.9,537.4l-37.6,19.8m38.1,-18.8l-.5,-1m-37.1,20.8l-.5,-1m.6,.9l-.1,.1M1149.4,198.5l-80.9,41.4m81.4,-40.5l-.5,-.9M557.7,502.3l-66.8,35.1m67.3,-34.1l-.5,-1M846.5,353.5l-222,113.7l-66.8,35.1M1152,198.4l1.5,1M628.6,490.6l1.4,-.8m-1.4,.8l-1.5,-1.1m659.1,76.1l-7.5,-5.4l-.1,-.1M1116.5,218.4l2.1,4m-5.6,-2.3v5.1m0,-5.1l3.5,-1.7m173.2,345.4l-3.5,1.8m3.5,-11.2v9.4M866.4,771.2v-.1m7.6,5.5l-7.6,-5.4M704.3,429.4l2.1,4m-5.6,-2.3v5.2M877.5,774.8l-3.5,1.8m3.5,-11.2v9.4M764.9,751.5l4.6,3.2m32.2,58.9l-7.5,-5.4M632,466.4l2.1,4m-5.5,-2.3V487m0,-18.9l3.4,-1.7M805.2,811.8l-3.5,1.8m3.5,-11.2v9.4m33.5,-17.2l-7.5,-5.3l-.1,-.2M669,447.4l2.1,4.1m-5.5,-2.3v5.1m0,-5.1l3.4,-1.8M842.2,792.8l-3.5,1.8m3.5,-11.1v9.3m61.2,-40.5v-.2m7.6,5.5l-7.6,-5.3M741.3,410.4l2.1,4.1m-5.6,-2.3v5.1M914.5,755.9l-3.5,1.7m3.5,-11.1v9.4m25.9,-22.6v-.1m7.6,5.5l-7.6,-5.4M778.3,391.5l2.1,4m-5.6,-2.2v5.1M951.5,736.9l-3.5,1.8m3.5,-11.2v9.4m25.9,-22.5v-.1m7.6,5.4l-7.6,-5.3M815.3,372.5l2.1,4.1m-5.6,-2.3v5.1M988.5,718l-3.5,1.7m3.5,-11.1V718m25.9,-22.5v-.2m7.6,5.5l-7.6,-5.3M852.3,353.6l2.1,4m-5.6,-2.2v5.1M1025.5,699l-3.5,1.8m3.5,-11.2V699m25.9,-22.5v-.1m7.6,5.5l-7.6,-5.4M889.3,334.7l2.1,4m-5.6,-2.3v5.1m176.7,338.6l-3.5,1.8m3.5,-11.2v9.4m25.9,-22.5v-.2m7.6,5.5l-7.6,-5.3M926.3,315.7l2.1,4.1m-5.6,-2.3v5.1m176.7,338.5l-3.5,1.8m3.5,-11.1v9.3m25.9,-22.5v-.1m7.6,5.5l-7.6,-5.4M963.3,296.8l2.1,4m-5.6,-2.2v5.1m176.7,338.5L1133,644m3.5,-11.2v9.4m25.9,-22.5v-.1m7.6,5.4l-7.6,-5.3M1000.3,277.8l2.1,4.1m-5.6,-2.3v5.1m176.7,338.6L1170,625m3.5,-11.1v9.4m25.9,-22.5v-.2m7.6,5.5l-7.6,-5.3M1037.3,258.9l2.1,4m-5.6,-2.2v5.1m176.7,338.5l-3.5,1.8m3.5,-11.2v9.4m25.9,-22.5v-.1m7.6,5.5l-7.6,-5.4M1074.3,240l2.1,4m-5.6,-2.3v5.1m176.7,338.6l-3.5,1.8m71.6,-45.9v-.2m7.6,5.5l-7.6,-5.3M1153.5,199.4l2.1,4.1m-5.6,-2.3v5.1m0,-5.1l3.5,-1.8m173.2,345.4l-3.5,1.8m3.5,-11.1v9.3m-75.8,38.8l-3.4,-2.4M1081.2,236.4l2.1,4m-5.5,-2.2v5.1m0,-5.1l3.4,-1.8m173.2,345.4l-3.5,1.8m3.5,-11.2v9.4M453.9,567.7l7.6,5.3m0,0l3.4,-1.7l21.2,-11.2m4.6,-2.4l-4.6,-3.3m141,-87.3V486M453.9,558.1v9.6m73.8,-29l-.4,-.2M630.2,490.1L611.4,500m-11,5.8l-20.5,10.7m-11,5.8l-20.5,10.8m177.9,146l2.1,1.4m-2.1,-3.9v2.5M571.8,569.9l-2.9,-2.1m65.9,46.6l-2.9,-2.1M603.3,592.2l-2.9,-2.1M540.3,547.7l-2.9,-2.1m125.9,89l3,2.1m39.6,18.1V637m-11.1,19.8l3,2.1m22.5,6.1L705.9,654.8M694.8,647L674.4,632.5m-11.1,-7.8L642.9,610.3M600.4,580.2L579.9,565.8m-11,-7.8L548.4,543.5m214.2,210v-3.6m1.2,-.6l-1.2,.6m6.9,8.5v-3.7M486.1,558.1v-3.7m34.7,34.3V558.8m14,252.5l-.2,.1M1259.4,611.1L806.5,843M534.8,564.1v-.2m-10.1,-7.1l10.1,7.1m-10.3,-7l10.1,7.1m86.8,308.5l-.2,.1m-11.8,-8.3l11.8,8.3M606.6,849L534.8,798.3M606.6,652.9V849M534.8,798.3V602.1M705,918.6L621.4,859.5M705,722.5V918.6M621.4,859.5V663.3M788.7,977.7L705,918.6M788.7,797.5V977.7m17.8,25.4V988.2M816.6,983v-.6m-10.1,5.8L816.6,983M532.8,598.6v2.1m86.6,59.1v2.1M773.8,771l1.9,1.4M619.9,662.3V858.4M790.1,978.8l1.5,-.8m-1.5,.8l-1.4,-1.1M608.1,850.1l1.3,-.7m-1.3,.7L606.6,849M732.5,688.6L712.1,674.2v-1.5m19.2,13.6L712.1,672.7m0,1.5L617.6,607.4v-1.5m11.1,-5.7l3.2,-1.6m11,-5.7l20.4,-10.4m11.1,-5.7l.4,-.2m37.3,96.1L617.6,605.9m0,1.5L528.8,544.6m88.8,61.3L530,544m-40.9,17.7l1.2,-.7m-4.2,-1.4l3,2.1m0,-1.6l-3,-2M766.6,757.8l2.9,2.1v-1.5m-2.9,-2.1v1.5m2.9,.6l-2.9,-2.1m2.9,16.9l-2.9,-2.1M489.1,575l-3,-2.1M711.3,687L526.1,556.1M711.3,687l-.9,.4m0,.9v-.9M924.2,947.9v-5.1m-74,43v-5.1M998.2,910v-5.1m74,-32.8V867m74,-32.8v-5.1m74,-32.7v-5.1M791.8,912.7v-7.3m0,71.9V912.7m0,-80.1V803.7m-262.5,10v-6m286.1,197.7v-6.9m-15.5,6.4v-6.1M1251.3,782.3v-6.9M463.7,812.8l48.5,34.3m289.5,204.6l4.5,-2.3m180.6,-432l-111,56.8M764.2,731.3L801.7,804l.1,.1m3.4,-1.7l-3.4,1.7M1076.4,244l-1.2,.6M1142,374.2L1031,431m66.8,129.5l111,-56.8M634.1,470.4l-2.9,1.5M809,544.6L920,487.8m177.8,72.7l-111,56.9m38.7,72.2l-1.7,.9M854.4,357.6l-1.2,.7M920,487.8L1031,431m216.5,145l-1.7,.9M491.4,538.4l-37.5,19.7M627.1,489.5v-3M837.5,359.4l9.5,-4.9M794.2,808.2l-2.4,-4.5M764.9,751.5l-1.1,-2.2M1247.5,576v9.4M486.1,559.6v.5m8.1,-4.2l33.1,-17.4L627.1,486M1152,198.4l-2.1,1M529.8,540.2l-1,-2m1.2,2.1l1.9,1.4m48,-25.2v49.3m52,46.5v-9.8m11,-87.7v95.5M611.4,500v88m-74,-42.4v-6.8m11,-5.7v10.4m126,89V575.9m-11.1,48.8v9.9m31.5,-19.1v41.3M631.9,602.5l-3.2,-2.3L611.4,588M762.6,753.5l4,2.8M493,562.9L526.1,546m-35.8,15l2.7,1.9m127.6,96.3l-11,-7.7l-.1,-.1M534,598l-13,-9.2l-.2,-.1m738.6,95.2v7.3M521,634.4v7.3M521,714.4v7.3m8.3,86l5.3,3.7M1259.4,569.9v41.2M521,588.8v45.6m88.4,229.7v.2m197.1,138.8l-.3,.1M546.5,819.6l62.9,44.5m12,8.4L799.9,998.8l6.3,4.4M532.8,600.7l.5,.4m86.1,60.8l.5,.4m.9,-3.2l-.2,.1l-1.2,.6m-9.8,-6.7l-.2,.1M534.2,597.8l-.2,.2l-1.2,.6m88.6,260.9v-.1m-88.1,-129v66.8m1.3,.9l-1.3,-.9M774.8,770.5l-1,.5l-4.3,2.2m0,-12.8v-.5m-2.9,2.2v-4.3M520.8,558.8L489.1,575M791.8,905.4V832.6M512.2,847.1l6.7,4.7m287.3,197.6l4.7,-2.4M806.5,801.8l-1.3,.6m246.2,-126l-25.9,13.2M1250.9,574.2l-3.4,1.8M627.1,486.5V486m-58.2,81.8V522.2m63,80.3V493.4m-31.5,96.7V505.7m62.9,48.8v70.2M526.1,546l2.7,-1.4L530,544m-40.9,16.1l1.2,.9m44.3,3l.2,.1L710.4,688.3l34.5,24.3M1259.4,611.1v72.8M521,641.7v72.7m738.4,-23.2v80M806.8,1002.9l-.3,.2M521,721.7v80.1m88.4,47.6v14.7M545.6,819l.9,.6M533.3,601.1l1.5,1m85.1,60.2l1.5,1m-12,-10.1l-1.3,.7m13.3,205.5l-.2,-.1l-1.3,-.9M533.3,601.1v42m1.5,155.2v-.1l-.2,-.1m232,-34.3v-1.7M486.1,572.9V560.1M810.9,1047l4.6,-2.3M831.1,789.1l-24.6,12.7M1083.3,240.4l-3.5,1.8l-2,1.1l-1.4,.7M671.1,451.5l-3.5,1.7l-2,1.1l-31.5,16.1M891.4,338.7l-3.5,1.8l-2.1,1l-31.4,16.1m400,214.8l-3.5,1.8M791.8,803.7l-1.7,-3.3l-1.4,-2.9l-13,-25.1M720.3,665L705.9,637M807,1002.8l-.2,.1M534.8,811.3l1.4,1.1M534.8,602.1l71.8,50.8l1.5,1m13.3,9.4L705,722.5L766.6,766M533.3,643.1v7.3M766.6,771.1v-7.3m-247.7,88l.2,.1m11.8,8.4l4.7,3.3m279.9,181.1l3.9,-2.1m269,-385.2l-25.9,13.3l-3.5,1.8l-7.6,3.9m208,-106.5l-5,2.5m-478.7,200l-.9,-1.9l-5.3,-10.1M731.3,686.3l-2.9,-5.8l-2.1,-3.9l-6,-11.6M705.9,637l-8.1,-15.7M627.1,467.1l-2.1,1.1M815.1,998.7l-8.1,4.1M541.3,815.9l4.3,3.1M533.3,650.4v80M525.2,556.5l-.5,.3l-.2,.1h-.1l-3.6,1.9m5.9,298.5l4.2,3m288.5,182.3l3.2,-1.6M866.4,771.1l-24.2,12.4l-3.5,1.7l-7.6,3.9M1118.6,222.4l-3.5,1.8l-2.1,1l-29.7,15.2m-376.9,193l-3.5,1.8l-2.1,1.1l-29.7,15.2M928.4,319.8l-3.5,1.7l-2.1,1.1l-31.4,16.1m387.2,221.4l-19.2,9.8M697.8,621.3l-3,-5.8m120.6,383l-.3,.2M536.2,812.4l.2,.1l4.9,3.4m-18.1,38.9l3.5,2.5M822.6,1041l2.2,-1.1M1125.4,638.5l-25.9,13.3l-3.5,1.7l-7.6,3.9M1286.2,556.2l-7.6,3.9M763.8,749.3L745,712.9l-.1,-.3m-12.4,-24l-1.2,-2.3m90.5,308.9l-6.4,3.3M519.1,851.9l1.5,1.1l2.6,1.8M550.3,874l6.4,4.5l5.3,3.8m220.8,156l6.7,4.7l.2,.2l1.5,1m33.6,-4.3l1,-.5M903.4,752.1l-25.9,13.3l-3.5,1.8l-7.6,3.9M1156.1,203.2l-.5,.3l-3.5,1.7l-2.1,1.1l-31.4,16.1M743.4,414.5l-3.5,1.7l-2.1,1.1l-31.4,16.1m259,-132.6l-3.5,1.8l-2.1,1.1l-31.4,16.1m361.3,234.6l-3.5,1.8M743.4,709.6l-10.9,-21M826,993.1l-4.2,2.1M541.9,868l8.4,6m11.7,8.3l3.6,2.5m225.6,159.4l2.6,1.8m32,-6.6l4.8,-2.5M1162.4,619.6l-25.9,13.2l-3.5,1.8l-7.6,3.9m190.2,-97.4l-25.9,13.3M744.9,712.6l-.7,-1.3l-.8,-1.7M694.8,615.5l-20,-38.9l-.4,-.7M663.3,554.5L642.9,514.8l-8.1,-15.7M630,489.8L628.6,487m-93,376.6l4.7,3.3l1.6,1.1m23.7,16.8l1.7,1.2l215.5,152.3m11,7.7l3.5,2.5M940.4,733.2l-25.9,13.3l-3.5,1.7l-7.6,3.9M780.4,395.5l-3.5,1.8l-2.1,1.1l-31.4,16.1M1170,615.7l-7.6,3.9m-160,-337.7l-3.5,1.8l-2.1,1l-31.4,16.1m-291,275.1l-8.1,-15.7l-3,-5.7M634.8,499.1l-2.9,-5.7l-.7,-1.2l-1,-2.1M900,955.2l-4.2,2.2l-45.6,23.3L826,993.1m-28.7,55.4l4.2,3l.2,.2m28.9,-14.8L1213.3,841m7,-3.6l9.3,-4.7M1173.5,613.9l-3.5,1.8m156.7,-80.2l-3.5,1.7l-7.6,3.9m-685.4,-51l-.1,-.1l-.1,-.2m294.2,453L900,955.2M1213.3,841l.4,-.2M977.4,714.3l-25.9,13.2l-3.5,1.8l-7.6,3.9M817.4,376.6l-3.5,1.8l-2.1,1l-31.4,16.1m419,205.1l-25.9,13.3m-134.1,-351l-3.5,1.8l-2.1,1.1l-31.4,16.1M969.8,919.5l-45.6,23.3m289.5,-102l2.4,-1.2l4.2,-2.2m9.3,-4.7l.1,-.1l3.5,-1.8M853.2,358.3l-2.3,1.1M1075.2,244.6l-2.3,1.2M974,917.3l-4.2,2.2m272.3,-93.2l4.7,-2.5l4.6,-2.3m-237,-126.2l-25.9,13.3l-3.5,1.8l-7.6,3.9M850.9,359.4l-2.1,1.1l-31.4,16.1m419,205.1l-25.9,13.2l-3.5,1.8l-7.6,3.9M1072.9,245.8l-2.1,1l-31.4,16.1m-41.2,642L974,917.3m259.2,-86.5l4.2,-2.2l4.7,-2.3m9.3,-4.8l3.9,-2m-231.5,-129l-1.8,.9l-7.6,3.9M1245.8,576.9l-1.8,.9l-7.6,3.9M1043.8,881.6l-45.6,23.3M1048,879.5l-4.2,2.1m216.9,-64.9l1,-.5l4.8,-2.4L1316.8,788m-61.5,31.5l3.2,-1.7l2.2,-1.1M1122,841.6l-4.2,2.1L1072.2,867L1048,879.5m98.2,-50.4L1122,841.6m69.8,-35.8l-45.6,23.3M1196,803.7l-4.2,2.1m28.4,-14.5L1196,803.7m46.7,-23.9l-5.6,2.9m-5.2,2.6l-11.7,6m22.7,-11.7l-.2,.2m-5.6,2.9l-4.6,2.3l-.6,.3m19.1,-9.8l-8.1,4.1m16.5,-8.4l-8.1,4.2l-.3,.1M533.3,730.4L521,721.7m88.4,127.7V653.2M1327.3,535.1l-.6,.4M627.1,467.1L837.5,359.4m9.5,-4.9L1069,240.9l80.9,-41.5M521,801.8l8.3,5.9M521,641.7l12.3,8.7m210.1,59.2L711.3,687M625,468.2l-66.8,35.1" class="g1_1" />
<g clip-path="url(#c6_1)">
<path d="M1704.6,139.9h97.5V54.1h-97.5v85.8Z" class="g2_1" />
</g>
<g clip-path="url(#c7_1)">
<path d="M1713.1,413h39.7V313.5h-39.7V413Z" class="g3_1" />
</g>
<g clip-path="url(#c8_1)">
<path d="M1712.6,413.4h40.6V313.3h-40.6V413.4Z" class="g4_1" />
</g>
<g clip-path="url(#c9_1)">
<path d="M1339.5,528.8l38.4,-20.1m0,0l10.2,-5.3m-86.2,-47.5L1340,436m0,0l10.2,-5.3" class="g0_1" />
<path d="M1372.6,498.5l-27.3,-52.3" class="g5_1" />
<path d="M1377.4,507.7l-6.3,-8.4l3.1,-1.6l3.2,10Z" class="g2_1" />
<path d="M1377.4,507.7l-6.3,-8.4l3.1,-1.6l3.2,10Z" class="g5_1" />
<path d="M1340.6,437l6.3,8.4l-3.1,1.6l-3.2,-10Z" class="g2_1" />
<path d="M1340.6,437l6.3,8.4l-3.1,1.6l-3.2,-10Z" class="g5_1" />
</g>
<g clip-path="url(#c10_1)">
<g fill="#000000" >
<use xlink:href="#f1_a" transform="matrix(4.2,8,-8,4.2,1358.9,456.1)" />
<use xlink:href="#f1_4" transform="matrix(4.2,8,-8,4.2,1362.4,462.9)" />
<use xlink:href="#f1_5" transform="matrix(4.2,8,-8,4.2,1363.6,465.2)" />
<use xlink:href="#f1_b" transform="matrix(4.2,8,-8,4.2,1365.8,469.3)" />
<use xlink:href="#f1_3" transform="matrix(4.2,8,-8,4.2,1369.3,476)" />
</g>
</g>
<text transform="matrix(0.46, 0.89, -0.89, 0.46, 1358, 456)" class="s5_1">2'-3"</text>
<g clip-path="url(#c11_1)">
<path d="M1301.9,455.9L1340,436m0,0l10.2,-5.3M1235.1,326.4l37.5,-19.6m0,0l10.2,-5.3" class="g0_1" />
<path d="M1334.7,425.9L1277.9,317" class="g5_1" />
<path d="M1339.5,435l-6.3,-8.4l3,-1.6l3.3,10Z" class="g2_1" />
<path d="M1339.5,435l-6.3,-8.4l3,-1.6l3.3,10Z" class="g5_1" />
<path d="M1273.1,307.8l6.3,8.4l-3,1.6l-3.3,-10Z" class="g2_1" />
<path d="M1273.1,307.8l6.3,8.4l-3,1.6l-3.3,-10Z" class="g5_1" />
</g>
<g clip-path="url(#c12_1)">
<g fill="#000000" >
<use xlink:href="#f1_c" transform="matrix(4.2,8,-8,4.2,1306.2,355.2)" />
<use xlink:href="#f1_4" transform="matrix(4.2,8,-8,4.2,1309.8,361.9)" />
<use xlink:href="#f1_5" transform="matrix(4.2,8,-8,4.2,1311,364.3)" />
<use xlink:href="#f1_8" transform="matrix(4.2,8,-8,4.2,1313.1,368.3)" />
<use xlink:href="#f1_3" transform="matrix(4.2,8,-8,4.2,1316.6,375.1)" />
</g>
</g>
<text transform="matrix(0.46, 0.89, -0.89, 0.46, 1306, 355)" class="s5_1">4'-0"</text>
<g clip-path="url(#c13_1)">
<path d="M1235.1,326.4l37.5,-19.6m0,0l10.2,-5.3M1168.3,196.8l36.9,-19.2m0,0l10.1,-5.3" class="g0_1" />
<path d="M1267.3,296.6L1210.5,187.7" class="g5_1" />
<path d="M1272.1,305.8l-6.3,-8.4l3,-1.6l3.3,10Z" class="g2_1" />
<path d="M1272.1,305.8l-6.3,-8.4l3,-1.6l3.3,10Z" class="g5_1" />
<path d="M1205.7,178.6l6.3,8.4l-3,1.5l-3.3,-9.9Z" class="g2_1" />
<path d="M1205.7,178.6l6.3,8.4l-3,1.5l-3.3,-9.9Z" class="g5_1" />
</g>
<g clip-path="url(#c14_1)">
<g fill="#000000" >
<use xlink:href="#f1_c" transform="matrix(4.2,8,-8,4.2,1238.8,225.9)" />
<use xlink:href="#f1_4" transform="matrix(4.2,8,-8,4.2,1242.3,232.7)" />
<use xlink:href="#f1_5" transform="matrix(4.2,8,-8,4.2,1243.5,235)" />
<use xlink:href="#f1_8" transform="matrix(4.2,8,-8,4.2,1245.7,239.1)" />
<use xlink:href="#f1_3" transform="matrix(4.2,8,-8,4.2,1249.2,245.9)" />
</g>
</g>
<text transform="matrix(0.46, 0.89, -0.89, 0.46, 1238, 225)" class="s5_1">4'-0"</text>
<g clip-path="url(#c15_1)">
<path d="M869.5,661.9L844.2,612.6m0,0L839,602.4M758.5,718.8L733.2,669.4m0,0L728,659.2" class="g0_1" />
<path d="M834,617.8l-90.6,46.4" class="g5_1" />
<path d="M843.2,613.1l-8.4,6.3l-1.6,-3.1l10,-3.2Z" class="g2_1" />
<path d="M843.2,613.1l-8.4,6.3l-1.6,-3.1l10,-3.2Z" class="g5_1" />
<path d="M734.3,668.9l8.4,-6.2l1.5,3l-9.9,3.2Z" class="g2_1" />
<path d="M734.3,668.9l8.4,-6.2l1.5,3l-9.9,3.2Z" class="g5_1" />
</g>
<g clip-path="url(#c16_1)">
<g fill="#000000" >
<use xlink:href="#f1_c" transform="matrix(8,-4.1,4.1,8,772.5,641)" />
<use xlink:href="#f1_4" transform="matrix(8,-4.1,4.1,8,779.3,637.5)" />
<use xlink:href="#f1_5" transform="matrix(8,-4.1,4.1,8,781.6,636.3)" />
<use xlink:href="#f1_8" transform="matrix(8,-4.1,4.1,8,785.7,634.2)" />
<use xlink:href="#f1_3" transform="matrix(8,-4.1,4.1,8,792.5,630.7)" />
</g>
</g>
<text transform="matrix(0.89, -0.46, 0.46, 0.89, 772, 640)" class="s5_1">4'-0"</text>
<g clip-path="url(#c17_1)">
<path d="M1091,548.6l-25.3,-49.4m0,0L1060.5,489m-191,172.9L844.2,612.6m0,0L839,602.4" class="g0_1" />
<path d="M1055.5,504.5L854.4,607.4" class="g5_1" />
<path d="M1064.7,499.8l-8.4,6.2l-1.6,-3.1l10,-3.1Z" class="g2_1" />
<path d="M1064.7,499.8l-8.4,6.2l-1.6,-3.1l10,-3.1Z" class="g5_1" />
<path d="M845.3,612.1l8.4,-6.3l1.5,3.1l-9.9,3.2Z" class="g2_1" />
<path d="M845.3,612.1l8.4,-6.3l1.5,3.1l-9.9,3.2Z" class="g5_1" />
</g>
<g clip-path="url(#c18_1)">
<g fill="#000000" >
<use xlink:href="#f1_e" transform="matrix(8,-4.1,4.1,8,938.7,555.9)" />
<use xlink:href="#f1_4" transform="matrix(8,-4.1,4.1,8,945.5,552.4)" />
<use xlink:href="#f1_5" transform="matrix(8,-4.1,4.1,8,947.9,551.2)" />
<use xlink:href="#f1_8" transform="matrix(8,-4.1,4.1,8,951.9,549.1)" />
<use xlink:href="#f1_3" transform="matrix(8,-4.1,4.1,8,958.7,545.6)" />
</g>
</g>
<text transform="matrix(0.89, -0.46, 0.46, 0.89, 938, 555)" class="s5_1">8'-0"</text>
<g clip-path="url(#c19_1)">
<path d="M1282.9,450.3L1257.7,401m0,0l-5.3,-10.2M1091,548.6l-25.3,-49.4m0,0L1060.5,489" class="g0_1" />
<path d="M1247.4,406.2L1075.9,494" class="g5_1" />
<path d="M1256.6,401.5l-8.4,6.2l-1.5,-3l9.9,-3.2Z" class="g2_1" />
<path d="M1256.6,401.5l-8.4,6.2l-1.5,-3l9.9,-3.2Z" class="g5_1" />
<path d="M1066.7,498.7l8.4,-6.2l1.6,3l-10,3.2Z" class="g2_1" />
<path d="M1066.7,498.7l8.4,-6.2l1.6,3l-10,3.2Z" class="g5_1" />
</g>
<g clip-path="url(#c20_1)">
<g fill="#000000" >
<use xlink:href="#f1_d" transform="matrix(8,-4.1,4.1,8,1142.5,451.6)" />
<use xlink:href="#f1_4" transform="matrix(8,-4.1,4.1,8,1149.3,448.1)" />
<use xlink:href="#f1_5" transform="matrix(8,-4.1,4.1,8,1151.6,446.9)" />
<use xlink:href="#f1_9" transform="matrix(8,-4.1,4.1,8,1155.7,444.8)" />
<use xlink:href="#f1_9" transform="matrix(8,-4.1,4.1,8,1161.6,441.8)" />
<use xlink:href="#f1_3" transform="matrix(8,-4.1,4.1,8,1168.4,438.3)" />
</g>
</g>
<text transform="matrix(0.89, -0.46, 0.46, 0.89, 1142, 451)" dx="0,0,0,0,-1,0" class="s5_1">6'-11"</text>
<g clip-path="url(#c21_1)">
<path d="M1321,522.9l-12.4,-24.2m0,0l-5.2,-10.2m-63.3,75.8l-12.4,-24.2m0,0l-5.3,-10.2" class="g0_1" />
<path d="M1298.4,503.9l-60.5,31" class="g5_1" />
<path d="M1307.6,499.2l-8.4,6.2l-1.6,-3l10,-3.2Z" class="g2_1" />
<path d="M1307.6,499.2l-8.4,6.2l-1.6,-3l10,-3.2Z" class="g5_1" />
<path d="M1228.7,539.6l8.4,-6.3l1.6,3.1l-10,3.2Z" class="g2_1" />
<path d="M1228.7,539.6l8.4,-6.3l1.6,3.1l-10,3.2Z" class="g5_1" />
</g>
<g clip-path="url(#c22_1)">
<g fill="#000000" >
<use xlink:href="#f1_a" transform="matrix(8,-4.1,4.1,8,1248.9,520.9)" />
<use xlink:href="#f1_4" transform="matrix(8,-4.1,4.1,8,1255.7,517.4)" />
<use xlink:href="#f1_5" transform="matrix(8,-4.1,4.1,8,1258.1,516.2)" />
<use xlink:href="#f1_9" transform="matrix(8,-4.1,4.1,8,1262.1,514.1)" />
<use xlink:href="#f1_9" transform="matrix(8,-4.1,4.1,8,1268,511.1)" />
<use xlink:href="#f1_3" transform="matrix(8,-4.1,4.1,8,1274.8,507.6)" />
</g>
</g>
<text transform="matrix(0.89, -0.46, 0.46, 0.89, 1248, 520)" dx="0,0,0,0,-1,0" class="s5_1">2'-11"</text>
<g clip-path="url(#c23_1)">
<path d="M1239.5,564.6l-12.4,-24.2m0,0l-5.2,-10.2M1017.5,678.3L1005.1,654m0,0l-5.2,-10.2" class="g0_1" />
<path d="M1216.9,545.6L1015.3,648.8" class="g5_1" />
<path d="M1226.1,540.9l-8.4,6.2l-1.6,-3l10,-3.2Z" class="g2_1" />
<path d="M1226.1,540.9l-8.4,6.2l-1.6,-3l10,-3.2Z" class="g5_1" />
<path d="M1006.2,653.5l8.4,-6.2l1.5,3l-9.9,3.2Z" class="g2_1" />
<path d="M1006.2,653.5l8.4,-6.2l1.5,3l-9.9,3.2Z" class="g5_1" />
</g>
<g clip-path="url(#c24_1)">
<g fill="#000000" >
<use xlink:href="#f1_e" transform="matrix(8,-4.1,4.1,8,1099.9,597.2)" />
<use xlink:href="#f1_4" transform="matrix(8,-4.1,4.1,8,1106.7,593.7)" />
<use xlink:href="#f1_5" transform="matrix(8,-4.1,4.1,8,1109,592.5)" />
<use xlink:href="#f1_8" transform="matrix(8,-4.1,4.1,8,1113.1,590.4)" />
<use xlink:href="#f1_3" transform="matrix(8,-4.1,4.1,8,1119.9,586.9)" />
</g>
</g>
<text transform="matrix(0.89, -0.46, 0.46, 0.89, 1099, 597)" class="s5_1">8'-0"</text>
<g clip-path="url(#c25_1)">
<path d="M796.1,791.6L783.7,767.4m0,0l-5.3,-10.2M1018.1,678l-12.4,-24.3m0,0l-5.3,-10.2" class="g0_1" />
<path d="M793.9,762.2L995.5,659" class="g5_1" />
<path d="M784.7,766.9l8.4,-6.3l1.6,3.1l-10,3.2Z" class="g2_1" />
<path d="M784.7,766.9l8.4,-6.3l1.6,3.1l-10,3.2Z" class="g5_1" />
<path d="M1004.6,654.3l-8.4,6.2l-1.5,-3.1l9.9,-3.1Z" class="g2_1" />
<path d="M1004.6,654.3l-8.4,6.2l-1.5,-3.1l9.9,-3.1Z" class="g5_1" />
</g>
<g clip-path="url(#c26_1)">
<g fill="#000000" >
<use xlink:href="#f1_e" transform="matrix(8,-4.1,4.1,8,878.4,710.5)" />
<use xlink:href="#f1_4" transform="matrix(8,-4.1,4.1,8,885.2,707)" />
<use xlink:href="#f1_5" transform="matrix(8,-4.1,4.1,8,887.5,705.8)" />
<use xlink:href="#f1_8" transform="matrix(8,-4.1,4.1,8,891.6,703.8)" />
<use xlink:href="#f1_3" transform="matrix(8,-4.1,4.1,8,898.4,700.3)" />
</g>
</g>
<text transform="matrix(0.89, -0.46, 0.46, 0.89, 878, 710)" class="s5_1">8'-0"</text>
<g clip-path="url(#c27_1)">
<path d="M640.8,461.8L1249.1,148.1m0,0l10.1,-5.3M642.9,465.9L1251.1,152.1m0,0l10.2,-5.2" class="g0_1" />
<path d="M1243.8,137.9l-5.3,-10.2" class="g5_1" />
<path d="M1248.5,147.1l-6.2,-8.4l3,-1.6l3.2,10Z" class="g2_1" />
<path d="M1248.5,147.1l-6.2,-8.4l3,-1.6l3.2,10ZM1261.7,172.5l-5.3,-10.2" class="g5_1" />
<path d="M1251.7,153.2l6.2,8.4l-3,1.5l-3.2,-9.9Z" class="g2_1" />
<path d="M1251.7,153.2l6.2,8.4l-3,1.5l-3.2,-9.9Z" class="g5_1" />
<path d="M1251.5,149.5c8.4,-4.1,14.3,-3.2,17.2,2.4" class="g0_1" />
<path d="M1251.2,149c.6,.6,.6,1.6,0,2.2c-.6,.6,-1.6,.6,-2.2,0c-.6,-.6,-.6,-1.6,0,-2.2c.6,-.6,1.6,-.6,2.2,0Z" class="g2_1" />
<path d="M1251.2,149c.6,.6,.6,1.6,0,2.2c-.6,.6,-1.6,.6,-2.2,0c-.6,-.6,-.6,-1.6,0,-2.2c.6,-.6,1.6,-.6,2.2,0" class="g0_1" />
</g>
<g clip-path="url(#c28_1)">
<g fill="#000000" >
<use xlink:href="#f1_9" transform="matrix(4.1,8,-8,4.1,1266.6,157.3)" />
<use xlink:href="#f1_9" transform="matrix(4.1,8,-8,4.1,1271.9,167.5)" />
<use xlink:href="#f1_7" transform="matrix(4.1,8,-8,4.1,1275.4,174.3)" />
<use xlink:href="#f1_a" transform="matrix(4.1,8,-8,4.1,1277.1,177.7)" />
<use xlink:href="#f1_3" transform="matrix(4.1,8,-8,4.1,1280.6,184.5)" />
</g>
</g>
<text transform="matrix(0.46, 0.89, -0.89, 0.46, 1266, 157)" class="s5_1">1 1/2"</text>

<defs>
<path d="M641,-18c0,0,-178,0,-291,51c0,0,-114,52,-196,182c0,0,-82,131,-82,334c0,0,0,271,145,417c0,0,144,146,408,146c0,0,207,0,325,-84c0,0,118,-83,175,-257L827,705c0,0,-15,50,-33,73c0,0,-28,39,-69,60c0,0,-41,21,-92,21c0,0,-115,0,-176,-93c0,0,-46,-68,-46,-215c0,0,0,-182,55,-249c0,0,55,-67,155,-67c0,0,97,0,147,54c0,0,50,55,72,159l296,-90c0,0,-30,-124,-94,-208c0,0,-64,-84,-159,-126c0,0,-95,-42,-242,-42Z" 
id="f0_7"
transform="scale(0.001,-0.001)" />

<path d="M93,0V304H418V0Z" 
id="f0_3"
transform="scale(0.001,-0.001)" />

<path d="M508,189c0,0,46,0,80,32c0,0,34,33,50,103c0,0,16,70,16,218c0,0,0,218,-37,292c0,0,-37,75,-111,75c0,0,-75,0,-109,-76c0,0,-33,-76,-33,-283c0,0,0,-209,37,-285c0,0,37,-76,107,-76Zm1,-207c0,0,-138,0,-223,43c0,0,-85,44,-140,129c0,0,-39,61,-61,166c0,0,-22,104,-22,231c0,0,0,312,112,436c0,0,112,125,342,125c0,0,110,0,181,-27c0,0,71,-28,116,-71c0,0,45,-44,70,-92c0,0,26,-48,42,-112c0,0,30,-122,30,-255c0,0,0,-298,-100,-436C856,119,755,-18,509,-18Z" 
id="f0_4"
transform="scale(0.001,-0.001)" />

<path d="M510,-18c0,0,-108,0,-185,20c0,0,-77,20,-132,61c0,0,-54,41,-87,92c0,0,-34,51,-56,128l307,34c0,0,11,-74,52,-112c0,0,41,-39,98,-39c0,0,63,0,105,48c0,0,41,48,41,144c0,0,0,98,-42,143c0,0,-41,46,-111,46c0,0,-44,0,-85,-22c0,0,-31,-16,-67,-57L89,506l96,587H907V851H418L392,687c0,0,51,23,100,35c0,0,50,12,98,12c0,0,165,0,267,-99c0,0,102,-99,102,-250c0,0,0,-105,-52,-203C907,182,854,84,757,33c0,0,-96,-51,-247,-51Z" 
id="f0_5"
transform="scale(0.001,-0.001)" />

<path d="M125,0V1093H463V0Z" 
id="f0_a"
transform="scale(0.001,-0.001)" />

<path d="M561,-18c0,0,-279,0,-387,107C174,89,67,196,53,362l321,20c0,0,11,-78,43,-119c0,0,52,-66,149,-66c0,0,72,0,112,33c0,0,39,34,39,79c0,0,0,43,-37,76c0,0,-38,34,-174,63c0,0,-222,50,-317,133c0,0,-95,83,-95,211c0,0,0,84,49,159c0,0,49,75,147,118c0,0,98,43,269,43c0,0,209,0,319,-78c0,0,110,-78,131,-248L690,768c0,0,-12,73,-53,107c0,0,-40,33,-112,33c0,0,-59,0,-88,-25c0,0,-30,-25,-30,-60c0,0,0,-26,24,-47c0,0,24,-22,114,-41c0,0,221,-47,317,-96c0,0,96,-49,140,-121c0,0,43,-73,43,-162c0,0,0,-105,-58,-194C987,162,929,73,824,27c0,0,-104,-45,-263,-45Z" 
id="f0_e"
transform="scale(0.001,-0.001)" />

<path d="M664,-18c0,0,-80,0,-174,12c0,0,-95,10,-158,43c0,0,-64,33,-116,94c0,0,-53,61,-72,126c0,0,-32,104,-32,185v651H450V427c0,0,0,-90,49,-140c0,0,50,-50,138,-50c0,0,87,0,137,49c0,0,49,50,49,141v666h338V442c0,0,0,-97,-31,-183c0,0,-30,-86,-94,-151c0,0,-65,-64,-136,-90c0,0,-98,-36,-236,-36Z" 
id="f0_g"
transform="scale(0.001,-0.001)" />

<path d="M111,0V1093h906V859H450V685H976V462H450V247h584V0Z" 
id="f0_9"
transform="scale(0.001,-0.001)" />

<path d="M537,248c0,0,106,0,151,24c0,0,45,23,70,82c0,0,25,58,25,190c0,0,0,174,-56,238c0,0,-57,64,-188,64H455V248ZM116,0V1093H618c0,0,149,0,240,-40c0,0,91,-40,151,-116c0,0,60,-75,87,-175c0,0,26,-100,26,-212c0,0,0,-175,-39,-271c0,0,-40,-97,-111,-162c0,0,-71,-66,-152,-87C820,30,709,0,618,0Z" 
id="f0_8"
transform="scale(0.001,-0.001)" />

<path d="M713,418L593,810L474,418ZM2,0L412,1093H781L1192,0H838L784,181H401L347,0Z" 
id="f0_6"
transform="scale(0.001,-0.001)" />

<path d="M379,0V823H35v270H1062V823H718V0Z" 
id="f0_f"
transform="scale(0.001,-0.001)" />

<path d="M598,650c0,0,23,0,90,15c0,0,33,7,54,34c0,0,22,28,22,64c0,0,0,53,-34,81c0,0,-33,28,-126,28H456V650ZM116,0V1093H679c0,0,157,0,240,-27c0,0,83,-27,133,-99c0,0,51,-73,51,-177c0,0,0,-91,-39,-157c0,0,-39,-66,-107,-107c0,0,-43,-26,-119,-43c0,0,61,-21,89,-41c0,0,18,-13,54,-57c0,0,35,-44,47,-68L1192,0H810L629,334c0,0,-34,65,-61,85c0,0,-36,25,-83,25H456V0Z" 
id="f0_d"
transform="scale(0.001,-0.001)" />

<path d="M636,235c0,0,109,0,169,70c0,0,59,71,59,254c0,0,0,154,-62,225c0,0,-62,72,-169,72c0,0,-102,0,-163,-73c0,0,-62,-72,-62,-239c0,0,0,-165,61,-237c0,0,62,-72,167,-72ZM648,-18c0,0,-185,0,-307,58c0,0,-121,59,-196,187c0,0,-76,127,-76,319c0,0,0,267,150,417c0,0,149,149,415,149c0,0,273,0,421,-147c0,0,148,-146,148,-410c0,0,0,-192,-65,-314c0,0,-64,-123,-186,-191c0,0,-122,-68,-304,-68Z" 
id="f0_c"
transform="scale(0.001,-0.001)" />

<path d="M243,0L0,1093H321L436,483l169,610H924L1094,484l116,609h319L1288,0H957L765,688L574,0Z" 
id="f0_h"
transform="scale(0.001,-0.001)" />

<path d="M114,0V1093H430L841,489v604h319V0H841L432,601V0Z" 
id="f0_b"
transform="scale(0.001,-0.001)" />

<path d="M396,0V964H35v129H902V964H541V0Z" 
id="f1_m"
transform="scale(0.001,-0.001)" />

<path d="M101,0V1093H235V701c0,0,94,109,237,109c0,0,88,0,153,-35c0,0,65,-35,93,-96c0,0,28,-61,28,-177V0H612V502c0,0,0,101,-44,146c0,0,-43,46,-123,46c0,0,-60,0,-113,-31c0,0,-52,-31,-75,-84c0,0,-22,-53,-22,-146V0Z" 
id="f1_u"
transform="scale(0.001,-0.001)" />

<path d="M102,0V792H236V0Zm0,939v154H236V939Z" 
id="f1_v"
transform="scale(0.001,-0.001)" />

<path d="M386,-17c0,0,-155,0,-236,64c0,0,-81,64,-103,190l133,20c0,0,11,-79,62,-122c0,0,51,-42,143,-42c0,0,93,0,138,37c0,0,44,38,44,89c0,0,0,45,-39,71c0,0,-28,18,-138,46c0,0,-147,37,-204,64c0,0,-58,27,-87,75c0,0,-30,48,-30,107c0,0,0,52,25,98c0,0,24,45,66,74c0,0,31,24,85,40c0,0,54,16,116,16c0,0,93,0,164,-27c0,0,70,-27,104,-73c0,0,33,-46,46,-122L544,570c0,0,-9,61,-52,95c0,0,-43,34,-121,34c0,0,-93,0,-132,-30c0,0,-40,-31,-40,-72c0,0,0,-26,17,-47c0,0,16,-21,51,-35c0,0,20,-8,119,-35c0,0,142,-38,199,-62c0,0,56,-24,88,-70c0,0,32,-47,32,-115c0,0,0,-67,-39,-126c0,0,-39,-60,-113,-92c0,0,-74,-32,-167,-32Z" 
id="f1_13"
transform="scale(0.001,-0.001)" />

<path d="M247,0L4,792H143L270,335L316,165c0,0,3,12,41,163L484,792H620L740,333L779,181l45,153L960,792h131L843,0H704L578,474L547,609L386,0Z" 
id="f1_17"
transform="scale(0.001,-0.001)" />

<path d="M422,93c0,0,100,0,167,76c0,0,66,76,66,231c0,0,0,147,-67,223c0,0,-66,75,-166,75c0,0,-100,0,-167,-75c0,0,-66,-75,-66,-227c0,0,0,-152,66,-228c0,0,67,-75,167,-75Zm0,-110c0,0,-166,0,-269,106C153,89,51,196,51,396c0,0,0,220,122,326c0,0,102,88,249,88c0,0,164,0,267,-107c0,0,104,-107,104,-296c0,0,0,-153,-46,-240C747,167,701,79,614,31c0,0,-88,-48,-192,-48Z" 
id="f1_10"
transform="scale(0.001,-0.001)" />

<path d="M99,0V792H219V672c0,0,46,84,86,111c0,0,39,27,86,27c0,0,68,0,138,-43L482,642c0,0,-49,29,-98,29c0,0,-44,0,-79,-27c0,0,-35,-26,-50,-73c0,0,-22,-72,-22,-157V0Z" 
id="f1_12"
transform="scale(0.001,-0.001)" />

<path d="M101,0V1093H235V470L554,792H728L425,498L758,0H592L329,405L235,314V0Z" 
id="f1_w"
transform="scale(0.001,-0.001)" />

<path d="M98,0V1093H232V0Z" 
id="f1_x"
transform="scale(0.001,-0.001)" />

<path d="M420,-17c0,0,-163,0,-262,106c0,0,-98,106,-98,304c0,0,0,128,42,224c0,0,43,96,129,145c0,0,87,48,189,48c0,0,129,0,211,-66c0,0,82,-65,106,-185L606,539c0,0,-19,80,-66,120c0,0,-48,40,-115,40c0,0,-101,0,-164,-72c0,0,-63,-73,-63,-230c0,0,0,-160,61,-232c0,0,61,-72,159,-72c0,0,79,0,132,48c0,0,53,49,67,149L749,273C749,273,728,137,639,59c0,0,-90,-76,-219,-76Z" 
id="f1_p"
transform="scale(0.001,-0.001)" />

<path d="M644,472c0,0,-9,100,-50,150c0,0,-65,77,-167,77c0,0,-93,0,-156,-62c0,0,-63,-61,-70,-165ZM433,-17c0,0,-174,0,-275,106C158,89,56,196,56,389c0,0,0,200,103,310c0,0,103,111,267,111c0,0,159,0,259,-108c0,0,101,-109,101,-304c0,0,0,-12,-1,-36H194c0,0,7,-131,74,-200c0,0,66,-69,166,-69c0,0,74,0,126,39c0,0,52,39,83,124L782,239C782,239,749,117,660,50c0,0,-89,-67,-227,-67Z" 
id="f1_r"
transform="scale(0.001,-0.001)" />

<path d="M101,0V792H221V679c0,0,87,131,252,131c0,0,72,0,132,-26c0,0,60,-26,90,-68c0,0,30,-41,42,-99c0,0,7,-37,7,-130V0H610V482c0,0,0,82,-16,122c0,0,-15,41,-55,65c0,0,-40,24,-94,24c0,0,-86,0,-148,-54c0,0,-62,-55,-62,-207V0Z" 
id="f1_z"
transform="scale(0.001,-0.001)" />

<path d="M406,93c0,0,88,0,149,72c0,0,62,72,62,219c0,0,0,162,-63,238c0,0,-63,76,-154,76c0,0,-90,0,-150,-73c0,0,-60,-73,-60,-230c0,0,0,-152,64,-227c0,0,64,-75,152,-75ZM393,-17c0,0,-95,0,-174,52c0,0,-80,52,-123,145c0,0,-44,94,-44,215c0,0,0,119,39,215c0,0,40,97,119,148c0,0,79,52,177,52c0,0,71,0,127,-31c0,0,56,-30,91,-79v393H739V0H615V100c0,0,-75,-117,-222,-117Z" 
id="f1_q"
transform="scale(0.001,-0.001)" />

<path d="M369,-17c0,0,-70,0,-131,26c0,0,-61,27,-91,68c0,0,-29,40,-41,99c0,0,-8,40,-8,125V792H232V353c0,0,0,-105,8,-142c0,0,13,-53,54,-83c0,0,41,-30,101,-30c0,0,61,0,114,31c0,0,53,31,75,84c0,0,22,53,22,155V792H740V0H621V116c0,0,-93,-133,-252,-133Z" 
id="f1_15"
transform="scale(0.001,-0.001)" />

<path d="M358,88c0,0,78,0,139,34c0,0,60,34,89,92c0,0,21,46,21,134l1,49c0,0,-73,-30,-221,-51c0,0,-83,-11,-117,-26c0,0,-35,-15,-54,-44c0,0,-18,-28,-18,-63c0,0,0,-54,40,-89c0,0,41,-36,120,-36ZM326,-17c0,0,-131,0,-201,63c0,0,-70,64,-70,163c0,0,0,58,26,106c0,0,27,48,70,77c0,0,43,29,97,44c0,0,39,11,119,20c0,0,163,20,240,47c0,0,1,27,1,35c0,0,0,81,-38,115c0,0,-52,45,-153,45c0,0,-95,0,-141,-33c0,0,-45,-33,-67,-116L78,566c0,0,18,84,59,136c0,0,41,52,119,80c0,0,78,28,180,28c0,0,102,0,165,-24c0,0,64,-24,94,-60c0,0,29,-36,41,-91c0,0,7,-35,7,-124V332c0,0,0,-187,9,-236c0,0,8,-50,33,-96H645c0,0,-20,42,-26,98C619,98,544,34,475,8c0,0,-70,-25,-149,-25Z" 
id="f1_n"
transform="scale(0.001,-0.001)" />

<path d="M590,-18c0,0,-177,0,-287,71c0,0,-111,72,-169,209c0,0,-58,137,-58,293c0,0,0,171,66,298c0,0,65,128,185,194c0,0,121,66,265,66c0,0,164,0,276,-84c0,0,112,-84,156,-235L881,760c0,0,-38,120,-110,174c0,0,-72,55,-182,55c0,0,-126,0,-210,-61c0,0,-85,-60,-119,-162c0,0,-34,-102,-34,-210c0,0,0,-139,40,-243c0,0,41,-104,127,-156c0,0,85,-51,185,-51c0,0,122,0,206,70c0,0,84,70,114,208l145,-37c0,0,-46,-178,-164,-272c0,0,-118,-93,-289,-93Z" 
id="f1_h"
transform="scale(0.001,-0.001)" />

<path d="M312,-10c0,0,-73,0,-114,22c0,0,-40,23,-56,61c0,0,-17,38,-17,159V687H26V792h99V988l134,81V792H394V687H259V224c0,0,0,-57,7,-74c0,0,7,-16,23,-26c0,0,16,-10,46,-10c0,0,23,0,59,6L414,1c0,0,-57,-11,-102,-11Z" 
id="f1_14"
transform="scale(0.001,-0.001)" />

<path d="M320,0L20,792H161L331,318c0,0,28,-77,51,-160c0,0,18,63,50,151L608,792H746L447,0Z" 
id="f1_16"
transform="scale(0.001,-0.001)" />

<path d="M101,0V792H220V681c0,0,37,58,99,93c0,0,62,36,141,36c0,0,88,0,145,-37c0,0,56,-36,79,-102c0,0,94,139,245,139c0,0,118,0,182,-66c0,0,63,-65,63,-201V0H1040V499c0,0,0,80,-13,116c0,0,-13,35,-47,57c0,0,-35,21,-81,21c0,0,-83,0,-139,-55c0,0,-55,-56,-55,-178V0H571V514c0,0,0,90,-33,135c0,0,-33,44,-107,44c0,0,-57,0,-105,-30c0,0,-48,-29,-70,-87c0,0,-21,-57,-21,-165V0Z" 
id="f1_y"
transform="scale(0.001,-0.001)" />

<path d="M684,450L570,752c0,0,-52,138,-78,227c0,0,-21,-105,-59,-209L313,450ZM-1,0L417,1093H574L1021,0H857L729,331H271L152,0Z" 
id="f1_g"
transform="scale(0.001,-0.001)" />

<path d="M433,93c0,0,88,0,152,76c0,0,64,77,64,228c0,0,0,155,-61,228c0,0,-62,74,-149,74c0,0,-89,0,-153,-76c0,0,-64,-77,-64,-221c0,0,0,-142,39,-206c0,0,63,-103,172,-103ZM444,-17c0,0,-140,0,-220,117V0H100V1093H234V703c0,0,85,107,217,107c0,0,73,0,139,-30c0,0,65,-29,107,-83c0,0,42,-53,66,-128c0,0,24,-75,24,-161c0,0,0,-204,-101,-315C686,93,585,-17,444,-17Z" 
id="f1_o"
transform="scale(0.001,-0.001)" />

<path d="M48,329V463H461V329Z" 
id="f1_5"
transform="scale(0.001,-0.001)" />

<path d="M535,-18c0,0,-149,0,-249,43c0,0,-100,43,-158,130c0,0,-57,87,-60,197l137,12c0,0,10,-83,45,-135c0,0,36,-53,110,-86c0,0,75,-32,168,-32c0,0,83,0,146,24c0,0,63,25,94,68c0,0,31,43,31,94c0,0,0,51,-30,90c0,0,-30,38,-98,64c0,0,-44,17,-195,54c0,0,-151,36,-211,68c0,0,-79,41,-117,102c0,0,-38,61,-38,136c0,0,0,83,47,155c0,0,47,72,137,109c0,0,90,38,200,38c0,0,122,0,215,-39c0,0,93,-40,143,-116c0,0,50,-76,54,-172L767,775c0,0,-11,104,-76,158c0,0,-64,53,-190,53c0,0,-132,0,-192,-49c0,0,-60,-48,-60,-116c0,0,0,-59,43,-97c0,0,42,-38,218,-78c0,0,176,-40,242,-70c0,0,96,-44,141,-111c0,0,46,-68,46,-156c0,0,0,-87,-50,-165C889,144,839,67,745,24c0,0,-93,-42,-210,-42Z" 
id="f1_l"
transform="scale(0.001,-0.001)" />

<path d="M494,385V878L152,385ZM494,0V262H20V385l498,708H628V385H775V262H628V0Z" 
id="f1_c"
transform="scale(0.001,-0.001)" />

<path d="M139,0V153H291V0Z" 
id="f1_6"
transform="scale(0.001,-0.001)" />

<path d="M420,92c0,0,92,0,155,89c0,0,64,89,64,358c0,0,0,270,-63,359c0,0,-63,89,-158,89c0,0,-92,0,-147,-79c0,0,-70,-100,-70,-369c0,0,0,-269,63,-358c0,0,63,-89,156,-89Zm0,-110c0,0,-158,0,-248,112C172,94,64,231,64,539c0,0,0,194,39,313c0,0,40,118,119,182c0,0,79,64,198,64c0,0,88,0,155,-35c0,0,66,-36,109,-103c0,0,43,-66,68,-162c0,0,24,-96,24,-259c0,0,0,-192,-39,-311C737,228,697,110,619,46c0,0,-79,-64,-199,-64Z" 
id="f1_8"
transform="scale(0.001,-0.001)" />

<path d="M143,0V1093H287V0Z" 
id="f1_i"
transform="scale(0.001,-0.001)" />

<path d="M111,0V1093H256V129H795V0Z" 
id="f1_j"
transform="scale(0.001,-0.001)" />

<path d="M433,93c0,0,90,0,154,75c0,0,63,76,63,235c0,0,0,151,-62,226c0,0,-62,75,-149,75c0,0,-85,0,-151,-80c0,0,-66,-80,-66,-233c0,0,0,-152,62,-225c0,0,62,-73,149,-73ZM101,-303V792H223V688c0,0,43,61,98,91c0,0,54,31,132,31c0,0,101,0,179,-53c0,0,77,-52,117,-147c0,0,39,-95,39,-208c0,0,0,-122,-44,-219C744,183,701,86,618,34c0,0,-84,-51,-175,-51c0,0,-67,0,-121,28c0,0,-53,28,-87,71V-303Z" 
id="f1_11"
transform="scale(0.001,-0.001)" />

<path d="M138,0V153H290V0Zm0,639V792H290V639Z" 
id="f1_f"
transform="scale(0.001,-0.001)" />

<path d="M0,-18L317,1113H425L108,-18Z" 
id="f1_7"
transform="scale(0.001,-0.001)" />

<path d="M404,111c0,0,93,0,155,72c0,0,63,71,63,223c0,0,0,145,-65,218c0,0,-64,74,-155,74c0,0,-89,0,-152,-72c0,0,-62,-73,-62,-216c0,0,0,-156,61,-227c0,0,62,-72,155,-72ZM390,-321c0,0,-142,0,-230,64c0,0,-87,64,-84,193L207,-84c0,0,8,-60,46,-88c0,0,49,-37,136,-37c0,0,93,0,144,37c0,0,50,37,68,104c0,0,11,41,10,172C611,104,523,0,392,0C392,0,229,0,139,118c0,0,-89,118,-89,282c0,0,0,114,41,209c0,0,41,96,119,148c0,0,77,53,183,53c0,0,140,0,231,-114v96H748V107c0,0,0,-184,-38,-261c0,0,-38,-77,-119,-122c0,0,-82,-45,-201,-45Z" 
id="f1_t"
transform="scale(0.001,-0.001)" />

<path d="M182,-321c0,0,-39,0,-87,17L80,-178c0,0,44,-12,77,-12c0,0,45,0,72,15c0,0,26,15,44,42c0,0,12,20,41,100c0,0,3,11,12,33L24,792H169L334,334c0,0,32,-87,58,-183c0,0,23,91,55,179L616,792H750L450,-13c0,0,-49,-130,-75,-179c0,0,-36,-67,-83,-98c0,0,-46,-31,-110,-31Z" 
id="f1_18"
transform="scale(0.001,-0.001)" />

<path d="M576,610c0,0,99,0,155,21c0,0,56,20,85,65c0,0,29,45,29,98c0,0,0,78,-56,128c0,0,-56,50,-178,50H265V610ZM120,0V1093H605c0,0,147,0,223,-29c0,0,76,-30,121,-104c0,0,46,-75,46,-165c0,0,0,-117,-76,-197c0,0,-75,-80,-232,-101c0,0,57,-28,87,-55c0,0,63,-58,120,-145L1084,0H902L757,227c0,0,-63,98,-104,151c0,0,-41,52,-73,73c0,0,-33,21,-67,29c0,0,-24,5,-80,5H265V0Z" 
id="f1_k"
transform="scale(0.001,-0.001)" />

<path d="M133,0V687H14V792H133v84c0,0,0,80,14,119c0,0,19,52,68,84c0,0,49,33,138,33c0,0,56,0,125,-14L458,981c0,0,-42,8,-79,8c0,0,-62,0,-87,-27c0,0,-25,-26,-25,-97V792H421V687H267V0Z" 
id="f1_s"
transform="scale(0.001,-0.001)" />

<path d="M46,0c0,0,-2,48,16,93c0,0,27,74,88,146c0,0,61,71,176,165c0,0,178,146,241,232c0,0,63,85,63,161c0,0,0,80,-57,135c0,0,-58,55,-149,55c0,0,-98,0,-156,-59c0,0,-58,-58,-59,-160L71,782c0,0,15,154,107,235c0,0,93,81,249,81c0,0,157,0,249,-87c0,0,92,-88,92,-217c0,0,0,-65,-27,-129c0,0,-27,-63,-89,-133c0,0,-62,-70,-207,-193C445,339,324,238,290,202c0,0,-35,-36,-57,-73H770V0Z" 
id="f1_a"
transform="scale(0.001,-0.001)" />

<path d="M102,706L67,910v183H220V910L184,706Z" 
id="f1_4"
transform="scale(0.001,-0.001)" />

<path d="M412,-18c0,0,-144,0,-239,85c0,0,-95,86,-108,222l133,18c0,0,24,-114,79,-164c0,0,55,-50,135,-50c0,0,96,0,161,65c0,0,65,66,65,163c0,0,0,92,-61,152c0,0,-60,60,-153,60c0,0,-38,0,-95,-15l15,119c0,0,13,-2,21,-2c0,0,86,0,155,45c0,0,69,44,69,137c0,0,0,74,-50,122c0,0,-50,49,-129,49c0,0,-79,0,-131,-50c0,0,-52,-49,-67,-147L78,815c0,0,25,135,112,209c0,0,87,74,217,74c0,0,89,0,164,-38c0,0,76,-39,116,-105c0,0,40,-66,40,-141c0,0,0,-70,-39,-129c0,0,-38,-58,-112,-92c0,0,97,-22,151,-93c0,0,53,-70,53,-176c0,0,0,-143,-104,-243c0,0,-105,-99,-264,-99Z" 
id="f1_b"
transform="scale(0.001,-0.001)" />

<path d="M108,706L70,914v179H223V914L189,706Zm247,0L319,914v179H471V914L436,706Z" 
id="f1_3"
transform="scale(0.001,-0.001)" />

<path d="M423,92c0,0,97,0,159,62c0,0,62,62,62,157c0,0,0,97,-64,160c0,0,-64,64,-161,64c0,0,-96,0,-158,-63c0,0,-62,-62,-62,-156c0,0,0,-58,27,-111c0,0,27,-54,81,-84c0,0,54,-29,116,-29Zm0,552c0,0,78,0,127,49c0,0,49,49,49,120c0,0,0,74,-50,124c0,0,-51,51,-128,51c0,0,-77,0,-127,-50c0,0,-51,-49,-51,-118c0,0,0,-77,50,-126c0,0,50,-50,130,-50ZM422,-18c0,0,-162,0,-261,95c0,0,-99,96,-99,239c0,0,0,107,54,179c0,0,54,72,154,98c0,0,-84,31,-124,87c0,0,-40,57,-40,136c0,0,0,119,85,201c0,0,86,81,229,81c0,0,143,0,230,-83c0,0,87,-83,87,-203c0,0,0,-76,-40,-132c0,0,-39,-56,-121,-87c0,0,101,-33,154,-106c0,0,52,-73,52,-174c0,0,0,-141,-99,-236c0,0,-99,-95,-261,-95Z" 
id="f1_e"
transform="scale(0.001,-0.001)" />

<path d="M435,92c0,0,86,0,147,69c0,0,60,68,60,186c0,0,0,114,-60,179c0,0,-60,66,-152,66c0,0,-91,0,-154,-66c0,0,-64,-65,-64,-171c0,0,0,-70,30,-133c0,0,29,-64,82,-97c0,0,52,-33,111,-33Zm3,-110c0,0,-168,0,-274,123C164,105,58,228,58,512c0,0,0,317,117,461c0,0,102,125,275,125c0,0,129,0,212,-72c0,0,82,-72,99,-200L627,815c0,0,-18,79,-51,115c0,0,-54,58,-134,58c0,0,-64,0,-113,-36c0,0,-63,-46,-99,-135c0,0,-37,-89,-38,-253c0,0,48,74,118,110c0,0,70,36,147,36c0,0,135,0,229,-99c0,0,94,-99,94,-256c0,0,0,-103,-44,-191C736,164,691,75,614,28c0,0,-78,-46,-176,-46Z" 
id="f1_d"
transform="scale(0.001,-0.001)" />

<path d="M435,0V856c0,0,-48,-47,-127,-93c0,0,-79,-46,-142,-69V824c0,0,113,52,197,128c0,0,85,75,120,146h86V0Z" 
id="f1_9"
transform="scale(0.001,-0.001)" />


</defs>

<!-- Any embedded fonts defined here -->
<style type="text/css" ><![CDATA[

@font-face {
	font-family: ArialMT_a;
	src: url("fonts/ArialMT_a.woff") format("woff");
}

@font-face {
	font-family: Arial-Black_9;
	src: url("fonts/Arial-Black_9.woff") format("woff");
}

]]></style>

</svg>
