<?xml version="1.0" encoding="UTF-8"?>
<svg viewBox="0 0 446 345" version="1.1" xmlns="http://www.w3.org/2000/svg" xmlns:xlink="http://www.w3.org/1999/xlink">
    <!-- Generator: Sketch 47.1 (45422) - http://www.bohemiancoding.com/sketch -->
    <title>Roof Vocab 1</title>
    <desc>Created with Sketch.</desc>
    <defs>
        <polygon id="path-1" points="0 0 313 0 358 133 45 133"></polygon>
        <polygon id="path-2" points="315.731691 26.4958868 345 113 345 271.55559 174.483569 271.55559 32 113"></polygon>
        <rect id="path-3" x="103" y="113" width="269" height="159"></rect>
        <polygon id="path-4" points="45 0 358 0 403 133 90 133"></polygon>
    </defs>
    <g id="Page-1" stroke="none" stroke-width="1" fill="none" fill-rule="evenodd">
        <g id="Roof-Vocab-1">
            <g id="Group-3" transform="translate(17.000000, 61.000000)">
                <g id="Rectangle-4-Copy" transform="translate(179.000000, 66.500000) scale(-1, 1) translate(-179.000000, -66.500000) ">
                    <use fill="#FFFFFF" fill-rule="evenodd" xlink:href="#path-1"></use>
                    <path stroke="#000000" stroke-width="3" d="M2.09105134,1.5 L46.0760138,131.5 L355.908949,131.5 L311.923986,1.5 L2.09105134,1.5 Z"></path>
                </g>
                <g id="Rectangle-4-Copy" transform="translate(188.500000, 149.025739) scale(-1, 1) translate(-188.500000, -149.025739) ">
                    <use fill="#FFFFFF" fill-rule="evenodd" xlink:href="#path-2"></use>
                    <path stroke="#000000" stroke-width="3" d="M314.777201,28.3550567 L34.6891265,113.748304 L175.152291,270.05559 L343.5,270.05559 L343.5,113.246885 L314.777201,28.3550567 Z"></path>
                </g>
                <g id="Rectangle">
                    <use fill="#FFFFFF" fill-rule="evenodd" xlink:href="#path-3"></use>
                    <rect stroke="#000000" stroke-width="3" x="104.5" y="114.5" width="266" height="156"></rect>
                </g>
                <g id="Rectangle-4">
                    <use fill="#FFFFFF" fill-rule="evenodd" xlink:href="#path-4"></use>
                    <path stroke="#000000" stroke-width="3" d="M47.0910513,1.5 L91.0760138,131.5 L400.908949,131.5 L356.923986,1.5 L47.0910513,1.5 Z"></path>
                </g>
            </g>
            <g id="Group" transform="translate(182.000000, 195.000000)"></g>
            <text id="Ridge" font-family="HelveticaNeue, Helvetica Neue" font-size="44" font-weight="normal" letter-spacing="-0.614213228" fill="#000000">
                <tspan x="173.093533" y="46">Ridge</tspan>
            </text>
            <text id="Eave" font-family="HelveticaNeue, Helvetica Neue" font-size="44" font-weight="normal" letter-spacing="-0.614213228" fill="#000000">
                <tspan x="202.158426" y="237">Eave</tspan>
            </text>
            <g id="Group-2" transform="translate(323.000000, 111.000000)">
                <rect id="Rectangle-3" fill="#FFFFFF" x="0" y="5" width="107" height="43"></rect>
                <text id="Rake" font-family="HelveticaNeue, Helvetica Neue" font-size="44" font-weight="normal" letter-spacing="-0.614213228" fill="#000000">
                    <tspan x="3.11242646" y="42">Rake</tspan>
                </text>
            </g>
            <g id="Group-2" transform="translate(46.000000, 111.000000)">
                <rect id="Rectangle-3" fill="#FFFFFF" x="3" y="5" width="107" height="43"></rect>
                <text id="Rake" font-family="HelveticaNeue, Helvetica Neue" font-size="44" font-weight="normal" letter-spacing="-0.614213228" fill="#000000">
                    <tspan x="0.112426456" y="42">Rake</tspan>
                </text>
            </g>
        </g>
    </g>
</svg>