<?xml version="1.0" encoding="UTF-8"?>
<svg viewBox="0 0 400 300"  width="1600" height="1200" version="1.1" xmlns="http://www.w3.org/2000/svg" xmlns:xlink="http://www.w3.org/1999/xlink">
    <!-- Generator: Sketch 52.5 (67469) - http://www.bohemiancoding.com/sketch -->
    <title>RoofVocab</title>
    <desc>Created with Sketch.</desc>
    <g id="RoofVocab" stroke="none" stroke-width="1" fill="none" fill-rule="evenodd">
        <rect fill="#FFFFFF" x="0" y="0" width="400" height="300"></rect>
        <g transform="translate(55.000000, 34.000000)">
            <g id="Group-3" transform="translate(0.000000, 39.900000)">
                <g id="Rectangle-4-Copy" transform="translate(125.300000, 46.550000) scale(-1, 1) translate(-125.300000, -46.550000) ">
                    <g id="path-1-link" fill="#FFFFFF">
                        <polygon id="path-1" points="0 0 219.1 0 250.6 93.1 31.5 93.1"></polygon>
                    </g>
                    <polygon id="Path" stroke="#000000" stroke-width="2.1" points="1.46373594 1.05 32.2532097 92.05 249.136264 92.05 218.34679 1.05"></polygon>
                </g>
                <g id="Rectangle-4-Copy" transform="translate(131.950000, 104.300000) scale(-1, 1) translate(-131.950000, -104.300000) translate(22.400000, 18.200000)">
                    <g id="path-2-link" fill="#FFFFFF">
                        <polygon id="path-2" points="198.612184 0.34712076 219.1 60.9 219.1 171.888913 99.7384983 171.888913 0 60.9"></polygon>
                    </g>
                    <polygon id="Path" stroke="#000000" stroke-width="2.1" points="197.944041 1.64853969 1.88238855 61.4238128 100.206604 170.838913 218.05 170.838913 218.05 61.0728195"></polygon>
                </g>
                <g id="Rectangle" transform="translate(72.100000, 79.100000)">
                    <g id="path-3-link" fill="#FFFFFF">
                        <rect id="path-3" x="0" y="0" width="188.3" height="111.3"></rect>
                    </g>
                    <rect stroke="#000000" stroke-width="2.1" x="1.05" y="1.05" width="186.2" height="109.2"></rect>
                </g>
                <g id="Rectangle-4" transform="translate(31.500000, 0.000000)">
                    <g id="path-4-link" fill="#FFFFFF">
                        <polygon id="path-4" points="0 0 219.1 0 250.6 93.1 31.5 93.1"></polygon>
                    </g>
                    <polygon id="Path" stroke="#000000" stroke-width="2.1" points="1.46373591 1.05 32.2532097 92.05 249.136264 92.05 218.34679 1.05"></polygon>
                </g>
            </g>
            <text id="Ridge" fill="#000000" font-family="HelveticaNeue, Helvetica Neue" font-size="30.8" font-weight="normal">
                <tspan x="109.265473" y="29">Ridge</tspan>
            </text>
            <text id="Eave" fill="#000000" font-family="HelveticaNeue, Helvetica Neue" font-size="30.8" font-weight="normal">
                <tspan x="129.610898" y="162.7">Eave</tspan>
            </text>
            <g id="Group-2" transform="translate(214.200000, 74.900000)">
                <rect id="Rectangle-3" fill="#FFFFFF" x="0" y="3.5" width="74.9" height="30.1"></rect>
                <g id="Rake" transform="translate(2.100000, 0.000000)" fill="#000000" font-family="HelveticaNeue, Helvetica Neue" font-size="30.8" font-weight="normal">
                    <text>
                        <tspan x="0.078698522" y="29">Rake</tspan>
                    </text>
                </g>
            </g>
            <g id="Group-2" transform="translate(20.300000, 74.900000)">
                <rect id="Rectangle-3" fill="#FFFFFF" x="2.1" y="3.5" width="74.9" height="30.1"></rect>
                <g id="Rake" fill="#000000" font-family="HelveticaNeue, Helvetica Neue" font-size="30.8" font-weight="normal">
                    <text>
                        <tspan x="0.0786985192" y="29">Rake</tspan>
                    </text>
                </g>
            </g>
        </g>
    </g>
</svg>