<?xml version="1.0" encoding="UTF-8"?>
<svg viewBox="0 0 800 600" width="100%" version="1.1" xmlns="http://www.w3.org/2000/svg" xmlns:xlink="http://www.w3.org/1999/xlink">
    <!-- Generator: Sketch 52.5 (67469) - http://www.bohemiancoding.com/sketch -->
    <title>A01</title>
    <desc>Created with Sketch.</desc>
    <g id="A01" stroke="none" stroke-width="1" fill="none" fill-rule="evenodd">
        <rect fill="#EDEDED" x="0" y="0" width="400" height="300"></rect>
        <g transform="translate(25.000000, 61.000000)">
            <polygon id="Path" fill="#9F6512" points="154.09611 119.331839 155.697941 120.130045 155.778032 124.440359 154.336384 125.318386 154.256293 125.398206"></polygon>
            <polygon id="Path" fill="#B17115" points="152.093822 118.693274 154.09611 119.331839 154.256293 125.398206 152.254005 126.116592 152.254005 126.116592"></polygon>
            <polygon id="Path" fill="#BD7918" points="149.771167 118.373991 152.093822 118.693274 152.254005 126.116592 149.93135 126.595516"></polygon>
            <polygon id="Path" fill="#C27C19" points="147.28833 118.373991 149.771167 118.373991 149.93135 126.595516 149.93135 126.595516 147.448513 126.834978"></polygon>
            <polygon id="Path" fill="#BF7B18" points="144.805492 118.533632 147.28833 118.373991 147.448513 126.834978 147.368421 126.834978 144.965675 126.834978"></polygon>
            <polygon id="Path" fill="#B67416" points="142.402746 119.092377 144.805492 118.533632 144.965675 126.834978 144.805492 126.834978 142.643021 126.515695"></polygon>
            <polygon id="Path" fill="#A66A14" points="140.400458 119.810762 142.402746 119.092377 142.643021 126.515695 142.402746 126.435874 140.560641 125.87713"></polygon>
            <polygon id="Path" fill="#915B0F" points="138.878719 120.76861 140.400458 119.810762 140.560641 125.87713 140.400458 125.87713 138.95881 125.078924"></polygon>
            <polygon id="Path" fill="#75490A" points="137.91762 121.806278 138.878719 120.76861 138.95881 125.078924 138.798627 124.999103 137.91762 124.121076"></polygon>
            <polygon id="Path" fill="#543404" points="137.517162 122.923767 137.837529 124.041256 137.91762 124.121076 137.91762 121.806278"></polygon>
            <polygon id="Path" fill="#6A4109" points="156.73913 123.32287 156.819222 123.32287 157.059497 122.205381 156.73913 121.087892"></polygon>
            <polygon id="Path" fill="#87550D" points="155.697941 120.130045 156.73913 121.087892 156.73913 123.32287 155.858124 124.360538 155.778032 124.440359"></polygon>
            <polygon id="Path" fill="#BD7918" points="145.045767 137.930045 145.366133 151.818834 143.043478 151.419731 142.723112 138.64843"></polygon>
            <polygon id="Path" fill="#C27C19" points="145.366133 151.818834 145.045767 137.930045 147.608696 137.131839 147.929062 151.818834"></polygon>
            <polygon id="Path" fill="#BF7B18" points="147.929062 151.818834 147.608696 137.131839 150.091533 136.413453 150.491991 151.579372"></polygon>
            <polygon id="Path" fill="#B17115" points="142.723112 138.64843 143.043478 151.419731 140.961098 150.781166 140.720824 139.207175"></polygon>
            <polygon id="Path" fill="#9F6512" points="140.720824 139.207175 140.961098 150.781166 139.439359 149.903139 139.199085 139.686099"></polygon>
            <polygon id="Path" fill="#87550D" points="139.199085 139.686099 139.439359 149.903139 138.478261 148.78565 138.237986 139.925561"></polygon>
            <polygon id="Path" fill="#6A4109" points="137.997712 140.005381 137.997712 141.841256 138.157895 147.668161 138.478261 148.78565 138.237986 139.925561"></polygon>
            <polygon id="Path" fill="#B67416" points="150.491991 151.579372 150.091533 136.413453 152.494279 135.695067 152.814645 151.020628"></polygon>
            <polygon id="Path" fill="#A66A14" points="152.814645 151.020628 152.494279 135.695067 154.496568 135.056502 154.816934 150.222422"></polygon>
            <polygon id="Path" fill="#915B0F" points="154.816934 150.222422 154.496568 135.056502 156.018307 134.577578 156.338673 149.184753"></polygon>
            <polygon id="Path" fill="#75490A" points="156.338673 149.184753 156.018307 134.577578 156.979405 134.338117 157.299771 148.067265"></polygon>
            <polygon id="Path" fill="#543404" points="156.979405 134.338117 157.299771 148.067265 157.540046 146.869955 157.459954 141.043049 157.299771 134.258296"></polygon>
            <polygon id="Path" fill="#6F4508" points="145.366133 151.818834 147.929062 151.818834 150.491991 151.579372 152.814645 151.020628 154.816934 150.222422 156.338673 149.184753 157.299771 148.067265 157.540046 146.869955 157.459954 141.043049 159.061785 141.601794 161.624714 143.038565 163.386728 144.714798 164.02746 146.630493 163.546911 148.626009 162.025172 150.541704 159.462243 152.217937 156.17849 153.574888 152.254005 154.532735 147.929062 154.931839 143.684211 154.852018 139.759725 154.213453 136.315789 153.095964 133.75286 151.659193 132.15103 149.823318 131.670481 147.907623 132.311213 145.912108 133.913043 144.076233 136.556064 142.479821 137.997712 141.841256 138.157895 147.668161 138.478261 148.78565 139.439359 149.903139 140.961098 150.781166 143.043478 151.419731"></polygon>
            <polygon id="Path" fill="#BD7918" points="139.759725 154.213453 143.684211 154.852018 144.244851 177.361435 140.320366 176.72287"></polygon>
            <path d="M49.2562929,41.6663677 L43.8901602,37.9946188 L31.4759725,40.5488789 L32.7574371,41.5067265 L36.6819222,44.3004484 L47.8947368,41.9856502 L49.2562929,41.6663677 Z M66.4759725,53.4798206 L60.6292906,49.4887892 L47.8947368,52.2825112 L49.2562929,53.2403587 L53.5812357,56.3533632 L65.1144165,53.7991031 L66.4759725,53.4798206 Z M85.2173913,66.3309417 L78.8901602,62.0206278 L65.7551487,65.0538117 L67.1167048,66.0116592 L71.9221968,69.4439462 L83.8558352,66.6502242 L85.2173913,66.3309417 Z M105.640732,80.3793722 L98.7528604,75.6699552 L85.2173913,78.9426009 L86.5789474,79.9802691 L91.9450801,83.8116592 L104.199085,80.7784753 L105.640732,80.3793722 Z M127.98627,95.7049327 L120.377574,90.5165919 L106.441648,94.1085202 L107.883295,95.1461883 L113.89016,99.4565022 L126.544622,96.1040359 L127.98627,95.7049327 Z M152.574371,112.626906 L144.244851,106.879821 L129.908467,110.870852 L131.350114,111.90852 L138.077803,116.697758 L151.052632,113.026009 L152.574371,112.626906 Z M180.926773,92.7515695 L172.597254,87.6430493 L159.382151,91.155157 L160.90389,92.1130045 L167.551487,96.3434978 L179.324943,93.1506726 L180.926773,92.7515695 Z M156.338673,77.6654709 L148.729977,73.0358744 L135.83524,76.2286996 L137.356979,77.1865471 L143.363844,81.0179372 L154.897025,78.064574 L156.338673,77.6654709 Z M133.913043,63.8565022 L126.94508,59.5461883 L114.370709,62.4995516 L115.812357,63.4573991 L121.17849,66.8896861 L132.391304,64.1757848 L133.913043,63.8565022 Z M113.249428,51.244843 L106.842105,47.3336323 L94.5881007,50.0475336 L96.0297483,50.9255605 L100.915332,54.038565 L111.80778,51.5641256 L113.249428,51.244843 Z M94.3478261,39.5910314 L88.4210526,35.9991031 L76.4874142,38.4735426 L77.8489703,39.3515695 L82.2540046,42.1452915 L92.9061785,39.8304933 L94.3478261,39.5910314 Z M120.778032,26.6600897 L114.851259,23.3874439 L103.718535,25.7022422 L105.160183,26.5004484 L109.565217,29.0547085 L119.336384,26.9793722 L120.778032,26.6600897 Z M139.919908,37.2762332 L133.512586,33.6843049 L122.139588,36.1587444 L123.661327,37.0367713 L128.546911,39.8304933 L138.558352,37.5955157 L139.919908,37.2762332 Z M160.583524,48.690583 L153.615561,44.8591928 L141.922197,47.5730942 L143.443936,48.4511211 L148.810069,51.4843049 L159.061785,49.0896861 L160.583524,48.690583 Z M183.009153,61.1426009 L175.400458,56.9121076 L163.466819,59.8654709 L164.988558,60.7434978 L170.915332,64.1757848 L181.407323,61.541704 L183.009153,61.1426009 Z M207.437071,74.7121076 L199.187643,70.1623318 L186.933638,73.355157 L188.535469,74.2331839 L195.102975,77.9847534 L205.83524,75.1112108 L207.437071,74.7121076 Z M234.187643,89.5587444 L225.1373,84.5300448 L212.562929,87.9623318 L214.16476,88.8403587 L221.533181,93.070852 L232.585812,89.9578475 L234.187643,89.5587444 Z M257.654462,71.838565 L248.764302,67.3686099 L237.070938,70.4017937 L238.672769,71.2798206 L245.881007,75.0313901 L255.892449,72.3174888 L257.654462,71.838565 Z M231.304348,58.5085202 L223.135011,54.3578475 L211.762014,57.2313901 L213.363844,58.109417 L219.851259,61.4618834 L229.702517,58.9076233 L231.304348,58.5085202 Z M207.036613,46.2959641 L199.508009,42.464574 L188.375286,45.0986547 L189.977117,45.896861 L195.823799,48.9300448 L205.434783,46.6152466 L207.036613,46.2959641 Z M184.771167,35.0412556 L177.803204,31.529148 L166.910755,33.9237668 L168.512586,34.7219731 L173.798627,37.5156951 L183.249428,35.3605381 L184.771167,35.0412556 Z M164.107551,24.5847534 L157.700229,21.3121076 L147.048055,23.5470852 L148.569794,24.3452915 L153.375286,26.8197309 L162.585812,24.8242152 L164.107551,24.5847534 Z M185.171625,13.1704036 L178.764302,10.2170404 L168.672769,12.2923767 L170.2746,13.0107623 L175.080092,15.3255605 L183.649886,13.5695067 L185.171625,13.1704036 Z M205.755149,22.7488789 L198.867277,19.5560538 L188.615561,21.7910314 L190.217391,22.5892377 L195.423341,25.0636771 L204.153318,23.1479821 L205.755149,22.7488789 Z M227.860412,33.0457399 L220.411899,29.6134529 L209.919908,32.0080717 L211.521739,32.806278 L217.28833,35.5201794 L226.17849,33.444843 L227.860412,33.0457399 Z M251.727689,44.1408072 L243.638444,40.3892377 L232.98627,42.9434978 L234.668192,43.741704 L240.995423,46.7748879 L250.045767,44.5399103 L251.727689,44.1408072 Z M277.597254,56.193722 L268.867277,52.12287 L257.974828,54.9165919 L259.656751,55.7147982 L266.704805,59.0672646 L275.915332,56.5928251 L277.597254,56.193722 Z M305.789474,69.2843049 L296.258581,64.8941704 L285.20595,67.9273543 L286.887872,68.7255605 L294.656751,72.3973094 L304.02746,69.7632287 L305.789474,69.2843049 Z M25.5491991,35.6798206 L23.7871854,36.0789238 L22.3455378,36.7174888 L21.3043478,37.3560538 L20.8237986,37.9946188 L20.8237986,38.6331839 L20.9038902,38.7130045 L21.3043478,39.1919283 L21.4645309,39.2717489 L22.2654462,39.670852 L22.5858124,39.7506726 L23.7070938,40.0699552 L24.02746,40.1497758 L25.389016,40.309417 L25.7894737,40.309417 L27.3913043,40.309417 L27.791762,40.309417 L29.4736842,40.2295964 L29.7940503,40.1497758 L31.395881,39.9103139 L31.6361556,39.8304933 L33.0778032,39.4313901 L33.3180778,39.3515695 L34.5194508,38.8726457 L34.6796339,38.7928251 L35.5606407,38.2340807 L35.6407323,38.1542601 L36.0411899,37.5955157 L36.0411899,36.9569507 L35.4805492,36.3982063 L34.4393593,35.8394619 L32.9977117,35.5201794 L31.3157895,35.3605381 L29.3935927,35.3605381 L27.3913043,35.5201794 L25.5491991,35.6798206 Z M170.2746,6.54529148 L168.913043,6.86457399 L167.871854,7.34349776 L167.231121,7.82242152 L167.070938,8.38116592 L167.231121,8.70044843 L167.311213,8.86008969 L167.871854,9.25919283 L168.032037,9.33901345 L168.913043,9.65829596 L169.153318,9.73811659 L170.2746,9.97757848 L170.594966,10.0573991 L171.87643,10.2170404 L172.276888,10.2170404 L173.558352,10.2170404 L173.95881,10.2170404 L175.240275,10.1372197 L175.720824,10.1372197 L176.922197,9.97757848 L177.322654,9.89775785 L178.283753,9.65829596 L178.684211,9.57847534 L179.405034,9.25919283 L179.645309,9.1793722 L180.125858,8.78026906 L180.286041,8.70044843 L180.446224,8.14170404 L180.20595,7.50313901 L179.485126,7.02421525 L178.363844,6.62511211 L176.922197,6.38565022 L175.320366,6.22600897 L173.558352,6.22600897 L171.87643,6.3058296 L170.2746,6.54529148 Z M309.393593,71.3596413 L307.951945,71.9183857 L306.990847,72.6367713 L306.590389,73.4349776 L306.750572,74.2331839 L306.990847,74.4726457 L307.471396,75.0313901 L307.871854,75.270852 L308.672769,75.7497758 L309.313501,75.9892377 L310.354691,76.3883408 L311.075515,76.5479821 L312.356979,76.8672646 L313.077803,76.9470852 L314.519451,77.1067265 L315.240275,77.1067265 L316.762014,77.1067265 L317.402746,77.0269058 L318.844394,76.8672646 L319.405034,76.7874439 L320.686499,76.5479821 L321.086957,76.3883408 L322.128146,75.9892377 L322.448513,75.7497758 L323.089245,75.270852 L323.249428,74.9515695 L323.489703,74.4726457 L323.329519,73.5946188 L322.608696,72.7964126 L321.327231,72.0780269 L319.645309,71.4394619 L317.643021,70.9605381 L315.480549,70.7210762 L313.318078,70.7210762 L311.235698,70.8807175 L309.393593,71.3596413 Z M155.697941,120.130045 L154.09611,119.331839 L152.093822,118.773094 L149.771167,118.453812 L147.28833,118.373991 L144.805492,118.613453 L142.482838,119.092377 L140.480549,119.810762 L138.95881,120.76861 L137.997712,121.806278 L137.677346,122.923767 L137.997712,124.041256 L138.077803,124.121076 L138.95881,124.999103 L139.118993,125.078924 L140.480549,125.797309 L140.640732,125.87713 L142.482838,126.435874 L142.643021,126.435874 L144.805492,126.755157 L144.965675,126.755157 L147.368421,126.834978 L147.448513,126.834978 L149.93135,126.595516 L152.254005,126.116592 L154.256293,125.398206 L154.336384,125.398206 L155.778032,124.520179 L155.858124,124.520179 L156.73913,123.482511 L156.73913,123.402691 L157.059497,122.285202 L156.659039,121.167713 L155.697941,120.130045 Z M179.645309,0.478923767 L349.599542,76.3085202 L323.169336,84.290583 L322.768879,84.3704036 L321.80778,84.6896861 L320.366133,85.0887892 L318.524027,85.6475336 L316.361556,86.2860987 L314.118993,87.0044843 L311.87643,87.6430493 L309.874142,88.2816143 L308.19222,88.7605381 L306.910755,89.1596413 L306.189931,89.3991031 L306.029748,89.4789238 L157.299771,134.258296 L156.979405,134.338117 L156.018307,134.657399 L154.496568,135.136323 L152.494279,135.774888 L150.171625,136.493274 L147.608696,137.29148 L145.045767,138.089686 L142.723112,138.808072 L140.720824,139.446637 L139.199085,139.925561 L138.237986,140.244843 L137.91762,140.324664 L136.716247,140.643946 L42.8489703,68.6457399 L41.8878719,67.9273543 L40.1258581,66.5704036 L37.6430206,64.6547085 L34.5995423,62.3399103 L33.2379863,61.3022422 L31.2356979,59.7856502 L30.5949657,59.3067265 L28.5125858,57.7103139 L26.4302059,56.1139013 L24.5881007,54.7569507 L23.1464531,53.6394619 L22.1853547,52.8412556 L21.624714,52.4421525 L0,35.9192825 L179.645309,0.478923767 Z" id="Shape" fill="#6F4508" fill-rule="nonzero"></path>
            <polygon id="Path" fill="#543404" points="299.702517 114.303139 299.942792 115.899552 300.503432 96.2636771 300.263158 94.7470852"></polygon>
            <polygon id="Path" fill="#6A4109" points="301.064073 117.416143 299.942792 115.899552 300.503432 96.2636771 301.624714 97.7004484"></polygon>
            <polygon id="Path" fill="#87550D" points="303.066362 118.773094 301.064073 117.416143 301.704805 97.7004484 303.707094 99.0573991"></polygon>
            <polygon id="Path" fill="#9F6512" points="305.869565 119.970404 303.066362 118.773094 303.707094 99.0573991 306.510297 100.174888"></polygon>
            <polygon id="Path" fill="#B17115" points="309.153318 120.84843 305.869565 119.970404 306.510297 100.174888 309.79405 101.052915"></polygon>
            <polygon id="Path" fill="#BD7918" points="312.837529 121.327354 309.153318 120.84843 309.874142 101.052915 313.478261 101.452018"></polygon>
            <polygon id="Path" fill="#C27C19" points="316.521739 121.407175 312.837529 121.327354 313.478261 101.452018 317.242563 101.531839"></polygon>
            <polygon id="Path" fill="#BF7B18" points="320.045767 121.087892 316.521739 121.407175 317.242563 101.531839 320.76659 101.212556"></polygon>
            <polygon id="Path" fill="#B67416" points="323.089245 120.369507 320.045767 121.087892 320.76659 101.212556 323.810069 100.49417"></polygon>
            <polygon id="Path" fill="#A66A14" points="325.491991 119.252018 323.089245 120.369507 323.810069 100.49417 326.212815 99.5363229"></polygon>
            <polygon id="Path" fill="#915B0F" points="327.01373 117.895067 325.491991 119.252018 326.212815 99.5363229 327.814645 98.2591928"></polygon>
            <polygon id="Path" fill="#75490A" points="327.654462 116.458296 327.01373 117.895067 327.814645 98.2591928 328.375286 96.8224215"></polygon>
            <polygon id="Path" fill="#6F4508" points="324.691076 92.5919283 326.853547 93.8690583 328.05492 95.3058296 328.375286 96.8224215 327.814645 98.2591928 326.212815 99.5363229 323.810069 100.49417 320.76659 101.212556 317.242563 101.531839 313.478261 101.452018 309.79405 101.052915 306.510297 100.174888 303.707094 99.0573991 301.624714 97.7004484 300.503432 96.2636771 300.263158 94.7470852 301.064073 93.3901345 302.665904 92.1928251 305.06865 91.155157 306.029748 90.9955157 305.869565 95.1461883 306.029748 96.1040359 306.750572 96.9820628 307.951945 97.7802691 309.633867 98.4188341 311.636156 98.8977578 313.798627 99.2170404 316.04119 99.2170404 318.12357 99.0573991 319.965675 98.5784753 321.407323 98.0197309 322.368421 97.2215247 322.768879 96.4233184 322.929062 91.8735426"></polygon>
            <polygon id="Path" fill="#75490A" points="322.768879 96.4233184 322.368421 97.2215247 322.84897 84.3704036 323.249428 84.290583 322.929062 91.8735426"></polygon>
            <polygon id="Path" fill="#915B0F" points="322.84897 84.3704036 322.368421 97.2215247 321.407323 98.0197309 321.887872 84.6098655"></polygon>
            <polygon id="Path" fill="#A66A14" points="321.887872 84.6098655 321.407323 98.0197309 319.965675 98.5784753 320.446224 85.0887892"></polygon>
            <polygon id="Path" fill="#B67416" points="320.446224 85.0887892 319.965675 98.5784753 318.12357 99.0573991 318.604119 85.6475336"></polygon>
            <polygon id="Path" fill="#BF7B18" points="318.604119 85.6475336 318.12357 99.0573991 316.04119 99.2170404 316.521739 86.2860987"></polygon>
            <polygon id="Path" fill="#C27C19" points="316.521739 86.2860987 316.04119 99.2170404 313.798627 99.2170404 314.279176 86.9246637"></polygon>
            <polygon id="Path" fill="#BD7918" points="314.279176 86.9246637 313.798627 99.2170404 311.636156 98.8977578 312.036613 87.6430493"></polygon>
            <polygon id="Path" fill="#B17115" points="312.036613 87.6430493 311.636156 98.8977578 309.633867 98.4188341 309.954233 88.2017937"></polygon>
            <polygon id="Path" fill="#9F6512" points="309.954233 88.2017937 309.633867 98.4188341 307.951945 97.7802691 308.272311 88.7605381"></polygon>
            <polygon id="Path" fill="#87550D" points="308.272311 88.7605381 307.951945 97.7802691 306.750572 96.9820628 306.990847 89.1596413"></polygon>
            <polygon id="Path" fill="#6A4109" points="306.990847 89.1596413 306.750572 96.9820628 306.029748 96.1040359 306.270023 89.3991031"></polygon>
            <polygon id="Path" fill="#543404" points="306.10984 89.3991031 306.029748 90.9955157 305.869565 95.1461883 306.029748 96.1040359 306.270023 89.3991031"></polygon>
            <polygon id="Path" fill="#6A4109" points="132.791762 172.093274 132.311213 170.097758 131.670481 147.907623 132.15103 149.823318"></polygon>
            <polygon id="Path" fill="#87550D" points="134.393593 174.008969 132.791762 172.093274 132.15103 149.823318 133.75286 151.659193"></polygon>
            <polygon id="Path" fill="#9F6512" points="136.956522 175.525561 134.393593 174.008969 133.75286 151.659193 136.315789 153.095964"></polygon>
            <polygon id="Path" fill="#B17115" points="140.320366 176.72287 136.956522 175.525561 136.315789 153.095964 139.759725 154.213453"></polygon>
            <polygon id="Path" fill="#C27C19" points="148.489703 177.441256 144.244851 177.361435 143.684211 154.852018 147.929062 154.931839"></polygon>
            <polygon id="Path" fill="#BF7B18" points="152.654462 176.962332 148.489703 177.441256 147.929062 154.931839 152.254005 154.532735"></polygon>
            <polygon id="Path" fill="#B67416" points="156.578947 176.004484 152.654462 176.962332 152.173913 154.532735 156.17849 153.574888"></polygon>
            <polygon id="Path" fill="#A66A14" points="159.942792 174.567713 156.578947 176.004484 156.17849 153.574888 159.462243 152.217937"></polygon>
            <polygon id="Path" fill="#915B0F" points="162.425629 172.811659 159.942792 174.567713 159.462243 152.217937 162.025172 150.541704"></polygon>
            <polygon id="Path" fill="#75490A" points="163.947368 170.816143 162.425629 172.811659 162.025172 150.541704 163.546911 148.626009"></polygon>
            <polygon id="Path" fill="#543404" points="164.347826 168.740807 163.947368 170.816143 163.546911 148.626009 164.02746 146.630493"></polygon>
            <polygon id="Path" fill="#9F6512" points="20.5034325 78.5434978 18.9016018 77.5856502 17.7803204 59.8654709 19.382151 60.7434978"></polygon>
            <polygon id="Path" fill="#B17115" points="22.9061785 79.2618834 20.5034325 78.5434978 19.382151 60.7434978 21.784897 61.4618834"></polygon>
            <polygon id="Path" fill="#BD7918" points="25.7894737 79.5811659 22.9061785 79.2618834 21.784897 61.4618834 24.6681922 61.7811659"></polygon>
            <polygon id="Path" fill="#C27C19" points="28.993135 79.6609865 25.7894737 79.5811659 24.6681922 61.7811659 27.8718535 61.8609865"></polygon>
            <polygon id="Path" fill="#BF7B18" points="32.3569794 79.4215247 28.993135 79.6609865 27.8718535 61.8609865 31.2356979 61.6215247"></polygon>
            <polygon id="Path" fill="#B67416" points="35.5606407 78.7829596 32.3569794 79.4215247 31.2356979 61.6215247 33.1578947 61.3022422 34.5995423 62.3399103"></polygon>
            <polygon id="Path" fill="#A66A14" points="38.4439359 77.9847534 35.5606407 78.7829596 34.5995423 62.3399103 37.6430206 64.6547085"></polygon>
            <polygon id="Path" fill="#915B0F" points="40.7665904 76.9470852 38.4439359 77.9847534 37.6430206 64.6547085 40.1258581 66.5704036"></polygon>
            <polygon id="Path" fill="#75490A" points="42.3684211 75.7497758 40.7665904 76.9470852 40.1258581 66.5704036 41.8878719 67.9273543"></polygon>
            <polygon id="Path" fill="#543404" points="43.1693364 74.5524664 42.3684211 75.7497758 41.8878719 67.9273543 42.8489703 68.6457399"></polygon>
            <polygon id="Path" fill="#6A4109" points="43.1693364 74.5524664 43.0892449 73.355157 42.8489703 68.6457399 42.8489703 68.6457399"></polygon>
            <polygon id="Path" fill="#87550D" points="18.9016018 77.5856502 18.1006865 76.5479821 16.979405 58.8278027 17.7803204 59.8654709"></polygon>
            <polygon id="Path" fill="#6F4508" points="19.382151 60.7434978 17.7803204 59.8654709 16.979405 58.8278027 16.979405 57.7103139 17.9405034 56.5130045 19.6224256 55.3955157 21.784897 54.5174888 22.0251716 58.2690583 22.5057208 58.8278027 23.5469108 59.3865471 24.9084668 59.7856502 26.6704805 60.0251121 28.5926773 60.0251121 30.5949657 59.8654709 31.2356979 59.7856502 33.1578947 61.3022422 31.2356979 61.6215247 27.8718535 61.8609865 24.6681922 61.7811659 21.784897 61.4618834"></polygon>
            <polygon id="Path" fill="#B67416" points="30.5949657 59.8654709 31.2356979 59.7856502 30.5148741 59.2269058"></polygon>
            <polygon id="Path" fill="#BF7B18" points="30.5148741 59.2269058 30.5949657 59.8654709 28.5926773 60.0251121 28.4324943 57.6304933"></polygon>
            <polygon id="Path" fill="#C27C19" points="28.4324943 57.6304933 28.5926773 60.0251121 26.6704805 60.0251121 26.4302059 56.1139013"></polygon>
            <polygon id="Path" fill="#BD7918" points="26.4302059 56.1139013 26.6704805 60.0251121 24.9084668 59.7856502 24.5881007 54.7569507"></polygon>
            <polygon id="Path" fill="#B17115" points="24.5881007 54.7569507 24.9084668 59.7856502 23.5469108 59.3865471 23.1464531 53.6394619"></polygon>
            <polygon id="Path" fill="#9F6512" points="23.1464531 53.6394619 23.5469108 59.3865471 22.5057208 58.8278027 22.1052632 52.8412556"></polygon>
            <polygon id="Path" fill="#87550D" points="22.1052632 52.8412556 22.5057208 58.8278027 22.0251716 58.2690583 21.784897 54.5174888 21.624714 52.4421525"></polygon>
            <polygon id="Path" fill="#A66A14" points="307.951945 71.9183857 309.393593 71.3596413 309.313501 76.0690583 308.672769 75.8295964 307.871854 75.3506726"></polygon>
            <polygon id="Path" fill="#915B0F" points="306.990847 72.6367713 307.951945 71.9183857 307.871854 75.3506726 307.391304 75.1112108 306.910755 74.5524664"></polygon>
            <polygon id="Path" fill="#75490A" points="306.590389 73.4349776 306.750572 74.2331839 306.910755 74.5524664 306.990847 72.6367713"></polygon>
            <polygon id="Path" fill="#543404" points="323.329519 75.0313901 323.569794 74.5524664 323.409611 73.7542601"></polygon>
            <polygon id="Path" fill="#6A4109" points="322.608696 72.8762332 323.409611 73.7542601 323.329519 75.0313901 323.169336 75.3506726 322.528604 75.8295964"></polygon>
            <polygon id="Path" fill="#87550D" points="321.327231 72.1578475 322.608696 72.8762332 322.528604 75.8295964 322.208238 76.0690583 321.167048 76.4681614"></polygon>
            <polygon id="Path" fill="#9F6512" points="319.645309 71.5192825 321.327231 72.1578475 321.167048 76.4681614 320.76659 76.6278027 319.485126 76.9470852"></polygon>
            <polygon id="Path" fill="#B17115" points="317.723112 71.1201794 319.645309 71.5192825 319.485126 76.9470852 318.924485 77.0269058 317.482838 77.1865471"></polygon>
            <polygon id="Path" fill="#BD7918" points="315.560641 70.8807175 317.723112 71.1201794 317.482838 77.1865471 316.842105 77.2663677 315.320366 77.1865471"></polygon>
            <polygon id="Path" fill="#C27C19" points="313.318078 70.8008969 315.560641 70.8807175 315.320366 77.1865471 314.599542 77.1865471 313.157895 77.0269058"></polygon>
            <polygon id="Path" fill="#BF7B18" points="311.235698 70.9605381 313.318078 70.8008969 313.157895 77.0269058 312.356979 76.9470852 311.075515 76.6278027"></polygon>
            <polygon id="Path" fill="#B67416" points="309.393593 71.3596413 311.235698 70.9605381 311.075515 76.6278027 310.354691 76.4681614 309.313501 76.0690583"></polygon>
            <polygon id="Path" fill="#A66A14" points="168.913043 6.94439462 170.2746 6.54529148 170.354691 9.97757848 169.23341 9.81793722 168.993135 9.65829596"></polygon>
            <polygon id="Path" fill="#915B0F" points="167.951945 7.34349776 168.913043 6.94439462 168.993135 9.65829596 168.112128 9.41883408 167.951945 9.25919283"></polygon>
            <polygon id="Path" fill="#75490A" points="167.311213 7.90224215 167.311213 8.78026906 167.391304 8.93991031 167.951945 9.25919283 167.951945 7.34349776"></polygon>
            <polygon id="Path" fill="#543404" points="167.15103 8.38116592 167.311213 8.78026906 167.311213 7.90224215"></polygon>
            <polygon id="Path" fill="#6A4109" points="180.20595 8.70044843 180.366133 8.6206278 180.526316 8.06188341 180.20595 7.58295964"></polygon>
            <polygon id="Path" fill="#87550D" points="179.485126 9.1793722 179.805492 9.09955157 180.20595 8.70044843 180.20595 7.50313901 179.485126 7.10403587"></polygon>
            <polygon id="Path" fill="#9F6512" points="178.363844 6.70493274 179.485126 7.10403587 179.485126 9.1793722 178.764302 9.49865471 178.363844 9.65829596"></polygon>
            <polygon id="Path" fill="#B17115" points="176.922197 6.38565022 178.363844 6.70493274 178.363844 9.65829596 177.402746 9.89775785 177.002288 9.97757848"></polygon>
            <polygon id="Path" fill="#BD7918" points="175.320366 6.22600897 176.922197 6.38565022 177.002288 9.97757848 175.800915 10.1372197 175.400458 10.1372197"></polygon>
            <polygon id="Path" fill="#C27C19" points="173.558352 6.22600897 175.320366 6.22600897 175.400458 10.1372197 174.118993 10.2170404 173.638444 10.2170404"></polygon>
            <polygon id="Path" fill="#BF7B18" points="171.87643 6.3058296 173.558352 6.22600897 173.638444 10.2170404 172.356979 10.2170404 171.956522 10.2170404"></polygon>
            <polygon id="Path" fill="#B67416" points="170.2746 6.54529148 171.87643 6.3058296 171.956522 10.2170404 170.675057 10.0573991 170.354691 9.97757848"></polygon>
            <polygon id="Path" fill="#A66A14" points="23.7871854 36.1587444 25.5491991 35.6798206 25.7894737 40.309417 25.389016 40.309417 24.02746 40.1497758"></polygon>
            <polygon id="Path" fill="#915B0F" points="22.3455378 36.7174888 23.7871854 36.1587444 24.02746 40.1497758 23.7070938 40.0699552 22.5858124 39.7506726"></polygon>
            <polygon id="Path" fill="#75490A" points="21.3844394 37.3560538 22.3455378 36.7174888 22.5858124 39.7506726 22.2654462 39.670852 21.4645309 39.3515695"></polygon>
            <polygon id="Path" fill="#543404" points="20.8237986 37.9946188 20.8237986 38.7130045 21.3043478 39.1919283 21.4645309 39.3515695 21.3844394 37.3560538"></polygon>
            <polygon id="Path" fill="#6A4109" points="20.7437071 38.6331839 20.8237986 38.7130045 20.8237986 37.9946188"></polygon>
            <polygon id="Path" fill="#87550D" points="35.5606407 38.0744395 35.9610984 37.5955157 35.9610984 36.87713 35.4805492 36.3183857"></polygon>
            <polygon id="Path" fill="#9F6512" points="34.4393593 35.8394619 35.4805492 36.3183857 35.5606407 38.0744395 35.4805492 38.2340807 34.5995423 38.7928251"></polygon>
            <polygon id="Path" fill="#B17115" points="33.0778032 35.5201794 34.4393593 35.8394619 34.5995423 38.7928251 34.5194508 38.8726457 33.3180778 39.3515695"></polygon>
            <polygon id="Path" fill="#BD7918" points="31.3157895 35.2807175 33.0778032 35.5201794 33.3180778 39.3515695 33.0778032 39.4313901 31.6361556 39.7506726"></polygon>
            <polygon id="Path" fill="#C27C19" points="29.3935927 35.2807175 31.3157895 35.2807175 31.6361556 39.7506726 31.3157895 39.8304933 29.7139588 40.1497758"></polygon>
            <polygon id="Path" fill="#BF7B18" points="27.4713959 35.4403587 29.3935927 35.2807175 29.7139588 40.1497758 29.3935927 40.1497758 27.7116705 40.309417"></polygon>
            <polygon id="Path" fill="#B67416" points="25.5491991 35.6798206 27.4713959 35.4403587 27.7116705 40.309417 27.3913043 40.309417 25.7894737 40.309417"></polygon>
            <polygon id="Path" fill="#935D11" points="296.258581 64.8941704 305.789474 69.2843049 304.02746 69.7632287 296.258581 66.1713004"></polygon>
            <polygon id="Path" fill="#AF7015" points="285.20595 67.9273543 296.258581 64.8941704 296.258581 66.1713004 286.887872 68.7255605"></polygon>
            <polygon id="Path" fill="#6F4508" points="286.887872 68.7255605 296.258581 66.1713004 304.02746 69.7632287 294.656751 72.3973094"></polygon>
            <polygon id="Path" fill="#935D11" points="268.867277 52.12287 277.597254 56.193722 275.915332 56.6726457 268.867277 53.3201794"></polygon>
            <polygon id="Path" fill="#AF7015" points="257.974828 54.9165919 268.867277 52.12287 268.867277 53.3201794 259.656751 55.7147982"></polygon>
            <polygon id="Path" fill="#6F4508" points="259.656751 55.7147982 268.867277 53.3201794 275.915332 56.6726457 266.704805 59.0672646"></polygon>
            <polygon id="Path" fill="#935D11" points="243.638444 40.3892377 251.727689 44.1408072 250.045767 44.5399103 243.638444 41.5865471"></polygon>
            <polygon id="Path" fill="#AF7015" points="232.98627 43.0233184 243.638444 40.3892377 243.638444 41.5865471 234.668192 43.741704"></polygon>
            <polygon id="Path" fill="#6F4508" points="234.668192 43.741704 243.638444 41.5865471 250.045767 44.5399103 240.995423 46.7748879"></polygon>
            <polygon id="Path" fill="#935D11" points="220.411899 29.5336323 227.860412 33.0457399 226.17849 33.444843 220.411899 30.7309417"></polygon>
            <polygon id="Path" fill="#AF7015" points="209.919908 31.9282511 220.411899 29.5336323 220.411899 30.7309417 211.521739 32.7264574"></polygon>
            <polygon id="Path" fill="#6F4508" points="211.521739 32.7264574 220.411899 30.7309417 226.17849 33.444843 217.28833 35.5201794"></polygon>
            <polygon id="Path" fill="#935D11" points="198.867277 19.5560538 205.755149 22.7488789 204.073227 23.0681614 198.867277 20.6735426"></polygon>
            <polygon id="Path" fill="#AF7015" points="188.535469 21.7910314 198.867277 19.5560538 198.867277 20.6735426 190.1373 22.509417"></polygon>
            <polygon id="Path" fill="#6F4508" points="198.867277 20.6735426 204.073227 23.0681614 195.423341 24.9838565 190.1373 22.509417"></polygon>
            <polygon id="Path" fill="#935D11" points="178.764302 10.2170404 185.171625 13.1704036 183.649886 13.5695067 178.844394 11.2547085"></polygon>
            <polygon id="Path" fill="#AF7015" points="168.75286 12.2923767 178.764302 10.2170404 178.844394 11.2547085 170.354691 13.0107623"></polygon>
            <polygon id="Path" fill="#6F4508" points="178.844394 11.2547085 183.649886 13.5695067 175.080092 15.3255605 170.354691 13.0107623"></polygon>
            <polygon id="Path" fill="#935D11" points="157.700229 21.3121076 164.107551 24.5847534 162.585812 24.9040359 157.700229 22.4295964"></polygon>
            <polygon id="Path" fill="#AF7015" points="146.967963 23.5470852 157.700229 21.3121076 157.700229 22.4295964 148.489703 24.3452915"></polygon>
            <polygon id="Path" fill="#6F4508" points="148.489703 24.3452915 157.700229 22.4295964 162.585812 24.9040359 153.375286 26.8995516"></polygon>
            <polygon id="Path" fill="#935D11" points="177.803204 31.529148 184.771167 35.0412556 183.169336 35.3605381 177.803204 32.6466368"></polygon>
            <polygon id="Path" fill="#AF7015" points="166.910755 33.9237668 177.803204 31.529148 177.803204 32.6466368 168.432494 34.7219731"></polygon>
            <polygon id="Path" fill="#6F4508" points="177.803204 32.6466368 183.169336 35.3605381 173.718535 37.5156951 168.432494 34.7219731"></polygon>
            <polygon id="Path" fill="#935D11" points="199.508009 42.464574 207.036613 46.2959641 205.434783 46.6950673 199.508009 43.6618834"></polygon>
            <polygon id="Path" fill="#AF7015" points="188.375286 45.0986547 199.508009 42.464574 199.508009 43.6618834 189.977117 45.9766816"></polygon>
            <polygon id="Path" fill="#6F4508" points="199.508009 43.6618834 205.434783 46.6950673 195.823799 49.0098655 189.977117 45.9766816"></polygon>
            <polygon id="Path" fill="#935D11" points="223.135011 54.3578475 231.304348 58.5085202 229.622426 58.9076233 223.135011 55.6349776"></polygon>
            <polygon id="Path" fill="#AF7015" points="211.681922 57.2313901 223.135011 54.3578475 223.135011 55.6349776 213.283753 58.109417"></polygon>
            <polygon id="Path" fill="#6F4508" points="223.135011 55.6349776 229.622426 58.9076233 219.771167 61.4618834 213.283753 58.109417"></polygon>
            <polygon id="Path" fill="#935D11" points="248.684211 67.2887892 257.654462 71.838565 255.97254 72.3174888 248.684211 68.6457399"></polygon>
            <polygon id="Path" fill="#AF7015" points="237.070938 70.4017937 248.684211 67.2887892 248.684211 68.6457399 238.75286 71.2798206"></polygon>
            <polygon id="Path" fill="#6F4508" points="248.684211 68.6457399 255.97254 72.3174888 245.881007 75.0313901 238.75286 71.2798206"></polygon>
            <polygon id="Path" fill="#935D11" points="225.1373 84.5300448 234.187643 89.5587444 232.505721 90.0376682 225.1373 85.8869955"></polygon>
            <polygon id="Path" fill="#AF7015" points="212.562929 87.9623318 225.1373 84.5300448 225.1373 85.8869955 214.16476 88.9201794"></polygon>
            <polygon id="Path" fill="#6F4508" points="225.1373 85.8869955 232.505721 90.0376682 221.533181 93.1506726 214.16476 88.9201794"></polygon>
            <polygon id="Path" fill="#935D11" points="199.187643 70.1623318 207.437071 74.7121076 205.83524 75.1112108 199.187643 71.4394619"></polygon>
            <polygon id="Path" fill="#AF7015" points="186.933638 73.2753363 199.187643 70.1623318 199.187643 71.4394619 188.535469 74.2331839"></polygon>
            <polygon id="Path" fill="#6F4508" points="188.535469 74.2331839 199.187643 71.4394619 205.83524 75.1112108 195.102975 77.9847534"></polygon>
            <polygon id="Path" fill="#935D11" points="175.480549 56.9919283 183.009153 61.1426009 181.487414 61.541704 175.480549 58.1892377"></polygon>
            <polygon id="Path" fill="#AF7015" points="163.466819 59.8654709 175.480549 56.9919283 175.480549 58.1892377 164.988558 60.7434978"></polygon>
            <polygon id="Path" fill="#6F4508" points="175.480549 58.1892377 181.487414 61.541704 170.995423 64.1757848 164.988558 60.7434978"></polygon>
            <polygon id="Path" fill="#935D11" points="153.615561 44.8591928 160.583524 48.690583 159.061785 49.0896861 153.615561 46.0565022"></polygon>
            <polygon id="Path" fill="#AF7015" points="141.922197 47.5730942 153.615561 44.8591928 153.615561 46.0565022 143.443936 48.3713004"></polygon>
            <polygon id="Path" fill="#6F4508" points="153.615561 46.0565022 159.061785 49.0896861 148.810069 51.4843049 143.443936 48.3713004"></polygon>
            <polygon id="Path" fill="#935D11" points="133.512586 33.6843049 139.919908 37.2762332 138.398169 37.5955157 133.512586 34.8816143"></polygon>
            <polygon id="Path" fill="#AF7015" points="122.059497 36.1587444 133.512586 33.6843049 133.512586 34.8816143 123.581236 37.0367713"></polygon>
            <polygon id="Path" fill="#6F4508" points="123.581236 37.0367713 133.512586 34.8816143 138.398169 37.5955157 128.386728 39.8304933"></polygon>
            <polygon id="Path" fill="#935D11" points="114.851259 23.3874439 120.778032 26.6600897 119.336384 26.9793722 114.851259 24.5049327"></polygon>
            <polygon id="Path" fill="#AF7015" points="103.718535 25.6224215 114.851259 23.3874439 114.851259 24.5049327 105.160183 26.5004484"></polygon>
            <polygon id="Path" fill="#6F4508" points="105.160183 26.5004484 114.851259 24.5049327 119.336384 26.9793722 109.565217 29.0547085"></polygon>
            <polygon id="Path" fill="#935D11" points="88.4210526 35.9192825 94.3478261 39.5910314 92.9061785 39.8304933 88.4210526 37.1165919"></polygon>
            <polygon id="Path" fill="#AF7015" points="76.4874142 38.4735426 88.4210526 35.9192825 88.4210526 37.1165919 77.9290618 39.3515695"></polygon>
            <polygon id="Path" fill="#6F4508" points="77.9290618 39.3515695 88.4210526 37.1165919 92.9061785 39.8304933 82.3340961 42.1452915"></polygon>
            <polygon id="Path" fill="#935D11" points="106.842105 47.2538117 113.249428 51.244843 111.887872 51.5641256 106.922197 48.5309417"></polygon>
            <polygon id="Path" fill="#AF7015" points="94.6681922 50.0475336 106.842105 47.2538117 106.922197 48.5309417 96.1098398 50.9255605"></polygon>
            <polygon id="Path" fill="#6F4508" points="96.1098398 50.9255605 106.922197 48.5309417 111.887872 51.5641256 100.915332 54.038565"></polygon>
            <polygon id="Path" fill="#935D11" points="126.94508 59.626009 133.913043 63.8565022 132.391304 64.2556054 126.94508 60.903139"></polygon>
            <polygon id="Path" fill="#AF7015" points="114.370709 62.5793722 126.94508 59.626009 126.94508 60.903139 115.812357 63.5372197"></polygon>
            <polygon id="Path" fill="#6F4508" points="115.812357 63.5372197 126.94508 60.903139 132.391304 64.2556054 121.17849 66.8896861"></polygon>
            <polygon id="Path" fill="#935D11" points="148.729977 73.0358744 156.338673 77.6654709 154.816934 78.064574 148.729977 74.3130045"></polygon>
            <polygon id="Path" fill="#AF7015" points="135.83524 76.2286996 148.729977 73.0358744 148.729977 74.3130045 137.356979 77.1865471"></polygon>
            <polygon id="Path" fill="#6F4508" points="137.356979 77.1865471 148.729977 74.3130045 154.816934 78.064574 143.363844 81.0179372"></polygon>
            <polygon id="Path" fill="#935D11" points="172.597254 87.6430493 180.926773 92.7515695 179.324943 93.2304933 172.597254 89"></polygon>
            <polygon id="Path" fill="#AF7015" points="159.382151 91.2349776 172.597254 87.6430493 172.597254 89 160.90389 92.1928251"></polygon>
            <polygon id="Path" fill="#6F4508" points="160.90389 92.1928251 172.597254 89 179.324943 93.2304933 167.551487 96.4233184"></polygon>
            <polygon id="Path" fill="#935D11" points="144.244851 106.879821 152.574371 112.626906 151.132723 113.026009 144.324943 108.316592"></polygon>
            <polygon id="Path" fill="#AF7015" points="129.908467 110.870852 144.244851 106.879821 144.324943 108.316592 131.430206 111.90852"></polygon>
            <polygon id="Path" fill="#6F4508" points="131.430206 111.90852 144.324943 108.316592 151.132723 113.026009 138.157895 116.697758"></polygon>
            <polygon id="Path" fill="#935D11" points="120.457666 90.5165919 127.98627 95.7049327 126.544622 96.1040359 120.457666 91.8735426"></polygon>
            <polygon id="Path" fill="#AF7015" points="106.521739 94.1085202 120.457666 90.5165919 120.457666 91.8735426 107.963387 95.1461883"></polygon>
            <polygon id="Path" fill="#6F4508" points="120.457666 91.8735426 126.544622 96.1040359 113.970252 99.4565022 107.963387 95.1461883"></polygon>
            <polygon id="Path" fill="#935D11" points="98.7528604 75.5901345 105.640732 80.3793722 104.199085 80.6986547 98.7528604 76.9470852"></polygon>
            <polygon id="Path" fill="#AF7015" points="85.2173913 78.8627803 98.7528604 75.5901345 98.7528604 76.9470852 86.5789474 79.9004484"></polygon>
            <polygon id="Path" fill="#6F4508" points="98.7528604 76.9470852 104.199085 80.6986547 92.0251716 83.7318386 86.5789474 79.9004484"></polygon>
            <polygon id="Path" fill="#935D11" points="78.8901602 62.0206278 85.2173913 66.3309417 83.8558352 66.6502242 78.8901602 63.2179372"></polygon>
            <polygon id="Path" fill="#AF7015" points="65.7551487 64.973991 78.8901602 62.0206278 78.8901602 63.2179372 67.1167048 65.9318386"></polygon>
            <polygon id="Path" fill="#6F4508" points="78.8901602 63.2179372 83.8558352 66.6502242 71.9221968 69.4439462 67.1167048 65.9318386"></polygon>
            <polygon id="Path" fill="#935D11" points="60.6292906 49.4887892 66.4759725 53.4798206 65.194508 53.7192825 60.7093822 50.6860987"></polygon>
            <polygon id="Path" fill="#AF7015" points="47.8947368 52.2026906 60.6292906 49.4887892 60.7093822 50.6860987 49.2562929 53.1605381"></polygon>
            <polygon id="Path" fill="#6F4508" points="49.2562929 53.1605381 60.7093822 50.6860987 65.194508 53.7192825 53.5812357 56.2735426"></polygon>
            <polygon id="Path" fill="#935D11" points="43.8901602 37.9946188 49.2562929 41.6663677 47.9748284 41.9058296 43.9702517 39.1121076"></polygon>
            <polygon id="Path" fill="#AF7015" points="31.4759725 40.4690583 43.8901602 37.9946188 43.9702517 39.1121076 32.7574371 41.4269058"></polygon>
            <polygon id="Path" fill="#6F4508" points="43.9702517 39.1121076 47.9748284 41.9058296 36.7620137 44.2206278 32.7574371 41.4269058"></polygon>
            <polyline id="Path" stroke="#000000" stroke-width="0.5" stroke-linecap="round" stroke-linejoin="round" points="155.697941 120.130045 154.09611 119.331839 152.093822 118.693274 149.771167 118.373991 147.28833 118.373991 144.805492 118.533632 142.402746 119.092377 140.400458 119.810762 138.878719 120.76861 137.91762 121.806278 137.517162 122.923767"></polyline>
            <polyline id="Path" stroke="#000000" stroke-width="0.5" stroke-linecap="round" stroke-linejoin="round" points="157.059497 122.205381 156.73913 121.087892 155.697941 120.130045"></polyline>
            <polyline id="Path" stroke="#000000" stroke-width="0.5" stroke-linecap="round" stroke-linejoin="round" points="309.393593 71.3596413 307.951945 71.9183857 306.990847 72.6367713 306.590389 73.4349776"></polyline>
            <polyline id="Path" stroke="#000000" stroke-width="0.5" stroke-linecap="round" stroke-linejoin="round" points="323.569794 74.5524664 323.409611 73.7542601 322.608696 72.8762332 321.327231 72.1578475 319.645309 71.5192825 317.723112 71.1201794 315.560641 70.8807175 313.318078 70.8008969 311.235698 70.9605381 309.393593 71.3596413"></polyline>
            <polyline id="Path" stroke="#000000" stroke-width="0.5" stroke-linecap="round" stroke-linejoin="round" points="170.2746 6.54529148 168.913043 6.94439462 167.951945 7.34349776 167.311213 7.90224215 167.15103 8.38116592"></polyline>
            <polyline id="Path" stroke="#000000" stroke-width="0.5" stroke-linecap="round" stroke-linejoin="round" points="180.526316 8.06188341 180.20595 7.50313901 179.485126 7.10403587 178.363844 6.70493274 176.922197 6.38565022 175.320366 6.22600897 173.558352 6.22600897 171.87643 6.3058296 170.2746 6.54529148"></polyline>
            <polyline id="Path" stroke="#000000" stroke-width="0.5" stroke-linecap="round" stroke-linejoin="round" points="25.5491991 35.6798206 23.7871854 36.1587444 22.3455378 36.7174888 21.3844394 37.3560538 20.8237986 37.9946188 20.7437071 38.6331839"></polyline>
            <polyline id="Path" stroke="#000000" stroke-width="0.5" stroke-linecap="round" stroke-linejoin="round" points="35.9610984 36.87713 35.4805492 36.3183857 34.4393593 35.8394619 33.0778032 35.5201794 31.3157895 35.2807175 29.3935927 35.2807175 27.4713959 35.4403587 25.5491991 35.6798206"></polyline>
            <polyline id="Path" stroke="#000000" stroke-width="0.5" stroke-linecap="round" stroke-linejoin="round" points="300.263158 94.7470852 300.503432 96.2636771 301.624714 97.7004484 303.707094 99.0573991 306.510297 100.174888 309.874142 101.052915 313.478261 101.452018 317.242563 101.531839 320.76659 101.212556 323.810069 100.49417 326.212815 99.5363229 327.814645 98.2591928 328.375286 96.8224215"></polyline>
            <path d="M322.368421,97.2215247 L322.768879,96.4233184" id="Path" stroke="#000000" stroke-width="0.5" stroke-linecap="round" stroke-linejoin="round"></path>
            <path d="M321.407323,98.0197309 L322.368421,97.2215247" id="Path" stroke="#000000" stroke-width="0.5" stroke-linecap="round" stroke-linejoin="round"></path>
            <path d="M319.965675,98.5784753 L321.407323,98.0197309" id="Path" stroke="#000000" stroke-width="0.5" stroke-linecap="round" stroke-linejoin="round"></path>
            <path d="M318.12357,99.0573991 L319.965675,98.5784753" id="Path" stroke="#000000" stroke-width="0.5" stroke-linecap="round" stroke-linejoin="round"></path>
            <path d="M316.04119,99.2170404 L318.12357,99.0573991" id="Path" stroke="#000000" stroke-width="0.5" stroke-linecap="round" stroke-linejoin="round"></path>
            <path d="M313.798627,99.2170404 L316.04119,99.2170404" id="Path" stroke="#000000" stroke-width="0.5" stroke-linecap="round" stroke-linejoin="round"></path>
            <path d="M311.636156,98.8977578 L313.798627,99.2170404" id="Path" stroke="#000000" stroke-width="0.5" stroke-linecap="round" stroke-linejoin="round"></path>
            <path d="M309.633867,98.4188341 L311.636156,98.8977578" id="Path" stroke="#000000" stroke-width="0.5" stroke-linecap="round" stroke-linejoin="round"></path>
            <path d="M307.951945,97.7802691 L309.633867,98.4188341" id="Path" stroke="#000000" stroke-width="0.5" stroke-linecap="round" stroke-linejoin="round"></path>
            <path d="M306.750572,96.9820628 L307.951945,97.7802691" id="Path" stroke="#000000" stroke-width="0.5" stroke-linecap="round" stroke-linejoin="round"></path>
            <path d="M306.029748,96.1040359 L306.750572,96.9820628" id="Path" stroke="#000000" stroke-width="0.5" stroke-linecap="round" stroke-linejoin="round"></path>
            <path d="M305.869565,95.1461883 L306.029748,96.1040359" id="Path" stroke="#000000" stroke-width="0.5" stroke-linecap="round" stroke-linejoin="round"></path>
            <polyline id="Path" stroke="#000000" stroke-width="0.5" stroke-linecap="round" stroke-linejoin="round" points="139.759725 154.213453 143.684211 154.852018 147.929062 154.931839 152.254005 154.532735 156.17849 153.574888 159.462243 152.217937 162.025172 150.541704 163.546911 148.626009 164.02746 146.630493"></polyline>
            <polyline id="Path" stroke="#000000" stroke-width="0.5" stroke-linecap="round" stroke-linejoin="round" points="131.670481 147.907623 132.15103 149.823318 133.75286 151.659193 136.315789 153.095964 139.759725 154.213453"></polyline>
            <path d="M145.366133,151.818834 L147.929062,151.818834" id="Path" stroke="#000000" stroke-width="0.5" stroke-linecap="round" stroke-linejoin="round"></path>
            <path d="M143.043478,151.419731 L145.366133,151.739013" id="Path" stroke="#000000" stroke-width="0.5" stroke-linecap="round" stroke-linejoin="round"></path>
            <path d="M140.961098,150.781166 L143.043478,151.419731" id="Path" stroke="#000000" stroke-width="0.5" stroke-linecap="round" stroke-linejoin="round"></path>
            <path d="M139.439359,149.903139 L140.961098,150.781166" id="Path" stroke="#000000" stroke-width="0.5" stroke-linecap="round" stroke-linejoin="round"></path>
            <path d="M138.478261,148.78565 L139.439359,149.903139" id="Path" stroke="#000000" stroke-width="0.5" stroke-linecap="round" stroke-linejoin="round"></path>
            <path d="M138.157895,147.668161 L138.478261,148.78565" id="Path" stroke="#000000" stroke-width="0.5" stroke-linecap="round" stroke-linejoin="round"></path>
            <path d="M157.299771,148.067265 L157.540046,146.869955" id="Path" stroke="#000000" stroke-width="0.5" stroke-linecap="round" stroke-linejoin="round"></path>
            <path d="M156.338673,149.184753 L157.299771,148.067265" id="Path" stroke="#000000" stroke-width="0.5" stroke-linecap="round" stroke-linejoin="round"></path>
            <path d="M154.816934,150.222422 L156.338673,149.184753" id="Path" stroke="#000000" stroke-width="0.5" stroke-linecap="round" stroke-linejoin="round"></path>
            <path d="M152.814645,151.020628 L154.816934,150.222422" id="Path" stroke="#000000" stroke-width="0.5" stroke-linecap="round" stroke-linejoin="round"></path>
            <path d="M150.491991,151.579372 L152.814645,151.020628" id="Path" stroke="#000000" stroke-width="0.5" stroke-linecap="round" stroke-linejoin="round"></path>
            <path d="M147.929062,151.818834 L150.491991,151.579372" id="Path" stroke="#000000" stroke-width="0.5" stroke-linecap="round" stroke-linejoin="round"></path>
            <polyline id="Path" stroke="#000000" stroke-width="0.5" stroke-linecap="round" stroke-linejoin="round" points="17.7803204 59.8654709 19.382151 60.7434978 21.784897 61.4618834 24.6681922 61.7811659 27.8718535 61.8609865 31.2356979 61.6215247 33.1578947 61.3022422"></polyline>
            <path d="M16.979405,58.8278027 L17.7803204,59.8654709" id="Path" stroke="#000000" stroke-width="0.5" stroke-linecap="round" stroke-linejoin="round"></path>
            <path d="M30.5949657,59.8654709 L31.2356979,59.7856502" id="Path" stroke="#000000" stroke-width="0.5" stroke-linecap="round" stroke-linejoin="round"></path>
            <path d="M28.5926773,60.0251121 L30.5949657,59.8654709" id="Path" stroke="#000000" stroke-width="0.5" stroke-linecap="round" stroke-linejoin="round"></path>
            <path d="M26.6704805,60.0251121 L28.5926773,60.0251121" id="Path" stroke="#000000" stroke-width="0.5" stroke-linecap="round" stroke-linejoin="round"></path>
            <path d="M24.9084668,59.7856502 L26.6704805,60.0251121" id="Path" stroke="#000000" stroke-width="0.5" stroke-linecap="round" stroke-linejoin="round"></path>
            <path d="M23.5469108,59.3865471 L24.9084668,59.7856502" id="Path" stroke="#000000" stroke-width="0.5" stroke-linecap="round" stroke-linejoin="round"></path>
            <path d="M22.5057208,58.8278027 L23.5469108,59.3865471" id="Path" stroke="#000000" stroke-width="0.5" stroke-linecap="round" stroke-linejoin="round"></path>
            <path d="M22.0251716,58.2690583 L22.5057208,58.8278027" id="Path" stroke="#000000" stroke-width="0.5" stroke-linecap="round" stroke-linejoin="round"></path>
            <path d="M296.258581,64.8941704 L305.789474,69.2843049" id="Path" stroke="#000000" stroke-width="0.5" stroke-linecap="round" stroke-linejoin="round"></path>
            <path d="M285.20595,67.9273543 L296.258581,64.8941704" id="Path" stroke="#000000" stroke-width="0.5" stroke-linecap="round" stroke-linejoin="round"></path>
            <path d="M268.867277,52.12287 L277.597254,56.193722" id="Path" stroke="#000000" stroke-width="0.5" stroke-linecap="round" stroke-linejoin="round"></path>
            <path d="M257.974828,54.9165919 L268.867277,52.12287" id="Path" stroke="#000000" stroke-width="0.5" stroke-linecap="round" stroke-linejoin="round"></path>
            <polyline id="Path" stroke="#000000" stroke-width="0.5" stroke-linecap="round" stroke-linejoin="round" points="251.727689 44.1408072 243.638444 40.3892377 232.98627 43.0233184"></polyline>
            <path d="M220.411899,29.5336323 L227.860412,33.0457399" id="Path" stroke="#000000" stroke-width="0.5" stroke-linecap="round" stroke-linejoin="round"></path>
            <path d="M209.919908,31.9282511 L220.411899,29.5336323" id="Path" stroke="#000000" stroke-width="0.5" stroke-linecap="round" stroke-linejoin="round"></path>
            <path d="M198.867277,19.5560538 L205.755149,22.7488789" id="Path" stroke="#000000" stroke-width="0.5" stroke-linecap="round" stroke-linejoin="round"></path>
            <path d="M188.535469,21.7910314 L198.867277,19.5560538" id="Path" stroke="#000000" stroke-width="0.5" stroke-linecap="round" stroke-linejoin="round"></path>
            <path d="M178.764302,10.2170404 L185.171625,13.1704036" id="Path" stroke="#000000" stroke-width="0.5" stroke-linecap="round" stroke-linejoin="round"></path>
            <path d="M168.75286,12.2923767 L178.764302,10.2170404" id="Path" stroke="#000000" stroke-width="0.5" stroke-linecap="round" stroke-linejoin="round"></path>
            <path d="M157.700229,21.3121076 L164.107551,24.5847534" id="Path" stroke="#000000" stroke-width="0.5" stroke-linecap="round" stroke-linejoin="round"></path>
            <path d="M146.967963,23.5470852 L157.700229,21.3121076" id="Path" stroke="#000000" stroke-width="0.5" stroke-linecap="round" stroke-linejoin="round"></path>
            <path d="M177.803204,31.529148 L184.771167,35.0412556" id="Path" stroke="#000000" stroke-width="0.5" stroke-linecap="round" stroke-linejoin="round"></path>
            <path d="M166.910755,33.9237668 L177.803204,31.529148" id="Path" stroke="#000000" stroke-width="0.5" stroke-linecap="round" stroke-linejoin="round"></path>
            <path d="M199.508009,42.464574 L207.036613,46.2959641" id="Path" stroke="#000000" stroke-width="0.5" stroke-linecap="round" stroke-linejoin="round"></path>
            <path d="M188.375286,45.0986547 L199.508009,42.464574" id="Path" stroke="#000000" stroke-width="0.5" stroke-linecap="round" stroke-linejoin="round"></path>
            <path d="M223.135011,54.3578475 L231.304348,58.5085202" id="Path" stroke="#000000" stroke-width="0.5" stroke-linecap="round" stroke-linejoin="round"></path>
            <path d="M211.681922,57.2313901 L223.135011,54.3578475" id="Path" stroke="#000000" stroke-width="0.5" stroke-linecap="round" stroke-linejoin="round"></path>
            <path d="M248.684211,67.2887892 L257.654462,71.838565" id="Path" stroke="#000000" stroke-width="0.5" stroke-linecap="round" stroke-linejoin="round"></path>
            <path d="M237.070938,70.4017937 L248.684211,67.2887892" id="Path" stroke="#000000" stroke-width="0.5" stroke-linecap="round" stroke-linejoin="round"></path>
            <path d="M225.1373,84.5300448 L234.187643,89.5587444" id="Path" stroke="#000000" stroke-width="0.5" stroke-linecap="round" stroke-linejoin="round"></path>
            <path d="M212.562929,87.9623318 L225.1373,84.5300448" id="Path" stroke="#000000" stroke-width="0.5" stroke-linecap="round" stroke-linejoin="round"></path>
            <path d="M199.187643,70.1623318 L207.437071,74.7121076" id="Path" stroke="#000000" stroke-width="0.5" stroke-linecap="round" stroke-linejoin="round"></path>
            <path d="M186.933638,73.2753363 L199.187643,70.1623318" id="Path" stroke="#000000" stroke-width="0.5" stroke-linecap="round" stroke-linejoin="round"></path>
            <path d="M175.480549,56.9919283 L183.009153,61.1426009" id="Path" stroke="#000000" stroke-width="0.5" stroke-linecap="round" stroke-linejoin="round"></path>
            <path d="M163.466819,59.8654709 L175.480549,56.9919283" id="Path" stroke="#000000" stroke-width="0.5" stroke-linecap="round" stroke-linejoin="round"></path>
            <path d="M153.615561,44.8591928 L160.583524,48.690583" id="Path" stroke="#000000" stroke-width="0.5" stroke-linecap="round" stroke-linejoin="round"></path>
            <path d="M141.922197,47.5730942 L153.615561,44.8591928" id="Path" stroke="#000000" stroke-width="0.5" stroke-linecap="round" stroke-linejoin="round"></path>
            <path d="M133.512586,33.6843049 L139.919908,37.2762332" id="Path" stroke="#000000" stroke-width="0.5" stroke-linecap="round" stroke-linejoin="round"></path>
            <path d="M122.059497,36.1587444 L133.512586,33.6843049" id="Path" stroke="#000000" stroke-width="0.5" stroke-linecap="round" stroke-linejoin="round"></path>
            <path d="M114.851259,23.3874439 L120.778032,26.6600897" id="Path" stroke="#000000" stroke-width="0.5" stroke-linecap="round" stroke-linejoin="round"></path>
            <path d="M103.718535,25.6224215 L114.851259,23.3874439" id="Path" stroke="#000000" stroke-width="0.5" stroke-linecap="round" stroke-linejoin="round"></path>
            <path d="M88.4210526,35.9192825 L94.3478261,39.5910314" id="Path" stroke="#000000" stroke-width="0.5" stroke-linecap="round" stroke-linejoin="round"></path>
            <path d="M76.4874142,38.4735426 L88.4210526,35.9192825" id="Path" stroke="#000000" stroke-width="0.5" stroke-linecap="round" stroke-linejoin="round"></path>
            <path d="M106.842105,47.2538117 L113.249428,51.244843" id="Path" stroke="#000000" stroke-width="0.5" stroke-linecap="round" stroke-linejoin="round"></path>
            <path d="M94.6681922,50.0475336 L106.842105,47.2538117" id="Path" stroke="#000000" stroke-width="0.5" stroke-linecap="round" stroke-linejoin="round"></path>
            <path d="M126.94508,59.626009 L133.913043,63.8565022" id="Path" stroke="#000000" stroke-width="0.5" stroke-linecap="round" stroke-linejoin="round"></path>
            <path d="M114.370709,62.5793722 L126.94508,59.626009" id="Path" stroke="#000000" stroke-width="0.5" stroke-linecap="round" stroke-linejoin="round"></path>
            <path d="M148.729977,73.0358744 L156.338673,77.6654709" id="Path" stroke="#000000" stroke-width="0.5" stroke-linecap="round" stroke-linejoin="round"></path>
            <path d="M135.83524,76.2286996 L148.729977,73.0358744" id="Path" stroke="#000000" stroke-width="0.5" stroke-linecap="round" stroke-linejoin="round"></path>
            <path d="M172.597254,87.6430493 L180.926773,92.7515695" id="Path" stroke="#000000" stroke-width="0.5" stroke-linecap="round" stroke-linejoin="round"></path>
            <path d="M159.382151,91.2349776 L172.597254,87.6430493" id="Path" stroke="#000000" stroke-width="0.5" stroke-linecap="round" stroke-linejoin="round"></path>
            <path d="M144.244851,106.879821 L152.574371,112.626906" id="Path" stroke="#000000" stroke-width="0.5" stroke-linecap="round" stroke-linejoin="round"></path>
            <path d="M129.908467,110.870852 L144.244851,106.879821" id="Path" stroke="#000000" stroke-width="0.5" stroke-linecap="round" stroke-linejoin="round"></path>
            <path d="M120.457666,90.5165919 L127.98627,95.7049327" id="Path" stroke="#000000" stroke-width="0.5" stroke-linecap="round" stroke-linejoin="round"></path>
            <path d="M106.521739,94.1085202 L120.457666,90.5165919" id="Path" stroke="#000000" stroke-width="0.5" stroke-linecap="round" stroke-linejoin="round"></path>
            <path d="M98.7528604,75.5901345 L105.640732,80.3793722" id="Path" stroke="#000000" stroke-width="0.5" stroke-linecap="round" stroke-linejoin="round"></path>
            <path d="M85.2173913,78.8627803 L98.7528604,75.5901345" id="Path" stroke="#000000" stroke-width="0.5" stroke-linecap="round" stroke-linejoin="round"></path>
            <path d="M78.8901602,62.0206278 L85.2173913,66.3309417" id="Path" stroke="#000000" stroke-width="0.5" stroke-linecap="round" stroke-linejoin="round"></path>
            <path d="M65.7551487,64.973991 L78.8901602,62.0206278" id="Path" stroke="#000000" stroke-width="0.5" stroke-linecap="round" stroke-linejoin="round"></path>
            <path d="M60.6292906,49.4887892 L66.4759725,53.4798206" id="Path" stroke="#000000" stroke-width="0.5" stroke-linecap="round" stroke-linejoin="round"></path>
            <path d="M47.8947368,52.2026906 L60.6292906,49.4887892" id="Path" stroke="#000000" stroke-width="0.5" stroke-linecap="round" stroke-linejoin="round"></path>
            <path d="M43.8901602,37.9946188 L49.2562929,41.6663677" id="Path" stroke="#000000" stroke-width="0.5" stroke-linecap="round" stroke-linejoin="round"></path>
            <path d="M31.4759725,40.4690583 L43.8901602,37.9946188" id="Path" stroke="#000000" stroke-width="0.5" stroke-linecap="round" stroke-linejoin="round"></path>
            <polyline id="Path" stroke="#000000" stroke-width="0.5" stroke-linecap="round" stroke-linejoin="round" points="286.887872 68.7255605 296.258581 66.1713004 304.02746 69.7632287"></polyline>
            <path d="M296.258581,64.8941704 L296.258581,66.1713004" id="Path" stroke="#000000" stroke-width="0.5" stroke-linecap="round" stroke-linejoin="round"></path>
            <polyline id="Path" stroke="#000000" stroke-width="0.5" stroke-linecap="round" stroke-linejoin="round" points="259.656751 55.7147982 268.867277 53.3201794 275.915332 56.6726457"></polyline>
            <path d="M268.867277,52.12287 L268.867277,53.3201794" id="Path" stroke="#000000" stroke-width="0.5" stroke-linecap="round" stroke-linejoin="round"></path>
            <path d="M243.638444,41.5865471 L234.668192,43.741704" id="Path" stroke="#000000" stroke-width="0.5" stroke-linecap="round" stroke-linejoin="round"></path>
            <path d="M250.045767,44.5399103 L243.638444,41.5865471" id="Path" stroke="#000000" stroke-width="0.5" stroke-linecap="round" stroke-linejoin="round"></path>
            <path d="M243.638444,40.3892377 L243.638444,41.5865471" id="Path" stroke="#000000" stroke-width="0.5" stroke-linecap="round" stroke-linejoin="round"></path>
            <polyline id="Path" stroke="#000000" stroke-width="0.5" stroke-linecap="round" stroke-linejoin="round" points="211.521739 32.7264574 220.411899 30.7309417 226.17849 33.444843"></polyline>
            <path d="M220.411899,29.5336323 L220.411899,30.7309417" id="Path" stroke="#000000" stroke-width="0.5" stroke-linecap="round" stroke-linejoin="round"></path>
            <path d="M198.867277,20.6735426 L204.073227,23.0681614" id="Path" stroke="#000000" stroke-width="0.5" stroke-linecap="round" stroke-linejoin="round"></path>
            <path d="M190.1373,22.509417 L198.867277,20.6735426" id="Path" stroke="#000000" stroke-width="0.5" stroke-linecap="round" stroke-linejoin="round"></path>
            <path d="M198.867277,19.5560538 L198.867277,20.6735426" id="Path" stroke="#000000" stroke-width="0.5" stroke-linecap="round" stroke-linejoin="round"></path>
            <path d="M178.844394,11.2547085 L183.649886,13.5695067" id="Path" stroke="#000000" stroke-width="0.5" stroke-linecap="round" stroke-linejoin="round"></path>
            <path d="M170.354691,13.0107623 L178.844394,11.2547085" id="Path" stroke="#000000" stroke-width="0.5" stroke-linecap="round" stroke-linejoin="round"></path>
            <path d="M178.764302,10.2170404 L178.844394,11.2547085" id="Path" stroke="#000000" stroke-width="0.5" stroke-linecap="round" stroke-linejoin="round"></path>
            <polyline id="Path" stroke="#000000" stroke-width="0.5" stroke-linecap="round" stroke-linejoin="round" points="148.489703 24.3452915 157.700229 22.4295964 162.585812 24.9040359"></polyline>
            <path d="M157.700229,21.3121076 L157.700229,22.4295964" id="Path" stroke="#000000" stroke-width="0.5" stroke-linecap="round" stroke-linejoin="round"></path>
            <path d="M177.803204,32.6466368 L183.169336,35.3605381" id="Path" stroke="#000000" stroke-width="0.5" stroke-linecap="round" stroke-linejoin="round"></path>
            <path d="M168.432494,34.7219731 L177.803204,32.6466368" id="Path" stroke="#000000" stroke-width="0.5" stroke-linecap="round" stroke-linejoin="round"></path>
            <path d="M177.803204,31.529148 L177.803204,32.6466368" id="Path" stroke="#000000" stroke-width="0.5" stroke-linecap="round" stroke-linejoin="round"></path>
            <path d="M199.508009,43.6618834 L205.434783,46.6950673" id="Path" stroke="#000000" stroke-width="0.5" stroke-linecap="round" stroke-linejoin="round"></path>
            <path d="M189.977117,45.9766816 L199.508009,43.6618834" id="Path" stroke="#000000" stroke-width="0.5" stroke-linecap="round" stroke-linejoin="round"></path>
            <path d="M199.508009,42.464574 L199.508009,43.6618834" id="Path" stroke="#000000" stroke-width="0.5" stroke-linecap="round" stroke-linejoin="round"></path>
            <path d="M223.135011,55.6349776 L229.622426,58.9076233" id="Path" stroke="#000000" stroke-width="0.5" stroke-linecap="round" stroke-linejoin="round"></path>
            <path d="M213.283753,58.109417 L223.135011,55.6349776" id="Path" stroke="#000000" stroke-width="0.5" stroke-linecap="round" stroke-linejoin="round"></path>
            <path d="M223.135011,54.3578475 L223.135011,55.6349776" id="Path" stroke="#000000" stroke-width="0.5" stroke-linecap="round" stroke-linejoin="round"></path>
            <path d="M248.684211,68.6457399 L255.97254,72.3174888" id="Path" stroke="#000000" stroke-width="0.5" stroke-linecap="round" stroke-linejoin="round"></path>
            <path d="M238.75286,71.2798206 L248.684211,68.6457399" id="Path" stroke="#000000" stroke-width="0.5" stroke-linecap="round" stroke-linejoin="round"></path>
            <path d="M248.684211,67.2887892 L248.684211,68.6457399" id="Path" stroke="#000000" stroke-width="0.5" stroke-linecap="round" stroke-linejoin="round"></path>
            <path d="M225.1373,85.8869955 L232.505721,90.0376682" id="Path" stroke="#000000" stroke-width="0.5" stroke-linecap="round" stroke-linejoin="round"></path>
            <path d="M214.16476,88.9201794 L225.1373,85.8869955" id="Path" stroke="#000000" stroke-width="0.5" stroke-linecap="round" stroke-linejoin="round"></path>
            <path d="M225.1373,84.5300448 L225.1373,85.8869955" id="Path" stroke="#000000" stroke-width="0.5" stroke-linecap="round" stroke-linejoin="round"></path>
            <polyline id="Path" stroke="#000000" stroke-width="0.5" stroke-linecap="round" stroke-linejoin="round" points="188.535469 74.2331839 199.187643 71.4394619 205.83524 75.1112108"></polyline>
            <path d="M199.187643,70.1623318 L199.187643,71.4394619" id="Path" stroke="#000000" stroke-width="0.5" stroke-linecap="round" stroke-linejoin="round"></path>
            <path d="M175.480549,58.1892377 L181.487414,61.541704" id="Path" stroke="#000000" stroke-width="0.5" stroke-linecap="round" stroke-linejoin="round"></path>
            <path d="M164.988558,60.7434978 L175.480549,58.1892377" id="Path" stroke="#000000" stroke-width="0.5" stroke-linecap="round" stroke-linejoin="round"></path>
            <path d="M175.480549,56.9919283 L175.480549,58.1892377" id="Path" stroke="#000000" stroke-width="0.5" stroke-linecap="round" stroke-linejoin="round"></path>
            <path d="M153.615561,46.0565022 L159.061785,49.0896861" id="Path" stroke="#000000" stroke-width="0.5" stroke-linecap="round" stroke-linejoin="round"></path>
            <path d="M143.443936,48.3713004 L153.615561,46.0565022" id="Path" stroke="#000000" stroke-width="0.5" stroke-linecap="round" stroke-linejoin="round"></path>
            <path d="M153.615561,44.8591928 L153.615561,46.0565022" id="Path" stroke="#000000" stroke-width="0.5" stroke-linecap="round" stroke-linejoin="round"></path>
            <polyline id="Path" stroke="#000000" stroke-width="0.5" stroke-linecap="round" stroke-linejoin="round" points="123.581236 37.0367713 133.512586 34.8816143 138.398169 37.5955157"></polyline>
            <path d="M133.512586,33.6843049 L133.512586,34.8816143" id="Path" stroke="#000000" stroke-width="0.5" stroke-linecap="round" stroke-linejoin="round"></path>
            <polyline id="Path" stroke="#000000" stroke-width="0.5" stroke-linecap="round" stroke-linejoin="round" points="105.160183 26.5004484 114.851259 24.5049327 119.336384 26.9793722"></polyline>
            <path d="M114.851259,23.3874439 L114.851259,24.5049327" id="Path" stroke="#000000" stroke-width="0.5" stroke-linecap="round" stroke-linejoin="round"></path>
            <polyline id="Path" stroke="#000000" stroke-width="0.5" stroke-linecap="round" stroke-linejoin="round" points="77.9290618 39.3515695 88.4210526 37.1165919 92.9061785 39.8304933"></polyline>
            <path d="M88.4210526,35.9192825 L88.4210526,37.1165919" id="Path" stroke="#000000" stroke-width="0.5" stroke-linecap="round" stroke-linejoin="round"></path>
            <polyline id="Path" stroke="#000000" stroke-width="0.5" stroke-linecap="round" stroke-linejoin="round" points="96.1098398 50.9255605 106.922197 48.5309417 111.887872 51.5641256"></polyline>
            <path d="M106.842105,47.2538117 L106.922197,48.5309417" id="Path" stroke="#000000" stroke-width="0.5" stroke-linecap="round" stroke-linejoin="round"></path>
            <polyline id="Path" stroke="#000000" stroke-width="0.5" stroke-linecap="round" stroke-linejoin="round" points="115.812357 63.5372197 126.94508 60.903139 132.391304 64.2556054"></polyline>
            <path d="M126.94508,59.626009 L126.94508,60.903139" id="Path" stroke="#000000" stroke-width="0.5" stroke-linecap="round" stroke-linejoin="round"></path>
            <polyline id="Path" stroke="#000000" stroke-width="0.5" stroke-linecap="round" stroke-linejoin="round" points="137.356979 77.1865471 148.729977 74.3130045 154.816934 78.064574"></polyline>
            <path d="M148.729977,73.0358744 L148.729977,74.3130045" id="Path" stroke="#000000" stroke-width="0.5" stroke-linecap="round" stroke-linejoin="round"></path>
            <polyline id="Path" stroke="#000000" stroke-width="0.5" stroke-linecap="round" stroke-linejoin="round" points="160.90389 92.1928251 172.597254 89 179.324943 93.2304933"></polyline>
            <path d="M172.597254,87.6430493 L172.597254,89" id="Path" stroke="#000000" stroke-width="0.5" stroke-linecap="round" stroke-linejoin="round"></path>
            <polyline id="Path" stroke="#000000" stroke-width="0.5" stroke-linecap="round" stroke-linejoin="round" points="131.430206 111.90852 144.324943 108.316592 151.132723 113.026009"></polyline>
            <path d="M144.244851,106.879821 L144.324943,108.316592" id="Path" stroke="#000000" stroke-width="0.5" stroke-linecap="round" stroke-linejoin="round"></path>
            <path d="M120.457666,91.8735426 L126.544622,96.1040359" id="Path" stroke="#000000" stroke-width="0.5" stroke-linecap="round" stroke-linejoin="round"></path>
            <path d="M107.963387,95.1461883 L120.457666,91.8735426" id="Path" stroke="#000000" stroke-width="0.5" stroke-linecap="round" stroke-linejoin="round"></path>
            <path d="M120.457666,90.5165919 L120.457666,91.8735426" id="Path" stroke="#000000" stroke-width="0.5" stroke-linecap="round" stroke-linejoin="round"></path>
            <path d="M98.7528604,76.9470852 L104.199085,80.6986547" id="Path" stroke="#000000" stroke-width="0.5" stroke-linecap="round" stroke-linejoin="round"></path>
            <path d="M86.5789474,79.9004484 L98.7528604,76.9470852" id="Path" stroke="#000000" stroke-width="0.5" stroke-linecap="round" stroke-linejoin="round"></path>
            <path d="M98.7528604,75.5901345 L98.7528604,76.9470852" id="Path" stroke="#000000" stroke-width="0.5" stroke-linecap="round" stroke-linejoin="round"></path>
            <path d="M78.8901602,63.2179372 L83.8558352,66.6502242" id="Path" stroke="#000000" stroke-width="0.5" stroke-linecap="round" stroke-linejoin="round"></path>
            <path d="M67.1167048,65.9318386 L78.8901602,63.2179372" id="Path" stroke="#000000" stroke-width="0.5" stroke-linecap="round" stroke-linejoin="round"></path>
            <path d="M78.8901602,62.0206278 L78.8901602,63.2179372" id="Path" stroke="#000000" stroke-width="0.5" stroke-linecap="round" stroke-linejoin="round"></path>
            <polyline id="Path" stroke="#000000" stroke-width="0.5" stroke-linecap="round" stroke-linejoin="round" points="49.2562929 53.1605381 60.7093822 50.6860987 65.194508 53.7192825"></polyline>
            <path d="M60.6292906,49.4887892 L60.7093822,50.6860987" id="Path" stroke="#000000" stroke-width="0.5" stroke-linecap="round" stroke-linejoin="round"></path>
            <path d="M43.9702517,39.1121076 L47.9748284,41.9058296" id="Path" stroke="#000000" stroke-width="0.5" stroke-linecap="round" stroke-linejoin="round"></path>
            <path d="M32.7574371,41.4269058 L43.9702517,39.1121076" id="Path" stroke="#000000" stroke-width="0.5" stroke-linecap="round" stroke-linejoin="round"></path>
            <path d="M43.8901602,37.9946188 L43.9702517,39.1121076" id="Path" stroke="#000000" stroke-width="0.5" stroke-linecap="round" stroke-linejoin="round"></path>
            <path d="M137.517162,122.923767 L137.837529,124.041256" id="Path" stroke="#000000" stroke-width="0.8" stroke-linecap="round" stroke-linejoin="round"></path>
            <path d="M156.819222,123.32287 L157.059497,122.205381" id="Path" stroke="#000000" stroke-width="0.8" stroke-linecap="round" stroke-linejoin="round"></path>
            <polyline id="Path" stroke="#000000" stroke-width="0.8" stroke-linecap="round" stroke-linejoin="round" points="349.599542 76.3085202 179.645309 0.478923767 0.0800915332 35.9991031"></polyline>
            <path d="M306.590389,73.4349776 L306.750572,74.2331839" id="Path" stroke="#000000" stroke-width="0.8" stroke-linecap="round" stroke-linejoin="round"></path>
            <path d="M180.366133,8.6206278 L180.526316,8.06188341" id="Path" stroke="#000000" stroke-width="0.8" stroke-linecap="round" stroke-linejoin="round"></path>
            <path d="M35.9610984,37.5955157 L35.9610984,36.87713" id="Path" stroke="#000000" stroke-width="0.8" stroke-linecap="round" stroke-linejoin="round"></path>
            <polyline id="Path" stroke="#000000" stroke-width="0.8" stroke-linecap="round" stroke-linejoin="round" points="299.702517 114.303139 299.942792 115.899552 301.064073 117.416143 303.066362 118.773094 305.869565 119.970404 309.153318 120.84843 312.837529 121.327354 316.521739 121.407175 320.045767 121.087892 323.089245 120.369507 325.491991 119.252018 327.01373 117.895067 327.654462 116.458296"></polyline>
            <polyline id="Path" stroke="#000000" stroke-width="0.8" stroke-linecap="round" stroke-linejoin="round" points="326.853547 93.8690583 324.691076 92.5919283 322.929062 91.8735426"></polyline>
            <polyline id="Path" stroke="#000000" stroke-width="0.8" stroke-linecap="round" stroke-linejoin="round" points="306.029748 90.9955157 305.06865 91.155157 302.665904 92.1928251 301.064073 93.3901345 300.263158 94.7470852"></polyline>
            <polyline id="Path" stroke="#000000" stroke-width="0.8" stroke-linecap="round" stroke-linejoin="round" points="328.375286 96.8224215 328.05492 95.3058296 326.853547 93.8690583"></polyline>
            <path d="M299.702517,114.303139 L300.263158,94.7470852" id="Path" stroke="#000000" stroke-width="0.8" stroke-linecap="round" stroke-linejoin="round"></path>
            <path d="M327.654462,116.458296 L328.375286,96.8224215" id="Path" stroke="#000000" stroke-width="0.8" stroke-linecap="round" stroke-linejoin="round"></path>
            <polyline id="Path" stroke="#000000" stroke-width="0.8" stroke-linecap="round" stroke-linejoin="round" points="132.311213 170.097758 132.791762 172.093274 134.393593 174.008969 136.956522 175.525561 140.320366 176.72287 144.244851 177.361435 148.489703 177.441256 152.654462 176.962332 156.578947 176.004484 159.942792 174.567713 162.425629 172.811659 163.947368 170.816143 164.347826 168.740807"></polyline>
            <polyline id="Path" stroke="#000000" stroke-width="0.8" stroke-linecap="round" stroke-linejoin="round" points="164.02746 146.630493 163.386728 144.714798 161.624714 143.038565 159.061785 141.601794 157.459954 141.043049"></polyline>
            <polyline id="Path" stroke="#000000" stroke-width="0.8" stroke-linecap="round" stroke-linejoin="round" points="137.997712 141.841256 136.556064 142.479821 133.913043 144.076233 132.311213 145.912108 131.670481 147.907623"></polyline>
            <path d="M164.347826,168.740807 L164.02746,146.630493" id="Path" stroke="#000000" stroke-width="0.8" stroke-linecap="round" stroke-linejoin="round"></path>
            <path d="M132.311213,170.097758 L131.670481,147.907623" id="Path" stroke="#000000" stroke-width="0.8" stroke-linecap="round" stroke-linejoin="round"></path>
            <polyline id="Path" stroke="#000000" stroke-width="0.8" stroke-linecap="round" stroke-linejoin="round" points="18.9016018 77.5856502 20.5034325 78.5434978 22.9061785 79.2618834 25.7894737 79.5811659 28.993135 79.6609865 32.3569794 79.4215247 35.5606407 78.7829596 38.4439359 77.9847534 40.7665904 76.9470852 42.3684211 75.7497758 43.1693364 74.5524664 43.0892449 73.355157"></polyline>
            <path d="M18.1006865,76.5479821 L18.9016018,77.5856502" id="Path" stroke="#000000" stroke-width="0.8" stroke-linecap="round" stroke-linejoin="round"></path>
            <polyline id="Path" stroke="#000000" stroke-width="0.8" stroke-linecap="round" stroke-linejoin="round" points="21.784897 54.5174888 19.6224256 55.3955157 17.9405034 56.5130045 16.979405 57.7103139 16.979405 58.8278027"></polyline>
            <path d="M43.0892449,73.355157 L42.8489703,68.6457399" id="Path" stroke="#000000" stroke-width="0.8" stroke-linecap="round" stroke-linejoin="round"></path>
            <path d="M18.1006865,76.5479821 L16.979405,58.8278027" id="Path" stroke="#000000" stroke-width="0.8" stroke-linecap="round" stroke-linejoin="round"></path>
            <polyline id="Path" stroke="#000000" stroke-width="0.8" stroke-linecap="round" stroke-linejoin="round" points="137.837529 124.041256 137.91762 124.121076 138.798627 124.999103 138.95881 125.078924 140.400458 125.87713 140.560641 125.87713 142.402746 126.435874 142.643021 126.515695 144.805492 126.834978 144.965675 126.834978 147.368421 126.834978 147.448513 126.834978 149.93135 126.595516 149.93135 126.595516"></polyline>
            <polyline id="Path" stroke="#000000" stroke-width="0.8" stroke-linecap="round" stroke-linejoin="round" points="152.254005 126.116592 154.256293 125.398206 154.336384 125.318386 155.778032 124.440359 155.858124 124.360538 156.73913 123.32287 156.819222 123.32287"></polyline>
            <polyline id="Path" stroke="#000000" stroke-width="0.8" stroke-linecap="round" stroke-linejoin="round" points="137.997712 140.005381 137.997712 141.841256 138.157895 147.668161"></polyline>
            <polyline id="Path" stroke="#000000" stroke-width="0.8" stroke-linecap="round" stroke-linejoin="round" points="157.299771 134.258296 157.459954 141.043049 157.540046 146.869955"></polyline>
            <polyline id="Path" stroke="#000000" stroke-width="0.8" stroke-linecap="round" stroke-linejoin="round" points="306.750572 74.2331839 306.910755 74.5524664 307.391304 75.1112108 307.871854 75.3506726 308.672769 75.8295964 309.313501 76.0690583 310.354691 76.4681614 311.075515 76.6278027 312.356979 76.9470852 313.157895 77.0269058 314.599542 77.1865471 315.320366 77.1865471 316.842105 77.2663677 317.482838 77.1865471 318.924485 77.0269058 319.485126 76.9470852 320.76659 76.6278027 321.167048 76.4681614 322.208238 76.0690583 322.528604 75.8295964 323.169336 75.3506726 323.329519 75.0313901 323.569794 74.5524664"></polyline>
            <polyline id="Path" stroke="#000000" stroke-width="0.8" stroke-linecap="round" stroke-linejoin="round" points="167.15103 8.38116592 167.311213 8.78026906 167.391304 8.93991031 167.951945 9.25919283 168.112128 9.41883408 168.993135 9.65829596 169.23341 9.81793722 170.354691 9.97757848 170.675057 10.0573991 171.956522 10.2170404 172.356979 10.2170404 173.638444 10.2170404 174.118993 10.2170404 175.400458 10.1372197 175.800915 10.1372197 177.002288 9.97757848 177.402746 9.89775785 178.363844 9.65829596 178.764302 9.49865471 179.485126 9.1793722 179.805492 9.09955157 180.20595 8.70044843 180.366133 8.6206278"></polyline>
            <polyline id="Path" stroke="#000000" stroke-width="0.8" stroke-linecap="round" stroke-linejoin="round" points="20.7437071 38.6331839 20.8237986 38.7130045 21.3043478 39.1919283 21.4645309 39.3515695 22.2654462 39.670852 22.5858124 39.7506726 23.7070938 40.0699552 24.02746 40.1497758 25.389016 40.309417 25.7894737 40.309417 27.3913043 40.309417 27.7116705 40.309417 29.3935927 40.1497758 29.7139588 40.1497758 31.3157895 39.8304933 31.6361556 39.7506726 33.0778032 39.4313901 33.3180778 39.3515695 34.5194508 38.8726457 34.5995423 38.7928251 35.4805492 38.2340807 35.5606407 38.0744395 35.9610984 37.5955157"></polyline>
            <polyline id="Path" stroke="#000000" stroke-width="0.8" stroke-linecap="round" stroke-linejoin="round" points="323.249428 84.290583 322.929062 91.8735426 322.768879 96.4233184"></polyline>
            <polyline id="Path" stroke="#000000" stroke-width="0.8" stroke-linecap="round" stroke-linejoin="round" points="306.10984 89.3991031 306.029748 90.9955157 305.869565 95.1461883"></polyline>
            <polyline id="Path" stroke="#000000" stroke-width="0.8" stroke-linecap="round" stroke-linejoin="round" points="21.624714 52.4421525 21.784897 54.5174888 22.0251716 58.2690583"></polyline>
            <polyline id="Path" stroke="#000000" stroke-width="0.8" stroke-linecap="round" stroke-linejoin="round" points="305.789474 69.2843049 304.02746 69.7632287 294.656751 72.3973094 286.887872 68.7255605 285.20595 67.9273543"></polyline>
            <polyline id="Path" stroke="#000000" stroke-width="0.8" stroke-linecap="round" stroke-linejoin="round" points="277.597254 56.193722 275.915332 56.6726457 266.704805 59.0672646 259.656751 55.7147982 257.974828 54.9165919"></polyline>
            <polyline id="Path" stroke="#000000" stroke-width="0.8" stroke-linecap="round" stroke-linejoin="round" points="240.995423 46.7748879 250.045767 44.5399103 251.727689 44.1408072"></polyline>
            <polyline id="Path" stroke="#000000" stroke-width="0.8" stroke-linecap="round" stroke-linejoin="round" points="232.98627 43.0233184 234.668192 43.741704 240.995423 46.7748879"></polyline>
            <polyline id="Path" stroke="#000000" stroke-width="0.8" stroke-linecap="round" stroke-linejoin="round" points="227.860412 33.0457399 226.17849 33.444843 217.28833 35.5201794 211.521739 32.7264574 209.919908 31.9282511"></polyline>
            <polyline id="Path" stroke="#000000" stroke-width="0.8" stroke-linecap="round" stroke-linejoin="round" points="205.755149 22.7488789 204.073227 23.0681614 195.423341 24.9838565 190.1373 22.509417 188.535469 21.7910314"></polyline>
            <polyline id="Path" stroke="#000000" stroke-width="0.8" stroke-linecap="round" stroke-linejoin="round" points="185.171625 13.1704036 183.649886 13.5695067 175.080092 15.3255605 170.354691 13.0107623 168.75286 12.2923767"></polyline>
            <polyline id="Path" stroke="#000000" stroke-width="0.8" stroke-linecap="round" stroke-linejoin="round" points="164.107551 24.5847534 162.585812 24.9040359 153.375286 26.8995516 148.489703 24.3452915 146.967963 23.5470852"></polyline>
            <polyline id="Path" stroke="#000000" stroke-width="0.8" stroke-linecap="round" stroke-linejoin="round" points="184.771167 35.0412556 183.169336 35.3605381 173.718535 37.5156951 168.432494 34.7219731 166.910755 33.9237668"></polyline>
            <polyline id="Path" stroke="#000000" stroke-width="0.8" stroke-linecap="round" stroke-linejoin="round" points="207.036613 46.2959641 205.434783 46.6950673 195.823799 49.0098655 189.977117 45.9766816 188.375286 45.0986547"></polyline>
            <polyline id="Path" stroke="#000000" stroke-width="0.8" stroke-linecap="round" stroke-linejoin="round" points="231.304348 58.5085202 229.622426 58.9076233 219.771167 61.4618834 213.283753 58.109417 211.681922 57.2313901"></polyline>
            <polyline id="Path" stroke="#000000" stroke-width="0.8" stroke-linecap="round" stroke-linejoin="round" points="257.654462 71.838565 255.97254 72.3174888 245.881007 75.0313901 238.75286 71.2798206 237.070938 70.4017937"></polyline>
            <polyline id="Path" stroke="#000000" stroke-width="0.8" stroke-linecap="round" stroke-linejoin="round" points="234.187643 89.5587444 232.505721 90.0376682 221.533181 93.1506726 214.16476 88.9201794 212.562929 87.9623318"></polyline>
            <polyline id="Path" stroke="#000000" stroke-width="0.8" stroke-linecap="round" stroke-linejoin="round" points="207.437071 74.7121076 205.83524 75.1112108 195.102975 77.9847534 188.535469 74.2331839 186.933638 73.2753363"></polyline>
            <polyline id="Path" stroke="#000000" stroke-width="0.8" stroke-linecap="round" stroke-linejoin="round" points="183.009153 61.1426009 181.487414 61.541704 170.915332 64.1757848 164.988558 60.7434978 163.466819 59.8654709"></polyline>
            <polyline id="Path" stroke="#000000" stroke-width="0.8" stroke-linecap="round" stroke-linejoin="round" points="160.583524 48.690583 159.061785 49.0896861 148.810069 51.4843049 143.443936 48.3713004 141.922197 47.5730942"></polyline>
            <polyline id="Path" stroke="#000000" stroke-width="0.8" stroke-linecap="round" stroke-linejoin="round" points="139.919908 37.2762332 138.398169 37.5955157 128.386728 39.8304933 123.581236 37.0367713 122.059497 36.1587444"></polyline>
            <polyline id="Path" stroke="#000000" stroke-width="0.8" stroke-linecap="round" stroke-linejoin="round" points="120.778032 26.6600897 119.336384 26.9793722 109.565217 29.0547085 105.160183 26.5004484 103.718535 25.6224215"></polyline>
            <polyline id="Path" stroke="#000000" stroke-width="0.8" stroke-linecap="round" stroke-linejoin="round" points="94.3478261 39.5910314 92.9061785 39.8304933 82.3340961 42.1452915 77.9290618 39.3515695 76.4874142 38.4735426"></polyline>
            <polyline id="Path" stroke="#000000" stroke-width="0.8" stroke-linecap="round" stroke-linejoin="round" points="113.249428 51.244843 111.887872 51.5641256 100.915332 54.038565 96.1098398 50.9255605 94.6681922 50.0475336"></polyline>
            <polyline id="Path" stroke="#000000" stroke-width="0.8" stroke-linecap="round" stroke-linejoin="round" points="133.913043 63.8565022 132.391304 64.2556054 121.17849 66.8896861 115.812357 63.5372197 114.370709 62.5793722"></polyline>
            <polyline id="Path" stroke="#000000" stroke-width="0.8" stroke-linecap="round" stroke-linejoin="round" points="156.338673 77.6654709 154.816934 78.064574 143.363844 81.0179372 137.356979 77.1865471 135.83524 76.2286996"></polyline>
            <polyline id="Path" stroke="#000000" stroke-width="0.8" stroke-linecap="round" stroke-linejoin="round" points="180.926773 92.7515695 179.324943 93.2304933 167.551487 96.4233184 160.90389 92.1928251 159.382151 91.2349776"></polyline>
            <polyline id="Path" stroke="#000000" stroke-width="0.8" stroke-linecap="round" stroke-linejoin="round" points="152.574371 112.626906 151.132723 113.026009 138.157895 116.697758 131.430206 111.90852 129.908467 110.870852"></polyline>
            <polyline id="Path" stroke="#000000" stroke-width="0.8" stroke-linecap="round" stroke-linejoin="round" points="127.98627 95.7049327 126.544622 96.1040359 113.970252 99.4565022 107.963387 95.1461883 106.521739 94.1085202"></polyline>
            <polyline id="Path" stroke="#000000" stroke-width="0.8" stroke-linecap="round" stroke-linejoin="round" points="105.640732 80.3793722 104.199085 80.6986547 92.0251716 83.7318386 86.5789474 79.9004484 85.2173913 78.8627803"></polyline>
            <polyline id="Path" stroke="#000000" stroke-width="0.8" stroke-linecap="round" stroke-linejoin="round" points="85.2173913 66.3309417 83.8558352 66.6502242 71.9221968 69.4439462 67.1167048 65.9318386 65.7551487 64.973991"></polyline>
            <polyline id="Path" stroke="#000000" stroke-width="0.8" stroke-linecap="round" stroke-linejoin="round" points="66.4759725 53.4798206 65.194508 53.7192825 53.5812357 56.2735426 49.2562929 53.1605381 47.8947368 52.2026906"></polyline>
            <polyline id="Path" stroke="#000000" stroke-width="0.8" stroke-linecap="round" stroke-linejoin="round" points="49.2562929 41.6663677 47.9748284 41.9058296 36.7620137 44.2206278 32.7574371 41.4269058 31.4759725 40.4690583"></polyline>
            <polyline id="Path" stroke="#000000" stroke-width="0.8" stroke-linecap="round" stroke-linejoin="round" points="149.93135 126.595516 152.254005 126.116592 152.254005 126.116592"></polyline>
            <polyline id="Path" stroke="#000000" stroke-width="0.8" stroke-linecap="round" stroke-linejoin="round" points="0.0800915332 35.9991031 21.624714 52.4421525 22.1052632 52.8412556 23.1464531 53.6394619"></polyline>
            <polyline id="Path" stroke="#000000" stroke-width="0.8" stroke-linecap="round" stroke-linejoin="round" points="136.796339 140.404484 137.997712 140.005381 138.237986 139.925561 139.199085 139.686099"></polyline>
            <path d="M23.1464531,53.6394619 L24.5881007,54.7569507" id="Path" stroke="#000000" stroke-width="0.8" stroke-linecap="round" stroke-linejoin="round"></path>
            <path d="M139.199085,139.686099 L140.720824,139.207175" id="Path" stroke="#000000" stroke-width="0.8" stroke-linecap="round" stroke-linejoin="round"></path>
            <path d="M24.5881007,54.7569507 L26.4302059,56.1139013" id="Path" stroke="#000000" stroke-width="0.8" stroke-linecap="round" stroke-linejoin="round"></path>
            <polyline id="Path" stroke="#000000" stroke-width="0.8" stroke-linecap="round" stroke-linejoin="round" points="140.720824 139.207175 142.723112 138.64843 145.045767 137.930045"></polyline>
            <polyline id="Path" stroke="#000000" stroke-width="0.8" stroke-linecap="round" stroke-linejoin="round" points="26.4302059 56.1139013 28.4324943 57.6304933 30.5148741 59.2269058"></polyline>
            <path d="M145.045767,137.930045 L147.608696,137.131839" id="Path" stroke="#000000" stroke-width="0.8" stroke-linecap="round" stroke-linejoin="round"></path>
            <polyline id="Path" stroke="#000000" stroke-width="0.8" stroke-linecap="round" stroke-linejoin="round" points="30.5148741 59.2269058 31.2356979 59.7856502 33.1578947 61.3022422 34.5995423 62.3399103 37.6430206 64.6547085"></polyline>
            <path d="M152.494279,135.695067 L154.496568,135.056502" id="Path" stroke="#000000" stroke-width="0.8" stroke-linecap="round" stroke-linejoin="round"></path>
            <path d="M37.6430206,64.6547085 L40.1258581,66.5704036" id="Path" stroke="#000000" stroke-width="0.8" stroke-linecap="round" stroke-linejoin="round"></path>
            <polyline id="Path" stroke="#000000" stroke-width="0.8" stroke-linecap="round" stroke-linejoin="round" points="147.608696 137.131839 150.091533 136.413453 152.494279 135.695067"></polyline>
            <path d="M156.979405,134.338117 L157.299771,134.258296" id="Path" stroke="#000000" stroke-width="0.8" stroke-linecap="round" stroke-linejoin="round"></path>
            <path d="M40.1258581,66.5704036 L41.8878719,67.9273543" id="Path" stroke="#000000" stroke-width="0.8" stroke-linecap="round" stroke-linejoin="round"></path>
            <polyline id="Path" stroke="#000000" stroke-width="0.8" stroke-linecap="round" stroke-linejoin="round" points="154.496568 135.056502 156.018307 134.577578 156.979405 134.338117"></polyline>
            <polyline id="Path" stroke="#000000" stroke-width="0.8" stroke-linecap="round" stroke-linejoin="round" points="308.272311 88.7605381 309.954233 88.2017937 312.036613 87.6430493"></polyline>
            <path d="M41.8878719,67.9273543 L42.8489703,68.6457399" id="Path" stroke="#000000" stroke-width="0.8" stroke-linecap="round" stroke-linejoin="round"></path>
            <path d="M306.990847,89.1596413 L308.272311,88.7605381" id="Path" stroke="#000000" stroke-width="0.8" stroke-linecap="round" stroke-linejoin="round"></path>
            <path d="M312.036613,87.6430493 L314.279176,86.9246637" id="Path" stroke="#000000" stroke-width="0.8" stroke-linecap="round" stroke-linejoin="round"></path>
            <polyline id="Path" stroke="#000000" stroke-width="0.8" stroke-linecap="round" stroke-linejoin="round" points="42.8489703 68.6457399 42.8489703 68.6457399 136.796339 140.404484"></polyline>
            <path d="M306.270023,89.3991031 L306.990847,89.1596413" id="Path" stroke="#000000" stroke-width="0.8" stroke-linecap="round" stroke-linejoin="round"></path>
            <path d="M314.279176,86.9246637 L316.521739,86.2860987" id="Path" stroke="#000000" stroke-width="0.8" stroke-linecap="round" stroke-linejoin="round"></path>
            <polyline id="Path" stroke="#000000" stroke-width="0.8" stroke-linecap="round" stroke-linejoin="round" points="157.299771 134.258296 306.10984 89.3991031 306.270023 89.3991031"></polyline>
            <path d="M323.249428,84.290583 L349.599542,76.3085202" id="Path" stroke="#000000" stroke-width="0.8" stroke-linecap="round" stroke-linejoin="round"></path>
            <polyline id="Path" stroke="#000000" stroke-width="0.8" stroke-linecap="round" stroke-linejoin="round" points="320.446224 85.0887892 321.887872 84.6098655 322.84897 84.3704036 323.249428 84.290583"></polyline>
            <polyline id="Path" stroke="#000000" stroke-width="0.8" stroke-linecap="round" stroke-linejoin="round" points="316.521739 86.2860987 318.604119 85.6475336 320.446224 85.0887892"></polyline>
        </g>
    </g>
</svg>