<?xml version="1.0" encoding="utf-8"?>
<!-- Generator: Adobe Illustrator 20.1.0, SVG Export Plug-In . SVG Version: 6.00 Build 0)  -->
<svg version="1.1" id="Layer_1" xmlns="http://www.w3.org/2000/svg" xmlns:xlink="http://www.w3.org/1999/xlink" x="0px" y="0px"
	 viewBox="0 0 473.1 222.9" style="enable-background:new 0 0 473.1 222.9;" xml:space="preserve">
<style type="text/css">
	.st0{fill:#9F6512;}
	.st1{fill:#B17115;}
	.st2{fill:#BD7918;}
	.st3{fill:#C27C19;}
	.st4{fill:#BF7B18;}
	.st5{fill:#B67416;}
	.st6{fill:#A66A14;}
	.st7{fill:#915B0F;}
	.st8{fill:#75490A;}
	.st9{fill:#543404;}
	.st10{fill:#6A4109;}
	.st11{fill:#87550D;}
	.st12{fill:#6F4508;}
	.st13{fill:#935D11;}
	.st14{fill:#AF7015;}
	.st15{fill:none;stroke:#000000;stroke-width:0.5;stroke-linecap:round;stroke-linejoin:round;stroke-miterlimit:10;}
	.st16{fill:none;stroke:#000000;stroke-linecap:round;stroke-linejoin:round;stroke-miterlimit:10;}
</style>
<g>
	<g>
		<g>
			<polygon class="st0" points="211.4,149.5 213.4,150.5 213.5,155.9 211.7,157 211.6,157.1 			"/>
			<polygon class="st1" points="208.9,148.7 211.4,149.5 211.6,157.1 209.1,158 209.1,158 			"/>
			<polygon class="st2" points="206,148.3 208.9,148.7 209.1,158 206.2,158.6 			"/>
			<polygon class="st3" points="202.9,148.3 206,148.3 206.2,158.6 206.2,158.6 203.1,158.9 			"/>
			<polygon class="st4" points="199.8,148.5 202.9,148.3 203.1,158.9 203,158.9 200,158.9 			"/>
			<polygon class="st5" points="196.8,149.2 199.8,148.5 200,158.9 199.8,158.9 197.1,158.5 			"/>
			<polygon class="st6" points="194.3,150.1 196.8,149.2 197.1,158.5 196.8,158.4 194.5,157.7 			"/>
			<polygon class="st7" points="192.4,151.3 194.3,150.1 194.5,157.7 194.3,157.7 192.5,156.7 			"/>
			<polygon class="st8" points="191.2,152.6 192.4,151.3 192.5,156.7 192.3,156.6 191.2,155.5 			"/>
			<polygon class="st9" points="190.7,154 191.1,155.4 191.2,155.5 191.2,152.6 			"/>
			<polygon class="st10" points="214.7,154.5 214.8,154.5 215.1,153.1 214.7,151.7 			"/>
			<polygon class="st11" points="213.4,150.5 214.7,151.7 214.7,154.5 213.6,155.8 213.5,155.9 			"/>
			<polygon class="st2" points="200.1,172.8 200.5,190.2 197.6,189.7 197.2,173.7 			"/>
			<polygon class="st3" points="200.5,190.2 200.1,172.8 203.3,171.8 203.7,190.2 			"/>
			<polygon class="st4" points="203.7,190.2 203.3,171.8 206.4,170.9 206.9,189.9 			"/>
			<polygon class="st1" points="197.2,173.7 197.6,189.7 195,188.9 194.7,174.4 			"/>
			<polygon class="st0" points="194.7,174.4 195,188.9 193.1,187.8 192.8,175 			"/>
			<polygon class="st11" points="192.8,175 193.1,187.8 191.9,186.4 191.6,175.3 			"/>
			<polygon class="st10" points="191.3,175.4 191.3,177.7 191.5,185 191.9,186.4 191.6,175.3 			"/>
			<polygon class="st5" points="206.9,189.9 206.4,170.9 209.4,170 209.8,189.2 			"/>
			<polygon class="st6" points="209.8,189.2 209.4,170 211.9,169.2 212.3,188.2 			"/>
			<polygon class="st7" points="212.3,188.2 211.9,169.2 213.8,168.6 214.2,186.9 			"/>
			<polygon class="st8" points="214.2,186.9 213.8,168.6 215,168.3 215.4,185.5 			"/>
			<polygon class="st9" points="215,168.3 215.4,185.5 215.7,184 215.6,176.7 215.4,168.2 			"/>
			<polygon class="st12" points="200.5,190.2 203.7,190.2 206.9,189.9 209.8,189.2 212.3,188.2 214.2,186.9 215.4,185.5 215.7,184 
				215.6,176.7 217.6,177.4 220.8,179.2 223,181.3 223.8,183.7 223.2,186.2 221.3,188.6 218.1,190.7 214,192.4 209.1,193.6 
				203.7,194.1 198.4,194 193.5,193.2 189.2,191.8 186,190 184,187.7 183.4,185.3 184.2,182.8 186.2,180.5 189.5,178.5 191.3,177.7 
				191.5,185 191.9,186.4 193.1,187.8 195,188.9 197.6,189.7 			"/>
			<polygon class="st2" points="193.5,193.2 198.4,194 199.1,222.2 194.2,221.4 			"/>
			<path class="st12" d="M80.5,52.2l-6.7-4.6l-15.5,3.2l1.6,1.2l4.9,3.5l14-2.9L80.5,52.2z M102,67l-7.3-5l-15.9,3.5l1.7,1.2
				l5.4,3.9l14.4-3.2L102,67 M125.4,83.1l-7.9-5.4l-16.4,3.8l1.7,1.2l6,4.3l14.9-3.5L125.4,83.1 M150.9,100.7l-8.6-5.9l-16.9,4.1
				l1.7,1.3l6.7,4.8l15.3-3.8L150.9,100.7 M178.8,119.9l-9.5-6.5l-17.4,4.5l1.8,1.3l7.5,5.4l15.8-4.2L178.8,119.9 M209.5,141.1
				l-10.4-7.2l-17.9,5l1.8,1.3l8.4,6l16.2-4.6L209.5,141.1 M244.9,116.2l-10.4-6.4l-16.5,4.4l1.9,1.2l8.3,5.3l14.7-4L244.9,116.2
				 M214.2,97.3l-9.5-5.8l-16.1,4l1.9,1.2l7.5,4.8l14.4-3.7L214.2,97.3 M186.2,80l-8.7-5.4l-15.7,3.7l1.8,1.2l6.7,4.3l14-3.4
				L186.2,80 M160.4,64.2l-8-4.9l-15.3,3.4l1.8,1.1l6.1,3.9l13.6-3.1L160.4,64.2 M136.8,49.6l-7.4-4.5l-14.9,3.1l1.7,1.1l5.5,3.5
				l13.3-2.9L136.8,49.6 M169.8,33.4l-7.4-4.1l-13.9,2.9l1.8,1l5.5,3.2l12.2-2.6L169.8,33.4 M193.7,46.7l-8-4.5l-14.2,3.1l1.9,1.1
				l6.1,3.5l12.5-2.8L193.7,46.7 M219.5,61l-8.7-4.8l-14.6,3.4l1.9,1.1l6.7,3.8l12.8-3L219.5,61 M247.5,76.6l-9.5-5.3L223.1,75
				l1.9,1.1l7.4,4.3l13.1-3.3L247.5,76.6 M278,93.6l-10.3-5.7l-15.3,4l2,1.1l8.2,4.7l13.4-3.6L278,93.6 M311.4,112.2l-11.3-6.3
				l-15.7,4.3l2,1.1l9.2,5.3l13.8-3.9L311.4,112.2 M340.7,90l-11.1-5.6L315,88.2l2,1.1l9,4.7l12.5-3.4L340.7,90 M307.8,73.3
				l-10.2-5.2l-14.2,3.6l2,1.1l8.1,4.2l12.3-3.2L307.8,73.3 M277.5,58l-9.4-4.8l-13.9,3.3l2,1l7.3,3.8l12-2.9L277.5,58 M249.7,43.9
				l-8.7-4.4l-13.6,3l2,1l6.6,3.5l11.8-2.7L249.7,43.9 M223.9,30.8l-8-4.1l-13.3,2.8l1.9,1l6,3.1l11.5-2.5L223.9,30.8 M250.2,16.5
				l-8-3.7l-12.6,2.6l2,0.9l6,2.9l10.7-2.2L250.2,16.5 M275.9,28.5l-8.6-4l-12.8,2.8l2,1l6.5,3.1l10.9-2.4L275.9,28.5 M303.5,41.4
				l-9.3-4.3l-13.1,3l2,1l7.2,3.4l11.1-2.6L303.5,41.4 M333.3,55.3l-10.1-4.7l-13.3,3.2l2.1,1l7.9,3.8l11.3-2.8L333.3,55.3
				 M365.6,70.4l-10.9-5.1l-13.6,3.5l2.1,1L352,74l11.5-3.1L365.6,70.4 M400.8,86.8l-11.9-5.5l-13.8,3.8l2.1,1l9.7,4.6l11.7-3.3
				L400.8,86.8 M50.9,44.7l-2.2,0.5L46.9,46l-1.3,0.8L45,47.6l0,0.8l0.1,0.1l0.5,0.6l0.2,0.1l1,0.5l0.4,0.1l1.4,0.4l0.4,0.1l1.7,0.2
				l0.5,0l2,0l0.5,0l2.1-0.1l0.4-0.1l2-0.3l0.3-0.1l1.8-0.5l0.3-0.1l1.5-0.6l0.2-0.1l1.1-0.7l0.1-0.1l0.5-0.7l0-0.8l-0.7-0.7
				L62,44.9l-1.8-0.4l-2.1-0.2l-2.4,0l-2.5,0.2L50.9,44.7 M231.6,8.2l-1.7,0.4l-1.3,0.6l-0.8,0.6l-0.2,0.7l0.2,0.4l0.1,0.2l0.7,0.5
				l0.2,0.1l1.1,0.4l0.3,0.1l1.4,0.3l0.4,0.1l1.6,0.2l0.5,0l1.6,0l0.5,0l1.6-0.1l0.6,0l1.5-0.2l0.5-0.1l1.2-0.3l0.5-0.1l0.9-0.4
				l0.3-0.1l0.6-0.5l0.2-0.1l0.2-0.7L244,9.4l-0.9-0.6l-1.4-0.5L239.9,8l-2-0.2l-2.2,0l-2.1,0.1L231.6,8.2 M405.3,89.4l-1.8,0.7
				l-1.2,0.9l-0.5,1L402,93l0.3,0.3l0.6,0.7l0.5,0.3l1,0.6l0.8,0.3l1.3,0.5l0.9,0.2l1.6,0.4l0.9,0.1l1.8,0.2l0.9,0l1.9,0l0.8-0.1
				l1.8-0.2l0.7-0.1l1.6-0.3l0.5-0.2l1.3-0.5l0.4-0.3l0.8-0.6l0.2-0.4l0.3-0.6l-0.2-1.1l-0.9-1l-1.6-0.9l-2.1-0.8l-2.5-0.6l-2.7-0.3
				l-2.7,0l-2.6,0.2L405.3,89.4 M213.4,150.5l-2-1l-2.5-0.7l-2.9-0.4l-3.1-0.1l-3.1,0.3l-2.9,0.6l-2.5,0.9l-1.9,1.2l-1.2,1.3
				l-0.4,1.4l0.4,1.4l0.1,0.1l1.1,1.1l0.2,0.1l1.7,0.9l0.2,0.1l2.3,0.7l0.2,0l2.7,0.4l0.2,0l3,0.1l0.1,0l3.1-0.3l0,0l2.9-0.6l0,0
				l2.5-0.9l0.1,0l1.8-1.1l0.1,0l1.1-1.3l0-0.1l0.4-1.4l-0.5-1.4L213.4,150.5 M243.3,0.6l212.2,95l-33,10l-0.5,0.1l-1.2,0.4
				l-1.8,0.5l-2.3,0.7l-2.7,0.8l-2.8,0.9l-2.8,0.8l-2.5,0.8l-2.1,0.6l-1.6,0.5l-0.9,0.3l-0.2,0.1l-185.7,56.1l-0.4,0.1l-1.2,0.4
				l-1.9,0.6l-2.5,0.8l-2.9,0.9l-3.2,1l-3.2,1l-2.9,0.9l-2.5,0.8l-1.9,0.6l-1.2,0.4l-0.4,0.1l-1.5,0.4L72.5,86l0,0l-1.2-0.9
				l-2.2-1.7L66,81l-3.8-2.9l-1.7-1.3L58,74.9l-0.8-0.6l-2.6-2L52,70.3l-2.3-1.7l-1.8-1.4l-1.2-1L46,65.7l-27-20.7L243.3,0.6"/>
			<polygon class="st9" points="393.2,143.2 393.5,145.2 394.2,120.6 393.9,118.7 			"/>
			<polygon class="st10" points="394.9,147.1 393.5,145.2 394.2,120.6 395.6,122.4 			"/>
			<polygon class="st11" points="397.4,148.8 394.9,147.1 395.7,122.4 398.2,124.1 			"/>
			<polygon class="st0" points="400.9,150.3 397.4,148.8 398.2,124.1 401.7,125.5 			"/>
			<polygon class="st1" points="405,151.4 400.9,150.3 401.7,125.5 405.8,126.6 			"/>
			<polygon class="st2" points="409.6,152 405,151.4 405.9,126.6 410.4,127.1 			"/>
			<polygon class="st3" points="414.2,152.1 409.6,152 410.4,127.1 415.1,127.2 			"/>
			<polygon class="st4" points="418.6,151.7 414.2,152.1 415.1,127.2 419.5,126.8 			"/>
			<polygon class="st5" points="422.4,150.8 418.6,151.7 419.5,126.8 423.3,125.9 			"/>
			<polygon class="st6" points="425.4,149.4 422.4,150.8 423.3,125.9 426.3,124.7 			"/>
			<polygon class="st7" points="427.3,147.7 425.4,149.4 426.3,124.7 428.3,123.1 			"/>
			<polygon class="st8" points="428.1,145.9 427.3,147.7 428.3,123.1 429,121.3 			"/>
			<polygon class="st12" points="424.4,116 427.1,117.6 428.6,119.4 429,121.3 428.3,123.1 426.3,124.7 423.3,125.9 419.5,126.8 
				415.1,127.2 410.4,127.1 405.8,126.6 401.7,125.5 398.2,124.1 395.6,122.4 394.2,120.6 393.9,118.7 394.9,117 396.9,115.5 
				399.9,114.2 401.1,114 400.9,119.2 401.1,120.4 402,121.5 403.5,122.5 405.6,123.3 408.1,123.9 410.8,124.3 413.6,124.3 
				416.2,124.1 418.5,123.5 420.3,122.8 421.5,121.8 422,120.8 422.2,115.1 			"/>
			<polygon class="st8" points="422,120.8 421.5,121.8 422.1,105.7 422.6,105.6 422.2,115.1 			"/>
			<polygon class="st7" points="422.1,105.7 421.5,121.8 420.3,122.8 420.9,106 			"/>
			<polygon class="st6" points="420.9,106 420.3,122.8 418.5,123.5 419.1,106.6 			"/>
			<polygon class="st5" points="419.1,106.6 418.5,123.5 416.2,124.1 416.8,107.3 			"/>
			<polygon class="st4" points="416.8,107.3 416.2,124.1 413.6,124.3 414.2,108.1 			"/>
			<polygon class="st3" points="414.2,108.1 413.6,124.3 410.8,124.3 411.4,108.9 			"/>
			<polygon class="st2" points="411.4,108.9 410.8,124.3 408.1,123.9 408.6,109.8 			"/>
			<polygon class="st1" points="408.6,109.8 408.1,123.9 405.6,123.3 406,110.5 			"/>
			<polygon class="st0" points="406,110.5 405.6,123.3 403.5,122.5 403.9,111.2 			"/>
			<polygon class="st11" points="403.9,111.2 403.5,122.5 402,121.5 402.3,111.7 			"/>
			<polygon class="st10" points="402.3,111.7 402,121.5 401.1,120.4 401.4,112 			"/>
			<polygon class="st9" points="401.2,112 401.1,114 400.9,119.2 401.1,120.4 401.4,112 			"/>
			<polygon class="st10" points="184.8,215.6 184.2,213.1 183.4,185.3 184,187.7 			"/>
			<polygon class="st11" points="186.8,218 184.8,215.6 184,187.7 186,190 			"/>
			<polygon class="st0" points="190,219.9 186.8,218 186,190 189.2,191.8 			"/>
			<polygon class="st1" points="194.2,221.4 190,219.9 189.2,191.8 193.5,193.2 			"/>
			<polygon class="st3" points="204.4,222.3 199.1,222.2 198.4,194 203.7,194.1 			"/>
			<polygon class="st4" points="209.6,221.7 204.4,222.3 203.7,194.1 209.1,193.6 			"/>
			<polygon class="st5" points="214.5,220.5 209.6,221.7 209,193.6 214,192.4 			"/>
			<polygon class="st6" points="218.7,218.7 214.5,220.5 214,192.4 218.1,190.7 			"/>
			<polygon class="st7" points="221.8,216.5 218.7,218.7 218.1,190.7 221.3,188.6 			"/>
			<polygon class="st8" points="223.7,214 221.8,216.5 221.3,188.6 223.2,186.2 			"/>
			<polygon class="st9" points="224.2,211.4 223.7,214 223.2,186.2 223.8,183.7 			"/>
			<polygon class="st0" points="44.6,98.4 42.6,97.2 41.2,75 43.2,76.1 			"/>
			<polygon class="st1" points="47.6,99.3 44.6,98.4 43.2,76.1 46.2,77 			"/>
			<polygon class="st2" points="51.2,99.7 47.6,99.3 46.2,77 49.8,77.4 			"/>
			<polygon class="st3" points="55.2,99.8 51.2,99.7 49.8,77.4 53.8,77.5 			"/>
			<polygon class="st4" points="59.4,99.5 55.2,99.8 53.8,77.5 58,77.2 			"/>
			<polygon class="st5" points="63.4,98.7 59.4,99.5 58,77.2 60.4,76.8 62.2,78.1 			"/>
			<polygon class="st6" points="67,97.7 63.4,98.7 62.2,78.1 66,81 			"/>
			<polygon class="st7" points="69.9,96.4 67,97.7 66,81 69.1,83.4 			"/>
			<polygon class="st8" points="71.9,94.9 69.9,96.4 69.1,83.4 71.3,85.1 			"/>
			<polygon class="st9" points="72.9,93.4 71.9,94.9 71.3,85.1 72.5,86 			"/>
			<polygon class="st10" points="72.9,93.4 72.8,91.9 72.5,86 72.5,86 			"/>
			<polygon class="st11" points="42.6,97.2 41.6,95.9 40.2,73.7 41.2,75 			"/>
			<polygon class="st12" points="43.2,76.1 41.2,75 40.2,73.7 40.2,72.3 41.4,70.8 43.5,69.4 46.2,68.3 46.5,73 47.1,73.7 
				48.4,74.4 50.1,74.9 52.3,75.2 54.7,75.2 57.2,75 58,74.9 60.4,76.8 58,77.2 53.8,77.5 49.8,77.4 46.2,77 			"/>
			<polygon class="st5" points="57.2,75 58,74.9 57.1,74.2 			"/>
			<polygon class="st4" points="57.1,74.2 57.2,75 54.7,75.2 54.5,72.2 			"/>
			<polygon class="st3" points="54.5,72.2 54.7,75.2 52.3,75.2 52,70.3 			"/>
			<polygon class="st2" points="52,70.3 52.3,75.2 50.1,74.9 49.7,68.6 			"/>
			<polygon class="st1" points="49.7,68.6 50.1,74.9 48.4,74.4 47.9,67.2 			"/>
			<polygon class="st0" points="47.9,67.2 48.4,74.4 47.1,73.7 46.6,66.2 			"/>
			<polygon class="st11" points="46.6,66.2 47.1,73.7 46.5,73 46.2,68.3 46,65.7 			"/>
			<polygon class="st6" points="403.5,90.1 405.3,89.4 405.2,95.3 404.4,95 403.4,94.4 			"/>
			<polygon class="st7" points="402.3,91 403.5,90.1 403.4,94.4 402.8,94.1 402.2,93.4 			"/>
			<polygon class="st8" points="401.8,92 402,93 402.2,93.4 402.3,91 			"/>
			<polygon class="st9" points="422.7,94 423,93.4 422.8,92.4 			"/>
			<polygon class="st10" points="421.8,91.3 422.8,92.4 422.7,94 422.5,94.4 421.7,95 			"/>
			<polygon class="st11" points="420.2,90.4 421.8,91.3 421.7,95 421.3,95.3 420,95.8 			"/>
			<polygon class="st0" points="418.1,89.6 420.2,90.4 420,95.8 419.5,96 417.9,96.4 			"/>
			<polygon class="st1" points="415.7,89.1 418.1,89.6 417.9,96.4 417.2,96.5 415.4,96.7 			"/>
			<polygon class="st2" points="413,88.8 415.7,89.1 415.4,96.7 414.6,96.8 412.7,96.7 			"/>
			<polygon class="st3" points="410.2,88.7 413,88.8 412.7,96.7 411.8,96.7 410,96.5 			"/>
			<polygon class="st4" points="407.6,88.9 410.2,88.7 410,96.5 409,96.4 407.4,96 			"/>
			<polygon class="st5" points="405.3,89.4 407.6,88.9 407.4,96 406.5,95.8 405.2,95.3 			"/>
			<polygon class="st6" points="229.9,8.7 231.6,8.2 231.7,12.5 230.3,12.3 230,12.1 			"/>
			<polygon class="st7" points="228.7,9.2 229.9,8.7 230,12.1 228.9,11.8 228.7,11.6 			"/>
			<polygon class="st8" points="227.9,9.9 227.9,11 228,11.2 228.7,11.6 228.7,9.2 			"/>
			<polygon class="st9" points="227.7,10.5 227.9,11 227.9,9.9 			"/>
			<polygon class="st10" points="244,10.9 244.2,10.8 244.4,10.1 244,9.5 			"/>
			<polygon class="st11" points="243.1,11.5 243.5,11.4 244,10.9 244,9.4 243.1,8.9 			"/>
			<polygon class="st0" points="241.7,8.4 243.1,8.9 243.1,11.5 242.2,11.9 241.7,12.1 			"/>
			<polygon class="st1" points="239.9,8 241.7,8.4 241.7,12.1 240.5,12.4 240,12.5 			"/>
			<polygon class="st2" points="237.9,7.8 239.9,8 240,12.5 238.5,12.7 238,12.7 			"/>
			<polygon class="st3" points="235.7,7.8 237.9,7.8 238,12.7 236.4,12.8 235.8,12.8 			"/>
			<polygon class="st4" points="233.6,7.9 235.7,7.8 235.8,12.8 234.2,12.8 233.7,12.8 			"/>
			<polygon class="st5" points="231.6,8.2 233.6,7.9 233.7,12.8 232.1,12.6 231.7,12.5 			"/>
			<polygon class="st6" points="48.7,45.3 50.9,44.7 51.2,50.5 50.7,50.5 49,50.3 			"/>
			<polygon class="st7" points="46.9,46 48.7,45.3 49,50.3 48.6,50.2 47.2,49.8 			"/>
			<polygon class="st8" points="45.7,46.8 46.9,46 47.2,49.8 46.8,49.7 45.8,49.3 			"/>
			<polygon class="st9" points="45,47.6 45,48.5 45.6,49.1 45.8,49.3 45.7,46.8 			"/>
			<polygon class="st10" points="44.9,48.4 45,48.5 45,47.6 			"/>
			<polygon class="st11" points="63.4,47.7 63.9,47.1 63.9,46.2 63.3,45.5 			"/>
			<polygon class="st0" points="62,44.9 63.3,45.5 63.4,47.7 63.3,47.9 62.2,48.6 			"/>
			<polygon class="st1" points="60.3,44.5 62,44.9 62.2,48.6 62.1,48.7 60.6,49.3 			"/>
			<polygon class="st2" points="58.1,44.2 60.3,44.5 60.6,49.3 60.3,49.4 58.5,49.8 			"/>
			<polygon class="st3" points="55.7,44.2 58.1,44.2 58.5,49.8 58.1,49.9 56.1,50.3 			"/>
			<polygon class="st4" points="53.3,44.4 55.7,44.2 56.1,50.3 55.7,50.3 53.6,50.5 			"/>
			<polygon class="st5" points="50.9,44.7 53.3,44.4 53.6,50.5 53.2,50.5 51.2,50.5 			"/>
			<polygon class="st13" points="388.9,81.3 400.8,86.8 398.6,87.4 388.9,82.9 			"/>
			<polygon class="st14" points="375.1,85.1 388.9,81.3 388.9,82.9 377.2,86.1 			"/>
			<polygon class="st12" points="377.2,86.1 388.9,82.9 398.6,87.4 386.9,90.7 			"/>
			<polygon class="st13" points="354.7,65.3 365.6,70.4 363.5,71 354.7,66.8 			"/>
			<polygon class="st14" points="341.1,68.8 354.7,65.3 354.7,66.8 343.2,69.8 			"/>
			<polygon class="st12" points="343.2,69.8 354.7,66.8 363.5,71 352,74 			"/>
			<polygon class="st13" points="323.2,50.6 333.3,55.3 331.2,55.8 323.2,52.1 			"/>
			<polygon class="st14" points="309.9,53.9 323.2,50.6 323.2,52.1 312,54.8 			"/>
			<polygon class="st12" points="312,54.8 323.2,52.1 331.2,55.8 319.9,58.6 			"/>
			<polygon class="st13" points="294.2,37 303.5,41.4 301.4,41.9 294.2,38.5 			"/>
			<polygon class="st14" points="281.1,40 294.2,37 294.2,38.5 283.1,41 			"/>
			<polygon class="st12" points="283.1,41 294.2,38.5 301.4,41.9 290.3,44.5 			"/>
			<polygon class="st13" points="267.3,24.5 275.9,28.5 273.8,28.9 267.3,25.9 			"/>
			<polygon class="st14" points="254.4,27.3 267.3,24.5 267.3,25.9 256.4,28.2 			"/>
			<polygon class="st12" points="267.3,25.9 273.8,28.9 263,31.3 256.4,28.2 			"/>
			<polygon class="st13" points="242.2,12.8 250.2,16.5 248.3,17 242.3,14.1 			"/>
			<polygon class="st14" points="229.7,15.4 242.2,12.8 242.3,14.1 231.7,16.3 			"/>
			<polygon class="st12" points="242.3,14.1 248.3,17 237.6,19.2 231.7,16.3 			"/>
			<polygon class="st13" points="215.9,26.7 223.9,30.8 222,31.2 215.9,28.1 			"/>
			<polygon class="st14" points="202.5,29.5 215.9,26.7 215.9,28.1 204.4,30.5 			"/>
			<polygon class="st12" points="204.4,30.5 215.9,28.1 222,31.2 210.5,33.7 			"/>
			<polygon class="st13" points="241,39.5 249.7,43.9 247.7,44.3 241,40.9 			"/>
			<polygon class="st14" points="227.4,42.5 241,39.5 241,40.9 229.3,43.5 			"/>
			<polygon class="st12" points="241,40.9 247.7,44.3 235.9,47 229.3,43.5 			"/>
			<polygon class="st13" points="268.1,53.2 277.5,58 275.5,58.5 268.1,54.7 			"/>
			<polygon class="st14" points="254.2,56.5 268.1,53.2 268.1,54.7 256.2,57.6 			"/>
			<polygon class="st12" points="268.1,54.7 275.5,58.5 263.5,61.4 256.2,57.6 			"/>
			<polygon class="st13" points="297.6,68.1 307.8,73.3 305.7,73.8 297.6,69.7 			"/>
			<polygon class="st14" points="283.3,71.7 297.6,68.1 297.6,69.7 285.3,72.8 			"/>
			<polygon class="st12" points="297.6,69.7 305.7,73.8 293.4,77 285.3,72.8 			"/>
			<polygon class="st13" points="329.5,84.3 340.7,90 338.6,90.6 329.5,86 			"/>
			<polygon class="st14" points="315,88.2 329.5,84.3 329.5,86 317.1,89.3 			"/>
			<polygon class="st12" points="329.5,86 338.6,90.6 326,94 317.1,89.3 			"/>
			<polygon class="st13" points="300.1,105.9 311.4,112.2 309.3,112.8 300.1,107.6 			"/>
			<polygon class="st14" points="284.4,110.2 300.1,105.9 300.1,107.6 286.4,111.4 			"/>
			<polygon class="st12" points="300.1,107.6 309.3,112.8 295.6,116.7 286.4,111.4 			"/>
			<polygon class="st13" points="267.7,87.9 278,93.6 276,94.1 267.7,89.5 			"/>
			<polygon class="st14" points="252.4,91.8 267.7,87.9 267.7,89.5 254.4,93 			"/>
			<polygon class="st12" points="254.4,93 267.7,89.5 276,94.1 262.6,97.7 			"/>
			<polygon class="st13" points="238.1,71.4 247.5,76.6 245.6,77.1 238.1,72.9 			"/>
			<polygon class="st14" points="223.1,75 238.1,71.4 238.1,72.9 225,76.1 			"/>
			<polygon class="st12" points="238.1,72.9 245.6,77.1 232.5,80.4 225,76.1 			"/>
			<polygon class="st13" points="210.8,56.2 219.5,61 217.6,61.5 210.8,57.7 			"/>
			<polygon class="st14" points="196.2,59.6 210.8,56.2 210.8,57.7 198.1,60.6 			"/>
			<polygon class="st12" points="210.8,57.7 217.6,61.5 204.8,64.5 198.1,60.6 			"/>
			<polygon class="st13" points="185.7,42.2 193.7,46.7 191.8,47.1 185.7,43.7 			"/>
			<polygon class="st14" points="171.4,45.3 185.7,42.2 185.7,43.7 173.3,46.4 			"/>
			<polygon class="st12" points="173.3,46.4 185.7,43.7 191.8,47.1 179.3,49.9 			"/>
			<polygon class="st13" points="162.4,29.3 169.8,33.4 168,33.8 162.4,30.7 			"/>
			<polygon class="st14" points="148.5,32.1 162.4,29.3 162.4,30.7 150.3,33.2 			"/>
			<polygon class="st12" points="150.3,33.2 162.4,30.7 168,33.8 155.8,36.4 			"/>
			<polygon class="st13" points="129.4,45 136.8,49.6 135,49.9 129.4,46.5 			"/>
			<polygon class="st14" points="114.5,48.2 129.4,45 129.4,46.5 116.3,49.3 			"/>
			<polygon class="st12" points="116.3,49.3 129.4,46.5 135,49.9 121.8,52.8 			"/>
			<polygon class="st13" points="152.4,59.2 160.4,64.2 158.7,64.6 152.5,60.8 			"/>
			<polygon class="st14" points="137.2,62.7 152.4,59.2 152.5,60.8 139,63.8 			"/>
			<polygon class="st12" points="139,63.8 152.5,60.8 158.7,64.6 145,67.7 			"/>
			<polygon class="st13" points="177.5,74.7 186.2,80 184.3,80.5 177.5,76.3 			"/>
			<polygon class="st14" points="161.8,78.4 177.5,74.7 177.5,76.3 163.6,79.6 			"/>
			<polygon class="st12" points="163.6,79.6 177.5,76.3 184.3,80.5 170.3,83.8 			"/>
			<polygon class="st13" points="204.7,91.5 214.2,97.3 212.3,97.8 204.7,93.1 			"/>
			<polygon class="st14" points="188.6,95.5 204.7,91.5 204.7,93.1 190.5,96.7 			"/>
			<polygon class="st12" points="190.5,96.7 204.7,93.1 212.3,97.8 198,101.5 			"/>
			<polygon class="st13" points="234.5,109.8 244.9,116.2 242.9,116.8 234.5,111.5 			"/>
			<polygon class="st14" points="218,114.3 234.5,109.8 234.5,111.5 219.9,115.5 			"/>
			<polygon class="st12" points="219.9,115.5 234.5,111.5 242.9,116.8 228.2,120.8 			"/>
			<polygon class="st13" points="199.1,133.9 209.5,141.1 207.7,141.6 199.2,135.7 			"/>
			<polygon class="st14" points="181.2,138.9 199.1,133.9 199.2,135.7 183.1,140.2 			"/>
			<polygon class="st12" points="183.1,140.2 199.2,135.7 207.7,141.6 191.5,146.2 			"/>
			<polygon class="st13" points="169.4,113.4 178.8,119.9 177,120.4 169.4,115.1 			"/>
			<polygon class="st14" points="152,117.9 169.4,113.4 169.4,115.1 153.8,119.2 			"/>
			<polygon class="st12" points="169.4,115.1 177,120.4 161.3,124.6 153.8,119.2 			"/>
			<polygon class="st13" points="142.3,94.7 150.9,100.7 149.1,101.1 142.3,96.4 			"/>
			<polygon class="st14" points="125.4,98.8 142.3,94.7 142.3,96.4 127.1,100.1 			"/>
			<polygon class="st12" points="142.3,96.4 149.1,101.1 133.9,104.9 127.1,100.1 			"/>
			<polygon class="st13" points="117.5,77.7 125.4,83.1 123.7,83.5 117.5,79.2 			"/>
			<polygon class="st14" points="101.1,81.4 117.5,77.7 117.5,79.2 102.8,82.6 			"/>
			<polygon class="st12" points="117.5,79.2 123.7,83.5 108.8,87 102.8,82.6 			"/>
			<polygon class="st13" points="94.7,62 102,67 100.4,67.3 94.8,63.5 			"/>
			<polygon class="st14" points="78.8,65.4 94.7,62 94.8,63.5 80.5,66.6 			"/>
			<polygon class="st12" points="80.5,66.6 94.8,63.5 100.4,67.3 85.9,70.5 			"/>
			<polygon class="st13" points="73.8,47.6 80.5,52.2 78.9,52.5 73.9,49 			"/>
			<polygon class="st14" points="58.3,50.7 73.8,47.6 73.9,49 59.9,51.9 			"/>
			<polygon class="st12" points="73.9,49 78.9,52.5 64.9,55.4 59.9,51.9 			"/>
			<polyline class="st15" points="213.4,150.5 211.4,149.5 208.9,148.7 206,148.3 202.9,148.3 199.8,148.5 196.8,149.2 194.3,150.1 
				192.4,151.3 191.2,152.6 190.7,154 			"/>
			<polyline class="st15" points="215.1,153.1 214.7,151.7 213.4,150.5 			"/>
			<polyline class="st15" points="405.3,89.4 403.5,90.1 402.3,91 401.8,92 			"/>
			<polyline class="st15" points="423,93.4 422.8,92.4 421.8,91.3 420.2,90.4 418.1,89.6 415.7,89.1 413,88.8 410.2,88.7 
				407.6,88.9 405.3,89.4 			"/>
			<polyline class="st15" points="231.6,8.2 229.9,8.7 228.7,9.2 227.9,9.9 227.7,10.5 			"/>
			<polyline class="st15" points="244.4,10.1 244,9.4 243.1,8.9 241.7,8.4 239.9,8 237.9,7.8 235.7,7.8 233.6,7.9 231.6,8.2 			"/>
			<polyline class="st15" points="50.9,44.7 48.7,45.3 46.9,46 45.7,46.8 45,47.6 44.9,48.4 			"/>
			<polyline class="st15" points="63.9,46.2 63.3,45.5 62,44.9 60.3,44.5 58.1,44.2 55.7,44.2 53.3,44.4 50.9,44.7 			"/>
			<polyline class="st15" points="393.9,118.7 394.2,120.6 395.6,122.4 398.2,124.1 401.7,125.5 405.9,126.6 410.4,127.1 
				415.1,127.2 419.5,126.8 423.3,125.9 426.3,124.7 428.3,123.1 429,121.3 			"/>
			<line class="st15" x1="421.5" y1="121.8" x2="422" y2="120.8"/>
			<line class="st15" x1="420.3" y1="122.8" x2="421.5" y2="121.8"/>
			<line class="st15" x1="418.5" y1="123.5" x2="420.3" y2="122.8"/>
			<line class="st15" x1="416.2" y1="124.1" x2="418.5" y2="123.5"/>
			<line class="st15" x1="413.6" y1="124.3" x2="416.2" y2="124.1"/>
			<line class="st15" x1="410.8" y1="124.3" x2="413.6" y2="124.3"/>
			<line class="st15" x1="408.1" y1="123.9" x2="410.8" y2="124.3"/>
			<line class="st15" x1="405.6" y1="123.3" x2="408.1" y2="123.9"/>
			<line class="st15" x1="403.5" y1="122.5" x2="405.6" y2="123.3"/>
			<line class="st15" x1="402" y1="121.5" x2="403.5" y2="122.5"/>
			<line class="st15" x1="401.1" y1="120.4" x2="402" y2="121.5"/>
			<line class="st15" x1="400.9" y1="119.2" x2="401.1" y2="120.4"/>
			<polyline class="st15" points="193.5,193.2 198.4,194 203.7,194.1 209.1,193.6 214,192.4 218.1,190.7 221.3,188.6 223.2,186.2 
				223.8,183.7 			"/>
			<polyline class="st15" points="183.4,185.3 184,187.7 186,190 189.2,191.8 193.5,193.2 			"/>
			<line class="st15" x1="200.5" y1="190.2" x2="203.7" y2="190.2"/>
			<line class="st15" x1="197.6" y1="189.7" x2="200.5" y2="190.1"/>
			<line class="st15" x1="195" y1="188.9" x2="197.6" y2="189.7"/>
			<line class="st15" x1="193.1" y1="187.8" x2="195" y2="188.9"/>
			<line class="st15" x1="191.9" y1="186.4" x2="193.1" y2="187.8"/>
			<line class="st15" x1="191.5" y1="185" x2="191.9" y2="186.4"/>
			<line class="st15" x1="215.4" y1="185.5" x2="215.7" y2="184"/>
			<line class="st15" x1="214.2" y1="186.9" x2="215.4" y2="185.5"/>
			<line class="st15" x1="212.3" y1="188.2" x2="214.2" y2="186.9"/>
			<line class="st15" x1="209.8" y1="189.2" x2="212.3" y2="188.2"/>
			<line class="st15" x1="206.9" y1="189.9" x2="209.8" y2="189.2"/>
			<line class="st15" x1="203.7" y1="190.2" x2="206.9" y2="189.9"/>
			<polyline class="st15" points="41.2,75 43.2,76.1 46.2,77 49.8,77.4 53.8,77.5 58,77.2 60.4,76.8 			"/>
			<line class="st15" x1="40.2" y1="73.7" x2="41.2" y2="75"/>
			<line class="st15" x1="57.2" y1="75" x2="58" y2="74.9"/>
			<line class="st15" x1="54.7" y1="75.2" x2="57.2" y2="75"/>
			<line class="st15" x1="52.3" y1="75.2" x2="54.7" y2="75.2"/>
			<line class="st15" x1="50.1" y1="74.9" x2="52.3" y2="75.2"/>
			<line class="st15" x1="48.4" y1="74.4" x2="50.1" y2="74.9"/>
			<line class="st15" x1="47.1" y1="73.7" x2="48.4" y2="74.4"/>
			<line class="st15" x1="46.5" y1="73" x2="47.1" y2="73.7"/>
			<line class="st15" x1="388.9" y1="81.3" x2="400.8" y2="86.8"/>
			<line class="st15" x1="375.1" y1="85.1" x2="388.9" y2="81.3"/>
			<line class="st15" x1="354.7" y1="65.3" x2="365.6" y2="70.4"/>
			<line class="st15" x1="341.1" y1="68.8" x2="354.7" y2="65.3"/>
			<polyline class="st15" points="333.3,55.3 323.2,50.6 309.9,53.9 			"/>
			<line class="st15" x1="294.2" y1="37" x2="303.5" y2="41.4"/>
			<line class="st15" x1="281.1" y1="40" x2="294.2" y2="37"/>
			<line class="st15" x1="267.3" y1="24.5" x2="275.9" y2="28.5"/>
			<line class="st15" x1="254.4" y1="27.3" x2="267.3" y2="24.5"/>
			<line class="st15" x1="242.2" y1="12.8" x2="250.2" y2="16.5"/>
			<line class="st15" x1="229.7" y1="15.4" x2="242.2" y2="12.8"/>
			<line class="st15" x1="215.9" y1="26.7" x2="223.9" y2="30.8"/>
			<line class="st15" x1="202.5" y1="29.5" x2="215.9" y2="26.7"/>
			<line class="st15" x1="241" y1="39.5" x2="249.7" y2="43.9"/>
			<line class="st15" x1="227.4" y1="42.5" x2="241" y2="39.5"/>
			<line class="st15" x1="268.1" y1="53.2" x2="277.5" y2="58"/>
			<line class="st15" x1="254.2" y1="56.5" x2="268.1" y2="53.2"/>
			<line class="st15" x1="297.6" y1="68.1" x2="307.8" y2="73.3"/>
			<line class="st15" x1="283.3" y1="71.7" x2="297.6" y2="68.1"/>
			<line class="st15" x1="329.5" y1="84.3" x2="340.7" y2="90"/>
			<line class="st15" x1="315" y1="88.2" x2="329.5" y2="84.3"/>
			<line class="st15" x1="300.1" y1="105.9" x2="311.4" y2="112.2"/>
			<line class="st15" x1="284.4" y1="110.2" x2="300.1" y2="105.9"/>
			<line class="st15" x1="267.7" y1="87.9" x2="278" y2="93.6"/>
			<line class="st15" x1="252.4" y1="91.8" x2="267.7" y2="87.9"/>
			<line class="st15" x1="238.1" y1="71.4" x2="247.5" y2="76.6"/>
			<line class="st15" x1="223.1" y1="75" x2="238.1" y2="71.4"/>
			<line class="st15" x1="210.8" y1="56.2" x2="219.5" y2="61"/>
			<line class="st15" x1="196.2" y1="59.6" x2="210.8" y2="56.2"/>
			<line class="st15" x1="185.7" y1="42.2" x2="193.7" y2="46.7"/>
			<line class="st15" x1="171.4" y1="45.3" x2="185.7" y2="42.2"/>
			<line class="st15" x1="162.4" y1="29.3" x2="169.8" y2="33.4"/>
			<line class="st15" x1="148.5" y1="32.1" x2="162.4" y2="29.3"/>
			<line class="st15" x1="129.4" y1="45" x2="136.8" y2="49.6"/>
			<line class="st15" x1="114.5" y1="48.2" x2="129.4" y2="45"/>
			<line class="st15" x1="152.4" y1="59.2" x2="160.4" y2="64.2"/>
			<line class="st15" x1="137.2" y1="62.7" x2="152.4" y2="59.2"/>
			<line class="st15" x1="177.5" y1="74.7" x2="186.2" y2="80"/>
			<line class="st15" x1="161.8" y1="78.4" x2="177.5" y2="74.7"/>
			<line class="st15" x1="204.7" y1="91.5" x2="214.2" y2="97.3"/>
			<line class="st15" x1="188.6" y1="95.5" x2="204.7" y2="91.5"/>
			<line class="st15" x1="234.5" y1="109.8" x2="244.9" y2="116.2"/>
			<line class="st15" x1="218" y1="114.3" x2="234.5" y2="109.8"/>
			<line class="st15" x1="199.1" y1="133.9" x2="209.5" y2="141.1"/>
			<line class="st15" x1="181.2" y1="138.9" x2="199.1" y2="133.9"/>
			<line class="st15" x1="169.4" y1="113.4" x2="178.8" y2="119.9"/>
			<line class="st15" x1="152" y1="117.9" x2="169.4" y2="113.4"/>
			<line class="st15" x1="142.3" y1="94.7" x2="150.9" y2="100.7"/>
			<line class="st15" x1="125.4" y1="98.8" x2="142.3" y2="94.7"/>
			<line class="st15" x1="117.5" y1="77.7" x2="125.4" y2="83.1"/>
			<line class="st15" x1="101.1" y1="81.4" x2="117.5" y2="77.7"/>
			<line class="st15" x1="94.7" y1="62" x2="102" y2="67"/>
			<line class="st15" x1="78.8" y1="65.4" x2="94.7" y2="62"/>
			<line class="st15" x1="73.8" y1="47.6" x2="80.5" y2="52.2"/>
			<line class="st15" x1="58.3" y1="50.7" x2="73.8" y2="47.6"/>
			<polyline class="st15" points="377.2,86.1 388.9,82.9 398.6,87.4 			"/>
			<line class="st15" x1="388.9" y1="81.3" x2="388.9" y2="82.9"/>
			<polyline class="st15" points="343.2,69.8 354.7,66.8 363.5,71 			"/>
			<line class="st15" x1="354.7" y1="65.3" x2="354.7" y2="66.8"/>
			<line class="st15" x1="323.2" y1="52.1" x2="312" y2="54.8"/>
			<line class="st15" x1="331.2" y1="55.8" x2="323.2" y2="52.1"/>
			<line class="st15" x1="323.2" y1="50.6" x2="323.2" y2="52.1"/>
			<polyline class="st15" points="283.1,41 294.2,38.5 301.4,41.9 			"/>
			<line class="st15" x1="294.2" y1="37" x2="294.2" y2="38.5"/>
			<line class="st15" x1="267.3" y1="25.9" x2="273.8" y2="28.9"/>
			<line class="st15" x1="256.4" y1="28.2" x2="267.3" y2="25.9"/>
			<line class="st15" x1="267.3" y1="24.5" x2="267.3" y2="25.9"/>
			<line class="st15" x1="242.3" y1="14.1" x2="248.3" y2="17"/>
			<line class="st15" x1="231.7" y1="16.3" x2="242.3" y2="14.1"/>
			<line class="st15" x1="242.2" y1="12.8" x2="242.3" y2="14.1"/>
			<polyline class="st15" points="204.4,30.5 215.9,28.1 222,31.2 			"/>
			<line class="st15" x1="215.9" y1="26.7" x2="215.9" y2="28.1"/>
			<line class="st15" x1="241" y1="40.9" x2="247.7" y2="44.3"/>
			<line class="st15" x1="229.3" y1="43.5" x2="241" y2="40.9"/>
			<line class="st15" x1="241" y1="39.5" x2="241" y2="40.9"/>
			<line class="st15" x1="268.1" y1="54.7" x2="275.5" y2="58.5"/>
			<line class="st15" x1="256.2" y1="57.6" x2="268.1" y2="54.7"/>
			<line class="st15" x1="268.1" y1="53.2" x2="268.1" y2="54.7"/>
			<line class="st15" x1="297.6" y1="69.7" x2="305.7" y2="73.8"/>
			<line class="st15" x1="285.3" y1="72.8" x2="297.6" y2="69.7"/>
			<line class="st15" x1="297.6" y1="68.1" x2="297.6" y2="69.7"/>
			<line class="st15" x1="329.5" y1="86" x2="338.6" y2="90.6"/>
			<line class="st15" x1="317.1" y1="89.3" x2="329.5" y2="86"/>
			<line class="st15" x1="329.5" y1="84.3" x2="329.5" y2="86"/>
			<line class="st15" x1="300.1" y1="107.6" x2="309.3" y2="112.8"/>
			<line class="st15" x1="286.4" y1="111.4" x2="300.1" y2="107.6"/>
			<line class="st15" x1="300.1" y1="105.9" x2="300.1" y2="107.6"/>
			<polyline class="st15" points="254.4,93 267.7,89.5 276,94.1 			"/>
			<line class="st15" x1="267.7" y1="87.9" x2="267.7" y2="89.5"/>
			<line class="st15" x1="238.1" y1="72.9" x2="245.6" y2="77.1"/>
			<line class="st15" x1="225" y1="76.1" x2="238.1" y2="72.9"/>
			<line class="st15" x1="238.1" y1="71.4" x2="238.1" y2="72.9"/>
			<line class="st15" x1="210.8" y1="57.7" x2="217.6" y2="61.5"/>
			<line class="st15" x1="198.1" y1="60.6" x2="210.8" y2="57.7"/>
			<line class="st15" x1="210.8" y1="56.2" x2="210.8" y2="57.7"/>
			<polyline class="st15" points="173.3,46.4 185.7,43.7 191.8,47.1 			"/>
			<line class="st15" x1="185.7" y1="42.2" x2="185.7" y2="43.7"/>
			<polyline class="st15" points="150.3,33.2 162.4,30.7 168,33.8 			"/>
			<line class="st15" x1="162.4" y1="29.3" x2="162.4" y2="30.7"/>
			<polyline class="st15" points="116.3,49.3 129.4,46.5 135,49.9 			"/>
			<line class="st15" x1="129.4" y1="45" x2="129.4" y2="46.5"/>
			<polyline class="st15" points="139,63.8 152.5,60.8 158.7,64.6 			"/>
			<line class="st15" x1="152.4" y1="59.2" x2="152.5" y2="60.8"/>
			<polyline class="st15" points="163.6,79.6 177.5,76.3 184.3,80.5 			"/>
			<line class="st15" x1="177.5" y1="74.7" x2="177.5" y2="76.3"/>
			<polyline class="st15" points="190.5,96.7 204.7,93.1 212.3,97.8 			"/>
			<line class="st15" x1="204.7" y1="91.5" x2="204.7" y2="93.1"/>
			<polyline class="st15" points="219.9,115.5 234.5,111.5 242.9,116.8 			"/>
			<line class="st15" x1="234.5" y1="109.8" x2="234.5" y2="111.5"/>
			<polyline class="st15" points="183.1,140.2 199.2,135.7 207.7,141.6 			"/>
			<line class="st15" x1="199.1" y1="133.9" x2="199.2" y2="135.7"/>
			<line class="st15" x1="169.4" y1="115.1" x2="177" y2="120.4"/>
			<line class="st15" x1="153.8" y1="119.2" x2="169.4" y2="115.1"/>
			<line class="st15" x1="169.4" y1="113.4" x2="169.4" y2="115.1"/>
			<line class="st15" x1="142.3" y1="96.4" x2="149.1" y2="101.1"/>
			<line class="st15" x1="127.1" y1="100.1" x2="142.3" y2="96.4"/>
			<line class="st15" x1="142.3" y1="94.7" x2="142.3" y2="96.4"/>
			<line class="st15" x1="117.5" y1="79.2" x2="123.7" y2="83.5"/>
			<line class="st15" x1="102.8" y1="82.6" x2="117.5" y2="79.2"/>
			<line class="st15" x1="117.5" y1="77.7" x2="117.5" y2="79.2"/>
			<polyline class="st15" points="80.5,66.6 94.8,63.5 100.4,67.3 			"/>
			<line class="st15" x1="94.7" y1="62" x2="94.8" y2="63.5"/>
			<line class="st15" x1="73.9" y1="49" x2="78.9" y2="52.5"/>
			<line class="st15" x1="59.9" y1="51.9" x2="73.9" y2="49"/>
			<line class="st15" x1="73.8" y1="47.6" x2="73.9" y2="49"/>
			<line class="st16" x1="190.7" y1="154" x2="191.1" y2="155.4"/>
			<line class="st16" x1="214.8" y1="154.5" x2="215.1" y2="153.1"/>
			<polyline class="st16" points="455.5,95.6 243.3,0.6 19.1,45.1 			"/>
			<line class="st16" x1="401.8" y1="92" x2="402" y2="93"/>
			<line class="st16" x1="244.2" y1="10.8" x2="244.4" y2="10.1"/>
			<line class="st16" x1="63.9" y1="47.1" x2="63.9" y2="46.2"/>
			<polyline class="st16" points="393.2,143.2 393.5,145.2 394.9,147.1 397.4,148.8 400.9,150.3 405,151.4 409.6,152 414.2,152.1 
				418.6,151.7 422.4,150.8 425.4,149.4 427.3,147.7 428.1,145.9 			"/>
			<polyline class="st16" points="427.1,117.6 424.4,116 422.2,115.1 			"/>
			<polyline class="st16" points="401.1,114 399.9,114.2 396.9,115.5 394.9,117 393.9,118.7 			"/>
			<polyline class="st16" points="429,121.3 428.6,119.4 427.1,117.6 			"/>
			<line class="st16" x1="393.2" y1="143.2" x2="393.9" y2="118.7"/>
			<line class="st16" x1="428.1" y1="145.9" x2="429" y2="121.3"/>
			<polyline class="st16" points="184.2,213.1 184.8,215.6 186.8,218 190,219.9 194.2,221.4 199.1,222.2 204.4,222.3 209.6,221.7 
				214.5,220.5 218.7,218.7 221.8,216.5 223.7,214 224.2,211.4 			"/>
			<polyline class="st16" points="223.8,183.7 223,181.3 220.8,179.2 217.6,177.4 215.6,176.7 			"/>
			<polyline class="st16" points="191.3,177.7 189.5,178.5 186.2,180.5 184.2,182.8 183.4,185.3 			"/>
			<line class="st16" x1="224.2" y1="211.4" x2="223.8" y2="183.7"/>
			<line class="st16" x1="184.2" y1="213.1" x2="183.4" y2="185.3"/>
			<polyline class="st16" points="42.6,97.2 44.6,98.4 47.6,99.3 51.2,99.7 55.2,99.8 59.4,99.5 63.4,98.7 67,97.7 69.9,96.4 
				71.9,94.9 72.9,93.4 72.8,91.9 			"/>
			<line class="st16" x1="41.6" y1="95.9" x2="42.6" y2="97.2"/>
			<polyline class="st16" points="46.2,68.3 43.5,69.4 41.4,70.8 40.2,72.3 40.2,73.7 			"/>
			<line class="st16" x1="72.8" y1="91.9" x2="72.5" y2="86"/>
			<line class="st16" x1="41.6" y1="95.9" x2="40.2" y2="73.7"/>
			<polyline class="st16" points="191.1,155.4 191.2,155.5 192.3,156.6 192.5,156.7 194.3,157.7 194.5,157.7 196.8,158.4 
				197.1,158.5 199.8,158.9 200,158.9 203,158.9 203.1,158.9 206.2,158.6 206.2,158.6 			"/>
			<polyline class="st16" points="209.1,158 211.6,157.1 211.7,157 213.5,155.9 213.6,155.8 214.7,154.5 214.8,154.5 			"/>
			<polyline class="st16" points="191.3,175.4 191.3,177.7 191.5,185 			"/>
			<polyline class="st16" points="215.4,168.2 215.6,176.7 215.7,184 			"/>
			<polyline class="st16" points="402,93 402.2,93.4 402.8,94.1 403.4,94.4 404.4,95 405.2,95.3 406.5,95.8 407.4,96 409,96.4 
				410,96.5 411.8,96.7 412.7,96.7 414.6,96.8 415.4,96.7 417.2,96.5 417.9,96.4 419.5,96 420,95.8 421.3,95.3 421.7,95 422.5,94.4 
				422.7,94 423,93.4 			"/>
			<polyline class="st16" points="227.7,10.5 227.9,11 228,11.2 228.7,11.6 228.9,11.8 230,12.1 230.3,12.3 231.7,12.5 232.1,12.6 
				233.7,12.8 234.2,12.8 235.8,12.8 236.4,12.8 238,12.7 238.5,12.7 240,12.5 240.5,12.4 241.7,12.1 242.2,11.9 243.1,11.5 
				243.5,11.4 244,10.9 244.2,10.8 			"/>
			<polyline class="st16" points="44.9,48.4 45,48.5 45.6,49.1 45.8,49.3 46.8,49.7 47.2,49.8 48.6,50.2 49,50.3 50.7,50.5 
				51.2,50.5 53.2,50.5 53.6,50.5 55.7,50.3 56.1,50.3 58.1,49.9 58.5,49.8 60.3,49.4 60.6,49.3 62.1,48.7 62.2,48.6 63.3,47.9 
				63.4,47.7 63.9,47.1 			"/>
			<polyline class="st16" points="422.6,105.6 422.2,115.1 422,120.8 			"/>
			<polyline class="st16" points="401.2,112 401.1,114 400.9,119.2 			"/>
			<polyline class="st16" points="46,65.7 46.2,68.3 46.5,73 			"/>
			<polyline class="st16" points="400.8,86.8 398.6,87.4 386.9,90.7 377.2,86.1 375.1,85.1 			"/>
			<polyline class="st16" points="365.6,70.4 363.5,71 352,74 343.2,69.8 341.1,68.8 			"/>
			<polyline class="st16" points="319.9,58.6 331.2,55.8 333.3,55.3 			"/>
			<polyline class="st16" points="309.9,53.9 312,54.8 319.9,58.6 			"/>
			<polyline class="st16" points="303.5,41.4 301.4,41.9 290.3,44.5 283.1,41 281.1,40 			"/>
			<polyline class="st16" points="275.9,28.5 273.8,28.9 263,31.3 256.4,28.2 254.4,27.3 			"/>
			<polyline class="st16" points="250.2,16.5 248.3,17 237.6,19.2 231.7,16.3 229.7,15.4 			"/>
			<polyline class="st16" points="223.9,30.8 222,31.2 210.5,33.7 204.4,30.5 202.5,29.5 			"/>
			<polyline class="st16" points="249.7,43.9 247.7,44.3 235.9,47 229.3,43.5 227.4,42.5 			"/>
			<polyline class="st16" points="277.5,58 275.5,58.5 263.5,61.4 256.2,57.6 254.2,56.5 			"/>
			<polyline class="st16" points="307.8,73.3 305.7,73.8 293.4,77 285.3,72.8 283.3,71.7 			"/>
			<polyline class="st16" points="340.7,90 338.6,90.6 326,94 317.1,89.3 315,88.2 			"/>
			<polyline class="st16" points="311.4,112.2 309.3,112.8 295.6,116.7 286.4,111.4 284.4,110.2 			"/>
			<polyline class="st16" points="278,93.6 276,94.1 262.6,97.7 254.4,93 252.4,91.8 			"/>
			<polyline class="st16" points="247.5,76.6 245.6,77.1 232.4,80.4 225,76.1 223.1,75 			"/>
			<polyline class="st16" points="219.5,61 217.6,61.5 204.8,64.5 198.1,60.6 196.2,59.6 			"/>
			<polyline class="st16" points="193.7,46.7 191.8,47.1 179.3,49.9 173.3,46.4 171.4,45.3 			"/>
			<polyline class="st16" points="169.8,33.4 168,33.8 155.8,36.4 150.3,33.2 148.5,32.1 			"/>
			<polyline class="st16" points="136.8,49.6 135,49.9 121.8,52.8 116.3,49.3 114.5,48.2 			"/>
			<polyline class="st16" points="160.4,64.2 158.7,64.6 145,67.7 139,63.8 137.2,62.7 			"/>
			<polyline class="st16" points="186.2,80 184.3,80.5 170.3,83.8 163.6,79.6 161.8,78.4 			"/>
			<polyline class="st16" points="214.2,97.3 212.3,97.8 198,101.5 190.5,96.7 188.6,95.5 			"/>
			<polyline class="st16" points="244.9,116.2 242.9,116.8 228.2,120.8 219.9,115.5 218,114.3 			"/>
			<polyline class="st16" points="209.5,141.1 207.7,141.6 191.5,146.2 183.1,140.2 181.2,138.9 			"/>
			<polyline class="st16" points="178.8,119.9 177,120.4 161.3,124.6 153.8,119.2 152,117.9 			"/>
			<polyline class="st16" points="150.9,100.7 149.1,101.1 133.9,104.9 127.1,100.1 125.4,98.8 			"/>
			<polyline class="st16" points="125.4,83.1 123.7,83.5 108.8,87 102.8,82.6 101.1,81.4 			"/>
			<polyline class="st16" points="102,67 100.4,67.3 85.9,70.5 80.5,66.6 78.8,65.4 			"/>
			<polyline class="st16" points="80.5,52.2 78.9,52.5 64.9,55.4 59.9,51.9 58.3,50.7 			"/>
			<polyline class="st16" points="206.2,158.6 209.1,158 209.1,158 			"/>
			<polyline class="st16" points="19.1,45.1 46,65.7 46.6,66.2 47.9,67.2 			"/>
			<polyline class="st16" points="189.8,175.9 191.3,175.4 191.6,175.3 192.8,175 			"/>
			<line class="st16" x1="47.9" y1="67.2" x2="49.7" y2="68.6"/>
			<line class="st16" x1="192.8" y1="175" x2="194.7" y2="174.4"/>
			<line class="st16" x1="49.7" y1="68.6" x2="52" y2="70.3"/>
			<polyline class="st16" points="194.7,174.4 197.2,173.7 200.1,172.8 			"/>
			<polyline class="st16" points="52,70.3 54.5,72.2 57.1,74.2 			"/>
			<line class="st16" x1="200.1" y1="172.8" x2="203.3" y2="171.8"/>
			<polyline class="st16" points="57.1,74.2 58,74.9 60.4,76.8 62.2,78.1 66,81 			"/>
			<line class="st16" x1="209.4" y1="170" x2="211.9" y2="169.2"/>
			<line class="st16" x1="66" y1="81" x2="69.1" y2="83.4"/>
			<polyline class="st16" points="203.3,171.8 206.4,170.9 209.4,170 			"/>
			<line class="st16" x1="215" y1="168.3" x2="215.4" y2="168.2"/>
			<line class="st16" x1="69.1" y1="83.4" x2="71.3" y2="85.1"/>
			<polyline class="st16" points="211.9,169.2 213.8,168.6 215,168.3 			"/>
			<polyline class="st16" points="403.9,111.2 406,110.5 408.6,109.8 			"/>
			<line class="st16" x1="71.3" y1="85.1" x2="72.5" y2="86"/>
			<line class="st16" x1="402.3" y1="111.7" x2="403.9" y2="111.2"/>
			<line class="st16" x1="408.6" y1="109.8" x2="411.4" y2="108.9"/>
			<polyline class="st16" points="72.5,86 72.5,86 189.8,175.9 			"/>
			<line class="st16" x1="401.4" y1="112" x2="402.3" y2="111.7"/>
			<line class="st16" x1="411.4" y1="108.9" x2="414.2" y2="108.1"/>
			<polyline class="st16" points="215.4,168.2 401.2,112 401.4,112 			"/>
			<line class="st16" x1="422.6" y1="105.6" x2="455.5" y2="95.6"/>
			<polyline class="st16" points="419.1,106.6 420.9,106 422.1,105.7 422.6,105.6 			"/>
			<polyline class="st16" points="414.2,108.1 416.8,107.3 419.1,106.6 			"/>
		</g>
	</g>
</g>
</svg>
