<?xml version="1.0" encoding="utf-8"?>
<!-- Generator: Adobe Illustrator 20.1.0, SVG Export Plug-In . SVG Version: 6.00 Build 0)  -->
<svg version="1.1" id="Layer_3_1_" xmlns="http://www.w3.org/2000/svg" xmlns:xlink="http://www.w3.org/1999/xlink" x="0px" y="0px"
	 viewBox="0 0 473.1 227.6" style="enable-background:new 0 0 473.1 227.6;" xml:space="preserve">
<style type="text/css">
	.st0{fill:#8C8D8D;}
	.st1{fill:#A4A4A5;}
	.st2{fill:#8A8A8B;}
	.st3{fill:#997D21;}
	.st4{fill:#686868;}
	.st5{fill:#6F4508;}
	.st6{fill:#B59529;}
	.st7{fill:#735E16;}
	.st8{fill:#909090;}
	.st9{fill:#603316;}
	.st10{fill:#B2B2B2;}
	.st11{fill:#5B3115;}
	.st12{fill:#898989;}
	.st13{fill:#ACADAD;}
	.st14{fill:#C9CACA;}
	.st15{fill:#DFDFDF;}
	.st16{fill:#EDEDED;}
	.st17{fill:#F1F2F2;}
	.st18{fill:#EEEFEF;}
	.st19{fill:#E2E3E3;}
	.st20{fill:#CECFCF;}
	.st21{fill:#935D11;}
	.st22{fill:#AF7015;}
	.st23{fill:#49260E;}
	.st24{fill:#543404;}
	.st25{fill:#6A4109;}
	.st26{fill:#87550D;}
	.st27{fill:#9F6512;}
	.st28{fill:#B17115;}
	.st29{fill:#BD7918;}
	.st30{fill:#C27C19;}
	.st31{fill:#BF7B18;}
	.st32{fill:#B67416;}
	.st33{fill:#A66A14;}
	.st34{fill:#915B0F;}
	.st35{fill:#75490A;}
	.st36{fill:#653718;}
	.st37{fill:#A95F2F;}
	.st38{fill:#915127;}
	.st39{fill:#A45C2E;}
	.st40{fill:#A75E2E;}
	.st41{fill:#9F592B;}
	.st42{fill:#7D4621;}
	.st43{fill:#8A4D25;}
	.st44{fill:#75411E;}
	.st45{fill:none;stroke:#000000;stroke-width:0.5;stroke-linecap:round;stroke-linejoin:round;stroke-miterlimit:10;}
	.st46{fill:none;stroke:#000000;stroke-linecap:round;stroke-linejoin:round;stroke-miterlimit:10;}
</style>
<g>
	<g>
		<g>
			<polygon class="st0" points="201.7,159.6 207.9,157.8 207.8,154.4 208.2,154.5 209.6,155.1 210.6,155.9 211,156.8 210.9,157.7 
				210.3,158.6 209.1,159.5 207.6,160.1 205.7,160.6 203.6,160.9 201.4,160.9 199.4,160.7 197.6,160.3 196.2,159.6 195.2,158.8 
				194.8,157.9 194.9,157 195.6,156.1 196.8,155.3 197.9,154.8 197.9,156.9 198,156.9 201.6,159.5 			"/>
			<polygon class="st1" points="207.9,157.8 201.7,159.6 201.5,151.1 207.7,149.4 207.8,153.3 207.8,154.4 			"/>
			<polygon class="st2" points="197.8,149.1 197.9,153.7 197.9,154.8 197.9,156.9 198,156.9 197.8,148.5 197.7,148.5 			"/>
			<polygon class="st2" points="201.6,159.5 201.7,159.6 201.5,151.1 201.4,151.1 			"/>
			<polygon class="st3" points="201.6,159.5 198,156.9 197.8,148.5 197.8,148.4 197.7,140.8 197.6,139.2 201.2,141.6 201.4,151.1 
							"/>
			<polygon class="st4" points="197.7,148.5 197.8,148.5 197.8,148.4 			"/>
			<polygon class="st5" points="197.8,148.4 197.7,148.5 197.8,149.1 191.5,150.9 183.1,144.9 197.7,140.8 			"/>
			<polygon class="st4" points="201.5,151.1 201.4,151.1 207.6,149.3 207.7,149.4 			"/>
			<polygon class="st6" points="207.6,149.3 201.4,151.1 201.2,141.6 207.4,139.9 207.5,144.4 207.5,146.2 207.5,146.4 			"/>
			<polygon class="st7" points="207.4,139.9 201.2,141.6 197.6,139.2 199.1,138.7 199.2,138.7 203.8,137.4 			"/>
			<polygon class="st8" points="194.8,158.5 194.8,158.7 194.8,158.8 194.9,159 195.1,159.5 195.2,159.6 195.3,159.7 195.2,158.8 
				194.8,157.9 			"/>
			<polygon class="st9" points="195.2,159.6 195.3,159.7 195.6,160 195.9,160.3 196.1,160.4 196.2,160.5 196.8,160.8 197.2,161 
				197.4,161.1 197.6,161.2 198.5,161.4 198.9,161.5 199,161.5 199.4,161.6 200.6,161.8 200.8,161.8 201,161.8 201.4,161.9 
				202.8,161.9 203,161.9 203,161.8 203.6,161.8 205,161.7 205.1,161.7 205.1,161.6 205.7,161.6 207,161.2 207.1,161.2 207.1,161.2 
				207.6,161.1 208.7,160.6 208.7,160.6 208.8,160.6 209.2,160.4 209.9,159.8 210,159.8 210,159.8 210.3,159.6 210.7,159 
				210.8,158.9 210.8,158.9 211,158.7 211,158.1 211,158 211.1,158 211,157.9 211.1,157.7 211,156.8 210.6,155.9 209.6,155.1 
				208.2,154.5 207.8,154.4 207.8,153.3 208.9,153.5 211.4,154.2 213.4,155.2 214.7,156.5 215.1,157.8 214.8,159.2 213.6,160.6 
				211.7,161.8 209.1,162.7 206.2,163.4 203,163.7 199.8,163.6 196.8,163.2 194.3,162.4 192.3,161.3 191.1,160.1 190.7,158.7 
				191.2,157.3 192.4,156 194.3,154.8 196.8,153.9 197.9,153.7 197.9,154.8 196.8,155.3 195.6,156.1 194.9,157 194.8,157.9 
				194.8,158.5 194.8,158.6 194.8,158.7 194.8,158.8 194.9,159 195.1,159.5 			"/>
			<polygon class="st10" points="195.3,159.7 195.6,160 195.9,160.3 196.1,160.4 196.2,160.5 196.2,159.6 195.2,158.8 			"/>
			<polygon class="st4" points="210.9,157.7 211,158.7 211,158.1 211,158 211,157.9 211.1,157.7 211,156.8 			"/>
			<polygon class="st11" points="211,158 211.1,158 211,157.9 			"/>
			<polygon class="st12" points="210.3,158.6 210.3,159.6 210.7,159 210.8,158.9 210.8,158.9 211,158.7 210.9,157.7 			"/>
			<polygon class="st13" points="209.9,159.8 209.2,160.4 209.1,159.5 210.3,158.6 210.3,159.6 210,159.8 210,159.8 			"/>
			<polygon class="st14" points="208.7,160.6 207.6,161.1 207.6,160.1 209.1,159.5 209.2,160.4 208.8,160.6 208.7,160.6 			"/>
			<polygon class="st15" points="207,161.2 205.7,161.6 205.7,160.6 207.6,160.1 207.6,161.1 207.1,161.2 207.1,161.2 			"/>
			<polygon class="st16" points="205,161.7 203.6,161.8 203.6,160.9 205.7,160.6 205.7,161.6 205.1,161.6 205.1,161.7 			"/>
			<polygon class="st17" points="201.4,160.9 201.4,161.9 202.8,161.9 203,161.9 203,161.8 203.6,161.8 203.6,160.9 			"/>
			<polygon class="st18" points="200.6,161.8 199.4,161.6 199.4,160.7 201.4,160.9 201.4,161.9 201,161.8 200.8,161.8 			"/>
			<polygon class="st19" points="198.5,161.4 197.6,161.2 197.6,160.3 199.4,160.7 199.4,161.6 199,161.5 198.9,161.5 			"/>
			<polygon class="st20" points="196.8,160.8 196.2,160.5 196.2,159.6 197.6,160.3 197.6,161.2 197.4,161.1 197.2,161 			"/>
			<polygon class="st21" points="199.1,138.7 199.2,138.7 199.1,138.6 			"/>
			<polygon class="st21" points="207.5,144.4 209.5,145.8 207.7,146.3 207.5,146.2 			"/>
			<polygon class="st22" points="181.2,143.6 199.1,138.6 199.1,138.7 197.6,139.2 197.7,140.8 183.1,144.9 			"/>
			<polygon class="st5" points="207.5,146.4 207.7,146.3 207.5,146.2 			"/>
			<polygon class="st23" points="194.8,158.6 194.8,158.7 194.8,158.5 			"/>
			<polygon class="st0" points="412.3,98.3 416.9,96.9 417,94.8 417.3,94.9 418.5,95.5 419.2,96.2 419.5,96.9 419.3,97.6 
				418.6,98.2 417.5,98.7 416.1,99.1 414.4,99.3 412.5,99.3 410.7,99.1 409,98.8 407.5,98.3 406.3,97.7 405.6,97 405.3,96.3 
				405.6,95.6 406.3,95 407.4,94.5 408,94.4 407.9,96.2 408,96.3 412.1,98.2 			"/>
			<polygon class="st1" points="416.9,96.9 412.3,98.3 412.5,90.9 417.2,89.5 417,94.1 417,94.8 			"/>
			<polygon class="st2" points="408,93.6 408,94.4 407.9,96.2 408,96.3 408.3,88.9 408.1,88.8 			"/>
			<polygon class="st2" points="412.1,98.2 412.3,98.3 412.5,90.9 412.4,90.8 			"/>
			<polygon class="st3" points="412.1,98.2 408,96.3 408.3,88.9 408.3,88.8 408.5,80.6 412.7,82.5 412.4,90.8 			"/>
			<polygon class="st4" points="408.1,88.8 408.3,88.9 408.3,88.8 			"/>
			<path class="st5" d="M80.5,56.9l-6.7-4.6l-15.5,3.2l1.6,1.2l4.9,3.5l14-2.9L80.5,56.9z M102,71.7l-7.3-5l-15.9,3.5l1.7,1.2
				l5.4,3.9l14.4-3.2L102,71.7 M125.4,87.8l-7.9-5.4l-16.4,3.8l1.7,1.2l6,4.3l14.9-3.5L125.4,87.8 M150.9,105.4l-8.6-5.9l-16.9,4.1
				l1.7,1.3l6.7,4.8l15.3-3.8L150.9,105.4 M178.8,124.6l-9.5-6.5l-17.4,4.5l1.8,1.3l7.5,5.4l15.8-4.2L178.8,124.6 M244.9,121
				l-10.4-6.4L218,119l1.9,1.2l8.3,5.3l14.7-4L244.9,121 M214.2,102l-9.5-5.8l-16.1,4l1.9,1.2l7.5,4.8l14.4-3.7L214.2,102
				 M186.2,84.8l-8.7-5.4l-15.7,3.7l1.8,1.2l6.7,4.3l14-3.4L186.2,84.8 M160.4,68.9l-8-4.9l-15.3,3.4l1.8,1.1l6.1,3.9l13.6-3.1
				L160.4,68.9 M136.8,54.3l-7.4-4.5l-14.9,3.1l1.7,1.1l5.5,3.5l13.3-2.9L136.8,54.3 M169.8,38.1l-7.4-4.1l-13.9,2.9l1.8,1l5.5,3.2
				l12.2-2.6L169.8,38.1 M193.7,51.4l-8-4.5L171.4,50l1.9,1.1l6.1,3.5l12.5-2.8L193.7,51.4 M219.5,65.8l-8.7-4.8l-14.6,3.4l1.9,1.1
				l6.7,3.8l12.8-3L219.5,65.8 M247.5,81.4l-9.5-5.3l-14.9,3.6l1.9,1.1l7.4,4.3l13.1-3.3L247.5,81.4 M278,98.3l-10.3-5.7l-15.3,4
				l2,1.1l8.2,4.7l13.4-3.6L278,98.3 M311.4,116.9l-11.3-6.3l-15.7,4.3l2,1.1l9.2,5.3l13.8-3.9L311.4,116.9 M340.7,94.7l-11.1-5.6
				L315,93l2,1.1l9,4.7l12.5-3.4L340.7,94.7 M307.8,78l-10.2-5.2l-14.2,3.6l2,1.1l8.1,4.2l12.3-3.2L307.8,78 M277.5,62.7l-9.4-4.8
				l-13.9,3.3l2,1l7.3,3.8l12-2.9L277.5,62.7 M249.7,48.6l-8.7-4.4l-13.6,3l2,1l6.6,3.5l11.8-2.7L249.7,48.6 M223.9,35.5l-8-4.1
				l-13.3,2.8l1.9,1l6,3.1l11.5-2.5L223.9,35.5 M250.2,21.3l-8-3.7l-12.6,2.6l2,0.9l6,2.9l10.7-2.2L250.2,21.3 M275.9,33.2l-8.6-4
				L254.4,32l2,1l6.5,3.1l10.9-2.4L275.9,33.2 M303.5,46.1l-9.3-4.3l-13.1,3l2,1l7.2,3.4l11.1-2.6L303.5,46.1 M333.3,60l-10.1-4.7
				l-13.3,3.2l2.1,1l7.9,3.8l11.3-2.8L333.3,60 M365.6,75.1L354.7,70l-13.6,3.5l2.1,1l8.7,4.2l11.5-3.1L365.6,75.1 M400.8,91.5
				L388.9,86l-13.8,3.8l2.1,1l9.7,4.6l11.7-3.3L400.8,91.5 M207.7,149.4l-0.1-0.1l-0.1-2.9l0.2,0l1.8-0.5l-2-1.4l-0.1-4.5l-3.6-2.5
				l-4.6,1.3l-0.1-0.1l-17.9,5l1.8,1.3l8.4,6l6.3-1.8l0.1,4.5l-1,0.2l-2.5,0.9l-1.9,1.2l-1.2,1.3l-0.4,1.4l0.4,1.4l1.2,1.3l1.9,1.1
				l2.5,0.8l3,0.4l3.2,0.1l3.2-0.3l3-0.7l2.5-1l1.9-1.2l1.2-1.3l0.4-1.4l-0.5-1.4l-1.3-1.2l-2-1l-2.5-0.7l-1.1-0.2L207.7,149.4
				 M408.3,88.8l-0.1,0l-0.2,4.8l-0.4,0l-2.3,0.5l-1.8,0.7l-1.2,0.9l-0.5,1l0.2,1.1l0.9,1l1.6,0.9l2.1,0.8l2.5,0.6l2.8,0.3l2.8,0.1
				l2.6-0.2l2.3-0.5l1.8-0.7l1.2-0.9l0.5-1l-0.2-1.1l-0.9-1l-1.6-0.9l-2.1-0.8l-1.1-0.3l0.2-4.6l-0.1-0.1l0.2-6.3l38.3,17.1l-33,10
				l-0.5,0.1l-1.2,0.4l-1.8,0.5l-2.3,0.7l-2.7,0.8l-2.8,0.9l-2.8,0.8l-2.5,0.8l-2.1,0.6l-1.6,0.5l-0.9,0.3l-0.2,0.1l-185.7,56.1
				L215,173l-1.2,0.4l-1.9,0.6l-2.5,0.8l-2.9,0.9l-3.2,1l-3.2,1l-2.9,0.9l-2.5,0.8l-1.9,0.6l-1.2,0.4l-0.4,0.1l-1.5,0.4L72.5,90.7
				l0,0l-1.2-0.9l-2.2-1.7L66,85.8l-3.8-2.9l-1.7-1.3L58,79.6L57.1,79l-2.6-2L52,75l-2.3-1.7l-1.8-1.4l-1.2-1L46,70.5l-27-20.7
				l31.3-6.2l0,0.8l-0.1,0l0.3,5.1L48.7,50l-1.8,0.7l-1.3,0.8L45,52.3l0,0.8l0.6,0.7l1.2,0.6l1.8,0.5l2.2,0.3l2.4,0l2.5-0.2l2.4-0.4
				l2.2-0.6l1.8-0.7l1.2-0.8l0.6-0.8l0-0.8l-0.7-0.7L62,49.6l-1.8-0.4L58.1,49L58,49l-0.2-4l-0.1,0l-0.2-2.7L232.6,7.4l0,0.7l-0.1,0
				l0.1,4.7l-1,0.1l-1.7,0.4l-1.3,0.6l-0.8,0.6l-0.2,0.7l0.3,0.6l0.9,0.6l1.4,0.5l1.8,0.4l2.1,0.2l2.2,0l2.2-0.1l2-0.3l1.7-0.4
				l1.3-0.6l0.7-0.6l0.2-0.7l-0.4-0.6l-0.9-0.6l-1.4-0.5l-1.8-0.4l-0.5,0l0-4.1l-0.1,0l0-2.5l4-0.8l167.1,74.8l-1.9,0.5L408.3,88.8"
				/>
			<polygon class="st4" points="417,89.5 417.2,89.5 412.5,90.9 412.4,90.8 			"/>
			<polygon class="st6" points="417,89.5 412.4,90.8 412.7,82.5 417.3,81.2 417.3,83.2 			"/>
			<polygon class="st7" points="417.3,81.2 412.7,82.5 408.5,80.6 410.4,80.1 413.2,79.4 			"/>
			<polygon class="st8" points="405.6,97.8 405.7,98 406,98.3 406.2,98.4 406.3,98.5 406.3,97.7 405.6,97 			"/>
			<polygon class="st9" points="405.6,97.8 405.7,98 406,98.3 406.2,98.4 406.3,98.5 406.7,98.7 407.1,99 407.3,99 407.4,99.1 
				408,99.3 408.5,99.5 408.7,99.5 408.9,99.6 409.8,99.8 410.1,99.9 410.3,99.9 410.7,100 411.7,100.1 412,100.1 412.1,100.1 
				412.5,100.1 413.7,100.1 413.8,100.1 413.9,100.1 414.3,100.1 415.5,100 415.6,100 415.6,100 416.1,99.9 417.1,99.6 417.1,99.6 
				417.1,99.6 417.5,99.5 418.3,99.2 418.3,99.2 418.3,99.2 418.6,99 419.1,98.6 419.1,98.6 419.1,98.5 419.3,98.4 419.4,98 
				419.4,97.9 419.4,97.9 419.4,97.9 419.5,97.7 419.5,96.9 419.2,96.2 418.5,95.5 417.3,94.9 417,94.8 417,94.1 418.1,94.4 
				420.2,95.1 421.8,96.1 422.8,97.1 423,98.1 422.5,99.1 421.3,100 419.5,100.8 417.2,101.2 414.6,101.5 411.8,101.4 409,101.1 
				406.5,100.5 404.4,99.7 402.8,98.8 402,97.8 401.8,96.7 402.3,95.7 403.5,94.8 405.3,94.1 407.6,93.7 408,93.6 408,94.4 
				407.4,94.5 406.3,95 405.6,95.6 405.3,96.3 405.3,96.9 405.3,96.9 405.3,97 405.3,97.1 405.4,97.3 405.4,97.6 405.5,97.8 			"/>
			<polygon class="st10" points="406.7,98.7 406.3,98.5 406.3,97.7 407.5,98.3 407.4,99.1 407.3,99 407.1,99 			"/>
			<polygon class="st12" points="419.3,97.6 419.3,98.4 419.4,98 419.4,97.9 419.4,97.9 419.5,97.7 419.5,96.9 			"/>
			<polygon class="st23" points="419.4,97.9 419.4,97.9 419.4,97.9 			"/>
			<polygon class="st13" points="418.6,98.2 418.6,99 419.1,98.6 419.1,98.6 419.1,98.5 419.3,98.4 419.3,97.6 			"/>
			<polygon class="st14" points="418.3,99.2 417.5,99.5 417.5,98.7 418.6,98.2 418.6,99 418.3,99.2 418.3,99.2 			"/>
			<polygon class="st15" points="417.1,99.6 416.1,99.9 416.1,99.1 417.5,98.7 417.5,99.5 417.1,99.6 417.1,99.6 			"/>
			<polygon class="st16" points="415.5,100 414.3,100.1 414.4,99.3 416.1,99.1 416.1,99.9 415.6,100 415.6,100 			"/>
			<polygon class="st17" points="412.5,99.3 412.5,100.1 413.7,100.1 413.8,100.1 413.9,100.1 414.3,100.1 414.4,99.3 			"/>
			<polygon class="st18" points="410.7,100 411.7,100.1 412,100.1 412.1,100.1 412.5,100.1 412.5,99.3 410.7,99.1 			"/>
			<polygon class="st19" points="409.8,99.8 408.9,99.6 409,98.8 410.7,99.1 410.7,100 410.3,99.9 410.1,99.9 			"/>
			<polygon class="st20" points="408,99.3 407.4,99.1 407.5,98.3 409,98.8 408.9,99.6 408.7,99.5 408.5,99.5 			"/>
			<polygon class="st4" points="405.3,96.9 405.3,97 405.3,97.1 405.4,97.3 405.4,97.6 405.5,97.8 405.6,97.8 405.6,97 405.3,96.3 
							"/>
			<polygon class="st4" points="232.5,8.2 232.6,8.2 232.6,8.1 			"/>
			<polygon class="st2" points="232.6,12.8 232.6,13.1 232.6,14.1 232.7,14.2 232.6,8.2 232.5,8.2 			"/>
			<polygon class="st0" points="232.6,14.1 232.7,14.2 235.3,15.4 235.3,15.4 239.5,14.6 239.5,13 239.5,13 240.5,13.3 241.2,13.7 
				241.6,14.1 241.6,14.6 241.2,15 240.4,15.4 239.4,15.7 238.1,15.9 236.7,16 235.2,16.1 233.8,16 232.5,15.7 231.5,15.4 
				230.8,15.1 230.5,14.6 230.5,14.2 231,13.8 231.7,13.4 232.6,13.1 			"/>
			<polygon class="st1" points="239.5,14.6 235.3,15.4 235.3,9.4 239.4,8.6 239.5,12.7 239.5,13 			"/>
			<polygon class="st2" points="235.3,15.4 235.3,15.4 235.3,9.4 235.2,9.4 			"/>
			<polygon class="st3" points="235.3,15.4 232.7,14.2 232.6,8.2 232.6,8.1 232.6,7.4 232.5,1.5 235.1,2.7 235.2,9.4 			"/>
			<polygon class="st4" points="235.2,9.4 235.3,9.4 239.4,8.6 239.3,8.6 			"/>
			<polygon class="st6" points="239.3,8.6 235.2,9.4 235.1,2.7 239.2,1.9 239.3,6.1 			"/>
			<polygon class="st7" points="239.2,1.9 235.1,2.7 232.5,1.5 236.6,0.7 			"/>
			<polygon class="st8" points="230.5,15 230.5,15.3 230.5,15.3 230.6,15.4 230.7,15.6 230.8,15.7 230.8,15.7 230.8,15.1 
				230.5,14.6 			"/>
			<polygon class="st9" points="230.8,15.7 230.8,15.7 231.1,15.8 231.3,16 231.4,16 231.5,16.1 232,16.2 232.2,16.3 232.4,16.4 
				232.5,16.4 233.2,16.5 233.4,16.6 233.5,16.6 233.8,16.6 234.6,16.7 234.8,16.7 234.9,16.7 235.2,16.7 236.1,16.7 236.2,16.7 
				236.3,16.7 236.7,16.7 237.6,16.6 237.7,16.6 237.7,16.6 238.1,16.6 239,16.4 239,16.4 239,16.4 239.4,16.4 240.1,16.1 
				240.1,16.1 240.2,16.1 240.4,16 240.9,15.8 241,15.7 241,15.7 241.2,15.6 241.4,15.4 241.5,15.3 241.5,15.3 241.6,15.2 241.6,15 
				241.6,14.9 241.6,14.9 241.6,14.9 241.6,14.8 241.6,14.1 241.2,13.7 240.5,13.3 239.5,13 239.5,13 239.5,12.7 239.9,12.8 
				241.7,13.1 243.1,13.6 244,14.2 244.4,14.8 244.2,15.5 243.5,16.1 242.2,16.7 240.5,17.1 238.5,17.4 236.4,17.6 234.2,17.5 
				232.1,17.3 230.3,17 228.9,16.5 228,15.9 227.7,15.2 227.9,14.6 228.7,14 229.9,13.4 231.6,13 232.6,12.8 232.6,13.1 231.7,13.4 
				231,13.8 230.5,14.2 230.5,14.6 230.5,15 230.5,15.2 230.5,15.3 230.5,15.3 230.6,15.4 230.7,15.6 			"/>
			<polygon class="st10" points="230.8,15.7 231.1,15.8 231.3,16 231.4,16 231.5,16.1 231.5,15.4 230.8,15.1 			"/>
			<polygon class="st4" points="241.6,14.6 241.6,15.2 241.6,15 241.6,14.9 241.6,14.9 241.6,14.8 241.6,14.1 			"/>
			<polygon class="st11" points="241.6,14.9 241.6,14.9 241.6,14.9 			"/>
			<polygon class="st12" points="241.2,15 241.2,15.6 241.4,15.4 241.5,15.3 241.5,15.3 241.6,15.2 241.6,14.6 			"/>
			<polygon class="st13" points="240.4,15.4 240.4,16 240.9,15.8 241,15.8 241,15.7 241.2,15.6 241.2,15 			"/>
			<polygon class="st14" points="239.4,15.7 239.4,16.4 240.1,16.1 240.1,16.1 240.2,16.1 240.4,16 240.4,15.4 			"/>
			<polygon class="st15" points="238.1,15.9 238.1,16.6 239,16.4 239,16.4 239,16.4 239.4,16.4 239.4,15.7 			"/>
			<polygon class="st16" points="236.7,16 236.7,16.7 237.6,16.6 237.7,16.6 237.7,16.6 238.1,16.6 238.1,15.9 			"/>
			<polygon class="st17" points="235.2,16.1 235.2,16.7 236.1,16.7 236.2,16.7 236.3,16.7 236.7,16.7 236.7,16 			"/>
			<polygon class="st18" points="233.8,16.6 234.6,16.7 234.8,16.7 234.9,16.7 235.2,16.7 235.2,16.1 233.8,16 			"/>
			<polygon class="st19" points="232.5,16.4 233.2,16.5 233.4,16.6 233.5,16.6 233.8,16.6 233.8,16 232.5,15.7 			"/>
			<polygon class="st20" points="231.5,16.1 232,16.2 232.2,16.3 232.4,16.4 232.5,16.4 232.5,15.7 231.5,15.4 			"/>
			<polygon class="st4" points="50.3,44.4 50.4,44.4 50.4,44.4 			"/>
			<polygon class="st2" points="50.6,49.5 50.7,50 50.7,51 50.8,51.1 50.4,44.4 50.3,44.4 			"/>
			<polygon class="st0" points="50.7,51 50.8,51.1 52.9,52.6 53,52.6 58.1,51.6 58,49.4 59.2,49.6 60.1,50 60.7,50.5 60.8,51 
				60.5,51.5 59.8,52.1 58.7,52.6 57.3,53 55.7,53.3 54,53.4 52.4,53.4 50.9,53.3 49.6,53 48.7,52.6 48.2,52.2 48.1,51.6 48.4,51.1 
				49.1,50.6 50.2,50.1 50.7,50 			"/>
			<polygon class="st1" points="58.1,51.6 53,52.6 52.6,46 57.7,44.9 58,49 58,49.4 			"/>
			<polygon class="st2" points="52.9,52.6 53,52.6 52.6,46 52.5,45.9 			"/>
			<polygon class="st3" points="52.9,52.6 50.8,51.1 50.4,44.4 50.4,44.4 50.3,43.6 49.9,37 52,38.5 52.5,45.9 			"/>
			<polygon class="st4" points="57.7,44.9 57.7,44.9 52.6,46 52.5,45.9 			"/>
			<polygon class="st6" points="57.7,44.9 52.5,45.9 52,38.5 57.2,37.5 57.5,42.2 			"/>
			<polygon class="st7" points="57.2,37.5 52,38.5 49.9,37 55.1,36 			"/>
			<polygon class="st8" points="48.1,52.4 48.1,52.5 48.2,52.8 48.2,52.8 48.2,52.9 48.2,52.2 48.1,51.6 			"/>
			<polygon class="st9" points="48.2,52.8 48.2,52.9 48.4,53.1 48.5,53.2 48.7,53.3 48.7,53.4 49.1,53.5 49.4,53.7 49.5,53.7 
				49.7,53.8 50.3,53.9 50.5,54 50.7,54 50.9,54 51.8,54.1 52,54.1 52.1,54.1 52.4,54.2 53.5,54.2 53.6,54.2 53.7,54.2 54.1,54.1 
				55.2,54 55.3,54 55.3,54 55.8,54 56.8,53.8 56.9,53.8 56.9,53.8 57.3,53.7 58.3,53.4 58.4,53.4 58.4,53.4 58.7,53.3 59.5,53 
				59.5,52.9 59.6,52.9 59.8,52.8 60.3,52.5 60.4,52.4 60.4,52.4 60.5,52.3 60.7,52 60.8,51.9 60.8,51.8 60.8,51.7 60.8,51 
				60.7,50.5 60.1,50 59.2,49.6 58,49.4 58,49 58.1,49 60.3,49.2 62,49.6 63.3,50.2 63.9,51 63.9,51.8 63.3,52.6 62.1,53.4 
				60.3,54.1 58.1,54.7 55.7,55 53.2,55.2 50.7,55.2 48.6,54.9 46.8,54.5 45.6,53.9 45,53.1 45,52.3 45.7,51.5 46.9,50.7 48.7,50 
				50.6,49.5 50.7,50 50.2,50.1 49.1,50.6 48.4,51.1 48.1,51.6 48.1,52.4 48.1,52.5 48.1,52.8 48.2,52.8 			"/>
			<polygon class="st11" points="48.1,52.8 48.2,52.8 48.1,52.5 			"/>
			<polygon class="st10" points="48.2,52.9 48.4,53.1 48.5,53.2 48.7,53.3 48.7,53.4 48.7,52.6 48.2,52.2 			"/>
			<polygon class="st4" points="60.5,51.5 60.5,52.3 60.7,52 60.8,51.9 60.8,51.8 60.8,51.7 60.8,51 			"/>
			<polygon class="st12" points="59.8,52.1 59.8,52.8 60.3,52.5 60.4,52.4 60.4,52.4 60.5,52.3 60.5,51.5 			"/>
			<polygon class="st13" points="59.5,53 58.7,53.3 58.7,52.6 59.8,52.1 59.8,52.8 59.6,52.9 59.5,52.9 			"/>
			<polygon class="st14" points="58.3,53.4 57.3,53.7 57.3,53 58.7,52.6 58.7,53.3 58.4,53.4 58.4,53.4 			"/>
			<polygon class="st15" points="56.8,53.8 55.8,54 55.7,53.3 57.3,53 57.3,53.7 56.9,53.8 56.9,53.8 			"/>
			<polygon class="st16" points="54,53.4 54.1,54.1 55.2,54 55.3,54 55.3,54 55.8,54 55.7,53.2 			"/>
			<polygon class="st17" points="52.4,53.4 52.4,54.2 53.5,54.2 53.6,54.2 53.7,54.2 54.1,54.1 54,53.4 			"/>
			<polygon class="st18" points="50.9,54 51.8,54.1 52,54.1 52.1,54.1 52.4,54.2 52.4,53.4 50.9,53.3 			"/>
			<polygon class="st19" points="50.3,53.9 49.7,53.8 49.6,53 50.9,53.3 50.9,54 50.7,54 50.5,54 			"/>
			<polygon class="st20" points="48.7,53.4 49.1,53.5 49.4,53.7 49.5,53.7 49.7,53.8 49.6,53 48.7,52.6 			"/>
			<polygon class="st24" points="393.2,147.9 393.5,149.9 394.2,125.3 393.9,123.5 			"/>
			<polygon class="st25" points="394.9,151.8 393.5,149.9 394.2,125.3 395.6,127.2 			"/>
			<polygon class="st26" points="397.4,153.6 394.9,151.8 395.7,127.2 398.2,128.8 			"/>
			<polygon class="st27" points="400.9,155.1 397.4,153.6 398.2,128.8 401.7,130.2 			"/>
			<polygon class="st28" points="405,156.1 400.9,155 401.7,130.2 405.8,131.3 			"/>
			<polygon class="st29" points="409.6,156.8 405,156.1 405.8,131.3 410.4,131.9 			"/>
			<polygon class="st30" points="414.2,156.8 409.6,156.8 410.4,131.9 415.1,132 			"/>
			<polygon class="st31" points="418.6,156.4 414.2,156.8 415.1,132 419.5,131.5 			"/>
			<polygon class="st32" points="422.4,155.5 418.6,156.4 419.5,131.5 423.3,130.7 			"/>
			<polygon class="st33" points="425.4,154.1 422.4,155.5 423.3,130.7 426.3,129.4 			"/>
			<polygon class="st34" points="427.3,152.5 425.4,154.1 426.3,129.4 428.3,127.8 			"/>
			<polygon class="st35" points="428.1,150.6 427.3,152.5 428.3,127.8 429,126 			"/>
			<polygon class="st5" points="424.4,120.7 427.1,122.3 428.6,124.1 429,126 428.3,127.8 426.3,129.4 423.3,130.7 419.5,131.5 
				415.1,132 410.4,131.9 405.8,131.3 401.7,130.2 398.2,128.8 395.6,127.2 394.2,125.3 393.9,123.5 394.9,121.7 396.9,120.2 
				399.9,119 401.1,118.7 400.9,124 401.1,125.1 402,126.2 403.5,127.2 405.6,128 408.1,128.6 410.8,129 413.6,129 416.2,128.8 
				418.5,128.3 420.3,127.5 421.5,126.6 422,125.5 422.2,119.8 			"/>
			<polygon class="st27" points="405.6,128 403.5,127.2 403.9,115.9 406,115.3 			"/>
			<polygon class="st28" points="408.1,128.6 405.6,128 406,115.3 408.6,114.5 			"/>
			<polygon class="st24" points="401.2,116.7 401.1,118.7 400.9,124 401.1,125.1 401.4,116.7 			"/>
			<polygon class="st36" points="422,125.5 421.5,126.6 422.1,110.4 422.6,110.3 422.2,119.8 			"/>
			<polygon class="st37" points="413.6,129 410.8,129 411.4,113.7 414.2,112.8 			"/>
			<polygon class="st26" points="403.5,127.2 402,126.2 402.3,116.4 403.9,115.9 			"/>
			<polygon class="st25" points="402,126.2 401.1,125.1 401.4,116.7 402.3,116.4 			"/>
			<polygon class="st38" points="420.3,127.5 418.5,128.3 419.1,111.3 420.9,110.8 			"/>
			<polygon class="st39" points="410.8,129 408.1,128.6 408.6,114.5 411.4,113.7 			"/>
			<polygon class="st40" points="416.2,128.8 413.6,129 414.2,112.8 416.8,112 			"/>
			<polygon class="st41" points="418.5,128.3 416.2,128.8 416.8,112 419.1,111.3 			"/>
			<polygon class="st42" points="421.5,126.6 420.3,127.5 420.9,110.8 422.1,110.4 			"/>
			<polygon class="st25" points="184.8,220.3 184.2,217.8 183.4,190 184,192.5 			"/>
			<polygon class="st26" points="186.8,222.7 184.8,220.3 184,192.5 186,194.7 			"/>
			<polygon class="st27" points="190,224.7 186.8,222.7 186,194.7 189.2,196.6 			"/>
			<polygon class="st28" points="194.2,226.1 190,224.7 189.2,196.6 193.5,197.9 			"/>
			<polygon class="st29" points="199.1,226.9 194.2,226.1 193.5,197.9 198.4,198.7 			"/>
			<polygon class="st30" points="204.4,227 199.1,226.9 198.4,198.7 203.7,198.8 			"/>
			<polygon class="st31" points="209.6,226.5 204.4,227 203.7,198.8 209.1,198.3 			"/>
			<polygon class="st32" points="214.5,225.2 209.6,226.5 209,198.3 214,197.1 			"/>
			<polygon class="st33" points="218.7,223.4 214.5,225.2 214,197.1 218.1,195.4 			"/>
			<polygon class="st34" points="221.8,221.2 218.7,223.4 218.1,195.4 221.3,193.3 			"/>
			<polygon class="st35" points="223.7,218.7 221.8,221.2 221.3,193.3 223.2,190.9 			"/>
			<polygon class="st24" points="224.2,216.1 223.7,218.7 223.2,190.9 223.8,188.4 			"/>
			<polygon class="st5" points="198.4,198.7 193.5,197.9 189.2,196.6 186,194.7 184,192.5 183.4,190 184.2,187.6 186.2,185.2 
				189.5,183.2 191.3,182.5 191.5,189.7 191.9,191.2 193.1,192.5 195,193.6 197.6,194.4 200.5,194.9 203.7,194.9 206.9,194.6 
				209.8,193.9 212.3,192.9 214.2,191.7 215.4,190.2 215.7,188.7 215.6,181.5 217.6,182.1 220.8,183.9 223,186 223.8,188.4 
				223.2,190.9 221.3,193.3 218.1,195.4 214,197.1 209,198.3 203.7,198.8 			"/>
			<polygon class="st43" points="195,193.6 193.1,192.5 192.8,179.7 194.7,179.1 			"/>
			<polygon class="st28" points="197.6,194.4 195,193.6 194.7,179.1 197.2,178.4 			"/>
			<polygon class="st35" points="215.4,190.2 214.2,191.6 213.8,173.4 215,173 			"/>
			<polygon class="st37" points="203.7,194.9 200.5,194.9 200.1,177.5 203.3,176.5 			"/>
			<polygon class="st33" points="212.3,192.9 209.8,193.9 209.4,174.7 211.9,173.9 			"/>
			<polygon class="st39" points="200.5,194.9 197.6,194.4 197.2,178.4 200.1,177.5 			"/>
			<polygon class="st40" points="206.9,194.6 203.7,194.9 203.3,176.5 206.4,175.6 			"/>
			<polygon class="st41" points="209.8,193.9 206.9,194.6 206.4,175.6 209.4,174.7 			"/>
			<polygon class="st42" points="214.2,191.6 212.3,192.9 211.9,173.9 213.8,173.4 			"/>
			<polygon class="st23" points="215,173 215.4,190.2 215.7,188.7 215.6,181.5 215.4,172.9 			"/>
			<polygon class="st44" points="193.1,192.5 191.9,191.2 191.6,180.1 192.8,179.7 			"/>
			<polygon class="st11" points="191.3,180.2 191.3,182.5 191.5,189.7 191.9,191.2 191.6,180.1 			"/>
			<polygon class="st27" points="44.6,103.1 42.6,102 41.2,79.8 43.2,80.9 			"/>
			<polygon class="st28" points="47.6,104 44.6,103.1 43.2,80.9 46.2,81.7 			"/>
			<polygon class="st29" points="51.2,104.5 47.6,104 46.2,81.7 49.8,82.1 			"/>
			<polygon class="st30" points="55.2,104.5 51.2,104.5 49.8,82.1 53.8,82.2 			"/>
			<polygon class="st31" points="59.4,104.2 55.2,104.5 53.8,82.2 58,81.9 			"/>
			<polygon class="st32" points="63.4,103.5 59.4,104.2 58,81.9 60.4,81.5 62.2,82.8 			"/>
			<polygon class="st33" points="67,102.4 63.4,103.5 62.2,82.8 66,85.8 			"/>
			<polygon class="st34" points="69.9,101.1 67,102.4 66,85.8 69.1,88.1 			"/>
			<polygon class="st35" points="71.9,99.6 69.9,101.1 69.1,88.1 71.3,89.8 			"/>
			<polygon class="st24" points="72.9,98.1 71.9,99.6 71.3,89.8 72.5,90.7 			"/>
			<polygon class="st25" points="72.9,98.1 72.8,96.6 72.5,90.7 72.5,90.7 			"/>
			<polygon class="st26" points="42.6,102 41.6,100.6 40.2,78.4 41.2,79.8 			"/>
			<polygon class="st5" points="43.2,80.9 41.2,79.8 40.2,78.4 40.2,77 41.4,75.6 43.5,74.2 46.2,73.1 46.5,77.7 47.1,78.5 
				48.4,79.1 50.1,79.6 52.3,79.9 54.7,79.9 57.2,79.7 58,79.6 60.4,81.5 58,81.9 53.8,82.2 49.8,82.1 46.2,81.7 			"/>
			<polygon class="st27" points="48.4,79.1 47.1,78.5 46.6,70.9 47.9,71.9 			"/>
			<polygon class="st28" points="50.1,79.6 48.4,79.1 47.9,71.9 49.7,73.3 			"/>
			<polygon class="st30" points="54.7,79.9 52.3,79.9 52,75 54.5,76.9 			"/>
			<polygon class="st44" points="47.1,78.5 46.5,77.7 46.2,73.1 46,70.5 46.6,70.9 			"/>
			<polygon class="st29" points="52.3,79.9 50.1,79.6 49.7,73.3 52,75 			"/>
			<polygon class="st31" points="57.2,79.7 54.7,79.9 54.5,76.9 57.1,79 			"/>
			<polygon class="st32" points="57.2,79.7 58,79.6 57.1,79 			"/>
			<polygon class="st36" points="405.3,96.9 405.3,97 405.3,96.9 			"/>
			<polygon class="st23" points="230.5,15.2 230.5,15.3 230.5,15 			"/>
			<polygon class="st21" points="388.9,86 400.8,91.5 398.6,92.1 388.9,87.6 			"/>
			<polygon class="st22" points="375.1,89.8 388.9,86 388.9,87.6 377.2,90.8 			"/>
			<polygon class="st5" points="377.2,90.8 388.9,87.6 398.6,92.1 386.9,95.5 			"/>
			<polygon class="st21" points="354.7,70 365.6,75.1 363.5,75.7 354.7,71.6 			"/>
			<polygon class="st22" points="341.1,73.5 354.7,70 354.7,71.6 343.2,74.5 			"/>
			<polygon class="st5" points="343.2,74.5 354.7,71.6 363.5,75.7 352,78.7 			"/>
			<polygon class="st21" points="323.2,55.3 333.3,60 331.2,60.6 323.2,56.8 			"/>
			<polygon class="st22" points="309.9,58.6 323.2,55.3 323.2,56.8 312,59.6 			"/>
			<polygon class="st5" points="312,59.6 323.2,56.8 331.2,60.6 319.9,63.4 			"/>
			<polygon class="st21" points="294.2,41.8 303.5,46.1 301.4,46.6 294.2,43.2 			"/>
			<polygon class="st22" points="281.1,44.8 294.2,41.8 294.2,43.2 283.1,45.7 			"/>
			<polygon class="st5" points="283.1,45.7 294.2,43.2 301.4,46.6 290.3,49.2 			"/>
			<polygon class="st21" points="267.3,29.2 275.9,33.2 273.8,33.7 267.3,30.6 			"/>
			<polygon class="st22" points="254.4,32 267.3,29.2 267.3,30.6 256.4,32.9 			"/>
			<polygon class="st5" points="267.3,30.6 273.8,33.7 263,36.1 256.4,32.9 			"/>
			<polygon class="st21" points="242.2,17.5 250.2,21.3 248.3,21.7 242.3,18.9 			"/>
			<polygon class="st22" points="229.7,20.1 242.2,17.5 242.3,18.9 231.7,21.1 			"/>
			<polygon class="st5" points="242.3,18.9 248.3,21.7 237.6,23.9 231.7,21.1 			"/>
			<polygon class="st21" points="215.9,31.4 223.9,35.5 222,35.9 215.9,32.8 			"/>
			<polygon class="st22" points="202.5,34.3 215.9,31.4 215.9,32.8 204.4,35.3 			"/>
			<polygon class="st5" points="204.4,35.3 215.9,32.8 222,35.9 210.5,38.4 			"/>
			<polygon class="st21" points="241,44.2 249.7,48.6 247.7,49 241,45.6 			"/>
			<polygon class="st22" points="227.4,47.2 241,44.2 241,45.6 229.3,48.3 			"/>
			<polygon class="st5" points="241,45.6 247.7,49 235.9,51.7 229.3,48.3 			"/>
			<polygon class="st21" points="268.1,57.9 277.5,62.7 275.5,63.2 268.1,59.4 			"/>
			<polygon class="st22" points="254.2,61.2 268.1,57.9 268.1,59.4 256.2,62.3 			"/>
			<polygon class="st5" points="268.1,59.4 275.5,63.2 263.5,66.1 256.2,62.3 			"/>
			<polygon class="st21" points="297.6,72.9 307.8,78 305.7,78.6 297.6,74.4 			"/>
			<polygon class="st22" points="283.3,76.4 297.6,72.9 297.6,74.4 285.3,77.5 			"/>
			<polygon class="st5" points="297.6,74.4 305.7,78.6 293.4,81.7 285.3,77.5 			"/>
			<polygon class="st21" points="329.5,89.1 340.7,94.7 338.6,95.3 329.5,90.7 			"/>
			<polygon class="st22" points="315,93 329.5,89.1 329.5,90.7 317.1,94 			"/>
			<polygon class="st5" points="329.5,90.7 338.6,95.3 326,98.7 317.1,94 			"/>
			<polygon class="st21" points="300.1,110.6 311.4,116.9 309.3,117.5 300.1,112.3 			"/>
			<polygon class="st22" points="284.4,115 300.1,110.6 300.1,112.3 286.4,116.1 			"/>
			<polygon class="st5" points="300.1,112.3 309.3,117.5 295.6,121.4 286.4,116.1 			"/>
			<polygon class="st21" points="267.7,92.6 278,98.3 276,98.9 267.7,94.2 			"/>
			<polygon class="st22" points="252.4,96.6 267.7,92.6 267.7,94.2 254.4,97.7 			"/>
			<polygon class="st5" points="254.4,97.7 267.7,94.2 276,98.9 262.6,102.4 			"/>
			<polygon class="st21" points="238.1,76.1 247.5,81.4 245.6,81.8 238.1,77.7 			"/>
			<polygon class="st22" points="223.1,79.7 238.1,76.1 238.1,77.7 225,80.9 			"/>
			<polygon class="st5" points="238.1,77.7 245.6,81.8 232.5,85.1 225,80.8 			"/>
			<polygon class="st21" points="210.8,60.9 219.5,65.8 217.6,66.2 210.8,62.4 			"/>
			<polygon class="st22" points="196.2,64.3 210.8,60.9 210.8,62.4 198.1,65.4 			"/>
			<polygon class="st5" points="210.8,62.4 217.6,66.2 204.8,69.2 198.1,65.4 			"/>
			<polygon class="st21" points="185.7,46.9 193.7,51.4 191.8,51.8 185.7,48.4 			"/>
			<polygon class="st22" points="171.4,50 185.7,46.9 185.7,48.4 173.3,51.1 			"/>
			<polygon class="st5" points="173.3,51.1 185.7,48.4 191.8,51.8 179.3,54.6 			"/>
			<polygon class="st21" points="162.4,34 169.8,38.1 168,38.5 162.4,35.4 			"/>
			<polygon class="st22" points="148.5,36.9 162.4,34 162.4,35.4 150.3,37.9 			"/>
			<polygon class="st5" points="150.3,37.9 162.4,35.4 168,38.5 155.8,41.1 			"/>
			<polygon class="st21" points="129.4,49.7 136.8,54.3 135,54.7 129.4,51.2 			"/>
			<polygon class="st22" points="114.5,52.9 129.4,49.7 129.4,51.2 116.3,54 			"/>
			<polygon class="st5" points="116.3,54 129.4,51.2 135,54.7 121.8,57.5 			"/>
			<polygon class="st21" points="152.4,64 160.4,68.9 158.7,69.3 152.5,65.5 			"/>
			<polygon class="st22" points="137.2,67.4 152.4,64 152.5,65.5 139,68.5 			"/>
			<polygon class="st5" points="139,68.5 152.5,65.5 158.7,69.3 145,72.4 			"/>
			<polygon class="st21" points="177.5,79.4 186.2,84.8 184.3,85.2 177.5,81 			"/>
			<polygon class="st22" points="161.8,83.1 177.5,79.4 177.5,81 163.6,84.3 			"/>
			<polygon class="st5" points="163.6,84.3 177.5,81 184.3,85.2 170.3,88.6 			"/>
			<polygon class="st21" points="204.7,96.2 214.2,102 212.3,102.5 204.7,97.8 			"/>
			<polygon class="st22" points="188.6,100.2 204.7,96.2 204.7,97.8 190.5,101.4 			"/>
			<polygon class="st5" points="190.5,101.4 204.7,97.8 212.3,102.5 198,106.2 			"/>
			<polygon class="st21" points="234.5,114.6 244.9,121 242.9,121.5 234.5,116.3 			"/>
			<polygon class="st22" points="218,119 234.5,114.6 234.5,116.3 219.9,120.2 			"/>
			<polygon class="st5" points="219.9,120.2 234.5,116.3 242.9,121.5 228.2,125.5 			"/>
			<polygon class="st21" points="169.4,118.1 178.8,124.6 177,125.1 169.4,119.8 			"/>
			<polygon class="st22" points="152,122.6 169.4,118.1 169.4,119.8 153.8,123.9 			"/>
			<polygon class="st5" points="169.4,119.8 177,125.1 161.3,129.3 153.8,123.9 			"/>
			<polygon class="st21" points="142.3,99.5 150.9,105.4 149.1,105.8 142.3,101.1 			"/>
			<polygon class="st22" points="125.4,103.6 142.3,99.5 142.3,101.1 127.1,104.8 			"/>
			<polygon class="st5" points="142.3,101.1 149.1,105.8 133.9,109.6 127.1,104.8 			"/>
			<polygon class="st21" points="117.5,82.4 125.4,87.8 123.7,88.2 117.5,84 			"/>
			<polygon class="st22" points="101.1,86.1 117.5,82.4 117.5,84 102.8,87.4 			"/>
			<polygon class="st5" points="117.5,84 123.7,88.2 108.8,91.7 102.8,87.4 			"/>
			<polygon class="st21" points="94.7,66.7 102,71.7 100.4,72.1 94.8,68.2 			"/>
			<polygon class="st22" points="78.8,70.2 94.7,66.7 94.8,68.2 80.5,71.4 			"/>
			<polygon class="st5" points="80.5,71.4 94.8,68.2 100.4,72.1 85.9,75.3 			"/>
			<polygon class="st21" points="73.8,52.3 80.5,56.9 78.9,57.2 73.9,53.7 			"/>
			<polygon class="st22" points="58.3,55.5 73.8,52.3 73.9,53.8 59.9,56.6 			"/>
			<polygon class="st5" points="73.9,53.8 78.9,57.2 64.9,60.2 59.9,56.6 			"/>
			<polyline class="st45" points="403.5,127.2 405.6,128 408.1,128.6 			"/>
			<line class="st45" x1="401.1" y1="125.1" x2="400.9" y2="124"/>
			<line class="st45" x1="421.5" y1="126.6" x2="422" y2="125.5"/>
			<line class="st45" x1="410.8" y1="129" x2="413.6" y2="129"/>
			<line class="st45" x1="402" y1="126.2" x2="403.5" y2="127.2"/>
			<line class="st45" x1="402" y1="126.2" x2="401.1" y2="125.1"/>
			<line class="st45" x1="418.5" y1="128.3" x2="420.3" y2="127.5"/>
			<line class="st45" x1="408.1" y1="128.6" x2="410.8" y2="129"/>
			<polyline class="st45" points="413.6,129 416.2,128.8 418.5,128.3 			"/>
			<line class="st45" x1="420.3" y1="127.5" x2="421.5" y2="126.6"/>
			<polyline class="st45" points="193.1,192.5 195,193.6 197.6,194.4 			"/>
			<line class="st45" x1="214.2" y1="191.6" x2="215.4" y2="190.2"/>
			<line class="st45" x1="200.5" y1="194.9" x2="203.7" y2="194.9"/>
			<line class="st45" x1="209.8" y1="193.9" x2="212.3" y2="192.9"/>
			<line class="st45" x1="197.6" y1="194.4" x2="200.5" y2="194.9"/>
			<polyline class="st45" points="203.7,194.9 206.9,194.6 209.8,193.9 			"/>
			<line class="st45" x1="212.3" y1="192.9" x2="214.2" y2="191.7"/>
			<line class="st45" x1="215.4" y1="190.2" x2="215.7" y2="188.7"/>
			<polyline class="st45" points="193.1,192.5 191.9,191.2 191.5,189.7 			"/>
			<polyline class="st45" points="47.1,78.5 48.4,79.1 50.1,79.6 			"/>
			<line class="st45" x1="52.3" y1="79.9" x2="54.7" y2="79.9"/>
			<line class="st45" x1="47.1" y1="78.5" x2="46.5" y2="77.7"/>
			<line class="st45" x1="50.1" y1="79.6" x2="52.3" y2="79.9"/>
			<polyline class="st45" points="54.7,79.9 57.2,79.7 58,79.6 			"/>
			<line class="st45" x1="201.7" y1="159.6" x2="201.5" y2="151.1"/>
			<line class="st45" x1="197.7" y1="148.5" x2="197.8" y2="148.5"/>
			<polyline class="st45" points="201.4,151.1 201.5,151.1 207.7,149.4 			"/>
			<line class="st45" x1="201.2" y1="141.6" x2="207.4" y2="139.9"/>
			<line class="st45" x1="197.6" y1="139.2" x2="201.2" y2="141.6"/>
			<line class="st45" x1="194.8" y1="157.9" x2="195.2" y2="158.8"/>
			<line class="st45" x1="197.6" y1="160.3" x2="199.4" y2="160.7"/>
			<line class="st45" x1="195.2" y1="158.8" x2="196.2" y2="159.6"/>
			<line class="st45" x1="210.9" y1="157.7" x2="211" y2="156.8"/>
			<line class="st45" x1="210.3" y1="158.6" x2="210.9" y2="157.7"/>
			<line class="st45" x1="209.1" y1="159.5" x2="210.3" y2="158.6"/>
			<line class="st45" x1="207.6" y1="160.1" x2="209.1" y2="159.5"/>
			<line class="st45" x1="205.7" y1="160.6" x2="207.6" y2="160.1"/>
			<line class="st45" x1="203.6" y1="160.9" x2="205.7" y2="160.6"/>
			<line class="st45" x1="201.4" y1="160.9" x2="203.6" y2="160.9"/>
			<line class="st45" x1="199.4" y1="160.7" x2="201.4" y2="160.9"/>
			<line class="st45" x1="196.2" y1="159.6" x2="197.6" y2="160.3"/>
			<line class="st45" x1="412.3" y1="98.3" x2="412.5" y2="90.9"/>
			<line class="st45" x1="408.1" y1="88.8" x2="408.3" y2="88.9"/>
			<polyline class="st45" points="412.4,90.8 412.5,90.9 417.2,89.5 			"/>
			<line class="st45" x1="412.7" y1="82.5" x2="417.3" y2="81.2"/>
			<line class="st45" x1="408.5" y1="80.6" x2="412.7" y2="82.5"/>
			<line class="st45" x1="405.6" y1="97" x2="406.3" y2="97.7"/>
			<line class="st45" x1="409" y1="98.8" x2="410.7" y2="99.1"/>
			<line class="st45" x1="406.3" y1="97.7" x2="407.5" y2="98.3"/>
			<line class="st45" x1="419.3" y1="97.6" x2="419.5" y2="96.9"/>
			<line class="st45" x1="418.6" y1="98.2" x2="419.3" y2="97.6"/>
			<line class="st45" x1="417.5" y1="98.7" x2="418.6" y2="98.2"/>
			<line class="st45" x1="416.1" y1="99.1" x2="417.5" y2="98.7"/>
			<line class="st45" x1="414.4" y1="99.3" x2="416.1" y2="99.1"/>
			<line class="st45" x1="412.5" y1="99.3" x2="414.4" y2="99.3"/>
			<line class="st45" x1="410.7" y1="99.1" x2="412.5" y2="99.3"/>
			<line class="st45" x1="407.5" y1="98.3" x2="409" y2="98.8"/>
			<line class="st45" x1="405.3" y1="96.3" x2="405.6" y2="97"/>
			<line class="st45" x1="235.3" y1="15.4" x2="235.3" y2="9.4"/>
			<line class="st45" x1="232.5" y1="8.2" x2="232.6" y2="8.2"/>
			<polyline class="st45" points="235.2,9.4 235.3,9.4 239.4,8.6 			"/>
			<line class="st45" x1="235.1" y1="2.7" x2="239.2" y2="1.9"/>
			<line class="st45" x1="232.5" y1="1.5" x2="235.1" y2="2.7"/>
			<line class="st45" x1="230.5" y1="14.6" x2="230.8" y2="15.1"/>
			<line class="st45" x1="232.5" y1="15.7" x2="233.8" y2="16"/>
			<line class="st45" x1="230.8" y1="15.1" x2="231.5" y2="15.4"/>
			<line class="st45" x1="241.6" y1="14.6" x2="241.6" y2="14.1"/>
			<line class="st45" x1="241.2" y1="15" x2="241.6" y2="14.6"/>
			<line class="st45" x1="240.4" y1="15.4" x2="241.2" y2="15"/>
			<line class="st45" x1="239.4" y1="15.7" x2="240.4" y2="15.4"/>
			<line class="st45" x1="238.1" y1="15.9" x2="239.4" y2="15.7"/>
			<line class="st45" x1="236.7" y1="16" x2="238.1" y2="15.9"/>
			<line class="st45" x1="235.2" y1="16.1" x2="236.7" y2="16"/>
			<line class="st45" x1="233.8" y1="16" x2="235.2" y2="16.1"/>
			<line class="st45" x1="231.5" y1="15.4" x2="232.5" y2="15.7"/>
			<line class="st45" x1="53" y1="52.6" x2="52.6" y2="46"/>
			<line class="st45" x1="50.3" y1="44.4" x2="50.4" y2="44.4"/>
			<polyline class="st45" points="52.5,45.9 52.6,46 57.7,44.9 			"/>
			<line class="st45" x1="52" y1="38.5" x2="57.2" y2="37.5"/>
			<line class="st45" x1="49.9" y1="37" x2="52" y2="38.5"/>
			<line class="st45" x1="48.1" y1="51.6" x2="48.2" y2="52.2"/>
			<line class="st45" x1="49.6" y1="53" x2="50.9" y2="53.3"/>
			<line class="st45" x1="48.2" y1="52.2" x2="48.7" y2="52.6"/>
			<line class="st45" x1="60.5" y1="51.5" x2="60.8" y2="51"/>
			<line class="st45" x1="59.8" y1="52.1" x2="60.5" y2="51.5"/>
			<line class="st45" x1="58.7" y1="52.6" x2="59.8" y2="52.1"/>
			<line class="st45" x1="57.3" y1="53" x2="58.7" y2="52.6"/>
			<line class="st45" x1="55.7" y1="53.3" x2="57.3" y2="53"/>
			<line class="st45" x1="54" y1="53.4" x2="55.7" y2="53.3"/>
			<line class="st45" x1="52.4" y1="53.4" x2="54" y2="53.4"/>
			<line class="st45" x1="50.9" y1="53.3" x2="52.4" y2="53.4"/>
			<line class="st45" x1="48.7" y1="52.6" x2="49.6" y2="53"/>
			<polyline class="st45" points="393.9,123.5 394.2,125.3 395.6,127.2 398.2,128.8 401.7,130.2 405.8,131.3 410.4,131.9 415.1,132 
				419.5,131.5 423.3,130.7 426.3,129.4 428.3,127.8 429,126 			"/>
			<polyline class="st45" points="193.5,197.9 198.4,198.7 203.7,198.8 209.1,198.3 214,197.1 218.1,195.4 221.3,193.3 223.2,190.9 
				223.8,188.4 			"/>
			<polyline class="st45" points="183.4,190 184,192.5 186,194.7 189.2,196.6 193.5,197.9 			"/>
			<polyline class="st45" points="41.2,79.8 43.2,80.9 46.2,81.7 49.8,82.1 53.8,82.2 58,81.9 60.4,81.5 			"/>
			<line class="st45" x1="40.2" y1="78.4" x2="41.2" y2="79.8"/>
			<line class="st45" x1="388.9" y1="86" x2="400.8" y2="91.5"/>
			<line class="st45" x1="375.1" y1="89.8" x2="388.9" y2="86"/>
			<line class="st45" x1="354.7" y1="70" x2="365.6" y2="75.1"/>
			<line class="st45" x1="341.1" y1="73.5" x2="354.7" y2="70"/>
			<polyline class="st45" points="333.3,60 323.2,55.3 309.9,58.6 			"/>
			<line class="st45" x1="294.2" y1="41.8" x2="303.5" y2="46.1"/>
			<line class="st45" x1="281.1" y1="44.8" x2="294.2" y2="41.8"/>
			<line class="st45" x1="267.3" y1="29.2" x2="275.9" y2="33.2"/>
			<line class="st45" x1="254.4" y1="32" x2="267.3" y2="29.2"/>
			<line class="st45" x1="242.2" y1="17.5" x2="250.2" y2="21.3"/>
			<line class="st45" x1="229.7" y1="20.1" x2="242.2" y2="17.5"/>
			<line class="st45" x1="215.9" y1="31.4" x2="223.9" y2="35.5"/>
			<line class="st45" x1="202.5" y1="34.3" x2="215.9" y2="31.4"/>
			<line class="st45" x1="241" y1="44.2" x2="249.7" y2="48.6"/>
			<line class="st45" x1="227.4" y1="47.2" x2="241" y2="44.2"/>
			<line class="st45" x1="268.1" y1="57.9" x2="277.5" y2="62.7"/>
			<line class="st45" x1="254.2" y1="61.2" x2="268.1" y2="57.9"/>
			<line class="st45" x1="297.6" y1="72.9" x2="307.8" y2="78"/>
			<line class="st45" x1="283.3" y1="76.4" x2="297.6" y2="72.9"/>
			<line class="st45" x1="329.5" y1="89.1" x2="340.7" y2="94.7"/>
			<line class="st45" x1="315" y1="93" x2="329.5" y2="89.1"/>
			<line class="st45" x1="300.1" y1="110.6" x2="311.4" y2="116.9"/>
			<line class="st45" x1="284.4" y1="115" x2="300.1" y2="110.6"/>
			<line class="st45" x1="267.7" y1="92.6" x2="278" y2="98.3"/>
			<line class="st45" x1="252.4" y1="96.6" x2="267.7" y2="92.6"/>
			<line class="st45" x1="238.1" y1="76.1" x2="247.5" y2="81.4"/>
			<line class="st45" x1="223.1" y1="79.7" x2="238.1" y2="76.1"/>
			<line class="st45" x1="210.8" y1="60.9" x2="219.5" y2="65.8"/>
			<line class="st45" x1="196.2" y1="64.3" x2="210.8" y2="60.9"/>
			<line class="st45" x1="185.7" y1="46.9" x2="193.7" y2="51.4"/>
			<line class="st45" x1="171.4" y1="50" x2="185.7" y2="46.9"/>
			<line class="st45" x1="162.4" y1="34" x2="169.8" y2="38.1"/>
			<line class="st45" x1="148.5" y1="36.9" x2="162.4" y2="34"/>
			<line class="st45" x1="129.4" y1="49.7" x2="136.8" y2="54.3"/>
			<line class="st45" x1="114.5" y1="52.9" x2="129.4" y2="49.7"/>
			<line class="st45" x1="152.4" y1="64" x2="160.4" y2="68.9"/>
			<line class="st45" x1="137.2" y1="67.4" x2="152.4" y2="64"/>
			<line class="st45" x1="177.5" y1="79.4" x2="186.2" y2="84.8"/>
			<line class="st45" x1="161.8" y1="83.1" x2="177.5" y2="79.4"/>
			<line class="st45" x1="204.7" y1="96.2" x2="214.2" y2="102"/>
			<line class="st45" x1="188.6" y1="100.2" x2="204.7" y2="96.2"/>
			<line class="st45" x1="234.5" y1="114.6" x2="244.9" y2="121"/>
			<line class="st45" x1="218" y1="119" x2="234.5" y2="114.6"/>
			<line class="st45" x1="199.1" y1="138.6" x2="199.2" y2="138.7"/>
			<line class="st45" x1="207.5" y1="144.4" x2="209.5" y2="145.8"/>
			<line class="st45" x1="181.2" y1="143.6" x2="199.1" y2="138.6"/>
			<line class="st45" x1="169.4" y1="118.1" x2="178.8" y2="124.6"/>
			<line class="st45" x1="152" y1="122.6" x2="169.4" y2="118.1"/>
			<line class="st45" x1="142.3" y1="99.5" x2="150.9" y2="105.4"/>
			<line class="st45" x1="125.4" y1="103.6" x2="142.3" y2="99.5"/>
			<line class="st45" x1="117.5" y1="82.4" x2="125.4" y2="87.8"/>
			<line class="st45" x1="101.1" y1="86.1" x2="117.5" y2="82.4"/>
			<line class="st45" x1="94.7" y1="66.7" x2="102" y2="71.7"/>
			<line class="st45" x1="78.8" y1="70.2" x2="94.7" y2="66.7"/>
			<line class="st45" x1="73.8" y1="52.3" x2="80.5" y2="56.9"/>
			<line class="st45" x1="58.3" y1="55.5" x2="73.8" y2="52.3"/>
			<polyline class="st45" points="377.2,90.8 388.9,87.6 398.6,92.1 			"/>
			<line class="st45" x1="388.9" y1="86" x2="388.9" y2="87.6"/>
			<polyline class="st45" points="343.2,74.5 354.7,71.6 363.5,75.7 			"/>
			<line class="st45" x1="354.7" y1="70" x2="354.7" y2="71.6"/>
			<line class="st45" x1="323.2" y1="56.8" x2="312" y2="59.6"/>
			<line class="st45" x1="331.2" y1="60.6" x2="323.2" y2="56.8"/>
			<line class="st45" x1="323.2" y1="55.3" x2="323.2" y2="56.8"/>
			<polyline class="st45" points="283.1,45.7 294.2,43.2 301.4,46.6 			"/>
			<line class="st45" x1="294.2" y1="41.8" x2="294.2" y2="43.2"/>
			<line class="st45" x1="267.3" y1="30.6" x2="273.8" y2="33.7"/>
			<line class="st45" x1="256.4" y1="32.9" x2="267.3" y2="30.6"/>
			<line class="st45" x1="267.3" y1="29.2" x2="267.3" y2="30.6"/>
			<line class="st45" x1="242.3" y1="18.9" x2="248.3" y2="21.7"/>
			<line class="st45" x1="231.7" y1="21.1" x2="242.3" y2="18.9"/>
			<line class="st45" x1="242.2" y1="17.5" x2="242.3" y2="18.9"/>
			<polyline class="st45" points="204.4,35.3 215.9,32.8 222,35.9 			"/>
			<line class="st45" x1="215.9" y1="31.4" x2="215.9" y2="32.8"/>
			<line class="st45" x1="241" y1="45.6" x2="247.7" y2="49"/>
			<line class="st45" x1="229.3" y1="48.3" x2="241" y2="45.6"/>
			<line class="st45" x1="241" y1="44.2" x2="241" y2="45.6"/>
			<line class="st45" x1="268.1" y1="59.4" x2="275.5" y2="63.2"/>
			<line class="st45" x1="256.2" y1="62.3" x2="268.1" y2="59.4"/>
			<line class="st45" x1="268.1" y1="57.9" x2="268.1" y2="59.4"/>
			<line class="st45" x1="297.6" y1="74.4" x2="305.7" y2="78.6"/>
			<line class="st45" x1="285.3" y1="77.5" x2="297.6" y2="74.4"/>
			<line class="st45" x1="297.6" y1="72.9" x2="297.6" y2="74.4"/>
			<line class="st45" x1="329.5" y1="90.7" x2="338.6" y2="95.3"/>
			<line class="st45" x1="317.1" y1="94" x2="329.5" y2="90.7"/>
			<line class="st45" x1="329.5" y1="89.1" x2="329.5" y2="90.7"/>
			<line class="st45" x1="300.1" y1="112.3" x2="309.3" y2="117.5"/>
			<line class="st45" x1="286.4" y1="116.1" x2="300.1" y2="112.3"/>
			<line class="st45" x1="300.1" y1="110.6" x2="300.1" y2="112.3"/>
			<polyline class="st45" points="254.4,97.7 267.7,94.2 276,98.9 			"/>
			<line class="st45" x1="267.7" y1="92.6" x2="267.7" y2="94.2"/>
			<line class="st45" x1="238.1" y1="77.7" x2="245.6" y2="81.8"/>
			<line class="st45" x1="225" y1="80.8" x2="238.1" y2="77.7"/>
			<line class="st45" x1="238.1" y1="76.1" x2="238.1" y2="77.7"/>
			<line class="st45" x1="210.8" y1="62.4" x2="217.6" y2="66.2"/>
			<line class="st45" x1="198.1" y1="65.4" x2="210.8" y2="62.4"/>
			<line class="st45" x1="210.8" y1="60.9" x2="210.8" y2="62.4"/>
			<polyline class="st45" points="173.3,51.1 185.7,48.4 191.8,51.8 			"/>
			<line class="st45" x1="185.7" y1="46.9" x2="185.7" y2="48.4"/>
			<polyline class="st45" points="150.3,37.9 162.4,35.4 168,38.5 			"/>
			<line class="st45" x1="162.4" y1="34" x2="162.4" y2="35.4"/>
			<polyline class="st45" points="116.3,54 129.4,51.2 135,54.7 			"/>
			<line class="st45" x1="129.4" y1="49.7" x2="129.4" y2="51.2"/>
			<polyline class="st45" points="139,68.5 152.5,65.5 158.7,69.3 			"/>
			<line class="st45" x1="152.4" y1="64" x2="152.5" y2="65.5"/>
			<polyline class="st45" points="163.6,84.3 177.5,81 184.3,85.2 			"/>
			<line class="st45" x1="177.5" y1="79.4" x2="177.5" y2="81"/>
			<polyline class="st45" points="190.5,101.4 204.7,97.8 212.3,102.5 			"/>
			<line class="st45" x1="204.7" y1="96.2" x2="204.7" y2="97.8"/>
			<polyline class="st45" points="219.9,120.2 234.5,116.3 242.9,121.5 			"/>
			<line class="st45" x1="234.5" y1="114.6" x2="234.5" y2="116.3"/>
			<line class="st45" x1="183.1" y1="144.9" x2="197.7" y2="140.8"/>
			<line class="st45" x1="207.5" y1="146.2" x2="207.7" y2="146.3"/>
			<line class="st45" x1="199.1" y1="138.6" x2="199.1" y2="138.7"/>
			<line class="st45" x1="169.4" y1="119.8" x2="177" y2="125.1"/>
			<line class="st45" x1="153.8" y1="123.9" x2="169.4" y2="119.8"/>
			<line class="st45" x1="169.4" y1="118.1" x2="169.4" y2="119.8"/>
			<line class="st45" x1="142.3" y1="101.1" x2="149.1" y2="105.8"/>
			<line class="st45" x1="127.1" y1="104.8" x2="142.3" y2="101.1"/>
			<line class="st45" x1="142.3" y1="99.5" x2="142.3" y2="101.1"/>
			<line class="st45" x1="117.5" y1="84" x2="123.7" y2="88.2"/>
			<line class="st45" x1="102.8" y1="87.4" x2="117.5" y2="84"/>
			<line class="st45" x1="117.5" y1="82.4" x2="117.5" y2="84"/>
			<polyline class="st45" points="80.5,71.4 94.8,68.2 100.4,72.1 			"/>
			<line class="st45" x1="94.7" y1="66.7" x2="94.8" y2="68.2"/>
			<line class="st45" x1="73.9" y1="53.8" x2="78.9" y2="57.2"/>
			<line class="st45" x1="59.9" y1="56.6" x2="73.9" y2="53.8"/>
			<line class="st45" x1="73.8" y1="52.3" x2="73.9" y2="53.7"/>
			<line class="st45" x1="48.1" y1="52.5" x2="48.1" y2="52.8"/>
			<line class="st45" x1="211.1" y1="158" x2="211" y2="157.9"/>
			<line class="st45" x1="194.8" y1="158.5" x2="194.8" y2="158.6"/>
			<line class="st45" x1="419.4" y1="97.9" x2="419.4" y2="97.9"/>
			<line class="st45" x1="405.3" y1="96.9" x2="405.3" y2="96.9"/>
			<line class="st45" x1="241.6" y1="14.9" x2="241.6" y2="14.9"/>
			<line class="st45" x1="230.5" y1="15" x2="230.5" y2="15.2"/>
			<line class="st45" x1="201.4" y1="151.1" x2="201.2" y2="141.6"/>
			<line class="st45" x1="412.4" y1="90.8" x2="412.7" y2="82.5"/>
			<line class="st45" x1="235.2" y1="9.4" x2="235.1" y2="2.7"/>
			<line class="st45" x1="52.5" y1="45.9" x2="52" y2="38.5"/>
			<line class="st46" x1="201.7" y1="159.6" x2="207.9" y2="157.8"/>
			<line class="st46" x1="197.9" y1="156.9" x2="198" y2="156.9"/>
			<line class="st46" x1="201.4" y1="151.1" x2="207.6" y2="149.3"/>
			<line class="st46" x1="201.6" y1="159.5" x2="201.7" y2="159.6"/>
			<line class="st46" x1="198" y1="156.9" x2="201.6" y2="159.5"/>
			<line class="st46" x1="412.3" y1="98.3" x2="416.9" y2="96.9"/>
			<line class="st46" x1="407.9" y1="96.2" x2="408" y2="96.3"/>
			<line class="st46" x1="412.4" y1="90.8" x2="417" y2="89.5"/>
			<line class="st46" x1="412.1" y1="98.2" x2="412.3" y2="98.3"/>
			<line class="st46" x1="408" y1="96.3" x2="412.1" y2="98.2"/>
			<line class="st46" x1="235.3" y1="15.4" x2="239.5" y2="14.6"/>
			<line class="st46" x1="232.6" y1="14.1" x2="232.7" y2="14.2"/>
			<line class="st46" x1="235.2" y1="9.4" x2="239.3" y2="8.6"/>
			<line class="st46" x1="235.3" y1="15.4" x2="235.3" y2="15.4"/>
			<line class="st46" x1="232.7" y1="14.2" x2="235.3" y2="15.4"/>
			<line class="st46" x1="53" y1="52.6" x2="58.1" y2="51.6"/>
			<line class="st46" x1="50.7" y1="51" x2="50.8" y2="51.1"/>
			<line class="st46" x1="52.5" y1="45.9" x2="57.7" y2="44.9"/>
			<line class="st46" x1="52.9" y1="52.6" x2="53" y2="52.6"/>
			<line class="st46" x1="50.8" y1="51.1" x2="52.9" y2="52.6"/>
			<line class="st46" x1="197.8" y1="148.4" x2="197.7" y2="148.5"/>
			<line class="st46" x1="198" y1="156.9" x2="197.8" y2="148.5"/>
			<line class="st46" x1="207.7" y1="149.4" x2="207.6" y2="149.3"/>
			<line class="st46" x1="201.6" y1="159.5" x2="201.4" y2="151.1"/>
			<line class="st46" x1="207.4" y1="139.9" x2="203.8" y2="137.4"/>
			<line class="st46" x1="211.1" y1="157.7" x2="211" y2="156.8"/>
			<line class="st46" x1="195.6" y1="156.1" x2="194.9" y2="157"/>
			<line class="st46" x1="196.8" y1="155.3" x2="195.6" y2="156.1"/>
			<line class="st46" x1="197.9" y1="154.8" x2="196.8" y2="155.3"/>
			<line class="st46" x1="208.2" y1="154.5" x2="207.8" y2="154.4"/>
			<line class="st46" x1="209.6" y1="155.1" x2="208.2" y2="154.5"/>
			<line class="st46" x1="210.6" y1="155.9" x2="209.6" y2="155.1"/>
			<line class="st46" x1="211" y1="156.8" x2="210.6" y2="155.9"/>
			<line class="st46" x1="194.9" y1="157" x2="194.8" y2="157.9"/>
			<line class="st46" x1="408.3" y1="88.8" x2="408.1" y2="88.8"/>
			<line class="st46" x1="408" y1="96.3" x2="408.3" y2="88.9"/>
			<line class="st46" x1="417.2" y1="89.5" x2="417" y2="89.5"/>
			<line class="st46" x1="412.1" y1="98.2" x2="412.4" y2="90.8"/>
			<line class="st46" x1="417.3" y1="81.2" x2="413.2" y2="79.4"/>
			<line class="st46" x1="419.5" y1="96.9" x2="419.2" y2="96.2"/>
			<line class="st46" x1="419.5" y1="97.7" x2="419.5" y2="96.9"/>
			<line class="st46" x1="405.6" y1="95.6" x2="405.3" y2="96.3"/>
			<line class="st46" x1="406.3" y1="95" x2="405.6" y2="95.6"/>
			<line class="st46" x1="407.4" y1="94.5" x2="406.3" y2="95"/>
			<line class="st46" x1="408" y1="94.4" x2="407.4" y2="94.5"/>
			<line class="st46" x1="417.3" y1="94.9" x2="417" y2="94.8"/>
			<line class="st46" x1="418.5" y1="95.5" x2="417.3" y2="94.9"/>
			<line class="st46" x1="419.2" y1="96.2" x2="418.5" y2="95.5"/>
			<line class="st46" x1="232.6" y1="8.1" x2="232.5" y2="8.2"/>
			<line class="st46" x1="232.7" y1="14.2" x2="232.6" y2="8.2"/>
			<line class="st46" x1="239.4" y1="8.6" x2="239.3" y2="8.6"/>
			<line class="st46" x1="235.3" y1="15.4" x2="235.2" y2="9.4"/>
			<line class="st46" x1="236.6" y1="0.7" x2="232.5" y2="1.5"/>
			<line class="st46" x1="239.2" y1="1.9" x2="236.6" y2="0.7"/>
			<line class="st46" x1="241.6" y1="14.8" x2="241.6" y2="14.1"/>
			<line class="st46" x1="231" y1="13.8" x2="230.5" y2="14.2"/>
			<line class="st46" x1="231.7" y1="13.4" x2="231" y2="13.8"/>
			<line class="st46" x1="232.6" y1="13.1" x2="231.7" y2="13.4"/>
			<line class="st46" x1="239.5" y1="13" x2="239.5" y2="13"/>
			<line class="st46" x1="240.5" y1="13.3" x2="239.5" y2="13"/>
			<line class="st46" x1="241.2" y1="13.7" x2="240.5" y2="13.3"/>
			<line class="st46" x1="241.6" y1="14.1" x2="241.2" y2="13.7"/>
			<line class="st46" x1="230.5" y1="14.2" x2="230.5" y2="14.6"/>
			<line class="st46" x1="50.4" y1="44.4" x2="50.3" y2="44.4"/>
			<line class="st46" x1="50.8" y1="51.1" x2="50.4" y2="44.4"/>
			<line class="st46" x1="57.7" y1="44.9" x2="57.7" y2="44.9"/>
			<line class="st46" x1="52.9" y1="52.6" x2="52.5" y2="45.9"/>
			<line class="st46" x1="55.1" y1="36" x2="49.9" y2="37"/>
			<line class="st46" x1="57.2" y1="37.5" x2="55.1" y2="36"/>
			<line class="st46" x1="48.1" y1="52.4" x2="48.1" y2="51.6"/>
			<line class="st46" x1="60.8" y1="51.7" x2="60.8" y2="51"/>
			<line class="st46" x1="49.1" y1="50.6" x2="48.4" y2="51.1"/>
			<line class="st46" x1="50.2" y1="50.1" x2="49.1" y2="50.6"/>
			<line class="st46" x1="50.7" y1="50" x2="50.2" y2="50.1"/>
			<line class="st46" x1="59.2" y1="49.6" x2="58" y2="49.4"/>
			<line class="st46" x1="60.1" y1="50" x2="59.2" y2="49.6"/>
			<line class="st46" x1="60.7" y1="50.5" x2="60.1" y2="50"/>
			<line class="st46" x1="60.8" y1="51" x2="60.7" y2="50.5"/>
			<line class="st46" x1="48.4" y1="51.1" x2="48.1" y2="51.6"/>
			<polyline class="st46" points="213.4,155.2 211.4,154.2 208.9,153.5 207.8,153.3 			"/>
			<polyline class="st46" points="197.9,153.7 196.8,153.9 194.3,154.8 192.4,156 191.2,157.3 190.7,158.7 191.1,160.1 192.3,161.3 
				194.3,162.4 196.8,163.2 199.8,163.6 203,163.7 206.2,163.4 209.1,162.7 211.7,161.8 213.6,160.6 214.8,159.2 215.1,157.8 
				214.7,156.5 213.4,155.2 			"/>
			<line class="st46" x1="455.5" y1="100.3" x2="417.3" y2="83.2"/>
			<polyline class="st46" points="410.4,80.1 243.3,5.3 239.3,6.1 			"/>
			<line class="st46" x1="232.6" y1="7.4" x2="57.5" y2="42.2"/>
			<line class="st46" x1="50.3" y1="43.6" x2="19.1" y2="49.8"/>
			<polyline class="st46" points="405.3,94.1 403.5,94.8 402.3,95.7 401.8,96.7 402,97.8 402.8,98.8 404.4,99.7 406.5,100.5 
				409,101.1 411.8,101.4 414.6,101.5 417.2,101.2 419.5,100.8 421.3,100 422.5,99.1 423,98.1 422.8,97.1 421.8,96.1 420.2,95.1 
				418.1,94.4 417,94.1 			"/>
			<polyline class="st46" points="408,93.6 407.6,93.7 405.3,94.1 			"/>
			<polyline class="st46" points="231.6,13 229.9,13.4 228.7,14 227.9,14.6 227.7,15.2 228,15.9 228.9,16.5 230.3,17 232.1,17.3 
				234.2,17.5 236.4,17.6 238.5,17.4 240.5,17.1 242.2,16.7 243.5,16.1 244.2,15.5 244.4,14.8 244,14.2 243.1,13.6 241.7,13.1 
				239.9,12.8 239.5,12.7 			"/>
			<line class="st46" x1="232.6" y1="12.8" x2="231.6" y2="13"/>
			<polyline class="st46" points="50.6,49.5 48.7,50 46.9,50.7 45.7,51.5 45,52.3 44.9,53.1 45.6,53.9 46.8,54.5 48.6,54.9 
				50.7,55.2 53.2,55.2 55.7,55 58.1,54.7 60.3,54.1 62.1,53.4 63.3,52.6 63.9,51.8 63.9,51 63.3,50.2 62,49.6 60.3,49.2 58.1,49 
				58,49 			"/>
			<polyline class="st46" points="393.2,147.9 393.5,149.9 394.9,151.8 397.4,153.6 400.9,155.1 405,156.1 409.6,156.7 414.2,156.8 
				418.6,156.4 422.4,155.5 425.4,154.1 427.3,152.5 428.1,150.6 			"/>
			<polyline class="st46" points="427.1,122.3 424.4,120.7 422.2,119.8 			"/>
			<polyline class="st46" points="401.1,118.7 399.9,119 396.9,120.2 394.9,121.7 393.9,123.5 			"/>
			<polyline class="st46" points="429,126 428.6,124.1 427.1,122.3 			"/>
			<line class="st46" x1="393.2" y1="147.9" x2="393.9" y2="123.5"/>
			<line class="st46" x1="428.1" y1="150.6" x2="429" y2="126"/>
			<polyline class="st46" points="184.2,217.8 184.8,220.3 186.8,222.7 190,224.7 194.2,226.1 199.1,226.9 204.4,227 209.6,226.5 
				214.5,225.2 218.7,223.4 221.8,221.2 223.7,218.7 224.2,216.1 			"/>
			<polyline class="st46" points="223.8,188.4 223,186 220.8,183.9 217.6,182.1 215.6,181.5 			"/>
			<polyline class="st46" points="191.3,182.5 189.5,183.2 186.2,185.2 184.2,187.6 183.4,190 			"/>
			<line class="st46" x1="224.2" y1="216.1" x2="223.8" y2="188.4"/>
			<line class="st46" x1="184.2" y1="217.8" x2="183.4" y2="190"/>
			<polyline class="st46" points="42.6,102 44.6,103.1 47.6,104 51.2,104.5 55.2,104.5 59.4,104.2 63.4,103.5 67,102.4 69.9,101.1 
				71.9,99.6 72.9,98.1 72.8,96.6 			"/>
			<line class="st46" x1="41.6" y1="100.6" x2="42.6" y2="102"/>
			<polyline class="st46" points="46.2,73.1 43.5,74.2 41.4,75.6 40.2,77 40.2,78.4 			"/>
			<line class="st46" x1="72.8" y1="96.6" x2="72.5" y2="90.7"/>
			<line class="st46" x1="41.6" y1="100.6" x2="40.2" y2="78.4"/>
			<line class="st46" x1="197.8" y1="149.1" x2="191.5" y2="150.9"/>
			<line class="st46" x1="60.8" y1="51.9" x2="60.8" y2="51.8"/>
			<line class="st46" x1="60.4" y1="52.4" x2="60.4" y2="52.4"/>
			<line class="st46" x1="60.7" y1="52" x2="60.8" y2="51.9"/>
			<line class="st46" x1="59.5" y1="52.9" x2="59.6" y2="52.9"/>
			<line class="st46" x1="60.3" y1="52.5" x2="60.4" y2="52.4"/>
			<line class="st46" x1="58.4" y1="53.4" x2="58.4" y2="53.4"/>
			<line class="st46" x1="59.5" y1="53" x2="59.5" y2="52.9"/>
			<line class="st46" x1="56.9" y1="53.8" x2="56.9" y2="53.8"/>
			<line class="st46" x1="58.3" y1="53.4" x2="58.4" y2="53.4"/>
			<line class="st46" x1="55.3" y1="54" x2="55.3" y2="54"/>
			<line class="st46" x1="56.8" y1="53.8" x2="56.9" y2="53.8"/>
			<line class="st46" x1="53.6" y1="54.2" x2="53.7" y2="54.2"/>
			<line class="st46" x1="55.2" y1="54" x2="55.3" y2="54"/>
			<line class="st46" x1="52" y1="54.1" x2="52.1" y2="54.1"/>
			<line class="st46" x1="53.5" y1="54.2" x2="53.6" y2="54.2"/>
			<line class="st46" x1="50.5" y1="54" x2="50.7" y2="54"/>
			<line class="st46" x1="51.8" y1="54.1" x2="52" y2="54.1"/>
			<line class="st46" x1="49.4" y1="53.7" x2="49.5" y2="53.7"/>
			<line class="st46" x1="50.3" y1="53.9" x2="50.5" y2="54"/>
			<line class="st46" x1="48.5" y1="53.2" x2="48.7" y2="53.3"/>
			<line class="st46" x1="49.1" y1="53.5" x2="49.4" y2="53.7"/>
			<line class="st46" x1="48.4" y1="53.1" x2="48.5" y2="53.2"/>
			<line class="st46" x1="210.8" y1="158.9" x2="210.8" y2="158.9"/>
			<line class="st46" x1="210" y1="159.8" x2="210" y2="159.8"/>
			<line class="st46" x1="210.7" y1="159" x2="210.8" y2="158.9"/>
			<line class="st46" x1="208.7" y1="160.6" x2="208.8" y2="160.6"/>
			<line class="st46" x1="209.9" y1="159.8" x2="210" y2="159.8"/>
			<line class="st46" x1="207.1" y1="161.2" x2="207.1" y2="161.2"/>
			<line class="st46" x1="208.7" y1="160.6" x2="208.7" y2="160.6"/>
			<line class="st46" x1="205.1" y1="161.7" x2="205.1" y2="161.6"/>
			<line class="st46" x1="207" y1="161.2" x2="207.1" y2="161.2"/>
			<line class="st46" x1="203" y1="161.9" x2="203" y2="161.8"/>
			<line class="st46" x1="205" y1="161.7" x2="205.1" y2="161.7"/>
			<line class="st46" x1="200.8" y1="161.8" x2="201" y2="161.8"/>
			<line class="st46" x1="202.8" y1="161.9" x2="203" y2="161.9"/>
			<line class="st46" x1="198.9" y1="161.5" x2="199" y2="161.5"/>
			<line class="st46" x1="200.6" y1="161.8" x2="200.8" y2="161.8"/>
			<line class="st46" x1="197.2" y1="161" x2="197.4" y2="161.1"/>
			<line class="st46" x1="198.5" y1="161.4" x2="198.9" y2="161.5"/>
			<line class="st46" x1="195.9" y1="160.3" x2="196.1" y2="160.4"/>
			<line class="st46" x1="196.8" y1="160.8" x2="197.2" y2="161"/>
			<line class="st46" x1="195.1" y1="159.5" x2="195.2" y2="159.6"/>
			<line class="st46" x1="195.6" y1="160" x2="195.9" y2="160.3"/>
			<line class="st46" x1="194.8" y1="158.6" x2="194.8" y2="158.7"/>
			<line class="st46" x1="194.9" y1="159" x2="195.1" y2="159.5"/>
			<line class="st46" x1="419.1" y1="98.6" x2="419.1" y2="98.5"/>
			<line class="st46" x1="418.3" y1="99.2" x2="418.3" y2="99.2"/>
			<line class="st46" x1="419.1" y1="98.6" x2="419.1" y2="98.6"/>
			<line class="st46" x1="417.1" y1="99.6" x2="417.1" y2="99.6"/>
			<line class="st46" x1="418.3" y1="99.2" x2="418.3" y2="99.2"/>
			<line class="st46" x1="415.6" y1="100" x2="415.6" y2="100"/>
			<line class="st46" x1="417.1" y1="99.6" x2="417.1" y2="99.6"/>
			<line class="st46" x1="413.8" y1="100.1" x2="413.9" y2="100.1"/>
			<line class="st46" x1="415.5" y1="100" x2="415.6" y2="100"/>
			<line class="st46" x1="412" y1="100.1" x2="412.1" y2="100.1"/>
			<line class="st46" x1="413.7" y1="100.1" x2="413.8" y2="100.1"/>
			<line class="st46" x1="410.1" y1="99.9" x2="410.3" y2="99.9"/>
			<line class="st46" x1="411.7" y1="100.1" x2="412" y2="100.1"/>
			<line class="st46" x1="408.5" y1="99.5" x2="408.7" y2="99.5"/>
			<line class="st46" x1="409.8" y1="99.8" x2="410.1" y2="99.9"/>
			<line class="st46" x1="407.1" y1="99" x2="407.3" y2="99"/>
			<line class="st46" x1="408" y1="99.3" x2="408.5" y2="99.5"/>
			<line class="st46" x1="406" y1="98.3" x2="406.2" y2="98.4"/>
			<line class="st46" x1="406.7" y1="98.7" x2="407.1" y2="99"/>
			<line class="st46" x1="405.4" y1="97.6" x2="405.5" y2="97.8"/>
			<line class="st46" x1="405.7" y1="98" x2="406" y2="98.3"/>
			<line class="st46" x1="405.3" y1="96.9" x2="405.3" y2="97"/>
			<line class="st46" x1="405.4" y1="97.3" x2="405.4" y2="97.6"/>
			<line class="st46" x1="241.5" y1="15.3" x2="241.5" y2="15.3"/>
			<line class="st46" x1="241" y1="15.7" x2="241" y2="15.7"/>
			<line class="st46" x1="241.4" y1="15.4" x2="241.5" y2="15.3"/>
			<line class="st46" x1="240.1" y1="16.1" x2="240.2" y2="16.1"/>
			<line class="st46" x1="240.9" y1="15.8" x2="241" y2="15.8"/>
			<line class="st46" x1="239" y1="16.4" x2="239" y2="16.4"/>
			<line class="st46" x1="240.1" y1="16.1" x2="240.1" y2="16.1"/>
			<line class="st46" x1="237.7" y1="16.6" x2="237.7" y2="16.6"/>
			<line class="st46" x1="239" y1="16.4" x2="239" y2="16.4"/>
			<line class="st46" x1="236.2" y1="16.7" x2="236.3" y2="16.7"/>
			<line class="st46" x1="237.6" y1="16.6" x2="237.7" y2="16.6"/>
			<line class="st46" x1="234.8" y1="16.7" x2="234.9" y2="16.7"/>
			<line class="st46" x1="236.1" y1="16.7" x2="236.2" y2="16.7"/>
			<line class="st46" x1="233.4" y1="16.6" x2="233.5" y2="16.6"/>
			<line class="st46" x1="234.6" y1="16.7" x2="234.8" y2="16.7"/>
			<line class="st46" x1="232.2" y1="16.3" x2="232.4" y2="16.4"/>
			<line class="st46" x1="233.2" y1="16.5" x2="233.4" y2="16.6"/>
			<line class="st46" x1="231.3" y1="16" x2="231.4" y2="16"/>
			<line class="st46" x1="232" y1="16.2" x2="232.2" y2="16.3"/>
			<line class="st46" x1="230.7" y1="15.6" x2="230.8" y2="15.7"/>
			<line class="st46" x1="231.1" y1="15.8" x2="231.3" y2="16"/>
			<line class="st46" x1="230.5" y1="15.2" x2="230.5" y2="15.3"/>
			<line class="st46" x1="230.6" y1="15.4" x2="230.7" y2="15.6"/>
			<line class="st46" x1="207.9" y1="157.8" x2="207.8" y2="154.4"/>
			<line class="st46" x1="197.8" y1="149.1" x2="197.7" y2="148.5"/>
			<line class="st46" x1="207.5" y1="144.4" x2="207.4" y2="139.9"/>
			<line class="st46" x1="197.7" y1="140.8" x2="197.6" y2="139.2"/>
			<line class="st46" x1="203.8" y1="137.4" x2="199.2" y2="138.7"/>
			<line class="st46" x1="194.8" y1="158.8" x2="194.8" y2="158.7"/>
			<line class="st46" x1="416.9" y1="96.9" x2="417" y2="94.8"/>
			<line class="st46" x1="407.9" y1="96.2" x2="408" y2="94.4"/>
			<polyline class="st46" points="417,89.5 417.3,83.2 417.3,81.2 			"/>
			<polyline class="st46" points="413.2,79.4 410.4,80.1 408.5,80.6 			"/>
			<line class="st46" x1="405.3" y1="97.1" x2="405.3" y2="97"/>
			<line class="st46" x1="239.5" y1="14.6" x2="239.5" y2="13"/>
			<line class="st46" x1="232.6" y1="14.1" x2="232.6" y2="13.1"/>
			<polyline class="st46" points="239.3,8.6 239.3,6.1 239.2,1.9 			"/>
			<line class="st46" x1="230.5" y1="15.3" x2="230.5" y2="15.3"/>
			<line class="st46" x1="58.1" y1="51.6" x2="58" y2="49.4"/>
			<line class="st46" x1="50.7" y1="51" x2="50.7" y2="50"/>
			<polyline class="st46" points="57.7,44.9 57.5,42.2 57.2,37.5 			"/>
			<polyline class="st46" points="191.3,180.2 191.3,182.5 191.5,189.7 			"/>
			<polyline class="st46" points="215.4,172.9 215.6,181.5 215.7,188.7 			"/>
			<line class="st46" x1="19.1" y1="49.8" x2="46" y2="70.5"/>
			<line class="st46" x1="189.8" y1="180.6" x2="191.3" y2="180.2"/>
			<polyline class="st46" points="422.6,110.3 422.2,119.8 422,125.5 			"/>
			<polyline class="st46" points="401.2,116.7 401.1,118.7 400.9,124 			"/>
			<polyline class="st46" points="46,70.5 46.2,73.1 46.5,77.7 			"/>
			<polyline class="st46" points="400.8,91.5 398.6,92.1 386.9,95.5 377.2,90.8 375.1,89.8 			"/>
			<polyline class="st46" points="365.6,75.1 363.5,75.7 352,78.7 343.2,74.5 341.1,73.5 			"/>
			<polyline class="st46" points="319.9,63.4 331.2,60.6 333.3,60 			"/>
			<polyline class="st46" points="309.9,58.6 312,59.6 319.9,63.4 			"/>
			<polyline class="st46" points="303.5,46.1 301.4,46.6 290.3,49.2 283.1,45.7 281.1,44.8 			"/>
			<polyline class="st46" points="275.9,33.2 273.8,33.7 263,36.1 256.4,32.9 254.4,32 			"/>
			<polyline class="st46" points="250.2,21.3 248.3,21.7 237.6,23.9 231.7,21.1 229.7,20.1 			"/>
			<polyline class="st46" points="223.9,35.5 222,35.9 210.5,38.4 204.4,35.3 202.5,34.3 			"/>
			<polyline class="st46" points="249.7,48.6 247.7,49 235.9,51.7 229.3,48.3 227.4,47.2 			"/>
			<polyline class="st46" points="277.5,62.7 275.5,63.2 263.5,66.1 256.2,62.3 254.2,61.2 			"/>
			<polyline class="st46" points="307.8,78 305.7,78.6 293.4,81.7 285.3,77.5 283.3,76.4 			"/>
			<polyline class="st46" points="340.7,94.7 338.6,95.3 326,98.7 317.1,94 315,93 			"/>
			<polyline class="st46" points="311.4,116.9 309.3,117.5 295.6,121.4 286.4,116.1 284.4,115 			"/>
			<polyline class="st46" points="278,98.3 276,98.9 262.6,102.4 254.4,97.7 252.4,96.6 			"/>
			<polyline class="st46" points="247.5,81.4 245.6,81.8 232.4,85.1 225,80.8 223.1,79.7 			"/>
			<polyline class="st46" points="219.5,65.8 217.6,66.2 204.8,69.2 198.1,65.4 196.2,64.3 			"/>
			<polyline class="st46" points="193.7,51.4 191.8,51.8 179.3,54.6 173.3,51.1 171.4,50 			"/>
			<polyline class="st46" points="169.8,38.1 168,38.5 155.8,41.1 150.3,37.9 148.5,36.9 			"/>
			<polyline class="st46" points="136.8,54.3 135,54.7 121.8,57.5 116.3,54 114.5,52.9 			"/>
			<polyline class="st46" points="160.4,68.9 158.7,69.3 145,72.4 139,68.5 137.2,67.4 			"/>
			<polyline class="st46" points="186.2,84.8 184.3,85.2 170.3,88.6 163.6,84.3 161.8,83.1 			"/>
			<polyline class="st46" points="214.2,102 212.3,102.5 198,106.2 190.5,101.4 188.6,100.2 			"/>
			<polyline class="st46" points="244.9,121 242.9,121.5 228.2,125.5 219.9,120.2 218,119 			"/>
			<polyline class="st46" points="209.5,145.8 207.7,146.3 207.5,146.4 			"/>
			<polyline class="st46" points="191.5,150.9 183.1,144.9 181.2,143.6 			"/>
			<polyline class="st46" points="178.8,124.6 177,125.1 161.3,129.3 153.8,123.9 152,122.6 			"/>
			<polyline class="st46" points="150.9,105.4 149.1,105.8 133.9,109.6 127.1,104.8 125.4,103.6 			"/>
			<polyline class="st46" points="125.4,87.8 123.7,88.2 108.8,91.7 102.8,87.4 101.1,86.1 			"/>
			<polyline class="st46" points="102,71.7 100.4,72.1 85.9,75.3 80.5,71.4 78.8,70.2 			"/>
			<polyline class="st46" points="80.5,56.9 78.9,57.2 64.9,60.2 59.9,56.6 58.3,55.5 			"/>
			<polyline class="st46" points="48.1,52.8 48.2,52.8 48.2,52.8 			"/>
			<polyline class="st46" points="211,158.1 211,158 211.1,158 			"/>
			<polyline class="st46" points="419.4,98 419.4,97.9 419.4,97.9 			"/>
			<polyline class="st46" points="241.6,15 241.6,14.9 241.6,14.9 			"/>
			<polyline class="st46" points="207.8,154.4 207.8,153.3 207.7,149.4 			"/>
			<line class="st46" x1="197.9" y1="156.9" x2="197.9" y2="154.8"/>
			<line class="st46" x1="207.6" y1="149.3" x2="207.5" y2="146.4"/>
			<polyline class="st46" points="199.2,138.7 199.1,138.7 197.6,139.2 			"/>
			<polyline class="st46" points="194.8,158.7 194.8,158.5 194.8,157.9 			"/>
			<polyline class="st46" points="417,94.8 417,94.1 417.2,89.5 			"/>
			<polyline class="st46" points="408,94.4 408,93.6 408.1,88.8 			"/>
			<polyline class="st46" points="408.3,88.9 408.3,88.8 408.5,80.6 			"/>
			<polyline class="st46" points="405.3,97 405.3,96.9 405.3,96.3 			"/>
			<polyline class="st46" points="239.5,13 239.5,12.7 239.4,8.6 			"/>
			<polyline class="st46" points="232.6,13.1 232.6,12.8 232.5,8.2 			"/>
			<line class="st46" x1="232.6" y1="8.2" x2="232.6" y2="8.1"/>
			<polyline class="st46" points="230.5,15.3 230.5,15 230.5,14.6 			"/>
			<polyline class="st46" points="58,49.4 58,49 57.7,44.9 			"/>
			<polyline class="st46" points="50.7,50 50.6,49.5 50.3,44.4 			"/>
			<line class="st46" x1="50.4" y1="44.4" x2="50.4" y2="44.4"/>
			<line class="st46" x1="46" y1="70.5" x2="46.6" y2="70.9"/>
			<line class="st46" x1="191.3" y1="180.2" x2="191.6" y2="180.1"/>
			<polyline class="st46" points="197.9,154.8 197.9,153.7 197.8,149.1 			"/>
			<polyline class="st46" points="207.5,146.4 207.5,146.2 207.5,144.4 			"/>
			<polyline class="st46" points="197.8,148.5 197.8,148.4 197.7,140.8 			"/>
			<polyline class="st46" points="232.6,8.1 232.6,7.4 232.5,1.5 			"/>
			<polyline class="st46" points="50.4,44.4 50.3,43.6 49.9,37 			"/>
			<line class="st46" x1="46.6" y1="70.9" x2="47.9" y2="71.9"/>
			<line class="st46" x1="191.6" y1="180.1" x2="192.8" y2="179.7"/>
			<line class="st46" x1="47.9" y1="71.9" x2="49.7" y2="73.3"/>
			<line class="st46" x1="192.8" y1="179.7" x2="194.7" y2="179.1"/>
			<line class="st46" x1="49.7" y1="73.3" x2="52" y2="75"/>
			<line class="st46" x1="194.7" y1="179.1" x2="197.2" y2="178.4"/>
			<line class="st46" x1="52" y1="75" x2="54.5" y2="76.9"/>
			<line class="st46" x1="197.2" y1="178.4" x2="200.1" y2="177.5"/>
			<line class="st46" x1="54.5" y1="76.9" x2="57.1" y2="79"/>
			<line class="st46" x1="200.1" y1="177.5" x2="203.3" y2="176.5"/>
			<line class="st46" x1="57.1" y1="79" x2="58" y2="79.6"/>
			<line class="st46" x1="203.3" y1="176.5" x2="206.4" y2="175.6"/>
			<line class="st46" x1="58" y1="79.6" x2="60.4" y2="81.5"/>
			<line class="st46" x1="206.4" y1="175.6" x2="209.4" y2="174.7"/>
			<polyline class="st46" points="60.4,81.5 62.2,82.8 66,85.8 			"/>
			<polyline class="st46" points="209.4,174.7 211.9,173.9 213.8,173.4 215,173 			"/>
			<line class="st46" x1="66" y1="85.8" x2="69.1" y2="88.1"/>
			<line class="st46" x1="215" y1="173" x2="215.4" y2="172.9"/>
			<polyline class="st46" points="69.1,88.1 71.3,89.8 72.5,90.7 			"/>
			<polyline class="st46" points="401.4,116.7 402.3,116.4 403.9,115.9 			"/>
			<polyline class="st46" points="72.5,90.7 72.5,90.7 189.8,180.6 			"/>
			<polyline class="st46" points="215.4,172.9 401.2,116.7 401.4,116.7 			"/>
			<polyline class="st46" points="403.9,115.9 406,115.3 408.6,114.5 411.4,113.7 414.2,112.8 416.8,112 419.1,111.3 420.9,110.8 
							"/>
			<line class="st46" x1="422.6" y1="110.3" x2="455.5" y2="100.3"/>
			<polyline class="st46" points="420.9,110.8 422.1,110.4 422.6,110.3 			"/>
		</g>
	</g>
</g>
</svg>
