<?xml version="1.0" encoding="utf-8"?>
<!-- Generator: Adobe Illustrator 20.1.0, SVG Export Plug-In . SVG Version: 6.00 Build 0)  -->
<svg version="1.1" id="Layer_4v2" xmlns="http://www.w3.org/2000/svg" xmlns:xlink="http://www.w3.org/1999/xlink" x="0px" y="0px"
	 viewBox="0 0 473.1 230" style="enable-background:new 0 0 473.1 230;" xml:space="preserve">
<style type="text/css">
	.st0{fill:#997D21;}
	.st1{fill:#B59529;}
	.st2{fill:#735E16;}
	.st3{fill:#686868;}
	.st4{fill:#8C8D8D;}
	.st5{fill:#A4A4A5;}
	.st6{fill:#8A8A8B;}
	.st7{fill:#6F4508;}
	.st8{fill:#909090;}
	.st9{fill:#603316;}
	.st10{fill:#B2B2B2;}
	.st11{fill:#5B3115;}
	.st12{fill:#898989;}
	.st13{fill:#ACADAD;}
	.st14{fill:#C9CACA;}
	.st15{fill:#DFDFDF;}
	.st16{fill:#EDEDED;}
	.st17{fill:#F1F2F2;}
	.st18{fill:#EEEFEF;}
	.st19{fill:#E2E3E3;}
	.st20{fill:#CECFCF;}
	.st21{fill:#49260E;}
	.st22{fill:#543404;}
	.st23{fill:#6A4109;}
	.st24{fill:#87550D;}
	.st25{fill:#9F6512;}
	.st26{fill:#B17115;}
	.st27{fill:#BD7918;}
	.st28{fill:#C27C19;}
	.st29{fill:#BF7B18;}
	.st30{fill:#B67416;}
	.st31{fill:#A66A14;}
	.st32{fill:#915B0F;}
	.st33{fill:#75490A;}
	.st34{fill:#653718;}
	.st35{fill:#915127;}
	.st36{fill:#A95F2F;}
	.st37{fill:#7D4621;}
	.st38{fill:#9F592B;}
	.st39{fill:#A75E2E;}
	.st40{fill:#A45C2E;}
	.st41{fill:#8A4D25;}
	.st42{fill:#75411E;}
	.st43{fill:#935D11;}
	.st44{fill:#AF7015;}
	.st45{fill:none;stroke:#000000;stroke-width:0.5;stroke-linecap:round;stroke-linejoin:round;stroke-miterlimit:10;}
	.st46{fill:none;stroke:#000000;stroke-linecap:round;stroke-linejoin:round;stroke-miterlimit:10;}
</style>
<g>
	<polyline class="st0" points="236.7,3.2 236.7,1.5 417.4,81.6 414.5,82.4 413.2,81.8 408.6,83.1 408.5,84.1 404.8,85.1 239.4,10 
		239.3,4.4 236.7,3.2 	"/>
	<polyline class="st1" points="236.7,1.5 236.7,3.2 232.5,4 232.6,9.7 59.2,44.1 57.4,42.9 57.3,40 55.1,38.5 52,39.1 49.8,37.7 
		236.7,1.5 	"/>
	<polyline class="st2" points="232.5,4 236.7,3.2 239.3,4.4 235.1,5.2 232.5,4 	"/>
	<polyline class="st0" points="232.6,9.7 232.5,4 235.1,5.2 235.2,11.9 235.3,17.9 232.7,16.7 232.6,10.7 232.6,10.6 232.6,9.9 
		232.6,9.7 	"/>
	<polyline class="st2" points="52,39.1 55.1,38.5 57.3,40 54.1,40.6 52,39.1 	"/>
	<polyline class="st2" points="413.2,81.8 414.5,82.4 409.9,83.7 408.6,83.1 413.2,81.8 	"/>
	<polyline class="st1" points="239.3,4.4 239.4,10 239.4,11 235.2,11.9 235.1,5.2 239.3,4.4 	"/>
	<polyline class="st3" points="235.2,11.9 239.4,11 239.4,11.1 235.3,11.9 235.2,11.9 	"/>
	<polyline class="st4" points="232.7,16.7 235.3,17.9 235.4,17.9 239.5,17.1 239.5,15.5 239.6,15.5 240.6,15.8 241.3,16.2 
		241.6,16.6 241.6,17 241.2,17.5 240.4,17.9 239.4,18.2 238.1,18.4 236.7,18.5 235.2,18.5 233.8,18.4 232.6,18.2 231.6,17.9 
		230.9,17.5 230.5,17.1 230.6,16.7 231,16.3 231.8,15.9 232.6,15.6 232.6,16.6 232.7,16.7 	"/>
	<polyline class="st5" points="239.5,17.1 235.4,17.9 235.3,11.9 239.4,11.1 239.5,15.2 239.5,15.5 239.5,17.1 	"/>
	<polyline class="st6" points="232.7,16.7 232.6,16.6 232.6,15.6 232.6,15.3 232.6,10.6 232.6,10.7 232.7,16.7 	"/>
	<polyline class="st6" points="235.4,17.9 235.3,17.9 235.2,11.9 235.3,11.9 235.4,17.9 	"/>
	<polyline class="st2" points="417.4,81.6 236.7,1.5 238.4,1.2 419.4,81.1 417.4,81.6 	"/>
	<polyline class="st2" points="238.4,1.2 236.7,1.5 49.8,37.7 47.6,38.1 46.7,37.5 237.3,0.7 238.4,1.2 	"/>
	<polyline class="st0" points="46.7,37.5 47.6,38.1 48.1,46.3 47.2,45.6 46.7,37.5 	"/>
	<polyline class="st0" points="48.1,46.3 47.6,38.1 198.5,142.5 198.8,152.9 197.9,152.3 197.8,152.2 197.2,151.8 188.8,145.8 
		186.9,144.5 166.9,130.3 159.3,125 157.5,123.7 139.3,110.8 132.5,106 130.8,104.8 114.1,93 108,88.7 106.3,87.4 91,76.6 
		85.6,72.8 83.9,71.6 69.8,61.6 64.9,58.1 63.2,57 61.9,56 60.4,54.9 59.8,54.5 58.1,53.3 52.6,49.5 52.6,49.4 50.5,47.9 50.4,47.9 
		48.4,46.5 48.1,46.3 	"/>
	<polyline class="st2" points="419.4,81.1 421.2,81.9 200.1,143.6 198.5,142.5 201.2,141.8 205,140.7 285.8,118.2 300.1,114.2 
		301.5,113.9 376.6,93 388.9,89.5 390.4,89.1 404.8,85.1 408.5,84.1 409.9,83.7 414.5,82.4 417.4,81.6 419.4,81.1 	"/>
	<polyline class="st0" points="198.5,142.5 200.1,143.6 200.3,154 198.8,152.9 198.5,142.5 	"/>
	<polyline class="st1" points="200.1,143.6 421.2,81.9 421,87.3 420.9,91 417.2,92 412.6,93.4 412.4,93.4 408.2,94.6 408.1,94.6 
		207.8,151.9 201.6,153.6 201.5,153.7 200.3,154 200.1,143.6 	"/>
	<polyline class="st0" points="198.8,152.9 200.3,154 201.5,153.7 201.7,162 198.1,159.4 197.9,152.3 198.8,152.9 	"/>
	<polyline class="st4" points="198.1,159.4 201.7,162 201.8,162.1 207.9,160.3 207.9,156.9 208.2,157 209.7,157.6 210.6,158.4 
		211.1,159.3 211,160.2 210.3,161.1 209.2,162 207.6,162.6 205.7,163.1 203.6,163.4 201.5,163.4 199.4,163.2 197.6,162.7 
		196.2,162.1 195.3,161.3 194.8,160.4 195,159.5 195.7,158.6 196.8,157.7 197.9,157.3 198,159.4 198.1,159.4 	"/>
	<polyline class="st5" points="207.9,160.3 201.8,162.1 201.6,153.6 207.8,151.9 207.8,155.8 207.9,156.9 207.9,160.3 	"/>
	<polyline class="st6" points="198.1,159.4 198,159.4 197.9,157.3 197.9,156.2 197.8,152.2 197.9,152.3 198.1,159.4 	"/>
	<polyline class="st6" points="201.8,162.1 201.7,162 201.5,153.7 201.6,153.6 201.8,162.1 	"/>
	<polyline class="st2" points="47.6,38.1 49.8,37.7 52,39.1 54.1,40.6 57.4,42.9 59.2,44.1 59.5,44.3 200.1,141 201.2,141.8 
		198.5,142.5 47.6,38.1 	"/>
	<path class="st7" d="M244.9,123.5l-10.4-6.4l-16.5,4.4l1.9,1.2l8.3,5.3l14.7-4L244.9,123.5 M214.2,104.5l-9.5-5.8l-16.1,4l1.9,1.2
		l7.5,4.8l14.4-3.7L214.2,104.5 M186.2,87.2l-8.7-5.4l-15.7,3.7l1.8,1.2l6.7,4.3l14-3.4L186.2,87.2 M160.5,71.4l-8-4.9l-15.3,3.4
		L139,71l6.1,3.9l13.6-3.1L160.5,71.4 M136.8,56.8l-7.4-4.5l-14.9,3.1l1.7,1.1l5.5,3.5l13.3-2.9L136.8,56.8 M169.9,40.6l-7.4-4.1
		l-13.9,2.9l1.8,1l5.5,3.2l12.2-2.6L169.9,40.6 M193.7,53.9l-8-4.5l-14.2,3.1l1.9,1.1l6.1,3.5l12.5-2.8L193.7,53.9 M219.5,68.3
		l-8.7-4.8l-14.6,3.4l1.9,1.1l6.7,3.8l12.8-3L219.5,68.3 M247.5,83.8l-9.5-5.3l-14.9,3.6l1.9,1.1l7.4,4.3l13.1-3.3L247.5,83.8
		 M278.1,100.8l-10.3-5.7l-15.3,4l2,1.1l8.2,4.7l13.4-3.6L278.1,100.8 M340.7,97.2l-11.1-5.6L315,95.5l2.1,1.1l9,4.7l12.5-3.4
		L340.7,97.2 M307.8,80.5l-10.2-5.2l-14.2,3.6l2,1.1l8.1,4.2l12.3-3.2L307.8,80.5 M277.6,65.2l-9.4-4.8l-13.9,3.3l2,1l7.3,3.8
		l12-2.9L277.6,65.2 M249.7,51.1l-8.7-4.4l-13.6,3l2,1l6.6,3.5l11.8-2.7L249.7,51.1 M223.9,38l-8-4.1l-13.3,2.8l1.9,1l6,3.1
		l11.5-2.5L223.9,38 M250.3,23.8l-8-3.7l-12.6,2.6l2,0.9l6,2.9l10.7-2.2L250.3,23.8 M275.9,35.7l-8.6-4l-12.8,2.8l2,1l6.5,3.1
		l10.9-2.4L275.9,35.7 M303.5,48.6l-9.3-4.3l-13.1,3l2,1l7.2,3.4l11.1-2.6L303.5,48.6 M333.3,62.5l-10.1-4.7L310,61.1l2.1,1l7.9,3.8
		l11.3-2.8L333.3,62.5 M365.7,77.6l-10.9-5.1L341.2,76l2.1,1l8.7,4.2l11.5-3.1L365.7,77.6 M239.4,10l165.4,75.1l-14.4,4l-1.4-0.7
		l-13.8,3.8l1.4,0.7l-75.1,20.9l-1.4-0.8l-15.7,4.3l1.3,0.8L205,140.7l-1.1-0.8l-3.8,1L59.5,44.3L232.6,9.9l0,0.7l-0.1,0l0.1,4.7
		l-1,0.1l-1.7,0.4l-1.3,0.6l-0.8,0.6l-0.2,0.7l0.3,0.6L229,19l1.4,0.5l1.8,0.4l2.1,0.2l2.2,0l2.2-0.1l2-0.3l1.7-0.5l1.3-0.6l0.7-0.6
		l0.2-0.7l-0.4-0.6l-0.9-0.6l-1.4-0.5l-1.8-0.4l-0.5,0l0-4.1l-0.1,0L239.4,10"/>
	<polyline class="st2" points="200.1,141 203.8,139.9 205,140.7 201.2,141.8 200.1,141 	"/>
	<polyline class="st8" points="194.8,160.4 195.3,161.3 195.3,162.2 195.2,162.1 195.1,162 195,161.5 194.9,161.3 194.9,161.2 
		194.9,160.9 194.8,160.4 	"/>
	<polyline class="st9" points="195.2,162.1 195.3,162.2 195.6,162.5 195.9,162.8 196.1,162.9 196.2,163 196.8,163.3 197.2,163.5 
		197.4,163.6 197.7,163.7 198.5,163.9 198.9,164 199.1,164 199.4,164.1 200.6,164.3 200.9,164.3 201,164.3 201.5,164.4 202.8,164.3 
		203,164.3 203.1,164.3 203.6,164.3 205,164.2 205.1,164.1 205.2,164.1 205.7,164.1 207,163.7 207.1,163.7 207.1,163.7 207.6,163.6 
		208.7,163.1 208.8,163.1 208.8,163.1 209.2,162.9 210,162.3 210.1,162.3 210.1,162.3 210.4,162.1 210.8,161.5 210.9,161.4 
		210.9,161.3 211,161.2 211.1,160.6 211.1,160.5 211.1,160.5 211.1,160.4 211.1,160.2 211.1,159.3 210.6,158.4 209.7,157.6 
		208.2,157 207.9,156.9 207.8,155.8 209,156 211.5,156.7 213.4,157.7 214.7,158.9 215.2,160.3 214.8,161.7 213.6,163 211.7,164.2 
		209.2,165.2 206.2,165.9 203,166.2 199.8,166.1 196.9,165.7 194.3,164.9 192.4,163.8 191.1,162.6 190.8,161.2 191.2,159.8 
		192.4,158.5 194.4,157.3 196.9,156.4 197.9,156.2 197.9,157.3 196.8,157.7 195.7,158.6 195,159.5 194.8,160.4 194.9,160.9 
		194.8,161.1 194.9,161.2 194.9,161.3 195,161.5 195.1,162 195.2,162.1 	"/>
	<polyline class="st10" points="195.6,162.5 195.3,162.2 195.3,161.3 196.2,162.1 196.2,163 196.1,162.9 195.9,162.8 195.6,162.5 	
		"/>
	<polyline class="st3" points="211.1,160.6 211,161.2 211,160.2 211.1,159.3 211.1,160.2 211.1,160.4 211.1,160.5 211.1,160.6 	"/>
	<polyline class="st11" points="211.1,160.5 211.1,160.4 211.1,160.5 211.1,160.5 	"/>
	<polyline class="st12" points="210.8,161.5 210.4,162.1 210.3,161.1 211,160.2 211,161.2 210.9,161.3 210.9,161.4 210.8,161.5 	"/>
	<polyline class="st13" points="210,162.3 209.2,162.9 209.2,162 210.3,161.1 210.4,162.1 210.1,162.3 210.1,162.3 210,162.3 	"/>
	<polyline class="st14" points="208.7,163.1 207.6,163.6 207.6,162.6 209.2,162 209.2,162.9 208.8,163.1 208.8,163.1 208.7,163.1 	
		"/>
	<polyline class="st15" points="207,163.7 205.7,164.1 205.7,163.1 207.6,162.6 207.6,163.6 207.1,163.7 207.1,163.7 207,163.7 	"/>
	<polyline class="st16" points="205,164.2 203.6,164.3 203.6,163.4 205.7,163.1 205.7,164.1 205.2,164.1 205.1,164.1 205,164.2 	"/>
	<polyline class="st17" points="202.8,164.3 201.5,164.4 201.5,163.4 203.6,163.4 203.6,164.3 203.1,164.3 203,164.3 202.8,164.3 	
		"/>
	<polyline class="st18" points="200.6,164.3 199.4,164.1 199.4,163.2 201.5,163.4 201.5,164.4 201,164.3 200.9,164.3 200.6,164.3 	
		"/>
	<polyline class="st19" points="198.5,163.9 197.7,163.7 197.6,162.7 199.4,163.2 199.4,164.1 199.1,164 198.9,164 198.5,163.9 	"/>
	<polyline class="st20" points="196.8,163.3 196.2,163 196.2,162.1 197.6,162.7 197.7,163.7 197.4,163.6 197.2,163.5 196.8,163.3 	
		"/>
	<polyline class="st0" points="408.6,83.1 409.9,83.7 408.5,84.1 408.6,83.1 	"/>
	<polyline class="st3" points="232.6,10.7 232.6,10.6 232.6,10.6 232.6,10.7 	"/>
	<polyline class="st8" points="230.5,17.1 230.9,17.5 230.9,18.2 230.8,18.2 230.7,18.1 230.6,17.9 230.5,17.8 230.5,17.7 
		230.5,17.5 230.5,17.1 	"/>
	<polyline class="st9" points="230.8,18.2 230.9,18.2 231.1,18.3 231.3,18.5 231.5,18.5 231.6,18.6 232,18.7 232.3,18.8 232.4,18.8 
		232.6,18.9 233.2,19 233.5,19.1 233.6,19.1 233.8,19.1 234.6,19.2 234.8,19.2 234.9,19.2 235.2,19.2 236.2,19.2 236.3,19.2 
		236.3,19.2 236.7,19.2 237.7,19.1 237.7,19.1 237.8,19.1 238.1,19.1 239,18.9 239.1,18.9 239.1,18.9 239.4,18.8 240.1,18.6 
		240.2,18.6 240.2,18.6 240.5,18.5 241,18.3 241,18.2 241,18.2 241.2,18.1 241.5,17.9 241.5,17.8 241.5,17.8 241.6,17.7 241.6,17.5 
		241.6,17.4 241.7,17.4 241.6,17.4 241.6,17.3 241.6,16.6 241.3,16.2 240.6,15.8 239.6,15.5 239.5,15.5 239.5,15.2 240,15.2 
		241.7,15.6 243.1,16.1 244.1,16.7 244.4,17.3 244.2,18 243.5,18.6 242.2,19.2 240.6,19.6 238.6,19.9 236.4,20.1 234.2,20 
		232.1,19.8 230.3,19.5 229,19 228.1,18.4 227.7,17.7 227.9,17.1 228.7,16.4 230,15.9 231.7,15.5 232.6,15.3 232.6,15.6 231.8,15.9 
		231,16.3 230.6,16.7 230.5,17.1 230.5,17.5 230.5,17.7 230.5,17.7 230.5,17.8 230.6,17.9 230.7,18.1 230.8,18.2 	"/>
	<polyline class="st10" points="231.1,18.3 230.9,18.2 230.9,17.5 231.6,17.9 231.6,18.6 231.5,18.5 231.3,18.5 231.1,18.3 	"/>
	<polyline class="st3" points="241.6,17.5 241.6,17.7 241.6,17 241.6,16.6 241.6,17.3 241.6,17.4 241.6,17.4 241.6,17.5 	"/>
	<polyline class="st11" points="241.6,17.4 241.6,17.4 241.7,17.4 241.6,17.4 	"/>
	<polyline class="st12" points="241.5,17.9 241.2,18.1 241.2,17.5 241.6,17 241.6,17.7 241.5,17.8 241.5,17.8 241.5,17.9 	"/>
	<polyline class="st13" points="241,18.3 240.5,18.5 240.4,17.9 241.2,17.5 241.2,18.1 241,18.2 241,18.2 241,18.3 	"/>
	<polyline class="st14" points="240.1,18.6 239.4,18.8 239.4,18.2 240.4,17.9 240.5,18.5 240.2,18.6 240.2,18.6 240.1,18.6 	"/>
	<polyline class="st15" points="239,18.9 238.1,19.1 238.1,18.4 239.4,18.2 239.4,18.8 239.1,18.9 239.1,18.9 239,18.9 	"/>
	<polyline class="st16" points="237.7,19.1 236.7,19.2 236.7,18.5 238.1,18.4 238.1,19.1 237.8,19.1 237.7,19.1 237.7,19.1 	"/>
	<polyline class="st17" points="236.2,19.2 235.2,19.2 235.2,18.5 236.7,18.5 236.7,19.2 236.3,19.2 236.3,19.2 236.2,19.2 	"/>
	<polyline class="st18" points="234.6,19.2 233.8,19.1 233.8,18.4 235.2,18.5 235.2,19.2 234.9,19.2 234.8,19.2 234.6,19.2 	"/>
	<polyline class="st19" points="233.2,19 232.6,18.9 232.6,18.2 233.8,18.4 233.8,19.1 233.6,19.1 233.5,19.1 233.2,19 	"/>
	<polyline class="st20" points="232,18.7 231.6,18.6 231.6,17.9 232.6,18.2 232.6,18.9 232.4,18.8 232.3,18.8 232,18.7 	"/>
	<polyline class="st1" points="57.3,40 57.4,42.9 54.1,40.6 57.3,40 	"/>
	<polyline class="st7" points="213.4,157.7 211.5,156.7 209,156 207.8,155.8 207.8,151.9 408.1,94.6 408,96.1 407.7,96.2 
		405.4,96.6 403.6,97.3 402.3,98.2 401.8,99.2 402,100.2 402.9,101.3 404.4,102.2 406.5,103 409.1,103.6 411.8,103.9 414.6,104 
		417.2,103.7 419.5,103.2 421.4,102.5 422.5,101.6 423,100.6 422.8,99.6 421.9,98.5 420.3,97.6 418.2,96.9 417,96.6 417.2,92 
		420.9,91 421,87.3 455.5,102.8 422.6,112.8 422.1,112.9 421,113.3 419.2,113.8 416.9,114.5 414.2,115.3 411.4,116.2 408.6,117 
		406.1,117.8 403.9,118.4 402.3,118.9 401.4,119.2 401.2,119.2 215.5,175.4 215.1,175.5 213.9,175.8 212,176.4 209.4,177.2 
		206.5,178.1 203.3,179 200.2,180 197.2,180.9 194.7,181.6 192.8,182.2 191.7,182.6 191.3,182.7 189.8,183.1 72.5,93.2 72.5,93.2 
		71.4,92.3 69.2,90.6 66,88.2 62.2,85.3 60.4,84 58,82.1 57.2,81.5 54.5,79.4 52,77.5 49.7,75.8 47.9,74.4 46.7,73.4 46.1,73 
		19.1,52.3 48.4,46.5 50.4,47.9 50.7,52 48.7,52.5 47,53.2 45.7,54 45,54.8 45,55.6 45.6,56.3 46.8,57 48.6,57.4 50.8,57.7 
		53.2,57.7 55.7,57.5 58.2,57.1 60.3,56.6 61.9,56 63.2,57 58.3,58 60,59.1 64.9,62.7 69.8,61.6 83.9,71.6 78.9,72.7 80.5,73.9 
		86,77.8 91,76.6 106.3,87.4 101.1,88.6 102.8,89.9 108.9,94.2 114.1,93 130.8,104.8 125.4,106.1 127.2,107.3 133.9,112.1 
		139.3,110.8 157.5,123.7 152,125.1 153.8,126.4 161.3,131.8 166.9,130.3 186.9,144.5 181.3,146.1 183.1,147.4 191.5,153.4 
		197.2,151.8 197.8,152.2 197.9,156.2 196.9,156.4 194.4,157.3 192.4,158.5 191.2,159.8 190.8,161.2 191.1,162.6 192.4,163.8 
		194.3,164.9 196.9,165.7 199.8,166.1 203,166.2 206.2,165.9 209.2,165.2 211.7,164.2 213.6,163 214.8,161.7 215.2,160.3 
		214.7,158.9 213.4,157.7 	"/>
	<polyline class="st9" points="403.6,97.3 405.4,96.6 407.7,96.2 408,96.1 408,96.9 407.4,97 406.3,97.5 405.6,98.1 405.4,98.8 
		405.4,99.4 405.3,99.4 405.4,99.5 405.4,99.6 405.4,99.8 405.5,100.1 405.6,100.3 405.6,100.3 405.8,100.5 406.1,100.8 
		406.2,100.9 406.3,101 406.7,101.2 407.1,101.4 407.3,101.5 407.5,101.6 408.1,101.8 408.5,102 408.7,102 409,102.1 409.8,102.3 
		410.2,102.4 410.3,102.4 410.7,102.4 411.7,102.5 412,102.6 412.1,102.6 412.5,102.6 413.7,102.6 413.9,102.6 413.9,102.6 
		414.4,102.6 415.5,102.5 415.6,102.5 415.6,102.4 416.1,102.4 417.1,102.1 417.2,102.1 417.2,102.1 417.5,102 418.3,101.7 
		418.4,101.7 418.4,101.6 418.6,101.5 419.1,101.1 419.2,101.1 419.2,101 419.3,100.9 419.4,100.5 419.5,100.4 419.5,100.4 
		419.5,100.4 419.5,100.2 419.6,99.4 419.3,98.7 418.5,98 417.4,97.4 417,97.3 417,96.6 418.2,96.9 420.3,97.6 421.9,98.5 
		422.8,99.6 423,100.6 422.5,101.6 421.4,102.5 419.5,103.2 417.2,103.7 414.6,104 411.8,103.9 409.1,103.6 406.5,103 404.4,102.2 
		402.9,101.3 402,100.2 401.8,99.2 402.3,98.2 403.6,97.3 	"/>
	<polyline class="st8" points="405.8,100.5 405.6,100.3 405.6,99.5 406.4,100.2 406.3,101 406.2,100.9 406.1,100.8 405.8,100.5 	"/>
	<polyline class="st10" points="406.7,101.2 406.3,101 406.4,100.2 407.5,100.8 407.5,101.6 407.3,101.5 407.1,101.4 406.7,101.2 	
		"/>
	<polyline class="st12" points="419.4,100.5 419.3,100.9 419.3,100.1 419.6,99.4 419.5,100.2 419.5,100.4 419.5,100.4 419.4,100.5 	
		"/>
	<polyline class="st21" points="419.5,100.4 419.5,100.4 419.5,100.4 419.5,100.4 	"/>
	<polyline class="st13" points="419.1,101.1 418.6,101.5 418.7,100.7 419.3,100.1 419.3,100.9 419.2,101 419.2,101.1 419.1,101.1 	
		"/>
	<polyline class="st14" points="418.3,101.7 417.5,102 417.6,101.2 418.7,100.7 418.6,101.5 418.4,101.6 418.4,101.7 418.3,101.7 	
		"/>
	<polyline class="st15" points="417.1,102.1 416.1,102.4 416.1,101.6 417.6,101.2 417.5,102 417.2,102.1 417.2,102.1 417.1,102.1 	
		"/>
	<polyline class="st16" points="415.5,102.5 414.4,102.6 414.4,101.8 416.1,101.6 416.1,102.4 415.6,102.4 415.6,102.5 415.5,102.5 
			"/>
	<polyline class="st17" points="413.7,102.6 412.5,102.6 412.6,101.8 414.4,101.8 414.4,102.6 413.9,102.6 413.9,102.6 413.7,102.6 
			"/>
	<polyline class="st18" points="411.7,102.5 410.7,102.4 410.7,101.6 412.6,101.8 412.5,102.6 412.1,102.6 412,102.6 411.7,102.5 	
		"/>
	<polyline class="st19" points="409.8,102.3 409,102.1 409,101.3 410.7,101.6 410.7,102.4 410.3,102.4 410.2,102.4 409.8,102.3 	"/>
	<polyline class="st20" points="408.1,101.8 407.5,101.6 407.5,100.8 409,101.3 409,102.1 408.7,102 408.5,102 408.1,101.8 	"/>
	<polyline class="st3" points="405.6,100.3 405.6,100.3 405.5,100.1 405.4,99.8 405.4,99.6 405.4,99.5 405.4,99.4 405.4,98.8 
		405.6,99.5 405.6,100.3 	"/>
	<polyline class="st4" points="406.4,100.2 405.6,99.5 405.4,98.8 405.6,98.1 406.3,97.5 407.4,97 408,96.9 407.9,98.7 408.1,98.8 
		412.2,100.7 412.3,100.8 416.9,99.4 417,97.3 417.4,97.4 418.5,98 419.3,98.7 419.6,99.4 419.3,100.1 418.7,100.7 417.6,101.2 
		416.1,101.6 414.4,101.8 412.6,101.8 410.7,101.6 409,101.3 407.5,100.8 406.4,100.2 	"/>
	<polyline class="st5" points="416.9,99.4 412.3,100.8 412.6,93.4 417.2,92 417,96.6 417,97.3 416.9,99.4 	"/>
	<polyline class="st6" points="408.1,98.8 407.9,98.7 408,96.9 408,96.1 408.1,94.6 408.2,94.6 408.1,98.8 	"/>
	<polyline class="st6" points="412.3,100.8 412.2,100.7 412.4,93.4 412.6,93.4 412.3,100.8 	"/>
	<polyline class="st0" points="412.2,100.7 408.1,98.8 408.2,94.6 412.4,93.4 412.2,100.7 	"/>
	<polyline class="st9" points="48.7,52.5 50.7,52 50.7,52.5 50.3,52.6 49.2,53.1 48.4,53.6 48.1,54.1 48.2,54.9 48.2,55 48.2,55.2 
		48.2,55.3 48.2,55.3 48.3,55.4 48.4,55.6 48.6,55.7 48.7,55.8 48.8,55.9 49.2,56 49.4,56.2 49.5,56.2 49.7,56.3 50.3,56.4 
		50.6,56.5 50.7,56.5 51,56.5 51.8,56.6 52,56.6 52.1,56.6 52.5,56.7 53.5,56.6 53.6,56.6 53.7,56.6 54.1,56.6 55.2,56.5 55.3,56.5 
		55.4,56.5 55.8,56.5 56.9,56.3 56.9,56.3 57,56.3 57.4,56.2 58.3,55.9 58.4,55.9 58.4,55.9 58.8,55.8 59.5,55.5 59.6,55.4 
		59.6,55.4 59.8,55.3 60.3,55 60.4,54.9 61.9,56 60.3,56.6 58.2,57.1 55.7,57.5 53.2,57.7 50.8,57.7 48.6,57.4 46.8,57 45.6,56.3 
		45,55.6 45,54.8 45.7,54 47,53.2 48.7,52.5 	"/>
	<polyline class="st8" points="48.3,55.4 48.2,55.3 48.2,55.3 48.2,55 48.2,54.9 48.1,54.1 48.2,54.7 48.3,55.4 	"/>
	<polyline class="st11" points="48.2,55 48.2,55.3 48.2,55.2 48.2,55 	"/>
	<polyline class="st10" points="48.4,55.6 48.3,55.4 48.2,54.7 48.7,55.1 48.8,55.9 48.7,55.8 48.6,55.7 48.4,55.6 	"/>
	<polyline class="st12" points="60.3,55 59.8,55.3 59.8,54.6 59.8,54.5 60.4,54.9 60.3,55 	"/>
	<polyline class="st13" points="59.5,55.5 58.8,55.8 58.7,55.1 59.8,54.6 59.8,55.3 59.6,55.4 59.6,55.4 59.5,55.5 	"/>
	<polyline class="st14" points="58.3,55.9 57.4,56.2 57.3,55.5 58.7,55.1 58.8,55.8 58.4,55.9 58.4,55.9 58.3,55.9 	"/>
	<polyline class="st15" points="56.9,56.3 55.8,56.5 55.7,55.7 57.3,55.5 57.4,56.2 57,56.3 56.9,56.3 56.9,56.3 	"/>
	<polyline class="st16" points="55.2,56.5 54.1,56.6 54.1,55.9 55.7,55.7 55.8,56.5 55.4,56.5 55.3,56.5 55.2,56.5 	"/>
	<polyline class="st17" points="53.5,56.6 52.5,56.7 52.4,55.9 54.1,55.9 54.1,56.6 53.7,56.6 53.6,56.6 53.5,56.6 	"/>
	<polyline class="st18" points="51.8,56.6 51,56.5 50.9,55.8 52.4,55.9 52.5,56.7 52.1,56.6 52,56.6 51.8,56.6 	"/>
	<polyline class="st19" points="50.3,56.4 49.7,56.3 49.7,55.5 50.9,55.8 51,56.5 50.7,56.5 50.6,56.5 50.3,56.4 	"/>
	<polyline class="st20" points="49.2,56 48.8,55.9 48.7,55.1 49.7,55.5 49.7,56.3 49.5,56.2 49.4,56.2 49.2,56 	"/>
	<polyline class="st4" points="48.2,54.7 48.1,54.1 48.4,53.6 49.2,53.1 50.3,52.6 50.7,52.5 50.8,53.5 50.8,53.6 52.9,55.1 
		53,55.1 58.2,54.1 58.1,53.3 59.8,54.5 59.8,54.6 58.7,55.1 57.3,55.5 55.7,55.7 54.1,55.9 52.4,55.9 50.9,55.8 49.7,55.5 
		48.7,55.1 48.2,54.7 	"/>
	<polyline class="st5" points="58.2,54.1 53,55.1 52.6,49.5 58.1,53.3 58.2,54.1 	"/>
	<polyline class="st6" points="50.8,53.6 50.8,53.5 50.7,52.5 50.7,52 50.4,47.9 50.5,47.9 50.8,53.6 	"/>
	<polyline class="st6" points="53,55.1 52.9,55.1 52.6,49.4 52.6,49.5 53,55.1 	"/>
	<polyline class="st0" points="52.9,55.1 50.8,53.6 50.5,47.9 52.6,49.4 52.9,55.1 	"/>
	<polyline class="st22" points="393.5,152.4 393.3,150.4 394,126 394.2,127.8 393.5,152.4 	"/>
	<polyline class="st23" points="395,154.3 393.5,152.4 394.2,127.8 395.7,129.7 395,154.3 	"/>
	<polyline class="st24" points="397.5,156.1 395,154.3 395.7,129.7 398.2,131.3 397.5,156.1 	"/>
	<polyline class="st25" points="400.9,157.5 397.5,156.1 398.2,131.3 401.7,132.7 400.9,157.5 	"/>
	<polyline class="st26" points="405.1,158.6 400.9,157.5 401.7,132.7 405.9,133.8 405.1,158.6 	"/>
	<polyline class="st27" points="409.6,159.2 405.1,158.6 405.9,133.8 410.5,134.4 409.6,159.2 	"/>
	<polyline class="st28" points="414.3,159.3 409.6,159.2 410.5,134.4 415.1,134.4 414.3,159.3 	"/>
	<polyline class="st29" points="418.6,158.9 414.3,159.3 415.1,134.4 419.5,134 418.6,158.9 	"/>
	<polyline class="st30" points="422.4,158 418.6,158.9 419.5,134 423.4,133.2 422.4,158 	"/>
	<polyline class="st31" points="425.4,156.6 422.4,158 423.4,133.2 426.3,131.9 425.4,156.6 	"/>
	<polyline class="st32" points="427.4,155 425.4,156.6 426.3,131.9 428.3,130.3 427.4,155 	"/>
	<polyline class="st33" points="428.1,153.1 427.4,155 428.3,130.3 429.1,128.5 428.1,153.1 	"/>
	<polyline class="st7" points="424.5,123.2 427.1,124.8 428.7,126.6 429.1,128.5 428.3,130.3 426.3,131.9 423.4,133.2 419.5,134 
		415.1,134.4 410.5,134.4 405.9,133.8 401.7,132.7 398.2,131.3 395.7,129.7 394.2,127.8 394,126 394.9,124.2 396.9,122.7 
		399.9,121.4 401.1,121.2 401,126.5 401.1,127.6 402,128.7 403.6,129.7 405.6,130.5 408.1,131.1 410.9,131.5 413.6,131.5 
		416.3,131.3 418.6,130.8 420.4,130 421.5,129 422,128 422.2,122.3 424.5,123.2 	"/>
	<polyline class="st24" points="403.6,129.7 402,128.7 402.3,118.9 403.9,118.4 403.6,129.7 	"/>
	<polyline class="st22" points="401.1,127.6 401,126.5 401.1,121.2 401.2,119.2 401.4,119.2 401.1,127.6 	"/>
	<polyline class="st34" points="422,128 421.5,129 422.1,112.9 422.6,112.8 422.2,122.3 422,128 	"/>
	<polyline class="st35" points="420.4,130 418.6,130.8 419.2,113.8 421,113.3 420.4,130 	"/>
	<polyline class="st23" points="402,128.7 401.1,127.6 401.4,119.2 402.3,118.9 402,128.7 	"/>
	<polyline class="st36" points="413.6,131.5 410.9,131.5 411.4,116.2 414.2,115.3 413.6,131.5 	"/>
	<polyline class="st37" points="421.5,129 420.4,130 421,113.3 422.1,112.9 421.5,129 	"/>
	<polyline class="st38" points="418.6,130.8 416.3,131.3 416.9,114.5 419.2,113.8 418.6,130.8 	"/>
	<polyline class="st39" points="416.3,131.3 413.6,131.5 414.2,115.3 416.9,114.5 416.3,131.3 	"/>
	<polyline class="st40" points="410.9,131.5 408.1,131.1 408.6,117 411.4,116.2 410.9,131.5 	"/>
	<polyline class="st26" points="408.1,131.1 405.6,130.5 406.1,117.8 408.6,117 408.1,131.1 	"/>
	<polyline class="st25" points="405.6,130.5 403.6,129.7 403.9,118.4 406.1,117.8 405.6,130.5 	"/>
	<polyline class="st23" points="184.8,222.8 184.2,220.3 183.5,192.5 184.1,194.9 184.8,222.8 	"/>
	<polyline class="st24" points="186.8,225.2 184.8,222.8 184.1,194.9 186.1,197.2 186.8,225.2 	"/>
	<polyline class="st25" points="190,227.1 186.8,225.2 186.1,197.2 189.3,199.1 190,227.1 	"/>
	<polyline class="st26" points="194.2,228.6 190,227.1 189.3,199.1 193.5,200.4 194.2,228.6 	"/>
	<polyline class="st27" points="199.1,229.4 194.2,228.6 193.5,200.4 198.4,201.2 199.1,229.4 	"/>
	<polyline class="st28" points="204.4,229.5 199.1,229.4 198.4,201.2 203.8,201.3 204.4,229.5 	"/>
	<polyline class="st29" points="209.7,229 204.4,229.5 203.8,201.3 209.1,200.8 209.7,229 	"/>
	<polyline class="st30" points="214.6,227.7 209.7,229 209.1,200.8 214,199.6 214.6,227.7 	"/>
	<polyline class="st31" points="218.7,225.9 214.6,227.7 214,199.6 218.2,197.9 218.7,225.9 	"/>
	<polyline class="st32" points="221.8,223.7 218.7,225.9 218.2,197.9 221.3,195.8 221.8,223.7 	"/>
	<polyline class="st33" points="223.7,221.2 221.8,223.7 221.3,195.8 223.2,193.4 223.7,221.2 	"/>
	<polyline class="st22" points="224.3,218.6 223.7,221.2 223.2,193.4 223.8,190.9 224.3,218.6 	"/>
	<polyline class="st7" points="198.4,201.2 193.5,200.4 189.3,199.1 186.1,197.2 184.1,194.9 183.5,192.5 184.2,190 186.3,187.7 
		189.5,185.7 191.4,185 191.5,192.2 191.9,193.6 193.1,195 195.1,196.1 197.6,196.9 200.6,197.4 203.7,197.4 206.9,197.1 
		209.8,196.4 212.3,195.4 214.2,194.1 215.4,192.7 215.8,191.2 215.6,184 217.6,184.6 220.9,186.4 223,188.5 223.8,190.9 
		223.2,193.4 221.3,195.8 218.2,197.9 214,199.6 209.1,200.8 203.8,201.3 198.4,201.2 	"/>
	<polyline class="st36" points="203.7,197.4 200.6,197.4 200.2,180 203.3,179 203.7,197.4 	"/>
	<polyline class="st39" points="206.9,197.1 203.7,197.4 203.3,179 206.5,178.1 206.9,197.1 	"/>
	<polyline class="st40" points="200.6,197.4 197.6,196.9 197.2,180.9 200.2,180 200.6,197.4 	"/>
	<polyline class="st38" points="209.8,196.4 206.9,197.1 206.5,178.1 209.4,177.2 209.8,196.4 	"/>
	<polyline class="st26" points="197.6,196.9 195.1,196.1 194.7,181.6 197.2,180.9 197.6,196.9 	"/>
	<polyline class="st31" points="212.3,195.4 209.8,196.4 209.4,177.2 212,176.4 212.3,195.4 	"/>
	<polyline class="st41" points="195.1,196.1 193.1,195 192.8,182.2 194.7,181.6 195.1,196.1 	"/>
	<polyline class="st32" points="214.2,194.1 212.3,195.4 212,176.4 213.9,175.8 214.2,194.1 	"/>
	<polyline class="st42" points="193.1,195 191.9,193.6 191.7,182.6 192.8,182.2 193.1,195 	"/>
	<polyline class="st34" points="215.4,192.7 214.2,194.1 213.9,175.8 215.1,175.5 215.4,192.7 	"/>
	<polyline class="st11" points="191.9,193.6 191.5,192.2 191.4,185 191.3,182.7 191.7,182.6 191.9,193.6 	"/>
	<polyline class="st21" points="215.8,191.2 215.4,192.7 215.1,175.5 215.5,175.4 215.6,184 215.8,191.2 	"/>
	<polyline class="st25" points="44.7,105.6 42.7,104.5 41.2,82.3 43.3,83.4 44.7,105.6 	"/>
	<polyline class="st26" points="47.6,106.5 44.7,105.6 43.3,83.4 46.2,84.2 47.6,106.5 	"/>
	<polyline class="st27" points="51.2,107 47.6,106.5 46.2,84.2 49.8,84.6 51.2,107 	"/>
	<polyline class="st28" points="55.2,107 51.2,107 49.8,84.6 53.9,84.7 55.2,107 	"/>
	<polyline class="st29" points="59.4,106.7 55.2,107 53.9,84.7 58.1,84.4 59.4,106.7 	"/>
	<polyline class="st30" points="63.4,106 59.4,106.7 58.1,84.4 60.4,84 62.2,85.3 63.4,106 	"/>
	<polyline class="st31" points="67,104.9 63.4,106 62.2,85.3 66,88.2 67,104.9 	"/>
	<polyline class="st32" points="69.9,103.6 67,104.9 66,88.2 69.2,90.6 69.9,103.6 	"/>
	<polyline class="st33" points="71.9,102.1 69.9,103.6 69.2,90.6 71.4,92.3 71.9,102.1 	"/>
	<polyline class="st22" points="72.9,100.6 71.9,102.1 71.4,92.3 72.5,93.2 72.9,100.6 	"/>
	<polyline class="st23" points="72.9,99.1 72.9,100.6 72.5,93.2 72.5,93.2 72.9,99.1 	"/>
	<polyline class="st24" points="42.7,104.5 41.6,103.1 40.2,80.9 41.2,82.3 42.7,104.5 	"/>
	<polyline class="st7" points="43.3,83.4 41.2,82.3 40.2,80.9 40.3,79.5 41.4,78 43.5,76.7 46.2,75.5 46.5,80.2 47.2,81 48.4,81.6 
		50.1,82.1 52.3,82.4 54.7,82.4 57.2,82.2 58,82.1 60.4,84 58.1,84.4 53.9,84.7 49.8,84.6 46.2,84.2 43.3,83.4 	"/>
	<polyline class="st42" points="47.2,81 46.5,80.2 46.2,75.5 46.1,73 46.7,73.4 47.2,81 	"/>
	<polyline class="st25" points="48.4,81.6 47.2,81 46.7,73.4 47.9,74.4 48.4,81.6 	"/>
	<polyline class="st26" points="50.1,82.1 48.4,81.6 47.9,74.4 49.7,75.8 50.1,82.1 	"/>
	<polyline class="st27" points="52.3,82.4 50.1,82.1 49.7,75.8 52,77.5 52.3,82.4 	"/>
	<polyline class="st28" points="54.7,82.4 52.3,82.4 52,77.5 54.5,79.4 54.7,82.4 	"/>
	<polyline class="st29" points="57.2,82.2 54.7,82.4 54.5,79.4 57.2,81.5 57.2,82.2 	"/>
	<polyline class="st30" points="58,82.1 57.2,82.2 57.2,81.5 58,82.1 	"/>
	<polyline class="st43" points="389,88.5 390.4,89.1 388.9,89.5 389,88.5 	"/>
	<polyline class="st44" points="376.6,93 375.1,92.3 389,88.5 388.9,89.5 376.6,93 	"/>
	<polyline class="st43" points="300.1,113.1 301.5,113.9 300.1,114.2 300.1,113.1 	"/>
	<polyline class="st44" points="285.8,118.2 284.5,117.5 300.1,113.1 300.1,114.2 285.8,118.2 	"/>
	<polyline class="st7" points="197.2,151.8 191.5,153.4 183.1,147.4 188.8,145.8 197.2,151.8 	"/>
	<polyline class="st44" points="181.3,146.1 186.9,144.5 188.8,145.8 183.1,147.4 181.3,146.1 	"/>
	<polyline class="st7" points="166.9,130.3 161.3,131.8 153.8,126.4 159.3,125 166.9,130.3 	"/>
	<polyline class="st44" points="152,125.1 157.5,123.7 159.3,125 153.8,126.4 152,125.1 	"/>
	<polyline class="st7" points="139.3,110.8 133.9,112.1 127.2,107.3 132.5,106 139.3,110.8 	"/>
	<polyline class="st44" points="125.4,106.1 130.8,104.8 132.5,106 127.2,107.3 125.4,106.1 	"/>
	<polyline class="st7" points="114.1,93 108.9,94.2 102.8,89.9 108,88.7 114.1,93 	"/>
	<polyline class="st44" points="101.1,88.6 106.3,87.4 108,88.7 102.8,89.9 101.1,88.6 	"/>
	<polyline class="st7" points="91,76.6 86,77.8 80.5,73.9 85.6,72.8 91,76.6 	"/>
	<polyline class="st44" points="78.9,72.7 83.9,71.6 85.6,72.8 80.5,73.9 78.9,72.7 	"/>
	<polyline class="st7" points="69.8,61.6 64.9,62.7 60,59.1 64.9,58.1 69.8,61.6 	"/>
	<polyline class="st44" points="58.3,58 63.2,57 64.9,58.1 60,59.1 58.3,58 	"/>
	<polyline class="st21" points="194.9,161.2 194.8,161.1 194.9,160.9 194.9,161.2 	"/>
	<polyline class="st34" points="405.4,99.5 405.3,99.4 405.4,99.4 405.4,99.5 	"/>
	<polyline class="st21" points="230.5,17.7 230.5,17.7 230.5,17.5 230.5,17.7 	"/>
	<polyline class="st43" points="354.8,72.5 365.7,77.6 363.5,78.2 354.7,74.1 354.8,72.5 	"/>
	<polyline class="st44" points="341.2,76 354.8,72.5 354.7,74.1 343.3,77 341.2,76 	"/>
	<polyline class="st7" points="343.3,77 354.7,74.1 363.5,78.2 352,81.2 343.3,77 	"/>
	<polyline class="st43" points="323.3,57.8 333.3,62.5 331.2,63 323.3,59.3 323.3,57.8 	"/>
	<polyline class="st44" points="310,61.1 323.3,57.8 323.3,59.3 312,62.1 310,61.1 	"/>
	<polyline class="st7" points="312,62.1 323.3,59.3 331.2,63 319.9,65.9 312,62.1 	"/>
	<polyline class="st43" points="294.2,44.3 303.5,48.6 301.4,49.1 294.2,45.7 294.2,44.3 	"/>
	<polyline class="st44" points="281.1,47.3 294.2,44.3 294.2,45.7 283.2,48.2 281.1,47.3 	"/>
	<polyline class="st7" points="283.2,48.2 294.2,45.7 301.4,49.1 290.4,51.7 283.2,48.2 	"/>
	<polyline class="st43" points="267.3,31.7 275.9,35.7 273.9,36.2 267.3,33.1 267.3,31.7 	"/>
	<polyline class="st44" points="254.5,34.5 267.3,31.7 267.3,33.1 256.5,35.4 254.5,34.5 	"/>
	<polyline class="st7" points="267.3,33.1 273.9,36.2 263,38.6 256.5,35.4 267.3,33.1 	"/>
	<polyline class="st43" points="242.3,20 250.3,23.8 248.3,24.2 242.3,21.4 242.3,20 	"/>
	<polyline class="st44" points="229.7,22.6 242.3,20 242.3,21.4 231.7,23.6 229.7,22.6 	"/>
	<polyline class="st7" points="242.3,21.4 248.3,24.2 237.6,26.4 231.7,23.6 242.3,21.4 	"/>
	<polyline class="st43" points="215.9,33.9 223.9,38 222,38.4 215.9,35.3 215.9,33.9 	"/>
	<polyline class="st44" points="202.6,36.8 215.9,33.9 215.9,35.3 204.5,37.8 202.6,36.8 	"/>
	<polyline class="st7" points="204.5,37.8 215.9,35.3 222,38.4 210.5,40.9 204.5,37.8 	"/>
	<polyline class="st43" points="241,46.7 249.7,51.1 247.7,51.5 241,48.1 241,46.7 	"/>
	<polyline class="st44" points="227.4,49.7 241,46.7 241,48.1 229.3,50.7 227.4,49.7 	"/>
	<polyline class="st7" points="241,48.1 247.7,51.5 236,54.2 229.3,50.7 241,48.1 	"/>
	<polyline class="st43" points="268.2,60.4 277.6,65.2 275.6,65.7 268.2,61.9 268.2,60.4 	"/>
	<polyline class="st44" points="254.2,63.7 268.2,60.4 268.2,61.9 256.2,64.8 254.2,63.7 	"/>
	<polyline class="st7" points="268.2,61.9 275.6,65.7 263.5,68.6 256.2,64.8 268.2,61.9 	"/>
	<polyline class="st43" points="297.6,75.4 307.8,80.5 305.7,81 297.6,76.9 297.6,75.4 	"/>
	<polyline class="st44" points="283.4,78.9 297.6,75.4 297.6,76.9 285.4,80 283.4,78.9 	"/>
	<polyline class="st7" points="297.6,76.9 305.7,81 293.5,84.2 285.4,80 297.6,76.9 	"/>
	<polyline class="st43" points="329.6,91.6 340.7,97.2 338.6,97.8 329.6,93.2 329.6,91.6 	"/>
	<polyline class="st44" points="315,95.5 329.6,91.6 329.6,93.2 317.1,96.5 315,95.5 	"/>
	<polyline class="st7" points="329.6,93.2 338.6,97.8 326.1,101.2 317.1,96.5 329.6,93.2 	"/>
	<polyline class="st43" points="267.8,95.1 278.1,100.8 276.1,101.4 267.8,96.7 267.8,95.1 	"/>
	<polyline class="st44" points="252.4,99.1 267.8,95.1 267.8,96.7 254.4,100.2 252.4,99.1 	"/>
	<polyline class="st7" points="254.4,100.2 267.8,96.7 276.1,101.4 262.6,104.9 254.4,100.2 	"/>
	<polyline class="st43" points="238.1,78.6 247.5,83.8 245.6,84.3 238.1,80.2 238.1,78.6 	"/>
	<polyline class="st44" points="223.2,82.2 238.1,78.6 238.1,80.2 225.1,83.3 223.2,82.2 	"/>
	<polyline class="st7" points="238.1,80.2 245.6,84.3 232.5,87.6 225.1,83.3 238.1,80.2 	"/>
	<polyline class="st43" points="210.8,63.4 219.5,68.3 217.6,68.7 210.9,64.9 210.8,63.4 	"/>
	<polyline class="st44" points="196.2,66.8 210.8,63.4 210.9,64.9 198.1,67.9 196.2,66.8 	"/>
	<polyline class="st7" points="210.9,64.9 217.6,68.7 204.8,71.7 198.1,67.9 210.9,64.9 	"/>
	<polyline class="st43" points="185.7,49.4 193.7,53.9 191.9,54.3 185.7,50.9 185.7,49.4 	"/>
	<polyline class="st44" points="171.5,52.5 185.7,49.4 185.7,50.9 173.3,53.6 171.5,52.5 	"/>
	<polyline class="st7" points="173.3,53.6 185.7,50.9 191.9,54.3 179.4,57.1 173.3,53.6 	"/>
	<polyline class="st43" points="162.4,36.5 169.9,40.6 168.1,41 162.5,37.9 162.4,36.5 	"/>
	<polyline class="st44" points="148.5,39.4 162.4,36.5 162.5,37.9 150.4,40.4 148.5,39.4 	"/>
	<polyline class="st7" points="150.4,40.4 162.5,37.9 168.1,41 155.9,43.6 150.4,40.4 	"/>
	<polyline class="st43" points="129.4,52.2 136.8,56.8 135.1,57.2 129.5,53.7 129.4,52.2 	"/>
	<polyline class="st44" points="114.6,55.4 129.4,52.2 129.5,53.7 116.3,56.5 114.6,55.4 	"/>
	<polyline class="st7" points="116.3,56.5 129.5,53.7 135.1,57.2 121.8,60 116.3,56.5 	"/>
	<polyline class="st43" points="152.5,66.5 160.5,71.4 158.7,71.8 152.5,68 152.5,66.5 	"/>
	<polyline class="st44" points="137.2,69.9 152.5,66.5 152.5,68 139,71 137.2,69.9 	"/>
	<polyline class="st7" points="139,71 152.5,68 158.7,71.8 145.1,74.9 139,71 	"/>
	<polyline class="st43" points="177.5,81.9 186.2,87.2 184.4,87.7 177.6,83.5 177.5,81.9 	"/>
	<polyline class="st44" points="161.8,85.6 177.5,81.9 177.6,83.5 163.7,86.8 161.8,85.6 	"/>
	<polyline class="st7" points="163.7,86.8 177.6,83.5 184.4,87.7 170.4,91.1 163.7,86.8 	"/>
	<polyline class="st43" points="204.7,98.7 214.2,104.5 212.4,105 204.8,100.3 204.7,98.7 	"/>
	<polyline class="st44" points="188.7,102.7 204.7,98.7 204.8,100.3 190.5,103.9 188.7,102.7 	"/>
	<polyline class="st7" points="190.5,103.9 204.8,100.3 212.4,105 198,108.7 190.5,103.9 	"/>
	<polyline class="st43" points="234.5,117.1 244.9,123.5 243,124 234.5,118.8 234.5,117.1 	"/>
	<polyline class="st44" points="218,121.5 234.5,117.1 234.5,118.8 219.9,122.7 218,121.5 	"/>
	<polyline class="st7" points="219.9,122.7 234.5,118.8 243,124 228.2,128 219.9,122.7 	"/>
	<line class="st45" x1="402" y1="128.7" x2="403.6" y2="129.7"/>
	<line class="st45" x1="401.1" y1="127.6" x2="401" y2="126.5"/>
	<line class="st45" x1="421.5" y1="129" x2="422" y2="128"/>
	<line class="st45" x1="418.6" y1="130.8" x2="420.4" y2="130"/>
	<line class="st45" x1="402" y1="128.7" x2="401.1" y2="127.6"/>
	<line class="st45" x1="410.9" y1="131.5" x2="413.6" y2="131.5"/>
	<line class="st45" x1="420.4" y1="130" x2="421.5" y2="129"/>
	<line class="st45" x1="416.3" y1="131.3" x2="418.6" y2="130.8"/>
	<line class="st45" x1="413.6" y1="131.5" x2="416.3" y2="131.3"/>
	<line class="st45" x1="408.1" y1="131.1" x2="410.9" y2="131.5"/>
	<line class="st45" x1="405.6" y1="130.5" x2="408.1" y2="131.1"/>
	<line class="st45" x1="403.6" y1="129.7" x2="405.6" y2="130.5"/>
	<polyline class="st45" points="200.6,197.4 203.7,197.4 206.9,197.1 	"/>
	<line class="st45" x1="197.6" y1="196.9" x2="200.6" y2="197.4"/>
	<line class="st45" x1="206.9" y1="197.1" x2="209.8" y2="196.4"/>
	<line class="st45" x1="195.1" y1="196.1" x2="197.6" y2="196.9"/>
	<line class="st45" x1="209.8" y1="196.4" x2="212.3" y2="195.4"/>
	<line class="st45" x1="193.1" y1="195" x2="195.1" y2="196.1"/>
	<line class="st45" x1="212.3" y1="195.4" x2="214.2" y2="194.1"/>
	<line class="st45" x1="193.1" y1="195" x2="191.9" y2="193.6"/>
	<line class="st45" x1="214.2" y1="194.1" x2="215.4" y2="192.7"/>
	<line class="st45" x1="191.9" y1="193.6" x2="191.5" y2="192.2"/>
	<line class="st45" x1="215.4" y1="192.7" x2="215.8" y2="191.2"/>
	<line class="st45" x1="47.2" y1="81" x2="46.5" y2="80.2"/>
	<polyline class="st45" points="47.2,81 48.4,81.6 50.1,82.1 52.3,82.4 54.7,82.4 57.2,82.2 58,82.1 	"/>
	<line class="st45" x1="46.7" y1="37.5" x2="47.6" y2="38.1"/>
	<polyline class="st45" points="198.5,142.5 200.1,143.6 421.2,81.9 	"/>
	<line class="st45" x1="200.3" y1="154" x2="200.1" y2="143.6"/>
	<line class="st45" x1="47.6" y1="38.1" x2="198.5" y2="142.5"/>
	<line class="st45" x1="236.7" y1="1.5" x2="417.4" y2="81.6"/>
	<line class="st45" x1="201.8" y1="162.1" x2="201.6" y2="153.6"/>
	<line class="st45" x1="194.8" y1="160.4" x2="195.3" y2="161.3"/>
	<line class="st45" x1="197.6" y1="162.7" x2="199.4" y2="163.2"/>
	<line class="st45" x1="195.3" y1="161.3" x2="196.2" y2="162.1"/>
	<line class="st45" x1="211" y1="160.2" x2="211.1" y2="159.3"/>
	<line class="st45" x1="210.3" y1="161.1" x2="211" y2="160.2"/>
	<line class="st45" x1="209.2" y1="162" x2="210.3" y2="161.1"/>
	<line class="st45" x1="207.6" y1="162.6" x2="209.2" y2="162"/>
	<line class="st45" x1="205.7" y1="163.1" x2="207.6" y2="162.6"/>
	<line class="st45" x1="203.6" y1="163.4" x2="205.7" y2="163.1"/>
	<line class="st45" x1="201.5" y1="163.4" x2="203.6" y2="163.4"/>
	<line class="st45" x1="199.4" y1="163.2" x2="201.5" y2="163.4"/>
	<line class="st45" x1="196.2" y1="162.1" x2="197.6" y2="162.7"/>
	<line class="st45" x1="412.3" y1="100.8" x2="412.6" y2="93.4"/>
	<line class="st45" x1="408.6" y1="83.1" x2="409.9" y2="83.7"/>
	<line class="st45" x1="405.6" y1="99.5" x2="406.4" y2="100.2"/>
	<line class="st45" x1="409" y1="101.3" x2="410.7" y2="101.6"/>
	<line class="st45" x1="406.4" y1="100.2" x2="407.5" y2="100.8"/>
	<line class="st45" x1="419.3" y1="100.1" x2="419.6" y2="99.4"/>
	<line class="st45" x1="418.7" y1="100.7" x2="419.3" y2="100.1"/>
	<line class="st45" x1="417.6" y1="101.2" x2="418.7" y2="100.7"/>
	<line class="st45" x1="416.1" y1="101.6" x2="417.6" y2="101.2"/>
	<line class="st45" x1="414.4" y1="101.8" x2="416.1" y2="101.6"/>
	<line class="st45" x1="412.6" y1="101.8" x2="414.4" y2="101.8"/>
	<line class="st45" x1="410.7" y1="101.6" x2="412.6" y2="101.8"/>
	<line class="st45" x1="407.5" y1="100.8" x2="409" y2="101.3"/>
	<line class="st45" x1="405.4" y1="98.8" x2="405.6" y2="99.5"/>
	<line class="st45" x1="235.4" y1="17.9" x2="235.3" y2="11.9"/>
	<line class="st45" x1="232.6" y1="10.6" x2="232.6" y2="10.7"/>
	<polyline class="st45" points="235.2,11.9 235.3,11.9 239.4,11.1 	"/>
	<line class="st45" x1="235.1" y1="5.2" x2="239.3" y2="4.4"/>
	<line class="st45" x1="232.5" y1="4" x2="235.1" y2="5.2"/>
	<line class="st45" x1="230.5" y1="17.1" x2="230.9" y2="17.5"/>
	<line class="st45" x1="232.6" y1="18.2" x2="233.8" y2="18.4"/>
	<line class="st45" x1="230.9" y1="17.5" x2="231.6" y2="17.9"/>
	<line class="st45" x1="241.6" y1="17" x2="241.6" y2="16.6"/>
	<line class="st45" x1="241.2" y1="17.5" x2="241.6" y2="17"/>
	<line class="st45" x1="240.4" y1="17.9" x2="241.2" y2="17.5"/>
	<line class="st45" x1="239.4" y1="18.2" x2="240.4" y2="17.9"/>
	<line class="st45" x1="238.1" y1="18.4" x2="239.4" y2="18.2"/>
	<line class="st45" x1="236.7" y1="18.5" x2="238.1" y2="18.4"/>
	<line class="st45" x1="235.2" y1="18.5" x2="236.7" y2="18.5"/>
	<line class="st45" x1="233.8" y1="18.4" x2="235.2" y2="18.5"/>
	<line class="st45" x1="231.6" y1="17.9" x2="232.6" y2="18.2"/>
	<line class="st45" x1="53" y1="55.1" x2="52.6" y2="49.5"/>
	<line class="st45" x1="54.1" y1="40.6" x2="57.3" y2="40"/>
	<line class="st45" x1="48.1" y1="54.1" x2="48.2" y2="54.7"/>
	<line class="st45" x1="49.7" y1="55.5" x2="50.9" y2="55.8"/>
	<line class="st45" x1="48.2" y1="54.7" x2="48.7" y2="55.1"/>
	<line class="st45" x1="59.8" y1="54.6" x2="59.8" y2="54.5"/>
	<line class="st45" x1="58.7" y1="55.1" x2="59.8" y2="54.6"/>
	<line class="st45" x1="57.3" y1="55.5" x2="58.7" y2="55.1"/>
	<line class="st45" x1="55.7" y1="55.7" x2="57.3" y2="55.5"/>
	<line class="st45" x1="54.1" y1="55.9" x2="55.7" y2="55.7"/>
	<line class="st45" x1="52.4" y1="55.9" x2="54.1" y2="55.9"/>
	<line class="st45" x1="50.9" y1="55.8" x2="52.4" y2="55.9"/>
	<line class="st45" x1="48.7" y1="55.1" x2="49.7" y2="55.5"/>
	<polyline class="st45" points="394,126 394.2,127.8 395.7,129.7 398.2,131.3 401.7,132.7 405.9,133.8 410.5,134.4 415.1,134.4 
		419.5,134 423.4,133.2 426.3,131.9 428.3,130.3 429.1,128.5 	"/>
	<polyline class="st45" points="193.5,200.4 198.4,201.2 203.8,201.3 209.1,200.8 214,199.6 218.2,197.9 221.3,195.8 223.2,193.4 
		223.8,190.9 	"/>
	<polyline class="st45" points="183.5,192.5 184.1,194.9 186.1,197.2 189.3,199.1 193.5,200.4 	"/>
	<polyline class="st45" points="41.2,82.3 43.3,83.4 46.2,84.2 49.8,84.6 53.9,84.7 58.1,84.4 60.4,84 	"/>
	<line class="st45" x1="40.2" y1="80.9" x2="41.2" y2="82.3"/>
	<line class="st45" x1="389" y1="88.5" x2="390.4" y2="89.1"/>
	<line class="st45" x1="375.1" y1="92.3" x2="389" y2="88.5"/>
	<line class="st45" x1="354.8" y1="72.5" x2="365.7" y2="77.6"/>
	<line class="st45" x1="341.2" y1="76" x2="354.8" y2="72.5"/>
	<polyline class="st45" points="333.3,62.5 323.3,57.8 310,61.1 	"/>
	<line class="st45" x1="294.2" y1="44.3" x2="303.5" y2="48.6"/>
	<line class="st45" x1="281.1" y1="47.3" x2="294.2" y2="44.3"/>
	<line class="st45" x1="267.3" y1="31.7" x2="275.9" y2="35.7"/>
	<line class="st45" x1="254.5" y1="34.5" x2="267.3" y2="31.7"/>
	<line class="st45" x1="242.3" y1="20" x2="250.3" y2="23.8"/>
	<line class="st45" x1="229.7" y1="22.6" x2="242.3" y2="20"/>
	<line class="st45" x1="215.9" y1="33.9" x2="223.9" y2="38"/>
	<line class="st45" x1="202.6" y1="36.8" x2="215.9" y2="33.9"/>
	<line class="st45" x1="241" y1="46.7" x2="249.7" y2="51.1"/>
	<line class="st45" x1="227.4" y1="49.7" x2="241" y2="46.7"/>
	<line class="st45" x1="268.2" y1="60.4" x2="277.6" y2="65.2"/>
	<line class="st45" x1="254.2" y1="63.7" x2="268.2" y2="60.4"/>
	<line class="st45" x1="297.6" y1="75.4" x2="307.8" y2="80.5"/>
	<line class="st45" x1="283.4" y1="78.9" x2="297.6" y2="75.4"/>
	<line class="st45" x1="329.6" y1="91.6" x2="340.7" y2="97.2"/>
	<line class="st45" x1="315" y1="95.5" x2="329.6" y2="91.6"/>
	<line class="st45" x1="300.1" y1="113.1" x2="301.5" y2="113.9"/>
	<line class="st45" x1="284.5" y1="117.5" x2="300.1" y2="113.1"/>
	<line class="st45" x1="267.8" y1="95.1" x2="278.1" y2="100.8"/>
	<line class="st45" x1="252.4" y1="99.1" x2="267.8" y2="95.1"/>
	<line class="st45" x1="238.1" y1="78.6" x2="247.5" y2="83.8"/>
	<line class="st45" x1="223.2" y1="82.2" x2="238.1" y2="78.6"/>
	<line class="st45" x1="210.8" y1="63.4" x2="219.5" y2="68.3"/>
	<line class="st45" x1="196.2" y1="66.8" x2="210.8" y2="63.4"/>
	<line class="st45" x1="185.7" y1="49.4" x2="193.7" y2="53.9"/>
	<line class="st45" x1="171.5" y1="52.5" x2="185.7" y2="49.4"/>
	<line class="st45" x1="162.4" y1="36.5" x2="169.9" y2="40.6"/>
	<line class="st45" x1="148.5" y1="39.4" x2="162.4" y2="36.5"/>
	<line class="st45" x1="129.4" y1="52.2" x2="136.8" y2="56.8"/>
	<line class="st45" x1="114.6" y1="55.4" x2="129.4" y2="52.2"/>
	<line class="st45" x1="152.5" y1="66.5" x2="160.5" y2="71.4"/>
	<line class="st45" x1="137.2" y1="69.9" x2="152.5" y2="66.5"/>
	<line class="st45" x1="177.5" y1="81.9" x2="186.2" y2="87.2"/>
	<line class="st45" x1="161.8" y1="85.6" x2="177.5" y2="81.9"/>
	<line class="st45" x1="204.7" y1="98.7" x2="214.2" y2="104.5"/>
	<line class="st45" x1="188.7" y1="102.7" x2="204.7" y2="98.7"/>
	<line class="st45" x1="234.5" y1="117.1" x2="244.9" y2="123.5"/>
	<line class="st45" x1="218" y1="121.5" x2="234.5" y2="117.1"/>
	<line class="st45" x1="181.3" y1="146.1" x2="186.9" y2="144.5"/>
	<line class="st45" x1="152" y1="125.1" x2="157.5" y2="123.7"/>
	<line class="st45" x1="125.4" y1="106.1" x2="130.8" y2="104.8"/>
	<line class="st45" x1="101.1" y1="88.6" x2="106.3" y2="87.4"/>
	<line class="st45" x1="78.9" y1="72.7" x2="83.9" y2="71.6"/>
	<line class="st45" x1="58.3" y1="58" x2="63.2" y2="57"/>
	<line class="st45" x1="389" y1="88.5" x2="388.9" y2="89.5"/>
	<polyline class="st45" points="343.3,77 354.7,74.1 363.5,78.2 	"/>
	<line class="st45" x1="354.8" y1="72.5" x2="354.7" y2="74.1"/>
	<line class="st45" x1="323.3" y1="59.3" x2="312" y2="62.1"/>
	<line class="st45" x1="331.2" y1="63" x2="323.3" y2="59.3"/>
	<line class="st45" x1="323.3" y1="57.8" x2="323.3" y2="59.3"/>
	<polyline class="st45" points="283.2,48.2 294.2,45.7 301.4,49.1 	"/>
	<line class="st45" x1="294.2" y1="44.3" x2="294.2" y2="45.7"/>
	<line class="st45" x1="267.3" y1="33.1" x2="273.9" y2="36.2"/>
	<line class="st45" x1="256.5" y1="35.4" x2="267.3" y2="33.1"/>
	<line class="st45" x1="267.3" y1="31.7" x2="267.3" y2="33.1"/>
	<line class="st45" x1="242.3" y1="21.4" x2="248.3" y2="24.2"/>
	<line class="st45" x1="231.7" y1="23.6" x2="242.3" y2="21.4"/>
	<line class="st45" x1="242.3" y1="20" x2="242.3" y2="21.4"/>
	<polyline class="st45" points="204.5,37.8 215.9,35.3 222,38.4 	"/>
	<line class="st45" x1="215.9" y1="33.9" x2="215.9" y2="35.3"/>
	<line class="st45" x1="241" y1="48.1" x2="247.7" y2="51.5"/>
	<line class="st45" x1="229.3" y1="50.7" x2="241" y2="48.1"/>
	<line class="st45" x1="241" y1="46.7" x2="241" y2="48.1"/>
	<line class="st45" x1="268.2" y1="61.9" x2="275.6" y2="65.7"/>
	<line class="st45" x1="256.2" y1="64.8" x2="268.2" y2="61.9"/>
	<line class="st45" x1="268.2" y1="60.4" x2="268.2" y2="61.9"/>
	<line class="st45" x1="297.6" y1="76.9" x2="305.7" y2="81"/>
	<line class="st45" x1="285.4" y1="80" x2="297.6" y2="76.9"/>
	<line class="st45" x1="297.6" y1="75.4" x2="297.6" y2="76.9"/>
	<line class="st45" x1="329.6" y1="93.2" x2="338.6" y2="97.8"/>
	<line class="st45" x1="317.1" y1="96.5" x2="329.6" y2="93.2"/>
	<line class="st45" x1="329.6" y1="91.6" x2="329.6" y2="93.2"/>
	<line class="st45" x1="300.1" y1="113.1" x2="300.1" y2="114.2"/>
	<polyline class="st45" points="254.4,100.2 267.8,96.7 276.1,101.4 	"/>
	<line class="st45" x1="267.8" y1="95.1" x2="267.8" y2="96.7"/>
	<line class="st45" x1="238.1" y1="80.2" x2="245.6" y2="84.3"/>
	<line class="st45" x1="225.1" y1="83.3" x2="238.1" y2="80.2"/>
	<line class="st45" x1="238.1" y1="78.6" x2="238.1" y2="80.2"/>
	<line class="st45" x1="210.9" y1="64.9" x2="217.6" y2="68.7"/>
	<line class="st45" x1="198.1" y1="67.9" x2="210.9" y2="64.9"/>
	<line class="st45" x1="210.8" y1="63.4" x2="210.9" y2="64.9"/>
	<polyline class="st45" points="173.3,53.6 185.7,50.9 191.9,54.3 	"/>
	<line class="st45" x1="185.7" y1="49.4" x2="185.7" y2="50.9"/>
	<polyline class="st45" points="150.4,40.4 162.5,37.9 168.1,41 	"/>
	<line class="st45" x1="162.4" y1="36.5" x2="162.5" y2="37.9"/>
	<polyline class="st45" points="116.3,56.5 129.5,53.7 135.1,57.2 	"/>
	<line class="st45" x1="129.4" y1="52.2" x2="129.5" y2="53.7"/>
	<polyline class="st45" points="139,71 152.5,68 158.7,71.8 	"/>
	<line class="st45" x1="152.5" y1="66.5" x2="152.5" y2="68"/>
	<polyline class="st45" points="163.7,86.8 177.6,83.5 184.4,87.7 	"/>
	<line class="st45" x1="177.5" y1="81.9" x2="177.6" y2="83.5"/>
	<polyline class="st45" points="190.5,103.9 204.8,100.3 212.4,105 	"/>
	<line class="st45" x1="204.7" y1="98.7" x2="204.8" y2="100.3"/>
	<polyline class="st45" points="219.9,122.7 234.5,118.8 243,124 	"/>
	<line class="st45" x1="234.5" y1="117.1" x2="234.5" y2="118.8"/>
	<line class="st45" x1="183.1" y1="147.4" x2="188.8" y2="145.8"/>
	<line class="st45" x1="153.8" y1="126.4" x2="159.3" y2="125"/>
	<line class="st45" x1="127.2" y1="107.3" x2="132.5" y2="106"/>
	<line class="st45" x1="102.8" y1="89.9" x2="108" y2="88.7"/>
	<line class="st45" x1="80.5" y1="73.9" x2="85.6" y2="72.8"/>
	<line class="st45" x1="60" y1="59.1" x2="64.9" y2="58.1"/>
	<line class="st45" x1="48.2" y1="55" x2="48.2" y2="55.2"/>
	<line class="st45" x1="211.1" y1="160.5" x2="211.1" y2="160.4"/>
	<line class="st45" x1="194.9" y1="160.9" x2="194.8" y2="161.1"/>
	<line class="st45" x1="419.5" y1="100.4" x2="419.5" y2="100.4"/>
	<line class="st45" x1="405.4" y1="99.4" x2="405.3" y2="99.4"/>
	<line class="st45" x1="241.7" y1="17.4" x2="241.6" y2="17.4"/>
	<line class="st45" x1="230.5" y1="17.5" x2="230.5" y2="17.7"/>
	<line class="st45" x1="235.2" y1="11.9" x2="235.1" y2="5.2"/>
	<line class="st45" x1="49.8" y1="37.7" x2="236.7" y2="1.5"/>
	<line class="st46" x1="236.7" y1="3.2" x2="236.7" y2="1.5"/>
	<line class="st46" x1="232.5" y1="4" x2="236.7" y2="3.2"/>
	<line class="st46" x1="232.6" y1="9.7" x2="232.5" y2="4"/>
	<line class="st46" x1="52" y1="39.1" x2="55.1" y2="38.5"/>
	<line class="st46" x1="413.2" y1="81.8" x2="414.5" y2="82.4"/>
	<line class="st46" x1="236.7" y1="3.2" x2="239.3" y2="4.4"/>
	<line class="st46" x1="239.4" y1="10" x2="239.3" y2="4.4"/>
	<line class="st46" x1="201.8" y1="162.1" x2="207.9" y2="160.3"/>
	<line class="st46" x1="198" y1="159.4" x2="198.1" y2="159.4"/>
	<line class="st46" x1="201.7" y1="162" x2="201.8" y2="162.1"/>
	<line class="st46" x1="198.1" y1="159.4" x2="201.7" y2="162"/>
	<line class="st46" x1="412.3" y1="100.8" x2="416.9" y2="99.4"/>
	<line class="st46" x1="407.9" y1="98.7" x2="408.1" y2="98.8"/>
	<line class="st46" x1="412.2" y1="100.7" x2="412.3" y2="100.8"/>
	<line class="st46" x1="408.1" y1="98.8" x2="412.2" y2="100.7"/>
	<line class="st46" x1="235.4" y1="17.9" x2="239.5" y2="17.1"/>
	<line class="st46" x1="232.6" y1="16.6" x2="232.7" y2="16.7"/>
	<line class="st46" x1="235.2" y1="11.9" x2="239.4" y2="11"/>
	<line class="st46" x1="235.3" y1="17.9" x2="235.4" y2="17.9"/>
	<line class="st46" x1="232.7" y1="16.7" x2="235.3" y2="17.9"/>
	<line class="st46" x1="53" y1="55.1" x2="58.2" y2="54.1"/>
	<line class="st46" x1="50.8" y1="53.5" x2="50.8" y2="53.6"/>
	<line class="st46" x1="52.9" y1="55.1" x2="53" y2="55.1"/>
	<line class="st46" x1="50.8" y1="53.6" x2="52.9" y2="55.1"/>
	<polyline class="st46" points="238.4,1.2 237.3,0.7 46.7,37.5 	"/>
	<line class="st46" x1="47.2" y1="45.6" x2="46.7" y2="37.5"/>
	<polyline class="st46" points="47.2,45.6 48.1,46.3 47.6,38.1 	"/>
	<line class="st46" x1="59.2" y1="44.1" x2="232.6" y2="9.7"/>
	<line class="st46" x1="421.2" y1="81.9" x2="419.4" y2="81.1"/>
	<line class="st46" x1="198.8" y1="152.9" x2="198.5" y2="142.5"/>
	<line class="st46" x1="198.8" y1="152.9" x2="200.3" y2="154"/>
	<line class="st46" x1="49.8" y1="37.7" x2="47.6" y2="38.1"/>
	<line class="st46" x1="198.5" y1="142.5" x2="201.2" y2="141.8"/>
	<line class="st46" x1="238.4" y1="1.2" x2="236.7" y2="1.5"/>
	<polyline class="st46" points="417.4,81.6 419.4,81.1 238.4,1.2 	"/>
	<line class="st46" x1="239.4" y1="10" x2="404.8" y2="85.1"/>
	<line class="st46" x1="198.1" y1="159.4" x2="197.9" y2="152.3"/>
	<line class="st46" x1="201.7" y1="162" x2="201.5" y2="153.7"/>
	<line class="st46" x1="203.8" y1="139.9" x2="200.1" y2="141"/>
	<line class="st46" x1="205" y1="140.7" x2="203.8" y2="139.9"/>
	<line class="st46" x1="211.1" y1="160.2" x2="211.1" y2="159.3"/>
	<line class="st46" x1="195.7" y1="158.6" x2="195" y2="159.5"/>
	<line class="st46" x1="196.8" y1="157.7" x2="195.7" y2="158.6"/>
	<line class="st46" x1="197.9" y1="157.3" x2="196.8" y2="157.7"/>
	<line class="st46" x1="208.2" y1="157" x2="207.9" y2="156.9"/>
	<line class="st46" x1="209.7" y1="157.6" x2="208.2" y2="157"/>
	<line class="st46" x1="210.6" y1="158.4" x2="209.7" y2="157.6"/>
	<line class="st46" x1="211.1" y1="159.3" x2="210.6" y2="158.4"/>
	<line class="st46" x1="195" y1="159.5" x2="194.8" y2="160.4"/>
	<line class="st46" x1="408.1" y1="98.8" x2="408.2" y2="94.6"/>
	<line class="st46" x1="412.2" y1="100.7" x2="412.4" y2="93.4"/>
	<line class="st46" x1="408.5" y1="84.1" x2="408.6" y2="83.1"/>
	<line class="st46" x1="413.2" y1="81.8" x2="408.6" y2="83.1"/>
	<line class="st46" x1="419.6" y1="99.4" x2="419.3" y2="98.7"/>
	<line class="st46" x1="419.5" y1="100.2" x2="419.6" y2="99.4"/>
	<line class="st46" x1="405.6" y1="98.1" x2="405.4" y2="98.8"/>
	<line class="st46" x1="406.3" y1="97.5" x2="405.6" y2="98.1"/>
	<line class="st46" x1="407.4" y1="97" x2="406.3" y2="97.5"/>
	<line class="st46" x1="408" y1="96.9" x2="407.4" y2="97"/>
	<line class="st46" x1="417.4" y1="97.4" x2="417" y2="97.3"/>
	<line class="st46" x1="418.5" y1="98" x2="417.4" y2="97.4"/>
	<line class="st46" x1="419.3" y1="98.7" x2="418.5" y2="98"/>
	<line class="st46" x1="232.6" y1="10.6" x2="232.6" y2="10.6"/>
	<line class="st46" x1="232.7" y1="16.7" x2="232.6" y2="10.7"/>
	<line class="st46" x1="239.4" y1="11.1" x2="239.4" y2="11"/>
	<line class="st46" x1="235.3" y1="17.9" x2="235.2" y2="11.9"/>
	<line class="st46" x1="241.6" y1="17.3" x2="241.6" y2="16.6"/>
	<line class="st46" x1="231" y1="16.3" x2="230.6" y2="16.7"/>
	<line class="st46" x1="231.8" y1="15.9" x2="231" y2="16.3"/>
	<line class="st46" x1="232.6" y1="15.6" x2="231.8" y2="15.9"/>
	<line class="st46" x1="239.6" y1="15.5" x2="239.5" y2="15.5"/>
	<line class="st46" x1="240.6" y1="15.8" x2="239.6" y2="15.5"/>
	<line class="st46" x1="241.3" y1="16.2" x2="240.6" y2="15.8"/>
	<line class="st46" x1="241.6" y1="16.6" x2="241.3" y2="16.2"/>
	<line class="st46" x1="230.6" y1="16.7" x2="230.5" y2="17.1"/>
	<line class="st46" x1="58.2" y1="54.1" x2="58.1" y2="53.3"/>
	<line class="st46" x1="50.8" y1="53.6" x2="50.5" y2="47.9"/>
	<line class="st46" x1="52.9" y1="55.1" x2="52.6" y2="49.4"/>
	<line class="st46" x1="57.4" y1="42.9" x2="57.3" y2="40"/>
	<line class="st46" x1="57.3" y1="40" x2="55.1" y2="38.5"/>
	<line class="st46" x1="48.2" y1="54.9" x2="48.1" y2="54.1"/>
	<line class="st46" x1="49.2" y1="53.1" x2="48.4" y2="53.6"/>
	<line class="st46" x1="50.3" y1="52.6" x2="49.2" y2="53.1"/>
	<line class="st46" x1="50.7" y1="52.5" x2="50.3" y2="52.6"/>
	<line class="st46" x1="48.4" y1="53.6" x2="48.1" y2="54.1"/>
	<polyline class="st46" points="213.4,157.7 211.5,156.7 209,156 207.8,155.8 	"/>
	<polyline class="st46" points="197.9,156.2 196.9,156.4 194.4,157.3 192.4,158.5 191.2,159.8 190.8,161.2 191.1,162.6 192.4,163.8 
		194.3,164.9 196.9,165.7 199.8,166.1 203,166.2 206.2,165.9 209.2,165.2 211.7,164.2 213.6,163 214.8,161.7 215.2,160.3 
		214.7,158.9 213.4,157.7 	"/>
	<line class="st46" x1="455.5" y1="102.8" x2="421" y2="87.3"/>
	<line class="st46" x1="232.6" y1="9.9" x2="59.5" y2="44.3"/>
	<line class="st46" x1="48.4" y1="46.5" x2="19.1" y2="52.3"/>
	<polyline class="st46" points="405.4,96.6 403.6,97.3 402.3,98.2 401.8,99.2 402,100.2 402.9,101.3 404.4,102.2 406.5,103 
		409.1,103.6 411.8,103.9 414.6,104 417.2,103.7 419.5,103.2 421.4,102.5 422.5,101.6 423,100.6 422.8,99.6 421.9,98.5 420.3,97.6 
		418.2,96.9 417,96.6 	"/>
	<polyline class="st46" points="408,96.1 407.7,96.2 405.4,96.6 	"/>
	<polyline class="st46" points="231.7,15.5 230,15.9 228.7,16.4 227.9,17.1 227.7,17.7 228.1,18.4 229,19 230.3,19.5 232.1,19.8 
		234.2,20 236.4,20.1 238.6,19.9 240.6,19.6 242.2,19.2 243.5,18.6 244.2,18 244.4,17.3 244.1,16.7 243.1,16.1 241.7,15.6 240,15.2 
		239.5,15.2 	"/>
	<line class="st46" x1="232.6" y1="15.3" x2="231.7" y2="15.5"/>
	<polyline class="st46" points="50.7,52 48.7,52.5 47,53.2 45.7,54 45,54.8 45,55.6 45.6,56.3 46.8,57 48.6,57.4 50.8,57.7 
		53.2,57.7 55.7,57.5 58.2,57.1 60.3,56.6 61.9,56 	"/>
	<polyline class="st46" points="393.3,150.4 393.5,152.4 395,154.3 397.5,156.1 400.9,157.5 405.1,158.6 409.6,159.2 414.3,159.3 
		418.6,158.9 422.4,158 425.4,156.6 427.4,155 428.1,153.1 	"/>
	<polyline class="st46" points="427.1,124.8 424.5,123.2 422.2,122.3 	"/>
	<polyline class="st46" points="401.1,121.2 399.9,121.4 396.9,122.7 394.9,124.2 394,126 	"/>
	<polyline class="st46" points="429.1,128.5 428.7,126.6 427.1,124.8 	"/>
	<line class="st46" x1="393.3" y1="150.4" x2="394" y2="126"/>
	<line class="st46" x1="428.1" y1="153.1" x2="429.1" y2="128.5"/>
	<polyline class="st46" points="184.2,220.3 184.8,222.8 186.8,225.2 190,227.1 194.2,228.6 199.1,229.4 204.4,229.5 209.7,229 
		214.6,227.7 218.7,225.9 221.8,223.7 223.7,221.2 224.3,218.6 	"/>
	<polyline class="st46" points="223.8,190.9 223,188.5 220.9,186.4 217.6,184.6 215.6,184 	"/>
	<polyline class="st46" points="191.4,185 189.5,185.7 186.3,187.7 184.2,190 183.5,192.5 	"/>
	<line class="st46" x1="224.3" y1="218.6" x2="223.8" y2="190.9"/>
	<line class="st46" x1="184.2" y1="220.3" x2="183.5" y2="192.5"/>
	<polyline class="st46" points="42.7,104.5 44.7,105.6 47.6,106.5 51.2,107 55.2,107 59.4,106.7 63.4,106 67,104.9 69.9,103.6 
		71.9,102.1 72.9,100.6 72.9,99.1 	"/>
	<line class="st46" x1="41.6" y1="103.1" x2="42.7" y2="104.5"/>
	<polyline class="st46" points="46.2,75.5 43.5,76.7 41.4,78 40.3,79.5 40.2,80.9 	"/>
	<line class="st46" x1="72.9" y1="99.1" x2="72.5" y2="93.2"/>
	<line class="st46" x1="41.6" y1="103.1" x2="40.2" y2="80.9"/>
	<line class="st46" x1="376.6" y1="93" x2="375.1" y2="92.3"/>
	<line class="st46" x1="285.8" y1="118.2" x2="284.5" y2="117.5"/>
	<line class="st46" x1="197.2" y1="151.8" x2="191.5" y2="153.4"/>
	<line class="st46" x1="166.9" y1="130.3" x2="161.3" y2="131.8"/>
	<line class="st46" x1="139.3" y1="110.8" x2="133.9" y2="112.1"/>
	<line class="st46" x1="114.1" y1="93" x2="108.9" y2="94.2"/>
	<line class="st46" x1="91" y1="76.6" x2="86" y2="77.8"/>
	<line class="st46" x1="69.8" y1="61.6" x2="64.9" y2="62.7"/>
	<line class="st46" x1="59.6" y1="55.4" x2="59.6" y2="55.4"/>
	<line class="st46" x1="60.3" y1="55" x2="60.4" y2="54.9"/>
	<line class="st46" x1="58.4" y1="55.9" x2="58.4" y2="55.9"/>
	<line class="st46" x1="59.5" y1="55.5" x2="59.6" y2="55.4"/>
	<line class="st46" x1="56.9" y1="56.3" x2="57" y2="56.3"/>
	<line class="st46" x1="58.3" y1="55.9" x2="58.4" y2="55.9"/>
	<line class="st46" x1="55.3" y1="56.5" x2="55.4" y2="56.5"/>
	<line class="st46" x1="56.9" y1="56.3" x2="56.9" y2="56.3"/>
	<line class="st46" x1="53.6" y1="56.6" x2="53.7" y2="56.6"/>
	<line class="st46" x1="55.2" y1="56.5" x2="55.3" y2="56.5"/>
	<line class="st46" x1="52" y1="56.6" x2="52.1" y2="56.6"/>
	<line class="st46" x1="53.5" y1="56.6" x2="53.6" y2="56.6"/>
	<line class="st46" x1="50.6" y1="56.5" x2="50.7" y2="56.5"/>
	<line class="st46" x1="51.8" y1="56.6" x2="52" y2="56.6"/>
	<line class="st46" x1="49.4" y1="56.2" x2="49.5" y2="56.2"/>
	<line class="st46" x1="50.3" y1="56.4" x2="50.6" y2="56.5"/>
	<line class="st46" x1="48.6" y1="55.7" x2="48.7" y2="55.8"/>
	<line class="st46" x1="49.2" y1="56" x2="49.4" y2="56.2"/>
	<line class="st46" x1="48.4" y1="55.6" x2="48.6" y2="55.7"/>
	<line class="st46" x1="210.9" y1="161.4" x2="210.9" y2="161.3"/>
	<line class="st46" x1="210.1" y1="162.3" x2="210.1" y2="162.3"/>
	<line class="st46" x1="210.8" y1="161.5" x2="210.9" y2="161.4"/>
	<line class="st46" x1="208.8" y1="163.1" x2="208.8" y2="163.1"/>
	<line class="st46" x1="210" y1="162.3" x2="210.1" y2="162.3"/>
	<line class="st46" x1="207.1" y1="163.7" x2="207.1" y2="163.7"/>
	<line class="st46" x1="208.7" y1="163.1" x2="208.8" y2="163.1"/>
	<line class="st46" x1="205.1" y1="164.1" x2="205.2" y2="164.1"/>
	<line class="st46" x1="207" y1="163.7" x2="207.1" y2="163.7"/>
	<line class="st46" x1="203" y1="164.3" x2="203.1" y2="164.3"/>
	<line class="st46" x1="205" y1="164.2" x2="205.1" y2="164.1"/>
	<line class="st46" x1="200.9" y1="164.3" x2="201" y2="164.3"/>
	<line class="st46" x1="202.8" y1="164.3" x2="203" y2="164.3"/>
	<line class="st46" x1="198.9" y1="164" x2="199.1" y2="164"/>
	<line class="st46" x1="200.6" y1="164.3" x2="200.9" y2="164.3"/>
	<line class="st46" x1="197.2" y1="163.5" x2="197.4" y2="163.6"/>
	<line class="st46" x1="198.5" y1="163.9" x2="198.9" y2="164"/>
	<line class="st46" x1="195.9" y1="162.8" x2="196.1" y2="162.9"/>
	<line class="st46" x1="196.8" y1="163.3" x2="197.2" y2="163.5"/>
	<line class="st46" x1="195.1" y1="162" x2="195.2" y2="162.1"/>
	<line class="st46" x1="195.6" y1="162.5" x2="195.9" y2="162.8"/>
	<line class="st46" x1="194.8" y1="161.1" x2="194.9" y2="161.2"/>
	<line class="st46" x1="195" y1="161.5" x2="195.1" y2="162"/>
	<line class="st46" x1="419.2" y1="101.1" x2="419.2" y2="101"/>
	<line class="st46" x1="418.4" y1="101.7" x2="418.4" y2="101.6"/>
	<line class="st46" x1="419.1" y1="101.1" x2="419.2" y2="101.1"/>
	<line class="st46" x1="417.2" y1="102.1" x2="417.2" y2="102.1"/>
	<line class="st46" x1="418.3" y1="101.7" x2="418.4" y2="101.7"/>
	<line class="st46" x1="415.6" y1="102.5" x2="415.6" y2="102.4"/>
	<line class="st46" x1="417.1" y1="102.1" x2="417.2" y2="102.1"/>
	<line class="st46" x1="413.9" y1="102.6" x2="413.9" y2="102.6"/>
	<line class="st46" x1="415.5" y1="102.5" x2="415.6" y2="102.5"/>
	<line class="st46" x1="412" y1="102.6" x2="412.1" y2="102.6"/>
	<line class="st46" x1="413.7" y1="102.6" x2="413.9" y2="102.6"/>
	<line class="st46" x1="410.2" y1="102.4" x2="410.3" y2="102.4"/>
	<line class="st46" x1="411.7" y1="102.5" x2="412" y2="102.6"/>
	<line class="st46" x1="408.5" y1="102" x2="408.7" y2="102"/>
	<line class="st46" x1="409.8" y1="102.3" x2="410.2" y2="102.4"/>
	<line class="st46" x1="407.1" y1="101.4" x2="407.3" y2="101.5"/>
	<line class="st46" x1="408.1" y1="101.8" x2="408.5" y2="102"/>
	<line class="st46" x1="406.1" y1="100.8" x2="406.2" y2="100.9"/>
	<line class="st46" x1="406.7" y1="101.2" x2="407.1" y2="101.4"/>
	<line class="st46" x1="405.5" y1="100.1" x2="405.6" y2="100.3"/>
	<line class="st46" x1="405.8" y1="100.5" x2="406.1" y2="100.8"/>
	<line class="st46" x1="405.3" y1="99.4" x2="405.4" y2="99.5"/>
	<line class="st46" x1="405.4" y1="99.8" x2="405.5" y2="100.1"/>
	<line class="st46" x1="241.5" y1="17.8" x2="241.5" y2="17.8"/>
	<line class="st46" x1="241" y1="18.2" x2="241" y2="18.2"/>
	<line class="st46" x1="241.5" y1="17.9" x2="241.5" y2="17.8"/>
	<line class="st46" x1="240.2" y1="18.6" x2="240.2" y2="18.6"/>
	<line class="st46" x1="241" y1="18.3" x2="241" y2="18.2"/>
	<line class="st46" x1="239.1" y1="18.9" x2="239.1" y2="18.9"/>
	<line class="st46" x1="240.1" y1="18.6" x2="240.2" y2="18.6"/>
	<line class="st46" x1="237.7" y1="19.1" x2="237.8" y2="19.1"/>
	<line class="st46" x1="239" y1="18.9" x2="239.1" y2="18.9"/>
	<line class="st46" x1="236.3" y1="19.2" x2="236.3" y2="19.2"/>
	<line class="st46" x1="237.7" y1="19.1" x2="237.7" y2="19.1"/>
	<line class="st46" x1="234.8" y1="19.2" x2="234.9" y2="19.2"/>
	<line class="st46" x1="236.2" y1="19.2" x2="236.3" y2="19.2"/>
	<line class="st46" x1="233.5" y1="19.1" x2="233.6" y2="19.1"/>
	<line class="st46" x1="234.6" y1="19.2" x2="234.8" y2="19.2"/>
	<line class="st46" x1="232.3" y1="18.8" x2="232.4" y2="18.8"/>
	<line class="st46" x1="233.2" y1="19" x2="233.5" y2="19.1"/>
	<line class="st46" x1="231.3" y1="18.5" x2="231.5" y2="18.5"/>
	<line class="st46" x1="232" y1="18.7" x2="232.3" y2="18.8"/>
	<line class="st46" x1="230.7" y1="18.1" x2="230.8" y2="18.2"/>
	<line class="st46" x1="231.1" y1="18.3" x2="231.3" y2="18.5"/>
	<line class="st46" x1="230.5" y1="17.7" x2="230.5" y2="17.7"/>
	<line class="st46" x1="230.6" y1="17.9" x2="230.7" y2="18.1"/>
	<polyline class="st46" points="420.9,91 421,87.3 421.2,81.9 	"/>
	<line class="st46" x1="52" y1="39.1" x2="49.8" y2="37.7"/>
	<line class="st46" x1="207.9" y1="160.3" x2="207.9" y2="156.9"/>
	<line class="st46" x1="197.9" y1="156.2" x2="197.8" y2="152.2"/>
	<line class="st46" x1="194.9" y1="161.3" x2="194.9" y2="161.2"/>
	<line class="st46" x1="416.9" y1="99.4" x2="417" y2="97.3"/>
	<line class="st46" x1="407.9" y1="98.7" x2="408" y2="96.9"/>
	<line class="st46" x1="405.4" y1="99.6" x2="405.4" y2="99.5"/>
	<line class="st46" x1="239.5" y1="17.1" x2="239.5" y2="15.5"/>
	<line class="st46" x1="232.6" y1="16.6" x2="232.6" y2="15.6"/>
	<line class="st46" x1="239.4" y1="11" x2="239.4" y2="10"/>
	<line class="st46" x1="230.5" y1="17.8" x2="230.5" y2="17.7"/>
	<line class="st46" x1="50.8" y1="53.5" x2="50.7" y2="52.5"/>
	<polyline class="st46" points="191.3,182.7 191.4,185 191.5,192.2 	"/>
	<polyline class="st46" points="215.5,175.4 215.6,184 215.8,191.2 	"/>
	<line class="st46" x1="19.1" y1="52.3" x2="46.1" y2="73"/>
	<line class="st46" x1="189.8" y1="183.1" x2="191.3" y2="182.7"/>
	<polyline class="st46" points="422.6,112.8 422.2,122.3 422,128 	"/>
	<polyline class="st46" points="401.2,119.2 401.1,121.2 401,126.5 	"/>
	<polyline class="st46" points="46.1,73 46.2,75.5 46.5,80.2 	"/>
	<polyline class="st46" points="365.7,77.6 363.5,78.2 352,81.2 343.3,77 341.2,76 	"/>
	<polyline class="st46" points="319.9,65.9 331.2,63 333.3,62.5 	"/>
	<polyline class="st46" points="310,61.1 312,62.1 319.9,65.9 	"/>
	<polyline class="st46" points="303.5,48.6 301.4,49.1 290.4,51.7 283.2,48.2 281.1,47.3 	"/>
	<polyline class="st46" points="275.9,35.7 273.9,36.2 263,38.6 256.5,35.4 254.5,34.5 	"/>
	<polyline class="st46" points="250.3,23.8 248.3,24.2 237.6,26.4 231.7,23.6 229.7,22.6 	"/>
	<polyline class="st46" points="223.9,38 222,38.4 210.5,40.9 204.5,37.8 202.6,36.8 	"/>
	<polyline class="st46" points="249.7,51.1 247.7,51.5 236,54.2 229.3,50.7 227.4,49.7 	"/>
	<polyline class="st46" points="277.6,65.2 275.6,65.7 263.5,68.6 256.2,64.8 254.2,63.7 	"/>
	<polyline class="st46" points="307.8,80.5 305.7,81 293.5,84.2 285.4,80 283.4,78.9 	"/>
	<polyline class="st46" points="340.7,97.2 338.6,97.8 326.1,101.2 317.1,96.5 315,95.5 	"/>
	<polyline class="st46" points="278.1,100.8 276.1,101.4 262.6,104.9 254.4,100.2 252.4,99.1 	"/>
	<polyline class="st46" points="247.5,83.8 245.6,84.3 232.5,87.6 225.1,83.3 223.2,82.2 	"/>
	<polyline class="st46" points="219.5,68.3 217.6,68.7 204.8,71.7 198.1,67.9 196.2,66.8 	"/>
	<polyline class="st46" points="193.7,53.9 191.9,54.3 179.4,57.1 173.3,53.6 171.5,52.5 	"/>
	<polyline class="st46" points="169.9,40.6 168.1,41 155.9,43.6 150.4,40.4 148.5,39.4 	"/>
	<polyline class="st46" points="136.8,56.8 135.1,57.2 121.8,60 116.3,56.5 114.6,55.4 	"/>
	<polyline class="st46" points="160.5,71.4 158.7,71.8 145.1,74.9 139,71 137.2,69.9 	"/>
	<polyline class="st46" points="186.2,87.2 184.4,87.7 170.4,91.1 163.7,86.8 161.8,85.6 	"/>
	<polyline class="st46" points="214.2,104.5 212.4,105 198,108.7 190.5,103.9 188.7,102.7 	"/>
	<polyline class="st46" points="244.9,123.5 243,124 228.2,128 219.9,122.7 218,121.5 	"/>
	<polyline class="st46" points="191.5,153.4 183.1,147.4 181.3,146.1 	"/>
	<polyline class="st46" points="161.3,131.8 153.8,126.4 152,125.1 	"/>
	<polyline class="st46" points="133.9,112.1 127.2,107.3 125.4,106.1 	"/>
	<polyline class="st46" points="108.9,94.2 102.8,89.9 101.1,88.6 	"/>
	<polyline class="st46" points="86,77.8 80.5,73.9 78.9,72.7 	"/>
	<polyline class="st46" points="64.9,62.7 60,59.1 58.3,58 	"/>
	<polyline class="st46" points="48.2,55.2 48.2,55.3 48.2,55.3 	"/>
	<polyline class="st46" points="211.1,160.6 211.1,160.5 211.1,160.5 	"/>
	<polyline class="st46" points="419.4,100.5 419.5,100.4 419.5,100.4 	"/>
	<polyline class="st46" points="241.6,17.5 241.6,17.4 241.7,17.4 	"/>
	<line class="st46" x1="205" y1="140.7" x2="201.2" y2="141.8"/>
	<polyline class="st46" points="200.3,154 201.5,153.7 201.6,153.6 207.8,151.9 	"/>
	<polyline class="st46" points="48.1,46.3 48.4,46.5 50.4,47.9 50.5,47.9 	"/>
	<polyline class="st46" points="207.9,156.9 207.8,155.8 207.8,151.9 	"/>
	<polyline class="st46" points="198,159.4 197.9,157.3 197.9,156.2 	"/>
	<polyline class="st46" points="194.9,161.2 194.9,160.9 194.8,160.4 	"/>
	<polyline class="st46" points="417,97.3 417,96.6 417.2,92 	"/>
	<polyline class="st46" points="408,96.9 408,96.1 408.1,94.6 	"/>
	<polyline class="st46" points="405.4,99.5 405.4,99.4 405.4,98.8 	"/>
	<polyline class="st46" points="239.5,15.5 239.5,15.2 239.4,11.1 	"/>
	<polyline class="st46" points="232.6,15.6 232.6,15.3 232.6,10.6 	"/>
	<polyline class="st46" points="230.5,17.7 230.5,17.5 230.5,17.1 	"/>
	<polyline class="st46" points="50.7,52.5 50.7,52 50.4,47.9 	"/>
	<line class="st46" x1="46.1" y1="73" x2="46.7" y2="73.4"/>
	<line class="st46" x1="191.3" y1="182.7" x2="191.7" y2="182.6"/>
	<line class="st46" x1="285.8" y1="118.2" x2="205" y2="140.7"/>
	<line class="st46" x1="207.8" y1="151.9" x2="408.1" y2="94.6"/>
	<polyline class="st46" points="59.2,44.1 57.4,42.9 54.1,40.6 52,39.1 	"/>
	<line class="st46" x1="232.6" y1="10.7" x2="232.6" y2="10.6"/>
	<line class="st46" x1="46.7" y1="73.4" x2="47.9" y2="74.4"/>
	<line class="st46" x1="191.7" y1="182.6" x2="192.8" y2="182.2"/>
	<line class="st46" x1="300.1" y1="114.2" x2="285.8" y2="118.2"/>
	<line class="st46" x1="408.1" y1="94.6" x2="408.2" y2="94.6"/>
	<line class="st46" x1="59.5" y1="44.3" x2="59.2" y2="44.1"/>
	<polyline class="st46" points="50.5,47.9 52.6,49.4 52.6,49.5 	"/>
	<polyline class="st46" points="232.6,10.6 232.6,9.9 232.6,9.7 	"/>
	<line class="st46" x1="47.9" y1="74.4" x2="49.7" y2="75.8"/>
	<line class="st46" x1="192.8" y1="182.2" x2="194.7" y2="181.6"/>
	<line class="st46" x1="301.5" y1="113.9" x2="300.1" y2="114.2"/>
	<polyline class="st46" points="201.2,141.8 200.1,141 59.5,44.3 	"/>
	<polyline class="st46" points="197.8,152.2 197.9,152.3 198.8,152.9 	"/>
	<line class="st46" x1="49.7" y1="75.8" x2="52" y2="77.5"/>
	<line class="st46" x1="194.7" y1="181.6" x2="197.2" y2="180.9"/>
	<polyline class="st46" points="408.2,94.6 412.4,93.4 412.6,93.4 417.2,92 420.9,91 	"/>
	<line class="st46" x1="61.9" y1="56" x2="63.2" y2="57"/>
	<line class="st46" x1="197.2" y1="151.8" x2="197.8" y2="152.2"/>
	<line class="st46" x1="52" y1="77.5" x2="54.5" y2="79.4"/>
	<line class="st46" x1="197.2" y1="180.9" x2="200.2" y2="180"/>
	<line class="st46" x1="408.5" y1="84.1" x2="404.8" y2="85.1"/>
	<line class="st46" x1="376.6" y1="93" x2="301.5" y2="113.9"/>
	<line class="st46" x1="52.6" y1="49.5" x2="58.1" y2="53.3"/>
	<line class="st46" x1="54.5" y1="79.4" x2="57.2" y2="81.5"/>
	<line class="st46" x1="200.2" y1="180" x2="203.3" y2="179"/>
	<line class="st46" x1="409.9" y1="83.7" x2="408.5" y2="84.1"/>
	<line class="st46" x1="388.9" y1="89.5" x2="376.6" y2="93"/>
	<line class="st46" x1="58.1" y1="53.3" x2="59.8" y2="54.5"/>
	<line class="st46" x1="166.9" y1="130.3" x2="186.9" y2="144.5"/>
	<line class="st46" x1="57.2" y1="81.5" x2="58" y2="82.1"/>
	<line class="st46" x1="203.3" y1="179" x2="206.5" y2="178.1"/>
	<line class="st46" x1="414.5" y1="82.4" x2="409.9" y2="83.7"/>
	<polyline class="st46" points="404.8,85.1 390.4,89.1 388.9,89.5 	"/>
	<polyline class="st46" points="59.8,54.5 60.4,54.9 61.9,56 	"/>
	<polyline class="st46" points="132.5,106 139.3,110.8 157.5,123.7 	"/>
	<polyline class="st46" points="186.9,144.5 188.8,145.8 197.2,151.8 	"/>
	<line class="st46" x1="58" y1="82.1" x2="60.4" y2="84"/>
	<line class="st46" x1="206.5" y1="178.1" x2="209.4" y2="177.2"/>
	<line class="st46" x1="417.4" y1="81.6" x2="414.5" y2="82.4"/>
	<line class="st46" x1="63.2" y1="57" x2="64.9" y2="58.1"/>
	<polyline class="st46" points="157.5,123.7 159.3,125 166.9,130.3 	"/>
	<line class="st46" x1="60.4" y1="84" x2="62.2" y2="85.3"/>
	<line class="st46" x1="209.4" y1="177.2" x2="212" y2="176.4"/>
	<line class="st46" x1="64.9" y1="58.1" x2="69.8" y2="61.6"/>
	<line class="st46" x1="62.2" y1="85.3" x2="66" y2="88.2"/>
	<line class="st46" x1="212" y1="176.4" x2="213.9" y2="175.8"/>
	<line class="st46" x1="130.8" y1="104.8" x2="132.5" y2="106"/>
	<line class="st46" x1="66" y1="88.2" x2="69.2" y2="90.6"/>
	<line class="st46" x1="213.9" y1="175.8" x2="215.1" y2="175.5"/>
	<line class="st46" x1="114.1" y1="93" x2="130.8" y2="104.8"/>
	<line class="st46" x1="69.2" y1="90.6" x2="71.4" y2="92.3"/>
	<line class="st46" x1="215.1" y1="175.5" x2="215.5" y2="175.4"/>
	<line class="st46" x1="71.4" y1="92.3" x2="72.5" y2="93.2"/>
	<line class="st46" x1="85.6" y1="72.8" x2="91" y2="76.6"/>
	<line class="st46" x1="108" y1="88.7" x2="114.1" y2="93"/>
	<polyline class="st46" points="72.5,93.2 72.5,93.2 189.8,183.1 	"/>
	<polyline class="st46" points="215.5,175.4 401.2,119.2 401.4,119.2 402.3,118.9 	"/>
	<polyline class="st46" points="69.8,61.6 83.9,71.6 85.6,72.8 	"/>
	<polyline class="st46" points="91,76.6 106.3,87.4 108,88.7 	"/>
	<polyline class="st46" points="402.3,118.9 403.9,118.4 406.1,117.8 408.6,117 411.4,116.2 414.2,115.3 416.9,114.5 419.2,113.8 
		421,113.3 	"/>
	<line class="st46" x1="422.6" y1="112.8" x2="455.5" y2="102.8"/>
	<polyline class="st46" points="421,113.3 422.1,112.9 422.6,112.8 	"/>
</g>
</svg>
