<?xml version="1.0" encoding="UTF-8"?>
<svg viewBox="0 0 400 300" width="800" height="600" version="1.1" xmlns="http://www.w3.org/2000/svg" xmlns:xlink="http://www.w3.org/1999/xlink">
    <!-- Generator: Sketch 52.5 (67469) - http://www.bohemiancoding.com/sketch -->
    <title>A08</title>
    <desc>Created with Sketch.</desc>
    <g id="A08" stroke="none" stroke-width="1" fill="none" fill-rule="evenodd">
        <rect fill="#EDEDED" x="0" y="0" width="400" height="300"></rect>
        <g transform="translate(25.000000, 57.000000)" id="Path">
            <polygon fill="#8C8D8D" points="146.87631 130.461039 151.833485 129.019481 151.753531 126.296537 152.073349 126.376623 153.192711 126.857143 153.992255 127.497835 154.312073 128.218615 154.232118 128.939394 153.752392 129.660173 152.792938 130.300866 151.593622 130.861472 150.074487 131.261905 148.395444 131.502165 146.636446 131.502165 145.037358 131.341991 143.598178 130.941558 142.478815 130.461039 141.679271 129.820346 141.359453 129.099567 141.439408 128.378788 141.999089 127.658009 142.958542 126.937229 143.838041 126.616883 143.838041 128.298701 143.917995 128.298701 146.796355 130.380952"></polygon>
            <polygon fill="#A4A4A5" points="151.833485 129.019481 146.87631 130.461039 146.716401 123.65368 151.673576 122.292208 151.753531 126.296537"></polygon>
            <polygon fill="#8A8A8B" points="143.838041 126.616883 143.838041 128.298701 143.917995 128.298701 143.838041 122.612554 143.758087 122.532468"></polygon>
            <polygon fill="#8A8A8B" points="146.636446 123.733766 146.796355 130.380952 146.87631 130.461039 146.716401 123.65368"></polygon>
            <polygon fill="#997D21" points="146.796355 130.380952 143.917995 128.298701 143.838041 122.612554 144.477677 123.093074 145.756948 123.974026 146.636446 123.733766"></polygon>
            <polygon fill="#777777" points="141.359453 129.099567 141.679271 129.820346 142.478815 130.461039 143.598178 130.941558 145.037358 131.341991 146.636446 131.502165 148.395444 131.502165 150.074487 131.261905 151.593622 130.861472 152.792938 130.300866 153.752392 129.660173 154.232118 128.939394 154.312073 128.218615 153.992255 127.497835 153.192711 126.857143 152.073349 126.376623 151.753531 126.296537 151.673576 122.292208 311.822323 76.4025974 311.822323 78.2445887 311.342597 78.3246753 310.463098 78.7251082 309.903417 79.2056277 309.663554 79.7662338 309.903417 80.3268398 310.463098 80.8874459 311.422551 81.3679654 312.621868 81.7683983 313.981093 82.008658 315.420273 82.1688312 316.939408 82.1688312 318.298633 82.008658 319.417995 81.6883117 320.297494 81.2878788 320.857175 80.8073593 321.017084 80.2467532 320.777221 79.6861472 320.21754 79.1255411 319.258087 78.6450216 319.018223 78.5649351 319.178132 74.3203463 322.056492 73.5194805 322.216401 69.9155844 349.880638 82.3290043 137.361731 146.478355 0.799544419 41.965368 23.6665148 37.4004329 24.066287 37.7207792 25.9052392 39.0021645 26.1451025 42.6060606 25.7453303 42.7662338 24.8658314 43.0865801 24.3061503 43.5670996 24.066287 43.9675325 24.1462415 44.4480519 24.5460137 44.7683983 25.2656036 45.0887446 26.3050114 45.3290043 27.504328 45.4090909 28.7835991 45.4090909 30.1428246 45.2489177 31.4220957 45.008658 32.0617312 44.8484848 32.2216401 46.4502165 37.4186788 50.2142857 40.7767654 49.4935065 48.4523918 54.9393939 48.6123007 58.2229437 54.2890661 62.3073593 57.6471526 61.5064935 66.2822323 67.5930736 66.4421412 70.95671 72.5986333 75.4415584 76.1166287 74.5606061 85.7111617 81.3679654 85.8710706 84.8917749 92.5872437 89.7770563 96.1851936 88.8160173 106.979043 96.504329 107.138952 100.108225 114.494761 105.474026 118.25262 104.512987 130.405695 113.082251 130.485649 116.926407 138.641002 122.772727 142.478815 121.651515 143.758087 122.532468 143.838041 126.616883 142.958542 126.937229 141.999089 127.658009 141.439408 128.378788"></polygon>
            <polygon fill="#8C8D8D" points="310.463098 80.8874459 309.903417 80.3268398 309.663554 79.7662338 309.903417 79.2056277 310.463098 78.7251082 311.342597 78.3246753 311.822323 78.2445887 311.742369 79.6861472 311.822323 79.7662338 315.100456 81.2878788 315.260364 81.3679654 318.938269 80.2467532 319.018223 78.5649351 319.258087 78.6450216 320.21754 79.1255411 320.777221 79.6861472 321.017084 80.2467532 320.857175 80.8073593 320.297494 81.2878788 319.417995 81.6883117 318.298633 82.008658 316.939408 82.1688312 315.420273 82.1688312 313.981093 82.008658 312.621868 81.7683983 311.422551 81.3679654"></polygon>
            <polygon fill="#A4A4A5" points="318.938269 80.2467532 315.260364 81.3679654 315.420273 75.4415584 319.178132 74.3203463 319.018223 78.5649351"></polygon>
            <polygon fill="#8A8A8B" points="311.822323 76.4025974 311.822323 78.2445887 311.742369 79.6861472 311.822323 79.7662338 311.982232 76.4025974"></polygon>
            <polygon fill="#8A8A8B" points="315.340319 75.4415584 315.100456 81.2878788 315.260364 81.3679654 315.420273 75.4415584"></polygon>
            <polygon fill="#997D21" points="315.100456 81.2878788 311.822323 79.7662338 311.982232 76.4025974 315.340319 75.4415584"></polygon>
            <polygon fill="#8C8D8D" points="24.1462415 44.4480519 24.066287 43.9675325 24.3061503 43.5670996 24.8658314 43.0865801 25.7453303 42.7662338 26.1451025 42.6060606 26.1451025 43.487013 26.2250569 43.5670996 27.9041002 44.7683983 27.9840547 44.7683983 32.0617312 43.9675325 32.0617312 44.8484848 31.4220957 45.008658 30.1428246 45.2489177 28.7835991 45.4090909 27.504328 45.4090909 26.3050114 45.3290043 25.2656036 45.0887446 24.5460137 44.7683983"></polygon>
            <polygon fill="#A4A4A5" points="32.0617312 43.9675325 27.9840547 44.7683983 27.6642369 40.2835498 31.9817768 43.3268398"></polygon>
            <polygon fill="#8A8A8B" points="26.1451025 42.6060606 26.1451025 43.487013 26.2250569 43.5670996 25.9052392 39.0021645 25.9052392 39.0021645"></polygon>
            <polygon fill="#8A8A8B" points="27.9041002 44.7683983 27.9840547 44.7683983 27.6642369 40.2835498 27.6642369 40.2034632"></polygon>
            <polygon fill="#997D21" points="27.9041002 44.7683983 26.2250569 43.5670996 25.9052392 39.0021645 27.6642369 40.2034632"></polygon>
            <polygon fill="#BBBBBC" points="118.25262 104.512987 114.494761 105.474026 114.414806 101.790043"></polygon>
            <polygon fill="#9E9E9E" points="114.494761 105.474026 107.138952 100.108225 106.979043 96.504329 114.414806 101.790043"></polygon>
            <polygon fill="#BBBBBC" points="142.478815 121.651515 138.641002 122.772727 138.561048 118.928571"></polygon>
            <polygon fill="#9E9E9E" points="138.641002 122.772727 130.485649 116.926407 130.405695 113.082251 138.561048 118.928571"></polygon>
            <polygon fill="#BBBBBC" points="96.1851936 88.8160173 92.5872437 89.7770563 92.4273349 86.1731602"></polygon>
            <polygon fill="#9E9E9E" points="92.5872437 89.7770563 85.8710706 84.8917749 85.7111617 81.3679654 92.4273349 86.1731602"></polygon>
            <polygon fill="#BBBBBC" points="76.1166287 74.5606061 72.5986333 75.4415584 72.4387244 71.9978355"></polygon>
            <polygon fill="#9E9E9E" points="72.5986333 75.4415584 66.4421412 70.95671 66.2822323 67.5930736 72.4387244 71.9978355"></polygon>
            <polygon fill="#BBBBBC" points="57.6471526 61.5064935 54.2890661 62.3073593 54.1291572 59.0238095"></polygon>
            <polygon fill="#9E9E9E" points="54.2890661 62.3073593 48.6123007 58.2229437 48.4523918 54.9393939 54.1291572 59.0238095"></polygon>
            <polygon fill="#BBBBBC" points="40.7767654 49.4935065 37.4186788 50.2142857 37.2587699 47.0108225"></polygon>
            <polygon fill="#9E9E9E" points="37.4186788 50.2142857 32.2216401 46.4502165 32.0617312 44.8484848 32.0617312 43.9675325 31.9817768 43.3268398 37.2587699 47.0108225"></polygon>
            <polygon fill="#997D21" points="145.756948 123.974026 144.477677 123.093074 144.317768 114.764069 145.517084 115.645022"></polygon>
            <polygon fill="#BDA27C" points="145.517084 115.645022 144.317768 114.764069 139.040774 111.080087 138.96082 110.119048 145.517084 114.683983"></polygon>
            <polygon fill="#BDA27C" points="138.96082 110.119048 139.040774 111.080087 74.9173121 66.7121212 74.9173121 65.8311688"></polygon>
            <polygon fill="#997D21" points="74.9173121 66.7121212 139.040774 111.080087 144.317768 114.764069 144.477677 123.093074 143.838041 122.612554 143.758087 122.532468 142.478815 121.651515 138.561048 118.928571 130.405695 113.082251 118.25262 104.512987 114.414806 101.790043 106.979043 96.504329 96.1851936 88.8160173 92.4273349 86.1731602 85.7111617 81.3679654 76.1166287 74.5606061 72.4387244 71.9978355 66.2822323 67.5930736 57.6471526 61.5064935 54.1291572 59.0238095 48.4523918 54.9393939 40.7767654 49.4935065 37.2587699 47.0108225 31.9817768 43.3268398 27.6642369 40.2835498 27.6642369 40.2034632 25.9052392 39.0021645 25.9052392 39.0021645 24.066287 37.7207792 23.6665148 31.1536797"></polygon>
            <polygon fill="#8F7B5C" points="138.96082 110.119048 74.9173121 65.8311688 134.483371 52.2965368 203.564009 92.5"></polygon>
            <polygon fill="#8F7B5C" points="203.564009 92.5 134.483371 52.2965368 188.932346 39.9632035 261.850797 76.482684"></polygon>
            <polygon fill="#8F7B5C" points="188.932346 39.9632035 134.483371 52.2965368 77.7157175 19.3809524 128.406834 9.61038961"></polygon>
            <polygon fill="#8F7B5C" points="188.932346 39.9632035 128.406834 9.61038961 175.340091 0.560606061 238.903872 28.5909091"></polygon>
            <polygon fill="#8F7B5C" points="188.932346 39.9632035 238.903872 28.5909091 314.780638 61.987013 261.850797 76.482684"></polygon>
            <polygon fill="#8F7B5C" points="77.7157175 19.3809524 134.483371 52.2965368 74.9173121 65.8311688 22.8669704 29.952381"></polygon>
            <polygon fill="#8F7B5C" points="261.850797 76.482684 314.780638 61.987013 322.37631 65.3506494 269.206606 80.1666667"></polygon>
            <polygon fill="#8F7B5C" points="203.564009 92.5 261.850797 76.482684 269.206606 80.1666667 210.6 96.504329"></polygon>
            <polygon fill="#BDA27C" points="74.9173121 65.8311688 74.9173121 66.7121212 23.6665148 31.1536797 22.9469248 30.6731602 22.8669704 29.952381"></polygon>
            <polygon fill="#8F7B5C" points="138.96082 110.119048 203.564009 92.5 210.6 96.5844156 145.517084 114.683983"></polygon>
            <polygon fill="#DFC093" points="322.37631 65.3506494 322.37631 66.2316017 269.206606 81.047619 269.206606 80.1666667"></polygon>
            <polygon fill="#B59529" points="269.206606 81.047619 322.37631 66.2316017 322.216401 69.9155844 322.056492 73.5194805 319.178132 74.3203463 315.420273 75.4415584 315.340319 75.4415584 311.982232 76.4025974 311.822323 76.4025974 151.673576 122.292208 146.716401 123.65368 146.636446 123.733766 145.756948 123.974026 145.517084 115.645022 210.6 97.465368"></polygon>
            <polygon fill="#DFC093" points="269.206606 80.1666667 269.206606 81.047619 210.6 97.465368 210.6 96.504329"></polygon>
            <polygon fill="#DFC093" points="210.6 96.504329 210.6 97.465368 145.517084 115.645022 145.517084 114.683983"></polygon>
            <polygon fill="#997D21" points="22.9469248 30.6731602 23.6665148 31.1536797 24.066287 37.7207792 23.6665148 37.4004329 23.346697 37.1601732"></polygon>
            <polygon fill="#543404" points="299.989066 121.090909 300.228929 122.692641 300.78861 102.991342 300.548747 101.549784"></polygon>
            <polygon fill="#6A4109" points="301.348292 124.214286 300.228929 122.692641 300.78861 102.991342 301.907973 104.4329"></polygon>
            <polygon fill="#87550D" points="303.347153 125.655844 301.348292 124.214286 301.987927 104.4329 303.986788 105.794372"></polygon>
            <polygon fill="#9F6512" points="306.145558 126.777056 303.347153 125.655844 303.986788 105.794372 306.785194 106.915584"></polygon>
            <polygon fill="#B17115" points="309.42369 127.658009 306.145558 126.777056 306.785194 106.915584 310.063326 107.796537"></polygon>
            <polygon fill="#BD7918" points="313.101595 128.138528 309.42369 127.658009 310.063326 107.796537 313.74123 108.277056"></polygon>
            <polygon fill="#C27C19" points="316.779499 128.218615 313.101595 128.138528 313.74123 108.277056 317.499089 108.277056"></polygon>
            <polygon fill="#BF7B18" points="320.297494 127.898268 316.779499 128.218615 317.499089 108.277056 321.017084 107.95671"></polygon>
            <polygon fill="#B67416" points="323.335763 127.177489 320.297494 127.898268 321.017084 107.95671 324.055353 107.316017"></polygon>
            <polygon fill="#A66A14" points="325.734396 126.056277 323.335763 127.177489 324.055353 107.316017 326.453986 106.274892"></polygon>
            <polygon fill="#915B0F" points="327.253531 124.694805 325.734396 126.056277 326.453986 106.274892 328.053075 104.993506"></polygon>
            <polygon fill="#75490A" points="327.893166 123.253247 327.253531 124.694805 328.053075 104.993506 328.612756 103.551948"></polygon>
            <polygon fill="#6F4508" points="324.934852 99.3073593 327.093622 100.588745 328.292938 102.030303 328.612756 103.551948 328.053075 104.993506 326.453986 106.274892 324.055353 107.316017 321.017084 107.95671 317.499089 108.277056 313.74123 108.277056 310.063326 107.796537 306.785194 106.915584 303.986788 105.794372 301.907973 104.4329 300.78861 102.991342 300.548747 101.549784 301.348292 100.108225 302.94738 98.9069264 305.346014 97.8658009 306.305467 97.7056277 306.145558 101.950216 306.305467 102.831169 307.025057 103.712121 308.224374 104.512987 309.903417 105.15368 311.902278 105.634199 314.061048 105.954545 316.299772 105.954545 318.378588 105.794372 320.21754 105.393939 321.65672 104.753247 322.616173 103.952381 323.015945 103.151515 323.175854 98.5865801"></polygon>
            <polygon fill="#9F6512" points="309.903417 105.15368 308.224374 104.512987 308.544191 95.4632035 310.223235 94.982684"></polygon>
            <polygon fill="#B17115" points="311.902278 105.634199 309.903417 105.15368 310.223235 94.982684 312.30205 94.3419913"></polygon>
            <polygon fill="#543404" points="306.385421 96.1038961 306.305467 97.7056277 306.145558 101.950216 306.305467 102.831169 306.54533 96.1038961"></polygon>
            <polygon fill="#653718" points="323.015945 103.151515 322.616173 103.952381 323.0959 91.0584416 323.495672 90.978355 323.175854 98.5865801"></polygon>
            <polygon fill="#A95F2F" points="316.299772 105.954545 314.061048 105.954545 314.540774 93.6212121 316.779499 92.9805195"></polygon>
            <polygon fill="#87550D" points="308.224374 104.512987 307.025057 103.712121 307.26492 95.8636364 308.544191 95.4632035"></polygon>
            <polygon fill="#6A4109" points="307.025057 103.712121 306.305467 102.831169 306.54533 96.1038961 307.26492 95.8636364"></polygon>
            <polygon fill="#915127" points="321.65672 104.753247 320.21754 105.393939 320.697267 91.7792208 322.136446 91.3787879"></polygon>
            <polygon fill="#A45C2E" points="314.061048 105.954545 311.902278 105.634199 312.30205 94.3419913 314.540774 93.6212121"></polygon>
            <polygon fill="#A75E2E" points="318.378588 105.794372 316.299772 105.954545 316.779499 92.9805195 318.858314 92.3398268"></polygon>
            <polygon fill="#9F592B" points="320.21754 105.393939 318.378588 105.794372 318.858314 92.3398268 320.697267 91.7792208"></polygon>
            <polygon fill="#7D4621" points="322.616173 103.952381 321.65672 104.753247 322.136446 91.3787879 323.0959 91.0584416"></polygon>
            <polygon fill="#6A4109" points="133.364009 179.073593 132.884282 177.071429 132.244647 154.807359 132.724374 156.729437"></polygon>
            <polygon fill="#87550D" points="134.963098 180.995671 133.364009 179.073593 132.724374 156.729437 134.323462 158.571429"></polygon>
            <polygon fill="#9F6512" points="137.52164 182.517316 134.963098 180.995671 134.323462 158.571429 136.882005 160.012987"></polygon>
            <polygon fill="#B17115" points="140.879727 183.718615 137.52164 182.517316 136.882005 160.012987 140.320046 161.134199"></polygon>
            <polygon fill="#BD7918" points="144.797494 184.359307 140.879727 183.718615 140.320046 161.134199 144.237813 161.774892"></polygon>
            <polygon fill="#C27C19" points="149.03508 184.439394 144.797494 184.359307 144.237813 161.774892 148.475399 161.854978"></polygon>
            <polygon fill="#BF7B18" points="153.192711 184.038961 149.03508 184.439394 148.475399 161.854978 152.792938 161.454545"></polygon>
            <polygon fill="#B67416" points="157.110478 182.997835 153.192711 184.038961 152.712984 161.454545 156.710706 160.493506"></polygon>
            <polygon fill="#A66A14" points="160.468565 181.556277 157.110478 182.997835 156.710706 160.493506 159.988838 159.132035"></polygon>
            <polygon fill="#915B0F" points="162.947153 179.794372 160.468565 181.556277 159.988838 159.132035 162.54738 157.450216"></polygon>
            <polygon fill="#75490A" points="164.466287 177.792208 162.947153 179.794372 162.54738 157.450216 164.066515 155.528139"></polygon>
            <polygon fill="#543404" points="164.866059 175.709957 164.466287 177.792208 164.066515 155.528139 164.546241 153.525974"></polygon>
            <polygon fill="#6F4508" points="144.237813 161.774892 140.320046 161.134199 136.882005 160.012987 134.323462 158.571429 132.724374 156.729437 132.244647 154.807359 132.884282 152.805195 134.483371 150.963203 137.121868 149.361472 138.561048 148.720779 138.720957 154.5671 139.040774 155.688312 140.000228 156.809524 141.519362 157.690476 143.598178 158.331169 145.916856 158.731602 148.475399 158.731602 151.033941 158.491342 153.35262 157.930736 155.351481 157.12987 156.870615 156.088745 157.830068 154.967532 158.069932 153.766234 157.989977 148 159.589066 148.480519 162.147608 149.922078 163.906606 151.603896 164.546241 153.525974 164.066515 155.528139 162.54738 157.450216 159.988838 159.132035 156.710706 160.493506 152.712984 161.454545 148.475399 161.854978"></polygon>
            <polygon fill="#A95F2F" points="148.475399 158.731602 145.916856 158.731602 145.597039 144.796537 148.155581 143.995671"></polygon>
            <polygon fill="#A75E2E" points="151.033941 158.491342 148.475399 158.731602 148.155581 143.995671 150.634169 143.274892"></polygon>
            <polygon fill="#A45C2E" points="145.916856 158.731602 143.598178 158.331169 143.27836 145.517316 145.597039 144.796537"></polygon>
            <polygon fill="#9F592B" points="153.35262 157.930736 151.033941 158.491342 150.634169 143.274892 153.032802 142.554113"></polygon>
            <polygon fill="#B17115" points="143.598178 158.331169 141.519362 157.690476 141.279499 146.077922 143.27836 145.517316"></polygon>
            <polygon fill="#A66A14" points="155.351481 157.12987 153.35262 157.930736 153.032802 142.554113 155.031663 141.91342"></polygon>
            <polygon fill="#8A4D25" points="141.519362 157.690476 140.000228 156.809524 139.760364 146.558442 141.279499 146.077922"></polygon>
            <polygon fill="#915B0F" points="156.870615 156.088745 155.351481 157.12987 155.031663 141.91342 156.550797 141.4329"></polygon>
            <polygon fill="#75411E" points="140.000228 156.809524 139.040774 155.688312 138.800911 146.878788 139.760364 146.558442"></polygon>
            <polygon fill="#653718" points="157.830068 154.967532 156.870615 156.088745 156.550797 141.4329 157.510251 141.192641"></polygon>
            <polygon fill="#5B3115" points="138.561048 146.958874 138.561048 148.720779 138.720957 154.5671 139.040774 155.688312 138.800911 146.878788"></polygon>
            <polygon fill="#49260E" points="157.510251 141.192641 157.830068 154.967532 158.069932 153.766234 157.989977 148 157.830068 141.112554"></polygon>
            <polygon fill="#9F6512" points="21.2678815 85.2121212 19.6687927 84.3311688 18.5494305 66.5519481 20.1485194 67.4329004"></polygon>
            <polygon fill="#B17115" points="23.6665148 85.9329004 21.2678815 85.2121212 20.1485194 67.4329004 22.5471526 68.0735931"></polygon>
            <polygon fill="#BD7918" points="26.5448747 86.2532468 23.6665148 85.9329004 22.5471526 68.0735931 25.4255125 68.3939394"></polygon>
            <polygon fill="#C27C19" points="29.7430524 86.3333333 26.5448747 86.2532468 25.4255125 68.3939394 28.6236902 68.474026"></polygon>
            <polygon fill="#BF7B18" points="33.101139 86.0930736 29.7430524 86.3333333 28.6236902 68.474026 31.9817768 68.2337662"></polygon>
            <polygon fill="#B67416" points="36.2993166 85.5324675 33.101139 86.0930736 31.9817768 68.2337662 33.9006834 67.9134199 35.3398633 68.9545455"></polygon>
            <polygon fill="#A66A14" points="39.1776765 84.6515152 36.2993166 85.5324675 35.3398633 68.9545455 38.3781321 71.2770563"></polygon>
            <polygon fill="#915B0F" points="41.4963554 83.6103896 39.1776765 84.6515152 38.3781321 71.2770563 40.8567198 73.1991342"></polygon>
            <polygon fill="#75490A" points="43.0954442 82.4090909 41.4963554 83.6103896 40.8567198 73.1991342 42.6157175 74.5606061"></polygon>
            <polygon fill="#543404" points="43.8949886 81.2077922 43.0954442 82.4090909 42.6157175 74.5606061 43.5751708 75.2813853"></polygon>
            <polygon fill="#6A4109" points="43.8949886 81.2077922 43.8150342 80.0064935 43.5751708 75.2813853 43.5751708 75.2813853"></polygon>
            <polygon fill="#87550D" points="19.6687927 84.3311688 18.8692483 83.2099567 17.7498861 65.4307359 18.5494305 66.5519481"></polygon>
            <polygon fill="#6F4508" points="20.1485194 67.4329004 18.5494305 66.5519481 17.7498861 65.4307359 17.7498861 64.3095238 18.7093394 63.1082251 20.3883827 62.0670996 22.5471526 61.1060606 22.7870159 64.8701299 23.2667426 65.5108225 24.3061503 65.991342 25.6653759 66.3917749 27.4243736 66.6320346 29.3432802 66.6320346 31.3421412 66.4718615 31.9817768 66.3917749 33.9006834 67.9134199 31.9817768 68.2337662 28.6236902 68.474026 25.4255125 68.3939394 22.5471526 68.0735931"></polygon>
            <polygon fill="#75411E" points="23.2667426 65.5108225 22.7870159 64.8701299 22.5471526 61.1060606 22.3872437 59.1038961 22.8669704 59.4242424"></polygon>
            <polygon fill="#9F6512" points="24.3061503 65.991342 23.2667426 65.5108225 22.8669704 59.4242424 23.9063781 60.2251082"></polygon>
            <polygon fill="#B17115" points="25.6653759 66.3917749 24.3061503 65.991342 23.9063781 60.2251082 25.3455581 61.3463203"></polygon>
            <polygon fill="#BD7918" points="27.4243736 66.6320346 25.6653759 66.3917749 25.3455581 61.3463203 27.1845103 62.7077922"></polygon>
            <polygon fill="#C27C19" points="29.3432802 66.6320346 27.4243736 66.6320346 27.1845103 62.7077922 29.1833713 64.2294372"></polygon>
            <polygon fill="#BF7B18" points="31.3421412 66.4718615 29.3432802 66.6320346 29.1833713 64.2294372 31.2621868 65.9112554"></polygon>
            <polygon fill="#B67416" points="31.3421412 66.4718615 31.9817768 66.3917749 31.2621868 65.9112554"></polygon>
            <polygon fill="#BBBBBC" points="349.800683 82.3290043 349.800683 82.969697 323.495672 90.978355 323.0959 91.0584416 322.136446 91.3787879 320.697267 91.7792208 318.858314 92.3398268 316.779499 92.9805195 314.540774 93.6212121 312.30205 94.3419913 310.223235 94.982684 308.544191 95.4632035 307.26492 95.8636364 306.54533 96.1038961 306.385421 96.1038961 157.830068 141.112554 157.510251 141.192641 156.550797 141.4329 155.031663 141.91342 153.032802 142.554113 150.634169 143.274892 148.155581 143.995671 145.597039 144.796537 143.27836 145.517316 141.279499 146.077922 139.760364 146.558442 138.800911 146.878788 138.561048 146.958874 137.361731 147.279221 137.361731 146.478355"></polygon>
            <polygon fill="#9E9E9E" points="137.361731 146.478355 137.361731 147.279221 43.5751708 75.2813853 43.5751708 75.2813853 42.6157175 74.5606061 40.8567198 73.1991342 38.3781321 71.2770563 35.3398633 68.9545455 33.9006834 67.9134199 31.9817768 66.3917749 31.2621868 65.9112554 29.1833713 64.2294372 27.1845103 62.7077922 25.3455581 61.3463203 23.9063781 60.2251082 22.8669704 59.4242424 22.3872437 59.1038961 0.879498861 42.525974 0.799544419 41.965368"></polygon>
            <path d="M141.679271,129.820346 L141.359453,129.099567" stroke="#000000" stroke-width="0.5" stroke-linecap="round" stroke-linejoin="round"></path>
            <path d="M141.679271,129.820346 L142.478815,130.461039" stroke="#000000" stroke-width="0.5" stroke-linecap="round" stroke-linejoin="round"></path>
            <path d="M154.232118,128.939394 L154.312073,128.218615" stroke="#000000" stroke-width="0.5" stroke-linecap="round" stroke-linejoin="round"></path>
            <path d="M153.752392,129.660173 L154.232118,128.939394" stroke="#000000" stroke-width="0.5" stroke-linecap="round" stroke-linejoin="round"></path>
            <path d="M152.792938,130.300866 L153.752392,129.660173" stroke="#000000" stroke-width="0.5" stroke-linecap="round" stroke-linejoin="round"></path>
            <path d="M151.593622,130.861472 L152.792938,130.300866" stroke="#000000" stroke-width="0.5" stroke-linecap="round" stroke-linejoin="round"></path>
            <path d="M150.074487,131.261905 L151.593622,130.861472" stroke="#000000" stroke-width="0.5" stroke-linecap="round" stroke-linejoin="round"></path>
            <path d="M148.395444,131.502165 L150.074487,131.261905" stroke="#000000" stroke-width="0.5" stroke-linecap="round" stroke-linejoin="round"></path>
            <path d="M146.636446,131.502165 L148.395444,131.502165" stroke="#000000" stroke-width="0.5" stroke-linecap="round" stroke-linejoin="round"></path>
            <path d="M145.037358,131.341991 L146.636446,131.502165" stroke="#000000" stroke-width="0.5" stroke-linecap="round" stroke-linejoin="round"></path>
            <path d="M143.598178,130.941558 L145.037358,131.341991" stroke="#000000" stroke-width="0.5" stroke-linecap="round" stroke-linejoin="round"></path>
            <path d="M142.478815,130.461039 L143.598178,130.941558" stroke="#000000" stroke-width="0.5" stroke-linecap="round" stroke-linejoin="round"></path>
            <polyline stroke="#000000" stroke-width="0.5" stroke-linecap="round" stroke-linejoin="round" points="309.903417 80.3268398 310.463098 80.8874459 311.422551 81.3679654"></polyline>
            <path d="M320.857175,80.8073593 L321.017084,80.2467532" stroke="#000000" stroke-width="0.5" stroke-linecap="round" stroke-linejoin="round"></path>
            <path d="M320.297494,81.2878788 L320.857175,80.8073593" stroke="#000000" stroke-width="0.5" stroke-linecap="round" stroke-linejoin="round"></path>
            <path d="M319.417995,81.6883117 L320.297494,81.2878788" stroke="#000000" stroke-width="0.5" stroke-linecap="round" stroke-linejoin="round"></path>
            <path d="M318.298633,82.008658 L319.417995,81.6883117" stroke="#000000" stroke-width="0.5" stroke-linecap="round" stroke-linejoin="round"></path>
            <path d="M316.939408,82.1688312 L318.298633,82.008658" stroke="#000000" stroke-width="0.5" stroke-linecap="round" stroke-linejoin="round"></path>
            <path d="M315.420273,82.1688312 L316.939408,82.1688312" stroke="#000000" stroke-width="0.5" stroke-linecap="round" stroke-linejoin="round"></path>
            <path d="M313.981093,82.008658 L315.420273,82.1688312" stroke="#000000" stroke-width="0.5" stroke-linecap="round" stroke-linejoin="round"></path>
            <path d="M312.621868,81.7683983 L313.981093,82.008658" stroke="#000000" stroke-width="0.5" stroke-linecap="round" stroke-linejoin="round"></path>
            <path d="M311.422551,81.3679654 L312.621868,81.7683983" stroke="#000000" stroke-width="0.5" stroke-linecap="round" stroke-linejoin="round"></path>
            <path d="M309.903417,80.3268398 L309.663554,79.7662338" stroke="#000000" stroke-width="0.5" stroke-linecap="round" stroke-linejoin="round"></path>
            <path d="M24.1462415,44.4480519 L24.066287,43.9675325" stroke="#000000" stroke-width="0.5" stroke-linecap="round" stroke-linejoin="round"></path>
            <path d="M24.1462415,44.4480519 L24.5460137,44.7683983" stroke="#000000" stroke-width="0.5" stroke-linecap="round" stroke-linejoin="round"></path>
            <path d="M31.4220957,45.008658 L32.0617312,44.8484848" stroke="#000000" stroke-width="0.5" stroke-linecap="round" stroke-linejoin="round"></path>
            <path d="M30.1428246,45.2489177 L31.4220957,45.008658" stroke="#000000" stroke-width="0.5" stroke-linecap="round" stroke-linejoin="round"></path>
            <path d="M28.7835991,45.4090909 L30.1428246,45.2489177" stroke="#000000" stroke-width="0.5" stroke-linecap="round" stroke-linejoin="round"></path>
            <path d="M27.504328,45.4090909 L28.7835991,45.4090909" stroke="#000000" stroke-width="0.5" stroke-linecap="round" stroke-linejoin="round"></path>
            <path d="M26.3050114,45.3290043 L27.504328,45.4090909" stroke="#000000" stroke-width="0.5" stroke-linecap="round" stroke-linejoin="round"></path>
            <path d="M25.2656036,45.0887446 L26.3050114,45.3290043" stroke="#000000" stroke-width="0.5" stroke-linecap="round" stroke-linejoin="round"></path>
            <path d="M24.5460137,44.7683983 L25.2656036,45.0887446" stroke="#000000" stroke-width="0.5" stroke-linecap="round" stroke-linejoin="round"></path>
            <polyline stroke="#000000" stroke-width="0.5" stroke-linecap="round" stroke-linejoin="round" points="308.224374 104.512987 309.903417 105.15368 311.902278 105.634199"></polyline>
            <path d="M306.305467,102.831169 L306.145558,101.950216" stroke="#000000" stroke-width="0.5" stroke-linecap="round" stroke-linejoin="round"></path>
            <path d="M322.616173,103.952381 L323.015945,103.151515" stroke="#000000" stroke-width="0.5" stroke-linecap="round" stroke-linejoin="round"></path>
            <path d="M314.061048,105.954545 L316.299772,105.954545" stroke="#000000" stroke-width="0.5" stroke-linecap="round" stroke-linejoin="round"></path>
            <path d="M307.025057,103.712121 L308.224374,104.512987" stroke="#000000" stroke-width="0.5" stroke-linecap="round" stroke-linejoin="round"></path>
            <path d="M307.025057,103.712121 L306.305467,102.831169" stroke="#000000" stroke-width="0.5" stroke-linecap="round" stroke-linejoin="round"></path>
            <path d="M320.21754,105.393939 L321.65672,104.753247" stroke="#000000" stroke-width="0.5" stroke-linecap="round" stroke-linejoin="round"></path>
            <path d="M311.902278,105.634199 L314.061048,105.954545" stroke="#000000" stroke-width="0.5" stroke-linecap="round" stroke-linejoin="round"></path>
            <polyline stroke="#000000" stroke-width="0.5" stroke-linecap="round" stroke-linejoin="round" points="316.299772 105.954545 318.378588 105.794372 320.21754 105.393939"></polyline>
            <path d="M321.65672,104.753247 L322.616173,103.952381" stroke="#000000" stroke-width="0.5" stroke-linecap="round" stroke-linejoin="round"></path>
            <polyline stroke="#000000" stroke-width="0.5" stroke-linecap="round" stroke-linejoin="round" points="145.916856 158.731602 148.475399 158.731602 151.033941 158.491342"></polyline>
            <path d="M143.598178,158.331169 L145.916856,158.731602" stroke="#000000" stroke-width="0.5" stroke-linecap="round" stroke-linejoin="round"></path>
            <path d="M151.033941,158.491342 L153.35262,157.930736" stroke="#000000" stroke-width="0.5" stroke-linecap="round" stroke-linejoin="round"></path>
            <path d="M141.519362,157.690476 L143.598178,158.331169" stroke="#000000" stroke-width="0.5" stroke-linecap="round" stroke-linejoin="round"></path>
            <path d="M153.35262,157.930736 L155.351481,157.12987" stroke="#000000" stroke-width="0.5" stroke-linecap="round" stroke-linejoin="round"></path>
            <path d="M140.000228,156.809524 L141.519362,157.690476" stroke="#000000" stroke-width="0.5" stroke-linecap="round" stroke-linejoin="round"></path>
            <path d="M155.351481,157.12987 L156.870615,156.088745" stroke="#000000" stroke-width="0.5" stroke-linecap="round" stroke-linejoin="round"></path>
            <path d="M140.000228,156.809524 L139.040774,155.688312" stroke="#000000" stroke-width="0.5" stroke-linecap="round" stroke-linejoin="round"></path>
            <path d="M156.870615,156.088745 L157.830068,154.967532" stroke="#000000" stroke-width="0.5" stroke-linecap="round" stroke-linejoin="round"></path>
            <path d="M139.040774,155.688312 L138.720957,154.5671" stroke="#000000" stroke-width="0.5" stroke-linecap="round" stroke-linejoin="round"></path>
            <path d="M157.830068,154.967532 L158.069932,153.766234" stroke="#000000" stroke-width="0.5" stroke-linecap="round" stroke-linejoin="round"></path>
            <path d="M23.2667426,65.5108225 L22.7870159,64.8701299" stroke="#000000" stroke-width="0.5" stroke-linecap="round" stroke-linejoin="round"></path>
            <polyline stroke="#000000" stroke-width="0.5" stroke-linecap="round" stroke-linejoin="round" points="23.2667426 65.5108225 24.3061503 65.991342 25.6653759 66.3917749 27.4243736 66.6320346 29.3432802 66.6320346 31.3421412 66.4718615 31.9817768 66.3917749"></polyline>
            <path d="M138.96082,110.119048 L74.9173121,65.8311688" stroke="#000000" stroke-width="0.5" stroke-linecap="round" stroke-linejoin="round"></path>
            <path d="M322.37631,65.3506494 L269.206606,80.1666667" stroke="#000000" stroke-width="0.5" stroke-linecap="round" stroke-linejoin="round"></path>
            <path d="M269.206606,80.1666667 L210.6,96.504329" stroke="#000000" stroke-width="0.5" stroke-linecap="round" stroke-linejoin="round"></path>
            <polyline stroke="#000000" stroke-width="0.5" stroke-linecap="round" stroke-linejoin="round" points="145.517084 115.645022 145.517084 114.683983 138.96082 110.119048"></polyline>
            <path d="M210.6,96.504329 L145.517084,114.683983" stroke="#000000" stroke-width="0.5" stroke-linecap="round" stroke-linejoin="round"></path>
            <path d="M145.756948,123.974026 L145.517084,115.645022" stroke="#000000" stroke-width="0.5" stroke-linecap="round" stroke-linejoin="round"></path>
            <path d="M146.87631,130.461039 L146.716401,123.65368" stroke="#000000" stroke-width="0.5" stroke-linecap="round" stroke-linejoin="round"></path>
            <path d="M315.260364,81.3679654 L315.420273,75.4415584" stroke="#000000" stroke-width="0.5" stroke-linecap="round" stroke-linejoin="round"></path>
            <path d="M27.9840547,44.7683983 L27.6642369,40.2835498" stroke="#000000" stroke-width="0.5" stroke-linecap="round" stroke-linejoin="round"></path>
            <path d="M114.494761,105.474026 L114.414806,101.790043" stroke="#000000" stroke-width="0.5" stroke-linecap="round" stroke-linejoin="round"></path>
            <path d="M138.641002,122.772727 L138.561048,118.928571" stroke="#000000" stroke-width="0.5" stroke-linecap="round" stroke-linejoin="round"></path>
            <path d="M92.5872437,89.7770563 L92.4273349,86.1731602" stroke="#000000" stroke-width="0.5" stroke-linecap="round" stroke-linejoin="round"></path>
            <path d="M72.5986333,75.4415584 L72.4387244,71.9978355" stroke="#000000" stroke-width="0.5" stroke-linecap="round" stroke-linejoin="round"></path>
            <path d="M54.2890661,62.3073593 L54.1291572,59.0238095" stroke="#000000" stroke-width="0.5" stroke-linecap="round" stroke-linejoin="round"></path>
            <path d="M37.4186788,50.2142857 L37.2587699,47.0108225" stroke="#000000" stroke-width="0.5" stroke-linecap="round" stroke-linejoin="round"></path>
            <polyline stroke="#000000" stroke-width="0.5" stroke-linecap="round" stroke-linejoin="round" points="300.548747 101.549784 300.78861 102.991342 301.907973 104.4329 303.986788 105.794372 306.785194 106.915584 310.063326 107.796537 313.74123 108.277056 317.499089 108.277056 321.017084 107.95671 324.055353 107.316017 326.453986 106.274892 328.053075 104.993506 328.612756 103.551948"></polyline>
            <polyline stroke="#000000" stroke-width="0.5" stroke-linecap="round" stroke-linejoin="round" points="140.320046 161.134199 144.237813 161.774892 148.475399 161.854978 152.792938 161.454545 156.710706 160.493506 159.988838 159.132035 162.54738 157.450216 164.066515 155.528139 164.546241 153.525974"></polyline>
            <polyline stroke="#000000" stroke-width="0.5" stroke-linecap="round" stroke-linejoin="round" points="132.244647 154.807359 132.724374 156.729437 134.323462 158.571429 136.882005 160.012987 140.320046 161.134199"></polyline>
            <polyline stroke="#000000" stroke-width="0.5" stroke-linecap="round" stroke-linejoin="round" points="18.5494305 66.5519481 20.1485194 67.4329004 22.5471526 68.0735931 25.4255125 68.3939394 28.6236902 68.474026 31.9817768 68.2337662 33.9006834 67.9134199"></polyline>
            <path d="M17.7498861,65.4307359 L18.5494305,66.5519481" stroke="#000000" stroke-width="0.5" stroke-linecap="round" stroke-linejoin="round"></path>
            <path d="M74.9173121,65.8311688 L22.8669704,29.952381" stroke="#000000" stroke-width="0.5" stroke-linecap="round" stroke-linejoin="round"></path>
            <path d="M349.800683,82.3290043 L137.361731,146.478355" stroke="#000000" stroke-width="0.5" stroke-linecap="round" stroke-linejoin="round"></path>
            <polyline stroke="#000000" stroke-width="0.5" stroke-linecap="round" stroke-linejoin="round" points="137.361731 147.279221 137.361731 146.478355 0.799544419 41.965368"></polyline>
            <path d="M146.87631,130.461039 L151.833485,129.019481" stroke="#000000" stroke-width="0.8" stroke-linecap="round" stroke-linejoin="round"></path>
            <path d="M143.838041,128.298701 L143.917995,128.298701" stroke="#000000" stroke-width="0.8" stroke-linecap="round" stroke-linejoin="round"></path>
            <path d="M146.796355,130.380952 L146.87631,130.461039" stroke="#000000" stroke-width="0.8" stroke-linecap="round" stroke-linejoin="round"></path>
            <path d="M143.917995,128.298701 L146.796355,130.380952" stroke="#000000" stroke-width="0.8" stroke-linecap="round" stroke-linejoin="round"></path>
            <polyline stroke="#000000" stroke-width="0.8" stroke-linecap="round" stroke-linejoin="round" points="141.439408 128.378788 141.999089 127.658009 142.958542 126.937229 143.838041 126.616883"></polyline>
            <polyline stroke="#000000" stroke-width="0.8" stroke-linecap="round" stroke-linejoin="round" points="151.753531 126.296537 152.073349 126.376623 153.192711 126.857143 153.992255 127.497835"></polyline>
            <path d="M154.312073,128.218615 L153.992255,127.497835" stroke="#000000" stroke-width="0.8" stroke-linecap="round" stroke-linejoin="round"></path>
            <path d="M141.359453,129.099567 L141.439408,128.378788" stroke="#000000" stroke-width="0.8" stroke-linecap="round" stroke-linejoin="round"></path>
            <path d="M315.260364,81.3679654 L318.938269,80.2467532" stroke="#000000" stroke-width="0.8" stroke-linecap="round" stroke-linejoin="round"></path>
            <path d="M311.742369,79.6861472 L311.822323,79.7662338" stroke="#000000" stroke-width="0.8" stroke-linecap="round" stroke-linejoin="round"></path>
            <path d="M315.100456,81.2878788 L315.260364,81.3679654" stroke="#000000" stroke-width="0.8" stroke-linecap="round" stroke-linejoin="round"></path>
            <path d="M311.822323,79.7662338 L315.100456,81.2878788" stroke="#000000" stroke-width="0.8" stroke-linecap="round" stroke-linejoin="round"></path>
            <path d="M321.017084,80.2467532 L320.777221,79.6861472" stroke="#000000" stroke-width="0.8" stroke-linecap="round" stroke-linejoin="round"></path>
            <polyline stroke="#000000" stroke-width="0.8" stroke-linecap="round" stroke-linejoin="round" points="309.663554 79.7662338 309.903417 79.2056277 310.463098 78.7251082 311.342597 78.3246753 311.822323 78.2445887"></polyline>
            <polyline stroke="#000000" stroke-width="0.8" stroke-linecap="round" stroke-linejoin="round" points="319.018223 78.5649351 319.258087 78.6450216 320.21754 79.1255411 320.777221 79.6861472"></polyline>
            <path d="M27.9840547,44.7683983 L32.0617312,43.9675325" stroke="#000000" stroke-width="0.8" stroke-linecap="round" stroke-linejoin="round"></path>
            <path d="M26.1451025,43.487013 L26.2250569,43.5670996" stroke="#000000" stroke-width="0.8" stroke-linecap="round" stroke-linejoin="round"></path>
            <path d="M27.9041002,44.7683983 L27.9840547,44.7683983" stroke="#000000" stroke-width="0.8" stroke-linecap="round" stroke-linejoin="round"></path>
            <path d="M26.2250569,43.5670996 L27.9041002,44.7683983" stroke="#000000" stroke-width="0.8" stroke-linecap="round" stroke-linejoin="round"></path>
            <polyline stroke="#000000" stroke-width="0.8" stroke-linecap="round" stroke-linejoin="round" points="24.3061503 43.5670996 24.8658314 43.0865801 25.7453303 42.7662338 26.1451025 42.6060606"></polyline>
            <path d="M24.066287,43.9675325 L24.3061503,43.5670996" stroke="#000000" stroke-width="0.8" stroke-linecap="round" stroke-linejoin="round"></path>
            <path d="M175.340091,0.560606061 L238.903872,28.5909091" stroke="#000000" stroke-width="0.8" stroke-linecap="round" stroke-linejoin="round"></path>
            <polyline stroke="#000000" stroke-width="0.8" stroke-linecap="round" stroke-linejoin="round" points="188.932346 39.9632035 128.406834 9.61038961 175.340091 0.560606061"></polyline>
            <path d="M238.903872,28.5909091 L188.932346,39.9632035" stroke="#000000" stroke-width="0.8" stroke-linecap="round" stroke-linejoin="round"></path>
            <polyline stroke="#000000" stroke-width="0.8" stroke-linecap="round" stroke-linejoin="round" points="134.483371 52.2965368 77.7157175 19.3809524 128.406834 9.61038961"></polyline>
            <path d="M188.932346,39.9632035 L134.483371,52.2965368" stroke="#000000" stroke-width="0.8" stroke-linecap="round" stroke-linejoin="round"></path>
            <path d="M238.903872,28.5909091 L314.780638,61.987013" stroke="#000000" stroke-width="0.8" stroke-linecap="round" stroke-linejoin="round"></path>
            <path d="M261.850797,76.482684 L188.932346,39.9632035" stroke="#000000" stroke-width="0.8" stroke-linecap="round" stroke-linejoin="round"></path>
            <path d="M314.780638,61.987013 L261.850797,76.482684" stroke="#000000" stroke-width="0.8" stroke-linecap="round" stroke-linejoin="round"></path>
            <path d="M203.564009,92.5 L134.483371,52.2965368" stroke="#000000" stroke-width="0.8" stroke-linecap="round" stroke-linejoin="round"></path>
            <path d="M261.850797,76.482684 L203.564009,92.5" stroke="#000000" stroke-width="0.8" stroke-linecap="round" stroke-linejoin="round"></path>
            <path d="M139.040774,111.080087 L74.9173121,66.7121212" stroke="#000000" stroke-width="0.8" stroke-linecap="round" stroke-linejoin="round"></path>
            <path d="M139.040774,111.080087 L138.96082,110.119048" stroke="#000000" stroke-width="0.8" stroke-linecap="round" stroke-linejoin="round"></path>
            <polyline stroke="#000000" stroke-width="0.8" stroke-linecap="round" stroke-linejoin="round" points="74.9173121 66.7121212 74.9173121 65.8311688 134.483371 52.2965368"></polyline>
            <path d="M203.564009,92.5 L138.96082,110.119048" stroke="#000000" stroke-width="0.8" stroke-linecap="round" stroke-linejoin="round"></path>
            <polyline stroke="#000000" stroke-width="0.8" stroke-linecap="round" stroke-linejoin="round" points="322.37631 66.2316017 269.206606 81.047619 269.206606 80.1666667"></polyline>
            <path d="M314.780638,61.987013 L322.37631,65.3506494" stroke="#000000" stroke-width="0.8" stroke-linecap="round" stroke-linejoin="round"></path>
            <path d="M269.206606,80.1666667 L261.850797,76.482684" stroke="#000000" stroke-width="0.8" stroke-linecap="round" stroke-linejoin="round"></path>
            <path d="M322.37631,66.2316017 L322.37631,65.3506494" stroke="#000000" stroke-width="0.8" stroke-linecap="round" stroke-linejoin="round"></path>
            <polyline stroke="#000000" stroke-width="0.8" stroke-linecap="round" stroke-linejoin="round" points="269.206606 81.047619 210.6 97.465368 210.6 96.504329 203.564009 92.5"></polyline>
            <path d="M210.6,97.465368 L145.517084,115.645022" stroke="#000000" stroke-width="0.8" stroke-linecap="round" stroke-linejoin="round"></path>
            <path d="M22.9469248,30.6731602 L23.6665148,31.1536797" stroke="#000000" stroke-width="0.8" stroke-linecap="round" stroke-linejoin="round"></path>
            <path d="M23.346697,37.1601732 L22.9469248,30.6731602" stroke="#000000" stroke-width="0.8" stroke-linecap="round" stroke-linejoin="round"></path>
            <path d="M24.066287,37.7207792 L23.6665148,31.1536797" stroke="#000000" stroke-width="0.8" stroke-linecap="round" stroke-linejoin="round"></path>
            <path d="M144.317768,114.764069 L145.517084,115.645022" stroke="#000000" stroke-width="0.8" stroke-linecap="round" stroke-linejoin="round"></path>
            <path d="M144.477677,123.093074 L144.317768,114.764069" stroke="#000000" stroke-width="0.8" stroke-linecap="round" stroke-linejoin="round"></path>
            <path d="M144.477677,123.093074 L145.756948,123.974026" stroke="#000000" stroke-width="0.8" stroke-linecap="round" stroke-linejoin="round"></path>
            <path d="M143.917995,128.298701 L143.838041,122.612554" stroke="#000000" stroke-width="0.8" stroke-linecap="round" stroke-linejoin="round"></path>
            <path d="M146.796355,130.380952 L146.636446,123.733766" stroke="#000000" stroke-width="0.8" stroke-linecap="round" stroke-linejoin="round"></path>
            <path d="M311.822323,79.7662338 L311.982232,76.4025974" stroke="#000000" stroke-width="0.8" stroke-linecap="round" stroke-linejoin="round"></path>
            <path d="M315.100456,81.2878788 L315.340319,75.4415584" stroke="#000000" stroke-width="0.8" stroke-linecap="round" stroke-linejoin="round"></path>
            <path d="M26.2250569,43.5670996 L25.9052392,39.0021645" stroke="#000000" stroke-width="0.8" stroke-linecap="round" stroke-linejoin="round"></path>
            <path d="M27.9041002,44.7683983 L27.6642369,40.2034632" stroke="#000000" stroke-width="0.8" stroke-linecap="round" stroke-linejoin="round"></path>
            <path d="M107.138952,100.108225 L106.979043,96.504329" stroke="#000000" stroke-width="0.8" stroke-linecap="round" stroke-linejoin="round"></path>
            <path d="M130.485649,116.926407 L130.405695,113.082251" stroke="#000000" stroke-width="0.8" stroke-linecap="round" stroke-linejoin="round"></path>
            <path d="M85.8710706,84.8917749 L85.7111617,81.3679654" stroke="#000000" stroke-width="0.8" stroke-linecap="round" stroke-linejoin="round"></path>
            <path d="M66.4421412,70.95671 L66.2822323,67.5930736" stroke="#000000" stroke-width="0.8" stroke-linecap="round" stroke-linejoin="round"></path>
            <path d="M48.6123007,58.2229437 L48.4523918,54.9393939" stroke="#000000" stroke-width="0.8" stroke-linecap="round" stroke-linejoin="round"></path>
            <polyline stroke="#000000" stroke-width="0.8" stroke-linecap="round" stroke-linejoin="round" points="299.989066 121.090909 300.228929 122.692641 301.348292 124.214286 303.347153 125.655844 306.145558 126.777056 309.42369 127.658009 313.101595 128.138528 316.779499 128.218615 320.297494 127.898268 323.335763 127.177489 325.734396 126.056277 327.253531 124.694805 327.893166 123.253247"></polyline>
            <polyline stroke="#000000" stroke-width="0.8" stroke-linecap="round" stroke-linejoin="round" points="327.093622 100.588745 324.934852 99.3073593 323.175854 98.5865801"></polyline>
            <polyline stroke="#000000" stroke-width="0.8" stroke-linecap="round" stroke-linejoin="round" points="306.305467 97.7056277 305.346014 97.8658009 302.94738 98.9069264 301.348292 100.108225 300.548747 101.549784"></polyline>
            <polyline stroke="#000000" stroke-width="0.8" stroke-linecap="round" stroke-linejoin="round" points="328.612756 103.551948 328.292938 102.030303 327.093622 100.588745"></polyline>
            <path d="M299.989066,121.090909 L300.548747,101.549784" stroke="#000000" stroke-width="0.8" stroke-linecap="round" stroke-linejoin="round"></path>
            <path d="M327.893166,123.253247 L328.612756,103.551948" stroke="#000000" stroke-width="0.8" stroke-linecap="round" stroke-linejoin="round"></path>
            <polyline stroke="#000000" stroke-width="0.8" stroke-linecap="round" stroke-linejoin="round" points="132.884282 177.071429 133.364009 179.073593 134.963098 180.995671 137.52164 182.517316 140.879727 183.718615 144.797494 184.359307 149.03508 184.439394 153.192711 184.038961 157.110478 182.997835 160.468565 181.556277 162.947153 179.794372 164.466287 177.792208 164.866059 175.709957"></polyline>
            <polyline stroke="#000000" stroke-width="0.8" stroke-linecap="round" stroke-linejoin="round" points="164.546241 153.525974 163.906606 151.603896 162.147608 149.922078 159.589066 148.480519 157.989977 148"></polyline>
            <polyline stroke="#000000" stroke-width="0.8" stroke-linecap="round" stroke-linejoin="round" points="138.561048 148.720779 137.121868 149.361472 134.483371 150.963203 132.884282 152.805195 132.244647 154.807359"></polyline>
            <path d="M164.866059,175.709957 L164.546241,153.525974" stroke="#000000" stroke-width="0.8" stroke-linecap="round" stroke-linejoin="round"></path>
            <path d="M132.884282,177.071429 L132.244647,154.807359" stroke="#000000" stroke-width="0.8" stroke-linecap="round" stroke-linejoin="round"></path>
            <polyline stroke="#000000" stroke-width="0.8" stroke-linecap="round" stroke-linejoin="round" points="19.6687927 84.3311688 21.2678815 85.2121212 23.6665148 85.9329004 26.5448747 86.2532468 29.7430524 86.3333333 33.101139 86.0930736 36.2993166 85.5324675 39.1776765 84.6515152 41.4963554 83.6103896 43.0954442 82.4090909 43.8949886 81.2077922 43.8150342 80.0064935"></polyline>
            <path d="M18.8692483,83.2099567 L19.6687927,84.3311688" stroke="#000000" stroke-width="0.8" stroke-linecap="round" stroke-linejoin="round"></path>
            <polyline stroke="#000000" stroke-width="0.8" stroke-linecap="round" stroke-linejoin="round" points="22.5471526 61.1060606 20.3883827 62.0670996 18.7093394 63.1082251 17.7498861 64.3095238 17.7498861 65.4307359"></polyline>
            <path d="M43.8150342,80.0064935 L43.5751708,75.2813853" stroke="#000000" stroke-width="0.8" stroke-linecap="round" stroke-linejoin="round"></path>
            <path d="M18.8692483,83.2099567 L17.7498861,65.4307359" stroke="#000000" stroke-width="0.8" stroke-linecap="round" stroke-linejoin="round"></path>
            <polyline stroke="#000000" stroke-width="0.8" stroke-linecap="round" stroke-linejoin="round" points="22.9469248 30.6731602 22.8669704 29.952381 77.7157175 19.3809524"></polyline>
            <path d="M349.800683,82.969697 L349.880638,82.3290043" stroke="#000000" stroke-width="0.8" stroke-linecap="round" stroke-linejoin="round"></path>
            <path d="M0.879498861,42.525974 L0.799544419,41.965368" stroke="#000000" stroke-width="0.8" stroke-linecap="round" stroke-linejoin="round"></path>
            <path d="M322.216401,69.9155844 L349.800683,82.3290043" stroke="#000000" stroke-width="0.8" stroke-linecap="round" stroke-linejoin="round"></path>
            <path d="M0.799544419,41.965368 L23.6665148,37.4004329" stroke="#000000" stroke-width="0.8" stroke-linecap="round" stroke-linejoin="round"></path>
            <path d="M144.317768,114.764069 L139.040774,111.080087" stroke="#000000" stroke-width="0.8" stroke-linecap="round" stroke-linejoin="round"></path>
            <polyline stroke="#000000" stroke-width="0.8" stroke-linecap="round" stroke-linejoin="round" points="23.346697 37.1601732 23.6665148 37.4004329 24.066287 37.7207792"></polyline>
            <polyline stroke="#000000" stroke-width="0.8" stroke-linecap="round" stroke-linejoin="round" points="322.056492 73.5194805 322.216401 69.9155844 322.37631 66.2316017"></polyline>
            <path d="M23.6665148,31.1536797 L74.9173121,66.7121212" stroke="#000000" stroke-width="0.8" stroke-linecap="round" stroke-linejoin="round"></path>
            <path d="M24.066287,37.7207792 L25.9052392,39.0021645" stroke="#000000" stroke-width="0.8" stroke-linecap="round" stroke-linejoin="round"></path>
            <polyline stroke="#000000" stroke-width="0.8" stroke-linecap="round" stroke-linejoin="round" points="151.833485 129.019481 151.753531 126.296537 151.673576 122.292208"></polyline>
            <polyline stroke="#000000" stroke-width="0.8" stroke-linecap="round" stroke-linejoin="round" points="143.838041 128.298701 143.838041 126.616883 143.758087 122.532468"></polyline>
            <polyline stroke="#000000" stroke-width="0.8" stroke-linecap="round" stroke-linejoin="round" points="318.938269 80.2467532 319.018223 78.5649351 319.178132 74.3203463"></polyline>
            <polyline stroke="#000000" stroke-width="0.8" stroke-linecap="round" stroke-linejoin="round" points="311.742369 79.6861472 311.822323 78.2445887 311.822323 76.4025974"></polyline>
            <polyline stroke="#000000" stroke-width="0.8" stroke-linecap="round" stroke-linejoin="round" points="26.1451025 43.487013 26.1451025 42.6060606 25.9052392 39.0021645"></polyline>
            <path d="M32.2216401,46.4502165 L32.0617312,44.8484848" stroke="#000000" stroke-width="0.8" stroke-linecap="round" stroke-linejoin="round"></path>
            <polyline stroke="#000000" stroke-width="0.8" stroke-linecap="round" stroke-linejoin="round" points="138.561048 146.958874 138.561048 148.720779 138.720957 154.5671"></polyline>
            <polyline stroke="#000000" stroke-width="0.8" stroke-linecap="round" stroke-linejoin="round" points="157.830068 141.112554 157.989977 148 158.069932 153.766234"></polyline>
            <path d="M0.879498861,42.525974 L22.3872437,59.1038961" stroke="#000000" stroke-width="0.8" stroke-linecap="round" stroke-linejoin="round"></path>
            <path d="M137.361731,147.279221 L138.561048,146.958874" stroke="#000000" stroke-width="0.8" stroke-linecap="round" stroke-linejoin="round"></path>
            <polyline stroke="#000000" stroke-width="0.8" stroke-linecap="round" stroke-linejoin="round" points="323.495672 90.978355 323.175854 98.5865801 323.015945 103.151515"></polyline>
            <polyline stroke="#000000" stroke-width="0.8" stroke-linecap="round" stroke-linejoin="round" points="306.385421 96.1038961 306.305467 97.7056277 306.145558 101.950216"></polyline>
            <polyline stroke="#000000" stroke-width="0.8" stroke-linecap="round" stroke-linejoin="round" points="22.3872437 59.1038961 22.5471526 61.1060606 22.7870159 64.8701299"></polyline>
            <polyline stroke="#000000" stroke-width="0.8" stroke-linecap="round" stroke-linejoin="round" points="145.756948 123.974026 146.636446 123.733766 146.716401 123.65368 151.673576 122.292208"></polyline>
            <path d="" stroke="#000000" stroke-width="0.8" stroke-linecap="round" stroke-linejoin="round"></path>
            <polyline stroke="#000000" stroke-width="0.8" stroke-linecap="round" stroke-linejoin="round" points="32.0617312 44.8484848 32.0617312 43.9675325 31.9817768 43.3268398"></polyline>
            <path d="M22.3872437,59.1038961 L22.8669704,59.4242424" stroke="#000000" stroke-width="0.8" stroke-linecap="round" stroke-linejoin="round"></path>
            <path d="M138.561048,146.958874 L138.800911,146.878788" stroke="#000000" stroke-width="0.8" stroke-linecap="round" stroke-linejoin="round"></path>
            <path d="M151.673576,122.292208 L311.822323,76.4025974" stroke="#000000" stroke-width="0.8" stroke-linecap="round" stroke-linejoin="round"></path>
            <path d="M22.8669704,59.4242424 L23.9063781,60.2251082" stroke="#000000" stroke-width="0.8" stroke-linecap="round" stroke-linejoin="round"></path>
            <path d="M138.800911,146.878788 L139.760364,146.558442" stroke="#000000" stroke-width="0.8" stroke-linecap="round" stroke-linejoin="round"></path>
            <path d="M311.822323,76.4025974 L311.982232,76.4025974" stroke="#000000" stroke-width="0.8" stroke-linecap="round" stroke-linejoin="round"></path>
            <polyline stroke="#000000" stroke-width="0.8" stroke-linecap="round" stroke-linejoin="round" points="25.9052392 39.0021645 27.6642369 40.2034632 27.6642369 40.2835498"></polyline>
            <path d="M23.9063781,60.2251082 L25.3455581,61.3463203" stroke="#000000" stroke-width="0.8" stroke-linecap="round" stroke-linejoin="round"></path>
            <path d="M139.760364,146.558442 L141.279499,146.077922" stroke="#000000" stroke-width="0.8" stroke-linecap="round" stroke-linejoin="round"></path>
            <polyline stroke="#000000" stroke-width="0.8" stroke-linecap="round" stroke-linejoin="round" points="27.6642369 40.2835498 31.9817768 43.3268398 37.2587699 47.0108225"></polyline>
            <path d="M25.3455581,61.3463203 L27.1845103,62.7077922" stroke="#000000" stroke-width="0.8" stroke-linecap="round" stroke-linejoin="round"></path>
            <path d="M141.279499,146.077922 L143.27836,145.517316" stroke="#000000" stroke-width="0.8" stroke-linecap="round" stroke-linejoin="round"></path>
            <polyline stroke="#000000" stroke-width="0.8" stroke-linecap="round" stroke-linejoin="round" points="311.982232 76.4025974 315.340319 75.4415584 315.420273 75.4415584 319.178132 74.3203463 322.056492 73.5194805"></polyline>
            <polyline stroke="#000000" stroke-width="0.8" stroke-linecap="round" stroke-linejoin="round" points="37.2587699 47.0108225 40.7767654 49.4935065 48.4523918 54.9393939 54.1291572 59.0238095"></polyline>
            <path d="M27.1845103,62.7077922 L29.1833713,64.2294372" stroke="#000000" stroke-width="0.8" stroke-linecap="round" stroke-linejoin="round"></path>
            <path d="M143.27836,145.517316 L145.597039,144.796537" stroke="#000000" stroke-width="0.8" stroke-linecap="round" stroke-linejoin="round"></path>
            <path d="M29.1833713,64.2294372 L31.2621868,65.9112554" stroke="#000000" stroke-width="0.8" stroke-linecap="round" stroke-linejoin="round"></path>
            <path d="M145.597039,144.796537 L148.155581,143.995671" stroke="#000000" stroke-width="0.8" stroke-linecap="round" stroke-linejoin="round"></path>
            <polyline stroke="#000000" stroke-width="0.8" stroke-linecap="round" stroke-linejoin="round" points="54.1291572 59.0238095 57.6471526 61.5064935 66.2822323 67.5930736 72.4387244 71.9978355"></polyline>
            <path d="M148.155581,143.995671 L150.634169,143.274892" stroke="#000000" stroke-width="0.8" stroke-linecap="round" stroke-linejoin="round"></path>
            <path d="M31.2621868,65.9112554 L31.9817768,66.3917749" stroke="#000000" stroke-width="0.8" stroke-linecap="round" stroke-linejoin="round"></path>
            <path d="M38.3781321,71.2770563 L40.8567198,73.1991342" stroke="#000000" stroke-width="0.8" stroke-linecap="round" stroke-linejoin="round"></path>
            <path d="M150.634169,143.274892 L153.032802,142.554113" stroke="#000000" stroke-width="0.8" stroke-linecap="round" stroke-linejoin="round"></path>
            <polyline stroke="#000000" stroke-width="0.8" stroke-linecap="round" stroke-linejoin="round" points="72.4387244 71.9978355 76.1166287 74.5606061 85.7111617 81.3679654 92.4273349 86.1731602"></polyline>
            <path d="M35.3398633,68.9545455 L38.3781321,71.2770563" stroke="#000000" stroke-width="0.8" stroke-linecap="round" stroke-linejoin="round"></path>
            <path d="M40.8567198,73.1991342 L42.6157175,74.5606061" stroke="#000000" stroke-width="0.8" stroke-linecap="round" stroke-linejoin="round"></path>
            <path d="M153.032802,142.554113 L155.031663,141.91342" stroke="#000000" stroke-width="0.8" stroke-linecap="round" stroke-linejoin="round"></path>
            <polyline stroke="#000000" stroke-width="0.8" stroke-linecap="round" stroke-linejoin="round" points="31.9817768 66.3917749 33.9006834 67.9134199 35.3398633 68.9545455"></polyline>
            <path d="M42.6157175,74.5606061 L43.5751708,75.2813853" stroke="#000000" stroke-width="0.8" stroke-linecap="round" stroke-linejoin="round"></path>
            <path d="M155.031663,141.91342 L156.550797,141.4329" stroke="#000000" stroke-width="0.8" stroke-linecap="round" stroke-linejoin="round"></path>
            <polyline stroke="#000000" stroke-width="0.8" stroke-linecap="round" stroke-linejoin="round" points="92.4273349 86.1731602 96.1851936 88.8160173 106.979043 96.504329 114.414806 101.790043"></polyline>
            <polyline stroke="#000000" stroke-width="0.8" stroke-linecap="round" stroke-linejoin="round" points="43.5751708 75.2813853 43.5751708 75.2813853 137.361731 147.279221"></polyline>
            <polyline stroke="#000000" stroke-width="0.8" stroke-linecap="round" stroke-linejoin="round" points="156.550797 141.4329 157.510251 141.192641 157.830068 141.112554"></polyline>
            <polyline stroke="#000000" stroke-width="0.8" stroke-linecap="round" stroke-linejoin="round" points="114.414806 101.790043 118.25262 104.512987 130.405695 113.082251 138.561048 118.928571 142.478815 121.651515"></polyline>
            <path d="M306.54533,96.1038961 L307.26492,95.8636364" stroke="#000000" stroke-width="0.8" stroke-linecap="round" stroke-linejoin="round"></path>
            <path d="M142.478815,121.651515 L143.758087,122.532468" stroke="#000000" stroke-width="0.8" stroke-linecap="round" stroke-linejoin="round"></path>
            <polyline stroke="#000000" stroke-width="0.8" stroke-linecap="round" stroke-linejoin="round" points="157.830068 141.112554 306.385421 96.1038961 306.54533 96.1038961"></polyline>
            <polyline stroke="#000000" stroke-width="0.8" stroke-linecap="round" stroke-linejoin="round" points="307.26492 95.8636364 308.544191 95.4632035 310.223235 94.982684 312.30205 94.3419913"></polyline>
            <polyline stroke="#000000" stroke-width="0.8" stroke-linecap="round" stroke-linejoin="round" points="143.758087 122.532468 143.838041 122.612554 144.477677 123.093074"></polyline>
            <polyline stroke="#000000" stroke-width="0.8" stroke-linecap="round" stroke-linejoin="round" points="312.30205 94.3419913 314.540774 93.6212121 316.779499 92.9805195 318.858314 92.3398268 320.697267 91.7792208 322.136446 91.3787879"></polyline>
            <path d="M323.495672,90.978355 L349.800683,82.969697" stroke="#000000" stroke-width="0.8" stroke-linecap="round" stroke-linejoin="round"></path>
            <polyline stroke="#000000" stroke-width="0.8" stroke-linecap="round" stroke-linejoin="round" points="322.136446 91.3787879 323.0959 91.0584416 323.495672 90.978355"></polyline>
        </g>
    </g>
</svg>