<?xml version="1.0" encoding="utf-8"?>
<!-- Generator: Adobe Illustrator 20.1.0, SVG Export Plug-In . SVG Version: 6.00 Build 0)  -->
<svg version="1.1" id="Layer_8_1_" xmlns="http://www.w3.org/2000/svg" xmlns:xlink="http://www.w3.org/1999/xlink" x="0px" y="0px"
	 viewBox="0 0 473.1 230.9" style="enable-background:new 0 0 473.1 230.9;" xml:space="preserve">
<style type="text/css">
	.st0{fill:#8C8D8D;}
	.st1{fill:#A4A4A5;}
	.st2{fill:#8A8A8B;}
	.st3{fill:#997D21;}
	.st4{fill:#777777;}
	.st5{fill:#BBBBBC;}
	.st6{fill:#9E9E9E;}
	.st7{fill:#BDA27C;}
	.st8{fill:#8F7B5C;}
	.st9{fill:#DFC093;}
	.st10{fill:#B59529;}
	.st11{fill:#543404;}
	.st12{fill:#6A4109;}
	.st13{fill:#87550D;}
	.st14{fill:#9F6512;}
	.st15{fill:#B17115;}
	.st16{fill:#BD7918;}
	.st17{fill:#C27C19;}
	.st18{fill:#BF7B18;}
	.st19{fill:#B67416;}
	.st20{fill:#A66A14;}
	.st21{fill:#915B0F;}
	.st22{fill:#75490A;}
	.st23{fill:#6F4508;}
	.st24{fill:#653718;}
	.st25{fill:#A95F2F;}
	.st26{fill:#915127;}
	.st27{fill:#A45C2E;}
	.st28{fill:#A75E2E;}
	.st29{fill:#9F592B;}
	.st30{fill:#7D4621;}
	.st31{fill:#8A4D25;}
	.st32{fill:#75411E;}
	.st33{fill:#5B3115;}
	.st34{fill:#49260E;}
	.st35{fill:none;stroke:#000000;stroke-width:0.5;stroke-linecap:round;stroke-linejoin:round;stroke-miterlimit:10;}
	.st36{fill:none;stroke:#000000;stroke-linecap:round;stroke-linejoin:round;stroke-miterlimit:10;}
</style>
<g>
	<g>
		<g>
			<polygon class="st0" points="201.7,162.9 207.9,161.1 207.8,157.7 208.2,157.8 209.6,158.4 210.6,159.2 211,160.1 210.9,161 
				210.3,161.9 209.1,162.7 207.6,163.4 205.7,163.9 203.6,164.2 201.4,164.2 199.4,164 197.6,163.5 196.2,162.9 195.2,162.1 
				194.8,161.2 194.9,160.3 195.6,159.4 196.8,158.5 197.9,158.1 197.9,160.2 198,160.2 201.6,162.8 			"/>
			<polygon class="st1" points="207.9,161.1 201.7,162.9 201.5,154.4 207.7,152.7 207.8,157.7 			"/>
			<polygon class="st2" points="197.9,158.1 197.9,160.2 198,160.2 197.9,153.1 197.8,153 			"/>
			<polygon class="st2" points="201.4,154.5 201.6,162.8 201.7,162.9 201.5,154.4 			"/>
			<polygon class="st3" points="201.6,162.8 198,160.2 197.9,153.1 198.7,153.7 200.3,154.8 201.4,154.5 			"/>
			<polygon class="st4" points="194.8,161.2 195.2,162.1 196.2,162.9 197.6,163.5 199.4,164 201.4,164.2 203.6,164.2 205.7,163.9 
				207.6,163.4 209.1,162.7 210.3,161.9 210.9,161 211,160.1 210.6,159.2 209.6,158.4 208.2,157.8 207.8,157.7 207.7,152.7 
				408,95.4 408,97.7 407.4,97.8 406.3,98.3 405.6,98.9 405.3,99.6 405.6,100.3 406.3,101 407.5,101.6 409,102.1 410.7,102.4 
				412.5,102.6 414.4,102.6 416.1,102.4 417.5,102 418.6,101.5 419.3,100.9 419.5,100.2 419.2,99.5 418.5,98.8 417.3,98.2 417,98.1 
				417.2,92.8 420.8,91.8 421,87.3 455.6,102.8 189.8,182.9 19,52.4 47.6,46.7 48.1,47.1 50.4,48.7 50.7,53.2 50.2,53.4 49.1,53.8 
				48.4,54.4 48.1,54.9 48.2,55.5 48.7,55.9 49.6,56.3 50.9,56.6 52.4,56.7 54,56.7 55.7,56.5 57.3,56.2 58.1,56 58.3,58 64.8,62.7 
				69,61.8 78.6,68.6 78.8,72.7 85.9,77.8 90.1,76.8 100.9,84.4 101.1,88.6 108.8,94.2 113.2,93.1 125.2,101.6 125.4,106 
				133.8,112.1 138.3,110.9 151.8,120.5 152,125 161.2,131.7 165.9,130.5 181.1,141.2 181.2,146 191.4,153.3 196.2,151.9 197.8,153 
				197.9,158.1 196.8,158.5 195.6,159.4 194.9,160.3 			"/>
			<polygon class="st0" points="406.3,101 405.6,100.3 405.3,99.6 405.6,98.9 406.3,98.3 407.4,97.8 408,97.7 407.9,99.5 408,99.6 
				412.1,101.5 412.3,101.6 416.9,100.2 417,98.1 417.3,98.2 418.5,98.8 419.2,99.5 419.5,100.2 419.3,100.9 418.6,101.5 417.5,102 
				416.1,102.4 414.4,102.6 412.5,102.6 410.7,102.4 409,102.1 407.5,101.6 			"/>
			<polygon class="st1" points="416.9,100.2 412.3,101.6 412.5,94.2 417.2,92.8 417,98.1 			"/>
			<polygon class="st2" points="408,95.4 408,97.7 407.9,99.5 408,99.6 408.2,95.4 			"/>
			<polygon class="st2" points="412.4,94.2 412.1,101.5 412.3,101.6 412.5,94.2 			"/>
			<polygon class="st3" points="412.1,101.5 408,99.6 408.2,95.4 412.4,94.2 			"/>
			<polygon class="st0" points="48.2,55.5 48.1,54.9 48.4,54.4 49.1,53.8 50.2,53.4 50.7,53.2 50.7,54.3 50.8,54.4 52.9,55.9 
				53,55.9 58.1,54.9 58.1,56 57.3,56.2 55.7,56.5 54,56.7 52.4,56.7 50.9,56.6 49.6,56.3 48.7,55.9 			"/>
			<polygon class="st1" points="58.1,54.9 53,55.9 52.6,50.3 58,54.1 			"/>
			<polygon class="st2" points="50.7,53.2 50.7,54.3 50.8,54.4 50.4,48.7 50.4,48.7 			"/>
			<polygon class="st2" points="52.9,55.9 53,55.9 52.6,50.3 52.6,50.2 			"/>
			<polygon class="st3" points="52.9,55.9 50.8,54.4 50.4,48.7 52.6,50.2 			"/>
			<polygon class="st5" points="165.9,130.5 161.2,131.7 161.1,127.1 			"/>
			<polygon class="st6" points="161.2,131.7 152,125 151.8,120.5 161.1,127.1 			"/>
			<polygon class="st5" points="196.2,151.9 191.4,153.3 191.3,148.5 			"/>
			<polygon class="st6" points="191.4,153.3 181.2,146 181.1,141.2 191.3,148.5 			"/>
			<polygon class="st5" points="138.3,110.9 133.8,112.1 133.6,107.6 			"/>
			<polygon class="st6" points="133.8,112.1 125.4,106 125.2,101.6 133.6,107.6 			"/>
			<polygon class="st5" points="113.2,93.1 108.8,94.2 108.6,89.9 			"/>
			<polygon class="st6" points="108.8,94.2 101.1,88.6 100.9,84.4 108.6,89.9 			"/>
			<polygon class="st5" points="90.1,76.8 85.9,77.8 85.7,73.7 			"/>
			<polygon class="st6" points="85.9,77.8 78.8,72.7 78.6,68.6 85.7,73.7 			"/>
			<polygon class="st5" points="69,61.8 64.8,62.7 64.6,58.7 			"/>
			<polygon class="st6" points="64.8,62.7 58.3,58 58.1,56 58.1,54.9 58,54.1 64.6,58.7 			"/>
			<polygon class="st3" points="200.3,154.8 198.7,153.7 198.5,143.3 200,144.4 			"/>
			<polygon class="st7" points="200,144.4 198.5,143.3 191.9,138.7 191.8,137.5 200,143.2 			"/>
			<polygon class="st7" points="191.8,137.5 191.9,138.7 111.7,83.3 111.7,82.2 			"/>
			<polygon class="st3" points="111.7,83.3 191.9,138.7 198.5,143.3 198.7,153.7 197.9,153.1 197.8,153 196.2,151.9 191.3,148.5 
				181.1,141.2 165.9,130.5 161.1,127.1 151.8,120.5 138.3,110.9 133.6,107.6 125.2,101.6 113.2,93.1 108.6,89.9 100.9,84.4 
				90.1,76.8 85.7,73.7 78.6,68.6 69,61.8 64.6,58.7 58,54.1 52.6,50.3 52.6,50.2 50.4,48.7 50.4,48.7 48.1,47.1 47.6,38.9 			"/>
			<polygon class="st8" points="191.8,137.5 111.7,82.2 186.2,65.3 272.6,115.5 			"/>
			<polygon class="st8" points="272.6,115.5 186.2,65.3 254.3,49.9 345.5,95.5 			"/>
			<polygon class="st8" points="254.3,49.9 186.2,65.3 115.2,24.2 178.6,12 			"/>
			<polygon class="st8" points="254.3,49.9 178.6,12 237.3,0.7 316.8,35.7 			"/>
			<polygon class="st8" points="254.3,49.9 316.8,35.7 411.7,77.4 345.5,95.5 			"/>
			<polygon class="st8" points="115.2,24.2 186.2,65.3 111.7,82.2 46.6,37.4 			"/>
			<polygon class="st8" points="345.5,95.5 411.7,77.4 421.2,81.6 354.7,100.1 			"/>
			<polygon class="st8" points="272.6,115.5 345.5,95.5 354.7,100.1 281.4,120.5 			"/>
			<polygon class="st7" points="111.7,82.2 111.7,83.3 47.6,38.9 46.7,38.3 46.6,37.4 			"/>
			<polygon class="st8" points="191.8,137.5 272.6,115.5 281.4,120.6 200,143.2 			"/>
			<polygon class="st9" points="421.2,81.6 421.2,82.7 354.7,101.2 354.7,100.1 			"/>
			<polygon class="st10" points="354.7,101.2 421.2,82.7 421,87.3 420.8,91.8 417.2,92.8 412.5,94.2 412.4,94.2 408.2,95.4 
				408,95.4 207.7,152.7 201.5,154.4 201.4,154.5 200.3,154.8 200,144.4 281.4,121.7 			"/>
			<polygon class="st9" points="354.7,100.1 354.7,101.2 281.4,121.7 281.4,120.5 			"/>
			<polygon class="st9" points="281.4,120.5 281.4,121.7 200,144.4 200,143.2 			"/>
			<polygon class="st3" points="46.7,38.3 47.6,38.9 48.1,47.1 47.6,46.7 47.2,46.4 			"/>
			<polygon class="st11" points="393.2,151.2 393.5,153.2 394.2,128.6 393.9,126.8 			"/>
			<polygon class="st12" points="394.9,155.1 393.5,153.2 394.2,128.6 395.6,130.4 			"/>
			<polygon class="st13" points="397.4,156.9 394.9,155.1 395.7,130.4 398.2,132.1 			"/>
			<polygon class="st14" points="400.9,158.3 397.4,156.9 398.2,132.1 401.7,133.5 			"/>
			<polygon class="st15" points="405,159.4 400.9,158.3 401.7,133.5 405.8,134.6 			"/>
			<polygon class="st16" points="409.6,160 405,159.4 405.8,134.6 410.4,135.2 			"/>
			<polygon class="st17" points="414.2,160.1 409.6,160 410.4,135.2 415.1,135.2 			"/>
			<polygon class="st18" points="418.6,159.7 414.2,160.1 415.1,135.2 419.5,134.8 			"/>
			<polygon class="st19" points="422.4,158.8 418.6,159.7 419.5,134.8 423.3,134 			"/>
			<polygon class="st20" points="425.4,157.4 422.4,158.8 423.3,134 426.3,132.7 			"/>
			<polygon class="st21" points="427.3,155.7 425.4,157.4 426.3,132.7 428.3,131.1 			"/>
			<polygon class="st22" points="428.1,153.9 427.3,155.7 428.3,131.1 429,129.3 			"/>
			<polygon class="st23" points="424.4,124 427.1,125.6 428.6,127.4 429,129.3 428.3,131.1 426.3,132.7 423.3,134 419.5,134.8 
				415.1,135.2 410.4,135.2 405.8,134.6 401.7,133.5 398.2,132.1 395.6,130.4 394.2,128.6 393.9,126.8 394.9,125 396.9,123.5 
				399.9,122.2 401.1,122 400.9,127.3 401.1,128.4 402,129.5 403.5,130.5 405.6,131.3 408.1,131.9 410.8,132.3 413.6,132.3 
				416.2,132.1 418.5,131.6 420.3,130.8 421.5,129.8 422,128.8 422.2,123.1 			"/>
			<polygon class="st14" points="405.6,131.3 403.5,130.5 403.9,119.2 406,118.6 			"/>
			<polygon class="st15" points="408.1,131.9 405.6,131.3 406,118.6 408.6,117.8 			"/>
			<polygon class="st11" points="401.2,120 401.1,122 400.9,127.3 401.1,128.4 401.4,120 			"/>
			<polygon class="st24" points="422,128.8 421.5,129.8 422.1,113.7 422.6,113.6 422.2,123.1 			"/>
			<polygon class="st25" points="413.6,132.3 410.8,132.3 411.4,116.9 414.2,116.1 			"/>
			<polygon class="st13" points="403.5,130.5 402,129.5 402.3,119.7 403.9,119.2 			"/>
			<polygon class="st12" points="402,129.5 401.1,128.4 401.4,120 402.3,119.7 			"/>
			<polygon class="st26" points="420.3,130.8 418.5,131.6 419.1,114.6 420.9,114.1 			"/>
			<polygon class="st27" points="410.8,132.3 408.1,131.9 408.6,117.8 411.4,116.9 			"/>
			<polygon class="st28" points="416.2,132.1 413.6,132.3 414.2,116.1 416.8,115.3 			"/>
			<polygon class="st29" points="418.5,131.6 416.2,132.1 416.8,115.3 419.1,114.6 			"/>
			<polygon class="st30" points="421.5,129.8 420.3,130.8 420.9,114.1 422.1,113.7 			"/>
			<polygon class="st12" points="184.8,223.6 184.2,221.1 183.4,193.3 184,195.7 			"/>
			<polygon class="st13" points="186.8,226 184.8,223.6 184,195.7 186,198 			"/>
			<polygon class="st14" points="190,227.9 186.8,226 186,198 189.2,199.8 			"/>
			<polygon class="st15" points="194.2,229.4 190,227.9 189.2,199.8 193.5,201.2 			"/>
			<polygon class="st16" points="199.1,230.2 194.2,229.4 193.5,201.2 198.4,202 			"/>
			<polygon class="st17" points="204.4,230.3 199.1,230.2 198.4,202 203.7,202.1 			"/>
			<polygon class="st18" points="209.6,229.8 204.4,230.3 203.7,202.1 209.1,201.6 			"/>
			<polygon class="st19" points="214.5,228.5 209.6,229.8 209,201.6 214,200.4 			"/>
			<polygon class="st20" points="218.7,226.7 214.5,228.5 214,200.4 218.1,198.7 			"/>
			<polygon class="st21" points="221.8,224.5 218.7,226.7 218.1,198.7 221.3,196.6 			"/>
			<polygon class="st22" points="223.7,222 221.8,224.5 221.3,196.6 223.2,194.2 			"/>
			<polygon class="st11" points="224.2,219.4 223.7,222 223.2,194.2 223.8,191.7 			"/>
			<polygon class="st23" points="198.4,202 193.5,201.2 189.2,199.8 186,198 184,195.7 183.4,193.3 184.2,190.8 186.2,188.5 
				189.5,186.5 191.3,185.7 191.5,193 191.9,194.4 193.1,195.8 195,196.9 197.6,197.7 200.5,198.2 203.7,198.2 206.9,197.9 
				209.8,197.2 212.3,196.2 214.2,194.9 215.4,193.5 215.7,192 215.6,184.8 217.6,185.4 220.8,187.2 223,189.3 223.8,191.7 
				223.2,194.2 221.3,196.6 218.1,198.7 214,200.4 209,201.6 203.7,202.1 			"/>
			<polygon class="st25" points="203.7,198.2 200.5,198.2 200.1,180.8 203.3,179.8 			"/>
			<polygon class="st28" points="206.9,197.9 203.7,198.2 203.3,179.8 206.4,178.9 			"/>
			<polygon class="st27" points="200.5,198.2 197.6,197.7 197.2,181.7 200.1,180.8 			"/>
			<polygon class="st29" points="209.8,197.2 206.9,197.9 206.4,178.9 209.4,178 			"/>
			<polygon class="st15" points="197.6,197.7 195,196.9 194.7,182.4 197.2,181.7 			"/>
			<polygon class="st20" points="212.3,196.2 209.8,197.2 209.4,178 211.9,177.2 			"/>
			<polygon class="st31" points="195,196.9 193.1,195.8 192.8,183 194.7,182.4 			"/>
			<polygon class="st21" points="214.2,194.9 212.3,196.2 211.9,177.2 213.8,176.6 			"/>
			<polygon class="st32" points="193.1,195.8 191.9,194.4 191.6,183.4 192.8,183 			"/>
			<polygon class="st24" points="215.4,193.5 214.2,194.9 213.8,176.6 215,176.3 			"/>
			<polygon class="st33" points="191.3,183.5 191.3,185.7 191.5,193 191.9,194.4 191.6,183.4 			"/>
			<polygon class="st34" points="215,176.3 215.4,193.5 215.7,192 215.6,184.8 215.4,176.2 			"/>
			<polygon class="st14" points="44.6,106.4 42.6,105.3 41.2,83.1 43.2,84.2 			"/>
			<polygon class="st15" points="47.6,107.3 44.6,106.4 43.2,84.2 46.2,85 			"/>
			<polygon class="st16" points="51.2,107.7 47.6,107.3 46.2,85 49.8,85.4 			"/>
			<polygon class="st17" points="55.2,107.8 51.2,107.7 49.8,85.4 53.8,85.5 			"/>
			<polygon class="st18" points="59.4,107.5 55.2,107.8 53.8,85.5 58,85.2 			"/>
			<polygon class="st19" points="63.4,106.8 59.4,107.5 58,85.2 60.4,84.8 62.2,86.1 			"/>
			<polygon class="st20" points="67,105.7 63.4,106.8 62.2,86.1 66,89 			"/>
			<polygon class="st21" points="69.9,104.4 67,105.7 66,89 69.1,91.4 			"/>
			<polygon class="st22" points="71.9,102.9 69.9,104.4 69.1,91.4 71.3,93.1 			"/>
			<polygon class="st11" points="72.9,101.4 71.9,102.9 71.3,93.1 72.5,94 			"/>
			<polygon class="st12" points="72.9,101.4 72.8,99.9 72.5,94 72.5,94 			"/>
			<polygon class="st13" points="42.6,105.3 41.6,103.9 40.2,81.7 41.2,83.1 			"/>
			<polygon class="st23" points="43.2,84.2 41.2,83.1 40.2,81.7 40.2,80.3 41.4,78.8 43.5,77.5 46.2,76.3 46.5,81 47.1,81.8 
				48.4,82.4 50.1,82.9 52.3,83.2 54.7,83.2 57.2,83 58,82.9 60.4,84.8 58,85.2 53.8,85.5 49.8,85.4 46.2,85 			"/>
			<polygon class="st32" points="47.1,81.8 46.5,81 46.2,76.3 46,73.8 46.6,74.2 			"/>
			<polygon class="st14" points="48.4,82.4 47.1,81.8 46.6,74.2 47.9,75.2 			"/>
			<polygon class="st15" points="50.1,82.9 48.4,82.4 47.9,75.2 49.7,76.6 			"/>
			<polygon class="st16" points="52.3,83.2 50.1,82.9 49.7,76.6 52,78.3 			"/>
			<polygon class="st17" points="54.7,83.2 52.3,83.2 52,78.3 54.5,80.2 			"/>
			<polygon class="st18" points="57.2,83 54.7,83.2 54.5,80.2 57.1,82.3 			"/>
			<polygon class="st19" points="57.2,83 58,82.9 57.1,82.3 			"/>
			<polygon class="st5" points="455.5,102.8 455.5,103.6 422.6,113.6 422.1,113.7 420.9,114.1 419.1,114.6 416.8,115.3 414.2,116.1 
				411.4,116.9 408.6,117.8 406,118.6 403.9,119.2 402.3,119.7 401.4,120 401.2,120 215.4,176.2 215,176.3 213.8,176.6 211.9,177.2 
				209.4,178 206.4,178.9 203.3,179.8 200.1,180.8 197.2,181.7 194.7,182.4 192.8,183 191.6,183.4 191.3,183.5 189.8,183.9 
				189.8,182.9 			"/>
			<polygon class="st6" points="189.8,182.9 189.8,183.9 72.5,94 72.5,94 71.3,93.1 69.1,91.4 66,89 62.2,86.1 60.4,84.8 58,82.9 
				57.1,82.3 54.5,80.2 52,78.3 49.7,76.6 47.9,75.2 46.6,74.2 46,73.8 19.1,53.1 19,52.4 			"/>
			<line class="st35" x1="195.2" y1="162.1" x2="194.8" y2="161.2"/>
			<line class="st35" x1="195.2" y1="162.1" x2="196.2" y2="162.9"/>
			<line class="st35" x1="210.9" y1="161" x2="211" y2="160.1"/>
			<line class="st35" x1="210.3" y1="161.9" x2="210.9" y2="161"/>
			<line class="st35" x1="209.1" y1="162.7" x2="210.3" y2="161.9"/>
			<line class="st35" x1="207.6" y1="163.4" x2="209.1" y2="162.7"/>
			<line class="st35" x1="205.7" y1="163.9" x2="207.6" y2="163.4"/>
			<line class="st35" x1="203.6" y1="164.2" x2="205.7" y2="163.9"/>
			<line class="st35" x1="201.4" y1="164.2" x2="203.6" y2="164.2"/>
			<line class="st35" x1="199.4" y1="164" x2="201.4" y2="164.2"/>
			<line class="st35" x1="197.6" y1="163.5" x2="199.4" y2="164"/>
			<line class="st35" x1="196.2" y1="162.9" x2="197.6" y2="163.5"/>
			<polyline class="st35" points="405.6,100.3 406.3,101 407.5,101.6 			"/>
			<line class="st35" x1="419.3" y1="100.9" x2="419.5" y2="100.2"/>
			<line class="st35" x1="418.6" y1="101.5" x2="419.3" y2="100.9"/>
			<line class="st35" x1="417.5" y1="102" x2="418.6" y2="101.5"/>
			<line class="st35" x1="416.1" y1="102.4" x2="417.5" y2="102"/>
			<line class="st35" x1="414.4" y1="102.6" x2="416.1" y2="102.4"/>
			<line class="st35" x1="412.5" y1="102.6" x2="414.4" y2="102.6"/>
			<line class="st35" x1="410.7" y1="102.4" x2="412.5" y2="102.6"/>
			<line class="st35" x1="409" y1="102.1" x2="410.7" y2="102.4"/>
			<line class="st35" x1="407.5" y1="101.6" x2="409" y2="102.1"/>
			<line class="st35" x1="405.6" y1="100.3" x2="405.3" y2="99.6"/>
			<line class="st35" x1="48.2" y1="55.5" x2="48.1" y2="54.9"/>
			<line class="st35" x1="48.2" y1="55.5" x2="48.7" y2="55.9"/>
			<line class="st35" x1="57.3" y1="56.2" x2="58.1" y2="56"/>
			<line class="st35" x1="55.7" y1="56.5" x2="57.3" y2="56.2"/>
			<line class="st35" x1="54" y1="56.7" x2="55.7" y2="56.5"/>
			<line class="st35" x1="52.4" y1="56.7" x2="54" y2="56.7"/>
			<line class="st35" x1="50.9" y1="56.6" x2="52.4" y2="56.7"/>
			<line class="st35" x1="49.6" y1="56.3" x2="50.9" y2="56.6"/>
			<line class="st35" x1="48.7" y1="55.9" x2="49.6" y2="56.3"/>
			<polyline class="st35" points="403.5,130.5 405.6,131.3 408.1,131.9 			"/>
			<line class="st35" x1="401.1" y1="128.4" x2="400.9" y2="127.3"/>
			<line class="st35" x1="421.5" y1="129.8" x2="422" y2="128.8"/>
			<line class="st35" x1="410.8" y1="132.3" x2="413.6" y2="132.3"/>
			<line class="st35" x1="402" y1="129.5" x2="403.5" y2="130.5"/>
			<line class="st35" x1="402" y1="129.5" x2="401.1" y2="128.4"/>
			<line class="st35" x1="418.5" y1="131.6" x2="420.3" y2="130.8"/>
			<line class="st35" x1="408.1" y1="131.9" x2="410.8" y2="132.3"/>
			<polyline class="st35" points="413.6,132.3 416.2,132.1 418.5,131.6 			"/>
			<line class="st35" x1="420.3" y1="130.8" x2="421.5" y2="129.8"/>
			<polyline class="st35" points="200.5,198.2 203.7,198.2 206.9,197.9 			"/>
			<line class="st35" x1="197.6" y1="197.7" x2="200.5" y2="198.2"/>
			<line class="st35" x1="206.9" y1="197.9" x2="209.8" y2="197.2"/>
			<line class="st35" x1="195" y1="196.9" x2="197.6" y2="197.7"/>
			<line class="st35" x1="209.8" y1="197.2" x2="212.3" y2="196.2"/>
			<line class="st35" x1="193.1" y1="195.8" x2="195" y2="196.9"/>
			<line class="st35" x1="212.3" y1="196.2" x2="214.2" y2="194.9"/>
			<line class="st35" x1="193.1" y1="195.8" x2="191.9" y2="194.4"/>
			<line class="st35" x1="214.2" y1="194.9" x2="215.4" y2="193.5"/>
			<line class="st35" x1="191.9" y1="194.4" x2="191.5" y2="193"/>
			<line class="st35" x1="215.4" y1="193.5" x2="215.7" y2="192"/>
			<line class="st35" x1="47.1" y1="81.8" x2="46.5" y2="81"/>
			<polyline class="st35" points="47.1,81.8 48.4,82.4 50.1,82.9 52.3,83.2 54.7,83.2 57.2,83 58,82.9 			"/>
			<line class="st35" x1="191.8" y1="137.5" x2="111.7" y2="82.2"/>
			<line class="st35" x1="421.2" y1="81.6" x2="354.7" y2="100.1"/>
			<line class="st35" x1="354.7" y1="100.1" x2="281.4" y2="120.5"/>
			<polyline class="st35" points="200,144.4 200,143.2 191.8,137.5 			"/>
			<line class="st35" x1="281.4" y1="120.5" x2="200" y2="143.2"/>
			<line class="st35" x1="200.3" y1="154.8" x2="200" y2="144.4"/>
			<line class="st35" x1="201.7" y1="162.9" x2="201.5" y2="154.4"/>
			<line class="st35" x1="412.3" y1="101.6" x2="412.5" y2="94.2"/>
			<line class="st35" x1="53" y1="55.9" x2="52.6" y2="50.3"/>
			<line class="st35" x1="161.2" y1="131.7" x2="161.1" y2="127.1"/>
			<line class="st35" x1="191.4" y1="153.3" x2="191.3" y2="148.5"/>
			<line class="st35" x1="133.8" y1="112.1" x2="133.6" y2="107.6"/>
			<line class="st35" x1="108.8" y1="94.2" x2="108.6" y2="89.9"/>
			<line class="st35" x1="85.9" y1="77.8" x2="85.7" y2="73.7"/>
			<line class="st35" x1="64.8" y1="62.7" x2="64.6" y2="58.7"/>
			<polyline class="st35" points="393.9,126.8 394.2,128.6 395.6,130.4 398.2,132.1 401.7,133.5 405.8,134.6 410.4,135.2 
				415.1,135.2 419.5,134.8 423.3,134 426.3,132.7 428.3,131.1 429,129.3 			"/>
			<polyline class="st35" points="193.5,201.2 198.4,202 203.7,202.1 209.1,201.6 214,200.4 218.1,198.7 221.3,196.6 223.2,194.2 
				223.8,191.7 			"/>
			<polyline class="st35" points="183.4,193.3 184,195.7 186,198 189.2,199.8 193.5,201.2 			"/>
			<polyline class="st35" points="41.2,83.1 43.2,84.2 46.2,85 49.8,85.4 53.8,85.5 58,85.2 60.4,84.8 			"/>
			<line class="st35" x1="40.2" y1="81.7" x2="41.2" y2="83.1"/>
			<line class="st35" x1="111.7" y1="82.2" x2="46.6" y2="37.4"/>
			<line class="st35" x1="455.5" y1="102.8" x2="189.8" y2="182.9"/>
			<polyline class="st35" points="189.8,183.9 189.8,182.9 19,52.4 			"/>
			<line class="st36" x1="201.7" y1="162.9" x2="207.9" y2="161.1"/>
			<line class="st36" x1="197.9" y1="160.2" x2="198" y2="160.2"/>
			<line class="st36" x1="201.6" y1="162.8" x2="201.7" y2="162.9"/>
			<line class="st36" x1="198" y1="160.2" x2="201.6" y2="162.8"/>
			<polyline class="st36" points="194.9,160.3 195.6,159.4 196.8,158.5 197.9,158.1 			"/>
			<polyline class="st36" points="207.8,157.7 208.2,157.8 209.6,158.4 210.6,159.2 			"/>
			<line class="st36" x1="211" y1="160.1" x2="210.6" y2="159.2"/>
			<line class="st36" x1="194.8" y1="161.2" x2="194.9" y2="160.3"/>
			<line class="st36" x1="412.3" y1="101.6" x2="416.9" y2="100.2"/>
			<line class="st36" x1="407.9" y1="99.5" x2="408" y2="99.6"/>
			<line class="st36" x1="412.1" y1="101.5" x2="412.3" y2="101.6"/>
			<line class="st36" x1="408" y1="99.6" x2="412.1" y2="101.5"/>
			<line class="st36" x1="419.5" y1="100.2" x2="419.2" y2="99.5"/>
			<polyline class="st36" points="405.3,99.6 405.6,98.9 406.3,98.3 407.4,97.8 408,97.7 			"/>
			<polyline class="st36" points="417,98.1 417.3,98.2 418.5,98.8 419.2,99.5 			"/>
			<line class="st36" x1="53" y1="55.9" x2="58.1" y2="54.9"/>
			<line class="st36" x1="50.7" y1="54.3" x2="50.8" y2="54.4"/>
			<line class="st36" x1="52.9" y1="55.9" x2="53" y2="55.9"/>
			<line class="st36" x1="50.8" y1="54.4" x2="52.9" y2="55.9"/>
			<polyline class="st36" points="48.4,54.4 49.1,53.8 50.2,53.4 50.7,53.2 			"/>
			<line class="st36" x1="48.1" y1="54.9" x2="48.4" y2="54.4"/>
			<line class="st36" x1="237.3" y1="0.7" x2="316.8" y2="35.7"/>
			<polyline class="st36" points="254.3,49.9 178.6,12 237.3,0.7 			"/>
			<line class="st36" x1="316.8" y1="35.7" x2="254.3" y2="49.9"/>
			<polyline class="st36" points="186.2,65.3 115.2,24.2 178.6,12 			"/>
			<line class="st36" x1="254.3" y1="49.9" x2="186.2" y2="65.3"/>
			<line class="st36" x1="316.8" y1="35.7" x2="411.7" y2="77.4"/>
			<line class="st36" x1="345.5" y1="95.5" x2="254.3" y2="49.9"/>
			<line class="st36" x1="411.7" y1="77.4" x2="345.5" y2="95.5"/>
			<line class="st36" x1="272.6" y1="115.5" x2="186.2" y2="65.3"/>
			<line class="st36" x1="345.5" y1="95.5" x2="272.6" y2="115.5"/>
			<line class="st36" x1="191.9" y1="138.7" x2="111.7" y2="83.3"/>
			<line class="st36" x1="191.9" y1="138.7" x2="191.8" y2="137.5"/>
			<polyline class="st36" points="111.7,83.3 111.7,82.2 186.2,65.3 			"/>
			<line class="st36" x1="272.6" y1="115.5" x2="191.8" y2="137.5"/>
			<polyline class="st36" points="421.2,82.7 354.7,101.2 354.7,100.1 			"/>
			<line class="st36" x1="411.7" y1="77.4" x2="421.2" y2="81.6"/>
			<line class="st36" x1="354.7" y1="100.1" x2="345.5" y2="95.5"/>
			<line class="st36" x1="421.2" y1="82.7" x2="421.2" y2="81.6"/>
			<polyline class="st36" points="354.7,101.2 281.4,121.7 281.4,120.5 272.6,115.5 			"/>
			<line class="st36" x1="281.4" y1="121.7" x2="200" y2="144.4"/>
			<line class="st36" x1="46.7" y1="38.3" x2="47.6" y2="38.9"/>
			<line class="st36" x1="47.2" y1="46.4" x2="46.7" y2="38.3"/>
			<line class="st36" x1="48.1" y1="47.1" x2="47.6" y2="38.9"/>
			<line class="st36" x1="198.5" y1="143.3" x2="200" y2="144.4"/>
			<line class="st36" x1="198.7" y1="153.7" x2="198.5" y2="143.3"/>
			<line class="st36" x1="198.7" y1="153.7" x2="200.3" y2="154.8"/>
			<line class="st36" x1="198" y1="160.2" x2="197.9" y2="153.1"/>
			<line class="st36" x1="201.6" y1="162.8" x2="201.4" y2="154.5"/>
			<line class="st36" x1="408" y1="99.6" x2="408.2" y2="95.4"/>
			<line class="st36" x1="412.1" y1="101.5" x2="412.4" y2="94.2"/>
			<line class="st36" x1="50.8" y1="54.4" x2="50.4" y2="48.7"/>
			<line class="st36" x1="52.9" y1="55.9" x2="52.6" y2="50.2"/>
			<line class="st36" x1="152" y1="125" x2="151.8" y2="120.5"/>
			<line class="st36" x1="181.2" y1="146" x2="181.1" y2="141.2"/>
			<line class="st36" x1="125.4" y1="106" x2="125.2" y2="101.6"/>
			<line class="st36" x1="101.1" y1="88.6" x2="100.9" y2="84.4"/>
			<line class="st36" x1="78.8" y1="72.7" x2="78.6" y2="68.6"/>
			<polyline class="st36" points="393.2,151.2 393.5,153.2 394.9,155.1 397.4,156.9 400.9,158.3 405,159.4 409.6,160 414.2,160.1 
				418.6,159.7 422.4,158.8 425.4,157.4 427.3,155.7 428.1,153.9 			"/>
			<polyline class="st36" points="427.1,125.6 424.4,124 422.2,123.1 			"/>
			<polyline class="st36" points="401.1,122 399.9,122.2 396.9,123.5 394.9,125 393.9,126.8 			"/>
			<polyline class="st36" points="429,129.3 428.6,127.4 427.1,125.6 			"/>
			<line class="st36" x1="393.2" y1="151.2" x2="393.9" y2="126.8"/>
			<line class="st36" x1="428.1" y1="153.9" x2="429" y2="129.3"/>
			<polyline class="st36" points="184.2,221.1 184.8,223.6 186.8,226 190,227.9 194.2,229.4 199.1,230.2 204.4,230.3 209.6,229.8 
				214.5,228.5 218.7,226.7 221.8,224.5 223.7,222 224.2,219.4 			"/>
			<polyline class="st36" points="223.8,191.7 223,189.3 220.8,187.2 217.6,185.4 215.6,184.8 			"/>
			<polyline class="st36" points="191.3,185.7 189.5,186.5 186.2,188.5 184.2,190.8 183.4,193.3 			"/>
			<line class="st36" x1="224.2" y1="219.4" x2="223.8" y2="191.7"/>
			<line class="st36" x1="184.2" y1="221.1" x2="183.4" y2="193.3"/>
			<polyline class="st36" points="42.6,105.3 44.6,106.4 47.6,107.3 51.2,107.7 55.2,107.8 59.4,107.5 63.4,106.8 67,105.7 
				69.9,104.4 71.9,102.9 72.9,101.4 72.8,99.9 			"/>
			<line class="st36" x1="41.6" y1="103.9" x2="42.6" y2="105.3"/>
			<polyline class="st36" points="46.2,76.3 43.5,77.5 41.4,78.8 40.2,80.3 40.2,81.7 			"/>
			<line class="st36" x1="72.8" y1="99.9" x2="72.5" y2="94"/>
			<line class="st36" x1="41.6" y1="103.9" x2="40.2" y2="81.7"/>
			<polyline class="st36" points="46.7,38.3 46.6,37.4 115.2,24.2 			"/>
			<line class="st36" x1="455.5" y1="103.6" x2="455.6" y2="102.8"/>
			<line class="st36" x1="19.1" y1="53.1" x2="19" y2="52.4"/>
			<line class="st36" x1="421" y1="87.3" x2="455.5" y2="102.8"/>
			<line class="st36" x1="19" y1="52.4" x2="47.6" y2="46.7"/>
			<line class="st36" x1="198.5" y1="143.3" x2="191.9" y2="138.7"/>
			<polyline class="st36" points="47.2,46.4 47.6,46.7 48.1,47.1 			"/>
			<polyline class="st36" points="420.8,91.8 421,87.3 421.2,82.7 			"/>
			<line class="st36" x1="47.6" y1="38.9" x2="111.7" y2="83.3"/>
			<line class="st36" x1="48.1" y1="47.1" x2="50.4" y2="48.7"/>
			<polyline class="st36" points="207.9,161.1 207.8,157.7 207.7,152.7 			"/>
			<polyline class="st36" points="197.9,160.2 197.9,158.1 197.8,153 			"/>
			<polyline class="st36" points="416.9,100.2 417,98.1 417.2,92.8 			"/>
			<polyline class="st36" points="407.9,99.5 408,97.7 408,95.4 			"/>
			<polyline class="st36" points="50.7,54.3 50.7,53.2 50.4,48.7 			"/>
			<line class="st36" x1="58.3" y1="58" x2="58.1" y2="56"/>
			<polyline class="st36" points="191.3,183.5 191.3,185.7 191.5,193 			"/>
			<polyline class="st36" points="215.4,176.2 215.6,184.8 215.7,192 			"/>
			<line class="st36" x1="19.1" y1="53.1" x2="46" y2="73.8"/>
			<line class="st36" x1="189.8" y1="183.9" x2="191.3" y2="183.5"/>
			<polyline class="st36" points="422.6,113.6 422.2,123.1 422,128.8 			"/>
			<polyline class="st36" points="401.2,120 401.1,122 400.9,127.3 			"/>
			<polyline class="st36" points="46,73.8 46.2,76.3 46.5,81 			"/>
			<polyline class="st36" points="200.3,154.8 201.4,154.5 201.5,154.4 207.7,152.7 			"/>
			<line class="st36" x1="50.4" y1="48.7" x2="50.4" y2="48.7"/>
			<polyline class="st36" points="58.1,56 58.1,54.9 58,54.1 			"/>
			<line class="st36" x1="46" y1="73.8" x2="46.6" y2="74.2"/>
			<line class="st36" x1="191.3" y1="183.5" x2="191.6" y2="183.4"/>
			<line class="st36" x1="207.7" y1="152.7" x2="408" y2="95.4"/>
			<line class="st36" x1="46.6" y1="74.2" x2="47.9" y2="75.2"/>
			<line class="st36" x1="191.6" y1="183.4" x2="192.8" y2="183"/>
			<line class="st36" x1="408" y1="95.4" x2="408.2" y2="95.4"/>
			<polyline class="st36" points="50.4,48.7 52.6,50.2 52.6,50.3 			"/>
			<line class="st36" x1="47.9" y1="75.2" x2="49.7" y2="76.6"/>
			<line class="st36" x1="192.8" y1="183" x2="194.7" y2="182.4"/>
			<polyline class="st36" points="52.6,50.3 58,54.1 64.6,58.7 			"/>
			<line class="st36" x1="49.7" y1="76.6" x2="52" y2="78.3"/>
			<line class="st36" x1="194.7" y1="182.4" x2="197.2" y2="181.7"/>
			<polyline class="st36" points="408.2,95.4 412.4,94.2 412.5,94.2 417.2,92.8 420.8,91.8 			"/>
			<polyline class="st36" points="64.6,58.7 69,61.8 78.6,68.6 85.7,73.7 			"/>
			<line class="st36" x1="52" y1="78.3" x2="54.5" y2="80.2"/>
			<line class="st36" x1="197.2" y1="181.7" x2="200.1" y2="180.8"/>
			<line class="st36" x1="54.5" y1="80.2" x2="57.1" y2="82.3"/>
			<line class="st36" x1="200.1" y1="180.8" x2="203.3" y2="179.8"/>
			<polyline class="st36" points="85.7,73.7 90.1,76.8 100.9,84.4 108.6,89.9 			"/>
			<line class="st36" x1="203.3" y1="179.8" x2="206.4" y2="178.9"/>
			<line class="st36" x1="57.1" y1="82.3" x2="58" y2="82.9"/>
			<line class="st36" x1="66" y1="89" x2="69.1" y2="91.4"/>
			<line class="st36" x1="206.4" y1="178.9" x2="209.4" y2="178"/>
			<polyline class="st36" points="108.6,89.9 113.2,93.1 125.2,101.6 133.6,107.6 			"/>
			<line class="st36" x1="62.2" y1="86.1" x2="66" y2="89"/>
			<line class="st36" x1="69.1" y1="91.4" x2="71.3" y2="93.1"/>
			<line class="st36" x1="209.4" y1="178" x2="211.9" y2="177.2"/>
			<polyline class="st36" points="58,82.9 60.4,84.8 62.2,86.1 			"/>
			<line class="st36" x1="71.3" y1="93.1" x2="72.5" y2="94"/>
			<line class="st36" x1="211.9" y1="177.2" x2="213.8" y2="176.6"/>
			<polyline class="st36" points="133.6,107.6 138.3,110.9 151.8,120.5 161.1,127.1 			"/>
			<polyline class="st36" points="72.5,94 72.5,94 189.8,183.9 			"/>
			<polyline class="st36" points="213.8,176.6 215,176.3 215.4,176.2 			"/>
			<polyline class="st36" points="161.1,127.1 165.9,130.5 181.1,141.2 191.3,148.5 196.2,151.9 			"/>
			<line class="st36" x1="401.4" y1="120" x2="402.3" y2="119.7"/>
			<line class="st36" x1="196.2" y1="151.9" x2="197.8" y2="153"/>
			<polyline class="st36" points="215.4,176.2 401.2,120 401.4,120 			"/>
			<polyline class="st36" points="402.3,119.7 403.9,119.2 406,118.6 408.6,117.8 			"/>
			<polyline class="st36" points="197.8,153 197.9,153.1 198.7,153.7 			"/>
			<polyline class="st36" points="408.6,117.8 411.4,116.9 414.2,116.1 416.8,115.3 419.1,114.6 420.9,114.1 			"/>
			<line class="st36" x1="422.6" y1="113.6" x2="455.5" y2="103.6"/>
			<polyline class="st36" points="420.9,114.1 422.1,113.7 422.6,113.6 			"/>
		</g>
	</g>
</g>
</svg>
