<?xml version="1.0" encoding="UTF-8" standalone="no"?>
<!DOCTYPE svg PUBLIC "-//W3C//DTD SVG 1.1//EN"
"http://www.w3.org/Graphics/SVG/1.1/DTD/svg11.dtd">


<!-- Page 1 -->
<svg x="0" y="0" width="1870" height="1210" viewBox="0 0 1870 1210" version="1.1" xmlns="http://www.w3.org/2000/svg" xmlns:xlink="http://www.w3.org/1999/xlink"
style="display: block;margin-left: auto;margin-right: auto;">
<defs>
<clipPath id="c0_1"><path d="M1705,1164.2v-39.8h76.9v39.8H1705Z" /></clipPath>
<clipPath id="c1_1"><path d="M1739.4,861.1h-22.9V791.3h22.9v69.8Z" /></clipPath>
<clipPath id="c2_1"><path d="M1715.7,582.1v-84h13.7v84h-13.7Z" /></clipPath>
<clipPath id="c3_1"><path d="M1716.5,750.9V703.7h13.7v47.2h-13.7Z" /></clipPath>
<clipPath id="c4_1"><path d="M1768.2,413V182.4h31.3V413Z" /></clipPath>
<clipPath id="c5_1"><path d="M1784.6,1100h-62.9V971.6h62.9V1100Z" /></clipPath>
<clipPath id="c6_1"><path d="M533.6,743.4l57.6,-14.8l-3.9,-15.3l-57.6,14.9l3.9,15.2ZM208.8,922V636.7H923.2V922Z" /></clipPath>
<clipPath id="c7_1"><path d="M533.6,743.4l-3.9,-15.2l57.6,-14.9l3.9,15.3l-57.6,14.8Z" /></clipPath>
<clipPath id="c8_1"><path d="M725.6,717.8l43.2,-11.1l-3.9,-15.2l-43.2,11.1l3.9,15.2Zm-153,111.9V659H923.2V829.7Z" /></clipPath>
<clipPath id="c9_1"><path d="M725.6,717.8l-3.9,-15.2l43.2,-11.1l3.9,15.2l-43.2,11.1Z" /></clipPath>
<clipPath id="c10_1"><path d="M876.6,238.4V147.1h84.5V198H927.9v15.8h33.2v24.6Z" /></clipPath>
<clipPath id="c11_1"><path d="M927.9,213.8V198h33.2v15.8Z" /></clipPath>
<clipPath id="c12_1"><path d="M1298.3,830.7l11,-11.3l-42.8,-41.3l-10.9,11.3l42.7,41.3ZM992.5,1091.6V611.8h489.2v479.8Z" /></clipPath>
<clipPath id="c13_1"><path d="M1298.3,830.7l-42.7,-41.3l10.9,-11.3l42.8,41.3l-11,11.3Z" /></clipPath>
<clipPath id="c14_1"><path d="M988.3,307.5V262.8H972.5v44.7ZM923.2,440V130.3H1009V440Z" /></clipPath>
<clipPath id="c15_1"><path d="M972.5,307.5V262.8h15.8v44.7Z" /></clipPath>
<clipPath id="c16_1"><path d="M923.2,468.3V384.6h43v33.2H982v50.5Z" /></clipPath>
<clipPath id="c17_1"><path d="M966.2,417.8V384.6H982v33.2Z" /></clipPath>
<clipPath id="c18_1"><path d="M891.7,535.8l21,-5.4l-3.9,-15.2l-21,5.4l3.9,15.2Zm-60.9,29.9V423.2H968.9V565.7Z" /></clipPath>
<clipPath id="c19_1"><path d="M891.7,535.8l-3.9,-15.2l21,-5.4l3.9,15.2l-21,5.4Z" /></clipPath>
<clipPath id="c20_1"><path d="M1158.1,275.5V230.9h-15.8v44.6ZM992.5,394V112.5h186.3V394Z" /></clipPath>
<clipPath id="c21_1"><path d="M1142.3,275.5V230.9h15.8v44.6Z" /></clipPath>
<clipPath id="c22_1"><path d="M1021.4,700.8V656.1h-15.8v44.7Zm-28.9,47.9V608.2h49.6V748.7Z" /></clipPath>
<clipPath id="c23_1"><path d="M1005.6,700.8V656.1h15.8v44.7Z" /></clipPath>
<clipPath id="c24_1"><path d="M776.4,671.7L804.5,637l-12.2,-9.9l-28.2,34.7l12.3,9.9ZM612.8,869.4V444.8H969.3V869.4Z" /></clipPath>
<clipPath id="c25_1"><path d="M776.4,671.7l-12.3,-9.9l28.2,-34.7l12.2,9.9l-28.1,34.7Z" /></clipPath>
<clipPath id="c26_1"><path d="M426.7,511.4l37.4,-46.2l-12.2,-9.9l-37.4,46.2l12.2,9.9ZM137.9,923.2V112H830.8V923.2Z" /></clipPath>
<clipPath id="c27_1"><path d="M426.7,511.4l-12.2,-9.9l37.4,-46.2l12.2,9.9l-37.4,46.2Z" /></clipPath>

<style type="text/css"><![CDATA[

.g0_1{
fill: none;
stroke: #000000;
stroke-width: 0.7638889;
stroke-linecap: butt;
stroke-linejoin: miter;
}
.g1_1{
fill: none;
stroke: #000000;
stroke-width: 0.7638889;
stroke-linecap: round;
stroke-linejoin: round;
}
.g2_1{
fill: none;
stroke: #000000;
stroke-width: 0.38194445;
stroke-linecap: butt;
stroke-linejoin: miter;
}
.g3_1{
}

.s1_1{
font-size: 27.50px;
font-family: Arial-Black_9;
fill: TRANSPARENT;
}
.s2_1{
font-size: 9.17px;
font-family: Arial-Black_9;
fill: TRANSPARENT;
}
.s3_1{
font-size: 9.17px;
font-family: ArialMT_a;
fill: TRANSPARENT;
}
.s4_1{
font-size: 27.50px;
font-family: ArialMT_a;
fill: TRANSPARENT;
}
.s5_1{
font-size: 13.75px;
font-family: ArialMT_a;
fill: TRANSPARENT;
}
text::-moz-selection {
	color: transparent;
	background: rgba(0, 106, 173, 0.4);
}
text::selection {
	color: transparent;
	background: rgba(0, 106, 173, 0.4);
}

]]></style>

</defs>
<path d="M0,0
L0,1210
L1870,1210
L1870,0 Z " 
fill="#FFFFFF" stroke="none" />
<path d="M82.5,55H1691.3V1155H82.5V55ZM1705,1113.8h96.3" class="g0_1" />
<g clip-path="url(#c0_1)">
<g fill="#000000" >
<use xlink:href="#f0_7" transform="matrix(18,0,0,18,1708.8,1155)" />
<use xlink:href="#f0_3" transform="matrix(18,0,0,18,1730.7,1155)" />
<use xlink:href="#f0_4" transform="matrix(18,0,0,18,1739.8,1155)" />
<use xlink:href="#f0_5" transform="matrix(18,0,0,18,1758.2,1155)" />
</g>
</g>
<g clip-path="url(#c1_1)">
<g fill="#000000" >
<use xlink:href="#f0_a" transform="matrix(0,-6,6,0,1727.2,857.2)" />
</g>
</g>
<text transform="matrix(1, 0, 0, 1, 1708, 1155)" dx="0,-0.5,0,0" class="s1_1">C.08</text>
<g clip-path="url(#c1_1)">
<g fill="#000000" >
<use xlink:href="#f0_e" transform="matrix(0,-6,6,0,1727.2,853.7)" />
<use xlink:href="#f0_e" transform="matrix(0,-6,6,0,1727.2,847.1)" />
<use xlink:href="#f0_g" transform="matrix(0,-6,6,0,1727.2,840.4)" />
<use xlink:href="#f0_9" transform="matrix(0,-6,6,0,1727.2,832.8)" />
<use xlink:href="#f0_8" transform="matrix(0,-6,6,0,1727.2,823.1)" />
<use xlink:href="#f0_6" transform="matrix(0,-6,6,0,1727.2,816.4)" />
<use xlink:href="#f0_f" transform="matrix(0,-6,6,0,1727.2,809.9)" />
<use xlink:href="#f0_9" transform="matrix(0,-6,6,0,1727.2,803.3)" />
</g>
</g>
<g clip-path="url(#c2_1)">
<g fill="#000000" >
<use xlink:href="#f0_e" transform="matrix(0,-6,6,0,1726.4,578.3)" />
</g>
</g>
<text transform="matrix(0, -1, 1, 0, 1727, 857)" dx="0,0,0,0,0,0,0,-0.4,-0.6,0" class="s2_1">ISSUE DATE</text>
<g clip-path="url(#c2_1)">
<g fill="#000000" >
<use xlink:href="#f0_a" transform="matrix(0,-6,6,0,1726.4,571.6)" />
<use xlink:href="#f0_f" transform="matrix(0,-6,6,0,1726.4,568.1)" />
<use xlink:href="#f0_9" transform="matrix(0,-6,6,0,1726.4,561.5)" />
<use xlink:href="#f0_6" transform="matrix(0,-6,6,0,1726.4,551.8)" />
<use xlink:href="#f0_8" transform="matrix(0,-6,6,0,1726.4,544.6)" />
<use xlink:href="#f0_8" transform="matrix(0,-6,6,0,1726.4,537.5)" />
<use xlink:href="#f0_d" transform="matrix(0,-6,6,0,1726.4,530.4)" />
<use xlink:href="#f0_9" transform="matrix(0,-6,6,0,1726.4,523.2)" />
<use xlink:href="#f0_e" transform="matrix(0,-6,6,0,1726.4,516.6)" />
<use xlink:href="#f0_e" transform="matrix(0,-6,6,0,1726.4,510)" />
</g>
</g>
<g clip-path="url(#c3_1)">
<g fill="#000000" >
<use xlink:href="#f0_c" transform="matrix(0,-6,6,0,1727.2,747.1)" />
</g>
</g>
<text transform="matrix(0, -1, 1, 0, 1726, 578)" class="s2_1">SITE ADDRESS</text>
<g clip-path="url(#c3_1)">
<g fill="#000000" >
<use xlink:href="#f0_h" transform="matrix(0,-6,6,0,1727.2,739.6)" />
<use xlink:href="#f0_b" transform="matrix(0,-6,6,0,1727.2,730.4)" />
<use xlink:href="#f0_9" transform="matrix(0,-6,6,0,1727.2,722.8)" />
<use xlink:href="#f0_d" transform="matrix(0,-6,6,0,1727.2,716.2)" />
</g>
</g>
<g clip-path="url(#c4_1)">
<g fill="#000000" >
<use xlink:href="#f1_p" transform="matrix(0,-6,6,0,1775.9,409.2)" />
</g>
</g>
<text transform="matrix(0, -1, 1, 0, 1727, 747)" dx="0,-0.2,0,0,0" class="s2_1">OWNER</text>
<g clip-path="url(#c4_1)">
<g fill="#000000" >
<use xlink:href="#f1_w" transform="matrix(0,-6,6,0,1775.9,403.6)" />
<use xlink:href="#f1_x" transform="matrix(0,-6,6,0,1775.9,398.5)" />
<use xlink:href="#f1_15" transform="matrix(0,-6,6,0,1775.9,396.5)" />
<use xlink:href="#f1_19" transform="matrix(0,-6,6,0,1775.9,389.3)" />
<use xlink:href="#f1_12" transform="matrix(0,-6,6,0,1775.9,382.7)" />
<use xlink:href="#f1_14" transform="matrix(0,-6,6,0,1775.9,377.6)" />
<use xlink:href="#f1_y" transform="matrix(0,-6,6,0,1775.9,374.6)" />
<use xlink:href="#f1_x" transform="matrix(0,-6,6,0,1775.9,367.4)" />
<use xlink:href="#f1_15" transform="matrix(0,-6,6,0,1775.9,365.4)" />
<use xlink:href="#f1_z" transform="matrix(0,-6,6,0,1775.9,358.3)" />
<use xlink:href="#f1_x" transform="matrix(0,-6,6,0,1775.9,356.2)" />
<use xlink:href="#f1_s" transform="matrix(0,-6,6,0,1775.9,354.2)" />
<use xlink:href="#f1_u" transform="matrix(0,-6,6,0,1775.9,349.6)" />
<use xlink:href="#f1_11" transform="matrix(0,-6,6,0,1775.9,344.5)" />
<use xlink:href="#f1_15" transform="matrix(0,-6,6,0,1775.9,339.4)" />
<use xlink:href="#f1_u" transform="matrix(0,-6,6,0,1775.9,334.8)" />
<use xlink:href="#f1_t" transform="matrix(0,-6,6,0,1775.9,329.7)" />
<use xlink:href="#f1_17" transform="matrix(0,-6,6,0,1775.9,322.1)" />
<use xlink:href="#f1_11" transform="matrix(0,-6,6,0,1775.9,317)" />
<use xlink:href="#f1_t" transform="matrix(0,-6,6,0,1775.9,311.9)" />
<use xlink:href="#f1_u" transform="matrix(0,-6,6,0,1775.9,306.8)" />
<use xlink:href="#f1_14" transform="matrix(0,-6,6,0,1775.9,301.7)" />
<use xlink:href="#f1_q" transform="matrix(0,-6,6,0,1775.9,296.1)" />
<use xlink:href="#f1_k" transform="matrix(0,-6,6,0,1775.9,288.5)" />
<use xlink:href="#f1_14" transform="matrix(0,-6,6,0,1775.9,281.8)" />
<use xlink:href="#f1_u" transform="matrix(0,-6,6,0,1775.9,278.8)" />
<use xlink:href="#f1_q" transform="matrix(0,-6,6,0,1775.9,273.7)" />
<use xlink:href="#f1_16" transform="matrix(0,-6,6,0,1775.9,268.6)" />
<use xlink:href="#f1_x" transform="matrix(0,-6,6,0,1775.9,266)" />
<use xlink:href="#f1_18" transform="matrix(0,-6,6,0,1775.9,264)" />
<use xlink:href="#f1_u" transform="matrix(0,-6,6,0,1775.9,259.4)" />
<use xlink:href="#f1_k" transform="matrix(0,-6,6,0,1775.9,251.8)" />
<use xlink:href="#f1_12" transform="matrix(0,-6,6,0,1775.9,245.2)" />
<use xlink:href="#f1_10" transform="matrix(0,-6,6,0,1775.9,240.1)" />
<use xlink:href="#f1_10" transform="matrix(0,-6,6,0,1775.9,232.4)" />
<use xlink:href="#f1_12" transform="matrix(0,-6,6,0,1775.9,224.8)" />
<use xlink:href="#f1_11" transform="matrix(0,-6,6,0,1775.9,219.7)" />
<use xlink:href="#f1_15" transform="matrix(0,-6,6,0,1775.9,214.6)" />
<use xlink:href="#f1_i" transform="matrix(0,-6,6,0,1785.3,409.2)" />
</g>
</g>
<text transform="matrix(0, -1, 1, 0, 1775, 409)" class="s3_1">This work is licensed under a Creative Commons </text>
<g clip-path="url(#c4_1)">
<g fill="#000000" >
<use xlink:href="#f1_16" transform="matrix(0,-6,6,0,1785.3,403.1)" />
<use xlink:href="#f1_16" transform="matrix(0,-6,6,0,1785.3,400.5)" />
<use xlink:href="#f1_14" transform="matrix(0,-6,6,0,1785.3,398)" />
<use xlink:href="#f1_x" transform="matrix(0,-6,6,0,1785.3,394.9)" />
<use xlink:href="#f1_r" transform="matrix(0,-6,6,0,1785.3,392.9)" />
<use xlink:href="#f1_17" transform="matrix(0,-6,6,0,1785.3,387.8)" />
<use xlink:href="#f1_16" transform="matrix(0,-6,6,0,1785.3,382.7)" />
<use xlink:href="#f1_x" transform="matrix(0,-6,6,0,1785.3,380.2)" />
<use xlink:href="#f1_12" transform="matrix(0,-6,6,0,1785.3,378.1)" />
<use xlink:href="#f1_11" transform="matrix(0,-6,6,0,1785.3,373)" />
<use xlink:href="#f1_5" transform="matrix(0,-6,6,0,1785.3,367.9)" />
<use xlink:href="#f1_o" transform="matrix(0,-6,6,0,1785.3,362.3)" />
<use xlink:href="#f1_w" transform="matrix(0,-6,6,0,1785.3,356.2)" />
<use xlink:href="#f1_q" transform="matrix(0,-6,6,0,1785.3,351.1)" />
<use xlink:href="#f1_14" transform="matrix(0,-6,6,0,1785.3,346)" />
<use xlink:href="#f1_u" transform="matrix(0,-6,6,0,1785.3,343)" />
<use xlink:href="#f1_i" transform="matrix(0,-6,6,0,1785.3,337.9)" />
<use xlink:href="#f1_z" transform="matrix(0,-6,6,0,1785.3,331.8)" />
<use xlink:href="#f1_x" transform="matrix(0,-6,6,0,1785.3,329.7)" />
<use xlink:href="#f1_y" transform="matrix(0,-6,6,0,1785.3,327.7)" />
<use xlink:href="#f1_u" transform="matrix(0,-6,6,0,1785.3,323.1)" />
<use xlink:href="#f1_c" transform="matrix(0,-6,6,0,1785.3,315.5)" />
<use xlink:href="#f1_6" transform="matrix(0,-6,6,0,1785.3,310.4)" />
<use xlink:href="#f1_8" transform="matrix(0,-6,6,0,1785.3,307.8)" />
<use xlink:href="#f1_m" transform="matrix(0,-6,6,0,1785.3,300.2)" />
<use xlink:href="#f1_11" transform="matrix(0,-6,6,0,1785.3,297.6)" />
<use xlink:href="#f1_16" transform="matrix(0,-6,6,0,1785.3,292.5)" />
<use xlink:href="#f1_u" transform="matrix(0,-6,6,0,1785.3,290)" />
<use xlink:href="#f1_14" transform="matrix(0,-6,6,0,1785.3,284.9)" />
<use xlink:href="#f1_11" transform="matrix(0,-6,6,0,1785.3,281.8)" />
<use xlink:href="#f1_q" transform="matrix(0,-6,6,0,1785.3,276.7)" />
<use xlink:href="#f1_16" transform="matrix(0,-6,6,0,1785.3,271.6)" />
<use xlink:href="#f1_x" transform="matrix(0,-6,6,0,1785.3,269.1)" />
<use xlink:href="#f1_12" transform="matrix(0,-6,6,0,1785.3,267)" />
<use xlink:href="#f1_11" transform="matrix(0,-6,6,0,1785.3,261.9)" />
<use xlink:href="#f1_q" transform="matrix(0,-6,6,0,1785.3,256.8)" />
<use xlink:href="#f1_z" transform="matrix(0,-6,6,0,1785.3,251.7)" />
<use xlink:href="#f1_n" transform="matrix(0,-6,6,0,1785.3,247.2)" />
<use xlink:href="#f1_x" transform="matrix(0,-6,6,0,1785.3,242.1)" />
<use xlink:href="#f1_s" transform="matrix(0,-6,6,0,1785.3,240)" />
<use xlink:href="#f1_u" transform="matrix(0,-6,6,0,1785.3,235.4)" />
<use xlink:href="#f1_11" transform="matrix(0,-6,6,0,1785.3,230.3)" />
<use xlink:href="#f1_15" transform="matrix(0,-6,6,0,1785.3,225.2)" />
<use xlink:href="#f1_u" transform="matrix(0,-6,6,0,1785.3,220.7)" />
<use xlink:href="#f1_w" transform="matrix(0,-6,6,0,1794.8,409.2)" />
</g>
</g>
<text transform="matrix(0, -1, 1, 0, 1785, 409)" class="s3_1">Attribution- ShareAlike 4.0 International License</text>
<g clip-path="url(#c4_1)">
<g fill="#000000" >
<use xlink:href="#f1_16" transform="matrix(0,-6,6,0,1794.8,404.1)" />
<use xlink:href="#f1_16" transform="matrix(0,-6,6,0,1794.8,401.6)" />
<use xlink:href="#f1_13" transform="matrix(0,-6,6,0,1794.8,399)" />
<use xlink:href="#f1_h" transform="matrix(0,-6,6,0,1794.8,393.9)" />
<use xlink:href="#f1_7" transform="matrix(0,-6,6,0,1794.8,391.4)" />
<use xlink:href="#f1_7" transform="matrix(0,-6,6,0,1794.8,388.8)" />
<use xlink:href="#f1_s" transform="matrix(0,-6,6,0,1794.8,386.3)" />
<use xlink:href="#f1_14" transform="matrix(0,-6,6,0,1794.8,381.7)" />
<use xlink:href="#f1_u" transform="matrix(0,-6,6,0,1794.8,378.6)" />
<use xlink:href="#f1_q" transform="matrix(0,-6,6,0,1794.8,373.5)" />
<use xlink:href="#f1_16" transform="matrix(0,-6,6,0,1794.8,368.4)" />
<use xlink:href="#f1_x" transform="matrix(0,-6,6,0,1794.8,365.9)" />
<use xlink:href="#f1_18" transform="matrix(0,-6,6,0,1794.8,363.9)" />
<use xlink:href="#f1_u" transform="matrix(0,-6,6,0,1794.8,359.3)" />
<use xlink:href="#f1_s" transform="matrix(0,-6,6,0,1794.8,354.2)" />
<use xlink:href="#f1_12" transform="matrix(0,-6,6,0,1794.8,349.6)" />
<use xlink:href="#f1_10" transform="matrix(0,-6,6,0,1794.8,344.5)" />
<use xlink:href="#f1_10" transform="matrix(0,-6,6,0,1794.8,336.9)" />
<use xlink:href="#f1_12" transform="matrix(0,-6,6,0,1794.8,329.2)" />
<use xlink:href="#f1_11" transform="matrix(0,-6,6,0,1794.8,324.1)" />
<use xlink:href="#f1_15" transform="matrix(0,-6,6,0,1794.8,319)" />
<use xlink:href="#f1_6" transform="matrix(0,-6,6,0,1794.8,314.4)" />
<use xlink:href="#f1_12" transform="matrix(0,-6,6,0,1794.8,311.9)" />
<use xlink:href="#f1_14" transform="matrix(0,-6,6,0,1794.8,306.8)" />
<use xlink:href="#f1_v" transform="matrix(0,-6,6,0,1794.8,303.7)" />
<use xlink:href="#f1_7" transform="matrix(0,-6,6,0,1794.8,298.7)" />
<use xlink:href="#f1_z" transform="matrix(0,-6,6,0,1794.8,296.1)" />
<use xlink:href="#f1_x" transform="matrix(0,-6,6,0,1794.8,294.1)" />
<use xlink:href="#f1_s" transform="matrix(0,-6,6,0,1794.8,292)" />
<use xlink:href="#f1_u" transform="matrix(0,-6,6,0,1794.8,287.4)" />
<use xlink:href="#f1_11" transform="matrix(0,-6,6,0,1794.8,282.3)" />
<use xlink:href="#f1_15" transform="matrix(0,-6,6,0,1794.8,277.3)" />
<use xlink:href="#f1_u" transform="matrix(0,-6,6,0,1794.8,272.7)" />
<use xlink:href="#f1_15" transform="matrix(0,-6,6,0,1794.8,267.6)" />
<use xlink:href="#f1_7" transform="matrix(0,-6,6,0,1794.8,263)" />
<use xlink:href="#f1_r" transform="matrix(0,-6,6,0,1794.8,260.4)" />
<use xlink:href="#f1_1a" transform="matrix(0,-6,6,0,1794.8,255.3)" />
<use xlink:href="#f1_5" transform="matrix(0,-6,6,0,1794.8,250.8)" />
<use xlink:href="#f1_15" transform="matrix(0,-6,6,0,1794.8,247.7)" />
<use xlink:href="#f1_q" transform="matrix(0,-6,6,0,1794.8,243.1)" />
<use xlink:href="#f1_7" transform="matrix(0,-6,6,0,1794.8,238)" />
<use xlink:href="#f1_c" transform="matrix(0,-6,6,0,1794.8,235.5)" />
<use xlink:href="#f1_6" transform="matrix(0,-6,6,0,1794.8,230.4)" />
<use xlink:href="#f1_8" transform="matrix(0,-6,6,0,1794.8,227.8)" />
<use xlink:href="#f1_7" transform="matrix(0,-6,6,0,1794.8,222.7)" />
</g>
</g>
<g clip-path="url(#c5_1)">
<g fill="#000000" >
<use xlink:href="#f1_l" transform="matrix(0,-18,18,0,1746.1,1096.2)" />
</g>
</g>
<text transform="matrix(0, -1, 1, 0, 1794, 409)" class="s3_1">http://creativecommons.org/licenses/by-sa/4.0/</text>
<g clip-path="url(#c5_1)">
<g fill="#000000" >
<use xlink:href="#f1_q" transform="matrix(0,-18,18,0,1746.1,1077.8)" />
<use xlink:href="#f1_18" transform="matrix(0,-18,18,0,1746.1,1062.5)" />
<use xlink:href="#f1_u" transform="matrix(0,-18,18,0,1746.1,1048.8)" />
<use xlink:href="#f1_l" transform="matrix(0,-18,18,0,1746.1,1025.8)" />
<use xlink:href="#f1_11" transform="matrix(0,-18,18,0,1746.1,1007.5)" />
<use xlink:href="#f1_t" transform="matrix(0,-18,18,0,1746.1,992.2)" />
<use xlink:href="#f1_j" transform="matrix(0,-18,18,0,1777.6,1096.2)" />
</g>
</g>
<text transform="matrix(0, -1, 1, 0, 1746, 1096)" class="s4_1">Eave End</text>
<g clip-path="url(#c5_1)">
<g fill="#000000" >
<use xlink:href="#f1_z" transform="matrix(0,-18,18,0,1777.6,1077.8)" />
<use xlink:href="#f1_12" transform="matrix(0,-18,18,0,1777.6,1071.7)" />
<use xlink:href="#f1_s" transform="matrix(0,-18,18,0,1777.6,1056.4)" />
<use xlink:href="#f1_y" transform="matrix(0,-18,18,0,1777.6,1042.7)" />
<use xlink:href="#f1_x" transform="matrix(0,-18,18,0,1777.6,1028.9)" />
<use xlink:href="#f1_11" transform="matrix(0,-18,18,0,1777.6,1022.8)" />
<use xlink:href="#f1_v" transform="matrix(0,-18,18,0,1777.6,1007.5)" />
</g>
</g>
<text transform="matrix(0, -1, 1, 0, 1777, 1096)" class="s4_1">Blocking</text>
<image preserveAspectRatio="none" x="1716" y="317" width="34" height="93" xlink:href="1/img/1.png" />
<image preserveAspectRatio="none" x="1705" y="55" width="96" height="84" xlink:href="1/img/2.png" />
<path d="M923.2,749.3L611,829.7M923.2,444.8L611,829.7M992.5,129.3V377.2M923.2,749.3l69.3,-17.8l372.8,360.1M992.5,377.2V625m0,-247.8l372.8,360.1M992.5,377.2L923.2,395m69.3,230V731.5m0,-106.5l372.8,360.2M992.5,625l-69.3,17.9m449,-262.8L1035.6,55M743.8,1155l19,-23.5M91.5,963.6L251.6,922.4M938.4,75.6L955.1,55m661.7,313V174.1M992.5,129.3V61.7M611,829.7L251.7,922.3M82.5,780.3l9,-11M1418.1,419.1L1547.5,259.6M1365.3,489.4l8.9,8.6M1616.8,174.1l74.4,-91.7m-505,1055.3l17.4,-4.4l92.4,-23.8M251.6,922.3h.1m35.7,34.6h.1M1296,1109.5l69.3,-17.9m0,-106.4V765.5m0,326.1V985.2m-174.5,-732L1207.2,233M1327.1,85.2l9.3,-11.5m35.8,306.4L1486.5,239.2M1323.2,345l49,35.1m244.6,-206l74.4,71.9m-317,252V430.4m-8.9,69.9l8.9,-2.3M959,783.9L520,897M923.2,423.2v21.6m0,304.5L959,783.9M923.2,147.1V395m442.1,94.4L992.5,129.3m-69.3,17.8l69.3,-17.8M923.2,642.9V749.3m0,-326.1l-23.1,5.9m0,-276l23.1,-6M1336.4,73.7L1317.1,55M411.9,1155L223.9,973.3M91.5,845.4l-9,-8.7m0,-80.3L651.4,55M473.2,1138v17M603.4,977.5L473.2,1138M287.4,956.9h.1m-196,6.7l35.8,34.6M1004.3,73l14.6,-18M938.4,75.6L830.8,103.3M670.8,55L91.5,769.3M1374.2,430.4l43.9,-11.3m129.4,-33.3V259.6M1616.8,368l-69.3,17.8m69.3,-211.7l-69.3,85.5M1374.2,498l317,-81.6M830.8,170.9V103.3m69.3,49.8v28.1m-69.3,17.9V170.9m69.3,10.3l-69.3,17.9m0,-28.2l69.3,-17.8m791.1,291.5l-325.9,83.9M900.1,429.1L830.8,447m69.3,-17.9V181.2m303.5,952.1V1155M1691.2,681.5l-325.9,84M1186.2,1155v-17.3m-67,17.3l67,-17.3M520,897l83.4,80.5M251.6,922.3v.1l35.8,34.5M830.8,208.3V447m534.5,53.3V489.4m0,276.1V737.3M923.2,395v28.2m400,-78.2l-116,-112L1023,55m463.5,184.2L1327.1,85.2L1295.9,55m54.3,352.2l22,-27.1M1351.6,55l-15.2,18.7M127.3,998.2l96.6,-24.9l63.5,-16.4M91.5,769.3V963.6M992.5,61.7L1004.3,73m-65.9,2.6L992.5,61.7M603.4,977.5l159.4,154l24.3,23.5M520,897L287.5,956.9M251.7,922.3l579.1,-714m534.5,529v-237M1486.5,239.2L1635.9,55M1418.1,419.1l129.4,-33.3M1004.3,73l186.5,180.2m426,114.8l74.4,-19.2M1190.8,253.2l159.4,154l24,23.2M959,783.9l337,325.6M923.2,444.8V642.9M830.8,208.3v-9.2" class="g1_1" />
<g clip-path="url(#c6_1)">
<path d="M919.8,736L898.5,653.5m0,0l-2.9,-11.1M249.5,908.7L228.3,826.1m0,0L225.4,815" class="g0_1" />
<path d="M887.4,656.3l-648,167" class="g2_1" />
<path d="M897.4,653.8l-9.6,4.2l-.8,-3.3l10.4,-.9Z" class="g3_1" />
<path d="M897.4,653.8l-9.6,4.2l-.8,-3.3l10.4,-.9Z" class="g2_1" />
<path d="M229.4,825.8l9.6,-4.2l.8,3.3l-10.4,.9Z" class="g3_1" />
<path d="M229.4,825.8l9.6,-4.2l.8,3.3l-10.4,.9Z" class="g2_1" />
</g>
<g clip-path="url(#c7_1)">
<g fill="#000000" >
<use xlink:href="#f1_9" transform="matrix(8.7,-2.2,2.2,8.7,536.4,739.1)" />
<use xlink:href="#f1_4" transform="matrix(8.7,-2.2,2.2,8.7,543.8,737.2)" />
<use xlink:href="#f1_5" transform="matrix(8.7,-2.2,2.2,8.7,546.4,736.5)" />
<use xlink:href="#f1_a" transform="matrix(8.7,-2.2,2.2,8.7,550.8,735.4)" />
<use xlink:href="#f1_9" transform="matrix(8.7,-2.2,2.2,8.7,561.9,732.5)" />
<use xlink:href="#f1_7" transform="matrix(8.7,-2.2,2.2,8.7,569.3,730.6)" />
<use xlink:href="#f1_a" transform="matrix(8.7,-2.2,2.2,8.7,573,729.6)" />
<use xlink:href="#f1_3" transform="matrix(8.7,-2.2,2.2,8.7,580.4,727.7)" />
</g>
</g>
<text transform="matrix(0.97, -0.25, 0.25, 0.97, 536, 739)" class="s5_1">1'-2 1/2"</text>
<g clip-path="url(#c8_1)">
<path d="M919.8,736L904.3,675.9m0,0l-2.9,-11.1M607.6,816.4L592.1,756.3m0,0l-2.9,-11.1" class="g0_1" />
<path d="M893.2,678.7l-290,74.7" class="g2_1" />
<path d="M903.1,676.2l-9.5,4.2l-.9,-3.3l10.4,-.9Z" class="g3_1" />
<path d="M903.1,676.2l-9.5,4.2l-.9,-3.3l10.4,-.9Z" class="g2_1" />
<path d="M593.2,756l9.6,-4.3l.8,3.4l-10.4,.9Z" class="g3_1" />
<path d="M593.2,756l9.6,-4.3l.8,3.4l-10.4,.9Z" class="g2_1" />
</g>
<g clip-path="url(#c9_1)">
<g fill="#000000" >
<use xlink:href="#f1_e" transform="matrix(8.7,-2.2,2.2,8.7,728.4,713.5)" />
<use xlink:href="#f1_b" transform="matrix(8.7,-2.2,2.2,8.7,739.5,710.6)" />
<use xlink:href="#f1_7" transform="matrix(8.7,-2.2,2.2,8.7,746.9,708.7)" />
<use xlink:href="#f1_c" transform="matrix(8.7,-2.2,2.2,8.7,750.6,707.8)" />
<use xlink:href="#f1_3" transform="matrix(8.7,-2.2,2.2,8.7,758,705.9)" />
</g>
</g>
<text transform="matrix(0.97, -0.25, 0.25, 0.97, 728, 713)" class="s5_1">6 3/4"</text>
<g clip-path="url(#c10_1)">
<path d="M900.1,166.8v54.8m0,0v11.5m23.1,-72.2v60.7m0,0v11.5" class="g0_1" />
<path d="M888.6,221.6H877.1" class="g2_1" />
<path d="M898.9,221.6l-10.3,1.7v-3.4l10.3,1.7Z" class="g3_1" />
<path d="M898.9,221.6l-10.3,1.7v-3.4l10.3,1.7ZM946.1,221.6H934.7" class="g2_1" />
<path d="M924.3,221.6l10.4,-1.7v3.4l-10.4,-1.7Z" class="g3_1" />
<path d="M924.3,221.6l10.4,-1.7v3.4l-10.4,-1.7Z" class="g2_1" />
<path d="M911.7,220.1c.5,-9.4,6,-14.2,16.2,-14.2" class="g0_1" />
<path d="M912.7,220.5c.6,.6,.6,1.6,0,2.2c-.6,.6,-1.5,.6,-2.1,0c-.6,-.6,-.6,-1.6,0,-2.2c.6,-.6,1.5,-.6,2.1,0Z" class="g3_1" />
<path d="M912.7,220.5c.6,.6,.6,1.6,0,2.2c-.6,.6,-1.5,.6,-2.1,0c-.6,-.6,-.6,-1.6,0,-2.2c.6,-.6,1.5,-.6,2.1,0" class="g0_1" />
</g>
<g clip-path="url(#c11_1)">
<g fill="#000000" >
<use xlink:href="#f1_9" transform="matrix(9,0,0,9,931.7,210.3)" />
<use xlink:href="#f1_7" transform="matrix(9,0,0,9,939.4,210.3)" />
<use xlink:href="#f1_a" transform="matrix(9,0,0,9,943.2,210.3)" />
<use xlink:href="#f1_3" transform="matrix(9,0,0,9,950.9,210.3)" />
</g>
</g>
<text x="931" y="210" class="s5_1">1/2"</text>
<g clip-path="url(#c12_1)">
<path d="M1374.8,1081.7l85.8,-88.8m0,0l8,-8.2M1002,721.6l85.8,-88.8m0,0l8,-8.2" class="g0_1" />
<path d="M1452.4,985L1096.1,640.8" class="g2_1" />
<path d="M1459.8,992.1l-8.6,-5.9l2.3,-2.5l6.3,8.4Z" class="g3_1" />
<path d="M1459.8,992.1l-8.6,-5.9l2.3,-2.5l6.3,8.4Z" class="g2_1" />
<path d="M1088.6,633.6l8.7,5.9l-2.4,2.5l-6.3,-8.4Z" class="g3_1" />
<path d="M1088.6,633.6l8.7,5.9l-2.4,2.5l-6.3,-8.4Z" class="g2_1" />
</g>
<g clip-path="url(#c13_1)">
<g fill="#000000" >
<use xlink:href="#f1_9" transform="matrix(6.5,6.3,-6.3,6.5,1260.7,789.5)" />
<use xlink:href="#f1_4" transform="matrix(6.5,6.3,-6.3,6.5,1266.2,794.8)" />
<use xlink:href="#f1_5" transform="matrix(6.5,6.3,-6.3,6.5,1268.1,796.6)" />
<use xlink:href="#f1_b" transform="matrix(6.5,6.3,-6.3,6.5,1271.4,799.8)" />
<use xlink:href="#f1_d" transform="matrix(6.5,6.3,-6.3,6.5,1279.7,807.8)" />
<use xlink:href="#f1_7" transform="matrix(6.5,6.3,-6.3,6.5,1285.2,813.1)" />
<use xlink:href="#f1_f" transform="matrix(6.5,6.3,-6.3,6.5,1287.9,815.8)" />
<use xlink:href="#f1_3" transform="matrix(6.5,6.3,-6.3,6.5,1293.4,821.1)" />
</g>
</g>
<text transform="matrix(0.72, 0.69, -0.69, 0.72, 1260, 789)" class="s5_1">1'-3 5/8"</text>
<g clip-path="url(#c14_1)">
<path d="M936.9,147.1h55.3m0,0h11.5M936.9,423.2h55.3m0,0h11.5" class="g0_1" />
<path d="M992.2,158.6V411.7" class="g2_1" />
<path d="M992.2,148.3l1.7,10.3h-3.4l1.7,-10.3Z" class="g3_1" />
<path d="M992.2,148.3l1.7,10.3h-3.4l1.7,-10.3Z" class="g2_1" />
<path d="M992.2,422l-1.7,-10.3h3.4L992.2,422Z" class="g3_1" />
<path d="M992.2,422l-1.7,-10.3h3.4L992.2,422Z" class="g2_1" />
</g>
<g clip-path="url(#c15_1)">
<g fill="#000000" >
<use xlink:href="#f1_e" transform="matrix(0,-9,9,0,984.8,303.6)" />
<use xlink:href="#f1_9" transform="matrix(0,-9,9,0,984.8,292.2)" />
<use xlink:href="#f1_7" transform="matrix(0,-9,9,0,984.8,284.5)" />
<use xlink:href="#f1_f" transform="matrix(0,-9,9,0,984.8,280.7)" />
<use xlink:href="#f1_3" transform="matrix(0,-9,9,0,984.8,273)" />
</g>
</g>
<text transform="matrix(0, -1, 1, 0, 984, 303)" class="s5_1">6 1/8"</text>
<g clip-path="url(#c16_1)">
<path d="M936.9,444.8h21.5m0,0h11.4M936.9,422.6h21.5m0,0h11.4" class="g0_1" />
<path d="M958.4,456.3v11.5" class="g2_1" />
<path d="M958.4,446l1.7,10.3h-3.4L958.4,446Z" class="g3_1" />
<path d="M958.4,446l1.7,10.3h-3.4L958.4,446ZM958.4,399.7v11.5" class="g2_1" />
<path d="M958.4,421.5l-1.7,-10.3h3.4l-1.7,10.3Z" class="g3_1" />
<path d="M958.4,421.5l-1.7,-10.3h3.4l-1.7,10.3Z" class="g2_1" />
<path d="M959.9,433.7c9.4,-.5,14.2,-5.9,14.2,-15.9" class="g0_1" />
<path d="M959.5,432.7c.6,.5,.6,1.5,0,2.1c-.6,.6,-1.6,.6,-2.2,0c-.6,-.6,-.6,-1.6,0,-2.1c.6,-.6,1.6,-.6,2.2,0Z" class="g3_1" />
<path d="M959.5,432.7c.6,.5,.6,1.5,0,2.1c-.6,.6,-1.6,.6,-2.2,0c-.6,-.6,-.6,-1.6,0,-2.1c.6,-.6,1.6,-.6,2.2,0" class="g0_1" />
</g>
<g clip-path="url(#c17_1)">
<g fill="#000000" >
<use xlink:href="#f1_9" transform="matrix(0,-9,9,0,978.5,414)" />
<use xlink:href="#f1_7" transform="matrix(0,-9,9,0,978.5,406.3)" />
<use xlink:href="#f1_a" transform="matrix(0,-9,9,0,978.5,402.5)" />
<use xlink:href="#f1_3" transform="matrix(0,-9,9,0,978.5,394.8)" />
</g>
</g>
<text transform="matrix(0, -1, 1, 0, 978, 413)" class="s5_1">1/2"</text>
<g clip-path="url(#c18_1)">
<path d="M834.2,460.3L857,548.8m0,0l2.9,11.1M926.6,436.5L949.4,525m0,0l2.9,11.1" class="g0_1" />
<path d="M868.1,546l70.2,-18.1" class="g2_1" />
<path d="M858.1,548.6l9.6,-4.3l.9,3.4l-10.5,.9Z" class="g3_1" />
<path d="M858.1,548.6l9.6,-4.3l.9,3.4l-10.5,.9Z" class="g2_1" />
<path d="M948.3,525.3l-9.6,4.3l-.8,-3.4l10.4,-.9Z" class="g3_1" />
<path d="M948.3,525.3l-9.6,4.3l-.8,-3.4l10.4,-.9Z" class="g2_1" />
</g>
<g clip-path="url(#c19_1)">
<g fill="#000000" >
<use xlink:href="#f1_a" transform="matrix(8.7,-2.2,2.2,8.7,894.6,531.5)" />
<use xlink:href="#f1_3" transform="matrix(8.7,-2.2,2.2,8.7,902,529.6)" />
</g>
</g>
<text transform="matrix(0.97, -0.25, 0.25, 0.97, 894, 531)" class="s5_1">2"</text>
<g clip-path="url(#c20_1)">
<path d="M1006.2,129.3H1162m0,0h11.4M1006.2,377.2H1162m0,0h11.4" class="g0_1" />
<path d="M1162,140.7v225" class="g2_1" />
<path d="M1162,130.4l1.7,10.3h-3.4l1.7,-10.3Z" class="g3_1" />
<path d="M1162,130.4l1.7,10.3h-3.4l1.7,-10.3Z" class="g2_1" />
<path d="M1162,376l-1.7,-10.3h3.4L1162,376Z" class="g3_1" />
<path d="M1162,376l-1.7,-10.3h3.4L1162,376Z" class="g2_1" />
</g>
<g clip-path="url(#c21_1)">
<g fill="#000000" >
<use xlink:href="#f1_d" transform="matrix(0,-9,9,0,1154.6,271.7)" />
<use xlink:href="#f1_9" transform="matrix(0,-9,9,0,1154.6,260.2)" />
<use xlink:href="#f1_7" transform="matrix(0,-9,9,0,1154.6,252.6)" />
<use xlink:href="#f1_a" transform="matrix(0,-9,9,0,1154.6,248.8)" />
<use xlink:href="#f1_3" transform="matrix(0,-9,9,0,1154.6,241.1)" />
</g>
</g>
<text transform="matrix(0, -1, 1, 0, 1154, 271)" class="s5_1">5 1/2"</text>
<g clip-path="url(#c22_1)">
<path d="M1006.2,625h19.1m0,0h11.4m-30.5,106.9h19.1m0,0h11.4" class="g0_1" />
<path d="M1025.3,636.5v83.9" class="g2_1" />
<path d="M1025.3,626.2l1.7,10.3h-3.4l1.7,-10.3Z" class="g3_1" />
<path d="M1025.3,626.2l1.7,10.3h-3.4l1.7,-10.3Z" class="g2_1" />
<path d="M1025.3,730.7l-1.7,-10.3h3.4l-1.7,10.3Z" class="g3_1" />
<path d="M1025.3,730.7l-1.7,-10.3h3.4l-1.7,10.3Z" class="g2_1" />
</g>
<g clip-path="url(#c23_1)">
<g fill="#000000" >
<use xlink:href="#f1_a" transform="matrix(0,-9,9,0,1017.9,696.9)" />
<use xlink:href="#f1_b" transform="matrix(0,-9,9,0,1017.9,685.5)" />
<use xlink:href="#f1_7" transform="matrix(0,-9,9,0,1017.9,677.8)" />
<use xlink:href="#f1_f" transform="matrix(0,-9,9,0,1017.9,674)" />
<use xlink:href="#f1_3" transform="matrix(0,-9,9,0,1017.9,666.3)" />
</g>
</g>
<text transform="matrix(0, -1, 1, 0, 1017, 696)" class="s5_1">2 3/8"</text>
<g clip-path="url(#c24_1)">
<path d="M933.9,453.5l14.8,12m0,0l8.9,7.2M623.5,836.2l14.8,12m0,0l8.9,7.2" class="g0_1" />
<path d="M941.4,474.4L645.5,839.3" class="g2_1" />
<path d="M947.9,466.4l-5.1,9.1l-2.7,-2.2l7.8,-6.9Z" class="g3_1" />
<path d="M947.9,466.4l-5.1,9.1l-2.7,-2.2l7.8,-6.9Z" class="g2_1" />
<path d="M639,847.3l5.2,-9.1l2.7,2.2l-7.9,6.9Z" class="g3_1" />
<path d="M639,847.3l5.2,-9.1l2.7,2.2l-7.9,6.9Z" class="g2_1" />
</g>
<g clip-path="url(#c25_1)">
<g fill="#000000" >
<use xlink:href="#f1_g" transform="matrix(5.7,-7,7,5.7,776,666.5)" />
<use xlink:href="#f1_9" transform="matrix(5.7,-7,7,5.7,783.3,657.6)" />
<use xlink:href="#f1_7" transform="matrix(5.7,-7,7,5.7,788.1,651.7)" />
<use xlink:href="#f1_a" transform="matrix(5.7,-7,7,5.7,790.5,648.7)" />
<use xlink:href="#f1_3" transform="matrix(5.7,-7,7,5.7,795.3,642.8)" />
</g>
</g>
<text transform="matrix(0.63, -0.78, 0.78, 0.63, 776, 666)" class="s5_1">9 1/2"</text>
<g clip-path="url(#c26_1)">
<path d="M820.1,199.6L738.3,133.3m0,0L729.4,126m-489,788.5L158.6,848.2m0,0L149.7,841" class="g0_1" />
<path d="M731.1,142.2L165.8,839.3" class="g2_1" />
<path d="M737.6,134.2l-5.2,9.1l-2.6,-2.2l7.8,-6.9Z" class="g3_1" />
<path d="M737.6,134.2l-5.2,9.1l-2.6,-2.2l7.8,-6.9Z" class="g2_1" />
<path d="M159.3,847.3l5.2,-9.1l2.7,2.2l-7.9,6.9Z" class="g3_1" />
<path d="M159.3,847.3l5.2,-9.1l2.7,2.2l-7.9,6.9Z" class="g2_1" />
</g>
<g clip-path="url(#c27_1)">
<g fill="#000000" >
<use xlink:href="#f1_9" transform="matrix(5.7,-7,7,5.7,426.4,506.2)" />
<use xlink:href="#f1_4" transform="matrix(5.7,-7,7,5.7,431.2,500.2)" />
<use xlink:href="#f1_5" transform="matrix(5.7,-7,7,5.7,432.8,498.2)" />
<use xlink:href="#f1_d" transform="matrix(5.7,-7,7,5.7,435.7,494.7)" />
<use xlink:href="#f1_b" transform="matrix(5.7,-7,7,5.7,442.9,485.7)" />
<use xlink:href="#f1_7" transform="matrix(5.7,-7,7,5.7,447.8,479.8)" />
<use xlink:href="#f1_c" transform="matrix(5.7,-7,7,5.7,450.2,476.8)" />
<use xlink:href="#f1_3" transform="matrix(5.7,-7,7,5.7,455,470.9)" />
</g>
</g>
<text transform="matrix(0.63, -0.78, 0.78, 0.63, 426, 506)" class="s5_1">1'-5 3/4"</text>

<defs>
<path d="M641,-18c0,0,-178,0,-291,51c0,0,-114,52,-196,182c0,0,-82,131,-82,334c0,0,0,271,145,417c0,0,144,146,408,146c0,0,207,0,325,-84c0,0,118,-83,175,-257L827,705c0,0,-15,50,-33,73c0,0,-28,39,-69,60c0,0,-41,21,-92,21c0,0,-115,0,-176,-93c0,0,-46,-68,-46,-215c0,0,0,-182,55,-249c0,0,55,-67,155,-67c0,0,97,0,147,54c0,0,50,55,72,159l296,-90c0,0,-30,-124,-94,-208c0,0,-64,-84,-159,-126c0,0,-95,-42,-242,-42Z" 
id="f0_7"
transform="scale(0.001,-0.001)" />

<path d="M93,0V304H418V0Z" 
id="f0_3"
transform="scale(0.001,-0.001)" />

<path d="M508,189c0,0,46,0,80,32c0,0,34,33,50,103c0,0,16,70,16,218c0,0,0,218,-37,292c0,0,-37,75,-111,75c0,0,-75,0,-109,-76c0,0,-33,-76,-33,-283c0,0,0,-209,37,-285c0,0,37,-76,107,-76Zm1,-207c0,0,-138,0,-223,43c0,0,-85,44,-140,129c0,0,-39,61,-61,166c0,0,-22,104,-22,231c0,0,0,312,112,436c0,0,112,125,342,125c0,0,110,0,181,-27c0,0,71,-28,116,-71c0,0,45,-44,70,-92c0,0,26,-48,42,-112c0,0,30,-122,30,-255c0,0,0,-298,-100,-436C856,119,755,-18,509,-18Z" 
id="f0_4"
transform="scale(0.001,-0.001)" />

<path d="M510,168c0,0,55,0,98,47c0,0,43,46,43,118c0,0,0,72,-43,118c0,0,-44,47,-101,47c0,0,-57,0,-99,-45c0,0,-42,-45,-42,-121c0,0,0,-72,44,-118c0,0,44,-46,100,-46Zm1,509c0,0,52,0,86,34c0,0,34,34,34,89c0,0,0,56,-35,92c0,0,-36,35,-90,35c0,0,-55,0,-90,-35c0,0,-35,-34,-35,-89c0,0,0,-57,36,-92c0,0,35,-34,94,-34Zm4,-695c0,0,-173,0,-265,40c0,0,-92,41,-140,121c0,0,-47,80,-47,179c0,0,0,96,44,163c0,0,45,66,138,103c0,0,-71,38,-104,85c0,0,-45,64,-45,147c0,0,0,137,129,225c0,0,101,67,266,67c0,0,219,0,324,-84c0,0,105,-83,105,-210c0,0,0,-74,-42,-138c0,0,-31,-47,-98,-92c0,0,89,-43,133,-113c0,0,43,-70,43,-155c0,0,0,-82,-37,-153c0,0,-38,-71,-93,-110C826,57,771,18,690,0c0,0,-82,-18,-175,-18Z" 
id="f0_5"
transform="scale(0.001,-0.001)" />

<path d="M125,0V1093H463V0Z" 
id="f0_a"
transform="scale(0.001,-0.001)" />

<path d="M561,-18c0,0,-279,0,-387,107C174,89,67,196,53,362l321,20c0,0,11,-78,43,-119c0,0,52,-66,149,-66c0,0,72,0,112,33c0,0,39,34,39,79c0,0,0,43,-37,76c0,0,-38,34,-174,63c0,0,-222,50,-317,133c0,0,-95,83,-95,211c0,0,0,84,49,159c0,0,49,75,147,118c0,0,98,43,269,43c0,0,209,0,319,-78c0,0,110,-78,131,-248L690,768c0,0,-12,73,-53,107c0,0,-40,33,-112,33c0,0,-59,0,-88,-25c0,0,-30,-25,-30,-60c0,0,0,-26,24,-47c0,0,24,-22,114,-41c0,0,221,-47,317,-96c0,0,96,-49,140,-121c0,0,43,-73,43,-162c0,0,0,-105,-58,-194C987,162,929,73,824,27c0,0,-104,-45,-263,-45Z" 
id="f0_e"
transform="scale(0.001,-0.001)" />

<path d="M664,-18c0,0,-80,0,-174,12c0,0,-95,10,-158,43c0,0,-64,33,-116,94c0,0,-53,61,-72,126c0,0,-32,104,-32,185v651H450V427c0,0,0,-90,49,-140c0,0,50,-50,138,-50c0,0,87,0,137,49c0,0,49,50,49,141v666h338V442c0,0,0,-97,-31,-183c0,0,-30,-86,-94,-151c0,0,-65,-64,-136,-90c0,0,-98,-36,-236,-36Z" 
id="f0_g"
transform="scale(0.001,-0.001)" />

<path d="M111,0V1093h906V859H450V685H976V462H450V247h584V0Z" 
id="f0_9"
transform="scale(0.001,-0.001)" />

<path d="M537,248c0,0,106,0,151,24c0,0,45,23,70,82c0,0,25,58,25,190c0,0,0,174,-56,238c0,0,-57,64,-188,64H455V248ZM116,0V1093H618c0,0,149,0,240,-40c0,0,91,-40,151,-116c0,0,60,-75,87,-175c0,0,26,-100,26,-212c0,0,0,-175,-39,-271c0,0,-40,-97,-111,-162c0,0,-71,-66,-152,-87C820,30,709,0,618,0Z" 
id="f0_8"
transform="scale(0.001,-0.001)" />

<path d="M713,418L593,810L474,418ZM2,0L412,1093H781L1192,0H838L784,181H401L347,0Z" 
id="f0_6"
transform="scale(0.001,-0.001)" />

<path d="M379,0V823H35v270H1062V823H718V0Z" 
id="f0_f"
transform="scale(0.001,-0.001)" />

<path d="M598,650c0,0,23,0,90,15c0,0,33,7,54,34c0,0,22,28,22,64c0,0,0,53,-34,81c0,0,-33,28,-126,28H456V650ZM116,0V1093H679c0,0,157,0,240,-27c0,0,83,-27,133,-99c0,0,51,-73,51,-177c0,0,0,-91,-39,-157c0,0,-39,-66,-107,-107c0,0,-43,-26,-119,-43c0,0,61,-21,89,-41c0,0,18,-13,54,-57c0,0,35,-44,47,-68L1192,0H810L629,334c0,0,-34,65,-61,85c0,0,-36,25,-83,25H456V0Z" 
id="f0_d"
transform="scale(0.001,-0.001)" />

<path d="M636,235c0,0,109,0,169,70c0,0,59,71,59,254c0,0,0,154,-62,225c0,0,-62,72,-169,72c0,0,-102,0,-163,-73c0,0,-62,-72,-62,-239c0,0,0,-165,61,-237c0,0,62,-72,167,-72ZM648,-18c0,0,-185,0,-307,58c0,0,-121,59,-196,187c0,0,-76,127,-76,319c0,0,0,267,150,417c0,0,149,149,415,149c0,0,273,0,421,-147c0,0,148,-146,148,-410c0,0,0,-192,-65,-314c0,0,-64,-123,-186,-191c0,0,-122,-68,-304,-68Z" 
id="f0_c"
transform="scale(0.001,-0.001)" />

<path d="M243,0L0,1093H321L436,483l169,610H924L1094,484l116,609h319L1288,0H957L765,688L574,0Z" 
id="f0_h"
transform="scale(0.001,-0.001)" />

<path d="M114,0V1093H430L841,489v604h319V0H841L432,601V0Z" 
id="f0_b"
transform="scale(0.001,-0.001)" />

<path d="M396,0V964H35v129H902V964H541V0Z" 
id="f1_p"
transform="scale(0.001,-0.001)" />

<path d="M101,0V1093H235V701c0,0,94,109,237,109c0,0,88,0,153,-35c0,0,65,-35,93,-96c0,0,28,-61,28,-177V0H612V502c0,0,0,101,-44,146c0,0,-43,46,-123,46c0,0,-60,0,-113,-31c0,0,-52,-31,-75,-84c0,0,-22,-53,-22,-146V0Z" 
id="f1_w"
transform="scale(0.001,-0.001)" />

<path d="M102,0V792H236V0Zm0,939v154H236V939Z" 
id="f1_x"
transform="scale(0.001,-0.001)" />

<path d="M386,-17c0,0,-155,0,-236,64c0,0,-81,64,-103,190l133,20c0,0,11,-79,62,-122c0,0,51,-42,143,-42c0,0,93,0,138,37c0,0,44,38,44,89c0,0,0,45,-39,71c0,0,-28,18,-138,46c0,0,-147,37,-204,64c0,0,-58,27,-87,75c0,0,-30,48,-30,107c0,0,0,52,25,98c0,0,24,45,66,74c0,0,31,24,85,40c0,0,54,16,116,16c0,0,93,0,164,-27c0,0,70,-27,104,-73c0,0,33,-46,46,-122L544,570c0,0,-9,61,-52,95c0,0,-43,34,-121,34c0,0,-93,0,-132,-30c0,0,-40,-31,-40,-72c0,0,0,-26,17,-47c0,0,16,-21,51,-35c0,0,20,-8,119,-35c0,0,142,-38,199,-62c0,0,56,-24,88,-70c0,0,32,-47,32,-115c0,0,0,-67,-39,-126c0,0,-39,-60,-113,-92c0,0,-74,-32,-167,-32Z" 
id="f1_15"
transform="scale(0.001,-0.001)" />

<path d="M247,0L4,792H143L270,335L316,165c0,0,3,12,41,163L484,792H620L740,333L779,181l45,153L960,792h131L843,0H704L578,474L547,609L386,0Z" 
id="f1_19"
transform="scale(0.001,-0.001)" />

<path d="M422,93c0,0,100,0,167,76c0,0,66,76,66,231c0,0,0,147,-67,223c0,0,-66,75,-166,75c0,0,-100,0,-167,-75c0,0,-66,-75,-66,-227c0,0,0,-152,66,-228c0,0,67,-75,167,-75Zm0,-110c0,0,-166,0,-269,106C153,89,51,196,51,396c0,0,0,220,122,326c0,0,102,88,249,88c0,0,164,0,267,-107c0,0,104,-107,104,-296c0,0,0,-153,-46,-240C747,167,701,79,614,31c0,0,-88,-48,-192,-48Z" 
id="f1_12"
transform="scale(0.001,-0.001)" />

<path d="M99,0V792H219V672c0,0,46,84,86,111c0,0,39,27,86,27c0,0,68,0,138,-43L482,642c0,0,-49,29,-98,29c0,0,-44,0,-79,-27c0,0,-35,-26,-50,-73c0,0,-22,-72,-22,-157V0Z" 
id="f1_14"
transform="scale(0.001,-0.001)" />

<path d="M101,0V1093H235V470L554,792H728L425,498L758,0H592L329,405L235,314V0Z" 
id="f1_y"
transform="scale(0.001,-0.001)" />

<path d="M98,0V1093H232V0Z" 
id="f1_z"
transform="scale(0.001,-0.001)" />

<path d="M420,-17c0,0,-163,0,-262,106c0,0,-98,106,-98,304c0,0,0,128,42,224c0,0,43,96,129,145c0,0,87,48,189,48c0,0,129,0,211,-66c0,0,82,-65,106,-185L606,539c0,0,-19,80,-66,120c0,0,-48,40,-115,40c0,0,-101,0,-164,-72c0,0,-63,-73,-63,-230c0,0,0,-160,61,-232c0,0,61,-72,159,-72c0,0,79,0,132,48c0,0,53,49,67,149L749,273C749,273,728,137,639,59c0,0,-90,-76,-219,-76Z" 
id="f1_s"
transform="scale(0.001,-0.001)" />

<path d="M644,472c0,0,-9,100,-50,150c0,0,-65,77,-167,77c0,0,-93,0,-156,-62c0,0,-63,-61,-70,-165ZM433,-17c0,0,-174,0,-275,106C158,89,56,196,56,389c0,0,0,200,103,310c0,0,103,111,267,111c0,0,159,0,259,-108c0,0,101,-109,101,-304c0,0,0,-12,-1,-36H194c0,0,7,-131,74,-200c0,0,66,-69,166,-69c0,0,74,0,126,39c0,0,52,39,83,124L782,239C782,239,749,117,660,50c0,0,-89,-67,-227,-67Z" 
id="f1_u"
transform="scale(0.001,-0.001)" />

<path d="M101,0V792H221V679c0,0,87,131,252,131c0,0,72,0,132,-26c0,0,60,-26,90,-68c0,0,30,-41,42,-99c0,0,7,-37,7,-130V0H610V482c0,0,0,82,-16,122c0,0,-15,41,-55,65c0,0,-40,24,-94,24c0,0,-86,0,-148,-54c0,0,-62,-55,-62,-207V0Z" 
id="f1_11"
transform="scale(0.001,-0.001)" />

<path d="M406,93c0,0,88,0,149,72c0,0,62,72,62,219c0,0,0,162,-63,238c0,0,-63,76,-154,76c0,0,-90,0,-150,-73c0,0,-60,-73,-60,-230c0,0,0,-152,64,-227c0,0,64,-75,152,-75ZM393,-17c0,0,-95,0,-174,52c0,0,-80,52,-123,145c0,0,-44,94,-44,215c0,0,0,119,39,215c0,0,40,97,119,148c0,0,79,52,177,52c0,0,71,0,127,-31c0,0,56,-30,91,-79v393H739V0H615V100c0,0,-75,-117,-222,-117Z" 
id="f1_t"
transform="scale(0.001,-0.001)" />

<path d="M369,-17c0,0,-70,0,-131,26c0,0,-61,27,-91,68c0,0,-29,40,-41,99c0,0,-8,40,-8,125V792H232V353c0,0,0,-105,8,-142c0,0,13,-53,54,-83c0,0,41,-30,101,-30c0,0,61,0,114,31c0,0,53,31,75,84c0,0,22,53,22,155V792H740V0H621V116c0,0,-93,-133,-252,-133Z" 
id="f1_17"
transform="scale(0.001,-0.001)" />

<path d="M358,88c0,0,78,0,139,34c0,0,60,34,89,92c0,0,21,46,21,134l1,49c0,0,-73,-30,-221,-51c0,0,-83,-11,-117,-26c0,0,-35,-15,-54,-44c0,0,-18,-28,-18,-63c0,0,0,-54,40,-89c0,0,41,-36,120,-36ZM326,-17c0,0,-131,0,-201,63c0,0,-70,64,-70,163c0,0,0,58,26,106c0,0,27,48,70,77c0,0,43,29,97,44c0,0,39,11,119,20c0,0,163,20,240,47c0,0,1,27,1,35c0,0,0,81,-38,115c0,0,-52,45,-153,45c0,0,-95,0,-141,-33c0,0,-45,-33,-67,-116L78,566c0,0,18,84,59,136c0,0,41,52,119,80c0,0,78,28,180,28c0,0,102,0,165,-24c0,0,64,-24,94,-60c0,0,29,-36,41,-91c0,0,7,-35,7,-124V332c0,0,0,-187,9,-236c0,0,8,-50,33,-96H645c0,0,-20,42,-26,98C619,98,544,34,475,8c0,0,-70,-25,-149,-25Z" 
id="f1_q"
transform="scale(0.001,-0.001)" />

<path d="M590,-18c0,0,-177,0,-287,71c0,0,-111,72,-169,209c0,0,-58,137,-58,293c0,0,0,171,66,298c0,0,65,128,185,194c0,0,121,66,265,66c0,0,164,0,276,-84c0,0,112,-84,156,-235L881,760c0,0,-38,120,-110,174c0,0,-72,55,-182,55c0,0,-126,0,-210,-61c0,0,-85,-60,-119,-162c0,0,-34,-102,-34,-210c0,0,0,-139,40,-243c0,0,41,-104,127,-156c0,0,85,-51,185,-51c0,0,122,0,206,70c0,0,84,70,114,208l145,-37c0,0,-46,-178,-164,-272c0,0,-118,-93,-289,-93Z" 
id="f1_k"
transform="scale(0.001,-0.001)" />

<path d="M312,-10c0,0,-73,0,-114,22c0,0,-40,23,-56,61c0,0,-17,38,-17,159V687H26V792h99V988l134,81V792H394V687H259V224c0,0,0,-57,7,-74c0,0,7,-16,23,-26c0,0,16,-10,46,-10c0,0,23,0,59,6L414,1c0,0,-57,-11,-102,-11Z" 
id="f1_16"
transform="scale(0.001,-0.001)" />

<path d="M320,0L20,792H161L331,318c0,0,28,-77,51,-160c0,0,18,63,50,151L608,792H746L447,0Z" 
id="f1_18"
transform="scale(0.001,-0.001)" />

<path d="M101,0V792H220V681c0,0,37,58,99,93c0,0,62,36,141,36c0,0,88,0,145,-37c0,0,56,-36,79,-102c0,0,94,139,245,139c0,0,118,0,182,-66c0,0,63,-65,63,-201V0H1040V499c0,0,0,80,-13,116c0,0,-13,35,-47,57c0,0,-35,21,-81,21c0,0,-83,0,-139,-55c0,0,-55,-56,-55,-178V0H571V514c0,0,0,90,-33,135c0,0,-33,44,-107,44c0,0,-57,0,-105,-30c0,0,-48,-29,-70,-87c0,0,-21,-57,-21,-165V0Z" 
id="f1_10"
transform="scale(0.001,-0.001)" />

<path d="M684,450L570,752c0,0,-52,138,-78,227c0,0,-21,-105,-59,-209L313,450ZM-1,0L417,1093H574L1021,0H857L729,331H271L152,0Z" 
id="f1_i"
transform="scale(0.001,-0.001)" />

<path d="M433,93c0,0,88,0,152,76c0,0,64,77,64,228c0,0,0,155,-61,228c0,0,-62,74,-149,74c0,0,-89,0,-153,-76c0,0,-64,-77,-64,-221c0,0,0,-142,39,-206c0,0,63,-103,172,-103ZM444,-17c0,0,-140,0,-220,117V0H100V1093H234V703c0,0,85,107,217,107c0,0,73,0,139,-30c0,0,65,-29,107,-83c0,0,42,-53,66,-128c0,0,24,-75,24,-161c0,0,0,-204,-101,-315C686,93,585,-17,444,-17Z" 
id="f1_r"
transform="scale(0.001,-0.001)" />

<path d="M48,329V463H461V329Z" 
id="f1_5"
transform="scale(0.001,-0.001)" />

<path d="M535,-18c0,0,-149,0,-249,43c0,0,-100,43,-158,130c0,0,-57,87,-60,197l137,12c0,0,10,-83,45,-135c0,0,36,-53,110,-86c0,0,75,-32,168,-32c0,0,83,0,146,24c0,0,63,25,94,68c0,0,31,43,31,94c0,0,0,51,-30,90c0,0,-30,38,-98,64c0,0,-44,17,-195,54c0,0,-151,36,-211,68c0,0,-79,41,-117,102c0,0,-38,61,-38,136c0,0,0,83,47,155c0,0,47,72,137,109c0,0,90,38,200,38c0,0,122,0,215,-39c0,0,93,-40,143,-116c0,0,50,-76,54,-172L767,775c0,0,-11,104,-76,158c0,0,-64,53,-190,53c0,0,-132,0,-192,-49c0,0,-60,-48,-60,-116c0,0,0,-59,43,-97c0,0,42,-38,218,-78c0,0,176,-40,242,-70c0,0,96,-44,141,-111c0,0,46,-68,46,-156c0,0,0,-87,-50,-165C889,144,839,67,745,24c0,0,-93,-42,-210,-42Z" 
id="f1_o"
transform="scale(0.001,-0.001)" />

<path d="M494,385V878L152,385ZM494,0V262H20V385l498,708H628V385H775V262H628V0Z" 
id="f1_c"
transform="scale(0.001,-0.001)" />

<path d="M139,0V153H291V0Z" 
id="f1_6"
transform="scale(0.001,-0.001)" />

<path d="M420,92c0,0,92,0,155,89c0,0,64,89,64,358c0,0,0,270,-63,359c0,0,-63,89,-158,89c0,0,-92,0,-147,-79c0,0,-70,-100,-70,-369c0,0,0,-269,63,-358c0,0,63,-89,156,-89Zm0,-110c0,0,-158,0,-248,112C172,94,64,231,64,539c0,0,0,194,39,313c0,0,40,118,119,182c0,0,79,64,198,64c0,0,88,0,155,-35c0,0,66,-36,109,-103c0,0,43,-66,68,-162c0,0,24,-96,24,-259c0,0,0,-192,-39,-311C737,228,697,110,619,46c0,0,-79,-64,-199,-64Z" 
id="f1_8"
transform="scale(0.001,-0.001)" />

<path d="M143,0V1093H287V0Z" 
id="f1_m"
transform="scale(0.001,-0.001)" />

<path d="M111,0V1093H256V129H795V0Z" 
id="f1_n"
transform="scale(0.001,-0.001)" />

<path d="M433,93c0,0,90,0,154,75c0,0,63,76,63,235c0,0,0,151,-62,226c0,0,-62,75,-149,75c0,0,-85,0,-151,-80c0,0,-66,-80,-66,-233c0,0,0,-152,62,-225c0,0,62,-73,149,-73ZM101,-303V792H223V688c0,0,43,61,98,91c0,0,54,31,132,31c0,0,101,0,179,-53c0,0,77,-52,117,-147c0,0,39,-95,39,-208c0,0,0,-122,-44,-219C744,183,701,86,618,34c0,0,-84,-51,-175,-51c0,0,-67,0,-121,28c0,0,-53,28,-87,71V-303Z" 
id="f1_13"
transform="scale(0.001,-0.001)" />

<path d="M138,0V153H290V0Zm0,639V792H290V639Z" 
id="f1_h"
transform="scale(0.001,-0.001)" />

<path d="M0,-18L317,1113H425L108,-18Z" 
id="f1_7"
transform="scale(0.001,-0.001)" />

<path d="M404,111c0,0,93,0,155,72c0,0,63,71,63,223c0,0,0,145,-65,218c0,0,-64,74,-155,74c0,0,-89,0,-152,-72c0,0,-62,-73,-62,-216c0,0,0,-156,61,-227c0,0,62,-72,155,-72ZM390,-321c0,0,-142,0,-230,64c0,0,-87,64,-84,193L207,-84c0,0,8,-60,46,-88c0,0,49,-37,136,-37c0,0,93,0,144,37c0,0,50,37,68,104c0,0,11,41,10,172C611,104,523,0,392,0C392,0,229,0,139,118c0,0,-89,118,-89,282c0,0,0,114,41,209c0,0,41,96,119,148c0,0,77,53,183,53c0,0,140,0,231,-114v96H748V107c0,0,0,-184,-38,-261c0,0,-38,-77,-119,-122c0,0,-82,-45,-201,-45Z" 
id="f1_v"
transform="scale(0.001,-0.001)" />

<path d="M182,-321c0,0,-39,0,-87,17L80,-178c0,0,44,-12,77,-12c0,0,45,0,72,15c0,0,26,15,44,42c0,0,12,20,41,100c0,0,3,11,12,33L24,792H169L334,334c0,0,32,-87,58,-183c0,0,23,91,55,179L616,792H750L450,-13c0,0,-49,-130,-75,-179c0,0,-36,-67,-83,-98c0,0,-46,-31,-110,-31Z" 
id="f1_1a"
transform="scale(0.001,-0.001)" />

<path d="M121,0V1093H911V964H266V630H870V501H266V129H937V0Z" 
id="f1_l"
transform="scale(0.001,-0.001)" />

<path d="M529,129c0,0,70,0,99,5c0,0,50,9,83,30c0,0,34,21,56,61c0,0,21,40,21,92c0,0,0,61,-31,106c0,0,-32,45,-87,63c0,0,-56,19,-161,19H256V129ZM493,634c0,0,96,0,138,12c0,0,55,17,83,55c0,0,28,38,28,95c0,0,0,55,-26,96c0,0,-26,42,-74,57c0,0,-49,15,-167,15H256V634ZM111,0V1093H522c0,0,126,0,201,-33c0,0,76,-33,119,-102c0,0,43,-69,43,-144c0,0,0,-70,-38,-132c0,0,-38,-62,-115,-100c0,0,99,-29,153,-99c0,0,53,-71,53,-166c0,0,0,-77,-33,-143c0,0,-32,-66,-80,-102C825,72,777,37,705,18C705,18,633,0,529,0Z" 
id="f1_j"
transform="scale(0.001,-0.001)" />

<path d="M435,0V856c0,0,-48,-47,-127,-93c0,0,-79,-46,-142,-69V824c0,0,113,52,197,128c0,0,85,75,120,146h86V0Z" 
id="f1_9"
transform="scale(0.001,-0.001)" />

<path d="M102,706L67,910v183H220V910L184,706Z" 
id="f1_4"
transform="scale(0.001,-0.001)" />

<path d="M46,0c0,0,-2,48,16,93c0,0,27,74,88,146c0,0,61,71,176,165c0,0,178,146,241,232c0,0,63,85,63,161c0,0,0,80,-57,135c0,0,-58,55,-149,55c0,0,-98,0,-156,-59c0,0,-58,-58,-59,-160L71,782c0,0,15,154,107,235c0,0,93,81,249,81c0,0,157,0,249,-87c0,0,92,-88,92,-217c0,0,0,-65,-27,-129c0,0,-27,-63,-89,-133c0,0,-62,-70,-207,-193C445,339,324,238,290,202c0,0,-35,-36,-57,-73H770V0Z" 
id="f1_a"
transform="scale(0.001,-0.001)" />

<path d="M108,706L70,914v179H223V914L189,706Zm247,0L319,914v179H471V914L436,706Z" 
id="f1_3"
transform="scale(0.001,-0.001)" />

<path d="M435,92c0,0,86,0,147,69c0,0,60,68,60,186c0,0,0,114,-60,179c0,0,-60,66,-152,66c0,0,-91,0,-154,-66c0,0,-64,-65,-64,-171c0,0,0,-70,30,-133c0,0,29,-64,82,-97c0,0,52,-33,111,-33Zm3,-110c0,0,-168,0,-274,123C164,105,58,228,58,512c0,0,0,317,117,461c0,0,102,125,275,125c0,0,129,0,212,-72c0,0,82,-72,99,-200L627,815c0,0,-18,79,-51,115c0,0,-54,58,-134,58c0,0,-64,0,-113,-36c0,0,-63,-46,-99,-135c0,0,-37,-89,-38,-253c0,0,48,74,118,110c0,0,70,36,147,36c0,0,135,0,229,-99c0,0,94,-99,94,-256c0,0,0,-103,-44,-191C736,164,691,75,614,28c0,0,-78,-46,-176,-46Z" 
id="f1_e"
transform="scale(0.001,-0.001)" />

<path d="M412,-18c0,0,-144,0,-239,85c0,0,-95,86,-108,222l133,18c0,0,24,-114,79,-164c0,0,55,-50,135,-50c0,0,96,0,161,65c0,0,65,66,65,163c0,0,0,92,-61,152c0,0,-60,60,-153,60c0,0,-38,0,-95,-15l15,119c0,0,13,-2,21,-2c0,0,86,0,155,45c0,0,69,44,69,137c0,0,0,74,-50,122c0,0,-50,49,-129,49c0,0,-79,0,-131,-50c0,0,-52,-49,-67,-147L78,815c0,0,25,135,112,209c0,0,87,74,217,74c0,0,89,0,164,-38c0,0,76,-39,116,-105c0,0,40,-66,40,-141c0,0,0,-70,-39,-129c0,0,-38,-58,-112,-92c0,0,97,-22,151,-93c0,0,53,-70,53,-176c0,0,0,-143,-104,-243c0,0,-105,-99,-264,-99Z" 
id="f1_b"
transform="scale(0.001,-0.001)" />

<path d="M415,-18c0,0,-149,0,-244,83c0,0,-94,84,-107,222l140,11c0,0,16,-103,73,-154c0,0,56,-52,137,-52c0,0,98,0,165,73c0,0,66,73,66,194c0,0,0,115,-64,182c0,0,-64,66,-169,66c0,0,-65,0,-117,-29c0,0,-52,-30,-82,-77L87,517l106,562H736V951H300L241,657c0,0,99,69,207,69c0,0,143,0,242,-100c0,0,98,-99,98,-255c0,0,0,-149,-86,-257C702,114,597,-18,415,-18Z" 
id="f1_d"
transform="scale(0.001,-0.001)" />

<path d="M423,92c0,0,97,0,159,62c0,0,62,62,62,157c0,0,0,97,-64,160c0,0,-64,64,-161,64c0,0,-96,0,-158,-63c0,0,-62,-62,-62,-156c0,0,0,-58,27,-111c0,0,27,-54,81,-84c0,0,54,-29,116,-29Zm0,552c0,0,78,0,127,49c0,0,49,49,49,120c0,0,0,74,-50,124c0,0,-51,51,-128,51c0,0,-77,0,-127,-50c0,0,-51,-49,-51,-118c0,0,0,-77,50,-126c0,0,50,-50,130,-50ZM422,-18c0,0,-162,0,-261,95c0,0,-99,96,-99,239c0,0,0,107,54,179c0,0,54,72,154,98c0,0,-84,31,-124,87c0,0,-40,57,-40,136c0,0,0,119,85,201c0,0,86,81,229,81c0,0,143,0,230,-83c0,0,87,-83,87,-203c0,0,0,-76,-40,-132c0,0,-39,-56,-121,-87c0,0,101,-33,154,-106c0,0,52,-73,52,-174c0,0,0,-141,-99,-236c0,0,-99,-95,-261,-95Z" 
id="f1_f"
transform="scale(0.001,-0.001)" />

<path d="M420,489c0,0,93,0,153,65c0,0,60,65,60,181c0,0,0,116,-62,184c0,0,-61,68,-148,68c0,0,-90,0,-156,-74c0,0,-66,-73,-66,-189c0,0,0,-105,63,-170c0,0,63,-65,156,-65ZM391,-18c0,0,-128,0,-209,71c0,0,-82,71,-98,200l129,12c0,0,17,-91,63,-132c0,0,46,-41,118,-41c0,0,62,0,109,28c0,0,47,29,76,76c0,0,30,47,50,128c0,0,20,80,20,164c0,0,0,9,-1,27c0,0,-40,-65,-110,-105c0,0,-69,-39,-151,-39c0,0,-135,0,-229,98c0,0,-94,99,-94,260c0,0,0,166,98,268c0,0,98,101,245,101c0,0,107,0,195,-57c0,0,89,-58,134,-164c0,0,46,-106,46,-308c0,0,0,-209,-45,-334C737,235,691,111,602,46c0,0,-90,-64,-211,-64Z" 
id="f1_g"
transform="scale(0.001,-0.001)" />


</defs>

<!-- Any embedded fonts defined here -->
<style type="text/css" ><![CDATA[

@font-face {
	font-family: ArialMT_a;
	src: url("fonts/ArialMT_a.woff") format("woff");
}

@font-face {
	font-family: Arial-Black_9;
	src: url("fonts/Arial-Black_9.woff") format("woff");
}

]]></style>

</svg>
