<?xml version="1.0" encoding="utf-8"?>
<!-- Generator: Adobe Illustrator 20.1.0, SVG Export Plug-In . SVG Version: 6.00 Build 0)  -->
<svg version="1.1" id="Layer_10_1_" xmlns="http://www.w3.org/2000/svg" xmlns:xlink="http://www.w3.org/1999/xlink" x="0px"
	 y="0px" viewBox="0 0 473.1 363.9" style="enable-background:new 0 0 473.1 363.9;" xml:space="preserve">
<style type="text/css">
	.st0{fill:#8F7B5C;}
	.st1{fill:#F7C283;}
	.st2{fill:#9F7C52;}
	.st3{fill:#D1A46E;}
	.st4{fill:#DFC093;}
	.st5{fill:#B59529;}
	.st6{fill:#BDA27C;}
	.st7{fill:#997D21;}
	.st8{fill:#777777;}
	.st9{fill:#A4A4A5;}
	.st10{fill:#8A8A8B;}
	.st11{fill:#8C8D8D;}
	.st12{fill:#BBBBBC;}
	.st13{fill:#9E9E9E;}
	.st14{fill:#543404;}
	.st15{fill:#6A4109;}
	.st16{fill:#87550D;}
	.st17{fill:#9F6512;}
	.st18{fill:#B17115;}
	.st19{fill:#BD7918;}
	.st20{fill:#C27C19;}
	.st21{fill:#BF7B18;}
	.st22{fill:#B67416;}
	.st23{fill:#A66A14;}
	.st24{fill:#915B0F;}
	.st25{fill:#75490A;}
	.st26{fill:#6F4508;}
	.st27{fill:#653718;}
	.st28{fill:#A95F2F;}
	.st29{fill:#915127;}
	.st30{fill:#A45C2E;}
	.st31{fill:#A75E2E;}
	.st32{fill:#9F592B;}
	.st33{fill:#7D4621;}
	.st34{fill:#8A4D25;}
	.st35{fill:#75411E;}
	.st36{fill:#5B3115;}
	.st37{fill:#49260E;}
	.st38{fill:none;stroke:#000000;stroke-width:0.5;stroke-linecap:round;stroke-linejoin:round;stroke-miterlimit:10;}
	.st39{fill:none;stroke:#000000;stroke-linecap:round;stroke-linejoin:round;stroke-miterlimit:10;}
</style>
<g>
	<g>
		<g>
			<polygon class="st0" points="188.2,144.8 195.4,143.4 195.6,153.5 188.3,149.8 			"/>
			<polygon class="st1" points="195.4,143.4 188.2,144.8 188.2,142.7 195.3,141.3 			"/>
			<polygon class="st0" points="188.3,149.8 195.6,153.5 196.6,195.9 189.5,197.5 			"/>
			<polygon class="st0" points="189.5,197.5 196.6,195.9 196.8,204.5 189.6,200.3 			"/>
			<polygon class="st0" points="189.6,200.3 196.8,204.5 198.3,266.2 191.2,261.4 			"/>
			<polygon class="st2" points="195.3,141.3 188.2,142.7 188.1,141 195.3,139.6 			"/>
			<polygon class="st2" points="191.2,261.4 198.3,266.2 198.4,272.2 185,263.1 			"/>
			<polygon class="st1" points="191.2,261.4 185,263.1 180.2,84.3 186.8,86.9 188.1,141 188.2,142.7 188.2,144.8 188.3,149.8 
				189.5,197.5 189.6,200.3 			"/>
			<polygon class="st3" points="180.2,84.3 185,263.1 183.5,262 183.4,256.1 181.8,199.3 181.7,195.7 180.4,146.3 180.3,144.2 
				178.7,83.6 			"/>
			<polygon class="st3" points="180.2,84.3 178.7,83.6 178.4,83.5 175.9,82.5 170.6,80.4 164.2,77.8 162.7,77.3 159,75.8 157,74.9 
				155.3,74.3 149,71.7 147.6,71.2 140.8,68.5 134.5,65.9 133.2,65.4 132.4,65.1 126.9,62.9 120.7,60.4 119.5,59.9 114.3,57.9 
				108.2,55.4 107,54.9 106.9,52.2 191.9,85.9 195.7,87.4 195.8,90.5 194.1,89.8 186.8,86.9 			"/>
			<polygon class="st3" points="119.5,59.9 120.7,60.4 127.6,223.7 126.3,222.8 126.1,217.4 125.9,212 123.8,162.1 123.6,157.3 
				123.5,155.1 123.4,153.4 			"/>
			<polygon class="st3" points="133.2,65.4 134.5,65.9 140.9,232.8 139.6,231.9 139.4,226.4 138.7,209 137.2,169.9 136.6,154.7 
				136.6,152.6 136.5,151.4 			"/>
			<polygon class="st3" points="162.7,77.3 164.2,77.8 169.6,252.5 168.2,251.5 168,245.7 166.6,202.7 166.1,186.7 165,149.3 
				164.9,147.2 164.9,145.5 			"/>
			<polygon class="st3" points="147.6,71.2 149,71.7 154.9,242.4 153.6,241.5 153.4,235.9 152.3,206 151.3,178.1 150.4,152.1 
				150.3,150 150.3,148.2 			"/>
			<polygon class="st3" points="195.7,87.4 191.9,85.9 191.9,82.7 195.6,84.2 			"/>
			<polygon class="st3" points="191.9,82.7 191.9,85.9 106.9,52.2 104.1,51.1 104,48.4 			"/>
			<polygon class="st1" points="195.7,87.4 195.6,84.2 357.9,58.8 357.9,61.7 202.3,86.3 			"/>
			<polygon class="st1" points="357.9,61.7 357.9,58.8 427.2,48 427.1,50.7 422.3,51.5 			"/>
			<polygon class="st2" points="357.9,58.8 195.6,84.2 191.9,82.7 198.4,81.7 198.9,81.6 200.8,81.3 216.2,78.9 218.8,78.5 
				220.7,78.3 234.8,76.1 235,76 236.1,75.9 240.3,75.2 246.6,74.2 247.8,74.1 252,73.4 259.3,72.3 260.5,72.1 264.9,71.4 
				272.6,70.2 273.8,70 278.2,69.3 286.4,68.1 287.7,67.9 292.1,67.2 300.8,65.9 302.1,65.6 306.6,64.9 315.1,63.6 316.5,63.4 
				318,63.2 322.5,62.5 331.5,61.1 333,60.9 337.6,60.1 348,58.5 349.5,58.3 353.7,57.7 			"/>
			<polygon class="st2" points="357.9,58.8 353.7,57.7 354.2,57.6 365.2,55.9 366.8,55.6 371.5,54.9 383.2,53.1 385,52.8 
				389.7,52.1 402.2,50.1 404,49.9 404.6,49.8 411.2,48.7 418,47.7 422.8,46.9 427.2,48 			"/>
			<polygon class="st3" points="104,48.4 104.1,51.1 39.7,25.6 37.5,24.7 37.4,22.3 			"/>
			<polygon class="st3" points="37.5,24.7 39.7,25.6 39.8,28 37.7,27.1 			"/>
			<polygon class="st4" points="421.2,214.6 421.2,215.6 354.7,234.2 354.7,233.1 412.6,217 414.6,216.4 416.6,215.9 			"/>
			<polygon class="st1" points="416.6,215.9 414.6,216.4 419.4,74.9 420.1,54.5 422.2,54.2 416.7,213.4 			"/>
			<polygon class="st1" points="414.6,216.4 412.6,217 417.4,75.2 419.4,74.9 			"/>
			<polygon class="st5" points="354.7,234.2 421.2,215.6 421,220.3 420.8,224.7 417.2,225.8 412.5,227.1 412.4,227.1 408.2,228.4 
				408,228.4 207.7,285.6 201.5,287.4 201.4,287.4 200.3,287.8 200,277.3 281.4,254.6 			"/>
			<polygon class="st4" points="354.7,233.1 354.7,234.2 281.4,254.6 281.4,253.5 283,253.1 285.4,252.4 			"/>
			<polygon class="st1" points="285.4,252.4 283,253.1 282.9,98.8 285.4,98.3 285.4,152.7 285.4,155.5 285.4,157.6 285.4,175.8 
				285.4,198.4 285.4,244.9 			"/>
			<polygon class="st4" points="281.4,253.5 281.4,254.6 200,277.3 200,276.1 206.2,274.4 208.9,273.7 211.5,272.9 275.7,255.1 
				278.1,254.4 280.6,253.7 			"/>
			<polygon class="st1" points="208.9,273.7 206.2,274.4 206.2,271.6 202.3,89.4 205.1,89 205.6,112.3 			"/>
			<polygon class="st1" points="211.5,272.9 208.9,273.7 205.6,112.3 208.4,111.8 208.9,137 208.9,138.7 208.9,140.7 209.3,160.3 
				210,192.9 210.3,212.3 211.4,265.2 			"/>
			<polygon class="st1" points="280.6,253.7 278.1,254.4 277.8,99.7 277.8,77.4 280.3,76.9 			"/>
			<polygon class="st1" points="278.1,254.4 275.7,255.1 275.3,100.1 277.8,99.7 			"/>
			<polygon class="st6" points="200,276.1 200,277.3 198.5,276.3 191.9,271.7 191.8,270.5 			"/>
			<polygon class="st6" points="191.8,270.5 191.9,271.7 111.7,216.2 111.7,215.2 114.4,217 			"/>
			<polygon class="st7" points="111.7,216.2 191.9,271.7 198.5,276.3 198.7,286.7 197.9,286.1 197.8,286 196.2,284.9 191.3,281.4 
				181.1,274.2 165.9,263.4 161.1,260 151.8,253.4 138.3,243.9 133.6,240.6 125.2,234.6 113.2,226.1 108.6,222.9 100.9,217.4 
				90.1,209.8 85.7,206.6 78.6,201.6 69,194.8 64.6,191.7 58,187.1 52.6,183.2 52.6,183.2 50.4,181.7 50.4,181.6 48.1,180 
				47.6,171.9 			"/>
			<polygon class="st6" points="111.7,215.2 111.7,216.2 47.6,171.9 46.7,171.2 46.6,170.3 48.7,171.8 			"/>
			<polygon class="st3" points="200,276.1 191.8,270.5 114.4,217 114.2,214.5 115.4,215.3 126.3,222.8 127.6,223.7 139.6,231.9 
				140.9,232.8 153.6,241.5 154.9,242.4 168.2,251.5 169.6,252.5 183.5,262 185,263.1 198.4,272.2 200,273.3 			"/>
			<polygon class="st3" points="39.8,28 39.7,25.6 104.1,51.1 106.9,52.2 107,54.9 105.8,54.4 101.1,52.6 95.1,50.1 94,49.7 
				90.6,48.3 89.1,47.7 83.2,45.4 82.1,44.9 77.6,43.1 71.7,40.8 70.7,40.4 66.6,38.7 60.8,36.4 59.8,36 56,34.5 50.3,32.2 
				49.4,31.8 46.3,30.6 40.7,28.4 			"/>
			<polygon class="st3" points="49.4,31.8 50.3,32.2 58.9,176.6 57.9,175.9 57.7,171.1 57.6,170 57.5,167.8 57.4,166 			"/>
			<polygon class="st3" points="59.8,36 60.8,36.4 69.1,183.6 68.2,183 67.9,178.1 67.3,168.2 67.2,165.9 67.1,164.1 			"/>
			<polygon class="st3" points="82.1,44.9 83.2,45.4 91,198.6 89.9,197.9 89.7,192.8 88.2,164.1 88.1,161.9 88,160.2 			"/>
			<polygon class="st3" points="70.7,40.4 71.7,40.8 79.8,191 78.8,190.3 78.6,185.3 77.5,166.2 77.4,164 77.3,162.2 			"/>
			<polygon class="st3" points="94,49.7 95.1,50.1 102.7,206.6 101.5,205.8 101.3,200.6 99.4,162 99.3,159.8 99.2,158 			"/>
			<polygon class="st3" points="37.7,27.1 39.8,28 48.6,169.5 46.5,168.1 			"/>
			<polygon class="st3" points="46.6,170.3 46.5,168.1 48.6,169.5 48.7,171.8 			"/>
			<polygon class="st3" points="48.7,171.8 48.6,169.5 49.5,170.1 57.9,175.9 58.9,176.6 68.2,183 69.1,183.6 78.8,190.3 79.8,191 
				89.9,197.9 91,198.6 101.5,205.8 102.7,206.6 113.1,213.7 114.2,214.5 114.4,217 111.7,215.2 			"/>
			<polygon class="st3" points="48.6,169.5 39.8,28 40.7,28.4 49.5,170.1 			"/>
			<polygon class="st1" points="420.1,54.5 419.4,74.9 417.4,75.2 412.9,76 407.9,76.9 403.2,77.7 401.4,78 389,80.2 384.3,81 
				382.5,81.3 370.9,83.4 366.2,84.2 364.6,84.5 353.7,86.4 349.1,87.2 347.5,87.5 337.2,89.3 332.7,90.1 331.2,90.3 322.2,91.9 
				317.7,92.7 316.3,92.9 314.9,93.2 306.4,94.6 302,95.4 300.6,95.7 292,97.2 287.7,97.9 286.4,98.2 285.4,98.3 282.9,98.8 
				282.9,76.5 			"/>
			<polygon class="st1" points="420.1,54.5 282.9,76.5 280.3,76.9 277.8,77.4 205.1,89 202.3,89.4 202.3,86.3 357.9,61.7 
				422.3,51.5 422.2,54.2 			"/>
			<polygon class="st1" points="282.9,76.5 282.9,98.8 283,253.1 281.4,253.5 280.6,253.7 280.3,76.9 			"/>
			<polygon class="st1" points="422.2,54.2 422.3,51.5 427.1,50.7 427,53.4 			"/>
			<polygon class="st1" points="202.3,86.3 202.3,89.4 195.8,90.5 195.7,87.4 			"/>
			<polygon class="st1" points="208.4,111.8 205.6,112.3 205.1,89 277.8,77.4 277.8,99.7 275.3,100.1 271.3,100.8 265,101.9 
				260.7,102.7 259.5,102.9 252.3,104.1 248.1,104.9 246.9,105.1 240.7,106.2 236.5,106.9 235.4,107.1 235.2,107.1 221.2,109.6 
				219.3,109.9 216.8,110.3 			"/>
			<polygon class="st3" points="417.4,75.2 412.6,217 408.4,215.1 408.5,212.3 408.6,209.8 408.7,206.6 412.9,76 			"/>
			<polygon class="st0" points="408.4,215.1 412.6,217 354.7,233.1 345.5,228.5 407.1,211.7 408.5,212.3 			"/>
			<polygon class="st3" points="408.5,212.3 407.1,211.7 315.7,171.1 315.7,168.8 317.1,169.4 330.2,175.2 331.6,175.9 346,182.2 
				347.5,182.9 362.5,189.5 364,190.2 379.7,197 381.3,197.8 397.6,205 399.3,205.7 408.6,209.8 			"/>
			<polygon class="st0" points="315.7,171.1 407.1,211.7 345.5,228.5 285.4,198.4 285.4,175.8 312.4,169.6 			"/>
			<polygon class="st3" points="315.7,171.1 312.4,169.6 285.4,157.6 285.4,155.5 286.3,155.9 287.6,156.5 300.4,162.1 301.7,162.7 
				314.3,168.2 315.7,168.8 			"/>
			<polygon class="st0" points="285.4,157.6 312.4,169.6 285.4,175.8 			"/>
			<polygon class="st0" points="285.4,198.4 345.5,228.5 285.4,244.9 			"/>
			<polygon class="st0" points="285.4,244.9 345.5,228.5 354.7,233.1 285.4,252.4 			"/>
			<polygon class="st3" points="275.3,100.1 275.7,255.1 271.9,252.8 271.9,248.6 271.8,248 271.6,191.5 271.6,178.9 271.5,151.4 
				271.5,149.3 271.5,146.6 271.3,100.8 			"/>
			<polygon class="st0" points="271.9,252.8 275.7,255.1 211.5,272.9 211.4,265.2 271.9,248.6 			"/>
			<polygon class="st0" points="271.9,248.6 211.4,265.2 210.3,212.3 271.8,248 			"/>
			<polygon class="st0" points="271.8,248 210.3,212.3 210,192.9 254.3,182.8 271.6,191.5 			"/>
			<polygon class="st0" points="254.3,182.8 210,192.9 209.3,160.3 			"/>
			<polygon class="st0" points="254.3,182.8 209.3,160.3 208.9,140.7 235.7,135.6 271.5,151.4 271.6,178.9 			"/>
			<polygon class="st1" points="235.7,135.6 208.9,140.7 208.9,138.7 219.8,136.6 221.6,136.3 235.7,133.5 			"/>
			<polygon class="st3" points="271.5,151.4 235.7,135.6 235.7,133.5 236.8,134 247.3,138.6 248.4,139.2 259.8,144.2 261,144.7 
				271.5,149.3 			"/>
			<polygon class="st1" points="221.6,136.3 219.8,136.6 219.3,109.9 221.2,109.6 221.6,134.6 			"/>
			<polygon class="st0" points="254.3,182.8 271.6,178.9 271.6,191.5 			"/>
			<polygon class="st3" points="219.3,109.9 219.8,136.6 217.2,135.4 216.8,110.3 			"/>
			<polygon class="st2" points="217.2,135.4 219.8,136.6 208.9,138.7 208.9,137 			"/>
			<polygon class="st7" points="46.7,171.2 47.6,171.9 48.1,180 47.6,179.7 47.2,179.4 			"/>
			<polygon class="st7" points="198.5,276.3 200,277.3 200.3,287.8 198.7,286.7 			"/>
			<polygon class="st7" points="198.7,286.7 200.3,287.8 201.4,287.4 201.6,295.8 198,293.2 197.9,286.1 			"/>
			<polygon class="st8" points="198,293.2 201.6,295.8 201.7,295.8 207.9,294 207.8,290.6 208.2,290.7 209.6,291.4 210.6,292.2 
				211,293 210.9,294 210.3,294.9 209.1,295.7 207.6,296.4 205.7,296.9 203.6,297.2 201.4,297.2 199.4,297 197.6,296.5 196.2,295.8 
				195.2,295 194.8,294.1 194.9,293.2 195.6,292.3 196.8,291.5 197.9,291 197.9,293.1 			"/>
			<polygon class="st9" points="207.9,294 201.7,295.8 201.5,287.4 207.7,285.6 207.8,290.6 			"/>
			<polygon class="st10" points="197.9,291 197.9,293.1 198,293.2 197.9,286.1 197.8,286 			"/>
			<polygon class="st10" points="201.4,287.4 201.6,295.8 201.7,295.8 201.5,287.4 			"/>
			<polygon class="st8" points="194.8,294.1 195.2,295 196.2,295.8 197.6,296.5 199.4,296.9 201.4,297.2 203.6,297.1 205.7,296.9 
				207.6,296.4 209.1,295.7 210.3,294.9 210.9,294 211,293 210.6,292.2 209.6,291.4 208.2,290.7 207.8,290.6 207.7,285.6 408,228.4 
				408,230.6 407.4,230.8 406.3,231.3 405.6,231.9 405.3,232.6 405.6,233.3 406.3,233.9 407.5,234.5 409,235 410.7,235.4 
				412.5,235.5 414.4,235.5 416.1,235.3 417.5,235 418.6,234.4 419.3,233.8 419.5,233.1 419.2,232.4 418.5,231.8 417.3,231.2 
				417,231.1 417.2,225.8 420.8,224.7 421,220.3 455.6,235.7 189.8,315.9 19,185.3 47.6,179.7 48.1,180 50.4,181.6 50.7,186.2 
				50.2,186.3 49.1,186.8 48.4,187.3 48.1,187.9 48.2,188.4 48.7,188.9 49.6,189.3 50.9,189.5 52.4,189.7 54,189.7 55.7,189.5 
				57.3,189.2 58.1,189 58.3,191 64.8,195.7 69,194.8 78.6,201.6 78.8,205.6 85.9,210.7 90.1,209.8 100.9,217.4 101.1,221.6 
				108.8,227.1 113.2,226.1 125.2,234.6 125.4,239 133.8,245 138.3,243.9 151.8,253.4 152,258 161.2,264.7 165.9,263.4 181.1,274.2 
				181.2,278.9 191.4,286.3 196.2,284.9 197.8,286 197.9,291 196.8,291.5 195.6,292.3 194.9,293.2 			"/>
			<polygon class="st11" points="406.3,233.9 405.6,233.3 405.3,232.6 405.6,231.9 406.3,231.3 407.4,230.8 408,230.6 407.9,232.5 
				408,232.5 412.1,234.5 412.3,234.5 416.9,233.2 417,231.1 417.3,231.2 418.5,231.8 419.2,232.4 419.5,233.1 419.3,233.8 
				418.6,234.4 417.5,235 416.1,235.3 414.4,235.5 412.5,235.5 410.7,235.4 409,235 407.5,234.5 			"/>
			<polygon class="st9" points="416.9,233.2 412.3,234.5 412.5,227.1 417.2,225.8 417,231.1 			"/>
			<polygon class="st10" points="408,228.4 408,230.6 407.9,232.5 408,232.5 408.2,228.4 			"/>
			<polygon class="st10" points="412.4,227.1 412.1,234.5 412.3,234.5 412.5,227.1 			"/>
			<polygon class="st7" points="412.1,234.5 408,232.5 408.2,228.4 412.4,227.1 			"/>
			<polygon class="st11" points="48.2,188.4 48.1,187.9 48.4,187.3 49.1,186.8 50.2,186.3 50.7,186.2 50.7,187.3 50.8,187.3 
				52.9,188.8 53,188.9 58.1,187.8 58.1,189 57.3,189.2 55.7,189.5 54,189.7 52.4,189.7 50.9,189.5 49.6,189.3 48.7,188.9 			"/>
			<polygon class="st9" points="58.1,187.8 53,188.9 52.6,183.2 58,187.1 			"/>
			<polygon class="st10" points="50.7,186.2 50.7,187.3 50.8,187.3 50.4,181.7 50.4,181.6 			"/>
			<polygon class="st10" points="52.9,188.8 53,188.9 52.6,183.2 52.6,183.2 			"/>
			<polygon class="st7" points="52.9,188.8 50.8,187.3 50.4,181.7 52.6,183.2 			"/>
			<polygon class="st12" points="165.9,263.4 161.2,264.7 161.1,260 			"/>
			<polygon class="st13" points="161.2,264.7 152,258 151.8,253.4 161.1,260 			"/>
			<polygon class="st12" points="196.2,284.9 191.4,286.3 191.3,281.4 			"/>
			<polygon class="st13" points="191.4,286.3 181.2,278.9 181.1,274.2 191.3,281.4 			"/>
			<polygon class="st12" points="138.3,243.9 133.8,245 133.6,240.6 			"/>
			<polygon class="st13" points="133.8,245 125.4,239 125.2,234.6 133.6,240.6 			"/>
			<polygon class="st12" points="113.2,226.1 108.8,227.1 108.6,222.9 			"/>
			<polygon class="st13" points="108.8,227.1 101.1,221.6 100.9,217.4 108.6,222.9 			"/>
			<polygon class="st12" points="90.1,209.8 85.9,210.7 85.7,206.6 			"/>
			<polygon class="st13" points="85.9,210.7 78.8,205.6 78.6,201.6 85.7,206.6 			"/>
			<polygon class="st12" points="69,194.8 64.8,195.7 64.6,191.7 			"/>
			<polygon class="st13" points="64.8,195.7 58.3,191 58.1,189 58.1,187.8 58,187.1 64.6,191.7 			"/>
			<polygon class="st2" points="179.4,7.2 231.3,1.7 234,2.3 181.9,7.9 			"/>
			<polygon class="st2" points="234,2.3 231.3,1.7 235.6,1.2 318,21.3 313.5,21.9 			"/>
			<polygon class="st1" points="181.9,7.9 234,2.3 234,4.5 182,10.1 			"/>
			<polygon class="st1" points="182,10.1 234,4.5 234.1,6.6 233.9,6.7 219.5,8.2 217.6,8.4 215,8.7 199.2,10.5 197.3,10.7 194.7,11 
				178.4,12.8 176.4,13 173.9,13.2 157,15.1 155,15.3 152.6,15.6 135.1,17.5 133,17.7 130.6,18 112.5,20 110.4,20.2 108.1,20.5 
				89.3,22.5 87.1,22.8 84.9,23 65.5,25.2 63.2,25.4 61.1,25.6 54.7,26.3 49.9,24.5 			"/>
			<polygon class="st1" points="133,17.7 135.1,17.5 136.6,57.9 134.5,57.1 			"/>
			<polygon class="st1" points="87.1,22.8 89.3,22.5 90.2,40 88,39.2 			"/>
			<polygon class="st1" points="110.4,20.2 112.5,20 113.8,49.1 111.6,48.3 			"/>
			<polygon class="st1" points="63.2,25.4 65.5,25.2 65.8,30.6 63.5,29.7 			"/>
			<polygon class="st3" points="234.1,6.6 234,4.5 313.4,24.3 316.8,25.2 316.8,27.6 315.4,27.2 306.8,25 302.3,23.9 300.9,23.5 
				292.2,21.3 287.7,20.2 286.4,19.9 278.1,17.8 273.7,16.7 272.4,16.3 264.6,14.4 260.2,13.2 258.9,12.9 251.5,11.1 247.2,10 
				246,9.7 239.5,8 235.2,6.9 			"/>
			<polygon class="st1" points="182,10.1 49.9,24.5 45,22.6 181.9,7.9 			"/>
			<polygon class="st3" points="234,4.5 234,2.3 313.5,21.9 313.4,24.3 			"/>
			<polygon class="st3" points="246,9.7 247.2,10 247.8,74.1 246.6,74.2 			"/>
			<polygon class="st3" points="258.9,12.9 260.2,13.2 260.5,72.1 259.3,72.3 			"/>
			<polygon class="st3" points="286.4,19.9 287.7,20.2 287.7,67.9 286.4,68.1 			"/>
			<polygon class="st3" points="272.4,16.3 273.7,16.7 273.8,70 272.6,70.2 			"/>
			<polygon class="st3" points="300.9,23.5 302.3,23.9 302.1,65.6 300.8,65.9 			"/>
			<polygon class="st3" points="133,17.7 134.5,57.1 132.1,56.2 130.6,18 			"/>
			<polygon class="st3" points="87.1,22.8 88,39.2 85.7,38.3 84.9,23 			"/>
			<polygon class="st3" points="110.4,20.2 111.6,48.3 109.9,47.6 109.3,47.4 108.1,20.5 			"/>
			<polygon class="st3" points="63.2,25.4 63.5,29.7 61.3,28.9 61.1,25.6 			"/>
			<polygon class="st1" points="176.4,13 178.4,12.8 180.1,74.6 178.1,73.9 			"/>
			<polygon class="st3" points="176.4,13 178.1,73.9 175.6,72.9 173.9,13.2 			"/>
			<polygon class="st3" points="154.2,64.7 152.6,15.6 155,15.3 156.6,65.6 			"/>
			<polygon class="st1" points="156.6,65.6 155,15.3 157,15.1 158.7,66.4 			"/>
			<polygon class="st3" points="196.3,80.9 194.7,11 197.3,10.7 198.9,81.6 198.4,81.7 			"/>
			<polygon class="st1" points="198.9,81.6 197.3,10.7 199.2,10.5 200.8,81.3 			"/>
			<polygon class="st3" points="216.2,78.9 215,8.7 217.6,8.4 218.8,78.5 			"/>
			<polygon class="st1" points="218.8,78.5 217.6,8.4 219.5,8.2 220.7,78.3 			"/>
			<polygon class="st3" points="234.8,76.1 233.9,6.7 234.1,6.6 235,76 			"/>
			<polygon class="st2" points="179.4,7.2 181.9,7.9 45,22.6 42.8,21.8 			"/>
			<polygon class="st2" points="42.8,21.8 45,22.6 49.9,24.5 54.7,26.3 61.3,28.9 63.5,29.7 65.8,30.6 85.7,38.3 88,39.2 90.2,40 
				109.3,47.4 109.9,47.6 104,48.4 37.4,22.3 			"/>
			<polygon class="st2" points="104,48.4 109.9,47.6 111.6,48.3 113.8,49.1 132.1,56.2 134.5,57.1 136.6,57.9 154.2,64.7 
				156.6,65.6 158.7,66.4 175.6,72.9 178.1,73.9 180.1,74.7 196.3,80.9 198.4,81.7 191.9,82.7 			"/>
			<polygon class="st3" points="313.4,24.3 313.5,21.9 418,47.7 411.2,48.7 316.8,25.2 			"/>
			<polygon class="st2" points="313.5,21.9 318,21.3 422.8,46.9 418,47.7 			"/>
			<polygon class="st14" points="393.2,284.2 393.5,286.1 394.2,261.6 393.9,259.7 			"/>
			<polygon class="st15" points="394.9,288.1 393.5,286.1 394.2,261.6 395.6,263.4 			"/>
			<polygon class="st16" points="397.4,289.8 394.9,288.1 395.7,263.4 398.2,265.1 			"/>
			<polygon class="st17" points="400.9,291.3 397.4,289.8 398.2,265.1 401.7,266.5 			"/>
			<polygon class="st18" points="405,292.4 400.9,291.3 401.7,266.5 405.8,267.5 			"/>
			<polygon class="st19" points="409.6,293 405,292.4 405.8,267.5 410.4,268.1 			"/>
			<polygon class="st20" points="414.2,293.1 409.6,293 410.4,268.1 415.1,268.2 			"/>
			<polygon class="st21" points="418.6,292.7 414.2,293.1 415.1,268.2 419.5,267.8 			"/>
			<polygon class="st22" points="422.4,291.7 418.6,292.7 419.5,267.8 423.3,266.9 			"/>
			<polygon class="st23" points="425.4,290.4 422.4,291.7 423.3,266.9 426.3,265.6 			"/>
			<polygon class="st24" points="427.3,288.7 425.4,290.4 426.3,265.6 428.3,264 			"/>
			<polygon class="st25" points="428.1,286.8 427.3,288.7 428.3,264 429,262.2 			"/>
			<polygon class="st26" points="424.4,256.9 427.1,258.6 428.6,260.4 429,262.2 428.3,264 426.3,265.6 423.3,266.9 419.5,267.8 
				415.1,268.2 410.4,268.1 405.8,267.5 401.7,266.5 398.2,265.1 395.6,263.4 394.2,261.6 393.9,259.7 394.9,258 396.9,256.4 
				399.9,255.2 401.1,254.9 400.9,260.2 401.1,261.3 402,262.4 403.5,263.4 405.6,264.3 408.1,264.9 410.8,265.2 413.6,265.3 
				416.2,265 418.5,264.5 420.3,263.8 421.5,262.8 422,261.7 422.2,256.1 			"/>
			<polygon class="st17" points="405.6,264.3 403.5,263.4 403.9,252.2 406,251.5 			"/>
			<polygon class="st18" points="408.1,264.9 405.6,264.3 406,251.5 408.6,250.7 			"/>
			<polygon class="st14" points="401.2,253 401.1,254.9 400.9,260.2 401.1,261.3 401.4,252.9 			"/>
			<polygon class="st27" points="422,261.7 421.5,262.8 422.1,246.7 422.6,246.5 422.2,256.1 			"/>
			<polygon class="st28" points="413.6,265.3 410.8,265.2 411.4,249.9 414.2,249.1 			"/>
			<polygon class="st16" points="403.5,263.4 402,262.4 402.3,252.6 403.9,252.2 			"/>
			<polygon class="st15" points="402,262.4 401.1,261.3 401.4,252.9 402.3,252.6 			"/>
			<polygon class="st29" points="420.3,263.8 418.5,264.5 419.1,247.6 420.9,247 			"/>
			<polygon class="st30" points="410.8,265.2 408.1,264.9 408.6,250.7 411.4,249.9 			"/>
			<polygon class="st31" points="416.2,265 413.6,265.3 414.2,249.1 416.8,248.3 			"/>
			<polygon class="st32" points="418.5,264.5 416.2,265 416.8,248.3 419.1,247.6 			"/>
			<polygon class="st33" points="421.5,262.8 420.3,263.8 420.9,247 422.1,246.7 			"/>
			<polygon class="st15" points="184.8,356.6 184.2,354 183.4,326.3 184,328.7 			"/>
			<polygon class="st16" points="186.8,358.9 184.8,356.6 184,328.7 186,330.9 			"/>
			<polygon class="st17" points="190,360.9 186.8,358.9 186,330.9 189.2,332.8 			"/>
			<polygon class="st18" points="194.2,362.3 190,360.9 189.2,332.8 193.5,334.2 			"/>
			<polygon class="st19" points="199.1,363.2 194.2,362.3 193.5,334.2 198.4,335 			"/>
			<polygon class="st20" points="204.4,363.3 199.1,363.2 198.4,335 203.7,335.1 			"/>
			<polygon class="st21" points="209.6,362.7 204.4,363.3 203.7,335.1 209.1,334.5 			"/>
			<polygon class="st22" points="214.5,361.5 209.6,362.7 209,334.5 214,333.4 			"/>
			<polygon class="st23" points="218.7,359.7 214.5,361.5 214,333.4 218.1,331.7 			"/>
			<polygon class="st24" points="221.8,357.5 218.7,359.7 218.1,331.7 221.3,329.5 			"/>
			<polygon class="st25" points="223.7,355 221.8,357.5 221.3,329.5 223.2,327.1 			"/>
			<polygon class="st14" points="224.2,352.4 223.7,355 223.2,327.1 223.8,324.7 			"/>
			<polygon class="st26" points="198.4,335 193.5,334.2 189.2,332.8 186,330.9 184,328.7 183.4,326.3 184.2,323.8 186.2,321.5 
				189.5,319.4 191.3,318.7 191.5,325.9 191.9,327.4 193.1,328.7 195,329.8 197.6,330.7 200.5,331.1 203.7,331.2 206.9,330.9 
				209.8,330.2 212.3,329.2 214.2,327.9 215.4,326.5 215.7,325 215.6,317.7 217.6,318.3 220.8,320.1 223,322.3 223.8,324.7 
				223.2,327.1 221.3,329.5 218.1,331.7 214,333.4 209,334.5 203.7,335.1 			"/>
			<polygon class="st31" points="206.9,330.9 203.7,331.2 203.3,312.8 206.4,311.8 			"/>
			<polygon class="st28" points="203.7,331.2 200.5,331.1 200.1,313.7 203.3,312.8 			"/>
			<polygon class="st30" points="200.5,331.1 197.6,330.7 197.2,314.6 200.1,313.7 			"/>
			<polygon class="st32" points="209.8,330.2 206.9,330.9 206.4,311.8 209.4,310.9 			"/>
			<polygon class="st18" points="197.6,330.7 195,329.8 194.7,315.4 197.2,314.6 			"/>
			<polygon class="st23" points="212.3,329.2 209.8,330.2 209.4,310.9 211.9,310.2 			"/>
			<polygon class="st34" points="195,329.8 193.1,328.7 192.8,316 194.7,315.4 			"/>
			<polygon class="st24" points="214.2,327.9 212.3,329.2 211.9,310.2 213.8,309.6 			"/>
			<polygon class="st35" points="193.1,328.7 191.9,327.4 191.6,316.3 192.8,316 			"/>
			<polygon class="st27" points="215.4,326.5 214.2,327.9 213.8,309.6 215,309.2 			"/>
			<polygon class="st36" points="191.3,316.4 191.3,318.7 191.5,325.9 191.9,327.4 191.6,316.3 			"/>
			<polygon class="st37" points="215,309.2 215.4,326.5 215.7,325 215.6,317.7 215.4,309.1 			"/>
			<polygon class="st17" points="44.6,239.4 42.6,238.2 41.2,216 43.2,217.1 			"/>
			<polygon class="st18" points="47.6,240.2 44.6,239.4 43.2,217.1 46.2,217.9 			"/>
			<polygon class="st19" points="51.2,240.7 47.6,240.2 46.2,217.9 49.8,218.4 			"/>
			<polygon class="st20" points="55.2,240.8 51.2,240.7 49.8,218.4 53.8,218.5 			"/>
			<polygon class="st21" points="59.4,240.4 55.2,240.8 53.8,218.5 58,218.1 			"/>
			<polygon class="st22" points="63.4,239.7 59.4,240.4 58,218.1 60.4,217.7 62.2,219.1 			"/>
			<polygon class="st23" points="67,238.7 63.4,239.7 62.2,219.1 66,222 			"/>
			<polygon class="st24" points="69.9,237.3 67,238.7 66,222 69.1,224.4 			"/>
			<polygon class="st25" points="71.9,235.9 69.9,237.3 69.1,224.4 71.3,226.1 			"/>
			<polygon class="st14" points="72.9,234.3 71.9,235.9 71.3,226.1 72.5,227 			"/>
			<polygon class="st15" points="72.9,234.3 72.8,232.8 72.5,227 72.5,227 			"/>
			<polygon class="st16" points="42.6,238.2 41.6,236.8 40.2,214.7 41.2,216 			"/>
			<polygon class="st26" points="43.2,217.1 41.2,216 40.2,214.7 40.2,213.3 41.4,211.8 43.5,210.4 46.2,209.3 46.5,213.9 
				47.1,214.7 48.4,215.4 50.1,215.9 52.3,216.1 54.7,216.2 57.2,216 58,215.8 60.4,217.7 58,218.1 53.8,218.5 49.8,218.4 
				46.2,217.9 			"/>
			<polygon class="st35" points="47.1,214.7 46.5,213.9 46.2,209.3 46,206.7 46.6,207.2 			"/>
			<polygon class="st17" points="48.4,215.4 47.1,214.7 46.6,207.2 47.9,208.1 			"/>
			<polygon class="st18" points="50.1,215.9 48.4,215.4 47.9,208.1 49.7,209.5 			"/>
			<polygon class="st19" points="52.3,216.1 50.1,215.9 49.7,209.5 52,211.3 			"/>
			<polygon class="st20" points="54.7,216.2 52.3,216.1 52,211.3 54.5,213.2 			"/>
			<polygon class="st21" points="57.2,216 54.7,216.2 54.5,213.2 57.1,215.2 			"/>
			<polygon class="st22" points="57.2,216 58,215.8 57.1,215.2 			"/>
			<polygon class="st3" points="331.6,175.9 330.2,175.2 330.2,172.3 331.2,90.3 332.7,90.1 			"/>
			<polygon class="st1" points="331.6,175.9 332.7,90.1 337.2,89.3 336.1,174.8 			"/>
			<polygon class="st2" points="331.6,175.9 336.1,174.8 346,179.2 346,182.2 			"/>
			<polygon class="st3" points="317.1,169.4 315.7,168.8 316.3,92.9 317.7,92.7 			"/>
			<polygon class="st1" points="317.1,169.4 317.7,92.7 322.2,91.9 321.5,168.4 			"/>
			<polygon class="st2" points="317.1,169.4 321.5,168.4 330.2,172.3 330.2,175.2 			"/>
			<polygon class="st3" points="316.3,92.9 315.7,168.8 314.3,168.2 314.3,165.3 314.9,93.2 			"/>
			<polygon class="st3" points="347.5,182.9 346,182.2 346,179.2 347.5,87.5 349.1,87.2 			"/>
			<polygon class="st1" points="347.5,182.9 349.1,87.2 353.7,86.4 352,181.8 			"/>
			<polygon class="st2" points="347.5,182.9 352,181.8 362.5,186.4 362.5,189.5 			"/>
			<polygon class="st3" points="381.3,197.8 379.7,197 379.7,193.9 382.5,81.3 384.3,81 			"/>
			<polygon class="st1" points="381.3,197.8 384.3,81 389,80.2 385.9,196.6 			"/>
			<polygon class="st2" points="381.3,197.8 385.9,196.6 397.7,201.8 397.6,205 			"/>
			<polygon class="st1" points="416.7,213.4 422.2,54.2 427,53.4 421.3,212.1 			"/>
			<polygon class="st1" points="416.7,213.4 421.3,212.1 421.2,214.6 416.6,215.9 			"/>
			<polygon class="st3" points="364,190.2 362.5,189.5 362.5,186.4 364.6,84.5 366.2,84.2 			"/>
			<polygon class="st1" points="364,190.2 366.2,84.2 370.9,83.4 368.6,189 			"/>
			<polygon class="st2" points="364,190.2 368.6,189 379.7,193.9 379.7,197 			"/>
			<polygon class="st3" points="399.3,205.7 397.6,205 397.7,201.8 401.4,78 403.2,77.7 			"/>
			<polygon class="st1" points="399.3,205.7 403.2,77.7 407.9,76.9 403.9,204.5 			"/>
			<polygon class="st2" points="399.3,205.7 403.9,204.5 408.7,206.6 408.6,209.8 			"/>
			<polygon class="st3" points="316.8,27.6 316.8,25.2 411.2,48.7 404.6,49.8 404,49.6 402.2,49.2 389.9,46 385.2,44.9 383.5,44.4 
				371.8,41.5 367.2,40.3 365.5,39.9 354.5,37.1 349.9,35.9 348.3,35.5 338,32.9 333.4,31.8 331.9,31.4 322.8,29.1 318.3,27.9 			
				"/>
			<polygon class="st3" points="331.9,31.4 333.4,31.8 333,60.9 331.5,61.1 			"/>
			<polygon class="st3" points="348.3,35.5 349.9,35.9 349.5,58.3 348,58.5 			"/>
			<polygon class="st3" points="383.5,44.4 385.2,44.9 385,52.8 383.2,53.1 			"/>
			<polygon class="st3" points="365.5,39.9 367.2,40.3 366.8,55.6 365.2,55.9 			"/>
			<polygon class="st3" points="402.2,50.1 404,49.9 404,49.6 402.2,49.2 			"/>
			<polygon class="st1" points="333,60.9 333.4,31.8 338,32.9 337.6,60.1 			"/>
			<polygon class="st1" points="322.8,29.1 322.5,62.5 318,63.2 318.3,27.9 			"/>
			<polygon class="st3" points="318.3,27.9 318,63.2 316.5,63.4 316.8,27.6 			"/>
			<polygon class="st3" points="316.8,27.6 316.5,63.4 315.1,63.6 315.4,27.2 			"/>
			<polygon class="st1" points="349.5,58.3 349.9,35.9 354.5,37.1 354.2,57.6 353.7,57.7 			"/>
			<polygon class="st1" points="385,52.8 385.2,44.9 389.9,46 389.7,52.1 			"/>
			<polygon class="st1" points="366.8,55.6 367.2,40.3 371.8,41.5 371.5,54.9 			"/>
			<polygon class="st1" points="404,49.9 404.6,49.8 404,49.6 			"/>
			<polygon class="st1" points="247.8,74.1 247.2,10 251.5,11.1 252,73.4 			"/>
			<polygon class="st3" points="248.4,139.2 247.3,138.6 247.2,136 246.9,105.1 248.1,104.9 			"/>
			<polygon class="st1" points="248.4,139.2 248.1,104.9 252.3,104.1 252.6,138.3 			"/>
			<polygon class="st2" points="248.4,139.2 252.6,138.3 259.8,141.5 259.8,144.2 			"/>
			<polygon class="st1" points="239.5,8 240.3,75.2 236.1,75.9 235.2,6.9 			"/>
			<polygon class="st3" points="235.2,6.9 236.1,75.9 235,76 234.1,6.6 			"/>
			<polygon class="st3" points="236.8,134 235.7,133.5 235.7,132 235.4,107.1 236.5,106.9 			"/>
			<polygon class="st1" points="236.8,134 236.5,106.9 240.7,106.2 241,133.2 			"/>
			<polygon class="st2" points="236.8,134 241,133.2 247.2,136 247.3,138.6 			"/>
			<polygon class="st1" points="260.5,72.1 260.2,13.2 264.6,14.4 264.9,71.4 			"/>
			<polygon class="st3" points="261,144.7 259.8,144.2 259.8,141.5 259.5,102.9 260.7,102.7 			"/>
			<polygon class="st1" points="261,144.7 260.7,102.7 265,101.9 265.2,143.8 			"/>
			<polygon class="st2" points="261,144.7 265.2,143.8 271.5,146.6 271.5,149.3 			"/>
			<polygon class="st1" points="287.7,67.9 287.7,20.2 292.2,21.3 292.1,67.2 			"/>
			<polygon class="st3" points="287.6,156.5 286.3,155.9 286.3,153.1 286.4,98.2 287.7,97.9 			"/>
			<polygon class="st1" points="287.6,156.5 287.7,97.9 292,97.2 291.9,155.5 			"/>
			<polygon class="st2" points="287.6,156.5 291.9,155.5 300.4,159.2 300.4,162.1 			"/>
			<polygon class="st1" points="273.8,70 273.7,16.7 278.1,17.8 278.2,69.3 			"/>
			<polygon class="st1" points="302.1,65.6 302.3,23.9 306.8,25 306.6,64.9 			"/>
			<polygon class="st3" points="301.7,162.7 300.4,162.1 300.4,159.2 300.6,95.7 302,95.4 			"/>
			<polygon class="st1" points="301.7,162.7 302,95.4 306.4,94.6 306.1,161.7 			"/>
			<polygon class="st2" points="301.7,162.7 306.1,161.7 314.3,165.3 314.3,168.2 			"/>
			<polygon class="st1" points="58.9,176.6 50.3,32.2 56,34.5 63.6,164.8 63.7,166.6 63.8,168.8 64.2,175.5 			"/>
			<polygon class="st2" points="58.9,176.6 64.2,175.5 67.9,178.1 68.2,183 			"/>
			<polygon class="st1" points="49.5,170.1 40.7,28.4 46.3,30.6 54.6,166.5 54.7,168.4 54.7,169.1 			"/>
			<polygon class="st2" points="49.5,170.1 54.7,169.1 56.4,170.3 57.7,171.1 57.9,175.9 			"/>
			<polygon class="st1" points="69.1,183.6 60.8,36.4 66.6,38.7 73.4,162.9 73.5,164.7 73.7,166.9 74.5,182.5 			"/>
			<polygon class="st2" points="69.1,183.6 74.5,182.5 78.6,185.3 78.8,190.3 			"/>
			<polygon class="st1" points="91,198.6 83.2,45.4 89.1,47.7 94.7,160.7 94.8,162.8 96.5,197.4 			"/>
			<polygon class="st2" points="91,198.6 96.5,197.4 101.3,200.6 101.5,205.8 			"/>
			<polygon class="st3" points="105.8,54.4 107,54.9 114.2,214.5 113.1,213.7 112.8,208.5 110.6,159.8 110.5,157.6 110.4,155.9 			
				"/>
			<polygon class="st3" points="114.2,214.5 107,54.9 108.2,55.4 115.4,215.3 			"/>
			<polygon class="st1" points="79.8,191 71.7,40.8 77.6,43.1 83.8,161 83.9,162.7 84,164.9 85.3,189.8 			"/>
			<polygon class="st2" points="79.8,191 85.3,189.8 89.7,192.8 89.9,197.9 			"/>
			<polygon class="st1" points="102.7,206.6 95.1,50.1 101.1,52.6 106,156.7 106.1,158.5 106.2,160.6 108.3,205.4 			"/>
			<polygon class="st2" points="102.7,206.6 108.3,205.4 112.8,208.5 113.1,213.7 			"/>
			<polygon class="st0" points="67.9,178.1 64.2,175.5 63.8,168.8 67.3,168.2 			"/>
			<polygon class="st1" points="67.3,168.2 63.8,168.8 63.7,166.6 67.2,165.9 			"/>
			<polygon class="st2" points="67.2,165.9 63.7,166.6 63.6,164.8 67.1,164.1 			"/>
			<polygon class="st0" points="78.6,185.3 74.5,182.5 73.7,166.9 77.5,166.2 			"/>
			<polygon class="st1" points="77.5,166.2 73.7,166.9 73.5,164.7 77.4,164 			"/>
			<polygon class="st2" points="77.4,164 73.5,164.7 73.4,162.9 77.3,162.2 			"/>
			<polygon class="st0" points="89.7,192.8 85.3,189.8 84,164.9 88.2,164.1 			"/>
			<polygon class="st1" points="88.2,164.1 84,164.9 83.9,162.7 88.1,161.9 			"/>
			<polygon class="st2" points="88.1,161.9 83.9,162.7 83.8,161 88,160.2 			"/>
			<polygon class="st0" points="101.3,200.6 96.5,197.4 94.8,162.8 99.4,162 			"/>
			<polygon class="st1" points="99.4,162 94.8,162.8 94.7,160.7 96.1,160.4 99.3,159.8 			"/>
			<polygon class="st1" points="96.1,160.4 94.7,160.7 89.1,47.7 90.6,48.3 96.1,158.6 			"/>
			<polygon class="st0" points="112.8,208.5 108.3,205.4 106.2,160.6 110.6,159.8 			"/>
			<polygon class="st1" points="110.6,159.8 106.2,160.6 106.1,158.5 110.5,157.6 			"/>
			<polygon class="st2" points="110.5,157.6 106.1,158.5 106,156.7 110.4,155.9 			"/>
			<polygon class="st1" points="127.6,223.7 120.7,60.4 126.9,62.9 130.5,152 130.6,153.8 130.7,155.9 131.1,166.3 132.9,210.4 
				133.3,222.3 			"/>
			<polygon class="st2" points="127.6,223.7 133.3,222.3 139.4,226.4 139.6,231.9 			"/>
			<polygon class="st1" points="115.4,215.3 108.2,55.4 114.3,57.8 118.5,154.3 118.6,156.1 118.7,158.2 118.7,159.2 121.1,213 
				121.1,214 			"/>
			<polygon class="st2" points="115.4,215.3 121.1,214 126.1,217.4 126.3,222.8 			"/>
			<polygon class="st1" points="140.9,232.8 134.5,65.9 140.8,68.5 143.8,149.5 143.8,151.2 143.9,153.3 144.7,174.2 145.9,207.4 
				146.8,231.4 			"/>
			<polygon class="st2" points="140.9,232.8 146.8,231.4 153.4,235.9 153.6,241.5 			"/>
			<polygon class="st1" points="169.6,252.5 164.2,77.8 170.6,80.4 172.5,144 172.6,145.7 172.6,147.8 173.9,191.2 174.2,201 
				175.6,250.9 			"/>
			<polygon class="st2" points="169.6,252.5 175.6,250.9 183.4,256.1 183.5,262 			"/>
			<polygon class="st1" points="195.8,90.5 202.3,89.4 206.2,271.6 200,273.3 			"/>
			<polygon class="st1" points="200,273.3 206.2,271.6 206.2,274.4 200,276.1 			"/>
			<polygon class="st3" points="195.8,90.5 200,273.3 198.4,272.2 198.3,266.2 196.8,204.5 196.6,195.9 195.6,153.5 195.4,143.4 
				195.3,141.3 195.3,139.6 194.1,89.8 			"/>
			<polygon class="st1" points="154.9,242.4 149,71.7 155.3,74.3 157.8,147.4 157.8,148.5 157.9,150.6 158.9,182.5 159.6,204.3 
				160.9,240.9 			"/>
			<polygon class="st2" points="154.9,242.4 160.9,240.9 168,245.7 168.2,251.5 			"/>
			<polygon class="st0" points="126.1,217.4 121.1,214 121.1,213 125.9,212 			"/>
			<polygon class="st0" points="125.9,212 121.1,213 118.7,159.2 123.8,162.1 			"/>
			<polygon class="st0" points="123.8,162.1 118.7,159.2 118.7,158.2 123.6,157.3 			"/>
			<polygon class="st1" points="123.6,157.3 118.7,158.2 118.6,156.1 123.5,155.1 			"/>
			<polygon class="st2" points="123.5,155.1 118.6,156.1 118.5,154.3 123.4,153.4 			"/>
			<polygon class="st0" points="139.4,226.4 133.3,222.3 132.9,210.4 138.7,209 			"/>
			<polygon class="st0" points="138.7,209 132.9,210.4 131.1,166.3 137.2,169.9 			"/>
			<polygon class="st0" points="137.2,169.9 131.1,166.3 130.7,155.9 136.6,154.7 			"/>
			<polygon class="st1" points="136.6,154.7 130.7,155.9 130.6,153.8 136.6,152.6 			"/>
			<polygon class="st2" points="136.6,152.6 130.6,153.8 130.5,152 135.8,151 136.5,151.4 			"/>
			<polygon class="st3" points="136.5,151.4 135.8,151 132.4,65.1 133.2,65.4 			"/>
			<polygon class="st0" points="153.4,235.9 146.8,231.4 145.9,207.4 152.3,206 			"/>
			<polygon class="st0" points="152.3,206 145.9,207.4 144.7,174.2 151.3,178.1 			"/>
			<polygon class="st0" points="151.3,178.1 144.7,174.2 143.9,153.3 150.4,152.1 			"/>
			<polygon class="st1" points="150.4,152.1 143.9,153.3 143.8,151.2 150.3,150 			"/>
			<polygon class="st2" points="150.3,150 143.8,151.2 143.8,149.5 150.3,148.2 			"/>
			<polygon class="st0" points="168,245.7 160.9,240.9 159.6,204.3 166.6,202.7 			"/>
			<polygon class="st0" points="166.6,202.7 159.6,204.3 158.9,182.5 166.1,186.7 			"/>
			<polygon class="st0" points="166.1,186.7 158.9,182.5 157.9,150.6 165,149.3 			"/>
			<polygon class="st1" points="165,149.3 157.9,150.6 157.8,148.5 159.4,148.2 161.3,147.9 164.9,147.2 			"/>
			<polygon class="st1" points="161.3,147.9 159.4,148.2 157,74.9 159,75.8 161.3,146.1 			"/>
			<polygon class="st3" points="157,74.9 159.4,148.2 157.8,147.4 155.3,74.3 			"/>
			<polygon class="st2" points="157.8,147.4 159.4,148.2 157.8,148.5 			"/>
			<polygon class="st0" points="183.4,256.1 175.6,250.9 174.2,201 181.8,199.3 			"/>
			<polygon class="st0" points="181.8,199.3 174.2,201 173.9,191.2 181.7,195.7 			"/>
			<polygon class="st0" points="181.7,195.7 173.9,191.2 172.6,147.8 180.4,146.3 			"/>
			<polygon class="st1" points="180.4,146.3 172.6,147.8 172.6,145.7 180,144.3 180.3,144.2 			"/>
			<polygon class="st1" points="180.3,144.2 180,144.3 178.4,83.5 178.7,83.6 			"/>
			<polygon class="st3" points="178.4,83.5 180,144.3 177.6,143 175.9,82.5 			"/>
			<polygon class="st2" points="177.6,143 180,144.3 172.6,145.7 172.5,144 			"/>
			<polygon class="st12" points="455.5,235.7 455.5,236.6 422.6,246.5 422.1,246.7 420.9,247 419.1,247.6 416.8,248.3 414.2,249.1 
				411.4,249.9 408.6,250.7 406,251.5 403.9,252.2 402.3,252.6 401.4,252.9 401.2,253 215.4,309.1 215,309.2 213.8,309.6 
				211.9,310.2 209.4,310.9 206.4,311.8 203.3,312.8 200.1,313.7 197.2,314.6 194.7,315.4 192.8,316 191.6,316.3 191.3,316.4 
				189.8,316.9 189.8,315.9 			"/>
			<polygon class="st13" points="189.8,315.9 189.8,316.9 72.5,227 72.5,227 71.3,226.1 69.1,224.4 66,222 62.2,219.1 60.4,217.7 
				58,215.8 57.1,215.2 54.5,213.2 52,211.3 49.7,209.5 47.9,208.1 46.6,207.2 46,206.7 19.1,186 19,185.3 			"/>
			<polygon class="st2" points="96.1,160.4 96.1,158.6 99.2,158 99.3,159.8 			"/>
			<polygon class="st2" points="161.3,147.9 161.3,146.1 164.9,145.5 164.9,147.2 			"/>
			<polygon class="st2" points="221.6,136.3 221.6,134.6 235.5,131.9 235.7,132 235.7,133.5 			"/>
			<polygon class="st3" points="235.2,107.1 235.5,131.9 235.7,132 235.4,107.1 			"/>
			<polygon class="st2" points="285.4,155.5 286.3,155.9 286.3,153.1 285.4,152.6 			"/>
			<polygon class="st2" points="54.5,166.5 57.4,166 57.5,167.8 54.7,168.4 			"/>
			<polygon class="st1" points="54.7,168.4 57.5,167.8 57.6,170 56.4,170.3 54.7,169.1 			"/>
			<polygon class="st0" points="56.4,170.3 57.6,170 57.7,171.1 			"/>
			<line class="st38" x1="195.2" y1="295" x2="194.8" y2="294.1"/>
			<line class="st38" x1="195.2" y1="295" x2="196.2" y2="295.8"/>
			<line class="st38" x1="210.9" y1="294" x2="211" y2="293"/>
			<line class="st38" x1="210.3" y1="294.9" x2="210.9" y2="294"/>
			<line class="st38" x1="209.1" y1="295.7" x2="210.3" y2="294.9"/>
			<line class="st38" x1="207.6" y1="296.4" x2="209.1" y2="295.7"/>
			<line class="st38" x1="205.7" y1="296.9" x2="207.6" y2="296.4"/>
			<line class="st38" x1="203.6" y1="297.1" x2="205.7" y2="296.9"/>
			<line class="st38" x1="201.4" y1="297.2" x2="203.6" y2="297.1"/>
			<line class="st38" x1="199.4" y1="297" x2="201.4" y2="297.2"/>
			<line class="st38" x1="197.6" y1="296.5" x2="199.4" y2="296.9"/>
			<line class="st38" x1="196.2" y1="295.8" x2="197.6" y2="296.5"/>
			<polyline class="st38" points="405.6,233.3 406.3,233.9 407.5,234.5 			"/>
			<line class="st38" x1="419.3" y1="233.8" x2="419.5" y2="233.1"/>
			<line class="st38" x1="418.6" y1="234.4" x2="419.3" y2="233.8"/>
			<line class="st38" x1="417.5" y1="235" x2="418.6" y2="234.4"/>
			<line class="st38" x1="416.1" y1="235.3" x2="417.5" y2="235"/>
			<line class="st38" x1="414.4" y1="235.5" x2="416.1" y2="235.3"/>
			<line class="st38" x1="412.5" y1="235.5" x2="414.4" y2="235.5"/>
			<line class="st38" x1="410.7" y1="235.4" x2="412.5" y2="235.5"/>
			<line class="st38" x1="409" y1="235" x2="410.7" y2="235.4"/>
			<line class="st38" x1="407.5" y1="234.5" x2="409" y2="235"/>
			<line class="st38" x1="405.6" y1="233.3" x2="405.3" y2="232.6"/>
			<line class="st38" x1="48.2" y1="188.4" x2="48.1" y2="187.9"/>
			<line class="st38" x1="48.2" y1="188.4" x2="48.7" y2="188.9"/>
			<line class="st38" x1="57.3" y1="189.2" x2="58.1" y2="189"/>
			<line class="st38" x1="55.7" y1="189.5" x2="57.3" y2="189.2"/>
			<line class="st38" x1="54" y1="189.7" x2="55.7" y2="189.5"/>
			<line class="st38" x1="52.4" y1="189.7" x2="54" y2="189.7"/>
			<line class="st38" x1="50.9" y1="189.5" x2="52.4" y2="189.7"/>
			<line class="st38" x1="49.6" y1="189.3" x2="50.9" y2="189.5"/>
			<line class="st38" x1="48.7" y1="188.9" x2="49.6" y2="189.3"/>
			<polyline class="st38" points="403.5,263.4 405.6,264.3 408.1,264.9 			"/>
			<line class="st38" x1="401.1" y1="261.3" x2="400.9" y2="260.2"/>
			<line class="st38" x1="421.5" y1="262.8" x2="422" y2="261.7"/>
			<line class="st38" x1="410.8" y1="265.2" x2="413.6" y2="265.3"/>
			<line class="st38" x1="402" y1="262.4" x2="403.5" y2="263.4"/>
			<line class="st38" x1="402" y1="262.4" x2="401.1" y2="261.3"/>
			<line class="st38" x1="418.5" y1="264.5" x2="420.3" y2="263.8"/>
			<line class="st38" x1="408.1" y1="264.9" x2="410.8" y2="265.2"/>
			<polyline class="st38" points="413.6,265.3 416.2,265 418.5,264.5 			"/>
			<line class="st38" x1="420.3" y1="263.8" x2="421.5" y2="262.8"/>
			<line class="st38" x1="203.7" y1="331.2" x2="206.9" y2="330.9"/>
			<line class="st38" x1="200.5" y1="331.1" x2="203.7" y2="331.2"/>
			<line class="st38" x1="197.6" y1="330.7" x2="200.5" y2="331.1"/>
			<line class="st38" x1="206.9" y1="330.9" x2="209.8" y2="330.2"/>
			<line class="st38" x1="195" y1="329.8" x2="197.6" y2="330.7"/>
			<line class="st38" x1="209.8" y1="330.2" x2="212.3" y2="329.2"/>
			<line class="st38" x1="193.1" y1="328.7" x2="195" y2="329.8"/>
			<line class="st38" x1="212.3" y1="329.2" x2="214.2" y2="327.9"/>
			<line class="st38" x1="193.1" y1="328.7" x2="191.9" y2="327.4"/>
			<line class="st38" x1="214.2" y1="327.9" x2="215.4" y2="326.5"/>
			<line class="st38" x1="191.9" y1="327.4" x2="191.5" y2="325.9"/>
			<line class="st38" x1="215.4" y1="326.5" x2="215.7" y2="325"/>
			<line class="st38" x1="47.1" y1="214.7" x2="46.5" y2="213.9"/>
			<polyline class="st38" points="47.1,214.7 48.4,215.4 50.1,215.9 52.3,216.1 54.7,216.2 57.2,216 58,215.8 			"/>
			<line class="st38" x1="200" y1="277.3" x2="200" y2="276.1"/>
			<line class="st38" x1="134.5" y1="57.1" x2="133" y2="17.7"/>
			<line class="st38" x1="88" y1="39.2" x2="87.1" y2="22.8"/>
			<line class="st38" x1="111.6" y1="48.3" x2="110.4" y2="20.2"/>
			<line class="st38" x1="63.5" y1="29.7" x2="63.2" y2="25.4"/>
			<line class="st38" x1="54.7" y1="168.4" x2="57.5" y2="167.8"/>
			<line class="st38" x1="63.7" y1="166.6" x2="67.2" y2="165.9"/>
			<line class="st38" x1="73.5" y1="164.7" x2="77.4" y2="164"/>
			<line class="st38" x1="83.9" y1="162.7" x2="88.1" y2="161.9"/>
			<line class="st38" x1="106.1" y1="158.5" x2="110.5" y2="157.6"/>
			<line class="st38" x1="118.6" y1="156.1" x2="123.5" y2="155.1"/>
			<line class="st38" x1="130.6" y1="153.8" x2="136.6" y2="152.6"/>
			<line class="st38" x1="143.8" y1="151.2" x2="150.3" y2="150"/>
			<line class="st38" x1="188.2" y1="142.7" x2="195.3" y2="141.3"/>
			<line class="st38" x1="180" y1="144.3" x2="178.4" y2="83.5"/>
			<line class="st38" x1="178.1" y1="73.9" x2="176.4" y2="13"/>
			<line class="st38" x1="159.4" y1="148.2" x2="157" y2="74.9"/>
			<line class="st38" x1="156.6" y1="65.6" x2="155" y2="15.3"/>
			<line class="st38" x1="198.9" y1="81.6" x2="197.3" y2="10.7"/>
			<line class="st38" x1="219.8" y1="136.6" x2="219.3" y2="109.9"/>
			<line class="st38" x1="218.8" y1="78.5" x2="217.6" y2="8.4"/>
			<line class="st38" x1="417.4" y1="75.2" x2="412.6" y2="217"/>
			<line class="st38" x1="275.3" y1="100.1" x2="275.7" y2="255.1"/>
			<line class="st38" x1="200.3" y1="287.8" x2="200" y2="277.3"/>
			<line class="st38" x1="181.9" y1="7.9" x2="234" y2="2.3"/>
			<line class="st38" x1="45" y1="22.6" x2="181.9" y2="7.9"/>
			<line class="st38" x1="195.6" y1="84.2" x2="357.9" y2="58.8"/>
			<line class="st38" x1="195.7" y1="87.4" x2="195.6" y2="84.2"/>
			<line class="st38" x1="191.9" y1="82.7" x2="195.6" y2="84.2"/>
			<line class="st38" x1="37.4" y1="22.3" x2="104" y2="48.4"/>
			<line class="st38" x1="104" y1="48.4" x2="191.9" y2="82.7"/>
			<line class="st38" x1="313.5" y1="21.9" x2="418" y2="47.7"/>
			<line class="st38" x1="357.9" y1="58.8" x2="427.2" y2="48"/>
			<line class="st38" x1="201.7" y1="295.8" x2="201.5" y2="287.4"/>
			<line class="st38" x1="412.3" y1="234.5" x2="412.5" y2="227.1"/>
			<line class="st38" x1="53" y1="188.9" x2="52.6" y2="183.2"/>
			<line class="st38" x1="161.2" y1="264.7" x2="161.1" y2="260"/>
			<line class="st38" x1="191.4" y1="286.3" x2="191.3" y2="281.4"/>
			<line class="st38" x1="133.8" y1="245" x2="133.6" y2="240.6"/>
			<line class="st38" x1="108.8" y1="227.1" x2="108.6" y2="222.9"/>
			<line class="st38" x1="85.9" y1="210.7" x2="85.7" y2="206.6"/>
			<line class="st38" x1="64.8" y1="195.7" x2="64.6" y2="191.7"/>
			<polyline class="st38" points="393.9,259.7 394.2,261.6 395.6,263.4 398.2,265.1 401.7,266.5 405.8,267.5 410.4,268.1 
				415.1,268.2 419.5,267.8 423.3,266.9 426.3,265.6 428.3,264 429,262.2 			"/>
			<polyline class="st38" points="193.5,334.2 198.4,335 203.7,335.1 209.1,334.5 214,333.4 218.1,331.7 221.3,329.5 223.2,327.1 
				223.8,324.7 			"/>
			<polyline class="st38" points="183.4,326.3 184,328.7 186,330.9 189.2,332.8 193.5,334.2 			"/>
			<polyline class="st38" points="41.2,216 43.2,217.1 46.2,217.9 49.8,218.4 53.8,218.5 58,218.1 60.4,217.7 			"/>
			<line class="st38" x1="40.2" y1="214.7" x2="41.2" y2="216"/>
			<line class="st38" x1="331.6" y1="175.9" x2="332.7" y2="90.1"/>
			<line class="st38" x1="333" y1="60.9" x2="333.4" y2="31.8"/>
			<line class="st38" x1="317.1" y1="169.4" x2="317.7" y2="92.7"/>
			<line class="st38" x1="318" y1="63.2" x2="318.3" y2="27.9"/>
			<line class="st38" x1="347.5" y1="182.9" x2="349.1" y2="87.2"/>
			<line class="st38" x1="349.5" y1="58.3" x2="349.9" y2="35.9"/>
			<line class="st38" x1="381.3" y1="197.8" x2="384.3" y2="81"/>
			<line class="st38" x1="385" y1="52.8" x2="385.2" y2="44.9"/>
			<line class="st38" x1="364" y1="190.2" x2="366.2" y2="84.2"/>
			<line class="st38" x1="366.8" y1="55.6" x2="367.2" y2="40.3"/>
			<line class="st38" x1="399.3" y1="205.7" x2="403.2" y2="77.7"/>
			<line class="st38" x1="404" y1="49.9" x2="404" y2="49.6"/>
			<line class="st38" x1="248.4" y1="139.2" x2="248.1" y2="104.9"/>
			<line class="st38" x1="247.8" y1="74.1" x2="247.2" y2="10"/>
			<line class="st38" x1="236.8" y1="134" x2="236.5" y2="106.9"/>
			<line class="st38" x1="236.1" y1="75.9" x2="235.2" y2="6.9"/>
			<line class="st38" x1="261" y1="144.7" x2="260.7" y2="102.7"/>
			<line class="st38" x1="260.5" y1="72.1" x2="260.2" y2="13.2"/>
			<line class="st38" x1="287.6" y1="156.5" x2="287.7" y2="97.9"/>
			<line class="st38" x1="287.7" y1="67.9" x2="287.7" y2="20.2"/>
			<line class="st38" x1="273.8" y1="70" x2="273.7" y2="16.7"/>
			<line class="st38" x1="301.7" y1="162.7" x2="302" y2="95.4"/>
			<line class="st38" x1="302.1" y1="65.6" x2="302.3" y2="23.9"/>
			<line class="st38" x1="58.9" y1="176.6" x2="50.3" y2="32.2"/>
			<line class="st38" x1="49.5" y1="170.1" x2="40.7" y2="28.4"/>
			<line class="st38" x1="69.1" y1="183.6" x2="60.8" y2="36.4"/>
			<line class="st38" x1="91" y1="198.6" x2="83.2" y2="45.4"/>
			<line class="st38" x1="79.8" y1="191" x2="71.7" y2="40.8"/>
			<line class="st38" x1="102.7" y1="206.6" x2="95.1" y2="50.1"/>
			<line class="st38" x1="127.6" y1="223.7" x2="120.7" y2="60.4"/>
			<line class="st38" x1="115.4" y1="215.3" x2="108.2" y2="55.4"/>
			<line class="st38" x1="140.9" y1="232.8" x2="134.5" y2="65.9"/>
			<line class="st38" x1="169.6" y1="252.5" x2="164.2" y2="77.8"/>
			<line class="st38" x1="200" y1="273.3" x2="195.8" y2="90.5"/>
			<line class="st38" x1="154.9" y1="242.4" x2="149" y2="71.7"/>
			<line class="st38" x1="185" y1="263.1" x2="180.2" y2="84.3"/>
			<line class="st38" x1="200" y1="276.1" x2="200" y2="273.3"/>
			<line class="st38" x1="195.8" y1="90.5" x2="195.7" y2="87.3"/>
			<line class="st38" x1="455.5" y1="235.7" x2="189.8" y2="315.9"/>
			<polyline class="st38" points="189.8,316.9 189.8,315.9 19,185.3 			"/>
			<line class="st38" x1="96.1" y1="160.4" x2="99.3" y2="159.8"/>
			<line class="st38" x1="157.8" y1="148.5" x2="159.4" y2="148.2"/>
			<line class="st38" x1="172.6" y1="145.7" x2="180" y2="144.3"/>
			<line class="st38" x1="208.9" y1="138.7" x2="219.8" y2="136.6"/>
			<line class="st38" x1="234" y1="2.3" x2="313.5" y2="21.9"/>
			<line class="st38" x1="271.5" y1="149.3" x2="261" y2="144.7"/>
			<polyline class="st38" points="412.6,217 354.7,233.1 285.4,252.4 			"/>
			<line class="st38" x1="161.3" y1="147.9" x2="164.9" y2="147.2"/>
			<line class="st38" x1="221.6" y1="136.3" x2="235.7" y2="133.5"/>
			<line class="st38" x1="314.3" y1="168.2" x2="301.7" y2="162.7"/>
			<line class="st38" x1="57.9" y1="175.9" x2="49.5" y2="170.1"/>
			<line class="st38" x1="346" y1="182.2" x2="331.6" y2="175.9"/>
			<line class="st38" x1="330.2" y1="175.2" x2="317.1" y2="169.4"/>
			<line class="st38" x1="300.4" y1="162.1" x2="287.6" y2="156.5"/>
			<line class="st38" x1="259.8" y1="144.2" x2="248.4" y2="139.2"/>
			<line class="st38" x1="126.3" y1="222.8" x2="115.4" y2="215.3"/>
			<line class="st38" x1="408.6" y1="209.8" x2="399.3" y2="205.7"/>
			<line class="st38" x1="286.3" y1="155.9" x2="285.4" y2="155.5"/>
			<line class="st38" x1="89.9" y1="197.9" x2="79.8" y2="191"/>
			<line class="st38" x1="139.6" y1="231.9" x2="127.6" y2="223.7"/>
			<line class="st38" x1="275.7" y1="255.1" x2="211.5" y2="272.9"/>
			<line class="st38" x1="397.6" y1="205" x2="381.3" y2="197.8"/>
			<line class="st38" x1="379.7" y1="197" x2="364" y2="190.2"/>
			<line class="st38" x1="362.5" y1="189.5" x2="347.5" y2="182.9"/>
			<line class="st38" x1="247.3" y1="138.6" x2="236.8" y2="134"/>
			<line class="st38" x1="153.6" y1="241.5" x2="140.9" y2="232.8"/>
			<line class="st38" x1="78.8" y1="190.3" x2="69.1" y2="183.6"/>
			<line class="st38" x1="168.2" y1="251.5" x2="154.9" y2="242.4"/>
			<line class="st38" x1="113.1" y1="213.7" x2="102.7" y2="206.6"/>
			<line class="st38" x1="101.5" y1="205.8" x2="91" y2="198.6"/>
			<line class="st38" x1="68.2" y1="183" x2="58.9" y2="176.6"/>
			<line class="st38" x1="198.4" y1="272.2" x2="185" y2="263.1"/>
			<line class="st38" x1="183.5" y1="262" x2="169.6" y2="252.5"/>
			<line class="st39" x1="188.2" y1="144.8" x2="195.4" y2="143.4"/>
			<polyline class="st39" points="208.9,140.7 235.7,135.6 271.5,151.4 			"/>
			<line class="st39" x1="285.4" y1="157.6" x2="312.4" y2="169.6"/>
			<line class="st39" x1="118.7" y1="158.2" x2="123.6" y2="157.3"/>
			<line class="st39" x1="130.7" y1="155.9" x2="136.6" y2="154.7"/>
			<line class="st39" x1="143.9" y1="153.3" x2="150.4" y2="152.1"/>
			<line class="st39" x1="157.9" y1="150.6" x2="165" y2="149.3"/>
			<line class="st39" x1="172.6" y1="147.8" x2="180.4" y2="146.3"/>
			<line class="st39" x1="315.7" y1="171.1" x2="407.1" y2="211.7"/>
			<line class="st39" x1="312.4" y1="169.6" x2="315.7" y2="171.1"/>
			<line class="st39" x1="414.6" y1="216.4" x2="416.6" y2="215.9"/>
			<polyline class="st39" points="408.4,215.1 412.6,217 414.6,216.4 			"/>
			<line class="st39" x1="407.1" y1="211.7" x2="408.5" y2="212.3"/>
			<line class="st39" x1="283" y1="253.1" x2="285.4" y2="252.4"/>
			<polyline class="st39" points="206.2,274.4 208.9,273.7 211.5,272.9 			"/>
			<line class="st39" x1="278.1" y1="254.4" x2="280.6" y2="253.7"/>
			<line class="st39" x1="275.7" y1="255.1" x2="278.1" y2="254.4"/>
			<line class="st39" x1="271.9" y1="252.8" x2="275.7" y2="255.1"/>
			<line class="st39" x1="135.8" y1="151" x2="136.5" y2="151.4"/>
			<line class="st39" x1="133" y1="17.7" x2="135.1" y2="17.5"/>
			<line class="st39" x1="235.5" y1="131.9" x2="235.7" y2="132"/>
			<line class="st39" x1="87.1" y1="22.8" x2="89.3" y2="22.5"/>
			<line class="st39" x1="110.4" y1="20.2" x2="112.5" y2="20"/>
			<line class="st39" x1="63.2" y1="25.4" x2="65.5" y2="25.2"/>
			<line class="st39" x1="234.1" y1="6.6" x2="234" y2="4.5"/>
			<polyline class="st39" points="49.9,24.5 182,10.1 234,4.5 			"/>
			<line class="st39" x1="56.4" y1="170.3" x2="57.6" y2="170"/>
			<line class="st39" x1="63.8" y1="168.8" x2="67.3" y2="168.2"/>
			<line class="st39" x1="73.7" y1="166.9" x2="77.5" y2="166.2"/>
			<line class="st39" x1="84" y1="164.9" x2="88.2" y2="164.1"/>
			<line class="st39" x1="94.8" y1="162.8" x2="99.4" y2="162"/>
			<line class="st39" x1="106.2" y1="160.6" x2="110.6" y2="159.8"/>
			<line class="st39" x1="235.7" y1="135.6" x2="235.7" y2="133.5"/>
			<polyline class="st39" points="157.8,147.4 159.4,148.2 161.3,147.9 			"/>
			<polyline class="st39" points="177.6,143 180,144.3 180.3,144.2 			"/>
			<polyline class="st39" points="217.2,135.4 219.8,136.6 221.6,136.3 			"/>
			<line class="st39" x1="282.9" y1="76.5" x2="420.1" y2="54.5"/>
			<line class="st39" x1="234" y1="4.5" x2="234" y2="2.3"/>
			<line class="st39" x1="201.7" y1="295.8" x2="207.9" y2="294"/>
			<line class="st39" x1="197.9" y1="293.1" x2="198" y2="293.2"/>
			<line class="st39" x1="201.6" y1="295.8" x2="201.7" y2="295.8"/>
			<line class="st39" x1="198" y1="293.2" x2="201.6" y2="295.8"/>
			<polyline class="st39" points="194.9,293.2 195.6,292.3 196.8,291.5 197.9,291 			"/>
			<polyline class="st39" points="207.8,290.6 208.2,290.7 209.6,291.4 210.6,292.2 			"/>
			<line class="st39" x1="211" y1="293" x2="210.6" y2="292.2"/>
			<line class="st39" x1="194.8" y1="294.1" x2="194.9" y2="293.2"/>
			<line class="st39" x1="412.3" y1="234.5" x2="416.9" y2="233.2"/>
			<line class="st39" x1="407.9" y1="232.5" x2="408" y2="232.5"/>
			<line class="st39" x1="412.1" y1="234.5" x2="412.3" y2="234.5"/>
			<line class="st39" x1="408" y1="232.5" x2="412.1" y2="234.5"/>
			<line class="st39" x1="419.5" y1="233.1" x2="419.2" y2="232.4"/>
			<polyline class="st39" points="405.3,232.6 405.6,231.9 406.3,231.3 407.4,230.8 408,230.6 			"/>
			<polyline class="st39" points="417,231.1 417.3,231.2 418.5,231.8 419.2,232.4 			"/>
			<line class="st39" x1="53" y1="188.9" x2="58.1" y2="187.8"/>
			<line class="st39" x1="50.7" y1="187.3" x2="50.8" y2="187.3"/>
			<line class="st39" x1="52.9" y1="188.8" x2="53" y2="188.9"/>
			<line class="st39" x1="50.8" y1="187.3" x2="52.9" y2="188.8"/>
			<polyline class="st39" points="48.4,187.3 49.1,186.8 50.2,186.3 50.7,186.2 			"/>
			<line class="st39" x1="48.1" y1="187.9" x2="48.4" y2="187.3"/>
			<line class="st39" x1="331.6" y1="175.9" x2="336.1" y2="174.8"/>
			<line class="st39" x1="331.9" y1="31.4" x2="333.4" y2="31.8"/>
			<line class="st39" x1="317.1" y1="169.4" x2="321.5" y2="168.4"/>
			<line class="st39" x1="347.5" y1="182.9" x2="352" y2="181.8"/>
			<line class="st39" x1="348.3" y1="35.5" x2="349.9" y2="35.9"/>
			<line class="st39" x1="381.3" y1="197.8" x2="385.9" y2="196.6"/>
			<line class="st39" x1="383.5" y1="44.4" x2="385.2" y2="44.9"/>
			<line class="st39" x1="364" y1="190.2" x2="368.6" y2="189"/>
			<line class="st39" x1="365.5" y1="39.9" x2="367.2" y2="40.3"/>
			<line class="st39" x1="399.3" y1="205.7" x2="403.9" y2="204.5"/>
			<line class="st39" x1="402.2" y1="49.2" x2="404" y2="49.6"/>
			<line class="st39" x1="248.4" y1="139.2" x2="252.6" y2="138.3"/>
			<line class="st39" x1="246" y1="9.7" x2="247.2" y2="10"/>
			<line class="st39" x1="236.8" y1="134" x2="241" y2="133.2"/>
			<line class="st39" x1="261" y1="144.7" x2="265.2" y2="143.8"/>
			<line class="st39" x1="258.9" y1="12.9" x2="260.2" y2="13.2"/>
			<line class="st39" x1="287.6" y1="156.5" x2="291.9" y2="155.5"/>
			<line class="st39" x1="286.4" y1="19.9" x2="287.7" y2="20.2"/>
			<line class="st39" x1="272.4" y1="16.3" x2="273.7" y2="16.7"/>
			<line class="st39" x1="301.7" y1="162.7" x2="306.1" y2="161.7"/>
			<line class="st39" x1="300.9" y1="23.5" x2="302.3" y2="23.9"/>
			<line class="st39" x1="58.9" y1="176.6" x2="64.2" y2="175.5"/>
			<line class="st39" x1="49.4" y1="31.8" x2="50.3" y2="32.2"/>
			<line class="st39" x1="49.5" y1="170.1" x2="54.7" y2="169.1"/>
			<line class="st39" x1="69.1" y1="183.6" x2="74.5" y2="182.5"/>
			<line class="st39" x1="59.8" y1="36" x2="60.8" y2="36.4"/>
			<line class="st39" x1="91" y1="198.6" x2="96.5" y2="197.4"/>
			<line class="st39" x1="82.1" y1="44.9" x2="83.2" y2="45.4"/>
			<line class="st39" x1="79.8" y1="191" x2="85.3" y2="189.8"/>
			<line class="st39" x1="70.7" y1="40.4" x2="71.7" y2="40.8"/>
			<line class="st39" x1="102.7" y1="206.6" x2="108.3" y2="205.4"/>
			<line class="st39" x1="94" y1="49.7" x2="95.1" y2="50.1"/>
			<line class="st39" x1="127.6" y1="223.7" x2="133.3" y2="222.3"/>
			<line class="st39" x1="119.5" y1="59.9" x2="120.7" y2="60.4"/>
			<line class="st39" x1="115.4" y1="215.3" x2="121.1" y2="214"/>
			<line class="st39" x1="140.9" y1="232.8" x2="146.8" y2="231.4"/>
			<line class="st39" x1="133.2" y1="65.4" x2="134.5" y2="65.9"/>
			<line class="st39" x1="169.6" y1="252.5" x2="175.6" y2="250.9"/>
			<line class="st39" x1="162.7" y1="77.3" x2="164.2" y2="77.8"/>
			<line class="st39" x1="154.9" y1="242.4" x2="160.9" y2="240.9"/>
			<line class="st39" x1="147.6" y1="71.2" x2="149" y2="71.7"/>
			<line class="st39" x1="185" y1="263.1" x2="191.2" y2="261.4"/>
			<line class="st39" x1="178.7" y1="83.6" x2="180.2" y2="84.3"/>
			<line class="st39" x1="254.3" y1="182.8" x2="209.3" y2="160.3"/>
			<line class="st39" x1="195.6" y1="153.5" x2="188.3" y2="149.8"/>
			<line class="st39" x1="312.4" y1="169.6" x2="285.4" y2="175.8"/>
			<line class="st39" x1="271.6" y1="178.9" x2="254.3" y2="182.8"/>
			<line class="st39" x1="181.7" y1="195.7" x2="173.9" y2="191.2"/>
			<line class="st39" x1="166.1" y1="186.7" x2="158.9" y2="182.5"/>
			<line class="st39" x1="151.3" y1="178.1" x2="144.7" y2="174.2"/>
			<line class="st39" x1="137.2" y1="169.9" x2="131.1" y2="166.3"/>
			<line class="st39" x1="123.8" y1="162.1" x2="118.7" y2="159.2"/>
			<line class="st39" x1="254.3" y1="182.8" x2="210" y2="192.9"/>
			<line class="st39" x1="196.6" y1="195.9" x2="189.5" y2="197.5"/>
			<line class="st39" x1="345.5" y1="228.5" x2="285.4" y2="198.4"/>
			<line class="st39" x1="271.6" y1="191.5" x2="254.3" y2="182.8"/>
			<line class="st39" x1="407.1" y1="211.7" x2="345.5" y2="228.5"/>
			<line class="st39" x1="271.8" y1="248" x2="210.3" y2="212.3"/>
			<line class="st39" x1="196.8" y1="204.5" x2="189.6" y2="200.3"/>
			<line class="st39" x1="345.5" y1="228.5" x2="285.4" y2="244.9"/>
			<line class="st39" x1="191.9" y1="271.7" x2="111.7" y2="216.2"/>
			<line class="st39" x1="191.9" y1="271.7" x2="191.8" y2="270.5"/>
			<line class="st39" x1="111.7" y1="216.2" x2="111.7" y2="215.2"/>
			<line class="st39" x1="121.1" y1="213" x2="125.9" y2="212"/>
			<line class="st39" x1="132.9" y1="210.4" x2="138.7" y2="209"/>
			<line class="st39" x1="145.9" y1="207.4" x2="152.3" y2="206"/>
			<line class="st39" x1="159.6" y1="204.3" x2="166.6" y2="202.7"/>
			<line class="st39" x1="174.2" y1="201" x2="181.8" y2="199.3"/>
			<line class="st39" x1="271.9" y1="248.6" x2="211.4" y2="265.2"/>
			<polyline class="st39" points="421.2,215.6 354.7,234.2 354.7,233.1 345.5,228.5 			"/>
			<line class="st39" x1="421.2" y1="215.6" x2="421.2" y2="214.6"/>
			<polyline class="st39" points="354.7,234.2 281.4,254.6 281.4,253.5 			"/>
			<line class="st39" x1="281.4" y1="254.6" x2="200" y2="277.3"/>
			<line class="st39" x1="200" y1="276.1" x2="191.8" y2="270.5"/>
			<line class="st39" x1="130.6" y1="18" x2="132.1" y2="56.2"/>
			<line class="st39" x1="132.4" y1="65.1" x2="135.8" y2="151"/>
			<line class="st39" x1="136.6" y1="57.9" x2="135.1" y2="17.5"/>
			<line class="st39" x1="233.9" y1="6.7" x2="234.8" y2="76.1"/>
			<line class="st39" x1="235.2" y1="107.1" x2="235.5" y2="131.9"/>
			<line class="st39" x1="84.9" y1="23" x2="85.7" y2="38.3"/>
			<line class="st39" x1="90.2" y1="40" x2="89.3" y2="22.5"/>
			<line class="st39" x1="94.7" y1="160.7" x2="96.1" y2="160.4"/>
			<line class="st39" x1="108.1" y1="20.5" x2="109.3" y2="47.4"/>
			<line class="st39" x1="113.8" y1="49.1" x2="112.5" y2="20"/>
			<line class="st39" x1="61.1" y1="25.6" x2="61.3" y2="28.9"/>
			<line class="st39" x1="65.8" y1="30.6" x2="65.5" y2="25.2"/>
			<line class="st39" x1="37.7" y1="27.1" x2="37.5" y2="24.7"/>
			<line class="st39" x1="39.8" y1="28" x2="39.7" y2="25.6"/>
			<line class="st39" x1="37.7" y1="27.1" x2="39.8" y2="28"/>
			<line class="st39" x1="37.5" y1="24.7" x2="39.7" y2="25.6"/>
			<line class="st39" x1="46.6" y1="170.3" x2="46.5" y2="168.1"/>
			<line class="st39" x1="235.5" y1="131.9" x2="221.6" y2="134.6"/>
			<line class="st39" x1="217.2" y1="135.4" x2="208.9" y2="137"/>
			<line class="st39" x1="195.3" y1="139.6" x2="188.1" y2="141"/>
			<line class="st39" x1="177.6" y1="143" x2="172.5" y2="144"/>
			<line class="st39" x1="164.9" y1="145.5" x2="161.3" y2="146.1"/>
			<line class="st39" x1="150.3" y1="148.2" x2="143.8" y2="149.5"/>
			<line class="st39" x1="135.8" y1="151" x2="130.5" y2="152"/>
			<line class="st39" x1="123.4" y1="153.4" x2="118.5" y2="154.3"/>
			<line class="st39" x1="110.4" y1="155.9" x2="106" y2="156.7"/>
			<line class="st39" x1="99.2" y1="158" x2="96.1" y2="158.6"/>
			<line class="st39" x1="88" y1="160.2" x2="83.8" y2="161"/>
			<line class="st39" x1="77.3" y1="162.2" x2="73.4" y2="162.9"/>
			<line class="st39" x1="67.1" y1="164.1" x2="63.6" y2="164.8"/>
			<line class="st39" x1="57.4" y1="166" x2="54.6" y2="166.5"/>
			<line class="st39" x1="48.7" y1="171.8" x2="48.6" y2="169.5"/>
			<line class="st39" x1="46.6" y1="170.3" x2="48.7" y2="171.8"/>
			<line class="st39" x1="46.5" y1="168.1" x2="48.6" y2="169.5"/>
			<line class="st39" x1="173.9" y1="13.2" x2="175.6" y2="72.9"/>
			<line class="st39" x1="175.9" y1="82.5" x2="177.6" y2="143"/>
			<line class="st39" x1="180.1" y1="74.7" x2="178.4" y2="12.8"/>
			<line class="st39" x1="176.4" y1="13" x2="178.4" y2="12.8"/>
			<line class="st39" x1="152.6" y1="15.6" x2="154.2" y2="64.7"/>
			<line class="st39" x1="158.7" y1="66.4" x2="157" y2="15.1"/>
			<line class="st39" x1="155" y1="15.3" x2="157" y2="15.1"/>
			<line class="st39" x1="194.7" y1="11" x2="196.3" y2="80.9"/>
			<line class="st39" x1="200.8" y1="81.3" x2="199.2" y2="10.5"/>
			<line class="st39" x1="197.3" y1="10.7" x2="199.2" y2="10.5"/>
			<line class="st39" x1="48.6" y1="169.5" x2="39.8" y2="28"/>
			<line class="st39" x1="37.7" y1="27.1" x2="46.5" y2="168.1"/>
			<line class="st39" x1="215" y1="8.7" x2="216.2" y2="78.9"/>
			<line class="st39" x1="216.8" y1="110.3" x2="217.2" y2="135.4"/>
			<line class="st39" x1="220.7" y1="78.3" x2="219.5" y2="8.2"/>
			<line class="st39" x1="217.6" y1="8.4" x2="219.5" y2="8.2"/>
			<line class="st39" x1="282.9" y1="76.5" x2="282.9" y2="98.8"/>
			<line class="st39" x1="419.4" y1="74.9" x2="420.1" y2="54.5"/>
			<line class="st39" x1="422.2" y1="54.2" x2="422.3" y2="51.5"/>
			<line class="st39" x1="202.3" y1="89.4" x2="202.3" y2="86.3"/>
			<line class="st39" x1="205.6" y1="112.3" x2="208.9" y2="273.7"/>
			<line class="st39" x1="205.6" y1="112.3" x2="208.4" y2="111.8"/>
			<line class="st39" x1="202.3" y1="89.4" x2="205.1" y2="89"/>
			<line class="st39" x1="420.1" y1="54.5" x2="422.2" y2="54.2"/>
			<line class="st39" x1="419.4" y1="74.9" x2="414.6" y2="216.4"/>
			<line class="st39" x1="417.4" y1="75.2" x2="419.4" y2="74.9"/>
			<line class="st39" x1="280.6" y1="253.7" x2="280.3" y2="76.9"/>
			<line class="st39" x1="277.8" y1="77.4" x2="280.3" y2="76.9"/>
			<line class="st39" x1="277.8" y1="99.7" x2="278.1" y2="254.4"/>
			<line class="st39" x1="275.3" y1="100.1" x2="277.8" y2="99.7"/>
			<line class="st39" x1="280.3" y1="76.9" x2="282.9" y2="76.5"/>
			<line class="st39" x1="282.9" y1="98.8" x2="283" y2="253.1"/>
			<line class="st39" x1="282.9" y1="98.8" x2="285.4" y2="98.3"/>
			<line class="st39" x1="46.7" y1="171.2" x2="47.6" y2="171.9"/>
			<line class="st39" x1="47.2" y1="179.4" x2="46.7" y2="171.2"/>
			<line class="st39" x1="48.1" y1="180" x2="47.6" y2="171.9"/>
			<line class="st39" x1="198.5" y1="276.3" x2="200" y2="277.3"/>
			<line class="st39" x1="198.7" y1="286.7" x2="198.5" y2="276.3"/>
			<line class="st39" x1="198.7" y1="286.7" x2="200.3" y2="287.8"/>
			<line class="st39" x1="231.3" y1="1.7" x2="179.4" y2="7.2"/>
			<line class="st39" x1="234" y1="2.3" x2="231.3" y2="1.7"/>
			<line class="st39" x1="182" y1="10.1" x2="181.9" y2="7.9"/>
			<line class="st39" x1="179.4" y1="7.2" x2="181.9" y2="7.9"/>
			<line class="st39" x1="179.4" y1="7.2" x2="42.8" y2="21.8"/>
			<line class="st39" x1="42.8" y1="21.8" x2="45" y2="22.6"/>
			<line class="st39" x1="191.9" y1="85.9" x2="191.9" y2="82.7"/>
			<line class="st39" x1="357.9" y1="58.8" x2="353.7" y2="57.7"/>
			<line class="st39" x1="357.9" y1="61.7" x2="357.9" y2="58.8"/>
			<line class="st39" x1="191.9" y1="85.9" x2="195.7" y2="87.4"/>
			<line class="st39" x1="104.1" y1="51.1" x2="104" y2="48.4"/>
			<line class="st39" x1="37.5" y1="24.7" x2="37.4" y2="22.3"/>
			<line class="st39" x1="42.8" y1="21.8" x2="37.4" y2="22.3"/>
			<line class="st39" x1="104" y1="48.4" x2="109.9" y2="47.6"/>
			<polyline class="st39" points="234,4.5 313.4,24.3 313.5,21.9 			"/>
			<line class="st39" x1="235.6" y1="1.2" x2="231.3" y2="1.7"/>
			<line class="st39" x1="318" y1="21.3" x2="235.6" y2="1.2"/>
			<line class="st39" x1="313.5" y1="21.9" x2="318" y2="21.3"/>
			<line class="st39" x1="191.9" y1="82.7" x2="198.4" y2="81.7"/>
			<line class="st39" x1="422.8" y1="46.9" x2="318" y2="21.3"/>
			<line class="st39" x1="418" y1="47.7" x2="422.8" y2="46.9"/>
			<line class="st39" x1="427.2" y1="48" x2="422.8" y2="46.9"/>
			<line class="st39" x1="427.1" y1="50.7" x2="427.2" y2="48"/>
			<line class="st39" x1="205.1" y1="89" x2="205.6" y2="112.3"/>
			<polyline class="st39" points="277.8,99.7 277.8,77.4 205.1,89 			"/>
			<line class="st39" x1="198" y1="293.2" x2="197.9" y2="286.1"/>
			<line class="st39" x1="201.6" y1="295.8" x2="201.4" y2="287.4"/>
			<line class="st39" x1="408" y1="232.5" x2="408.2" y2="228.4"/>
			<line class="st39" x1="412.1" y1="234.5" x2="412.4" y2="227.1"/>
			<line class="st39" x1="50.8" y1="187.3" x2="50.4" y2="181.7"/>
			<line class="st39" x1="52.9" y1="188.8" x2="52.6" y2="183.2"/>
			<line class="st39" x1="152" y1="258" x2="151.8" y2="253.4"/>
			<line class="st39" x1="181.2" y1="278.9" x2="181.1" y2="274.2"/>
			<line class="st39" x1="125.4" y1="239" x2="125.2" y2="234.6"/>
			<line class="st39" x1="101.1" y1="221.6" x2="100.9" y2="217.4"/>
			<line class="st39" x1="78.8" y1="205.6" x2="78.6" y2="201.6"/>
			<polyline class="st39" points="393.2,284.2 393.5,286.1 394.9,288.1 397.4,289.8 400.9,291.3 405,292.4 409.6,293 414.2,293.1 
				418.6,292.7 422.4,291.7 425.4,290.4 427.3,288.7 428.1,286.8 			"/>
			<polyline class="st39" points="427.1,258.6 424.4,256.9 422.2,256.1 			"/>
			<polyline class="st39" points="401.1,254.9 399.9,255.2 396.9,256.4 394.9,258 393.9,259.7 			"/>
			<polyline class="st39" points="429,262.2 428.6,260.4 427.1,258.6 			"/>
			<line class="st39" x1="393.2" y1="284.2" x2="393.9" y2="259.7"/>
			<line class="st39" x1="428.1" y1="286.8" x2="429" y2="262.2"/>
			<polyline class="st39" points="184.2,354 184.8,356.6 186.8,358.9 190,360.9 194.2,362.3 199.1,363.2 204.4,363.3 209.6,362.7 
				214.5,361.5 218.7,359.7 221.8,357.5 223.7,355 224.2,352.4 			"/>
			<polyline class="st39" points="223.8,324.7 223,322.3 220.8,320.1 217.6,318.3 215.6,317.7 			"/>
			<polyline class="st39" points="191.3,318.7 189.5,319.4 186.2,321.5 184.2,323.8 183.4,326.3 			"/>
			<line class="st39" x1="224.2" y1="352.4" x2="223.8" y2="324.7"/>
			<line class="st39" x1="184.2" y1="354" x2="183.4" y2="326.3"/>
			<polyline class="st39" points="42.6,238.2 44.6,239.4 47.6,240.2 51.2,240.7 55.2,240.8 59.4,240.4 63.4,239.7 67,238.7 
				69.9,237.3 71.9,235.9 72.9,234.3 72.8,232.8 			"/>
			<line class="st39" x1="41.6" y1="236.8" x2="42.6" y2="238.2"/>
			<polyline class="st39" points="46.2,209.3 43.5,210.4 41.4,211.8 40.2,213.3 40.2,214.7 			"/>
			<line class="st39" x1="72.8" y1="232.8" x2="72.5" y2="227"/>
			<line class="st39" x1="41.6" y1="236.8" x2="40.2" y2="214.7"/>
			<line class="st39" x1="338" y1="32.9" x2="337.6" y2="60.1"/>
			<line class="st39" x1="337.2" y1="89.3" x2="336.1" y2="174.8"/>
			<line class="st39" x1="331.5" y1="61.1" x2="331.9" y2="31.4"/>
			<line class="st39" x1="331.6" y1="175.9" x2="330.2" y2="175.2"/>
			<line class="st39" x1="322.8" y1="29.1" x2="322.5" y2="62.5"/>
			<line class="st39" x1="322.2" y1="91.9" x2="321.5" y2="168.4"/>
			<line class="st39" x1="315.7" y1="168.8" x2="316.3" y2="92.9"/>
			<line class="st39" x1="316.5" y1="63.4" x2="316.8" y2="27.6"/>
			<line class="st39" x1="318.3" y1="27.9" x2="316.8" y2="27.6"/>
			<line class="st39" x1="317.1" y1="169.4" x2="315.7" y2="168.8"/>
			<line class="st39" x1="354.5" y1="37.1" x2="354.2" y2="57.6"/>
			<line class="st39" x1="353.7" y1="86.4" x2="352" y2="181.8"/>
			<line class="st39" x1="348" y1="58.5" x2="348.3" y2="35.5"/>
			<line class="st39" x1="347.5" y1="182.9" x2="346" y2="182.2"/>
			<line class="st39" x1="389.9" y1="46" x2="389.7" y2="52.1"/>
			<line class="st39" x1="389" y1="80.2" x2="385.9" y2="196.6"/>
			<line class="st39" x1="383.2" y1="53.1" x2="383.5" y2="44.4"/>
			<line class="st39" x1="381.3" y1="197.8" x2="379.7" y2="197"/>
			<polyline class="st39" points="421.3,212.1 416.7,213.4 422.2,54.2 427,53.4 421.3,212.1 			"/>
			<line class="st39" x1="371.8" y1="41.5" x2="371.5" y2="54.9"/>
			<line class="st39" x1="370.9" y1="83.4" x2="368.6" y2="189"/>
			<line class="st39" x1="365.2" y1="55.9" x2="365.5" y2="39.9"/>
			<line class="st39" x1="364" y1="190.2" x2="362.5" y2="189.5"/>
			<line class="st39" x1="407.9" y1="76.9" x2="403.9" y2="204.5"/>
			<line class="st39" x1="402.2" y1="50.1" x2="402.2" y2="49.2"/>
			<line class="st39" x1="399.3" y1="205.7" x2="397.6" y2="205"/>
			<line class="st39" x1="421.2" y1="214.6" x2="421.3" y2="212.1"/>
			<line class="st39" x1="321.5" y1="168.4" x2="330.2" y2="172.3"/>
			<line class="st39" x1="336.1" y1="174.8" x2="346" y2="179.2"/>
			<line class="st39" x1="352" y1="181.8" x2="362.5" y2="186.4"/>
			<line class="st39" x1="368.6" y1="189" x2="379.7" y2="193.9"/>
			<line class="st39" x1="385.9" y1="196.6" x2="397.7" y2="201.8"/>
			<line class="st39" x1="403.9" y1="204.5" x2="408.7" y2="206.6"/>
			<line class="st39" x1="315.7" y1="171.1" x2="315.7" y2="168.8"/>
			<line class="st39" x1="416.6" y1="215.9" x2="416.7" y2="213.4"/>
			<line class="st39" x1="421.2" y1="214.6" x2="416.6" y2="215.9"/>
			<line class="st39" x1="427" y1="53.4" x2="427.1" y2="50.7"/>
			<line class="st39" x1="316.8" y1="27.6" x2="316.8" y2="25.2"/>
			<line class="st39" x1="411.2" y1="48.7" x2="316.8" y2="25.2"/>
			<line class="st39" x1="427.1" y1="50.7" x2="422.3" y2="51.5"/>
			<line class="st39" x1="46.7" y1="171.2" x2="46.6" y2="170.3"/>
			<line class="st39" x1="251.5" y1="11.1" x2="252" y2="73.4"/>
			<line class="st39" x1="252.3" y1="104.1" x2="252.6" y2="138.3"/>
			<line class="st39" x1="246.6" y1="74.2" x2="246" y2="9.7"/>
			<line class="st39" x1="248.4" y1="139.2" x2="247.3" y2="138.6"/>
			<line class="st39" x1="239.5" y1="8" x2="240.3" y2="75.2"/>
			<line class="st39" x1="240.7" y1="106.2" x2="241" y2="133.2"/>
			<line class="st39" x1="235" y1="76" x2="234.1" y2="6.6"/>
			<line class="st39" x1="235.2" y1="6.9" x2="234.1" y2="6.6"/>
			<line class="st39" x1="236.8" y1="134" x2="235.7" y2="133.5"/>
			<line class="st39" x1="264.6" y1="14.4" x2="264.9" y2="71.4"/>
			<line class="st39" x1="265" y1="101.9" x2="265.2" y2="143.8"/>
			<line class="st39" x1="259.3" y1="72.3" x2="258.9" y2="12.9"/>
			<line class="st39" x1="261" y1="144.7" x2="259.8" y2="144.2"/>
			<line class="st39" x1="292.2" y1="21.3" x2="292.1" y2="67.2"/>
			<line class="st39" x1="292" y1="97.2" x2="291.9" y2="155.5"/>
			<line class="st39" x1="286.4" y1="68.1" x2="286.4" y2="19.9"/>
			<line class="st39" x1="287.6" y1="156.5" x2="286.3" y2="155.9"/>
			<line class="st39" x1="315.1" y1="63.6" x2="315.4" y2="27.2"/>
			<line class="st39" x1="316.8" y1="27.6" x2="315.4" y2="27.2"/>
			<line class="st39" x1="315.7" y1="168.8" x2="314.3" y2="168.2"/>
			<line class="st39" x1="278.1" y1="17.8" x2="278.2" y2="69.3"/>
			<line class="st39" x1="272.6" y1="70.2" x2="272.4" y2="16.3"/>
			<line class="st39" x1="306.8" y1="25" x2="306.6" y2="64.9"/>
			<line class="st39" x1="306.4" y1="94.6" x2="306.1" y2="161.7"/>
			<line class="st39" x1="300.8" y1="65.9" x2="300.9" y2="23.5"/>
			<line class="st39" x1="301.7" y1="162.7" x2="300.4" y2="162.1"/>
			<line class="st39" x1="241" y1="133.2" x2="247.2" y2="136"/>
			<line class="st39" x1="252.6" y1="138.3" x2="259.8" y2="141.5"/>
			<line class="st39" x1="265.2" y1="143.8" x2="271.5" y2="146.6"/>
			<line class="st39" x1="285.4" y1="152.7" x2="286.3" y2="153.1"/>
			<line class="st39" x1="291.9" y1="155.5" x2="300.4" y2="159.2"/>
			<line class="st39" x1="306.1" y1="161.7" x2="314.3" y2="165.3"/>
			<line class="st39" x1="58.9" y1="176.6" x2="57.9" y2="175.9"/>
			<line class="st39" x1="40.7" y1="28.4" x2="39.8" y2="28"/>
			<line class="st39" x1="49.5" y1="170.1" x2="48.6" y2="169.5"/>
			<line class="st39" x1="69.1" y1="183.6" x2="68.2" y2="183"/>
			<line class="st39" x1="91" y1="198.6" x2="89.9" y2="197.9"/>
			<polyline class="st39" points="114.2,214.5 107,54.9 105.8,54.4 			"/>
			<line class="st39" x1="114.2" y1="214.5" x2="113.1" y2="213.7"/>
			<line class="st39" x1="79.8" y1="191" x2="78.8" y2="190.3"/>
			<line class="st39" x1="102.7" y1="206.6" x2="101.5" y2="205.8"/>
			<line class="st39" x1="64.2" y1="175.5" x2="67.9" y2="178.1"/>
			<line class="st39" x1="74.5" y1="182.5" x2="78.6" y2="185.3"/>
			<line class="st39" x1="85.3" y1="189.8" x2="89.7" y2="192.8"/>
			<line class="st39" x1="96.5" y1="197.4" x2="101.3" y2="200.6"/>
			<line class="st39" x1="108.3" y1="205.4" x2="112.8" y2="208.5"/>
			<line class="st39" x1="114.4" y1="217" x2="114.2" y2="214.5"/>
			<line class="st39" x1="107" y1="54.9" x2="106.9" y2="52.2"/>
			<line class="st39" x1="127.6" y1="223.7" x2="126.3" y2="222.8"/>
			<line class="st39" x1="108.2" y1="55.4" x2="107" y2="54.9"/>
			<line class="st39" x1="115.4" y1="215.3" x2="114.2" y2="214.5"/>
			<line class="st39" x1="140.9" y1="232.8" x2="139.6" y2="231.9"/>
			<line class="st39" x1="169.6" y1="252.5" x2="168.2" y2="251.5"/>
			<line class="st39" x1="206.2" y1="271.6" x2="200" y2="273.3"/>
			<polyline class="st39" points="195.8,90.5 202.3,89.4 206.2,271.6 			"/>
			<line class="st39" x1="195.8" y1="90.5" x2="194.1" y2="89.8"/>
			<line class="st39" x1="200" y1="273.3" x2="198.4" y2="272.2"/>
			<line class="st39" x1="154.9" y1="242.4" x2="153.6" y2="241.5"/>
			<line class="st39" x1="185" y1="263.1" x2="183.5" y2="262"/>
			<line class="st39" x1="206.2" y1="274.4" x2="206.2" y2="271.6"/>
			<line class="st39" x1="121.1" y1="214" x2="126.1" y2="217.4"/>
			<line class="st39" x1="133.3" y1="222.3" x2="139.4" y2="226.4"/>
			<line class="st39" x1="146.8" y1="231.4" x2="153.4" y2="235.9"/>
			<line class="st39" x1="160.9" y1="240.9" x2="168" y2="245.7"/>
			<line class="st39" x1="175.6" y1="250.9" x2="183.4" y2="256.1"/>
			<line class="st39" x1="191.2" y1="261.4" x2="198.3" y2="266.2"/>
			<line class="st39" x1="206.2" y1="274.4" x2="200" y2="276.1"/>
			<line class="st39" x1="202.3" y1="86.3" x2="195.7" y2="87.4"/>
			<line class="st39" x1="455.5" y1="236.6" x2="455.6" y2="235.7"/>
			<line class="st39" x1="19.1" y1="186" x2="19" y2="185.3"/>
			<line class="st39" x1="421" y1="220.3" x2="455.5" y2="235.7"/>
			<line class="st39" x1="19" y1="185.3" x2="47.6" y2="179.7"/>
			<polyline class="st39" points="191.8,270.5 114.4,217 111.7,215.2 			"/>
			<line class="st39" x1="283" y1="253.1" x2="281.4" y2="253.5"/>
			<line class="st39" x1="198.5" y1="276.3" x2="191.9" y2="271.7"/>
			<polyline class="st39" points="96.1,160.4 96.1,158.6 90.6,48.3 			"/>
			<polyline class="st39" points="161.3,147.9 161.3,146.1 159,75.8 			"/>
			<polyline class="st39" points="221.6,136.3 221.6,134.6 221.2,109.6 			"/>
			<polyline class="st39" points="202.3,86.3 357.9,61.7 422.3,51.5 			"/>
			<line class="st39" x1="408.4" y1="215.1" x2="408.5" y2="212.3"/>
			<line class="st39" x1="280.6" y1="253.7" x2="281.4" y2="253.5"/>
			<polyline class="st39" points="47.2,179.4 47.6,179.7 48.1,180 			"/>
			<polyline class="st39" points="420.8,224.7 421,220.3 421.2,215.6 			"/>
			<line class="st39" x1="47.6" y1="171.9" x2="111.7" y2="216.2"/>
			<line class="st39" x1="48.1" y1="180" x2="50.4" y2="181.6"/>
			<line class="st39" x1="39.7" y1="25.6" x2="104.1" y2="51.1"/>
			<polyline class="st39" points="104.1,51.1 106.9,52.2 191.9,85.9 			"/>
			<line class="st39" x1="313.4" y1="24.3" x2="316.8" y2="25.2"/>
			<line class="st39" x1="354.2" y1="57.6" x2="353.7" y2="57.7"/>
			<polyline class="st39" points="207.9,294 207.8,290.6 207.7,285.6 			"/>
			<polyline class="st39" points="197.9,293.1 197.9,291 197.8,286 			"/>
			<polyline class="st39" points="416.9,233.2 417,231.1 417.2,225.8 			"/>
			<polyline class="st39" points="407.9,232.5 408,230.6 408,228.4 			"/>
			<polyline class="st39" points="50.7,187.3 50.7,186.2 50.4,181.6 			"/>
			<line class="st39" x1="58.1" y1="187.8" x2="58" y2="187.1"/>
			<polyline class="st39" points="191.3,316.4 191.3,318.7 191.5,325.9 			"/>
			<polyline class="st39" points="215.4,309.1 215.6,317.7 215.7,325 			"/>
			<line class="st39" x1="19.1" y1="186" x2="46" y2="206.7"/>
			<line class="st39" x1="189.8" y1="316.9" x2="191.3" y2="316.4"/>
			<polyline class="st39" points="422.6,246.5 422.2,256.1 422,261.7 			"/>
			<polyline class="st39" points="401.2,253 401.1,254.9 400.9,260.2 			"/>
			<polyline class="st39" points="46,206.7 46.2,209.3 46.5,213.9 			"/>
			<polyline class="st39" points="330.2,175.2 330.2,172.3 331.2,90.3 			"/>
			<polyline class="st39" points="346,182.2 346,179.2 347.5,87.5 			"/>
			<polyline class="st39" points="379.7,197 379.7,193.9 382.5,81.3 			"/>
			<polyline class="st39" points="362.5,189.5 362.5,186.4 364.6,84.5 			"/>
			<polyline class="st39" points="397.6,205 397.7,201.8 401.4,78 			"/>
			<line class="st39" x1="111.7" y1="215.2" x2="48.7" y2="171.8"/>
			<polyline class="st39" points="247.3,138.6 247.2,136 246.9,105.1 			"/>
			<polyline class="st39" points="235.7,133.5 235.7,132 235.4,107.1 			"/>
			<polyline class="st39" points="259.8,144.2 259.8,141.5 259.5,102.9 			"/>
			<polyline class="st39" points="286.3,155.9 286.3,153.1 286.4,98.2 			"/>
			<polyline class="st39" points="314.3,168.2 314.3,165.3 314.9,93.2 			"/>
			<polyline class="st39" points="300.4,162.1 300.4,159.2 300.6,95.7 			"/>
			<line class="st39" x1="63.8" y1="168.8" x2="64.2" y2="175.5"/>
			<line class="st39" x1="57.9" y1="175.9" x2="57.7" y2="171.1"/>
			<line class="st39" x1="46.3" y1="30.6" x2="54.6" y2="166.5"/>
			<line class="st39" x1="73.7" y1="166.9" x2="74.5" y2="182.5"/>
			<line class="st39" x1="68.2" y1="183" x2="67.9" y2="178.1"/>
			<line class="st39" x1="94.8" y1="162.8" x2="96.5" y2="197.4"/>
			<line class="st39" x1="89.9" y1="197.9" x2="89.7" y2="192.8"/>
			<line class="st39" x1="113.1" y1="213.7" x2="112.8" y2="208.5"/>
			<line class="st39" x1="84" y1="164.9" x2="85.3" y2="189.8"/>
			<line class="st39" x1="78.8" y1="190.3" x2="78.6" y2="185.3"/>
			<line class="st39" x1="106.2" y1="160.6" x2="108.3" y2="205.4"/>
			<line class="st39" x1="101.5" y1="205.8" x2="101.3" y2="200.6"/>
			<polyline class="st39" points="54.7,169.1 56.4,170.3 57.7,171.1 			"/>
			<line class="st39" x1="198.4" y1="272.2" x2="198.3" y2="266.2"/>
			<line class="st39" x1="183.5" y1="262" x2="183.4" y2="256.1"/>
			<polyline class="st39" points="208.9,140.7 209.3,160.3 210,192.9 			"/>
			<line class="st39" x1="408.7" y1="206.6" x2="412.9" y2="76"/>
			<line class="st39" x1="271.6" y1="178.9" x2="271.5" y2="151.4"/>
			<line class="st39" x1="271.5" y1="146.6" x2="271.3" y2="100.8"/>
			<line class="st39" x1="285.4" y1="98.3" x2="285.4" y2="152.7"/>
			<line class="st39" x1="285.4" y1="157.6" x2="285.4" y2="175.8"/>
			<polyline class="st39" points="200.3,287.8 201.4,287.4 201.5,287.4 207.7,285.6 			"/>
			<line class="st39" x1="50.4" y1="181.6" x2="50.4" y2="181.7"/>
			<polyline class="st39" points="200.8,81.3 198.9,81.6 198.4,81.7 			"/>
			<polyline class="st39" points="61.3,28.9 54.7,26.3 49.9,24.5 			"/>
			<line class="st39" x1="111.6" y1="48.3" x2="109.9" y2="47.6"/>
			<polyline class="st39" points="58.3,191 58.1,189 58.1,187.8 			"/>
			<line class="st39" x1="46" y1="206.7" x2="46.6" y2="207.2"/>
			<line class="st39" x1="191.3" y1="316.4" x2="191.6" y2="316.3"/>
			<line class="st39" x1="56" y1="34.5" x2="63.6" y2="164.8"/>
			<line class="st39" x1="57.7" y1="171.1" x2="57.6" y2="170"/>
			<polyline class="st39" points="54.5,166.5 54.7,168.4 54.7,169.1 			"/>
			<line class="st39" x1="66.6" y1="38.7" x2="73.4" y2="162.9"/>
			<line class="st39" x1="67.9" y1="178.1" x2="67.3" y2="168.2"/>
			<polyline class="st39" points="89.1,47.7 94.7,160.7 94.8,162.8 			"/>
			<line class="st39" x1="89.7" y1="192.8" x2="88.2" y2="164.1"/>
			<line class="st39" x1="112.8" y1="208.5" x2="110.6" y2="159.8"/>
			<line class="st39" x1="77.6" y1="43.1" x2="83.8" y2="161"/>
			<line class="st39" x1="78.6" y1="185.3" x2="77.5" y2="166.2"/>
			<line class="st39" x1="106.1" y1="158.5" x2="106.2" y2="160.6"/>
			<line class="st39" x1="101.3" y1="200.6" x2="99.4" y2="162"/>
			<polyline class="st39" points="130.7,155.9 131.1,166.3 132.9,210.4 133.3,222.3 			"/>
			<polyline class="st39" points="125.9,212 123.8,162.1 123.6,157.3 			"/>
			<line class="st39" x1="114.3" y1="57.9" x2="118.5" y2="154.3"/>
			<line class="st39" x1="118.7" y1="158.2" x2="118.7" y2="159.2"/>
			<polyline class="st39" points="143.9,153.3 144.7,174.2 145.9,207.4 146.8,231.4 			"/>
			<polyline class="st39" points="138.7,209 137.2,169.9 136.6,154.7 			"/>
			<polyline class="st39" points="172.6,147.8 173.9,191.2 174.2,201 175.6,250.9 			"/>
			<polyline class="st39" points="166.6,202.7 166.1,186.7 165,149.3 			"/>
			<polyline class="st39" points="157.9,150.6 158.9,182.5 159.6,204.3 160.9,240.9 			"/>
			<polyline class="st39" points="152.3,206 151.3,178.1 150.4,152.1 			"/>
			<line class="st39" x1="186.8" y1="86.9" x2="188.1" y2="141"/>
			<polyline class="st39" points="331.2,90.3 332.7,90.1 337.2,89.3 			"/>
			<line class="st39" x1="208.4" y1="111.8" x2="208.9" y2="137"/>
			<line class="st39" x1="210" y1="192.9" x2="210.3" y2="212.3"/>
			<polyline class="st39" points="408.5,212.3 408.6,209.8 408.7,206.6 			"/>
			<line class="st39" x1="271.6" y1="191.5" x2="271.6" y2="178.9"/>
			<polyline class="st39" points="271.5,151.4 271.5,149.3 271.5,146.6 			"/>
			<polyline class="st39" points="285.4,152.7 285.4,155.5 285.4,157.6 			"/>
			<line class="st39" x1="285.4" y1="175.8" x2="285.4" y2="198.4"/>
			<line class="st39" x1="207.7" y1="285.6" x2="408" y2="228.4"/>
			<line class="st39" x1="63.5" y1="29.7" x2="61.3" y2="28.9"/>
			<line class="st39" x1="49.9" y1="24.5" x2="45" y2="22.6"/>
			<polyline class="st39" points="175.6,72.9 158.7,66.4 156.6,65.6 			"/>
			<polyline class="st39" points="132.1,56.2 113.8,49.1 111.6,48.3 			"/>
			<polyline class="st39" points="371.5,54.9 366.8,55.6 365.2,55.9 354.2,57.6 			"/>
			<polyline class="st39" points="208.4,111.8 216.8,110.3 219.3,109.9 221.2,109.6 			"/>
			<line class="st39" x1="46.6" y1="207.2" x2="47.9" y2="208.1"/>
			<line class="st39" x1="191.6" y1="316.3" x2="192.8" y2="316"/>
			<polyline class="st39" points="331.9,31.4 322.8,29.1 318.3,27.9 			"/>
			<polyline class="st39" points="246,9.7 239.5,8 235.2,6.9 			"/>
			<polyline class="st39" points="63.6,164.8 63.7,166.6 63.8,168.8 			"/>
			<line class="st39" x1="57.4" y1="166" x2="49.4" y2="31.8"/>
			<polyline class="st39" points="73.4,162.9 73.5,164.7 73.7,166.9 			"/>
			<line class="st39" x1="67.1" y1="164.1" x2="59.8" y2="36"/>
			<line class="st39" x1="88" y1="160.2" x2="82.1" y2="44.9"/>
			<line class="st39" x1="110.4" y1="155.9" x2="105.8" y2="54.4"/>
			<polyline class="st39" points="83.8,161 83.9,162.7 84,164.9 			"/>
			<line class="st39" x1="77.3" y1="162.2" x2="70.7" y2="40.4"/>
			<polyline class="st39" points="101.1,52.6 106,156.7 106.1,158.5 			"/>
			<line class="st39" x1="99.4" y1="162" x2="99.3" y2="159.8"/>
			<polyline class="st39" points="49.4,31.8 46.3,30.6 40.7,28.4 			"/>
			<line class="st39" x1="126.9" y1="62.9" x2="130.5" y2="152"/>
			<polyline class="st39" points="126.3,222.8 126.1,217.4 125.9,212 			"/>
			<line class="st39" x1="123.4" y1="153.4" x2="119.5" y2="59.9"/>
			<polyline class="st39" points="118.5,154.3 118.6,156.1 118.7,158.2 			"/>
			<polyline class="st39" points="118.7,159.2 121.1,213 121.1,214 			"/>
			<line class="st39" x1="140.8" y1="68.5" x2="143.8" y2="149.5"/>
			<polyline class="st39" points="139.6,231.9 139.4,226.4 138.7,209 			"/>
			<line class="st39" x1="136.5" y1="151.4" x2="133.2" y2="65.4"/>
			<line class="st39" x1="172.6" y1="145.7" x2="172.6" y2="147.8"/>
			<polyline class="st39" points="168.2,251.5 168,245.7 166.6,202.7 			"/>
			<line class="st39" x1="164.9" y1="145.5" x2="162.7" y2="77.3"/>
			<polyline class="st39" points="196.6,195.9 195.6,153.5 195.4,143.4 			"/>
			<line class="st39" x1="155.3" y1="74.3" x2="157.8" y2="147.4"/>
			<polyline class="st39" points="153.6,241.5 153.4,235.9 152.3,206 			"/>
			<line class="st39" x1="150.3" y1="148.2" x2="147.6" y2="71.2"/>
			<polyline class="st39" points="188.1,141 188.2,142.7 188.2,144.8 188.3,149.8 189.5,197.5 189.6,200.3 191.2,261.4 			"/>
			<polyline class="st39" points="183.4,256.1 181.8,199.3 181.7,195.7 180.4,146.3 			"/>
			<polyline class="st39" points="119.5,59.9 114.3,57.8 108.2,55.4 			"/>
			<polyline class="st39" points="54.7,26.3 61.1,25.6 63.2,25.4 			"/>
			<line class="st39" x1="173.9" y1="13.2" x2="176.4" y2="13"/>
			<polyline class="st39" points="208.9,137 208.9,138.7 208.9,140.7 			"/>
			<polyline class="st39" points="210.3,212.3 211.4,265.2 211.5,272.9 			"/>
			<line class="st39" x1="271.8" y1="248" x2="271.6" y2="191.5"/>
			<polyline class="st39" points="285.4,198.4 285.4,244.9 285.4,252.4 			"/>
			<line class="st39" x1="408" y1="228.4" x2="408.2" y2="228.4"/>
			<polyline class="st39" points="50.4,181.7 52.6,183.2 52.6,183.2 58,187.1 			"/>
			<polyline class="st39" points="220.7,78.3 218.8,78.5 216.2,78.9 200.8,81.3 			"/>
			<line class="st39" x1="65.8" y1="30.6" x2="63.5" y2="29.7"/>
			<line class="st39" x1="178.1" y1="73.9" x2="175.6" y2="72.9"/>
			<line class="st39" x1="134.5" y1="57.1" x2="132.1" y2="56.2"/>
			<line class="st39" x1="383.2" y1="53.1" x2="371.5" y2="54.9"/>
			<line class="st39" x1="221.2" y1="109.6" x2="235.2" y2="107.1"/>
			<line class="st39" x1="47.9" y1="208.1" x2="49.7" y2="209.5"/>
			<line class="st39" x1="192.8" y1="316" x2="194.7" y2="315.4"/>
			<polyline class="st39" points="348.3,35.5 338,32.9 333.4,31.8 			"/>
			<polyline class="st39" points="57.6,170 57.5,167.8 57.4,166 			"/>
			<polyline class="st39" points="67.3,168.2 67.2,165.9 67.1,164.1 			"/>
			<polyline class="st39" points="88.2,164.1 88.1,161.9 88,160.2 			"/>
			<polyline class="st39" points="110.6,159.8 110.5,157.6 110.4,155.9 			"/>
			<polyline class="st39" points="77.5,166.2 77.4,164 77.3,162.2 			"/>
			<polyline class="st39" points="99.3,159.8 99.2,158 94,49.7 			"/>
			<polyline class="st39" points="59.8,36 56,34.5 50.3,32.2 			"/>
			<polyline class="st39" points="130.5,152 130.6,153.8 130.7,155.9 			"/>
			<polyline class="st39" points="123.6,157.3 123.5,155.1 123.4,153.4 			"/>
			<polyline class="st39" points="143.8,149.5 143.8,151.2 143.9,153.3 			"/>
			<polyline class="st39" points="136.6,154.7 136.6,152.6 136.5,151.4 			"/>
			<polyline class="st39" points="170.6,80.4 172.5,144 172.6,145.7 			"/>
			<polyline class="st39" points="165,149.3 164.9,147.2 164.9,145.5 			"/>
			<polyline class="st39" points="198.3,266.2 196.8,204.5 196.6,195.9 			"/>
			<line class="st39" x1="195.3" y1="139.6" x2="194.1" y2="89.8"/>
			<polyline class="st39" points="157.8,147.4 157.8,148.5 157.9,150.6 			"/>
			<polyline class="st39" points="150.4,152.1 150.3,150 150.3,148.2 			"/>
			<polyline class="st39" points="180.4,146.3 180.3,144.2 178.7,83.6 			"/>
			<polyline class="st39" points="133.2,65.4 132.4,65.1 126.9,62.9 120.7,60.4 			"/>
			<polyline class="st39" points="65.5,25.2 84.9,23 87.1,22.8 			"/>
			<polyline class="st39" points="89.3,22.5 108.1,20.5 110.4,20.2 			"/>
			<line class="st39" x1="178.4" y1="12.8" x2="194.7" y2="11"/>
			<polyline class="st39" points="316.3,92.9 317.7,92.7 322.2,91.9 331.2,90.3 			"/>
			<polyline class="st39" points="337.2,89.3 347.5,87.5 349.1,87.2 353.7,86.4 			"/>
			<polyline class="st39" points="271.9,252.8 271.9,248.6 271.8,248 			"/>
			<line class="st39" x1="58" y1="187.1" x2="64.6" y2="191.7"/>
			<line class="st39" x1="234.8" y1="76.1" x2="220.7" y2="78.3"/>
			<line class="st39" x1="85.7" y1="38.3" x2="65.8" y2="30.6"/>
			<line class="st39" x1="180.1" y1="74.7" x2="178.1" y2="73.9"/>
			<line class="st39" x1="136.6" y1="57.9" x2="134.5" y2="57.1"/>
			<line class="st39" x1="385" y1="52.8" x2="383.2" y2="53.1"/>
			<line class="st39" x1="235.2" y1="107.1" x2="235.4" y2="107.1"/>
			<line class="st39" x1="49.7" y1="209.5" x2="52" y2="211.3"/>
			<line class="st39" x1="194.7" y1="315.4" x2="197.2" y2="314.6"/>
			<polyline class="st39" points="258.9,12.9 251.5,11.1 247.2,10 			"/>
			<polyline class="st39" points="195.4,143.4 195.3,141.3 195.3,139.6 			"/>
			<polyline class="st39" points="112.5,20 130.6,18 133,17.7 			"/>
			<polyline class="st39" points="135.1,17.5 152.6,15.6 155,15.3 			"/>
			<line class="st39" x1="157" y1="15.1" x2="173.9" y2="13.2"/>
			<line class="st39" x1="194.7" y1="11" x2="197.3" y2="10.7"/>
			<polyline class="st39" points="408.2,228.4 412.4,227.1 412.5,227.1 417.2,225.8 420.8,224.7 			"/>
			<line class="st39" x1="235" y1="76" x2="234.8" y2="76.1"/>
			<line class="st39" x1="88" y1="39.2" x2="85.7" y2="38.3"/>
			<polyline class="st39" points="198.4,81.7 196.3,80.9 180.1,74.7 			"/>
			<polyline class="st39" points="156.6,65.6 154.2,64.7 136.6,57.9 			"/>
			<line class="st39" x1="389.7" y1="52.1" x2="385" y2="52.8"/>
			<line class="st39" x1="235.4" y1="107.1" x2="236.5" y2="106.9"/>
			<line class="st39" x1="52" y1="211.3" x2="54.5" y2="213.2"/>
			<line class="st39" x1="197.2" y1="314.6" x2="200.1" y2="313.7"/>
			<polyline class="st39" points="285.4,98.3 286.4,98.2 287.7,97.9 292,97.2 			"/>
			<polyline class="st39" points="382.5,81.3 384.3,81 389,80.2 			"/>
			<polyline class="st39" points="64.6,191.7 69,194.8 78.6,201.6 85.7,206.6 			"/>
			<line class="st39" x1="236.1" y1="75.9" x2="235" y2="76"/>
			<line class="st39" x1="90.2" y1="40" x2="88" y2="39.2"/>
			<line class="st39" x1="402.2" y1="50.1" x2="389.7" y2="52.1"/>
			<line class="st39" x1="236.5" y1="106.9" x2="240.7" y2="106.2"/>
			<line class="st39" x1="54.5" y1="213.2" x2="57.1" y2="215.2"/>
			<line class="st39" x1="200.1" y1="313.7" x2="203.3" y2="312.8"/>
			<polyline class="st39" points="365.5,39.9 354.5,37.1 349.9,35.9 			"/>
			<polyline class="st39" points="272.4,16.3 264.6,14.4 260.2,13.2 			"/>
			<polyline class="st39" points="70.7,40.4 66.6,38.7 60.8,36.4 			"/>
			<line class="st39" x1="233.9" y1="6.7" x2="234.1" y2="6.6"/>
			<line class="st39" x1="314.9" y1="93.2" x2="316.3" y2="92.9"/>
			<line class="st39" x1="240.3" y1="75.2" x2="236.1" y2="75.9"/>
			<polyline class="st39" points="109.9,47.6 109.3,47.4 90.2,40 			"/>
			<line class="st39" x1="404" y1="49.9" x2="402.2" y2="50.1"/>
			<line class="st39" x1="57.1" y1="215.2" x2="58" y2="215.8"/>
			<line class="st39" x1="203.3" y1="312.8" x2="206.4" y2="311.8"/>
			<line class="st39" x1="404.6" y1="49.8" x2="404" y2="49.6"/>
			<polyline class="st39" points="402.2,49.2 389.9,46 385.2,44.9 			"/>
			<polyline class="st39" points="383.5,44.4 371.8,41.5 367.2,40.3 			"/>
			<line class="st39" x1="278.1" y1="17.8" x2="273.7" y2="16.7"/>
			<line class="st39" x1="94" y1="49.7" x2="90.6" y2="48.3"/>
			<polyline class="st39" points="82.1,44.9 77.6,43.1 71.7,40.8 			"/>
			<polyline class="st39" points="147.6,71.2 140.8,68.5 134.5,65.9 			"/>
			<polyline class="st39" points="353.7,86.4 364.6,84.5 366.2,84.2 370.9,83.4 382.5,81.3 			"/>
			<polyline class="st39" points="389,80.2 401.4,78 403.2,77.7 407.9,76.9 			"/>
			<polyline class="st39" points="85.7,206.6 90.1,209.8 100.9,217.4 108.6,222.9 			"/>
			<line class="st39" x1="246.6" y1="74.2" x2="240.3" y2="75.2"/>
			<line class="st39" x1="404.6" y1="49.8" x2="404" y2="49.9"/>
			<line class="st39" x1="271.3" y1="100.8" x2="275.3" y2="100.1"/>
			<line class="st39" x1="206.4" y1="311.8" x2="209.4" y2="310.9"/>
			<line class="st39" x1="286.4" y1="19.9" x2="278.1" y2="17.8"/>
			<line class="st39" x1="101.1" y1="52.6" x2="95.1" y2="50.1"/>
			<polyline class="st39" points="90.6,48.3 89.1,47.7 83.2,45.4 			"/>
			<polyline class="st39" points="175.9,82.5 170.6,80.4 164.2,77.8 			"/>
			<polyline class="st39" points="199.2,10.5 215,8.7 217.6,8.4 			"/>
			<line class="st39" x1="219.5" y1="8.2" x2="233.9" y2="6.7"/>
			<polyline class="st39" points="292,97.2 300.6,95.7 302,95.4 306.4,94.6 314.9,93.2 			"/>
			<line class="st39" x1="407.9" y1="76.9" x2="412.9" y2="76"/>
			<line class="st39" x1="108.6" y1="222.9" x2="113.2" y2="226.1"/>
			<line class="st39" x1="247.8" y1="74.1" x2="246.6" y2="74.2"/>
			<line class="st39" x1="411.2" y1="48.7" x2="404.6" y2="49.8"/>
			<polyline class="st39" points="240.7,106.2 246.9,105.1 248.1,104.9 252.3,104.1 			"/>
			<line class="st39" x1="58" y1="215.8" x2="60.4" y2="217.7"/>
			<line class="st39" x1="66" y1="222" x2="69.1" y2="224.4"/>
			<line class="st39" x1="209.4" y1="310.9" x2="211.9" y2="310.2"/>
			<line class="st39" x1="105.8" y1="54.4" x2="101.1" y2="52.6"/>
			<polyline class="st39" points="178.7,83.6 178.4,83.5 175.9,82.5 			"/>
			<polyline class="st39" points="162.7,77.3 159,75.8 157,74.9 155.3,74.3 149,71.7 			"/>
			<line class="st39" x1="412.9" y1="76" x2="417.4" y2="75.2"/>
			<line class="st39" x1="113.2" y1="226.1" x2="125.2" y2="234.6"/>
			<line class="st39" x1="252" y1="73.4" x2="247.8" y2="74.1"/>
			<line class="st39" x1="418" y1="47.7" x2="411.2" y2="48.7"/>
			<polyline class="st39" points="60.4,217.7 62.2,219.1 66,222 			"/>
			<line class="st39" x1="69.1" y1="224.4" x2="71.3" y2="226.1"/>
			<line class="st39" x1="211.9" y1="310.2" x2="213.8" y2="309.6"/>
			<line class="st39" x1="186.8" y1="86.9" x2="180.2" y2="84.3"/>
			<line class="st39" x1="125.2" y1="234.6" x2="133.6" y2="240.6"/>
			<line class="st39" x1="259.3" y1="72.3" x2="252" y2="73.4"/>
			<polyline class="st39" points="252.3,104.1 259.5,102.9 260.7,102.7 265,101.9 271.3,100.8 			"/>
			<line class="st39" x1="71.3" y1="226.1" x2="72.5" y2="227"/>
			<line class="st39" x1="213.8" y1="309.6" x2="215" y2="309.2"/>
			<polyline class="st39" points="300.9,23.5 292.2,21.3 287.7,20.2 			"/>
			<line class="st39" x1="194.1" y1="89.8" x2="186.8" y2="86.9"/>
			<line class="st39" x1="260.5" y1="72.1" x2="259.3" y2="72.3"/>
			<polyline class="st39" points="72.5,227 72.5,227 189.8,316.9 			"/>
			<line class="st39" x1="215" y1="309.2" x2="215.4" y2="309.1"/>
			<line class="st39" x1="306.8" y1="25" x2="302.3" y2="23.9"/>
			<polyline class="st39" points="133.6,240.6 138.3,243.9 151.8,253.4 161.1,260 			"/>
			<line class="st39" x1="264.9" y1="71.4" x2="260.5" y2="72.1"/>
			<line class="st39" x1="315.4" y1="27.2" x2="306.8" y2="25"/>
			<line class="st39" x1="272.6" y1="70.2" x2="264.9" y2="71.4"/>
			<polyline class="st39" points="401.4,252.9 402.3,252.6 403.9,252.2 			"/>
			<polyline class="st39" points="161.1,260 165.9,263.4 181.1,274.2 191.3,281.4 			"/>
			<line class="st39" x1="273.8" y1="70" x2="272.6" y2="70.2"/>
			<polyline class="st39" points="215.4,309.1 401.2,253 401.4,252.9 			"/>
			<line class="st39" x1="403.9" y1="252.2" x2="406" y2="251.5"/>
			<line class="st39" x1="191.3" y1="281.4" x2="196.2" y2="284.9"/>
			<line class="st39" x1="278.2" y1="69.3" x2="273.8" y2="70"/>
			<line class="st39" x1="406" y1="251.5" x2="408.6" y2="250.7"/>
			<line class="st39" x1="196.2" y1="284.9" x2="197.8" y2="286"/>
			<line class="st39" x1="408.6" y1="250.7" x2="411.4" y2="249.9"/>
			<polyline class="st39" points="197.8,286 197.9,286.1 198.7,286.7 			"/>
			<polyline class="st39" points="337.6,60.1 333,60.9 331.5,61.1 			"/>
			<line class="st39" x1="411.4" y1="249.9" x2="414.2" y2="249.1"/>
			<line class="st39" x1="353.7" y1="57.7" x2="349.5" y2="58.3"/>
			<line class="st39" x1="414.2" y1="249.1" x2="416.8" y2="248.3"/>
			<polyline class="st39" points="349.5,58.3 348,58.5 337.6,60.1 			"/>
			<polyline class="st39" points="331.5,61.1 322.5,62.5 318,63.2 316.5,63.4 			"/>
			<polyline class="st39" points="416.8,248.3 419.1,247.6 420.9,247 			"/>
			<polyline class="st39" points="292.1,67.2 287.7,67.9 286.4,68.1 278.2,69.3 			"/>
			<line class="st39" x1="422.6" y1="246.5" x2="455.5" y2="236.6"/>
			<line class="st39" x1="316.5" y1="63.4" x2="315.1" y2="63.6"/>
			<polyline class="st39" points="420.9,247 422.1,246.7 422.6,246.5 			"/>
			<polyline class="st39" points="315.1,63.6 306.6,64.9 302.1,65.6 300.8,65.9 292.1,67.2 			"/>
		</g>
	</g>
</g>
</svg>
