<?xml version="1.0" encoding="utf-8"?>
<!-- Generator: Adobe Illustrator 20.1.0, SVG Export Plug-In . SVG Version: 6.00 Build 0)  -->
<svg version="1.1" id="Layer_9_1_" xmlns="http://www.w3.org/2000/svg" xmlns:xlink="http://www.w3.org/1999/xlink" x="0px" y="0px"
	 viewBox="0 0 473.1 361.3" style="enable-background:new 0 0 473.1 361.3;" xml:space="preserve">
<style type="text/css">
	.st0{fill:#8F7B5C;}
	.st1{fill:#F7C283;}
	.st2{fill:#9F7C52;}
	.st3{fill:#D1A46E;}
	.st4{fill:#DFC093;}
	.st5{fill:#B59529;}
	.st6{fill:#BDA27C;}
	.st7{fill:#997D21;}
	.st8{fill:#777777;}
	.st9{fill:#A4A4A5;}
	.st10{fill:#8A8A8B;}
	.st11{fill:#8C8D8D;}
	.st12{fill:#BBBBBC;}
	.st13{fill:#9E9E9E;}
	.st14{fill:#543404;}
	.st15{fill:#6A4109;}
	.st16{fill:#87550D;}
	.st17{fill:#9F6512;}
	.st18{fill:#B17115;}
	.st19{fill:#BD7918;}
	.st20{fill:#C27C19;}
	.st21{fill:#BF7B18;}
	.st22{fill:#B67416;}
	.st23{fill:#A66A14;}
	.st24{fill:#915B0F;}
	.st25{fill:#75490A;}
	.st26{fill:#6F4508;}
	.st27{fill:#653718;}
	.st28{fill:#A95F2F;}
	.st29{fill:#915127;}
	.st30{fill:#A45C2E;}
	.st31{fill:#A75E2E;}
	.st32{fill:#9F592B;}
	.st33{fill:#7D4621;}
	.st34{fill:#8A4D25;}
	.st35{fill:#75411E;}
	.st36{fill:#5B3115;}
	.st37{fill:#49260E;}
	.st38{fill:none;stroke:#000000;stroke-width:0.5;stroke-linecap:round;stroke-linejoin:round;stroke-miterlimit:10;}
	.st39{fill:none;stroke:#000000;stroke-linecap:round;stroke-linejoin:round;stroke-miterlimit:10;}
</style>
<g>
	<g>
		<g>
			<polygon class="st0" points="188.2,142.1 195.4,140.8 195.6,150.8 188.3,147.2 			"/>
			<polygon class="st1" points="195.4,140.8 188.2,142.1 188.2,140.1 195.3,138.7 			"/>
			<polygon class="st0" points="188.3,147.2 195.6,150.8 196.6,193.3 189.5,194.9 			"/>
			<polygon class="st0" points="189.5,194.9 196.6,193.3 196.8,201.9 189.6,197.7 			"/>
			<polygon class="st0" points="189.6,197.7 196.8,201.9 198.3,263.6 191.2,258.8 			"/>
			<polygon class="st2" points="195.3,138.7 188.2,140.1 188.1,138.4 195.3,137 			"/>
			<polygon class="st2" points="191.2,258.8 198.3,263.6 198.4,269.6 185,260.4 			"/>
			<polygon class="st1" points="191.2,258.8 185,260.4 180.2,81.6 186.8,84.3 188.1,138.4 188.2,140.1 188.2,142.1 188.3,147.2 
				189.5,194.9 189.6,197.7 			"/>
			<polygon class="st3" points="180.2,81.6 185,260.4 183.5,259.4 183.4,253.5 181.8,196.6 181.7,193.1 180.4,143.7 180.3,141.6 
				178.7,81 			"/>
			<polygon class="st3" points="180.2,81.6 178.7,81 178.4,80.9 175.9,79.9 170.6,77.8 164.2,75.2 162.7,74.6 159,73.1 157,72.3 
				155.3,71.7 149,69.1 147.6,68.6 140.8,65.8 134.5,63.3 133.2,62.8 132.4,62.5 126.9,60.3 120.7,57.8 119.5,57.3 114.3,55.2 
				108.2,52.8 107,52.3 106.9,49.6 195.7,84.7 195.8,87.9 194.1,87.2 186.8,84.3 			"/>
			<polygon class="st3" points="119.5,57.3 120.7,57.8 127.6,221.1 126.3,220.2 126.1,214.8 125.9,209.3 123.8,159.5 123.6,154.7 
				123.5,152.5 123.4,150.8 			"/>
			<polygon class="st3" points="133.2,62.8 134.5,63.3 140.9,230.2 139.6,229.3 139.4,223.8 138.7,206.4 137.2,167.3 136.6,152.1 
				136.6,150 136.5,148.8 			"/>
			<polygon class="st3" points="162.7,74.6 164.2,75.2 169.6,249.9 168.2,248.9 168,243.1 166.6,200.1 166.1,184.1 165,146.6 
				164.9,144.5 164.9,142.8 			"/>
			<polygon class="st3" points="147.6,68.6 149,69.1 154.9,239.8 153.6,238.9 153.4,233.2 152.3,203.3 151.3,175.5 150.4,149.5 
				150.3,147.3 150.3,145.6 			"/>
			<polygon class="st3" points="106.9,49.6 107,52.3 105.8,51.8 101.1,49.9 95.1,47.5 94,47.1 90.6,45.7 89.1,45.1 83.2,42.7 
				82.1,42.3 77.6,40.5 71.7,38.2 70.7,37.7 66.6,36.1 60.8,33.8 59.8,33.4 56,31.9 50.3,29.6 49.4,29.2 46.3,28 40.7,25.7 
				39.8,25.4 39.7,23 			"/>
			<polygon class="st3" points="49.4,29.2 50.3,29.6 58.9,174 57.9,173.3 57.7,168.5 57.6,167.4 57.5,165.2 57.4,163.4 			"/>
			<polygon class="st3" points="59.8,33.4 60.8,33.8 69.1,181 68.2,180.3 67.9,175.4 67.3,165.6 67.2,163.3 67.1,161.5 			"/>
			<polygon class="st3" points="82.1,42.3 83.2,42.7 91,196 89.9,195.3 89.7,190.2 88.2,161.5 88.1,159.3 88,157.5 			"/>
			<polygon class="st3" points="70.7,37.7 71.7,38.2 79.8,188.3 78.8,187.6 78.6,182.7 77.5,163.6 77.4,161.4 77.3,159.6 			"/>
			<polygon class="st3" points="94,47.1 95.1,47.5 102.7,204 101.5,203.2 101.3,198 99.4,159.3 99.3,157.2 99.2,155.4 			"/>
			<polygon class="st3" points="39.7,23 39.8,25.4 37.7,24.5 37.5,22.1 			"/>
			<polygon class="st4" points="421.2,212 421.2,213 354.7,231.6 354.7,230.5 412.6,214.4 414.6,213.8 416.6,213.3 			"/>
			<polygon class="st1" points="416.6,213.3 414.6,213.8 419.4,72.3 420.1,51.9 422.2,51.6 416.7,210.8 			"/>
			<polygon class="st1" points="414.6,213.8 412.6,214.4 417.4,72.6 419.4,72.3 			"/>
			<polygon class="st5" points="354.7,231.6 421.2,213 421,217.7 420.8,222.1 417.2,223.2 412.5,224.5 412.4,224.5 408.2,225.7 
				408,225.8 207.7,283 201.5,284.8 201.4,284.8 200.3,285.1 200,274.7 281.4,252 			"/>
			<polygon class="st4" points="354.7,230.5 354.7,231.6 281.4,252 281.4,250.9 283,250.5 285.4,249.8 			"/>
			<polygon class="st1" points="285.4,249.8 283,250.5 282.9,96.2 285.4,95.7 285.4,150 285.4,152.8 285.4,155 285.4,173.1 
				285.4,195.8 285.4,242.3 			"/>
			<polygon class="st4" points="281.4,250.9 281.4,252 200,274.7 200,273.5 206.2,271.8 208.9,271.1 211.5,270.3 275.7,252.5 
				278.1,251.8 280.6,251.1 			"/>
			<polygon class="st1" points="208.9,271.1 206.2,271.8 206.2,269 202.3,86.8 205.1,86.4 205.6,109.7 			"/>
			<polygon class="st1" points="211.5,270.3 208.9,271.1 205.6,109.7 208.4,109.2 208.9,134.4 208.9,136.1 208.9,138.1 209.3,157.7 
				210,190.3 210.3,209.7 211.4,262.5 			"/>
			<polygon class="st1" points="280.6,251.1 278.1,251.8 277.8,97 277.8,74.7 280.3,74.3 			"/>
			<polygon class="st1" points="278.1,251.8 275.7,252.5 275.3,97.5 277.8,97 			"/>
			<polygon class="st6" points="200,273.5 200,274.7 198.5,273.7 191.9,269.1 191.8,267.9 			"/>
			<polygon class="st6" points="191.8,267.9 191.9,269.1 111.7,213.6 111.7,212.6 114.4,214.4 			"/>
			<polygon class="st7" points="111.7,213.6 191.9,269.1 198.5,273.7 198.7,284.1 197.9,283.4 197.8,283.4 196.2,282.3 191.3,278.8 
				181.1,271.5 165.9,260.8 161.1,257.4 151.8,250.8 138.3,241.3 133.6,238 125.2,232 113.2,223.5 108.6,220.2 100.9,214.8 
				90.1,207.2 85.7,204 78.6,199 69,192.2 64.6,189.1 58,184.4 52.6,180.6 52.6,180.6 50.4,179.1 50.4,179 48.1,177.4 47.6,169.3 
							"/>
			<polygon class="st6" points="111.7,212.6 111.7,213.6 47.6,169.3 46.7,168.6 46.6,167.7 48.7,169.2 			"/>
			<polygon class="st3" points="200,273.5 191.8,267.9 114.4,214.4 114.2,211.9 115.4,212.7 126.3,220.2 127.6,221.1 139.6,229.3 
				140.9,230.2 153.6,238.9 154.9,239.8 168.2,248.9 169.6,249.9 183.5,259.4 185,260.4 198.4,269.6 200,270.7 			"/>
			<polygon class="st2" points="37.5,22.1 235.6,0.7 238.3,1.4 234,1.9 45.1,22.4 39.7,23 			"/>
			<polygon class="st3" points="37.7,24.5 39.8,25.4 48.6,166.9 46.5,165.5 			"/>
			<polygon class="st3" points="46.6,167.7 46.5,165.5 48.6,166.9 48.7,169.2 			"/>
			<polygon class="st3" points="48.7,169.2 48.6,166.9 49.5,167.5 57.9,173.3 58.9,174 68.2,180.3 69.1,181 78.8,187.6 79.8,188.3 
				89.9,195.3 91,196 101.5,203.2 102.7,204 113.1,211.1 114.2,211.9 114.4,214.4 111.7,212.6 			"/>
			<polygon class="st3" points="48.6,166.9 39.8,25.4 40.7,25.7 49.5,167.5 			"/>
			<polygon class="st1" points="420.1,51.9 419.4,72.3 417.4,72.6 412.9,73.4 407.9,74.3 403.2,75.1 401.4,75.4 389,77.6 
				384.3,78.4 382.5,78.7 370.9,80.8 366.2,81.6 364.6,81.9 353.7,83.8 349.1,84.6 347.5,84.8 337.2,86.7 332.7,87.4 331.2,87.7 
				322.2,89.3 317.7,90.1 316.3,90.3 314.9,90.6 306.4,92 302,92.8 300.6,93.1 292,94.6 287.7,95.3 286.4,95.6 285.4,95.7 
				282.9,96.2 282.9,73.9 			"/>
			<polygon class="st1" points="420.1,51.9 282.9,73.9 280.3,74.3 277.8,74.7 205.1,86.4 202.3,86.8 202.3,83.7 422.3,48.9 
				422.2,51.6 			"/>
			<polygon class="st1" points="282.9,73.9 282.9,96.2 283,250.5 281.4,250.9 280.6,251.1 280.3,74.3 			"/>
			<polygon class="st1" points="422.2,51.6 422.3,48.9 427.1,48.1 427,50.8 			"/>
			<polygon class="st2" points="422.3,48.9 202.3,83.7 198.5,82.2 198.9,82.1 200.8,81.9 216.3,79.4 218.9,79 220.7,78.7 
				234.8,76.5 235,76.5 236.1,76.3 240.3,75.7 246.6,74.7 247.8,74.5 252.1,73.8 259.3,72.7 260.6,72.5 264.9,71.8 272.6,70.6 
				273.8,70.4 278.2,69.7 286.4,68.4 287.7,68.2 292.1,67.5 300.7,66.2 302.1,66 306.6,65.3 315.1,63.9 316.5,63.7 317.9,63.5 
				322.5,62.8 331.5,61.4 333,61.1 337.6,60.4 347.9,58.8 349.5,58.5 354.1,57.8 365.1,56.1 366.8,55.8 371.5,55.1 383.2,53.2 
				384.9,53 389.6,52.2 402.1,50.3 403.9,50 408.7,49.2 411.2,48.8 417.9,47.8 			"/>
			<polygon class="st2" points="422.3,48.9 417.9,47.8 316.8,22.5 321.4,22 427.1,48.1 			"/>
			<polygon class="st1" points="202.3,83.7 202.3,86.8 195.8,87.9 195.7,84.7 			"/>
			<polygon class="st2" points="198.5,82.2 202.3,83.7 195.7,84.7 106.9,49.6 112.9,48.8 113.9,49.2 132.2,56.4 134.6,57.3 
				136.7,58.1 154.3,65 156.7,65.9 158.8,66.7 175.7,73.3 178.2,74.3 180.2,75.1 196.4,81.4 			"/>
			<polygon class="st1" points="208.4,109.2 205.6,109.7 205.1,86.4 277.8,74.7 277.8,97 275.3,97.5 271.3,98.2 265,99.3 260.7,100 
				259.5,100.3 252.3,101.5 248.1,102.3 246.9,102.5 240.7,103.6 236.5,104.3 235.4,104.5 235.2,104.5 221.2,107 219.3,107.3 
				216.8,107.7 			"/>
			<polygon class="st3" points="417.4,72.6 412.6,214.4 408.4,212.5 408.5,209.7 408.6,207.2 408.7,204 412.9,73.4 			"/>
			<polygon class="st0" points="408.4,212.5 412.6,214.4 354.7,230.5 345.5,225.9 407.1,209 408.5,209.7 			"/>
			<polygon class="st3" points="408.5,209.7 407.1,209 315.7,168.4 315.7,166.2 317.1,166.8 330.2,172.6 331.6,173.2 346,179.6 
				347.5,180.2 362.5,186.9 364,187.5 379.7,194.4 381.3,195.2 397.6,202.4 399.3,203.1 408.6,207.2 			"/>
			<polygon class="st0" points="315.7,168.4 407.1,209 345.5,225.9 285.4,195.8 285.4,173.1 312.4,167 			"/>
			<polygon class="st3" points="315.7,168.4 312.4,167 285.4,155 285.4,152.8 286.3,153.3 287.6,153.8 300.4,159.5 301.7,160.1 
				314.3,165.6 315.7,166.2 			"/>
			<polygon class="st0" points="285.4,155 312.4,167 285.4,173.1 			"/>
			<polygon class="st0" points="285.4,195.8 345.5,225.9 285.4,242.3 			"/>
			<polygon class="st0" points="285.4,242.3 345.5,225.9 354.7,230.5 285.4,249.8 			"/>
			<polygon class="st3" points="275.3,97.5 275.7,252.5 271.9,250.2 271.9,246 271.8,245.4 271.6,188.9 271.6,176.3 271.5,148.8 
				271.5,146.7 271.5,144 271.3,98.2 			"/>
			<polygon class="st0" points="271.9,250.2 275.7,252.5 211.5,270.3 211.4,262.5 271.9,246 			"/>
			<polygon class="st0" points="271.9,246 211.4,262.5 210.3,209.7 271.8,245.4 			"/>
			<polygon class="st0" points="271.8,245.4 210.3,209.7 210,190.3 254.3,180.2 271.6,188.9 			"/>
			<polygon class="st0" points="254.3,180.2 210,190.3 209.3,157.7 			"/>
			<polygon class="st0" points="254.3,180.2 209.3,157.7 208.9,138.1 235.7,132.9 271.5,148.8 271.6,176.3 			"/>
			<polygon class="st1" points="235.7,132.9 208.9,138.1 208.9,136.1 219.8,134 221.6,133.6 235.7,130.9 			"/>
			<polygon class="st3" points="271.5,148.8 235.7,132.9 235.7,130.9 236.8,131.4 247.3,136 248.4,136.5 259.8,141.6 261,142.1 
				271.5,146.7 			"/>
			<polygon class="st1" points="221.6,133.6 219.8,134 219.3,107.3 221.2,107 221.6,132 			"/>
			<polygon class="st0" points="254.3,180.2 271.6,176.3 271.6,188.9 			"/>
			<polygon class="st3" points="219.3,107.3 219.8,134 217.2,132.8 216.8,107.7 			"/>
			<polygon class="st2" points="217.2,132.8 219.8,134 208.9,136.1 208.9,134.4 			"/>
			<polygon class="st7" points="46.7,168.6 47.6,169.3 48.1,177.4 47.6,177 47.2,176.8 			"/>
			<polygon class="st7" points="198.5,273.7 200,274.7 200.3,285.1 198.7,284 			"/>
			<polygon class="st7" points="198.7,284.1 200.3,285.1 201.4,284.8 201.6,293.1 198,290.6 197.9,283.4 			"/>
			<polygon class="st8" points="198,290.6 201.6,293.1 201.7,293.2 207.9,291.4 207.8,288 208.2,288.1 209.6,288.8 210.6,289.5 
				211,290.4 210.9,291.4 210.3,292.3 209.1,293.1 207.6,293.8 205.7,294.3 203.6,294.5 201.4,294.6 199.4,294.3 197.6,293.9 
				196.2,293.2 195.2,292.4 194.8,291.5 194.9,290.6 195.6,289.7 196.8,288.9 197.9,288.4 197.9,290.5 			"/>
			<polygon class="st9" points="207.9,291.4 201.7,293.2 201.5,284.8 207.7,283 207.8,288 			"/>
			<polygon class="st10" points="197.9,288.4 197.9,290.5 198,290.6 197.9,283.4 197.8,283.4 			"/>
			<polygon class="st10" points="201.4,284.8 201.6,293.1 201.7,293.2 201.5,284.8 			"/>
			<polygon class="st8" points="194.8,291.5 195.2,292.4 196.2,293.2 197.6,293.9 199.4,294.3 201.4,294.6 203.6,294.5 205.7,294.3 
				207.6,293.8 209.1,293.1 210.3,292.3 210.9,291.4 211,290.4 210.6,289.5 209.6,288.8 208.2,288.1 207.8,288 207.7,283 408,225.8 
				408,228 407.4,228.2 406.3,228.7 405.6,229.3 405.3,230 405.6,230.7 406.3,231.3 407.5,231.9 409,232.4 410.7,232.8 412.5,232.9 
				414.4,232.9 416.1,232.7 417.5,232.3 418.6,231.8 419.3,231.2 419.5,230.5 419.2,229.8 418.5,229.2 417.3,228.6 417,228.4 
				417.2,223.2 420.8,222.1 421,217.7 455.6,233.1 189.8,313.3 19,182.7 47.6,177 48.1,177.4 50.4,179 50.7,183.6 50.2,183.7 
				49.1,184.2 48.4,184.7 48.1,185.3 48.2,185.8 48.7,186.3 49.6,186.7 50.9,186.9 52.4,187.1 54,187 55.7,186.9 57.3,186.6 
				58.1,186.3 58.3,188.4 64.8,193 69,192.2 78.6,199 78.8,203 85.9,208.1 90.1,207.2 100.9,214.8 101.1,219 108.8,224.5 
				113.2,223.5 125.2,232 125.4,236.4 133.8,242.4 138.3,241.3 151.8,250.8 152,255.4 161.2,262 165.9,260.8 181.1,271.5 
				181.2,276.3 191.4,283.6 196.2,282.3 197.8,283.4 197.9,288.4 196.8,288.9 195.6,289.7 194.9,290.6 			"/>
			<polygon class="st11" points="406.3,231.3 405.6,230.7 405.3,230 405.6,229.3 406.3,228.7 407.4,228.2 408,228 407.9,229.9 
				408,229.9 412.1,231.9 412.3,231.9 416.9,230.6 417,228.4 417.3,228.6 418.5,229.2 419.2,229.8 419.5,230.5 419.3,231.2 
				418.6,231.8 417.5,232.3 416.1,232.7 414.4,232.9 412.5,232.9 410.7,232.8 409,232.4 407.5,231.9 			"/>
			<polygon class="st9" points="416.9,230.6 412.3,231.9 412.5,224.5 417.2,223.2 417,228.4 			"/>
			<polygon class="st10" points="408,225.8 408,228 407.9,229.9 408,229.9 408.2,225.7 			"/>
			<polygon class="st10" points="412.4,224.5 412.1,231.9 412.3,231.9 412.5,224.5 			"/>
			<polygon class="st7" points="412.1,231.9 408,229.9 408.2,225.7 412.4,224.5 			"/>
			<polygon class="st11" points="48.2,185.8 48.1,185.3 48.4,184.7 49.1,184.2 50.2,183.7 50.7,183.6 50.7,184.7 50.8,184.7 
				52.9,186.2 53,186.3 58.1,185.2 58.1,186.3 57.3,186.6 55.7,186.9 54,187 52.4,187.1 50.9,186.9 49.6,186.7 48.7,186.3 			"/>
			<polygon class="st9" points="58.1,185.2 53,186.3 52.6,180.6 58,184.4 			"/>
			<polygon class="st10" points="50.7,183.6 50.7,184.7 50.8,184.7 50.4,179.1 50.4,179 			"/>
			<polygon class="st10" points="52.9,186.2 53,186.3 52.6,180.6 52.6,180.6 			"/>
			<polygon class="st7" points="52.9,186.2 50.8,184.7 50.4,179.1 52.6,180.6 			"/>
			<polygon class="st12" points="165.9,260.8 161.2,262 161.1,257.4 			"/>
			<polygon class="st13" points="161.2,262 152,255.4 151.8,250.8 161.1,257.4 			"/>
			<polygon class="st12" points="196.2,282.3 191.4,283.6 191.3,278.8 			"/>
			<polygon class="st13" points="191.4,283.6 181.2,276.3 181.1,271.5 191.3,278.8 			"/>
			<polygon class="st12" points="138.3,241.3 133.8,242.4 133.6,238 			"/>
			<polygon class="st13" points="133.8,242.4 125.4,236.4 125.2,232 133.6,238 			"/>
			<polygon class="st12" points="113.2,223.5 108.8,224.5 108.6,220.2 			"/>
			<polygon class="st13" points="108.8,224.5 101.1,219 100.9,214.8 108.6,220.2 			"/>
			<polygon class="st12" points="90.1,207.2 85.9,208.1 85.7,204 			"/>
			<polygon class="st13" points="85.9,208.1 78.8,203 78.6,199 85.7,204 			"/>
			<polygon class="st12" points="69,192.2 64.8,193 64.6,189.1 			"/>
			<polygon class="st13" points="64.8,193 58.3,188.4 58.1,186.3 58.1,185.2 58,184.4 64.6,189.1 			"/>
			<polygon class="st14" points="393.2,281.6 393.5,283.5 394.2,259 393.9,257.1 			"/>
			<polygon class="st15" points="394.9,285.4 393.5,283.5 394.2,259 395.6,260.8 			"/>
			<polygon class="st16" points="397.4,287.2 394.9,285.4 395.7,260.8 398.2,262.5 			"/>
			<polygon class="st17" points="400.9,288.7 397.4,287.2 398.2,262.5 401.7,263.9 			"/>
			<polygon class="st18" points="405,289.8 400.9,288.7 401.7,263.9 405.8,264.9 			"/>
			<polygon class="st19" points="409.6,290.4 405,289.8 405.8,264.9 410.4,265.5 			"/>
			<polygon class="st20" points="414.2,290.5 409.6,290.4 410.4,265.5 415.1,265.6 			"/>
			<polygon class="st21" points="418.6,290 414.2,290.5 415.1,265.6 419.5,265.2 			"/>
			<polygon class="st22" points="422.4,289.1 418.6,290 419.5,265.2 423.3,264.3 			"/>
			<polygon class="st23" points="425.4,287.8 422.4,289.1 423.3,264.3 426.3,263 			"/>
			<polygon class="st24" points="427.3,286.1 425.4,287.8 426.3,263 428.3,261.4 			"/>
			<polygon class="st25" points="428.1,284.2 427.3,286.1 428.3,261.4 429,259.6 			"/>
			<polygon class="st26" points="424.4,254.3 427.1,256 428.6,257.8 429,259.6 428.3,261.4 426.3,263 423.3,264.3 419.5,265.2 
				415.1,265.6 410.4,265.5 405.8,264.9 401.7,263.9 398.2,262.5 395.6,260.8 394.2,259 393.9,257.1 394.9,255.3 396.9,253.8 
				399.9,252.6 401.1,252.3 400.9,257.6 401.1,258.7 402,259.8 403.5,260.8 405.6,261.7 408.1,262.3 410.8,262.6 413.6,262.7 
				416.2,262.4 418.5,261.9 420.3,261.1 421.5,260.2 422,259.1 422.2,253.5 			"/>
			<polygon class="st17" points="405.6,261.7 403.5,260.8 403.9,249.6 406,248.9 			"/>
			<polygon class="st18" points="408.1,262.3 405.6,261.7 406,248.9 408.6,248.1 			"/>
			<polygon class="st14" points="401.2,250.4 401.1,252.3 400.9,257.6 401.1,258.7 401.4,250.3 			"/>
			<polygon class="st27" points="422,259.1 421.5,260.2 422.1,244 422.6,243.9 422.2,253.5 			"/>
			<polygon class="st28" points="413.6,262.7 410.8,262.6 411.4,247.3 414.2,246.4 			"/>
			<polygon class="st16" points="403.5,260.8 402,259.8 402.3,250 403.9,249.6 			"/>
			<polygon class="st15" points="402,259.8 401.1,258.7 401.4,250.3 402.3,250 			"/>
			<polygon class="st29" points="420.3,261.1 418.5,261.9 419.1,244.9 420.9,244.4 			"/>
			<polygon class="st30" points="410.8,262.6 408.1,262.3 408.6,248.1 411.4,247.3 			"/>
			<polygon class="st31" points="416.2,262.4 413.6,262.7 414.2,246.4 416.8,245.6 			"/>
			<polygon class="st32" points="418.5,261.9 416.2,262.4 416.8,245.6 419.1,244.9 			"/>
			<polygon class="st33" points="421.5,260.2 420.3,261.1 420.9,244.4 422.1,244 			"/>
			<polygon class="st15" points="184.8,354 184.2,351.4 183.4,323.6 184,326.1 			"/>
			<polygon class="st16" points="186.8,356.3 184.8,354 184,326.1 186,328.3 			"/>
			<polygon class="st17" points="190,358.3 186.8,356.3 186,328.3 189.2,330.2 			"/>
			<polygon class="st18" points="194.2,359.7 190,358.3 189.2,330.2 193.5,331.6 			"/>
			<polygon class="st19" points="199.1,360.6 194.2,359.7 193.5,331.6 198.4,332.4 			"/>
			<polygon class="st20" points="204.4,360.7 199.1,360.6 198.4,332.4 203.7,332.5 			"/>
			<polygon class="st21" points="209.6,360.1 204.4,360.7 203.7,332.5 209.1,331.9 			"/>
			<polygon class="st22" points="214.5,358.9 209.6,360.1 209,331.9 214,330.8 			"/>
			<polygon class="st23" points="218.7,357.1 214.5,358.9 214,330.8 218.1,329 			"/>
			<polygon class="st24" points="221.8,354.9 218.7,357.1 218.1,329 221.3,326.9 			"/>
			<polygon class="st25" points="223.7,352.4 221.8,354.9 221.3,326.9 223.2,324.5 			"/>
			<polygon class="st14" points="224.2,349.8 223.7,352.4 223.2,324.5 223.8,322.1 			"/>
			<polygon class="st26" points="198.4,332.4 193.5,331.6 189.2,330.2 186,328.3 184,326.1 183.4,323.7 184.2,321.2 186.2,318.9 
				189.5,316.8 191.3,316.1 191.5,323.3 191.9,324.8 193.1,326.1 195,327.2 197.6,328 200.5,328.5 203.7,328.6 206.9,328.3 
				209.8,327.6 212.3,326.5 214.2,325.3 215.4,323.9 215.7,322.4 215.6,315.1 217.6,315.7 220.8,317.5 223,319.7 223.8,322.1 
				223.2,324.5 221.3,326.9 218.1,329 214,330.8 209,331.9 203.7,332.5 			"/>
			<polygon class="st31" points="206.9,328.3 203.7,328.6 203.3,310.2 206.4,309.2 			"/>
			<polygon class="st28" points="203.7,328.6 200.5,328.5 200.1,311.1 203.3,310.2 			"/>
			<polygon class="st30" points="200.5,328.5 197.6,328 197.2,312 200.1,311.1 			"/>
			<polygon class="st32" points="209.8,327.6 206.9,328.3 206.4,309.2 209.4,308.3 			"/>
			<polygon class="st18" points="197.6,328 195,327.2 194.7,312.8 197.2,312 			"/>
			<polygon class="st23" points="212.3,326.5 209.8,327.6 209.4,308.3 211.9,307.6 			"/>
			<polygon class="st34" points="195,327.2 193.1,326.1 192.8,313.3 194.7,312.8 			"/>
			<polygon class="st24" points="214.2,325.3 212.3,326.5 211.9,307.6 213.8,307 			"/>
			<polygon class="st35" points="193.1,326.1 191.9,324.8 191.6,313.7 192.8,313.3 			"/>
			<polygon class="st27" points="215.4,323.9 214.2,325.3 213.8,307 215,306.6 			"/>
			<polygon class="st36" points="191.3,313.8 191.3,316.1 191.5,323.3 191.9,324.8 191.6,313.7 			"/>
			<polygon class="st37" points="215,306.6 215.4,323.9 215.7,322.4 215.6,315.1 215.4,306.5 			"/>
			<polygon class="st17" points="44.6,236.8 42.6,235.6 41.2,213.4 43.2,214.5 			"/>
			<polygon class="st18" points="47.6,237.6 44.6,236.8 43.2,214.5 46.2,215.3 			"/>
			<polygon class="st19" points="51.2,238.1 47.6,237.6 46.2,215.3 49.8,215.8 			"/>
			<polygon class="st20" points="55.2,238.2 51.2,238.1 49.8,215.8 53.8,215.8 			"/>
			<polygon class="st21" points="59.4,237.8 55.2,238.2 53.8,215.8 58,215.5 			"/>
			<polygon class="st22" points="63.4,237.1 59.4,237.8 58,215.5 60.4,215.1 62.2,216.4 			"/>
			<polygon class="st23" points="67,236 63.4,237.1 62.2,216.4 66,219.4 			"/>
			<polygon class="st24" points="69.9,234.7 67,236 66,219.4 69.1,221.8 			"/>
			<polygon class="st25" points="71.9,233.3 69.9,234.7 69.1,221.8 71.3,223.5 			"/>
			<polygon class="st14" points="72.9,231.7 71.9,233.2 71.3,223.5 72.5,224.3 			"/>
			<polygon class="st15" points="72.9,231.7 72.8,230.2 72.5,224.4 72.5,224.3 			"/>
			<polygon class="st16" points="42.6,235.6 41.6,234.2 40.2,212.1 41.2,213.4 			"/>
			<polygon class="st26" points="43.2,214.5 41.2,213.4 40.2,212.1 40.2,210.6 41.4,209.2 43.5,207.8 46.2,206.7 46.5,211.3 
				47.1,212.1 48.4,212.8 50.1,213.2 52.3,213.5 54.7,213.6 57.2,213.4 58,213.2 60.4,215.1 58,215.5 53.8,215.8 49.8,215.8 
				46.2,215.3 			"/>
			<polygon class="st35" points="47.1,212.1 46.5,211.3 46.2,206.7 46,204.1 46.6,204.6 			"/>
			<polygon class="st17" points="48.4,212.8 47.1,212.1 46.6,204.6 47.9,205.5 			"/>
			<polygon class="st18" points="50.1,213.2 48.4,212.8 47.9,205.5 49.7,206.9 			"/>
			<polygon class="st19" points="52.3,213.5 50.1,213.2 49.7,206.9 52,208.6 			"/>
			<polygon class="st20" points="54.7,213.6 52.3,213.5 52,208.6 54.5,210.6 			"/>
			<polygon class="st21" points="57.2,213.4 54.7,213.6 54.5,210.6 57.1,212.6 			"/>
			<polygon class="st22" points="57.2,213.4 58,213.2 57.1,212.6 			"/>
			<polygon class="st3" points="331.6,173.2 330.2,172.6 330.2,169.6 331.2,87.7 332.7,87.4 			"/>
			<polygon class="st1" points="331.6,173.2 332.7,87.4 337.2,86.7 336.1,172.2 			"/>
			<polygon class="st2" points="331.6,173.2 336.1,172.2 346,176.6 346,179.6 			"/>
			<polygon class="st3" points="317.1,166.8 315.7,166.2 316.3,90.3 317.7,90.1 			"/>
			<polygon class="st1" points="317.1,166.8 317.7,90.1 322.2,89.3 321.5,165.8 			"/>
			<polygon class="st2" points="317.1,166.8 321.5,165.8 330.2,169.6 330.2,172.6 			"/>
			<polygon class="st3" points="316.3,90.3 315.7,166.2 314.3,165.6 314.3,162.7 314.9,90.6 			"/>
			<polygon class="st3" points="347.5,180.2 346,179.6 346,176.6 347.5,84.8 349.1,84.6 			"/>
			<polygon class="st1" points="347.5,180.2 349.1,84.6 353.7,83.8 352,179.2 			"/>
			<polygon class="st2" points="347.5,180.2 352,179.2 362.5,183.8 362.5,186.9 			"/>
			<polygon class="st3" points="381.3,195.2 379.7,194.4 379.7,191.3 382.5,78.7 384.3,78.4 			"/>
			<polygon class="st1" points="381.3,195.2 384.3,78.4 389,77.6 385.9,194 			"/>
			<polygon class="st2" points="381.3,195.2 385.9,194 397.7,199.2 397.6,202.4 			"/>
			<polygon class="st1" points="416.7,210.8 422.2,51.6 427,50.8 421.3,209.5 			"/>
			<polygon class="st1" points="416.7,210.8 421.3,209.5 421.2,212 416.6,213.3 			"/>
			<polygon class="st3" points="364,187.5 362.5,186.9 362.5,183.8 364.6,81.9 366.2,81.6 			"/>
			<polygon class="st1" points="364,187.5 366.2,81.6 370.9,80.8 368.6,186.4 			"/>
			<polygon class="st2" points="364,187.5 368.6,186.4 379.7,191.3 379.7,194.4 			"/>
			<polygon class="st3" points="399.3,203.1 397.6,202.4 397.7,199.2 401.4,75.4 403.2,75.1 			"/>
			<polygon class="st1" points="399.3,203.1 403.2,75.1 407.9,74.3 403.9,201.9 			"/>
			<polygon class="st2" points="399.3,203.1 403.9,201.9 408.7,204 408.6,207.2 			"/>
			<polygon class="st2" points="321.4,22 316.8,22.5 234,1.9 238.3,1.4 			"/>
			<polygon class="st3" points="248.4,136.5 247.3,136 247.2,133.4 246.9,102.5 248.1,102.3 			"/>
			<polygon class="st1" points="248.4,136.5 248.1,102.3 252.3,101.5 252.6,135.7 			"/>
			<polygon class="st2" points="248.4,136.5 252.6,135.7 259.8,138.9 259.8,141.6 			"/>
			<polygon class="st3" points="236.8,131.4 235.7,130.9 235.7,129.4 235.4,104.5 236.5,104.3 			"/>
			<polygon class="st1" points="236.8,131.4 236.5,104.3 240.7,103.6 241,130.6 			"/>
			<polygon class="st2" points="236.8,131.4 241,130.6 247.2,133.4 247.3,136 			"/>
			<polygon class="st3" points="261,142.1 259.8,141.6 259.8,138.9 259.5,100.3 260.7,100 			"/>
			<polygon class="st1" points="261,142.1 260.7,100 265,99.3 265.2,141.2 			"/>
			<polygon class="st2" points="261,142.1 265.2,141.2 271.5,144 271.5,146.7 			"/>
			<polygon class="st3" points="287.6,153.8 286.3,153.3 286.3,150.5 286.4,95.6 287.7,95.3 			"/>
			<polygon class="st1" points="287.6,153.8 287.7,95.3 292,94.6 291.9,152.9 			"/>
			<polygon class="st2" points="287.6,153.8 291.9,152.9 300.4,156.6 300.4,159.5 			"/>
			<polygon class="st3" points="301.7,160.1 300.4,159.5 300.4,156.6 300.6,93.1 302,92.8 			"/>
			<polygon class="st1" points="301.7,160.1 302,92.8 306.4,92 306.1,159.1 			"/>
			<polygon class="st2" points="301.7,160.1 306.1,159.1 314.3,162.7 314.3,165.6 			"/>
			<polygon class="st3" points="234,1.9 316.8,22.5 316.8,25 315.4,24.6 306.8,22.4 302.3,21.3 300.9,20.9 292.2,18.7 287.7,17.6 
				286.4,17.3 278.1,15.2 273.7,14 272.4,13.7 264.6,11.7 260.2,10.6 258.9,10.3 251.5,8.4 247.2,7.3 246,7 239.5,5.4 235.2,4.3 
				234.1,4 			"/>
			<polygon class="st1" points="234,1.9 234.1,4 233.9,4.1 219.5,5.6 217.6,5.8 215,6.1 199.2,7.9 197.3,8.1 194.7,8.4 178.4,10.1 
				176.4,10.4 173.9,10.6 157,12.5 155,12.7 152.6,13 135.1,14.9 133,15.1 130.6,15.4 112.5,17.4 110.4,17.6 108.1,17.9 89.3,19.9 
				87.1,20.2 84.9,20.4 65.5,22.5 63.2,22.8 61.1,23 49.9,24.3 45.1,22.4 			"/>
			<polygon class="st1" points="133,15.1 135.1,14.9 136.7,58.1 134.6,57.3 			"/>
			<polygon class="st1" points="87.1,20.2 89.3,19.9 90.3,40 88.1,39.1 			"/>
			<polygon class="st1" points="110.4,17.6 112.5,17.4 113.9,49.2 112.9,48.8 111.7,48.4 			"/>
			<polygon class="st1" points="63.2,22.8 65.5,22.5 65.9,30.5 63.6,29.6 			"/>
			<polygon class="st3" points="246,7 247.2,7.3 247.8,74.5 246.6,74.7 			"/>
			<polygon class="st3" points="258.9,10.3 260.2,10.6 260.6,72.5 259.3,72.7 			"/>
			<polygon class="st3" points="286.4,17.3 287.7,17.6 287.7,68.2 286.4,68.4 			"/>
			<polygon class="st3" points="272.4,13.7 273.7,14 273.8,70.4 272.6,70.6 			"/>
			<polygon class="st3" points="300.9,20.9 302.3,21.3 302.1,66 300.7,66.2 			"/>
			<polygon class="st3" points="133,15.1 134.6,57.3 132.2,56.4 130.6,15.4 			"/>
			<polygon class="st3" points="87.1,20.2 88.1,39.1 85.8,38.3 84.9,20.4 			"/>
			<polygon class="st3" points="110.4,17.6 111.7,48.4 109.4,47.5 108.1,17.9 			"/>
			<polygon class="st3" points="63.2,22.8 63.6,29.6 61.4,28.7 61.1,23 			"/>
			<polygon class="st1" points="176.4,10.4 178.4,10.1 180.2,75.1 178.2,74.3 			"/>
			<polygon class="st3" points="176.4,10.4 178.2,74.3 175.7,73.3 173.9,10.6 			"/>
			<polygon class="st3" points="154.3,65 152.6,13 155,12.7 156.7,65.9 			"/>
			<polygon class="st1" points="156.7,65.9 155,12.7 157,12.5 158.8,66.7 			"/>
			<polygon class="st3" points="196.4,81.4 194.7,8.4 197.3,8.1 198.9,82.1 198.5,82.2 			"/>
			<polygon class="st1" points="198.9,82.1 197.3,8.1 199.2,7.9 200.8,81.9 			"/>
			<polygon class="st3" points="216.3,79.4 215,6.1 217.6,5.8 218.9,79 			"/>
			<polygon class="st1" points="218.9,79 217.6,5.8 219.5,5.6 220.7,78.7 			"/>
			<polygon class="st3" points="234.8,76.5 233.9,4.1 234.1,4 235,76.5 			"/>
			<polygon class="st3" points="316.8,25 316.8,22.5 417.9,47.8 411.2,48.8 408.8,48.2 404,47 402.2,46.6 389.9,43.4 385.2,42.2 
				383.5,41.8 371.8,38.9 367.2,37.7 365.5,37.3 354.5,34.5 349.9,33.3 348.3,32.9 338,30.3 333.4,29.1 331.9,28.8 322.8,26.5 
				318.3,25.3 			"/>
			<polygon class="st3" points="331.9,28.8 333.4,29.1 333,61.1 331.5,61.4 			"/>
			<polygon class="st3" points="348.3,32.9 349.9,33.3 349.5,58.5 347.9,58.8 			"/>
			<polygon class="st3" points="383.5,41.8 385.2,42.2 384.9,53 383.2,53.2 			"/>
			<polygon class="st3" points="365.5,37.3 367.2,37.7 366.8,55.8 365.1,56.1 			"/>
			<polygon class="st3" points="402.2,46.6 404,47 403.9,50 402.1,50.3 			"/>
			<polygon class="st1" points="333,61.1 333.4,29.1 338,30.3 337.6,60.4 			"/>
			<polygon class="st1" points="322.8,26.5 322.5,62.8 317.9,63.5 318.3,25.3 			"/>
			<polygon class="st3" points="318.3,25.3 317.9,63.5 316.5,63.7 316.8,25 			"/>
			<polygon class="st3" points="316.8,25 316.5,63.7 315.1,63.9 315.4,24.6 			"/>
			<polygon class="st1" points="349.5,58.5 349.9,33.3 354.5,34.5 354.1,57.8 			"/>
			<polygon class="st1" points="384.9,53 385.2,42.2 389.9,43.4 389.6,52.2 			"/>
			<polygon class="st1" points="366.8,55.8 367.2,37.7 371.8,38.9 371.5,55.1 			"/>
			<polygon class="st1" points="403.9,50 404,47 408.8,48.2 408.7,49.2 			"/>
			<polygon class="st1" points="247.8,74.5 247.2,7.3 251.5,8.4 252.1,73.8 			"/>
			<polygon class="st1" points="239.5,5.4 240.3,75.7 236.1,76.3 235.2,4.3 			"/>
			<polygon class="st3" points="235.2,4.3 236.1,76.3 235,76.5 234.1,4 			"/>
			<polygon class="st1" points="260.6,72.5 260.2,10.6 264.6,11.7 264.9,71.8 			"/>
			<polygon class="st1" points="287.7,68.2 287.7,17.6 292.2,18.7 292.1,67.5 			"/>
			<polygon class="st1" points="273.8,70.4 273.7,14 278.1,15.2 278.2,69.7 			"/>
			<polygon class="st1" points="302.1,66 302.3,21.3 306.8,22.4 306.6,65.3 			"/>
			<polygon class="st1" points="58.9,174 50.3,29.6 56,31.9 63.6,162.2 63.7,164 63.8,166.2 64.2,172.9 			"/>
			<polygon class="st2" points="58.9,174 64.2,172.9 67.9,175.4 68.2,180.3 			"/>
			<polygon class="st1" points="49.5,167.5 40.7,25.7 46.3,28 54.6,163.9 54.7,165.7 54.7,166.5 			"/>
			<polygon class="st2" points="49.5,167.5 54.7,166.5 56.4,167.7 57.7,168.5 57.9,173.3 			"/>
			<polygon class="st1" points="69.1,181 60.8,33.8 66.6,36.1 73.4,160.3 73.5,162.1 73.7,164.3 74.5,179.9 			"/>
			<polygon class="st2" points="69.1,181 74.5,179.9 78.6,182.7 78.8,187.6 			"/>
			<polygon class="st1" points="91,196 83.2,42.7 89.1,45.1 94.7,158 94.8,160.2 96.5,194.8 			"/>
			<polygon class="st2" points="91,196 96.5,194.8 101.3,198 101.5,203.2 			"/>
			<polygon class="st3" points="105.8,51.8 107,52.3 114.2,211.9 113.1,211.1 112.8,205.8 110.6,157.2 110.5,155 110.4,153.2 			"/>
			<polygon class="st3" points="114.2,211.9 107,52.3 108.2,52.8 115.4,212.7 			"/>
			<polygon class="st1" points="79.8,188.3 71.7,38.2 77.6,40.5 83.8,158.3 83.9,160.1 84,162.3 85.3,187.2 			"/>
			<polygon class="st2" points="79.8,188.3 85.3,187.2 89.7,190.2 89.9,195.3 			"/>
			<polygon class="st1" points="102.7,204 95.1,47.5 101.1,49.9 106,154.1 106.1,155.9 106.2,158 108.3,202.7 			"/>
			<polygon class="st2" points="102.7,204 108.3,202.7 112.8,205.8 113.1,211.1 			"/>
			<polygon class="st0" points="67.9,175.4 64.2,172.9 63.8,166.2 67.3,165.6 			"/>
			<polygon class="st1" points="67.3,165.6 63.8,166.2 63.7,164 67.2,163.3 			"/>
			<polygon class="st2" points="67.2,163.3 63.7,164 63.6,162.2 67.1,161.5 			"/>
			<polygon class="st0" points="78.6,182.7 74.5,179.9 73.7,164.3 77.5,163.6 			"/>
			<polygon class="st1" points="77.5,163.6 73.7,164.3 73.5,162.1 77.4,161.4 			"/>
			<polygon class="st2" points="77.4,161.4 73.5,162.1 73.4,160.3 77.3,159.6 			"/>
			<polygon class="st0" points="89.7,190.2 85.3,187.2 84,162.3 88.2,161.5 			"/>
			<polygon class="st1" points="88.2,161.5 84,162.3 83.9,160.1 88.1,159.3 			"/>
			<polygon class="st2" points="88.1,159.3 83.9,160.1 83.8,158.3 88,157.5 			"/>
			<polygon class="st0" points="101.3,198 96.5,194.8 94.8,160.2 99.4,159.3 			"/>
			<polygon class="st1" points="99.4,159.3 94.8,160.2 94.7,158 96.1,157.8 99.3,157.2 			"/>
			<polygon class="st1" points="96.1,157.8 94.7,158 89.1,45.1 90.6,45.7 96.1,156 			"/>
			<polygon class="st0" points="112.8,205.8 108.3,202.7 106.2,158 110.6,157.2 			"/>
			<polygon class="st1" points="110.6,157.2 106.2,158 106.1,155.9 110.5,155 			"/>
			<polygon class="st2" points="110.5,155 106.1,155.9 106,154.1 110.4,153.2 			"/>
			<polygon class="st2" points="39.7,23 45.1,22.4 49.9,24.3 61.4,28.7 63.6,29.6 65.9,30.5 85.8,38.3 88.1,39.1 90.3,40 
				109.4,47.5 111.7,48.4 112.9,48.8 106.9,49.6 			"/>
			<polygon class="st1" points="127.6,221.1 120.7,57.8 126.9,60.3 130.5,149.4 130.6,151.1 130.7,153.3 131.1,163.7 132.9,207.8 
				133.3,219.7 			"/>
			<polygon class="st2" points="127.6,221.1 133.3,219.7 139.4,223.8 139.6,229.3 			"/>
			<polygon class="st1" points="115.4,212.7 108.2,52.8 114.3,55.2 118.5,151.7 118.6,153.5 118.7,155.6 118.7,156.5 121.1,210.4 
				121.1,211.4 			"/>
			<polygon class="st2" points="115.4,212.7 121.1,211.4 126.1,214.8 126.3,220.2 			"/>
			<polygon class="st1" points="140.9,230.2 134.5,63.3 140.8,65.8 143.8,146.9 143.8,148.6 143.9,150.7 144.7,171.6 145.9,204.8 
				146.8,228.8 			"/>
			<polygon class="st2" points="140.9,230.2 146.8,228.8 153.4,233.2 153.6,238.9 			"/>
			<polygon class="st1" points="169.6,249.9 164.2,75.2 170.6,77.8 172.5,141.4 172.6,143.1 172.6,145.2 173.9,188.5 174.2,198.4 
				175.6,248.3 			"/>
			<polygon class="st2" points="169.6,249.9 175.6,248.3 183.4,253.5 183.5,259.4 			"/>
			<polygon class="st1" points="195.8,87.9 202.3,86.8 206.2,269 200,270.7 			"/>
			<polygon class="st1" points="200,270.7 206.2,269 206.2,271.8 200,273.5 			"/>
			<polygon class="st3" points="195.8,87.9 200,270.7 198.4,269.6 198.3,263.6 196.8,201.9 196.6,193.3 195.6,150.8 195.4,140.8 
				195.3,138.7 195.3,137 194.1,87.2 			"/>
			<polygon class="st1" points="154.9,239.8 149,69.1 155.3,71.7 157.8,144.8 157.8,145.9 157.9,148 158.9,179.9 159.6,201.7 
				160.9,238.3 			"/>
			<polygon class="st2" points="154.9,239.8 160.9,238.3 168,243.1 168.2,248.9 			"/>
			<polygon class="st0" points="126.1,214.8 121.1,211.4 121.1,210.4 125.9,209.3 			"/>
			<polygon class="st0" points="125.9,209.3 121.1,210.4 118.7,156.5 123.8,159.5 			"/>
			<polygon class="st0" points="123.8,159.5 118.7,156.5 118.7,155.6 123.6,154.7 			"/>
			<polygon class="st1" points="123.6,154.7 118.7,155.6 118.6,153.5 123.5,152.5 			"/>
			<polygon class="st2" points="123.5,152.5 118.6,153.5 118.5,151.7 123.4,150.8 			"/>
			<polygon class="st0" points="139.4,223.8 133.3,219.7 132.9,207.8 138.7,206.4 			"/>
			<polygon class="st0" points="138.7,206.4 132.9,207.8 131.1,163.7 137.2,167.3 			"/>
			<polygon class="st0" points="137.2,167.3 131.1,163.7 130.7,153.3 136.6,152.1 			"/>
			<polygon class="st1" points="136.6,152.1 130.7,153.3 130.6,151.1 136.6,150 			"/>
			<polygon class="st2" points="136.6,150 130.6,151.1 130.5,149.4 135.8,148.4 136.5,148.8 			"/>
			<polygon class="st3" points="136.5,148.8 135.8,148.4 132.4,62.5 133.2,62.8 			"/>
			<polygon class="st0" points="153.4,233.2 146.8,228.8 145.9,204.8 152.3,203.3 			"/>
			<polygon class="st0" points="152.3,203.3 145.9,204.8 144.7,171.6 151.3,175.5 			"/>
			<polygon class="st0" points="151.3,175.5 144.7,171.6 143.9,150.7 150.4,149.5 			"/>
			<polygon class="st1" points="150.4,149.5 143.9,150.7 143.8,148.6 150.3,147.3 			"/>
			<polygon class="st2" points="150.3,147.3 143.8,148.6 143.8,146.9 150.3,145.6 			"/>
			<polygon class="st0" points="168,243.1 160.9,238.3 159.6,201.7 166.6,200.1 			"/>
			<polygon class="st0" points="166.6,200.1 159.6,201.7 158.9,179.9 166.1,184.1 			"/>
			<polygon class="st0" points="166.1,184.1 158.9,179.9 157.9,148 165,146.6 			"/>
			<polygon class="st1" points="165,146.6 157.9,148 157.8,145.9 159.4,145.6 161.3,145.2 164.9,144.5 			"/>
			<polygon class="st1" points="161.3,145.2 159.4,145.6 157,72.3 159,73.1 161.3,143.5 			"/>
			<polygon class="st3" points="157,72.3 159.4,145.6 157.8,144.8 155.3,71.7 			"/>
			<polygon class="st2" points="157.8,144.8 159.4,145.6 157.8,145.9 			"/>
			<polygon class="st0" points="183.4,253.5 175.6,248.3 174.2,198.4 181.8,196.6 			"/>
			<polygon class="st0" points="181.8,196.6 174.2,198.4 173.9,188.5 181.7,193.1 			"/>
			<polygon class="st0" points="181.7,193.1 173.9,188.5 172.6,145.2 180.4,143.7 			"/>
			<polygon class="st1" points="180.4,143.7 172.6,145.2 172.6,143.1 180,141.6 180.3,141.6 			"/>
			<polygon class="st1" points="180.3,141.6 180,141.6 178.4,80.9 178.7,81 			"/>
			<polygon class="st3" points="178.4,80.9 180,141.6 177.6,140.4 175.9,79.9 			"/>
			<polygon class="st2" points="177.6,140.4 180,141.6 172.6,143.1 172.5,141.4 			"/>
			<polygon class="st12" points="455.5,233.1 455.5,233.9 422.6,243.9 422.1,244 420.9,244.4 419.1,244.9 416.8,245.6 414.2,246.4 
				411.4,247.3 408.6,248.1 406,248.9 403.9,249.6 402.3,250 401.4,250.3 401.2,250.4 215.4,306.5 215,306.6 213.8,307 211.9,307.6 
				209.4,308.3 206.4,309.2 203.3,310.2 200.1,311.1 197.2,312 194.7,312.8 192.8,313.3 191.6,313.7 191.3,313.8 189.8,314.2 
				189.8,313.3 			"/>
			<polygon class="st13" points="189.8,313.3 189.8,314.2 72.5,224.4 72.5,224.3 71.3,223.5 69.1,221.8 66,219.4 62.2,216.4 
				60.4,215.1 58,213.2 57.1,212.6 54.5,210.6 52,208.6 49.7,206.9 47.9,205.5 46.6,204.6 46,204.1 19.1,183.4 19,182.7 			"/>
			<polygon class="st2" points="96.1,157.8 96.1,156 99.2,155.4 99.3,157.2 			"/>
			<polygon class="st2" points="161.3,145.2 161.3,143.5 164.9,142.8 164.9,144.5 			"/>
			<polygon class="st2" points="221.6,133.6 221.6,132 235.5,129.3 235.7,129.4 235.7,130.9 			"/>
			<polygon class="st3" points="235.2,104.5 235.5,129.3 235.7,129.4 235.4,104.5 			"/>
			<polygon class="st2" points="285.4,152.8 286.3,153.3 286.3,150.5 285.4,150 			"/>
			<polygon class="st2" points="54.5,163.9 57.4,163.4 57.5,165.2 54.7,165.7 			"/>
			<polygon class="st1" points="54.7,165.7 57.5,165.2 57.6,167.4 56.4,167.7 54.7,166.5 			"/>
			<polygon class="st0" points="56.4,167.7 57.6,167.4 57.7,168.5 			"/>
			<line class="st38" x1="195.2" y1="292.4" x2="194.8" y2="291.5"/>
			<line class="st38" x1="195.2" y1="292.4" x2="196.2" y2="293.2"/>
			<line class="st38" x1="210.9" y1="291.4" x2="211" y2="290.4"/>
			<line class="st38" x1="210.3" y1="292.3" x2="210.9" y2="291.4"/>
			<line class="st38" x1="209.1" y1="293.1" x2="210.3" y2="292.3"/>
			<line class="st38" x1="207.6" y1="293.8" x2="209.1" y2="293.1"/>
			<line class="st38" x1="205.7" y1="294.3" x2="207.6" y2="293.8"/>
			<line class="st38" x1="203.6" y1="294.5" x2="205.7" y2="294.3"/>
			<line class="st38" x1="201.4" y1="294.6" x2="203.6" y2="294.5"/>
			<line class="st38" x1="199.4" y1="294.3" x2="201.4" y2="294.6"/>
			<line class="st38" x1="197.6" y1="293.9" x2="199.4" y2="294.3"/>
			<line class="st38" x1="196.2" y1="293.2" x2="197.6" y2="293.9"/>
			<polyline class="st38" points="405.6,230.7 406.3,231.3 407.5,231.9 			"/>
			<line class="st38" x1="419.3" y1="231.2" x2="419.5" y2="230.5"/>
			<line class="st38" x1="418.6" y1="231.8" x2="419.3" y2="231.2"/>
			<line class="st38" x1="417.5" y1="232.3" x2="418.6" y2="231.8"/>
			<line class="st38" x1="416.1" y1="232.7" x2="417.5" y2="232.3"/>
			<line class="st38" x1="414.4" y1="232.9" x2="416.1" y2="232.7"/>
			<line class="st38" x1="412.5" y1="232.9" x2="414.4" y2="232.9"/>
			<line class="st38" x1="410.7" y1="232.8" x2="412.5" y2="232.9"/>
			<line class="st38" x1="409" y1="232.4" x2="410.7" y2="232.8"/>
			<line class="st38" x1="407.5" y1="231.9" x2="409" y2="232.4"/>
			<line class="st38" x1="405.6" y1="230.7" x2="405.3" y2="230"/>
			<line class="st38" x1="48.2" y1="185.8" x2="48.1" y2="185.3"/>
			<line class="st38" x1="48.2" y1="185.8" x2="48.7" y2="186.3"/>
			<line class="st38" x1="57.3" y1="186.6" x2="58.1" y2="186.3"/>
			<line class="st38" x1="55.7" y1="186.9" x2="57.3" y2="186.6"/>
			<line class="st38" x1="54" y1="187" x2="55.7" y2="186.9"/>
			<line class="st38" x1="52.4" y1="187.1" x2="54" y2="187"/>
			<line class="st38" x1="50.9" y1="186.9" x2="52.4" y2="187.1"/>
			<line class="st38" x1="49.6" y1="186.7" x2="50.9" y2="186.9"/>
			<line class="st38" x1="48.7" y1="186.3" x2="49.6" y2="186.7"/>
			<polyline class="st38" points="403.5,260.8 405.6,261.7 408.1,262.3 			"/>
			<line class="st38" x1="401.1" y1="258.7" x2="400.9" y2="257.6"/>
			<line class="st38" x1="421.5" y1="260.2" x2="422" y2="259.1"/>
			<line class="st38" x1="410.8" y1="262.6" x2="413.6" y2="262.7"/>
			<line class="st38" x1="402" y1="259.8" x2="403.5" y2="260.8"/>
			<line class="st38" x1="402" y1="259.8" x2="401.1" y2="258.7"/>
			<line class="st38" x1="418.5" y1="261.9" x2="420.3" y2="261.1"/>
			<line class="st38" x1="408.1" y1="262.3" x2="410.8" y2="262.6"/>
			<polyline class="st38" points="413.6,262.7 416.2,262.4 418.5,261.9 			"/>
			<line class="st38" x1="420.3" y1="261.1" x2="421.5" y2="260.2"/>
			<line class="st38" x1="203.7" y1="328.6" x2="206.9" y2="328.3"/>
			<line class="st38" x1="200.5" y1="328.5" x2="203.7" y2="328.6"/>
			<line class="st38" x1="197.6" y1="328" x2="200.5" y2="328.5"/>
			<line class="st38" x1="206.9" y1="328.3" x2="209.8" y2="327.6"/>
			<line class="st38" x1="195" y1="327.2" x2="197.6" y2="328"/>
			<line class="st38" x1="209.8" y1="327.6" x2="212.3" y2="326.5"/>
			<line class="st38" x1="193.1" y1="326.1" x2="195" y2="327.2"/>
			<line class="st38" x1="212.3" y1="326.5" x2="214.2" y2="325.3"/>
			<line class="st38" x1="193.1" y1="326.1" x2="191.9" y2="324.8"/>
			<line class="st38" x1="214.2" y1="325.3" x2="215.4" y2="323.9"/>
			<line class="st38" x1="191.9" y1="324.8" x2="191.5" y2="323.3"/>
			<line class="st38" x1="215.4" y1="323.9" x2="215.7" y2="322.4"/>
			<line class="st38" x1="47.1" y1="212.1" x2="46.5" y2="211.3"/>
			<polyline class="st38" points="47.1,212.1 48.4,212.8 50.1,213.2 52.3,213.5 54.7,213.6 57.2,213.4 58,213.2 			"/>
			<line class="st38" x1="200" y1="274.7" x2="200" y2="273.5"/>
			<line class="st38" x1="134.6" y1="57.3" x2="133" y2="15.1"/>
			<line class="st38" x1="88.1" y1="39.1" x2="87.1" y2="20.2"/>
			<line class="st38" x1="111.7" y1="48.4" x2="110.4" y2="17.6"/>
			<line class="st38" x1="63.6" y1="29.6" x2="63.2" y2="22.8"/>
			<line class="st38" x1="37.5" y1="22.1" x2="39.7" y2="23"/>
			<line class="st38" x1="54.7" y1="165.7" x2="57.5" y2="165.2"/>
			<line class="st38" x1="63.7" y1="164" x2="67.2" y2="163.3"/>
			<line class="st38" x1="73.5" y1="162.1" x2="77.4" y2="161.4"/>
			<line class="st38" x1="83.9" y1="160.1" x2="88.1" y2="159.3"/>
			<line class="st38" x1="106.1" y1="155.9" x2="110.5" y2="155"/>
			<line class="st38" x1="118.6" y1="153.5" x2="123.5" y2="152.5"/>
			<line class="st38" x1="130.6" y1="151.1" x2="136.6" y2="150"/>
			<line class="st38" x1="143.8" y1="148.6" x2="150.3" y2="147.3"/>
			<line class="st38" x1="188.2" y1="140.1" x2="195.3" y2="138.7"/>
			<line class="st38" x1="180" y1="141.6" x2="178.4" y2="80.9"/>
			<line class="st38" x1="178.2" y1="74.3" x2="176.4" y2="10.4"/>
			<line class="st38" x1="159.4" y1="145.6" x2="157" y2="72.3"/>
			<line class="st38" x1="156.7" y1="65.9" x2="155" y2="12.7"/>
			<line class="st38" x1="198.9" y1="82.1" x2="197.3" y2="8.1"/>
			<line class="st38" x1="219.8" y1="134" x2="219.3" y2="107.3"/>
			<line class="st38" x1="218.9" y1="79" x2="217.6" y2="5.8"/>
			<line class="st38" x1="202.3" y1="83.7" x2="422.3" y2="48.9"/>
			<line class="st38" x1="417.4" y1="72.6" x2="412.6" y2="214.4"/>
			<line class="st38" x1="275.3" y1="97.5" x2="275.7" y2="252.5"/>
			<line class="st38" x1="200.3" y1="285.1" x2="200" y2="274.7"/>
			<line class="st38" x1="201.7" y1="293.2" x2="201.5" y2="284.8"/>
			<line class="st38" x1="412.3" y1="231.9" x2="412.5" y2="224.5"/>
			<line class="st38" x1="53" y1="186.3" x2="52.6" y2="180.6"/>
			<line class="st38" x1="161.2" y1="262" x2="161.1" y2="257.4"/>
			<line class="st38" x1="191.4" y1="283.6" x2="191.3" y2="278.8"/>
			<line class="st38" x1="133.8" y1="242.4" x2="133.6" y2="238"/>
			<line class="st38" x1="108.8" y1="224.5" x2="108.6" y2="220.2"/>
			<line class="st38" x1="85.9" y1="208.1" x2="85.7" y2="204"/>
			<line class="st38" x1="64.8" y1="193" x2="64.6" y2="189.1"/>
			<polyline class="st38" points="393.9,257.1 394.2,259 395.6,260.8 398.2,262.5 401.7,263.9 405.8,264.9 410.4,265.5 415.1,265.6 
				419.5,265.2 423.3,264.3 426.3,263 428.3,261.4 429,259.6 			"/>
			<polyline class="st38" points="193.5,331.6 198.4,332.4 203.7,332.5 209.1,331.9 214,330.8 218.1,329 221.3,326.9 223.2,324.5 
				223.8,322.1 			"/>
			<polyline class="st38" points="183.4,323.7 184,326.1 186,328.3 189.2,330.2 193.5,331.6 			"/>
			<polyline class="st38" points="41.2,213.4 43.2,214.5 46.2,215.3 49.8,215.8 53.8,215.8 58,215.5 60.4,215.1 			"/>
			<line class="st38" x1="40.2" y1="212.1" x2="41.2" y2="213.4"/>
			<line class="st38" x1="331.6" y1="173.2" x2="332.7" y2="87.4"/>
			<line class="st38" x1="333" y1="61.1" x2="333.4" y2="29.1"/>
			<line class="st38" x1="317.1" y1="166.8" x2="317.7" y2="90.1"/>
			<line class="st38" x1="317.9" y1="63.5" x2="318.3" y2="25.3"/>
			<line class="st38" x1="347.5" y1="180.2" x2="349.1" y2="84.6"/>
			<line class="st38" x1="349.5" y1="58.5" x2="349.9" y2="33.3"/>
			<line class="st38" x1="381.3" y1="195.2" x2="384.3" y2="78.4"/>
			<line class="st38" x1="384.9" y1="53" x2="385.2" y2="42.2"/>
			<line class="st38" x1="364" y1="187.5" x2="366.2" y2="81.6"/>
			<line class="st38" x1="366.8" y1="55.8" x2="367.2" y2="37.7"/>
			<line class="st38" x1="399.3" y1="203.1" x2="403.2" y2="75.1"/>
			<line class="st38" x1="403.9" y1="50" x2="404" y2="47"/>
			<line class="st38" x1="427.1" y1="48.1" x2="422.3" y2="48.9"/>
			<line class="st38" x1="248.4" y1="136.5" x2="248.1" y2="102.3"/>
			<line class="st38" x1="247.8" y1="74.5" x2="247.2" y2="7.3"/>
			<line class="st38" x1="236.8" y1="131.4" x2="236.5" y2="104.3"/>
			<line class="st38" x1="236.1" y1="76.3" x2="235.2" y2="4.3"/>
			<line class="st38" x1="261" y1="142.1" x2="260.7" y2="100"/>
			<line class="st38" x1="260.6" y1="72.5" x2="260.2" y2="10.6"/>
			<line class="st38" x1="287.6" y1="153.8" x2="287.7" y2="95.3"/>
			<line class="st38" x1="287.7" y1="68.2" x2="287.7" y2="17.6"/>
			<line class="st38" x1="273.8" y1="70.4" x2="273.7" y2="14"/>
			<line class="st38" x1="301.7" y1="160.1" x2="302" y2="92.8"/>
			<line class="st38" x1="302.1" y1="66" x2="302.3" y2="21.3"/>
			<line class="st38" x1="316.8" y1="22.5" x2="234" y2="1.9"/>
			<line class="st38" x1="58.9" y1="174" x2="50.3" y2="29.6"/>
			<line class="st38" x1="49.5" y1="167.5" x2="40.7" y2="25.7"/>
			<line class="st38" x1="69.1" y1="181" x2="60.8" y2="33.8"/>
			<line class="st38" x1="91" y1="196" x2="83.2" y2="42.7"/>
			<line class="st38" x1="79.8" y1="188.3" x2="71.7" y2="38.2"/>
			<line class="st38" x1="102.7" y1="204" x2="95.1" y2="47.5"/>
			<line class="st38" x1="106.9" y1="49.6" x2="39.7" y2="23"/>
			<line class="st38" x1="127.6" y1="221.1" x2="120.7" y2="57.8"/>
			<line class="st38" x1="115.4" y1="212.7" x2="108.2" y2="52.8"/>
			<line class="st38" x1="140.9" y1="230.2" x2="134.5" y2="63.3"/>
			<line class="st38" x1="169.6" y1="249.9" x2="164.2" y2="75.2"/>
			<line class="st38" x1="200" y1="270.7" x2="195.8" y2="87.9"/>
			<line class="st38" x1="154.9" y1="239.8" x2="149" y2="69.1"/>
			<line class="st38" x1="185" y1="260.4" x2="180.2" y2="81.6"/>
			<line class="st38" x1="200" y1="273.5" x2="200" y2="270.7"/>
			<line class="st38" x1="195.7" y1="84.7" x2="106.9" y2="49.6"/>
			<line class="st38" x1="195.8" y1="87.9" x2="195.7" y2="84.7"/>
			<line class="st38" x1="202.3" y1="83.7" x2="195.7" y2="84.7"/>
			<line class="st38" x1="455.5" y1="233.1" x2="189.8" y2="313.3"/>
			<polyline class="st38" points="189.8,314.2 189.8,313.3 19,182.7 			"/>
			<line class="st38" x1="96.1" y1="157.8" x2="99.3" y2="157.2"/>
			<line class="st38" x1="157.8" y1="145.9" x2="159.4" y2="145.6"/>
			<line class="st38" x1="172.6" y1="143.1" x2="180" y2="141.6"/>
			<line class="st38" x1="208.9" y1="136.1" x2="219.8" y2="134"/>
			<line class="st38" x1="417.9" y1="47.8" x2="316.8" y2="22.5"/>
			<line class="st38" x1="271.5" y1="146.7" x2="261" y2="142.1"/>
			<polyline class="st38" points="412.6,214.4 354.7,230.5 285.4,249.8 			"/>
			<line class="st38" x1="45.1" y1="22.4" x2="234" y2="1.9"/>
			<line class="st38" x1="161.3" y1="145.2" x2="164.9" y2="144.5"/>
			<line class="st38" x1="221.6" y1="133.6" x2="235.7" y2="130.9"/>
			<line class="st38" x1="314.3" y1="165.6" x2="301.7" y2="160.1"/>
			<line class="st38" x1="57.9" y1="173.3" x2="49.5" y2="167.5"/>
			<line class="st38" x1="346" y1="179.6" x2="331.6" y2="173.2"/>
			<line class="st38" x1="330.2" y1="172.6" x2="317.1" y2="166.8"/>
			<line class="st38" x1="300.4" y1="159.5" x2="287.6" y2="153.8"/>
			<line class="st38" x1="259.8" y1="141.6" x2="248.4" y2="136.5"/>
			<line class="st38" x1="126.3" y1="220.2" x2="115.4" y2="212.7"/>
			<line class="st38" x1="408.6" y1="207.2" x2="399.3" y2="203.1"/>
			<line class="st38" x1="286.3" y1="153.3" x2="285.4" y2="152.8"/>
			<line class="st38" x1="89.9" y1="195.3" x2="79.8" y2="188.3"/>
			<line class="st38" x1="139.6" y1="229.3" x2="127.6" y2="221.1"/>
			<line class="st38" x1="275.7" y1="252.5" x2="211.5" y2="270.3"/>
			<line class="st38" x1="397.6" y1="202.4" x2="381.3" y2="195.2"/>
			<line class="st38" x1="379.7" y1="194.4" x2="364" y2="187.5"/>
			<line class="st38" x1="362.5" y1="186.9" x2="347.5" y2="180.2"/>
			<line class="st38" x1="247.3" y1="136" x2="236.8" y2="131.4"/>
			<line class="st38" x1="153.6" y1="238.9" x2="140.9" y2="230.2"/>
			<line class="st38" x1="78.8" y1="187.6" x2="69.1" y2="181"/>
			<line class="st38" x1="168.2" y1="248.9" x2="154.9" y2="239.8"/>
			<line class="st38" x1="113.1" y1="211.1" x2="102.7" y2="204"/>
			<line class="st38" x1="101.5" y1="203.2" x2="91" y2="196"/>
			<line class="st38" x1="68.2" y1="180.3" x2="58.9" y2="174"/>
			<line class="st38" x1="198.4" y1="269.6" x2="185" y2="260.4"/>
			<line class="st38" x1="183.5" y1="259.4" x2="169.6" y2="249.9"/>
			<line class="st39" x1="188.2" y1="142.1" x2="195.4" y2="140.8"/>
			<polyline class="st39" points="208.9,138.1 235.7,132.9 271.5,148.8 			"/>
			<line class="st39" x1="285.4" y1="155" x2="312.4" y2="167"/>
			<line class="st39" x1="118.7" y1="155.6" x2="123.6" y2="154.7"/>
			<line class="st39" x1="130.7" y1="153.3" x2="136.6" y2="152.1"/>
			<line class="st39" x1="143.9" y1="150.7" x2="150.4" y2="149.5"/>
			<line class="st39" x1="157.9" y1="148" x2="165" y2="146.6"/>
			<line class="st39" x1="172.6" y1="145.2" x2="180.4" y2="143.7"/>
			<line class="st39" x1="315.7" y1="168.4" x2="407.1" y2="209"/>
			<line class="st39" x1="312.4" y1="167" x2="315.7" y2="168.4"/>
			<line class="st39" x1="414.6" y1="213.8" x2="416.6" y2="213.3"/>
			<polyline class="st39" points="408.4,212.5 412.6,214.4 414.6,213.8 			"/>
			<line class="st39" x1="407.1" y1="209" x2="408.5" y2="209.7"/>
			<line class="st39" x1="283" y1="250.5" x2="285.4" y2="249.8"/>
			<polyline class="st39" points="206.2,271.8 208.9,271.1 211.5,270.3 			"/>
			<line class="st39" x1="278.1" y1="251.8" x2="280.6" y2="251.1"/>
			<line class="st39" x1="275.7" y1="252.5" x2="278.1" y2="251.8"/>
			<line class="st39" x1="271.9" y1="250.2" x2="275.7" y2="252.5"/>
			<line class="st39" x1="135.8" y1="148.4" x2="136.5" y2="148.8"/>
			<line class="st39" x1="133" y1="15.1" x2="135.1" y2="14.9"/>
			<line class="st39" x1="235.5" y1="129.3" x2="235.7" y2="129.4"/>
			<line class="st39" x1="87.1" y1="20.2" x2="89.3" y2="19.9"/>
			<line class="st39" x1="110.4" y1="17.6" x2="112.5" y2="17.4"/>
			<line class="st39" x1="63.2" y1="22.8" x2="65.5" y2="22.5"/>
			<line class="st39" x1="234.1" y1="4" x2="234" y2="1.9"/>
			<line class="st39" x1="56.4" y1="167.7" x2="57.6" y2="167.4"/>
			<line class="st39" x1="63.8" y1="166.2" x2="67.3" y2="165.5"/>
			<line class="st39" x1="73.7" y1="164.3" x2="77.5" y2="163.6"/>
			<line class="st39" x1="84" y1="162.3" x2="88.2" y2="161.5"/>
			<line class="st39" x1="94.8" y1="160.2" x2="99.4" y2="159.3"/>
			<line class="st39" x1="106.2" y1="158" x2="110.6" y2="157.2"/>
			<line class="st39" x1="235.7" y1="132.9" x2="235.7" y2="130.9"/>
			<polyline class="st39" points="157.8,144.8 159.4,145.6 161.3,145.2 			"/>
			<polyline class="st39" points="177.6,140.4 180,141.6 180.3,141.6 			"/>
			<polyline class="st39" points="217.2,132.8 219.8,134 221.6,133.6 			"/>
			<line class="st39" x1="282.9" y1="73.9" x2="420.1" y2="51.9"/>
			<line class="st39" x1="201.7" y1="293.2" x2="207.9" y2="291.4"/>
			<line class="st39" x1="197.9" y1="290.5" x2="198" y2="290.6"/>
			<line class="st39" x1="201.6" y1="293.1" x2="201.7" y2="293.2"/>
			<line class="st39" x1="198" y1="290.6" x2="201.6" y2="293.1"/>
			<polyline class="st39" points="194.9,290.6 195.6,289.7 196.8,288.9 197.9,288.4 			"/>
			<polyline class="st39" points="207.8,288 208.2,288.1 209.6,288.8 210.6,289.5 			"/>
			<line class="st39" x1="211" y1="290.4" x2="210.6" y2="289.5"/>
			<line class="st39" x1="194.8" y1="291.5" x2="194.9" y2="290.6"/>
			<line class="st39" x1="412.3" y1="231.9" x2="416.9" y2="230.6"/>
			<line class="st39" x1="407.9" y1="229.9" x2="408" y2="229.9"/>
			<line class="st39" x1="412.1" y1="231.9" x2="412.3" y2="231.9"/>
			<line class="st39" x1="408" y1="229.9" x2="412.1" y2="231.9"/>
			<line class="st39" x1="419.5" y1="230.5" x2="419.2" y2="229.8"/>
			<polyline class="st39" points="405.3,230 405.6,229.3 406.3,228.7 407.4,228.2 408,228 			"/>
			<polyline class="st39" points="417,228.4 417.3,228.6 418.5,229.2 419.2,229.8 			"/>
			<line class="st39" x1="53" y1="186.3" x2="58.1" y2="185.2"/>
			<line class="st39" x1="50.7" y1="184.7" x2="50.8" y2="184.7"/>
			<line class="st39" x1="52.9" y1="186.2" x2="53" y2="186.3"/>
			<line class="st39" x1="50.8" y1="184.7" x2="52.9" y2="186.2"/>
			<polyline class="st39" points="48.4,184.7 49.1,184.2 50.2,183.7 50.7,183.6 			"/>
			<line class="st39" x1="48.1" y1="185.3" x2="48.4" y2="184.7"/>
			<line class="st39" x1="331.6" y1="173.2" x2="336.1" y2="172.2"/>
			<line class="st39" x1="331.9" y1="28.8" x2="333.4" y2="29.1"/>
			<line class="st39" x1="317.1" y1="166.8" x2="321.5" y2="165.8"/>
			<line class="st39" x1="347.5" y1="180.2" x2="352" y2="179.2"/>
			<line class="st39" x1="348.3" y1="32.9" x2="349.9" y2="33.3"/>
			<line class="st39" x1="381.3" y1="195.2" x2="385.9" y2="194"/>
			<line class="st39" x1="383.5" y1="41.8" x2="385.2" y2="42.2"/>
			<line class="st39" x1="364" y1="187.5" x2="368.6" y2="186.4"/>
			<line class="st39" x1="365.5" y1="37.3" x2="367.2" y2="37.7"/>
			<line class="st39" x1="399.3" y1="203.1" x2="403.9" y2="201.9"/>
			<line class="st39" x1="402.2" y1="46.6" x2="404" y2="47"/>
			<line class="st39" x1="248.4" y1="136.5" x2="252.6" y2="135.7"/>
			<line class="st39" x1="246" y1="7" x2="247.2" y2="7.3"/>
			<line class="st39" x1="236.8" y1="131.4" x2="241" y2="130.6"/>
			<line class="st39" x1="261" y1="142.1" x2="265.2" y2="141.2"/>
			<line class="st39" x1="258.9" y1="10.3" x2="260.2" y2="10.6"/>
			<line class="st39" x1="287.6" y1="153.8" x2="291.9" y2="152.9"/>
			<line class="st39" x1="286.4" y1="17.3" x2="287.7" y2="17.6"/>
			<line class="st39" x1="272.4" y1="13.7" x2="273.7" y2="14"/>
			<line class="st39" x1="301.7" y1="160.1" x2="306.1" y2="159.1"/>
			<line class="st39" x1="300.9" y1="20.9" x2="302.3" y2="21.3"/>
			<line class="st39" x1="58.9" y1="174" x2="64.2" y2="172.9"/>
			<line class="st39" x1="49.4" y1="29.2" x2="50.3" y2="29.6"/>
			<line class="st39" x1="49.5" y1="167.5" x2="54.7" y2="166.5"/>
			<line class="st39" x1="69.1" y1="181" x2="74.5" y2="179.9"/>
			<line class="st39" x1="59.8" y1="33.4" x2="60.8" y2="33.8"/>
			<line class="st39" x1="91" y1="196" x2="96.5" y2="194.8"/>
			<line class="st39" x1="82.1" y1="42.3" x2="83.2" y2="42.7"/>
			<line class="st39" x1="79.8" y1="188.3" x2="85.3" y2="187.2"/>
			<line class="st39" x1="70.7" y1="37.7" x2="71.7" y2="38.2"/>
			<line class="st39" x1="102.7" y1="204" x2="108.3" y2="202.7"/>
			<line class="st39" x1="94" y1="47.1" x2="95.1" y2="47.5"/>
			<line class="st39" x1="127.6" y1="221.1" x2="133.3" y2="219.7"/>
			<line class="st39" x1="119.5" y1="57.3" x2="120.7" y2="57.8"/>
			<line class="st39" x1="115.4" y1="212.7" x2="121.1" y2="211.4"/>
			<line class="st39" x1="140.9" y1="230.2" x2="146.8" y2="228.8"/>
			<line class="st39" x1="133.2" y1="62.8" x2="134.5" y2="63.3"/>
			<line class="st39" x1="169.6" y1="249.9" x2="175.6" y2="248.3"/>
			<line class="st39" x1="162.7" y1="74.6" x2="164.2" y2="75.2"/>
			<line class="st39" x1="154.9" y1="239.8" x2="160.9" y2="238.3"/>
			<line class="st39" x1="147.6" y1="68.6" x2="149" y2="69.1"/>
			<line class="st39" x1="185" y1="260.4" x2="191.2" y2="258.8"/>
			<line class="st39" x1="178.7" y1="81" x2="180.2" y2="81.6"/>
			<line class="st39" x1="254.3" y1="180.2" x2="209.3" y2="157.7"/>
			<line class="st39" x1="195.6" y1="150.8" x2="188.3" y2="147.2"/>
			<line class="st39" x1="312.4" y1="167" x2="285.4" y2="173.1"/>
			<line class="st39" x1="271.6" y1="176.3" x2="254.3" y2="180.2"/>
			<line class="st39" x1="181.7" y1="193.1" x2="173.9" y2="188.5"/>
			<line class="st39" x1="166.1" y1="184.1" x2="158.9" y2="179.9"/>
			<line class="st39" x1="151.3" y1="175.5" x2="144.7" y2="171.6"/>
			<line class="st39" x1="137.2" y1="167.3" x2="131.1" y2="163.7"/>
			<line class="st39" x1="123.8" y1="159.5" x2="118.7" y2="156.5"/>
			<line class="st39" x1="254.3" y1="180.2" x2="210" y2="190.3"/>
			<line class="st39" x1="196.6" y1="193.3" x2="189.5" y2="194.9"/>
			<line class="st39" x1="345.5" y1="225.9" x2="285.4" y2="195.8"/>
			<line class="st39" x1="271.6" y1="188.9" x2="254.3" y2="180.2"/>
			<line class="st39" x1="407.1" y1="209" x2="345.5" y2="225.9"/>
			<line class="st39" x1="271.8" y1="245.4" x2="210.3" y2="209.7"/>
			<line class="st39" x1="196.8" y1="201.9" x2="189.6" y2="197.7"/>
			<line class="st39" x1="345.5" y1="225.9" x2="285.4" y2="242.3"/>
			<line class="st39" x1="191.9" y1="269.1" x2="111.7" y2="213.6"/>
			<line class="st39" x1="191.9" y1="269.1" x2="191.8" y2="267.9"/>
			<line class="st39" x1="111.7" y1="213.6" x2="111.7" y2="212.6"/>
			<line class="st39" x1="121.1" y1="210.4" x2="125.9" y2="209.3"/>
			<line class="st39" x1="132.9" y1="207.8" x2="138.7" y2="206.4"/>
			<line class="st39" x1="145.9" y1="204.8" x2="152.3" y2="203.3"/>
			<line class="st39" x1="159.6" y1="201.7" x2="166.6" y2="200.1"/>
			<line class="st39" x1="174.2" y1="198.4" x2="181.8" y2="196.6"/>
			<line class="st39" x1="271.9" y1="246" x2="211.4" y2="262.5"/>
			<polyline class="st39" points="421.2,213 354.7,231.6 354.7,230.5 345.5,225.9 			"/>
			<line class="st39" x1="421.2" y1="213" x2="421.2" y2="212"/>
			<polyline class="st39" points="354.7,231.6 281.4,252 281.4,250.9 			"/>
			<line class="st39" x1="281.4" y1="252" x2="200" y2="274.7"/>
			<line class="st39" x1="200" y1="273.5" x2="191.8" y2="267.9"/>
			<line class="st39" x1="130.6" y1="15.4" x2="132.2" y2="56.4"/>
			<line class="st39" x1="132.4" y1="62.5" x2="135.8" y2="148.4"/>
			<line class="st39" x1="136.7" y1="58.1" x2="135.1" y2="14.9"/>
			<line class="st39" x1="233.9" y1="4.1" x2="234.8" y2="76.5"/>
			<line class="st39" x1="235.2" y1="104.5" x2="235.5" y2="129.3"/>
			<line class="st39" x1="84.9" y1="20.4" x2="85.8" y2="38.3"/>
			<line class="st39" x1="90.3" y1="40" x2="89.3" y2="19.9"/>
			<line class="st39" x1="94.7" y1="158" x2="96.1" y2="157.8"/>
			<line class="st39" x1="108.1" y1="17.9" x2="109.4" y2="47.5"/>
			<line class="st39" x1="113.9" y1="49.2" x2="112.5" y2="17.4"/>
			<line class="st39" x1="61.1" y1="23" x2="61.4" y2="28.7"/>
			<line class="st39" x1="65.9" y1="30.5" x2="65.5" y2="22.5"/>
			<line class="st39" x1="37.7" y1="24.5" x2="37.5" y2="22.1"/>
			<line class="st39" x1="235.6" y1="0.7" x2="37.5" y2="22.1"/>
			<line class="st39" x1="238.3" y1="1.4" x2="235.6" y2="0.7"/>
			<line class="st39" x1="39.8" y1="25.4" x2="39.7" y2="23"/>
			<line class="st39" x1="37.7" y1="24.5" x2="39.8" y2="25.4"/>
			<line class="st39" x1="46.6" y1="167.7" x2="46.5" y2="165.5"/>
			<line class="st39" x1="235.5" y1="129.3" x2="221.6" y2="132"/>
			<line class="st39" x1="217.2" y1="132.8" x2="208.9" y2="134.4"/>
			<line class="st39" x1="195.3" y1="137" x2="188.1" y2="138.4"/>
			<line class="st39" x1="177.6" y1="140.4" x2="172.5" y2="141.4"/>
			<line class="st39" x1="164.9" y1="142.8" x2="161.3" y2="143.5"/>
			<line class="st39" x1="150.3" y1="145.6" x2="143.8" y2="146.9"/>
			<line class="st39" x1="135.8" y1="148.4" x2="130.5" y2="149.4"/>
			<line class="st39" x1="123.4" y1="150.8" x2="118.5" y2="151.7"/>
			<line class="st39" x1="110.4" y1="153.2" x2="106" y2="154.1"/>
			<line class="st39" x1="99.2" y1="155.4" x2="96.1" y2="156"/>
			<line class="st39" x1="88" y1="157.5" x2="83.8" y2="158.3"/>
			<line class="st39" x1="77.3" y1="159.6" x2="73.4" y2="160.3"/>
			<line class="st39" x1="67.1" y1="161.5" x2="63.6" y2="162.2"/>
			<line class="st39" x1="57.4" y1="163.4" x2="54.6" y2="163.9"/>
			<line class="st39" x1="48.7" y1="169.2" x2="48.6" y2="166.9"/>
			<line class="st39" x1="46.6" y1="167.7" x2="48.7" y2="169.2"/>
			<line class="st39" x1="46.5" y1="165.5" x2="48.6" y2="166.9"/>
			<line class="st39" x1="173.9" y1="10.6" x2="175.7" y2="73.3"/>
			<line class="st39" x1="175.9" y1="79.9" x2="177.6" y2="140.4"/>
			<line class="st39" x1="180.2" y1="75.1" x2="178.4" y2="10.1"/>
			<line class="st39" x1="176.4" y1="10.4" x2="178.4" y2="10.1"/>
			<line class="st39" x1="152.6" y1="13" x2="154.3" y2="65"/>
			<line class="st39" x1="158.8" y1="66.7" x2="157" y2="12.5"/>
			<line class="st39" x1="155" y1="12.7" x2="157" y2="12.5"/>
			<line class="st39" x1="194.7" y1="8.4" x2="196.4" y2="81.4"/>
			<line class="st39" x1="200.8" y1="81.9" x2="199.2" y2="7.9"/>
			<line class="st39" x1="197.3" y1="8.1" x2="199.2" y2="7.9"/>
			<line class="st39" x1="48.6" y1="166.9" x2="39.8" y2="25.4"/>
			<line class="st39" x1="37.7" y1="24.5" x2="46.5" y2="165.5"/>
			<line class="st39" x1="215" y1="6.1" x2="216.3" y2="79.4"/>
			<line class="st39" x1="216.8" y1="107.7" x2="217.2" y2="132.8"/>
			<line class="st39" x1="220.7" y1="78.7" x2="219.5" y2="5.6"/>
			<line class="st39" x1="217.6" y1="5.8" x2="219.5" y2="5.6"/>
			<line class="st39" x1="282.9" y1="73.9" x2="282.9" y2="96.2"/>
			<line class="st39" x1="419.4" y1="72.3" x2="420.1" y2="51.9"/>
			<line class="st39" x1="422.3" y1="48.9" x2="417.9" y2="47.8"/>
			<line class="st39" x1="422.2" y1="51.6" x2="422.3" y2="48.9"/>
			<line class="st39" x1="202.3" y1="86.8" x2="202.3" y2="83.7"/>
			<line class="st39" x1="198.5" y1="82.2" x2="202.3" y2="83.7"/>
			<line class="st39" x1="205.6" y1="109.7" x2="208.9" y2="271.1"/>
			<line class="st39" x1="205.6" y1="109.7" x2="208.4" y2="109.2"/>
			<line class="st39" x1="202.3" y1="86.8" x2="205.1" y2="86.4"/>
			<line class="st39" x1="420.1" y1="51.9" x2="422.2" y2="51.6"/>
			<line class="st39" x1="419.4" y1="72.3" x2="414.6" y2="213.8"/>
			<line class="st39" x1="417.4" y1="72.6" x2="419.4" y2="72.3"/>
			<line class="st39" x1="280.6" y1="251.1" x2="280.3" y2="74.3"/>
			<line class="st39" x1="277.8" y1="74.7" x2="280.3" y2="74.3"/>
			<line class="st39" x1="277.8" y1="97" x2="278.1" y2="251.8"/>
			<line class="st39" x1="275.3" y1="97.5" x2="277.8" y2="97"/>
			<line class="st39" x1="280.3" y1="74.3" x2="282.9" y2="73.9"/>
			<line class="st39" x1="282.9" y1="96.2" x2="283" y2="250.5"/>
			<line class="st39" x1="282.9" y1="96.2" x2="285.4" y2="95.7"/>
			<line class="st39" x1="46.7" y1="168.6" x2="47.6" y2="169.3"/>
			<line class="st39" x1="47.2" y1="176.8" x2="46.7" y2="168.6"/>
			<line class="st39" x1="48.1" y1="177.4" x2="47.6" y2="169.3"/>
			<line class="st39" x1="198.5" y1="273.7" x2="200" y2="274.7"/>
			<line class="st39" x1="198.7" y1="284.1" x2="198.5" y2="273.7"/>
			<line class="st39" x1="198.7" y1="284.1" x2="200.3" y2="285.1"/>
			<line class="st39" x1="205.1" y1="86.4" x2="205.6" y2="109.7"/>
			<polyline class="st39" points="277.8,97 277.8,74.7 205.1,86.4 			"/>
			<line class="st39" x1="198" y1="290.6" x2="197.9" y2="283.4"/>
			<line class="st39" x1="201.6" y1="293.1" x2="201.4" y2="284.8"/>
			<line class="st39" x1="408" y1="229.9" x2="408.2" y2="225.7"/>
			<line class="st39" x1="412.1" y1="231.9" x2="412.4" y2="224.5"/>
			<line class="st39" x1="50.8" y1="184.7" x2="50.4" y2="179.1"/>
			<line class="st39" x1="52.9" y1="186.2" x2="52.6" y2="180.6"/>
			<line class="st39" x1="152" y1="255.4" x2="151.8" y2="250.8"/>
			<line class="st39" x1="181.2" y1="276.3" x2="181.1" y2="271.5"/>
			<line class="st39" x1="125.4" y1="236.4" x2="125.2" y2="232"/>
			<line class="st39" x1="101.1" y1="219" x2="100.9" y2="214.8"/>
			<line class="st39" x1="78.8" y1="203" x2="78.6" y2="199"/>
			<polyline class="st39" points="393.2,281.6 393.5,283.5 394.9,285.4 397.4,287.2 400.9,288.7 405,289.8 409.6,290.4 414.2,290.5 
				418.6,290 422.4,289.1 425.4,287.8 427.3,286.1 428.1,284.2 			"/>
			<polyline class="st39" points="427.1,256 424.4,254.3 422.2,253.5 			"/>
			<polyline class="st39" points="401.1,252.3 399.9,252.6 396.9,253.8 394.9,255.3 393.9,257.1 			"/>
			<polyline class="st39" points="429,259.6 428.6,257.8 427.1,256 			"/>
			<line class="st39" x1="393.2" y1="281.6" x2="393.9" y2="257.1"/>
			<line class="st39" x1="428.1" y1="284.2" x2="429" y2="259.6"/>
			<polyline class="st39" points="184.2,351.4 184.8,354 186.8,356.3 190,358.3 194.2,359.7 199.1,360.6 204.4,360.7 209.6,360.1 
				214.5,358.9 218.7,357.1 221.8,354.9 223.7,352.4 224.2,349.8 			"/>
			<polyline class="st39" points="223.8,322.1 223,319.7 220.8,317.5 217.6,315.7 215.6,315.1 			"/>
			<polyline class="st39" points="191.3,316.1 189.5,316.8 186.2,318.9 184.2,321.2 183.4,323.7 			"/>
			<line class="st39" x1="224.2" y1="349.8" x2="223.8" y2="322.1"/>
			<line class="st39" x1="184.2" y1="351.4" x2="183.4" y2="323.7"/>
			<polyline class="st39" points="42.6,235.6 44.6,236.8 47.6,237.6 51.2,238.1 55.2,238.2 59.4,237.8 63.4,237.1 67,236 
				69.9,234.7 71.9,233.3 72.9,231.7 72.8,230.2 			"/>
			<line class="st39" x1="41.6" y1="234.2" x2="42.6" y2="235.6"/>
			<polyline class="st39" points="46.2,206.7 43.5,207.8 41.4,209.2 40.2,210.6 40.2,212.1 			"/>
			<line class="st39" x1="72.8" y1="230.2" x2="72.5" y2="224.4"/>
			<line class="st39" x1="41.6" y1="234.2" x2="40.2" y2="212.1"/>
			<line class="st39" x1="338" y1="30.3" x2="337.6" y2="60.4"/>
			<line class="st39" x1="337.2" y1="86.7" x2="336.1" y2="172.2"/>
			<line class="st39" x1="331.5" y1="61.4" x2="331.9" y2="28.8"/>
			<line class="st39" x1="331.6" y1="173.2" x2="330.2" y2="172.6"/>
			<line class="st39" x1="322.8" y1="26.5" x2="322.5" y2="62.8"/>
			<line class="st39" x1="322.2" y1="89.3" x2="321.5" y2="165.8"/>
			<line class="st39" x1="315.7" y1="166.2" x2="316.3" y2="90.3"/>
			<line class="st39" x1="316.5" y1="63.7" x2="316.8" y2="25"/>
			<line class="st39" x1="318.3" y1="25.3" x2="316.8" y2="25"/>
			<line class="st39" x1="317.1" y1="166.8" x2="315.7" y2="166.2"/>
			<line class="st39" x1="354.5" y1="34.5" x2="354.1" y2="57.8"/>
			<line class="st39" x1="353.7" y1="83.8" x2="352" y2="179.2"/>
			<line class="st39" x1="347.9" y1="58.8" x2="348.3" y2="32.9"/>
			<line class="st39" x1="347.5" y1="180.2" x2="346" y2="179.6"/>
			<line class="st39" x1="389.9" y1="43.4" x2="389.6" y2="52.2"/>
			<line class="st39" x1="389" y1="77.6" x2="385.9" y2="194"/>
			<line class="st39" x1="383.2" y1="53.2" x2="383.5" y2="41.8"/>
			<line class="st39" x1="381.3" y1="195.2" x2="379.7" y2="194.4"/>
			<polyline class="st39" points="421.3,209.5 416.7,210.8 422.2,51.6 427,50.8 421.3,209.5 			"/>
			<line class="st39" x1="371.8" y1="38.9" x2="371.4" y2="55.1"/>
			<line class="st39" x1="370.9" y1="80.8" x2="368.6" y2="186.4"/>
			<line class="st39" x1="365.1" y1="56.1" x2="365.5" y2="37.3"/>
			<line class="st39" x1="364" y1="187.5" x2="362.5" y2="186.9"/>
			<line class="st39" x1="408.8" y1="48.2" x2="408.7" y2="49.2"/>
			<line class="st39" x1="407.9" y1="74.3" x2="403.9" y2="201.9"/>
			<line class="st39" x1="402.1" y1="50.3" x2="402.2" y2="46.6"/>
			<line class="st39" x1="399.3" y1="203.1" x2="397.6" y2="202.4"/>
			<line class="st39" x1="421.2" y1="212" x2="421.3" y2="209.5"/>
			<line class="st39" x1="321.5" y1="165.8" x2="330.2" y2="169.6"/>
			<line class="st39" x1="336.1" y1="172.2" x2="346" y2="176.6"/>
			<line class="st39" x1="352" y1="179.2" x2="362.5" y2="183.8"/>
			<line class="st39" x1="368.6" y1="186.4" x2="379.7" y2="191.3"/>
			<line class="st39" x1="385.9" y1="194" x2="397.7" y2="199.2"/>
			<line class="st39" x1="403.9" y1="201.9" x2="408.7" y2="204"/>
			<line class="st39" x1="315.7" y1="168.4" x2="315.7" y2="166.2"/>
			<line class="st39" x1="416.6" y1="213.3" x2="416.7" y2="210.8"/>
			<line class="st39" x1="421.2" y1="212" x2="416.6" y2="213.3"/>
			<line class="st39" x1="427" y1="50.8" x2="427.1" y2="48.1"/>
			<line class="st39" x1="321.4" y1="22" x2="427.1" y2="48.1"/>
			<line class="st39" x1="316.8" y1="22.5" x2="321.4" y2="22"/>
			<line class="st39" x1="316.8" y1="25" x2="316.8" y2="22.5"/>
			<line class="st39" x1="46.7" y1="168.6" x2="46.6" y2="167.7"/>
			<line class="st39" x1="251.5" y1="8.4" x2="252.1" y2="73.8"/>
			<line class="st39" x1="252.3" y1="101.5" x2="252.6" y2="135.7"/>
			<line class="st39" x1="246.6" y1="74.7" x2="246" y2="7"/>
			<line class="st39" x1="248.4" y1="136.5" x2="247.3" y2="136"/>
			<line class="st39" x1="239.5" y1="5.4" x2="240.3" y2="75.7"/>
			<line class="st39" x1="240.7" y1="103.6" x2="241" y2="130.6"/>
			<line class="st39" x1="235" y1="76.5" x2="234.1" y2="4"/>
			<line class="st39" x1="235.2" y1="4.3" x2="234.1" y2="4"/>
			<line class="st39" x1="236.8" y1="131.4" x2="235.7" y2="130.9"/>
			<line class="st39" x1="264.6" y1="11.7" x2="264.9" y2="71.8"/>
			<line class="st39" x1="265" y1="99.3" x2="265.2" y2="141.2"/>
			<line class="st39" x1="259.3" y1="72.7" x2="258.9" y2="10.3"/>
			<line class="st39" x1="261" y1="142.1" x2="259.8" y2="141.6"/>
			<line class="st39" x1="292.2" y1="18.7" x2="292.1" y2="67.5"/>
			<line class="st39" x1="292" y1="94.6" x2="291.9" y2="152.9"/>
			<line class="st39" x1="286.4" y1="68.4" x2="286.4" y2="17.3"/>
			<line class="st39" x1="287.6" y1="153.8" x2="286.3" y2="153.3"/>
			<line class="st39" x1="315.1" y1="63.9" x2="315.4" y2="24.6"/>
			<line class="st39" x1="316.8" y1="25" x2="315.4" y2="24.6"/>
			<line class="st39" x1="315.7" y1="166.2" x2="314.3" y2="165.6"/>
			<line class="st39" x1="278.1" y1="15.2" x2="278.2" y2="69.7"/>
			<line class="st39" x1="272.6" y1="70.6" x2="272.4" y2="13.7"/>
			<line class="st39" x1="306.8" y1="22.4" x2="306.6" y2="65.3"/>
			<line class="st39" x1="306.4" y1="92" x2="306.1" y2="159.1"/>
			<line class="st39" x1="300.8" y1="66.2" x2="300.9" y2="20.9"/>
			<line class="st39" x1="301.7" y1="160.1" x2="300.4" y2="159.5"/>
			<line class="st39" x1="241" y1="130.6" x2="247.2" y2="133.4"/>
			<line class="st39" x1="252.6" y1="135.7" x2="259.8" y2="138.9"/>
			<line class="st39" x1="265.2" y1="141.2" x2="271.5" y2="144"/>
			<line class="st39" x1="285.4" y1="150" x2="286.3" y2="150.5"/>
			<line class="st39" x1="291.9" y1="152.9" x2="300.4" y2="156.6"/>
			<line class="st39" x1="306.1" y1="159.1" x2="314.3" y2="162.7"/>
			<line class="st39" x1="238.3" y1="1.4" x2="321.4" y2="22"/>
			<line class="st39" x1="234" y1="1.9" x2="238.3" y2="1.4"/>
			<line class="st39" x1="58.9" y1="174" x2="57.9" y2="173.3"/>
			<line class="st39" x1="40.7" y1="25.7" x2="39.8" y2="25.4"/>
			<line class="st39" x1="49.5" y1="167.5" x2="48.6" y2="166.9"/>
			<line class="st39" x1="69.1" y1="181" x2="68.2" y2="180.3"/>
			<line class="st39" x1="91" y1="196" x2="89.9" y2="195.3"/>
			<polyline class="st39" points="114.2,211.9 107,52.3 105.8,51.8 			"/>
			<line class="st39" x1="114.2" y1="211.9" x2="113.1" y2="211.1"/>
			<line class="st39" x1="79.8" y1="188.3" x2="78.8" y2="187.6"/>
			<line class="st39" x1="102.7" y1="204" x2="101.5" y2="203.2"/>
			<line class="st39" x1="64.2" y1="172.9" x2="67.9" y2="175.4"/>
			<line class="st39" x1="74.5" y1="179.9" x2="78.6" y2="182.7"/>
			<line class="st39" x1="85.3" y1="187.2" x2="89.7" y2="190.2"/>
			<line class="st39" x1="96.5" y1="194.8" x2="101.3" y2="198"/>
			<line class="st39" x1="108.3" y1="202.7" x2="112.8" y2="205.8"/>
			<line class="st39" x1="114.4" y1="214.4" x2="114.2" y2="211.9"/>
			<line class="st39" x1="39.7" y1="23" x2="45.1" y2="22.4"/>
			<line class="st39" x1="107" y1="52.3" x2="106.9" y2="49.6"/>
			<line class="st39" x1="112.9" y1="48.8" x2="106.9" y2="49.6"/>
			<line class="st39" x1="127.6" y1="221.1" x2="126.3" y2="220.2"/>
			<line class="st39" x1="108.2" y1="52.8" x2="107" y2="52.3"/>
			<line class="st39" x1="115.4" y1="212.7" x2="114.2" y2="211.9"/>
			<line class="st39" x1="140.9" y1="230.2" x2="139.6" y2="229.3"/>
			<line class="st39" x1="169.6" y1="249.9" x2="168.2" y2="248.9"/>
			<line class="st39" x1="206.2" y1="269" x2="200" y2="270.7"/>
			<polyline class="st39" points="195.8,87.9 202.3,86.8 206.2,269 			"/>
			<line class="st39" x1="195.8" y1="87.9" x2="194.1" y2="87.2"/>
			<line class="st39" x1="200" y1="270.7" x2="198.4" y2="269.6"/>
			<line class="st39" x1="154.9" y1="239.8" x2="153.6" y2="238.9"/>
			<line class="st39" x1="185" y1="260.4" x2="183.5" y2="259.4"/>
			<line class="st39" x1="206.2" y1="271.8" x2="206.2" y2="269"/>
			<line class="st39" x1="121.1" y1="211.4" x2="126.1" y2="214.8"/>
			<line class="st39" x1="133.3" y1="219.7" x2="139.4" y2="223.8"/>
			<line class="st39" x1="146.8" y1="228.8" x2="153.4" y2="233.2"/>
			<line class="st39" x1="160.9" y1="238.3" x2="168" y2="243.1"/>
			<line class="st39" x1="175.6" y1="248.3" x2="183.4" y2="253.5"/>
			<line class="st39" x1="191.2" y1="258.8" x2="198.3" y2="263.6"/>
			<line class="st39" x1="206.2" y1="271.8" x2="200" y2="273.5"/>
			<line class="st39" x1="455.5" y1="233.9" x2="455.6" y2="233.1"/>
			<line class="st39" x1="19.1" y1="183.4" x2="19" y2="182.7"/>
			<line class="st39" x1="421" y1="217.7" x2="455.5" y2="233.1"/>
			<line class="st39" x1="19" y1="182.7" x2="47.6" y2="177"/>
			<polyline class="st39" points="191.8,267.9 114.4,214.4 111.7,212.6 			"/>
			<line class="st39" x1="283" y1="250.5" x2="281.4" y2="250.9"/>
			<line class="st39" x1="198.5" y1="273.7" x2="191.9" y2="269.1"/>
			<polyline class="st39" points="96.1,157.8 96.1,156 90.6,45.7 			"/>
			<polyline class="st39" points="161.3,145.2 161.3,143.5 159,73.1 			"/>
			<polyline class="st39" points="221.6,133.6 221.6,132 221.2,107 			"/>
			<line class="st39" x1="198.9" y1="82.1" x2="198.5" y2="82.2"/>
			<line class="st39" x1="408.4" y1="212.5" x2="408.5" y2="209.7"/>
			<line class="st39" x1="280.6" y1="251.1" x2="281.4" y2="250.9"/>
			<polyline class="st39" points="47.2,176.8 47.6,177 48.1,177.4 			"/>
			<polyline class="st39" points="420.8,222.1 421,217.7 421.2,213 			"/>
			<line class="st39" x1="47.6" y1="169.3" x2="111.7" y2="213.6"/>
			<line class="st39" x1="48.1" y1="177.4" x2="50.4" y2="179"/>
			<polyline class="st39" points="207.9,291.4 207.8,288 207.7,283 			"/>
			<polyline class="st39" points="197.9,290.5 197.9,288.4 197.8,283.4 			"/>
			<polyline class="st39" points="416.9,230.6 417,228.4 417.2,223.2 			"/>
			<polyline class="st39" points="407.9,229.9 408,228 408,225.8 			"/>
			<polyline class="st39" points="50.7,184.7 50.7,183.6 50.4,179 			"/>
			<line class="st39" x1="58.1" y1="185.2" x2="58" y2="184.4"/>
			<polyline class="st39" points="191.3,313.8 191.3,316.1 191.5,323.3 			"/>
			<polyline class="st39" points="215.4,306.5 215.6,315.1 215.7,322.4 			"/>
			<line class="st39" x1="19.1" y1="183.4" x2="46" y2="204.1"/>
			<line class="st39" x1="189.8" y1="314.2" x2="191.3" y2="313.8"/>
			<polyline class="st39" points="422.6,243.9 422.2,253.5 422,259.1 			"/>
			<polyline class="st39" points="401.2,250.4 401.1,252.3 400.9,257.6 			"/>
			<polyline class="st39" points="46,204.1 46.2,206.7 46.5,211.3 			"/>
			<polyline class="st39" points="330.2,172.6 330.2,169.6 331.2,87.7 			"/>
			<polyline class="st39" points="346,179.6 346,176.6 347.5,84.8 			"/>
			<polyline class="st39" points="379.7,194.4 379.7,191.3 382.5,78.7 			"/>
			<polyline class="st39" points="362.5,186.9 362.5,183.8 364.6,81.9 			"/>
			<polyline class="st39" points="397.6,202.4 397.7,199.2 401.4,75.4 			"/>
			<line class="st39" x1="111.7" y1="212.6" x2="48.7" y2="169.2"/>
			<polyline class="st39" points="247.3,136 247.2,133.4 246.9,102.5 			"/>
			<polyline class="st39" points="235.7,130.9 235.7,129.4 235.4,104.5 			"/>
			<polyline class="st39" points="259.8,141.6 259.8,138.9 259.5,100.3 			"/>
			<polyline class="st39" points="286.3,153.3 286.3,150.5 286.4,95.6 			"/>
			<polyline class="st39" points="314.3,165.6 314.3,162.7 314.9,90.6 			"/>
			<polyline class="st39" points="300.4,159.5 300.4,156.6 300.6,93.1 			"/>
			<line class="st39" x1="63.8" y1="166.2" x2="64.2" y2="172.9"/>
			<line class="st39" x1="57.9" y1="173.3" x2="57.7" y2="168.5"/>
			<line class="st39" x1="46.3" y1="28" x2="54.6" y2="163.9"/>
			<line class="st39" x1="73.7" y1="164.3" x2="74.5" y2="179.9"/>
			<line class="st39" x1="68.2" y1="180.3" x2="67.9" y2="175.4"/>
			<line class="st39" x1="94.8" y1="160.2" x2="96.5" y2="194.8"/>
			<line class="st39" x1="89.9" y1="195.3" x2="89.7" y2="190.2"/>
			<line class="st39" x1="113.1" y1="211.1" x2="112.8" y2="205.8"/>
			<line class="st39" x1="84" y1="162.3" x2="85.3" y2="187.2"/>
			<line class="st39" x1="78.8" y1="187.6" x2="78.6" y2="182.7"/>
			<line class="st39" x1="106.2" y1="158" x2="108.3" y2="202.7"/>
			<line class="st39" x1="101.5" y1="203.2" x2="101.3" y2="198"/>
			<polyline class="st39" points="54.7,166.5 56.4,167.7 57.7,168.5 			"/>
			<line class="st39" x1="45.1" y1="22.4" x2="49.9" y2="24.3"/>
			<line class="st39" x1="198.4" y1="269.6" x2="198.3" y2="263.6"/>
			<line class="st39" x1="183.5" y1="259.4" x2="183.4" y2="253.5"/>
			<line class="st39" x1="112.9" y1="48.8" x2="113.9" y2="49.2"/>
			<line class="st39" x1="200.8" y1="81.9" x2="198.9" y2="82.1"/>
			<polyline class="st39" points="208.9,138.1 209.3,157.7 210,190.3 			"/>
			<line class="st39" x1="408.7" y1="204" x2="412.9" y2="73.4"/>
			<line class="st39" x1="271.6" y1="176.3" x2="271.5" y2="148.8"/>
			<line class="st39" x1="271.5" y1="144" x2="271.3" y2="98.2"/>
			<line class="st39" x1="285.4" y1="95.7" x2="285.4" y2="150"/>
			<line class="st39" x1="285.4" y1="155" x2="285.4" y2="173.1"/>
			<polyline class="st39" points="200.3,285.1 201.4,284.8 201.5,284.8 207.7,283 			"/>
			<line class="st39" x1="50.4" y1="179" x2="50.4" y2="179.1"/>
			<polyline class="st39" points="58.3,188.4 58.1,186.3 58.1,185.2 			"/>
			<line class="st39" x1="46" y1="204.1" x2="46.6" y2="204.6"/>
			<line class="st39" x1="191.3" y1="313.8" x2="191.6" y2="313.7"/>
			<line class="st39" x1="56" y1="31.9" x2="63.6" y2="162.2"/>
			<line class="st39" x1="57.7" y1="168.5" x2="57.6" y2="167.4"/>
			<polyline class="st39" points="54.5,163.9 54.7,165.7 54.7,166.5 			"/>
			<line class="st39" x1="66.6" y1="36.1" x2="73.4" y2="160.3"/>
			<line class="st39" x1="67.9" y1="175.4" x2="67.3" y2="165.6"/>
			<polyline class="st39" points="89.1,45.1 94.7,158 94.8,160.2 			"/>
			<line class="st39" x1="89.7" y1="190.2" x2="88.2" y2="161.5"/>
			<line class="st39" x1="112.8" y1="205.8" x2="110.6" y2="157.2"/>
			<line class="st39" x1="77.6" y1="40.5" x2="83.8" y2="158.3"/>
			<line class="st39" x1="78.6" y1="182.7" x2="77.5" y2="163.6"/>
			<line class="st39" x1="106.1" y1="155.9" x2="106.2" y2="158"/>
			<line class="st39" x1="101.3" y1="198" x2="99.4" y2="159.3"/>
			<line class="st39" x1="49.9" y1="24.3" x2="61.4" y2="28.7"/>
			<polyline class="st39" points="130.7,153.3 131.1,163.7 132.9,207.8 133.3,219.7 			"/>
			<polyline class="st39" points="125.9,209.3 123.8,159.5 123.6,154.7 			"/>
			<line class="st39" x1="114.3" y1="55.2" x2="118.5" y2="151.7"/>
			<line class="st39" x1="118.7" y1="155.6" x2="118.7" y2="156.5"/>
			<polyline class="st39" points="143.9,150.7 144.7,171.6 145.9,204.8 146.8,228.8 			"/>
			<polyline class="st39" points="138.7,206.4 137.2,167.3 136.6,152.1 			"/>
			<polyline class="st39" points="172.6,145.2 173.9,188.5 174.2,198.4 175.6,248.3 			"/>
			<polyline class="st39" points="166.6,200.1 166.1,184.1 165,146.6 			"/>
			<polyline class="st39" points="157.9,148 158.9,179.9 159.6,201.7 160.9,238.3 			"/>
			<polyline class="st39" points="152.3,203.3 151.3,175.5 150.4,149.5 			"/>
			<line class="st39" x1="186.8" y1="84.3" x2="188.1" y2="138.4"/>
			<line class="st39" x1="113.9" y1="49.2" x2="132.2" y2="56.4"/>
			<polyline class="st39" points="331.2,87.7 332.7,87.4 337.2,86.7 			"/>
			<line class="st39" x1="208.4" y1="109.2" x2="208.9" y2="134.4"/>
			<line class="st39" x1="210" y1="190.3" x2="210.3" y2="209.7"/>
			<polyline class="st39" points="408.5,209.7 408.6,207.2 408.7,204 			"/>
			<line class="st39" x1="271.6" y1="188.9" x2="271.6" y2="176.3"/>
			<polyline class="st39" points="271.5,148.8 271.5,146.7 271.5,144 			"/>
			<polyline class="st39" points="285.4,150 285.4,152.8 285.4,155 			"/>
			<line class="st39" x1="285.4" y1="173.1" x2="285.4" y2="195.8"/>
			<line class="st39" x1="207.7" y1="283" x2="408" y2="225.8"/>
			<polyline class="st39" points="208.4,109.2 216.8,107.7 219.3,107.3 221.2,107 			"/>
			<line class="st39" x1="46.6" y1="204.6" x2="47.9" y2="205.5"/>
			<line class="st39" x1="191.6" y1="313.7" x2="192.8" y2="313.3"/>
			<polyline class="st39" points="331.9,28.8 322.8,26.5 318.3,25.3 			"/>
			<polyline class="st39" points="246,7 239.5,5.4 235.2,4.3 			"/>
			<polyline class="st39" points="63.6,162.2 63.7,164 63.8,166.2 			"/>
			<line class="st39" x1="57.4" y1="163.4" x2="49.4" y2="29.2"/>
			<polyline class="st39" points="73.4,160.3 73.5,162.1 73.7,164.3 			"/>
			<line class="st39" x1="67.1" y1="161.5" x2="59.8" y2="33.4"/>
			<line class="st39" x1="88" y1="157.5" x2="82.1" y2="42.3"/>
			<line class="st39" x1="110.4" y1="153.2" x2="105.8" y2="51.8"/>
			<polyline class="st39" points="83.8,158.3 83.9,160.1 84,162.3 			"/>
			<line class="st39" x1="77.3" y1="159.6" x2="70.7" y2="37.7"/>
			<polyline class="st39" points="101.1,49.9 106,154.1 106.1,155.9 			"/>
			<line class="st39" x1="99.4" y1="159.3" x2="99.3" y2="157.2"/>
			<line class="st39" x1="61.4" y1="28.7" x2="63.6" y2="29.6"/>
			<polyline class="st39" points="49.4,29.2 46.3,28 40.7,25.7 			"/>
			<line class="st39" x1="126.9" y1="60.3" x2="130.5" y2="149.4"/>
			<polyline class="st39" points="126.3,220.2 126.1,214.8 125.9,209.3 			"/>
			<line class="st39" x1="123.4" y1="150.8" x2="119.5" y2="57.3"/>
			<polyline class="st39" points="118.5,151.7 118.6,153.5 118.7,155.6 			"/>
			<polyline class="st39" points="118.7,156.5 121.1,210.4 121.1,211.4 			"/>
			<line class="st39" x1="140.8" y1="65.8" x2="143.8" y2="146.9"/>
			<polyline class="st39" points="139.6,229.3 139.4,223.8 138.7,206.4 			"/>
			<line class="st39" x1="136.5" y1="148.8" x2="133.2" y2="62.8"/>
			<line class="st39" x1="172.6" y1="143.1" x2="172.6" y2="145.2"/>
			<polyline class="st39" points="168.2,248.9 168,243.1 166.6,200.1 			"/>
			<line class="st39" x1="164.9" y1="142.8" x2="162.7" y2="74.6"/>
			<polyline class="st39" points="196.6,193.3 195.6,150.8 195.4,140.8 			"/>
			<line class="st39" x1="155.3" y1="71.7" x2="157.8" y2="144.8"/>
			<polyline class="st39" points="153.6,238.9 153.4,233.2 152.3,203.3 			"/>
			<line class="st39" x1="150.3" y1="145.6" x2="147.6" y2="68.6"/>
			<polyline class="st39" points="188.1,138.4 188.2,140.1 188.2,142.1 188.3,147.2 189.5,194.9 189.6,197.7 191.2,258.8 			"/>
			<polyline class="st39" points="183.4,253.5 181.8,196.6 181.7,193.1 180.4,143.7 			"/>
			<polyline class="st39" points="119.5,57.3 114.3,55.2 108.2,52.8 			"/>
			<polyline class="st39" points="49.9,24.3 61.1,23 63.2,22.8 			"/>
			<line class="st39" x1="173.9" y1="10.6" x2="176.4" y2="10.4"/>
			<polyline class="st39" points="220.7,78.7 218.9,79 216.3,79.4 200.8,81.9 			"/>
			<polyline class="st39" points="208.9,134.4 208.9,136.1 208.9,138.1 			"/>
			<polyline class="st39" points="210.3,209.7 211.4,262.5 211.5,270.3 			"/>
			<line class="st39" x1="271.8" y1="245.4" x2="271.6" y2="188.9"/>
			<polyline class="st39" points="285.4,195.8 285.4,242.3 285.4,249.8 			"/>
			<line class="st39" x1="408" y1="225.8" x2="408.2" y2="225.7"/>
			<polyline class="st39" points="50.4,179.1 52.6,180.6 52.6,180.6 58,184.4 			"/>
			<line class="st39" x1="221.2" y1="107" x2="235.2" y2="104.5"/>
			<line class="st39" x1="47.9" y1="205.5" x2="49.7" y2="206.9"/>
			<line class="st39" x1="192.8" y1="313.3" x2="194.7" y2="312.8"/>
			<polyline class="st39" points="348.3,32.9 338,30.3 333.4,29.1 			"/>
			<polyline class="st39" points="57.6,167.4 57.5,165.2 57.4,163.4 			"/>
			<polyline class="st39" points="67.3,165.6 67.2,163.3 67.1,161.5 			"/>
			<polyline class="st39" points="88.2,161.5 88.1,159.3 88,157.5 			"/>
			<polyline class="st39" points="110.6,157.2 110.5,155 110.4,153.2 			"/>
			<polyline class="st39" points="77.5,163.6 77.4,161.4 77.3,159.6 			"/>
			<polyline class="st39" points="99.3,157.2 99.2,155.4 94,47.1 			"/>
			<line class="st39" x1="63.6" y1="29.6" x2="65.9" y2="30.5"/>
			<polyline class="st39" points="59.8,33.4 56,31.9 50.3,29.6 			"/>
			<polyline class="st39" points="130.5,149.4 130.6,151.1 130.7,153.3 			"/>
			<polyline class="st39" points="123.6,154.7 123.5,152.5 123.4,150.8 			"/>
			<polyline class="st39" points="143.8,146.9 143.8,148.6 143.9,150.7 			"/>
			<polyline class="st39" points="136.6,152.1 136.6,150 136.5,148.8 			"/>
			<polyline class="st39" points="170.6,77.8 172.5,141.4 172.6,143.1 			"/>
			<polyline class="st39" points="165,146.6 164.9,144.5 164.9,142.8 			"/>
			<polyline class="st39" points="198.3,263.6 196.8,201.9 196.6,193.3 			"/>
			<line class="st39" x1="195.3" y1="137" x2="194.1" y2="87.2"/>
			<polyline class="st39" points="157.8,144.8 157.8,145.9 157.9,148 			"/>
			<polyline class="st39" points="150.4,149.5 150.3,147.3 150.3,145.6 			"/>
			<polyline class="st39" points="180.4,143.7 180.3,141.6 178.7,81 			"/>
			<polyline class="st39" points="154.3,65 156.7,65.9 158.8,66.7 			"/>
			<polyline class="st39" points="133.2,62.8 132.4,62.5 126.9,60.3 120.7,57.8 			"/>
			<polyline class="st39" points="65.5,22.5 84.9,20.4 87.1,20.2 			"/>
			<polyline class="st39" points="89.3,19.9 108.1,17.9 110.4,17.6 			"/>
			<line class="st39" x1="178.4" y1="10.1" x2="194.7" y2="8.4"/>
			<polyline class="st39" points="316.3,90.3 317.7,90.1 322.2,89.3 331.2,87.7 			"/>
			<polyline class="st39" points="337.2,86.7 347.5,84.8 349.1,84.6 353.7,83.8 			"/>
			<line class="st39" x1="234.8" y1="76.5" x2="220.7" y2="78.7"/>
			<polyline class="st39" points="271.9,250.2 271.9,246 271.8,245.4 			"/>
			<line class="st39" x1="58" y1="184.4" x2="64.6" y2="189.1"/>
			<line class="st39" x1="235.2" y1="104.5" x2="235.4" y2="104.5"/>
			<line class="st39" x1="49.7" y1="206.9" x2="52" y2="208.6"/>
			<line class="st39" x1="194.7" y1="312.8" x2="197.2" y2="312"/>
			<polyline class="st39" points="258.9,10.3 251.5,8.4 247.2,7.3 			"/>
			<line class="st39" x1="65.9" y1="30.5" x2="85.8" y2="38.3"/>
			<polyline class="st39" points="195.4,140.8 195.3,138.7 195.3,137 			"/>
			<line class="st39" x1="132.2" y1="56.4" x2="134.6" y2="57.3"/>
			<line class="st39" x1="158.8" y1="66.7" x2="175.7" y2="73.3"/>
			<polyline class="st39" points="112.5,17.4 130.6,15.4 133,15.1 			"/>
			<polyline class="st39" points="135.1,14.9 152.6,13 155,12.7 			"/>
			<line class="st39" x1="157" y1="12.5" x2="173.9" y2="10.6"/>
			<line class="st39" x1="194.7" y1="8.4" x2="197.3" y2="8.1"/>
			<line class="st39" x1="235" y1="76.5" x2="234.8" y2="76.5"/>
			<polyline class="st39" points="408.2,225.7 412.4,224.5 412.5,224.5 417.2,223.2 420.8,222.1 			"/>
			<line class="st39" x1="235.4" y1="104.5" x2="236.5" y2="104.3"/>
			<line class="st39" x1="52" y1="208.6" x2="54.5" y2="210.6"/>
			<line class="st39" x1="197.2" y1="312" x2="200.1" y2="311.1"/>
			<line class="st39" x1="85.8" y1="38.3" x2="88.1" y2="39.1"/>
			<polyline class="st39" points="134.6,57.3 136.7,58.1 154.3,65 			"/>
			<line class="st39" x1="175.7" y1="73.3" x2="178.2" y2="74.3"/>
			<polyline class="st39" points="285.4,95.7 286.4,95.6 287.7,95.3 292,94.6 			"/>
			<polyline class="st39" points="382.5,78.7 384.3,78.4 389,77.6 			"/>
			<line class="st39" x1="236.1" y1="76.3" x2="235" y2="76.5"/>
			<polyline class="st39" points="64.6,189.1 69,192.2 78.6,199 85.7,204 			"/>
			<line class="st39" x1="236.5" y1="104.3" x2="240.7" y2="103.6"/>
			<line class="st39" x1="54.5" y1="210.6" x2="57.1" y2="212.6"/>
			<line class="st39" x1="200.1" y1="311.1" x2="203.3" y2="310.2"/>
			<polyline class="st39" points="365.5,37.3 354.5,34.5 349.9,33.3 			"/>
			<polyline class="st39" points="272.4,13.7 264.6,11.7 260.2,10.6 			"/>
			<line class="st39" x1="88.1" y1="39.1" x2="90.3" y2="40"/>
			<polyline class="st39" points="70.7,37.7 66.6,36.1 60.8,33.8 			"/>
			<line class="st39" x1="178.2" y1="74.3" x2="180.2" y2="75.1"/>
			<line class="st39" x1="233.9" y1="4.1" x2="234.1" y2="4"/>
			<line class="st39" x1="314.9" y1="90.6" x2="316.3" y2="90.3"/>
			<line class="st39" x1="240.3" y1="75.7" x2="236.1" y2="76.3"/>
			<line class="st39" x1="57.1" y1="212.6" x2="58" y2="213.2"/>
			<line class="st39" x1="203.3" y1="310.2" x2="206.4" y2="309.2"/>
			<polyline class="st39" points="402.2,46.6 389.9,43.4 385.2,42.2 			"/>
			<polyline class="st39" points="383.5,41.8 371.8,38.9 367.2,37.7 			"/>
			<line class="st39" x1="278.1" y1="15.2" x2="273.7" y2="14"/>
			<line class="st39" x1="111.7" y1="48.4" x2="112.9" y2="48.8"/>
			<line class="st39" x1="94" y1="47.1" x2="90.6" y2="45.7"/>
			<polyline class="st39" points="82.1,42.3 77.6,40.5 71.7,38.2 			"/>
			<polyline class="st39" points="147.6,68.6 140.8,65.8 134.5,63.3 			"/>
			<polyline class="st39" points="353.7,83.8 364.6,81.9 366.2,81.6 370.9,80.8 382.5,78.7 			"/>
			<polyline class="st39" points="389,77.6 401.4,75.4 403.2,75.1 407.9,74.3 			"/>
			<polyline class="st39" points="85.7,204 90.1,207.2 100.9,214.8 108.6,220.2 			"/>
			<line class="st39" x1="271.3" y1="98.2" x2="275.3" y2="97.5"/>
			<line class="st39" x1="206.4" y1="309.2" x2="209.4" y2="308.3"/>
			<polyline class="st39" points="411.2,48.8 408.8,48.2 404,47 			"/>
			<line class="st39" x1="286.4" y1="17.3" x2="278.1" y2="15.2"/>
			<polyline class="st39" points="90.3,40 109.4,47.5 111.7,48.4 			"/>
			<polyline class="st39" points="90.6,45.7 89.1,45.1 83.2,42.7 			"/>
			<polyline class="st39" points="180.2,75.1 196.4,81.4 198.5,82.2 			"/>
			<polyline class="st39" points="175.9,79.9 170.6,77.8 164.2,75.2 			"/>
			<polyline class="st39" points="199.2,7.9 215,6.1 217.6,5.8 			"/>
			<line class="st39" x1="219.5" y1="5.6" x2="233.9" y2="4.1"/>
			<polyline class="st39" points="292,94.6 300.6,93.1 302,92.8 306.4,92 314.9,90.6 			"/>
			<line class="st39" x1="407.9" y1="74.3" x2="412.9" y2="73.4"/>
			<polyline class="st39" points="252.1,73.8 247.8,74.5 246.6,74.7 240.3,75.7 			"/>
			<line class="st39" x1="108.6" y1="220.2" x2="113.2" y2="223.5"/>
			<polyline class="st39" points="240.7,103.6 246.9,102.5 248.1,102.3 252.3,101.5 			"/>
			<line class="st39" x1="58" y1="213.2" x2="60.4" y2="215.1"/>
			<line class="st39" x1="66" y1="219.4" x2="69.1" y2="221.8"/>
			<line class="st39" x1="209.4" y1="308.3" x2="211.9" y2="307.6"/>
			<polyline class="st39" points="105.8,51.8 101.1,49.9 95.1,47.5 			"/>
			<polyline class="st39" points="178.7,81 178.4,80.9 175.9,79.9 			"/>
			<polyline class="st39" points="162.7,74.6 159,73.1 157,72.3 155.3,71.7 149,69.1 			"/>
			<line class="st39" x1="412.9" y1="73.4" x2="417.4" y2="72.6"/>
			<line class="st39" x1="259.3" y1="72.7" x2="252.1" y2="73.8"/>
			<line class="st39" x1="113.2" y1="223.5" x2="125.2" y2="232"/>
			<polyline class="st39" points="60.4,215.1 62.2,216.4 66,219.4 			"/>
			<line class="st39" x1="69.1" y1="221.8" x2="71.3" y2="223.5"/>
			<line class="st39" x1="211.9" y1="307.6" x2="213.8" y2="307"/>
			<line class="st39" x1="186.8" y1="84.3" x2="180.2" y2="81.6"/>
			<line class="st39" x1="260.6" y1="72.5" x2="259.3" y2="72.7"/>
			<line class="st39" x1="125.2" y1="232" x2="133.6" y2="238"/>
			<polyline class="st39" points="252.3,101.5 259.5,100.3 260.7,100 265,99.3 271.3,98.2 			"/>
			<line class="st39" x1="71.3" y1="223.5" x2="72.5" y2="224.3"/>
			<line class="st39" x1="213.8" y1="307" x2="215" y2="306.6"/>
			<polyline class="st39" points="300.9,20.9 292.2,18.7 287.7,17.6 			"/>
			<line class="st39" x1="194.1" y1="87.2" x2="186.8" y2="84.3"/>
			<line class="st39" x1="264.9" y1="71.8" x2="260.6" y2="72.5"/>
			<polyline class="st39" points="72.5,224.3 72.5,224.4 189.8,314.2 			"/>
			<line class="st39" x1="215" y1="306.6" x2="215.4" y2="306.5"/>
			<line class="st39" x1="272.6" y1="70.6" x2="264.9" y2="71.8"/>
			<polyline class="st39" points="133.6,238 138.3,241.3 151.8,250.8 161.1,257.4 			"/>
			<polyline class="st39" points="315.4,24.6 306.8,22.4 302.3,21.3 			"/>
			<line class="st39" x1="273.8" y1="70.4" x2="272.6" y2="70.6"/>
			<polyline class="st39" points="401.4,250.3 402.3,250 403.9,249.6 			"/>
			<line class="st39" x1="278.2" y1="69.7" x2="273.8" y2="70.4"/>
			<polyline class="st39" points="161.1,257.4 165.9,260.8 181.1,271.5 191.3,278.8 			"/>
			<polyline class="st39" points="215.4,306.5 401.2,250.4 401.4,250.3 			"/>
			<line class="st39" x1="403.9" y1="249.6" x2="406" y2="248.9"/>
			<line class="st39" x1="191.3" y1="278.8" x2="196.2" y2="282.3"/>
			<line class="st39" x1="406" y1="248.9" x2="408.6" y2="248.1"/>
			<polyline class="st39" points="337.6,60.4 333,61.1 331.5,61.4 			"/>
			<line class="st39" x1="196.2" y1="282.3" x2="197.8" y2="283.4"/>
			<line class="st39" x1="408.6" y1="248.1" x2="411.4" y2="247.3"/>
			<polyline class="st39" points="197.8,283.4 197.9,283.4 198.7,284.1 			"/>
			<line class="st39" x1="411.4" y1="247.3" x2="414.2" y2="246.4"/>
			<polyline class="st39" points="354.1,57.8 349.5,58.5 347.9,58.8 337.6,60.4 			"/>
			<polyline class="st39" points="331.5,61.4 322.5,62.8 317.9,63.5 316.5,63.7 			"/>
			<polyline class="st39" points="414.2,246.4 416.8,245.6 419.1,244.9 			"/>
			<polyline class="st39" points="389.6,52.2 384.9,53 383.2,53.2 			"/>
			<polyline class="st39" points="292.1,67.5 287.7,68.2 286.4,68.4 278.2,69.7 			"/>
			<line class="st39" x1="419.1" y1="244.9" x2="420.9" y2="244.4"/>
			<line class="st39" x1="402.1" y1="50.3" x2="389.6" y2="52.2"/>
			<line class="st39" x1="316.5" y1="63.7" x2="315.1" y2="63.9"/>
			<line class="st39" x1="422.6" y1="243.9" x2="455.5" y2="233.9"/>
			<line class="st39" x1="403.9" y1="50" x2="402.1" y2="50.3"/>
			<polyline class="st39" points="383.2,53.2 371.5,55.1 366.8,55.8 365.1,56.1 354.1,57.8 			"/>
			<polyline class="st39" points="420.9,244.4 422.1,244 422.6,243.9 			"/>
			<line class="st39" x1="408.7" y1="49.2" x2="403.9" y2="50"/>
			<polyline class="st39" points="315.1,63.9 306.6,65.3 302.1,66 300.8,66.2 292.1,67.5 			"/>
			<polyline class="st39" points="417.9,47.8 411.2,48.8 408.7,49.2 			"/>
		</g>
	</g>
</g>
</svg>
