<?xml version="1.0" encoding="utf-8"?>
<!-- Generator: Adobe Illustrator 20.1.0, SVG Export Plug-In . SVG Version: 6.00 Build 0)  -->
<svg version="1.1" id="Layer_11_1_" xmlns="http://www.w3.org/2000/svg" xmlns:xlink="http://www.w3.org/1999/xlink" x="0px"
	 y="0px" viewBox="0 0 473.1 363.5" style="enable-background:new 0 0 473.1 363.5;" xml:space="preserve">
<style type="text/css">
	.st0{fill:#8F7B5C;}
	.st1{fill:#F7C283;}
	.st2{fill:#D1A46E;}
	.st3{fill:#BDA27C;}
	.st4{fill:#9F7C52;}
	.st5{fill:#DFC093;}
	.st6{fill:#997D21;}
	.st7{fill:#777777;}
	.st8{fill:#A4A4A5;}
	.st9{fill:#8A8A8B;}
	.st10{fill:#8C8D8D;}
	.st11{fill:#BBBBBC;}
	.st12{fill:#9E9E9E;}
	.st13{fill:#543404;}
	.st14{fill:#6A4109;}
	.st15{fill:#87550D;}
	.st16{fill:#9F6512;}
	.st17{fill:#B17115;}
	.st18{fill:#BD7918;}
	.st19{fill:#C27C19;}
	.st20{fill:#BF7B18;}
	.st21{fill:#B67416;}
	.st22{fill:#A66A14;}
	.st23{fill:#915B0F;}
	.st24{fill:#75490A;}
	.st25{fill:#6F4508;}
	.st26{fill:#A45C2E;}
	.st27{fill:#7D4621;}
	.st28{fill:#9F592B;}
	.st29{fill:#A75E2E;}
	.st30{fill:#915127;}
	.st31{fill:#A95F2F;}
	.st32{fill:#653718;}
	.st33{fill:#8A4D25;}
	.st34{fill:#75411E;}
	.st35{fill:#5B3115;}
	.st36{fill:#49260E;}
	.st37{fill:none;stroke:#000000;stroke-width:0.5;stroke-linecap:round;stroke-linejoin:round;stroke-miterlimit:10;}
	.st38{fill:none;stroke:#000000;stroke-linecap:round;stroke-linejoin:round;stroke-miterlimit:10;}
</style>
<g>
	<g>
		<g>
			<polygon class="st0" points="209.3,140.3 235.7,135.2 271.5,151.1 271.6,178.5 254.3,182.4 209.7,160.1 			"/>
			<polygon class="st1" points="235.7,135.2 209.3,140.3 209.3,138.2 219.8,136.2 221.6,135.9 235.7,133.2 			"/>
			<polygon class="st2" points="271.5,151.1 235.7,135.2 235.7,133.2 236.8,133.6 247.3,138.2 248.4,138.8 259.8,143.8 261,144.3 
				271.5,148.9 			"/>
			<polygon class="st1" points="221.6,135.9 219.8,136.2 219.4,109.8 221.2,109.4 221.6,134.2 			"/>
			<polygon class="st0" points="209.7,160.1 254.3,182.4 210.4,192.4 			"/>
			<polygon class="st0" points="254.3,182.4 271.6,178.5 271.6,191.1 			"/>
			<polygon class="st0" points="210.4,192.4 254.3,182.4 271.6,191.1 271.8,247.6 210.7,212.2 			"/>
			<polygon class="st0" points="210.7,212.2 271.8,247.6 271.9,248.2 211.8,264.7 			"/>
			<polygon class="st0" points="211.8,264.7 271.9,248.2 271.9,252.4 275.7,254.7 211.9,272.4 			"/>
			<polygon class="st2" points="275.7,254.7 271.9,252.4 271.9,248.2 271.8,247.6 271.6,191.1 271.6,178.5 271.5,151.1 271.5,148.9 
				271.5,146.2 271.3,100.6 275.3,99.9 			"/>
			<polygon class="st0" points="211.9,272.4 275.7,254.7 276.1,254.9 211.9,272.8 			"/>
			<polygon class="st3" points="275.3,99.9 275.7,254.7 276.1,254.9 275.7,99.9 			"/>
			<polygon class="st2" points="219.4,109.8 219.8,136.2 217.2,135 216.8,110.2 			"/>
			<polygon class="st4" points="217.2,135 219.8,136.2 209.3,138.2 209.3,136.6 			"/>
			<polygon class="st5" points="217.2,135 209.3,136.6 208.8,111.6 216.8,110.2 			"/>
			<polygon class="st5" points="276.1,254.9 275.7,99.9 285.8,98.1 285.8,152.4 285.8,155.3 285.8,157.4 285.8,175.3 285.8,198.2 
				285.8,244.4 285.8,251.9 285.8,252.2 281.8,253.4 			"/>
			<polygon class="st5" points="285.8,98.1 275.7,99.9 275.3,99.9 271.3,100.6 265,101.7 260.7,102.5 259.5,102.7 252.3,104 
				248.1,104.7 246.9,104.9 240.7,106 236.5,106.7 235.4,106.9 235.2,107 221.2,109.4 219.4,109.8 216.8,110.2 208.8,111.6 
				196.7,113.7 196,84 358.4,58.6 357.9,85.5 353.7,86.2 349.1,87 347.5,87.3 337.2,89.1 332.7,89.9 331.2,90.2 322.2,91.7 
				317.7,92.5 316.3,92.8 314.9,93 306.4,94.5 302,95.3 300.6,95.5 292,97 287.7,97.8 286.4,98 			"/>
			<polygon class="st0" points="358.4,58.6 196,84 195.6,83.8 357.9,58.4 			"/>
			<polygon class="st4" points="357.9,58.4 195.6,83.8 191.9,82.3 198.4,81.3 198.9,81.2 200.8,81 216.2,78.6 218.8,78.2 
				220.7,77.9 234.8,75.7 235,75.7 236.1,75.5 240.3,74.8 246.6,73.9 247.8,73.7 252,73 259.3,71.9 260.5,71.7 264.9,71 272.6,69.8 
				273.8,69.6 278.2,69 286.4,67.7 287.7,67.5 292.1,66.8 300.8,65.5 302.1,65.2 306.6,64.6 315.1,63.2 316.5,63 318,62.8 
				322.5,62.1 331.5,60.7 333,60.5 337.6,59.8 348,58.2 349.5,57.9 353.7,57.3 			"/>
			<polygon class="st0" points="191.9,82.3 195.6,83.8 196,84 195.3,84.1 147.4,65.3 148.1,65.2 			"/>
			<polygon class="st4" points="357.9,58.4 353.7,57.3 354.2,57.2 365.2,55.5 366.8,55.2 371.5,54.5 383.2,52.7 385,52.4 
				389.7,51.7 402.2,49.7 404,49.5 404.6,49.4 411.2,48.3 418,47.3 422.8,46.6 427.2,47.6 			"/>
			<polygon class="st4" points="198.4,81.3 191.9,82.3 148.1,65.2 106.8,49.1 104,48 109.9,47.2 111.6,47.9 113.8,48.7 132.1,55.8 
				134.5,56.7 136.6,57.5 154.2,64.3 156.6,65.2 158.7,66 175.6,72.5 178.1,73.5 180.1,74.3 196.3,80.5 			"/>
			<polygon class="st0" points="106.8,49.1 148.1,65.2 147.4,65.3 106.1,49.2 			"/>
			<polygon class="st4" points="109.9,47.2 104,48 70.9,35.1 39.5,22.8 37.4,21.9 42.8,21.4 45,22.2 49.9,24.1 54.7,26 61.3,28.5 
				63.5,29.3 65.8,30.2 85.7,37.9 88,38.8 90.2,39.6 109.3,47 			"/>
			<polygon class="st0" points="39.5,22.8 70.9,35.1 70.3,35.1 38.9,22.8 			"/>
			<polygon class="st4" points="45,22.2 42.8,21.4 108.9,14.3 174.8,7.3 179.4,6.8 181.9,7.5 			"/>
			<polygon class="st4" points="181.9,7.5 179.4,6.8 231.3,1.3 234,1.9 			"/>
			<polygon class="st0" points="231.3,1.3 179.4,6.8 174.8,7.3 174.5,7.2 235.3,0.8 235.6,0.8 			"/>
			<polygon class="st4" points="234,1.9 231.3,1.3 235.6,0.8 238.3,1.5 277.4,11 318,21 313.5,21.5 			"/>
			<polygon class="st1" points="181.9,7.5 234,1.9 234,4.1 182,9.7 			"/>
			<polygon class="st1" points="182,9.7 234,4.1 234.1,6.2 233.9,6.3 219.5,7.9 217.6,8.1 215,8.3 199.2,10.1 197.3,10.3 
				194.7,10.6 178.4,12.4 176.4,12.6 173.9,12.9 157,14.7 155,14.9 152.6,15.2 135.1,17.1 133,17.4 130.6,17.6 112.5,19.6 
				110.4,19.8 108.1,20.1 89.3,22.2 87.1,22.4 84.9,22.6 65.5,24.8 63.2,25 61.1,25.3 54.7,26 49.9,24.1 			"/>
			<polygon class="st1" points="133,17.4 135.1,17.1 136.6,57.5 134.5,56.7 			"/>
			<polygon class="st1" points="87.1,22.4 89.3,22.2 90.2,39.6 88,38.8 			"/>
			<polygon class="st1" points="110.4,19.8 112.5,19.6 113.8,48.7 111.6,47.9 			"/>
			<polygon class="st1" points="63.2,25 65.5,24.8 65.8,30.2 63.5,29.3 			"/>
			<polygon class="st2" points="234.1,6.3 234,4.1 313.4,23.9 316.8,24.8 316.8,27.2 315.4,26.8 306.8,24.6 302.3,23.5 300.9,23.2 
				292.2,20.9 287.7,19.8 286.4,19.5 278.1,17.4 273.7,16.3 272.4,15.9 264.6,14 260.2,12.9 258.9,12.5 251.5,10.7 247.2,9.6 
				246,9.3 239.5,7.6 235.2,6.5 			"/>
			<polygon class="st1" points="182,9.7 49.9,24.1 45,22.2 181.9,7.5 			"/>
			<polygon class="st2" points="234,4.1 234,1.9 313.5,21.5 313.4,23.9 			"/>
			<polygon class="st2" points="246,9.3 247.2,9.6 247.8,73.7 246.6,73.9 			"/>
			<polygon class="st2" points="258.9,12.5 260.2,12.9 260.5,71.7 259.3,71.9 			"/>
			<polygon class="st2" points="286.4,19.5 287.7,19.8 287.7,67.5 286.4,67.7 			"/>
			<polygon class="st2" points="272.4,15.9 273.7,16.3 273.8,69.6 272.6,69.8 			"/>
			<polygon class="st2" points="300.9,23.2 302.3,23.5 302.1,65.2 300.8,65.5 			"/>
			<polygon class="st2" points="133,17.4 134.5,56.7 132.1,55.8 130.6,17.6 			"/>
			<polygon class="st5" points="130.6,17.6 132.1,55.8 113.8,48.7 112.5,19.6 			"/>
			<polygon class="st5" points="136.6,57.5 135.1,17.1 152.6,15.2 154.2,64.3 			"/>
			<polygon class="st2" points="154.2,64.3 152.6,15.2 155,14.9 156.6,65.2 			"/>
			<polygon class="st2" points="87.1,22.4 88,38.8 85.7,37.9 84.9,22.6 			"/>
			<polygon class="st5" points="84.9,22.6 85.7,37.9 65.8,30.2 65.5,24.8 			"/>
			<polygon class="st5" points="90.2,39.6 89.3,22.2 108.1,20.1 109.3,47 			"/>
			<polygon class="st2" points="109.3,47 108.1,20.1 110.4,19.8 111.6,47.9 109.9,47.2 			"/>
			<polygon class="st2" points="63.2,25 63.5,29.3 61.3,28.5 61.1,25.3 			"/>
			<polygon class="st5" points="61.1,25.3 61.3,28.5 54.7,26 			"/>
			<polygon class="st1" points="176.4,12.6 178.4,12.4 180.1,74.3 178.1,73.5 			"/>
			<polygon class="st2" points="176.4,12.6 178.1,73.5 175.6,72.5 173.9,12.9 			"/>
			<polygon class="st5" points="173.9,12.9 175.6,72.5 158.7,66 157,14.7 			"/>
			<polygon class="st5" points="180.1,74.3 178.4,12.4 194.7,10.6 196.3,80.5 			"/>
			<polygon class="st2" points="196.3,80.5 194.7,10.6 197.3,10.3 198.9,81.2 198.4,81.3 			"/>
			<polygon class="st1" points="156.6,65.2 155,14.9 157,14.7 158.7,66 			"/>
			<polygon class="st1" points="198.9,81.2 197.3,10.3 199.2,10.1 200.8,81 			"/>
			<polygon class="st5" points="200.8,81 199.2,10.1 215,8.3 216.2,78.6 			"/>
			<polygon class="st2" points="216.2,78.6 215,8.3 217.6,8.1 218.8,78.2 			"/>
			<polygon class="st1" points="218.8,78.2 217.6,8.1 219.5,7.9 220.7,77.9 			"/>
			<polygon class="st5" points="220.7,77.9 219.5,7.9 233.9,6.3 234.8,75.7 			"/>
			<polygon class="st2" points="234.8,75.7 233.9,6.3 234.1,6.2 235,75.7 			"/>
			<polygon class="st0" points="42.8,21.4 37.4,21.9 37.2,21.8 108.6,14.2 108.9,14.3 			"/>
			<polygon class="st2" points="313.4,23.9 313.5,21.5 418,47.3 411.2,48.3 316.8,24.8 			"/>
			<polygon class="st4" points="313.5,21.5 318,21 321.4,21.8 371.1,33.9 422.8,46.6 418,47.3 			"/>
			<polygon class="st0" points="427.2,47.6 422.8,46.6 371.1,33.9 371.6,33.9 428.2,47.7 427.7,47.7 			"/>
			<polygon class="st0" points="357.9,58.4 427.2,47.6 427.7,47.7 358.4,58.6 			"/>
			<polygon class="st0" points="106.8,49.1 106.1,49.2 70.3,35.1 70.9,35.1 104,48 			"/>
			<polygon class="st3" points="106.1,49.2 147.4,65.3 153.7,244.4 113.7,216.8 			"/>
			<polygon class="st3" points="153.7,244.4 147.4,65.3 195.3,84.1 199.7,276.2 			"/>
			<polygon class="st3" points="106.1,49.2 113.7,216.8 78.9,192.7 70.3,35.1 			"/>
			<polygon class="st3" points="113.7,216.8 153.7,244.4 199.7,276.2 200,287.8 197.9,286.3 197.8,286.3 195.6,284.7 191.3,281.7 
				181.1,274.4 165.3,263.2 161.1,260.3 151.8,253.7 137.7,243.7 133.7,240.8 125.2,234.8 114.2,227 			"/>
			<polygon class="st3" points="70.3,35.1 78.9,192.7 48.2,171.5 38.9,22.8 			"/>
			<polygon class="st3" points="78.9,192.7 113.7,216.8 114.2,227 112.6,225.9 108.6,223 100.9,217.6 89.5,209.5 85.7,206.8 
				78.6,201.8 68.4,194.5 64.6,191.8 58.1,187.2 52.6,183.4 52.6,183.3 50.5,181.8 50.4,181.8 48.7,180.6 48.2,171.5 			"/>
			<polygon class="st0" points="235.3,0.8 235.6,0.8 238.3,1.5 238.8,1.4 235.8,0.7 			"/>
			<polygon class="st0" points="174.5,7.2 174.8,7.3 108.9,14.3 108.6,14.2 			"/>
			<polygon class="st0" points="36.6,21.9 38.9,22.8 39.5,22.8 37.4,21.9 37.2,21.8 			"/>
			<polygon class="st0" points="371.1,33.9 321.4,21.8 321.9,21.7 371.6,33.9 			"/>
			<polygon class="st0" points="321.9,21.7 321.4,21.8 318,21 277.4,11 277.9,11 			"/>
			<polygon class="st5" points="427.7,47.7 428.2,47.7 422.2,214.2 421.7,214.4 426.8,73.4 			"/>
			<polygon class="st5" points="421.7,214.4 421.3,224.5 421.8,224.4 421.9,220.3 422.2,214.2 			"/>
			<polygon class="st0" points="238.3,1.5 238.8,1.4 277.9,11 277.4,11 			"/>
			<polygon class="st3" points="48.2,171.5 48.7,180.6 47,179.4 46.4,178.9 45.8,169.9 			"/>
			<polygon class="st5" points="199.7,276.2 200,287.8 200.7,287.6 200.4,276 			"/>
			<polygon class="st5" points="200.7,287.6 200.4,276 211.9,272.8 276.1,254.9 281.8,253.4 281.8,264.4 207.7,285.6 201.5,287.4 
				201.4,287.4 			"/>
			<polygon class="st5" points="200.4,276 199.7,276.2 195.3,84.1 196,84 196.7,113.7 			"/>
			<polygon class="st6" points="200,287.8 200.7,287.6 201.4,287.4 201.6,295.4 198,292.8 197.9,286.3 			"/>
			<polygon class="st7" points="198,292.8 201.6,295.4 201.7,295.4 207.9,293.7 207.8,290.2 208.2,290.3 209.6,291 210.6,291.8 
				211,292.7 210.9,293.6 210.3,294.5 209.1,295.3 207.6,296 205.7,296.5 203.6,296.8 201.4,296.8 199.4,296.6 197.6,296.1 
				196.2,295.5 195.2,294.7 194.8,293.8 194.9,292.8 195.6,291.9 196.8,291.1 197.9,290.6 197.9,292.7 			"/>
			<polygon class="st8" points="207.9,293.7 201.7,295.4 201.5,287.4 207.7,285.6 207.8,290.2 			"/>
			<polygon class="st9" points="197.9,290.6 197.9,292.7 198,292.8 197.9,286.3 197.8,286.3 			"/>
			<polygon class="st9" points="201.4,287.4 201.6,295.4 201.7,295.4 201.5,287.4 			"/>
			<polygon class="st7" points="194.8,293.8 195.2,294.7 196.2,295.5 197.6,296.1 199.4,296.6 201.4,296.8 203.6,296.8 205.7,296.5 
				207.6,296 209.1,295.3 210.3,294.5 210.9,293.6 211,292.7 210.6,291.8 209.6,291 208.2,290.3 207.8,290.2 207.7,285.6 
				281.8,264.4 408,228.3 408,230.2 407.4,230.4 406.3,230.9 405.6,231.5 405.3,232.2 405.6,232.9 406.3,233.6 407.5,234.2 
				409,234.6 410.7,235 412.5,235.1 414.4,235.1 416.1,234.9 417.5,234.6 418.6,234.1 419.3,233.4 419.5,232.7 419.2,232 
				418.5,231.4 417.3,230.8 417,230.7 417.1,225.7 421.3,224.5 421.8,224.4 421.9,220.3 455.6,235.3 189.8,315.5 19,184.9 47,179.4 
				48.7,180.6 50.4,181.8 50.7,185.8 50.2,185.9 49.1,186.4 48.4,186.9 48.1,187.5 48.2,188 48.7,188.5 49.6,188.9 50.9,189.1 
				52.4,189.3 54,189.3 55.7,189.1 57.3,188.8 58.1,188.6 58.3,190.6 64.8,195.3 68.4,194.5 78.6,201.8 78.8,205.3 85.9,210.3 
				89.5,209.5 100.9,217.6 101.1,221.2 108.8,226.7 112.6,225.9 114.2,227 125.2,234.8 125.4,238.6 133.8,244.6 137.7,243.7 
				151.8,253.7 152,257.6 161.2,264.3 165.3,263.2 181.1,274.4 181.2,278.5 191.4,285.9 195.6,284.7 197.8,286.3 197.9,290.6 
				196.8,291.1 195.6,291.9 194.9,292.8 			"/>
			<polygon class="st10" points="406.3,233.6 405.6,232.9 405.3,232.2 405.6,231.5 406.3,230.9 407.4,230.4 408,230.2 407.9,232.1 
				408,232.2 412.1,234.1 412.3,234.1 416.9,232.8 417,230.7 417.3,230.8 418.5,231.4 419.2,232.1 419.5,232.8 419.3,233.4 
				418.6,234.1 417.5,234.6 416.1,234.9 414.4,235.1 412.5,235.2 410.7,235 409,234.6 407.5,234.2 			"/>
			<polygon class="st8" points="416.9,232.8 412.3,234.1 412.5,227.1 417.1,225.7 417,230.7 			"/>
			<polygon class="st9" points="408,228.3 408,230.2 407.9,232.1 408,232.2 408.1,228.3 			"/>
			<polygon class="st9" points="412.4,227.1 412.1,234.1 412.3,234.1 412.5,227.1 			"/>
			<polygon class="st6" points="412.1,234.1 408,232.2 408.1,228.3 412.4,227.1 			"/>
			<polygon class="st10" points="48.2,188 48.1,187.5 48.4,186.9 49.1,186.4 50.2,185.9 50.7,185.8 50.7,186.9 50.8,186.9 
				52.9,188.4 53,188.5 58.1,187.4 58.1,188.6 57.3,188.8 55.7,189.1 54,189.3 52.4,189.3 50.9,189.1 49.6,188.9 48.7,188.5 			"/>
			<polygon class="st8" points="58.1,187.4 53,188.5 52.6,183.4 58.1,187.2 			"/>
			<polygon class="st9" points="50.7,185.8 50.7,186.9 50.8,186.9 50.5,181.8 50.4,181.8 			"/>
			<polygon class="st9" points="52.9,188.4 53,188.5 52.6,183.4 52.6,183.3 			"/>
			<polygon class="st6" points="52.9,188.4 50.8,186.9 50.5,181.8 52.6,183.3 			"/>
			<polygon class="st11" points="165.3,263.2 161.2,264.3 161.1,260.3 			"/>
			<polygon class="st12" points="161.2,264.3 152,257.6 151.8,253.7 161.1,260.3 			"/>
			<polygon class="st11" points="195.6,284.7 191.4,285.9 191.3,281.7 			"/>
			<polygon class="st12" points="191.4,285.9 181.2,278.5 181.1,274.4 191.3,281.7 			"/>
			<polygon class="st11" points="137.7,243.7 133.8,244.6 133.7,240.8 			"/>
			<polygon class="st12" points="133.8,244.6 125.4,238.6 125.2,234.8 133.7,240.8 			"/>
			<polygon class="st11" points="112.6,225.9 108.8,226.7 108.6,223.1 			"/>
			<polygon class="st12" points="108.8,226.7 101.1,221.2 100.9,217.6 108.6,223 			"/>
			<polygon class="st11" points="89.5,209.5 85.9,210.3 85.7,206.8 			"/>
			<polygon class="st12" points="85.9,210.3 78.8,205.3 78.6,201.8 85.7,206.8 			"/>
			<polygon class="st11" points="68.4,194.5 64.8,195.3 64.6,191.9 			"/>
			<polygon class="st12" points="64.8,195.3 58.3,190.6 58.1,188.6 58.1,187.4 58.1,187.2 64.6,191.8 			"/>
			<polygon class="st13" points="393.2,283.8 393.5,285.7 394.2,261.2 393.9,259.3 			"/>
			<polygon class="st14" points="394.9,287.7 393.5,285.7 394.2,261.2 395.6,263 			"/>
			<polygon class="st15" points="397.4,289.4 394.9,287.7 395.7,263 398.2,264.7 			"/>
			<polygon class="st16" points="400.9,290.9 397.4,289.4 398.2,264.7 401.7,266.1 			"/>
			<polygon class="st17" points="405,292 400.9,290.9 401.7,266.1 405.8,267.1 			"/>
			<polygon class="st18" points="409.6,292.6 405,292 405.8,267.1 410.4,267.7 			"/>
			<polygon class="st19" points="414.2,292.7 409.6,292.6 410.4,267.7 415.1,267.8 			"/>
			<polygon class="st20" points="418.6,292.3 414.2,292.7 415.1,267.8 419.5,267.4 			"/>
			<polygon class="st21" points="422.4,291.3 418.6,292.3 419.5,267.4 423.3,266.5 			"/>
			<polygon class="st22" points="425.4,290 422.4,291.3 423.3,266.5 426.3,265.2 			"/>
			<polygon class="st23" points="427.3,288.3 425.4,290 426.3,265.2 428.3,263.6 			"/>
			<polygon class="st24" points="428.1,286.4 427.3,288.3 428.3,263.6 429,261.8 			"/>
			<polygon class="st25" points="424.4,256.6 427.1,258.2 428.6,260 429,261.8 428.3,263.6 426.3,265.2 423.3,266.5 419.5,267.4 
				415.1,267.8 410.4,267.7 405.8,267.1 401.7,266.1 398.2,264.7 395.6,263 394.2,261.2 393.9,259.3 394.9,257.6 396.9,256 
				399.9,254.8 401.1,254.5 400.9,259.8 401.1,260.9 402,262 403.5,263 405.6,263.9 408.1,264.5 410.8,264.8 413.6,264.9 
				416.2,264.6 418.5,264.1 420.3,263.4 421.5,262.4 422,261.3 422.2,255.7 			"/>
			<polygon class="st26" points="410.8,264.8 408.1,264.5 408.6,250.4 411.4,249.5 			"/>
			<polygon class="st27" points="421.5,262.4 420.3,263.4 420.9,246.6 422.1,246.3 			"/>
			<polygon class="st28" points="418.5,264.1 416.2,264.6 416.8,247.9 419.1,247.2 			"/>
			<polygon class="st29" points="416.2,264.6 413.6,264.9 414.2,248.7 416.8,247.9 			"/>
			<polygon class="st16" points="405.6,263.9 403.5,263 403.9,251.8 406,251.1 			"/>
			<polygon class="st30" points="420.3,263.4 418.5,264.1 419.1,247.2 420.9,246.6 			"/>
			<polygon class="st14" points="402,262 401.1,260.9 401.4,252.5 402.3,252.3 			"/>
			<polygon class="st15" points="403.5,263 402,262 402.3,252.3 403.9,251.8 			"/>
			<polygon class="st31" points="413.6,264.9 410.8,264.8 411.4,249.5 414.2,248.7 			"/>
			<polygon class="st32" points="422,261.3 421.5,262.4 422.1,246.3 422.6,246.1 422.2,255.7 			"/>
			<polygon class="st13" points="401.2,252.6 401.1,254.5 400.9,259.8 401.1,260.9 401.4,252.5 			"/>
			<polygon class="st17" points="408.1,264.5 405.6,263.9 406,251.1 408.6,250.4 			"/>
			<polygon class="st14" points="184.8,356.2 184.2,353.6 183.4,325.9 184,328.3 			"/>
			<polygon class="st15" points="186.8,358.5 184.8,356.2 184,328.3 186,330.5 			"/>
			<polygon class="st16" points="190,360.5 186.8,358.5 186,330.5 189.2,332.4 			"/>
			<polygon class="st17" points="194.2,362 190,360.5 189.2,332.4 193.5,333.8 			"/>
			<polygon class="st18" points="199.1,362.8 194.2,362 193.5,333.8 198.4,334.6 			"/>
			<polygon class="st19" points="204.4,362.9 199.1,362.8 198.4,334.6 203.7,334.7 			"/>
			<polygon class="st20" points="209.6,362.3 204.4,362.9 203.7,334.7 209.1,334.1 			"/>
			<polygon class="st21" points="214.5,361.1 209.6,362.3 209,334.1 214,333 			"/>
			<polygon class="st22" points="218.7,359.3 214.5,361.1 214,333 218.1,331.3 			"/>
			<polygon class="st23" points="221.8,357.1 218.7,359.3 218.1,331.3 221.3,329.1 			"/>
			<polygon class="st24" points="223.7,354.6 221.8,357.1 221.3,329.1 223.2,326.8 			"/>
			<polygon class="st13" points="224.2,352 223.7,354.6 223.2,326.8 223.8,324.3 			"/>
			<polygon class="st25" points="198.4,334.6 193.5,333.8 189.2,332.4 186,330.5 184,328.3 183.4,325.9 184.2,323.4 186.2,321.1 
				189.5,319 191.3,318.3 191.5,325.6 191.9,327 193.1,328.3 195,329.5 197.6,330.3 200.5,330.7 203.7,330.8 206.9,330.5 
				209.8,329.8 212.3,328.8 214.2,327.5 215.4,326.1 215.7,324.6 215.6,317.3 217.6,317.9 220.8,319.7 223,321.9 223.8,324.3 
				223.2,326.8 221.3,329.1 218.1,331.3 214,333 209,334.1 203.7,334.7 			"/>
			<polygon class="st29" points="206.9,330.5 203.7,330.8 203.3,312.4 206.4,311.4 			"/>
			<polygon class="st31" points="203.7,330.8 200.5,330.7 200.1,313.4 203.3,312.4 			"/>
			<polygon class="st26" points="200.5,330.7 197.6,330.3 197.2,314.2 200.1,313.4 			"/>
			<polygon class="st28" points="209.8,329.8 206.9,330.5 206.4,311.4 209.4,310.5 			"/>
			<polygon class="st17" points="197.6,330.3 195,329.5 194.7,315 197.2,314.2 			"/>
			<polygon class="st22" points="212.3,328.8 209.8,329.8 209.4,310.5 211.9,309.8 			"/>
			<polygon class="st33" points="195,329.5 193.1,328.3 192.8,315.6 194.7,315 			"/>
			<polygon class="st23" points="214.2,327.5 212.3,328.8 211.9,309.8 213.8,309.2 			"/>
			<polygon class="st34" points="193.1,328.3 191.9,327 191.6,315.9 192.8,315.6 			"/>
			<polygon class="st32" points="215.4,326.1 214.2,327.5 213.8,309.2 215,308.8 			"/>
			<polygon class="st35" points="191.3,316 191.3,318.3 191.5,325.6 191.9,327 191.6,315.9 			"/>
			<polygon class="st36" points="215,308.8 215.4,326.1 215.7,324.6 215.6,317.3 215.4,308.7 			"/>
			<polygon class="st16" points="44.6,239 42.6,237.8 41.2,215.6 43.2,216.7 			"/>
			<polygon class="st17" points="47.6,239.8 44.6,239 43.2,216.7 46.2,217.5 			"/>
			<polygon class="st18" points="51.2,240.3 47.6,239.8 46.2,217.5 49.8,218 			"/>
			<polygon class="st19" points="55.2,240.4 51.2,240.3 49.8,218 53.8,218.1 			"/>
			<polygon class="st20" points="59.4,240.1 55.2,240.4 53.8,218.1 58,217.7 			"/>
			<polygon class="st21" points="63.4,239.3 59.4,240.1 58,217.7 60.4,217.3 62.2,218.7 			"/>
			<polygon class="st22" points="67,238.3 63.4,239.3 62.2,218.7 66,221.6 			"/>
			<polygon class="st23" points="69.9,237 67,238.3 66,221.6 69.1,224 			"/>
			<polygon class="st24" points="71.9,235.5 69.9,237 69.1,224 71.3,225.7 			"/>
			<polygon class="st13" points="72.9,233.9 71.9,235.5 71.3,225.7 72.5,226.6 			"/>
			<polygon class="st14" points="72.9,233.9 72.8,232.4 72.5,226.6 72.5,226.6 			"/>
			<polygon class="st15" points="42.6,237.8 41.6,236.4 40.2,214.3 41.2,215.6 			"/>
			<polygon class="st25" points="43.2,216.7 41.2,215.6 40.2,214.3 40.2,212.9 41.4,211.4 43.5,210 46.2,208.9 46.5,213.5 
				47.1,214.3 48.4,215 50.1,215.5 52.3,215.7 54.7,215.8 57.2,215.6 58,215.5 60.4,217.3 58,217.7 53.8,218.1 49.8,218 46.2,217.5 
							"/>
			<polygon class="st34" points="47.1,214.3 46.5,213.5 46.2,208.9 46,206.3 46.6,206.8 			"/>
			<polygon class="st16" points="48.4,215 47.1,214.3 46.6,206.8 47.9,207.7 			"/>
			<polygon class="st17" points="50.1,215.5 48.4,215 47.9,207.7 49.7,209.1 			"/>
			<polygon class="st18" points="52.3,215.7 50.1,215.5 49.7,209.1 52,210.9 			"/>
			<polygon class="st19" points="54.7,215.8 52.3,215.7 52,210.9 54.5,212.8 			"/>
			<polygon class="st20" points="57.2,215.6 54.7,215.8 54.5,212.8 57.1,214.8 			"/>
			<polygon class="st21" points="57.2,215.6 58,215.5 57.1,214.8 			"/>
			<polygon class="st2" points="316.8,27.2 316.8,24.8 411.2,48.3 404.6,49.4 404,49.2 402.2,48.8 389.9,45.6 385.2,44.5 383.5,44 
				371.8,41.1 367.2,39.9 365.5,39.5 354.5,36.7 349.9,35.5 348.3,35.1 338,32.5 333.4,31.4 331.9,31 322.8,28.7 318.3,27.5 			"/>
			<polygon class="st2" points="331.9,31 333.4,31.4 333,60.5 331.5,60.7 			"/>
			<polygon class="st2" points="348.3,35.1 349.9,35.5 349.5,57.9 348,58.2 			"/>
			<polygon class="st2" points="383.5,44 385.2,44.5 385,52.4 383.2,52.7 			"/>
			<polygon class="st2" points="365.5,39.5 367.2,39.9 366.8,55.2 365.2,55.5 			"/>
			<polygon class="st2" points="402.2,49.7 404,49.5 404,49.2 402.2,48.8 			"/>
			<polygon class="st1" points="333,60.5 333.4,31.4 338,32.5 337.6,59.8 			"/>
			<polygon class="st3" points="337.6,59.8 338,32.5 348.3,35.1 348,58.2 			"/>
			<polygon class="st3" points="331.9,31 331.5,60.7 322.5,62.1 322.8,28.7 			"/>
			<polygon class="st1" points="322.8,28.7 322.5,62.1 318,62.8 318.3,27.5 			"/>
			<polygon class="st2" points="318.3,27.5 318,62.8 316.5,63 316.8,27.2 			"/>
			<polygon class="st2" points="316.8,27.2 316.5,63 315.1,63.2 315.4,26.8 			"/>
			<polygon class="st1" points="349.5,57.9 349.9,35.5 354.5,36.7 354.2,57.2 353.7,57.3 			"/>
			<polygon class="st3" points="354.2,57.2 354.5,36.7 365.5,39.5 365.2,55.5 			"/>
			<polygon class="st1" points="385,52.4 385.2,44.5 389.9,45.6 389.7,51.7 			"/>
			<polygon class="st3" points="389.7,51.7 389.9,45.6 402.2,48.8 402.2,49.7 			"/>
			<polygon class="st3" points="383.5,44 383.2,52.7 371.5,54.5 371.8,41.1 			"/>
			<polygon class="st1" points="371.8,41.1 371.5,54.5 366.8,55.2 367.2,39.9 			"/>
			<polygon class="st1" points="404,49.5 404.6,49.4 404,49.2 			"/>
			<polygon class="st3" points="38.9,22.8 48.2,171.5 45.8,169.9 36.6,21.9 			"/>
			<polygon class="st5" points="357.9,85.5 358.4,58.6 427.7,47.7 426.8,73.4 417.1,75.1 416.7,75.2 412.9,75.8 407.9,76.7 
				403.2,77.5 401.4,77.9 389,80 384.3,80.9 382.5,81.2 370.9,83.2 366.2,84 364.6,84.3 			"/>
			<polygon class="st5" points="200.4,276 196.7,113.7 208.8,111.6 209.3,136.6 209.3,138.2 209.3,140.3 209.7,160.1 210.4,192.4 
				210.7,212.2 211.8,264.7 211.9,272.4 211.9,272.8 			"/>
			<polygon class="st5" points="426.8,73.4 421.7,214.4 412.4,217 417.1,75.1 			"/>
			<polygon class="st3" points="417.1,75.1 412.4,217 411.9,216.8 411.9,216.3 416.7,75.2 			"/>
			<polygon class="st0" points="411.9,216.8 412.4,217 285.8,252.2 285.8,251.9 354.7,232.7 			"/>
			<polygon class="st0" points="411.9,216.8 354.7,232.7 345.5,228.1 407.1,211.3 408.5,211.9 408.4,214.7 411.9,216.3 			"/>
			<polygon class="st2" points="411.9,216.3 408.4,214.7 408.5,211.9 408.6,209.4 408.7,206.2 412.9,75.8 416.7,75.2 			"/>
			<polygon class="st2" points="408.5,211.9 407.1,211.3 315.7,170.7 315.7,168.4 317.1,169.1 330.2,174.8 331.6,175.5 346,181.8 
				347.5,182.5 362.5,189.1 364,189.8 379.7,196.7 381.3,197.4 397.6,204.6 399.3,205.3 408.6,209.4 			"/>
			<polygon class="st0" points="315.7,170.7 407.1,211.3 345.5,228.1 285.8,198.2 285.8,175.3 312.4,169.2 			"/>
			<polygon class="st2" points="315.7,170.7 312.4,169.2 285.8,157.4 285.8,155.3 286.3,155.5 287.6,156.1 300.4,161.7 301.7,162.3 
				314.3,167.8 315.7,168.4 			"/>
			<polygon class="st0" points="285.8,157.4 312.4,169.2 285.8,175.3 			"/>
			<polygon class="st0" points="285.8,198.2 345.5,228.1 285.8,244.4 			"/>
			<polygon class="st0" points="285.8,244.4 345.5,228.1 354.7,232.7 285.8,251.9 			"/>
			<polygon class="st2" points="331.6,175.5 330.2,174.8 330.2,171.9 331.2,90.2 332.7,89.9 			"/>
			<polygon class="st1" points="331.6,175.5 332.7,89.9 337.2,89.1 336.1,174.4 			"/>
			<polygon class="st3" points="336.1,174.4 337.2,89.1 347.5,87.3 346,178.8 			"/>
			<polygon class="st4" points="336.1,174.4 346,178.8 346,181.8 331.6,175.5 			"/>
			<polygon class="st2" points="317.1,169.1 315.7,168.4 316.3,92.8 317.7,92.5 			"/>
			<polygon class="st1" points="317.1,169.1 317.7,92.5 322.2,91.7 321.5,168.1 			"/>
			<polygon class="st3" points="321.5,168.1 322.2,91.7 331.2,90.2 330.2,171.9 			"/>
			<polygon class="st4" points="321.5,168.1 330.2,171.9 330.2,174.8 317.1,169.1 			"/>
			<polygon class="st2" points="316.3,92.8 315.7,168.4 314.3,167.8 314.3,164.9 314.9,93 			"/>
			<polygon class="st2" points="347.5,182.5 346,181.8 346,178.8 347.5,87.3 349.1,87 			"/>
			<polygon class="st1" points="347.5,182.5 349.1,87 353.7,86.2 352,181.4 			"/>
			<polygon class="st3" points="352,181.4 353.7,86.2 357.9,85.5 364.6,84.3 362.5,186 			"/>
			<polygon class="st4" points="352,181.4 362.5,186 362.5,189.1 347.5,182.5 			"/>
			<polygon class="st2" points="381.3,197.4 379.7,196.7 379.7,193.5 382.5,81.2 384.3,80.9 			"/>
			<polygon class="st1" points="381.3,197.4 384.3,80.9 389,80 385.9,196.2 			"/>
			<polygon class="st3" points="385.9,196.2 389,80 401.4,77.9 397.7,201.4 			"/>
			<polygon class="st4" points="385.9,196.2 397.7,201.4 397.6,204.6 381.3,197.4 			"/>
			<polygon class="st2" points="364,189.8 362.5,189.1 362.5,186 364.6,84.3 366.2,84 			"/>
			<polygon class="st1" points="364,189.8 366.2,84 370.9,83.2 368.6,188.6 			"/>
			<polygon class="st3" points="368.6,188.6 370.9,83.2 382.5,81.2 379.7,193.5 			"/>
			<polygon class="st4" points="368.6,188.6 379.7,193.5 379.7,196.7 364,189.8 			"/>
			<polygon class="st2" points="399.3,205.3 397.6,204.6 397.7,201.4 401.4,77.9 403.2,77.5 			"/>
			<polygon class="st1" points="399.3,205.3 403.2,77.5 407.9,76.7 403.9,204.1 			"/>
			<polygon class="st3" points="403.9,204.1 407.9,76.7 412.9,75.8 408.7,206.2 			"/>
			<polygon class="st4" points="403.9,204.1 408.7,206.2 408.6,209.4 399.3,205.3 			"/>
			<polygon class="st5" points="412.4,217 421.7,214.4 421.3,224.5 417.1,225.7 412.5,227.1 412.4,227.1 408.1,228.3 408,228.3 
				281.8,264.4 281.8,253.4 285.8,252.2 			"/>
			<polygon class="st1" points="247.8,73.7 247.2,9.6 251.5,10.7 252,73 			"/>
			<polygon class="st3" points="252,73 251.5,10.7 258.9,12.5 259.3,71.9 			"/>
			<polygon class="st3" points="246,9.3 246.6,73.9 240.3,74.8 239.5,7.6 			"/>
			<polygon class="st1" points="239.5,7.6 240.3,74.8 236.1,75.5 235.2,6.5 			"/>
			<polygon class="st2" points="248.4,138.8 247.3,138.2 247.2,135.6 246.9,104.9 248.1,104.7 			"/>
			<polygon class="st1" points="248.4,138.8 248.1,104.7 252.3,104 252.6,137.9 			"/>
			<polygon class="st3" points="252.6,137.9 252.3,104 259.5,102.7 259.8,141.1 			"/>
			<polygon class="st4" points="252.6,137.9 259.8,141.1 259.8,143.8 248.4,138.8 			"/>
			<polygon class="st2" points="235.2,6.5 236.1,75.5 235,75.7 234.1,6.2 			"/>
			<polygon class="st2" points="236.8,133.6 235.7,133.2 235.7,131.6 235.4,106.9 236.5,106.7 			"/>
			<polygon class="st1" points="236.8,133.6 236.5,106.7 240.7,106 241,132.8 			"/>
			<polygon class="st3" points="241,132.8 240.7,106 246.9,104.9 247.2,135.6 			"/>
			<polygon class="st4" points="241,132.8 247.2,135.6 247.3,138.2 236.8,133.6 			"/>
			<polygon class="st1" points="260.5,71.7 260.2,12.9 264.6,14 264.9,71 			"/>
			<polygon class="st3" points="264.9,71 264.6,14 272.4,15.9 272.6,69.8 			"/>
			<polygon class="st2" points="261,144.3 259.8,143.8 259.8,141.1 259.5,102.7 260.7,102.5 			"/>
			<polygon class="st1" points="261,144.3 260.7,102.5 265,101.7 265.2,143.5 			"/>
			<polygon class="st3" points="265.2,143.5 265,101.7 271.3,100.6 271.5,146.2 			"/>
			<polygon class="st4" points="265.2,143.5 271.5,146.2 271.5,148.9 261,144.3 			"/>
			<polygon class="st1" points="287.7,67.5 287.7,19.8 292.2,20.9 292.1,66.8 			"/>
			<polygon class="st3" points="292.1,66.8 292.2,20.9 300.9,23.2 300.8,65.5 			"/>
			<polygon class="st3" points="286.4,19.5 286.4,67.7 278.2,69 278.1,17.4 			"/>
			<polygon class="st1" points="278.1,17.4 278.2,69 273.8,69.6 273.7,16.3 			"/>
			<polygon class="st2" points="287.6,156.1 286.3,155.5 286.3,152.7 286.4,98 287.7,97.8 			"/>
			<polygon class="st1" points="287.6,156.1 287.7,97.8 292,97 291.9,155.1 			"/>
			<polygon class="st3" points="291.9,155.1 292,97 300.6,95.5 300.4,158.8 			"/>
			<polygon class="st4" points="291.9,155.1 300.4,158.8 300.4,161.7 287.6,156.1 			"/>
			<polygon class="st3" points="315.4,26.8 315.1,63.2 306.6,64.6 306.8,24.6 			"/>
			<polygon class="st1" points="306.8,24.6 306.6,64.6 302.1,65.2 302.3,23.5 			"/>
			<polygon class="st2" points="301.7,162.3 300.4,161.7 300.4,158.8 300.6,95.5 302,95.3 			"/>
			<polygon class="st1" points="301.7,162.3 302,95.3 306.4,94.5 306.1,161.3 			"/>
			<polygon class="st3" points="306.1,161.3 306.4,94.5 314.9,93 314.3,164.9 			"/>
			<polygon class="st4" points="306.1,161.3 314.3,164.9 314.3,167.8 301.7,162.3 			"/>
			<polygon class="st11" points="455.5,235.3 455.5,236.2 422.6,246.1 422.1,246.3 420.9,246.6 419.1,247.2 416.8,247.9 
				414.2,248.7 411.4,249.5 408.6,250.4 406,251.1 403.9,251.8 402.3,252.3 401.4,252.5 401.2,252.6 215.4,308.7 215,308.8 
				213.8,309.2 211.9,309.8 209.4,310.5 206.4,311.4 203.3,312.4 200.1,313.4 197.2,314.2 194.7,315 192.8,315.6 191.6,315.9 
				191.3,316 189.8,316.5 189.8,315.5 			"/>
			<polygon class="st12" points="189.8,315.5 189.8,316.5 72.5,226.6 72.5,226.6 71.3,225.7 69.1,224 66,221.6 62.2,218.7 
				60.4,217.3 58,215.5 57.1,214.8 54.5,212.8 52,210.9 49.7,209.1 47.9,207.7 46.6,206.8 46,206.3 19.1,185.7 19,184.9 			"/>
			<polygon class="st4" points="221.6,135.9 221.6,134.2 235.5,131.6 235.7,131.7 235.7,133.2 			"/>
			<polygon class="st2" points="235.2,107 235.5,131.6 235.7,131.7 235.4,106.9 			"/>
			<polygon class="st5" points="235.2,107 235.5,131.6 221.6,134.2 221.2,109.4 			"/>
			<polygon class="st4" points="285.8,155.3 286.3,155.5 286.3,152.7 285.8,152.4 			"/>
			<polygon class="st3" points="285.8,98.1 285.8,152.4 286.3,152.7 286.4,98 			"/>
			<line class="st37" x1="195.2" y1="294.7" x2="194.8" y2="293.8"/>
			<line class="st37" x1="195.2" y1="294.7" x2="196.2" y2="295.5"/>
			<line class="st37" x1="210.9" y1="293.6" x2="211" y2="292.7"/>
			<line class="st37" x1="210.3" y1="294.5" x2="210.9" y2="293.6"/>
			<line class="st37" x1="209.1" y1="295.3" x2="210.3" y2="294.5"/>
			<line class="st37" x1="207.6" y1="296" x2="209.1" y2="295.3"/>
			<line class="st37" x1="205.7" y1="296.5" x2="207.6" y2="296"/>
			<line class="st37" x1="203.6" y1="296.8" x2="205.7" y2="296.5"/>
			<line class="st37" x1="201.4" y1="296.8" x2="203.6" y2="296.8"/>
			<line class="st37" x1="199.4" y1="296.6" x2="201.4" y2="296.8"/>
			<line class="st37" x1="197.6" y1="296.1" x2="199.4" y2="296.6"/>
			<line class="st37" x1="196.2" y1="295.5" x2="197.6" y2="296.1"/>
			<polyline class="st37" points="405.6,232.9 406.3,233.6 407.5,234.2 			"/>
			<line class="st37" x1="419.3" y1="233.4" x2="419.5" y2="232.8"/>
			<line class="st37" x1="418.6" y1="234.1" x2="419.3" y2="233.4"/>
			<line class="st37" x1="417.5" y1="234.6" x2="418.6" y2="234.1"/>
			<line class="st37" x1="416.1" y1="234.9" x2="417.5" y2="234.6"/>
			<line class="st37" x1="414.4" y1="235.1" x2="416.1" y2="234.9"/>
			<line class="st37" x1="412.5" y1="235.2" x2="414.4" y2="235.1"/>
			<line class="st37" x1="410.7" y1="235" x2="412.5" y2="235.2"/>
			<line class="st37" x1="409" y1="234.6" x2="410.7" y2="235"/>
			<line class="st37" x1="407.5" y1="234.2" x2="409" y2="234.6"/>
			<line class="st37" x1="405.6" y1="232.9" x2="405.3" y2="232.2"/>
			<line class="st37" x1="48.2" y1="188" x2="48.1" y2="187.5"/>
			<line class="st37" x1="48.2" y1="188" x2="48.7" y2="188.5"/>
			<line class="st37" x1="57.3" y1="188.8" x2="58.1" y2="188.6"/>
			<line class="st37" x1="55.7" y1="189.1" x2="57.3" y2="188.8"/>
			<line class="st37" x1="54" y1="189.3" x2="55.7" y2="189.1"/>
			<line class="st37" x1="52.4" y1="189.3" x2="54" y2="189.3"/>
			<line class="st37" x1="50.9" y1="189.1" x2="52.4" y2="189.3"/>
			<line class="st37" x1="49.6" y1="188.9" x2="50.9" y2="189.1"/>
			<line class="st37" x1="48.7" y1="188.5" x2="49.6" y2="188.9"/>
			<line class="st37" x1="408.1" y1="264.5" x2="410.8" y2="264.8"/>
			<line class="st37" x1="420.3" y1="263.4" x2="421.5" y2="262.4"/>
			<line class="st37" x1="416.2" y1="264.6" x2="418.5" y2="264.1"/>
			<line class="st37" x1="413.6" y1="264.9" x2="416.2" y2="264.6"/>
			<line class="st37" x1="403.5" y1="263" x2="405.6" y2="263.9"/>
			<line class="st37" x1="418.5" y1="264.1" x2="420.3" y2="263.4"/>
			<line class="st37" x1="402" y1="262" x2="401.1" y2="260.9"/>
			<line class="st37" x1="402" y1="262" x2="403.5" y2="263"/>
			<line class="st37" x1="410.8" y1="264.8" x2="413.6" y2="264.9"/>
			<line class="st37" x1="421.5" y1="262.4" x2="422" y2="261.3"/>
			<line class="st37" x1="401.1" y1="260.9" x2="400.9" y2="259.8"/>
			<line class="st37" x1="405.6" y1="263.9" x2="408.1" y2="264.5"/>
			<line class="st37" x1="203.7" y1="330.8" x2="206.9" y2="330.5"/>
			<line class="st37" x1="200.5" y1="330.7" x2="203.7" y2="330.8"/>
			<line class="st37" x1="197.6" y1="330.3" x2="200.5" y2="330.7"/>
			<line class="st37" x1="206.9" y1="330.5" x2="209.8" y2="329.8"/>
			<line class="st37" x1="195" y1="329.5" x2="197.6" y2="330.3"/>
			<line class="st37" x1="209.8" y1="329.8" x2="212.3" y2="328.8"/>
			<line class="st37" x1="193.1" y1="328.3" x2="195" y2="329.5"/>
			<line class="st37" x1="212.3" y1="328.8" x2="214.2" y2="327.5"/>
			<line class="st37" x1="193.1" y1="328.3" x2="191.9" y2="327"/>
			<line class="st37" x1="214.2" y1="327.5" x2="215.4" y2="326.1"/>
			<line class="st37" x1="191.9" y1="327" x2="191.5" y2="325.6"/>
			<line class="st37" x1="215.4" y1="326.1" x2="215.7" y2="324.6"/>
			<line class="st37" x1="47.1" y1="214.3" x2="46.5" y2="213.5"/>
			<polyline class="st37" points="47.1,214.3 48.4,215 50.1,215.5 52.3,215.7 54.7,215.8 57.2,215.6 58,215.5 			"/>
			<line class="st37" x1="134.5" y1="56.7" x2="133" y2="17.4"/>
			<line class="st37" x1="88" y1="38.8" x2="87.1" y2="22.4"/>
			<line class="st37" x1="111.6" y1="47.9" x2="110.4" y2="19.8"/>
			<line class="st37" x1="63.5" y1="29.3" x2="63.2" y2="25"/>
			<line class="st37" x1="178.1" y1="73.5" x2="176.4" y2="12.6"/>
			<line class="st37" x1="156.6" y1="65.2" x2="155" y2="14.9"/>
			<line class="st37" x1="198.9" y1="81.2" x2="197.3" y2="10.3"/>
			<line class="st37" x1="219.8" y1="136.2" x2="219.4" y2="109.8"/>
			<line class="st37" x1="218.8" y1="78.2" x2="217.6" y2="8.1"/>
			<line class="st37" x1="181.9" y1="7.5" x2="234" y2="1.9"/>
			<line class="st37" x1="45" y1="22.2" x2="181.9" y2="7.5"/>
			<line class="st37" x1="313.5" y1="21.5" x2="418" y2="47.3"/>
			<line class="st37" x1="147.4" y1="65.3" x2="106.1" y2="49.1"/>
			<line class="st37" x1="106.1" y1="49.2" x2="70.3" y2="35.1"/>
			<line class="st37" x1="428.2" y1="47.7" x2="427.7" y2="47.7"/>
			<line class="st37" x1="201.7" y1="295.4" x2="201.5" y2="287.4"/>
			<line class="st37" x1="412.3" y1="234.1" x2="412.5" y2="227.1"/>
			<line class="st37" x1="53" y1="188.5" x2="52.6" y2="183.4"/>
			<line class="st37" x1="200" y1="287.8" x2="199.7" y2="276.2"/>
			<line class="st37" x1="161.2" y1="264.3" x2="161.1" y2="260.3"/>
			<line class="st37" x1="191.4" y1="285.9" x2="191.3" y2="281.7"/>
			<line class="st37" x1="133.8" y1="244.6" x2="133.7" y2="240.8"/>
			<line class="st37" x1="108.8" y1="226.7" x2="108.6" y2="223"/>
			<line class="st37" x1="85.9" y1="210.3" x2="85.7" y2="206.8"/>
			<line class="st37" x1="64.8" y1="195.3" x2="64.6" y2="191.8"/>
			<polyline class="st37" points="393.9,259.3 394.2,261.2 395.6,263 398.2,264.7 401.7,266.1 405.8,267.1 410.4,267.7 415.1,267.8 
				419.5,267.4 423.3,266.5 426.3,265.2 428.3,263.6 429,261.8 			"/>
			<polyline class="st37" points="193.5,333.8 198.4,334.6 203.7,334.7 209.1,334.1 214,333 218.1,331.3 221.3,329.1 223.2,326.8 
				223.8,324.3 			"/>
			<polyline class="st37" points="183.4,325.9 184,328.3 186,330.5 189.2,332.4 193.5,333.8 			"/>
			<polyline class="st37" points="41.2,215.6 43.2,216.7 46.2,217.5 49.8,218 53.8,218.1 58,217.7 60.4,217.3 			"/>
			<line class="st37" x1="40.2" y1="214.3" x2="41.2" y2="215.6"/>
			<polyline class="st37" points="199.7,276.2 195.3,84.1 147.4,65.3 			"/>
			<line class="st37" x1="196" y1="84" x2="195.3" y2="84.1"/>
			<line class="st37" x1="331.6" y1="175.5" x2="332.7" y2="89.9"/>
			<line class="st37" x1="333" y1="60.5" x2="333.4" y2="31.4"/>
			<line class="st37" x1="317.1" y1="169.1" x2="317.7" y2="92.5"/>
			<line class="st37" x1="318" y1="62.8" x2="318.3" y2="27.5"/>
			<line class="st37" x1="347.5" y1="182.5" x2="349.1" y2="87"/>
			<line class="st37" x1="349.5" y1="57.9" x2="349.9" y2="35.5"/>
			<line class="st37" x1="381.3" y1="197.4" x2="384.3" y2="80.9"/>
			<line class="st37" x1="385" y1="52.4" x2="385.2" y2="44.5"/>
			<line class="st37" x1="364" y1="189.8" x2="366.2" y2="84"/>
			<line class="st37" x1="366.8" y1="55.2" x2="367.2" y2="39.9"/>
			<line class="st37" x1="399.3" y1="205.3" x2="403.2" y2="77.5"/>
			<line class="st37" x1="404" y1="49.5" x2="404" y2="49.2"/>
			<line class="st37" x1="70.3" y1="35.1" x2="38.9" y2="22.8"/>
			<line class="st37" x1="358.4" y1="58.6" x2="196" y2="84"/>
			<line class="st37" x1="427.7" y1="47.7" x2="358.4" y2="58.6"/>
			<line class="st37" x1="275.7" y1="99.9" x2="276.1" y2="254.9"/>
			<line class="st37" x1="417.1" y1="75.1" x2="412.4" y2="217"/>
			<line class="st37" x1="248.4" y1="138.8" x2="248.1" y2="104.7"/>
			<line class="st37" x1="247.8" y1="73.7" x2="247.2" y2="9.6"/>
			<line class="st37" x1="236.8" y1="133.6" x2="236.5" y2="106.7"/>
			<line class="st37" x1="236.1" y1="75.5" x2="235.2" y2="6.5"/>
			<line class="st37" x1="261" y1="144.3" x2="260.7" y2="102.5"/>
			<line class="st37" x1="260.5" y1="71.7" x2="260.2" y2="12.9"/>
			<line class="st37" x1="287.6" y1="156.1" x2="287.7" y2="97.8"/>
			<line class="st37" x1="287.7" y1="67.5" x2="287.7" y2="19.8"/>
			<line class="st37" x1="273.8" y1="69.6" x2="273.7" y2="16.3"/>
			<line class="st37" x1="301.7" y1="162.3" x2="302" y2="95.3"/>
			<line class="st37" x1="302.1" y1="65.2" x2="302.3" y2="23.5"/>
			<line class="st37" x1="36.6" y1="21.9" x2="38.9" y2="22.8"/>
			<line class="st37" x1="455.5" y1="235.3" x2="189.8" y2="315.5"/>
			<polyline class="st37" points="189.8,316.5 189.8,315.5 19,184.9 			"/>
			<line class="st37" x1="209.3" y1="138.2" x2="219.8" y2="136.2"/>
			<line class="st37" x1="234" y1="1.9" x2="313.5" y2="21.5"/>
			<line class="st37" x1="271.5" y1="148.9" x2="261" y2="144.3"/>
			<line class="st37" x1="221.6" y1="135.9" x2="235.7" y2="133.2"/>
			<line class="st37" x1="412.4" y1="217" x2="285.8" y2="252.2"/>
			<line class="st37" x1="276.1" y1="254.9" x2="211.9" y2="272.8"/>
			<line class="st37" x1="286.3" y1="155.5" x2="285.8" y2="155.3"/>
			<line class="st37" x1="362.5" y1="189.1" x2="347.5" y2="182.5"/>
			<line class="st37" x1="346" y1="181.8" x2="331.6" y2="175.5"/>
			<line class="st37" x1="330.2" y1="174.8" x2="317.1" y2="169.1"/>
			<line class="st37" x1="314.3" y1="167.8" x2="301.7" y2="162.3"/>
			<line class="st37" x1="300.4" y1="161.7" x2="287.6" y2="156.1"/>
			<line class="st37" x1="259.8" y1="143.8" x2="248.4" y2="138.8"/>
			<line class="st37" x1="408.6" y1="209.4" x2="399.3" y2="205.3"/>
			<line class="st37" x1="247.3" y1="138.2" x2="236.8" y2="133.6"/>
			<line class="st37" x1="379.7" y1="196.7" x2="364" y2="189.8"/>
			<line class="st37" x1="397.6" y1="204.6" x2="381.3" y2="197.4"/>
			<polyline class="st38" points="209.3,140.3 235.7,135.2 271.5,151.1 			"/>
			<line class="st38" x1="285.8" y1="157.4" x2="312.4" y2="169.2"/>
			<line class="st38" x1="315.7" y1="170.7" x2="407.1" y2="211.3"/>
			<line class="st38" x1="312.4" y1="169.2" x2="315.7" y2="170.7"/>
			<line class="st38" x1="408.4" y1="214.7" x2="411.9" y2="216.3"/>
			<line class="st38" x1="407.1" y1="211.3" x2="408.5" y2="211.9"/>
			<line class="st38" x1="271.9" y1="252.4" x2="275.7" y2="254.7"/>
			<line class="st38" x1="132.1" y1="55.8" x2="130.6" y2="17.6"/>
			<line class="st38" x1="133" y1="17.4" x2="135.1" y2="17.1"/>
			<line class="st38" x1="235.5" y1="131.6" x2="235.2" y2="107"/>
			<line class="st38" x1="234.8" y1="75.7" x2="233.9" y2="6.3"/>
			<line class="st38" x1="235.5" y1="131.6" x2="235.7" y2="131.6"/>
			<line class="st38" x1="85.7" y1="37.9" x2="84.9" y2="22.6"/>
			<line class="st38" x1="87.1" y1="22.4" x2="89.3" y2="22.2"/>
			<line class="st38" x1="109.3" y1="47" x2="108.1" y2="20.1"/>
			<line class="st38" x1="110.4" y1="19.8" x2="112.5" y2="19.6"/>
			<line class="st38" x1="61.3" y1="28.5" x2="61.1" y2="25.3"/>
			<line class="st38" x1="63.2" y1="25" x2="65.5" y2="24.8"/>
			<line class="st38" x1="234.1" y1="6.3" x2="234" y2="4.1"/>
			<polyline class="st38" points="49.9,24.1 182,9.7 234,4.1 			"/>
			<line class="st38" x1="235.7" y1="135.2" x2="235.7" y2="133.2"/>
			<line class="st38" x1="209.3" y1="136.6" x2="217.2" y2="135"/>
			<line class="st38" x1="221.6" y1="134.2" x2="235.5" y2="131.6"/>
			<polyline class="st38" points="217.2,135 219.8,136.2 221.6,135.9 			"/>
			<line class="st38" x1="175.6" y1="72.5" x2="173.9" y2="12.9"/>
			<line class="st38" x1="154.2" y1="64.3" x2="152.6" y2="15.2"/>
			<line class="st38" x1="196.3" y1="80.5" x2="194.7" y2="10.6"/>
			<line class="st38" x1="217.2" y1="135" x2="216.8" y2="110.2"/>
			<line class="st38" x1="216.2" y1="78.6" x2="215" y2="8.3"/>
			<line class="st38" x1="234" y1="4.1" x2="234" y2="1.9"/>
			<line class="st38" x1="191.9" y1="82.3" x2="195.6" y2="83.8"/>
			<line class="st38" x1="39.5" y1="22.8" x2="70.9" y2="35.1"/>
			<line class="st38" x1="106.8" y1="49.1" x2="148.1" y2="65.2"/>
			<line class="st38" x1="336.1" y1="174.4" x2="337.2" y2="89.1"/>
			<line class="st38" x1="337.6" y1="59.8" x2="338" y2="32.5"/>
			<line class="st38" x1="321.5" y1="168.1" x2="322.2" y2="91.7"/>
			<line class="st38" x1="322.5" y1="62.1" x2="322.8" y2="28.7"/>
			<line class="st38" x1="352" y1="181.4" x2="353.7" y2="86.2"/>
			<line class="st38" x1="354.2" y1="57.2" x2="354.5" y2="36.7"/>
			<line class="st38" x1="321.5" y1="168.1" x2="330.2" y2="171.9"/>
			<line class="st38" x1="336.1" y1="174.4" x2="346" y2="178.8"/>
			<line class="st38" x1="352" y1="181.4" x2="362.5" y2="186"/>
			<line class="st38" x1="403.9" y1="204.1" x2="407.9" y2="76.7"/>
			<line class="st38" x1="368.6" y1="188.6" x2="379.7" y2="193.5"/>
			<line class="st38" x1="385.9" y1="196.2" x2="397.7" y2="201.4"/>
			<line class="st38" x1="403.9" y1="204.1" x2="408.7" y2="206.2"/>
			<line class="st38" x1="385.9" y1="196.2" x2="389" y2="80"/>
			<line class="st38" x1="389.7" y1="51.7" x2="389.9" y2="45.6"/>
			<line class="st38" x1="368.6" y1="188.6" x2="370.9" y2="83.2"/>
			<line class="st38" x1="371.5" y1="54.5" x2="371.8" y2="41.1"/>
			<line class="st38" x1="241" y1="132.8" x2="240.7" y2="106"/>
			<line class="st38" x1="240.3" y1="74.8" x2="239.5" y2="7.6"/>
			<line class="st38" x1="241" y1="132.8" x2="247.2" y2="135.6"/>
			<line class="st38" x1="252.6" y1="137.9" x2="259.8" y2="141.1"/>
			<line class="st38" x1="265.2" y1="143.5" x2="271.5" y2="146.2"/>
			<line class="st38" x1="252.6" y1="137.9" x2="252.3" y2="104"/>
			<line class="st38" x1="252" y1="73" x2="251.5" y2="10.7"/>
			<line class="st38" x1="265.2" y1="143.5" x2="265" y2="101.7"/>
			<line class="st38" x1="264.9" y1="71" x2="264.6" y2="14"/>
			<line class="st38" x1="285.8" y1="152.4" x2="286.3" y2="152.7"/>
			<line class="st38" x1="291.9" y1="155.1" x2="300.4" y2="158.8"/>
			<line class="st38" x1="306.1" y1="161.3" x2="314.3" y2="164.9"/>
			<line class="st38" x1="278.2" y1="69" x2="278.1" y2="17.4"/>
			<line class="st38" x1="291.9" y1="155.1" x2="292" y2="97"/>
			<line class="st38" x1="292.1" y1="66.8" x2="292.2" y2="20.9"/>
			<line class="st38" x1="306.1" y1="161.3" x2="306.4" y2="94.5"/>
			<line class="st38" x1="306.6" y1="64.6" x2="306.8" y2="24.6"/>
			<line class="st38" x1="201.7" y1="295.4" x2="207.9" y2="293.7"/>
			<line class="st38" x1="197.9" y1="292.7" x2="198" y2="292.8"/>
			<line class="st38" x1="201.6" y1="295.4" x2="201.7" y2="295.4"/>
			<line class="st38" x1="198" y1="292.8" x2="201.6" y2="295.4"/>
			<polyline class="st38" points="194.9,292.8 195.6,291.9 196.8,291.1 197.9,290.6 			"/>
			<polyline class="st38" points="207.8,290.2 208.2,290.3 209.6,291 210.6,291.8 			"/>
			<line class="st38" x1="211" y1="292.7" x2="210.6" y2="291.8"/>
			<line class="st38" x1="194.8" y1="293.8" x2="194.9" y2="292.8"/>
			<line class="st38" x1="412.3" y1="234.1" x2="416.9" y2="232.8"/>
			<line class="st38" x1="407.9" y1="232.1" x2="408" y2="232.2"/>
			<line class="st38" x1="412.1" y1="234.1" x2="412.3" y2="234.1"/>
			<line class="st38" x1="408" y1="232.2" x2="412.1" y2="234.1"/>
			<line class="st38" x1="419.5" y1="232.8" x2="419.2" y2="232.1"/>
			<polyline class="st38" points="405.3,232.2 405.6,231.5 406.3,230.9 407.4,230.4 408,230.2 			"/>
			<polyline class="st38" points="417,230.7 417.3,230.8 418.5,231.4 419.2,232.1 			"/>
			<line class="st38" x1="53" y1="188.5" x2="58.1" y2="187.4"/>
			<line class="st38" x1="50.7" y1="186.9" x2="50.8" y2="186.9"/>
			<line class="st38" x1="52.9" y1="188.4" x2="53" y2="188.5"/>
			<line class="st38" x1="50.8" y1="186.9" x2="52.9" y2="188.4"/>
			<polyline class="st38" points="48.4,186.9 49.1,186.4 50.2,185.9 50.7,185.8 			"/>
			<line class="st38" x1="48.1" y1="187.5" x2="48.4" y2="186.9"/>
			<line class="st38" x1="331.6" y1="175.5" x2="336.1" y2="174.4"/>
			<line class="st38" x1="331.9" y1="31" x2="333.4" y2="31.4"/>
			<line class="st38" x1="317.1" y1="169.1" x2="321.5" y2="168.1"/>
			<line class="st38" x1="347.5" y1="182.5" x2="352" y2="181.4"/>
			<line class="st38" x1="348.3" y1="35.1" x2="349.9" y2="35.5"/>
			<line class="st38" x1="381.3" y1="197.4" x2="385.9" y2="196.2"/>
			<line class="st38" x1="383.5" y1="44" x2="385.2" y2="44.5"/>
			<line class="st38" x1="364" y1="189.8" x2="368.6" y2="188.6"/>
			<line class="st38" x1="365.5" y1="39.5" x2="367.2" y2="39.9"/>
			<line class="st38" x1="399.3" y1="205.3" x2="403.9" y2="204.1"/>
			<line class="st38" x1="402.2" y1="48.8" x2="404" y2="49.2"/>
			<line class="st38" x1="275.7" y1="99.9" x2="285.8" y2="98.1"/>
			<line class="st38" x1="275.7" y1="254.7" x2="276.1" y2="254.9"/>
			<line class="st38" x1="411.9" y1="216.8" x2="412.4" y2="217"/>
			<line class="st38" x1="248.4" y1="138.8" x2="252.6" y2="137.9"/>
			<line class="st38" x1="246" y1="9.3" x2="247.2" y2="9.6"/>
			<line class="st38" x1="236.8" y1="133.6" x2="241" y2="132.8"/>
			<line class="st38" x1="261" y1="144.3" x2="265.2" y2="143.5"/>
			<line class="st38" x1="258.9" y1="12.5" x2="260.2" y2="12.9"/>
			<line class="st38" x1="287.6" y1="156.1" x2="291.9" y2="155.1"/>
			<line class="st38" x1="286.4" y1="19.5" x2="287.7" y2="19.8"/>
			<line class="st38" x1="272.4" y1="15.9" x2="273.7" y2="16.3"/>
			<line class="st38" x1="301.7" y1="162.3" x2="306.1" y2="161.3"/>
			<line class="st38" x1="300.9" y1="23.2" x2="302.3" y2="23.5"/>
			<line class="st38" x1="254.3" y1="182.4" x2="209.7" y2="160.1"/>
			<line class="st38" x1="312.4" y1="169.2" x2="285.8" y2="175.3"/>
			<polyline class="st38" points="271.6,178.5 254.3,182.4 210.4,192.4 			"/>
			<line class="st38" x1="345.5" y1="228.1" x2="285.8" y2="198.2"/>
			<line class="st38" x1="271.6" y1="191.1" x2="254.3" y2="182.4"/>
			<line class="st38" x1="407.1" y1="211.3" x2="345.5" y2="228.1"/>
			<line class="st38" x1="271.8" y1="247.6" x2="210.7" y2="212.2"/>
			<line class="st38" x1="345.5" y1="228.1" x2="285.8" y2="244.4"/>
			<line class="st38" x1="271.9" y1="248.2" x2="211.8" y2="264.7"/>
			<line class="st38" x1="354.7" y1="232.7" x2="345.5" y2="228.1"/>
			<polyline class="st38" points="411.9,216.8 354.7,232.7 285.8,251.9 			"/>
			<line class="st38" x1="275.7" y1="254.7" x2="211.9" y2="272.4"/>
			<line class="st38" x1="136.6" y1="57.5" x2="135.1" y2="17.1"/>
			<line class="st38" x1="90.2" y1="39.6" x2="89.3" y2="22.2"/>
			<line class="st38" x1="113.8" y1="48.7" x2="112.5" y2="19.6"/>
			<line class="st38" x1="65.8" y1="30.2" x2="65.5" y2="24.8"/>
			<line class="st38" x1="180.1" y1="74.3" x2="178.4" y2="12.4"/>
			<line class="st38" x1="176.4" y1="12.6" x2="178.4" y2="12.4"/>
			<line class="st38" x1="158.7" y1="66" x2="157" y2="14.7"/>
			<line class="st38" x1="155" y1="14.9" x2="157" y2="14.7"/>
			<line class="st38" x1="200.8" y1="81" x2="199.2" y2="10.1"/>
			<line class="st38" x1="197.3" y1="10.3" x2="199.2" y2="10.1"/>
			<line class="st38" x1="220.7" y1="77.9" x2="219.5" y2="7.9"/>
			<line class="st38" x1="217.6" y1="8.1" x2="219.5" y2="7.9"/>
			<line class="st38" x1="275.3" y1="99.9" x2="275.7" y2="254.7"/>
			<line class="st38" x1="231.3" y1="1.3" x2="179.4" y2="6.8"/>
			<line class="st38" x1="234" y1="1.9" x2="231.3" y2="1.3"/>
			<line class="st38" x1="182" y1="9.7" x2="181.9" y2="7.5"/>
			<line class="st38" x1="179.4" y1="6.8" x2="181.9" y2="7.5"/>
			<line class="st38" x1="42.8" y1="21.4" x2="45" y2="22.2"/>
			<line class="st38" x1="357.9" y1="58.4" x2="353.7" y2="57.3"/>
			<line class="st38" x1="195.6" y1="83.8" x2="357.9" y2="58.4"/>
			<line class="st38" x1="42.8" y1="21.4" x2="37.4" y2="21.9"/>
			<line class="st38" x1="104" y1="48" x2="109.9" y2="47.2"/>
			<polyline class="st38" points="234,4.1 313.4,23.9 313.5,21.5 			"/>
			<line class="st38" x1="235.6" y1="0.8" x2="231.3" y2="1.3"/>
			<line class="st38" x1="313.5" y1="21.5" x2="318" y2="21"/>
			<line class="st38" x1="191.9" y1="82.3" x2="198.4" y2="81.3"/>
			<line class="st38" x1="418" y1="47.3" x2="422.8" y2="46.6"/>
			<line class="st38" x1="427.2" y1="47.6" x2="422.8" y2="46.6"/>
			<line class="st38" x1="357.9" y1="58.4" x2="427.2" y2="47.6"/>
			<line class="st38" x1="153.7" y1="244.4" x2="147.4" y2="65.3"/>
			<line class="st38" x1="106.1" y1="49.2" x2="113.7" y2="216.8"/>
			<line class="st38" x1="106.8" y1="49.1" x2="106.1" y2="49.2"/>
			<line class="st38" x1="113.7" y1="216.8" x2="153.7" y2="244.4"/>
			<line class="st38" x1="148.1" y1="65.2" x2="147.4" y2="65.3"/>
			<line class="st38" x1="70.3" y1="35.1" x2="78.9" y2="192.7"/>
			<line class="st38" x1="70.9" y1="35.1" x2="70.3" y2="35.1"/>
			<line class="st38" x1="78.9" y1="192.7" x2="113.7" y2="216.8"/>
			<line class="st38" x1="235.6" y1="0.8" x2="235.3" y2="0.8"/>
			<line class="st38" x1="174.5" y1="7.2" x2="235.3" y2="0.8"/>
			<line class="st38" x1="174.8" y1="7.3" x2="174.5" y2="7.2"/>
			<line class="st38" x1="108.9" y1="14.3" x2="108.6" y2="14.2"/>
			<line class="st38" x1="37.2" y1="21.8" x2="108.6" y2="14.2"/>
			<line class="st38" x1="37.4" y1="21.9" x2="37.2" y2="21.8"/>
			<line class="st38" x1="108.6" y1="14.2" x2="174.5" y2="7.2"/>
			<line class="st38" x1="108.9" y1="14.3" x2="174.8" y2="7.3"/>
			<line class="st38" x1="321.9" y1="21.7" x2="321.4" y2="21.8"/>
			<line class="st38" x1="371.1" y1="33.9" x2="321.4" y2="21.8"/>
			<line class="st38" x1="371.6" y1="33.9" x2="321.9" y2="21.7"/>
			<line class="st38" x1="371.6" y1="33.9" x2="371.1" y2="33.9"/>
			<line class="st38" x1="422.2" y1="214.2" x2="421.7" y2="214.4"/>
			<line class="st38" x1="428.2" y1="47.7" x2="371.6" y2="33.9"/>
			<line class="st38" x1="422.2" y1="214.2" x2="428.2" y2="47.7"/>
			<line class="st38" x1="238.8" y1="1.4" x2="238.3" y2="1.5"/>
			<line class="st38" x1="277.4" y1="11" x2="238.3" y2="1.5"/>
			<line class="st38" x1="277.9" y1="11" x2="238.8" y2="1.4"/>
			<line class="st38" x1="277.9" y1="11" x2="277.4" y2="11"/>
			<line class="st38" x1="321.9" y1="21.7" x2="277.9" y2="11"/>
			<line class="st38" x1="198" y1="292.8" x2="197.9" y2="286.3"/>
			<line class="st38" x1="201.6" y1="295.4" x2="201.4" y2="287.4"/>
			<line class="st38" x1="408" y1="232.2" x2="408.1" y2="228.3"/>
			<line class="st38" x1="412.1" y1="234.1" x2="412.4" y2="227.1"/>
			<line class="st38" x1="50.8" y1="186.9" x2="50.5" y2="181.8"/>
			<line class="st38" x1="52.9" y1="188.4" x2="52.6" y2="183.3"/>
			<line class="st38" x1="114.2" y1="227" x2="113.7" y2="216.8"/>
			<line class="st38" x1="48.2" y1="171.5" x2="48.7" y2="180.6"/>
			<polyline class="st38" points="200.7,287.6 200.4,276 199.7,276.2 			"/>
			<line class="st38" x1="200.7" y1="287.6" x2="200" y2="287.8"/>
			<line class="st38" x1="152" y1="257.6" x2="151.8" y2="253.7"/>
			<line class="st38" x1="181.2" y1="278.5" x2="181.1" y2="274.4"/>
			<line class="st38" x1="125.4" y1="238.6" x2="125.2" y2="234.8"/>
			<line class="st38" x1="101.1" y1="221.2" x2="100.9" y2="217.6"/>
			<line class="st38" x1="78.8" y1="205.3" x2="78.6" y2="201.8"/>
			<polyline class="st38" points="393.2,283.8 393.5,285.7 394.9,287.7 397.4,289.4 400.9,290.9 405,292 409.6,292.6 414.2,292.7 
				418.6,292.3 422.4,291.3 425.4,290 427.3,288.3 428.1,286.4 			"/>
			<polyline class="st38" points="427.1,258.2 424.4,256.6 422.2,255.7 			"/>
			<polyline class="st38" points="401.1,254.5 399.9,254.8 396.9,256 394.9,257.6 393.9,259.3 			"/>
			<polyline class="st38" points="429,261.8 428.6,260 427.1,258.2 			"/>
			<line class="st38" x1="393.2" y1="283.8" x2="393.9" y2="259.3"/>
			<line class="st38" x1="428.1" y1="286.4" x2="429" y2="261.8"/>
			<polyline class="st38" points="184.2,353.6 184.8,356.2 186.8,358.5 190,360.5 194.2,362 199.1,362.8 204.4,362.9 209.6,362.3 
				214.5,361.1 218.7,359.3 221.8,357.1 223.7,354.6 224.2,352 			"/>
			<polyline class="st38" points="223.8,324.3 223,321.9 220.8,319.7 217.6,318 215.6,317.3 			"/>
			<polyline class="st38" points="191.3,318.3 189.5,319 186.2,321.1 184.2,323.4 183.4,325.9 			"/>
			<line class="st38" x1="224.2" y1="352" x2="223.8" y2="324.3"/>
			<line class="st38" x1="184.2" y1="353.6" x2="183.4" y2="325.9"/>
			<polyline class="st38" points="42.6,237.8 44.6,239 47.6,239.8 51.2,240.3 55.2,240.4 59.4,240.1 63.4,239.3 67,238.3 69.9,237 
				71.9,235.5 72.9,233.9 72.8,232.4 			"/>
			<line class="st38" x1="41.6" y1="236.4" x2="42.6" y2="237.8"/>
			<polyline class="st38" points="46.2,208.9 43.5,210 41.4,211.4 40.2,212.9 40.2,214.3 			"/>
			<line class="st38" x1="72.8" y1="232.4" x2="72.5" y2="226.6"/>
			<line class="st38" x1="41.6" y1="236.4" x2="40.2" y2="214.3"/>
			<line class="st38" x1="153.7" y1="244.4" x2="199.7" y2="276.2"/>
			<line class="st38" x1="331.5" y1="60.7" x2="331.9" y2="31"/>
			<line class="st38" x1="331.6" y1="175.5" x2="330.2" y2="174.8"/>
			<line class="st38" x1="315.7" y1="168.4" x2="316.3" y2="92.8"/>
			<line class="st38" x1="316.5" y1="63" x2="316.8" y2="27.2"/>
			<line class="st38" x1="318.3" y1="27.5" x2="316.8" y2="27.2"/>
			<line class="st38" x1="317.1" y1="169.1" x2="315.7" y2="168.4"/>
			<line class="st38" x1="348" y1="58.2" x2="348.3" y2="35.1"/>
			<line class="st38" x1="347.5" y1="182.5" x2="346" y2="181.8"/>
			<line class="st38" x1="383.2" y1="52.7" x2="383.5" y2="44"/>
			<line class="st38" x1="381.3" y1="197.4" x2="379.7" y2="196.7"/>
			<line class="st38" x1="365.2" y1="55.5" x2="365.5" y2="39.5"/>
			<line class="st38" x1="364" y1="189.8" x2="362.5" y2="189.1"/>
			<line class="st38" x1="402.2" y1="49.7" x2="402.2" y2="48.8"/>
			<line class="st38" x1="399.3" y1="205.3" x2="397.6" y2="204.6"/>
			<line class="st38" x1="315.7" y1="170.7" x2="315.7" y2="168.4"/>
			<line class="st38" x1="316.8" y1="27.2" x2="316.8" y2="24.8"/>
			<line class="st38" x1="411.2" y1="48.3" x2="316.8" y2="24.8"/>
			<line class="st38" x1="38.9" y1="22.8" x2="48.2" y2="171.5"/>
			<line class="st38" x1="39.5" y1="22.8" x2="38.9" y2="22.8"/>
			<line class="st38" x1="48.2" y1="171.5" x2="78.9" y2="192.7"/>
			<line class="st38" x1="195.6" y1="83.8" x2="196" y2="84"/>
			<line class="st38" x1="357.9" y1="58.4" x2="358.4" y2="58.6"/>
			<line class="st38" x1="357.9" y1="85.5" x2="358.4" y2="58.6"/>
			<line class="st38" x1="196" y1="84" x2="196.7" y2="113.7"/>
			<line class="st38" x1="427.2" y1="47.6" x2="427.7" y2="47.7"/>
			<line class="st38" x1="426.8" y1="73.4" x2="427.7" y2="47.7"/>
			<line class="st38" x1="196.7" y1="113.7" x2="200.4" y2="276"/>
			<line class="st38" x1="208.8" y1="111.6" x2="196.7" y2="113.7"/>
			<line class="st38" x1="200.4" y1="276" x2="211.9" y2="272.8"/>
			<line class="st38" x1="421.7" y1="214.4" x2="426.8" y2="73.4"/>
			<line class="st38" x1="426.8" y1="73.4" x2="417.1" y2="75.1"/>
			<polyline class="st38" points="412.4,217 421.7,214.4 421.3,224.5 421.8,224.4 			"/>
			<line class="st38" x1="281.8" y1="253.4" x2="281.8" y2="264.4"/>
			<line class="st38" x1="246.6" y1="73.9" x2="246" y2="9.3"/>
			<line class="st38" x1="248.4" y1="138.8" x2="247.3" y2="138.2"/>
			<line class="st38" x1="235" y1="75.7" x2="234.1" y2="6.2"/>
			<line class="st38" x1="235.2" y1="6.5" x2="234.1" y2="6.2"/>
			<line class="st38" x1="236.8" y1="133.6" x2="235.7" y2="133.2"/>
			<line class="st38" x1="259.3" y1="71.9" x2="258.9" y2="12.5"/>
			<line class="st38" x1="261" y1="144.3" x2="259.8" y2="143.8"/>
			<line class="st38" x1="286.4" y1="67.7" x2="286.4" y2="19.5"/>
			<line class="st38" x1="287.6" y1="156.1" x2="286.3" y2="155.5"/>
			<line class="st38" x1="315.1" y1="63.2" x2="315.4" y2="26.8"/>
			<line class="st38" x1="316.8" y1="27.2" x2="315.4" y2="26.8"/>
			<line class="st38" x1="315.7" y1="168.4" x2="314.3" y2="167.8"/>
			<line class="st38" x1="272.6" y1="69.8" x2="272.4" y2="15.9"/>
			<line class="st38" x1="300.8" y1="65.5" x2="300.9" y2="23.2"/>
			<line class="st38" x1="301.7" y1="162.3" x2="300.4" y2="161.7"/>
			<line class="st38" x1="45.8" y1="169.9" x2="36.6" y2="21.9"/>
			<line class="st38" x1="48.2" y1="171.5" x2="45.8" y2="169.9"/>
			<line class="st38" x1="37.2" y1="21.8" x2="36.6" y2="21.9"/>
			<line class="st38" x1="45.8" y1="169.9" x2="46.4" y2="178.9"/>
			<line class="st38" x1="235.8" y1="0.7" x2="238.8" y2="1.4"/>
			<line class="st38" x1="235.8" y1="0.7" x2="235.3" y2="0.8"/>
			<line class="st38" x1="455.5" y1="236.2" x2="455.6" y2="235.3"/>
			<line class="st38" x1="19.1" y1="185.7" x2="19" y2="184.9"/>
			<line class="st38" x1="421.9" y1="220.3" x2="455.5" y2="235.3"/>
			<line class="st38" x1="19" y1="184.9" x2="47" y2="179.4"/>
			<polyline class="st38" points="221.6,135.9 221.6,134.2 221.2,109.4 			"/>
			<line class="st38" x1="408.4" y1="214.7" x2="408.5" y2="211.9"/>
			<line class="st38" x1="108.9" y1="14.3" x2="42.8" y2="21.4"/>
			<line class="st38" x1="37.4" y1="21.9" x2="39.5" y2="22.8"/>
			<line class="st38" x1="238.3" y1="1.5" x2="235.6" y2="0.8"/>
			<line class="st38" x1="104" y1="48" x2="106.8" y2="49.1"/>
			<line class="st38" x1="313.4" y1="23.9" x2="316.8" y2="24.8"/>
			<line class="st38" x1="321.4" y1="21.8" x2="318" y2="21"/>
			<line class="st38" x1="354.2" y1="57.2" x2="353.7" y2="57.3"/>
			<line class="st38" x1="104" y1="48" x2="70.9" y2="35.1"/>
			<line class="st38" x1="174.8" y1="7.3" x2="179.4" y2="6.8"/>
			<line class="st38" x1="318" y1="21" x2="277.4" y2="11"/>
			<polyline class="st38" points="207.9,293.7 207.8,290.2 207.7,285.6 			"/>
			<polyline class="st38" points="197.9,292.7 197.9,290.6 197.8,286.3 			"/>
			<polyline class="st38" points="416.9,232.8 417,230.7 417.1,225.7 			"/>
			<polyline class="st38" points="407.9,232.1 408,230.2 408,228.3 			"/>
			<polyline class="st38" points="50.7,186.9 50.7,185.8 50.4,181.8 			"/>
			<line class="st38" x1="48.7" y1="180.6" x2="50.4" y2="181.8"/>
			<line class="st38" x1="114.2" y1="227" x2="125.2" y2="234.8"/>
			<line class="st38" x1="58.3" y1="190.6" x2="58.1" y2="188.6"/>
			<polyline class="st38" points="191.3,316 191.3,318.3 191.5,325.6 			"/>
			<polyline class="st38" points="215.4,308.7 215.6,317.3 215.7,324.6 			"/>
			<line class="st38" x1="19.1" y1="185.7" x2="46" y2="206.3"/>
			<line class="st38" x1="189.8" y1="316.5" x2="191.3" y2="316"/>
			<polyline class="st38" points="422.6,246.1 422.2,255.7 422,261.3 			"/>
			<polyline class="st38" points="401.2,252.6 401.1,254.5 400.9,259.8 			"/>
			<polyline class="st38" points="46,206.3 46.2,208.9 46.5,213.5 			"/>
			<line class="st38" x1="191.9" y1="82.3" x2="148.1" y2="65.2"/>
			<polyline class="st38" points="330.2,174.8 330.2,171.9 331.2,90.2 			"/>
			<polyline class="st38" points="346,181.8 346,178.8 347.5,87.3 			"/>
			<polyline class="st38" points="379.7,196.7 379.7,193.5 382.5,81.2 			"/>
			<polyline class="st38" points="362.5,189.1 362.5,186 364.6,84.3 			"/>
			<polyline class="st38" points="397.6,204.6 397.7,201.4 401.4,77.9 			"/>
			<polyline class="st38" points="276.1,254.9 281.8,253.4 285.8,252.2 			"/>
			<polyline class="st38" points="416.7,75.2 411.9,216.3 411.9,216.8 			"/>
			<polyline class="st38" points="422.2,214.2 421.9,220.3 421.8,224.4 			"/>
			<line class="st38" x1="281.8" y1="264.4" x2="408" y2="228.3"/>
			<polyline class="st38" points="247.3,138.2 247.2,135.6 246.9,104.9 			"/>
			<polyline class="st38" points="235.7,133.2 235.7,131.7 235.4,106.9 			"/>
			<polyline class="st38" points="259.8,143.8 259.8,141.1 259.5,102.7 			"/>
			<polyline class="st38" points="286.3,155.5 286.3,152.7 286.4,98 			"/>
			<polyline class="st38" points="314.3,167.8 314.3,164.9 314.9,93 			"/>
			<polyline class="st38" points="300.4,161.7 300.4,158.8 300.6,95.5 			"/>
			<polyline class="st38" points="46.4,178.9 47,179.4 48.7,180.6 			"/>
			<line class="st38" x1="130.6" y1="17.6" x2="133" y2="17.4"/>
			<line class="st38" x1="408.7" y1="206.2" x2="412.9" y2="75.8"/>
			<line class="st38" x1="271.6" y1="178.5" x2="271.5" y2="151.1"/>
			<line class="st38" x1="271.5" y1="146.2" x2="271.3" y2="100.6"/>
			<polyline class="st38" points="200.8,81 198.9,81.2 198.4,81.3 			"/>
			<line class="st38" x1="109.9" y1="47.2" x2="109.3" y2="47"/>
			<line class="st38" x1="111.6" y1="47.9" x2="109.9" y2="47.2"/>
			<line class="st38" x1="422.8" y1="46.6" x2="371.1" y2="33.9"/>
			<line class="st38" x1="50.4" y1="181.8" x2="50.5" y2="181.8"/>
			<line class="st38" x1="125.2" y1="234.8" x2="133.7" y2="240.8"/>
			<polyline class="st38" points="58.1,188.6 58.1,187.4 58.1,187.2 			"/>
			<line class="st38" x1="46" y1="206.3" x2="46.6" y2="206.8"/>
			<line class="st38" x1="191.3" y1="316" x2="191.6" y2="315.9"/>
			<line class="st38" x1="322.8" y1="28.7" x2="318.3" y2="27.5"/>
			<line class="st38" x1="407.9" y1="76.7" x2="412.9" y2="75.8"/>
			<line class="st38" x1="209.7" y1="160.1" x2="209.3" y2="140.3"/>
			<line class="st38" x1="209.3" y1="136.6" x2="208.8" y2="111.6"/>
			<line class="st38" x1="285.8" y1="175.3" x2="285.8" y2="157.4"/>
			<line class="st38" x1="285.8" y1="152.4" x2="285.8" y2="98.1"/>
			<line class="st38" x1="408" y1="228.3" x2="408.1" y2="228.3"/>
			<polyline class="st38" points="200.7,287.6 201.4,287.4 201.5,287.4 207.7,285.6 281.8,264.4 			"/>
			<line class="st38" x1="239.5" y1="7.6" x2="235.2" y2="6.5"/>
			<line class="st38" x1="54.7" y1="26" x2="61.1" y2="25.3"/>
			<line class="st38" x1="84.9" y1="22.6" x2="87.1" y2="22.4"/>
			<polyline class="st38" points="408.5,211.9 408.6,209.4 408.7,206.2 			"/>
			<line class="st38" x1="271.6" y1="191.1" x2="271.6" y2="178.5"/>
			<polyline class="st38" points="271.5,151.1 271.5,148.9 271.5,146.2 			"/>
			<line class="st38" x1="88" y1="38.8" x2="85.7" y2="37.9"/>
			<polyline class="st38" points="63.5,29.3 61.3,28.5 54.7,26 			"/>
			<line class="st38" x1="198.4" y1="81.3" x2="196.3" y2="80.5"/>
			<polyline class="st38" points="132.1,55.8 113.8,48.7 111.6,47.9 			"/>
			<line class="st38" x1="402.2" y1="49.7" x2="389.7" y2="51.7"/>
			<line class="st38" x1="46.6" y1="206.8" x2="47.9" y2="207.7"/>
			<line class="st38" x1="191.6" y1="315.9" x2="192.8" y2="315.6"/>
			<line class="st38" x1="331.9" y1="31" x2="322.8" y2="28.7"/>
			<line class="st38" x1="208.8" y1="111.6" x2="216.8" y2="110.2"/>
			<line class="st38" x1="235.2" y1="107" x2="235.4" y2="106.9"/>
			<line class="st38" x1="403.2" y1="77.5" x2="407.9" y2="76.7"/>
			<line class="st38" x1="412.9" y1="75.8" x2="416.7" y2="75.2"/>
			<line class="st38" x1="210.4" y1="192.4" x2="209.7" y2="160.1"/>
			<polyline class="st38" points="209.3,140.3 209.3,138.2 209.3,136.6 			"/>
			<line class="st38" x1="285.8" y1="198.2" x2="285.8" y2="175.3"/>
			<polyline class="st38" points="285.8,157.4 285.8,155.3 285.8,152.4 			"/>
			<line class="st38" x1="61.1" y1="25.3" x2="63.2" y2="25"/>
			<line class="st38" x1="271.8" y1="247.6" x2="271.6" y2="191.1"/>
			<line class="st38" x1="235" y1="75.7" x2="234.8" y2="75.7"/>
			<line class="st38" x1="216.2" y1="78.6" x2="200.8" y2="81"/>
			<polyline class="st38" points="109.3,47 90.2,39.6 88,38.8 			"/>
			<polyline class="st38" points="85.7,37.9 65.8,30.2 63.5,29.3 			"/>
			<line class="st38" x1="54.7" y1="26" x2="49.9" y2="24.1"/>
			<line class="st38" x1="178.1" y1="73.5" x2="175.6" y2="72.5"/>
			<line class="st38" x1="156.6" y1="65.2" x2="154.2" y2="64.3"/>
			<line class="st38" x1="134.5" y1="56.7" x2="132.1" y2="55.8"/>
			<line class="st38" x1="404" y1="49.5" x2="402.2" y2="49.7"/>
			<line class="st38" x1="389.7" y1="51.7" x2="385" y2="52.4"/>
			<line class="st38" x1="371.5" y1="54.5" x2="366.8" y2="55.2"/>
			<polyline class="st38" points="50.5,181.8 52.6,183.3 52.6,183.4 			"/>
			<polyline class="st38" points="133.7,240.8 137.7,243.7 151.8,253.7 161.1,260.3 			"/>
			<line class="st38" x1="47.9" y1="207.7" x2="49.7" y2="209.1"/>
			<line class="st38" x1="192.8" y1="315.6" x2="194.7" y2="315"/>
			<line class="st38" x1="216.8" y1="110.2" x2="219.4" y2="109.8"/>
			<line class="st38" x1="366.2" y1="84" x2="370.9" y2="83.2"/>
			<polyline class="st38" points="384.3,80.9 389,80 401.4,77.9 403.2,77.5 			"/>
			<line class="st38" x1="416.7" y1="75.2" x2="417.1" y2="75.1"/>
			<line class="st38" x1="210.7" y1="212.2" x2="210.4" y2="192.4"/>
			<line class="st38" x1="285.8" y1="244.4" x2="285.8" y2="198.2"/>
			<polyline class="st38" points="408.1,228.3 412.4,227.1 412.5,227.1 417.1,225.7 421.3,224.5 			"/>
			<line class="st38" x1="246" y1="9.3" x2="239.5" y2="7.6"/>
			<line class="st38" x1="65.5" y1="24.8" x2="84.9" y2="22.6"/>
			<line class="st38" x1="89.3" y1="22.2" x2="108.1" y2="20.1"/>
			<line class="st38" x1="135.1" y1="17.1" x2="152.6" y2="15.2"/>
			<line class="st38" x1="173.9" y1="12.9" x2="176.4" y2="12.6"/>
			<polyline class="st38" points="271.9,252.4 271.9,248.2 271.8,247.6 			"/>
			<line class="st38" x1="218.8" y1="78.2" x2="216.2" y2="78.6"/>
			<line class="st38" x1="49.9" y1="24.1" x2="45" y2="22.2"/>
			<polyline class="st38" points="196.3,80.5 180.1,74.3 178.1,73.5 			"/>
			<polyline class="st38" points="175.6,72.5 158.7,66 156.6,65.2 			"/>
			<polyline class="st38" points="154.2,64.3 136.6,57.5 134.5,56.7 			"/>
			<line class="st38" x1="404.6" y1="49.4" x2="404" y2="49.5"/>
			<polyline class="st38" points="385,52.4 383.2,52.7 371.5,54.5 			"/>
			<polyline class="st38" points="366.8,55.2 365.2,55.5 354.2,57.2 			"/>
			<polyline class="st38" points="52.6,183.4 58.1,187.2 64.6,191.8 			"/>
			<line class="st38" x1="49.7" y1="209.1" x2="52" y2="210.9"/>
			<line class="st38" x1="194.7" y1="315" x2="197.2" y2="314.2"/>
			<line class="st38" x1="338" y1="32.5" x2="333.4" y2="31.4"/>
			<polyline class="st38" points="219.4,109.8 221.2,109.4 235.2,107 			"/>
			<polyline class="st38" points="353.7,86.2 357.9,85.5 364.6,84.3 366.2,84 			"/>
			<polyline class="st38" points="370.9,83.2 382.5,81.2 384.3,80.9 			"/>
			<line class="st38" x1="211.8" y1="264.7" x2="210.7" y2="212.2"/>
			<polyline class="st38" points="285.8,252.2 285.8,251.9 285.8,244.4 			"/>
			<polyline class="st38" points="258.9,12.5 251.5,10.7 247.2,9.6 			"/>
			<line class="st38" x1="108.1" y1="20.1" x2="110.4" y2="19.8"/>
			<line class="st38" x1="152.6" y1="15.2" x2="155" y2="14.9"/>
			<line class="st38" x1="331.5" y1="60.7" x2="322.5" y2="62.1"/>
			<polyline class="st38" points="234.8,75.7 220.7,77.9 218.8,78.2 			"/>
			<line class="st38" x1="411.2" y1="48.3" x2="404.6" y2="49.4"/>
			<polyline class="st38" points="64.6,191.8 68.4,194.5 78.6,201.8 85.7,206.8 			"/>
			<polyline class="st38" points="161.1,260.3 165.3,263.2 181.1,274.4 191.3,281.7 			"/>
			<line class="st38" x1="52" y1="210.9" x2="54.5" y2="212.8"/>
			<line class="st38" x1="197.2" y1="314.2" x2="200.1" y2="313.4"/>
			<line class="st38" x1="348.3" y1="35.1" x2="338" y2="32.5"/>
			<line class="st38" x1="332.7" y1="89.9" x2="337.2" y2="89.1"/>
			<line class="st38" x1="349.1" y1="87" x2="353.7" y2="86.2"/>
			<polyline class="st38" points="211.9,272.8 211.9,272.4 211.8,264.7 			"/>
			<polyline class="st38" points="272.4,15.9 264.6,14 260.2,12.9 			"/>
			<line class="st38" x1="112.5" y1="19.6" x2="130.6" y2="17.6"/>
			<line class="st38" x1="157" y1="14.7" x2="173.9" y2="12.9"/>
			<line class="st38" x1="178.4" y1="12.4" x2="194.7" y2="10.6"/>
			<line class="st38" x1="333" y1="60.5" x2="331.5" y2="60.7"/>
			<polyline class="st38" points="240.3,74.8 236.1,75.5 235,75.7 			"/>
			<line class="st38" x1="418" y1="47.3" x2="411.2" y2="48.3"/>
			<line class="st38" x1="191.3" y1="281.7" x2="195.6" y2="284.7"/>
			<line class="st38" x1="54.5" y1="212.8" x2="57.1" y2="214.8"/>
			<line class="st38" x1="200.1" y1="313.4" x2="203.3" y2="312.4"/>
			<polyline class="st38" points="235.4,106.9 236.5,106.7 240.7,106 			"/>
			<polyline class="st38" points="322.2,91.7 331.2,90.2 332.7,89.9 			"/>
			<polyline class="st38" points="337.2,89.1 347.5,87.3 349.1,87 			"/>
			<polyline class="st38" points="286.4,19.5 278.1,17.4 273.7,16.3 			"/>
			<line class="st38" x1="194.7" y1="10.6" x2="197.3" y2="10.3"/>
			<line class="st38" x1="337.6" y1="59.8" x2="333" y2="60.5"/>
			<line class="st38" x1="252" y1="73" x2="247.8" y2="73.7"/>
			<polyline class="st38" points="85.7,206.8 89.5,209.5 100.9,217.6 108.6,223 			"/>
			<line class="st38" x1="195.6" y1="284.7" x2="197.8" y2="286.3"/>
			<line class="st38" x1="203.3" y1="312.4" x2="206.4" y2="311.4"/>
			<line class="st38" x1="354.5" y1="36.7" x2="349.9" y2="35.5"/>
			<line class="st38" x1="248.1" y1="104.7" x2="252.3" y2="104"/>
			<line class="st38" x1="315.4" y1="26.8" x2="306.8" y2="24.6"/>
			<polyline class="st38" points="300.9,23.2 292.2,20.9 287.7,19.8 			"/>
			<line class="st38" x1="353.7" y1="57.3" x2="349.5" y2="57.9"/>
			<line class="st38" x1="264.9" y1="71" x2="260.5" y2="71.7"/>
			<polyline class="st38" points="247.8,73.7 246.6,73.9 240.3,74.8 			"/>
			<polyline class="st38" points="108.6,223 112.6,225.9 114.2,227 			"/>
			<polyline class="st38" points="197.8,286.3 197.9,286.3 200,287.8 			"/>
			<line class="st38" x1="57.1" y1="214.8" x2="58" y2="215.5"/>
			<line class="st38" x1="66" y1="221.6" x2="69.1" y2="224"/>
			<line class="st38" x1="206.4" y1="311.4" x2="209.4" y2="310.5"/>
			<polyline class="st38" points="240.7,106 246.9,104.9 248.1,104.7 			"/>
			<line class="st38" x1="260.7" y1="102.5" x2="265" y2="101.7"/>
			<line class="st38" x1="306.8" y1="24.6" x2="302.3" y2="23.5"/>
			<line class="st38" x1="233.9" y1="6.3" x2="234.1" y2="6.2"/>
			<polyline class="st38" points="349.5,57.9 348,58.2 337.6,59.8 			"/>
			<line class="st38" x1="278.2" y1="69" x2="273.8" y2="69.6"/>
			<polyline class="st38" points="260.5,71.7 259.3,71.9 252,73 			"/>
			<line class="st38" x1="62.2" y1="218.7" x2="66" y2="221.6"/>
			<line class="st38" x1="69.1" y1="224" x2="71.3" y2="225.7"/>
			<line class="st38" x1="209.4" y1="310.5" x2="211.9" y2="309.8"/>
			<line class="st38" x1="383.5" y1="44" x2="371.8" y2="41.1"/>
			<line class="st38" x1="365.5" y1="39.5" x2="354.5" y2="36.7"/>
			<polyline class="st38" points="252.3,104 259.5,102.7 260.7,102.5 			"/>
			<line class="st38" x1="199.2" y1="10.1" x2="215" y2="8.3"/>
			<line class="st38" x1="292.1" y1="66.8" x2="287.7" y2="67.5"/>
			<polyline class="st38" points="273.8,69.6 272.6,69.8 264.9,71 			"/>
			<polyline class="st38" points="58,215.5 60.4,217.3 62.2,218.7 			"/>
			<line class="st38" x1="71.3" y1="225.7" x2="72.5" y2="226.6"/>
			<line class="st38" x1="211.9" y1="309.8" x2="213.8" y2="309.2"/>
			<line class="st38" x1="371.8" y1="41.1" x2="367.2" y2="39.9"/>
			<line class="st38" x1="265" y1="101.7" x2="271.3" y2="100.6"/>
			<line class="st38" x1="302" y1="95.3" x2="306.4" y2="94.5"/>
			<line class="st38" x1="317.7" y1="92.5" x2="322.2" y2="91.7"/>
			<line class="st38" x1="215" y1="8.3" x2="217.6" y2="8.1"/>
			<line class="st38" x1="322.5" y1="62.1" x2="318" y2="62.8"/>
			<line class="st38" x1="306.6" y1="64.6" x2="302.1" y2="65.2"/>
			<polyline class="st38" points="287.7,67.5 286.4,67.7 278.2,69 			"/>
			<polyline class="st38" points="72.5,226.6 72.5,226.6 189.8,316.5 			"/>
			<line class="st38" x1="213.8" y1="309.2" x2="215" y2="308.8"/>
			<line class="st38" x1="389.9" y1="45.6" x2="385.2" y2="44.5"/>
			<polyline class="st38" points="271.3,100.6 275.3,99.9 275.7,99.9 			"/>
			<polyline class="st38" points="287.7,97.8 292,97 300.6,95.5 302,95.3 			"/>
			<line class="st38" x1="316.3" y1="92.8" x2="317.7" y2="92.5"/>
			<line class="st38" x1="219.5" y1="7.9" x2="233.9" y2="6.3"/>
			<line class="st38" x1="318" y1="62.8" x2="316.5" y2="63"/>
			<polyline class="st38" points="302.1,65.2 300.8,65.5 292.1,66.8 			"/>
			<line class="st38" x1="215" y1="308.8" x2="215.4" y2="308.7"/>
			<line class="st38" x1="402.2" y1="48.8" x2="389.9" y2="45.6"/>
			<polyline class="st38" points="285.8,98.1 286.4,98 287.7,97.8 			"/>
			<polyline class="st38" points="306.4,94.5 314.9,93 316.3,92.8 			"/>
			<polyline class="st38" points="316.5,63 315.1,63.2 306.6,64.6 			"/>
			<line class="st38" x1="404.6" y1="49.4" x2="404" y2="49.2"/>
			<polyline class="st38" points="215.4,308.7 401.2,252.6 401.4,252.5 402.3,252.3 403.9,251.8 406,251.1 408.6,250.4 411.4,249.5 
				414.2,248.7 416.8,247.9 419.1,247.2 420.9,246.6 			"/>
			<line class="st38" x1="422.6" y1="246.1" x2="455.5" y2="236.2"/>
			<polyline class="st38" points="420.9,246.6 422.1,246.3 422.6,246.1 			"/>
		</g>
	</g>
</g>
</svg>
