<?xml version="1.0" encoding="utf-8"?>
<!-- Generator: Adobe Illustrator 20.1.0, SVG Export Plug-In . SVG Version: 6.00 Build 0)  -->
<svg version="1.1" id="Layer_13_1_" xmlns="http://www.w3.org/2000/svg" xmlns:xlink="http://www.w3.org/1999/xlink" x="0px"
	 y="0px" viewBox="0 0 473.1 375" style="enable-background:new 0 0 473.1 375;" xml:space="preserve">
<style type="text/css">
	.st0{fill:#8F7B5C;}
	.st1{fill:#F7C283;}
	.st2{fill:#D1A46E;}
	.st3{fill:#BDA27C;}
	.st4{fill:#9F7C52;}
	.st5{fill:#DFC093;}
	.st6{fill:#997D21;}
	.st7{fill:#777777;}
	.st8{fill:#A4A4A5;}
	.st9{fill:#8A8A8B;}
	.st10{fill:#8C8D8D;}
	.st11{fill:#BBBBBC;}
	.st12{fill:#9E9E9E;}
	.st13{fill:#543404;}
	.st14{fill:#6A4109;}
	.st15{fill:#87550D;}
	.st16{fill:#9F6512;}
	.st17{fill:#B17115;}
	.st18{fill:#BD7918;}
	.st19{fill:#C27C19;}
	.st20{fill:#BF7B18;}
	.st21{fill:#B67416;}
	.st22{fill:#A66A14;}
	.st23{fill:#915B0F;}
	.st24{fill:#75490A;}
	.st25{fill:#6F4508;}
	.st26{fill:#653718;}
	.st27{fill:#A95F2F;}
	.st28{fill:#915127;}
	.st29{fill:#A45C2E;}
	.st30{fill:#A75E2E;}
	.st31{fill:#9F592B;}
	.st32{fill:#7D4621;}
	.st33{fill:#8A4D25;}
	.st34{fill:#75411E;}
	.st35{fill:#5B3115;}
	.st36{fill:#49260E;}
	.st37{fill:none;stroke:#000000;stroke-width:0.5;stroke-linecap:round;stroke-linejoin:round;stroke-miterlimit:10;}
	.st38{fill:none;stroke:#000000;stroke-linecap:round;stroke-linejoin:round;stroke-miterlimit:10;}
</style>
<g>
	<g>
		<g>
			<polygon class="st0" points="209.3,151.8 235.7,146.7 271.5,162.6 271.6,190 254.3,193.9 209.7,171.6 			"/>
			<polygon class="st1" points="235.7,146.7 209.3,151.8 209.3,149.7 219.8,147.7 221.6,147.4 235.7,144.7 			"/>
			<polygon class="st2" points="271.5,162.6 235.7,146.7 235.7,144.7 236.8,145.1 247.3,149.7 248.4,150.3 259.8,155.3 261,155.8 
				271.5,160.4 			"/>
			<polygon class="st1" points="221.6,147.4 219.8,147.7 219.4,121.3 221.2,120.9 221.6,145.7 			"/>
			<polygon class="st0" points="209.7,171.6 254.3,193.9 210.4,203.9 			"/>
			<polygon class="st0" points="254.3,193.9 271.6,190 271.6,202.6 			"/>
			<polygon class="st0" points="210.4,203.9 254.3,193.9 271.6,202.6 271.8,259.1 210.7,223.7 			"/>
			<polygon class="st0" points="210.7,223.7 271.8,259.1 271.9,259.7 211.8,276.2 			"/>
			<polygon class="st0" points="211.8,276.2 271.9,259.7 271.9,263.9 275.7,266.2 211.9,283.9 			"/>
			<polygon class="st2" points="275.7,266.2 271.9,263.9 271.9,259.7 271.8,259.1 271.6,202.6 271.6,190 271.5,162.6 271.5,160.4 
				271.5,157.7 271.3,112.1 275.3,111.4 			"/>
			<polygon class="st0" points="211.9,283.9 275.7,266.2 276.1,266.4 211.9,284.3 			"/>
			<polygon class="st3" points="275.3,111.4 275.7,266.2 276.1,266.4 275.7,111.4 			"/>
			<polygon class="st2" points="219.4,121.3 219.8,147.7 217.2,146.5 216.8,121.7 			"/>
			<polygon class="st4" points="217.2,146.5 219.8,147.7 209.3,149.7 209.3,148.1 			"/>
			<polygon class="st5" points="217.2,146.5 209.3,148.1 208.8,123.1 216.8,121.7 			"/>
			<polygon class="st5" points="276.1,266.4 275.7,111.4 285.8,109.6 285.8,163.9 285.8,166.8 285.8,168.9 285.8,186.8 285.8,209.7 
				285.8,255.9 285.8,263.4 285.8,263.7 281.8,264.9 			"/>
			<polygon class="st5" points="285.8,109.6 275.7,111.4 275.3,111.4 271.3,112.1 265,113.2 260.7,114 259.5,114.2 252.3,115.5 
				248.1,116.2 246.9,116.4 240.7,117.5 236.5,118.2 235.4,118.4 235.2,118.5 221.2,120.9 219.4,121.3 216.8,121.7 208.8,123.1 
				196.7,125.2 196,95.5 213.4,102.3 216.3,101.8 216.1,92.3 358.4,70.1 357.9,97 353.7,97.7 349.1,98.5 347.5,98.8 337.2,100.6 
				332.7,101.4 331.2,101.7 322.2,103.2 317.7,104 316.3,104.3 314.9,104.5 306.4,106 302,106.8 300.6,107 292,108.5 287.7,109.3 
				286.4,109.5 			"/>
			<polygon class="st1" points="216.3,101.8 213.4,102.3 213.2,90.4 216.1,89.9 216.1,92.1 216.1,92.3 			"/>
			<polygon class="st5" points="216.1,89.9 213.2,90.4 213.2,89 216.1,88.6 			"/>
			<polygon class="st2" points="213.2,90.4 213.4,102.3 196,95.5 148.1,76.7 106.8,60.6 87.9,53.2 87.4,43.5 105.9,50.4 195.4,83.7 
							"/>
			<polygon class="st3" points="195.4,83.7 105.9,50.4 105.9,49.2 195.3,82.4 			"/>
			<polygon class="st0" points="106.8,60.6 148.1,76.7 147.4,76.8 106.1,60.7 			"/>
			<polygon class="st2" points="87.4,43.5 87.9,53.2 70.9,46.6 39.5,34.3 37.2,33.3 27.8,29.7 27.3,21.1 36.8,24.6 38.7,25.3 			"/>
			<polygon class="st3" points="38.7,25.3 36.8,24.6 36.8,23.6 38.6,24.3 			"/>
			<polygon class="st0" points="39.5,34.3 70.9,46.6 70.3,46.6 38.9,34.3 			"/>
			<polygon class="st0" points="321,23.3 427.6,48 425.5,48.3 358.1,58.3 255.7,31.2 			"/>
			<polygon class="st0" points="255.7,31.2 358.1,58.3 281.2,69.7 184.3,39.8 			"/>
			<polygon class="st0" points="321,23.3 255.7,31.2 176.7,10.3 237.8,4.1 			"/>
			<polygon class="st2" points="221.7,5 221.7,1.9 231,4 			"/>
			<polygon class="st3" points="231,4 221.7,1.9 221.7,1 233.7,3.8 			"/>
			<polygon class="st1" points="448.3,54 447.9,64.2 445.8,64.5 446.2,54.3 			"/>
			<polygon class="st5" points="448.3,54 446.2,54.3 446.3,53.1 448.4,52.8 			"/>
			<polygon class="st2" points="446.2,54.3 445.8,64.5 428.2,60.2 427.7,60.1 425.6,59.6 425.1,59.4 425.5,49.4 			"/>
			<polygon class="st1" points="425.5,49.4 425.1,59.4 357.9,70 216.1,92.1 216.1,89.9 216.1,88.6 200.7,82.9 281.2,70.9 
				358.1,59.5 			"/>
			<polygon class="st5" points="358.1,59.5 281.2,70.9 281.2,69.7 358.1,58.3 			"/>
			<polygon class="st0" points="425.1,59.4 425.6,59.6 358.4,70.1 357.9,69.9 			"/>
			<polygon class="st5" points="425.5,49.4 358.1,59.5 358.1,58.3 425.5,48.3 			"/>
			<polygon class="st3" points="425.5,49.4 425.5,48.3 446.3,53.1 446.2,54.3 			"/>
			<polygon class="st0" points="216.1,92.1 357.9,69.9 358.4,70.1 216.1,92.3 			"/>
			<polygon class="st0" points="106.8,60.6 106.1,60.7 70.3,46.6 70.9,46.6 87.9,53.2 			"/>
			<polygon class="st3" points="106.1,60.7 147.4,76.8 153.7,255.9 113.7,228.3 			"/>
			<polygon class="st3" points="153.7,255.9 147.4,76.8 195.3,95.6 199.7,287.7 			"/>
			<polygon class="st3" points="106.1,60.7 113.7,228.3 78.9,204.2 70.3,46.6 			"/>
			<polygon class="st3" points="113.7,228.3 153.7,255.9 199.7,287.7 200,299.3 197.9,297.8 197.8,297.8 195.6,296.2 191.3,293.2 
				181.1,285.9 165.3,274.7 161.1,271.8 151.8,265.2 137.7,255.2 133.7,252.3 125.2,246.3 114.2,238.5 			"/>
			<polygon class="st0" points="147.4,76.8 148.1,76.7 196,95.5 195.3,95.6 			"/>
			<polygon class="st3" points="70.3,46.6 78.9,204.2 48.2,183 38.9,34.3 			"/>
			<polygon class="st3" points="78.9,204.2 113.7,228.3 114.2,238.5 112.6,237.4 108.6,234.5 100.9,229.1 89.5,221 85.7,218.3 
				78.6,213.3 68.4,206 64.6,203.3 58.1,198.7 52.6,194.9 52.6,194.8 50.5,193.3 50.4,193.3 48.7,192.1 48.2,183 			"/>
			<polygon class="st5" points="428.2,60.2 422.2,225.7 421.7,225.9 426.8,84.9 427.7,60.1 			"/>
			<polygon class="st5" points="421.7,225.9 421.3,236 421.8,235.9 421.9,231.8 422.2,225.7 			"/>
			<polygon class="st3" points="48.2,183 48.7,192.1 47,190.9 46.4,190.4 45.8,181.4 			"/>
			<polygon class="st5" points="199.7,287.7 200,299.3 200.7,299.1 200.4,287.5 			"/>
			<polygon class="st5" points="200.7,299.1 200.4,287.5 211.9,284.3 276.1,266.4 281.8,264.9 281.8,275.9 207.7,297.1 201.5,298.9 
				201.4,298.9 			"/>
			<polygon class="st5" points="200.4,287.5 199.7,287.7 195.3,95.6 196,95.5 196.7,125.2 			"/>
			<polygon class="st6" points="200,299.3 200.7,299.1 201.4,298.9 201.6,306.9 198,304.3 197.9,297.8 			"/>
			<polygon class="st7" points="198,304.3 201.6,306.9 201.7,306.9 207.9,305.2 207.8,301.7 208.2,301.8 209.6,302.5 210.6,303.3 
				211,304.2 210.9,305.1 210.3,306 209.1,306.8 207.6,307.5 205.7,308 203.6,308.3 201.4,308.3 199.4,308.1 197.6,307.6 196.2,307 
				195.2,306.2 194.8,305.3 194.9,304.3 195.6,303.4 196.8,302.6 197.9,302.1 197.9,304.2 			"/>
			<polygon class="st8" points="207.9,305.2 201.7,306.9 201.5,298.9 207.7,297.1 207.8,301.7 			"/>
			<polygon class="st9" points="197.9,302.1 197.9,304.2 198,304.3 197.9,297.8 197.8,297.8 			"/>
			<polygon class="st9" points="201.4,298.9 201.6,306.9 201.7,306.9 201.5,298.9 			"/>
			<polygon class="st7" points="194.8,305.3 195.2,306.2 196.2,307 197.6,307.6 199.4,308.1 201.4,308.3 203.6,308.3 205.7,308 
				207.6,307.5 209.1,306.8 210.3,306 210.9,305.1 211,304.2 210.6,303.3 209.6,302.5 208.2,301.8 207.8,301.7 207.7,297.1 
				281.8,275.9 408,239.8 408,241.7 407.4,241.9 406.3,242.4 405.6,243 405.3,243.7 405.6,244.4 406.3,245.1 407.5,245.7 409,246.1 
				410.7,246.5 412.5,246.6 414.4,246.6 416.1,246.4 417.5,246.1 418.6,245.6 419.3,244.9 419.5,244.2 419.2,243.5 418.5,242.9 
				417.3,242.3 417,242.2 417.1,237.2 421.3,236 421.8,235.9 421.9,231.8 455.6,246.8 189.8,327 19,196.4 47,190.9 48.7,192.1 
				50.4,193.3 50.7,197.3 50.2,197.4 49.1,197.9 48.4,198.4 48.1,199 48.2,199.5 48.7,200 49.6,200.4 50.9,200.6 52.4,200.8 
				54,200.8 55.7,200.6 57.3,200.3 58.1,200.1 58.3,202.1 64.8,206.8 68.4,206 78.6,213.3 78.8,216.8 85.9,221.8 89.5,221 
				100.9,229.1 101.1,232.7 108.8,238.2 112.6,237.4 114.2,238.5 125.2,246.3 125.4,250.1 133.8,256.1 137.7,255.2 151.8,265.2 
				152,269.1 161.2,275.8 165.3,274.7 181.1,285.9 181.2,290 191.4,297.4 195.6,296.2 197.8,297.8 197.9,302.1 196.8,302.6 
				195.6,303.4 194.9,304.3 			"/>
			<polygon class="st10" points="406.3,245.1 405.6,244.4 405.3,243.7 405.6,243 406.3,242.4 407.4,241.9 408,241.7 407.9,243.6 
				408,243.7 412.1,245.6 412.3,245.6 416.9,244.3 417,242.2 417.3,242.3 418.5,242.9 419.2,243.6 419.5,244.3 419.3,244.9 
				418.6,245.6 417.5,246.1 416.1,246.4 414.4,246.6 412.5,246.7 410.7,246.5 409,246.1 407.5,245.7 			"/>
			<polygon class="st8" points="416.9,244.3 412.3,245.6 412.5,238.6 417.1,237.2 417,242.2 			"/>
			<polygon class="st9" points="408,239.8 408,241.7 407.9,243.6 408,243.7 408.1,239.8 			"/>
			<polygon class="st9" points="412.4,238.6 412.1,245.6 412.3,245.6 412.5,238.6 			"/>
			<polygon class="st6" points="412.1,245.6 408,243.7 408.1,239.8 412.4,238.6 			"/>
			<polygon class="st10" points="48.2,199.5 48.1,199 48.4,198.4 49.1,197.9 50.2,197.4 50.7,197.3 50.7,198.4 50.8,198.4 
				52.9,199.9 53,200 58.1,198.9 58.1,200.1 57.3,200.3 55.7,200.6 54,200.8 52.4,200.8 50.9,200.6 49.6,200.4 48.7,200 			"/>
			<polygon class="st8" points="58.1,198.9 53,200 52.6,194.9 58.1,198.7 			"/>
			<polygon class="st9" points="50.7,197.3 50.7,198.4 50.8,198.4 50.5,193.3 50.4,193.3 			"/>
			<polygon class="st9" points="52.9,199.9 53,200 52.6,194.9 52.6,194.8 			"/>
			<polygon class="st6" points="52.9,199.9 50.8,198.4 50.5,193.3 52.6,194.8 			"/>
			<polygon class="st11" points="165.3,274.7 161.2,275.8 161.1,271.8 			"/>
			<polygon class="st12" points="161.2,275.8 152,269.1 151.8,265.2 161.1,271.8 			"/>
			<polygon class="st11" points="195.6,296.2 191.4,297.4 191.3,293.2 			"/>
			<polygon class="st12" points="191.4,297.4 181.2,290 181.1,285.9 191.3,293.2 			"/>
			<polygon class="st11" points="137.7,255.2 133.8,256.1 133.7,252.3 			"/>
			<polygon class="st12" points="133.8,256.1 125.4,250.1 125.2,246.3 133.7,252.3 			"/>
			<polygon class="st11" points="112.6,237.4 108.8,238.2 108.6,234.6 			"/>
			<polygon class="st12" points="108.8,238.2 101.1,232.7 100.9,229.1 108.6,234.5 			"/>
			<polygon class="st11" points="89.5,221 85.9,221.8 85.7,218.3 			"/>
			<polygon class="st12" points="85.9,221.8 78.8,216.8 78.6,213.3 85.7,218.3 			"/>
			<polygon class="st11" points="68.4,206 64.8,206.8 64.6,203.4 			"/>
			<polygon class="st12" points="64.8,206.8 58.3,202.1 58.1,200.1 58.1,198.9 58.1,198.7 64.6,203.3 			"/>
			<polygon class="st13" points="393.2,295.3 393.5,297.2 394.2,272.7 393.9,270.8 			"/>
			<polygon class="st14" points="394.9,299.2 393.5,297.2 394.2,272.7 395.6,274.5 			"/>
			<polygon class="st15" points="397.4,300.9 394.9,299.2 395.7,274.5 398.2,276.2 			"/>
			<polygon class="st16" points="400.9,302.4 397.4,300.9 398.2,276.2 401.7,277.6 			"/>
			<polygon class="st17" points="405,303.5 400.9,302.4 401.7,277.6 405.8,278.6 			"/>
			<polygon class="st18" points="409.6,304.1 405,303.5 405.8,278.6 410.4,279.2 			"/>
			<polygon class="st19" points="414.2,304.2 409.6,304.1 410.4,279.2 415.1,279.3 			"/>
			<polygon class="st20" points="418.6,303.8 414.2,304.2 415.1,279.3 419.5,278.9 			"/>
			<polygon class="st21" points="422.4,302.8 418.6,303.8 419.5,278.9 423.3,278 			"/>
			<polygon class="st22" points="425.4,301.5 422.4,302.8 423.3,278 426.3,276.7 			"/>
			<polygon class="st23" points="427.3,299.8 425.4,301.5 426.3,276.7 428.3,275.1 			"/>
			<polygon class="st24" points="428.1,297.9 427.3,299.8 428.3,275.1 429,273.3 			"/>
			<polygon class="st25" points="424.4,268.1 427.1,269.7 428.6,271.5 429,273.3 428.3,275.1 426.3,276.7 423.3,278 419.5,278.9 
				415.1,279.3 410.4,279.2 405.8,278.6 401.7,277.6 398.2,276.2 395.6,274.5 394.2,272.7 393.9,270.8 394.9,269.1 396.9,267.5 
				399.9,266.3 401.1,266 400.9,271.3 401.1,272.4 402,273.5 403.5,274.5 405.6,275.4 408.1,276 410.8,276.3 413.6,276.4 
				416.2,276.1 418.5,275.6 420.3,274.9 421.5,273.9 422,272.8 422.2,267.2 			"/>
			<polygon class="st16" points="405.6,275.4 403.5,274.5 403.9,263.3 406,262.6 			"/>
			<polygon class="st17" points="408.1,276 405.6,275.4 406,262.6 408.6,261.9 			"/>
			<polygon class="st13" points="401.2,264.1 401.1,266 400.9,271.3 401.1,272.4 401.4,264 			"/>
			<polygon class="st26" points="422,272.8 421.5,273.9 422.1,257.8 422.6,257.6 422.2,267.2 			"/>
			<polygon class="st27" points="413.6,276.4 410.8,276.3 411.4,261 414.2,260.2 			"/>
			<polygon class="st15" points="403.5,274.5 402,273.5 402.3,263.8 403.9,263.3 			"/>
			<polygon class="st14" points="402,273.5 401.1,272.4 401.4,264 402.3,263.8 			"/>
			<polygon class="st28" points="420.3,274.9 418.5,275.6 419.1,258.7 420.9,258.1 			"/>
			<polygon class="st29" points="410.8,276.3 408.1,276 408.6,261.9 411.4,261 			"/>
			<polygon class="st30" points="416.2,276.1 413.6,276.4 414.2,260.2 416.8,259.4 			"/>
			<polygon class="st31" points="418.5,275.6 416.2,276.1 416.8,259.4 419.1,258.7 			"/>
			<polygon class="st32" points="421.5,273.9 420.3,274.9 420.9,258.1 422.1,257.8 			"/>
			<polygon class="st14" points="184.8,367.7 184.2,365.1 183.4,337.4 184,339.8 			"/>
			<polygon class="st15" points="186.8,370 184.8,367.7 184,339.8 186,342 			"/>
			<polygon class="st16" points="190,372 186.8,370 186,342 189.2,343.9 			"/>
			<polygon class="st17" points="194.2,373.5 190,372 189.2,343.9 193.5,345.3 			"/>
			<polygon class="st18" points="199.1,374.3 194.2,373.5 193.5,345.3 198.4,346.1 			"/>
			<polygon class="st19" points="204.4,374.4 199.1,374.3 198.4,346.1 203.7,346.2 			"/>
			<polygon class="st20" points="209.6,373.8 204.4,374.4 203.7,346.2 209.1,345.6 			"/>
			<polygon class="st21" points="214.5,372.6 209.6,373.8 209,345.6 214,344.5 			"/>
			<polygon class="st22" points="218.7,370.8 214.5,372.6 214,344.5 218.1,342.8 			"/>
			<polygon class="st23" points="221.8,368.6 218.7,370.8 218.1,342.8 221.3,340.6 			"/>
			<polygon class="st24" points="223.7,366.1 221.8,368.6 221.3,340.6 223.2,338.3 			"/>
			<polygon class="st13" points="224.2,363.5 223.7,366.1 223.2,338.3 223.8,335.8 			"/>
			<polygon class="st25" points="198.4,346.1 193.5,345.3 189.2,343.9 186,342 184,339.8 183.4,337.4 184.2,334.9 186.2,332.6 
				189.5,330.5 191.3,329.8 191.5,337.1 191.9,338.5 193.1,339.8 195,341 197.6,341.8 200.5,342.2 203.7,342.3 206.9,342 
				209.8,341.3 212.3,340.3 214.2,339 215.4,337.6 215.7,336.1 215.6,328.8 217.6,329.4 220.8,331.2 223,333.4 223.8,335.8 
				223.2,338.3 221.3,340.6 218.1,342.8 214,344.5 209,345.6 203.7,346.2 			"/>
			<polygon class="st30" points="206.9,342 203.7,342.3 203.3,323.9 206.4,322.9 			"/>
			<polygon class="st27" points="203.7,342.3 200.5,342.2 200.1,324.9 203.3,323.9 			"/>
			<polygon class="st29" points="200.5,342.2 197.6,341.8 197.2,325.7 200.1,324.9 			"/>
			<polygon class="st31" points="209.8,341.3 206.9,342 206.4,322.9 209.4,322 			"/>
			<polygon class="st17" points="197.6,341.8 195,341 194.7,326.5 197.2,325.7 			"/>
			<polygon class="st22" points="212.3,340.3 209.8,341.3 209.4,322 211.9,321.3 			"/>
			<polygon class="st33" points="195,341 193.1,339.8 192.8,327.1 194.7,326.5 			"/>
			<polygon class="st23" points="214.2,339 212.3,340.3 211.9,321.3 213.8,320.7 			"/>
			<polygon class="st34" points="193.1,339.8 191.9,338.5 191.6,327.4 192.8,327.1 			"/>
			<polygon class="st26" points="215.4,337.6 214.2,339 213.8,320.7 215,320.3 			"/>
			<polygon class="st35" points="191.3,327.5 191.3,329.8 191.5,337.1 191.9,338.5 191.6,327.4 			"/>
			<polygon class="st36" points="215,320.3 215.4,337.6 215.7,336.1 215.6,328.8 215.4,320.2 			"/>
			<polygon class="st16" points="44.6,250.5 42.6,249.3 41.2,227.1 43.2,228.2 			"/>
			<polygon class="st17" points="47.6,251.3 44.6,250.5 43.2,228.2 46.2,229 			"/>
			<polygon class="st18" points="51.2,251.8 47.6,251.3 46.2,229 49.8,229.5 			"/>
			<polygon class="st19" points="55.2,251.9 51.2,251.8 49.8,229.5 53.8,229.6 			"/>
			<polygon class="st20" points="59.4,251.6 55.2,251.9 53.8,229.6 58,229.2 			"/>
			<polygon class="st21" points="63.4,250.8 59.4,251.6 58,229.2 60.4,228.8 62.2,230.2 			"/>
			<polygon class="st22" points="67,249.8 63.4,250.8 62.2,230.2 66,233.1 			"/>
			<polygon class="st23" points="69.9,248.5 67,249.8 66,233.1 69.1,235.5 			"/>
			<polygon class="st24" points="71.9,247 69.9,248.5 69.1,235.5 71.3,237.2 			"/>
			<polygon class="st13" points="72.9,245.4 71.9,247 71.3,237.2 72.5,238.1 			"/>
			<polygon class="st14" points="72.9,245.4 72.8,243.9 72.5,238.1 72.5,238.1 			"/>
			<polygon class="st15" points="42.6,249.3 41.6,247.9 40.2,225.8 41.2,227.1 			"/>
			<polygon class="st25" points="43.2,228.2 41.2,227.1 40.2,225.8 40.2,224.4 41.4,222.9 43.5,221.5 46.2,220.4 46.5,225 
				47.1,225.8 48.4,226.5 50.1,227 52.3,227.2 54.7,227.3 57.2,227.1 58,227 60.4,228.8 58,229.2 53.8,229.6 49.8,229.5 46.2,229 
							"/>
			<polygon class="st21" points="57.2,227.1 58,227 57.1,226.3 			"/>
			<polygon class="st20" points="57.2,227.1 54.7,227.3 54.5,224.3 57.1,226.3 			"/>
			<polygon class="st18" points="52.3,227.2 50.1,227 49.7,220.6 52,222.4 			"/>
			<polygon class="st34" points="47.1,225.8 46.5,225 46.2,220.4 46,217.8 46.6,218.3 			"/>
			<polygon class="st19" points="54.7,227.3 52.3,227.2 52,222.4 54.5,224.3 			"/>
			<polygon class="st17" points="50.1,227 48.4,226.5 47.9,219.2 49.7,220.6 			"/>
			<polygon class="st16" points="48.4,226.5 47.1,225.8 46.6,218.3 47.9,219.2 			"/>
			<polygon class="st3" points="38.9,34.3 48.2,183 45.8,181.4 36.6,33.4 			"/>
			<polygon class="st0" points="36.6,33.4 38.9,34.3 39.5,34.3 37.2,33.3 			"/>
			<polygon class="st5" points="357.9,97 358.4,70.1 425.6,59.6 427.7,60.1 426.8,84.9 417.1,86.6 416.7,86.7 412.9,87.3 
				407.9,88.2 403.2,89 401.4,89.4 389,91.5 384.3,92.4 382.5,92.7 370.9,94.7 366.2,95.5 364.6,95.8 			"/>
			<polygon class="st5" points="200.4,287.5 196.7,125.2 208.8,123.1 209.3,148.1 209.3,149.7 209.3,151.8 209.7,171.6 210.4,203.9 
				210.7,223.7 211.8,276.2 211.9,283.9 211.9,284.3 			"/>
			<polygon class="st5" points="426.8,84.9 421.7,225.9 412.4,228.5 417.1,86.6 			"/>
			<polygon class="st3" points="417.1,86.6 412.4,228.5 411.9,228.3 411.9,227.8 416.7,86.7 			"/>
			<polygon class="st0" points="411.9,228.3 412.4,228.5 285.8,263.7 285.8,263.4 354.7,244.2 			"/>
			<polygon class="st0" points="411.9,228.3 354.7,244.2 345.5,239.6 407.1,222.8 408.5,223.4 408.4,226.2 411.9,227.8 			"/>
			<polygon class="st2" points="411.9,227.8 408.4,226.2 408.5,223.4 408.6,220.9 408.7,217.7 412.9,87.3 416.7,86.7 			"/>
			<polygon class="st2" points="408.5,223.4 407.1,222.8 315.7,182.2 315.7,179.9 317.1,180.6 330.2,186.3 331.6,187 346,193.3 
				347.5,194 362.5,200.6 364,201.3 379.7,208.2 381.3,208.9 397.6,216.1 399.3,216.8 408.6,220.9 			"/>
			<polygon class="st0" points="315.7,182.2 407.1,222.8 345.5,239.6 285.8,209.7 285.8,186.8 312.4,180.7 			"/>
			<polygon class="st2" points="315.7,182.2 312.4,180.7 285.8,168.9 285.8,166.8 286.3,167 287.6,167.6 300.4,173.2 301.7,173.8 
				314.3,179.3 315.7,179.9 			"/>
			<polygon class="st0" points="285.8,168.9 312.4,180.7 285.8,186.8 			"/>
			<polygon class="st0" points="285.8,209.7 345.5,239.6 285.8,255.9 			"/>
			<polygon class="st0" points="285.8,255.9 345.5,239.6 354.7,244.2 285.8,263.4 			"/>
			<polygon class="st2" points="331.6,187 330.2,186.3 330.2,183.4 331.2,101.7 332.7,101.4 			"/>
			<polygon class="st1" points="331.6,187 332.7,101.4 337.2,100.6 336.1,185.9 			"/>
			<polygon class="st3" points="336.1,185.9 337.2,100.6 347.5,98.8 346,190.3 			"/>
			<polygon class="st4" points="336.1,185.9 346,190.3 346,193.3 331.6,187 			"/>
			<polygon class="st2" points="317.1,180.6 315.7,179.9 316.3,104.3 317.7,104 			"/>
			<polygon class="st1" points="317.1,180.6 317.7,104 322.2,103.2 321.5,179.5 			"/>
			<polygon class="st3" points="321.5,179.5 322.2,103.2 331.2,101.7 330.2,183.4 			"/>
			<polygon class="st4" points="321.5,179.5 330.2,183.4 330.2,186.3 317.1,180.6 			"/>
			<polygon class="st2" points="316.3,104.3 315.7,179.9 314.3,179.3 314.3,176.4 314.9,104.5 			"/>
			<polygon class="st2" points="347.5,194 346,193.3 346,190.3 347.5,98.8 349.1,98.5 			"/>
			<polygon class="st1" points="347.5,194 349.1,98.5 353.7,97.7 352,192.9 			"/>
			<polygon class="st3" points="352,192.9 353.7,97.7 357.9,97 364.6,95.8 362.5,197.5 			"/>
			<polygon class="st4" points="352,192.9 362.5,197.5 362.5,200.6 347.5,194 			"/>
			<polygon class="st2" points="381.3,208.9 379.7,208.2 379.7,205 382.5,92.7 384.3,92.4 			"/>
			<polygon class="st1" points="381.3,208.9 384.3,92.4 389,91.5 385.9,207.7 			"/>
			<polygon class="st3" points="385.9,207.7 389,91.5 401.4,89.4 397.7,212.9 			"/>
			<polygon class="st4" points="385.9,207.7 397.7,212.9 397.6,216.1 381.3,208.9 			"/>
			<polygon class="st2" points="364,201.3 362.5,200.6 362.5,197.5 364.6,95.8 366.2,95.5 			"/>
			<polygon class="st1" points="364,201.3 366.2,95.5 370.9,94.7 368.6,200.1 			"/>
			<polygon class="st3" points="368.6,200.1 370.9,94.7 382.5,92.7 379.7,205 			"/>
			<polygon class="st4" points="368.6,200.1 379.7,205 379.7,208.2 364,201.3 			"/>
			<polygon class="st2" points="399.3,216.8 397.6,216.1 397.7,212.9 401.4,89.4 403.2,89 			"/>
			<polygon class="st1" points="399.3,216.8 403.2,89 407.9,88.2 403.9,215.6 			"/>
			<polygon class="st3" points="403.9,215.6 407.9,88.2 412.9,87.3 408.7,217.7 			"/>
			<polygon class="st4" points="403.9,215.6 408.7,217.7 408.6,220.9 399.3,216.8 			"/>
			<polygon class="st5" points="412.4,228.5 421.7,225.9 421.3,236 417.1,237.2 412.5,238.6 412.4,238.6 408.1,239.8 408,239.8 
				281.8,275.9 281.8,264.9 285.8,263.7 			"/>
			<polygon class="st5" points="281.2,69.7 281.2,70.9 200.7,82.9 198.2,82 			"/>
			<polygon class="st0" points="184.3,39.8 281.2,69.7 198.2,82 195.3,82.4 105.9,49.2 			"/>
			<path class="st0" d="M145.1,22.7l24.8,7.5l45.7-5.2l-26-7L145.1,22.7z M255.7,31.2l-71.4,8.6L110.5,17l66.2-6.7L255.7,31.2"/>
			<polygon class="st3" points="195.4,83.7 195.3,82.4 213.2,89 213.2,90.4 			"/>
			<polygon class="st3" points="105.9,49.2 105.9,50.4 87.4,43.5 38.7,25.3 38.6,24.3 			"/>
			<polygon class="st0" points="184.3,39.8 105.9,49.2 38.6,24.3 110.5,17 			"/>
			<polygon class="st0" points="176.7,10.3 110.5,17 38.6,24.3 36.8,23.6 39.1,23.4 174.5,9.7 			"/>
			<polygon class="st0" points="237.8,4.1 176.7,10.3 174.5,9.7 221.7,5 231,4 233.7,3.8 235.5,3.6 			"/>
			<polygon class="st0" points="195.3,82.4 198.2,82 200.7,82.9 216.1,88.6 213.2,89 			"/>
			<polygon class="st2" points="248.4,150.3 247.3,149.7 247.2,147.1 246.9,116.4 248.1,116.2 			"/>
			<polygon class="st1" points="248.4,150.3 248.1,116.2 252.3,115.5 252.6,149.4 			"/>
			<polygon class="st3" points="252.6,149.4 252.3,115.5 259.5,114.2 259.8,152.6 			"/>
			<polygon class="st4" points="252.6,149.4 259.8,152.6 259.8,155.3 248.4,150.3 			"/>
			<polygon class="st2" points="236.8,145.1 235.7,144.7 235.7,143.1 235.4,118.4 236.5,118.2 			"/>
			<polygon class="st1" points="236.8,145.1 236.5,118.2 240.7,117.5 241,144.3 			"/>
			<polygon class="st3" points="241,144.3 240.7,117.5 246.9,116.4 247.2,147.1 			"/>
			<polygon class="st4" points="241,144.3 247.2,147.1 247.3,149.7 236.8,145.1 			"/>
			<polygon class="st2" points="261,155.8 259.8,155.3 259.8,152.6 259.5,114.2 260.7,114 			"/>
			<polygon class="st1" points="261,155.8 260.7,114 265,113.2 265.2,155 			"/>
			<polygon class="st3" points="265.2,155 265,113.2 271.3,112.1 271.5,157.7 			"/>
			<polygon class="st4" points="265.2,155 271.5,157.7 271.5,160.4 261,155.8 			"/>
			<polygon class="st2" points="287.6,167.6 286.3,167 286.3,164.2 286.4,109.5 287.7,109.3 			"/>
			<polygon class="st1" points="287.6,167.6 287.7,109.3 292,108.5 291.9,166.6 			"/>
			<polygon class="st3" points="291.9,166.6 292,108.5 300.6,107 300.4,170.3 			"/>
			<polygon class="st4" points="291.9,166.6 300.4,170.3 300.4,173.2 287.6,167.6 			"/>
			<polygon class="st2" points="301.7,173.8 300.4,173.2 300.4,170.3 300.6,107 302,106.8 			"/>
			<polygon class="st1" points="301.7,173.8 302,106.8 306.4,106 306.1,172.8 			"/>
			<polygon class="st3" points="306.1,172.8 306.4,106 314.9,104.5 314.3,176.4 			"/>
			<polygon class="st4" points="306.1,172.8 314.3,176.4 314.3,179.3 301.7,173.8 			"/>
			<polygon class="st0" points="427.6,48 448.4,52.8 446.3,53.1 425.5,48.3 			"/>
			<polygon class="st3" points="27.3,21.1 27.2,20.1 36.8,23.6 36.8,24.6 			"/>
			<polygon class="st0" points="29.5,19.8 39.1,23.4 36.8,23.6 27.2,20.1 			"/>
			<polygon class="st0" points="223.5,0.8 235.5,3.6 233.7,3.8 221.7,1 			"/>
			<polygon class="st11" points="455.5,246.8 455.5,247.7 422.6,257.6 422.1,257.8 420.9,258.1 419.1,258.7 416.8,259.4 
				414.2,260.2 411.4,261 408.6,261.9 406,262.6 403.9,263.3 402.3,263.8 401.4,264 401.2,264.1 215.4,320.2 215,320.3 213.8,320.7 
				211.9,321.3 209.4,322 206.4,322.9 203.3,323.9 200.1,324.9 197.2,325.7 194.7,326.5 192.8,327.1 191.6,327.4 191.3,327.5 
				189.8,328 189.8,327 			"/>
			<polygon class="st12" points="189.8,327 189.8,328 72.5,238.1 72.5,238.1 71.3,237.2 69.1,235.5 66,233.1 62.2,230.2 60.4,228.8 
				58,227 57.1,226.3 54.5,224.3 52,222.4 49.7,220.6 47.9,219.2 46.6,218.3 46,217.8 19.1,197.2 19,196.4 			"/>
			<polygon class="st4" points="221.6,147.4 221.6,145.7 235.5,143.1 235.7,143.2 235.7,144.7 			"/>
			<polygon class="st2" points="235.2,118.5 235.5,143.1 235.7,143.2 235.4,118.4 			"/>
			<polygon class="st5" points="235.2,118.5 235.5,143.1 221.6,145.7 221.2,120.9 			"/>
			<polygon class="st4" points="285.8,166.8 286.3,167 286.3,164.2 285.8,163.9 			"/>
			<polygon class="st3" points="285.8,109.6 285.8,163.9 286.3,164.2 286.4,109.5 			"/>
			<polygon class="st0" points="170,30.1 145.1,22.7 189.7,17.9 215.7,25 			"/>
			<line class="st37" x1="195.2" y1="306.2" x2="194.8" y2="305.3"/>
			<line class="st37" x1="195.2" y1="306.2" x2="196.2" y2="307"/>
			<line class="st37" x1="210.9" y1="305.1" x2="211" y2="304.2"/>
			<line class="st37" x1="210.3" y1="306" x2="210.9" y2="305.1"/>
			<line class="st37" x1="209.1" y1="306.8" x2="210.3" y2="306"/>
			<line class="st37" x1="207.6" y1="307.5" x2="209.1" y2="306.8"/>
			<line class="st37" x1="205.7" y1="308" x2="207.6" y2="307.5"/>
			<line class="st37" x1="203.6" y1="308.3" x2="205.7" y2="308"/>
			<line class="st37" x1="201.4" y1="308.3" x2="203.6" y2="308.3"/>
			<line class="st37" x1="199.4" y1="308.1" x2="201.4" y2="308.3"/>
			<line class="st37" x1="197.6" y1="307.6" x2="199.4" y2="308.1"/>
			<line class="st37" x1="196.2" y1="307" x2="197.6" y2="307.6"/>
			<polyline class="st37" points="405.6,244.4 406.3,245.1 407.5,245.7 			"/>
			<line class="st37" x1="419.3" y1="244.9" x2="419.5" y2="244.3"/>
			<line class="st37" x1="418.6" y1="245.6" x2="419.3" y2="244.9"/>
			<line class="st37" x1="417.5" y1="246.1" x2="418.6" y2="245.6"/>
			<line class="st37" x1="416.1" y1="246.4" x2="417.5" y2="246.1"/>
			<line class="st37" x1="414.4" y1="246.6" x2="416.1" y2="246.4"/>
			<line class="st37" x1="412.5" y1="246.7" x2="414.4" y2="246.6"/>
			<line class="st37" x1="410.7" y1="246.5" x2="412.5" y2="246.7"/>
			<line class="st37" x1="409" y1="246.1" x2="410.7" y2="246.5"/>
			<line class="st37" x1="407.5" y1="245.7" x2="409" y2="246.1"/>
			<line class="st37" x1="405.6" y1="244.4" x2="405.3" y2="243.7"/>
			<line class="st37" x1="48.2" y1="199.5" x2="48.1" y2="199"/>
			<line class="st37" x1="48.2" y1="199.5" x2="48.7" y2="200"/>
			<line class="st37" x1="57.3" y1="200.3" x2="58.1" y2="200.1"/>
			<line class="st37" x1="55.7" y1="200.6" x2="57.3" y2="200.3"/>
			<line class="st37" x1="54" y1="200.8" x2="55.7" y2="200.6"/>
			<line class="st37" x1="52.4" y1="200.8" x2="54" y2="200.8"/>
			<line class="st37" x1="50.9" y1="200.6" x2="52.4" y2="200.8"/>
			<line class="st37" x1="49.6" y1="200.4" x2="50.9" y2="200.6"/>
			<line class="st37" x1="48.7" y1="200" x2="49.6" y2="200.4"/>
			<line class="st37" x1="145.1" y1="22.7" x2="170" y2="30.1"/>
			<line class="st37" x1="170" y1="30.1" x2="215.7" y2="25"/>
			<polyline class="st37" points="403.5,274.5 405.6,275.4 408.1,276 			"/>
			<line class="st37" x1="401.1" y1="272.4" x2="400.9" y2="271.3"/>
			<line class="st37" x1="421.5" y1="273.9" x2="422" y2="272.8"/>
			<line class="st37" x1="410.8" y1="276.3" x2="413.6" y2="276.4"/>
			<line class="st37" x1="402" y1="273.5" x2="403.5" y2="274.5"/>
			<line class="st37" x1="402" y1="273.5" x2="401.1" y2="272.4"/>
			<line class="st37" x1="418.5" y1="275.6" x2="420.3" y2="274.9"/>
			<line class="st37" x1="408.1" y1="276" x2="410.8" y2="276.3"/>
			<polyline class="st37" points="413.6,276.4 416.2,276.1 418.5,275.6 			"/>
			<line class="st37" x1="420.3" y1="274.9" x2="421.5" y2="273.9"/>
			<line class="st37" x1="203.7" y1="342.3" x2="206.9" y2="342"/>
			<line class="st37" x1="200.5" y1="342.2" x2="203.7" y2="342.3"/>
			<line class="st37" x1="197.6" y1="341.8" x2="200.5" y2="342.2"/>
			<line class="st37" x1="206.9" y1="342" x2="209.8" y2="341.3"/>
			<line class="st37" x1="195" y1="341" x2="197.6" y2="341.8"/>
			<line class="st37" x1="209.8" y1="341.3" x2="212.3" y2="340.3"/>
			<line class="st37" x1="193.1" y1="339.8" x2="195" y2="341"/>
			<line class="st37" x1="212.3" y1="340.3" x2="214.2" y2="339"/>
			<line class="st37" x1="193.1" y1="339.8" x2="191.9" y2="338.5"/>
			<line class="st37" x1="214.2" y1="339" x2="215.4" y2="337.6"/>
			<line class="st37" x1="191.9" y1="338.5" x2="191.5" y2="337.1"/>
			<line class="st37" x1="215.4" y1="337.6" x2="215.7" y2="336.1"/>
			<line class="st37" x1="57.2" y1="227.1" x2="58" y2="227"/>
			<line class="st37" x1="54.7" y1="227.3" x2="57.2" y2="227.1"/>
			<line class="st37" x1="50.1" y1="227" x2="52.3" y2="227.2"/>
			<line class="st37" x1="47.1" y1="225.8" x2="46.5" y2="225"/>
			<line class="st37" x1="52.3" y1="227.2" x2="54.7" y2="227.3"/>
			<line class="st37" x1="48.4" y1="226.5" x2="50.1" y2="227"/>
			<line class="st37" x1="47.1" y1="225.8" x2="48.4" y2="226.5"/>
			<line class="st37" x1="219.8" y1="147.7" x2="219.4" y2="121.3"/>
			<line class="st37" x1="445.8" y1="64.5" x2="446.2" y2="54.3"/>
			<line class="st37" x1="213.4" y1="102.3" x2="213.2" y2="90.4"/>
			<line class="st37" x1="147.4" y1="76.8" x2="106.1" y2="60.6"/>
			<line class="st37" x1="106.1" y1="60.7" x2="70.3" y2="46.6"/>
			<line class="st37" x1="201.7" y1="306.9" x2="201.5" y2="298.9"/>
			<line class="st37" x1="412.3" y1="245.6" x2="412.5" y2="238.6"/>
			<line class="st37" x1="53" y1="200" x2="52.6" y2="194.9"/>
			<line class="st37" x1="200" y1="299.3" x2="199.7" y2="287.7"/>
			<line class="st37" x1="161.2" y1="275.8" x2="161.1" y2="271.8"/>
			<line class="st37" x1="191.4" y1="297.4" x2="191.3" y2="293.2"/>
			<line class="st37" x1="133.8" y1="256.1" x2="133.7" y2="252.3"/>
			<line class="st37" x1="108.8" y1="238.2" x2="108.6" y2="234.5"/>
			<line class="st37" x1="85.9" y1="221.8" x2="85.7" y2="218.3"/>
			<line class="st37" x1="64.8" y1="206.8" x2="64.6" y2="203.3"/>
			<polyline class="st37" points="393.9,270.8 394.2,272.7 395.6,274.5 398.2,276.2 401.7,277.6 405.8,278.6 410.4,279.2 
				415.1,279.3 419.5,278.9 423.3,278 426.3,276.7 428.3,275.1 429,273.3 			"/>
			<polyline class="st37" points="193.5,345.3 198.4,346.1 203.7,346.2 209.1,345.6 214,344.5 218.1,342.8 221.3,340.6 223.2,338.3 
				223.8,335.8 			"/>
			<polyline class="st37" points="183.4,337.4 184,339.8 186,342 189.2,343.9 193.5,345.3 			"/>
			<polyline class="st37" points="41.2,227.1 43.2,228.2 46.2,229 49.8,229.5 53.8,229.6 58,229.2 60.4,228.8 			"/>
			<line class="st37" x1="40.2" y1="225.8" x2="41.2" y2="227.1"/>
			<polyline class="st37" points="199.7,287.7 195.3,95.6 147.4,76.8 			"/>
			<line class="st37" x1="196" y1="95.5" x2="195.3" y2="95.6"/>
			<line class="st37" x1="331.6" y1="187" x2="332.7" y2="101.4"/>
			<line class="st37" x1="317.1" y1="180.6" x2="317.7" y2="104"/>
			<line class="st37" x1="347.5" y1="194" x2="349.1" y2="98.5"/>
			<line class="st37" x1="381.3" y1="208.9" x2="384.3" y2="92.4"/>
			<line class="st37" x1="364" y1="201.3" x2="366.2" y2="95.5"/>
			<line class="st37" x1="399.3" y1="216.8" x2="403.2" y2="89"/>
			<line class="st37" x1="70.3" y1="46.6" x2="38.9" y2="34.3"/>
			<line class="st37" x1="358.4" y1="70.1" x2="216.1" y2="92.3"/>
			<line class="st37" x1="425.6" y1="59.6" x2="358.4" y2="70.1"/>
			<line class="st37" x1="275.7" y1="111.4" x2="276.1" y2="266.4"/>
			<line class="st37" x1="417.1" y1="86.6" x2="412.4" y2="228.5"/>
			<line class="st37" x1="358.1" y1="58.3" x2="281.2" y2="69.7"/>
			<line class="st37" x1="195.3" y1="82.4" x2="105.9" y2="49.2"/>
			<line class="st37" x1="105.9" y1="49.2" x2="38.6" y2="24.3"/>
			<line class="st37" x1="213.2" y1="89" x2="213.2" y2="90.4"/>
			<line class="st37" x1="213.2" y1="89" x2="195.3" y2="82.4"/>
			<line class="st37" x1="216.1" y1="88.6" x2="213.2" y2="89"/>
			<line class="st37" x1="248.4" y1="150.3" x2="248.1" y2="116.2"/>
			<line class="st37" x1="236.8" y1="145.1" x2="236.5" y2="118.2"/>
			<line class="st37" x1="261" y1="155.8" x2="260.7" y2="114"/>
			<line class="st37" x1="287.6" y1="167.6" x2="287.7" y2="109.3"/>
			<line class="st37" x1="301.7" y1="173.8" x2="302" y2="106.8"/>
			<line class="st37" x1="446.3" y1="53.1" x2="446.2" y2="54.3"/>
			<line class="st37" x1="446.3" y1="53.1" x2="425.5" y2="48.3"/>
			<line class="st37" x1="448.4" y1="52.8" x2="446.3" y2="53.1"/>
			<line class="st37" x1="36.8" y1="23.6" x2="27.2" y2="20.1"/>
			<line class="st37" x1="233.7" y1="3.8" x2="221.7" y2="1"/>
			<line class="st37" x1="36.8" y1="23.6" x2="38.6" y2="24.3"/>
			<line class="st37" x1="36.6" y1="33.4" x2="38.9" y2="34.3"/>
			<line class="st37" x1="455.5" y1="246.8" x2="189.8" y2="327"/>
			<polyline class="st37" points="189.8,328 189.8,327 19,196.4 			"/>
			<line class="st37" x1="425.5" y1="48.3" x2="358.1" y2="58.3"/>
			<line class="st37" x1="209.3" y1="149.7" x2="219.8" y2="147.7"/>
			<line class="st37" x1="281.2" y1="69.7" x2="198.2" y2="82"/>
			<line class="st37" x1="271.5" y1="160.4" x2="261" y2="155.8"/>
			<line class="st37" x1="221.6" y1="147.4" x2="235.7" y2="144.7"/>
			<line class="st37" x1="330.2" y1="186.3" x2="317.1" y2="180.6"/>
			<line class="st37" x1="412.4" y1="228.5" x2="285.8" y2="263.7"/>
			<line class="st37" x1="276.1" y1="266.4" x2="211.9" y2="284.3"/>
			<line class="st37" x1="286.3" y1="167" x2="285.8" y2="166.8"/>
			<line class="st37" x1="346" y1="193.3" x2="331.6" y2="187"/>
			<line class="st37" x1="314.3" y1="179.3" x2="301.7" y2="173.8"/>
			<line class="st37" x1="300.4" y1="173.2" x2="287.6" y2="167.6"/>
			<line class="st37" x1="259.8" y1="155.3" x2="248.4" y2="150.3"/>
			<line class="st37" x1="362.5" y1="200.6" x2="347.5" y2="194"/>
			<line class="st37" x1="247.3" y1="149.7" x2="236.8" y2="145.1"/>
			<line class="st37" x1="408.6" y1="220.9" x2="399.3" y2="216.8"/>
			<line class="st37" x1="379.7" y1="208.2" x2="364" y2="201.3"/>
			<line class="st37" x1="397.6" y1="216.1" x2="381.3" y2="208.9"/>
			<polyline class="st38" points="209.3,151.8 235.7,146.7 271.5,162.6 			"/>
			<line class="st38" x1="285.8" y1="168.9" x2="312.4" y2="180.7"/>
			<line class="st38" x1="425.5" y1="49.4" x2="425.5" y2="48.3"/>
			<line class="st38" x1="315.7" y1="182.2" x2="407.1" y2="222.8"/>
			<line class="st38" x1="312.4" y1="180.7" x2="315.7" y2="182.2"/>
			<line class="st38" x1="408.4" y1="226.2" x2="411.9" y2="227.8"/>
			<line class="st38" x1="407.1" y1="222.8" x2="408.5" y2="223.4"/>
			<line class="st38" x1="271.9" y1="263.9" x2="275.7" y2="266.2"/>
			<line class="st38" x1="235.5" y1="143.1" x2="235.7" y2="143.1"/>
			<line class="st38" x1="235.5" y1="143.1" x2="235.2" y2="118.5"/>
			<line class="st38" x1="235.7" y1="146.7" x2="235.7" y2="144.7"/>
			<line class="st38" x1="209.3" y1="148.1" x2="217.2" y2="146.5"/>
			<line class="st38" x1="221.6" y1="145.7" x2="235.5" y2="143.1"/>
			<polyline class="st38" points="217.2,146.5 219.8,147.7 221.6,147.4 			"/>
			<line class="st38" x1="217.2" y1="146.5" x2="216.8" y2="121.7"/>
			<line class="st38" x1="36.8" y1="24.6" x2="38.7" y2="25.3"/>
			<line class="st38" x1="39.5" y1="34.3" x2="70.9" y2="46.6"/>
			<line class="st38" x1="281.2" y1="70.9" x2="358.1" y2="59.5"/>
			<line class="st38" x1="425.1" y1="59.4" x2="425.5" y2="49.4"/>
			<line class="st38" x1="425.1" y1="59.4" x2="425.6" y2="59.6"/>
			<line class="st38" x1="105.9" y1="50.4" x2="195.4" y2="83.7"/>
			<line class="st38" x1="106.8" y1="60.6" x2="148.1" y2="76.7"/>
			<line class="st38" x1="321.5" y1="179.5" x2="330.2" y2="183.4"/>
			<line class="st38" x1="336.1" y1="185.9" x2="346" y2="190.3"/>
			<line class="st38" x1="352" y1="192.9" x2="362.5" y2="197.5"/>
			<line class="st38" x1="352" y1="192.9" x2="353.7" y2="97.7"/>
			<line class="st38" x1="336.1" y1="185.9" x2="337.2" y2="100.6"/>
			<line class="st38" x1="321.5" y1="179.5" x2="322.2" y2="103.2"/>
			<line class="st38" x1="403.9" y1="215.6" x2="407.9" y2="88.2"/>
			<line class="st38" x1="368.6" y1="200.1" x2="379.7" y2="205"/>
			<line class="st38" x1="385.9" y1="207.7" x2="397.7" y2="212.9"/>
			<line class="st38" x1="403.9" y1="215.6" x2="408.7" y2="217.7"/>
			<line class="st38" x1="385.9" y1="207.7" x2="389" y2="91.5"/>
			<line class="st38" x1="368.6" y1="200.1" x2="370.9" y2="94.7"/>
			<line class="st38" x1="241" y1="144.3" x2="240.7" y2="117.5"/>
			<line class="st38" x1="241" y1="144.3" x2="247.2" y2="147.1"/>
			<line class="st38" x1="252.6" y1="149.4" x2="259.8" y2="152.6"/>
			<line class="st38" x1="265.2" y1="155" x2="271.5" y2="157.7"/>
			<line class="st38" x1="252.6" y1="149.4" x2="252.3" y2="115.5"/>
			<line class="st38" x1="265.2" y1="155" x2="265" y2="113.2"/>
			<line class="st38" x1="285.8" y1="163.9" x2="286.3" y2="164.2"/>
			<line class="st38" x1="291.9" y1="166.6" x2="300.4" y2="170.3"/>
			<line class="st38" x1="306.1" y1="172.8" x2="314.3" y2="176.4"/>
			<line class="st38" x1="291.9" y1="166.6" x2="292" y2="108.5"/>
			<line class="st38" x1="306.1" y1="172.8" x2="306.4" y2="106"/>
			<line class="st38" x1="201.7" y1="306.9" x2="207.9" y2="305.2"/>
			<line class="st38" x1="197.9" y1="304.2" x2="198" y2="304.3"/>
			<line class="st38" x1="201.6" y1="306.9" x2="201.7" y2="306.9"/>
			<line class="st38" x1="198" y1="304.3" x2="201.6" y2="306.9"/>
			<polyline class="st38" points="194.9,304.3 195.6,303.4 196.8,302.6 197.9,302.1 			"/>
			<polyline class="st38" points="207.8,301.7 208.2,301.8 209.6,302.5 210.6,303.3 			"/>
			<line class="st38" x1="211" y1="304.2" x2="210.6" y2="303.3"/>
			<line class="st38" x1="194.8" y1="305.3" x2="194.9" y2="304.3"/>
			<line class="st38" x1="412.3" y1="245.6" x2="416.9" y2="244.3"/>
			<line class="st38" x1="407.9" y1="243.6" x2="408" y2="243.7"/>
			<line class="st38" x1="412.1" y1="245.6" x2="412.3" y2="245.6"/>
			<line class="st38" x1="408" y1="243.7" x2="412.1" y2="245.6"/>
			<line class="st38" x1="419.5" y1="244.3" x2="419.2" y2="243.6"/>
			<polyline class="st38" points="405.3,243.7 405.6,243 406.3,242.4 407.4,241.9 408,241.7 			"/>
			<polyline class="st38" points="417,242.2 417.3,242.3 418.5,242.9 419.2,243.6 			"/>
			<line class="st38" x1="53" y1="200" x2="58.1" y2="198.9"/>
			<line class="st38" x1="50.7" y1="198.4" x2="50.8" y2="198.4"/>
			<line class="st38" x1="52.9" y1="199.9" x2="53" y2="200"/>
			<line class="st38" x1="50.8" y1="198.4" x2="52.9" y2="199.9"/>
			<polyline class="st38" points="48.4,198.4 49.1,197.9 50.2,197.4 50.7,197.3 			"/>
			<line class="st38" x1="48.1" y1="199" x2="48.4" y2="198.4"/>
			<line class="st38" x1="189.7" y1="17.9" x2="215.7" y2="25"/>
			<line class="st38" x1="145.1" y1="22.7" x2="189.7" y2="17.9"/>
			<line class="st38" x1="331.6" y1="187" x2="336.1" y2="185.9"/>
			<line class="st38" x1="317.1" y1="180.6" x2="321.5" y2="179.5"/>
			<line class="st38" x1="347.5" y1="194" x2="352" y2="192.9"/>
			<line class="st38" x1="381.3" y1="208.9" x2="385.9" y2="207.7"/>
			<line class="st38" x1="364" y1="201.3" x2="368.6" y2="200.1"/>
			<line class="st38" x1="399.3" y1="216.8" x2="403.9" y2="215.6"/>
			<line class="st38" x1="275.7" y1="111.4" x2="285.8" y2="109.6"/>
			<line class="st38" x1="275.7" y1="266.2" x2="276.1" y2="266.4"/>
			<line class="st38" x1="411.9" y1="228.3" x2="412.4" y2="228.5"/>
			<line class="st38" x1="248.4" y1="150.3" x2="252.6" y2="149.4"/>
			<line class="st38" x1="236.8" y1="145.1" x2="241" y2="144.3"/>
			<line class="st38" x1="261" y1="155.8" x2="265.2" y2="155"/>
			<line class="st38" x1="287.6" y1="167.6" x2="291.9" y2="166.6"/>
			<line class="st38" x1="301.7" y1="173.8" x2="306.1" y2="172.8"/>
			<line class="st38" x1="254.3" y1="193.9" x2="209.7" y2="171.6"/>
			<line class="st38" x1="312.4" y1="180.7" x2="285.8" y2="186.8"/>
			<polyline class="st38" points="271.6,190 254.3,193.9 210.4,203.9 			"/>
			<polyline class="st38" points="425.5,49.4 358.1,59.5 358.1,58.3 			"/>
			<line class="st38" x1="321" y1="23.3" x2="427.6" y2="48"/>
			<polyline class="st38" points="358.1,58.3 255.7,31.2 321,23.3 			"/>
			<line class="st38" x1="345.5" y1="239.6" x2="285.8" y2="209.7"/>
			<line class="st38" x1="271.6" y1="202.6" x2="254.3" y2="193.9"/>
			<line class="st38" x1="407.1" y1="222.8" x2="345.5" y2="239.6"/>
			<line class="st38" x1="271.8" y1="259.1" x2="210.7" y2="223.7"/>
			<line class="st38" x1="345.5" y1="239.6" x2="285.8" y2="255.9"/>
			<line class="st38" x1="271.9" y1="259.7" x2="211.8" y2="276.2"/>
			<line class="st38" x1="354.7" y1="244.2" x2="345.5" y2="239.6"/>
			<polyline class="st38" points="411.9,228.3 354.7,244.2 285.8,263.4 			"/>
			<line class="st38" x1="275.7" y1="266.2" x2="211.9" y2="283.9"/>
			<line class="st38" x1="275.3" y1="111.4" x2="275.7" y2="266.2"/>
			<line class="st38" x1="27.8" y1="29.7" x2="27.3" y2="21.1"/>
			<line class="st38" x1="87.9" y1="53.2" x2="87.4" y2="43.5"/>
			<line class="st38" x1="231" y1="4" x2="221.7" y2="1.9"/>
			<line class="st38" x1="221.7" y1="5" x2="221.7" y2="1.9"/>
			<polyline class="st38" points="448.3,54 446.2,54.3 425.5,49.4 			"/>
			<line class="st38" x1="447.9" y1="64.2" x2="448.3" y2="54"/>
			<line class="st38" x1="447.9" y1="64.2" x2="445.8" y2="64.5"/>
			<line class="st38" x1="216.1" y1="89.9" x2="213.2" y2="90.4"/>
			<line class="st38" x1="216.3" y1="101.8" x2="213.4" y2="102.3"/>
			<polyline class="st38" points="216.1,92.1 357.9,69.9 425.1,59.4 			"/>
			<line class="st38" x1="153.7" y1="255.9" x2="147.4" y2="76.8"/>
			<line class="st38" x1="106.1" y1="60.7" x2="113.7" y2="228.3"/>
			<line class="st38" x1="106.8" y1="60.6" x2="106.1" y2="60.7"/>
			<line class="st38" x1="113.7" y1="228.3" x2="153.7" y2="255.9"/>
			<line class="st38" x1="148.1" y1="76.7" x2="147.4" y2="76.8"/>
			<line class="st38" x1="70.3" y1="46.6" x2="78.9" y2="204.2"/>
			<line class="st38" x1="70.9" y1="46.6" x2="70.3" y2="46.6"/>
			<line class="st38" x1="78.9" y1="204.2" x2="113.7" y2="228.3"/>
			<line class="st38" x1="422.2" y1="225.7" x2="421.7" y2="225.9"/>
			<line class="st38" x1="422.2" y1="225.7" x2="428.2" y2="60.2"/>
			<line class="st38" x1="198" y1="304.3" x2="197.9" y2="297.8"/>
			<line class="st38" x1="201.6" y1="306.9" x2="201.4" y2="298.9"/>
			<line class="st38" x1="408" y1="243.7" x2="408.1" y2="239.8"/>
			<line class="st38" x1="412.1" y1="245.6" x2="412.4" y2="238.6"/>
			<line class="st38" x1="50.8" y1="198.4" x2="50.5" y2="193.3"/>
			<line class="st38" x1="52.9" y1="199.9" x2="52.6" y2="194.8"/>
			<line class="st38" x1="114.2" y1="238.5" x2="113.7" y2="228.3"/>
			<line class="st38" x1="48.2" y1="183" x2="48.7" y2="192.1"/>
			<polyline class="st38" points="200.7,299.1 200.4,287.5 199.7,287.7 			"/>
			<line class="st38" x1="200.7" y1="299.1" x2="200" y2="299.3"/>
			<line class="st38" x1="152" y1="269.1" x2="151.8" y2="265.2"/>
			<line class="st38" x1="181.2" y1="290" x2="181.1" y2="285.9"/>
			<line class="st38" x1="125.4" y1="250.1" x2="125.2" y2="246.3"/>
			<line class="st38" x1="101.1" y1="232.7" x2="100.9" y2="229.1"/>
			<line class="st38" x1="78.8" y1="216.8" x2="78.6" y2="213.3"/>
			<polyline class="st38" points="393.2,295.3 393.5,297.2 394.9,299.2 397.4,300.9 400.9,302.4 405,303.5 409.6,304.1 414.2,304.2 
				418.6,303.8 422.4,302.8 425.4,301.5 427.3,299.8 428.1,297.9 			"/>
			<polyline class="st38" points="427.1,269.7 424.4,268.1 422.2,267.2 			"/>
			<polyline class="st38" points="401.1,266 399.9,266.3 396.9,267.5 394.9,269.1 393.9,270.8 			"/>
			<polyline class="st38" points="429,273.3 428.6,271.5 427.1,269.7 			"/>
			<line class="st38" x1="393.2" y1="295.3" x2="393.9" y2="270.8"/>
			<line class="st38" x1="428.1" y1="297.9" x2="429" y2="273.3"/>
			<polyline class="st38" points="184.2,365.1 184.8,367.7 186.8,370 190,372 194.2,373.5 199.1,374.3 204.4,374.4 209.6,373.8 
				214.5,372.6 218.7,370.8 221.8,368.6 223.7,366.1 224.2,363.5 			"/>
			<polyline class="st38" points="223.8,335.8 223,333.4 220.8,331.2 217.6,329.5 215.6,328.8 			"/>
			<polyline class="st38" points="191.3,329.8 189.5,330.5 186.2,332.6 184.2,334.9 183.4,337.4 			"/>
			<line class="st38" x1="224.2" y1="363.5" x2="223.8" y2="335.8"/>
			<line class="st38" x1="184.2" y1="365.1" x2="183.4" y2="337.4"/>
			<polyline class="st38" points="42.6,249.3 44.6,250.5 47.6,251.3 51.2,251.8 55.2,251.9 59.4,251.6 63.4,250.8 67,249.8 
				69.9,248.5 71.9,247 72.9,245.4 72.8,243.9 			"/>
			<line class="st38" x1="41.6" y1="247.9" x2="42.6" y2="249.3"/>
			<polyline class="st38" points="46.2,220.4 43.5,221.5 41.4,222.9 40.2,224.4 40.2,225.8 			"/>
			<line class="st38" x1="72.8" y1="243.9" x2="72.5" y2="238.1"/>
			<line class="st38" x1="41.6" y1="247.9" x2="40.2" y2="225.8"/>
			<line class="st38" x1="153.7" y1="255.9" x2="199.7" y2="287.7"/>
			<line class="st38" x1="331.6" y1="187" x2="330.2" y2="186.3"/>
			<line class="st38" x1="315.7" y1="179.9" x2="316.3" y2="104.3"/>
			<line class="st38" x1="317.1" y1="180.6" x2="315.7" y2="179.9"/>
			<line class="st38" x1="347.5" y1="194" x2="346" y2="193.3"/>
			<line class="st38" x1="381.3" y1="208.9" x2="379.7" y2="208.2"/>
			<line class="st38" x1="364" y1="201.3" x2="362.5" y2="200.6"/>
			<line class="st38" x1="399.3" y1="216.8" x2="397.6" y2="216.1"/>
			<line class="st38" x1="315.7" y1="182.2" x2="315.7" y2="179.9"/>
			<line class="st38" x1="38.9" y1="34.3" x2="48.2" y2="183"/>
			<line class="st38" x1="39.5" y1="34.3" x2="38.9" y2="34.3"/>
			<line class="st38" x1="48.2" y1="183" x2="78.9" y2="204.2"/>
			<line class="st38" x1="357.9" y1="69.9" x2="358.4" y2="70.1"/>
			<line class="st38" x1="357.9" y1="97" x2="358.4" y2="70.1"/>
			<line class="st38" x1="196" y1="95.5" x2="196.7" y2="125.2"/>
			<line class="st38" x1="426.8" y1="84.9" x2="427.7" y2="60.1"/>
			<line class="st38" x1="196.7" y1="125.2" x2="200.4" y2="287.5"/>
			<line class="st38" x1="208.8" y1="123.1" x2="196.7" y2="125.2"/>
			<line class="st38" x1="200.4" y1="287.5" x2="211.9" y2="284.3"/>
			<line class="st38" x1="421.7" y1="225.9" x2="426.8" y2="84.9"/>
			<line class="st38" x1="426.8" y1="84.9" x2="417.1" y2="86.6"/>
			<line class="st38" x1="412.4" y1="228.5" x2="421.7" y2="225.9"/>
			<polyline class="st38" points="281.2,70.9 281.2,69.7 184.3,39.8 255.7,31.2 			"/>
			<line class="st38" x1="281.2" y1="70.9" x2="200.7" y2="82.9"/>
			<line class="st38" x1="195.4" y1="83.7" x2="195.3" y2="82.4"/>
			<polyline class="st38" points="105.9,50.4 105.9,49.2 184.3,39.8 			"/>
			<line class="st38" x1="176.7" y1="10.3" x2="255.7" y2="31.2"/>
			<polyline class="st38" points="184.3,39.8 110.5,17 176.7,10.3 			"/>
			<polyline class="st38" points="38.7,25.3 38.6,24.3 110.5,17 			"/>
			<line class="st38" x1="237.8" y1="4.1" x2="321" y2="23.3"/>
			<line class="st38" x1="176.7" y1="10.3" x2="237.8" y2="4.1"/>
			<line class="st38" x1="198.2" y1="82" x2="195.3" y2="82.4"/>
			<line class="st38" x1="213.2" y1="90.4" x2="195.4" y2="83.7"/>
			<line class="st38" x1="216.1" y1="89.9" x2="216.1" y2="88.6"/>
			<polyline class="st38" points="421.7,225.9 421.3,236 421.8,235.9 			"/>
			<line class="st38" x1="281.8" y1="264.9" x2="281.8" y2="275.9"/>
			<line class="st38" x1="248.4" y1="150.3" x2="247.3" y2="149.7"/>
			<line class="st38" x1="236.8" y1="145.1" x2="235.7" y2="144.7"/>
			<line class="st38" x1="261" y1="155.8" x2="259.8" y2="155.3"/>
			<line class="st38" x1="287.6" y1="167.6" x2="286.3" y2="167"/>
			<line class="st38" x1="315.7" y1="179.9" x2="314.3" y2="179.3"/>
			<line class="st38" x1="301.7" y1="173.8" x2="300.4" y2="173.2"/>
			<polyline class="st38" points="448.4,52.8 427.6,48 425.5,48.3 			"/>
			<line class="st38" x1="448.3" y1="54" x2="448.4" y2="52.8"/>
			<line class="st38" x1="27.2" y1="20.1" x2="27.3" y2="21.1"/>
			<polyline class="st38" points="39.1,23.4 29.5,19.8 27.2,20.1 			"/>
			<line class="st38" x1="36.8" y1="24.6" x2="27.3" y2="21.1"/>
			<line class="st38" x1="36.8" y1="23.6" x2="36.8" y2="24.6"/>
			<line class="st38" x1="39.1" y1="23.4" x2="36.8" y2="23.6"/>
			<line class="st38" x1="221.7" y1="1" x2="221.7" y2="1.9"/>
			<polyline class="st38" points="235.5,3.6 223.5,0.8 221.7,1 			"/>
			<line class="st38" x1="235.5" y1="3.6" x2="233.7" y2="3.8"/>
			<line class="st38" x1="174.5" y1="9.7" x2="176.7" y2="10.3"/>
			<line class="st38" x1="235.5" y1="3.6" x2="237.8" y2="4.1"/>
			<line class="st38" x1="45.8" y1="181.4" x2="36.6" y2="33.4"/>
			<line class="st38" x1="48.2" y1="183" x2="45.8" y2="181.4"/>
			<line class="st38" x1="37.2" y1="33.3" x2="36.6" y2="33.4"/>
			<line class="st38" x1="45.8" y1="181.4" x2="46.4" y2="190.4"/>
			<line class="st38" x1="455.5" y1="247.7" x2="455.6" y2="246.8"/>
			<line class="st38" x1="19.1" y1="197.2" x2="19" y2="196.4"/>
			<line class="st38" x1="421.9" y1="231.8" x2="455.5" y2="246.8"/>
			<line class="st38" x1="19" y1="196.4" x2="47" y2="190.9"/>
			<polyline class="st38" points="221.6,147.4 221.6,145.7 221.2,120.9 			"/>
			<line class="st38" x1="408.4" y1="226.2" x2="408.5" y2="223.4"/>
			<line class="st38" x1="37.2" y1="33.3" x2="27.8" y2="29.7"/>
			<line class="st38" x1="105.9" y1="50.4" x2="87.4" y2="43.5"/>
			<line class="st38" x1="216.1" y1="92.1" x2="216.1" y2="89.9"/>
			<line class="st38" x1="87.9" y1="53.2" x2="70.9" y2="46.6"/>
			<polyline class="st38" points="207.9,305.2 207.8,301.7 207.7,297.1 			"/>
			<polyline class="st38" points="197.9,304.2 197.9,302.1 197.8,297.8 			"/>
			<polyline class="st38" points="416.9,244.3 417,242.2 417.1,237.2 			"/>
			<polyline class="st38" points="407.9,243.6 408,241.7 408,239.8 			"/>
			<polyline class="st38" points="50.7,198.4 50.7,197.3 50.4,193.3 			"/>
			<line class="st38" x1="48.7" y1="192.1" x2="50.4" y2="193.3"/>
			<line class="st38" x1="114.2" y1="238.5" x2="125.2" y2="246.3"/>
			<line class="st38" x1="58.3" y1="202.1" x2="58.1" y2="200.1"/>
			<polyline class="st38" points="191.3,327.5 191.3,329.8 191.5,337.1 			"/>
			<polyline class="st38" points="215.4,320.2 215.6,328.8 215.7,336.1 			"/>
			<line class="st38" x1="19.1" y1="197.2" x2="46" y2="217.8"/>
			<line class="st38" x1="189.8" y1="328" x2="191.3" y2="327.5"/>
			<polyline class="st38" points="422.6,257.6 422.2,267.2 422,272.8 			"/>
			<polyline class="st38" points="401.2,264.1 401.1,266 400.9,271.3 			"/>
			<polyline class="st38" points="46,217.8 46.2,220.4 46.5,225 			"/>
			<polyline class="st38" points="330.2,186.3 330.2,183.4 331.2,101.7 			"/>
			<polyline class="st38" points="346,193.3 346,190.3 347.5,98.8 			"/>
			<polyline class="st38" points="379.7,208.2 379.7,205 382.5,92.7 			"/>
			<polyline class="st38" points="362.5,200.6 362.5,197.5 364.6,95.8 			"/>
			<polyline class="st38" points="397.6,216.1 397.7,212.9 401.4,89.4 			"/>
			<polyline class="st38" points="276.1,266.4 281.8,264.9 285.8,263.7 			"/>
			<polyline class="st38" points="416.7,86.7 411.9,227.8 411.9,228.3 			"/>
			<line class="st38" x1="87.4" y1="43.5" x2="38.7" y2="25.3"/>
			<polyline class="st38" points="216.1,88.6 200.7,82.9 198.2,82 			"/>
			<polyline class="st38" points="422.2,225.7 421.9,231.8 421.8,235.9 			"/>
			<line class="st38" x1="281.8" y1="275.9" x2="408" y2="239.8"/>
			<polyline class="st38" points="247.3,149.7 247.2,147.1 246.9,116.4 			"/>
			<polyline class="st38" points="235.7,144.7 235.7,143.2 235.4,118.4 			"/>
			<polyline class="st38" points="259.8,155.3 259.8,152.6 259.5,114.2 			"/>
			<polyline class="st38" points="286.3,167 286.3,164.2 286.4,109.5 			"/>
			<polyline class="st38" points="314.3,179.3 314.3,176.4 314.9,104.5 			"/>
			<polyline class="st38" points="300.4,173.2 300.4,170.3 300.6,107 			"/>
			<line class="st38" x1="39.1" y1="23.4" x2="174.5" y2="9.7"/>
			<polyline class="st38" points="46.4,190.4 47,190.9 48.7,192.1 			"/>
			<line class="st38" x1="408.7" y1="217.7" x2="412.9" y2="87.3"/>
			<line class="st38" x1="271.6" y1="190" x2="271.5" y2="162.6"/>
			<line class="st38" x1="271.5" y1="157.7" x2="271.3" y2="112.1"/>
			<line class="st38" x1="427.7" y1="60.1" x2="425.6" y2="59.6"/>
			<polyline class="st38" points="216.3,101.8 216.1,92.3 216.1,92.1 			"/>
			<line class="st38" x1="50.4" y1="193.3" x2="50.5" y2="193.3"/>
			<line class="st38" x1="125.2" y1="246.3" x2="133.7" y2="252.3"/>
			<polyline class="st38" points="58.1,200.1 58.1,198.9 58.1,198.7 			"/>
			<line class="st38" x1="46" y1="217.8" x2="46.6" y2="218.3"/>
			<line class="st38" x1="191.3" y1="327.5" x2="191.6" y2="327.4"/>
			<line class="st38" x1="407.9" y1="88.2" x2="412.9" y2="87.3"/>
			<line class="st38" x1="209.7" y1="171.6" x2="209.3" y2="151.8"/>
			<line class="st38" x1="209.3" y1="148.1" x2="208.8" y2="123.1"/>
			<line class="st38" x1="285.8" y1="186.8" x2="285.8" y2="168.9"/>
			<line class="st38" x1="285.8" y1="163.9" x2="285.8" y2="109.6"/>
			<line class="st38" x1="408" y1="239.8" x2="408.1" y2="239.8"/>
			<polyline class="st38" points="200.7,299.1 201.4,298.9 201.5,298.9 207.7,297.1 281.8,275.9 			"/>
			<polyline class="st38" points="174.5,9.7 221.7,5 231,4 233.7,3.8 			"/>
			<polyline class="st38" points="408.5,223.4 408.6,220.9 408.7,217.7 			"/>
			<line class="st38" x1="271.6" y1="202.6" x2="271.6" y2="190"/>
			<polyline class="st38" points="271.5,162.6 271.5,160.4 271.5,157.7 			"/>
			<polyline class="st38" points="445.8,64.5 428.2,60.2 427.7,60.1 			"/>
			<line class="st38" x1="213.4" y1="102.3" x2="196" y2="95.5"/>
			<line class="st38" x1="46.6" y1="218.3" x2="47.9" y2="219.2"/>
			<line class="st38" x1="191.6" y1="327.4" x2="192.8" y2="327.1"/>
			<line class="st38" x1="208.8" y1="123.1" x2="216.8" y2="121.7"/>
			<line class="st38" x1="235.2" y1="118.5" x2="235.4" y2="118.4"/>
			<line class="st38" x1="403.2" y1="89" x2="407.9" y2="88.2"/>
			<line class="st38" x1="412.9" y1="87.3" x2="416.7" y2="86.7"/>
			<line class="st38" x1="210.4" y1="203.9" x2="209.7" y2="171.6"/>
			<polyline class="st38" points="209.3,151.8 209.3,149.7 209.3,148.1 			"/>
			<line class="st38" x1="285.8" y1="209.7" x2="285.8" y2="186.8"/>
			<polyline class="st38" points="285.8,168.9 285.8,166.8 285.8,163.9 			"/>
			<line class="st38" x1="271.8" y1="259.1" x2="271.6" y2="202.6"/>
			<polyline class="st38" points="50.5,193.3 52.6,194.8 52.6,194.9 			"/>
			<polyline class="st38" points="133.7,252.3 137.7,255.2 151.8,265.2 161.1,271.8 			"/>
			<line class="st38" x1="47.9" y1="219.2" x2="49.7" y2="220.6"/>
			<line class="st38" x1="192.8" y1="327.1" x2="194.7" y2="326.5"/>
			<line class="st38" x1="216.8" y1="121.7" x2="219.4" y2="121.3"/>
			<line class="st38" x1="366.2" y1="95.5" x2="370.9" y2="94.7"/>
			<polyline class="st38" points="384.3,92.4 389,91.5 401.4,89.4 403.2,89 			"/>
			<line class="st38" x1="416.7" y1="86.7" x2="417.1" y2="86.6"/>
			<line class="st38" x1="210.7" y1="223.7" x2="210.4" y2="203.9"/>
			<line class="st38" x1="285.8" y1="255.9" x2="285.8" y2="209.7"/>
			<polyline class="st38" points="408.1,239.8 412.4,238.6 412.5,238.6 417.1,237.2 421.3,236 			"/>
			<polyline class="st38" points="271.9,263.9 271.9,259.7 271.8,259.1 			"/>
			<polyline class="st38" points="52.6,194.9 58.1,198.7 64.6,203.3 			"/>
			<line class="st38" x1="49.7" y1="220.6" x2="52" y2="222.4"/>
			<line class="st38" x1="194.7" y1="326.5" x2="197.2" y2="325.7"/>
			<polyline class="st38" points="219.4,121.3 221.2,120.9 235.2,118.5 			"/>
			<polyline class="st38" points="235.4,118.4 236.5,118.2 240.7,117.5 			"/>
			<polyline class="st38" points="357.9,97 364.6,95.8 366.2,95.5 			"/>
			<polyline class="st38" points="370.9,94.7 382.5,92.7 384.3,92.4 			"/>
			<line class="st38" x1="211.8" y1="276.2" x2="210.7" y2="223.7"/>
			<polyline class="st38" points="285.8,263.7 285.8,263.4 285.8,255.9 			"/>
			<polyline class="st38" points="64.6,203.3 68.4,206 78.6,213.3 85.7,218.3 			"/>
			<polyline class="st38" points="161.1,271.8 165.3,274.7 181.1,285.9 191.3,293.2 			"/>
			<line class="st38" x1="52" y1="222.4" x2="54.5" y2="224.3"/>
			<line class="st38" x1="197.2" y1="325.7" x2="200.1" y2="324.9"/>
			<line class="st38" x1="248.1" y1="116.2" x2="252.3" y2="115.5"/>
			<polyline class="st38" points="211.9,284.3 211.9,283.9 211.8,276.2 			"/>
			<line class="st38" x1="191.3" y1="293.2" x2="195.6" y2="296.2"/>
			<line class="st38" x1="54.5" y1="224.3" x2="57.1" y2="226.3"/>
			<line class="st38" x1="200.1" y1="324.9" x2="203.3" y2="323.9"/>
			<polyline class="st38" points="240.7,117.5 246.9,116.4 248.1,116.2 			"/>
			<line class="st38" x1="260.7" y1="114" x2="265" y2="113.2"/>
			<polyline class="st38" points="85.7,218.3 89.5,221 100.9,229.1 108.6,234.5 			"/>
			<line class="st38" x1="195.6" y1="296.2" x2="197.8" y2="297.8"/>
			<line class="st38" x1="203.3" y1="323.9" x2="206.4" y2="322.9"/>
			<polyline class="st38" points="252.3,115.5 259.5,114.2 260.7,114 			"/>
			<line class="st38" x1="265" y1="113.2" x2="271.3" y2="112.1"/>
			<line class="st38" x1="353.7" y1="97.7" x2="357.9" y2="97"/>
			<polyline class="st38" points="108.6,234.5 112.6,237.4 114.2,238.5 			"/>
			<polyline class="st38" points="197.8,297.8 197.9,297.8 200,299.3 			"/>
			<line class="st38" x1="57.1" y1="226.3" x2="58" y2="227"/>
			<line class="st38" x1="66" y1="233.1" x2="69.1" y2="235.5"/>
			<line class="st38" x1="206.4" y1="322.9" x2="209.4" y2="322"/>
			<polyline class="st38" points="271.3,112.1 275.3,111.4 275.7,111.4 			"/>
			<line class="st38" x1="62.2" y1="230.2" x2="66" y2="233.1"/>
			<line class="st38" x1="69.1" y1="235.5" x2="71.3" y2="237.2"/>
			<line class="st38" x1="209.4" y1="322" x2="211.9" y2="321.3"/>
			<line class="st38" x1="349.1" y1="98.5" x2="353.7" y2="97.7"/>
			<polyline class="st38" points="58,227 60.4,228.8 62.2,230.2 			"/>
			<line class="st38" x1="71.3" y1="237.2" x2="72.5" y2="238.1"/>
			<line class="st38" x1="211.9" y1="321.3" x2="213.8" y2="320.7"/>
			<polyline class="st38" points="332.7,101.4 337.2,100.6 347.5,98.8 349.1,98.5 			"/>
			<polyline class="st38" points="72.5,238.1 72.5,238.1 189.8,328 			"/>
			<line class="st38" x1="213.8" y1="320.7" x2="215" y2="320.3"/>
			<polyline class="st38" points="322.2,103.2 331.2,101.7 332.7,101.4 			"/>
			<line class="st38" x1="215" y1="320.3" x2="215.4" y2="320.2"/>
			<line class="st38" x1="287.7" y1="109.3" x2="292" y2="108.5"/>
			<line class="st38" x1="302" y1="106.8" x2="306.4" y2="106"/>
			<line class="st38" x1="317.7" y1="104" x2="322.2" y2="103.2"/>
			<polyline class="st38" points="285.8,109.6 286.4,109.5 287.7,109.3 			"/>
			<polyline class="st38" points="292,108.5 300.6,107 302,106.8 			"/>
			<line class="st38" x1="316.3" y1="104.3" x2="317.7" y2="104"/>
			<polyline class="st38" points="401.4,264 402.3,263.8 403.9,263.3 			"/>
			<polyline class="st38" points="306.4,106 314.9,104.5 316.3,104.3 			"/>
			<polyline class="st38" points="215.4,320.2 401.2,264.1 401.4,264 			"/>
			<polyline class="st38" points="403.9,263.3 406,262.6 408.6,261.9 411.4,261 414.2,260.2 416.8,259.4 419.1,258.7 420.9,258.1 
							"/>
			<line class="st38" x1="422.6" y1="257.6" x2="455.5" y2="247.7"/>
			<polyline class="st38" points="420.9,258.1 422.1,257.8 422.6,257.6 			"/>
			<line class="st38" x1="196" y1="95.5" x2="148.1" y2="76.7"/>
			<line class="st38" x1="37.2" y1="33.3" x2="39.5" y2="34.3"/>
			<line class="st38" x1="87.9" y1="53.2" x2="106.8" y2="60.6"/>
		</g>
	</g>
</g>
</svg>
