<?xml version="1.0" encoding="utf-8"?>
<!-- Generator: Adobe Illustrator 20.1.0, SVG Export Plug-In . SVG Version: 6.00 Build 0)  -->
<svg version="1.1" id="Layer_14_1_" xmlns="http://www.w3.org/2000/svg" xmlns:xlink="http://www.w3.org/1999/xlink" x="0px"
	 y="0px" viewBox="0 0 473.1 375" style="enable-background:new 0 0 473.1 375;" xml:space="preserve">
<style type="text/css">
	.st0{fill:#8F7B5C;}
	.st1{fill:#F7C283;}
	.st2{fill:#D1A46E;}
	.st3{fill:#222222;}
	.st4{fill:#9F7C52;}
	.st5{fill:#DFC093;}
	.st6{fill:#2C2C2C;}
	.st7{fill:#181818;}
	.st8{fill:#BDA27C;}
	.st9{fill:#997D21;}
	.st10{fill:#777777;}
	.st11{fill:#A4A4A5;}
	.st12{fill:#8A8A8B;}
	.st13{fill:#8C8D8D;}
	.st14{fill:#BBBBBC;}
	.st15{fill:#9E9E9E;}
	.st16{fill:#543404;}
	.st17{fill:#6A4109;}
	.st18{fill:#87550D;}
	.st19{fill:#9F6512;}
	.st20{fill:#B17115;}
	.st21{fill:#BD7918;}
	.st22{fill:#C27C19;}
	.st23{fill:#BF7B18;}
	.st24{fill:#B67416;}
	.st25{fill:#A66A14;}
	.st26{fill:#915B0F;}
	.st27{fill:#75490A;}
	.st28{fill:#6F4508;}
	.st29{fill:#653718;}
	.st30{fill:#A95F2F;}
	.st31{fill:#915127;}
	.st32{fill:#A45C2E;}
	.st33{fill:#A75E2E;}
	.st34{fill:#9F592B;}
	.st35{fill:#7D4621;}
	.st36{fill:#8A4D25;}
	.st37{fill:#75411E;}
	.st38{fill:#5B3115;}
	.st39{fill:#49260E;}
	.st40{fill:none;stroke:#000000;stroke-width:0.5;stroke-linecap:round;stroke-linejoin:round;stroke-miterlimit:10;}
	.st41{fill:none;stroke:#000000;stroke-linecap:round;stroke-linejoin:round;stroke-miterlimit:10;}
</style>
<g>
	<g>
		<g>
			<polygon class="st0" points="211.5,151.3 235.7,146.6 269.3,161.5 269.4,190.4 254.3,193.9 211.9,172.7 			"/>
			<polygon class="st1" points="235.7,146.6 211.5,151.3 211.5,149.3 219.8,147.7 221.6,147.3 235.7,144.6 			"/>
			<polygon class="st2" points="269.3,161.5 235.7,146.6 235.7,144.6 236.8,145.1 247.3,149.7 248.4,150.2 259.8,155.2 261,155.8 
				269.3,159.4 			"/>
			<polygon class="st1" points="221.6,147.3 219.8,147.7 219.4,123.2 221.2,122.9 221.6,145.7 			"/>
			<polygon class="st0" points="211.9,172.7 254.3,193.9 212.5,203.4 			"/>
			<polygon class="st0" points="254.3,193.9 269.4,190.4 269.4,201.5 			"/>
			<polygon class="st0" points="212.5,203.4 254.3,193.9 269.4,201.5 269.7,257.8 212.9,224.9 			"/>
			<polygon class="st0" points="212.9,224.9 269.7,257.8 269.7,260.3 213.9,275.5 			"/>
			<polygon class="st0" points="213.9,275.5 269.7,260.3 269.7,263.7 274.5,266.5 214,283.3 			"/>
			<polygon class="st3" points="274.5,266.5 269.7,263.7 269.7,260.3 269.7,257.8 269.4,201.5 269.4,190.4 269.3,161.5 269.3,159.4 
				269.3,156.7 269.1,114.5 275.3,113.3 275.7,267.2 274.9,266.7 			"/>
			<polygon class="st0" points="274.5,266.5 274.9,266.7 214,283.7 214,283.3 			"/>
			<polygon class="st2" points="219.4,123.2 219.8,147.7 217.2,146.5 216.8,123.7 			"/>
			<polygon class="st4" points="217.2,146.5 219.8,147.7 211.5,149.3 211.4,147.6 			"/>
			<polygon class="st5" points="217.2,146.5 211.4,147.6 211,124.7 216.8,123.7 			"/>
			<polygon class="st6" points="275.7,267.2 275.3,113.3 276.6,113.1 277,266.2 277,266.9 			"/>
			<polygon class="st6" points="276.6,113.1 275.3,113.3 269.1,114.5 265,115.2 260.8,115.9 259.5,116.1 252.3,117.4 248.1,118.2 
				246.9,118.4 240.7,119.5 236.5,120.2 235.4,120.4 235.2,120.4 221.2,122.9 219.4,123.2 216.8,123.7 211,124.7 209.6,125 
				209.6,123.4 276.6,111.6 			"/>
			<polygon class="st5" points="275.7,267.2 277,266.9 277,266.2 281.8,264.8 281.8,275.9 207.7,297.1 201.5,298.8 201.4,298.9 
				200.7,299.1 200.4,287.5 211.9,284.3 212.7,284.8 214,284.4 214,283.7 274.9,266.7 			"/>
			<polygon class="st6" points="209.6,125 211,124.7 211.4,147.6 211.5,149.3 211.5,151.3 211.9,172.7 212.5,203.4 212.9,224.9 
				213.9,275.5 214,283.3 214,283.7 214.1,284.4 212.7,284.8 			"/>
			<polygon class="st3" points="209.6,125 212.7,284.8 211.9,284.3 208.8,124.6 			"/>
			<polygon class="st5" points="208.8,124.6 211.9,284.3 200.4,287.5 196.7,125.2 208.8,123.1 			"/>
			<polygon class="st3" points="208.8,124.6 209.6,125 209.6,123.4 208.8,123.1 			"/>
			<polygon class="st5" points="276.6,113.1 276.6,111.6 275.7,111.3 285.8,109.6 285.8,111 285.8,263.7 281.8,264.8 277,266.2 			
				"/>
			<polygon class="st3" points="285.8,263.7 286.6,264.2 286.7,111.3 285.8,111 			"/>
			<polygon class="st3" points="285.8,111 286.7,111.3 286.7,109.9 285.8,109.6 			"/>
			<polygon class="st5" points="285.8,109.6 275.7,111.3 208.8,123.1 196.7,125.2 196,95.4 213.4,102.2 216.3,101.8 216.1,92.3 
				358.4,70 357.9,96.9 			"/>
			<polygon class="st7" points="285.8,109.6 357.9,96.9 417.1,86.5 418.1,86.8 286.7,109.9 			"/>
			<polygon class="st5" points="417.1,86.5 357.9,96.9 358.4,70 425.6,59.5 427.7,60 426.8,84.9 			"/>
			<polygon class="st7" points="208.8,123.1 275.7,111.3 276.6,111.6 209.6,123.4 			"/>
			<polygon class="st1" points="216.3,101.8 213.4,102.2 213.2,90.3 216.1,89.9 216.1,92.1 216.1,92.3 			"/>
			<polygon class="st5" points="216.1,89.9 213.2,90.3 213.2,89 216.1,88.5 			"/>
			<polygon class="st2" points="213.2,90.3 213.4,102.2 196,95.4 148.1,76.7 106.8,60.5 87.9,53.1 87.4,43.4 105.9,50.3 195.4,83.7 
							"/>
			<polygon class="st8" points="195.4,83.7 105.9,50.3 105.9,49.2 195.3,82.3 			"/>
			<polygon class="st0" points="106.8,60.5 148.1,76.7 147.4,76.8 106.1,60.6 			"/>
			<polygon class="st2" points="87.4,43.4 87.9,53.1 70.9,46.5 39.5,34.2 37.2,33.3 27.8,29.7 27.3,21 36.8,24.6 38.7,25.2 			"/>
			<polygon class="st8" points="38.7,25.2 36.8,24.6 36.8,23.6 38.6,24.2 			"/>
			<polygon class="st0" points="39.5,34.2 70.9,46.5 70.3,46.6 38.9,34.3 			"/>
			<polygon class="st0" points="321,23.3 427.6,48 425.5,48.3 358.1,58.2 255.7,31.2 			"/>
			<polygon class="st0" points="255.7,31.2 358.1,58.2 281.2,69.6 184.3,39.7 			"/>
			<polygon class="st0" points="321,23.3 255.7,31.2 176.7,10.3 237.8,4.1 			"/>
			<polygon class="st2" points="221.7,4.9 221.7,1.8 231,4 			"/>
			<polygon class="st8" points="231,4 221.7,1.8 221.7,0.9 233.7,3.7 			"/>
			<polygon class="st1" points="448.3,53.9 447.9,64.1 445.8,64.5 446.2,54.2 			"/>
			<polygon class="st5" points="448.3,53.9 446.2,54.2 446.3,53.1 448.4,52.8 			"/>
			<polygon class="st2" points="446.2,54.2 445.8,64.5 428.2,60.1 427.7,60 425.6,59.5 425.1,59.4 425.5,49.4 			"/>
			<polygon class="st1" points="425.5,49.4 425.1,59.4 357.9,69.9 216.1,92.1 216.1,89.9 216.1,88.5 200.7,82.9 281.2,70.9 
				358.1,59.4 			"/>
			<polygon class="st5" points="358.1,59.4 281.2,70.9 281.2,69.6 358.1,58.2 			"/>
			<polygon class="st0" points="425.1,59.4 425.6,59.5 358.4,70 357.9,69.9 			"/>
			<polygon class="st5" points="425.5,49.4 358.1,59.4 358.1,58.2 425.5,48.3 			"/>
			<polygon class="st8" points="425.5,49.4 425.5,48.3 446.3,53.1 446.2,54.2 			"/>
			<polygon class="st0" points="216.1,92.1 357.9,69.9 358.4,70 216.1,92.3 			"/>
			<polygon class="st0" points="106.8,60.5 106.1,60.6 70.3,46.6 70.9,46.5 87.9,53.1 			"/>
			<polygon class="st8" points="106.1,60.6 147.4,76.8 153.7,255.8 113.7,228.3 			"/>
			<polygon class="st8" points="153.7,255.8 147.4,76.8 195.3,95.5 199.7,287.7 			"/>
			<polygon class="st8" points="106.1,60.6 113.7,228.3 78.9,204.2 70.3,46.6 			"/>
			<polygon class="st8" points="113.7,228.3 153.7,255.8 199.7,287.7 200,299.3 197.9,297.8 197.8,297.7 195.6,296.1 191.3,293.1 
				181.1,285.9 165.3,274.7 161.1,271.7 151.8,265.1 137.7,255.1 133.7,252.3 125.2,246.3 114.2,238.5 			"/>
			<polygon class="st0" points="147.4,76.8 148.1,76.7 196,95.4 195.3,95.5 			"/>
			<polygon class="st8" points="70.3,46.6 78.9,204.2 48.2,182.9 38.9,34.3 			"/>
			<polygon class="st8" points="78.9,204.2 113.7,228.2 114.2,238.5 112.6,237.3 108.6,234.5 100.9,229 89.5,221 85.7,218.2 
				78.6,213.2 68.4,206 64.6,203.3 58.1,198.7 52.6,194.8 52.6,194.8 50.5,193.3 50.4,193.2 48.7,192 48.2,182.9 			"/>
			<polygon class="st5" points="428.2,60.1 422.2,225.7 421.7,225.8 426.8,84.9 427.7,60 			"/>
			<polygon class="st5" points="421.7,225.8 421.3,236 421.8,235.9 421.9,231.8 422.2,225.7 			"/>
			<polygon class="st6" points="286.6,264.2 286.7,111.3 287.9,111.1 287.9,167.5 287.9,167.6 287.9,169.8 287.9,186.2 287.9,210.7 
				287.8,255.3 287.8,262.8 287.8,263.1 287.8,263.8 			"/>
			<polygon class="st6" points="287.9,111.1 286.7,111.3 286.7,109.9 418.1,86.8 418,88.2 417,88.3 410.1,89.6 407.9,89.9 
				403.1,90.8 401.3,91.1 388.9,93.3 384.2,94.1 382.5,94.4 370.8,96.5 366.2,97.3 364.6,97.6 353.6,99.5 349,100.3 347.5,100.6 
				337.2,102.4 332.6,103.2 331.1,103.5 322.2,105.1 317.7,105.9 316.3,106.1 314.8,106.4 306.4,107.9 302,108.6 300.6,108.9 
				292,110.4 			"/>
			<polygon class="st5" points="285.8,263.7 286.6,264.2 287.8,263.8 287.8,263.1 411.3,228.7 412.2,229.1 413.3,228.8 413.3,228.2 
				421.7,225.8 421.3,236 417.1,237.2 412.5,238.5 412.4,238.5 408.1,239.8 408,239.8 281.8,275.9 281.8,264.8 			"/>
			<polygon class="st5" points="418,88.2 418.1,86.8 417.1,86.5 426.8,84.9 421.7,225.8 413.3,228.2 			"/>
			<polygon class="st6" points="417,88.3 418,88.2 413.3,228.2 413.3,228.8 412.2,229.1 			"/>
			<polygon class="st3" points="417,88.3 412.2,229.1 411.3,228.7 410.9,228.5 405.7,226.2 405.8,223.1 405.8,222.2 405.9,219.7 
				406,216.5 410.1,89.6 			"/>
			<polygon class="st0" points="405.7,226.2 410.9,228.5 354.7,244.2 345.5,239.6 405.8,223.1 			"/>
			<polygon class="st0" points="410.9,228.5 411.3,228.7 287.8,263.1 287.8,262.8 354.7,244.2 			"/>
			<polygon class="st0" points="405.8,223.1 345.5,239.6 287.9,210.7 287.9,186.2 312.4,180.7 315.7,182.1 405.8,222.2 			"/>
			<polygon class="st2" points="405.8,222.2 315.7,182.1 315.7,179.9 317.1,180.5 330.2,186.3 331.6,186.9 346,193.3 347.5,193.9 
				362.5,200.5 364,201.2 379.7,208.1 381.3,208.8 397.6,216 399.3,216.8 405.9,219.7 			"/>
			<polygon class="st2" points="315.7,182.1 312.4,180.7 287.9,169.8 287.9,167.6 300.4,173.1 301.7,173.7 314.3,179.3 315.7,179.9 
							"/>
			<polygon class="st0" points="287.9,169.8 312.4,180.7 287.9,186.2 			"/>
			<polygon class="st0" points="287.9,210.7 345.5,239.6 287.8,255.3 			"/>
			<polygon class="st0" points="287.8,255.3 345.5,239.6 354.7,244.2 287.8,262.8 			"/>
			<polygon class="st8" points="48.2,182.9 48.7,192 47,190.8 46.4,190.4 45.8,181.3 			"/>
			<polygon class="st5" points="199.7,287.7 200,299.3 200.7,299.1 200.4,287.5 			"/>
			<polygon class="st5" points="200.4,287.5 199.7,287.7 195.3,95.5 196,95.4 196.7,125.2 			"/>
			<polygon class="st9" points="200,299.3 200.7,299.1 201.4,298.9 201.6,306.8 198,304.2 197.9,297.8 			"/>
			<polygon class="st10" points="198,304.2 201.6,306.8 201.7,306.9 207.9,305.1 207.8,301.7 208.2,301.8 209.6,302.4 210.6,303.2 
				211,304.1 210.9,305 210.3,305.9 209.1,306.8 207.6,307.5 205.7,307.9 203.6,308.2 201.4,308.2 199.4,308 197.6,307.6 
				196.2,306.9 195.2,306.1 194.8,305.2 194.9,304.3 195.6,303.4 196.8,302.6 197.9,302.1 197.9,304.2 			"/>
			<polygon class="st11" points="207.9,305.1 201.7,306.9 201.5,298.8 207.7,297.1 207.8,301.7 			"/>
			<polygon class="st12" points="197.9,302.1 197.9,304.2 198,304.2 197.9,297.8 197.8,297.7 			"/>
			<polygon class="st12" points="201.4,298.9 201.6,306.8 201.7,306.9 201.5,298.8 			"/>
			<polygon class="st10" points="194.8,305.2 195.2,306.1 196.2,306.9 197.6,307.6 199.4,308 201.4,308.2 203.6,308.2 205.7,307.9 
				207.6,307.5 209.1,306.8 210.3,305.9 210.9,305 211,304.1 210.6,303.2 209.6,302.4 208.2,301.8 207.8,301.7 207.7,297.1 
				281.8,275.9 408,239.8 408,241.7 407.4,241.8 406.3,242.3 405.6,243 405.3,243.6 405.6,244.3 406.3,245 407.5,245.6 409,246.1 
				410.7,246.4 412.5,246.6 414.4,246.6 416.1,246.4 417.5,246 418.6,245.5 419.3,244.9 419.5,244.2 419.2,243.5 418.5,242.8 
				417.3,242.2 417,242.1 417.1,237.2 421.3,236 421.8,235.9 421.9,231.8 455.6,246.8 189.8,326.9 19,196.4 47,190.8 48.7,192 
				50.4,193.2 50.7,197.3 50.2,197.4 49.1,197.9 48.4,198.4 48.1,198.9 48.2,199.5 48.7,199.9 49.6,200.3 50.9,200.6 52.4,200.7 
				54,200.7 55.7,200.6 57.3,200.3 58.1,200 58.3,202 64.8,206.7 68.4,206 78.6,213.2 78.8,216.7 85.9,221.8 89.5,221 100.9,229 
				101.1,232.7 108.8,238.2 112.6,237.3 114.2,238.5 125.2,246.3 125.4,250 133.8,256.1 137.7,255.1 151.8,265.1 152,269.1 
				161.2,275.7 165.3,274.7 181.1,285.9 181.2,290 191.4,297.3 195.6,296.1 197.8,297.7 197.9,302.1 196.8,302.6 195.6,303.4 
				194.9,304.3 			"/>
			<polygon class="st13" points="406.3,245 405.6,244.3 405.3,243.6 405.6,243 406.3,242.3 407.4,241.8 408,241.7 407.9,243.6 
				408,243.6 412.1,245.5 412.3,245.6 416.9,244.3 417,242.1 417.3,242.2 418.5,242.8 419.2,243.5 419.5,244.2 419.3,244.9 
				418.6,245.5 417.5,246 416.1,246.4 414.4,246.6 412.5,246.6 410.7,246.4 409,246.1 407.5,245.6 			"/>
			<polygon class="st11" points="416.9,244.3 412.3,245.6 412.5,238.5 417.1,237.2 417,242.1 			"/>
			<polygon class="st12" points="408,239.8 408,241.7 407.9,243.6 408,243.6 408.1,239.8 			"/>
			<polygon class="st12" points="412.4,238.5 412.1,245.5 412.3,245.6 412.5,238.5 			"/>
			<polygon class="st9" points="412.1,245.5 408,243.6 408.1,239.8 412.4,238.5 			"/>
			<polygon class="st13" points="48.2,199.5 48.1,198.9 48.4,198.4 49.1,197.9 50.2,197.4 50.7,197.3 50.7,198.3 50.8,198.4 
				52.9,199.9 53,199.9 58.1,198.9 58.1,200 57.3,200.3 55.7,200.6 54,200.7 52.4,200.7 50.9,200.6 49.6,200.3 48.7,199.9 			"/>
			<polygon class="st11" points="58.1,198.9 53,199.9 52.6,194.8 58.1,198.7 			"/>
			<polygon class="st12" points="50.7,197.3 50.7,198.3 50.8,198.4 50.5,193.3 50.4,193.2 			"/>
			<polygon class="st12" points="52.9,199.9 53,199.9 52.6,194.8 52.6,194.8 			"/>
			<polygon class="st9" points="52.9,199.9 50.8,198.4 50.5,193.3 52.6,194.8 			"/>
			<polygon class="st14" points="165.3,274.7 161.2,275.7 161.1,271.7 			"/>
			<polygon class="st15" points="161.2,275.7 152,269.1 151.8,265.1 161.1,271.7 			"/>
			<polygon class="st14" points="195.6,296.1 191.4,297.3 191.3,293.1 			"/>
			<polygon class="st15" points="191.4,297.3 181.2,290 181.1,285.9 191.3,293.1 			"/>
			<polygon class="st14" points="137.7,255.1 133.8,256.1 133.7,252.3 			"/>
			<polygon class="st15" points="133.8,256.1 125.4,250 125.2,246.3 133.7,252.3 			"/>
			<polygon class="st14" points="112.6,237.3 108.8,238.2 108.6,234.5 			"/>
			<polygon class="st15" points="108.8,238.2 101.1,232.7 100.9,229 108.6,234.5 			"/>
			<polygon class="st14" points="89.5,221 85.9,221.8 85.7,218.2 			"/>
			<polygon class="st15" points="85.9,221.8 78.8,216.7 78.6,213.2 85.7,218.2 			"/>
			<polygon class="st14" points="68.4,206 64.8,206.7 64.6,203.3 			"/>
			<polygon class="st15" points="64.8,206.7 58.3,202 58.1,200 58.1,198.9 58.1,198.7 64.6,203.3 			"/>
			<polygon class="st16" points="393.2,295.2 393.5,297.2 394.2,272.6 393.9,270.8 			"/>
			<polygon class="st17" points="394.9,299.1 393.5,297.2 394.2,272.6 395.6,274.5 			"/>
			<polygon class="st18" points="397.4,300.9 394.9,299.1 395.7,274.5 398.2,276.1 			"/>
			<polygon class="st19" points="400.9,302.4 397.4,300.9 398.2,276.1 401.7,277.6 			"/>
			<polygon class="st20" points="405,303.4 400.9,302.4 401.7,277.6 405.8,278.6 			"/>
			<polygon class="st21" points="409.6,304.1 405,303.4 405.8,278.6 410.4,279.2 			"/>
			<polygon class="st22" points="414.2,304.2 409.6,304.1 410.4,279.2 415.1,279.3 			"/>
			<polygon class="st23" points="418.6,303.7 414.2,304.2 415.1,279.3 419.5,278.9 			"/>
			<polygon class="st24" points="422.4,302.8 418.6,303.7 419.5,278.9 423.3,278 			"/>
			<polygon class="st25" points="425.4,301.4 422.4,302.8 423.3,278 426.3,276.7 			"/>
			<polygon class="st26" points="427.3,299.8 425.4,301.4 426.3,276.7 428.3,275.1 			"/>
			<polygon class="st27" points="428.1,297.9 427.3,299.8 428.3,275.1 429,273.3 			"/>
			<polygon class="st28" points="424.4,268 427.1,269.6 428.6,271.4 429,273.3 428.3,275.1 426.3,276.7 423.3,278 419.5,278.9 
				415.1,279.3 410.4,279.2 405.8,278.6 401.7,277.6 398.2,276.1 395.6,274.5 394.2,272.6 393.9,270.8 394.9,269 396.9,267.5 
				399.9,266.3 401.1,266 400.9,271.3 401.1,272.4 402,273.5 403.5,274.5 405.6,275.3 408.1,275.9 410.8,276.3 413.6,276.3 
				416.2,276.1 418.5,275.6 420.3,274.8 421.5,273.9 422,272.8 422.2,267.1 			"/>
			<polygon class="st19" points="405.6,275.3 403.5,274.5 403.9,263.2 406,262.6 			"/>
			<polygon class="st20" points="408.1,275.9 405.6,275.3 406,262.6 408.6,261.8 			"/>
			<polygon class="st16" points="401.2,264.1 401.1,266 400.9,271.3 401.1,272.4 401.4,264 			"/>
			<polygon class="st29" points="422,272.8 421.5,273.9 422.1,257.7 422.6,257.6 422.2,267.1 			"/>
			<polygon class="st30" points="413.6,276.3 410.8,276.3 411.4,261 414.2,260.1 			"/>
			<polygon class="st18" points="403.5,274.5 402,273.5 402.3,263.7 403.9,263.2 			"/>
			<polygon class="st17" points="402,273.5 401.1,272.4 401.4,264 402.3,263.7 			"/>
			<polygon class="st31" points="420.3,274.8 418.5,275.6 419.1,258.6 420.9,258.1 			"/>
			<polygon class="st32" points="410.8,276.3 408.1,275.9 408.6,261.8 411.4,261 			"/>
			<polygon class="st33" points="416.2,276.1 413.6,276.3 414.2,260.1 416.8,259.3 			"/>
			<polygon class="st34" points="418.5,275.6 416.2,276.1 416.8,259.3 419.1,258.6 			"/>
			<polygon class="st35" points="421.5,273.9 420.3,274.8 420.9,258.1 422.1,257.7 			"/>
			<polygon class="st17" points="184.8,367.7 184.2,365.1 183.4,337.3 184,339.8 			"/>
			<polygon class="st18" points="186.8,370 184.8,367.7 184,339.8 186,342 			"/>
			<polygon class="st19" points="190,372 186.8,370 186,342 189.2,343.9 			"/>
			<polygon class="st20" points="194.2,373.4 190,372 189.2,343.9 193.5,345.2 			"/>
			<polygon class="st21" points="199.1,374.2 194.2,373.4 193.5,345.2 198.4,346 			"/>
			<polygon class="st22" points="204.4,374.3 199.1,374.2 198.4,346 203.7,346.1 			"/>
			<polygon class="st23" points="209.6,373.8 204.4,374.3 203.7,346.1 209.1,345.6 			"/>
			<polygon class="st24" points="214.5,372.5 209.6,373.8 209,345.6 214,344.4 			"/>
			<polygon class="st25" points="218.7,370.8 214.5,372.5 214,344.4 218.1,342.7 			"/>
			<polygon class="st26" points="221.8,368.5 218.7,370.8 218.1,342.7 221.3,340.6 			"/>
			<polygon class="st27" points="223.7,366 221.8,368.5 221.3,340.6 223.2,338.2 			"/>
			<polygon class="st16" points="224.2,363.4 223.7,366 223.2,338.2 223.8,335.7 			"/>
			<polygon class="st28" points="198.4,346 193.5,345.2 189.2,343.9 186,342 184,339.8 183.4,337.3 184.2,334.9 186.2,332.5 
				189.5,330.5 191.3,329.8 191.5,337 191.9,338.5 193.1,339.8 195,340.9 197.6,341.7 200.5,342.2 203.7,342.3 206.9,341.9 
				209.8,341.2 212.3,340.2 214.2,339 215.4,337.5 215.7,336.1 215.6,328.8 217.6,329.4 220.8,331.2 223,333.3 223.8,335.7 
				223.2,338.2 221.3,340.6 218.1,342.7 214,344.4 209,345.6 203.7,346.1 			"/>
			<polygon class="st33" points="206.9,341.9 203.7,342.3 203.3,323.8 206.4,322.9 			"/>
			<polygon class="st30" points="203.7,342.3 200.5,342.2 200.1,324.8 203.3,323.8 			"/>
			<polygon class="st32" points="200.5,342.2 197.6,341.7 197.2,325.7 200.1,324.8 			"/>
			<polygon class="st34" points="209.8,341.2 206.9,341.9 206.4,322.9 209.4,322 			"/>
			<polygon class="st20" points="197.6,341.7 195,340.9 194.7,326.4 197.2,325.7 			"/>
			<polygon class="st25" points="212.3,340.2 209.8,341.2 209.4,322 211.9,321.2 			"/>
			<polygon class="st36" points="195,340.9 193.1,339.8 192.8,327 194.7,326.4 			"/>
			<polygon class="st26" points="214.2,339 212.3,340.2 211.9,321.2 213.8,320.7 			"/>
			<polygon class="st37" points="193.1,339.8 191.9,338.5 191.6,327.4 192.8,327 			"/>
			<polygon class="st29" points="215.4,337.5 214.2,339 213.8,320.7 215,320.3 			"/>
			<polygon class="st38" points="191.3,327.5 191.3,329.8 191.5,337 191.9,338.5 191.6,327.4 			"/>
			<polygon class="st39" points="215,320.3 215.4,337.5 215.7,336.1 215.6,328.8 215.4,320.2 			"/>
			<polygon class="st19" points="44.6,250.4 42.6,249.3 41.2,227.1 43.2,228.2 			"/>
			<polygon class="st20" points="47.6,251.3 44.6,250.4 43.2,228.2 46.2,229 			"/>
			<polygon class="st21" points="51.2,251.8 47.6,251.3 46.2,229 49.8,229.4 			"/>
			<polygon class="st22" points="55.2,251.8 51.2,251.8 49.8,229.4 53.8,229.5 			"/>
			<polygon class="st23" points="59.4,251.5 55.2,251.8 53.8,229.5 58,229.2 			"/>
			<polygon class="st24" points="63.4,250.8 59.4,251.5 58,229.2 60.4,228.8 62.2,230.1 			"/>
			<polygon class="st25" points="67,249.7 63.4,250.8 62.2,230.1 66,233.1 			"/>
			<polygon class="st26" points="69.9,248.4 67,249.7 66,233.1 69.1,235.4 			"/>
			<polygon class="st27" points="71.9,246.9 69.9,248.4 69.1,235.5 71.3,237.1 			"/>
			<polygon class="st16" points="72.9,245.4 71.9,246.9 71.3,237.1 72.5,238 			"/>
			<polygon class="st17" points="72.9,245.4 72.8,243.9 72.5,238 72.5,238 			"/>
			<polygon class="st18" points="42.6,249.3 41.6,247.9 40.2,225.8 41.2,227.1 			"/>
			<polygon class="st28" points="43.2,228.2 41.2,227.1 40.2,225.8 40.2,224.3 41.4,222.9 43.5,221.5 46.2,220.4 46.5,225 
				47.1,225.8 48.4,226.4 50.1,226.9 52.3,227.2 54.7,227.2 57.2,227 58,226.9 60.4,228.8 58,229.2 53.8,229.5 49.8,229.4 46.2,229 
							"/>
			<polygon class="st19" points="48.4,226.4 47.1,225.8 46.6,218.2 47.9,219.2 			"/>
			<polygon class="st20" points="50.1,226.9 48.4,226.4 47.9,219.2 49.7,220.6 			"/>
			<polygon class="st22" points="54.7,227.2 52.3,227.2 52,222.3 54.5,224.3 			"/>
			<polygon class="st37" points="47.1,225.8 46.5,225 46.2,220.4 46,217.8 46.6,218.2 			"/>
			<polygon class="st21" points="52.3,227.2 50.1,226.9 49.7,220.6 52,222.3 			"/>
			<polygon class="st23" points="57.2,227 54.7,227.2 54.5,224.3 57.1,226.3 			"/>
			<polygon class="st24" points="57.2,227 58,226.9 57.1,226.3 			"/>
			<polygon class="st2" points="331.6,186.9 330.2,186.3 330.2,183.3 331.1,103.5 332.6,103.2 			"/>
			<polygon class="st1" points="331.6,186.9 332.6,103.2 337.2,102.4 336.1,185.9 			"/>
			<polygon class="st8" points="336.1,185.9 337.2,102.4 347.5,100.6 346,190.2 			"/>
			<polygon class="st4" points="336.1,185.9 346,190.2 346,193.3 331.6,186.9 			"/>
			<polygon class="st2" points="317.1,180.5 315.7,179.9 316.3,106.1 317.7,105.9 			"/>
			<polygon class="st1" points="317.1,180.5 317.7,105.9 322.2,105.1 321.5,179.5 			"/>
			<polygon class="st8" points="321.5,179.5 322.2,105.1 331.1,103.5 330.2,183.3 			"/>
			<polygon class="st4" points="321.5,179.5 330.2,183.3 330.2,186.3 317.1,180.5 			"/>
			<polygon class="st2" points="316.3,106.1 315.7,179.9 314.3,179.3 314.3,176.4 314.8,106.4 			"/>
			<polygon class="st2" points="347.5,193.9 346,193.3 346,190.2 347.5,100.6 349,100.3 			"/>
			<polygon class="st1" points="347.5,193.9 349,100.3 353.6,99.5 352,192.8 			"/>
			<polygon class="st8" points="352,192.8 353.6,99.5 364.6,97.6 362.5,197.4 			"/>
			<polygon class="st4" points="352,192.8 362.5,197.4 362.5,200.5 347.5,193.9 			"/>
			<polygon class="st2" points="381.3,208.8 379.7,208.1 379.7,205 382.5,94.4 384.2,94.1 			"/>
			<polygon class="st1" points="381.3,208.8 384.2,94.1 388.9,93.3 385.9,207.7 			"/>
			<polygon class="st8" points="385.9,207.7 388.9,93.3 401.3,91.1 397.7,212.8 			"/>
			<polygon class="st4" points="385.9,207.7 397.7,212.8 397.6,216 381.3,208.8 			"/>
			<polygon class="st2" points="364,201.2 362.5,200.5 362.5,197.4 364.6,97.6 366.2,97.3 			"/>
			<polygon class="st1" points="364,201.2 366.2,97.3 370.8,96.5 368.6,200.1 			"/>
			<polygon class="st8" points="368.6,200.1 370.8,96.5 382.5,94.4 379.7,205 			"/>
			<polygon class="st4" points="368.6,200.1 379.7,205 379.7,208.1 364,201.2 			"/>
			<polygon class="st2" points="399.3,216.8 397.6,216 397.7,212.8 401.3,91.1 403.1,90.8 			"/>
			<polygon class="st1" points="399.3,216.8 403.1,90.8 407.9,89.9 403.9,215.6 			"/>
			<polygon class="st8" points="403.9,215.6 407.9,89.9 410.1,89.6 406,216.5 			"/>
			<polygon class="st4" points="403.9,215.6 406,216.5 405.9,219.7 399.3,216.8 			"/>
			<polygon class="st8" points="38.9,34.3 48.2,182.9 45.8,181.3 36.6,33.4 			"/>
			<polygon class="st0" points="36.6,33.4 38.9,34.3 39.5,34.2 37.2,33.3 			"/>
			<polygon class="st5" points="281.2,69.6 281.2,70.9 200.7,82.9 198.2,81.9 			"/>
			<polygon class="st0" points="184.3,39.7 281.2,69.6 198.2,81.9 195.3,82.3 105.9,49.2 			"/>
			<path class="st0" d="M145.1,22.6l24.8,7.5l45.7-5.2l-26-7L145.1,22.6z M255.7,31.2l-71.4,8.6L110.5,17l66.2-6.7L255.7,31.2"/>
			<polygon class="st8" points="195.4,83.7 195.3,82.3 213.2,89 213.2,90.3 			"/>
			<polygon class="st8" points="105.9,49.2 105.9,50.3 87.4,43.4 38.7,25.2 38.6,24.2 			"/>
			<polygon class="st0" points="184.3,39.7 105.9,49.2 38.6,24.2 110.5,17 			"/>
			<polygon class="st0" points="176.7,10.3 110.5,17 38.6,24.2 36.8,23.6 39.1,23.3 174.5,9.7 			"/>
			<polygon class="st0" points="237.8,4.1 176.7,10.3 174.5,9.7 221.7,4.9 231,4 233.7,3.7 235.5,3.5 			"/>
			<polygon class="st0" points="195.3,82.3 198.2,81.9 200.7,82.9 216.1,88.5 213.2,89 			"/>
			<polygon class="st2" points="248.4,150.2 247.3,149.7 247.2,147 246.9,118.4 248.1,118.2 			"/>
			<polygon class="st1" points="248.4,150.2 248.1,118.2 252.3,117.4 252.6,149.4 			"/>
			<polygon class="st8" points="252.6,149.4 252.3,117.4 259.5,116.1 259.8,152.5 			"/>
			<polygon class="st4" points="252.6,149.4 259.8,152.5 259.8,155.2 248.4,150.2 			"/>
			<polygon class="st2" points="236.8,145.1 235.7,144.6 235.7,143.1 235.4,120.4 236.5,120.2 			"/>
			<polygon class="st1" points="236.8,145.1 236.5,120.2 240.7,119.5 241,144.3 			"/>
			<polygon class="st8" points="241,144.3 240.7,119.5 246.9,118.4 247.2,147 			"/>
			<polygon class="st4" points="241,144.3 247.2,147 247.3,149.7 236.8,145.1 			"/>
			<polygon class="st2" points="261,155.8 259.8,155.2 259.8,152.5 259.5,116.1 260.8,115.9 			"/>
			<polygon class="st1" points="261,155.8 260.8,115.9 265,115.2 265.2,154.9 			"/>
			<polygon class="st8" points="265.2,154.9 265,115.2 269.1,114.5 269.3,156.7 			"/>
			<polygon class="st4" points="265.2,154.9 269.3,156.7 269.3,159.4 261,155.8 			"/>
			<polygon class="st2" points="301.7,173.7 300.4,173.1 300.4,170.3 300.6,108.9 302,108.6 			"/>
			<polygon class="st1" points="301.7,173.7 302,108.6 306.4,107.9 306.1,172.8 			"/>
			<polygon class="st8" points="306.1,172.8 306.4,107.9 314.8,106.4 314.3,176.4 			"/>
			<polygon class="st4" points="306.1,172.8 314.3,176.4 314.3,179.3 301.7,173.7 			"/>
			<polygon class="st0" points="427.6,48 448.4,52.8 446.3,53.1 425.5,48.3 			"/>
			<polygon class="st8" points="27.3,21 27.2,20 36.8,23.6 36.8,24.6 			"/>
			<polygon class="st0" points="29.5,19.8 39.1,23.3 36.8,23.6 27.2,20 			"/>
			<polygon class="st0" points="223.5,0.7 235.5,3.5 233.7,3.7 221.7,0.9 			"/>
			<polygon class="st14" points="455.5,246.8 455.5,247.6 422.6,257.6 422.1,257.7 420.9,258.1 419.1,258.6 416.8,259.3 
				414.2,260.1 411.4,261 408.6,261.8 406,262.6 403.9,263.2 402.3,263.7 401.4,264 401.2,264.1 215.4,320.2 215,320.3 213.8,320.7 
				211.9,321.2 209.4,322 206.4,322.9 203.3,323.8 200.1,324.8 197.2,325.7 194.7,326.4 192.8,327 191.6,327.4 191.3,327.5 
				189.8,327.9 189.8,326.9 			"/>
			<polygon class="st15" points="189.8,326.9 189.8,327.9 72.5,238 72.5,238 71.3,237.1 69.1,235.4 66,233.1 62.2,230.1 60.4,228.8 
				58,226.9 57.1,226.3 54.5,224.3 52,222.3 49.7,220.6 47.9,219.2 46.6,218.2 46,217.8 19.1,197.1 19,196.4 			"/>
			<polygon class="st4" points="221.6,147.3 221.6,145.7 235.5,143 235.7,143.1 235.7,144.6 			"/>
			<polygon class="st2" points="235.2,120.4 235.5,143 235.7,143.1 235.4,120.4 			"/>
			<polygon class="st5" points="235.2,120.4 235.5,143 221.6,145.7 221.2,122.9 			"/>
			<polygon class="st4" points="300.4,170.3 300.4,173.1 287.9,167.6 287.9,167.5 291.9,166.6 			"/>
			<polygon class="st8" points="300.4,170.3 291.9,166.6 292,110.4 300.6,108.9 			"/>
			<polygon class="st1" points="292,110.4 291.9,166.6 287.9,167.5 287.9,111.1 			"/>
			<polygon class="st0" points="170,30.1 145.1,22.6 189.7,17.9 215.7,24.9 			"/>
			<line class="st40" x1="195.2" y1="306.1" x2="194.8" y2="305.2"/>
			<line class="st40" x1="195.2" y1="306.1" x2="196.2" y2="306.9"/>
			<line class="st40" x1="210.9" y1="305" x2="211" y2="304.1"/>
			<line class="st40" x1="210.3" y1="305.9" x2="210.9" y2="305"/>
			<line class="st40" x1="209.1" y1="306.8" x2="210.3" y2="305.9"/>
			<line class="st40" x1="207.6" y1="307.5" x2="209.1" y2="306.8"/>
			<line class="st40" x1="205.7" y1="307.9" x2="207.6" y2="307.5"/>
			<line class="st40" x1="203.6" y1="308.2" x2="205.7" y2="307.9"/>
			<line class="st40" x1="201.4" y1="308.2" x2="203.6" y2="308.2"/>
			<line class="st40" x1="199.4" y1="308" x2="201.4" y2="308.2"/>
			<line class="st40" x1="197.6" y1="307.6" x2="199.4" y2="308"/>
			<line class="st40" x1="196.2" y1="306.9" x2="197.6" y2="307.6"/>
			<polyline class="st40" points="405.6,244.3 406.3,245 407.5,245.6 			"/>
			<line class="st40" x1="419.3" y1="244.9" x2="419.5" y2="244.2"/>
			<line class="st40" x1="418.6" y1="245.5" x2="419.3" y2="244.9"/>
			<line class="st40" x1="417.5" y1="246" x2="418.6" y2="245.5"/>
			<line class="st40" x1="416.1" y1="246.4" x2="417.5" y2="246"/>
			<line class="st40" x1="414.4" y1="246.6" x2="416.1" y2="246.4"/>
			<line class="st40" x1="412.5" y1="246.6" x2="414.4" y2="246.6"/>
			<line class="st40" x1="410.7" y1="246.4" x2="412.5" y2="246.6"/>
			<line class="st40" x1="409" y1="246.1" x2="410.7" y2="246.4"/>
			<line class="st40" x1="407.5" y1="245.6" x2="409" y2="246.1"/>
			<line class="st40" x1="405.6" y1="244.3" x2="405.3" y2="243.6"/>
			<line class="st40" x1="48.2" y1="199.5" x2="48.1" y2="198.9"/>
			<line class="st40" x1="48.2" y1="199.5" x2="48.7" y2="199.9"/>
			<line class="st40" x1="57.3" y1="200.3" x2="58.1" y2="200"/>
			<line class="st40" x1="55.7" y1="200.6" x2="57.3" y2="200.3"/>
			<line class="st40" x1="54" y1="200.7" x2="55.7" y2="200.6"/>
			<line class="st40" x1="52.4" y1="200.7" x2="54" y2="200.7"/>
			<line class="st40" x1="50.9" y1="200.6" x2="52.4" y2="200.7"/>
			<line class="st40" x1="49.6" y1="200.3" x2="50.9" y2="200.6"/>
			<line class="st40" x1="48.7" y1="199.9" x2="49.6" y2="200.3"/>
			<line class="st40" x1="145.1" y1="22.6" x2="170" y2="30.1"/>
			<line class="st40" x1="170" y1="30.1" x2="215.7" y2="24.9"/>
			<polyline class="st40" points="403.5,274.5 405.6,275.3 408.1,275.9 			"/>
			<line class="st40" x1="401.1" y1="272.4" x2="400.9" y2="271.3"/>
			<line class="st40" x1="421.5" y1="273.9" x2="422" y2="272.8"/>
			<line class="st40" x1="410.8" y1="276.3" x2="413.6" y2="276.3"/>
			<line class="st40" x1="402" y1="273.5" x2="403.5" y2="274.5"/>
			<line class="st40" x1="402" y1="273.5" x2="401.1" y2="272.4"/>
			<line class="st40" x1="418.5" y1="275.6" x2="420.3" y2="274.8"/>
			<line class="st40" x1="408.1" y1="275.9" x2="410.8" y2="276.3"/>
			<polyline class="st40" points="413.6,276.3 416.2,276.1 418.5,275.6 			"/>
			<line class="st40" x1="420.3" y1="274.8" x2="421.5" y2="273.9"/>
			<line class="st40" x1="203.7" y1="342.3" x2="206.9" y2="341.9"/>
			<line class="st40" x1="200.5" y1="342.2" x2="203.7" y2="342.3"/>
			<line class="st40" x1="197.6" y1="341.7" x2="200.5" y2="342.2"/>
			<line class="st40" x1="206.9" y1="341.9" x2="209.8" y2="341.2"/>
			<line class="st40" x1="195" y1="340.9" x2="197.6" y2="341.7"/>
			<line class="st40" x1="209.8" y1="341.2" x2="212.3" y2="340.2"/>
			<line class="st40" x1="193.1" y1="339.8" x2="195" y2="340.9"/>
			<line class="st40" x1="212.3" y1="340.2" x2="214.2" y2="339"/>
			<line class="st40" x1="193.1" y1="339.8" x2="191.9" y2="338.5"/>
			<line class="st40" x1="214.2" y1="339" x2="215.4" y2="337.5"/>
			<line class="st40" x1="191.9" y1="338.5" x2="191.5" y2="337"/>
			<line class="st40" x1="215.4" y1="337.5" x2="215.7" y2="336.1"/>
			<polyline class="st40" points="47.1,225.8 48.4,226.4 50.1,226.9 			"/>
			<line class="st40" x1="52.3" y1="227.2" x2="54.7" y2="227.2"/>
			<line class="st40" x1="47.1" y1="225.8" x2="46.5" y2="225"/>
			<line class="st40" x1="50.1" y1="226.9" x2="52.3" y2="227.2"/>
			<polyline class="st40" points="54.7,227.2 57.2,227 58,226.9 			"/>
			<line class="st40" x1="219.8" y1="147.7" x2="219.4" y2="123.2"/>
			<line class="st40" x1="445.8" y1="64.5" x2="446.2" y2="54.2"/>
			<line class="st40" x1="213.4" y1="102.2" x2="213.2" y2="90.3"/>
			<line class="st40" x1="147.4" y1="76.8" x2="106.1" y2="60.6"/>
			<line class="st40" x1="106.1" y1="60.6" x2="70.3" y2="46.6"/>
			<line class="st40" x1="286.7" y1="111.3" x2="286.6" y2="264.2"/>
			<line class="st40" x1="418.1" y1="86.8" x2="286.7" y2="109.9"/>
			<polyline class="st40" points="286.7,111.3 286.7,109.9 285.8,109.6 			"/>
			<line class="st40" x1="417" y1="88.3" x2="412.2" y2="229.1"/>
			<line class="st40" x1="275.3" y1="113.3" x2="275.7" y2="267.2"/>
			<line class="st40" x1="209.6" y1="125" x2="212.7" y2="284.8"/>
			<line class="st40" x1="276.6" y1="111.6" x2="209.6" y2="123.4"/>
			<polyline class="st40" points="209.6,125 209.6,123.4 208.8,123.1 			"/>
			<line class="st40" x1="201.7" y1="306.9" x2="201.5" y2="298.8"/>
			<line class="st40" x1="412.3" y1="245.6" x2="412.5" y2="238.5"/>
			<line class="st40" x1="53" y1="199.9" x2="52.6" y2="194.8"/>
			<line class="st40" x1="200" y1="299.3" x2="199.7" y2="287.7"/>
			<line class="st40" x1="161.2" y1="275.7" x2="161.1" y2="271.7"/>
			<line class="st40" x1="191.4" y1="297.3" x2="191.3" y2="293.1"/>
			<line class="st40" x1="133.8" y1="256.1" x2="133.7" y2="252.3"/>
			<line class="st40" x1="108.8" y1="238.2" x2="108.6" y2="234.5"/>
			<line class="st40" x1="85.9" y1="221.8" x2="85.7" y2="218.2"/>
			<line class="st40" x1="64.8" y1="206.7" x2="64.6" y2="203.3"/>
			<polyline class="st40" points="393.9,270.8 394.2,272.6 395.6,274.5 398.2,276.1 401.7,277.6 405.8,278.6 410.4,279.2 
				415.1,279.3 419.5,278.9 423.3,278 426.3,276.7 428.3,275.1 429,273.3 			"/>
			<polyline class="st40" points="193.5,345.2 198.4,346 203.7,346.1 209.1,345.6 214,344.4 218.1,342.7 221.3,340.6 223.2,338.2 
				223.8,335.7 			"/>
			<polyline class="st40" points="183.4,337.3 184,339.8 186,342 189.2,343.9 193.5,345.2 			"/>
			<polyline class="st40" points="41.2,227.1 43.2,228.2 46.2,229 49.8,229.4 53.8,229.5 58,229.2 60.4,228.8 			"/>
			<line class="st40" x1="40.2" y1="225.8" x2="41.2" y2="227.1"/>
			<polyline class="st40" points="199.7,287.7 195.3,95.5 147.4,76.8 			"/>
			<line class="st40" x1="196" y1="95.4" x2="195.3" y2="95.5"/>
			<line class="st40" x1="331.6" y1="186.9" x2="332.6" y2="103.2"/>
			<line class="st40" x1="317.1" y1="180.5" x2="317.7" y2="105.9"/>
			<line class="st40" x1="347.5" y1="193.9" x2="349" y2="100.3"/>
			<line class="st40" x1="381.3" y1="208.8" x2="384.2" y2="94.1"/>
			<line class="st40" x1="364" y1="201.2" x2="366.2" y2="97.3"/>
			<line class="st40" x1="399.3" y1="216.8" x2="403.1" y2="90.8"/>
			<line class="st40" x1="70.3" y1="46.6" x2="38.9" y2="34.3"/>
			<line class="st40" x1="358.4" y1="70" x2="216.1" y2="92.3"/>
			<line class="st40" x1="425.6" y1="59.5" x2="358.4" y2="70"/>
			<line class="st40" x1="358.1" y1="58.2" x2="281.2" y2="69.6"/>
			<line class="st40" x1="195.3" y1="82.3" x2="105.9" y2="49.2"/>
			<line class="st40" x1="105.9" y1="49.2" x2="38.6" y2="24.2"/>
			<line class="st40" x1="213.2" y1="89" x2="213.2" y2="90.3"/>
			<line class="st40" x1="213.2" y1="89" x2="195.3" y2="82.3"/>
			<line class="st40" x1="216.1" y1="88.5" x2="213.2" y2="89"/>
			<line class="st40" x1="411.3" y1="228.7" x2="287.8" y2="263.1"/>
			<line class="st40" x1="274.9" y1="266.7" x2="214" y2="283.7"/>
			<line class="st40" x1="248.4" y1="150.2" x2="248.1" y2="118.2"/>
			<line class="st40" x1="236.8" y1="145.1" x2="236.5" y2="120.2"/>
			<line class="st40" x1="261" y1="155.8" x2="260.8" y2="115.9"/>
			<line class="st40" x1="301.7" y1="173.7" x2="302" y2="108.6"/>
			<line class="st40" x1="446.3" y1="53.1" x2="446.2" y2="54.2"/>
			<line class="st40" x1="446.3" y1="53.1" x2="425.5" y2="48.3"/>
			<line class="st40" x1="448.4" y1="52.8" x2="446.3" y2="53.1"/>
			<line class="st40" x1="36.8" y1="23.6" x2="27.2" y2="20"/>
			<line class="st40" x1="233.7" y1="3.7" x2="221.7" y2="0.9"/>
			<line class="st40" x1="36.8" y1="23.6" x2="38.6" y2="24.2"/>
			<line class="st40" x1="36.6" y1="33.4" x2="38.9" y2="34.3"/>
			<line class="st40" x1="455.5" y1="246.8" x2="189.8" y2="326.9"/>
			<polyline class="st40" points="189.8,327.9 189.8,326.9 19,196.4 			"/>
			<line class="st40" x1="425.5" y1="48.3" x2="358.1" y2="58.2"/>
			<line class="st40" x1="211.5" y1="149.3" x2="219.8" y2="147.7"/>
			<line class="st40" x1="281.2" y1="69.6" x2="198.2" y2="81.9"/>
			<line class="st40" x1="300.4" y1="173.1" x2="287.9" y2="167.6"/>
			<line class="st40" x1="269.3" y1="159.4" x2="261" y2="155.8"/>
			<line class="st40" x1="221.6" y1="147.3" x2="235.7" y2="144.6"/>
			<line class="st40" x1="330.2" y1="186.3" x2="317.1" y2="180.5"/>
			<line class="st40" x1="346" y1="193.3" x2="331.6" y2="186.9"/>
			<line class="st40" x1="314.3" y1="179.3" x2="301.7" y2="173.7"/>
			<line class="st40" x1="259.8" y1="155.2" x2="248.4" y2="150.2"/>
			<line class="st40" x1="362.5" y1="200.5" x2="347.5" y2="193.9"/>
			<line class="st40" x1="247.3" y1="149.7" x2="236.8" y2="145.1"/>
			<line class="st40" x1="405.9" y1="219.7" x2="399.3" y2="216.8"/>
			<line class="st40" x1="379.7" y1="208.1" x2="364" y2="201.2"/>
			<line class="st40" x1="397.6" y1="216" x2="381.3" y2="208.8"/>
			<polyline class="st41" points="211.5,151.3 235.7,146.6 269.3,161.5 			"/>
			<line class="st41" x1="287.9" y1="169.8" x2="312.4" y2="180.7"/>
			<line class="st41" x1="425.5" y1="49.4" x2="425.5" y2="48.3"/>
			<line class="st41" x1="315.7" y1="182.1" x2="405.8" y2="222.2"/>
			<line class="st41" x1="312.4" y1="180.7" x2="315.7" y2="182.1"/>
			<line class="st41" x1="405.7" y1="226.2" x2="410.9" y2="228.5"/>
			<line class="st41" x1="269.7" y1="263.7" x2="274.5" y2="266.5"/>
			<line class="st41" x1="235.5" y1="143" x2="235.7" y2="143.1"/>
			<line class="st41" x1="235.5" y1="143" x2="235.2" y2="120.4"/>
			<line class="st41" x1="235.7" y1="146.6" x2="235.7" y2="144.6"/>
			<line class="st41" x1="211.4" y1="147.6" x2="217.2" y2="146.5"/>
			<line class="st41" x1="221.6" y1="145.7" x2="235.5" y2="143"/>
			<polyline class="st41" points="217.2,146.5 219.8,147.7 221.6,147.3 			"/>
			<line class="st41" x1="217.2" y1="146.5" x2="216.8" y2="123.7"/>
			<line class="st41" x1="36.8" y1="24.6" x2="38.7" y2="25.2"/>
			<line class="st41" x1="39.5" y1="34.2" x2="70.9" y2="46.5"/>
			<line class="st41" x1="281.2" y1="70.9" x2="358.1" y2="59.4"/>
			<line class="st41" x1="425.1" y1="59.4" x2="425.5" y2="49.4"/>
			<line class="st41" x1="425.1" y1="59.4" x2="425.6" y2="59.5"/>
			<line class="st41" x1="105.9" y1="50.3" x2="195.4" y2="83.7"/>
			<line class="st41" x1="106.8" y1="60.5" x2="148.1" y2="76.7"/>
			<line class="st41" x1="321.5" y1="179.5" x2="330.2" y2="183.3"/>
			<line class="st41" x1="336.1" y1="185.9" x2="346" y2="190.2"/>
			<line class="st41" x1="352" y1="192.8" x2="362.5" y2="197.4"/>
			<line class="st41" x1="352" y1="192.8" x2="353.6" y2="99.5"/>
			<line class="st41" x1="336.1" y1="185.9" x2="337.2" y2="102.4"/>
			<line class="st41" x1="321.5" y1="179.5" x2="322.2" y2="105.1"/>
			<line class="st41" x1="403.9" y1="215.6" x2="407.9" y2="89.9"/>
			<line class="st41" x1="368.6" y1="200.1" x2="379.7" y2="205"/>
			<line class="st41" x1="385.9" y1="207.7" x2="397.7" y2="212.8"/>
			<line class="st41" x1="403.9" y1="215.6" x2="406" y2="216.5"/>
			<line class="st41" x1="385.9" y1="207.7" x2="388.9" y2="93.3"/>
			<line class="st41" x1="368.6" y1="200.1" x2="370.8" y2="96.5"/>
			<line class="st41" x1="241" y1="144.3" x2="240.7" y2="119.5"/>
			<line class="st41" x1="241" y1="144.3" x2="247.2" y2="147"/>
			<line class="st41" x1="252.6" y1="149.4" x2="259.8" y2="152.5"/>
			<line class="st41" x1="265.2" y1="154.9" x2="269.3" y2="156.7"/>
			<line class="st41" x1="252.6" y1="149.4" x2="252.3" y2="117.4"/>
			<line class="st41" x1="265.2" y1="154.9" x2="265" y2="115.2"/>
			<line class="st41" x1="291.9" y1="166.6" x2="300.4" y2="170.3"/>
			<line class="st41" x1="306.1" y1="172.8" x2="314.3" y2="176.4"/>
			<line class="st41" x1="291.9" y1="166.6" x2="292" y2="110.4"/>
			<line class="st41" x1="306.1" y1="172.8" x2="306.4" y2="107.9"/>
			<line class="st41" x1="285.8" y1="263.7" x2="285.8" y2="111"/>
			<line class="st41" x1="357.9" y1="96.9" x2="417.1" y2="86.5"/>
			<line class="st41" x1="285.8" y1="109.6" x2="357.9" y2="96.9"/>
			<line class="st41" x1="285.8" y1="111" x2="285.8" y2="109.6"/>
			<line class="st41" x1="410.9" y1="228.5" x2="411.3" y2="228.7"/>
			<line class="st41" x1="274.5" y1="266.5" x2="274.9" y2="266.7"/>
			<line class="st41" x1="211.9" y1="284.3" x2="208.8" y2="124.6"/>
			<line class="st41" x1="208.8" y1="123.1" x2="275.7" y2="111.3"/>
			<line class="st41" x1="208.8" y1="124.6" x2="208.8" y2="123.1"/>
			<line class="st41" x1="201.7" y1="306.9" x2="207.9" y2="305.1"/>
			<line class="st41" x1="197.9" y1="304.2" x2="198" y2="304.2"/>
			<line class="st41" x1="201.6" y1="306.8" x2="201.7" y2="306.9"/>
			<line class="st41" x1="198" y1="304.2" x2="201.6" y2="306.8"/>
			<polyline class="st41" points="194.9,304.3 195.6,303.4 196.8,302.6 197.9,302.1 			"/>
			<polyline class="st41" points="207.8,301.7 208.2,301.8 209.6,302.4 210.6,303.2 			"/>
			<line class="st41" x1="211" y1="304.1" x2="210.6" y2="303.2"/>
			<line class="st41" x1="194.8" y1="305.2" x2="194.9" y2="304.3"/>
			<line class="st41" x1="412.3" y1="245.6" x2="416.9" y2="244.3"/>
			<line class="st41" x1="407.9" y1="243.6" x2="408" y2="243.6"/>
			<line class="st41" x1="412.1" y1="245.5" x2="412.3" y2="245.6"/>
			<line class="st41" x1="408" y1="243.6" x2="412.1" y2="245.5"/>
			<line class="st41" x1="419.5" y1="244.2" x2="419.2" y2="243.5"/>
			<polyline class="st41" points="405.3,243.6 405.6,243 406.3,242.3 407.4,241.8 408,241.7 			"/>
			<polyline class="st41" points="417,242.1 417.3,242.2 418.5,242.8 419.2,243.5 			"/>
			<line class="st41" x1="53" y1="199.9" x2="58.1" y2="198.9"/>
			<line class="st41" x1="50.7" y1="198.3" x2="50.8" y2="198.4"/>
			<line class="st41" x1="52.9" y1="199.9" x2="53" y2="199.9"/>
			<line class="st41" x1="50.8" y1="198.4" x2="52.9" y2="199.9"/>
			<polyline class="st41" points="48.4,198.4 49.1,197.9 50.2,197.4 50.7,197.3 			"/>
			<line class="st41" x1="48.1" y1="198.9" x2="48.4" y2="198.4"/>
			<line class="st41" x1="189.7" y1="17.9" x2="215.7" y2="24.9"/>
			<line class="st41" x1="145.1" y1="22.6" x2="189.7" y2="17.9"/>
			<line class="st41" x1="331.6" y1="186.9" x2="336.1" y2="185.9"/>
			<line class="st41" x1="317.1" y1="180.5" x2="321.5" y2="179.5"/>
			<line class="st41" x1="347.5" y1="193.9" x2="352" y2="192.8"/>
			<line class="st41" x1="381.3" y1="208.8" x2="385.9" y2="207.7"/>
			<line class="st41" x1="364" y1="201.2" x2="368.6" y2="200.1"/>
			<line class="st41" x1="399.3" y1="216.8" x2="403.9" y2="215.6"/>
			<line class="st41" x1="275.7" y1="111.3" x2="285.8" y2="109.6"/>
			<line class="st41" x1="248.4" y1="150.2" x2="252.6" y2="149.4"/>
			<line class="st41" x1="236.8" y1="145.1" x2="241" y2="144.3"/>
			<line class="st41" x1="261" y1="155.8" x2="265.2" y2="154.9"/>
			<line class="st41" x1="287.9" y1="167.5" x2="291.9" y2="166.6"/>
			<line class="st41" x1="301.7" y1="173.7" x2="306.1" y2="172.8"/>
			<line class="st41" x1="254.3" y1="193.9" x2="211.9" y2="172.7"/>
			<line class="st41" x1="312.4" y1="180.7" x2="287.9" y2="186.2"/>
			<polyline class="st41" points="269.4,190.4 254.3,193.9 212.5,203.4 			"/>
			<polyline class="st41" points="425.5,49.4 358.1,59.4 358.1,58.2 			"/>
			<line class="st41" x1="321" y1="23.3" x2="427.6" y2="48"/>
			<polyline class="st41" points="358.1,58.2 255.7,31.2 321,23.3 			"/>
			<line class="st41" x1="345.5" y1="239.6" x2="287.9" y2="210.7"/>
			<line class="st41" x1="269.4" y1="201.5" x2="254.3" y2="193.9"/>
			<line class="st41" x1="405.8" y1="223.1" x2="345.5" y2="239.6"/>
			<line class="st41" x1="269.7" y1="257.8" x2="212.9" y2="224.9"/>
			<line class="st41" x1="345.5" y1="239.6" x2="287.8" y2="255.3"/>
			<line class="st41" x1="269.7" y1="260.3" x2="213.9" y2="275.5"/>
			<line class="st41" x1="354.7" y1="244.2" x2="345.5" y2="239.6"/>
			<polyline class="st41" points="410.9,228.5 354.7,244.2 287.8,262.8 			"/>
			<line class="st41" x1="274.5" y1="266.5" x2="214" y2="283.3"/>
			<line class="st41" x1="27.8" y1="29.7" x2="27.3" y2="21"/>
			<line class="st41" x1="87.9" y1="53.1" x2="87.4" y2="43.4"/>
			<line class="st41" x1="231" y1="4" x2="221.7" y2="1.8"/>
			<line class="st41" x1="221.7" y1="4.9" x2="221.7" y2="1.8"/>
			<polyline class="st41" points="448.3,53.9 446.2,54.2 425.5,49.4 			"/>
			<line class="st41" x1="447.9" y1="64.1" x2="448.3" y2="53.9"/>
			<line class="st41" x1="447.9" y1="64.1" x2="445.8" y2="64.5"/>
			<line class="st41" x1="216.1" y1="89.9" x2="213.2" y2="90.3"/>
			<line class="st41" x1="216.3" y1="101.8" x2="213.4" y2="102.2"/>
			<polyline class="st41" points="216.1,92.1 357.9,69.9 425.1,59.4 			"/>
			<line class="st41" x1="153.7" y1="255.8" x2="147.4" y2="76.8"/>
			<line class="st41" x1="106.1" y1="60.6" x2="113.7" y2="228.3"/>
			<line class="st41" x1="106.8" y1="60.5" x2="106.1" y2="60.6"/>
			<line class="st41" x1="113.7" y1="228.3" x2="153.7" y2="255.8"/>
			<line class="st41" x1="148.1" y1="76.7" x2="147.4" y2="76.8"/>
			<line class="st41" x1="70.3" y1="46.6" x2="78.9" y2="204.2"/>
			<line class="st41" x1="70.9" y1="46.5" x2="70.3" y2="46.6"/>
			<line class="st41" x1="78.9" y1="204.2" x2="113.7" y2="228.2"/>
			<line class="st41" x1="422.2" y1="225.7" x2="421.7" y2="225.8"/>
			<line class="st41" x1="422.2" y1="225.7" x2="428.2" y2="60.1"/>
			<line class="st41" x1="287.9" y1="111.1" x2="286.7" y2="111.3"/>
			<line class="st41" x1="285.8" y1="111" x2="286.7" y2="111.3"/>
			<line class="st41" x1="286.6" y1="264.2" x2="285.8" y2="263.7"/>
			<line class="st41" x1="287.8" y1="263.8" x2="286.6" y2="264.2"/>
			<line class="st41" x1="418" y1="88.2" x2="418.1" y2="86.8"/>
			<line class="st41" x1="417.1" y1="86.5" x2="418.1" y2="86.8"/>
			<line class="st41" x1="418" y1="88.2" x2="417" y2="88.3"/>
			<line class="st41" x1="413.3" y1="228.8" x2="412.2" y2="229.1"/>
			<line class="st41" x1="276.6" y1="113.1" x2="275.3" y2="113.3"/>
			<line class="st41" x1="277" y1="266.9" x2="275.7" y2="267.2"/>
			<line class="st41" x1="211" y1="124.7" x2="209.6" y2="125"/>
			<line class="st41" x1="208.8" y1="124.6" x2="209.6" y2="125"/>
			<line class="st41" x1="212.7" y1="284.8" x2="211.9" y2="284.3"/>
			<line class="st41" x1="214.1" y1="284.4" x2="212.7" y2="284.8"/>
			<line class="st41" x1="276.6" y1="113.1" x2="276.6" y2="111.6"/>
			<line class="st41" x1="275.7" y1="111.3" x2="276.6" y2="111.6"/>
			<line class="st41" x1="198" y1="304.2" x2="197.9" y2="297.8"/>
			<line class="st41" x1="201.6" y1="306.8" x2="201.4" y2="298.9"/>
			<line class="st41" x1="408" y1="243.6" x2="408.1" y2="239.8"/>
			<line class="st41" x1="412.1" y1="245.5" x2="412.4" y2="238.5"/>
			<line class="st41" x1="50.8" y1="198.4" x2="50.5" y2="193.3"/>
			<line class="st41" x1="52.9" y1="199.9" x2="52.6" y2="194.8"/>
			<line class="st41" x1="114.2" y1="238.5" x2="113.7" y2="228.2"/>
			<line class="st41" x1="48.2" y1="182.9" x2="48.7" y2="192"/>
			<polyline class="st41" points="200.7,299.1 200.4,287.5 199.7,287.7 			"/>
			<line class="st41" x1="200.7" y1="299.1" x2="200" y2="299.3"/>
			<line class="st41" x1="152" y1="269.1" x2="151.8" y2="265.1"/>
			<line class="st41" x1="181.2" y1="290" x2="181.1" y2="285.9"/>
			<line class="st41" x1="125.4" y1="250" x2="125.2" y2="246.3"/>
			<line class="st41" x1="101.1" y1="232.7" x2="100.9" y2="229"/>
			<line class="st41" x1="78.8" y1="216.7" x2="78.6" y2="213.2"/>
			<polyline class="st41" points="393.2,295.2 393.5,297.2 394.9,299.1 397.4,300.9 400.9,302.4 405,303.4 409.6,304.1 414.2,304.2 
				418.6,303.7 422.4,302.8 425.4,301.4 427.3,299.8 428.1,297.9 			"/>
			<polyline class="st41" points="427.1,269.6 424.4,268 422.2,267.1 			"/>
			<polyline class="st41" points="401.1,266 399.9,266.3 396.9,267.5 394.9,269 393.9,270.8 			"/>
			<polyline class="st41" points="429,273.3 428.6,271.4 427.1,269.6 			"/>
			<line class="st41" x1="393.2" y1="295.2" x2="393.9" y2="270.8"/>
			<line class="st41" x1="428.1" y1="297.9" x2="429" y2="273.3"/>
			<polyline class="st41" points="184.2,365.1 184.8,367.7 186.8,370 190,372 194.2,373.4 199.1,374.2 204.4,374.3 209.6,373.8 
				214.5,372.5 218.7,370.8 221.8,368.5 223.7,366 224.2,363.4 			"/>
			<polyline class="st41" points="223.8,335.7 223,333.3 220.8,331.2 217.6,329.4 215.6,328.8 			"/>
			<polyline class="st41" points="191.3,329.8 189.5,330.5 186.2,332.5 184.2,334.9 183.4,337.3 			"/>
			<line class="st41" x1="224.2" y1="363.4" x2="223.8" y2="335.7"/>
			<line class="st41" x1="184.2" y1="365.1" x2="183.4" y2="337.3"/>
			<polyline class="st41" points="42.6,249.3 44.6,250.4 47.6,251.3 51.2,251.8 55.2,251.8 59.4,251.5 63.4,250.8 67,249.7 
				69.9,248.4 71.9,246.9 72.9,245.4 72.8,243.9 			"/>
			<line class="st41" x1="41.6" y1="247.9" x2="42.6" y2="249.3"/>
			<polyline class="st41" points="46.2,220.4 43.5,221.5 41.4,222.9 40.2,224.3 40.2,225.8 			"/>
			<line class="st41" x1="72.8" y1="243.9" x2="72.5" y2="238"/>
			<line class="st41" x1="41.6" y1="247.9" x2="40.2" y2="225.8"/>
			<line class="st41" x1="153.7" y1="255.8" x2="199.7" y2="287.7"/>
			<line class="st41" x1="331.6" y1="186.9" x2="330.2" y2="186.3"/>
			<line class="st41" x1="315.7" y1="179.9" x2="316.3" y2="106.1"/>
			<line class="st41" x1="317.1" y1="180.5" x2="315.7" y2="179.9"/>
			<line class="st41" x1="347.5" y1="193.9" x2="346" y2="193.3"/>
			<line class="st41" x1="381.3" y1="208.8" x2="379.7" y2="208.1"/>
			<line class="st41" x1="364" y1="201.2" x2="362.5" y2="200.5"/>
			<line class="st41" x1="399.3" y1="216.8" x2="397.6" y2="216"/>
			<line class="st41" x1="315.7" y1="182.1" x2="315.7" y2="179.9"/>
			<line class="st41" x1="38.9" y1="34.3" x2="48.2" y2="182.9"/>
			<line class="st41" x1="39.5" y1="34.2" x2="38.9" y2="34.3"/>
			<line class="st41" x1="48.2" y1="182.9" x2="78.9" y2="204.2"/>
			<line class="st41" x1="357.9" y1="69.9" x2="358.4" y2="70"/>
			<line class="st41" x1="357.9" y1="96.9" x2="358.4" y2="70"/>
			<line class="st41" x1="196" y1="95.4" x2="196.7" y2="125.2"/>
			<line class="st41" x1="426.8" y1="84.9" x2="427.7" y2="60"/>
			<line class="st41" x1="196.7" y1="125.2" x2="200.4" y2="287.5"/>
			<line class="st41" x1="208.8" y1="123.1" x2="196.7" y2="125.2"/>
			<line class="st41" x1="200.4" y1="287.5" x2="211.9" y2="284.3"/>
			<polyline class="st41" points="421.7,225.8 426.8,84.9 417.1,86.5 			"/>
			<line class="st41" x1="413.3" y1="228.2" x2="421.7" y2="225.8"/>
			<polyline class="st41" points="281.2,70.9 281.2,69.6 184.3,39.7 255.7,31.2 			"/>
			<line class="st41" x1="281.2" y1="70.9" x2="200.7" y2="82.9"/>
			<line class="st41" x1="195.4" y1="83.7" x2="195.3" y2="82.3"/>
			<polyline class="st41" points="105.9,50.3 105.9,49.2 184.3,39.7 			"/>
			<line class="st41" x1="176.7" y1="10.3" x2="255.7" y2="31.2"/>
			<polyline class="st41" points="184.3,39.7 110.5,17 176.7,10.3 			"/>
			<polyline class="st41" points="38.7,25.2 38.6,24.2 110.5,17 			"/>
			<line class="st41" x1="237.8" y1="4.1" x2="321" y2="23.3"/>
			<line class="st41" x1="176.7" y1="10.3" x2="237.8" y2="4.1"/>
			<line class="st41" x1="198.2" y1="81.9" x2="195.3" y2="82.3"/>
			<line class="st41" x1="213.2" y1="90.3" x2="195.4" y2="83.7"/>
			<line class="st41" x1="216.1" y1="89.9" x2="216.1" y2="88.5"/>
			<polyline class="st41" points="421.7,225.8 421.3,236 421.8,235.9 			"/>
			<polyline class="st41" points="285.8,263.7 281.8,264.8 281.8,275.9 			"/>
			<line class="st41" x1="281.8" y1="264.8" x2="277" y2="266.2"/>
			<line class="st41" x1="248.4" y1="150.2" x2="247.3" y2="149.7"/>
			<line class="st41" x1="236.8" y1="145.1" x2="235.7" y2="144.6"/>
			<line class="st41" x1="261" y1="155.8" x2="259.8" y2="155.2"/>
			<line class="st41" x1="315.7" y1="179.9" x2="314.3" y2="179.3"/>
			<line class="st41" x1="301.7" y1="173.7" x2="300.4" y2="173.1"/>
			<polyline class="st41" points="448.4,52.8 427.6,48 425.5,48.3 			"/>
			<line class="st41" x1="448.3" y1="53.9" x2="448.4" y2="52.8"/>
			<line class="st41" x1="27.2" y1="20" x2="27.3" y2="21"/>
			<polyline class="st41" points="39.1,23.3 29.5,19.8 27.2,20 			"/>
			<line class="st41" x1="36.8" y1="24.6" x2="27.3" y2="21"/>
			<line class="st41" x1="36.8" y1="23.6" x2="36.8" y2="24.6"/>
			<line class="st41" x1="39.1" y1="23.3" x2="36.8" y2="23.6"/>
			<line class="st41" x1="221.7" y1="0.9" x2="221.7" y2="1.8"/>
			<polyline class="st41" points="235.5,3.5 223.5,0.7 221.7,0.9 			"/>
			<line class="st41" x1="235.5" y1="3.5" x2="233.7" y2="3.7"/>
			<line class="st41" x1="174.5" y1="9.7" x2="176.7" y2="10.3"/>
			<line class="st41" x1="235.5" y1="3.5" x2="237.8" y2="4.1"/>
			<line class="st41" x1="45.8" y1="181.3" x2="36.6" y2="33.4"/>
			<line class="st41" x1="48.2" y1="182.9" x2="45.8" y2="181.3"/>
			<line class="st41" x1="37.2" y1="33.3" x2="36.6" y2="33.4"/>
			<line class="st41" x1="45.8" y1="181.3" x2="46.4" y2="190.4"/>
			<line class="st41" x1="455.5" y1="247.6" x2="455.6" y2="246.8"/>
			<line class="st41" x1="19.1" y1="197.1" x2="19" y2="196.4"/>
			<line class="st41" x1="421.9" y1="231.8" x2="455.5" y2="246.8"/>
			<line class="st41" x1="19" y1="196.4" x2="47" y2="190.8"/>
			<polyline class="st41" points="221.6,147.3 221.6,145.7 221.2,122.9 			"/>
			<line class="st41" x1="37.2" y1="33.3" x2="27.8" y2="29.7"/>
			<line class="st41" x1="105.9" y1="50.3" x2="87.4" y2="43.4"/>
			<line class="st41" x1="216.1" y1="92.1" x2="216.1" y2="89.9"/>
			<line class="st41" x1="87.9" y1="53.1" x2="70.9" y2="46.5"/>
			<polyline class="st41" points="418,88.2 413.3,228.2 413.3,228.8 			"/>
			<line class="st41" x1="412.2" y1="229.1" x2="411.3" y2="228.7"/>
			<polyline class="st41" points="276.6,113.1 277,266.2 277,266.9 			"/>
			<line class="st41" x1="275.7" y1="267.2" x2="274.9" y2="266.7"/>
			<polyline class="st41" points="207.9,305.1 207.8,301.7 207.7,297.1 			"/>
			<polyline class="st41" points="197.9,304.2 197.9,302.1 197.8,297.7 			"/>
			<polyline class="st41" points="416.9,244.3 417,242.1 417.1,237.2 			"/>
			<polyline class="st41" points="407.9,243.6 408,241.7 408,239.8 			"/>
			<polyline class="st41" points="50.7,198.3 50.7,197.3 50.4,193.2 			"/>
			<line class="st41" x1="48.7" y1="192" x2="50.4" y2="193.2"/>
			<line class="st41" x1="114.2" y1="238.5" x2="125.2" y2="246.3"/>
			<line class="st41" x1="58.3" y1="202" x2="58.1" y2="200"/>
			<polyline class="st41" points="191.3,327.5 191.3,329.8 191.5,337 			"/>
			<polyline class="st41" points="215.4,320.2 215.6,328.8 215.7,336.1 			"/>
			<line class="st41" x1="19.1" y1="197.1" x2="46" y2="217.8"/>
			<line class="st41" x1="189.8" y1="327.9" x2="191.3" y2="327.5"/>
			<polyline class="st41" points="422.6,257.6 422.2,267.1 422,272.8 			"/>
			<polyline class="st41" points="401.2,264.1 401.1,266 400.9,271.3 			"/>
			<polyline class="st41" points="46,217.8 46.2,220.4 46.5,225 			"/>
			<polyline class="st41" points="330.2,186.3 330.2,183.3 331.1,103.5 			"/>
			<polyline class="st41" points="346,193.3 346,190.2 347.5,100.6 			"/>
			<polyline class="st41" points="379.7,208.1 379.7,205 382.5,94.4 			"/>
			<polyline class="st41" points="362.5,200.5 362.5,197.4 364.6,97.6 			"/>
			<polyline class="st41" points="397.6,216 397.7,212.8 401.3,91.1 			"/>
			<line class="st41" x1="87.4" y1="43.4" x2="38.7" y2="25.2"/>
			<polyline class="st41" points="216.1,88.5 200.7,82.9 198.2,81.9 			"/>
			<polyline class="st41" points="422.2,225.7 421.9,231.8 421.8,235.9 			"/>
			<line class="st41" x1="281.8" y1="275.9" x2="408" y2="239.8"/>
			<polyline class="st41" points="247.3,149.7 247.2,147 246.9,118.4 			"/>
			<polyline class="st41" points="235.7,144.6 235.7,143.1 235.4,120.4 			"/>
			<polyline class="st41" points="259.8,155.2 259.8,152.5 259.5,116.1 			"/>
			<polyline class="st41" points="314.3,179.3 314.3,176.4 314.8,106.4 			"/>
			<polyline class="st41" points="300.4,173.1 300.4,170.3 300.6,108.9 			"/>
			<line class="st41" x1="39.1" y1="23.3" x2="174.5" y2="9.7"/>
			<polyline class="st41" points="46.4,190.4 47,190.8 48.7,192 			"/>
			<line class="st41" x1="427.7" y1="60" x2="425.6" y2="59.5"/>
			<polyline class="st41" points="216.3,101.8 216.1,92.3 216.1,92.1 			"/>
			<line class="st41" x1="287.9" y1="111.1" x2="287.9" y2="167.5"/>
			<line class="st41" x1="287.9" y1="169.8" x2="287.9" y2="186.2"/>
			<polyline class="st41" points="405.7,226.2 405.8,223.1 405.8,222.2 			"/>
			<line class="st41" x1="406" y1="216.5" x2="410.1" y2="89.6"/>
			<line class="st41" x1="269.4" y1="190.4" x2="269.3" y2="161.5"/>
			<line class="st41" x1="269.3" y1="156.7" x2="269.1" y2="114.5"/>
			<line class="st41" x1="211" y1="124.7" x2="211.4" y2="147.6"/>
			<line class="st41" x1="211.5" y1="151.3" x2="211.9" y2="172.7"/>
			<line class="st41" x1="50.4" y1="193.2" x2="50.5" y2="193.3"/>
			<line class="st41" x1="125.2" y1="246.3" x2="133.7" y2="252.3"/>
			<polyline class="st41" points="58.1,200 58.1,198.9 58.1,198.7 			"/>
			<line class="st41" x1="46" y1="217.8" x2="46.6" y2="218.2"/>
			<line class="st41" x1="191.3" y1="327.5" x2="191.6" y2="327.4"/>
			<line class="st41" x1="408" y1="239.8" x2="408.1" y2="239.8"/>
			<polyline class="st41" points="200.7,299.1 201.4,298.9 201.5,298.8 207.7,297.1 281.8,275.9 			"/>
			<polyline class="st41" points="174.5,9.7 221.7,4.9 231,4 233.7,3.7 			"/>
			<polyline class="st41" points="445.8,64.5 428.2,60.1 427.7,60 			"/>
			<polyline class="st41" points="287.9,167.5 287.9,167.6 287.9,169.8 			"/>
			<line class="st41" x1="287.9" y1="186.2" x2="287.9" y2="210.7"/>
			<line class="st41" x1="353.6" y1="99.5" x2="349" y2="100.3"/>
			<polyline class="st41" points="405.8,222.2 405.9,219.7 406,216.5 			"/>
			<line class="st41" x1="269.4" y1="201.5" x2="269.4" y2="190.4"/>
			<polyline class="st41" points="269.3,161.5 269.3,159.4 269.3,156.7 			"/>
			<polyline class="st41" points="211.4,147.6 211.5,149.3 211.5,151.3 			"/>
			<line class="st41" x1="211.9" y1="172.7" x2="212.5" y2="203.4"/>
			<line class="st41" x1="235.4" y1="120.4" x2="235.2" y2="120.4"/>
			<line class="st41" x1="216.8" y1="123.7" x2="211" y2="124.7"/>
			<line class="st41" x1="46.6" y1="218.2" x2="47.9" y2="219.2"/>
			<line class="st41" x1="191.6" y1="327.4" x2="192.8" y2="327"/>
			<line class="st41" x1="213.4" y1="102.2" x2="196" y2="95.4"/>
			<line class="st41" x1="287.9" y1="210.7" x2="287.8" y2="255.3"/>
			<polyline class="st41" points="417,88.3 410.1,89.6 407.9,89.9 403.1,90.8 			"/>
			<polyline class="st41" points="349,100.3 347.5,100.6 337.2,102.4 332.6,103.2 			"/>
			<line class="st41" x1="269.7" y1="257.8" x2="269.4" y2="201.5"/>
			<line class="st41" x1="212.5" y1="203.4" x2="212.9" y2="224.9"/>
			<line class="st41" x1="219.4" y1="123.2" x2="216.8" y2="123.7"/>
			<polyline class="st41" points="50.5,193.3 52.6,194.8 52.6,194.8 			"/>
			<polyline class="st41" points="133.7,252.3 137.7,255.1 151.8,265.1 161.1,271.7 			"/>
			<line class="st41" x1="47.9" y1="219.2" x2="49.7" y2="220.6"/>
			<line class="st41" x1="192.8" y1="327" x2="194.7" y2="326.4"/>
			<polyline class="st41" points="408.1,239.8 412.4,238.5 412.5,238.5 417.1,237.2 421.3,236 			"/>
			<line class="st41" x1="287.8" y1="255.3" x2="287.8" y2="262.8"/>
			<polyline class="st41" points="403.1,90.8 401.3,91.1 388.9,93.3 384.2,94.1 			"/>
			<line class="st41" x1="370.8" y1="96.5" x2="366.2" y2="97.3"/>
			<polyline class="st41" points="332.6,103.2 331.1,103.5 322.2,105.1 			"/>
			<line class="st41" x1="292" y1="110.4" x2="287.9" y2="111.1"/>
			<polyline class="st41" points="269.7,263.7 269.7,260.3 269.7,257.8 			"/>
			<line class="st41" x1="212.9" y1="224.9" x2="213.9" y2="275.5"/>
			<polyline class="st41" points="240.7,119.5 236.5,120.2 235.4,120.4 			"/>
			<polyline class="st41" points="235.2,120.4 221.2,122.9 219.4,123.2 			"/>
			<polyline class="st41" points="52.6,194.8 58.1,198.7 64.6,203.3 			"/>
			<line class="st41" x1="49.7" y1="220.6" x2="52" y2="222.3"/>
			<line class="st41" x1="194.7" y1="326.4" x2="197.2" y2="325.7"/>
			<polyline class="st41" points="287.8,262.8 287.8,263.1 287.8,263.8 			"/>
			<polyline class="st41" points="384.2,94.1 382.5,94.4 370.8,96.5 			"/>
			<polyline class="st41" points="366.2,97.3 364.6,97.6 353.6,99.5 			"/>
			<line class="st41" x1="322.2" y1="105.1" x2="317.7" y2="105.9"/>
			<line class="st41" x1="306.4" y1="107.9" x2="302" y2="108.6"/>
			<line class="st41" x1="213.9" y1="275.5" x2="214" y2="283.3"/>
			<line class="st41" x1="252.3" y1="117.4" x2="248.1" y2="118.2"/>
			<polyline class="st41" points="64.6,203.3 68.4,206 78.6,213.2 85.7,218.2 			"/>
			<polyline class="st41" points="161.1,271.7 165.3,274.7 181.1,285.9 191.3,293.1 			"/>
			<line class="st41" x1="52" y1="222.3" x2="54.5" y2="224.3"/>
			<line class="st41" x1="197.2" y1="325.7" x2="200.1" y2="324.8"/>
			<line class="st41" x1="317.7" y1="105.9" x2="316.3" y2="106.1"/>
			<polyline class="st41" points="302,108.6 300.6,108.9 292,110.4 			"/>
			<polyline class="st41" points="214,283.3 214,283.7 214,284.4 			"/>
			<line class="st41" x1="265" y1="115.2" x2="260.8" y2="115.9"/>
			<polyline class="st41" points="248.1,118.2 246.9,118.4 240.7,119.5 			"/>
			<line class="st41" x1="191.3" y1="293.1" x2="195.6" y2="296.1"/>
			<line class="st41" x1="54.5" y1="224.3" x2="57.1" y2="226.3"/>
			<line class="st41" x1="200.1" y1="324.8" x2="203.3" y2="323.8"/>
			<polyline class="st41" points="316.3,106.1 314.8,106.4 306.4,107.9 			"/>
			<polyline class="st41" points="275.3,113.3 269.1,114.5 265,115.2 			"/>
			<polyline class="st41" points="260.8,115.9 259.5,116.1 252.3,117.4 			"/>
			<polyline class="st41" points="85.7,218.2 89.5,221 100.9,229 108.6,234.5 			"/>
			<line class="st41" x1="195.6" y1="296.1" x2="197.8" y2="297.7"/>
			<line class="st41" x1="203.3" y1="323.8" x2="206.4" y2="322.9"/>
			<polyline class="st41" points="108.6,234.5 112.6,237.3 114.2,238.5 			"/>
			<polyline class="st41" points="197.8,297.7 197.9,297.8 200,299.3 			"/>
			<line class="st41" x1="57.1" y1="226.3" x2="58" y2="226.9"/>
			<line class="st41" x1="66" y1="233.1" x2="69.1" y2="235.5"/>
			<line class="st41" x1="206.4" y1="322.9" x2="209.4" y2="322"/>
			<line class="st41" x1="62.2" y1="230.1" x2="66" y2="233.1"/>
			<line class="st41" x1="69.1" y1="235.5" x2="71.3" y2="237.1"/>
			<line class="st41" x1="209.4" y1="322" x2="211.9" y2="321.2"/>
			<polyline class="st41" points="58,226.9 60.4,228.8 62.2,230.1 			"/>
			<line class="st41" x1="71.3" y1="237.1" x2="72.5" y2="238"/>
			<line class="st41" x1="211.9" y1="321.2" x2="213.8" y2="320.7"/>
			<polyline class="st41" points="72.5,238 72.5,238 189.8,327.9 			"/>
			<polyline class="st41" points="213.8,320.7 215,320.3 215.4,320.2 			"/>
			<polyline class="st41" points="401.4,264 402.3,263.7 403.9,263.2 			"/>
			<polyline class="st41" points="215.4,320.2 401.2,264.1 401.4,264 			"/>
			<polyline class="st41" points="403.9,263.2 406,262.6 408.6,261.8 411.4,261 414.2,260.1 416.8,259.3 419.1,258.6 420.9,258.1 
							"/>
			<line class="st41" x1="422.6" y1="257.6" x2="455.5" y2="247.6"/>
			<polyline class="st41" points="420.9,258.1 422.1,257.7 422.6,257.6 			"/>
			<line class="st41" x1="196" y1="95.4" x2="148.1" y2="76.7"/>
			<line class="st41" x1="37.2" y1="33.3" x2="39.5" y2="34.2"/>
			<line class="st41" x1="87.9" y1="53.1" x2="106.8" y2="60.5"/>
		</g>
	</g>
</g>
</svg>
