<?xml version="1.0" encoding="utf-8"?>
<!-- Generator: Adobe Illustrator 20.1.0, SVG Export Plug-In . SVG Version: 6.00 Build 0)  -->
<svg version="1.1" id="Layer_17_1_" xmlns="http://www.w3.org/2000/svg" xmlns:xlink="http://www.w3.org/1999/xlink" x="0px"
	 y="0px" viewBox="0 0 473.1 375" style="enable-background:new 0 0 473.1 375;" xml:space="preserve">
<style type="text/css">
	.st0{fill:#BDA27C;}
	.st1{fill:#DFC093;}
	.st2{fill:#F7C283;}
	.st3{fill:#D1A46E;}
	.st4{fill:#8F7B5C;}
	.st5{fill:#414141;}
	.st6{fill:#686868;}
	.st7{fill:#8A8A8B;}
	.st8{fill:#272727;}
	.st9{fill:#2C2C2C;}
	.st10{fill:#222222;}
	.st11{fill:#A4A4A5;}
	.st12{fill:#363636;}
	.st13{fill:#543404;}
	.st14{fill:#6A4109;}
	.st15{fill:#87550D;}
	.st16{fill:#9F6512;}
	.st17{fill:#B17115;}
	.st18{fill:#BD7918;}
	.st19{fill:#C27C19;}
	.st20{fill:#BF7B18;}
	.st21{fill:#B67416;}
	.st22{fill:#A66A14;}
	.st23{fill:#915B0F;}
	.st24{fill:#75490A;}
	.st25{fill:#6F4508;}
	.st26{fill:#7D4621;}
	.st27{fill:#653718;}
	.st28{fill:#A95F2F;}
	.st29{fill:#915127;}
	.st30{fill:#A45C2E;}
	.st31{fill:#A75E2E;}
	.st32{fill:#9F592B;}
	.st33{fill:#8A4D25;}
	.st34{fill:#75411E;}
	.st35{fill:#5B3115;}
	.st36{fill:#49260E;}
	.st37{fill:#777777;}
	.st38{fill:#997D21;}
	.st39{fill:#8C8D8D;}
	.st40{fill:#BBBBBC;}
	.st41{fill:#9E9E9E;}
	.st42{fill:none;stroke:#000000;stroke-width:0.5;stroke-linecap:round;stroke-linejoin:round;stroke-miterlimit:10;}
	.st43{fill:none;stroke:#000000;stroke-linecap:round;stroke-linejoin:round;stroke-miterlimit:10;}
</style>
<g>
	<g>
		<g>
			<polygon class="st0" points="425.5,49.4 425.5,48.3 446.3,53.1 446.2,54.2 			"/>
			<polygon class="st1" points="425.5,48.3 425.5,49.4 358.1,59.4 358.1,58.2 			"/>
			<polygon class="st2" points="358.1,59.4 425.5,49.4 425.1,59.4 357.9,69.9 216.1,92.1 216.1,89.9 216.1,88.5 200.7,82.9 
				281.2,70.9 			"/>
			<polygon class="st1" points="358.1,59.4 281.2,70.9 281.2,69.6 358.1,58.2 			"/>
			<polygon class="st3" points="425.1,59.4 425.5,49.4 446.2,54.2 445.8,64.5 428.6,60.2 426.5,59.7 426.4,59.7 426.2,59.7 
				426.2,59.7 425.6,59.5 			"/>
			<polygon class="st4" points="425.1,59.4 425.6,59.5 358.4,70 357.9,69.9 			"/>
			<polygon class="st2" points="445.8,64.5 446.2,54.2 448.3,53.9 447.9,64.1 			"/>
			<polygon class="st1" points="448.3,53.9 446.2,54.2 446.3,53.1 448.4,52.8 			"/>
			<polygon class="st4" points="321,23.3 427.6,48 425.5,48.3 358.1,58.2 255.7,31.2 			"/>
			<polygon class="st4" points="255.7,31.2 358.1,58.2 281.2,69.6 184.3,39.7 			"/>
			<polygon class="st4" points="321,23.3 255.7,31.2 176.7,10.3 237.8,4.1 			"/>
			<polygon class="st3" points="27.8,29.7 27.3,21 36.8,24.6 38.7,25.2 87.4,43.4 87.9,53.1 70.9,46.5 39.5,34.2 37.2,33.3 			"/>
			<polygon class="st0" points="38.7,25.2 36.8,24.6 36.8,23.6 38.6,24.2 			"/>
			<polygon class="st4" points="39.5,34.2 70.9,46.5 70.3,46.6 38.9,34.3 			"/>
			<polygon class="st3" points="87.9,53.1 87.4,43.4 105.9,50.3 195.4,83.7 213.2,90.3 213.4,102.2 196.8,95.7 196.7,95.7 
				196.6,95.7 196,95.4 148.1,76.7 106.8,60.5 			"/>
			<polygon class="st0" points="195.4,83.7 105.9,50.3 105.9,49.2 195.3,82.3 			"/>
			<polygon class="st4" points="106.8,60.5 148.1,76.7 147.4,76.8 106.1,60.6 			"/>
			<polygon class="st3" points="221.7,4.9 221.7,1.8 231,4 			"/>
			<polygon class="st0" points="231,4 221.7,1.8 221.7,0.9 233.7,3.7 			"/>
			<polygon class="st2" points="213.4,102.2 213.2,90.3 216.1,89.9 216.1,92.1 216.1,92.3 216.1,92.6 216.1,92.7 216.3,101.8 			"/>
			<polygon class="st1" points="216.1,89.9 213.2,90.3 213.2,89 216.1,88.5 			"/>
			<polygon class="st5" points="213.4,102.2 216.3,101.8 216.1,92.7 426.5,59.7 428.6,60.2 427.7,84.8 427.4,84.9 423,85.7 
				418.1,86.5 417.6,86.4 285.9,109.5 285.9,109.7 285.8,109.7 276.7,111.3 276.2,111.1 208.8,123 208.8,123.2 208.7,123.2 
				196.2,125.4 195.5,95.9 196.8,95.7 			"/>
			<polygon class="st6" points="208.8,123 276.2,111.1 276.7,111.3 277,111.4 209.5,123.2 			"/>
			<polygon class="st7" points="208.8,123.2 208.7,123.2 208.8,124.7 209,124.8 209.5,125.1 209.5,123.2 208.8,123 			"/>
			<polygon class="st5" points="208.7,123.2 208.8,124.7 209,124.8 209.7,161.6 197,164.2 196.1,125.4 196.2,125.4 			"/>
			<polygon class="st6" points="285.9,109.5 417.6,86.4 418.1,86.5 418.4,86.6 286.6,109.7 			"/>
			<polygon class="st7" points="285.9,109.7 285.8,109.7 285.8,111.1 286,111.2 286.6,111.4 286.6,109.7 285.9,109.5 			"/>
			<polygon class="st5" points="285.8,109.7 285.8,111.1 286,111.2 286,263.8 286,274.8 286,274.9 276.4,277.6 276.3,267 277,266.9 
				276.6,113.2 277,113.1 277,111.4 276.7,111.3 			"/>
			<polygon class="st4" points="216.1,92.1 357.9,69.9 358.4,70 216.1,92.3 			"/>
			<polygon class="st4" points="106.8,60.5 106.1,60.6 70.3,46.6 70.9,46.5 87.9,53.1 			"/>
			<polygon class="st0" points="106.1,60.6 147.4,76.8 147.4,77 106.1,60.8 			"/>
			<polygon class="st8" points="106.1,60.8 147.4,77 195.3,95.8 195.5,95.8 195.5,95.9 195.4,95.9 36.4,33.5 36.6,33.5 36.6,33.5 
				36.6,33.6 36.6,33.6 38.9,34.5 70.3,46.8 			"/>
			<polygon class="st0" points="106.1,60.8 70.3,46.8 70.3,46.6 106.1,60.6 			"/>
			<polygon class="st0" points="195.3,95.8 147.4,77 147.4,76.8 195.3,95.5 			"/>
			<polygon class="st0" points="70.3,46.8 38.9,34.5 38.9,34.3 70.3,46.6 			"/>
			<polygon class="st0" points="38.9,34.5 36.6,33.6 36.6,33.5 36.6,33.5 36.6,33.4 38.9,34.3 			"/>
			<polygon class="st4" points="147.4,76.8 148.1,76.7 196,95.4 195.3,95.5 			"/>
			<polygon class="st9" points="276.6,113.2 277,266.9 276.3,267 276.3,267.1 275.7,267.2 275.3,113.4 			"/>
			<polygon class="st1" points="275.3,113.4 275.7,267.2 214.1,284.4 211,124.8 			"/>
			<polygon class="st9" points="211,124.8 214,284.4 212.7,284.8 209.6,125 			"/>
			<polygon class="st10" points="209.6,125 212.7,284.8 212.1,284.4 211.1,232.9 211,227 209.8,167.6 209.7,161.6 209,124.8 
				209.5,125.1 			"/>
			<polygon class="st11" points="212.1,284.4 212.7,284.8 214.1,284.4 275.7,267.2 276.3,267.1 276.3,277.6 212.4,295.9 			"/>
			<polygon class="st12" points="276.3,267.1 276.3,277.6 276.4,277.6 276.3,267 			"/>
			<polygon class="st13" points="393.2,295.2 393.5,297.2 394.2,272.6 393.9,270.8 			"/>
			<polygon class="st14" points="394.9,299.1 393.5,297.2 394.2,272.6 395.6,274.5 			"/>
			<polygon class="st15" points="397.4,300.9 394.9,299.1 395.7,274.5 398.2,276.1 			"/>
			<polygon class="st16" points="400.9,302.4 397.4,300.9 398.2,276.1 401.7,277.6 			"/>
			<polygon class="st17" points="405,303.4 400.9,302.4 401.7,277.6 405.8,278.6 			"/>
			<polygon class="st18" points="409.6,304.1 405,303.4 405.8,278.6 410.4,279.2 			"/>
			<polygon class="st19" points="414.2,304.2 409.6,304.1 410.4,279.2 415.1,279.3 			"/>
			<polygon class="st20" points="418.6,303.7 414.2,304.2 415.1,279.3 419.5,278.9 			"/>
			<polygon class="st21" points="422.4,302.8 418.6,303.7 419.5,278.9 423.3,278 			"/>
			<polygon class="st22" points="425.4,301.4 422.4,302.8 423.3,278 426.3,276.7 			"/>
			<polygon class="st23" points="427.3,299.8 425.4,301.4 426.3,276.7 428.3,275.1 			"/>
			<polygon class="st24" points="428.1,297.9 427.3,299.8 428.3,275.1 429,273.3 			"/>
			<polygon class="st25" points="424.4,268 427.1,269.6 428.6,271.4 429,273.3 428.3,275.1 426.3,276.7 423.3,278 419.5,278.9 
				415.1,279.3 410.4,279.2 405.8,278.6 401.7,277.6 398.2,276.1 395.6,274.5 394.2,272.6 393.9,270.8 394.9,269 396.9,267.5 
				399.9,266.3 401.1,266 400.9,271.3 401.1,272.4 402,273.5 403.5,274.5 405.6,275.3 408.1,275.9 410.8,276.3 413.6,276.3 
				416.2,276.1 418.5,275.6 420.3,274.8 421.5,273.9 422,272.8 422.2,267.1 			"/>
			<polygon class="st26" points="421.5,273.9 420.3,274.8 420.9,258.1 422.1,257.7 			"/>
			<polygon class="st16" points="405.6,275.3 403.5,274.5 403.9,263.2 406,262.6 			"/>
			<polygon class="st13" points="401.2,264.1 401.1,266 400.9,271.3 401.1,272.4 401.4,264 			"/>
			<polygon class="st27" points="422,272.8 421.5,273.9 422.1,257.7 422.6,257.6 422.2,267.1 			"/>
			<polygon class="st28" points="413.6,276.3 410.8,276.3 411.4,261 414.2,260.1 			"/>
			<polygon class="st15" points="403.5,274.5 402,273.5 402.3,263.7 403.9,263.2 			"/>
			<polygon class="st14" points="402,273.5 401.1,272.4 401.4,264 402.3,263.7 			"/>
			<polygon class="st29" points="420.3,274.8 418.5,275.6 419.1,258.6 420.9,258.1 			"/>
			<polygon class="st30" points="410.8,276.3 408.1,275.9 408.6,261.8 411.4,261 			"/>
			<polygon class="st31" points="416.2,276.1 413.6,276.3 414.2,260.1 416.8,259.3 			"/>
			<polygon class="st32" points="418.5,275.6 416.2,276.1 416.8,259.3 419.1,258.6 			"/>
			<polygon class="st17" points="408.1,275.9 405.6,275.3 406,262.6 408.6,261.8 			"/>
			<polygon class="st14" points="184.8,367.7 184.2,365.1 183.4,337.3 184,339.8 			"/>
			<polygon class="st15" points="186.8,370 184.8,367.7 184,339.8 186,342 			"/>
			<polygon class="st16" points="190,372 186.8,370 186,342 189.2,343.9 			"/>
			<polygon class="st17" points="194.2,373.4 190,372 189.2,343.9 193.5,345.2 			"/>
			<polygon class="st18" points="199.1,374.2 194.2,373.4 193.5,345.2 198.4,346 			"/>
			<polygon class="st19" points="204.4,374.3 199.1,374.2 198.4,346 203.7,346.1 			"/>
			<polygon class="st20" points="209.6,373.8 204.4,374.3 203.7,346.1 209.1,345.6 			"/>
			<polygon class="st21" points="214.5,372.5 209.6,373.8 209,345.6 214,344.4 			"/>
			<polygon class="st22" points="218.7,370.8 214.5,372.5 214,344.4 218.1,342.7 			"/>
			<polygon class="st23" points="221.8,368.5 218.7,370.8 218.1,342.7 221.3,340.6 			"/>
			<polygon class="st24" points="223.7,366 221.8,368.5 221.3,340.6 223.2,338.2 			"/>
			<polygon class="st13" points="224.2,363.4 223.7,366 223.2,338.2 223.8,335.7 			"/>
			<polygon class="st25" points="198.4,346 193.5,345.2 189.2,343.9 186,342 184,339.8 183.4,337.3 184.2,334.9 186.2,332.5 
				189.5,330.5 191.3,329.8 191.5,337 191.9,338.5 193.1,339.8 195,340.9 197.6,341.7 200.5,342.2 203.7,342.3 206.9,341.9 
				209.8,341.2 212.3,340.2 214.2,339 215.4,337.5 215.7,336.1 215.6,328.8 217.6,329.4 220.8,331.2 223,333.3 223.8,335.7 
				223.2,338.2 221.3,340.6 218.1,342.7 214,344.4 209,345.6 203.7,346.1 			"/>
			<polygon class="st31" points="206.9,341.9 203.7,342.3 203.3,323.8 206.4,322.9 			"/>
			<polygon class="st28" points="203.7,342.3 200.5,342.2 200.1,324.8 203.3,323.8 			"/>
			<polygon class="st30" points="200.5,342.2 197.6,341.7 197.2,325.7 200.1,324.8 			"/>
			<polygon class="st32" points="209.8,341.2 206.9,341.9 206.4,322.9 209.4,322 			"/>
			<polygon class="st17" points="197.6,341.7 195,340.9 194.7,326.4 197.2,325.7 			"/>
			<polygon class="st22" points="212.3,340.2 209.8,341.2 209.4,322 211.9,321.2 			"/>
			<polygon class="st33" points="195,340.9 193.1,339.8 192.8,327 194.7,326.4 			"/>
			<polygon class="st23" points="214.2,339 212.3,340.2 211.9,321.2 213.8,320.7 			"/>
			<polygon class="st34" points="193.1,339.8 191.9,338.5 191.6,327.4 192.8,327 			"/>
			<polygon class="st27" points="215.4,337.5 214.2,339 213.8,320.7 215,320.3 			"/>
			<polygon class="st35" points="191.3,327.5 191.3,329.8 191.5,337 191.9,338.5 191.6,327.4 			"/>
			<polygon class="st36" points="215,320.3 215.4,337.5 215.7,336.1 215.6,328.8 215.4,320.2 			"/>
			<polygon class="st16" points="44.6,250.4 42.6,249.3 41.2,227.1 43.2,228.2 			"/>
			<polygon class="st17" points="47.6,251.3 44.6,250.4 43.2,228.2 46.2,229 			"/>
			<polygon class="st18" points="51.2,251.8 47.6,251.3 46.2,229 49.8,229.4 			"/>
			<polygon class="st19" points="55.2,251.8 51.2,251.8 49.8,229.4 53.8,229.5 			"/>
			<polygon class="st20" points="59.4,251.5 55.2,251.8 53.8,229.5 58,229.2 			"/>
			<polygon class="st21" points="63.4,250.8 59.4,251.5 58,229.2 60.4,228.8 62.2,230.1 			"/>
			<polygon class="st22" points="67,249.7 63.4,250.8 62.2,230.1 66,233.1 			"/>
			<polygon class="st23" points="69.9,248.4 67,249.7 66,233.1 69.1,235.4 			"/>
			<polygon class="st24" points="71.9,246.9 69.9,248.4 69.1,235.5 71.3,237.1 			"/>
			<polygon class="st13" points="72.9,245.4 71.9,246.9 71.3,237.1 72.5,238 			"/>
			<polygon class="st14" points="72.9,245.4 72.8,243.9 72.5,238 72.5,238 			"/>
			<polygon class="st15" points="42.6,249.3 41.6,247.9 40.2,225.8 41.2,227.1 			"/>
			<polygon class="st25" points="43.2,228.2 41.2,227.1 40.2,225.8 40.2,224.3 41.4,222.9 43.5,221.5 46.2,220.4 46.5,225 
				47.1,225.8 48.4,226.4 50.1,226.9 52.3,227.2 54.7,227.2 57.2,227 58,226.9 60.4,228.8 58,229.2 53.8,229.5 49.8,229.4 46.2,229 
							"/>
			<polygon class="st34" points="47.1,225.8 46.5,225 46.2,220.4 46,217.8 46.6,218.2 			"/>
			<polygon class="st16" points="48.4,226.4 47.1,225.8 46.6,218.2 47.9,219.2 			"/>
			<polygon class="st17" points="50.1,226.9 48.4,226.4 47.9,219.2 49.7,220.6 			"/>
			<polygon class="st18" points="52.3,227.2 50.1,226.9 49.7,220.6 52,222.3 			"/>
			<polygon class="st19" points="54.7,227.2 52.3,227.2 52,222.3 54.5,224.3 			"/>
			<polygon class="st20" points="57.2,227 54.7,227.2 54.5,224.3 57.1,226.3 			"/>
			<polygon class="st21" points="57.2,227 58,226.9 57.1,226.3 			"/>
			<polygon class="st1" points="195.3,95.5 195.3,95.8 195.5,95.8 196,95.8 196,95.4 			"/>
			<polygon class="st1" points="196,95.8 196.6,95.7 196,95.4 			"/>
			<polygon class="st4" points="36.6,33.4 38.9,34.3 39.5,34.2 37.2,33.3 			"/>
			<polygon class="st1" points="216.1,92.3 358.4,70 358.4,70.4 216.1,92.6 			"/>
			<polygon class="st1" points="358.4,70.4 358.4,70 425.6,59.5 426.2,59.7 418,60.9 418,61 			"/>
			<polygon class="st8" points="418,60.9 426.2,59.7 426.2,59.7 			"/>
			<polygon class="st12" points="418,61 418,61 418,60.9 418,60.9 			"/>
			<polygon class="st1" points="281.2,69.6 281.2,70.9 200.7,82.9 198.2,81.9 			"/>
			<polygon class="st4" points="184.3,39.7 281.2,69.6 198.2,81.9 195.3,82.3 105.9,49.2 			"/>
			<path class="st4" d="M145.1,22.6l24.8,7.5l45.7-5.2l-26-7L145.1,22.6z M255.7,31.2l-71.4,8.6L110.5,17l66.2-6.7L255.7,31.2"/>
			<polygon class="st0" points="195.4,83.7 195.3,82.3 213.2,89 213.2,90.3 			"/>
			<polygon class="st0" points="105.9,49.2 105.9,50.3 87.4,43.4 38.7,25.2 38.6,24.2 			"/>
			<polygon class="st4" points="184.3,39.7 105.9,49.2 38.6,24.2 110.5,17 			"/>
			<polygon class="st4" points="176.7,10.3 110.5,17 38.6,24.2 36.8,23.6 39.1,23.3 174.5,9.7 			"/>
			<polygon class="st4" points="237.8,4.1 176.7,10.3 174.5,9.7 221.7,4.9 231,4 233.7,3.7 235.5,3.5 			"/>
			<polygon class="st6" points="422.3,225.3 422.4,225.3 413.3,227.9 413.3,227.8 			"/>
			<polygon class="st5" points="422.3,225.3 413.3,227.8 414.8,182.7 423.9,180.5 			"/>
			<polygon class="st11" points="413.3,227.9 422.4,225.3 422.2,231.9 422,235.9 417.1,237.3 412.5,238.6 412.4,238.7 408.1,239.9 
				408,239.9 286,274.8 286,263.8 286.6,264.2 287.8,263.8 352.7,245.7 412.2,229.1 413.3,228.8 			"/>
			<polygon class="st10" points="286,263.8 286.6,264.2 286.7,111.4 286.6,111.4 286,111.2 			"/>
			<polygon class="st9" points="286.6,264.2 286.7,111.4 287.9,111.2 287.8,263.8 			"/>
			<polygon class="st1" points="287.8,263.8 287.9,111.2 355.4,99.3 352.7,245.7 			"/>
			<polygon class="st9" points="413.3,228.8 412.2,229.1 417,88.4 418,88.2 418,89.4 416.9,120.1 416.8,125.4 415,177.6 
				414.8,182.7 413.3,227.8 413.3,227.9 			"/>
			<polygon class="st1" points="417,88.4 412.2,229.1 352.7,245.7 355.4,99.3 			"/>
			<polygon class="st37" points="212.4,295.9 276.3,277.6 276.4,277.6 286,274.9 286,274.8 408,239.9 408,241.7 407.4,241.8 
				406.3,242.3 405.6,243 405.3,243.6 405.6,244.3 406.3,245 407.5,245.6 409,246.1 410.7,246.4 412.5,246.6 414.4,246.6 
				416.1,246.4 417.5,246 418.6,245.5 419.3,244.9 419.5,244.2 419.2,243.5 418.5,242.8 417.3,242.2 417,242.1 417.1,237.3 
				422,235.9 422.2,231.9 455.5,246.8 189.8,326.9 19,196.4 46.9,190.8 50.4,193.3 50.7,197.3 50.2,197.4 49.1,197.9 48.4,198.4 
				48.1,198.9 48.2,199.5 48.7,199.9 49.6,200.3 50.9,200.6 52.4,200.7 54,200.7 55.7,200.6 57.3,200.3 58.1,200 58.3,202 
				64.8,206.7 68.3,206 78.6,213.3 78.8,216.7 85.9,221.8 89.5,221 100.9,229.1 101.1,232.7 108.8,238.2 112.5,237.3 125.2,246.4 
				125.4,250 133.8,256.1 137.6,255.1 151.8,265.2 152,269.1 161.2,275.7 165.2,274.7 181.1,286 181.2,290 191.4,297.3 195.5,296.2 
				197.8,297.8 197.9,302.1 196.8,302.6 195.6,303.4 194.9,304.3 194.8,305.2 195.2,306.1 196.2,306.9 197.6,307.6 199.4,308 
				201.4,308.2 203.6,308.2 205.7,307.9 207.6,307.5 209.1,306.8 210.3,305.9 210.9,305 211,304.1 210.6,303.2 209.6,302.4 
				208.2,301.8 207.8,301.7 207.7,297.3 			"/>
			<polygon class="st37" points="195.2,306.1 194.8,305.2 194.9,304.3 195.6,303.4 196.8,302.6 197.9,302.1 197.9,304.2 198,304.2 
				201.6,306.8 201.7,306.9 207.9,305.1 207.8,301.7 208.2,301.8 209.6,302.4 210.6,303.2 211,304.1 210.9,305 210.3,305.9 
				209.1,306.8 207.6,307.5 205.7,307.9 203.6,308.2 201.4,308.2 199.4,308 197.6,307.6 196.2,306.9 			"/>
			<polygon class="st11" points="207.9,305.1 201.7,306.9 201.6,299 207.7,297.3 207.8,301.7 			"/>
			<polygon class="st7" points="197.9,302.1 197.9,304.2 198,304.2 197.9,297.9 197.8,297.8 			"/>
			<polygon class="st7" points="201.5,299.1 201.6,306.8 201.7,306.9 201.6,299 			"/>
			<polygon class="st38" points="201.6,306.8 198,304.2 197.9,297.9 199.9,299.3 200,299.4 200.1,299.5 201.5,299.1 			"/>
			<polygon class="st39" points="406.3,245 405.6,244.3 405.3,243.6 405.6,243 406.3,242.3 407.4,241.8 408,241.7 407.9,243.6 
				408,243.6 412.1,245.5 412.3,245.6 416.9,244.3 417,242.1 417.3,242.2 418.5,242.8 419.2,243.5 419.5,244.2 419.3,244.9 
				418.6,245.5 417.5,246 416.1,246.4 414.4,246.6 412.5,246.6 410.7,246.4 409,246.1 407.5,245.6 			"/>
			<polygon class="st11" points="416.9,244.3 412.3,245.6 412.5,238.6 417.1,237.3 417,242.1 			"/>
			<polygon class="st7" points="408,239.9 408,241.7 407.9,243.6 408,243.6 408.1,239.9 			"/>
			<polygon class="st7" points="412.4,238.7 412.1,245.5 412.3,245.6 412.5,238.6 			"/>
			<polygon class="st38" points="412.1,245.5 408,243.6 408.1,239.9 412.4,238.7 			"/>
			<polygon class="st39" points="48.2,199.5 48.1,198.9 48.4,198.4 49.1,197.9 50.2,197.4 50.7,197.3 50.7,198.3 50.8,198.4 
				52.9,199.9 53,199.9 58.1,198.9 58.1,200 57.3,200.3 55.7,200.6 54,200.7 52.4,200.7 50.9,200.6 49.6,200.3 48.7,199.9 			"/>
			<polygon class="st11" points="58.1,198.9 53,199.9 52.7,194.9 58.1,198.7 			"/>
			<polygon class="st7" points="50.7,197.3 50.7,198.3 50.8,198.4 50.5,193.4 50.4,193.3 			"/>
			<polygon class="st7" points="52.9,199.9 53,199.9 52.6,194.9 52.6,194.9 			"/>
			<polygon class="st38" points="52.9,199.9 50.8,198.4 50.5,193.4 52.6,194.9 			"/>
			<polygon class="st40" points="165.2,274.7 161.2,275.7 161.1,271.8 			"/>
			<polygon class="st41" points="161.2,275.7 152,269.1 151.8,265.2 161.1,271.8 			"/>
			<polygon class="st40" points="195.5,296.2 191.4,297.3 191.3,293.3 			"/>
			<polygon class="st41" points="191.4,297.3 181.2,290 181.1,286 191.3,293.3 			"/>
			<polygon class="st40" points="137.6,255.1 133.8,256.1 133.7,252.4 			"/>
			<polygon class="st41" points="133.8,256.1 125.4,250 125.2,246.4 133.7,252.4 			"/>
			<polygon class="st40" points="112.5,237.3 108.8,238.2 108.6,234.6 			"/>
			<polygon class="st41" points="108.8,238.2 101.1,232.7 100.9,229.1 108.6,234.6 			"/>
			<polygon class="st40" points="89.5,221 85.9,221.8 85.7,218.3 			"/>
			<polygon class="st41" points="85.9,221.8 78.8,216.7 78.6,213.3 85.7,218.3 			"/>
			<polygon class="st40" points="68.3,206 64.8,206.7 64.6,203.4 			"/>
			<polygon class="st41" points="64.8,206.7 58.3,202 58.1,200 58.1,198.9 58.1,198.7 64.6,203.4 			"/>
			<polygon class="st7" points="200,299.4 199.9,299.3 199.6,287.7 195.1,284.6 195.1,284.1 199.7,287.3 			"/>
			<polygon class="st12" points="200,299.4 199.7,287.3 195.1,284.1 195.1,284.6 199.6,287.7 199.9,299.3 197.9,297.9 197.8,297.8 
				195.5,296.2 191.3,293.3 181.1,286 165.2,274.7 161.1,271.8 151.8,265.2 137.6,255.1 133.7,252.4 125.2,246.4 112.5,237.3 
				108.6,234.6 100.9,229.1 89.5,221 85.7,218.3 78.6,213.3 68.3,206 64.6,203.4 58.1,198.7 52.6,194.9 52.6,194.9 50.5,193.4 
				50.4,193.3 46.9,190.8 46.3,190.4 43.2,141 198.6,236 200.1,299.5 			"/>
			<polygon class="st12" points="198.6,236 43.2,141 42.9,136.5 198.5,230.1 			"/>
			<polygon class="st4" points="195.3,82.3 198.2,81.9 200.7,82.9 216.1,88.5 213.2,89 			"/>
			<polygon class="st4" points="427.6,48 448.4,52.8 446.3,53.1 425.5,48.3 			"/>
			<polygon class="st0" points="27.3,21 27.2,20 36.8,23.6 36.8,24.6 			"/>
			<polygon class="st4" points="29.5,19.8 39.1,23.3 36.8,23.6 27.2,20 			"/>
			<polygon class="st4" points="223.5,0.7 235.5,3.5 233.7,3.7 221.7,0.9 			"/>
			<polygon class="st40" points="455.5,246.8 455.5,247.6 422.6,257.6 422.1,257.7 420.9,258.1 419.1,258.6 416.8,259.3 
				414.2,260.1 411.4,261 408.6,261.8 406,262.6 403.9,263.2 402.3,263.7 401.4,264 401.2,264.1 215.4,320.2 215,320.3 213.8,320.7 
				211.9,321.2 209.4,322 206.4,322.9 203.3,323.8 200.1,324.8 197.2,325.7 194.7,326.4 192.8,327 191.6,327.4 191.3,327.5 
				189.8,327.9 189.8,326.9 			"/>
			<polygon class="st41" points="189.8,326.9 189.8,327.9 72.5,238 72.5,238 71.3,237.1 69.1,235.4 66,233.1 62.2,230.1 60.4,228.8 
				58,226.9 57.1,226.3 54.5,224.3 52,222.3 49.7,220.6 47.9,219.2 46.6,218.2 46,217.8 19.1,197.1 19,196.4 			"/>
			<polygon class="st5" points="423.9,180.5 414.8,182.7 415,177.6 424.1,175.4 			"/>
			<polygon class="st5" points="424.1,175.4 415,177.6 416.8,125.4 426,123.5 			"/>
			<polygon class="st12" points="198.5,230.1 42.9,136.5 40,90.3 197.1,170.2 			"/>
			<polygon class="st5" points="418,60.9 426.2,59.7 426.4,59.7 418,61 			"/>
			<polygon class="st5" points="426,123.5 416.8,125.4 416.9,120.1 426.2,118.2 			"/>
			<polygon class="st5" points="426.2,118.2 416.9,120.1 418,89.4 422.9,88.5 423,85.7 427.4,84.9 			"/>
			<polygon class="st12" points="197.1,170.2 40,90.3 39.7,85.7 197,164.2 			"/>
			<polygon class="st12" points="197,164.2 39.7,85.7 36.4,33.5 195.4,95.9 196.1,125.4 			"/>
			<polygon class="st5" points="36.6,33.6 36.6,33.6 36.6,33.5 			"/>
			<polygon class="st8" points="196,95.8 195.5,95.8 195.5,95.9 196.7,95.7 196.6,95.7 			"/>
			<polygon class="st8" points="195.5,95.9 195.4,95.9 195.5,95.9 196.8,95.7 196.7,95.7 			"/>
			<polygon class="st12" points="196.1,125.4 196.2,125.4 195.5,95.9 195.4,95.9 			"/>
			<polygon class="st8" points="426.5,59.7 216.1,92.7 216.1,92.6 358.4,70.4 418,61 418,61 426.4,59.7 			"/>
			<polygon class="st11" points="209.5,123.2 277,111.4 277,113.1 276.6,113.2 275.3,113.4 211,124.8 209.6,125 209.5,125.1 			"/>
			<polygon class="st11" points="286.6,109.7 418.4,86.6 418.4,88.2 418,88.2 417,88.4 355.4,99.3 287.9,111.2 286.7,111.4 
				286.6,111.4 			"/>
			<polygon class="st11" points="418.4,88.2 418.4,86.6 418.1,86.5 423,85.7 422.9,88.5 418,89.4 418,88.2 			"/>
			<polygon class="st5" points="209.7,161.6 209.8,167.7 197.1,170.2 197,164.2 			"/>
			<polygon class="st5" points="211.1,232.9 212.1,284.4 212.4,295.9 212.4,295.9 207.7,297.3 201.6,299 201.5,299.1 200.1,299.5 
				198.6,236 			"/>
			<polygon class="st5" points="211,227 211.1,232.9 198.6,236 198.5,230.1 			"/>
			<polygon class="st5" points="209.8,167.6 211,227 198.5,230.1 197.1,170.2 			"/>
			<polygon class="st4" points="170,30.1 145.1,22.6 189.7,17.9 215.7,24.9 			"/>
			<line class="st42" x1="195.2" y1="306.1" x2="194.8" y2="305.2"/>
			<line class="st42" x1="195.2" y1="306.1" x2="196.2" y2="306.9"/>
			<line class="st42" x1="210.9" y1="305" x2="211" y2="304.1"/>
			<line class="st42" x1="210.3" y1="305.9" x2="210.9" y2="305"/>
			<line class="st42" x1="209.1" y1="306.8" x2="210.3" y2="305.9"/>
			<line class="st42" x1="207.6" y1="307.5" x2="209.1" y2="306.8"/>
			<line class="st42" x1="205.7" y1="307.9" x2="207.6" y2="307.5"/>
			<line class="st42" x1="203.6" y1="308.2" x2="205.7" y2="307.9"/>
			<line class="st42" x1="201.4" y1="308.2" x2="203.6" y2="308.2"/>
			<line class="st42" x1="199.4" y1="308" x2="201.4" y2="308.2"/>
			<line class="st42" x1="197.6" y1="307.6" x2="199.4" y2="308"/>
			<line class="st42" x1="196.2" y1="306.9" x2="197.6" y2="307.6"/>
			<polyline class="st42" points="405.6,244.3 406.3,245 407.5,245.6 			"/>
			<line class="st42" x1="419.3" y1="244.9" x2="419.5" y2="244.2"/>
			<line class="st42" x1="418.6" y1="245.5" x2="419.3" y2="244.9"/>
			<line class="st42" x1="417.5" y1="246" x2="418.6" y2="245.5"/>
			<line class="st42" x1="416.1" y1="246.4" x2="417.5" y2="246"/>
			<line class="st42" x1="414.4" y1="246.6" x2="416.1" y2="246.4"/>
			<line class="st42" x1="412.5" y1="246.6" x2="414.4" y2="246.6"/>
			<line class="st42" x1="410.7" y1="246.4" x2="412.5" y2="246.6"/>
			<line class="st42" x1="409" y1="246.1" x2="410.7" y2="246.4"/>
			<line class="st42" x1="407.5" y1="245.6" x2="409" y2="246.1"/>
			<line class="st42" x1="405.6" y1="244.3" x2="405.3" y2="243.6"/>
			<line class="st42" x1="48.2" y1="199.5" x2="48.1" y2="198.9"/>
			<line class="st42" x1="48.2" y1="199.5" x2="48.7" y2="199.9"/>
			<line class="st42" x1="57.3" y1="200.3" x2="58.1" y2="200"/>
			<line class="st42" x1="55.7" y1="200.6" x2="57.3" y2="200.3"/>
			<line class="st42" x1="54" y1="200.7" x2="55.7" y2="200.6"/>
			<line class="st42" x1="52.4" y1="200.7" x2="54" y2="200.7"/>
			<line class="st42" x1="50.9" y1="200.6" x2="52.4" y2="200.7"/>
			<line class="st42" x1="49.6" y1="200.3" x2="50.9" y2="200.6"/>
			<line class="st42" x1="48.7" y1="199.9" x2="49.6" y2="200.3"/>
			<line class="st42" x1="145.1" y1="22.6" x2="170" y2="30.1"/>
			<line class="st42" x1="170" y1="30.1" x2="215.7" y2="24.9"/>
			<line class="st42" x1="420.3" y1="274.8" x2="421.5" y2="273.9"/>
			<line class="st42" x1="403.5" y1="274.5" x2="405.6" y2="275.3"/>
			<line class="st42" x1="401.1" y1="272.4" x2="400.9" y2="271.3"/>
			<line class="st42" x1="421.5" y1="273.9" x2="422" y2="272.8"/>
			<line class="st42" x1="410.8" y1="276.3" x2="413.6" y2="276.3"/>
			<line class="st42" x1="402" y1="273.5" x2="403.5" y2="274.5"/>
			<line class="st42" x1="402" y1="273.5" x2="401.1" y2="272.4"/>
			<line class="st42" x1="418.5" y1="275.6" x2="420.3" y2="274.8"/>
			<line class="st42" x1="408.1" y1="275.9" x2="410.8" y2="276.3"/>
			<polyline class="st42" points="413.6,276.3 416.2,276.1 418.5,275.6 			"/>
			<line class="st42" x1="405.6" y1="275.3" x2="408.1" y2="275.9"/>
			<line class="st42" x1="203.7" y1="342.3" x2="206.9" y2="341.9"/>
			<line class="st42" x1="200.5" y1="342.2" x2="203.7" y2="342.3"/>
			<line class="st42" x1="197.6" y1="341.7" x2="200.5" y2="342.2"/>
			<line class="st42" x1="206.9" y1="341.9" x2="209.8" y2="341.2"/>
			<line class="st42" x1="195" y1="340.9" x2="197.6" y2="341.7"/>
			<line class="st42" x1="209.8" y1="341.2" x2="212.3" y2="340.2"/>
			<line class="st42" x1="193.1" y1="339.8" x2="195" y2="340.9"/>
			<line class="st42" x1="212.3" y1="340.2" x2="214.2" y2="339"/>
			<line class="st42" x1="193.1" y1="339.8" x2="191.9" y2="338.5"/>
			<line class="st42" x1="214.2" y1="339" x2="215.4" y2="337.5"/>
			<line class="st42" x1="191.9" y1="338.5" x2="191.5" y2="337"/>
			<line class="st42" x1="215.4" y1="337.5" x2="215.7" y2="336.1"/>
			<line class="st42" x1="47.1" y1="225.8" x2="46.5" y2="225"/>
			<polyline class="st42" points="47.1,225.8 48.4,226.4 50.1,226.9 52.3,227.2 54.7,227.2 57.2,227 58,226.9 			"/>
			<line class="st42" x1="200" y1="299.4" x2="199.7" y2="287.3"/>
			<line class="st42" x1="195.1" y1="284.1" x2="199.7" y2="287.3"/>
			<line class="st42" x1="39.7" y1="85.7" x2="197" y2="164.2"/>
			<line class="st42" x1="445.8" y1="64.5" x2="446.2" y2="54.2"/>
			<line class="st42" x1="213.4" y1="102.2" x2="213.2" y2="90.3"/>
			<line class="st42" x1="147.4" y1="76.8" x2="106.1" y2="60.6"/>
			<line class="st42" x1="106.1" y1="60.6" x2="70.3" y2="46.6"/>
			<line class="st42" x1="286.7" y1="111.4" x2="286.6" y2="264.2"/>
			<line class="st42" x1="209.6" y1="125" x2="212.7" y2="284.8"/>
			<line class="st42" x1="201.7" y1="306.9" x2="201.6" y2="299"/>
			<line class="st42" x1="412.3" y1="245.6" x2="412.5" y2="238.6"/>
			<line class="st42" x1="53" y1="199.9" x2="52.6" y2="194.9"/>
			<line class="st42" x1="161.2" y1="275.7" x2="161.1" y2="271.8"/>
			<line class="st42" x1="191.4" y1="297.3" x2="191.3" y2="293.3"/>
			<line class="st42" x1="133.8" y1="256.1" x2="133.7" y2="252.4"/>
			<line class="st42" x1="108.8" y1="238.2" x2="108.6" y2="234.6"/>
			<line class="st42" x1="85.9" y1="221.8" x2="85.7" y2="218.3"/>
			<line class="st42" x1="64.8" y1="206.7" x2="64.6" y2="203.4"/>
			<polyline class="st42" points="393.9,270.8 394.2,272.6 395.6,274.5 398.2,276.1 401.7,277.6 405.8,278.6 410.4,279.2 
				415.1,279.3 419.5,278.9 423.3,278 426.3,276.7 428.3,275.1 429,273.3 			"/>
			<polyline class="st42" points="193.5,345.2 198.4,346 203.7,346.1 209.1,345.6 214,344.4 218.1,342.7 221.3,340.6 223.2,338.2 
				223.8,335.7 			"/>
			<polyline class="st42" points="183.4,337.3 184,339.8 186,342 189.2,343.9 193.5,345.2 			"/>
			<polyline class="st42" points="41.2,227.1 43.2,228.2 46.2,229 49.8,229.4 53.8,229.5 58,229.2 60.4,228.8 			"/>
			<line class="st42" x1="40.2" y1="225.8" x2="41.2" y2="227.1"/>
			<polyline class="st42" points="195.3,95.8 195.3,95.5 147.4,76.8 			"/>
			<line class="st42" x1="196" y1="95.4" x2="195.3" y2="95.5"/>
			<line class="st42" x1="70.3" y1="46.6" x2="38.9" y2="34.3"/>
			<line class="st42" x1="358.4" y1="70" x2="216.1" y2="92.3"/>
			<line class="st42" x1="425.6" y1="59.5" x2="358.4" y2="70"/>
			<line class="st42" x1="358.1" y1="58.2" x2="281.2" y2="69.6"/>
			<line class="st42" x1="195.3" y1="82.3" x2="105.9" y2="49.2"/>
			<line class="st42" x1="105.9" y1="49.2" x2="38.6" y2="24.2"/>
			<line class="st42" x1="422.4" y1="225.3" x2="413.3" y2="227.9"/>
			<line class="st42" x1="213.2" y1="89" x2="213.2" y2="90.3"/>
			<line class="st42" x1="213.2" y1="89" x2="195.3" y2="82.3"/>
			<line class="st42" x1="216.1" y1="88.5" x2="213.2" y2="89"/>
			<line class="st42" x1="446.3" y1="53.1" x2="446.2" y2="54.2"/>
			<line class="st42" x1="446.3" y1="53.1" x2="425.5" y2="48.3"/>
			<line class="st42" x1="448.4" y1="52.8" x2="446.3" y2="53.1"/>
			<line class="st42" x1="36.8" y1="23.6" x2="27.2" y2="20"/>
			<line class="st42" x1="233.7" y1="3.7" x2="221.7" y2="0.9"/>
			<line class="st42" x1="36.8" y1="23.6" x2="38.6" y2="24.2"/>
			<line class="st42" x1="36.6" y1="33.4" x2="38.9" y2="34.3"/>
			<line class="st42" x1="455.5" y1="246.8" x2="189.8" y2="326.9"/>
			<polyline class="st42" points="189.8,327.9 189.8,326.9 19,196.4 			"/>
			<line class="st42" x1="416.9" y1="120.1" x2="426.2" y2="118.2"/>
			<line class="st42" x1="415" y1="177.6" x2="424.1" y2="175.4"/>
			<line class="st42" x1="198.5" y1="230.1" x2="42.9" y2="136.5"/>
			<line class="st42" x1="418" y1="60.9" x2="426.2" y2="59.7"/>
			<line class="st42" x1="195.4" y1="95.9" x2="36.4" y2="33.5"/>
			<line class="st42" x1="36.6" y1="33.5" x2="36.6" y2="33.6"/>
			<line class="st42" x1="195.5" y1="95.8" x2="195.5" y2="95.9"/>
			<line class="st42" x1="418" y1="60.9" x2="418" y2="60.9"/>
			<line class="st42" x1="418" y1="61" x2="418" y2="60.9"/>
			<polyline class="st42" points="195.4,95.9 195.5,95.9 196.8,95.7 			"/>
			<line class="st42" x1="216.1" y1="92.7" x2="426.5" y2="59.7"/>
			<line class="st42" x1="196.2" y1="125.4" x2="195.5" y2="95.9"/>
			<line class="st42" x1="276.3" y1="267" x2="276.4" y2="277.6"/>
			<polyline class="st42" points="277,111.4 209.5,123.2 209.5,125.1 			"/>
			<polyline class="st42" points="418.4,86.6 286.6,109.7 286.6,111.4 			"/>
			<line class="st42" x1="285.9" y1="109.5" x2="286.6" y2="109.7"/>
			<line class="st42" x1="208.8" y1="123" x2="209.5" y2="123.2"/>
			<line class="st42" x1="425.5" y1="48.3" x2="358.1" y2="58.2"/>
			<line class="st42" x1="281.2" y1="69.6" x2="198.2" y2="81.9"/>
			<line class="st42" x1="197" y1="164.2" x2="197.1" y2="170.2"/>
			<polyline class="st42" points="198.5,230.1 198.6,236 200.1,299.5 			"/>
			<line class="st42" x1="197.1" y1="170.2" x2="198.5" y2="230.1"/>
			<line class="st42" x1="196.1" y1="125.4" x2="197" y2="164.2"/>
			<line class="st42" x1="209.7" y1="161.6" x2="197" y2="164.2"/>
			<line class="st42" x1="198.5" y1="230.1" x2="211" y2="227"/>
			<line class="st43" x1="425.5" y1="49.4" x2="425.5" y2="48.3"/>
			<line class="st43" x1="36.8" y1="24.6" x2="38.7" y2="25.2"/>
			<line class="st43" x1="39.5" y1="34.2" x2="70.9" y2="46.5"/>
			<line class="st43" x1="281.2" y1="70.9" x2="358.1" y2="59.4"/>
			<line class="st43" x1="425.1" y1="59.4" x2="425.5" y2="49.4"/>
			<line class="st43" x1="425.1" y1="59.4" x2="425.6" y2="59.5"/>
			<line class="st43" x1="105.9" y1="50.3" x2="195.4" y2="83.7"/>
			<line class="st43" x1="106.8" y1="60.5" x2="148.1" y2="76.7"/>
			<line class="st43" x1="106.1" y1="60.8" x2="147.4" y2="77"/>
			<line class="st43" x1="70.3" y1="46.8" x2="106.1" y2="60.8"/>
			<line class="st43" x1="201.7" y1="306.9" x2="207.9" y2="305.1"/>
			<line class="st43" x1="197.9" y1="304.2" x2="198" y2="304.2"/>
			<line class="st43" x1="201.6" y1="306.8" x2="201.7" y2="306.9"/>
			<line class="st43" x1="198" y1="304.2" x2="201.6" y2="306.8"/>
			<polyline class="st43" points="194.9,304.3 195.6,303.4 196.8,302.6 197.9,302.1 			"/>
			<polyline class="st43" points="207.8,301.7 208.2,301.8 209.6,302.4 210.6,303.2 			"/>
			<line class="st43" x1="211" y1="304.1" x2="210.6" y2="303.2"/>
			<line class="st43" x1="194.8" y1="305.2" x2="194.9" y2="304.3"/>
			<line class="st43" x1="412.3" y1="245.6" x2="416.9" y2="244.3"/>
			<line class="st43" x1="407.9" y1="243.6" x2="408" y2="243.6"/>
			<line class="st43" x1="412.1" y1="245.5" x2="412.3" y2="245.6"/>
			<line class="st43" x1="408" y1="243.6" x2="412.1" y2="245.5"/>
			<line class="st43" x1="419.5" y1="244.2" x2="419.2" y2="243.5"/>
			<polyline class="st43" points="405.3,243.6 405.6,243 406.3,242.3 407.4,241.8 408,241.7 			"/>
			<polyline class="st43" points="417,242.1 417.3,242.2 418.5,242.8 419.2,243.5 			"/>
			<line class="st43" x1="53" y1="199.9" x2="58.1" y2="198.9"/>
			<line class="st43" x1="50.7" y1="198.3" x2="50.8" y2="198.4"/>
			<line class="st43" x1="52.9" y1="199.9" x2="53" y2="199.9"/>
			<line class="st43" x1="50.8" y1="198.4" x2="52.9" y2="199.9"/>
			<polyline class="st43" points="48.4,198.4 49.1,197.9 50.2,197.4 50.7,197.3 			"/>
			<line class="st43" x1="48.1" y1="198.9" x2="48.4" y2="198.4"/>
			<line class="st43" x1="189.7" y1="17.9" x2="215.7" y2="24.9"/>
			<line class="st43" x1="145.1" y1="22.6" x2="189.7" y2="17.9"/>
			<line class="st43" x1="147.4" y1="77" x2="195.3" y2="95.8"/>
			<line class="st43" x1="38.9" y1="34.5" x2="70.3" y2="46.8"/>
			<line class="st43" x1="276.3" y1="277.6" x2="276.3" y2="267.1"/>
			<line class="st43" x1="199.9" y1="299.3" x2="200" y2="299.4"/>
			<line class="st43" x1="199.9" y1="299.3" x2="199.6" y2="287.7"/>
			<line class="st43" x1="195.1" y1="284.6" x2="195.1" y2="284.1"/>
			<line class="st43" x1="195.1" y1="284.6" x2="199.6" y2="287.7"/>
			<line class="st43" x1="36.6" y1="33.6" x2="38.9" y2="34.5"/>
			<line class="st43" x1="43.2" y1="141" x2="198.6" y2="236"/>
			<polyline class="st43" points="425.5,49.4 358.1,59.4 358.1,58.2 			"/>
			<line class="st43" x1="321" y1="23.3" x2="427.6" y2="48"/>
			<polyline class="st43" points="358.1,58.2 255.7,31.2 321,23.3 			"/>
			<line class="st43" x1="27.8" y1="29.7" x2="27.3" y2="21"/>
			<line class="st43" x1="87.9" y1="53.1" x2="87.4" y2="43.4"/>
			<line class="st43" x1="231" y1="4" x2="221.7" y2="1.8"/>
			<line class="st43" x1="221.7" y1="4.9" x2="221.7" y2="1.8"/>
			<polyline class="st43" points="448.3,53.9 446.2,54.2 425.5,49.4 			"/>
			<line class="st43" x1="447.9" y1="64.1" x2="448.3" y2="53.9"/>
			<line class="st43" x1="447.9" y1="64.1" x2="445.8" y2="64.5"/>
			<line class="st43" x1="216.1" y1="89.9" x2="213.2" y2="90.3"/>
			<line class="st43" x1="216.3" y1="101.8" x2="213.4" y2="102.2"/>
			<polyline class="st43" points="216.1,92.1 357.9,69.9 425.1,59.4 			"/>
			<line class="st43" x1="147.4" y1="77" x2="147.4" y2="76.8"/>
			<line class="st43" x1="106.1" y1="60.6" x2="106.1" y2="60.8"/>
			<line class="st43" x1="106.8" y1="60.5" x2="106.1" y2="60.6"/>
			<line class="st43" x1="148.1" y1="76.7" x2="147.4" y2="76.8"/>
			<line class="st43" x1="70.3" y1="46.6" x2="70.3" y2="46.8"/>
			<line class="st43" x1="70.9" y1="46.5" x2="70.3" y2="46.6"/>
			<line class="st43" x1="287.9" y1="111.2" x2="287.8" y2="263.8"/>
			<line class="st43" x1="286.6" y1="264.2" x2="286" y2="263.8"/>
			<line class="st43" x1="287.8" y1="263.8" x2="286.6" y2="264.2"/>
			<line class="st43" x1="417" y1="88.4" x2="412.2" y2="229.1"/>
			<line class="st43" x1="413.3" y1="228.8" x2="412.2" y2="229.1"/>
			<line class="st43" x1="276.6" y1="113.2" x2="277" y2="266.9"/>
			<line class="st43" x1="275.3" y1="113.4" x2="275.7" y2="267.2"/>
			<line class="st43" x1="211" y1="124.8" x2="214" y2="284.4"/>
			<line class="st43" x1="212.7" y1="284.8" x2="212.1" y2="284.4"/>
			<line class="st43" x1="214.1" y1="284.4" x2="212.7" y2="284.8"/>
			<line class="st43" x1="275.7" y1="267.2" x2="214" y2="284.4"/>
			<line class="st43" x1="352.7" y1="245.7" x2="287.8" y2="263.8"/>
			<line class="st43" x1="355.4" y1="99.3" x2="352.7" y2="245.7"/>
			<line class="st43" x1="412.2" y1="229.1" x2="352.7" y2="245.7"/>
			<line class="st43" x1="198" y1="304.2" x2="197.9" y2="297.9"/>
			<line class="st43" x1="201.6" y1="306.8" x2="201.5" y2="299.1"/>
			<line class="st43" x1="408" y1="243.6" x2="408.1" y2="239.9"/>
			<line class="st43" x1="412.1" y1="245.5" x2="412.4" y2="238.7"/>
			<line class="st43" x1="50.8" y1="198.4" x2="50.5" y2="193.4"/>
			<line class="st43" x1="52.9" y1="199.9" x2="52.6" y2="194.9"/>
			<line class="st43" x1="152" y1="269.1" x2="151.8" y2="265.2"/>
			<line class="st43" x1="181.2" y1="290" x2="181.1" y2="286"/>
			<line class="st43" x1="125.4" y1="250" x2="125.2" y2="246.4"/>
			<line class="st43" x1="101.1" y1="232.7" x2="100.9" y2="229.1"/>
			<line class="st43" x1="78.8" y1="216.7" x2="78.6" y2="213.3"/>
			<polyline class="st43" points="393.2,295.2 393.5,297.2 394.9,299.1 397.4,300.9 400.9,302.4 405,303.4 409.6,304.1 414.2,304.2 
				418.6,303.7 422.4,302.8 425.4,301.4 427.3,299.8 428.1,297.9 			"/>
			<polyline class="st43" points="427.1,269.6 424.4,268 422.2,267.1 			"/>
			<polyline class="st43" points="401.1,266 399.9,266.3 396.9,267.5 394.9,269 393.9,270.8 			"/>
			<polyline class="st43" points="429,273.3 428.6,271.4 427.1,269.6 			"/>
			<line class="st43" x1="393.2" y1="295.2" x2="393.9" y2="270.8"/>
			<line class="st43" x1="428.1" y1="297.9" x2="429" y2="273.3"/>
			<polyline class="st43" points="184.2,365.1 184.8,367.7 186.8,370 190,372 194.2,373.4 199.1,374.2 204.4,374.3 209.6,373.8 
				214.5,372.5 218.7,370.8 221.8,368.5 223.7,366 224.2,363.4 			"/>
			<polyline class="st43" points="223.8,335.7 223,333.3 220.8,331.2 217.6,329.4 215.6,328.8 			"/>
			<polyline class="st43" points="191.3,329.8 189.5,330.5 186.2,332.5 184.2,334.9 183.4,337.3 			"/>
			<line class="st43" x1="224.2" y1="363.4" x2="223.8" y2="335.7"/>
			<line class="st43" x1="184.2" y1="365.1" x2="183.4" y2="337.3"/>
			<polyline class="st43" points="42.6,249.3 44.6,250.4 47.6,251.3 51.2,251.8 55.2,251.8 59.4,251.5 63.4,250.8 67,249.7 
				69.9,248.4 71.9,246.9 72.9,245.4 72.8,243.9 			"/>
			<line class="st43" x1="41.6" y1="247.9" x2="42.6" y2="249.3"/>
			<polyline class="st43" points="46.2,220.4 43.5,221.5 41.4,222.9 40.2,224.3 40.2,225.8 			"/>
			<line class="st43" x1="72.8" y1="243.9" x2="72.5" y2="238"/>
			<line class="st43" x1="41.6" y1="247.9" x2="40.2" y2="225.8"/>
			<line class="st43" x1="196" y1="95.8" x2="196" y2="95.4"/>
			<line class="st43" x1="38.9" y1="34.3" x2="38.9" y2="34.5"/>
			<line class="st43" x1="39.5" y1="34.2" x2="38.9" y2="34.3"/>
			<line class="st43" x1="357.9" y1="69.9" x2="358.4" y2="70"/>
			<line class="st43" x1="358.4" y1="70.4" x2="358.4" y2="70"/>
			<polyline class="st43" points="281.2,70.9 281.2,69.6 184.3,39.7 255.7,31.2 			"/>
			<line class="st43" x1="281.2" y1="70.9" x2="200.7" y2="82.9"/>
			<line class="st43" x1="195.4" y1="83.7" x2="195.3" y2="82.3"/>
			<polyline class="st43" points="105.9,50.3 105.9,49.2 184.3,39.7 			"/>
			<line class="st43" x1="176.7" y1="10.3" x2="255.7" y2="31.2"/>
			<polyline class="st43" points="184.3,39.7 110.5,17 176.7,10.3 			"/>
			<polyline class="st43" points="38.7,25.2 38.6,24.2 110.5,17 			"/>
			<line class="st43" x1="237.8" y1="4.1" x2="321" y2="23.3"/>
			<line class="st43" x1="176.7" y1="10.3" x2="237.8" y2="4.1"/>
			<line class="st43" x1="422.3" y1="225.3" x2="422.4" y2="225.3"/>
			<line class="st43" x1="212.4" y1="295.9" x2="276.3" y2="277.6"/>
			<line class="st43" x1="198.2" y1="81.9" x2="195.3" y2="82.3"/>
			<line class="st43" x1="213.2" y1="90.3" x2="195.4" y2="83.7"/>
			<line class="st43" x1="216.1" y1="89.9" x2="216.1" y2="88.5"/>
			<polyline class="st43" points="448.4,52.8 427.6,48 425.5,48.3 			"/>
			<line class="st43" x1="448.3" y1="53.9" x2="448.4" y2="52.8"/>
			<line class="st43" x1="27.2" y1="20" x2="27.3" y2="21"/>
			<polyline class="st43" points="39.1,23.3 29.5,19.8 27.2,20 			"/>
			<line class="st43" x1="36.8" y1="24.6" x2="27.3" y2="21"/>
			<line class="st43" x1="36.8" y1="23.6" x2="36.8" y2="24.6"/>
			<line class="st43" x1="39.1" y1="23.3" x2="36.8" y2="23.6"/>
			<line class="st43" x1="221.7" y1="0.9" x2="221.7" y2="1.8"/>
			<polyline class="st43" points="235.5,3.5 223.5,0.7 221.7,0.9 			"/>
			<line class="st43" x1="235.5" y1="3.5" x2="233.7" y2="3.7"/>
			<line class="st43" x1="174.5" y1="9.7" x2="176.7" y2="10.3"/>
			<line class="st43" x1="235.5" y1="3.5" x2="237.8" y2="4.1"/>
			<line class="st43" x1="37.2" y1="33.3" x2="36.6" y2="33.4"/>
			<line class="st43" x1="455.5" y1="247.6" x2="455.6" y2="246.8"/>
			<line class="st43" x1="19.1" y1="197.1" x2="19" y2="196.4"/>
			<line class="st43" x1="422.2" y1="231.9" x2="455.5" y2="246.8"/>
			<line class="st43" x1="19" y1="196.4" x2="46.9" y2="190.8"/>
			<line class="st43" x1="414.8" y1="182.7" x2="423.9" y2="180.5"/>
			<line class="st43" x1="36.4" y1="33.5" x2="36.6" y2="33.5"/>
			<line class="st43" x1="416.8" y1="125.4" x2="426" y2="123.5"/>
			<line class="st43" x1="40" y1="90.3" x2="197.1" y2="170.2"/>
			<line class="st43" x1="195.5" y1="95.9" x2="196.7" y2="95.7"/>
			<line class="st43" x1="196.1" y1="125.4" x2="196.2" y2="125.4"/>
			<line class="st43" x1="428.6" y1="60.2" x2="427.7" y2="84.8"/>
			<line class="st43" x1="196.1" y1="125.4" x2="195.4" y2="95.9"/>
			<line class="st43" x1="276.4" y1="277.6" x2="286" y2="274.9"/>
			<line class="st43" x1="276.3" y1="277.6" x2="276.4" y2="277.6"/>
			<line class="st43" x1="277" y1="113.1" x2="277" y2="111.4"/>
			<line class="st43" x1="418.4" y1="88.2" x2="418.4" y2="86.6"/>
			<line class="st43" x1="423" y1="85.7" x2="422.9" y2="88.5"/>
			<line class="st43" x1="418" y1="89.4" x2="422.9" y2="88.5"/>
			<polyline class="st43" points="209.8,167.6 209.7,161.6 209,124.8 			"/>
			<polyline class="st43" points="212.1,284.4 211.1,232.9 211,227 			"/>
			<line class="st43" x1="37.2" y1="33.3" x2="27.8" y2="29.7"/>
			<line class="st43" x1="216.1" y1="92.1" x2="216.1" y2="89.9"/>
			<line class="st43" x1="87.9" y1="53.1" x2="70.9" y2="46.5"/>
			<line class="st43" x1="276.3" y1="267.1" x2="275.7" y2="267.2"/>
			<polyline class="st43" points="207.9,305.1 207.8,301.7 207.7,297.3 			"/>
			<polyline class="st43" points="197.9,304.2 197.9,302.1 197.8,297.8 			"/>
			<polyline class="st43" points="416.9,244.3 417,242.1 417.1,237.3 			"/>
			<polyline class="st43" points="407.9,243.6 408,241.7 408,239.9 			"/>
			<polyline class="st43" points="50.7,198.3 50.7,197.3 50.4,193.3 			"/>
			<line class="st43" x1="58.3" y1="202" x2="58.1" y2="200"/>
			<polyline class="st43" points="191.3,327.5 191.3,329.8 191.5,337 			"/>
			<polyline class="st43" points="215.4,320.2 215.6,328.8 215.7,336.1 			"/>
			<line class="st43" x1="19.1" y1="197.1" x2="46" y2="217.8"/>
			<line class="st43" x1="189.8" y1="327.9" x2="191.3" y2="327.5"/>
			<polyline class="st43" points="422.6,257.6 422.2,267.1 422,272.8 			"/>
			<polyline class="st43" points="401.2,264.1 401.1,266 400.9,271.3 			"/>
			<polyline class="st43" points="46,217.8 46.2,220.4 46.5,225 			"/>
			<polyline class="st43" points="105.9,50.3 87.4,43.4 38.7,25.2 			"/>
			<polyline class="st43" points="422,235.9 422.2,231.9 422.4,225.3 			"/>
			<line class="st43" x1="286" y1="274.8" x2="408" y2="239.9"/>
			<polyline class="st43" points="216.1,88.5 200.7,82.9 198.2,81.9 			"/>
			<line class="st43" x1="39.1" y1="23.3" x2="174.5" y2="9.7"/>
			<line class="st43" x1="36.6" y1="33.5" x2="36.6" y2="33.4"/>
			<line class="st43" x1="423.9" y1="180.5" x2="424.1" y2="175.4"/>
			<line class="st43" x1="42.9" y1="136.5" x2="43.2" y2="141"/>
			<line class="st43" x1="422.3" y1="225.3" x2="423.9" y2="180.5"/>
			<line class="st43" x1="46.3" y1="190.4" x2="46.9" y2="190.8"/>
			<line class="st43" x1="43.2" y1="141" x2="46.3" y2="190.4"/>
			<polyline class="st43" points="426,123.5 426.2,118.2 427.4,84.9 			"/>
			<polyline class="st43" points="36.4,33.5 39.7,85.7 40,90.3 			"/>
			<polyline class="st43" points="195.3,95.8 195.5,95.8 196,95.8 196.6,95.7 			"/>
			<line class="st43" x1="423" y1="85.7" x2="418.1" y2="86.5"/>
			<polyline class="st43" points="285.9,109.7 285.8,109.7 276.7,111.3 			"/>
			<polyline class="st43" points="208.8,123.2 208.7,123.2 196.2,125.4 			"/>
			<line class="st43" x1="209.5" y1="125.1" x2="209.6" y2="125"/>
			<line class="st43" x1="286.6" y1="111.4" x2="286.7" y2="111.4"/>
			<polyline class="st43" points="285.8,111.1 286,111.2 286.6,111.4 			"/>
			<polyline class="st43" points="418.4,86.6 418.1,86.5 417.6,86.4 			"/>
			<polyline class="st43" points="276.2,111.1 276.7,111.3 277,111.4 			"/>
			<polyline class="st43" points="208.8,124.7 209,124.8 209.5,125.1 			"/>
			<line class="st43" x1="211" y1="227" x2="209.8" y2="167.7"/>
			<line class="st43" x1="426.2" y1="59.7" x2="425.6" y2="59.5"/>
			<line class="st43" x1="216.1" y1="92.3" x2="216.1" y2="92.1"/>
			<polyline class="st43" points="413.3,227.8 413.3,227.9 413.3,228.8 			"/>
			<polyline class="st43" points="277,266.9 276.3,267 276.3,267.1 			"/>
			<polyline class="st43" points="58.1,200 58.1,198.9 58.1,198.7 			"/>
			<line class="st43" x1="46" y1="217.8" x2="46.6" y2="218.2"/>
			<line class="st43" x1="191.3" y1="327.5" x2="191.6" y2="327.4"/>
			<line class="st43" x1="408" y1="239.9" x2="408.1" y2="239.9"/>
			<polyline class="st43" points="174.5,9.7 221.7,4.9 231,4 233.7,3.7 			"/>
			<polyline class="st43" points="36.6,33.6 36.6,33.5 36.6,33.5 			"/>
			<line class="st43" x1="424.1" y1="175.4" x2="426" y2="123.5"/>
			<line class="st43" x1="40" y1="90.3" x2="42.9" y2="136.5"/>
			<line class="st43" x1="46.9" y1="190.8" x2="50.4" y2="193.3"/>
			<polyline class="st43" points="201.5,299.1 201.6,299 207.7,297.3 212.4,295.9 			"/>
			<polyline class="st43" points="427.7,84.8 427.4,84.9 423,85.7 			"/>
			<polyline class="st43" points="216.1,92.6 358.4,70.4 418,61 418,61 426.4,59.7 			"/>
			<polyline class="st43" points="286,274.9 286,274.8 286,263.8 			"/>
			<line class="st43" x1="286.7" y1="111.4" x2="287.9" y2="111.2"/>
			<line class="st43" x1="426.2" y1="59.7" x2="426.2" y2="59.7"/>
			<line class="st43" x1="216.1" y1="92.6" x2="216.1" y2="92.3"/>
			<polyline class="st43" points="418,88.2 418,89.4 416.9,120.1 			"/>
			<line class="st43" x1="414.8" y1="182.7" x2="413.3" y2="227.8"/>
			<line class="st43" x1="46.6" y1="218.2" x2="47.9" y2="219.2"/>
			<line class="st43" x1="191.6" y1="327.4" x2="192.8" y2="327"/>
			<line class="st43" x1="50.4" y1="193.3" x2="50.5" y2="193.4"/>
			<polyline class="st43" points="212.1,284.4 212.4,295.9 212.4,295.9 			"/>
			<polyline class="st43" points="209.6,125 211,124.8 275.3,113.4 276.6,113.2 277,113.1 			"/>
			<line class="st43" x1="426.4" y1="59.7" x2="426.2" y2="59.7"/>
			<polyline class="st43" points="216.3,101.8 216.1,92.7 216.1,92.6 			"/>
			<polyline class="st43" points="213.4,102.2 196.8,95.7 196.7,95.7 196.6,95.7 196,95.4 			"/>
			<line class="st43" x1="415" y1="177.6" x2="414.8" y2="182.7"/>
			<line class="st43" x1="47.9" y1="219.2" x2="49.7" y2="220.6"/>
			<line class="st43" x1="192.8" y1="327" x2="194.7" y2="326.4"/>
			<polyline class="st43" points="408.1,239.9 412.4,238.7 412.5,238.6 417.1,237.3 422,235.9 			"/>
			<line class="st43" x1="36.6" y1="33.6" x2="36.6" y2="33.6"/>
			<polyline class="st43" points="287.9,111.2 355.4,99.3 417,88.4 418,88.2 418.4,88.2 			"/>
			<line class="st43" x1="426.5" y1="59.7" x2="426.4" y2="59.7"/>
			<polyline class="st43" points="416.9,120.1 416.8,125.4 415,177.6 			"/>
			<line class="st43" x1="49.7" y1="220.6" x2="52" y2="222.3"/>
			<line class="st43" x1="194.7" y1="326.4" x2="197.2" y2="325.7"/>
			<polyline class="st43" points="50.5,193.4 52.6,194.9 52.7,194.9 			"/>
			<polyline class="st43" points="445.8,64.5 428.6,60.2 426.5,59.7 			"/>
			<line class="st43" x1="52" y1="222.3" x2="54.5" y2="224.3"/>
			<line class="st43" x1="197.2" y1="325.7" x2="200.1" y2="324.8"/>
			<polyline class="st43" points="52.6,194.9 58.1,198.7 64.6,203.4 			"/>
			<line class="st43" x1="54.5" y1="224.3" x2="57.1" y2="226.3"/>
			<line class="st43" x1="200.1" y1="324.8" x2="203.3" y2="323.8"/>
			<polyline class="st43" points="64.6,203.4 68.3,206 78.6,213.3 85.7,218.3 			"/>
			<line class="st43" x1="203.3" y1="323.8" x2="206.4" y2="322.9"/>
			<line class="st43" x1="57.1" y1="226.3" x2="58" y2="226.9"/>
			<line class="st43" x1="66" y1="233.1" x2="69.1" y2="235.5"/>
			<line class="st43" x1="206.4" y1="322.9" x2="209.4" y2="322"/>
			<polyline class="st43" points="85.7,218.3 89.5,221 100.9,229.1 108.6,234.6 			"/>
			<line class="st43" x1="62.2" y1="230.1" x2="66" y2="233.1"/>
			<line class="st43" x1="69.1" y1="235.5" x2="71.3" y2="237.1"/>
			<line class="st43" x1="209.4" y1="322" x2="211.9" y2="321.2"/>
			<polyline class="st43" points="58,226.9 60.4,228.8 62.2,230.1 			"/>
			<line class="st43" x1="71.3" y1="237.1" x2="72.5" y2="238"/>
			<line class="st43" x1="211.9" y1="321.2" x2="213.8" y2="320.7"/>
			<polyline class="st43" points="108.6,234.6 112.5,237.3 125.2,246.4 133.7,252.4 			"/>
			<polyline class="st43" points="72.5,238 72.5,238 189.8,327.9 			"/>
			<polyline class="st43" points="213.8,320.7 215,320.3 215.4,320.2 			"/>
			<polyline class="st43" points="133.7,252.4 137.6,255.1 151.8,265.2 161.1,271.8 			"/>
			<polyline class="st43" points="215.4,320.2 401.2,264.1 401.4,264 			"/>
			<polyline class="st43" points="161.1,271.8 165.2,274.7 181.1,286 191.3,293.3 			"/>
			<polyline class="st43" points="403.9,263.2 406,262.6 408.6,261.8 			"/>
			<line class="st43" x1="191.3" y1="293.3" x2="195.5" y2="296.2"/>
			<polyline class="st43" points="401.4,264 402.3,263.7 403.9,263.2 			"/>
			<line class="st43" x1="408.6" y1="261.8" x2="411.4" y2="261"/>
			<line class="st43" x1="195.5" y1="296.2" x2="197.8" y2="297.8"/>
			<line class="st43" x1="411.4" y1="261" x2="414.2" y2="260.1"/>
			<line class="st43" x1="197.8" y1="297.8" x2="197.9" y2="297.9"/>
			<line class="st43" x1="414.2" y1="260.1" x2="416.8" y2="259.3"/>
			<line class="st43" x1="200" y1="299.4" x2="200.1" y2="299.5"/>
			<line class="st43" x1="422.6" y1="257.6" x2="455.5" y2="247.6"/>
			<line class="st43" x1="197.9" y1="297.9" x2="199.9" y2="299.3"/>
			<line class="st43" x1="422.1" y1="257.7" x2="422.6" y2="257.6"/>
			<line class="st43" x1="420.9" y1="258.1" x2="422.1" y2="257.7"/>
			<polyline class="st43" points="416.8,259.3 419.1,258.6 420.9,258.1 			"/>
			<line class="st43" x1="196" y1="95.4" x2="148.1" y2="76.7"/>
			<line class="st43" x1="286" y1="263.8" x2="286" y2="111.2"/>
			<line class="st43" x1="211.1" y1="232.9" x2="198.6" y2="236"/>
			<line class="st43" x1="195.5" y1="95.9" x2="195.4" y2="95.9"/>
			<line class="st43" x1="37.2" y1="33.3" x2="39.5" y2="34.2"/>
			<line class="st43" x1="87.9" y1="53.1" x2="106.8" y2="60.5"/>
			<line class="st43" x1="200.1" y1="299.5" x2="201.5" y2="299.1"/>
			<line class="st43" x1="197.1" y1="170.2" x2="209.8" y2="167.6"/>
		</g>
	</g>
</g>
</svg>
