<svg id="Layer_1" data-name="Layer 1" xmlns="http://www.w3.org/2000/svg" xmlns:xlink="http://www.w3.org/1999/xlink" viewBox="0 0 1225 793" width="800" height="518"><defs><style>.cls-1,.cls-17,.cls-19,.cls-2,.cls-20,.cls-42{fill:none;}.cls-17,.cls-2{stroke:#6d6d6d;}.cls-19,.cls-2,.cls-20,.cls-42{stroke-miterlimit:10;}.cls-17,.cls-19,.cls-2{stroke-width:0.5px;}.cls-3{clip-path:url(#clip-path);}.cls-4{clip-path:url(#clip-path-2);}.cls-14,.cls-5{font-size:6px;}.cls-12,.cls-5{font-family:Arial-Black, Arial Black;}.cls-6{letter-spacing:-0.04em;}.cls-7{letter-spacing:-0.07em;}.cls-8{clip-path:url(#clip-path-3);}.cls-9{clip-path:url(#clip-path-5);}.cls-10{letter-spacing:-0.02em;}.cls-11{clip-path:url(#clip-path-7);}.cls-12,.cls-16{font-size:18px;}.cls-13{clip-path:url(#clip-path-9);}.cls-14,.cls-16,.cls-22,.cls-25{font-family:ArialMT, Arial;}.cls-15{clip-path:url(#clip-path-11);}.cls-17{stroke-linecap:round;stroke-linejoin:round;}.cls-18{clip-path:url(#clip-path-13);}.cls-19,.cls-20{stroke:#000;}.cls-20{stroke-width:0.25px;}.cls-21{clip-path:url(#clip-path-15);}.cls-22,.cls-25{font-size:9px;}.cls-23{clip-path:url(#clip-path-17);}.cls-24{clip-path:url(#clip-path-19);}.cls-25{letter-spacing:-0.07em;}.cls-26{letter-spacing:0em;}.cls-27{clip-path:url(#clip-path-21);}.cls-28{clip-path:url(#clip-path-23);}.cls-29{clip-path:url(#clip-path-25);}.cls-30{clip-path:url(#clip-path-27);}.cls-31{clip-path:url(#clip-path-29);}.cls-32{clip-path:url(#clip-path-31);}.cls-33{clip-path:url(#clip-path-33);}.cls-34{fill:#aab2ab;}.cls-35{fill:#fff;}.cls-36{clip-path:url(#clip-path-35);}.cls-37{clip-path:url(#clip-path-37);}.cls-38{clip-path:url(#clip-path-39);}.cls-39{clip-path:url(#clip-path-41);}.cls-40{clip-path:url(#clip-path-43);}.cls-41{clip-path:url(#clip-path-44);}.cls-42{stroke:#b2b1b1;}</style><clipPath id="clip-path" transform="translate(0.5 0.5)"><rect class="cls-1" x="1123.5" y="517.94" width="15" height="45.66"/></clipPath><clipPath id="clip-path-2" transform="translate(0.5 0.5)"><rect class="cls-1" width="1224" height="792"/></clipPath><clipPath id="clip-path-3" transform="translate(0.5 0.5)"><rect class="cls-1" x="1123" y="326" width="9" height="55"/></clipPath><clipPath id="clip-path-5" transform="translate(0.5 0.5)"><rect class="cls-1" x="1123.5" y="460.6" width="9" height="30.89"/></clipPath><clipPath id="clip-path-7" transform="translate(0.5 0.5)"><rect class="cls-1" x="1116" y="736" width="50.01" height="26"/></clipPath><clipPath id="clip-path-9" transform="translate(0.5 0.5)"><rect class="cls-1" x="1157.39" y="119.41" width="20.45" height="150.93"/></clipPath><clipPath id="clip-path-11" transform="translate(0.5 0.5)"><rect class="cls-1" x="1126.91" y="623.92" width="41.18" height="96.07"/></clipPath><clipPath id="clip-path-13" transform="translate(0.5 0.5)"><path class="cls-1" d="M557.55,88.47h43.94V78.18H557.55ZM265.35,78.18H893.68V184.62H265.35Z"/></clipPath><clipPath id="clip-path-15" transform="translate(0.5 0.5)"><rect class="cls-1" x="557.55" y="78.18" width="43.94" height="10.29"/></clipPath><clipPath id="clip-path-17" transform="translate(0.5 0.5)"><path class="cls-1" d="M973.68,427.39V384.12H963.38v43.27Zm-91-253.78H987.25V637.9H882.68Z"/></clipPath><clipPath id="clip-path-19" transform="translate(0.5 0.5)"><rect class="cls-1" x="963.38" y="384.12" width="10.29" height="43.27"/></clipPath><clipPath id="clip-path-21" transform="translate(0.5 0.5)"><path class="cls-1" d="M504.24,463.36l43.58,31.8,6.07-8.32L510.31,455ZM207.61,184.62H882.68V715.83H207.61Z"/></clipPath><clipPath id="clip-path-23" transform="translate(0.5 0.5)"><rect class="cls-1" x="523.92" y="448.13" width="10.29" height="53.95" transform="translate(-166.59 622.38) rotate(-53.88)"/></clipPath><clipPath id="clip-path-25" transform="translate(0.5 0.5)"><path class="cls-1" d="M155.5,427.72V383.78H145.21v43.94ZM145.21,118.53h76.07V693H145.21Z"/></clipPath><clipPath id="clip-path-27" transform="translate(0.5 0.5)"><rect class="cls-1" x="145.21" y="383.78" width="10.29" height="43.94"/></clipPath><clipPath id="clip-path-29" transform="translate(0.5 0.5)"><path class="cls-1" d="M557.55,723.07h43.94V712.78H557.55ZM210.27,682H948.76v54.68H210.27Z"/></clipPath><clipPath id="clip-path-31" transform="translate(0.5 0.5)"><rect class="cls-1" x="557.55" y="712.78" width="43.94" height="10.29"/></clipPath><clipPath id="clip-path-33" transform="translate(0.5 0.5)"><rect class="cls-1" x="1123.5" y="207.59" width="21.5" height="60.5"/></clipPath><clipPath id="clip-path-35" transform="translate(0.5 0.5)"><path class="cls-1" d="M973.68,176.54V137.61H963.38v38.93Zm-91-62.38H987.25V200H882.68Z"/></clipPath><clipPath id="clip-path-37" transform="translate(0.5 0.5)"><rect class="cls-1" x="963.38" y="137.61" width="10.29" height="38.93"/></clipPath><clipPath id="clip-path-39" transform="translate(0.5 0.5)"><path class="cls-1" d="M229.35,88.47h38.93V78.18H229.35ZM205.9,78.18h85.83V184.62H205.9Z"/></clipPath><clipPath id="clip-path-41" transform="translate(0.5 0.5)"><rect class="cls-1" x="229.35" y="78.18" width="38.93" height="10.29"/></clipPath><clipPath id="clip-path-43" transform="translate(0.5 0.5)"><path class="cls-1" d="M1150.15,60.37a4.39,4.39,0,0,0,.76-.07c3-.52,5-5.59,4.24-10a10.15,10.15,0,0,0-.26-1.1,8.43,8.43,0,0,1,1.13,3c.79,4.46-1.46,9.56-4.62,10.12A6.57,6.57,0,0,1,1145,59c.65,4.38-2.08,8.72-5.27,9.28a7.78,7.78,0,0,1-6.64-2.62A10.6,10.6,0,0,1,1133,69c-.79,4.46-4.12,7.6-7.44,7-2.37-.42-4.1-2.62-4.61-5.47l.06,0a3.7,3.7,0,0,0,.83.4,5,5,0,0,0,3.61,3.61c3,.52,6-2.66,6.8-7.12a10.8,10.8,0,0,0-.4-5.56c1.42,3.41,4.92,5.38,7.49,4.92,3-.52,5.44-5,4.66-9.42a9.36,9.36,0,0,0-.53-1.85l.12-.1.12.18c0-.08,0-.17,0-.25l.3-.27c1.08,3.26,3.7,5.24,6.16,5.24h0m18.3-12.68a3.54,3.54,0,1,1,3.54,3.54,3.54,3.54,0,0,1-3.54-3.54m-8.58-11.3a27.56,27.56,0,0,0-6.24.76,10,10,0,0,0-8,2.33,9.82,9.82,0,0,0-1.23,1.23q-1.35.73-2.68,1.58a9.33,9.33,0,0,0-7.37,4.52,8.11,8.11,0,0,0-.57,1.19,9.91,9.91,0,0,0-6,3.64,10.73,10.73,0,0,0-2.46,5.14,10.61,10.61,0,0,0-4.42,4,10.18,10.18,0,0,0-1.78,6.4,9.8,9.8,0,0,0-2.74,6.65c-.24,4.52,2,8.31,5,8.47,1.85.1,3.56-1.2,4.66-3.27q.27.38.58.74a13.63,13.63,0,0,0,6.36,4.18c-.15,3.51,1.34,6.45,3.78,7a3.72,3.72,0,0,0,.82.1h0c2.65,0,5.32-2.79,6.28-6.7q.72-.13,1.44-.31a4.8,4.8,0,0,0,3.42,3.1c3,.52,6-2.66,6.8-7.12l0-.16q.74-.43,1.47-.9a5.23,5.23,0,0,0,4.72,2c3-.52,5.44-5,4.66-9.42,0-.14-.05-.27-.08-.41l.67-.77a5.78,5.78,0,0,0,5.14,2.08c3-.52,5-5.59,4.24-10a9.55,9.55,0,0,0-.53-1.89c3.22-4.38,3.77-12.19.65-17.59-2.48-4.3-7.12-6-11.53-5.82a20.08,20.08,0,0,0-5.15-.64h0"/></clipPath><clipPath id="clip-path-44" transform="translate(0.5 0.5)"><rect class="cls-1" x="1116" y="36" width="63" height="55.02"/></clipPath></defs><title>A01</title><rect class="cls-2" x="54.5" y="36.5" width="1053" height="720"/><line class="cls-2" x1="1116.5" y1="729.5" x2="1179.5" y2="729.5"/><g class="cls-3"><g class="cls-4"><text class="cls-5" transform="translate(1131 561.57) rotate(-90)">ISSUE <tspan class="cls-6" x="22.33" y="0">D</tspan><tspan class="cls-7" x="26.75" y="0">A</tspan><tspan x="31.01" y="0">TE</tspan></text></g></g><g class="cls-8"><g class="cls-4"><text class="cls-5" transform="matrix(0, -1, 1, 0, 1130.5, 378.98)">SITE ADDRESS</text></g></g><g class="cls-9"><g class="cls-4"><text class="cls-5" transform="matrix(0, -1, 1, 0, 1131, 489.48)"><tspan class="cls-10">O</tspan><tspan x="4.9" y="0">WNER</tspan></text></g></g><g class="cls-11"><g class="cls-4"><text class="cls-12" transform="translate(1119 756.54)">A.01</text></g></g><g class="cls-13"><g class="cls-4"><text class="cls-14" transform="translate(1162.89 268.35) rotate(-90)">This work is licensed under a Creative Commons </text><text class="cls-14" transform="translate(1169.09 268.35) rotate(-90)">Attribution- ShareAlike 4.0 International License</text><text class="cls-14" transform="translate(1175.28 268.35) rotate(-90)">http://creativecommons.org/licenses/by-sa/4.0/</text></g></g><g class="cls-15"><g class="cls-4"><text class="cls-16" transform="translate(1143.41 717.97) rotate(-90)">Foundation</text><text class="cls-16" transform="translate(1164 717.97) rotate(-90)">Excavation</text></g></g><polyline class="cls-17" points="276.86 204.42 281.86 203.76 286.51 201.83 290.51 198.76 293.57 194.77 295.5 190.11 296.16 185.12 295.5 180.12 293.57 175.47 290.51 171.47 286.51 168.4 281.86 166.47 276.86 165.82 271.87 166.47 267.21 168.4 263.21 171.47 260.15 175.47 258.22 180.12 257.56 185.12 258.22 190.11 260.15 194.77 263.21 198.76 267.21 201.83 271.87 203.76 276.86 204.42"/><polyline class="cls-17" points="938.26 130.03 221.78 130.03 221.78 682.47 938.26 682.47 938.26 130.03"/><polyline class="cls-17" points="296.16 627.39 295.5 622.4 293.57 617.74 290.51 613.74 286.51 610.68 281.86 608.75 276.86 608.09 271.87 608.75 267.21 610.68 263.21 613.74 260.15 617.74 258.22 622.4 257.56 627.39 258.22 632.38 260.15 637.04 263.21 641.04 267.21 644.1 271.87 646.03 276.86 646.69 281.86 646.03 286.51 644.1 290.51 641.04 293.57 637.04 295.5 632.38 296.16 627.39"/><polyline class="cls-17" points="902.48 627.39 901.82 622.4 899.89 617.74 896.82 613.74 892.83 610.68 888.17 608.75 883.18 608.09 878.18 608.75 873.53 610.68 869.53 613.74 866.46 617.74 864.53 622.4 863.88 627.39 864.53 632.38 866.46 637.04 869.53 641.04 873.53 644.1 878.18 646.03 883.18 646.69 888.17 646.03 892.83 644.1 896.82 641.04 899.89 637.04 901.82 632.38 902.48 627.39"/><polyline class="cls-17" points="902.48 185.12 901.82 180.12 899.89 175.47 896.82 171.47 892.83 168.4 888.17 166.47 883.18 165.82 878.18 166.47 873.53 168.4 869.53 171.47 866.46 175.47 864.53 180.12 863.88 185.12 864.53 190.11 866.46 194.77 869.53 198.76 873.53 201.83 878.18 203.76 883.18 204.42 888.17 203.76 892.83 201.83 896.82 198.76 899.89 194.77 901.82 190.11 902.48 185.12"/><polyline class="cls-17" points="344.41 629 310.63 629 310.63 595.23 344.41 595.23 344.41 629"/><polyline class="cls-17" points="447.34 629 413.56 629 413.56 595.23 447.34 595.23 447.34 629"/><polyline class="cls-17" points="516.45 595.23 516.45 629 550.26 629 550.26 595.23 516.45 595.23"/><polyline class="cls-17" points="653.2 629 619.42 629 619.42 595.23 653.2 595.23 653.2 629"/><polyline class="cls-17" points="756.12 629 722.35 629 722.35 595.23 756.12 595.23 756.12 629"/><polyline class="cls-17" points="859.05 629 825.28 629 825.28 595.23 859.05 595.23 859.05 629"/><polyline class="cls-17" points="807.59 527.73 773.82 527.73 773.82 493.96 807.59 493.96 807.59 527.73"/><polyline class="cls-17" points="704.66 527.73 670.88 527.73 670.88 493.96 704.66 493.96 704.66 527.73"/><polyline class="cls-17" points="601.73 527.73 567.96 527.73 567.96 493.96 601.73 493.96 601.73 527.73"/><polyline class="cls-17" points="498.8 527.73 465.03 527.73 465.03 493.96 498.8 493.96 498.8 527.73"/><polyline class="cls-17" points="395.87 527.73 362.1 527.73 362.1 493.96 395.87 493.96 395.87 527.73"/><polyline class="cls-17" points="344.41 423.14 310.63 423.14 310.63 389.37 344.41 389.37 344.41 423.14"/><polyline class="cls-17" points="447.34 423.14 413.56 423.14 413.56 389.37 447.34 389.37 447.34 423.14"/><polyline class="cls-17" points="550.26 423.14 516.49 423.14 516.49 389.37 550.26 389.37 550.26 423.14"/><polyline class="cls-17" points="653.2 423.14 619.42 423.14 619.42 389.37 653.2 389.37 653.2 423.14"/><polyline class="cls-17" points="756.12 423.14 722.35 423.14 722.35 389.37 756.12 389.37 756.12 423.14"/><polyline class="cls-17" points="859.05 423.14 825.28 423.14 825.28 389.37 859.05 389.37 859.05 423.14"/><polyline class="cls-17" points="807.59 318.48 773.82 318.48 773.82 284.7 807.59 284.7 807.59 318.48"/><polyline class="cls-17" points="704.66 318.48 670.88 318.48 670.88 284.7 704.66 284.7 704.66 318.48"/><polyline class="cls-17" points="601.73 318.48 567.96 318.48 567.96 284.7 601.73 284.7 601.73 318.48"/><polyline class="cls-17" points="498.8 318.48 465.03 318.48 465.03 284.7 498.8 284.7 498.8 318.48"/><polyline class="cls-17" points="395.87 318.48 362.1 318.48 362.1 284.7 395.87 284.7 395.87 318.48"/><polyline class="cls-17" points="344.41 217.28 310.63 217.28 310.63 183.51 344.41 183.51 344.41 217.28"/><polyline class="cls-17" points="447.34 217.28 413.56 217.28 413.56 183.51 447.34 183.51 447.34 217.28"/><polyline class="cls-17" points="550.26 217.28 516.49 217.28 516.49 183.51 550.26 183.51 550.26 217.28"/><polyline class="cls-17" points="653.2 217.28 619.42 217.28 619.42 183.51 653.2 183.51 653.2 217.28"/><polyline class="cls-17" points="756.12 217.28 722.35 217.28 722.35 183.51 756.12 183.51 756.12 217.28"/><polyline class="cls-17" points="859.05 217.28 825.28 217.28 825.28 183.51 859.05 183.51 859.05 217.28"/><g class="cls-18"><g class="cls-4"><line class="cls-19" x1="276.86" y1="176.12" x2="276.86" y2="91.54"/><line class="cls-19" x1="276.86" y1="91.54" x2="276.86" y2="84.04"/><line class="cls-19" x1="883.18" y1="176.12" x2="883.18" y2="91.54"/><line class="cls-19" x1="883.18" y1="91.54" x2="883.18" y2="84.04"/><line class="cls-20" x1="284.37" y1="91.54" x2="875.67" y2="91.54"/><polygon points="277.62 91.54 284.37 90.42 284.37 92.67 277.62 91.54"/><polygon class="cls-20" points="277.62 91.54 284.37 90.42 284.37 92.67 277.62 91.54"/><polygon points="882.42 91.54 875.67 92.67 875.67 90.42 882.42 91.54"/><polygon class="cls-20" points="882.42 91.54 875.67 92.67 875.67 90.42 882.42 91.54"/></g></g><g class="cls-21"><g class="cls-4"><text class="cls-22" transform="translate(560.55 86.68)">15&apos;-8 1/2&quot;</text></g></g><g class="cls-23"><g class="cls-4"><line class="cls-19" x1="892.18" y1="185.12" x2="976.75" y2="185.12"/><line class="cls-19" x1="976.75" y1="185.12" x2="984.25" y2="185.12"/><line class="cls-19" x1="892.18" y1="627.39" x2="976.75" y2="627.39"/><line class="cls-19" x1="976.75" y1="627.39" x2="984.25" y2="627.39"/><line class="cls-20" x1="976.75" y1="192.63" x2="976.75" y2="619.88"/><polygon points="976.75 185.88 977.87 192.63 975.62 192.63 976.75 185.88"/><polygon class="cls-20" points="976.75 185.88 977.87 192.63 975.62 192.63 976.75 185.88"/><polygon points="976.75 626.63 975.62 619.88 977.87 619.88 976.75 626.63"/><polygon class="cls-20" points="976.75 626.63 975.62 619.88 977.87 619.88 976.75 626.63"/></g></g><g class="cls-24"><g class="cls-4"><text class="cls-25" transform="translate(971.88 425.39) rotate(-90)">1<tspan class="cls-26" x="4.34" y="0">1&apos;-5 1/2&quot;</tspan></text></g></g><g class="cls-27"><g class="cls-4"><line class="cls-19" x1="271.87" y1="192.39" x2="222.01" y2="260.7"/><line class="cls-19" x1="222.01" y1="260.7" x2="217.59" y2="266.76"/><line class="cls-19" x1="877.87" y1="634.66" x2="828.01" y2="702.97"/><line class="cls-19" x1="828.01" y1="702.97" x2="823.59" y2="709.03"/><line class="cls-20" x1="228.07" y1="265.12" x2="821.96" y2="698.55"/><polygon points="222.63 261.15 228.74 264.22 227.42 266.04 222.63 261.15"/><polygon class="cls-20" points="222.63 261.15 228.74 264.22 227.42 266.04 222.63 261.15"/><polygon points="827.4 702.53 821.28 699.46 822.61 697.64 827.4 702.53"/><polygon class="cls-20" points="827.4 702.53 821.28 699.46 822.61 697.64 827.4 702.53"/></g></g><g class="cls-28"><g class="cls-4"><text class="cls-22" transform="matrix(0.81, 0.59, -0.59, 0.81, 512.51, 466.77)">19&apos;-5 1/4&quot;</text></g></g><g class="cls-29"><g class="cls-4"><line class="cls-19" x1="212.78" y1="130.03" x2="158.58" y2="130.03"/><line class="cls-19" x1="158.58" y1="130.03" x2="151.08" y2="130.03"/><line class="cls-19" x1="212.78" y1="682.47" x2="158.58" y2="682.47"/><line class="cls-19" x1="158.58" y1="682.47" x2="151.08" y2="682.47"/><line class="cls-20" x1="158.58" y1="137.54" x2="158.58" y2="674.96"/><polygon points="158.58 130.79 159.7 137.54 157.45 137.54 158.58 130.79"/><polygon class="cls-20" points="158.58 130.79 159.7 137.54 157.45 137.54 158.58 130.79"/><polygon points="158.58 681.71 157.45 674.96 159.7 674.96 158.58 681.71"/><polygon class="cls-20" points="158.58 681.71 157.45 674.96 159.7 674.96 158.58 681.71"/></g></g><g class="cls-30"><g class="cls-4"><text class="cls-22" transform="translate(153.71 425.72) rotate(-90)">14&apos;-3 3/4&quot;</text></g></g><g class="cls-31"><g class="cls-4"><line class="cls-19" x1="938.26" y1="691.47" x2="938.26" y2="726.15"/><line class="cls-19" x1="938.26" y1="726.15" x2="938.26" y2="733.65"/><line class="cls-19" x1="221.78" y1="691.47" x2="221.78" y2="726.15"/><line class="cls-19" x1="221.78" y1="726.15" x2="221.78" y2="733.65"/><line class="cls-20" x1="930.75" y1="726.15" x2="229.29" y2="726.15"/><polygon points="937.5 726.15 930.75 727.27 930.75 725.02 937.5 726.15"/><polygon class="cls-20" points="937.5 726.15 930.75 727.27 930.75 725.02 937.5 726.15"/><polygon points="222.54 726.15 229.29 725.02 229.29 727.27 222.54 726.15"/><polygon class="cls-20" points="222.54 726.15 229.29 725.02 229.29 727.27 222.54 726.15"/></g></g><g class="cls-32"><g class="cls-4"><text class="cls-22" transform="translate(560.55 721.29)">18&apos;-6 3/4&quot;</text></g></g><g class="cls-33"><g class="cls-4"><path class="cls-34" d="M1124,266.14l.1-56.68c0-.79-.12-1.5,1.58-1.5l18.67.07v59.54H1125.6c-.84,0-1.61-.08-1.61-1.43" transform="translate(0.5 0.5)"/><path class="cls-35" d="M1133.54,250.58a6.82,6.82,0,0,1,0,13.64h0a6.82,6.82,0,0,1,0-13.64h0" transform="translate(0.5 0.5)"/><path d="M1132.78,254a.93.93,0,0,0-.64.86q0,1.05,1.39,1.06t1.39-1.05a1,1,0,0,0-.68-1l.51-1a2.21,2.21,0,0,1,1.21,2,2.25,2.25,0,0,1-.65,1.69,2.79,2.79,0,0,1-3.55,0,2.41,2.41,0,0,1,.48-3.7l.53,1.05m0,4.5a.94.94,0,0,0-.64.88q0,1,1.39,1t1.39-1a1,1,0,0,0-.68-1l.51-1a2.21,2.21,0,0,1,1.21,2,2.26,2.26,0,0,1-.65,1.69,2.43,2.43,0,0,1-1.78.63,2.4,2.4,0,0,1-1.77-.65,2.21,2.21,0,0,1-.66-1.63,2.17,2.17,0,0,1,1.14-2.07Zm-3.77,3.36a6.24,6.24,0,0,0,4.54,1.92,6.48,6.48,0,0,0,6.4-6.42,6.26,6.26,0,0,0-1.92-4.56,6,6,0,0,0-4.48-1.84,6.38,6.38,0,0,0-6.41,6.4A6.05,6.05,0,0,0,1129,261.89Zm-1-10a7.55,7.55,0,0,1,5.55-2.27,7.42,7.42,0,0,1,5.49,2.23,7.7,7.7,0,0,1,2.33,5.59,7.88,7.88,0,0,1-7.82,7.8,7.65,7.65,0,0,1-5.55-2.31,7.44,7.44,0,0,1-2.27-5.49A7.54,7.54,0,0,1,1128,251.86Z" transform="translate(0.5 0.5)"/><path d="M1124.26,266.72V209a.62.62,0,0,1,.62-.62h13.62v41.28a8.88,8.88,0,0,1,0,15.55v2.16h-13.62a.62.62,0,0,1-.62-.62m-.51-57.75v57.75a1.12,1.12,0,0,0,1.12,1.12h19.62a.25.25,0,0,0,.25-.25V208.1a.25.25,0,0,0-.25-.25h-19.62A1.12,1.12,0,0,0,1123.75,209Z" transform="translate(0.5 0.5)"/><path class="cls-35" d="M1142.62,224.71a.53.53,0,0,0,.19-.16.69.69,0,0,0,.11-.23,1.07,1.07,0,0,0,0-.28,1.42,1.42,0,0,0,0-.21.69.69,0,0,0-.06-.21.44.44,0,0,0-.13-.16.32.32,0,0,0-.21-.07.29.29,0,0,0-.22.09.68.68,0,0,0-.14.22,2.14,2.14,0,0,0-.1.31c0,.12-.06.24-.09.36a3.16,3.16,0,0,1-.11.36,1.26,1.26,0,0,1-.17.31.78.78,0,0,1-.65.31.87.87,0,0,1-.44-.11,1,1,0,0,1-.31-.29,1.21,1.21,0,0,1-.19-.4,1.69,1.69,0,0,1-.06-.44,2.09,2.09,0,0,1,.06-.5,1.24,1.24,0,0,1,.19-.42.94.94,0,0,1,.33-.29,1,1,0,0,1,.49-.11v.71a.6.6,0,0,0-.25.06.42.42,0,0,0-.15.14.59.59,0,0,0-.08.2,1.19,1.19,0,0,0,0,.25.86.86,0,0,0,0,.17.45.45,0,0,0,.07.16.39.39,0,0,0,.12.12.32.32,0,0,0,.18,0,.3.3,0,0,0,.16,0,.34.34,0,0,0,.11-.15,2,2,0,0,0,.1-.3l.13-.5c0-.06,0-.15.07-.26a1.25,1.25,0,0,1,.16-.33,1,1,0,0,1,.29-.28.81.81,0,0,1,.46-.12,1,1,0,0,1,.42.09.92.92,0,0,1,.34.26,1.25,1.25,0,0,1,.22.43,2,2,0,0,1,.08.6,2.09,2.09,0,0,1-.07.53,1.35,1.35,0,0,1-.21.45,1,1,0,0,1-.37.31,1.1,1.1,0,0,1-.53.11v-.71a.61.61,0,0,0,.28-.06" transform="translate(0.5 0.5)"/><path class="cls-35" d="M1142.15,220.57l-1.21.42h0l1.21.43v-.86m-2,0,3.31-1.24v.76l-.74.25v1.24l.74.26v.73l-3.31-1.25Z" transform="translate(0.5 0.5)"/><path class="cls-35" d="M1142.87,237.9a1,1,0,0,0,0-.2.51.51,0,0,0-.07-.17.36.36,0,0,0-.13-.12.45.45,0,0,0-.21,0,.43.43,0,0,0-.36.14.62.62,0,0,0-.11.38v.79h.91v-.78m-1.41,0a.53.53,0,0,0-.09-.32.35.35,0,0,0-.3-.12.38.38,0,0,0-.19,0,.31.31,0,0,0-.12.11.49.49,0,0,0-.06.16,1.15,1.15,0,0,0,0,.19v.68h.77Zm-1.34-.09a2.05,2.05,0,0,1,0-.43.94.94,0,0,1,.14-.33.64.64,0,0,1,.25-.22.88.88,0,0,1,.39-.08.72.72,0,0,1,.42.11.82.82,0,0,1,.27.34.8.8,0,0,1,.31-.46.92.92,0,0,1,.53-.15.91.91,0,0,1,.43.1.84.84,0,0,1,.3.26,1.17,1.17,0,0,1,.17.38,1.71,1.71,0,0,1,.05.43v1.61h-3.31Z" transform="translate(0.5 0.5)"/><polyline class="cls-35" points="1140.62 237 1140.62 236.18 1141.93 235.41 1140.62 234.64 1140.62 233.83 1142.66 235.05 1143.93 235.05 1143.93 235.78 1142.64 235.78 1140.62 237"/><path class="cls-35" d="M1131.24,216.64a5.29,5.29,0,0,1,0,10.59h0a5.29,5.29,0,0,1,0-10.59h0" transform="translate(0.5 0.5)"/><path d="M1126.49,222a4.75,4.75,0,0,1,4.75-4.75,4.42,4.42,0,0,1,3.32,1.36A4.65,4.65,0,0,1,1136,222a4.72,4.72,0,0,1-8.1,3.34,4.5,4.5,0,0,1-1.39-3.34m-1,0a5.53,5.53,0,0,0,1.68,4.08,5.67,5.67,0,0,0,4.12,1.71A5.84,5.84,0,0,0,1137,222a5.73,5.73,0,0,0-1.72-4.15,5.5,5.5,0,0,0-4.07-1.65,5.75,5.75,0,0,0-5.8,5.81Z" transform="translate(0.5 0.5)"/><path d="M1130.42,224.54a2.47,2.47,0,0,1-2.24-2.55,2.9,2.9,0,0,1,3.13-3,3,3,0,0,1,3.1,3,2.48,2.48,0,0,1-2.27,2.56v-1.46c.78,0,1.05-.55,1.05-1.27s-.77-1.36-1.93-1.36-1.88.46-1.88,1.33a1.14,1.14,0,0,0,1,1.3v-.43l1.15,1.15-1.15,1.15v-.46" transform="translate(0.5 0.5)"/><path class="cls-35" d="M1126,236.17a5.37,5.37,0,1,1,5.37,5.37,5.37,5.37,0,0,1-5.37-5.37" transform="translate(0.5 0.5)"/><path d="M1129.81,234.61a.37.37,0,0,0-.37.37v2.37a.37.37,0,0,0,.38.37h2.37v-.66H1135v-1.8h-2.81v-.66h-2.37" transform="translate(0.5 0.5)"/><path d="M1127.5,236.17a.81.81,0,1,1,.81.81.81.81,0,0,1-.81-.81" transform="translate(0.5 0.5)"/><path d="M1126.49,236.16a4.75,4.75,0,0,1,4.75-4.75,4.42,4.42,0,0,1,3.32,1.36,4.65,4.65,0,0,1,1.42,3.38,4.81,4.81,0,0,1-4.74,4.76,4.63,4.63,0,0,1-3.36-1.42,4.5,4.5,0,0,1-1.39-3.34m-1,0a5.53,5.53,0,0,0,1.68,4.08,5.67,5.67,0,0,0,4.12,1.71,5.84,5.84,0,0,0,5.8-5.79,5.72,5.72,0,0,0-1.72-4.15,5.5,5.5,0,0,0-4.07-1.65,5.74,5.74,0,0,0-5.8,5.81Z" transform="translate(0.5 0.5)"/></g></g><g class="cls-36"><g class="cls-4"><line class="cls-19" x1="892.18" y1="185.12" x2="976.75" y2="185.12"/><line class="cls-19" x1="976.75" y1="185.12" x2="984.25" y2="185.12"/><line class="cls-19" x1="892.18" y1="130.03" x2="976.75" y2="130.03"/><line class="cls-19" x1="976.75" y1="130.03" x2="984.25" y2="130.03"/><line class="cls-20" x1="976.75" y1="192.63" x2="976.75" y2="200.14"/><polygon points="976.75 185.88 977.87 192.63 975.62 192.63 976.75 185.88"/><polygon class="cls-20" points="976.75 185.88 977.87 192.63 975.62 192.63 976.75 185.88"/><line class="cls-20" x1="976.75" y1="115.01" x2="976.75" y2="122.52"/><polygon points="976.75 129.27 975.62 122.52 977.87 122.52 976.75 129.27"/><polygon class="cls-20" points="976.75 129.27 975.62 122.52 977.87 122.52 976.75 129.27"/></g></g><g class="cls-37"><g class="cls-4"><text class="cls-22" transform="translate(971.88 174.54) rotate(-90)">1&apos;-5 1/8&quot;</text></g></g><g class="cls-38"><g class="cls-4"><line class="cls-19" x1="276.86" y1="176.12" x2="276.86" y2="91.54"/><line class="cls-19" x1="276.86" y1="91.54" x2="276.86" y2="84.04"/><line class="cls-19" x1="221.78" y1="176.12" x2="221.78" y2="91.54"/><line class="cls-19" x1="221.78" y1="91.54" x2="221.78" y2="84.04"/><line class="cls-20" x1="284.37" y1="91.54" x2="291.88" y2="91.54"/><polygon points="277.62 91.54 284.37 90.42 284.37 92.67 277.62 91.54"/><polygon class="cls-20" points="277.62 91.54 284.37 90.42 284.37 92.67 277.62 91.54"/><line class="cls-20" x1="206.76" y1="91.54" x2="214.27" y2="91.54"/><polygon points="221.02 91.54 214.27 92.67 214.27 90.42 221.02 91.54"/><polygon class="cls-20" points="221.02 91.54 214.27 92.67 214.27 90.42 221.02 91.54"/></g></g><g class="cls-39"><g class="cls-4"><text class="cls-22" transform="translate(232.34 86.68)">1&apos;-5 1/8&quot;</text></g></g><g class="cls-40"><g class="cls-41"><rect x="1116.5" y="36.52" width="62.99" height="55.34"/></g></g><rect class="cls-42" x="0.5" y="0.5" width="1224" height="792"/></svg>