<svg id="Layer_1" data-name="Layer 1" xmlns="http://www.w3.org/2000/svg" xmlns:xlink="http://www.w3.org/1999/xlink" viewBox="0 0 1225 793"><defs><style>.cls-1,.cls-2,.cls-3,.cls-39,.cls-6{fill:none;}.cls-2,.cls-3,.cls-6{stroke:#000;}.cls-2,.cls-39,.cls-6{stroke-miterlimit:10;}.cls-2,.cls-3{stroke-width:0.5px;}.cls-3{stroke-linecap:round;stroke-linejoin:round;}.cls-4{clip-path:url(#clip-path);}.cls-5{clip-path:url(#clip-path-2);}.cls-6{stroke-width:0.25px;}.cls-7{clip-path:url(#clip-path-3);}.cls-8{font-size:9px;}.cls-33,.cls-34,.cls-8{font-family:ArialMT, Arial;}.cls-9{clip-path:url(#clip-path-5);}.cls-10{clip-path:url(#clip-path-7);}.cls-11{clip-path:url(#clip-path-9);}.cls-12{clip-path:url(#clip-path-11);}.cls-13{clip-path:url(#clip-path-13);}.cls-14{clip-path:url(#clip-path-15);}.cls-15{clip-path:url(#clip-path-17);}.cls-16{clip-path:url(#clip-path-19);}.cls-17{clip-path:url(#clip-path-21);}.cls-18{clip-path:url(#clip-path-23);}.cls-19{clip-path:url(#clip-path-25);}.cls-20{clip-path:url(#clip-path-27);}.cls-21{clip-path:url(#clip-path-29);}.cls-22{clip-path:url(#clip-path-31);}.cls-23{clip-path:url(#clip-path-33);}.cls-24,.cls-34{font-size:6px;}.cls-24,.cls-31{font-family:Arial-Black, Arial Black;}.cls-25{letter-spacing:-0.04em;}.cls-26{letter-spacing:-0.07em;}.cls-27{clip-path:url(#clip-path-35);}.cls-28{clip-path:url(#clip-path-37);}.cls-29{letter-spacing:-0.02em;}.cls-30{clip-path:url(#clip-path-39);}.cls-31,.cls-33{font-size:18px;}.cls-32{clip-path:url(#clip-path-41);}.cls-35{fill:#a9b1aa;}.cls-36{fill:#fff;}.cls-37{clip-path:url(#clip-path-43);}.cls-38{clip-path:url(#clip-path-44);}.cls-39{stroke:#b5b5b5;}</style><clipPath id="clip-path" transform="translate(0.5 0.5)"><path class="cls-1" d="M817.32,434.44V365.91H807v68.53ZM621.83,277.69H830.9v245H621.83Z"/></clipPath><clipPath id="clip-path-2" transform="translate(0.5 0.5)"><rect class="cls-1" width="1224" height="792"/></clipPath><clipPath id="clip-path-3" transform="translate(0.5 0.5)"><rect class="cls-1" x="807.03" y="365.91" width="10.29" height="68.53"/></clipPath><clipPath id="clip-path-5" transform="translate(0.5 0.5)"><path class="cls-1" d="M817.32,598V574H807V598ZM671.4,500.65H830.9v170.7H671.4Z"/></clipPath><clipPath id="clip-path-7" transform="translate(0.5 0.5)"><rect class="cls-1" x="807.03" y="574.04" width="10.29" height="23.92"/></clipPath><clipPath id="clip-path-9" transform="translate(0.5 0.5)"><path class="cls-1" d="M835.34,306.36v-14.2H825v14.2ZM621.71,260.93H835.34v45.43H621.71Z"/></clipPath><clipPath id="clip-path-11" transform="translate(0.5 0.5)"><rect class="cls-1" x="825.04" y="292.16" width="10.29" height="14.2"/></clipPath><clipPath id="clip-path-13" transform="translate(0.5 0.5)"><path class="cls-1" d="M817.51,230.47l.09-34.22-10.29,0-.09,34.22ZM593.94,138.86H831.29v149H593.94Z"/></clipPath><clipPath id="clip-path-15" transform="translate(0.5 0.5)"><rect class="cls-1" x="795.29" y="208.2" width="34.22" height="10.29" transform="translate(597 1025.21) rotate(-89.86)"/></clipPath><clipPath id="clip-path-17" transform="translate(0.5 0.5)"><path class="cls-1" d="M560.62,424.65h23.92V414.35H560.62Zm-73.39-10.29h170.7v85H487.23Z"/></clipPath><clipPath id="clip-path-19" transform="translate(0.5 0.5)"><rect class="cls-1" x="560.62" y="414.35" width="23.92" height="10.29"/></clipPath><clipPath id="clip-path-21" transform="translate(0.5 0.5)"><path class="cls-1" d="M560.62,627.85h23.92V617.55H560.62Zm-123-10.29H707.49V672.8H437.67Z"/></clipPath><clipPath id="clip-path-23" transform="translate(0.5 0.5)"><rect class="cls-1" x="560.62" y="617.55" width="23.92" height="10.29"/></clipPath><clipPath id="clip-path-25" transform="translate(0.5 0.5)"><path class="cls-1" d="M565.17,356.87h14.2V346.57h-14.2ZM511.7,346.57H632.84V511.66H511.7Z"/></clipPath><clipPath id="clip-path-27" transform="translate(0.5 0.5)"><rect class="cls-1" x="565.17" y="346.57" width="14.2" height="10.29"/></clipPath><clipPath id="clip-path-29" transform="translate(0.5 0.5)"><path class="cls-1" d="M560.31,535.07h23.92V524.78H560.31Zm-98.17-10.29H682.4V660.35H462.14Z"/></clipPath><clipPath id="clip-path-31" transform="translate(0.5 0.5)"><rect class="cls-1" x="560.31" y="524.78" width="23.92" height="10.29"/></clipPath><clipPath id="clip-path-33" transform="translate(0.5 0.5)"><rect class="cls-1" x="1123.5" y="517.94" width="15" height="45.66"/></clipPath><clipPath id="clip-path-35" transform="translate(0.5 0.5)"><rect class="cls-1" x="1123" y="326" width="9" height="55"/></clipPath><clipPath id="clip-path-37" transform="translate(0.5 0.5)"><rect class="cls-1" x="1123.5" y="460.6" width="9" height="30.89"/></clipPath><clipPath id="clip-path-39" transform="translate(0.5 0.5)"><rect class="cls-1" x="1116" y="736" width="50.01" height="26"/></clipPath><clipPath id="clip-path-41" transform="translate(0.5 0.5)"><rect class="cls-1" x="1126.91" y="616.94" width="41.18" height="103.05"/></clipPath><clipPath id="clip-path-43" transform="translate(0.5 0.5)"><path class="cls-1" d="M1151.12,60.27a4.39,4.39,0,0,0,.76-.07c3-.52,5-5.59,4.24-10a10.15,10.15,0,0,0-.26-1.1,8.43,8.43,0,0,1,1.13,3c.79,4.46-1.46,9.56-4.62,10.12a6.57,6.57,0,0,1-6.43-3.29c.65,4.38-2.08,8.72-5.27,9.28a7.78,7.78,0,0,1-6.64-2.62,10.6,10.6,0,0,1-.07,3.33c-.79,4.46-4.12,7.6-7.44,7-2.37-.42-4.1-2.62-4.61-5.47l.06,0a3.7,3.7,0,0,0,.83.4,5,5,0,0,0,3.61,3.61c3,.52,6-2.66,6.8-7.12a10.8,10.8,0,0,0-.4-5.56c1.42,3.41,4.92,5.38,7.49,4.92,3-.52,5.44-5,4.66-9.42a9.36,9.36,0,0,0-.53-1.85l.12-.1.12.18c0-.08,0-.17,0-.25l.3-.27c1.08,3.26,3.7,5.24,6.16,5.24h0m18.3-12.68a3.54,3.54,0,1,1,3.54,3.54,3.54,3.54,0,0,1-3.54-3.54m-8.58-11.3a27.56,27.56,0,0,0-6.24.76,10,10,0,0,0-8,2.33,9.82,9.82,0,0,0-1.23,1.23q-1.35.73-2.68,1.58a9.33,9.33,0,0,0-7.37,4.52,8.11,8.11,0,0,0-.57,1.19,9.91,9.91,0,0,0-6,3.64,10.73,10.73,0,0,0-2.46,5.14,10.61,10.61,0,0,0-4.42,4,10.18,10.18,0,0,0-1.78,6.4,9.8,9.8,0,0,0-2.74,6.65c-.24,4.52,2,8.31,5,8.47,1.85.1,3.56-1.2,4.66-3.27q.27.38.58.74a13.63,13.63,0,0,0,6.36,4.18c-.15,3.51,1.34,6.45,3.78,7a3.72,3.72,0,0,0,.82.1h0c2.65,0,5.32-2.79,6.28-6.7q.72-.13,1.44-.31a4.8,4.8,0,0,0,3.42,3.1c3,.52,6-2.66,6.8-7.12l0-.16q.74-.43,1.47-.9a5.23,5.23,0,0,0,4.72,2c3-.52,5.44-5,4.66-9.42,0-.14-.05-.27-.08-.41l.67-.77a5.78,5.78,0,0,0,5.14,2.08c3-.52,5-5.59,4.24-10a9.55,9.55,0,0,0-.53-1.89c3.22-4.38,3.77-12.19.65-17.59-2.48-4.3-7.12-6-11.53-5.82a20.08,20.08,0,0,0-5.15-.64h0"/></clipPath><clipPath id="clip-path-44" transform="translate(0.5 0.5)"><rect class="cls-1" x="1116.97" y="35.9" width="63" height="55.02"/></clipPath></defs><title>A02</title><rect class="cls-2" x="54.5" y="36.5" width="1053" height="720"/><line class="cls-3" x1="596" y1="276.8" x2="596" y2="221.04"/><line class="cls-3" x1="550.15" y1="276.8" x2="550.15" y2="221.04"/><line class="cls-3" x1="596" y1="276.8" x2="594.76" y2="276.8"/><line class="cls-3" x1="596" y1="221.04" x2="594.76" y2="221.04"/><line class="cls-3" x1="594.76" y1="276.8" x2="594.76" y2="221.04"/><line class="cls-3" x1="550.15" y1="221.04" x2="551.39" y2="221.04"/><line class="cls-3" x1="551.39" y1="276.8" x2="551.39" y2="221.04"/><line class="cls-3" x1="594.76" y1="149.8" x2="551.39" y2="149.8"/><line class="cls-3" x1="671.9" y1="660.85" x2="671.9" y2="512.16"/><line class="cls-3" x1="473.65" y1="660.85" x2="473.65" y2="512.16"/><line class="cls-3" x1="54.5" y1="289.19" x2="83.65" y2="289.19"/><polyline class="cls-3" points="54.5 196.26 83.65 196.26 83.65 217.95"/><line class="cls-3" x1="54.5" y1="217.95" x2="83.65" y2="217.95"/><line class="cls-3" x1="350.05" y1="196.26" x2="350.05" y2="217.95"/><line class="cls-3" x1="405.8" y1="217.95" x2="424.39" y2="217.95"/><line class="cls-3" x1="350.05" y1="289.19" x2="480.15" y2="289.19"/><line class="cls-3" x1="424.39" y1="196.26" x2="424.39" y2="217.95"/><line class="cls-3" x1="405.8" y1="196.26" x2="405.8" y2="217.95"/><line class="cls-3" x1="393.41" y1="217.95" x2="350.05" y2="217.95"/><line class="cls-3" x1="393.41" y1="196.26" x2="393.41" y2="217.95"/><line class="cls-3" x1="393.41" y1="196.26" x2="350.05" y2="196.26"/><line class="cls-3" x1="480.15" y1="196.26" x2="436.78" y2="196.26"/><line class="cls-3" x1="480.15" y1="196.26" x2="480.15" y2="217.95"/><line class="cls-3" x1="436.78" y1="217.95" x2="480.15" y2="217.95"/><line class="cls-3" x1="436.78" y1="196.26" x2="436.78" y2="217.95"/><line class="cls-3" x1="405.8" y1="196.26" x2="393.41" y2="196.26"/><line class="cls-3" x1="436.78" y1="217.95" x2="424.39" y2="217.95"/><line class="cls-3" x1="405.8" y1="217.95" x2="393.41" y2="217.95"/><line class="cls-3" x1="424.39" y1="196.26" x2="436.78" y2="196.26"/><line class="cls-3" x1="151.79" y1="196.26" x2="151.79" y2="217.95"/><line class="cls-3" x1="207.55" y1="217.95" x2="226.14" y2="217.95"/><line class="cls-3" x1="151.79" y1="289.19" x2="281.9" y2="289.19"/><line class="cls-3" x1="226.14" y1="196.26" x2="226.14" y2="217.95"/><line class="cls-3" x1="207.55" y1="196.26" x2="207.55" y2="217.95"/><line class="cls-3" x1="195.16" y1="217.95" x2="151.79" y2="217.95"/><line class="cls-3" x1="195.16" y1="196.26" x2="195.16" y2="217.95"/><line class="cls-3" x1="195.16" y1="196.26" x2="151.79" y2="196.26"/><line class="cls-3" x1="281.9" y1="196.26" x2="238.53" y2="196.26"/><line class="cls-3" x1="281.9" y1="196.26" x2="281.9" y2="217.95"/><line class="cls-3" x1="238.53" y1="217.95" x2="281.9" y2="217.95"/><line class="cls-3" x1="238.53" y1="196.26" x2="238.53" y2="217.95"/><line class="cls-3" x1="207.55" y1="196.26" x2="195.16" y2="196.26"/><line class="cls-3" x1="238.53" y1="217.95" x2="226.14" y2="217.95"/><line class="cls-3" x1="207.55" y1="217.95" x2="195.16" y2="217.95"/><line class="cls-3" x1="226.14" y1="196.26" x2="238.53" y2="196.26"/><line class="cls-3" x1="647.42" y1="289.19" x2="647.42" y2="499.83"/><line class="cls-3" x1="498.73" y1="289.19" x2="498.73" y2="499.83"/><line class="cls-3" x1="449.17" y1="673.3" x2="449.17" y2="499.83"/><line class="cls-3" x1="696.98" y1="673.3" x2="696.98" y2="499.83"/><line class="cls-3" x1="83.65" y1="301.58" x2="54.5" y2="301.58"/><line class="cls-3" x1="83.65" y1="289.19" x2="83.65" y2="301.58"/><line class="cls-3" x1="480.15" y1="301.58" x2="350.05" y2="301.58"/><line class="cls-3" x1="350.05" y1="289.19" x2="350.05" y2="301.58"/><line class="cls-3" x1="480.15" y1="289.19" x2="480.15" y2="301.58"/><line class="cls-3" x1="151.79" y1="301.58" x2="281.9" y2="301.58"/><line class="cls-3" x1="281.9" y1="289.19" x2="281.9" y2="301.58"/><line class="cls-3" x1="151.79" y1="289.19" x2="151.79" y2="301.58"/><line class="cls-3" x1="785.27" y1="289.19" x2="785.27" y2="283"/><line class="cls-3" x1="594.76" y1="217.95" x2="594.76" y2="149.8"/><line class="cls-3" x1="226.14" y1="149.8" x2="207.55" y2="149.8"/><line class="cls-3" x1="424.39" y1="149.8" x2="405.8" y2="149.8"/><line class="cls-3" x1="613.35" y1="149.8" x2="594.76" y2="149.8"/><polyline class="cls-3" points="594.76 217.95 613.35 217.95 613.35 149.8"/><line class="cls-3" x1="622.21" y1="283" x2="622.21" y2="276.8"/><line class="cls-3" x1="523.33" y1="283" x2="523.33" y2="276.8"/><line class="cls-3" x1="83.65" y1="289.19" x2="83.65" y2="283"/><line class="cls-3" x1="480.15" y1="289.19" x2="480.15" y2="283"/><line class="cls-3" x1="350.05" y1="289.19" x2="350.05" y2="283"/><line class="cls-3" x1="281.9" y1="289.19" x2="281.9" y2="283"/><line class="cls-3" x1="151.79" y1="289.19" x2="151.79" y2="283"/><line class="cls-3" x1="54.5" y1="283" x2="83.65" y2="283"/><line class="cls-3" x1="226.14" y1="196.26" x2="226.14" y2="149.8"/><line class="cls-3" x1="207.55" y1="196.26" x2="207.55" y2="149.8"/><line class="cls-3" x1="424.39" y1="196.26" x2="424.39" y2="149.8"/><line class="cls-3" x1="405.8" y1="196.26" x2="405.8" y2="149.8"/><line class="cls-3" x1="594.76" y1="221.04" x2="594.76" y2="217.95"/><polyline class="cls-3" points="551.39 221.04 551.39 217.95 551.39 149.8"/><line class="cls-3" x1="622.21" y1="289.19" x2="622.21" y2="283"/><line class="cls-3" x1="523.33" y1="289.19" x2="523.33" y2="283"/><line class="cls-3" x1="83.65" y1="283" x2="83.65" y2="217.95"/><line class="cls-3" x1="480.15" y1="283" x2="480.15" y2="217.95"/><line class="cls-3" x1="350.05" y1="283" x2="350.05" y2="217.95"/><line class="cls-3" x1="281.9" y1="283" x2="281.9" y2="217.95"/><line class="cls-3" x1="151.79" y1="283" x2="151.79" y2="217.95"/><line class="cls-3" x1="207.55" y1="149.8" x2="54.5" y2="149.8"/><polyline class="cls-3" points="622.21 512.16 622.21 499.83 622.21 289.19"/><polyline class="cls-3" points="523.34 512.16 523.34 499.83 523.34 289.19"/><line class="cls-3" x1="350.05" y1="289.19" x2="281.9" y2="289.19"/><polyline class="cls-3" points="281.9 283 350.05 283 480.15 283"/><line class="cls-3" x1="551.39" y1="149.8" x2="424.39" y2="149.8"/><line class="cls-3" x1="405.8" y1="149.8" x2="226.14" y2="149.8"/><line class="cls-3" x1="83.65" y1="217.95" x2="151.79" y2="217.95"/><line class="cls-3" x1="151.79" y1="289.19" x2="83.65" y2="289.19"/><polyline class="cls-3" points="83.65 283 151.79 283 281.9 283"/><line class="cls-3" x1="480.15" y1="283" x2="523.33" y2="283"/><line class="cls-3" x1="498.73" y1="289.19" x2="480.15" y2="289.19"/><polyline class="cls-3" points="523.34 283 622.21 283 785.27 283"/><line class="cls-3" x1="281.9" y1="217.95" x2="350.05" y2="217.95"/><polyline class="cls-3" points="480.15 217.95 551.39 217.95 594.76 217.95"/><line class="cls-3" x1="785.27" y1="289.19" x2="647.42" y2="289.19"/><line class="cls-3" x1="550.15" y1="276.8" x2="551.39" y2="276.8"/><line class="cls-3" x1="596" y1="276.8" x2="622.21" y2="276.8"/><line class="cls-3" x1="551.39" y1="276.8" x2="594.76" y2="276.8"/><line class="cls-3" x1="550.15" y1="276.8" x2="523.33" y2="276.8"/><line class="cls-3" x1="523.33" y1="512.16" x2="473.65" y2="512.16"/><line class="cls-3" x1="622.21" y1="512.16" x2="523.33" y2="512.16"/><line class="cls-3" x1="671.9" y1="512.16" x2="622.21" y2="512.16"/><line class="cls-3" x1="671.9" y1="660.85" x2="473.65" y2="660.85"/><line class="cls-3" x1="622.21" y1="289.19" x2="647.42" y2="289.19"/><line class="cls-3" x1="523.33" y1="289.19" x2="622.21" y2="289.19"/><line class="cls-3" x1="498.73" y1="289.19" x2="523.33" y2="289.19"/><line class="cls-3" x1="449.17" y1="673.3" x2="696.98" y2="673.3"/><line class="cls-3" x1="449.17" y1="499.83" x2="498.73" y2="499.83"/><line class="cls-3" x1="696.98" y1="499.83" x2="647.42" y2="499.83"/><line class="cls-3" x1="622.21" y1="499.83" x2="647.42" y2="499.83"/><line class="cls-3" x1="523.33" y1="499.83" x2="622.21" y2="499.83"/><line class="cls-3" x1="498.73" y1="499.83" x2="523.33" y2="499.83"/><line class="cls-2" x1="785.27" y1="289.19" x2="1107.5" y2="289.19"/><g class="cls-4"><g class="cls-5"><line class="cls-2" x1="631.33" y1="289.19" x2="820.4" y2="289.19"/><line class="cls-2" x1="820.4" y1="289.19" x2="827.9" y2="289.19"/><line class="cls-2" x1="631.34" y1="512.16" x2="820.4" y2="512.16"/><line class="cls-2" x1="820.4" y1="512.16" x2="827.9" y2="512.16"/><line class="cls-6" x1="820.4" y1="296.7" x2="820.4" y2="504.65"/><polygon points="820.4 289.95 821.52 296.7 819.27 296.7 820.4 289.95"/><polygon class="cls-6" points="820.4 289.95 821.52 296.7 819.27 296.7 820.4 289.95"/><polygon points="820.4 511.4 819.27 504.65 821.52 504.65 820.4 511.4"/><polygon class="cls-6" points="820.4 511.4 819.27 504.65 821.52 504.65 820.4 511.4"/></g></g><g class="cls-7"><g class="cls-5"><text class="cls-8" transform="translate(815.53 432.44) rotate(-90)">18” Frost Depth</text></g></g><g class="cls-9"><g class="cls-5"><line class="cls-2" x1="680.9" y1="660.85" x2="820.4" y2="660.85"/><line class="cls-2" x1="820.4" y1="660.85" x2="827.9" y2="660.85"/><line class="cls-2" x1="680.9" y1="512.16" x2="820.4" y2="512.16"/><line class="cls-2" x1="820.4" y1="512.16" x2="827.9" y2="512.16"/><line class="cls-6" x1="820.4" y1="653.34" x2="820.4" y2="519.67"/><polygon points="820.4 660.09 819.27 653.34 821.52 653.34 820.4 660.09"/><polygon class="cls-6" points="820.4 660.09 819.27 653.34 821.52 653.34 820.4 660.09"/><polygon points="820.4 512.92 821.52 519.67 819.27 519.67 820.4 512.92"/><polygon class="cls-6" points="820.4 512.92 821.52 519.67 819.27 519.67 820.4 512.92"/></g></g><g class="cls-10"><g class="cls-5"><text class="cls-8" transform="translate(815.53 595.96) rotate(-90)">1&apos;-0&quot;</text></g></g><g class="cls-11"><g class="cls-5"><line class="cls-2" x1="631.21" y1="276.8" x2="820.4" y2="276.8"/><line class="cls-2" x1="820.4" y1="276.8" x2="827.9" y2="276.8"/><line class="cls-2" x1="631.21" y1="289.19" x2="820.4" y2="289.19"/><line class="cls-2" x1="820.4" y1="289.19" x2="827.9" y2="289.19"/><line class="cls-6" x1="820.4" y1="269.29" x2="820.4" y2="261.78"/><polygon points="820.4 276.04 819.27 269.29 821.52 269.29 820.4 276.04"/><polygon class="cls-6" points="820.4 276.04 819.27 269.29 821.52 269.29 820.4 276.04"/><line class="cls-6" x1="820.4" y1="304.21" x2="820.4" y2="296.7"/><polygon points="820.4 289.95 821.52 296.7 819.27 296.7 820.4 289.95"/><polygon class="cls-6" points="820.4 289.95 821.52 296.7 819.27 296.7 820.4 289.95"/><path class="cls-2" d="M820.89,282.52c6.14.31,9.3,3.58,9.3,9.64" transform="translate(0.5 0.5)"/><path d="M820.6,281.79a1,1,0,1,1-1.41,0,1,1,0,0,1,1.41,0" transform="translate(0.5 0.5)"/><path class="cls-2" d="M820.6,281.79a1,1,0,1,1-1.41,0,1,1,0,0,1,1.41,0" transform="translate(0.5 0.5)"/></g></g><g class="cls-12"><g class="cls-5"><text class="cls-8" transform="translate(833.55 304.36) rotate(-90)">1&quot;</text></g></g><g class="cls-13"><g class="cls-5"><line class="cls-2" x1="603.44" y1="276.83" x2="820.46" y2="277.37"/><line class="cls-2" x1="820.46" y1="277.37" x2="827.96" y2="277.39"/><line class="cls-2" x1="603.76" y1="149.82" x2="820.78" y2="150.37"/><line class="cls-2" x1="820.78" y1="150.37" x2="828.28" y2="150.39"/><line class="cls-6" x1="820.48" y1="269.86" x2="820.77" y2="157.88"/><polygon points="820.47 276.61 819.36 269.86 821.61 269.87 820.47 276.61"/><polygon class="cls-6" points="820.47 276.61 819.36 269.86 821.61 269.87 820.47 276.61"/><polygon points="820.78 151.13 821.89 157.88 819.64 157.88 820.78 151.13"/><polygon class="cls-6" points="820.78 151.13 821.89 157.88 819.64 157.88 820.78 151.13"/></g></g><g class="cls-14"><g class="cls-5"><text class="cls-8" transform="translate(815.69 228.54) rotate(-89.86)">10 1/4&quot;</text></g></g><g class="cls-15"><g class="cls-5"><line class="cls-2" x1="498.73" y1="490.83" x2="498.73" y2="427.72"/><line class="cls-2" x1="498.73" y1="427.72" x2="498.73" y2="420.22"/><line class="cls-2" x1="647.42" y1="490.83" x2="647.42" y2="427.72"/><line class="cls-2" x1="647.42" y1="427.72" x2="647.42" y2="420.22"/><line class="cls-6" x1="506.24" y1="427.72" x2="639.91" y2="427.72"/><polygon points="499.49 427.72 506.24 426.6 506.24 428.85 499.49 427.72"/><polygon class="cls-6" points="499.49 427.72 506.24 426.6 506.24 428.85 499.49 427.72"/><polygon points="646.66 427.72 639.91 428.85 639.91 426.6 646.66 427.72"/><polygon class="cls-6" points="646.66 427.72 639.91 428.85 639.91 426.6 646.66 427.72"/></g></g><g class="cls-16"><g class="cls-5"><text class="cls-8" transform="translate(563.62 422.85)">1&apos;-0&quot;</text></g></g><g class="cls-17"><g class="cls-5"><line class="cls-2" x1="449.17" y1="664.3" x2="449.17" y2="630.92"/><line class="cls-2" x1="449.17" y1="630.92" x2="449.17" y2="623.42"/><line class="cls-2" x1="696.98" y1="664.3" x2="696.98" y2="630.92"/><line class="cls-2" x1="696.98" y1="630.92" x2="696.98" y2="623.42"/><line class="cls-6" x1="456.68" y1="630.92" x2="689.47" y2="630.92"/><polygon points="449.93 630.92 456.68 629.8 456.68 632.05 449.93 630.92"/><polygon class="cls-6" points="449.93 630.92 456.68 629.8 456.68 632.05 449.93 630.92"/><polygon points="696.22 630.92 689.47 632.05 689.47 629.8 696.22 630.92"/><polygon class="cls-6" points="696.22 630.92 689.47 632.05 689.47 629.8 696.22 630.92"/></g></g><g class="cls-18"><g class="cls-5"><text class="cls-8" transform="translate(563.62 626.06)">1&apos;-8&quot;</text></g></g><g class="cls-19"><g class="cls-5"><line class="cls-2" x1="523.21" y1="503.16" x2="523.21" y2="359.94"/><line class="cls-2" x1="523.21" y1="359.94" x2="523.21" y2="352.44"/><line class="cls-2" x1="622.33" y1="503.16" x2="622.33" y2="359.94"/><line class="cls-2" x1="622.33" y1="359.94" x2="622.33" y2="352.44"/><line class="cls-6" x1="530.72" y1="359.94" x2="614.82" y2="359.94"/><polygon points="523.97 359.94 530.72 358.81 530.72 361.06 523.97 359.94"/><polygon class="cls-6" points="523.97 359.94 530.72 358.81 530.72 361.06 523.97 359.94"/><polygon points="621.58 359.94 614.83 361.06 614.83 358.81 621.58 359.94"/><polygon class="cls-6" points="621.58 359.94 614.83 361.06 614.83 358.81 621.58 359.94"/></g></g><g class="cls-20"><g class="cls-5"><text class="cls-8" transform="translate(568.17 355.07)">8&quot;</text></g></g><g class="cls-21"><g class="cls-5"><line class="cls-2" x1="473.65" y1="651.85" x2="473.65" y2="538.15"/><line class="cls-2" x1="473.65" y1="538.15" x2="473.65" y2="530.65"/><line class="cls-2" x1="671.9" y1="651.85" x2="671.9" y2="538.15"/><line class="cls-2" x1="671.9" y1="538.15" x2="671.9" y2="530.65"/><line class="cls-6" x1="481.16" y1="538.15" x2="664.39" y2="538.15"/><polygon points="474.41 538.15 481.16 537.02 481.16 539.27 474.41 538.15"/><polygon class="cls-6" points="474.41 538.15 481.16 537.02 481.16 539.27 474.41 538.15"/><polygon points="671.14 538.15 664.39 539.27 664.39 537.02 671.14 538.15"/><polygon class="cls-6" points="671.14 538.15 664.39 539.27 664.39 537.02 671.14 538.15"/></g></g><g class="cls-22"><g class="cls-5"><text class="cls-8" transform="translate(563.31 533.28)">1&apos;-4&quot;</text></g></g><line class="cls-2" x1="1116.5" y1="729.5" x2="1179.5" y2="729.5"/><g class="cls-23"><g class="cls-5"><text class="cls-24" transform="translate(1131 561.57) rotate(-90)">ISSUE <tspan class="cls-25" x="22.33" y="0">D</tspan><tspan class="cls-26" x="26.75" y="0">A</tspan><tspan x="31.01" y="0">TE</tspan></text></g></g><g class="cls-27"><g class="cls-5"><text class="cls-24" transform="matrix(0, -1, 1, 0, 1130.5, 378.98)">SITE ADDRESS</text></g></g><g class="cls-28"><g class="cls-5"><text class="cls-24" transform="matrix(0, -1, 1, 0, 1131, 489.48)"><tspan class="cls-29">O</tspan><tspan x="4.9" y="0">WNER</tspan></text></g></g><g class="cls-30"><g class="cls-5"><text class="cls-31" transform="matrix(1, 0, 0, 1, 1119, 756.46)">A.02</text></g></g><g class="cls-32"><g class="cls-5"><text class="cls-33" transform="translate(1143.41 717.97) rotate(-90)">Foundation</text><text class="cls-33" transform="translate(1164 717.97) rotate(-90)">Pier Section</text></g></g><rect class="cls-1" x="1123.47" y="326.4" width="9" height="55"/><text class="cls-34" transform="translate(1162.86 268.25) rotate(-90)">This work is licensed under a Creative Commons </text><text class="cls-34" transform="translate(1169.06 268.25) rotate(-90)">Attribution- ShareAlike 4.0 International License</text><text class="cls-34" transform="translate(1175.25 268.25) rotate(-90)">http://creativecommons.org/licenses/by-sa/4.0/</text><rect class="cls-1" x="1157.86" y="119.81" width="20.45" height="150.93"/><path class="cls-35" d="M1124,266l.1-56.68c0-.79-.12-1.5,1.58-1.5l18.67.07v59.54h-18.73c-.84,0-1.61-.08-1.61-1.43" transform="translate(0.5 0.5)"/><path class="cls-36" d="M1133.51,250.49a6.82,6.82,0,0,1,0,13.64h0a6.82,6.82,0,0,1,0-13.64h0" transform="translate(0.5 0.5)"/><path d="M1132.75,253.93a.93.93,0,0,0-.64.86q0,1.05,1.39,1.06t1.39-1.05a1,1,0,0,0-.68-1l.51-1a2.21,2.21,0,0,1,1.21,2,2.25,2.25,0,0,1-.65,1.69,2.79,2.79,0,0,1-3.55,0,2.41,2.41,0,0,1,.48-3.7l.53,1.05m0,4.5a.94.94,0,0,0-.64.88q0,1,1.39,1t1.39-1a1,1,0,0,0-.68-1l.51-1a2.21,2.21,0,0,1,1.21,2,2.26,2.26,0,0,1-.65,1.69,2.43,2.43,0,0,1-1.78.63,2.4,2.4,0,0,1-1.77-.65,2.21,2.21,0,0,1-.66-1.63,2.17,2.17,0,0,1,1.14-2.07Zm-3.77,3.36a6.24,6.24,0,0,0,4.54,1.92,6.48,6.48,0,0,0,6.4-6.42,6.26,6.26,0,0,0-1.92-4.56,6,6,0,0,0-4.48-1.84,6.38,6.38,0,0,0-6.41,6.4A6.05,6.05,0,0,0,1129,261.79Zm-1-10a7.55,7.55,0,0,1,5.55-2.27,7.42,7.42,0,0,1,5.49,2.23,7.7,7.7,0,0,1,2.33,5.59,7.88,7.88,0,0,1-7.82,7.8,7.65,7.65,0,0,1-5.55-2.31,7.44,7.44,0,0,1-2.27-5.49A7.54,7.54,0,0,1,1128,251.76Z" transform="translate(0.5 0.5)"/><path d="M1124.23,266.62V208.87a.62.62,0,0,1,.62-.62h13.62v41.28a8.88,8.88,0,0,1,0,15.55v2.16h-13.62a.62.62,0,0,1-.62-.62m-.51-57.75v57.75a1.12,1.12,0,0,0,1.12,1.12h19.62a.25.25,0,0,0,.25-.25V208a.25.25,0,0,0-.25-.25h-19.62A1.12,1.12,0,0,0,1123.72,208.87Z" transform="translate(0.5 0.5)"/><path class="cls-36" d="M1142.59,224.61a.53.53,0,0,0,.19-.16.69.69,0,0,0,.11-.23,1.07,1.07,0,0,0,0-.28,1.42,1.42,0,0,0,0-.21.69.69,0,0,0-.06-.21.44.44,0,0,0-.13-.16.32.32,0,0,0-.21-.07.29.29,0,0,0-.22.09.68.68,0,0,0-.14.22,2.14,2.14,0,0,0-.1.31c0,.12-.06.24-.09.36a3.16,3.16,0,0,1-.11.36,1.26,1.26,0,0,1-.17.31.78.78,0,0,1-.65.31.87.87,0,0,1-.44-.11,1,1,0,0,1-.31-.29,1.21,1.21,0,0,1-.19-.4,1.69,1.69,0,0,1-.06-.44,2.09,2.09,0,0,1,.06-.5,1.24,1.24,0,0,1,.19-.42.94.94,0,0,1,.33-.29,1,1,0,0,1,.49-.11v.71a.6.6,0,0,0-.25.06.42.42,0,0,0-.15.14.59.59,0,0,0-.08.2,1.19,1.19,0,0,0,0,.25.86.86,0,0,0,0,.17.45.45,0,0,0,.07.16.39.39,0,0,0,.12.12.32.32,0,0,0,.18,0,.3.3,0,0,0,.16,0,.34.34,0,0,0,.11-.15,2,2,0,0,0,.1-.3l.13-.5c0-.06,0-.15.07-.26a1.25,1.25,0,0,1,.16-.33,1,1,0,0,1,.29-.28.81.81,0,0,1,.46-.12,1,1,0,0,1,.42.09.92.92,0,0,1,.34.26,1.25,1.25,0,0,1,.22.43,2,2,0,0,1,.08.6,2.09,2.09,0,0,1-.07.53,1.35,1.35,0,0,1-.21.45,1,1,0,0,1-.37.31,1.1,1.1,0,0,1-.53.11v-.71a.61.61,0,0,0,.28-.06" transform="translate(0.5 0.5)"/><path class="cls-36" d="M1142.12,220.47l-1.21.42h0l1.21.43v-.86m-2,0,3.31-1.24V220l-.74.25v1.24l.74.26v.73l-3.31-1.25Z" transform="translate(0.5 0.5)"/><path class="cls-36" d="M1142.84,237.8a1,1,0,0,0,0-.2.51.51,0,0,0-.07-.17.36.36,0,0,0-.13-.12.45.45,0,0,0-.21,0,.43.43,0,0,0-.36.14.62.62,0,0,0-.11.38v.79h.91v-.78m-1.41,0a.53.53,0,0,0-.09-.32.35.35,0,0,0-.3-.12.38.38,0,0,0-.19,0,.31.31,0,0,0-.12.11.49.49,0,0,0-.06.16,1.15,1.15,0,0,0,0,.19v.68h.77Zm-1.34-.09a2.05,2.05,0,0,1,0-.43.94.94,0,0,1,.14-.33.64.64,0,0,1,.25-.22.88.88,0,0,1,.39-.08.72.72,0,0,1,.42.11.82.82,0,0,1,.27.34.8.8,0,0,1,.31-.46.92.92,0,0,1,.53-.15.91.91,0,0,1,.43.1.84.84,0,0,1,.3.26,1.17,1.17,0,0,1,.17.38,1.71,1.71,0,0,1,.05.43v1.61h-3.31Z" transform="translate(0.5 0.5)"/><polyline class="cls-36" points="1140.59 236.9 1140.59 236.08 1141.9 235.31 1140.59 234.54 1140.59 233.73 1142.63 234.96 1143.9 234.96 1143.9 235.69 1142.62 235.69 1140.59 236.9"/><path class="cls-36" d="M1131.21,216.54a5.29,5.29,0,0,1,0,10.59h0a5.29,5.29,0,0,1,0-10.59h0" transform="translate(0.5 0.5)"/><path d="M1126.46,221.86a4.75,4.75,0,0,1,4.75-4.75,4.42,4.42,0,0,1,3.32,1.36,4.65,4.65,0,0,1,1.42,3.38,4.72,4.72,0,0,1-8.1,3.34,4.5,4.5,0,0,1-1.39-3.34m-1,0a5.53,5.53,0,0,0,1.68,4.08,5.67,5.67,0,0,0,4.12,1.71,5.84,5.84,0,0,0,5.8-5.79,5.73,5.73,0,0,0-1.72-4.15,5.5,5.5,0,0,0-4.07-1.65,5.75,5.75,0,0,0-5.8,5.81Z" transform="translate(0.5 0.5)"/><path d="M1130.39,224.44a2.47,2.47,0,0,1-2.24-2.55,2.9,2.9,0,0,1,3.13-3,3,3,0,0,1,3.1,3,2.48,2.48,0,0,1-2.27,2.56V223c.78,0,1.05-.55,1.05-1.27s-.77-1.36-1.93-1.36-1.88.46-1.88,1.33a1.14,1.14,0,0,0,1,1.3v-.43l1.15,1.15-1.15,1.15v-.46" transform="translate(0.5 0.5)"/><path class="cls-36" d="M1126,236.07a5.37,5.37,0,1,1,5.37,5.37,5.37,5.37,0,0,1-5.37-5.37" transform="translate(0.5 0.5)"/><path d="M1129.77,234.51a.37.37,0,0,0-.37.37v2.37a.37.37,0,0,0,.38.37h2.37V237H1135v-1.8h-2.81v-.66h-2.37" transform="translate(0.5 0.5)"/><path d="M1127.47,236.07a.81.81,0,1,1,.81.81.81.81,0,0,1-.81-.81" transform="translate(0.5 0.5)"/><path d="M1126.46,236.07a4.75,4.75,0,0,1,4.75-4.75,4.42,4.42,0,0,1,3.32,1.36,4.65,4.65,0,0,1,1.42,3.38,4.81,4.81,0,0,1-4.74,4.76,4.63,4.63,0,0,1-3.36-1.42,4.5,4.5,0,0,1-1.39-3.34m-1,0a5.53,5.53,0,0,0,1.68,4.08,5.67,5.67,0,0,0,4.12,1.71,5.84,5.84,0,0,0,5.8-5.79,5.72,5.72,0,0,0-1.72-4.15,5.5,5.5,0,0,0-4.07-1.65,5.74,5.74,0,0,0-5.8,5.81Z" transform="translate(0.5 0.5)"/><rect class="cls-1" x="1123.97" y="208" width="21.5" height="60.5"/><g class="cls-37"><g class="cls-38"><rect x="1117.47" y="36.42" width="62.99" height="55.34"/></g></g><rect class="cls-39" x="0.5" y="0.5" width="1224" height="792"/></svg>