<svg id="Layer_1" data-name="Layer 1" xmlns="http://www.w3.org/2000/svg" xmlns:xlink="http://www.w3.org/1999/xlink" viewBox="0 0 1225 793"><defs><style>.cls-1,.cls-10,.cls-2,.cls-41,.cls-8{fill:none;}.cls-10,.cls-2,.cls-8{stroke:#000;}.cls-10,.cls-2,.cls-41{stroke-miterlimit:10;}.cls-2,.cls-8{stroke-width:0.5px;}.cls-3{clip-path:url(#clip-path);}.cls-4{clip-path:url(#clip-path-2);}.cls-5,.cls-7{font-size:18px;}.cls-32,.cls-5{font-family:Arial-Black, Arial Black;}.cls-6{clip-path:url(#clip-path-3);}.cls-12,.cls-36,.cls-7{font-family:ArialMT, Arial;}.cls-8{stroke-linecap:round;stroke-linejoin:round;}.cls-9{clip-path:url(#clip-path-5);}.cls-10{stroke-width:0.25px;}.cls-11{clip-path:url(#clip-path-7);}.cls-12{font-size:9px;}.cls-13{clip-path:url(#clip-path-9);}.cls-14{clip-path:url(#clip-path-11);}.cls-15{clip-path:url(#clip-path-13);}.cls-16{clip-path:url(#clip-path-15);}.cls-17{clip-path:url(#clip-path-17);}.cls-18{clip-path:url(#clip-path-19);}.cls-19{clip-path:url(#clip-path-21);}.cls-20{clip-path:url(#clip-path-23);}.cls-21{clip-path:url(#clip-path-25);}.cls-22{clip-path:url(#clip-path-27);}.cls-23{clip-path:url(#clip-path-29);}.cls-24{clip-path:url(#clip-path-31);}.cls-25{clip-path:url(#clip-path-33);}.cls-26{clip-path:url(#clip-path-35);}.cls-27{letter-spacing:-0.07em;}.cls-28{clip-path:url(#clip-path-37);}.cls-29{clip-path:url(#clip-path-39);}.cls-30{clip-path:url(#clip-path-41);}.cls-31{clip-path:url(#clip-path-43);}.cls-32,.cls-36{font-size:6px;}.cls-33{letter-spacing:-0.04em;}.cls-34{letter-spacing:-0.07em;}.cls-35{letter-spacing:-0.02em;}.cls-37{fill:#a9b1aa;}.cls-38{fill:#fff;}.cls-39{clip-path:url(#clip-path-45);}.cls-40{clip-path:url(#clip-path-46);}.cls-41{stroke:#b5b5b5;}</style><clipPath id="clip-path" transform="translate(0.5 0.5)"><rect class="cls-1" x="1116" y="736" width="50.01" height="26"/></clipPath><clipPath id="clip-path-2" transform="translate(0.5 0.5)"><rect class="cls-1" width="1224" height="792"/></clipPath><clipPath id="clip-path-3" transform="translate(0.5 0.5)"><rect class="cls-1" x="1126.91" y="623.92" width="41.18" height="96.07"/></clipPath><clipPath id="clip-path-5" transform="translate(0.5 0.5)"><path class="cls-1" d="M977.36,429.7V400.78H967.07V429.7ZM804.46,188H990.94V642.43H804.46Z"/></clipPath><clipPath id="clip-path-7" transform="translate(0.5 0.5)"><rect class="cls-1" x="967.07" y="400.78" width="10.29" height="28.93"/></clipPath><clipPath id="clip-path-9" transform="translate(0.5 0.5)"><path class="cls-1" d="M497.24,89.61h28.93V79.31H497.24ZM212.45,79.31H811V199.05H212.45Z"/></clipPath><clipPath id="clip-path-11" transform="translate(0.5 0.5)"><rect class="cls-1" x="497.24" y="79.31" width="28.93" height="10.29"/></clipPath><clipPath id="clip-path-13" transform="translate(0.5 0.5)"><path class="cls-1" d="M727.57,241.8V212.59H717.27V241.8Zm-10.29-53.62h41.4V241.8h-41.4Z"/></clipPath><clipPath id="clip-path-15" transform="translate(0.5 0.5)"><rect class="cls-1" x="717.27" y="212.59" width="10.29" height="29.21"/></clipPath><clipPath id="clip-path-17" transform="translate(0.5 0.5)"><path class="cls-1" d="M770.93,710.88h19V700.58h-19Zm-25.53-79.45h70.06v93H745.41Z"/></clipPath><clipPath id="clip-path-19" transform="translate(0.5 0.5)"><rect class="cls-1" x="770.93" y="700.58" width="19.01" height="10.29"/></clipPath><clipPath id="clip-path-21" transform="translate(0.5 0.5)"><path class="cls-1" d="M722.89,710.88h19V700.58h-19Zm-25.52-84h70.05v97.53H697.37Z"/></clipPath><clipPath id="clip-path-23" transform="translate(0.5 0.5)"><rect class="cls-1" x="722.89" y="700.58" width="19.01" height="10.29"/></clipPath><clipPath id="clip-path-25" transform="translate(0.5 0.5)"><path class="cls-1" d="M290.52,710.88h19V700.58h-19Zm-25.52-84H335v97.53H265Z"/></clipPath><clipPath id="clip-path-27" transform="translate(0.5 0.5)"><rect class="cls-1" x="290.52" y="700.58" width="19.01" height="10.29"/></clipPath><clipPath id="clip-path-29" transform="translate(0.5 0.5)"><path class="cls-1" d="M223.86,710.88h14.2V700.58h-14.2Zm-20.28-84h54.77v97.53H203.58Z"/></clipPath><clipPath id="clip-path-31" transform="translate(0.5 0.5)"><rect class="cls-1" x="223.86" y="700.58" width="14.2" height="10.29"/></clipPath><clipPath id="clip-path-33" transform="translate(0.5 0.5)"><path class="cls-1" d="M250.22,710.88h18.54V700.58H250.22Zm-18.25-84h55v97.53H232Z"/></clipPath><clipPath id="clip-path-35" transform="translate(0.5 0.5)"><rect class="cls-1" x="250.22" y="700.58" width="18.54" height="10.29"/></clipPath><clipPath id="clip-path-37" transform="translate(0.5 0.5)"><path class="cls-1" d="M921.77,319.11V295.19H911.48v23.92ZM804.46,188H935.35v238.2H804.46Z"/></clipPath><clipPath id="clip-path-39" transform="translate(0.5 0.5)"><rect class="cls-1" x="911.48" y="295.19" width="10.29" height="23.92"/></clipPath><clipPath id="clip-path-41" transform="translate(0.5 0.5)"><path class="cls-1" d="M867.85,271.07V247.15H857.56v23.92Zm-63.39-83h77V330.16h-77Z"/></clipPath><clipPath id="clip-path-43" transform="translate(0.5 0.5)"><rect class="cls-1" x="857.56" y="247.15" width="10.29" height="23.92"/></clipPath><clipPath id="clip-path-45" transform="translate(0.5 0.5)"><path class="cls-1" d="M1150.15,59.37a4.39,4.39,0,0,0,.76-.07c3-.52,5-5.59,4.24-10a10.15,10.15,0,0,0-.26-1.1,8.43,8.43,0,0,1,1.13,3c.79,4.46-1.46,9.56-4.62,10.12A6.57,6.57,0,0,1,1145,58c.65,4.38-2.08,8.72-5.27,9.28a7.78,7.78,0,0,1-6.64-2.62A10.6,10.6,0,0,1,1133,68c-.79,4.46-4.12,7.6-7.44,7-2.37-.42-4.1-2.62-4.61-5.47l.06,0a3.7,3.7,0,0,0,.83.4,5,5,0,0,0,3.61,3.61c3,.52,6-2.66,6.8-7.12a10.8,10.8,0,0,0-.4-5.56c1.42,3.41,4.92,5.38,7.49,4.92,3-.52,5.44-5,4.66-9.42a9.36,9.36,0,0,0-.53-1.85l.12-.1.12.18c0-.08,0-.17,0-.25l.3-.27c1.08,3.26,3.7,5.24,6.16,5.24h0m18.3-12.68a3.54,3.54,0,1,1,3.54,3.54,3.54,3.54,0,0,1-3.54-3.54m-8.58-11.3a27.56,27.56,0,0,0-6.24.76,10,10,0,0,0-8,2.33,9.82,9.82,0,0,0-1.23,1.23q-1.35.73-2.68,1.58a9.33,9.33,0,0,0-7.37,4.52,8.11,8.11,0,0,0-.57,1.19,9.91,9.91,0,0,0-6,3.64,10.73,10.73,0,0,0-2.46,5.14,10.61,10.61,0,0,0-4.42,4,10.18,10.18,0,0,0-1.78,6.4,9.8,9.8,0,0,0-2.74,6.65c-.24,4.52,2,8.31,5,8.47,1.85.1,3.56-1.2,4.66-3.27q.27.38.58.74a13.63,13.63,0,0,0,6.36,4.18c-.15,3.51,1.34,6.45,3.78,7a3.72,3.72,0,0,0,.82.1h0c2.65,0,5.32-2.79,6.28-6.7q.72-.13,1.44-.31a4.8,4.8,0,0,0,3.42,3.1c3,.52,6-2.66,6.8-7.12l0-.16q.74-.43,1.47-.9a5.23,5.23,0,0,0,4.72,2c3-.52,5.44-5,4.66-9.42,0-.14-.05-.27-.08-.41l.67-.77a5.78,5.78,0,0,0,5.14,2.08c3-.52,5-5.59,4.24-10a9.55,9.55,0,0,0-.53-1.89c3.22-4.38,3.77-12.19.65-17.59-2.48-4.3-7.12-6-11.53-5.82a20.08,20.08,0,0,0-5.15-.64h0"/></clipPath><clipPath id="clip-path-46" transform="translate(0.5 0.5)"><rect class="cls-1" x="1116" y="35" width="63" height="55.02"/></clipPath></defs><title>A04</title><rect class="cls-2" x="54.5" y="36.5" width="1053" height="720"/><line class="cls-2" x1="1116.5" y1="729.5" x2="1179.5" y2="729.5"/><g class="cls-3"><g class="cls-4"><text class="cls-5" transform="translate(1119 756.52)">A.04</text></g></g><g class="cls-6"><g class="cls-4"><text class="cls-7" transform="translate(1143.41 717.97) rotate(-90)">Foundation</text><text class="cls-7" transform="translate(1164 717.97) rotate(-90)">Framing</text></g></g><line class="cls-8" x1="234.76" y1="214.57" x2="234.76" y2="204.06"/><line class="cls-8" x1="234.46" y1="214.57" x2="234.46" y2="204.06"/><line class="cls-8" x1="234.46" y1="214.57" x2="234.76" y2="214.57"/><line class="cls-8" x1="223.96" y1="214.57" x2="234.46" y2="214.57"/><line class="cls-8" x1="223.96" y1="204.06" x2="223.96" y2="214.57"/><line class="cls-8" x1="234.46" y1="204.06" x2="223.96" y2="204.06"/><line class="cls-8" x1="234.39" y1="198.51" x2="231.41" y2="197.52"/><line class="cls-8" x1="225.21" y1="197.96" x2="222.41" y2="199.36"/><line class="cls-8" x1="231.41" y1="197.52" x2="228.28" y2="197.33"/><line class="cls-8" x1="219.19" y1="216.04" x2="219.45" y2="216.34"/><line class="cls-8" x1="240.49" y1="205.39" x2="239.82" y2="204.06"/><line class="cls-8" x1="241.12" y1="208.46" x2="240.49" y2="205.39"/><line class="cls-8" x1="240.93" y1="211.59" x2="241.12" y2="208.46"/><line class="cls-8" x1="239.94" y1="214.56" x2="240.93" y2="211.59"/><line class="cls-8" x1="238.21" y1="217.18" x2="239.94" y2="214.56"/><line class="cls-8" x1="235.86" y1="219.26" x2="238.21" y2="217.18"/><line class="cls-8" x1="233.06" y1="220.66" x2="235.86" y2="219.26"/><line class="cls-8" x1="229.99" y1="221.29" x2="233.06" y2="220.66"/><line class="cls-8" x1="226.86" y1="221.1" x2="229.99" y2="221.29"/><line class="cls-8" x1="223.96" y1="220.14" x2="226.86" y2="221.1"/><line class="cls-8" x1="217.78" y1="213.24" x2="219.19" y2="216.04"/><line class="cls-8" x1="217.16" y1="210.16" x2="217.78" y2="213.24"/><line class="cls-8" x1="217.34" y1="207.04" x2="217.16" y2="210.16"/><line class="cls-8" x1="218.33" y1="204.06" x2="217.34" y2="207.04"/><line class="cls-8" x1="219.45" y1="202.37" x2="218.33" y2="204.06"/><line class="cls-8" x1="222.41" y1="199.36" x2="222.19" y2="199.55"/><line class="cls-8" x1="228.28" y1="197.33" x2="225.21" y2="197.96"/><line class="cls-8" x1="235.97" y1="199.55" x2="234.39" y2="198.51"/><polyline class="cls-8" points="234.76 627.42 234.76 616.91 234.46 616.91"/><polyline class="cls-8" points="234.46 627.42 234.46 616.91 223.96 616.91 223.96 627.42 234.46 627.42"/><line class="cls-8" x1="234.39" y1="611.37" x2="231.41" y2="610.38"/><line class="cls-8" x1="225.21" y1="610.82" x2="223.96" y2="611.45"/><line class="cls-8" x1="231.41" y1="610.38" x2="228.28" y2="610.19"/><line class="cls-8" x1="222.3" y1="631.93" x2="223.88" y2="632.97"/><line class="cls-8" x1="219.19" y1="628.9" x2="219.45" y2="629.2"/><line class="cls-8" x1="239.08" y1="615.44" x2="237" y2="613.09"/><line class="cls-8" x1="240.49" y1="618.24" x2="239.08" y2="615.44"/><line class="cls-8" x1="241.12" y1="621.32" x2="240.49" y2="618.24"/><line class="cls-8" x1="240.93" y1="624.45" x2="241.12" y2="621.32"/><line class="cls-8" x1="239.94" y1="627.42" x2="240.93" y2="624.45"/><line class="cls-8" x1="239.93" y1="627.42" x2="239.94" y2="627.42"/><line class="cls-8" x1="235.86" y1="632.12" x2="236.08" y2="631.93"/><line class="cls-8" x1="233.06" y1="633.52" x2="235.86" y2="632.12"/><line class="cls-8" x1="229.99" y1="634.15" x2="233.06" y2="633.52"/><line class="cls-8" x1="226.86" y1="633.96" x2="229.99" y2="634.15"/><line class="cls-8" x1="223.88" y1="632.97" x2="226.86" y2="633.96"/><line class="cls-8" x1="217.78" y1="626.09" x2="219.19" y2="628.9"/><line class="cls-8" x1="217.16" y1="623.02" x2="217.78" y2="626.09"/><line class="cls-8" x1="217.34" y1="619.89" x2="217.16" y2="623.02"/><line class="cls-8" x1="218.33" y1="616.92" x2="217.34" y2="619.89"/><line class="cls-8" x1="219.45" y1="615.23" x2="218.33" y2="616.92"/><line class="cls-8" x1="228.28" y1="610.19" x2="225.21" y2="610.82"/><line class="cls-8" x1="237" y1="613.09" x2="234.39" y2="611.37"/><line class="cls-8" x1="789.65" y1="616.91" x2="789.65" y2="627.42"/><line class="cls-8" x1="789.95" y1="616.91" x2="789.65" y2="616.91"/><polyline class="cls-8" points="800.46 616.91 789.95 616.91 789.95 627.42"/><line class="cls-8" x1="800.45" y1="627.42" x2="800.45" y2="616.91"/><line class="cls-8" x1="789.95" y1="627.42" x2="800.45" y2="627.42"/><line class="cls-8" x1="800.38" y1="611.37" x2="797.4" y2="610.38"/><line class="cls-8" x1="791.2" y1="610.82" x2="788.4" y2="612.22"/><line class="cls-8" x1="797.4" y1="610.38" x2="794.27" y2="610.19"/><line class="cls-8" x1="788.29" y1="631.93" x2="789.88" y2="632.97"/><line class="cls-8" x1="805.07" y1="615.44" x2="804.96" y2="615.31"/><line class="cls-8" x1="806.48" y1="618.24" x2="805.07" y2="615.44"/><line class="cls-8" x1="807.11" y1="621.32" x2="806.48" y2="618.24"/><line class="cls-8" x1="806.92" y1="624.45" x2="807.11" y2="621.32"/><line class="cls-8" x1="805.93" y1="627.42" x2="806.92" y2="624.45"/><line class="cls-8" x1="804.96" y1="628.89" x2="805.93" y2="627.42"/><line class="cls-8" x1="801.86" y1="632.12" x2="802.07" y2="631.93"/><line class="cls-8" x1="799.05" y1="633.52" x2="801.86" y2="632.12"/><line class="cls-8" x1="795.98" y1="634.15" x2="799.05" y2="633.52"/><line class="cls-8" x1="792.85" y1="633.96" x2="795.98" y2="634.15"/><line class="cls-8" x1="789.88" y1="632.97" x2="792.85" y2="633.96"/><line class="cls-8" x1="783.78" y1="626.09" x2="784.44" y2="627.42"/><line class="cls-8" x1="783.15" y1="623.02" x2="783.78" y2="626.09"/><line class="cls-8" x1="783.33" y1="619.89" x2="783.15" y2="623.02"/><line class="cls-8" x1="784.32" y1="616.92" x2="783.33" y2="619.89"/><line class="cls-8" x1="786.05" y1="614.3" x2="784.32" y2="616.92"/><line class="cls-8" x1="788.4" y1="612.22" x2="786.05" y2="614.3"/><line class="cls-8" x1="794.27" y1="610.19" x2="791.2" y2="610.82"/><line class="cls-8" x1="800.45" y1="611.42" x2="800.38" y2="611.37"/><line class="cls-8" x1="789.65" y1="214.57" x2="789.95" y2="214.57"/><line class="cls-8" x1="789.65" y1="204.06" x2="789.65" y2="214.57"/><line class="cls-8" x1="789.95" y1="214.57" x2="800.45" y2="214.57"/><line class="cls-8" x1="789.95" y1="204.06" x2="789.95" y2="214.57"/><line class="cls-8" x1="800.45" y1="204.06" x2="789.95" y2="204.06"/><line class="cls-8" x1="800.45" y1="214.57" x2="800.45" y2="204.06"/><line class="cls-8" x1="800.38" y1="198.51" x2="797.4" y2="197.52"/><line class="cls-8" x1="791.2" y1="197.96" x2="788.4" y2="199.36"/><line class="cls-8" x1="797.4" y1="197.52" x2="794.27" y2="197.33"/><line class="cls-8" x1="787.26" y1="218.39" x2="789.88" y2="220.11"/><line class="cls-8" x1="785.18" y1="216.04" x2="787.26" y2="218.39"/><line class="cls-8" x1="805.07" y1="202.58" x2="804.96" y2="202.45"/><line class="cls-8" x1="806.48" y1="205.39" x2="805.07" y2="202.58"/><line class="cls-8" x1="807.11" y1="208.46" x2="806.48" y2="205.39"/><line class="cls-8" x1="806.92" y1="211.59" x2="807.11" y2="208.46"/><line class="cls-8" x1="805.93" y1="214.56" x2="806.92" y2="211.59"/><line class="cls-8" x1="804.96" y1="216.03" x2="805.93" y2="214.56"/><line class="cls-8" x1="799.05" y1="220.66" x2="800.45" y2="219.96"/><line class="cls-8" x1="795.98" y1="221.29" x2="799.05" y2="220.66"/><line class="cls-8" x1="792.85" y1="221.1" x2="795.98" y2="221.29"/><line class="cls-8" x1="789.88" y1="220.11" x2="792.85" y2="221.1"/><line class="cls-8" x1="783.78" y1="213.24" x2="785.18" y2="216.04"/><line class="cls-8" x1="783.15" y1="210.16" x2="783.78" y2="213.24"/><line class="cls-8" x1="783.33" y1="207.04" x2="783.15" y2="210.16"/><line class="cls-8" x1="784.32" y1="204.06" x2="783.33" y2="207.04"/><line class="cls-8" x1="784.33" y1="204.06" x2="784.32" y2="204.06"/><line class="cls-8" x1="788.4" y1="199.36" x2="788.18" y2="199.55"/><line class="cls-8" x1="794.27" y1="197.33" x2="791.2" y2="197.96"/><line class="cls-8" x1="801.96" y1="199.55" x2="800.38" y2="198.51"/><line class="cls-8" x1="356.82" y1="610.16" x2="356.82" y2="623.67"/><line class="cls-8" x1="356.82" y1="605.65" x2="356.82" y2="610.16"/><line class="cls-8" x1="356.82" y1="592.14" x2="356.82" y2="605.65"/><line class="cls-8" x1="374.84" y1="623.67" x2="388.35" y2="623.67"/><line class="cls-8" x1="356.82" y1="623.67" x2="370.33" y2="623.67"/><line class="cls-8" x1="367.33" y1="605.65" x2="356.82" y2="605.65"/><line class="cls-8" x1="356.82" y1="610.16" x2="367.33" y2="610.16"/><line class="cls-8" x1="388.35" y1="605.65" x2="377.84" y2="605.65"/><polyline class="cls-8" points="388.35 610.16 388.35 605.65 388.35 592.14"/><line class="cls-8" x1="388.35" y1="623.67" x2="388.35" y2="610.16"/><line class="cls-8" x1="377.84" y1="610.16" x2="388.35" y2="610.16"/><line class="cls-8" x1="370.33" y1="592.14" x2="356.82" y2="592.14"/><line class="cls-8" x1="367.33" y1="605.65" x2="367.33" y2="602.65"/><line class="cls-8" x1="370.33" y1="602.65" x2="367.33" y2="602.65"/><line class="cls-8" x1="388.35" y1="592.14" x2="374.84" y2="592.14"/><polyline class="cls-8" points="367.33 610.16 367.33 613.16 370.33 613.16"/><polyline class="cls-8" points="374.84 613.16 377.84 613.16 377.84 610.16"/><polyline class="cls-8" points="377.84 605.65 377.84 602.65 374.84 602.65"/><line class="cls-8" x1="260.74" y1="610.16" x2="260.74" y2="623.67"/><line class="cls-8" x1="260.74" y1="605.65" x2="260.74" y2="610.16"/><line class="cls-8" x1="260.74" y1="592.14" x2="260.74" y2="605.65"/><line class="cls-8" x1="278.75" y1="623.67" x2="292.26" y2="623.67"/><line class="cls-8" x1="260.74" y1="623.67" x2="274.25" y2="623.67"/><line class="cls-8" x1="271.25" y1="605.65" x2="260.74" y2="605.65"/><line class="cls-8" x1="260.74" y1="610.16" x2="271.25" y2="610.16"/><line class="cls-8" x1="292.26" y1="605.65" x2="281.76" y2="605.65"/><polyline class="cls-8" points="292.26 610.16 292.26 605.65 292.26 592.14"/><line class="cls-8" x1="292.26" y1="623.67" x2="292.26" y2="610.16"/><line class="cls-8" x1="281.76" y1="610.16" x2="292.26" y2="610.16"/><line class="cls-8" x1="274.25" y1="592.14" x2="260.74" y2="592.14"/><line class="cls-8" x1="271.25" y1="605.65" x2="271.25" y2="602.65"/><line class="cls-8" x1="274.25" y1="602.65" x2="271.25" y2="602.65"/><line class="cls-8" x1="292.26" y1="592.14" x2="278.75" y2="592.14"/><polyline class="cls-8" points="271.25 610.16 271.25 613.16 274.25 613.16"/><polyline class="cls-8" points="278.75 613.16 281.75 613.16 281.75 610.16"/><polyline class="cls-8" points="281.75 605.65 281.75 602.65 278.75 602.65"/><line class="cls-8" x1="452.9" y1="610.16" x2="452.9" y2="623.67"/><line class="cls-8" x1="452.9" y1="605.65" x2="452.9" y2="610.16"/><line class="cls-8" x1="452.9" y1="592.14" x2="452.9" y2="605.65"/><line class="cls-8" x1="470.92" y1="623.67" x2="484.43" y2="623.67"/><line class="cls-8" x1="452.9" y1="623.67" x2="466.42" y2="623.67"/><line class="cls-8" x1="463.41" y1="605.65" x2="452.9" y2="605.65"/><line class="cls-8" x1="452.9" y1="610.16" x2="463.41" y2="610.16"/><line class="cls-8" x1="484.43" y1="605.65" x2="473.92" y2="605.65"/><polyline class="cls-8" points="484.43 610.16 484.43 605.65 484.43 592.14"/><line class="cls-8" x1="484.43" y1="623.67" x2="484.43" y2="610.16"/><line class="cls-8" x1="473.92" y1="610.16" x2="484.43" y2="610.16"/><line class="cls-8" x1="466.42" y1="592.14" x2="452.9" y2="592.14"/><line class="cls-8" x1="463.41" y1="605.65" x2="463.41" y2="602.65"/><line class="cls-8" x1="466.42" y1="602.65" x2="463.41" y2="602.65"/><line class="cls-8" x1="484.43" y1="592.14" x2="470.92" y2="592.14"/><polyline class="cls-8" points="463.41 610.16 463.41 613.16 466.42 613.16"/><polyline class="cls-8" points="470.92 613.16 473.92 613.16 473.92 610.16"/><polyline class="cls-8" points="473.92 605.65 473.92 602.65 470.92 602.65"/><line class="cls-8" x1="548.99" y1="610.16" x2="548.99" y2="623.67"/><line class="cls-8" x1="548.99" y1="605.65" x2="548.99" y2="610.16"/><line class="cls-8" x1="548.99" y1="592.14" x2="548.99" y2="605.65"/><line class="cls-8" x1="567" y1="623.67" x2="580.51" y2="623.67"/><line class="cls-8" x1="548.99" y1="623.67" x2="562.5" y2="623.67"/><line class="cls-8" x1="559.5" y1="605.65" x2="548.99" y2="605.65"/><line class="cls-8" x1="548.99" y1="610.16" x2="559.5" y2="610.16"/><line class="cls-8" x1="580.51" y1="605.65" x2="570" y2="605.65"/><polyline class="cls-8" points="580.51 610.16 580.51 605.65 580.51 592.14"/><line class="cls-8" x1="580.51" y1="623.67" x2="580.51" y2="610.16"/><line class="cls-8" x1="570" y1="610.16" x2="580.51" y2="610.16"/><line class="cls-8" x1="562.5" y1="592.14" x2="548.99" y2="592.14"/><line class="cls-8" x1="559.5" y1="605.65" x2="559.5" y2="602.65"/><line class="cls-8" x1="562.5" y1="602.65" x2="559.5" y2="602.65"/><line class="cls-8" x1="580.51" y1="592.14" x2="567" y2="592.14"/><polyline class="cls-8" points="559.5 610.16 559.5 613.16 562.5 613.16"/><polyline class="cls-8" points="567 613.16 570 613.16 570 610.16"/><polyline class="cls-8" points="570 605.65 570 602.65 567 602.65"/><line class="cls-8" x1="645.07" y1="610.16" x2="645.07" y2="623.67"/><line class="cls-8" x1="645.07" y1="605.65" x2="645.07" y2="610.16"/><line class="cls-8" x1="645.07" y1="592.14" x2="645.07" y2="605.65"/><line class="cls-8" x1="663.09" y1="623.67" x2="676.6" y2="623.67"/><line class="cls-8" x1="645.07" y1="623.67" x2="658.58" y2="623.67"/><line class="cls-8" x1="655.58" y1="605.65" x2="645.07" y2="605.65"/><line class="cls-8" x1="645.07" y1="610.16" x2="655.58" y2="610.16"/><line class="cls-8" x1="676.6" y1="605.65" x2="666.09" y2="605.65"/><polyline class="cls-8" points="676.6 610.16 676.6 605.65 676.6 592.14"/><line class="cls-8" x1="676.6" y1="623.67" x2="676.6" y2="610.16"/><line class="cls-8" x1="666.09" y1="610.16" x2="676.6" y2="610.16"/><line class="cls-8" x1="658.58" y1="592.14" x2="645.07" y2="592.14"/><line class="cls-8" x1="655.58" y1="605.65" x2="655.58" y2="602.65"/><line class="cls-8" x1="658.58" y1="602.65" x2="655.58" y2="602.65"/><line class="cls-8" x1="676.6" y1="592.14" x2="663.09" y2="592.14"/><polyline class="cls-8" points="655.58 610.16 655.58 613.16 658.58 613.16"/><polyline class="cls-8" points="663.09 613.16 666.09 613.16 666.09 610.16"/><polyline class="cls-8" points="666.09 605.65 666.09 602.65 663.09 602.65"/><line class="cls-8" x1="741.15" y1="610.16" x2="741.15" y2="623.67"/><line class="cls-8" x1="741.15" y1="605.65" x2="741.15" y2="610.16"/><line class="cls-8" x1="741.15" y1="592.14" x2="741.15" y2="605.65"/><line class="cls-8" x1="759.17" y1="623.67" x2="772.68" y2="623.67"/><line class="cls-8" x1="741.15" y1="623.67" x2="754.67" y2="623.67"/><line class="cls-8" x1="751.66" y1="605.65" x2="741.15" y2="605.65"/><line class="cls-8" x1="741.15" y1="610.16" x2="751.66" y2="610.16"/><line class="cls-8" x1="772.68" y1="605.65" x2="762.17" y2="605.65"/><polyline class="cls-8" points="772.68 610.16 772.68 605.65 772.68 592.14"/><line class="cls-8" x1="772.68" y1="623.67" x2="772.68" y2="610.16"/><line class="cls-8" x1="762.17" y1="610.16" x2="772.68" y2="610.16"/><line class="cls-8" x1="754.67" y1="592.14" x2="741.15" y2="592.14"/><line class="cls-8" x1="751.66" y1="605.65" x2="751.66" y2="602.65"/><line class="cls-8" x1="754.67" y1="602.65" x2="751.66" y2="602.65"/><line class="cls-8" x1="772.68" y1="592.14" x2="759.17" y2="592.14"/><polyline class="cls-8" points="751.66 610.16 751.66 613.16 754.66 613.16"/><polyline class="cls-8" points="759.17 613.16 762.17 613.16 762.17 610.16"/><polyline class="cls-8" points="762.17 605.65 762.17 602.65 759.17 602.65"/><line class="cls-8" x1="308.78" y1="529.84" x2="308.78" y2="543.35"/><line class="cls-8" x1="308.78" y1="525.34" x2="308.78" y2="529.84"/><line class="cls-8" x1="308.78" y1="511.82" x2="308.78" y2="525.34"/><line class="cls-8" x1="326.79" y1="543.35" x2="340.31" y2="543.35"/><line class="cls-8" x1="308.78" y1="543.35" x2="322.29" y2="543.35"/><line class="cls-8" x1="319.29" y1="525.34" x2="308.78" y2="525.34"/><line class="cls-8" x1="308.78" y1="529.84" x2="319.29" y2="529.84"/><line class="cls-8" x1="340.31" y1="525.34" x2="329.8" y2="525.34"/><polyline class="cls-8" points="340.31 529.84 340.31 525.34 340.31 511.82"/><line class="cls-8" x1="340.31" y1="543.35" x2="340.31" y2="529.84"/><line class="cls-8" x1="329.8" y1="529.84" x2="340.31" y2="529.84"/><line class="cls-8" x1="322.29" y1="511.82" x2="308.78" y2="511.82"/><line class="cls-8" x1="319.29" y1="525.34" x2="319.29" y2="522.33"/><line class="cls-8" x1="322.29" y1="522.33" x2="319.29" y2="522.33"/><line class="cls-8" x1="340.31" y1="511.82" x2="326.79" y2="511.82"/><polyline class="cls-8" points="319.29 529.84 319.29 532.84 322.29 532.84"/><polyline class="cls-8" points="326.79 532.84 329.8 532.84 329.8 529.84"/><polyline class="cls-8" points="329.8 525.34 329.8 522.33 326.79 522.33"/><line class="cls-8" x1="404.86" y1="529.84" x2="404.86" y2="543.35"/><line class="cls-8" x1="404.86" y1="525.34" x2="404.86" y2="529.84"/><line class="cls-8" x1="404.86" y1="511.82" x2="404.86" y2="525.34"/><line class="cls-8" x1="422.88" y1="543.35" x2="436.39" y2="543.35"/><line class="cls-8" x1="404.86" y1="543.35" x2="418.37" y2="543.35"/><line class="cls-8" x1="415.37" y1="525.34" x2="404.86" y2="525.34"/><line class="cls-8" x1="404.86" y1="529.84" x2="415.37" y2="529.84"/><line class="cls-8" x1="436.39" y1="525.34" x2="425.88" y2="525.34"/><polyline class="cls-8" points="436.39 529.84 436.39 525.34 436.39 511.82"/><line class="cls-8" x1="436.39" y1="543.35" x2="436.39" y2="529.84"/><line class="cls-8" x1="425.88" y1="529.84" x2="436.39" y2="529.84"/><line class="cls-8" x1="418.37" y1="511.82" x2="404.86" y2="511.82"/><line class="cls-8" x1="415.37" y1="525.34" x2="415.37" y2="522.33"/><line class="cls-8" x1="418.37" y1="522.33" x2="415.37" y2="522.33"/><line class="cls-8" x1="436.39" y1="511.82" x2="422.88" y2="511.82"/><polyline class="cls-8" points="415.37 529.84 415.37 532.84 418.37 532.84"/><polyline class="cls-8" points="422.88 532.84 425.88 532.84 425.88 529.84"/><polyline class="cls-8" points="425.88 525.34 425.88 522.33 422.88 522.33"/><line class="cls-8" x1="500.95" y1="529.84" x2="500.95" y2="543.35"/><line class="cls-8" x1="500.95" y1="525.34" x2="500.95" y2="529.84"/><line class="cls-8" x1="500.95" y1="511.82" x2="500.95" y2="525.34"/><line class="cls-8" x1="518.96" y1="543.35" x2="532.47" y2="543.35"/><line class="cls-8" x1="500.95" y1="543.35" x2="514.46" y2="543.35"/><line class="cls-8" x1="511.45" y1="525.34" x2="500.95" y2="525.34"/><line class="cls-8" x1="500.95" y1="529.84" x2="511.45" y2="529.84"/><line class="cls-8" x1="532.47" y1="525.34" x2="521.96" y2="525.34"/><polyline class="cls-8" points="532.47 529.84 532.47 525.34 532.47 511.82"/><line class="cls-8" x1="532.47" y1="543.35" x2="532.47" y2="529.84"/><line class="cls-8" x1="521.96" y1="529.84" x2="532.47" y2="529.84"/><line class="cls-8" x1="514.46" y1="511.82" x2="500.95" y2="511.82"/><line class="cls-8" x1="511.45" y1="525.34" x2="511.45" y2="522.33"/><line class="cls-8" x1="514.46" y1="522.33" x2="511.45" y2="522.33"/><line class="cls-8" x1="532.47" y1="511.82" x2="518.96" y2="511.82"/><polyline class="cls-8" points="511.45 529.84 511.45 532.84 514.46 532.84"/><polyline class="cls-8" points="518.96 532.84 521.96 532.84 521.96 529.84"/><polyline class="cls-8" points="521.96 525.34 521.96 522.33 518.96 522.33"/><line class="cls-8" x1="597.03" y1="529.84" x2="597.03" y2="543.35"/><line class="cls-8" x1="597.03" y1="525.34" x2="597.03" y2="529.84"/><line class="cls-8" x1="597.03" y1="511.82" x2="597.03" y2="525.34"/><line class="cls-8" x1="615.04" y1="543.35" x2="628.56" y2="543.35"/><line class="cls-8" x1="597.03" y1="543.35" x2="610.54" y2="543.35"/><line class="cls-8" x1="607.54" y1="525.34" x2="597.03" y2="525.34"/><line class="cls-8" x1="597.03" y1="529.84" x2="607.54" y2="529.84"/><line class="cls-8" x1="628.56" y1="525.34" x2="618.05" y2="525.34"/><polyline class="cls-8" points="628.56 529.84 628.56 525.34 628.56 511.82"/><line class="cls-8" x1="628.56" y1="543.35" x2="628.56" y2="529.84"/><line class="cls-8" x1="618.05" y1="529.84" x2="628.56" y2="529.84"/><line class="cls-8" x1="610.54" y1="511.82" x2="597.03" y2="511.82"/><line class="cls-8" x1="607.54" y1="525.34" x2="607.54" y2="522.33"/><line class="cls-8" x1="610.54" y1="522.33" x2="607.54" y2="522.33"/><line class="cls-8" x1="628.56" y1="511.82" x2="615.04" y2="511.82"/><polyline class="cls-8" points="607.54 529.84 607.54 532.84 610.54 532.84"/><polyline class="cls-8" points="615.04 532.84 618.05 532.84 618.05 529.84"/><polyline class="cls-8" points="618.05 525.34 618.05 522.33 615.04 522.33"/><line class="cls-8" x1="693.11" y1="529.84" x2="693.11" y2="543.35"/><line class="cls-8" x1="693.11" y1="525.34" x2="693.11" y2="529.84"/><line class="cls-8" x1="693.11" y1="511.82" x2="693.11" y2="525.34"/><line class="cls-8" x1="711.13" y1="543.35" x2="724.64" y2="543.35"/><line class="cls-8" x1="693.11" y1="543.35" x2="706.62" y2="543.35"/><line class="cls-8" x1="703.62" y1="525.34" x2="693.11" y2="525.34"/><line class="cls-8" x1="693.11" y1="529.84" x2="703.62" y2="529.84"/><line class="cls-8" x1="724.64" y1="525.34" x2="714.13" y2="525.34"/><polyline class="cls-8" points="724.64 529.84 724.64 525.34 724.64 511.82"/><line class="cls-8" x1="724.64" y1="543.35" x2="724.64" y2="529.84"/><line class="cls-8" x1="714.13" y1="529.84" x2="724.64" y2="529.84"/><line class="cls-8" x1="706.62" y1="511.82" x2="693.11" y2="511.82"/><line class="cls-8" x1="703.62" y1="525.34" x2="703.62" y2="522.33"/><line class="cls-8" x1="706.62" y1="522.33" x2="703.62" y2="522.33"/><line class="cls-8" x1="724.64" y1="511.82" x2="711.13" y2="511.82"/><polyline class="cls-8" points="703.62 529.84 703.62 532.84 706.62 532.84"/><polyline class="cls-8" points="711.13 532.84 714.13 532.84 714.13 529.84"/><polyline class="cls-8" points="714.13 525.34 714.13 522.33 711.13 522.33"/><line class="cls-8" x1="356.82" y1="417.99" x2="356.82" y2="431.5"/><line class="cls-8" x1="356.82" y1="413.49" x2="356.82" y2="417.99"/><line class="cls-8" x1="356.82" y1="399.98" x2="356.82" y2="413.49"/><line class="cls-8" x1="374.84" y1="431.5" x2="388.35" y2="431.5"/><line class="cls-8" x1="356.82" y1="431.5" x2="370.33" y2="431.5"/><line class="cls-8" x1="367.33" y1="413.49" x2="356.82" y2="413.49"/><line class="cls-8" x1="356.82" y1="417.99" x2="367.33" y2="417.99"/><line class="cls-8" x1="388.35" y1="413.49" x2="377.84" y2="413.49"/><polyline class="cls-8" points="388.35 417.99 388.35 413.49 388.35 399.98"/><line class="cls-8" x1="388.35" y1="431.5" x2="388.35" y2="417.99"/><line class="cls-8" x1="377.84" y1="417.99" x2="388.35" y2="417.99"/><line class="cls-8" x1="370.33" y1="399.98" x2="356.82" y2="399.98"/><line class="cls-8" x1="367.33" y1="413.49" x2="367.33" y2="410.49"/><line class="cls-8" x1="370.33" y1="410.49" x2="367.33" y2="410.49"/><line class="cls-8" x1="388.35" y1="399.98" x2="374.84" y2="399.98"/><polyline class="cls-8" points="367.33 417.99 367.33 421 370.33 421"/><polyline class="cls-8" points="374.84 421 377.84 421 377.84 417.99"/><polyline class="cls-8" points="377.84 413.49 377.84 410.49 374.84 410.49"/><line class="cls-8" x1="260.74" y1="417.99" x2="260.74" y2="431.5"/><line class="cls-8" x1="260.74" y1="413.49" x2="260.74" y2="417.99"/><line class="cls-8" x1="260.74" y1="399.98" x2="260.74" y2="413.49"/><line class="cls-8" x1="278.75" y1="431.5" x2="292.26" y2="431.5"/><line class="cls-8" x1="260.74" y1="431.5" x2="274.25" y2="431.5"/><line class="cls-8" x1="271.25" y1="413.49" x2="260.74" y2="413.49"/><line class="cls-8" x1="260.74" y1="417.99" x2="271.25" y2="417.99"/><line class="cls-8" x1="292.26" y1="413.49" x2="281.76" y2="413.49"/><polyline class="cls-8" points="292.26 417.99 292.26 413.49 292.26 399.98"/><line class="cls-8" x1="292.26" y1="431.5" x2="292.26" y2="417.99"/><line class="cls-8" x1="281.76" y1="417.99" x2="292.26" y2="417.99"/><line class="cls-8" x1="274.25" y1="399.98" x2="260.74" y2="399.98"/><line class="cls-8" x1="271.25" y1="413.49" x2="271.25" y2="410.49"/><line class="cls-8" x1="274.25" y1="410.49" x2="271.25" y2="410.49"/><line class="cls-8" x1="292.26" y1="399.98" x2="278.75" y2="399.98"/><polyline class="cls-8" points="271.25 417.99 271.25 421 274.25 421"/><polyline class="cls-8" points="278.75 421 281.75 421 281.75 417.99"/><polyline class="cls-8" points="281.75 413.49 281.75 410.49 278.75 410.49"/><line class="cls-8" x1="452.9" y1="417.99" x2="452.9" y2="431.5"/><line class="cls-8" x1="452.9" y1="413.49" x2="452.9" y2="417.99"/><line class="cls-8" x1="452.9" y1="399.98" x2="452.9" y2="413.49"/><line class="cls-8" x1="470.92" y1="431.5" x2="484.43" y2="431.5"/><line class="cls-8" x1="452.9" y1="431.5" x2="466.42" y2="431.5"/><line class="cls-8" x1="463.41" y1="413.49" x2="452.9" y2="413.49"/><line class="cls-8" x1="452.9" y1="417.99" x2="463.41" y2="417.99"/><line class="cls-8" x1="484.43" y1="413.49" x2="473.92" y2="413.49"/><polyline class="cls-8" points="484.43 417.99 484.43 413.49 484.43 399.98"/><line class="cls-8" x1="484.43" y1="431.5" x2="484.43" y2="417.99"/><line class="cls-8" x1="473.92" y1="417.99" x2="484.43" y2="417.99"/><line class="cls-8" x1="466.42" y1="399.98" x2="452.9" y2="399.98"/><line class="cls-8" x1="463.41" y1="413.49" x2="463.41" y2="410.49"/><line class="cls-8" x1="466.42" y1="410.49" x2="463.41" y2="410.49"/><line class="cls-8" x1="484.43" y1="399.98" x2="470.92" y2="399.98"/><polyline class="cls-8" points="463.41 417.99 463.41 421 466.42 421"/><polyline class="cls-8" points="470.92 421 473.92 421 473.92 417.99"/><polyline class="cls-8" points="473.92 413.49 473.92 410.49 470.92 410.49"/><line class="cls-8" x1="548.99" y1="417.99" x2="548.99" y2="431.5"/><line class="cls-8" x1="548.99" y1="413.49" x2="548.99" y2="417.99"/><line class="cls-8" x1="548.99" y1="399.98" x2="548.99" y2="413.49"/><line class="cls-8" x1="567" y1="431.5" x2="580.51" y2="431.5"/><line class="cls-8" x1="548.99" y1="431.5" x2="562.5" y2="431.5"/><line class="cls-8" x1="559.5" y1="413.49" x2="548.99" y2="413.49"/><line class="cls-8" x1="548.99" y1="417.99" x2="559.5" y2="417.99"/><line class="cls-8" x1="580.51" y1="413.49" x2="570" y2="413.49"/><polyline class="cls-8" points="580.51 417.99 580.51 413.49 580.51 399.98"/><line class="cls-8" x1="580.51" y1="431.5" x2="580.51" y2="417.99"/><line class="cls-8" x1="570" y1="417.99" x2="580.51" y2="417.99"/><line class="cls-8" x1="562.5" y1="399.98" x2="548.99" y2="399.98"/><line class="cls-8" x1="559.5" y1="413.49" x2="559.5" y2="410.49"/><line class="cls-8" x1="562.5" y1="410.49" x2="559.5" y2="410.49"/><line class="cls-8" x1="580.51" y1="399.98" x2="567" y2="399.98"/><polyline class="cls-8" points="559.5 417.99 559.5 421 562.5 421"/><polyline class="cls-8" points="567 421 570 421 570 417.99"/><polyline class="cls-8" points="570 413.49 570 410.49 567 410.49"/><line class="cls-8" x1="645.07" y1="417.99" x2="645.07" y2="431.5"/><line class="cls-8" x1="645.07" y1="413.49" x2="645.07" y2="417.99"/><line class="cls-8" x1="645.07" y1="399.98" x2="645.07" y2="413.49"/><line class="cls-8" x1="663.09" y1="431.5" x2="676.6" y2="431.5"/><line class="cls-8" x1="645.07" y1="431.5" x2="658.58" y2="431.5"/><line class="cls-8" x1="655.58" y1="413.49" x2="645.07" y2="413.49"/><line class="cls-8" x1="645.07" y1="417.99" x2="655.58" y2="417.99"/><line class="cls-8" x1="676.6" y1="413.49" x2="666.09" y2="413.49"/><polyline class="cls-8" points="676.6 417.99 676.6 413.49 676.6 399.98"/><line class="cls-8" x1="676.6" y1="431.5" x2="676.6" y2="417.99"/><line class="cls-8" x1="666.09" y1="417.99" x2="676.6" y2="417.99"/><line class="cls-8" x1="658.58" y1="399.98" x2="645.07" y2="399.98"/><line class="cls-8" x1="655.58" y1="413.49" x2="655.58" y2="410.49"/><line class="cls-8" x1="658.58" y1="410.49" x2="655.58" y2="410.49"/><line class="cls-8" x1="676.6" y1="399.98" x2="663.09" y2="399.98"/><polyline class="cls-8" points="655.58 417.99 655.58 421 658.58 421"/><polyline class="cls-8" points="663.09 421 666.09 421 666.09 417.99"/><polyline class="cls-8" points="666.09 413.49 666.09 410.49 663.09 410.49"/><line class="cls-8" x1="741.15" y1="417.99" x2="741.15" y2="431.5"/><line class="cls-8" x1="741.15" y1="413.49" x2="741.15" y2="417.99"/><line class="cls-8" x1="741.15" y1="399.98" x2="741.15" y2="413.49"/><line class="cls-8" x1="759.17" y1="431.5" x2="772.68" y2="431.5"/><line class="cls-8" x1="741.15" y1="431.5" x2="754.67" y2="431.5"/><line class="cls-8" x1="751.66" y1="413.49" x2="741.15" y2="413.49"/><line class="cls-8" x1="741.15" y1="417.99" x2="751.66" y2="417.99"/><line class="cls-8" x1="772.68" y1="413.49" x2="762.17" y2="413.49"/><polyline class="cls-8" points="772.68 417.99 772.68 413.49 772.68 399.98"/><line class="cls-8" x1="772.68" y1="431.5" x2="772.68" y2="417.99"/><line class="cls-8" x1="762.17" y1="417.99" x2="772.68" y2="417.99"/><line class="cls-8" x1="754.67" y1="399.98" x2="741.15" y2="399.98"/><line class="cls-8" x1="751.66" y1="413.49" x2="751.66" y2="410.49"/><line class="cls-8" x1="754.67" y1="410.49" x2="751.66" y2="410.49"/><line class="cls-8" x1="772.68" y1="399.98" x2="759.17" y2="399.98"/><polyline class="cls-8" points="751.66 417.99 751.66 421 754.66 421"/><polyline class="cls-8" points="759.17 421 762.17 421 762.17 417.99"/><polyline class="cls-8" points="762.17 413.49 762.17 410.49 759.17 410.49"/><line class="cls-8" x1="404.86" y1="321.91" x2="404.86" y2="335.42"/><line class="cls-8" x1="404.86" y1="317.41" x2="404.86" y2="321.91"/><line class="cls-8" x1="404.86" y1="303.89" x2="404.86" y2="317.41"/><line class="cls-8" x1="422.88" y1="335.42" x2="436.39" y2="335.42"/><line class="cls-8" x1="404.86" y1="335.42" x2="418.37" y2="335.42"/><line class="cls-8" x1="415.37" y1="317.41" x2="404.86" y2="317.41"/><line class="cls-8" x1="404.86" y1="321.91" x2="415.37" y2="321.91"/><line class="cls-8" x1="436.39" y1="317.41" x2="425.88" y2="317.41"/><polyline class="cls-8" points="436.39 321.91 436.39 317.41 436.39 303.89"/><line class="cls-8" x1="436.39" y1="335.42" x2="436.39" y2="321.91"/><line class="cls-8" x1="425.88" y1="321.91" x2="436.39" y2="321.91"/><line class="cls-8" x1="418.37" y1="303.89" x2="404.86" y2="303.89"/><line class="cls-8" x1="415.37" y1="317.41" x2="415.37" y2="314.4"/><line class="cls-8" x1="418.37" y1="314.4" x2="415.37" y2="314.4"/><line class="cls-8" x1="436.39" y1="303.89" x2="422.88" y2="303.89"/><polyline class="cls-8" points="415.37 321.91 415.37 324.91 418.37 324.91"/><polyline class="cls-8" points="422.88 324.91 425.88 324.91 425.88 321.91"/><polyline class="cls-8" points="425.88 317.41 425.88 314.4 422.88 314.4"/><line class="cls-8" x1="308.78" y1="321.91" x2="308.78" y2="335.42"/><line class="cls-8" x1="308.78" y1="317.41" x2="308.78" y2="321.91"/><line class="cls-8" x1="308.78" y1="303.89" x2="308.78" y2="317.41"/><line class="cls-8" x1="326.79" y1="335.42" x2="340.31" y2="335.42"/><line class="cls-8" x1="308.78" y1="335.42" x2="322.29" y2="335.42"/><line class="cls-8" x1="319.29" y1="317.41" x2="308.78" y2="317.41"/><line class="cls-8" x1="308.78" y1="321.91" x2="319.29" y2="321.91"/><line class="cls-8" x1="340.31" y1="317.41" x2="329.8" y2="317.41"/><polyline class="cls-8" points="340.31 321.91 340.31 317.41 340.31 303.89"/><line class="cls-8" x1="340.31" y1="335.42" x2="340.31" y2="321.91"/><line class="cls-8" x1="329.8" y1="321.91" x2="340.31" y2="321.91"/><line class="cls-8" x1="322.29" y1="303.89" x2="308.78" y2="303.89"/><line class="cls-8" x1="319.29" y1="317.41" x2="319.29" y2="314.4"/><line class="cls-8" x1="322.29" y1="314.4" x2="319.29" y2="314.4"/><line class="cls-8" x1="340.31" y1="303.89" x2="326.79" y2="303.89"/><polyline class="cls-8" points="319.29 321.91 319.29 324.91 322.29 324.91"/><polyline class="cls-8" points="326.79 324.91 329.8 324.91 329.8 321.91"/><polyline class="cls-8" points="329.8 317.41 329.8 314.4 326.79 314.4"/><line class="cls-8" x1="500.95" y1="321.91" x2="500.95" y2="335.42"/><line class="cls-8" x1="500.95" y1="317.41" x2="500.95" y2="321.91"/><line class="cls-8" x1="500.95" y1="303.89" x2="500.95" y2="317.41"/><line class="cls-8" x1="518.96" y1="335.42" x2="532.47" y2="335.42"/><line class="cls-8" x1="500.95" y1="335.42" x2="514.46" y2="335.42"/><line class="cls-8" x1="511.45" y1="317.41" x2="500.95" y2="317.41"/><line class="cls-8" x1="500.95" y1="321.91" x2="511.45" y2="321.91"/><line class="cls-8" x1="532.47" y1="317.41" x2="521.96" y2="317.41"/><polyline class="cls-8" points="532.47 321.91 532.47 317.41 532.47 303.89"/><line class="cls-8" x1="532.47" y1="335.42" x2="532.47" y2="321.91"/><line class="cls-8" x1="521.96" y1="321.91" x2="532.47" y2="321.91"/><line class="cls-8" x1="514.46" y1="303.89" x2="500.95" y2="303.89"/><line class="cls-8" x1="511.45" y1="317.41" x2="511.45" y2="314.4"/><line class="cls-8" x1="514.46" y1="314.4" x2="511.45" y2="314.4"/><line class="cls-8" x1="532.47" y1="303.89" x2="518.96" y2="303.89"/><polyline class="cls-8" points="511.45 321.91 511.45 324.91 514.46 324.91"/><polyline class="cls-8" points="518.96 324.91 521.96 324.91 521.96 321.91"/><polyline class="cls-8" points="521.96 317.41 521.96 314.4 518.96 314.4"/><line class="cls-8" x1="597.03" y1="321.91" x2="597.03" y2="335.42"/><line class="cls-8" x1="597.03" y1="317.41" x2="597.03" y2="321.91"/><line class="cls-8" x1="597.03" y1="303.89" x2="597.03" y2="317.41"/><line class="cls-8" x1="615.04" y1="335.42" x2="628.56" y2="335.42"/><line class="cls-8" x1="597.03" y1="335.42" x2="610.54" y2="335.42"/><line class="cls-8" x1="607.54" y1="317.41" x2="597.03" y2="317.41"/><line class="cls-8" x1="597.03" y1="321.91" x2="607.54" y2="321.91"/><line class="cls-8" x1="628.56" y1="317.41" x2="618.05" y2="317.41"/><polyline class="cls-8" points="628.56 321.91 628.56 317.41 628.56 303.89"/><line class="cls-8" x1="628.56" y1="335.42" x2="628.56" y2="321.91"/><line class="cls-8" x1="618.05" y1="321.91" x2="628.56" y2="321.91"/><line class="cls-8" x1="610.54" y1="303.89" x2="597.03" y2="303.89"/><line class="cls-8" x1="607.54" y1="317.41" x2="607.54" y2="314.4"/><line class="cls-8" x1="610.54" y1="314.4" x2="607.54" y2="314.4"/><line class="cls-8" x1="628.56" y1="303.89" x2="615.04" y2="303.89"/><polyline class="cls-8" points="607.54 321.91 607.54 324.91 610.54 324.91"/><polyline class="cls-8" points="615.04 324.91 618.05 324.91 618.05 321.91"/><polyline class="cls-8" points="618.05 317.41 618.05 314.4 615.04 314.4"/><line class="cls-8" x1="693.11" y1="321.91" x2="693.11" y2="335.42"/><line class="cls-8" x1="693.11" y1="317.41" x2="693.11" y2="321.91"/><line class="cls-8" x1="693.11" y1="303.89" x2="693.11" y2="317.41"/><line class="cls-8" x1="711.13" y1="335.42" x2="724.64" y2="335.42"/><line class="cls-8" x1="693.11" y1="335.42" x2="706.62" y2="335.42"/><line class="cls-8" x1="703.62" y1="317.41" x2="693.11" y2="317.41"/><line class="cls-8" x1="693.11" y1="321.91" x2="703.62" y2="321.91"/><line class="cls-8" x1="724.64" y1="317.41" x2="714.13" y2="317.41"/><polyline class="cls-8" points="724.64 321.91 724.64 317.41 724.64 303.89"/><line class="cls-8" x1="724.64" y1="335.42" x2="724.64" y2="321.91"/><line class="cls-8" x1="714.13" y1="321.91" x2="724.64" y2="321.91"/><line class="cls-8" x1="706.62" y1="303.89" x2="693.11" y2="303.89"/><line class="cls-8" x1="703.62" y1="317.41" x2="703.62" y2="314.4"/><line class="cls-8" x1="706.62" y1="314.4" x2="703.62" y2="314.4"/><line class="cls-8" x1="724.64" y1="303.89" x2="711.13" y2="303.89"/><polyline class="cls-8" points="703.62 321.91 703.62 324.91 706.62 324.91"/><polyline class="cls-8" points="711.13 324.91 714.13 324.91 714.13 321.91"/><polyline class="cls-8" points="714.13 317.41 714.13 314.4 711.13 314.4"/><line class="cls-8" x1="356.82" y1="225.83" x2="356.82" y2="239.34"/><line class="cls-8" x1="356.82" y1="221.32" x2="356.82" y2="225.83"/><line class="cls-8" x1="356.82" y1="207.81" x2="356.82" y2="221.32"/><line class="cls-8" x1="374.84" y1="239.34" x2="388.35" y2="239.34"/><line class="cls-8" x1="356.82" y1="239.34" x2="370.33" y2="239.34"/><line class="cls-8" x1="367.33" y1="221.32" x2="356.82" y2="221.32"/><line class="cls-8" x1="356.82" y1="225.83" x2="367.33" y2="225.83"/><line class="cls-8" x1="388.35" y1="221.32" x2="377.84" y2="221.32"/><polyline class="cls-8" points="388.35 225.83 388.35 221.32 388.35 207.81"/><line class="cls-8" x1="388.35" y1="239.34" x2="388.35" y2="225.83"/><line class="cls-8" x1="377.84" y1="225.83" x2="388.35" y2="225.83"/><line class="cls-8" x1="370.33" y1="207.81" x2="356.82" y2="207.81"/><line class="cls-8" x1="367.33" y1="221.32" x2="367.33" y2="218.32"/><line class="cls-8" x1="370.33" y1="218.32" x2="367.33" y2="218.32"/><line class="cls-8" x1="388.35" y1="207.81" x2="374.84" y2="207.81"/><polyline class="cls-8" points="367.33 225.83 367.33 228.83 370.33 228.83"/><polyline class="cls-8" points="374.84 228.83 377.84 228.83 377.84 225.83"/><polyline class="cls-8" points="377.84 221.32 377.84 218.32 374.84 218.32"/><line class="cls-8" x1="260.74" y1="225.83" x2="260.74" y2="239.34"/><line class="cls-8" x1="260.74" y1="221.32" x2="260.74" y2="225.83"/><line class="cls-8" x1="260.74" y1="207.81" x2="260.74" y2="221.32"/><line class="cls-8" x1="278.75" y1="239.34" x2="292.26" y2="239.34"/><line class="cls-8" x1="260.74" y1="239.34" x2="274.25" y2="239.34"/><line class="cls-8" x1="271.25" y1="221.32" x2="260.74" y2="221.32"/><line class="cls-8" x1="260.74" y1="225.83" x2="271.25" y2="225.83"/><line class="cls-8" x1="292.26" y1="221.32" x2="281.76" y2="221.32"/><polyline class="cls-8" points="292.26 225.83 292.26 221.32 292.26 207.81"/><line class="cls-8" x1="292.26" y1="239.34" x2="292.26" y2="225.83"/><line class="cls-8" x1="281.76" y1="225.83" x2="292.26" y2="225.83"/><line class="cls-8" x1="274.25" y1="207.81" x2="260.74" y2="207.81"/><line class="cls-8" x1="271.25" y1="221.32" x2="271.25" y2="218.32"/><line class="cls-8" x1="274.25" y1="218.32" x2="271.25" y2="218.32"/><line class="cls-8" x1="292.26" y1="207.81" x2="278.75" y2="207.81"/><polyline class="cls-8" points="271.25 225.83 271.25 228.83 274.25 228.83"/><polyline class="cls-8" points="278.75 228.83 281.75 228.83 281.75 225.83"/><polyline class="cls-8" points="281.75 221.32 281.75 218.32 278.75 218.32"/><line class="cls-8" x1="452.9" y1="225.83" x2="452.9" y2="239.34"/><line class="cls-8" x1="452.9" y1="221.32" x2="452.9" y2="225.83"/><line class="cls-8" x1="452.9" y1="207.81" x2="452.9" y2="221.32"/><line class="cls-8" x1="470.92" y1="239.34" x2="484.43" y2="239.34"/><line class="cls-8" x1="452.9" y1="239.34" x2="466.42" y2="239.34"/><line class="cls-8" x1="463.41" y1="221.32" x2="452.9" y2="221.32"/><line class="cls-8" x1="452.9" y1="225.83" x2="463.41" y2="225.83"/><line class="cls-8" x1="484.43" y1="221.32" x2="473.92" y2="221.32"/><polyline class="cls-8" points="484.43 225.83 484.43 221.32 484.43 207.81"/><line class="cls-8" x1="484.43" y1="239.34" x2="484.43" y2="225.83"/><line class="cls-8" x1="473.92" y1="225.83" x2="484.43" y2="225.83"/><line class="cls-8" x1="466.42" y1="207.81" x2="452.9" y2="207.81"/><line class="cls-8" x1="463.41" y1="221.32" x2="463.41" y2="218.32"/><line class="cls-8" x1="466.42" y1="218.32" x2="463.41" y2="218.32"/><line class="cls-8" x1="484.43" y1="207.81" x2="470.92" y2="207.81"/><polyline class="cls-8" points="463.41 225.83 463.41 228.83 466.42 228.83"/><polyline class="cls-8" points="470.92 228.83 473.92 228.83 473.92 225.83"/><polyline class="cls-8" points="473.92 221.32 473.92 218.32 470.92 218.32"/><line class="cls-8" x1="548.99" y1="225.83" x2="548.99" y2="239.34"/><line class="cls-8" x1="548.99" y1="221.32" x2="548.99" y2="225.83"/><line class="cls-8" x1="548.99" y1="207.81" x2="548.99" y2="221.32"/><line class="cls-8" x1="567" y1="239.34" x2="580.51" y2="239.34"/><line class="cls-8" x1="548.99" y1="239.34" x2="562.5" y2="239.34"/><line class="cls-8" x1="559.5" y1="221.32" x2="548.99" y2="221.32"/><line class="cls-8" x1="548.99" y1="225.83" x2="559.5" y2="225.83"/><line class="cls-8" x1="580.51" y1="221.32" x2="570" y2="221.32"/><polyline class="cls-8" points="580.51 225.83 580.51 221.32 580.51 207.81"/><line class="cls-8" x1="580.51" y1="239.34" x2="580.51" y2="225.83"/><line class="cls-8" x1="570" y1="225.83" x2="580.51" y2="225.83"/><line class="cls-8" x1="562.5" y1="207.81" x2="548.99" y2="207.81"/><line class="cls-8" x1="559.5" y1="221.32" x2="559.5" y2="218.32"/><line class="cls-8" x1="562.5" y1="218.32" x2="559.5" y2="218.32"/><line class="cls-8" x1="580.51" y1="207.81" x2="567" y2="207.81"/><polyline class="cls-8" points="559.5 225.83 559.5 228.83 562.5 228.83"/><polyline class="cls-8" points="567 228.83 570 228.83 570 225.83"/><polyline class="cls-8" points="570 221.32 570 218.32 567 218.32"/><line class="cls-8" x1="645.07" y1="225.83" x2="645.07" y2="239.34"/><line class="cls-8" x1="645.07" y1="221.32" x2="645.07" y2="225.83"/><line class="cls-8" x1="645.07" y1="207.81" x2="645.07" y2="221.32"/><line class="cls-8" x1="663.09" y1="239.34" x2="676.6" y2="239.34"/><line class="cls-8" x1="645.07" y1="239.34" x2="658.58" y2="239.34"/><line class="cls-8" x1="655.58" y1="221.32" x2="645.07" y2="221.32"/><line class="cls-8" x1="645.07" y1="225.83" x2="655.58" y2="225.83"/><line class="cls-8" x1="676.6" y1="221.32" x2="666.09" y2="221.32"/><polyline class="cls-8" points="676.6 225.83 676.6 221.32 676.6 207.81"/><line class="cls-8" x1="676.6" y1="239.34" x2="676.6" y2="225.83"/><line class="cls-8" x1="666.09" y1="225.83" x2="676.6" y2="225.83"/><line class="cls-8" x1="658.58" y1="207.81" x2="645.07" y2="207.81"/><line class="cls-8" x1="655.58" y1="221.32" x2="655.58" y2="218.32"/><line class="cls-8" x1="658.58" y1="218.32" x2="655.58" y2="218.32"/><line class="cls-8" x1="676.6" y1="207.81" x2="663.09" y2="207.81"/><polyline class="cls-8" points="655.58 225.83 655.58 228.83 658.58 228.83"/><polyline class="cls-8" points="663.09 228.83 666.09 228.83 666.09 225.83"/><polyline class="cls-8" points="666.09 221.32 666.09 218.32 663.09 218.32"/><line class="cls-8" x1="741.15" y1="225.83" x2="741.15" y2="239.34"/><line class="cls-8" x1="741.15" y1="221.32" x2="741.15" y2="225.83"/><line class="cls-8" x1="741.15" y1="207.81" x2="741.15" y2="221.32"/><line class="cls-8" x1="759.17" y1="239.34" x2="772.68" y2="239.34"/><line class="cls-8" x1="741.15" y1="239.34" x2="754.67" y2="239.34"/><line class="cls-8" x1="751.66" y1="221.32" x2="741.15" y2="221.32"/><line class="cls-8" x1="741.15" y1="225.83" x2="751.66" y2="225.83"/><line class="cls-8" x1="772.68" y1="221.32" x2="762.17" y2="221.32"/><polyline class="cls-8" points="772.68 225.83 772.68 221.32 772.68 207.81"/><line class="cls-8" x1="772.68" y1="239.34" x2="772.68" y2="225.83"/><line class="cls-8" x1="762.17" y1="225.83" x2="772.68" y2="225.83"/><line class="cls-8" x1="754.67" y1="207.81" x2="741.15" y2="207.81"/><line class="cls-8" x1="751.66" y1="221.32" x2="751.66" y2="218.32"/><line class="cls-8" x1="754.67" y1="218.32" x2="751.66" y2="218.32"/><line class="cls-8" x1="772.68" y1="207.81" x2="759.17" y2="207.81"/><polyline class="cls-8" points="751.66 225.83 751.66 228.83 754.66 228.83"/><polyline class="cls-8" points="759.17 228.83 762.17 228.83 762.17 225.83"/><polyline class="cls-8" points="762.17 221.32 762.17 218.32 759.17 218.32"/><polyline class="cls-8" points="846.62 157.89 177.79 157.89 177.79 673.59 846.62 673.59 846.62 157.89"/><line class="cls-8" x1="470.92" y1="204.06" x2="466.42" y2="204.06"/><polyline class="cls-8" points="466.42 627.42 470.92 627.42 470.92 623.67"/><line class="cls-8" x1="470.92" y1="613.16" x2="470.92" y2="602.65"/><line class="cls-8" x1="470.92" y1="592.14" x2="470.92" y2="431.5"/><line class="cls-8" x1="470.92" y1="420.99" x2="470.92" y2="410.49"/><line class="cls-8" x1="470.92" y1="399.98" x2="470.92" y2="239.34"/><line class="cls-8" x1="470.92" y1="228.83" x2="470.92" y2="218.32"/><line class="cls-8" x1="470.92" y1="207.81" x2="470.92" y2="204.06"/><line class="cls-8" x1="466.42" y1="204.06" x2="466.42" y2="207.81"/><line class="cls-8" x1="466.42" y1="218.32" x2="466.42" y2="228.83"/><line class="cls-8" x1="466.42" y1="239.34" x2="466.42" y2="399.98"/><line class="cls-8" x1="466.42" y1="410.49" x2="466.42" y2="420.99"/><line class="cls-8" x1="466.42" y1="431.5" x2="466.42" y2="592.14"/><line class="cls-8" x1="466.42" y1="602.65" x2="466.42" y2="613.16"/><line class="cls-8" x1="466.42" y1="623.67" x2="466.42" y2="627.42"/><line class="cls-8" x1="374.84" y1="204.06" x2="370.33" y2="204.06"/><polyline class="cls-8" points="370.33 627.42 374.84 627.42 374.84 623.67"/><line class="cls-8" x1="374.84" y1="613.16" x2="374.84" y2="602.65"/><line class="cls-8" x1="374.84" y1="592.14" x2="374.84" y2="431.5"/><line class="cls-8" x1="374.84" y1="420.99" x2="374.84" y2="410.49"/><line class="cls-8" x1="374.84" y1="399.98" x2="374.84" y2="239.34"/><line class="cls-8" x1="374.84" y1="228.83" x2="374.84" y2="218.32"/><line class="cls-8" x1="374.84" y1="207.81" x2="374.84" y2="204.06"/><line class="cls-8" x1="370.33" y1="204.06" x2="370.33" y2="207.81"/><line class="cls-8" x1="370.33" y1="218.32" x2="370.33" y2="228.83"/><line class="cls-8" x1="370.33" y1="239.34" x2="370.33" y2="399.98"/><line class="cls-8" x1="370.33" y1="410.49" x2="370.33" y2="420.99"/><line class="cls-8" x1="370.33" y1="431.5" x2="370.33" y2="592.14"/><line class="cls-8" x1="370.33" y1="602.65" x2="370.33" y2="613.16"/><line class="cls-8" x1="370.33" y1="623.67" x2="370.33" y2="627.42"/><line class="cls-8" x1="663.09" y1="204.06" x2="658.58" y2="204.06"/><polyline class="cls-8" points="658.58 627.42 663.09 627.42 663.09 623.67"/><line class="cls-8" x1="663.09" y1="613.16" x2="663.09" y2="602.65"/><line class="cls-8" x1="663.09" y1="592.14" x2="663.09" y2="431.5"/><line class="cls-8" x1="663.09" y1="420.99" x2="663.09" y2="410.49"/><line class="cls-8" x1="663.09" y1="399.98" x2="663.09" y2="239.34"/><line class="cls-8" x1="663.09" y1="228.83" x2="663.09" y2="218.32"/><line class="cls-8" x1="663.09" y1="207.81" x2="663.09" y2="204.06"/><line class="cls-8" x1="658.58" y1="204.06" x2="658.58" y2="207.81"/><line class="cls-8" x1="658.58" y1="218.32" x2="658.58" y2="228.83"/><line class="cls-8" x1="658.58" y1="239.34" x2="658.58" y2="399.98"/><line class="cls-8" x1="658.58" y1="410.49" x2="658.58" y2="420.99"/><line class="cls-8" x1="658.58" y1="431.5" x2="658.58" y2="592.14"/><line class="cls-8" x1="658.58" y1="602.65" x2="658.58" y2="613.16"/><line class="cls-8" x1="658.58" y1="623.67" x2="658.58" y2="627.42"/><line class="cls-8" x1="615.04" y1="204.06" x2="610.54" y2="204.06"/><polyline class="cls-8" points="610.54 627.42 615.04 627.42 615.04 543.35"/><line class="cls-8" x1="615.04" y1="532.84" x2="615.04" y2="522.33"/><line class="cls-8" x1="615.04" y1="511.82" x2="615.04" y2="335.42"/><line class="cls-8" x1="615.04" y1="324.91" x2="615.04" y2="314.4"/><line class="cls-8" x1="615.04" y1="303.89" x2="615.04" y2="204.06"/><line class="cls-8" x1="610.54" y1="204.06" x2="610.54" y2="303.89"/><line class="cls-8" x1="610.54" y1="314.4" x2="610.54" y2="324.91"/><line class="cls-8" x1="610.54" y1="335.42" x2="610.54" y2="511.82"/><line class="cls-8" x1="610.54" y1="522.33" x2="610.54" y2="532.84"/><line class="cls-8" x1="610.54" y1="543.35" x2="610.54" y2="627.42"/><line class="cls-8" x1="567" y1="204.06" x2="562.5" y2="204.06"/><polyline class="cls-8" points="562.5 627.42 567 627.42 567 623.67"/><line class="cls-8" x1="567" y1="613.16" x2="567" y2="602.65"/><line class="cls-8" x1="567" y1="592.14" x2="567" y2="431.5"/><line class="cls-8" x1="567" y1="420.99" x2="567" y2="410.49"/><line class="cls-8" x1="567" y1="399.98" x2="567" y2="239.34"/><line class="cls-8" x1="567" y1="228.83" x2="567" y2="218.32"/><line class="cls-8" x1="567" y1="207.81" x2="567" y2="204.06"/><line class="cls-8" x1="562.5" y1="204.06" x2="562.5" y2="207.81"/><line class="cls-8" x1="562.5" y1="218.32" x2="562.5" y2="228.83"/><line class="cls-8" x1="562.5" y1="239.34" x2="562.5" y2="399.98"/><line class="cls-8" x1="562.5" y1="410.49" x2="562.5" y2="420.99"/><line class="cls-8" x1="562.5" y1="431.5" x2="562.5" y2="592.14"/><line class="cls-8" x1="562.5" y1="602.65" x2="562.5" y2="613.16"/><line class="cls-8" x1="562.5" y1="623.67" x2="562.5" y2="627.42"/><polyline class="cls-8" points="245.72 204.06 241.22 204.06 241.22 627.42 245.72 627.42 245.72 204.06"/><line class="cls-8" x1="422.88" y1="204.06" x2="418.37" y2="204.06"/><polyline class="cls-8" points="418.37 627.42 422.88 627.42 422.88 543.35"/><line class="cls-8" x1="422.88" y1="532.84" x2="422.88" y2="522.33"/><line class="cls-8" x1="422.88" y1="511.82" x2="422.88" y2="335.42"/><line class="cls-8" x1="422.88" y1="324.91" x2="422.88" y2="314.4"/><line class="cls-8" x1="422.88" y1="303.89" x2="422.88" y2="204.06"/><line class="cls-8" x1="418.37" y1="204.06" x2="418.37" y2="303.89"/><line class="cls-8" x1="418.37" y1="314.4" x2="418.37" y2="324.91"/><line class="cls-8" x1="418.37" y1="335.42" x2="418.37" y2="511.82"/><line class="cls-8" x1="418.37" y1="522.33" x2="418.37" y2="532.84"/><line class="cls-8" x1="418.37" y1="543.35" x2="418.37" y2="627.42"/><line class="cls-8" x1="278.75" y1="204.06" x2="274.25" y2="204.06"/><polyline class="cls-8" points="274.25 627.42 278.75 627.42 278.75 623.67"/><line class="cls-8" x1="278.75" y1="613.16" x2="278.75" y2="602.65"/><line class="cls-8" x1="278.75" y1="592.14" x2="278.75" y2="431.5"/><line class="cls-8" x1="278.75" y1="420.99" x2="278.75" y2="410.49"/><line class="cls-8" x1="278.75" y1="399.98" x2="278.75" y2="239.34"/><line class="cls-8" x1="278.75" y1="228.83" x2="278.75" y2="218.32"/><line class="cls-8" x1="278.75" y1="207.81" x2="278.75" y2="204.06"/><line class="cls-8" x1="274.25" y1="204.06" x2="274.25" y2="207.81"/><line class="cls-8" x1="274.25" y1="218.32" x2="274.25" y2="228.83"/><line class="cls-8" x1="274.25" y1="239.34" x2="274.25" y2="399.98"/><line class="cls-8" x1="274.25" y1="410.49" x2="274.25" y2="420.99"/><line class="cls-8" x1="274.25" y1="431.5" x2="274.25" y2="592.14"/><line class="cls-8" x1="274.25" y1="602.65" x2="274.25" y2="613.16"/><line class="cls-8" x1="274.25" y1="623.67" x2="274.25" y2="627.42"/><line class="cls-8" x1="800.45" y1="204.06" x2="800.45" y2="199.55"/><line class="cls-8" x1="223.96" y1="199.55" x2="223.96" y2="204.06"/><line class="cls-8" x1="245.72" y1="204.06" x2="274.25" y2="204.06"/><line class="cls-8" x1="278.75" y1="204.06" x2="322.29" y2="204.06"/><line class="cls-8" x1="326.79" y1="204.06" x2="370.33" y2="204.06"/><line class="cls-8" x1="374.84" y1="204.06" x2="418.37" y2="204.06"/><line class="cls-8" x1="422.88" y1="204.06" x2="466.42" y2="204.06"/><line class="cls-8" x1="470.92" y1="204.06" x2="514.46" y2="204.06"/><line class="cls-8" x1="518.96" y1="204.06" x2="562.5" y2="204.06"/><line class="cls-8" x1="567" y1="204.06" x2="610.54" y2="204.06"/><line class="cls-8" x1="615.04" y1="204.06" x2="658.58" y2="204.06"/><line class="cls-8" x1="663.09" y1="204.06" x2="706.62" y2="204.06"/><line class="cls-8" x1="711.13" y1="204.06" x2="754.67" y2="204.06"/><line class="cls-8" x1="711.13" y1="204.06" x2="706.62" y2="204.06"/><polyline class="cls-8" points="706.62 627.42 711.13 627.42 711.13 543.35"/><line class="cls-8" x1="711.13" y1="532.84" x2="711.13" y2="522.33"/><line class="cls-8" x1="711.13" y1="511.82" x2="711.13" y2="335.42"/><line class="cls-8" x1="711.13" y1="324.91" x2="711.13" y2="314.4"/><line class="cls-8" x1="711.13" y1="303.89" x2="711.13" y2="204.06"/><line class="cls-8" x1="706.62" y1="204.06" x2="706.62" y2="303.89"/><line class="cls-8" x1="706.62" y1="314.4" x2="706.62" y2="324.91"/><line class="cls-8" x1="706.62" y1="335.42" x2="706.62" y2="511.82"/><line class="cls-8" x1="706.62" y1="522.33" x2="706.62" y2="532.84"/><line class="cls-8" x1="706.62" y1="543.35" x2="706.62" y2="627.42"/><line class="cls-8" x1="759.17" y1="204.06" x2="754.67" y2="204.06"/><polyline class="cls-8" points="754.66 627.42 759.17 627.42 759.17 623.67"/><line class="cls-8" x1="759.17" y1="613.16" x2="759.17" y2="602.65"/><line class="cls-8" x1="759.17" y1="592.14" x2="759.17" y2="431.5"/><line class="cls-8" x1="759.17" y1="420.99" x2="759.17" y2="410.49"/><line class="cls-8" x1="759.17" y1="399.98" x2="759.17" y2="239.34"/><line class="cls-8" x1="759.17" y1="228.83" x2="759.17" y2="218.32"/><line class="cls-8" x1="759.17" y1="207.81" x2="759.17" y2="204.06"/><line class="cls-8" x1="754.67" y1="204.06" x2="754.67" y2="207.81"/><line class="cls-8" x1="754.67" y1="218.32" x2="754.67" y2="228.83"/><line class="cls-8" x1="754.67" y1="239.34" x2="754.67" y2="399.98"/><line class="cls-8" x1="754.67" y1="410.49" x2="754.67" y2="420.99"/><line class="cls-8" x1="754.67" y1="431.5" x2="754.67" y2="592.14"/><line class="cls-8" x1="754.67" y1="602.65" x2="754.67" y2="613.16"/><line class="cls-8" x1="754.67" y1="623.67" x2="754.67" y2="627.42"/><line class="cls-8" x1="518.96" y1="204.06" x2="514.46" y2="204.06"/><polyline class="cls-8" points="514.46 627.42 518.96 627.42 518.96 543.35"/><line class="cls-8" x1="518.96" y1="532.84" x2="518.96" y2="522.33"/><line class="cls-8" x1="518.96" y1="511.82" x2="518.96" y2="335.42"/><line class="cls-8" x1="518.96" y1="324.91" x2="518.96" y2="314.4"/><line class="cls-8" x1="518.96" y1="303.89" x2="518.96" y2="204.06"/><line class="cls-8" x1="514.46" y1="204.06" x2="514.46" y2="303.89"/><line class="cls-8" x1="514.46" y1="314.4" x2="514.46" y2="324.91"/><line class="cls-8" x1="514.46" y1="335.42" x2="514.46" y2="511.82"/><line class="cls-8" x1="514.46" y1="522.33" x2="514.46" y2="532.84"/><line class="cls-8" x1="514.46" y1="543.35" x2="514.46" y2="627.42"/><line class="cls-8" x1="326.79" y1="204.06" x2="322.29" y2="204.06"/><polyline class="cls-8" points="322.29 627.42 326.79 627.42 326.79 543.35"/><line class="cls-8" x1="326.79" y1="532.84" x2="326.79" y2="522.33"/><line class="cls-8" x1="326.79" y1="511.82" x2="326.79" y2="335.42"/><line class="cls-8" x1="326.79" y1="324.91" x2="326.79" y2="314.4"/><line class="cls-8" x1="326.79" y1="303.89" x2="326.79" y2="204.06"/><line class="cls-8" x1="322.29" y1="204.06" x2="322.29" y2="303.89"/><line class="cls-8" x1="322.29" y1="314.4" x2="322.29" y2="324.91"/><line class="cls-8" x1="322.29" y1="335.42" x2="322.29" y2="511.82"/><line class="cls-8" x1="322.29" y1="522.33" x2="322.29" y2="532.84"/><line class="cls-8" x1="322.29" y1="543.35" x2="322.29" y2="627.42"/><line class="cls-8" x1="800.45" y1="631.93" x2="800.45" y2="627.42"/><line class="cls-8" x1="223.96" y1="627.42" x2="223.96" y2="631.93"/><line class="cls-8" x1="754.67" y1="627.42" x2="711.13" y2="627.42"/><line class="cls-8" x1="706.62" y1="627.42" x2="663.09" y2="627.42"/><line class="cls-8" x1="658.58" y1="627.42" x2="615.04" y2="627.42"/><line class="cls-8" x1="610.54" y1="627.42" x2="567" y2="627.42"/><line class="cls-8" x1="562.5" y1="627.42" x2="518.96" y2="627.42"/><line class="cls-8" x1="514.46" y1="627.42" x2="470.92" y2="627.42"/><line class="cls-8" x1="466.42" y1="627.42" x2="422.88" y2="627.42"/><line class="cls-8" x1="418.37" y1="627.42" x2="374.84" y2="627.42"/><line class="cls-8" x1="370.33" y1="627.42" x2="326.79" y2="627.42"/><line class="cls-8" x1="322.29" y1="627.42" x2="278.75" y2="627.42"/><line class="cls-8" x1="274.25" y1="627.42" x2="245.72" y2="627.42"/><polyline class="cls-8" points="223.96 199.55 222.19 199.55 219.45 199.55"/><polyline class="cls-8" points="219.45 631.93 222.3 631.93 223.96 631.93"/><line class="cls-8" x1="223.96" y1="616.91" x2="223.96" y2="611.45"/><line class="cls-8" x1="235.97" y1="199.55" x2="223.96" y2="199.55"/><line class="cls-8" x1="234.46" y1="204.06" x2="234.76" y2="204.06"/><line class="cls-8" x1="789.65" y1="204.06" x2="789.95" y2="204.06"/><line class="cls-8" x1="223.96" y1="631.93" x2="236.08" y2="631.93"/><line class="cls-8" x1="789.95" y1="627.42" x2="789.65" y2="627.42"/><line class="cls-8" x1="234.76" y1="627.42" x2="234.46" y2="627.42"/><polyline class="cls-8" points="804.96 199.55 801.96 199.55 800.46 199.55"/><polyline class="cls-8" points="800.46 631.93 802.07 631.93 804.96 631.93 804.96 628.89"/><line class="cls-8" x1="800.45" y1="611.42" x2="800.45" y2="616.91"/><line class="cls-8" x1="466.42" y1="613.16" x2="466.42" y2="623.67"/><line class="cls-8" x1="470.92" y1="623.67" x2="470.92" y2="613.16"/><line class="cls-8" x1="370.33" y1="613.16" x2="370.33" y2="623.67"/><line class="cls-8" x1="374.84" y1="623.67" x2="374.84" y2="613.16"/><line class="cls-8" x1="658.58" y1="613.16" x2="658.58" y2="623.67"/><line class="cls-8" x1="663.09" y1="623.67" x2="663.09" y2="613.16"/><line class="cls-8" x1="610.54" y1="532.84" x2="610.54" y2="543.35"/><line class="cls-8" x1="615.04" y1="543.35" x2="615.04" y2="532.84"/><line class="cls-8" x1="562.5" y1="613.16" x2="562.5" y2="623.67"/><line class="cls-8" x1="567" y1="623.67" x2="567" y2="613.16"/><line class="cls-8" x1="418.37" y1="532.84" x2="418.37" y2="543.35"/><line class="cls-8" x1="422.88" y1="543.35" x2="422.88" y2="532.84"/><line class="cls-8" x1="274.25" y1="613.16" x2="274.25" y2="623.67"/><line class="cls-8" x1="278.75" y1="623.67" x2="278.75" y2="613.16"/><polyline class="cls-8" points="219.45 199.55 219.45 202.37 219.45 216.34"/><line class="cls-8" x1="219.45" y1="629.2" x2="219.45" y2="631.93"/><polyline class="cls-8" points="223.96 611.45 223.96 220.14 223.96 214.57"/><polyline class="cls-8" points="800.46 199.55 788.18 199.55 235.97 199.55"/><polyline class="cls-8" points="234.76 204.06 239.82 204.06 241.22 204.06"/><polyline class="cls-8" points="759.17 204.06 784.33 204.06 789.64 204.06"/><line class="cls-8" x1="706.62" y1="532.84" x2="706.62" y2="543.35"/><line class="cls-8" x1="711.13" y1="543.35" x2="711.13" y2="532.84"/><line class="cls-8" x1="754.67" y1="613.16" x2="754.67" y2="623.67"/><line class="cls-8" x1="759.17" y1="623.67" x2="759.17" y2="613.16"/><line class="cls-8" x1="514.46" y1="532.84" x2="514.46" y2="543.35"/><line class="cls-8" x1="518.96" y1="543.35" x2="518.96" y2="532.84"/><line class="cls-8" x1="322.29" y1="532.84" x2="322.29" y2="543.35"/><line class="cls-8" x1="326.79" y1="543.35" x2="326.79" y2="532.84"/><line class="cls-8" x1="239.93" y1="627.42" x2="234.76" y2="627.42"/><polyline class="cls-8" points="236.08 631.93 788.29 631.93 800.46 631.93"/><polyline class="cls-8" points="789.64 627.42 784.44 627.42 759.17 627.42"/><line class="cls-8" x1="241.22" y1="627.42" x2="239.93" y2="627.42"/><line class="cls-8" x1="804.96" y1="628.89" x2="804.96" y2="615.31"/><polyline class="cls-8" points="800.46 214.57 800.46 219.96 800.46 611.42"/><polyline class="cls-8" points="219.45 216.34 219.45 615.23 219.45 629.2"/><line class="cls-8" x1="804.96" y1="615.31" x2="804.96" y2="216.03"/><line class="cls-8" x1="466.42" y1="592.14" x2="466.42" y2="602.65"/><line class="cls-8" x1="470.92" y1="602.65" x2="470.92" y2="592.14"/><line class="cls-8" x1="370.33" y1="592.14" x2="370.33" y2="602.65"/><line class="cls-8" x1="374.84" y1="602.65" x2="374.84" y2="592.14"/><line class="cls-8" x1="658.58" y1="592.14" x2="658.58" y2="602.65"/><line class="cls-8" x1="663.09" y1="602.65" x2="663.09" y2="592.14"/><line class="cls-8" x1="610.54" y1="511.82" x2="610.54" y2="522.33"/><line class="cls-8" x1="615.04" y1="522.33" x2="615.04" y2="511.82"/><line class="cls-8" x1="562.5" y1="592.14" x2="562.5" y2="602.65"/><line class="cls-8" x1="567" y1="602.65" x2="567" y2="592.14"/><line class="cls-8" x1="418.37" y1="511.82" x2="418.37" y2="522.33"/><line class="cls-8" x1="422.88" y1="522.33" x2="422.88" y2="511.82"/><line class="cls-8" x1="274.25" y1="592.14" x2="274.25" y2="602.65"/><line class="cls-8" x1="278.75" y1="602.65" x2="278.75" y2="592.14"/><line class="cls-8" x1="706.62" y1="511.82" x2="706.62" y2="522.33"/><line class="cls-8" x1="711.13" y1="522.33" x2="711.13" y2="511.82"/><line class="cls-8" x1="754.67" y1="592.14" x2="754.67" y2="602.65"/><line class="cls-8" x1="759.17" y1="602.65" x2="759.17" y2="592.14"/><line class="cls-8" x1="514.46" y1="511.82" x2="514.46" y2="522.33"/><line class="cls-8" x1="518.96" y1="522.33" x2="518.96" y2="511.82"/><line class="cls-8" x1="322.29" y1="511.82" x2="322.29" y2="522.33"/><line class="cls-8" x1="326.79" y1="522.33" x2="326.79" y2="511.82"/><polyline class="cls-8" points="804.96 216.03 804.96 202.45 804.96 199.55"/><line class="cls-8" x1="466.42" y1="420.99" x2="466.42" y2="431.5"/><line class="cls-8" x1="418.37" y1="303.89" x2="418.37" y2="314.4"/><line class="cls-8" x1="514.46" y1="303.89" x2="514.46" y2="314.4"/><line class="cls-8" x1="470.92" y1="431.5" x2="470.92" y2="420.99"/><line class="cls-8" x1="370.33" y1="399.98" x2="370.33" y2="410.49"/><line class="cls-8" x1="374.84" y1="239.34" x2="374.84" y2="228.83"/><line class="cls-8" x1="658.58" y1="399.98" x2="658.58" y2="410.49"/><line class="cls-8" x1="663.09" y1="239.34" x2="663.09" y2="228.83"/><line class="cls-8" x1="610.54" y1="303.89" x2="610.54" y2="314.4"/><line class="cls-8" x1="615.04" y1="335.42" x2="615.04" y2="324.91"/><line class="cls-8" x1="562.5" y1="399.98" x2="562.5" y2="410.49"/><line class="cls-8" x1="567" y1="410.49" x2="567" y2="399.98"/><line class="cls-8" x1="418.37" y1="324.91" x2="418.37" y2="335.42"/><line class="cls-8" x1="422.88" y1="335.42" x2="422.88" y2="324.91"/><line class="cls-8" x1="274.25" y1="228.83" x2="274.25" y2="239.34"/><line class="cls-8" x1="278.75" y1="239.34" x2="278.75" y2="228.83"/><line class="cls-8" x1="706.62" y1="303.89" x2="706.62" y2="314.4"/><line class="cls-8" x1="711.13" y1="335.42" x2="711.13" y2="324.91"/><line class="cls-8" x1="754.67" y1="228.83" x2="754.67" y2="239.34"/><line class="cls-8" x1="759.17" y1="239.34" x2="759.17" y2="228.83"/><line class="cls-8" x1="514.46" y1="324.91" x2="514.46" y2="335.42"/><line class="cls-8" x1="518.96" y1="335.42" x2="518.96" y2="324.91"/><line class="cls-8" x1="322.29" y1="303.89" x2="322.29" y2="314.4"/><line class="cls-8" x1="326.79" y1="335.42" x2="326.79" y2="324.91"/><line class="cls-8" x1="466.42" y1="399.98" x2="466.42" y2="410.49"/><line class="cls-8" x1="470.92" y1="410.49" x2="470.92" y2="399.98"/><line class="cls-8" x1="470.92" y1="239.34" x2="470.92" y2="228.83"/><line class="cls-8" x1="370.33" y1="228.83" x2="370.33" y2="239.34"/><line class="cls-8" x1="370.33" y1="420.99" x2="370.33" y2="431.5"/><line class="cls-8" x1="374.84" y1="431.5" x2="374.84" y2="420.99"/><line class="cls-8" x1="658.58" y1="228.83" x2="658.58" y2="239.34"/><line class="cls-8" x1="658.58" y1="420.99" x2="658.58" y2="431.5"/><line class="cls-8" x1="663.09" y1="431.5" x2="663.09" y2="420.99"/><line class="cls-8" x1="610.54" y1="324.91" x2="610.54" y2="335.42"/><line class="cls-8" x1="615.04" y1="314.4" x2="615.04" y2="303.89"/><line class="cls-8" x1="562.5" y1="228.83" x2="562.5" y2="239.34"/><line class="cls-8" x1="562.5" y1="420.99" x2="562.5" y2="431.5"/><line class="cls-8" x1="567" y1="431.5" x2="567" y2="420.99"/><line class="cls-8" x1="567" y1="239.34" x2="567" y2="228.83"/><line class="cls-8" x1="422.88" y1="314.4" x2="422.88" y2="303.89"/><line class="cls-8" x1="274.25" y1="399.98" x2="274.25" y2="410.49"/><line class="cls-8" x1="278.75" y1="431.5" x2="278.75" y2="420.99"/><line class="cls-8" x1="706.62" y1="324.91" x2="706.62" y2="335.42"/><line class="cls-8" x1="711.13" y1="314.4" x2="711.13" y2="303.89"/><line class="cls-8" x1="754.67" y1="399.98" x2="754.67" y2="410.49"/><line class="cls-8" x1="759.17" y1="431.5" x2="759.17" y2="420.99"/><line class="cls-8" x1="518.96" y1="314.4" x2="518.96" y2="303.89"/><line class="cls-8" x1="322.29" y1="324.91" x2="322.29" y2="335.42"/><line class="cls-8" x1="326.79" y1="314.4" x2="326.79" y2="303.89"/><line class="cls-8" x1="466.42" y1="228.83" x2="466.42" y2="239.34"/><line class="cls-8" x1="374.84" y1="410.49" x2="374.84" y2="399.98"/><line class="cls-8" x1="374.84" y1="218.32" x2="374.84" y2="207.81"/><line class="cls-8" x1="663.09" y1="410.49" x2="663.09" y2="399.98"/><line class="cls-8" x1="663.09" y1="218.32" x2="663.09" y2="207.81"/><line class="cls-8" x1="274.25" y1="207.81" x2="274.25" y2="218.32"/><line class="cls-8" x1="274.25" y1="420.99" x2="274.25" y2="431.5"/><line class="cls-8" x1="278.75" y1="410.49" x2="278.75" y2="399.98"/><line class="cls-8" x1="278.75" y1="218.32" x2="278.75" y2="207.81"/><line class="cls-8" x1="754.67" y1="207.81" x2="754.67" y2="218.32"/><line class="cls-8" x1="754.67" y1="420.99" x2="754.67" y2="431.5"/><line class="cls-8" x1="759.17" y1="410.49" x2="759.17" y2="399.98"/><line class="cls-8" x1="759.17" y1="218.32" x2="759.17" y2="207.81"/><line class="cls-8" x1="470.92" y1="218.32" x2="470.92" y2="207.81"/><line class="cls-8" x1="370.33" y1="207.81" x2="370.33" y2="218.32"/><line class="cls-8" x1="658.58" y1="207.81" x2="658.58" y2="218.32"/><line class="cls-8" x1="562.5" y1="207.81" x2="562.5" y2="218.32"/><line class="cls-8" x1="567" y1="218.32" x2="567" y2="207.81"/><line class="cls-8" x1="466.42" y1="207.81" x2="466.42" y2="218.32"/><g class="cls-9"><g class="cls-4"><line class="cls-2" x1="813.96" y1="199.55" x2="980.44" y2="199.55"/><line class="cls-2" x1="980.44" y1="199.55" x2="987.94" y2="199.55"/><line class="cls-2" x1="813.96" y1="631.93" x2="980.44" y2="631.93"/><line class="cls-2" x1="980.44" y1="631.93" x2="987.94" y2="631.93"/><line class="cls-10" x1="980.44" y1="207.06" x2="980.44" y2="624.42"/><polygon points="980.44 200.31 981.56 207.06 979.31 207.06 980.44 200.31"/><polygon class="cls-10" points="980.44 200.31 981.56 207.06 979.31 207.06 980.44 200.31"/><polygon points="980.44 631.17 979.31 624.42 981.56 624.42 980.44 631.17"/><polygon class="cls-10" points="980.44 631.17 979.31 624.42 981.56 624.42 980.44 631.17"/></g></g><g class="cls-11"><g class="cls-4"><text class="cls-12" transform="translate(975.57 427.7) rotate(-90)">12&apos;-0&quot;</text></g></g><g class="cls-13"><g class="cls-4"><line class="cls-2" x1="223.96" y1="190.55" x2="223.96" y2="92.68"/><line class="cls-2" x1="223.96" y1="92.68" x2="223.96" y2="85.18"/><line class="cls-2" x1="800.45" y1="190.55" x2="800.45" y2="92.68"/><line class="cls-2" x1="800.45" y1="92.68" x2="800.45" y2="85.18"/><line class="cls-10" x1="231.47" y1="92.68" x2="792.94" y2="92.68"/><polygon points="224.72 92.68 231.47 91.55 231.47 93.8 224.72 92.68"/><polygon class="cls-10" points="224.72 92.68 231.47 91.55 231.47 93.8 224.72 92.68"/><polygon points="799.7 92.68 792.95 93.8 792.95 91.55 799.7 92.68"/><polygon class="cls-10" points="799.7 92.68 792.95 93.8 792.95 91.55 799.7 92.68"/></g></g><g class="cls-14"><g class="cls-4"><text class="cls-12" transform="translate(500.24 87.81)">16&apos;-0&quot;</text></g></g><g class="cls-15"><g class="cls-4"><line class="cls-2" x1="750.17" y1="204.06" x2="733.22" y2="204.06"/><line class="cls-2" x1="733.22" y1="204.06" x2="725.72" y2="204.06"/><line class="cls-2" x1="750.17" y1="207.81" x2="733.22" y2="207.81"/><line class="cls-2" x1="733.22" y1="207.81" x2="725.72" y2="207.81"/><line class="cls-10" x1="733.22" y1="196.55" x2="733.22" y2="189.04"/><polygon points="733.22 203.3 732.09 196.55 734.34 196.55 733.22 203.3"/><polygon class="cls-10" points="733.22 203.3 732.09 196.55 734.34 196.55 733.22 203.3"/><line class="cls-10" x1="733.22" y1="222.83" x2="733.22" y2="215.32"/><polygon points="733.22 208.57 734.34 215.32 732.09 215.32 733.22 208.57"/><polygon class="cls-10" points="733.22 208.57 734.34 215.32 732.09 215.32 733.22 208.57"/><path class="cls-2" d="M731.72,205.45c-6.14.23-9.3,2.65-9.3,7.14" transform="translate(0.5 0.5)"/><path d="M733.42,204.73a1,1,0,1,1-1.41,0,1,1,0,0,1,1.41,0" transform="translate(0.5 0.5)"/><path class="cls-2" d="M733.42,204.73a1,1,0,1,1-1.41,0,1,1,0,0,1,1.41,0" transform="translate(0.5 0.5)"/></g></g><g class="cls-16"><g class="cls-4"><text class="cls-12" transform="translate(725.77 239.8) rotate(-90)">1 1/4&quot;</text></g></g><g class="cls-17"><g class="cls-4"><line class="cls-2" x1="804.96" y1="640.93" x2="804.96" y2="713.95"/><line class="cls-2" x1="804.96" y1="713.95" x2="804.96" y2="721.45"/><line class="cls-2" x1="756.91" y1="640.93" x2="756.91" y2="713.95"/><line class="cls-2" x1="756.91" y1="713.95" x2="756.91" y2="721.45"/><line class="cls-10" x1="797.45" y1="713.95" x2="764.42" y2="713.95"/><polygon points="804.2 713.95 797.45 715.07 797.45 712.82 804.2 713.95"/><polygon class="cls-10" points="804.2 713.95 797.45 715.07 797.45 712.82 804.2 713.95"/><polygon points="757.67 713.95 764.42 712.82 764.42 715.07 757.67 713.95"/><polygon class="cls-10" points="757.67 713.95 764.42 712.82 764.42 715.07 757.67 713.95"/></g></g><g class="cls-18"><g class="cls-4"><text class="cls-12" transform="translate(774.43 709.08)">16</text></g></g><g class="cls-19"><g class="cls-4"><line class="cls-2" x1="756.92" y1="636.42" x2="756.92" y2="713.95"/><line class="cls-2" x1="756.92" y1="713.95" x2="756.92" y2="721.45"/><line class="cls-2" x1="708.88" y1="636.42" x2="708.88" y2="713.95"/><line class="cls-2" x1="708.88" y1="713.95" x2="708.88" y2="721.45"/><line class="cls-10" x1="749.41" y1="713.95" x2="716.39" y2="713.95"/><polygon points="756.16 713.95 749.41 715.07 749.41 712.82 756.16 713.95"/><polygon class="cls-10" points="756.16 713.95 749.41 715.07 749.41 712.82 756.16 713.95"/><polygon points="709.64 713.95 716.39 712.82 716.39 715.07 709.64 713.95"/><polygon class="cls-10" points="709.64 713.95 716.39 712.82 716.39 715.07 709.64 713.95"/></g></g><g class="cls-20"><g class="cls-4"><text class="cls-12" transform="translate(726.39 709.08)">16</text></g></g><g class="cls-21"><g class="cls-4"><line class="cls-2" x1="324.54" y1="636.42" x2="324.54" y2="713.95"/><line class="cls-2" x1="324.54" y1="713.95" x2="324.54" y2="721.45"/><line class="cls-2" x1="276.5" y1="636.42" x2="276.5" y2="713.95"/><line class="cls-2" x1="276.5" y1="713.95" x2="276.5" y2="721.45"/><line class="cls-10" x1="317.03" y1="713.95" x2="284.01" y2="713.95"/><polygon points="323.78 713.95 317.03 715.07 317.03 712.82 323.78 713.95"/><polygon class="cls-10" points="323.78 713.95 317.03 715.07 317.03 712.82 323.78 713.95"/><polygon points="277.26 713.95 284.01 712.82 284.01 715.07 277.26 713.95"/><polygon class="cls-10" points="277.26 713.95 284.01 712.82 284.01 715.07 277.26 713.95"/></g></g><g class="cls-22"><g class="cls-4"><text class="cls-12" transform="translate(294.02 709.08)">16</text></g></g><g class="cls-23"><g class="cls-4"><line class="cls-2" x1="243.47" y1="636.42" x2="243.47" y2="713.95"/><line class="cls-2" x1="243.47" y1="713.95" x2="243.47" y2="721.45"/><line class="cls-2" x1="219.45" y1="636.42" x2="219.45" y2="713.95"/><line class="cls-2" x1="219.45" y1="713.95" x2="219.45" y2="721.45"/><line class="cls-10" x1="250.98" y1="713.95" x2="258.49" y2="713.95"/><polygon points="244.23 713.95 250.98 712.82 250.98 715.07 244.23 713.95"/><polygon class="cls-10" points="244.23 713.95 250.98 712.82 250.98 715.07 244.23 713.95"/><line class="cls-10" x1="204.43" y1="713.95" x2="211.94" y2="713.95"/><polygon points="218.69 713.95 211.94 715.07 211.94 712.82 218.69 713.95"/><polygon class="cls-10" points="218.69 713.95 211.94 715.07 211.94 712.82 218.69 713.95"/></g></g><g class="cls-24"><g class="cls-4"><text class="cls-12" transform="translate(226.85 709.08)">8&quot;</text></g></g><g class="cls-25"><g class="cls-4"><line class="cls-2" x1="243.47" y1="636.42" x2="243.47" y2="713.95"/><line class="cls-2" x1="243.47" y1="713.95" x2="243.47" y2="721.45"/><line class="cls-2" x1="276.5" y1="636.42" x2="276.5" y2="713.95"/><line class="cls-2" x1="276.5" y1="713.95" x2="276.5" y2="721.45"/><line class="cls-10" x1="247.98" y1="713.95" x2="271.99" y2="713.95"/><polygon points="244.23 713.95 247.98 713.32 247.98 714.57 244.23 713.95"/><polygon class="cls-10" points="244.23 713.95 247.98 713.32 247.98 714.57 244.23 713.95"/><polygon points="275.74 713.95 271.99 714.57 271.99 713.32 275.74 713.95"/><polygon class="cls-10" points="275.74 713.95 271.99 714.57 271.99 713.32 275.74 713.95"/></g></g><g class="cls-26"><g class="cls-4"><text class="cls-12" transform="translate(253.22 709.08)"><tspan class="cls-27">1</tspan><tspan x="4.34" y="0">1&quot;</tspan></text></g></g><g class="cls-28"><g class="cls-4"><line class="cls-2" x1="813.96" y1="199.55" x2="924.85" y2="199.55"/><line class="cls-2" x1="924.85" y1="199.55" x2="932.35" y2="199.55"/><line class="cls-2" x1="813.96" y1="415.74" x2="924.85" y2="415.74"/><line class="cls-2" x1="924.85" y1="415.74" x2="932.35" y2="415.74"/><line class="cls-10" x1="924.85" y1="207.06" x2="924.85" y2="408.23"/><polygon points="924.85 200.31 925.97 207.06 923.72 207.06 924.85 200.31"/><polygon class="cls-10" points="924.85 200.31 925.97 207.06 923.72 207.06 924.85 200.31"/><polygon points="924.85 414.98 923.72 408.23 925.97 408.23 924.85 414.98"/><polygon class="cls-10" points="924.85 414.98 923.72 408.23 925.97 408.23 924.85 414.98"/></g></g><g class="cls-29"><g class="cls-4"><text class="cls-12" transform="translate(919.98 317.11) rotate(-90)">6&apos;-0&quot;</text></g></g><g class="cls-30"><g class="cls-4"><line class="cls-2" x1="813.96" y1="199.55" x2="870.92" y2="199.55"/><line class="cls-2" x1="870.92" y1="199.55" x2="878.42" y2="199.55"/><line class="cls-2" x1="813.96" y1="319.66" x2="870.92" y2="319.66"/><line class="cls-2" x1="870.92" y1="319.66" x2="878.42" y2="319.66"/><line class="cls-10" x1="870.92" y1="207.06" x2="870.92" y2="312.15"/><polygon points="870.92 200.31 872.05 207.06 869.8 207.06 870.92 200.31"/><polygon class="cls-10" points="870.92 200.31 872.05 207.06 869.8 207.06 870.92 200.31"/><polygon points="870.92 318.9 869.8 312.15 872.05 312.15 870.92 318.9"/><polygon class="cls-10" points="870.92 318.9 869.8 312.15 872.05 312.15 870.92 318.9"/></g></g><g class="cls-31"><g class="cls-4"><text class="cls-12" transform="translate(866.06 269.07) rotate(-90)">3&apos;-4&quot;</text></g></g><text class="cls-32" transform="translate(1130 560.57) rotate(-90)">ISSUE <tspan class="cls-33" x="22.33" y="0">D</tspan><tspan class="cls-34" x="26.75" y="0">A</tspan><tspan x="31.01" y="0">TE</tspan></text><rect class="cls-1" x="1123" y="517.44" width="15" height="45.66"/><text class="cls-32" transform="matrix(0, -1, 1, 0, 1129.5, 377.98)">SITE ADDRESS</text><rect class="cls-1" x="1122.5" y="325.5" width="9" height="55"/><text class="cls-32" transform="matrix(0, -1, 1, 0, 1130, 488.48)"><tspan class="cls-35">O</tspan><tspan x="4.9" y="0">WNER</tspan></text><rect class="cls-1" x="1123" y="460.1" width="9" height="30.89"/><text class="cls-36" transform="translate(1161.89 267.35) rotate(-90)">This work is licensed under a Creative Commons </text><text class="cls-36" transform="translate(1168.09 267.35) rotate(-90)">Attribution- ShareAlike 4.0 International License</text><text class="cls-36" transform="translate(1174.28 267.35) rotate(-90)">http://creativecommons.org/licenses/by-sa/4.0/</text><rect class="cls-1" x="1156.89" y="118.91" width="20.45" height="150.93"/><path class="cls-37" d="M1123,265.14l.1-56.68c0-.79-.12-1.5,1.58-1.5l18.67.07v59.54H1124.6c-.84,0-1.61-.08-1.61-1.43" transform="translate(0.5 0.5)"/><path class="cls-38" d="M1132.54,249.58a6.82,6.82,0,0,1,0,13.64h0a6.82,6.82,0,0,1,0-13.64h0" transform="translate(0.5 0.5)"/><path d="M1131.78,253a.93.93,0,0,0-.64.86q0,1.05,1.39,1.06t1.39-1.05a1,1,0,0,0-.68-1l.51-1a2.21,2.21,0,0,1,1.21,2,2.25,2.25,0,0,1-.65,1.69,2.79,2.79,0,0,1-3.55,0,2.41,2.41,0,0,1,.48-3.7l.53,1.05m0,4.5a.94.94,0,0,0-.64.88q0,1,1.39,1t1.39-1a1,1,0,0,0-.68-1l.51-1a2.21,2.21,0,0,1,1.21,2,2.26,2.26,0,0,1-.65,1.69,2.43,2.43,0,0,1-1.78.63,2.4,2.4,0,0,1-1.77-.65,2.21,2.21,0,0,1-.66-1.63,2.17,2.17,0,0,1,1.14-2.07Zm-3.77,3.36a6.24,6.24,0,0,0,4.54,1.92,6.48,6.48,0,0,0,6.4-6.42,6.26,6.26,0,0,0-1.92-4.56,6,6,0,0,0-4.48-1.84,6.38,6.38,0,0,0-6.41,6.4A6.05,6.05,0,0,0,1128,260.89Zm-1-10a7.55,7.55,0,0,1,5.55-2.27,7.42,7.42,0,0,1,5.49,2.23,7.7,7.7,0,0,1,2.33,5.59,7.88,7.88,0,0,1-7.82,7.8,7.65,7.65,0,0,1-5.55-2.31,7.44,7.44,0,0,1-2.27-5.49A7.54,7.54,0,0,1,1127,250.86Z" transform="translate(0.5 0.5)"/><path d="M1123.26,265.72V208a.62.62,0,0,1,.62-.62h13.62v41.28a8.88,8.88,0,0,1,0,15.55v2.16h-13.62a.62.62,0,0,1-.62-.62m-.51-57.75v57.75a1.12,1.12,0,0,0,1.12,1.12h19.62a.25.25,0,0,0,.25-.25V207.1a.25.25,0,0,0-.25-.25h-19.62A1.12,1.12,0,0,0,1122.75,208Z" transform="translate(0.5 0.5)"/><path class="cls-38" d="M1141.62,223.71a.53.53,0,0,0,.19-.16.69.69,0,0,0,.11-.23,1.07,1.07,0,0,0,0-.28,1.42,1.42,0,0,0,0-.21.69.69,0,0,0-.06-.21.44.44,0,0,0-.13-.16.32.32,0,0,0-.21-.07.29.29,0,0,0-.22.09.68.68,0,0,0-.14.22,2.14,2.14,0,0,0-.1.31c0,.12-.06.24-.09.36a3.16,3.16,0,0,1-.11.36,1.26,1.26,0,0,1-.17.31.78.78,0,0,1-.65.31.87.87,0,0,1-.44-.11,1,1,0,0,1-.31-.29,1.21,1.21,0,0,1-.19-.4,1.69,1.69,0,0,1-.06-.44,2.09,2.09,0,0,1,.06-.5,1.24,1.24,0,0,1,.19-.42.94.94,0,0,1,.33-.29,1,1,0,0,1,.49-.11v.71a.6.6,0,0,0-.25.06.42.42,0,0,0-.15.14.59.59,0,0,0-.08.2,1.19,1.19,0,0,0,0,.25.86.86,0,0,0,0,.17.45.45,0,0,0,.07.16.39.39,0,0,0,.12.12.32.32,0,0,0,.18,0,.3.3,0,0,0,.16,0,.34.34,0,0,0,.11-.15,2,2,0,0,0,.1-.3l.13-.5c0-.06,0-.15.07-.26a1.25,1.25,0,0,1,.16-.33,1,1,0,0,1,.29-.28.81.81,0,0,1,.46-.12,1,1,0,0,1,.42.09.92.92,0,0,1,.34.26,1.25,1.25,0,0,1,.22.43,2,2,0,0,1,.08.6,2.09,2.09,0,0,1-.07.53,1.35,1.35,0,0,1-.21.45,1,1,0,0,1-.37.31,1.1,1.1,0,0,1-.53.11v-.71a.61.61,0,0,0,.28-.06" transform="translate(0.5 0.5)"/><path class="cls-38" d="M1141.15,219.57l-1.21.42h0l1.21.43v-.86m-2,0,3.31-1.24v.76l-.74.25v1.24l.74.26v.73l-3.31-1.25Z" transform="translate(0.5 0.5)"/><path class="cls-38" d="M1141.87,236.9a1,1,0,0,0,0-.2.51.51,0,0,0-.07-.17.36.36,0,0,0-.13-.12.45.45,0,0,0-.21,0,.43.43,0,0,0-.36.14.62.62,0,0,0-.11.38v.79h.91v-.78m-1.41,0a.53.53,0,0,0-.09-.32.35.35,0,0,0-.3-.12.38.38,0,0,0-.19,0,.31.31,0,0,0-.12.11.49.49,0,0,0-.06.16,1.15,1.15,0,0,0,0,.19v.68h.77Zm-1.34-.09a2.05,2.05,0,0,1,0-.43.94.94,0,0,1,.14-.33.64.64,0,0,1,.25-.22.88.88,0,0,1,.39-.08.72.72,0,0,1,.42.11.82.82,0,0,1,.27.34.8.8,0,0,1,.31-.46.92.92,0,0,1,.53-.15.91.91,0,0,1,.43.1.84.84,0,0,1,.3.26,1.17,1.17,0,0,1,.17.38,1.71,1.71,0,0,1,.05.43v1.61h-3.31Z" transform="translate(0.5 0.5)"/><polyline class="cls-38" points="1139.62 236 1139.62 235.18 1140.93 234.41 1139.62 233.64 1139.62 232.83 1141.66 234.05 1142.93 234.05 1142.93 234.78 1141.64 234.78 1139.62 236"/><path class="cls-38" d="M1130.24,215.64a5.29,5.29,0,0,1,0,10.59h0a5.29,5.29,0,0,1,0-10.59h0" transform="translate(0.5 0.5)"/><path d="M1125.49,221a4.75,4.75,0,0,1,4.75-4.75,4.42,4.42,0,0,1,3.32,1.36A4.65,4.65,0,0,1,1135,221a4.72,4.72,0,0,1-8.1,3.34,4.5,4.5,0,0,1-1.39-3.34m-1,0a5.53,5.53,0,0,0,1.68,4.08,5.67,5.67,0,0,0,4.12,1.71A5.84,5.84,0,0,0,1136,221a5.73,5.73,0,0,0-1.72-4.15,5.5,5.5,0,0,0-4.07-1.65,5.75,5.75,0,0,0-5.8,5.81Z" transform="translate(0.5 0.5)"/><path d="M1129.42,223.54a2.47,2.47,0,0,1-2.24-2.55,2.9,2.9,0,0,1,3.13-3,3,3,0,0,1,3.1,3,2.48,2.48,0,0,1-2.27,2.56v-1.46c.78,0,1.05-.55,1.05-1.27s-.77-1.36-1.93-1.36-1.88.46-1.88,1.33a1.14,1.14,0,0,0,1,1.3v-.43l1.15,1.15-1.15,1.15v-.46" transform="translate(0.5 0.5)"/><path class="cls-38" d="M1125,235.17a5.37,5.37,0,1,1,5.37,5.37,5.37,5.37,0,0,1-5.37-5.37" transform="translate(0.5 0.5)"/><path d="M1128.81,233.61a.37.37,0,0,0-.37.37v2.37a.37.37,0,0,0,.38.37h2.37v-.66H1134v-1.8h-2.81v-.66h-2.37" transform="translate(0.5 0.5)"/><path d="M1126.5,235.17a.81.81,0,1,1,.81.81.81.81,0,0,1-.81-.81" transform="translate(0.5 0.5)"/><path d="M1125.49,235.16a4.75,4.75,0,0,1,4.75-4.75,4.42,4.42,0,0,1,3.32,1.36,4.65,4.65,0,0,1,1.42,3.38,4.81,4.81,0,0,1-4.74,4.76,4.63,4.63,0,0,1-3.36-1.42,4.5,4.5,0,0,1-1.39-3.34m-1,0a5.53,5.53,0,0,0,1.68,4.08,5.67,5.67,0,0,0,4.12,1.71,5.84,5.84,0,0,0,5.8-5.79,5.72,5.72,0,0,0-1.72-4.15,5.5,5.5,0,0,0-4.07-1.65,5.74,5.74,0,0,0-5.8,5.81Z" transform="translate(0.5 0.5)"/><rect class="cls-1" x="1123" y="207.09" width="21.5" height="60.5"/><g class="cls-39"><g class="cls-40"><rect x="1116.5" y="35.52" width="62.99" height="55.34"/></g></g><rect class="cls-41" x="0.5" y="0.5" width="1224" height="792"/></svg>