<svg id="Layer_1" data-name="Layer 1" xmlns="http://www.w3.org/2000/svg" xmlns:xlink="http://www.w3.org/1999/xlink" viewBox="0 0 1225 793"><defs><style>.cls-1,.cls-15,.cls-17,.cls-2,.cls-35{fill:none;}.cls-15,.cls-17,.cls-2{stroke:#000;}.cls-17,.cls-2,.cls-35{stroke-miterlimit:10;}.cls-15,.cls-2{stroke-width:0.5px;}.cls-3{clip-path:url(#clip-path);}.cls-4{clip-path:url(#clip-path-2);}.cls-30,.cls-5{font-size:6px;}.cls-12,.cls-5{font-family:Arial-Black, Arial Black;}.cls-6{letter-spacing:-0.04em;}.cls-7{letter-spacing:-0.07em;}.cls-8{clip-path:url(#clip-path-3);}.cls-9{clip-path:url(#clip-path-5);}.cls-10{letter-spacing:-0.02em;}.cls-11{clip-path:url(#clip-path-7);}.cls-12,.cls-14{font-size:18px;}.cls-13{clip-path:url(#clip-path-9);}.cls-14,.cls-19,.cls-30{font-family:ArialMT, Arial;}.cls-15{stroke-linecap:round;stroke-linejoin:round;}.cls-16{clip-path:url(#clip-path-11);}.cls-17{stroke-width:0.25px;}.cls-18{clip-path:url(#clip-path-13);}.cls-19{font-size:9px;}.cls-20{clip-path:url(#clip-path-15);}.cls-21{clip-path:url(#clip-path-17);}.cls-22{clip-path:url(#clip-path-19);}.cls-23{clip-path:url(#clip-path-21);}.cls-24{clip-path:url(#clip-path-23);}.cls-25{clip-path:url(#clip-path-25);}.cls-26{clip-path:url(#clip-path-27);}.cls-27{clip-path:url(#clip-path-29);}.cls-28{clip-path:url(#clip-path-31);}.cls-29{clip-path:url(#clip-path-33);}.cls-31{fill:#a9b1aa;}.cls-32{fill:#fff;}.cls-33{clip-path:url(#clip-path-35);}.cls-34{clip-path:url(#clip-path-36);}.cls-35{stroke:#b5b5b5;}</style><clipPath id="clip-path" transform="translate(0.5 0.5)"><rect class="cls-1" x="1123.5" y="517.94" width="15" height="45.66"/></clipPath><clipPath id="clip-path-2" transform="translate(0.5 0.5)"><rect class="cls-1" width="1224" height="792"/></clipPath><clipPath id="clip-path-3" transform="translate(0.5 0.5)"><rect class="cls-1" x="1123" y="326" width="9" height="55"/></clipPath><clipPath id="clip-path-5" transform="translate(0.5 0.5)"><rect class="cls-1" x="1123.5" y="460.6" width="9" height="30.89"/></clipPath><clipPath id="clip-path-7" transform="translate(0.5 0.5)"><rect class="cls-1" x="1116" y="736" width="50.01" height="26"/></clipPath><clipPath id="clip-path-9" transform="translate(0.5 0.5)"><rect class="cls-1" x="1126.91" y="623.92" width="41.18" height="96.07"/></clipPath><clipPath id="clip-path-11" transform="translate(0.5 0.5)"><path class="cls-1" d="M291.11,106.3h14.2V96h-14.2ZM270.79,96h54.85v90.25H270.79Z"/></clipPath><clipPath id="clip-path-13" transform="translate(0.5 0.5)"><rect class="cls-1" x="291.11" y="96.01" width="14.2" height="10.29"/></clipPath><clipPath id="clip-path-15" transform="translate(0.5 0.5)"><path class="cls-1" d="M435.39,106.3h23.92V96H435.39ZM299.26,96H595.43v90.25H299.26Z"/></clipPath><clipPath id="clip-path-17" transform="translate(0.5 0.5)"><rect class="cls-1" x="435.39" y="96.01" width="23.92" height="10.29"/></clipPath><clipPath id="clip-path-19" transform="translate(0.5 0.5)"><path class="cls-1" d="M717.08,106.3H741V96H717.08ZM573.42,96H884.66v90.25H573.42Z"/></clipPath><clipPath id="clip-path-21" transform="translate(0.5 0.5)"><rect class="cls-1" x="717.08" y="96.01" width="23.92" height="10.29"/></clipPath><clipPath id="clip-path-23" transform="translate(0.5 0.5)"><path class="cls-1" d="M948.47,270.53V246.61H938.18v23.92Zm-74.81-95.27H962V341.88H873.66Z"/></clipPath><clipPath id="clip-path-25" transform="translate(0.5 0.5)"><rect class="cls-1" x="938.18" y="246.61" width="10.29" height="23.92"/></clipPath><clipPath id="clip-path-27" transform="translate(0.5 0.5)"><path class="cls-1" d="M948.47,415.14V391.22H938.18v23.92Zm-74.81-95.27H962V486.49H873.66Z"/></clipPath><clipPath id="clip-path-29" transform="translate(0.5 0.5)"><rect class="cls-1" x="938.18" y="391.22" width="10.29" height="23.92"/></clipPath><clipPath id="clip-path-31" transform="translate(0.5 0.5)"><path class="cls-1" d="M948.47,559.76V535.84H938.18v23.92Zm-74.81-95.27H962V631.11H873.66Z"/></clipPath><clipPath id="clip-path-33" transform="translate(0.5 0.5)"><rect class="cls-1" x="938.18" y="535.84" width="10.29" height="23.92"/></clipPath><clipPath id="clip-path-35" transform="translate(0.5 0.5)"><path class="cls-1" d="M1150.15,59.37a4.39,4.39,0,0,0,.76-.07c3-.52,5-5.59,4.24-10a10.15,10.15,0,0,0-.26-1.1,8.43,8.43,0,0,1,1.13,3c.79,4.46-1.46,9.56-4.62,10.12A6.57,6.57,0,0,1,1145,58c.65,4.38-2.08,8.72-5.27,9.28a7.78,7.78,0,0,1-6.64-2.62A10.6,10.6,0,0,1,1133,68c-.79,4.46-4.12,7.6-7.44,7-2.37-.42-4.1-2.62-4.61-5.47l.06,0a3.7,3.7,0,0,0,.83.4,5,5,0,0,0,3.61,3.61c3,.52,6-2.66,6.8-7.12a10.8,10.8,0,0,0-.4-5.56c1.42,3.41,4.92,5.38,7.49,4.92,3-.52,5.44-5,4.66-9.42a9.36,9.36,0,0,0-.53-1.85l.12-.1.12.18c0-.08,0-.17,0-.25l.3-.27c1.08,3.26,3.7,5.24,6.16,5.24h0m18.3-12.68a3.54,3.54,0,1,1,3.54,3.54,3.54,3.54,0,0,1-3.54-3.54m-8.58-11.3a27.56,27.56,0,0,0-6.24.76,10,10,0,0,0-8,2.33,9.82,9.82,0,0,0-1.23,1.23q-1.35.73-2.68,1.58a9.33,9.33,0,0,0-7.37,4.52,8.11,8.11,0,0,0-.57,1.19,9.91,9.91,0,0,0-6,3.64,10.73,10.73,0,0,0-2.46,5.14,10.61,10.61,0,0,0-4.42,4,10.18,10.18,0,0,0-1.78,6.4,9.8,9.8,0,0,0-2.74,6.65c-.24,4.52,2,8.31,5,8.47,1.85.1,3.56-1.2,4.66-3.27q.27.38.58.74a13.63,13.63,0,0,0,6.36,4.18c-.15,3.51,1.34,6.45,3.78,7a3.72,3.72,0,0,0,.82.1h0c2.65,0,5.32-2.79,6.28-6.7q.72-.13,1.44-.31a4.8,4.8,0,0,0,3.42,3.1c3,.52,6-2.66,6.8-7.12l0-.16q.74-.43,1.47-.9a5.23,5.23,0,0,0,4.72,2c3-.52,5.44-5,4.66-9.42,0-.14-.05-.27-.08-.41l.67-.77a5.78,5.78,0,0,0,5.14,2.08c3-.52,5-5.59,4.24-10a9.55,9.55,0,0,0-.53-1.89c3.22-4.38,3.77-12.19.65-17.59-2.48-4.3-7.12-6-11.53-5.82a20.08,20.08,0,0,0-5.15-.64h0"/></clipPath><clipPath id="clip-path-36" transform="translate(0.5 0.5)"><rect class="cls-1" x="1116" y="35" width="63" height="55.02"/></clipPath></defs><title>A09</title><rect class="cls-2" x="54.5" y="36.5" width="1053" height="720"/><line class="cls-2" x1="1116.5" y1="729.5" x2="1179.5" y2="729.5"/><g class="cls-3"><g class="cls-4"><text class="cls-5" transform="matrix(0, -1, 1, 0, 1131, 561.6)">ISSUE <tspan class="cls-6" x="22.33" y="0">D</tspan><tspan class="cls-7" x="26.75" y="0">A</tspan><tspan x="31.01" y="0">TE</tspan></text></g></g><g class="cls-8"><g class="cls-4"><text class="cls-5" transform="matrix(0, -1, 1, 0, 1130.5, 379)">SITE ADDRESS</text></g></g><g class="cls-9"><g class="cls-4"><text class="cls-5" transform="matrix(0, -1, 1, 0, 1131, 489.5)"><tspan class="cls-10">O</tspan><tspan x="4.9" y="0">WNER</tspan></text></g></g><g class="cls-11"><g class="cls-4"><text class="cls-12" transform="matrix(1, 0, 0, 1, 1119, 756.5)">A.09</text></g></g><g class="cls-13"><g class="cls-4"><text class="cls-14" transform="matrix(0, -1, 1, 0, 1143.41, 717.99)">Foundation</text><text class="cls-14" transform="matrix(0, -1, 1, 0, 1164, 717.99)">Sheathing</text></g></g><line class="cls-15" x1="301.65" y1="185.71" x2="298.66" y2="184.72"/><line class="cls-15" x1="292.44" y1="185.16" x2="289.63" y2="186.57"/><line class="cls-15" x1="298.66" y1="184.72" x2="295.52" y2="184.53"/><line class="cls-15" x1="286.4" y1="203.3" x2="286.66" y2="203.6"/><line class="cls-15" x1="284.99" y1="200.49" x2="286.4" y2="203.3"/><line class="cls-15" x1="284.36" y1="197.41" x2="284.99" y2="200.49"/><line class="cls-15" x1="284.55" y1="194.27" x2="284.36" y2="197.41"/><line class="cls-15" x1="285.54" y1="191.28" x2="284.55" y2="194.27"/><line class="cls-15" x1="286.66" y1="189.59" x2="285.54" y2="191.28"/><line class="cls-15" x1="289.63" y1="186.57" x2="289.41" y2="186.76"/><line class="cls-15" x1="295.52" y1="184.53" x2="292.44" y2="185.16"/><line class="cls-15" x1="303.23" y1="186.76" x2="301.65" y2="185.71"/><line class="cls-15" x1="289.53" y1="620.6" x2="291.11" y2="621.65"/><line class="cls-15" x1="286.4" y1="617.56" x2="286.66" y2="617.86"/><line class="cls-15" x1="303.13" y1="620.79" x2="303.35" y2="620.6"/><line class="cls-15" x1="300.32" y1="622.2" x2="303.13" y2="620.79"/><line class="cls-15" x1="297.24" y1="622.83" x2="300.32" y2="622.2"/><line class="cls-15" x1="294.1" y1="622.65" x2="297.24" y2="622.83"/><line class="cls-15" x1="291.11" y1="621.65" x2="294.1" y2="622.65"/><line class="cls-15" x1="284.99" y1="614.75" x2="286.4" y2="617.56"/><line class="cls-15" x1="284.36" y1="611.67" x2="284.99" y2="614.75"/><line class="cls-15" x1="284.55" y1="608.53" x2="284.36" y2="611.67"/><line class="cls-15" x1="285.54" y1="605.54" x2="284.55" y2="608.53"/><line class="cls-15" x1="286.66" y1="603.85" x2="285.54" y2="605.54"/><line class="cls-15" x1="857.44" y1="620.6" x2="859.02" y2="621.65"/><line class="cls-15" x1="874.28" y1="604.06" x2="874.16" y2="603.93"/><line class="cls-15" x1="875.68" y1="606.87" x2="874.28" y2="604.06"/><line class="cls-15" x1="876.31" y1="609.96" x2="875.68" y2="606.87"/><line class="cls-15" x1="876.13" y1="613.1" x2="876.31" y2="609.96"/><line class="cls-15" x1="875.13" y1="616.08" x2="876.13" y2="613.1"/><line class="cls-15" x1="874.16" y1="617.55" x2="875.13" y2="616.08"/><line class="cls-15" x1="871.05" y1="620.79" x2="871.26" y2="620.6"/><line class="cls-15" x1="868.23" y1="622.2" x2="871.05" y2="620.79"/><line class="cls-15" x1="865.15" y1="622.83" x2="868.23" y2="622.2"/><line class="cls-15" x1="862.01" y1="622.65" x2="865.15" y2="622.83"/><line class="cls-15" x1="859.02" y1="621.65" x2="862.01" y2="622.65"/><line class="cls-15" x1="869.56" y1="185.71" x2="866.58" y2="184.72"/><line class="cls-15" x1="860.35" y1="185.16" x2="857.54" y2="186.57"/><line class="cls-15" x1="866.58" y1="184.72" x2="863.44" y2="184.53"/><line class="cls-15" x1="874.28" y1="189.8" x2="874.16" y2="189.67"/><line class="cls-15" x1="875.68" y1="192.61" x2="874.28" y2="189.8"/><line class="cls-15" x1="876.31" y1="195.7" x2="875.68" y2="192.61"/><line class="cls-15" x1="876.13" y1="198.84" x2="876.31" y2="195.7"/><line class="cls-15" x1="875.13" y1="201.82" x2="876.13" y2="198.84"/><line class="cls-15" x1="874.16" y1="203.3" x2="875.13" y2="201.82"/><line class="cls-15" x1="857.54" y1="186.57" x2="857.33" y2="186.76"/><line class="cls-15" x1="863.44" y1="184.53" x2="860.35" y2="185.16"/><line class="cls-15" x1="871.15" y1="186.76" x2="869.56" y2="185.71"/><polyline class="cls-15" points="915.96 144.96 244.86 144.96 244.86 662.41 915.96 662.41 915.96 144.96"/><line class="cls-15" x1="584.93" y1="475.99" x2="874.16" y2="475.99"/><line class="cls-15" x1="584.93" y1="620.6" x2="584.93" y2="475.99"/><polyline class="cls-15" points="584.93 331.38 874.16 331.38 874.16 475.99"/><line class="cls-15" x1="584.93" y1="475.99" x2="584.93" y2="331.38"/><line class="cls-15" x1="584.93" y1="620.6" x2="310.77" y2="620.6"/><line class="cls-15" x1="310.77" y1="475.99" x2="584.93" y2="475.99"/><line class="cls-15" x1="310.77" y1="620.6" x2="310.77" y2="475.99"/><line class="cls-15" x1="310.77" y1="331.38" x2="584.93" y2="331.38"/><line class="cls-15" x1="310.77" y1="475.99" x2="310.77" y2="331.38"/><polyline class="cls-15" points="310.76 186.76 584.93 186.76 584.93 331.38"/><line class="cls-15" x1="310.77" y1="331.38" x2="310.77" y2="186.76"/><line class="cls-15" x1="286.66" y1="475.99" x2="310.77" y2="475.99"/><line class="cls-15" x1="286.66" y1="331.38" x2="310.77" y2="331.38"/><line class="cls-15" x1="286.66" y1="475.99" x2="286.66" y2="331.38"/><line class="cls-15" x1="289.41" y1="186.76" x2="286.66" y2="186.76"/><line class="cls-15" x1="286.66" y1="620.6" x2="289.53" y2="620.6"/><line class="cls-15" x1="874.16" y1="186.76" x2="871.15" y2="186.76"/><polyline class="cls-15" points="871.26 620.6 874.16 620.6 874.16 617.55"/><line class="cls-15" x1="857.44" y1="620.6" x2="584.93" y2="620.6"/><line class="cls-15" x1="286.66" y1="620.6" x2="286.66" y2="617.86"/><line class="cls-15" x1="286.66" y1="331.38" x2="286.66" y2="203.6"/><line class="cls-15" x1="584.93" y1="186.76" x2="857.33" y2="186.76"/><line class="cls-15" x1="874.16" y1="186.76" x2="874.16" y2="189.67"/><polyline class="cls-15" points="286.66 186.76 286.66 189.59 286.66 203.6"/><line class="cls-15" x1="874.16" y1="617.55" x2="874.16" y2="603.93"/><line class="cls-15" x1="874.16" y1="475.99" x2="874.16" y2="603.93"/><polyline class="cls-15" points="286.66 617.86 286.66 603.85 286.66 475.99"/><polyline class="cls-15" points="874.16 189.67 874.16 203.29 874.16 331.38"/><line class="cls-15" x1="310.77" y1="186.76" x2="303.23" y2="186.76"/><line class="cls-15" x1="310.77" y1="620.6" x2="303.35" y2="620.6"/><line class="cls-15" x1="289.41" y1="186.76" x2="303.23" y2="186.76"/><line class="cls-15" x1="289.53" y1="620.6" x2="303.35" y2="620.6"/><line class="cls-15" x1="871.15" y1="186.76" x2="857.33" y2="186.76"/><line class="cls-15" x1="871.26" y1="620.6" x2="857.44" y2="620.6"/><g class="cls-16"><g class="cls-4"><line class="cls-2" x1="286.66" y1="177.76" x2="286.66" y2="109.38"/><line class="cls-2" x1="286.66" y1="109.38" x2="286.66" y2="101.88"/><line class="cls-2" x1="310.77" y1="177.76" x2="310.77" y2="109.38"/><line class="cls-2" x1="310.77" y1="109.38" x2="310.77" y2="101.88"/><line class="cls-17" x1="279.15" y1="109.38" x2="271.64" y2="109.38"/><polygon points="285.9 109.38 279.15 110.5 279.15 108.25 285.9 109.38"/><polygon class="cls-17" points="285.9 109.38 279.15 110.5 279.15 108.25 285.9 109.38"/><line class="cls-17" x1="325.79" y1="109.38" x2="318.28" y2="109.38"/><polygon points="311.53 109.38 318.28 108.25 318.28 110.5 311.53 109.38"/><polygon class="cls-17" points="311.53 109.38 318.28 108.25 318.28 110.5 311.53 109.38"/></g></g><g class="cls-18"><g class="cls-4"><text class="cls-19" transform="translate(294.11 104.51)">8&quot;</text></g></g><g class="cls-20"><g class="cls-4"><line class="cls-2" x1="310.77" y1="177.76" x2="310.77" y2="109.38"/><line class="cls-2" x1="310.77" y1="109.38" x2="310.77" y2="101.88"/><line class="cls-2" x1="584.93" y1="177.76" x2="584.93" y2="109.38"/><line class="cls-2" x1="584.93" y1="109.38" x2="584.93" y2="101.88"/><line class="cls-17" x1="318.28" y1="109.38" x2="577.42" y2="109.38"/><polygon points="311.53 109.38 318.28 108.25 318.28 110.5 311.53 109.38"/><polygon class="cls-17" points="311.53 109.38 318.28 108.25 318.28 110.5 311.53 109.38"/><polygon points="584.17 109.38 577.42 110.5 577.42 108.25 584.17 109.38"/><polygon class="cls-17" points="584.17 109.38 577.42 110.5 577.42 108.25 584.17 109.38"/></g></g><g class="cls-21"><g class="cls-4"><text class="cls-19" transform="translate(438.39 104.51)">7&apos;-7&quot;</text></g></g><g class="cls-22"><g class="cls-4"><line class="cls-2" x1="584.93" y1="177.76" x2="584.93" y2="109.38"/><line class="cls-2" x1="584.93" y1="109.38" x2="584.93" y2="101.88"/><line class="cls-2" x1="874.16" y1="177.76" x2="874.16" y2="109.38"/><line class="cls-2" x1="874.16" y1="109.38" x2="874.16" y2="101.88"/><line class="cls-17" x1="592.44" y1="109.38" x2="866.65" y2="109.38"/><polygon points="585.69 109.38 592.44 108.25 592.44 110.5 585.69 109.38"/><polygon class="cls-17" points="585.69 109.38 592.44 108.25 592.44 110.5 585.69 109.38"/><polygon points="873.4 109.38 866.65 110.5 866.65 108.25 873.4 109.38"/><polygon class="cls-17" points="873.4 109.38 866.65 110.5 866.65 108.25 873.4 109.38"/></g></g><g class="cls-23"><g class="cls-4"><text class="cls-19" transform="translate(720.08 104.51)">8&apos;-0&quot;</text></g></g><g class="cls-24"><g class="cls-4"><line class="cls-2" x1="883.16" y1="186.76" x2="951.54" y2="186.76"/><line class="cls-2" x1="951.54" y1="186.76" x2="959.04" y2="186.76"/><line class="cls-2" x1="883.16" y1="331.38" x2="951.54" y2="331.38"/><line class="cls-2" x1="951.54" y1="331.38" x2="959.04" y2="331.38"/><line class="cls-17" x1="951.54" y1="194.27" x2="951.54" y2="323.87"/><polygon points="951.54 187.52 952.67 194.27 950.42 194.27 951.54 187.52"/><polygon class="cls-17" points="951.54 187.52 952.67 194.27 950.42 194.27 951.54 187.52"/><polygon points="951.54 330.62 950.42 323.87 952.67 323.87 951.54 330.62"/><polygon class="cls-17" points="951.54 330.62 950.42 323.87 952.67 323.87 951.54 330.62"/></g></g><g class="cls-25"><g class="cls-4"><text class="cls-19" transform="translate(946.68 268.53) rotate(-90)">4&apos;-0&quot;</text></g></g><g class="cls-26"><g class="cls-4"><line class="cls-2" x1="883.16" y1="331.38" x2="951.54" y2="331.38"/><line class="cls-2" x1="951.54" y1="331.38" x2="959.04" y2="331.38"/><line class="cls-2" x1="883.16" y1="475.99" x2="951.54" y2="475.99"/><line class="cls-2" x1="951.54" y1="475.99" x2="959.04" y2="475.99"/><line class="cls-17" x1="951.54" y1="338.89" x2="951.54" y2="468.48"/><polygon points="951.54 332.14 952.67 338.89 950.42 338.89 951.54 332.14"/><polygon class="cls-17" points="951.54 332.14 952.67 338.89 950.42 338.89 951.54 332.14"/><polygon points="951.54 475.23 950.42 468.48 952.67 468.48 951.54 475.23"/><polygon class="cls-17" points="951.54 475.23 950.42 468.48 952.67 468.48 951.54 475.23"/></g></g><g class="cls-27"><g class="cls-4"><text class="cls-19" transform="translate(946.68 413.14) rotate(-90)">4&apos;-0&quot;</text></g></g><g class="cls-28"><g class="cls-4"><line class="cls-2" x1="883.16" y1="475.99" x2="951.54" y2="475.99"/><line class="cls-2" x1="951.54" y1="475.99" x2="959.04" y2="475.99"/><line class="cls-2" x1="883.16" y1="620.6" x2="951.54" y2="620.6"/><line class="cls-2" x1="951.54" y1="620.6" x2="959.04" y2="620.6"/><line class="cls-17" x1="951.54" y1="483.5" x2="951.54" y2="613.09"/><polygon points="951.54 476.75 952.67 483.5 950.42 483.5 951.54 476.75"/><polygon class="cls-17" points="951.54 476.75 952.67 483.5 950.42 483.5 951.54 476.75"/><polygon points="951.54 619.84 950.42 613.09 952.67 613.09 951.54 619.84"/><polygon class="cls-17" points="951.54 619.84 950.42 613.09 952.67 613.09 951.54 619.84"/></g></g><g class="cls-29"><g class="cls-4"><text class="cls-19" transform="translate(946.68 557.76) rotate(-90)">4&apos;-0&quot;</text></g></g><text class="cls-30" transform="translate(1161.89 267.35) rotate(-90)">This work is licensed under a Creative Commons </text><text class="cls-30" transform="translate(1168.09 267.35) rotate(-90)">Attribution- ShareAlike 4.0 International License</text><text class="cls-30" transform="translate(1174.28 267.35) rotate(-90)">http://creativecommons.org/licenses/by-sa/4.0/</text><rect class="cls-1" x="1156.89" y="118.91" width="20.45" height="150.93"/><path class="cls-31" d="M1123,265.14l.1-56.68c0-.79-.12-1.5,1.58-1.5l18.67.07v59.54H1124.6c-.84,0-1.61-.08-1.61-1.43" transform="translate(0.5 0.5)"/><path class="cls-32" d="M1132.54,249.58a6.82,6.82,0,0,1,0,13.64h0a6.82,6.82,0,0,1,0-13.64h0" transform="translate(0.5 0.5)"/><path d="M1131.78,253a.93.93,0,0,0-.64.86q0,1.05,1.39,1.06t1.39-1.05a1,1,0,0,0-.68-1l.51-1a2.21,2.21,0,0,1,1.21,2,2.25,2.25,0,0,1-.65,1.69,2.79,2.79,0,0,1-3.55,0,2.41,2.41,0,0,1,.48-3.7l.53,1.05m0,4.5a.94.94,0,0,0-.64.88q0,1,1.39,1t1.39-1a1,1,0,0,0-.68-1l.51-1a2.21,2.21,0,0,1,1.21,2,2.26,2.26,0,0,1-.65,1.69,2.43,2.43,0,0,1-1.78.63,2.4,2.4,0,0,1-1.77-.65,2.21,2.21,0,0,1-.66-1.63,2.17,2.17,0,0,1,1.14-2.07Zm-3.77,3.36a6.24,6.24,0,0,0,4.54,1.92,6.48,6.48,0,0,0,6.4-6.42,6.26,6.26,0,0,0-1.92-4.56,6,6,0,0,0-4.48-1.84,6.38,6.38,0,0,0-6.41,6.4A6.05,6.05,0,0,0,1128,260.89Zm-1-10a7.55,7.55,0,0,1,5.55-2.27,7.42,7.42,0,0,1,5.49,2.23,7.7,7.7,0,0,1,2.33,5.59,7.88,7.88,0,0,1-7.82,7.8,7.65,7.65,0,0,1-5.55-2.31,7.44,7.44,0,0,1-2.27-5.49A7.54,7.54,0,0,1,1127,250.86Z" transform="translate(0.5 0.5)"/><path d="M1123.26,265.72V208a.62.62,0,0,1,.62-.62h13.62v41.28a8.88,8.88,0,0,1,0,15.55v2.16h-13.62a.62.62,0,0,1-.62-.62m-.51-57.75v57.75a1.12,1.12,0,0,0,1.12,1.12h19.62a.25.25,0,0,0,.25-.25V207.1a.25.25,0,0,0-.25-.25h-19.62A1.12,1.12,0,0,0,1122.75,208Z" transform="translate(0.5 0.5)"/><path class="cls-32" d="M1141.62,223.71a.53.53,0,0,0,.19-.16.69.69,0,0,0,.11-.23,1.07,1.07,0,0,0,0-.28,1.42,1.42,0,0,0,0-.21.69.69,0,0,0-.06-.21.44.44,0,0,0-.13-.16.32.32,0,0,0-.21-.07.29.29,0,0,0-.22.09.68.68,0,0,0-.14.22,2.14,2.14,0,0,0-.1.31c0,.12-.06.24-.09.36a3.16,3.16,0,0,1-.11.36,1.26,1.26,0,0,1-.17.31.78.78,0,0,1-.65.31.87.87,0,0,1-.44-.11,1,1,0,0,1-.31-.29,1.21,1.21,0,0,1-.19-.4,1.69,1.69,0,0,1-.06-.44,2.09,2.09,0,0,1,.06-.5,1.24,1.24,0,0,1,.19-.42.94.94,0,0,1,.33-.29,1,1,0,0,1,.49-.11v.71a.6.6,0,0,0-.25.06.42.42,0,0,0-.15.14.59.59,0,0,0-.08.2,1.19,1.19,0,0,0,0,.25.86.86,0,0,0,0,.17.45.45,0,0,0,.07.16.39.39,0,0,0,.12.12.32.32,0,0,0,.18,0,.3.3,0,0,0,.16,0,.34.34,0,0,0,.11-.15,2,2,0,0,0,.1-.3l.13-.5c0-.06,0-.15.07-.26a1.25,1.25,0,0,1,.16-.33,1,1,0,0,1,.29-.28.81.81,0,0,1,.46-.12,1,1,0,0,1,.42.09.92.92,0,0,1,.34.26,1.25,1.25,0,0,1,.22.43,2,2,0,0,1,.08.6,2.09,2.09,0,0,1-.07.53,1.35,1.35,0,0,1-.21.45,1,1,0,0,1-.37.31,1.1,1.1,0,0,1-.53.11v-.71a.61.61,0,0,0,.28-.06" transform="translate(0.5 0.5)"/><path class="cls-32" d="M1141.15,219.57l-1.21.42h0l1.21.43v-.86m-2,0,3.31-1.24v.76l-.74.25v1.24l.74.26v.73l-3.31-1.25Z" transform="translate(0.5 0.5)"/><path class="cls-32" d="M1141.87,236.9a1,1,0,0,0,0-.2.51.51,0,0,0-.07-.17.36.36,0,0,0-.13-.12.45.45,0,0,0-.21,0,.43.43,0,0,0-.36.14.62.62,0,0,0-.11.38v.79h.91v-.78m-1.41,0a.53.53,0,0,0-.09-.32.35.35,0,0,0-.3-.12.38.38,0,0,0-.19,0,.31.31,0,0,0-.12.11.49.49,0,0,0-.06.16,1.15,1.15,0,0,0,0,.19v.68h.77Zm-1.34-.09a2.05,2.05,0,0,1,0-.43.94.94,0,0,1,.14-.33.64.64,0,0,1,.25-.22.88.88,0,0,1,.39-.08.72.72,0,0,1,.42.11.82.82,0,0,1,.27.34.8.8,0,0,1,.31-.46.92.92,0,0,1,.53-.15.91.91,0,0,1,.43.1.84.84,0,0,1,.3.26,1.17,1.17,0,0,1,.17.38,1.71,1.71,0,0,1,.05.43v1.61h-3.31Z" transform="translate(0.5 0.5)"/><polyline class="cls-32" points="1139.62 236 1139.62 235.18 1140.93 234.41 1139.62 233.64 1139.62 232.83 1141.66 234.05 1142.93 234.05 1142.93 234.78 1141.64 234.78 1139.62 236"/><path class="cls-32" d="M1130.24,215.64a5.29,5.29,0,0,1,0,10.59h0a5.29,5.29,0,0,1,0-10.59h0" transform="translate(0.5 0.5)"/><path d="M1125.49,221a4.75,4.75,0,0,1,4.75-4.75,4.42,4.42,0,0,1,3.32,1.36A4.65,4.65,0,0,1,1135,221a4.72,4.72,0,0,1-8.1,3.34,4.5,4.5,0,0,1-1.39-3.34m-1,0a5.53,5.53,0,0,0,1.68,4.08,5.67,5.67,0,0,0,4.12,1.71A5.84,5.84,0,0,0,1136,221a5.73,5.73,0,0,0-1.72-4.15,5.5,5.5,0,0,0-4.07-1.65,5.75,5.75,0,0,0-5.8,5.81Z" transform="translate(0.5 0.5)"/><path d="M1129.42,223.54a2.47,2.47,0,0,1-2.24-2.55,2.9,2.9,0,0,1,3.13-3,3,3,0,0,1,3.1,3,2.48,2.48,0,0,1-2.27,2.56v-1.46c.78,0,1.05-.55,1.05-1.27s-.77-1.36-1.93-1.36-1.88.46-1.88,1.33a1.14,1.14,0,0,0,1,1.3v-.43l1.15,1.15-1.15,1.15v-.46" transform="translate(0.5 0.5)"/><path class="cls-32" d="M1125,235.17a5.37,5.37,0,1,1,5.37,5.37,5.37,5.37,0,0,1-5.37-5.37" transform="translate(0.5 0.5)"/><path d="M1128.81,233.61a.37.37,0,0,0-.37.37v2.37a.37.37,0,0,0,.38.37h2.37v-.66H1134v-1.8h-2.81v-.66h-2.37" transform="translate(0.5 0.5)"/><path d="M1126.5,235.17a.81.81,0,1,1,.81.81.81.81,0,0,1-.81-.81" transform="translate(0.5 0.5)"/><path d="M1125.49,235.16a4.75,4.75,0,0,1,4.75-4.75,4.42,4.42,0,0,1,3.32,1.36,4.65,4.65,0,0,1,1.42,3.38,4.81,4.81,0,0,1-4.74,4.76,4.63,4.63,0,0,1-3.36-1.42,4.5,4.5,0,0,1-1.39-3.34m-1,0a5.53,5.53,0,0,0,1.68,4.08,5.67,5.67,0,0,0,4.12,1.71,5.84,5.84,0,0,0,5.8-5.79,5.72,5.72,0,0,0-1.72-4.15,5.5,5.5,0,0,0-4.07-1.65,5.74,5.74,0,0,0-5.8,5.81Z" transform="translate(0.5 0.5)"/><rect class="cls-1" x="1123" y="207.09" width="21.5" height="60.5"/><g class="cls-33"><g class="cls-34"><rect x="1116.5" y="35.52" width="62.99" height="55.34"/></g></g><rect class="cls-35" x="0.5" y="0.5" width="1224" height="792"/></svg>