<?xml version="1.0" encoding="UTF-8" standalone="no"?>
<!DOCTYPE svg PUBLIC "-//W3C//DTD SVG 1.1//EN"
"http://www.w3.org/Graphics/SVG/1.1/DTD/svg11.dtd">


<!-- Page 1 -->
<svg x="0" y="0" viewBox="0 0 1870 1210" version="1.1" xmlns="http://www.w3.org/2000/svg" xmlns:xlink="http://www.w3.org/1999/xlink"
style="display: block;margin-left: auto;margin-right: auto;">
<defs>
<clipPath id="c0_1"><path d="M1739.4,861.1l-22.9,0l0,-69.8l22.9,0l0,69.8Z" /></clipPath>
<clipPath id="c1_1"><path d="M1715.7,582.1l0,-84l13.7,0l0,84l-13.7,0Z" /></clipPath>
<clipPath id="c2_1"><path d="M1716.5,750.9l0,-47.2l13.7,0l0,47.2l-13.7,0Z" /></clipPath>
<clipPath id="c3_1"><path d="M1705,1164.2l0,-39.8l76.4,0l0,39.8l-76.4,0Z" /></clipPath>
<clipPath id="c4_1"><path d="M1768.2,413l0,-230.6l31.3,0l0,230.6Z" /></clipPath>
<clipPath id="c5_1"><path d="M1784.6,1100l-62.9,0l0,-146.8l62.9,0l0,146.8Z" /></clipPath>
<clipPath id="c6_1"><path d="M1719.3,408.6c-1.3,0,-2.5,-0.2,-2.5,-2.2l0.2,-86.6c0,-1.2,-0.2,-2.3,2.4,-2.3l28.5,0.1l0,91Z" /></clipPath>
<clipPath id="c7_1"><path d="M1731.4,403.4c-5.7,0,-10.4,-4.6,-10.4,-10.4c0,-5.7,4.7,-10.4,10.4,-10.4c5.8,0,10.4,4.7,10.4,10.4c0,5.8,-4.6,10.4,-10.4,10.4Z" /></clipPath>
<clipPath id="c8_1"><path d="M1731.6,399.5c-0.1,0,-0.1,-0.1,-0.2,-0.1c-0.1,0,-0.1,0,-0.2,0c-0.9,0,-1.8,-0.3,-2.5,-0.9c-0.7,-0.7,-1.1,-1.6,-1,-2.5c-0.1,-1.3,0.6,-2.6,1.7,-3.2l0.8,1.8c-0.5,0.1,-0.9,0.7,-0.9,1.3c0,1,0.7,1.5,2.1,1.5c1.4,0,2.1,-0.5,2.1,-1.5c0,-0.7,-0.4,-1.3,-1,-1.5l0.7,-1.6c1.2,0.6,1.9,1.8,1.9,3.1c0,1,-0.3,1.9,-1,2.6c-0.7,0.6,-1.6,1,-2.5,1Zm-0.2,-6.8c-1,0,-1.9,-0.3,-2.7,-1c-0.8,-0.8,-1.1,-1.9,-1,-3c0.2,-1.1,0.8,-2,1.7,-2.6l0.8,1.6l0.1,0.1c-0.6,0.2,-1,0.7,-1,1.3c0,1.1,0.7,1.6,2.1,1.7c1.4,0,2.1,-0.6,2.1,-1.7c0.1,-0.6,-0.4,-1.3,-1,-1.5l0.8,-1.5c1.1,0.6,1.8,1.8,1.8,3c0.1,1,-0.3,1.9,-1,2.6c-0.8,0.7,-1.7,1,-2.7,1Zm0,9.9c5.4,0,9.7,-4.4,9.8,-9.8c0,-2.6,-1,-5.1,-2.9,-7c-1.8,-1.8,-4.2,-2.8,-6.6,-2.8c-0.1,0,-0.2,0,-0.3,0c-2.6,0,-5.1,1.1,-6.9,2.9c-1.9,1.8,-2.9,4.3,-2.9,6.9c-0.1,2.7,1,5.2,2.9,7.1l0,-0.2c1.8,1.9,4.3,2.9,6.9,2.9Zm-0.1,2.2c-3.1,0,-6.1,-1.3,-8.3,-3.5c-2.3,-2.2,-3.6,-5.3,-3.5,-8.4c0,-3.1,1.2,-6.2,3.5,-8.4l0,-0.1c2.1,-2.2,5.1,-3.5,8.2,-3.5c0.1,0,0.2,0,0.2,0c0.1,0,0.2,0,0.3,0c3.1,0,6,1.3,8.1,3.5c2.3,2.2,3.6,5.3,3.6,8.5c-0.1,6.6,-5.4,11.9,-12,11.9l-0.1,0Z" /></clipPath>
<clipPath id="c9_1"><path d="M1739,408.2l0,-3.3c4.3,-2.3,7,-6.9,7,-11.8c0,-5,-2.7,-9.5,-7,-11.9l0,-63.1l-20.8,0c-0.5,0,-1,0.4,-1,1l0,88.2c0,0.5,0.5,0.9,1,0.9Zm-20.8,0.8c-1,0,-1.7,-0.8,-1.7,-1.7l0,-88.2c-0.1,-0.5,0.1,-0.9,0.4,-1.3c0.4,-0.3,0.8,-0.5,1.3,-0.5l29.9,0c0.3,0,0.4,0.2,0.4,0.4l0,90.9c0,0.2,-0.1,0.4,-0.4,0.4Z" /></clipPath>
<clipPath id="c10_1"><path d="M1745,344.2c-0.1,0,-0.1,0,-0.1,0l0,-1.1c0.2,0,0.3,0,0.4,-0.1l0,0.1c0.1,-0.1,0.2,-0.2,0.3,-0.3c0.1,-0.1,0.1,-0.2,0.1,-0.3c0.1,-0.2,0.1,-0.3,0,-0.5c0.1,-0.1,0.1,-0.2,0,-0.3c0,-0.1,0,-0.2,0,-0.3c-0.1,-0.1,-0.2,-0.2,-0.2,-0.2c-0.1,-0.1,-0.2,-0.1,-0.4,-0.1c-0.1,0,-0.2,0,-0.3,0.1c-0.1,0.1,-0.2,0.2,-0.2,0.3c-0.1,0.2,-0.1,0.3,-0.2,0.5c0,0.2,-0.1,0.4,-0.1,0.6c0,0.1,-0.1,0.3,-0.2,0.5c0,0.2,-0.1,0.3,-0.2,0.5c-0.3,0.3,-0.6,0.4,-1,0.4l-0.1,0c-0.2,0,-0.4,0,-0.6,-0.1c-0.2,-0.1,-0.3,-0.3,-0.5,-0.5c-0.1,-0.1,-0.2,-0.4,-0.3,-0.6c0,-0.2,-0.1,-0.4,-0.1,-0.6c0,-0.3,0.1,-0.6,0.1,-0.8c0.1,-0.2,0.2,-0.5,0.3,-0.7c0.2,-0.1,0.3,-0.3,0.5,-0.4c0.2,-0.1,0.5,-0.2,0.7,-0.2c0,0,0.1,0,0.1,0l0,1.1c-0.2,0,-0.3,0.1,-0.4,0.1c-0.1,0.1,-0.2,0.1,-0.2,0.2c-0.1,0.1,-0.1,0.2,-0.2,0.3c0,0.2,0,0.3,0,0.4c0,0.1,0,0.2,0,0.3c0.1,0.1,0.1,0.1,0.2,0.2c0,0.1,0.1,0.2,0.1,0.2c0.1,0,0.1,0,0.2,0c0,0,0.1,0,0.1,0c0.1,0,0.1,0,0.1,0c0.1,0,0.1,0,0.2,0c0,-0.1,0.1,-0.1,0.1,-0.2c0.1,-0.2,0.1,-0.3,0.2,-0.5l0.2,-0.7c0,-0.1,0,-0.3,0.1,-0.4c0,-0.2,0.1,-0.4,0.2,-0.6c0.1,-0.1,0.3,-0.3,0.5,-0.4c0.2,-0.1,0.4,-0.2,0.6,-0.2c0,0,0.1,0,0.1,0c0.2,0,0.4,0.1,0.6,0.2c0.2,0.1,0.4,0.2,0.5,0.4c0.2,0.2,0.3,0.4,0.4,0.6c0.1,0.3,0.1,0.6,0.1,0.9c0,0.3,0,0.6,-0.1,0.9c-0.1,0.2,-0.2,0.4,-0.3,0.6c-0.2,0.2,-0.4,0.4,-0.6,0.5c-0.2,0.1,-0.5,0.2,-0.7,0.2Z" /></clipPath>
<clipPath id="c11_1"><path d="M1744.6,338l0,-1.3l-1.9,0.7l1.9,0.6Zm2,1.8l-5.1,-1.9l0,-1.2l5.1,-1.9l0,1.2l-1.2,0.4l0,1.9l1.2,0.4l0,1.1Z" /></clipPath>
<clipPath id="c12_1"><path d="M1743.6,364.4l0,-1.1c0,-0.2,-0.1,-0.4,-0.2,-0.5c-0.1,-0.1,-0.2,-0.2,-0.4,-0.2c-0.1,0,-0.1,0,-0.2,0c0,0,-0.1,0,-0.1,0c-0.1,0,-0.2,0.1,-0.2,0.2c-0.1,0.1,-0.1,0.1,-0.1,0.2c0,0.1,0,0.2,0,0.3l0,1.1Zm2.1,0.1l0,-1.2l0,-0.1c0,-0.1,0,-0.2,0,-0.3c-0.1,-0.1,-0.1,-0.2,-0.1,-0.2c-0.1,-0.1,-0.2,-0.2,-0.2,-0.2c-0.1,0,-0.1,0,-0.2,0c-0.1,0,-0.1,0,-0.2,0c-0.2,0,-0.4,0,-0.5,0.2c-0.1,0.2,-0.2,0.4,-0.2,0.6l0,1.2Zm-4.3,1l0.1,-2.4c0,-0.2,0,-0.4,0,-0.6c0.1,-0.2,0.1,-0.4,0.2,-0.5c0.1,-0.2,0.3,-0.3,0.4,-0.4c0.2,0,0.4,-0.1,0.6,-0.1l0.1,0c0.2,0,0.4,0.1,0.5,0.2c0.2,0.1,0.4,0.3,0.5,0.5c0,-0.3,0.2,-0.5,0.4,-0.7c0.3,-0.1,0.5,-0.2,0.8,-0.2c0,0,0.1,0,0.1,0c0.2,0,0.4,0,0.6,0.1c0.2,0.1,0.3,0.3,0.5,0.4c0.1,0.2,0.2,0.4,0.2,0.6c0.1,0.2,0.1,0.4,0.1,0.7l0,2.4Z" /></clipPath>
<clipPath id="c13_1"><path d="M1741.5,361.1l0,-1.3l2,-1.1l-2,-1.2l0,-1.3l3.1,1.9l1.9,0l0,1.1l-1.9,0l-3.1,1.9Z" /></clipPath>
<clipPath id="c14_1"><path d="M1727.9,346.9c-4.5,0,-8.1,-3.6,-8.1,-8.1c0,-4.4,3.6,-8.1,8.1,-8.1c4.5,0,8.1,3.7,8.1,8.1c0,4.5,-3.6,8.1,-8.1,8.1Z" /></clipPath>
<clipPath id="c15_1"><path d="M1728,346.2c0.9,0,1.8,-0.2,2.7,-0.5c2.7,-1.2,4.5,-3.8,4.5,-6.8c0,-1.9,-0.8,-3.8,-2.2,-5.1c-1.3,-1.4,-3.1,-2.1,-4.9,-2.1c-0.1,0,-0.1,0,-0.2,0c-4,0,-7.3,3.2,-7.3,7.2l0.1,0c-0.1,2,0.7,3.8,2.1,5.1c1.4,1.5,3.3,2.2,5.2,2.2Zm-0.1,1.6c-2.3,0,-4.6,-1,-6.2,-2.6c-1.7,-1.7,-2.6,-3.9,-2.6,-6.3l-0.1,0c0,-2.3,0.9,-4.6,2.6,-6.3c1.6,-1.6,3.8,-2.5,6.2,-2.5l0.1,0c0,0,0.1,0,0.2,0c2.2,0,4.4,0.9,6,2.5c1.7,1.7,2.6,3.9,2.6,6.3c0,4.8,-3.9,8.8,-8.7,8.9c0,0,-0.1,0,-0.1,0Z" /></clipPath>
<clipPath id="c16_1"><path d="M1726.6,343.5l0,-0.7c-2,-0.2,-3.4,-1.9,-3.4,-3.9c0,-1.3,0.5,-2.5,1.4,-3.4c0.8,-0.7,1.9,-1.2,3.1,-1.2c0.1,0,0.2,0,0.3,0c0.1,0,0.1,0,0.2,0c1.1,0,2.3,0.5,3.1,1.3c0.9,0.9,1.4,2.1,1.4,3.3c0.1,2,-1.4,3.8,-3.4,3.9l0,-2.2c1.2,0,1.6,-0.8,1.6,-1.9c0,-1.1,-1.2,-2.1,-3,-2.1c-1.7,0,-2.8,0.7,-2.8,2c-0.1,0.5,0,1,0.3,1.3c0.3,0.4,0.7,0.6,1.2,0.7l0,-0.7l1.7,1.8l-1.7,1.8Z" /></clipPath>
<clipPath id="c17_1"><path d="M1728.1,368.8c-4.5,0,-8.2,-3.7,-8.2,-8.2c0,-4.6,3.7,-8.2,8.2,-8.2c4.5,0,8.2,3.6,8.2,8.2c0,4.5,-3.7,8.2,-8.2,8.2Z" /></clipPath>
<clipPath id="c18_1"><path d="M1725.7,362.9c-0.1,0,-0.3,0,-0.4,-0.1c-0.1,-0.1,-0.1,-0.3,-0.1,-0.4l0,-3.6c0,-0.4,0.2,-0.6,0.5,-0.6l3.7,0l0,1l4.2,0l0,2.7l-4.2,0l0,1l-3.7,0Z" /></clipPath>
<clipPath id="c19_1"><path d="M1723.4,361.8c-0.7,0,-1.2,-0.5,-1.2,-1.2c0,-0.7,0.5,-1.3,1.2,-1.3c0.7,0,1.3,0.6,1.3,1.3c0,0.7,-0.6,1.2,-1.3,1.2Z" /></clipPath>
<clipPath id="c20_1"><path d="M1727.9,367.8c4,0,7.2,-3.3,7.2,-7.3c0.1,-1.9,-0.7,-3.8,-2.1,-5.1c-1.3,-1.3,-3.1,-2.1,-4.9,-2.1c-0.1,0,-0.1,0,-0.2,0c-4,0,-7.3,3.3,-7.3,7.3l0,-0.1c0,2,0.8,3.8,2.2,5.2c1.3,1.3,3.1,2.1,5.1,2.1Zm0,1.6c-2.3,0,-4.6,-0.9,-6.2,-2.6c-1.7,-1.7,-2.6,-3.9,-2.6,-6.3l0,0.1c0,-2.4,0.9,-4.7,2.6,-6.3c1.6,-1.7,3.9,-2.6,6.2,-2.6c0,0,0.1,0,0.1,0c0.1,0,0.1,0,0.2,0c2.3,0,4.4,0.9,6,2.5c1.7,1.7,2.7,4,2.6,6.3c0,4.9,-3.9,8.9,-8.8,8.9c-0.1,0,-0.1,0,-0.1,0Z" /></clipPath>
<clipPath id="c21_1"><path d="M1720.8,116.2c4.7,0,9.1,-4.5,10.2,-10.8c0.3,-1.8,0.3,-3.5,0.1,-5.1c2.4,2.6,5.8,4.1,8.7,4.1c0.5,0,1,0,1.4,-0.1c4.9,-0.8,9.1,-7.5,8.1,-14.2c2,3.3,5.3,5.2,8.5,5.2c0.4,0,0.9,0,1.3,-0.1c4.8,-0.9,8.3,-8.7,7.1,-15.5c-0.4,-1.8,-1,-3.3,-1.8,-4.6c0.2,0.5,0.3,1.1,0.4,1.7c1.2,6.8,-1.9,14.5,-6.5,15.3c-0.3,0.1,-0.7,0.1,-1.1,0.1c-3.8,0,-7.8,-3,-9.4,-8c-0.2,0.2,-0.3,0.3,-0.5,0.4c0,0.2,0,0.3,0.1,0.4c-0.1,-0.1,-0.2,-0.2,-0.2,-0.3c-0.1,0.1,-0.1,0.1,-0.2,0.2c0.3,0.9,0.6,1.8,0.8,2.8c1.2,6.8,-2.6,13.6,-7.1,14.4c-0.4,0.1,-0.8,0.1,-1.2,0.1c-3.7,0,-8.3,-2.9,-10.3,-7.6c0.9,2.4,1.2,5.4,0.7,8.5c-1.2,6.3,-5.2,10.9,-9.5,10.9c-0.3,0,-0.6,0,-0.9,0c-2.6,-0.5,-4.5,-2.6,-5.6,-5.6c-0.4,-0.1,-0.8,-0.3,-1.2,-0.6c-0.1,0,-0.1,0,-0.1,0c0.8,4.3,3.4,7.7,7,8.3c0.4,0.1,0.8,0.1,1.2,0.1Zm69.7,-37.9c3,0,5.5,-2.5,5.5,-5.4c0,-3,-2.5,-5.5,-5.5,-5.5c-2.9,0,-5.4,2.5,-5.4,5.5c0,2.9,2.5,5.4,5.4,5.4ZM1738,139c-0.4,0,-0.8,0,-1.2,-0.1c-3.8,-0.9,-6,-5.4,-5.8,-10.7c-3.9,-1.3,-7.2,-3.4,-9.7,-6.4c-0.3,-0.4,-0.6,-0.8,-0.9,-1.1c-1.6,3,-4.1,5,-6.8,5c-0.1,0,-0.2,0,-0.3,-0.1c-4.6,-0.2,-8.1,-6,-7.7,-12.9c0.2,-4.3,1.9,-8,4.2,-10.1c-0.3,-3,0.6,-6.6,2.7,-9.8c1.8,-2.9,4.3,-5,6.7,-6.1c0.4,-2.5,1.7,-5.3,3.8,-7.8c2.7,-3.2,6.1,-5.2,9.2,-5.6c0.2,-0.6,0.5,-1.2,0.9,-1.8c2.5,-4.3,7.3,-6.7,11.2,-6.9c1.4,-0.9,2.8,-1.7,4.1,-2.4c0.6,-0.7,1.2,-1.3,1.9,-1.9c3,-2.5,6.8,-3.8,10,-3.8c0.8,0,1.5,0.1,2.2,0.2c3.3,-0.7,6.5,-1.1,9.5,-1.1c2.8,0,5.4,0.3,7.9,1c0.3,0,0.6,-0.1,1,-0.1c6.4,0,13,2.7,16.6,9c4.8,8.2,3.9,20.1,-1,26.8c0.4,0.9,0.7,1.9,0.8,2.9c1.2,6.8,-1.9,14.6,-6.4,15.4c-0.4,0,-0.8,0.1,-1.2,0.1c-2.4,0,-4.8,-1.2,-6.7,-3.3c-0.3,0.4,-0.7,0.8,-1,1.2c0,0.2,0.1,0.4,0.1,0.6c1.2,6.8,-2.6,13.6,-7.1,14.4c-0.4,0,-0.7,0.1,-1.1,0.1c-2.2,0,-4.4,-1.2,-6.1,-3.1c-0.8,0.4,-1.5,0.9,-2.3,1.3c0,0.1,0,0.2,0,0.3c-1.1,6.3,-5.2,10.9,-9.4,10.9c-0.4,0,-0.7,0,-1,0c-2.3,-0.4,-4.1,-2.2,-5.2,-4.8c-0.8,0.2,-1.5,0.4,-2.2,0.5c-1.5,6,-5.6,10.2,-9.6,10.2Z" /></clipPath>
<clipPath id="c22_1"><path d="M544.4,149.8l0,-58.6l325.1,0l0,15.7l44.2,0l0,-15.7l325.1,0l0,58.6Z" /></clipPath>
<clipPath id="c23_1"><path d="M869.5,106.9l0,-15.7l44.2,0l0,15.7Z" /></clipPath>
<clipPath id="c24_1"><path d="M544.4,150.8l0,-36.4l108.7,0l0,15.7l36.5,0l0,-15.7l108.7,0l0,36.4Z" /></clipPath>
<clipPath id="c25_1"><path d="M653.1,130.1l0,-15.7l36.5,0l0,15.7Z" /></clipPath>
<clipPath id="c26_1"><path d="M764.7,150.8l0,-36.4l108.6,0l0,15.7l36.6,0l0,-15.7l108.6,0l0,36.4Z" /></clipPath>
<clipPath id="c27_1"><path d="M873.3,130.1l0,-15.7l36.6,0l0,15.7Z" /></clipPath>
<clipPath id="c28_1"><path d="M984.9,150.8l0,-36.4l108.7,0l0,15.7l36.5,0l0,-15.7l108.7,0l0,36.4Z" /></clipPath>
<clipPath id="c29_1"><path d="M1093.6,130.1l0,-15.7l36.5,0l0,15.7Z" /></clipPath>
<clipPath id="c30_1"><path d="M1261.9,179l0,-21.7l-15.7,0l0,21.7Zm-40,31l0,-83.7l60.7,0l0,83.7Z" /></clipPath>
<clipPath id="c31_1"><path d="M1246.2,179l0,-21.7l15.7,0l0,21.7Z" /></clipPath>
<clipPath id="c32_1"><path d="M1261.9,413.6l0,-36.6l-15.7,0l0,36.6Zm-40,207.3l0,-451.2l60.7,0l0,451.2Z" /></clipPath>
<clipPath id="c33_1"><path d="M1246.2,413.6l0,-36.6l15.7,0l0,36.6Z" /></clipPath>
<clipPath id="c34_1"><path d="M1261.9,842.6l0,-36.6l-15.7,0l0,36.6Zm-40,218.8l0,-474.1l60.7,0l0,474.1Z" /></clipPath>
<clipPath id="c35_1"><path d="M1246.2,842.6l0,-36.6l15.7,0l0,36.6Z" /></clipPath>
<clipPath id="c36_1"><path d="M289,717l0,-7.5l25.5,-15.9l-25.5,0l0,-7.2l38.1,0l0,7.8l-25,15.6l25,0l0,7.2Z" /></clipPath>
<clipPath id="c37_1"><path d="M308.8,658.7c0,0,6.5,0,9.9,-3c0,0,3.4,-2.9,3.4,-7.5c0,0,0,-4.6,-3.4,-7.5c0,0,-3.3,-2.9,-10,-2.9c0,0,-6.6,0,-9.9,2.8c0,0,-3.2,2.9,-3.2,7.6c0,0,0,4.7,3.3,7.6c0,0,3.3,2.9,9.9,2.9Zm0.3,7.9c0,0,-5.9,0,-9.9,-1.7c0,0,-2.9,-1.3,-5.3,-3.6c0,0,-2.3,-2.2,-3.4,-4.9c0,0,-1.5,-3.5,-1.5,-8.1c0,0,0,-8.4,5.2,-13.4c0,0,5.3,-5,14.7,-5c0,0,9.3,0,14.5,5c0,0,5.3,5,5.3,13.3c0,0,0,8.4,-5.2,13.4c0,0,-5.3,5,-14.4,5Z" /></clipPath>
<clipPath id="c38_1"><path d="M305.1,600.6l0,-5.8c0,0,0,-5.7,-0.5,-7.1c0,0,-0.5,-1.4,-1.6,-2.2c0,0,-1.1,-0.8,-2.9,-0.8c0,0,-1.9,0,-3.1,1.1c0,0,-1.1,1,-1.5,2.9c0,0,-0.1,1,-0.1,5.8l0,6.1ZM289,608.5l0,-16.6c0,0,0,-6.2,1,-9.1c0,0,1,-2.8,3.6,-4.5c0,0,2.7,-1.7,6.1,-1.7c0,0,4.3,0,7.1,2.5c0,0,2.8,2.6,3.5,7.8c0,0,1.4,-2.6,3.2,-4.3c0,0,1.7,-1.6,6.2,-4.4l7.4,-4.8l0,9.4l-8.3,5.7c0,0,-4.4,3.1,-5.6,4.2c0,0,-1.1,1.1,-1.6,2.4c0,0,-0.4,1.2,-0.4,3.9l0,1.6l15.9,0l0,7.9Z" /></clipPath>
<clipPath id="c39_1"><path d="M289,553.5L289,523l6.4,0l0,11.3l31.7,0l0,7.8l-31.7,0l0,11.4Z" /></clipPath>
<clipPath id="c40_1"><path d="M289,501.6l0,-7.7l15,0l0,-15.2l-15,0l0,-7.7l38.1,0l0,7.7l-16.7,0l0,15.2l16.7,0l0,7.7Z" /></clipPath>

<style type="text/css"><![CDATA[

.g1_1{
fill: none;
stroke: #000000;
stroke-width: 0.7638889;
stroke-linecap: butt;
stroke-linejoin: miter;
}
.g2_1{
fill: #A9B1AA;
}
.g3_1{
fill: #FFFFFF;
}
.g4_1{
}
.g5_1{
fill: none;
stroke: #000000;
stroke-width: 0.7638889;
stroke-linecap: round;
stroke-linejoin: round;
}
.g6_1{
fill: none;
stroke: #000000;
stroke-width: 0.38194445;
stroke-linecap: butt;
stroke-linejoin: miter;
}
.g7_1{
fill: none;
stroke: #000000;
stroke-width: 1.1315684;
stroke-linecap: butt;
stroke-linejoin: miter;
}

.s1_1{
font-size: 9.17px;
font-family: Arial-Black_9;
fill: TRANSPARENT;
}
.s2_1{
font-size: 27.50px;
font-family: Arial-Black_9;
fill: TRANSPARENT;
}
.s3_1{
font-size: 9.17px;
font-family: ArialMT_a;
fill: TRANSPARENT;
}
.s4_1{
font-size: 27.50px;
font-family: ArialMT_a;
fill: TRANSPARENT;
}
.s5_1{
font-size: 13.75px;
font-family: ArialMT_a;
fill: TRANSPARENT;
}
text::-moz-selection {
	color: transparent;
	background: rgba(0, 106, 173, 0.4);
}
text::selection {
	color: transparent;
	background: rgba(0, 106, 173, 0.4);
}

]]></style>

</defs>
<path d="M0,0
L0,1210
L1870,1210
L1870,0 Z " 
fill="#FFFFFF" stroke="none" />
<path d="M82.5,55l1608.8,0l0,1100L82.5,1155L82.5,55Z" class="g1_1" />
<path d="M1705,1113.8l96.3,0" class="g1_1" />
<g clip-path="url(#c0_1)">
<g fill="#000000" >
<use xlink:href="#f0_9" transform="matrix(0,-6,6,0,1727.2,857.2)" />
<use xlink:href="#f0_d" transform="matrix(0,-6,6,0,1727.2,853.7)" />
<use xlink:href="#f0_d" transform="matrix(0,-6,6,0,1727.2,847.1)" />
<use xlink:href="#f0_f" transform="matrix(0,-6,6,0,1727.2,840.4)" />
<use xlink:href="#f0_8" transform="matrix(0,-6,6,0,1727.2,832.8)" />
<use xlink:href="#f0_7" transform="matrix(0,-6,6,0,1727.2,823.1)" />
<use xlink:href="#f0_6" transform="matrix(0,-6,6,0,1727.2,816.4)" />
<use xlink:href="#f0_e" transform="matrix(0,-6,6,0,1727.2,809.9)" />
<use xlink:href="#f0_8" transform="matrix(0,-6,6,0,1727.2,803.3)" />
</g>
</g>
<g clip-path="url(#c1_1)">
<g fill="#000000" >
<use xlink:href="#f0_d" transform="matrix(0,-6,6,0,1726.4,578.3)" />
</g>
</g>


<g clip-path="url(#c1_1)">
<g fill="#000000" >
<use xlink:href="#f0_9" transform="matrix(0,-6,6,0,1726.4,571.6)" />
<use xlink:href="#f0_e" transform="matrix(0,-6,6,0,1726.4,568.1)" />
<use xlink:href="#f0_8" transform="matrix(0,-6,6,0,1726.4,561.5)" />
<use xlink:href="#f0_6" transform="matrix(0,-6,6,0,1726.4,551.8)" />
<use xlink:href="#f0_7" transform="matrix(0,-6,6,0,1726.4,544.6)" />
<use xlink:href="#f0_7" transform="matrix(0,-6,6,0,1726.4,537.5)" />
<use xlink:href="#f0_c" transform="matrix(0,-6,6,0,1726.4,530.4)" />
<use xlink:href="#f0_8" transform="matrix(0,-6,6,0,1726.4,523.2)" />
<use xlink:href="#f0_d" transform="matrix(0,-6,6,0,1726.4,516.6)" />
<use xlink:href="#f0_d" transform="matrix(0,-6,6,0,1726.4,510)" />
</g>
</g>
<g clip-path="url(#c2_1)">
<g fill="#000000" >
<use xlink:href="#f0_b" transform="matrix(0,-6,6,0,1727.2,747.1)" />
</g>
</g>


<g clip-path="url(#c2_1)">
<g fill="#000000" >
<use xlink:href="#f0_g" transform="matrix(0,-6,6,0,1727.2,739.6)" />
<use xlink:href="#f0_a" transform="matrix(0,-6,6,0,1727.2,730.4)" />
<use xlink:href="#f0_8" transform="matrix(0,-6,6,0,1727.2,722.8)" />
<use xlink:href="#f0_c" transform="matrix(0,-6,6,0,1727.2,716.2)" />
</g>
</g>
<g clip-path="url(#c3_1)">
<g fill="#000000" >
<use xlink:href="#f0_6" transform="matrix(18,0,0,18,1708.8,1155)" />
</g>
</g>


<g clip-path="url(#c3_1)">
<g fill="#000000" >
<use xlink:href="#f0_3" transform="matrix(18,0,0,18,1730.2,1155)" />
<use xlink:href="#f0_4" transform="matrix(18,0,0,18,1739.4,1155)" />
<use xlink:href="#f0_5" transform="matrix(18,0,0,18,1757.7,1155)" />
</g>
</g>
<g clip-path="url(#c4_1)">
<g fill="#000000" >
<use xlink:href="#f1_l" transform="matrix(0,-6,6,0,1775.9,409.2)" />
</g>
</g>


<g clip-path="url(#c4_1)">
<g fill="#000000" >
<use xlink:href="#f1_s" transform="matrix(0,-6,6,0,1775.9,403.6)" />
<use xlink:href="#f1_t" transform="matrix(0,-6,6,0,1775.9,398.5)" />
<use xlink:href="#f1_11" transform="matrix(0,-6,6,0,1775.9,396.5)" />
<use xlink:href="#f1_15" transform="matrix(0,-6,6,0,1775.9,389.3)" />
<use xlink:href="#f1_y" transform="matrix(0,-6,6,0,1775.9,382.7)" />
<use xlink:href="#f1_10" transform="matrix(0,-6,6,0,1775.9,377.6)" />
<use xlink:href="#f1_u" transform="matrix(0,-6,6,0,1775.9,374.6)" />
<use xlink:href="#f1_t" transform="matrix(0,-6,6,0,1775.9,367.4)" />
<use xlink:href="#f1_11" transform="matrix(0,-6,6,0,1775.9,365.4)" />
<use xlink:href="#f1_v" transform="matrix(0,-6,6,0,1775.9,358.3)" />
<use xlink:href="#f1_t" transform="matrix(0,-6,6,0,1775.9,356.2)" />
<use xlink:href="#f1_o" transform="matrix(0,-6,6,0,1775.9,354.2)" />
<use xlink:href="#f1_q" transform="matrix(0,-6,6,0,1775.9,349.6)" />
<use xlink:href="#f1_x" transform="matrix(0,-6,6,0,1775.9,344.5)" />
<use xlink:href="#f1_11" transform="matrix(0,-6,6,0,1775.9,339.4)" />
<use xlink:href="#f1_q" transform="matrix(0,-6,6,0,1775.9,334.8)" />
<use xlink:href="#f1_p" transform="matrix(0,-6,6,0,1775.9,329.7)" />
<use xlink:href="#f1_13" transform="matrix(0,-6,6,0,1775.9,322.1)" />
<use xlink:href="#f1_x" transform="matrix(0,-6,6,0,1775.9,317)" />
<use xlink:href="#f1_p" transform="matrix(0,-6,6,0,1775.9,311.9)" />
<use xlink:href="#f1_q" transform="matrix(0,-6,6,0,1775.9,306.8)" />
<use xlink:href="#f1_10" transform="matrix(0,-6,6,0,1775.9,301.7)" />
<use xlink:href="#f1_m" transform="matrix(0,-6,6,0,1775.9,296.1)" />
<use xlink:href="#f1_g" transform="matrix(0,-6,6,0,1775.9,288.5)" />
<use xlink:href="#f1_10" transform="matrix(0,-6,6,0,1775.9,281.8)" />
<use xlink:href="#f1_q" transform="matrix(0,-6,6,0,1775.9,278.8)" />
<use xlink:href="#f1_m" transform="matrix(0,-6,6,0,1775.9,273.7)" />
<use xlink:href="#f1_12" transform="matrix(0,-6,6,0,1775.9,268.6)" />
<use xlink:href="#f1_t" transform="matrix(0,-6,6,0,1775.9,266)" />
<use xlink:href="#f1_14" transform="matrix(0,-6,6,0,1775.9,264)" />
<use xlink:href="#f1_q" transform="matrix(0,-6,6,0,1775.9,259.4)" />
<use xlink:href="#f1_g" transform="matrix(0,-6,6,0,1775.9,251.8)" />
<use xlink:href="#f1_y" transform="matrix(0,-6,6,0,1775.9,245.2)" />
<use xlink:href="#f1_w" transform="matrix(0,-6,6,0,1775.9,240.1)" />
<use xlink:href="#f1_w" transform="matrix(0,-6,6,0,1775.9,232.4)" />
<use xlink:href="#f1_y" transform="matrix(0,-6,6,0,1775.9,224.8)" />
<use xlink:href="#f1_x" transform="matrix(0,-6,6,0,1775.9,219.7)" />
<use xlink:href="#f1_11" transform="matrix(0,-6,6,0,1775.9,214.6)" />
<use xlink:href="#f1_f" transform="matrix(0,-6,6,0,1785.3,409.2)" />
</g>
</g>


<g clip-path="url(#c4_1)">
<g fill="#000000" >
<use xlink:href="#f1_12" transform="matrix(0,-6,6,0,1785.3,403.1)" />
<use xlink:href="#f1_12" transform="matrix(0,-6,6,0,1785.3,400.5)" />
<use xlink:href="#f1_10" transform="matrix(0,-6,6,0,1785.3,398)" />
<use xlink:href="#f1_t" transform="matrix(0,-6,6,0,1785.3,394.9)" />
<use xlink:href="#f1_n" transform="matrix(0,-6,6,0,1785.3,392.9)" />
<use xlink:href="#f1_13" transform="matrix(0,-6,6,0,1785.3,387.8)" />
<use xlink:href="#f1_12" transform="matrix(0,-6,6,0,1785.3,382.7)" />
<use xlink:href="#f1_t" transform="matrix(0,-6,6,0,1785.3,380.2)" />
<use xlink:href="#f1_y" transform="matrix(0,-6,6,0,1785.3,378.1)" />
<use xlink:href="#f1_x" transform="matrix(0,-6,6,0,1785.3,373)" />
<use xlink:href="#f1_5" transform="matrix(0,-6,6,0,1785.3,367.9)" />
<use xlink:href="#f1_k" transform="matrix(0,-6,6,0,1785.3,362.3)" />
<use xlink:href="#f1_s" transform="matrix(0,-6,6,0,1785.3,356.2)" />
<use xlink:href="#f1_m" transform="matrix(0,-6,6,0,1785.3,351.1)" />
<use xlink:href="#f1_10" transform="matrix(0,-6,6,0,1785.3,346)" />
<use xlink:href="#f1_q" transform="matrix(0,-6,6,0,1785.3,343)" />
<use xlink:href="#f1_f" transform="matrix(0,-6,6,0,1785.3,337.9)" />
<use xlink:href="#f1_v" transform="matrix(0,-6,6,0,1785.3,331.8)" />
<use xlink:href="#f1_t" transform="matrix(0,-6,6,0,1785.3,329.7)" />
<use xlink:href="#f1_u" transform="matrix(0,-6,6,0,1785.3,327.7)" />
<use xlink:href="#f1_q" transform="matrix(0,-6,6,0,1785.3,323.1)" />
<use xlink:href="#f1_b" transform="matrix(0,-6,6,0,1785.3,315.5)" />
<use xlink:href="#f1_6" transform="matrix(0,-6,6,0,1785.3,310.4)" />
<use xlink:href="#f1_8" transform="matrix(0,-6,6,0,1785.3,307.8)" />
<use xlink:href="#f1_i" transform="matrix(0,-6,6,0,1785.3,300.2)" />
<use xlink:href="#f1_x" transform="matrix(0,-6,6,0,1785.3,297.6)" />
<use xlink:href="#f1_12" transform="matrix(0,-6,6,0,1785.3,292.5)" />
<use xlink:href="#f1_q" transform="matrix(0,-6,6,0,1785.3,290)" />
<use xlink:href="#f1_10" transform="matrix(0,-6,6,0,1785.3,284.9)" />
<use xlink:href="#f1_x" transform="matrix(0,-6,6,0,1785.3,281.8)" />
<use xlink:href="#f1_m" transform="matrix(0,-6,6,0,1785.3,276.7)" />
<use xlink:href="#f1_12" transform="matrix(0,-6,6,0,1785.3,271.6)" />
<use xlink:href="#f1_t" transform="matrix(0,-6,6,0,1785.3,269.1)" />
<use xlink:href="#f1_y" transform="matrix(0,-6,6,0,1785.3,267)" />
<use xlink:href="#f1_x" transform="matrix(0,-6,6,0,1785.3,261.9)" />
<use xlink:href="#f1_m" transform="matrix(0,-6,6,0,1785.3,256.8)" />
<use xlink:href="#f1_v" transform="matrix(0,-6,6,0,1785.3,251.7)" />
<use xlink:href="#f1_j" transform="matrix(0,-6,6,0,1785.3,247.2)" />
<use xlink:href="#f1_t" transform="matrix(0,-6,6,0,1785.3,242.1)" />
<use xlink:href="#f1_o" transform="matrix(0,-6,6,0,1785.3,240)" />
<use xlink:href="#f1_q" transform="matrix(0,-6,6,0,1785.3,235.4)" />
<use xlink:href="#f1_x" transform="matrix(0,-6,6,0,1785.3,230.3)" />
<use xlink:href="#f1_11" transform="matrix(0,-6,6,0,1785.3,225.2)" />
<use xlink:href="#f1_q" transform="matrix(0,-6,6,0,1785.3,220.7)" />
<use xlink:href="#f1_s" transform="matrix(0,-6,6,0,1794.8,409.2)" />
</g>
</g>


<g clip-path="url(#c4_1)">
<g fill="#000000" >
<use xlink:href="#f1_12" transform="matrix(0,-6,6,0,1794.8,404.1)" />
<use xlink:href="#f1_12" transform="matrix(0,-6,6,0,1794.8,401.6)" />
<use xlink:href="#f1_z" transform="matrix(0,-6,6,0,1794.8,399)" />
<use xlink:href="#f1_e" transform="matrix(0,-6,6,0,1794.8,393.9)" />
<use xlink:href="#f1_7" transform="matrix(0,-6,6,0,1794.8,391.4)" />
<use xlink:href="#f1_7" transform="matrix(0,-6,6,0,1794.8,388.8)" />
<use xlink:href="#f1_o" transform="matrix(0,-6,6,0,1794.8,386.3)" />
<use xlink:href="#f1_10" transform="matrix(0,-6,6,0,1794.8,381.7)" />
<use xlink:href="#f1_q" transform="matrix(0,-6,6,0,1794.8,378.6)" />
<use xlink:href="#f1_m" transform="matrix(0,-6,6,0,1794.8,373.5)" />
<use xlink:href="#f1_12" transform="matrix(0,-6,6,0,1794.8,368.4)" />
<use xlink:href="#f1_t" transform="matrix(0,-6,6,0,1794.8,365.9)" />
<use xlink:href="#f1_14" transform="matrix(0,-6,6,0,1794.8,363.9)" />
<use xlink:href="#f1_q" transform="matrix(0,-6,6,0,1794.8,359.3)" />
<use xlink:href="#f1_o" transform="matrix(0,-6,6,0,1794.8,354.2)" />
<use xlink:href="#f1_y" transform="matrix(0,-6,6,0,1794.8,349.6)" />
<use xlink:href="#f1_w" transform="matrix(0,-6,6,0,1794.8,344.5)" />
<use xlink:href="#f1_w" transform="matrix(0,-6,6,0,1794.8,336.9)" />
<use xlink:href="#f1_y" transform="matrix(0,-6,6,0,1794.8,329.2)" />
<use xlink:href="#f1_x" transform="matrix(0,-6,6,0,1794.8,324.1)" />
<use xlink:href="#f1_11" transform="matrix(0,-6,6,0,1794.8,319)" />
<use xlink:href="#f1_6" transform="matrix(0,-6,6,0,1794.8,314.4)" />
<use xlink:href="#f1_y" transform="matrix(0,-6,6,0,1794.8,311.9)" />
<use xlink:href="#f1_10" transform="matrix(0,-6,6,0,1794.8,306.8)" />
<use xlink:href="#f1_r" transform="matrix(0,-6,6,0,1794.8,303.7)" />
<use xlink:href="#f1_7" transform="matrix(0,-6,6,0,1794.8,298.7)" />
<use xlink:href="#f1_v" transform="matrix(0,-6,6,0,1794.8,296.1)" />
<use xlink:href="#f1_t" transform="matrix(0,-6,6,0,1794.8,294.1)" />
<use xlink:href="#f1_o" transform="matrix(0,-6,6,0,1794.8,292)" />
<use xlink:href="#f1_q" transform="matrix(0,-6,6,0,1794.8,287.4)" />
<use xlink:href="#f1_x" transform="matrix(0,-6,6,0,1794.8,282.3)" />
<use xlink:href="#f1_11" transform="matrix(0,-6,6,0,1794.8,277.3)" />
<use xlink:href="#f1_q" transform="matrix(0,-6,6,0,1794.8,272.7)" />
<use xlink:href="#f1_11" transform="matrix(0,-6,6,0,1794.8,267.6)" />
<use xlink:href="#f1_7" transform="matrix(0,-6,6,0,1794.8,263)" />
<use xlink:href="#f1_n" transform="matrix(0,-6,6,0,1794.8,260.4)" />
<use xlink:href="#f1_16" transform="matrix(0,-6,6,0,1794.8,255.3)" />
<use xlink:href="#f1_5" transform="matrix(0,-6,6,0,1794.8,250.8)" />
<use xlink:href="#f1_11" transform="matrix(0,-6,6,0,1794.8,247.7)" />
<use xlink:href="#f1_m" transform="matrix(0,-6,6,0,1794.8,243.1)" />
<use xlink:href="#f1_7" transform="matrix(0,-6,6,0,1794.8,238)" />
<use xlink:href="#f1_b" transform="matrix(0,-6,6,0,1794.8,235.5)" />
<use xlink:href="#f1_6" transform="matrix(0,-6,6,0,1794.8,230.4)" />
<use xlink:href="#f1_8" transform="matrix(0,-6,6,0,1794.8,227.8)" />
<use xlink:href="#f1_7" transform="matrix(0,-6,6,0,1794.8,222.7)" />
</g>
</g>
<g clip-path="url(#c5_1)">
<g fill="#000000" >
<use xlink:href="#f1_h" transform="matrix(0,-18,18,0,1746.1,1096.2)" />
</g>
</g>


<g clip-path="url(#c5_1)">
<g fill="#000000" >
<use xlink:href="#f1_y" transform="matrix(0,-18,18,0,1746.1,1079.4)" />
<use xlink:href="#f1_13" transform="matrix(0,-18,18,0,1746.1,1064.1)" />
<use xlink:href="#f1_x" transform="matrix(0,-18,18,0,1746.1,1048.8)" />
<use xlink:href="#f1_p" transform="matrix(0,-18,18,0,1746.1,1033.5)" />
<use xlink:href="#f1_m" transform="matrix(0,-18,18,0,1746.1,1018.2)" />
<use xlink:href="#f1_12" transform="matrix(0,-18,18,0,1746.1,1002.9)" />
<use xlink:href="#f1_t" transform="matrix(0,-18,18,0,1746.1,995.3)" />
<use xlink:href="#f1_y" transform="matrix(0,-18,18,0,1746.1,989.2)" />
<use xlink:href="#f1_x" transform="matrix(0,-18,18,0,1746.1,973.9)" />
<use xlink:href="#f1_k" transform="matrix(0,-18,18,0,1777.6,1096.2)" />
</g>
</g>


<g clip-path="url(#c5_1)">
<g fill="#000000" >
<use xlink:href="#f1_s" transform="matrix(0,-18,18,0,1777.6,1077.8)" />
<use xlink:href="#f1_q" transform="matrix(0,-18,18,0,1777.6,1062.5)" />
<use xlink:href="#f1_m" transform="matrix(0,-18,18,0,1777.6,1047.2)" />
<use xlink:href="#f1_12" transform="matrix(0,-18,18,0,1777.6,1031.9)" />
<use xlink:href="#f1_s" transform="matrix(0,-18,18,0,1777.6,1024.3)" />
<use xlink:href="#f1_t" transform="matrix(0,-18,18,0,1777.6,1009)" />
<use xlink:href="#f1_x" transform="matrix(0,-18,18,0,1777.6,1002.9)" />
<use xlink:href="#f1_r" transform="matrix(0,-18,18,0,1777.6,987.6)" />
</g>
</g>


<g clip-path="url(#c6_1)">
<path d="M1716.7,408.6l31.4,0l0,-91.1l-31.4,0l0,91.1Z" class="g2_1" />
</g>
<g clip-path="url(#c7_1)">
<path d="M1720.9,403.5l20.9,0l0,-20.9l-20.9,0l0,20.9Z" class="g3_1" />
</g>
<g clip-path="url(#c8_1)">
<path d="M1719.5,404.9l24,0l0,-24l-24,0l0,24Z" class="g4_1" />
</g>
<g clip-path="url(#c9_1)">
<path d="M1716.4,409.1l32.2,0l0,-91.8l-32.2,0l0,91.8Z" class="g4_1" />
</g>
<g clip-path="url(#c10_1)">
<path d="M1741.3,344.2l5.5,0l0,-4.4l-5.5,0l0,4.4Z" class="g3_1" />
</g>
<g clip-path="url(#c11_1)">
<path d="M1741.5,339.8l5.1,0l0,-5.1l-5.1,0l0,5.1Z" class="g3_1" />
</g>
<g clip-path="url(#c12_1)">
<path d="M1741.3,365.7l5.3,0l0,-4.6l-5.3,0l0,4.6Z" class="g3_1" />
</g>
<g clip-path="url(#c13_1)">
<path d="M1741.5,361.1l5.1,0l0,-4.9l-5.1,0l0,4.9Z" class="g3_1" />
</g>
<g clip-path="url(#c14_1)">
<path d="M1719.7,347l16.5,0l0,-16.3l-16.5,0l0,16.3Z" class="g3_1" />
</g>
<g clip-path="url(#c15_1)">
<path d="M1718.9,347.9l17.8,0l0,-18l-17.8,0l0,18Z" class="g4_1" />
</g>
<g clip-path="url(#c16_1)">
<path d="M1723.1,343.5l9.8,0l0,-9.3l-9.8,0l0,9.3Z" class="g4_1" />
</g>
<g clip-path="url(#c17_1)">
<path d="M1719.8,368.8l16.5,0l0,-16.5l-16.5,0l0,16.5Z" class="g3_1" />
</g>
<g clip-path="url(#c18_1)">
<path d="M1725.2,362.9l8.6,0l0,-4.7l-8.6,0l0,4.7Z" class="g4_1" />
</g>
<g clip-path="url(#c19_1)">
<path d="M1722,361.8l2.8,0l0,-2.5l-2.8,0l0,2.5Z" class="g4_1" />
</g>
<g clip-path="url(#c20_1)">
<path d="M1719.1,369.5l17.8,0l0,-17.9l-17.8,0l0,17.9Z" class="g4_1" />
</g>
<g clip-path="url(#c21_1)">
<path d="M1705,139.6l96.2,0l0,-84.6L1705,55l0,84.6Z" class="g4_1" />
</g>
<path d="M1223.5,172.6l1.6,-4.5" class="g5_1" />
<path d="M1224.4,158.6l-2.2,-4.3" class="g5_1" />
<path d="M1225.1,168.1l0.2,-4.8" class="g5_1" />
<path d="M1196.8,149.4l-0.5,0.4" class="g5_1" />
<path d="M1201,147.3l-4.2,2.1" class="g5_1" />
<path d="M1205.7,146.3l-4.7,1" class="g5_1" />
<path d="M1210.5,146.6l-4.8,-0.3" class="g5_1" />
<path d="M1215.1,148.1l-4.6,-1.5" class="g5_1" />
<path d="M1217.6,149.8l-2.5,-1.7" class="g5_1" />
<path d="M1222.2,154.3l-0.3,-0.3" class="g5_1" />
<path d="M1225.3,163.3l-0.9,-4.7" class="g5_1" />
<path d="M1221.9,175.1l1.6,-2.5" class="g5_1" />
<path d="M561.2,154.2l-1.6,2.4" class="g5_1" />
<path d="M565.9,149.4l-0.5,0.4" class="g5_1" />
<path d="M560.9,174.9l0.3,0.3" class="g5_1" />
<path d="M558.8,170.6l2.1,4.3" class="g5_1" />
<path d="M557.8,165.9l1,4.7" class="g5_1" />
<path d="M558.1,161.1l-0.3,4.8" class="g5_1" />
<path d="M559.6,156.6l-1.5,4.5" class="g5_1" />
<path d="M570.1,147.3l-4.2,2.1" class="g5_1" />
<path d="M574.8,146.3l-4.7,1" class="g5_1" />
<path d="M579.6,146.6l-4.8,-0.3" class="g5_1" />
<path d="M584.2,148.1l-4.6,-1.5" class="g5_1" />
<path d="M586.7,149.8l-2.5,-1.7" class="g5_1" />
<path d="M561.2,1019.1l-1.6,2.4" class="g5_1" />
<path d="M586.4,1044.7l0.2,-0.1" class="g5_1" />
<path d="M582.1,1046.9l4.3,-2.2" class="g5_1" />
<path d="M577.4,1047.8l4.7,-0.9" class="g5_1" />
<path d="M572.7,1047.5l4.7,0.3" class="g5_1" />
<path d="M568.1,1046l4.6,1.5" class="g5_1" />
<path d="M565.9,1044.6l2.2,1.4" class="g5_1" />
<path d="M560.9,1039.8l0.3,0.3" class="g5_1" />
<path d="M558.8,1035.5l2.1,4.3" class="g5_1" />
<path d="M557.8,1030.8l1,4.7" class="g5_1" />
<path d="M558.1,1026l-0.3,4.8" class="g5_1" />
<path d="M559.6,1021.5l-1.5,4.5" class="g5_1" />
<path d="M1223.5,1037.5l1.6,-4.5" class="g5_1" />
<path d="M1224.4,1023.5l-2.2,-4.3" class="g5_1" />
<path d="M1225.1,1033l0.2,-4.8" class="g5_1" />
<path d="M1217.3,1044.7l0.2,-0.1" class="g5_1" />
<path d="M1213,1046.9l4.3,-2.2" class="g5_1" />
<path d="M1208.3,1047.8l4.7,-0.9" class="g5_1" />
<path d="M1203.6,1047.5l4.7,0.3" class="g5_1" />
<path d="M1199,1046l4.6,1.5" class="g5_1" />
<path d="M1196.8,1044.6l2.2,1.4" class="g5_1" />
<path d="M1222.2,1019.2l-0.3,-0.3" class="g5_1" />
<path d="M1225.3,1028.2l-0.9,-4.7" class="g5_1" />
<path d="M1221.9,1040l1.6,-2.5" class="g5_1" />
<path d="M1285.6,1108.2l0,-1022l-788,0l0,1022l788,0" class="g5_1" />
<path d="M781.5,604.1l0,440.5" class="g5_1" />
<path d="M561.2,604.1l220.3,0" class="g5_1" />
<path d="M1001.7,604.1l0,440.5l-220.2,0" class="g5_1" />
<path d="M781.5,604.1l220.2,0" class="g5_1" />
<path d="M561.2,604.1l0,-417.6" class="g5_1" />
<path d="M781.5,186.5l0,417.6" class="g5_1" />
<path d="M561.2,186.5l220.3,0" class="g5_1" />
<path d="M1001.7,186.5l0,417.6" class="g5_1" />
<path d="M781.5,186.5l220.2,0" class="g5_1" />
<path d="M1221.9,186.5l0,417.6l-220.2,0" class="g5_1" />
<path d="M1001.7,186.5l220.2,0" class="g5_1" />
<path d="M781.5,149.8l0,36.7" class="g5_1" />
<path d="M1001.7,149.8l0,36.7" class="g5_1" />
<path d="M781.5,149.8l220.2,0" class="g5_1" />
<path d="M1221.9,154l0,-4.2" class="g5_1" />
<path d="M561.2,149.8l0,4.4" class="g5_1" />
<path d="M1221.9,1044.6l0,-4.6" class="g5_1" />
<path d="M561.2,1040.1l0,4.5l4.7,0" class="g5_1" />
<path d="M561.2,1019.1l0,-415" class="g5_1" />
<path d="M561.2,186.5l0,-11.3" class="g5_1" />
<path d="M561.2,149.8l4.2,0" class="g5_1" />
<path d="M1221.9,175.1l0,11.4" class="g5_1" />
<path d="M1001.7,149.8l194.6,0" class="g5_1" />
<path d="M1221.9,1044.6l-4.4,0" class="g5_1" />
<path d="M1221.9,149.8l-4.3,0l-21.3,0" class="g5_1" />
<path d="M565.9,1044.6l20.7,0" class="g5_1" />
<path d="M781.5,1044.6l-194.9,0" class="g5_1" />
<path d="M565.4,149.8l21.3,0l194.8,0" class="g5_1" />
<path d="M1217.5,1044.6l-20.7,0l-195.1,0" class="g5_1" />
<path d="M1221.9,1018.9l0,-414.8" class="g5_1" />
<path d="M1221.9,154l0,21.1" class="g5_1" />
<path d="M561.2,154.2l0,21" class="g5_1" />
<path d="M1221.9,1040l0,-21.1" class="g5_1" />
<path d="M561.2,1040.1l0,-21" class="g5_1" />
<g clip-path="url(#c22_1)">
<path d="M561.2,136.1l0,-25.3" class="g1_1" />
<path d="M561.2,110.8l0,-11.4" class="g1_1" />
<path d="M1221.9,136.1l0,-25.3" class="g1_1" />
<path d="M1221.9,110.8l0,-11.4" class="g1_1" />
<path d="M572.7,110.8l637.8,0" class="g6_1" />
<path d="M562.4,110.8l10.3,-1.7l0,3.5l-10.3,-1.8Z" class="g4_1" />
<path d="M562.4,110.8l10.3,-1.7l0,3.5l-10.3,-1.8Z" class="g6_1" />
<path d="M1220.8,110.8l-10.3,1.8l0,-3.5l10.3,1.7Z" class="g4_1" />
<path d="M1220.8,110.8l-10.3,1.8l0,-3.5l10.3,1.7Z" class="g6_1" />
</g>
<g clip-path="url(#c23_1)">
<g fill="#000000" >
<use xlink:href="#f1_9" transform="matrix(9,0,0,9,873.3,103.4)" />
<use xlink:href="#f1_a" transform="matrix(9,0,0,9,881,103.4)" />
<use xlink:href="#f1_4" transform="matrix(9,0,0,9,888.6,103.4)" />
<use xlink:href="#f1_5" transform="matrix(9,0,0,9,891.2,103.4)" />
<use xlink:href="#f1_8" transform="matrix(9,0,0,9,895.8,103.4)" />
<use xlink:href="#f1_3" transform="matrix(9,0,0,9,903.5,103.4)" />
</g>
</g>


<g clip-path="url(#c24_1)">
<path d="M561.2,136.1l0,-2.1" class="g1_1" />
<path d="M561.2,134l0,-11.4" class="g1_1" />
<path d="M781.5,136.1l0,-2.1" class="g1_1" />
<path d="M781.5,134l0,-11.4" class="g1_1" />
<path d="M572.7,134L770,134" class="g6_1" />
<path d="M562.4,134l10.3,-1.7l0,3.4L562.4,134Z" class="g4_1" />
<path d="M562.4,134l10.3,-1.7l0,3.4L562.4,134Z" class="g6_1" />
<path d="M780.3,134L770,135.7l0,-3.4l10.3,1.7Z" class="g4_1" />
<path d="M780.3,134L770,135.7l0,-3.4l10.3,1.7Z" class="g6_1" />
</g>
<g clip-path="url(#c25_1)">
<g fill="#000000" >
<use xlink:href="#f1_b" transform="matrix(9,0,0,9,656.9,126.6)" />
<use xlink:href="#f1_4" transform="matrix(9,0,0,9,664.5,126.6)" />
<use xlink:href="#f1_5" transform="matrix(9,0,0,9,667.2,126.6)" />
<use xlink:href="#f1_8" transform="matrix(9,0,0,9,671.7,126.6)" />
<use xlink:href="#f1_3" transform="matrix(9,0,0,9,679.4,126.6)" />
</g>
</g>


<g clip-path="url(#c26_1)">
<path d="M781.5,136.1l0,-2.1" class="g1_1" />
<path d="M781.5,134l0,-11.4" class="g1_1" />
<path d="M1001.7,136.1l0,-2.1" class="g1_1" />
<path d="M1001.7,134l0,-11.4" class="g1_1" />
<path d="M792.9,134l197.3,0" class="g6_1" />
<path d="M782.6,134l10.3,-1.7l0,3.4L782.6,134Z" class="g4_1" />
<path d="M782.6,134l10.3,-1.7l0,3.4L782.6,134Z" class="g6_1" />
<path d="M1000.5,134l-10.3,1.7l0,-3.4l10.3,1.7Z" class="g4_1" />
<path d="M1000.5,134l-10.3,1.7l0,-3.4l10.3,1.7Z" class="g6_1" />
</g>
<g clip-path="url(#c27_1)">
<g fill="#000000" >
<use xlink:href="#f1_b" transform="matrix(9,0,0,9,877.1,126.6)" />
<use xlink:href="#f1_4" transform="matrix(9,0,0,9,884.8,126.6)" />
<use xlink:href="#f1_5" transform="matrix(9,0,0,9,887.4,126.6)" />
<use xlink:href="#f1_8" transform="matrix(9,0,0,9,892,126.6)" />
<use xlink:href="#f1_3" transform="matrix(9,0,0,9,899.6,126.6)" />
</g>
</g>


<g clip-path="url(#c28_1)">
<path d="M1001.7,136.1l0,-2.1" class="g1_1" />
<path d="M1001.7,134l0,-11.4" class="g1_1" />
<path d="M1221.9,136.1l0,-2.1" class="g1_1" />
<path d="M1221.9,134l0,-11.4" class="g1_1" />
<path d="M1013.2,134l197.3,0" class="g6_1" />
<path d="M1002.9,134l10.3,-1.7l0,3.4L1002.9,134Z" class="g4_1" />
<path d="M1002.9,134l10.3,-1.7l0,3.4L1002.9,134Z" class="g6_1" />
<path d="M1220.8,134l-10.3,1.7l0,-3.4l10.3,1.7Z" class="g4_1" />
<path d="M1220.8,134l-10.3,1.7l0,-3.4l10.3,1.7Z" class="g6_1" />
</g>
<g clip-path="url(#c29_1)">
<g fill="#000000" >
<use xlink:href="#f1_b" transform="matrix(9,0,0,9,1097.4,126.6)" />
<use xlink:href="#f1_4" transform="matrix(9,0,0,9,1105,126.6)" />
<use xlink:href="#f1_5" transform="matrix(9,0,0,9,1107.6,126.6)" />
<use xlink:href="#f1_8" transform="matrix(9,0,0,9,1112.2,126.6)" />
<use xlink:href="#f1_3" transform="matrix(9,0,0,9,1119.9,126.6)" />
</g>
</g>


<g clip-path="url(#c30_1)">
<path d="M1235.7,149.8l30.1,0" class="g1_1" />
<path d="M1265.8,149.8l11.5,0" class="g1_1" />
<path d="M1235.7,186.5l30.1,0" class="g1_1" />
<path d="M1265.8,186.5l11.5,0" class="g1_1" />
<path d="M1265.8,138.3l0,-11.4" class="g6_1" />
<path d="M1265.8,148.7l-1.7,-10.4l3.4,0l-1.7,10.4Z" class="g4_1" />
<path d="M1265.8,148.7l-1.7,-10.4l3.4,0l-1.7,10.4Z" class="g6_1" />
<path d="M1265.8,209.5l0,-11.5" class="g6_1" />
<path d="M1265.8,187.7l1.7,10.3l-3.4,0l1.7,-10.3Z" class="g4_1" />
<path d="M1265.8,187.7l1.7,10.3l-3.4,0l1.7,-10.3Z" class="g6_1" />
</g>
<g clip-path="url(#c31_1)">
<g fill="#000000" >
<use xlink:href="#f1_d" transform="matrix(0,-9,9,0,1258.4,175.2)" />
<use xlink:href="#f1_3" transform="matrix(0,-9,9,0,1258.4,167.6)" />
</g>
</g>


<g clip-path="url(#c32_1)">
<path d="M1235.7,186.5l30.1,0" class="g1_1" />
<path d="M1265.8,186.5l11.5,0" class="g1_1" />
<path d="M1235.7,604.1l30.1,0" class="g1_1" />
<path d="M1265.8,604.1l11.5,0" class="g1_1" />
<path d="M1265.8,198l0,394.6" class="g6_1" />
<path d="M1265.8,187.7l1.7,10.3l-3.4,0l1.7,-10.3Z" class="g4_1" />
<path d="M1265.8,187.7l1.7,10.3l-3.4,0l1.7,-10.3Z" class="g6_1" />
<path d="M1265.8,602.9l-1.7,-10.3l3.4,0l-1.7,10.3Z" class="g4_1" />
<path d="M1265.8,602.9l-1.7,-10.3l3.4,0l-1.7,10.3Z" class="g6_1" />
</g>
<g clip-path="url(#c33_1)">
<g fill="#000000" >
<use xlink:href="#f1_c" transform="matrix(0,-9,9,0,1258.4,409.8)" />
<use xlink:href="#f1_4" transform="matrix(0,-9,9,0,1258.4,402.1)" />
<use xlink:href="#f1_5" transform="matrix(0,-9,9,0,1258.4,399.5)" />
<use xlink:href="#f1_c" transform="matrix(0,-9,9,0,1258.4,394.9)" />
<use xlink:href="#f1_3" transform="matrix(0,-9,9,0,1258.4,387.3)" />
</g>
</g>


<g clip-path="url(#c34_1)">
<path d="M1235.7,1044.6l30.1,0" class="g1_1" />
<path d="M1265.8,1044.6l11.5,0" class="g1_1" />
<path d="M1235.7,604.1l30.1,0" class="g1_1" />
<path d="M1265.8,604.1l11.5,0" class="g1_1" />
<path d="M1265.8,1033.1l0,-417.6" class="g6_1" />
<path d="M1265.8,1043.4l-1.7,-10.3l3.4,0l-1.7,10.3Z" class="g4_1" />
<path d="M1265.8,1043.4l-1.7,-10.3l3.4,0l-1.7,10.3Z" class="g6_1" />
<path d="M1265.8,605.2l1.7,10.3l-3.4,0l1.7,-10.3Z" class="g4_1" />
<path d="M1265.8,605.2l1.7,10.3l-3.4,0l1.7,-10.3Z" class="g6_1" />
</g>
<g clip-path="url(#c35_1)">
<g fill="#000000" >
<use xlink:href="#f1_d" transform="matrix(0,-9,9,0,1258.4,838.8)" />
<use xlink:href="#f1_4" transform="matrix(0,-9,9,0,1258.4,831.1)" />
<use xlink:href="#f1_5" transform="matrix(0,-9,9,0,1258.4,828.5)" />
<use xlink:href="#f1_8" transform="matrix(0,-9,9,0,1258.4,823.9)" />
<use xlink:href="#f1_3" transform="matrix(0,-9,9,0,1258.4,816.3)" />
</g>
</g>


<path d="M279.6,712.9L277,475.1l-57.4,121l60,116.8Z" class="g7_1" />
<path d="M279.7,693.1l-9.6,0.1l-4.6,-9l14.1,-0.1l0,-7.9l-18.2,0.1l-4.7,-9.1l22.7,-0.1L279.2,660l-26,0.1l-4.8,-9.2l30.8,0.2L279,642.8L244.4,643c0,0,-4.7,-9.1,-4.7,-9.1l39.2,-0.1l-0.2,-8.5l-43.3,0.3l-4.1,-8.1l47.3,-0.2l0,-7.8l-51.4,0.4L223,601.7l55.4,-0.3l-0.1,-8l-57.7,0.4l4.1,-8.8l53.5,-0.3l-0.1,-9.2L229,575.9l4,-8.4l45,-0.3l-0.1,-9l-40.7,0.3l4,-8.4l36.6,-0.2L277.7,542l-32.8,0.2l4.6,-9.7l28.1,-0.2l-0.1,-7.9l-24.3,0.2l3.7,-7.9l20.4,-0.1l-0.1,-8.3l-16.4,0.1l3.4,-7.3L277.1,501L277,491.3l-8.2,-0.1" class="g7_1" />
<g clip-path="url(#c36_1)">
<path d="M281.3,724.6l53.5,0l0,-45.8l-53.5,0l0,45.8Z" class="g4_1" />
</g>
<g clip-path="url(#c37_1)">
<path d="M281.3,674.2l55,0l0,-51.9l-55,0l0,51.9Z" class="g4_1" />
</g>
<g clip-path="url(#c38_1)">
<path d="M281.3,616.2l53.5,0l0,-50.5l-53.5,0l0,50.5Z" class="g4_1" />
</g>
<g clip-path="url(#c39_1)">
<path d="M281.3,561.2l53.5,0l0,-45.9l-53.5,0l0,45.9Z" class="g4_1" />
</g>
<g clip-path="url(#c40_1)">
<path d="M281.3,509.2l53.5,0l0,-45.8l-53.5,0l0,45.8Z" class="g4_1" />
</g>

<defs>
	<path d="M125.2,0l0,1093.2l338.3,0L463.5,0Z" 
	id="f0_9"
	transform="scale(0.001,-0.001)" />

	<path d="M561,-18.5c0,0,-279.1,0,-386.6,107.4c0,0,-107.4,107.5,-121.6,273.3l321.7,20.1c0,0,10.4,-78.3,42.5,-119.4c0,0,52.2,-66.4,149.1,-66.4c0,0,72.3,0,111.5,34c0,0,39.1,33.9,39.1,78.6c0,0,0,42.5,-37.2,76c0,0,-37.2,33.6,-173,63.4c0,0,-222.3,49.9,-317.1,132.6c0,0,-95.5,82.7,-95.5,210.9c0,0,0,84.2,48.8,159.1c0,0,48.9,74.9,147,117.8c0,0,98.1,42.8,268.8,42.8c0,0,209.7,0,319.7,-77.8c0,0,110,-77.9,130.9,-247.7L690.3,767.6c0,0,-12.6,73.7,-53.2,107.2c0,0,-40.5,33.6,-112,33.6c0,0,-58.8,0,-88.6,-25c0,0,-29.7,-25,-29.7,-60.8c0,0,0,-26.1,24.5,-46.9c0,0,23.7,-21.6,113.3,-40.3c0,0,221.6,-47.7,317.4,-96.5c0,0,95.9,-48.9,139.6,-121.2c0,0,43.6,-72.4,43.6,-161.9c0,0,0,-105.1,-58.2,-193.9c0,0,-58.2,-88.7,-162.6,-134.6c0,0,-104.5,-45.8,-263.4,-45.8Z" 
	id="f0_d"
	transform="scale(0.001,-0.001)" />

	<path d="M663.8,-18.5c0,0,-79.9,0,-174.2,11.2c0,0,-94.4,11.1,-157.8,44.2c0,0,-63.4,33.2,-116,94.3c0,0,-52.6,61.1,-72,125.9c0,0,-31.4,104.3,-31.4,184.8l0,651.3l337.4,0l0,-666.6c0,0,0,-89.4,49.6,-139.7c0,0,49.5,-50.3,137.5,-50.3c0,0,87.2,0,136.8,49.6c0,0,49.6,49.5,49.6,140.4l0,666.6l337.3,0l0,-651.3c0,0,0,-96.9,-30.2,-182.9c0,0,-30.2,-86.1,-94.7,-150.5c0,0,-64.6,-64.5,-135.4,-90.6c0,0,-98.5,-36.4,-236.5,-36.4Z" 
	id="f0_f"
	transform="scale(0.001,-0.001)" />

	<path d="M111.5,0l0,1093.2l905.4,0l0,-233.7l-567.1,0l0,-174.1l526,0l0,-222.9l-526,0l0,-215.1l583.7,0L1033.5,0Z" 
	id="f0_8"
	transform="scale(0.001,-0.001)" />

	<path d="M537.4,248.4c0,0,105.7,0,150.4,23.4c0,0,44.7,23.5,70.1,82.1c0,0,25.3,58.5,25.3,189.8c0,0,0,173.8,-56.6,237.9c0,0,-56.6,64.2,-187.8,64.2l-84.1,0l0,-597.4ZM116.4,0l0,1093.2l501.9,0c0,0,148.4,0,239.8,-40.3c0,0,91.4,-40.3,151,-115.6c0,0,59.7,-75.3,86.5,-175.2c0,0,26.9,-100,26.9,-211.8c0,0,0,-175.2,-39.9,-271.8c0,0,-39.9,-96.6,-110.8,-161.8c0,0,-70.8,-65.3,-152.1,-86.9C819.7,29.8,708.6,0,618.3,0Z" 
	id="f0_7"
	transform="scale(0.001,-0.001)" />

	<path d="M713.1,417.5L593,810.1L473.9,417.5ZM2,0L412.2,1093.2l369.1,0L1191.9,0L838.3,0L783.7,180.9l-382.5,0L347.3,0Z" 
	id="f0_6"
	transform="scale(0.001,-0.001)" />

	<path d="M379.4,0l0,823.3l-344.2,0l0,269.9l1026.7,0l0,-269.9l-344.2,0L717.7,0Z" 
	id="f0_e"
	transform="scale(0.001,-0.001)" />

	<path d="M598.1,650.2c0,0,23.1,0,89.5,14.9c0,0,33.5,6.7,54.8,34.3c0,0,21.3,27.5,21.3,63.3c0,0,0,52.9,-33.6,81.2c0,0,-33.6,28.3,-126,28.3l-148.5,0l0,-222ZM116.4,0l0,1093.2l563,0c0,0,156.6,0,239.3,-26.9c0,0,82.8,-26.8,133.5,-99.5c0,0,50.7,-72.7,50.7,-177c0,0,0,-91,-38.8,-157c0,0,-38.9,-65.9,-106.9,-106.9c0,0,-43.4,-26.1,-118.8,-43.3c0,0,60.5,-20.1,88.2,-40.2c0,0,18.7,-13.5,54.2,-57.5c0,0,35.6,-44,47.5,-67.9L1191.9,0l-382,0L629.3,334.2c0,0,-34.3,64.9,-61.1,84.3c0,0,-36.6,25.4,-82.8,25.4l-29.8,0L455.6,0Z" 
	id="f0_c"
	transform="scale(0.001,-0.001)" />

	<path d="M636.4,234.7c0,0,108.8,0,168.4,70.7c0,0,59.6,70.7,59.6,253.9c0,0,0,154.1,-62.2,225.2c0,0,-62.2,71.1,-168.8,71.1c0,0,-102,0,-163.8,-72.2c0,0,-61.9,-72.3,-61.9,-239c0,0,0,-165.3,61.5,-237.5c0,0,61.4,-72.2,167.2,-72.2ZM647.6,-18.5c0,0,-185,0,-306.2,58.8c0,0,-121.3,58.9,-196.6,186.4c0,0,-75.4,127.5,-75.4,319.1c0,0,0,267.7,149.2,416.8c0,0,149.2,149.1,415.6,149.1c0,0,273,0,420.7,-146.5c0,0,147.8,-146.5,147.8,-410.4c0,0,0,-191.6,-64.6,-314.3c0,0,-64.5,-122.6,-186.5,-190.8c0,0,-122,-68.2,-304,-68.2Z" 
	id="f0_b"
	transform="scale(0.001,-0.001)" />

	<path d="M243.1,0L0,1093.2l320.7,0L436.3,483.1l169.2,610.1l318.5,0l169.7,-609l116.3,609l319.2,0L1288.2,0L956.9,0L765.1,688.2L574.2,0Z" 
	id="f0_g"
	transform="scale(0.001,-0.001)" />

	<path d="M114.4,0l0,1093.2l315.5,0l411,-604.1l0,604.1l318.7,0L1159.6,0L840.9,0L432.2,600.8L432.2,0Z" 
	id="f0_a"
	transform="scale(0.001,-0.001)" />

	<path d="M92.9,0l0,304.1l324.6,0L417.5,0Z" 
	id="f0_3"
	transform="scale(0.001,-0.001)" />

	<path d="M507.8,188.7c0,0,46.3,0,80.3,32.4c0,0,34,32.5,50,102.5c0,0,16,70,16,218.3c0,0,0,217.7,-36.9,292.5c0,0,-37,74.9,-110.9,74.9c0,0,-75.4,0,-109,-76.3c0,0,-33.6,-76.4,-33.6,-282.9c0,0,0,-208.6,37,-285c0,0,36.9,-76.4,107.1,-76.4Zm0.9,-207.2c0,0,-138,0,-223.1,43.9c0,0,-85,44,-139.5,129c0,0,-39.5,60.4,-61.5,165.1c0,0,-22,104.8,-22,231.5c0,0,0,311.7,112.2,436.2c0,0,112.3,124.5,342.1,124.5c0,0,110.4,0,181.2,-27.2c0,0,70.9,-27.2,115.7,-70.8c0,0,44.7,-43.6,70.5,-91.7c0,0,25.7,-48.1,41.4,-112.2c0,0,30.6,-122.3,30.6,-255c0,0,0,-297.5,-100.7,-435.4c0,0,-100.8,-137.9,-346.9,-137.9Z" 
	id="f0_4"
	transform="scale(0.001,-0.001)" />

	<path d="M486.4,551.5c0,0,64.4,0,107,46.9c0,0,42.7,47,42.7,134.3c0,0,0,88.7,-44.9,139c0,0,-44.9,50.4,-109.3,50.4c0,0,-60.6,0,-100.6,-45.5c0,0,-40.1,-45.5,-40.1,-136.5c0,0,0,-91.7,41.6,-140.2c0,0,41.5,-48.4,103.6,-48.4Zm-2.1,-570c0,0,-130.5,0,-205.9,30.1c0,0,-75.3,30.3,-125.3,88.5c0,0,-50,58.2,-76.8,145.5l302.1,38c0,0,11.9,-63.3,40.3,-89.4c0,0,28.4,-26,69.5,-26c0,0,73.2,0,114.3,73.6c0,0,29.8,54.4,44.8,229.9c0,0,-54.5,-55.8,-112,-81.9c0,0,-57.5,-26.1,-133,-26.1c0,0,-147.1,0,-248.3,104.4c0,0,-101.2,104.4,-101.2,264c0,0,0,108.9,51.5,198.4c0,0,51.5,89.5,141.8,135.4c0,0,90.3,45.8,226.9,45.8c0,0,164.1,0,263.4,-56.3c0,0,99.2,-56.3,158.6,-178.9c0,0,59.3,-122.7,59.3,-324c0,0,0,-296,-124.6,-433.5c0,0,-124.6,-137.5,-345.4,-137.5Z" 
	id="f0_5"
	transform="scale(0.001,-0.001)" />

	<path d="M396,0l0,964.1l-360.8,0l0,129.1l867.3,0l0,-129.1l-361.8,0L540.7,0Z" 
	id="f1_l"
	transform="scale(0.001,-0.001)" />

	<path d="M100.7,0l0,1093.2l134,0l0,-392.3c0,0,94,108.7,237.4,108.7c0,0,88,0,153,-34.7c0,0,65,-34.6,92.9,-95.8c0,0,28,-61.1,28,-177.4L746,0L612.1,0l0,501.8c0,0,0,100.7,-43.7,146.6c0,0,-43.7,45.8,-123.7,45.8c0,0,-59.8,0,-112.5,-30.9c0,0,-52.7,-31,-75.1,-83.9c0,0,-22.4,-52.9,-22.4,-146.2L234.7,0Z" 
	id="f1_s"
	transform="scale(0.001,-0.001)" />

	<path d="M101.7,0l0,792l133.9,0l0,-792Zm0,938.7l0,154.5l133.9,0l0,-154.5Z" 
	id="f1_t"
	transform="scale(0.001,-0.001)" />

	<path d="M385.8,-17.5c0,0,-154.5,0,-235.5,64c0,0,-81,64.1,-103.4,190.1l133,20.6c0,0,11.2,-79.6,62.3,-121.9c0,0,51.2,-42.4,143,-42.4c0,0,92.6,0,137.4,37.6c0,0,44.8,37.6,44.8,88.2c0,0,0,45.4,-39.7,71.4c0,0,-27.7,17.9,-137.4,45.4c0,0,-147.6,37.3,-204.7,64.5c0,0,-57.2,27.2,-86.7,75.3c0,0,-29.5,48.1,-29.5,106.2c0,0,0,52.9,24.3,98c0,0,24.2,45.1,65.9,74.9c0,0,31.4,23.1,85.4,39.2c0,0,54.1,16,116,16c0,0,93.2,0,163.7,-26.8c0,0,70.4,-26.8,104,-72.6c0,0,33.6,-45.8,46.2,-122.5l-131,-17.6c0,0,-8.9,60.8,-51.8,94.9c0,0,-42.9,34.1,-121.1,34.1c0,0,-92.5,0,-132,-30.5c0,0,-39.5,-30.5,-39.5,-71.5c0,0,0,-26,16.4,-46.8c0,0,16.4,-21.6,51.4,-35.8c0,0,20.2,-7.4,118.6,-34.2c0,0,142.4,-38,198.7,-62.2c0,0,56.4,-24.3,88.5,-70.5c0,0,32.1,-46.2,32.1,-114.8c0,0,0,-67,-39.1,-126.3c0,0,-39.2,-59.3,-113.1,-91.7c0,0,-73.9,-32.3,-167.2,-32.3Z" 
	id="f1_11"
	transform="scale(0.001,-0.001)" />

	<path d="M247.3,0L4.4,792l138.7,0l127,-456.8L316.3,164.8c0,0,2.9,12.7,41.2,163.4L484.2,792l136.1,0L739.7,332.6L778.8,181.2l45.4,153.3L960.2,792l130.5,0L842.7,0L703.9,0L577.7,474.3l-30.6,135L385.8,0Z" 
	id="f1_15"
	transform="scale(0.001,-0.001)" />

	<path d="M422.3,92.9c0,0,100,0,166.4,75.9c0,0,66.4,76,66.4,231.6c0,0,0,146.6,-66.8,222.2c0,0,-66.8,75.5,-166,75.5c0,0,-100.8,0,-167.2,-75.1c0,0,-66.4,-75.2,-66.4,-227.1c0,0,0,-151.9,66.4,-227.4c0,0,66.4,-75.6,167.2,-75.6Zm0,-110.4c0,0,-166.4,0,-268.9,106.5c0,0,-102.6,106.5,-102.6,307c0,0,0,219.8,122.4,325.7c0,0,102.2,87.9,249.1,87.9c0,0,163.3,0,267,-106.9c0,0,103.7,-107,103.7,-295.5c0,0,0,-152.8,-45.9,-240.4c0,0,-45.9,-87.5,-133.5,-136c0,0,-87.6,-48.3,-191.3,-48.3Z" 
	id="f1_y"
	transform="scale(0.001,-0.001)" />

	<path d="M98.8,0l0,792L219,792l0,-120.5c0,0,46.4,84.4,85.6,111.2c0,0,39.3,26.9,86.4,26.9c0,0,68,0,138.3,-43l-47,-124.3c0,0,-49.1,28.5,-98.3,28.5c0,0,-43.9,0,-78.9,-26.5c0,0,-35,-26.4,-49.9,-73.4c0,0,-22.5,-71.5,-22.5,-156.5L232.7,0Z" 
	id="f1_10"
	transform="scale(0.001,-0.001)" />

	<path d="M101.5,0l0,1093.2l133.9,0l0,-622.8L553.8,792l173.9,0L424.8,497.7L758,0L592.5,0l-263,405.1L235.4,313.7L235.4,0Z" 
	id="f1_u"
	transform="scale(0.001,-0.001)" />

	<path d="M97.8,0l0,1093.2l133.9,0L231.7,0Z" 
	id="f1_v"
	transform="scale(0.001,-0.001)" />

	<path d="M419.7,-17.5c0,0,-162.5,0,-261.3,106.1c0,0,-98.8,106.2,-98.8,304.4c0,0,0,128.2,42.5,224.3c0,0,42.5,96.2,129.4,144.2c0,0,86.8,48.1,189,48.1c0,0,128.9,0,210.9,-65.2c0,0,82,-65.2,105.1,-185.1l-131,-20.5c0,0,-18.6,79.8,-65.9,120c0,0,-47.2,40.3,-114.3,40.3c0,0,-101.2,0,-164.5,-72.6c0,0,-63.3,-72.6,-63.3,-229.8c0,0,0,-159.3,61.1,-231.6c0,0,61.2,-72.2,159.6,-72.2c0,0,79,0,131.9,48.4c0,0,53,48.5,67.2,149.1L749.2,272.8c0,0,-21.6,-136.3,-110.7,-213.3c0,0,-89.1,-77,-218.8,-77Z" 
	id="f1_o"
	transform="scale(0.001,-0.001)" />

	<path d="M644.4,472.3c0,0,-9,99.6,-50.8,149.5c0,0,-64.3,77.3,-166.6,77.3c0,0,-92.6,0,-155.7,-61.7c0,0,-63.2,-61.8,-69.9,-165.1ZM433.2,-17.5c0,0,-173.8,0,-275.6,106.8c0,0,-101.9,107,-101.9,300c0,0,0,199.7,103,310c0,0,102.9,110.3,267.1,110.3c0,0,158.9,0,259.6,-108c0,0,100.7,-108.1,100.7,-304.1c0,0,0,-11.9,-0.7,-35.7l-591.8,0c0,0,7.5,-130.4,74,-199.6c0,0,66.5,-69.3,166,-69.3c0,0,74,0,126.3,38.9c0,0,52.3,39,83,124.4L781.7,238.6c0,0,-32.9,-121.8,-121.7,-189c0,0,-88.7,-67.1,-226.8,-67.1Z" 
	id="f1_q"
	transform="scale(0.001,-0.001)" />

	<path d="M100.7,0l0,792L221,792l0,-112.6c0,0,87.3,130.2,252.2,130.2c0,0,71.6,0,131.7,-25.7c0,0,60.1,-25.7,89.9,-67.5c0,0,29.9,-41.7,41.8,-99.1c0,0,7.5,-37.3,7.5,-130.5L744.1,0l-134,0l0,481.6c0,0,0,82,-15.6,122.6c0,0,-15.7,40.6,-55.6,64.8c0,0,-40,24.3,-93.7,24.3c0,0,-85.9,0,-148.2,-54.5c0,0,-62.3,-54.4,-62.3,-206.5L234.7,0Z" 
	id="f1_x"
	transform="scale(0.001,-0.001)" />

	<path d="M405.6,92.9c0,0,88.1,0,149.7,71.8c0,0,61.7,71.9,61.7,219.3c0,0,0,162.3,-62.8,238.2c0,0,-62.7,75.9,-154.6,75.9c0,0,-89.6,0,-149.8,-72.9c0,0,-60.1,-73,-60.1,-230.1c0,0,0,-151.8,64.2,-227c0,0,64.3,-75.2,151.7,-75.2ZM393.2,-17.5c0,0,-94.9,0,-174.4,52.1c0,0,-79.6,52.1,-123.3,145.6c0,0,-43.7,93.6,-43.7,215.1c0,0,0,118.4,39.5,214.9c0,0,39.6,96.6,118.6,148c0,0,79.1,51.4,176.8,51.4c0,0,71.6,0,127.6,-30.3c0,0,55.9,-30.3,91,-78.9l0,392.8l133.9,0L739.2,0L615,0l0,100.4c0,0,-75.4,-117.9,-221.8,-117.9Z" 
	id="f1_p"
	transform="scale(0.001,-0.001)" />

	<path d="M369.1,-17.5c0,0,-70.3,0,-131.2,26.7c0,0,-60.9,26.9,-90.4,67.5c0,0,-29.5,40.6,-41.5,99.5c0,0,-8.2,39.5,-8.2,125.3l0,490.5l133.9,0l0,-439.2c0,0,0,-105.1,8.3,-141.7c0,0,12.6,-52.9,53.8,-83.1c0,0,41.1,-30.2,101.6,-30.2c0,0,60.6,0,113.7,30.9c0,0,53,31,75.1,84.3c0,0,22,53.3,22,154.7l0,424.3l134,0l0,-792L620.9,0l0,116.4c0,0,-92.7,-133.9,-251.8,-133.9Z" 
	id="f1_13"
	transform="scale(0.001,-0.001)" />

	<path d="M357.9,88c0,0,77.9,0,138.6,33.9c0,0,60.8,33.9,89.2,92.5c0,0,21.8,45.3,21.8,133.6l0.7,49c0,0,-73.6,-29.7,-220.7,-50.5c0,0,-83.4,-11.9,-117.9,-26.8c0,0,-34.6,-14.8,-53.3,-43.4c0,0,-18.8,-28.6,-18.8,-63.5c0,0,0,-53.5,40.8,-89.1c0,0,40.9,-35.7,119.6,-35.7ZM326.2,-17.5c0,0,-130.9,0,-201.2,63.6c0,0,-70.2,63.7,-70.2,162.9c0,0,0,58.1,26.5,106.1c0,0,26.6,48.1,69.6,77.2c0,0,43,29,96.8,43.9c0,0,39.7,10.5,119.7,20.2c0,0,163,19.3,240.1,46.2c0,0,0.7,27.5,0.7,34.9c0,0,0,81.8,-38.2,115.3c0,0,-51.6,45.3,-153.4,45.3c0,0,-95.1,0,-140.4,-32.9c0,0,-45.3,-33,-67,-116.6l-131,17.5c0,0,17.9,84.2,59,135.9c0,0,41.1,51.8,118.8,79.7c0,0,77.7,27.9,180.1,27.9c0,0,101.6,0,165.1,-23.8c0,0,63.5,-23.9,93.4,-60c0,0,29.8,-36.1,41.8,-91.3c0,0,6.7,-34.2,6.7,-123.6l0,-178.7c0,0,0,-186.8,8.5,-236.6c0,0,8.5,-49.9,33.6,-95.6L645.3,0c0,0,-20.5,41.8,-26.3,97.8c0,0,-75.2,-63.3,-144.4,-89.3c0,0,-69.2,-26,-148.4,-26Z" 
	id="f1_m"
	transform="scale(0.001,-0.001)" />

	<path d="M590.1,-18.5c0,0,-176.8,0,-287.5,71.9c0,0,-110.7,72,-168.5,208.6c0,0,-57.8,136.6,-57.8,293.3c0,0,0,170.9,65.2,298.1c0,0,65.3,127.2,185.7,193.3c0,0,120.5,66,265.2,66c0,0,164,0,275.9,-83.6c0,0,111.8,-83.6,155.8,-235.2L881.4,760.4c0,0,-38,119.3,-110.3,173.7c0,0,-72.2,54.4,-181.7,54.4c0,0,-125.9,0,-210.5,-60.4c0,0,-84.5,-60.4,-118.8,-162.1c0,0,-34.2,-101.8,-34.2,-210c0,0,0,-139.4,40.6,-243.5c0,0,40.6,-104,126.3,-155.4c0,0,85.7,-51.5,185.5,-51.5c0,0,121.5,0,205.7,70.1c0,0,84.2,70.1,114,208.1l144.7,-36.6c0,0,-45.5,-178.4,-163.7,-272.1c0,0,-118.2,-93.6,-288.9,-93.6Z" 
	id="f1_g"
	transform="scale(0.001,-0.001)" />

	<path d="M312,-10.6c0,0,-73.3,0,-113.6,23c0,0,-40.4,23.1,-56.8,60.8c0,0,-16.4,37.6,-16.4,158.5l0,455.7l-98.8,0l0,104.6l98.8,0l0,196.2l133.9,80.6l0,-276.8l135,0l0,-104.6l-135,0l0,-463.3c0,0,0,-57.5,7.1,-73.9c0,0,7.1,-16.4,23.1,-26.1c0,0,16,-9.7,45.9,-9.7c0,0,22.3,0,58.9,5.4L413.6,1.2c0,0,-56.8,-11.8,-101.6,-11.8Z" 
	id="f1_12"
	transform="scale(0.001,-0.001)" />

	<path d="M319.9,0L19.6,792l141.7,0L331.1,317.7c0,0,27.6,-76.8,50.7,-159.6c0,0,17.9,62.6,50,150.6L608,792l138,0L446.9,0Z" 
	id="f1_14"
	transform="scale(0.001,-0.001)" />

	<path d="M100.7,0l0,792L220,792l0,-111.4c0,0,37.3,58.2,99.2,93.6c0,0,62,35.4,141.1,35.4c0,0,88,0,144.4,-36.5c0,0,56.3,-36.6,79.4,-102.2c0,0,94.2,138.7,245.1,138.7c0,0,118.1,0,181.6,-65.2c0,0,63.5,-65.3,63.5,-200.9L1174.3,0L1040.4,0l0,498.7c0,0,0,80.5,-13.1,115.9c0,0,-13.1,35.4,-47.4,57c0,0,-34.4,21.7,-80.7,21.7c0,0,-83.7,0,-138.9,-55.6c0,0,-55.3,-55.5,-55.3,-177.8L705,0L571,0l0,514.3c0,0,0,89.5,-32.8,134.2c0,0,-32.8,44.8,-107.4,44.8c0,0,-56.7,0,-104.8,-29.8c0,0,-48.1,-29.9,-69.7,-87.3c0,0,-21.6,-57.4,-21.6,-165.5L234.7,0Z" 
	id="f1_w"
	transform="scale(0.001,-0.001)" />

	<path d="M684,449.8L570.4,752.1c0,0,-52.4,138,-78.1,226.7c0,0,-21.1,-105.2,-59.3,-208.8L313.3,449.8ZM-1.5,0L417.3,1093.2l156.7,0L1021.4,0L856.5,0L729,331.5l-457.9,0L151.6,0Z" 
	id="f1_f"
	transform="scale(0.001,-0.001)" />

	<path d="M432.6,92.9c0,0,88.2,0,152.4,76.3c0,0,64.3,76.4,64.3,227.5c0,0,0,155,-61.7,228.7c0,0,-61.6,73.7,-149,73.7c0,0,-88.1,0,-152.4,-76.3c0,0,-64.2,-76.4,-64.2,-220.8c0,0,0,-142.3,38.8,-205.6c0,0,63.5,-103.5,171.8,-103.5ZM444.3,-17.5c0,0,-140.5,0,-220.4,117.1L223.9,0L99.7,0l0,1093.2l134,0l0,-390.3c0,0,85.1,106.7,217.3,106.7c0,0,73.2,0,138.6,-29.4c0,0,65.3,-29.5,107.5,-82.8c0,0,42.2,-53.2,66.1,-128.5c0,0,23.9,-75.3,23.9,-161c0,0,0,-203.4,-100.8,-314.4c0,0,-100.9,-111,-242,-111Z" 
	id="f1_n"
	transform="scale(0.001,-0.001)" />

	<path d="M47.9,328.5l0,135l413,0l0,-135Z" 
	id="f1_5"
	transform="scale(0.001,-0.001)" />

	<path d="M534.6,-18.5c0,0,-148.4,0,-248.8,43.3c0,0,-100.3,43.3,-157.3,130.3c0,0,-57.1,87.1,-60.1,196.9l136.9,11.7c0,0,9.7,-82.4,45.1,-135.2c0,0,35.4,-52.8,109.9,-85.4c0,0,74.5,-32.6,167.6,-32.6c0,0,82.7,0,146,24.7c0,0,63.3,24.8,94.2,67.8c0,0,30.9,43.1,30.9,93.8c0,0,0,51.5,-29.9,89.9c0,0,-29.9,38.4,-98.5,64.6c0,0,-44,17.2,-194.6,53.4c0,0,-150.6,36.3,-211.1,68.4c0,0,-78.4,41,-116.9,101.8c0,0,-38.5,60.9,-38.5,136.2c0,0,0,82.9,47,154.9c0,0,47,72.1,137.3,109.4c0,0,90.3,37.3,200.7,37.3c0,0,121.6,0,214.5,-39.1c0,0,92.9,-39.2,142.9,-115.2c0,0,50,-76.1,53.7,-172.3L766.8,775.4c0,0,-11.2,104,-75.7,157.1c0,0,-64.5,53.1,-190.5,53.1c0,0,-131.2,0,-191.2,-48.2c0,0,-60.1,-48.2,-60.1,-116.2c0,0,0,-59,42.5,-97.2c0,0,41.8,-38.1,218.1,-78c0,0,176.4,-40,242.1,-69.9c0,0,95.7,-44,141.3,-111.5c0,0,45.6,-67.5,45.6,-155.6c0,0,0,-87.3,-50,-164.5c0,0,-50,-77.3,-143.6,-120.2c0,0,-93.6,-42.8,-210.7,-42.8Z" 
	id="f1_k"
	transform="scale(0.001,-0.001)" />

	<path d="M493.8,385.2l0,492.6L151.6,385.2ZM493.8,0l0,262L19.6,262l0,123.2l498.7,708l109.4,0l0,-708l147.7,0l0,-123.2l-147.7,0l0,-262Z" 
	id="f1_b"
	transform="scale(0.001,-0.001)" />

	<path d="M138.8,0l0,152.5l152.6,0L291.4,0Z" 
	id="f1_6"
	transform="scale(0.001,-0.001)" />

	<path d="M420,91.9c0,0,92.4,0,155.5,89.2c0,0,63,89.3,63,358.2c0,0,0,269.8,-62.9,358.6c0,0,-62.9,88.7,-157.1,88.7c0,0,-92.5,0,-148,-78.3c0,0,-69.1,-99.9,-69.1,-369c0,0,0,-269.7,63,-358.5c0,0,63.1,-88.9,155.6,-88.9Zm0,-110.4c0,0,-158.1,0,-248.3,112.8c0,0,-108.1,137,-108.1,445.1c0,0,0,193.9,39.8,312.4c0,0,39.9,118.4,118.6,182.3c0,0,78.7,63.9,198,63.9c0,0,87.9,0,154.5,-35.4c0,0,66.6,-35.4,109.6,-102.2c0,0,43,-66.7,67.6,-162.6c0,0,24.7,-95.8,24.7,-258.4c0,0,0,-192.5,-39.6,-311c0,0,-39.5,-118.4,-118.1,-182.7c0,0,-78.7,-64.2,-198.7,-64.2Z" 
	id="f1_8"
	transform="scale(0.001,-0.001)" />

	<path d="M142.8,0l0,1093.2l144.7,0L287.5,0Z" 
	id="f1_i"
	transform="scale(0.001,-0.001)" />

	<path d="M111.5,0l0,1093.2l144.7,0l0,-964.1l538.7,0L794.9,0Z" 
	id="f1_j"
	transform="scale(0.001,-0.001)" />

	<path d="M433.5,92.9c0,0,89.4,0,153,75.6c0,0,63.7,75.5,63.7,234c0,0,0,151.1,-62.1,226.3c0,0,-62.2,75.2,-148.6,75.2c0,0,-85.7,0,-151.6,-80c0,0,-65.9,-80,-65.9,-232.6c0,0,0,-152.6,61.8,-225.6c0,0,61.8,-72.9,149.7,-72.9ZM100.7,-304l0,1096l122.2,0l0,-103.6c0,0,43.3,60.6,97.7,90.9c0,0,54.4,30.3,132,30.3c0,0,101.4,0,178.9,-52.2c0,0,77.6,-52.1,117.1,-147.2c0,0,39.5,-95,39.5,-208.2c0,0,0,-121.5,-43.6,-218.8c0,0,-43.7,-97.2,-126.8,-149c0,0,-83.2,-51.7,-174.9,-51.7c0,0,-67.2,0,-120.5,28.3c0,0,-53.3,28.3,-87.6,71.6l0,-386.4Z" 
	id="f1_z"
	transform="scale(0.001,-0.001)" />

	<path d="M137.9,0l0,152.5l152.5,0L290.4,0Zm0,639.5l0,152.5l152.5,0l0,-152.5Z" 
	id="f1_e"
	transform="scale(0.001,-0.001)" />

	<path d="M0,-18.5L316.8,1112.7l108.1,0L108.2,-18.5Z" 
	id="f1_7"
	transform="scale(0.001,-0.001)" />

	<path d="M404.3,111.5c0,0,92.3,0,154.9,71.1c0,0,62.5,71.1,62.5,222.9c0,0,0,145.2,-64.4,218.9c0,0,-64.4,73.7,-155.3,73.7c0,0,-89.3,0,-151.9,-72.6c0,0,-62.5,-72.6,-62.5,-215.5c0,0,0,-155.6,61.8,-227.1c0,0,61.8,-71.4,154.9,-71.4ZM389.6,-321.6c0,0,-141.8,0,-229.2,63.9c0,0,-87.3,63.8,-84.3,192.3l131,-19.5c0,0,8.2,-60.4,45.5,-88c0,0,49.9,-37.2,136.3,-37.2c0,0,93.2,0,143.8,37.3c0,0,50.7,37.2,68.6,104.3c0,0,10.4,41,9.7,172.1C611,103.6,523,0,391.8,0c0,0,-163.2,0,-252.7,117.8c0,0,-89.4,117.8,-89.4,282.5c0,0,0,113.3,41,209.1c0,0,41,95.8,118.9,148c0,0,77.9,52.2,183,52.2c0,0,140.1,0,231.1,-113.4l0,95.8l124.1,0l0,-684.8c0,0,0,-184.8,-37.7,-262.1c0,0,-37.7,-77.2,-119.4,-121.9c0,0,-81.7,-44.8,-201.1,-44.8Z" 
	id="f1_r"
	transform="scale(0.001,-0.001)" />

	<path d="M181.6,-321.6c0,0,-38.9,0,-86.8,16.5L80.2,-178.6c0,0,44,-12,76.8,-12c0,0,44.8,0,71.6,14.9c0,0,26.9,15,44,41.8c0,0,12.7,20.1,41.1,99.9c0,0,3.7,11.2,11.9,32.8L24.5,792l144.7,0l165,-458.1c0,0,32.1,-87.2,57.5,-183.3c0,0,23.1,91.8,55.3,179.8L616,792l134.2,0L450.1,-13.8c0,0,-48.7,-130.4,-75.6,-179.6c0,0,-35.9,-66.3,-82.3,-97.2c0,0,-46.3,-31,-110.6,-31Z" 
	id="f1_16"
	transform="scale(0.001,-0.001)" />

	<path d="M125.2,0l0,1093.2l737.6,0l0,-129.1l-592.9,0l0,-338.3l512.8,0l0,-129.1l-512.8,0L269.9,0Z" 
	id="f1_h"
	transform="scale(0.001,-0.001)" />

	<path d="M435.1,0l0,855.6c0,0,-48.5,-46.2,-127.3,-92.5c0,0,-78.8,-46.2,-141.6,-69.4l0,129.8c0,0,112.7,53,197.1,128.3c0,0,84.4,75.4,119.4,146.2l86.4,0L569.1,0Z" 
	id="f1_9"
	transform="scale(0.001,-0.001)" />

	<path d="M46,0c0,0,-1.5,48.5,15.6,93.3c0,0,27.7,73.8,88.6,145.3c0,0,60.9,71.5,175.8,165.3c0,0,178.2,146.5,241,231.8c0,0,62.7,85.3,62.7,161.6c0,0,0,79.7,-57.1,134.5c0,0,-57.2,54.8,-149,54.8c0,0,-97.1,0,-155.4,-58.1c0,0,-58.2,-58.1,-59,-160.9L71.4,782.2c0,0,14.1,154.2,106.7,235c0,0,92.5,80.8,248.5,80.8c0,0,157.4,0,249.2,-87.3c0,0,91.8,-87.2,91.8,-216.3c0,0,0,-65.7,-26.8,-129.1c0,0,-26.9,-63.4,-89,-133.5c0,0,-62.2,-70.2,-206.9,-192.4c0,0,-120.9,-101.5,-155.4,-137.6c0,0,-34.4,-36.2,-56.9,-72.7l536.9,0L769.5,0Z" 
	id="f1_a"
	transform="scale(0.001,-0.001)" />

	<path d="M101.7,706L67.5,910.4l0,182.8l152.5,0l0,-182.8L184.3,706Z" 
	id="f1_4"
	transform="scale(0.001,-0.001)" />

	<path d="M107.6,706L70.4,914.1l0,179.1l152.5,0l0,-179.1L189.4,706Zm247.6,0L318.8,914.1l0,179.1l152.5,0l0,-179.1L435.6,706Z" 
	id="f1_3"
	transform="scale(0.001,-0.001)" />

	<path d="M423,91.9c0,0,96.7,0,159,61.9c0,0,62.4,61.9,62.4,157.3c0,0,0,97,-64.2,160.4c0,0,-64.3,63.3,-161.6,63.3c0,0,-95.2,0,-157.2,-62.6c0,0,-61.9,-62.6,-61.9,-156.6c0,0,0,-57.4,26.9,-111.1c0,0,27,-53.7,80.9,-83.1c0,0,53.9,-29.5,115.7,-29.5Zm-0.1,552.5c0,0,78,0,127.2,48.8c0,0,49.3,48.9,49.3,119.8c0,0,0,73.8,-50.8,124.2c0,0,-50.7,50.4,-127.2,50.4c0,0,-77.1,0,-127.5,-49.3c0,0,-50.4,-49.2,-50.4,-117.9c0,0,0,-77.6,49.6,-126.8c0,0,49.7,-49.2,129.8,-49.2Zm-1,-662.9c0,0,-161.9,0,-261.1,95.8c0,0,-99.2,95.8,-99.2,239c0,0,0,106.6,54.2,178.6c0,0,54.2,71.9,154.5,98c0,0,-83.9,30.6,-124.3,87.3c0,0,-40.4,56.7,-40.4,135.8c0,0,0,119.4,85.8,200.7c0,0,85.7,81.3,228.2,81.3c0,0,143.1,0,230.4,-83.1c0,0,87.3,-83.2,87.3,-202.6c0,0,0,-76.1,-39.9,-132.4c0,0,-39.9,-56.4,-121.1,-87c0,0,100.7,-32.8,153.3,-105.8c0,0,52.6,-73.1,52.6,-174.6c0,0,0,-140.2,-99.2,-235.6c0,0,-99.2,-95.4,-261.1,-95.4Z" 
	id="f1_d"
	transform="scale(0.001,-0.001)" />

	<path d="M224.9,0c0,0,2.2,129.1,50.8,311.8c0,0,48.6,182.8,139.3,352.5c0,0,90.8,169.7,193.2,286.1l-535.8,0l0,129.1l707.9,0l0,-104.5C780.3,975,675.7,863.9,573,679.6c0,0,-102.7,-184.2,-158.7,-379C414.3,300.6,374,163.4,362.8,0Z" 
	id="f1_c"
	transform="scale(0.001,-0.001)" />


</defs>


</svg>
