<?xml version="1.0" encoding="utf-8"?>
<!-- Generator: Adobe Illustrator 20.1.0, SVG Export Plug-In . SVG Version: 6.00 Build 0)  -->
<svg version="1.1" id="Layer_31" xmlns="http://www.w3.org/2000/svg" xmlns:xlink="http://www.w3.org/1999/xlink" x="0px" y="0px"
	 viewBox="0 0 473.1 497.3" style="enable-background:new 0 0 473.1 497.3;" xml:space="preserve">
<style type="text/css">
	.st0{fill:#171717;}
	.st1{fill:#F7C283;}
	.st2{fill:#222222;}
	.st3{fill:#727272;}
	.st4{fill:#2C2C2C;}
	.st5{fill:#543404;}
	.st6{fill:#6A4109;}
	.st7{fill:#87550D;}
	.st8{fill:#9F6512;}
	.st9{fill:#B17115;}
	.st10{fill:#BD7918;}
	.st11{fill:#C27C19;}
	.st12{fill:#BF7B18;}
	.st13{fill:#B67416;}
	.st14{fill:#A66A14;}
	.st15{fill:#915B0F;}
	.st16{fill:#75490A;}
	.st17{fill:#6F4508;}
	.st18{fill:#653718;}
	.st19{fill:#A95F2F;}
	.st20{fill:#915127;}
	.st21{fill:#A45C2E;}
	.st22{fill:#A75E2E;}
	.st23{fill:#9F592B;}
	.st24{fill:#7D4621;}
	.st25{fill:#8A4D25;}
	.st26{fill:#75411E;}
	.st27{fill:#5B3115;}
	.st28{fill:#49260E;}
	.st29{fill:#686868;}
	.st30{fill:#414141;}
	.st31{fill:#A4A4A5;}
	.st32{fill:#DFC093;}
	.st33{fill:#BBBBBC;}
	.st34{fill:#777777;}
	.st35{fill:#8A8A8B;}
	.st36{fill:#997D21;}
	.st37{fill:#8C8D8D;}
	.st38{fill:#9E9E9E;}
	.st39{fill:#363636;}
	.st40{fill:#D1A46E;}
	.st41{fill:#99774F;}
	.st42{fill:#9F7C52;}
	.st43{fill:#BEBEBE;}
	.st44{fill:#A2A2A2;}
	.st45{fill:#747474;}
	.st46{fill:#9F9FA0;}
	.st47{fill:#A0A0A0;}
	.st48{fill:#9DA8AF;}
	.st49{fill:#D2D2D2;}
	.st50{fill:#6C6C6C;}
	.st51{fill:#B4B4B4;}
	.st52{fill:#939393;}
	.st53{fill:none;stroke:#000000;stroke-width:0.5;stroke-linecap:round;stroke-linejoin:round;stroke-miterlimit:10;}
	.st54{fill:none;stroke:#000000;stroke-linecap:round;stroke-linejoin:round;stroke-miterlimit:10;}
</style>
<g>
	<g>
		<g>
			<polygon class="st0" points="343,47.3 342.9,47.2 343.3,46.7 443.6,172.4 442.6,172.2 440.2,169.2 			"/>
			<polygon class="st1" points="342.7,47.5 343,47.5 343,47.3 342.9,47.2 			"/>
			<polygon class="st2" points="442.6,172.2 443.6,172.4 442.9,189.6 441.9,189.4 442.1,185.3 			"/>
			<polygon class="st3" points="343,47.5 343,47.3 440.2,169.2 424.3,165.6 423,165.3 422.6,165.2 394.7,130.7 390.4,125.5 
				345.6,70.2 340.9,64.4 335.2,57.4 342.7,47.5 			"/>
			<polygon class="st2" points="441.9,189.4 442.9,189.6 442.4,202.5 441.4,202.2 441.6,197.4 			"/>
			<polygon class="st4" points="442.4,202.5 442.9,189.6 452,200.8 			"/>
			<polygon class="st5" points="393.2,417.5 393.5,419.5 394.2,394.9 393.9,393.1 			"/>
			<polygon class="st6" points="394.9,421.4 393.5,419.5 394.2,394.9 395.6,396.8 			"/>
			<polygon class="st7" points="397.4,423.2 394.9,421.4 395.7,396.8 398.2,398.4 			"/>
			<polygon class="st8" points="400.9,424.7 397.4,423.2 398.2,398.4 401.7,399.9 			"/>
			<polygon class="st9" points="405,425.7 400.9,424.7 401.7,399.9 405.8,400.9 			"/>
			<polygon class="st10" points="409.6,426.4 405,425.7 405.8,400.9 410.4,401.5 			"/>
			<polygon class="st11" points="414.2,426.5 409.6,426.4 410.4,401.5 415.1,401.6 			"/>
			<polygon class="st12" points="418.6,426 414.2,426.5 415.1,401.6 419.5,401.2 			"/>
			<polygon class="st13" points="422.4,425.1 418.6,426 419.5,401.2 423.3,400.3 			"/>
			<polygon class="st14" points="425.4,423.7 422.4,425.1 423.3,400.3 426.3,399 			"/>
			<polygon class="st15" points="427.3,422.1 425.4,423.7 426.3,399 428.3,397.4 			"/>
			<polygon class="st16" points="428.1,420.2 427.3,422.1 428.3,397.4 429,395.6 			"/>
			<polygon class="st17" points="424.4,390.3 427.1,391.9 428.6,393.7 429,395.6 428.3,397.4 426.3,399 423.3,400.3 419.5,401.2 
				415.1,401.6 410.4,401.5 405.8,400.9 401.7,399.9 398.2,398.4 395.6,396.8 394.2,394.9 393.9,393.1 394.9,391.3 396.9,389.8 
				399.9,388.6 401.1,388.3 400.9,393.6 401.1,394.7 402,395.8 403.5,396.8 405.6,397.6 408.1,398.2 410.8,398.6 413.6,398.6 
				416.2,398.4 418.5,397.9 420.3,397.1 421.5,396.2 422,395.1 422.2,389.4 			"/>
			<polygon class="st8" points="405.6,397.6 403.5,396.8 403.9,385.5 406,384.9 			"/>
			<polygon class="st9" points="408.1,398.2 405.6,397.6 406,384.9 408.6,384.1 			"/>
			<polygon class="st5" points="401.2,386.4 401.1,388.3 400.9,393.6 401.1,394.7 401.4,386.3 			"/>
			<polygon class="st18" points="422,395.1 421.5,396.2 422.1,380 422.6,379.9 422.2,389.4 			"/>
			<polygon class="st19" points="413.6,398.6 410.8,398.6 411.4,383.3 414.2,382.4 			"/>
			<polygon class="st7" points="403.5,396.8 402,395.8 402.3,386 403.9,385.5 			"/>
			<polygon class="st6" points="402,395.8 401.1,394.7 401.4,386.3 402.3,386 			"/>
			<polygon class="st20" points="420.3,397.1 418.5,397.9 419.1,380.9 420.9,380.4 			"/>
			<polygon class="st21" points="410.8,398.6 408.1,398.2 408.6,384.1 411.4,383.3 			"/>
			<polygon class="st22" points="416.2,398.4 413.6,398.6 414.2,382.4 416.8,381.6 			"/>
			<polygon class="st23" points="418.5,397.9 416.2,398.4 416.8,381.6 419.1,380.9 			"/>
			<polygon class="st24" points="421.5,396.2 420.3,397.1 420.9,380.4 422.1,380 			"/>
			<polygon class="st6" points="184.8,490 184.2,487.4 183.4,459.6 184,462.1 			"/>
			<polygon class="st7" points="186.8,492.3 184.8,490 184,462.1 186,464.3 			"/>
			<polygon class="st8" points="190,494.3 186.8,492.3 186,464.3 189.2,466.2 			"/>
			<polygon class="st9" points="194.2,495.7 190,494.3 189.2,466.2 193.5,467.5 			"/>
			<polygon class="st10" points="199.1,496.5 194.2,495.7 193.5,467.5 198.4,468.3 			"/>
			<polygon class="st11" points="204.4,496.6 199.1,496.5 198.4,468.3 203.7,468.4 			"/>
			<polygon class="st12" points="209.6,496.1 204.4,496.6 203.7,468.4 209.1,467.9 			"/>
			<polygon class="st13" points="214.5,494.8 209.6,496.1 209,467.9 214,466.7 			"/>
			<polygon class="st14" points="218.7,493.1 214.5,494.8 214,466.7 218.1,465 			"/>
			<polygon class="st15" points="221.8,490.8 218.7,493.1 218.1,465 221.3,462.9 			"/>
			<polygon class="st16" points="223.7,488.3 221.8,490.8 221.3,462.9 223.2,460.5 			"/>
			<polygon class="st5" points="224.2,485.7 223.7,488.3 223.2,460.5 223.8,458 			"/>
			<polygon class="st17" points="198.4,468.3 193.5,467.5 189.2,466.2 186,464.3 184,462.1 183.4,459.6 184.2,457.2 186.2,454.8 
				189.5,452.8 191.3,452.1 191.5,459.3 191.9,460.8 193.1,462.1 195,463.2 197.6,464 200.5,464.5 203.7,464.6 206.9,464.2 
				209.8,463.5 212.3,462.5 214.2,461.3 215.4,459.8 215.7,458.4 215.6,451.1 217.6,451.7 220.8,453.5 223,455.6 223.8,458 
				223.2,460.5 221.3,462.9 218.1,465 214,466.7 209,467.9 203.7,468.4 			"/>
			<polygon class="st22" points="206.9,464.2 203.7,464.6 203.3,446.1 206.4,445.2 			"/>
			<polygon class="st19" points="203.7,464.6 200.5,464.5 200.1,447.1 203.3,446.1 			"/>
			<polygon class="st21" points="200.5,464.5 197.6,464 197.2,448 200.1,447.1 			"/>
			<polygon class="st23" points="209.8,463.5 206.9,464.2 206.4,445.2 209.4,444.3 			"/>
			<polygon class="st9" points="197.6,464 195,463.2 194.7,448.7 197.2,448 			"/>
			<polygon class="st14" points="212.3,462.5 209.8,463.5 209.4,444.3 211.9,443.5 			"/>
			<polygon class="st25" points="195,463.2 193.1,462.1 192.8,449.3 194.7,448.7 			"/>
			<polygon class="st15" points="214.2,461.3 212.3,462.5 211.9,443.5 213.8,443 			"/>
			<polygon class="st26" points="193.1,462.1 191.9,460.8 191.6,449.7 192.8,449.3 			"/>
			<polygon class="st18" points="215.4,459.8 214.2,461.3 213.8,443 215,442.6 			"/>
			<polygon class="st27" points="191.3,449.8 191.3,452.1 191.5,459.3 191.9,460.8 191.6,449.7 			"/>
			<polygon class="st28" points="215,442.6 215.4,459.8 215.7,458.4 215.6,451.1 215.4,442.5 			"/>
			<polygon class="st8" points="44.6,372.7 42.6,371.6 41.2,349.4 43.2,350.5 			"/>
			<polygon class="st9" points="47.6,373.6 44.6,372.7 43.2,350.5 46.2,351.3 			"/>
			<polygon class="st10" points="51.2,374.1 47.6,373.6 46.2,351.3 49.8,351.7 			"/>
			<polygon class="st11" points="55.2,374.1 51.2,374.1 49.8,351.7 53.8,351.8 			"/>
			<polygon class="st12" points="59.4,373.8 55.2,374.1 53.8,351.8 58,351.5 			"/>
			<polygon class="st13" points="63.4,373.1 59.4,373.8 58,351.5 60.4,351.1 62.2,352.4 			"/>
			<polygon class="st14" points="67,372 63.4,373.1 62.2,352.4 66,355.4 			"/>
			<polygon class="st15" points="69.9,370.7 67,372 66,355.4 69.1,357.7 			"/>
			<polygon class="st16" points="71.9,369.2 69.9,370.7 69.1,357.8 71.3,359.4 			"/>
			<polygon class="st5" points="72.9,367.7 71.9,369.2 71.3,359.4 72.5,360.3 			"/>
			<polygon class="st6" points="72.9,367.7 72.8,366.2 72.5,360.3 72.5,360.3 			"/>
			<polygon class="st7" points="42.6,371.6 41.6,370.2 40.2,348.1 41.2,349.4 			"/>
			<polygon class="st17" points="43.2,350.5 41.2,349.4 40.2,348.1 40.2,346.6 41.4,345.2 43.5,343.8 46.2,342.7 46.5,347.3 
				47.1,348.1 48.4,348.7 50.1,349.2 52.3,349.5 54.7,349.5 57.2,349.3 58,349.2 60.4,351.1 58,351.5 53.8,351.8 49.8,351.7 
				46.2,351.3 			"/>
			<polygon class="st13" points="57.2,349.3 58,349.2 57.1,348.6 			"/>
			<polygon class="st12" points="57.2,349.3 54.7,349.5 54.5,346.6 57.1,348.6 			"/>
			<polygon class="st10" points="52.3,349.5 50.1,349.2 49.7,342.9 52,344.6 			"/>
			<polygon class="st26" points="47.1,348.1 46.5,347.3 46.2,342.7 46,340.1 46.6,340.5 			"/>
			<polygon class="st11" points="54.7,349.5 52.3,349.5 52,344.6 54.5,346.6 			"/>
			<polygon class="st9" points="50.1,349.2 48.4,348.7 47.9,341.5 49.7,342.9 			"/>
			<polygon class="st8" points="48.4,348.7 47.1,348.1 46.6,340.5 47.9,341.5 			"/>
			<polygon class="st29" points="422.3,347.6 422.4,347.6 413.3,350.2 413.3,350.1 			"/>
			<polygon class="st30" points="422.3,347.6 413.3,350.1 414.8,305 423.9,302.8 			"/>
			<polygon class="st31" points="413.3,350.2 422.4,347.6 422.2,354.2 422,358.2 417.1,359.6 412.5,360.9 412.4,361 408.1,362.2 
				408,362.2 286,397.1 286,386.1 286.6,386.5 287.8,386.1 352.7,368 412.2,351.4 413.3,351.1 			"/>
			<polygon class="st2" points="286,386.1 286.6,386.5 286.7,233.7 286.6,233.7 286,233.5 			"/>
			<polygon class="st4" points="286.6,386.5 286.7,233.7 287.9,233.5 287.8,386.1 			"/>
			<polygon class="st32" points="287.8,386.1 287.9,233.5 355.4,221.6 352.7,368 			"/>
			<polygon class="st4" points="413.3,351.1 412.2,351.4 417,210.7 418,210.5 418,211.7 416.9,242.4 416.8,247.7 415,299.9 
				414.8,305 413.3,350.1 413.3,350.2 			"/>
			<polygon class="st32" points="417,210.7 412.2,351.4 352.7,368 355.4,221.6 			"/>
			<polygon class="st33" points="455.5,369.1 455.5,369.9 422.6,379.9 422.1,380 420.9,380.4 419.1,380.9 416.8,381.6 414.2,382.4 
				411.4,383.3 408.6,384.1 406,384.9 403.9,385.5 402.3,386 401.4,386.3 401.2,386.4 215.4,442.5 215,442.6 213.8,443 211.9,443.5 
				209.4,444.3 206.4,445.2 203.3,446.1 200.1,447.1 197.2,448 194.7,448.7 192.8,449.3 191.6,449.7 191.3,449.8 189.8,450.2 
				189.8,449.2 			"/>
			<polygon class="st34" points="455.5,369.1 189.8,449.2 19,318.7 46.9,313.1 50.4,315.6 50.7,319.6 50.2,319.7 49.1,320.2 
				48.4,320.7 48.1,321.2 48.2,321.8 48.7,322.2 49.6,322.6 50.9,322.9 52.4,323 54,323 55.7,322.9 57.3,322.6 58.1,322.3 
				58.3,324.3 64.8,329 68.3,328.3 78.6,335.6 78.8,339 85.9,344.1 89.5,343.3 100.9,351.4 101.1,355 108.8,360.5 112.5,359.6 
				125.2,368.7 125.4,372.3 133.8,378.4 137.6,377.4 151.8,387.5 152,391.4 161.2,398 165.2,397 181.1,408.3 181.2,412.3 
				191.4,419.6 195.5,418.5 197.8,420.1 197.9,424.4 196.8,424.9 195.6,425.7 194.9,426.6 194.8,427.5 195.2,428.4 196.2,429.2 
				197.6,429.9 199.4,430.3 201.4,430.5 203.6,430.5 205.7,430.2 207.6,429.8 209.1,429.1 210.3,428.2 210.9,427.3 211,426.4 
				210.6,425.5 209.6,424.7 208.2,424.1 207.8,424 207.7,419.6 212.4,418.2 212.4,418.2 276.3,399.9 276.4,399.9 286,397.2 
				286,397.1 408,362.2 408,364 407.4,364.1 406.3,364.6 405.6,365.3 405.3,365.9 405.6,366.6 406.3,367.3 407.5,367.9 409,368.4 
				410.7,368.7 412.5,368.9 414.4,368.9 416.1,368.7 417.5,368.3 418.6,367.8 419.3,367.2 419.5,366.5 419.2,365.8 418.5,365.1 
				417.3,364.5 417,364.4 417.1,359.6 422,358.2 422.2,354.2 			"/>
			<polygon class="st34" points="195.2,428.4 194.8,427.5 194.9,426.6 195.6,425.7 196.8,424.9 197.9,424.4 197.9,426.5 198,426.5 
				201.6,429.1 201.7,429.2 207.9,427.4 207.8,424 208.2,424.1 209.6,424.7 210.6,425.5 211,426.4 210.9,427.3 210.3,428.2 
				209.1,429.1 207.6,429.8 205.7,430.2 203.6,430.5 201.4,430.5 199.4,430.3 197.6,429.9 196.2,429.2 			"/>
			<polygon class="st31" points="207.9,427.4 201.7,429.2 201.6,421.3 207.7,419.6 207.8,424 			"/>
			<polygon class="st35" points="197.9,424.4 197.9,426.5 198,426.5 197.9,420.2 197.8,420.1 			"/>
			<polygon class="st35" points="201.5,421.4 201.6,429.1 201.7,429.2 201.6,421.3 			"/>
			<polygon class="st36" points="201.6,429.1 198,426.5 197.9,420.2 199.9,421.6 200,421.7 200.1,421.8 201.5,421.4 			"/>
			<polygon class="st37" points="406.3,367.3 405.6,366.6 405.3,365.9 405.6,365.3 406.3,364.6 407.4,364.1 408,364 407.9,365.9 
				408,365.9 412.1,367.8 412.3,367.9 416.9,366.6 417,364.4 417.3,364.5 418.5,365.1 419.2,365.8 419.5,366.5 419.3,367.2 
				418.6,367.8 417.5,368.3 416.1,368.7 414.4,368.9 412.5,368.9 410.7,368.7 409,368.4 407.5,367.9 			"/>
			<polygon class="st31" points="416.9,366.6 412.3,367.9 412.5,360.9 417.1,359.6 417,364.4 			"/>
			<polygon class="st35" points="408,362.2 408,364 407.9,365.9 408,365.9 408.1,362.2 			"/>
			<polygon class="st35" points="412.4,361 412.1,367.8 412.3,367.9 412.5,360.9 			"/>
			<polygon class="st36" points="412.1,367.8 408,365.9 408.1,362.2 412.4,361 			"/>
			<polygon class="st37" points="48.2,321.8 48.1,321.2 48.4,320.7 49.1,320.2 50.2,319.7 50.7,319.6 50.7,320.6 50.8,320.7 
				52.9,322.2 53,322.2 58.1,321.2 58.1,322.3 57.3,322.6 55.7,322.9 54,323 52.4,323 50.9,322.9 49.6,322.6 48.7,322.2 			"/>
			<polygon class="st31" points="58.1,321.2 53,322.2 52.7,317.2 58.1,321 			"/>
			<polygon class="st35" points="50.7,319.6 50.7,320.6 50.8,320.7 50.5,315.7 50.4,315.6 			"/>
			<polygon class="st35" points="52.9,322.2 53,322.2 52.6,317.2 52.6,317.2 			"/>
			<polygon class="st36" points="52.9,322.2 50.8,320.7 50.5,315.7 52.6,317.2 			"/>
			<polygon class="st33" points="165.2,397 161.2,398 161.1,394.1 			"/>
			<polygon class="st38" points="161.2,398 152,391.4 151.8,387.5 161.1,394.1 			"/>
			<polygon class="st33" points="195.5,418.5 191.4,419.6 191.3,415.6 			"/>
			<polygon class="st38" points="191.4,419.6 181.2,412.3 181.1,408.3 191.3,415.6 			"/>
			<polygon class="st33" points="137.6,377.4 133.8,378.4 133.7,374.7 			"/>
			<polygon class="st38" points="133.8,378.4 125.4,372.3 125.2,368.7 133.7,374.7 			"/>
			<polygon class="st33" points="112.5,359.6 108.8,360.5 108.6,356.9 			"/>
			<polygon class="st38" points="108.8,360.5 101.1,355 100.9,351.4 108.6,356.9 			"/>
			<polygon class="st33" points="89.5,343.3 85.9,344.1 85.7,340.6 			"/>
			<polygon class="st38" points="85.9,344.1 78.8,339 78.6,335.6 85.7,340.6 			"/>
			<polygon class="st33" points="68.3,328.3 64.8,329 64.6,325.7 			"/>
			<polygon class="st38" points="64.8,329 58.3,324.3 58.1,322.3 58.1,321.2 58.1,321 64.6,325.7 			"/>
			<polygon class="st35" points="200,421.7 199.9,421.6 199.6,410 195.1,406.9 195.1,406.4 199.7,409.6 			"/>
			<polygon class="st39" points="200,421.7 199.7,409.6 195.1,406.4 195.1,406.9 199.6,410 199.9,421.6 197.9,420.2 197.8,420.1 
				195.5,418.5 191.3,415.6 181.1,408.3 165.2,397 161.1,394.1 151.8,387.5 137.6,377.4 133.7,374.7 125.2,368.7 112.5,359.6 
				108.6,356.9 100.9,351.4 89.5,343.3 85.7,340.6 78.6,335.6 68.3,328.3 64.6,325.7 58.1,321 52.6,317.2 52.6,317.2 50.5,315.7 
				50.4,315.6 46.9,313.1 46.3,312.7 43.2,263.3 198.6,358.3 200.1,421.8 			"/>
			<polygon class="st39" points="198.6,358.3 43.2,263.3 42.9,258.8 198.5,352.4 			"/>
			<polygon class="st31" points="276.3,399.9 212.4,418.2 212.1,406.7 212.7,407.1 214.1,406.7 275.7,389.5 276.3,389.4 			"/>
			<polygon class="st39" points="276.3,389.4 276.3,399.9 276.4,399.9 276.3,389.3 			"/>
			<polygon class="st2" points="212.7,407.1 212.1,406.7 211.1,355.2 211,349.3 209.8,289.9 209.7,283.9 209,247.1 209.5,247.4 
				209.6,247.3 			"/>
			<polygon class="st4" points="212.7,407.1 209.6,247.3 211,247.1 214.1,406.7 			"/>
			<polygon class="st32" points="214.1,406.7 211,247.1 275.3,235.7 275.7,389.5 			"/>
			<polygon class="st4" points="275.7,389.5 275.3,235.7 276.6,235.5 277,389.2 276.3,389.3 276.3,389.4 			"/>
			<polygon class="st30" points="277,389.2 276.6,235.5 277,235.4 277,233.7 276.7,233.6 285.8,232 285.8,233.4 286,233.5 
				286,386.1 286,397.1 286,397.2 276.4,399.9 276.3,389.3 			"/>
			<polygon class="st35" points="285.9,232 285.8,232 285.8,233.4 286,233.5 286.6,233.7 286.6,232 285.9,231.8 			"/>
			<polygon class="st30" points="285.9,231.8 285.9,232 285.8,232 276.7,233.6 276.2,233.4 208.8,245.3 208.8,245.5 208.7,245.5 
				196.2,247.7 196.1,245.3 209.5,242.9 222.7,240.6 222.4,225.8 222.3,220.2 423,188 422.7,195.4 423.3,195.6 423.2,197.4 
				428,198.6 427.7,207.1 427.4,207.2 423,208 418.1,208.8 417.6,208.7 			"/>
			<polygon class="st29" points="208.8,245.3 276.2,233.4 276.7,233.6 277,233.7 209.5,245.5 			"/>
			<polygon class="st35" points="208.8,245.5 208.7,245.5 208.8,247 209,247.1 209.5,247.4 209.5,245.5 208.8,245.3 			"/>
			<polygon class="st30" points="208.7,245.5 208.8,247 209,247.1 209.7,283.9 197,286.5 196.1,247.7 196.2,247.7 			"/>
			<polygon class="st29" points="285.9,231.8 417.6,208.7 418.1,208.8 418.4,208.9 286.6,232 			"/>
			<polygon class="st40" points="423.3,195.6 422.7,195.4 423,188 423.2,182.6 423.6,171.2 424.1,171.3 423.8,180.8 423.4,192.7 			
				"/>
			<polygon class="st40" points="423.6,171.2 424.1,171.3 424.2,168.5 423.7,168.4 			"/>
			<polygon class="st30" points="423.7,168.4 423.6,171.2 423.2,182.6 222.2,214 222.1,206 268.2,145.4 394.7,130.7 422.6,165.2 
				423,165.3 423.7,166.3 423.7,166.3 423.7,167 423.7,168.1 			"/>
			<polygon class="st41" points="423.7,166.3 423,165.3 424.3,165.6 424.3,166.4 423.7,166.3 			"/>
			<polygon class="st30" points="222.2,214 423.2,182.6 423,188 222.3,220.2 			"/>
			<polygon class="st42" points="423.7,168.1 423.7,168.4 424.2,168.5 424.2,168 			"/>
			<polygon class="st1" points="423.7,168.1 424.2,168 424.3,167.7 423.7,167 			"/>
			<polygon class="st1" points="423.7,167 424.3,167.7 424.3,166.4 423.7,166.3 			"/>
			<polygon class="st38" points="189.8,449.2 189.8,450.2 72.5,360.3 72.5,360.3 71.3,359.4 69.1,357.7 66,355.4 62.2,352.4 
				60.4,351.1 58,349.2 57.1,348.6 54.5,346.6 52,344.6 49.7,342.9 47.9,341.5 46.6,340.5 46,340.1 19.1,319.4 19,318.7 			"/>
			<polygon class="st30" points="423.9,302.8 414.8,305 415,299.9 424.1,297.7 			"/>
			<polygon class="st30" points="424.1,297.7 415,299.9 416.8,247.7 426,245.8 			"/>
			<polygon class="st39" points="198.5,352.4 42.9,258.8 40,212.6 197.1,292.5 			"/>
			<polygon class="st30" points="426,245.8 416.8,247.7 416.9,242.4 426.2,240.5 			"/>
			<polygon class="st30" points="426.2,240.5 416.9,242.4 418,211.7 422.9,210.8 423,208 427.4,207.2 			"/>
			<polygon class="st39" points="197.1,292.5 40,212.6 39.7,208 197,286.5 			"/>
			<polygon class="st39" points="197,286.5 39.7,208 38.1,183.2 101.3,211.5 181.1,247.3 182,247.7 191.6,246 196,245.3 
				196.1,247.7 			"/>
			<polygon class="st2" points="181.1,247.3 101.3,211.5 101,205.2 180.9,240.2 			"/>
			<polygon class="st2" points="101,205.2 101.3,211.5 38.1,183.2 2.7,167.3 2.7,166.7 2.4,162.1 			"/>
			<polygon class="st39" points="196,245.3 196.1,247.7 196.2,247.7 196.1,245.3 			"/>
			<polygon class="st31" points="209.5,245.5 277,233.7 277,235.4 276.6,235.5 275.3,235.7 211,247.1 209.6,247.3 209.5,247.4 			
				"/>
			<polygon class="st31" points="286.6,232 418.4,208.9 418.4,210.5 418,210.5 417,210.7 355.4,221.6 287.9,233.5 286.7,233.7 
				286.6,233.7 			"/>
			<polygon class="st31" points="418.4,210.5 418.4,208.9 418.1,208.8 423,208 422.9,210.8 418,211.7 418,210.5 			"/>
			<polygon class="st30" points="394.7,130.7 268.2,145.4 273.4,138.6 390.4,125.5 			"/>
			<polygon class="st30" points="390.4,125.5 273.4,138.6 324.3,71.7 345.6,70.2 			"/>
			<polygon class="st30" points="345.6,70.2 324.3,71.7 329.3,65.1 340.9,64.4 			"/>
			<polygon class="st30" points="340.9,64.4 329.3,65.1 335.2,57.4 			"/>
			<polygon class="st38" points="1.8,161.9 1.8,161.5 181.7,239.9 181.8,240.5 180.9,240.2 101,205.2 2.4,162.1 1.9,161.9 			"/>
			<polygon class="st43" points="181.8,240.5 181.7,239.9 180.2,238.6 184.6,232.9 184.7,233 180.4,238.5 180.5,238.6 181.8,239.9 
				181.8,239.9 181.9,240.5 181.8,240.5 			"/>
			<polygon class="st44" points="180.4,238.5 184.7,233 184.6,232.9 183.9,232.6 342.6,25.4 343.6,25.5 343.7,25.4 180.5,238.6 			
				"/>
			<polygon class="st45" points="181.7,239.9 1.8,161.5 0.5,160.4 180.2,238.6 			"/>
			<polygon class="st44" points="180.2,238.6 0.5,160.4 1.8,158.9 2,159.1 1.8,159.3 2,159.5 175.7,234.4 175.5,234.7 178,237 
				178.6,237.3 179.5,236 180.6,236.5 183.7,232.5 183.9,232.6 184.6,232.9 			"/>
			<polygon class="st3" points="175.7,234.4 2,159.5 1.8,159.3 2.8,159.8 3.1,159.9 12,163.7 12.2,163.9 21.5,167.8 21.8,168 
				31.5,172.1 31.8,172.3 31.8,172.3 41.9,176.6 42.3,176.8 52.8,181.3 53.2,181.5 64.2,186.3 64.6,186.4 65.1,186.6 65.1,186.7 
				76.2,191.4 76.6,191.6 88.7,196.8 89.1,197 101.9,202.5 102.3,202.7 115.7,208.5 116.2,208.6 130.3,214.7 130.8,214.9 
				145.7,221.4 146.1,221.6 161.9,228.4 162.4,228.6 175.8,234.3 			"/>
			<polygon class="st3" points="179.5,236 180.6,236.5 180.4,236.3 179.6,236 			"/>
			<polygon class="st33" points="183.7,232.5 180.6,236.5 180.4,236.3 342.6,24.6 342.7,24.7 342.4,25 342.7,25.3 342.7,25.3 
				342.6,25.4 183.9,232.6 			"/>
			<polygon class="st44" points="342.7,25.3 342.6,25.4 343.6,25.5 343.7,25.4 343.3,25.3 342.7,25.3 342.7,25.3 			"/>
			<polygon class="st46" points="180.4,236.3 179.6,236 340.8,25.6 340.8,24.7 341,24.5 341.1,24.5 342.6,24.6 			"/>
			<polygon class="st45" points="102.3,202.7 101.9,202.5 99.5,200.4 99.9,200.6 			"/>
			<polygon class="st44" points="99.9,200.6 99.5,200.4 241.1,22.4 241.7,21.8 242.2,21.8 			"/>
			<polygon class="st45" points="242.2,21.8 241.7,21.8 228.8,20.8 226.3,20.6 225.8,20.6 213.6,19.7 211.2,19.5 210.7,19.4 
				199.1,18.6 196.7,18.4 196.3,18.3 185.3,17.5 182.9,17.3 182.5,17.3 172,16.5 169.7,16.3 169.3,16.3 159.3,15.5 157,15.4 
				156.6,15.3 147.1,14.6 144.9,14.4 144.5,14.4 135.4,13.7 133.2,13.6 132.9,13.5 124.2,12.9 122,12.7 121.7,12.7 120.5,12.6 
				119.9,12.1 333,28 333.6,28.7 316.5,27.4 313.9,27.2 313.3,27.2 297.2,26 294.6,25.8 294,25.7 278.8,24.6 276.2,24.4 275.7,24.4 
				261.3,23.3 258.8,23.1 258.2,23 244.6,22 			"/>
			<polygon class="st44" points="196.3,18.3 196.7,18.4 62.3,184.4 61.9,184.3 195.8,18.9 			"/>
			<polygon class="st44" points="258.2,23 258.8,23.1 113.8,206.5 113.3,206.3 257.7,23.7 			"/>
			<polygon class="st44" points="294,25.7 294.6,25.8 143.7,219.4 143.2,219.2 293.5,26.4 			"/>
			<polygon class="st44" points="225.8,20.6 226.3,20.6 86.8,194.9 86.4,194.8 225.3,21.2 			"/>
			<polygon class="st44" points="169.3,16.3 169.7,16.3 40,174.9 39.7,174.7 168.8,16.9 			"/>
			<polygon class="st44" points="156.6,15.3 157,15.4 29.6,170.4 29.3,170.3 156.2,15.9 			"/>
			<polygon class="st44" points="210.7,19.4 211.2,19.5 74.2,189.6 73.9,189.4 210.2,20 			"/>
			<polygon class="st44" points="313.3,27.2 313.9,27.2 159.9,226.3 159.4,226.1 312.8,27.9 			"/>
			<polygon class="st44" points="275.7,24.4 276.2,24.4 128.3,212.8 127.8,212.6 275.2,25 			"/>
			<polygon class="st44" points="182.5,17.3 182.9,17.3 50.9,179.6 50.6,179.4 182,17.9 			"/>
			<polygon class="st44" points="144.5,14.4 144.9,14.4 19.7,166.2 19.4,166 144.1,15 			"/>
			<polygon class="st44" points="132.9,13.5 133.2,13.6 10.1,162.1 9.8,161.9 132.4,14.1 			"/>
			<polygon class="st44" points="121.7,12.7 122,12.7 1,158.1 0.7,158 			"/>
			<polygon class="st43" points="99.9,200.6 242.2,21.8 244.6,22 245.3,22.7 102.3,202.7 			"/>
			<polygon class="st45" points="245.3,22.7 244.6,22 258.2,23 257.7,23.7 			"/>
			<polygon class="st46" points="245.3,22.7 257.7,23.7 113.3,206.3 115.7,208.5 102.3,202.7 			"/>
			<polygon class="st46" points="99.5,200.4 101.9,202.5 89.1,197 229.4,21.5 241.1,22.4 			"/>
			<polygon class="st45" points="241.1,22.4 229.4,21.5 228.8,20.8 241.7,21.8 			"/>
			<polygon class="st43" points="228.8,20.8 229.4,21.5 89.1,197 86.8,194.9 226.3,20.6 			"/>
			<polygon class="st45" points="61.9,184.3 62.3,184.4 64.6,186.4 64.2,186.3 			"/>
			<polygon class="st43" points="62.3,184.4 196.7,18.4 199.1,18.6 199.7,19.2 64.6,186.4 			"/>
			<polygon class="st45" points="199.7,19.2 199.1,18.6 210.7,19.4 210.2,20 			"/>
			<polygon class="st46" points="199.7,19.2 210.2,20 73.9,189.4 76.2,191.4 65.1,186.7 65.1,186.6 64.6,186.4 			"/>
			<polygon class="st46" points="61.9,184.3 64.2,186.3 53.2,181.5 185.9,18.2 195.8,18.9 			"/>
			<polygon class="st45" points="195.8,18.9 185.9,18.2 185.3,17.5 196.3,18.3 			"/>
			<polygon class="st43" points="185.3,17.5 185.9,18.2 53.2,181.5 50.9,179.6 182.9,17.3 			"/>
			<polygon class="st45" points="113.3,206.3 113.8,206.5 116.2,208.6 115.7,208.5 			"/>
			<polygon class="st43" points="113.8,206.5 258.8,23.1 261.3,23.3 261.9,24 116.2,208.6 			"/>
			<polygon class="st45" points="261.9,24 261.3,23.3 275.7,24.4 275.2,25 			"/>
			<polygon class="st46" points="261.9,24 275.2,25 127.8,212.6 130.3,214.7 116.2,208.6 			"/>
			<polygon class="st45" points="143.2,219.2 143.7,219.4 146.1,221.6 145.7,221.4 			"/>
			<polygon class="st43" points="143.7,219.4 294.6,25.8 297.2,26 297.8,26.8 146.1,221.6 			"/>
			<polygon class="st45" points="297.8,26.8 297.2,26 313.3,27.2 312.8,27.9 			"/>
			<polygon class="st46" points="297.8,26.8 312.8,27.9 159.4,226.1 161.9,228.4 146.1,221.6 			"/>
			<polygon class="st46" points="143.2,219.2 145.7,221.4 130.8,214.9 279.4,25.3 293.5,26.4 			"/>
			<polygon class="st45" points="293.5,26.4 279.4,25.3 278.8,24.6 294,25.7 			"/>
			<polygon class="st43" points="278.8,24.6 279.4,25.3 130.8,214.9 128.3,212.8 276.2,24.4 			"/>
			<polygon class="st45" points="86.4,194.8 86.8,194.9 89.1,197 88.7,196.8 			"/>
			<polygon class="st46" points="86.4,194.8 88.7,196.8 76.6,191.6 214.2,20.3 225.3,21.2 			"/>
			<polygon class="st45" points="225.3,21.2 214.2,20.3 213.6,19.7 225.8,20.6 			"/>
			<polygon class="st43" points="213.6,19.7 214.2,20.3 76.6,191.6 74.2,189.6 211.2,19.5 			"/>
			<polygon class="st45" points="39.7,174.7 40,174.9 42.3,176.8 41.9,176.6 			"/>
			<polygon class="st43" points="40,174.9 169.7,16.3 172,16.5 172.6,17.2 42.3,176.8 			"/>
			<polygon class="st45" points="172.6,17.2 172,16.5 182.5,17.3 182,17.9 			"/>
			<polygon class="st46" points="172.6,17.2 182,17.9 50.6,179.4 52.8,181.3 42.3,176.8 			"/>
			<polygon class="st46" points="39.7,174.7 41.9,176.6 31.8,172.3 159.9,16.2 168.8,16.9 			"/>
			<polygon class="st45" points="168.8,16.9 159.9,16.2 159.3,15.5 169.3,16.3 			"/>
			<polygon class="st43" points="159.3,15.5 159.9,16.2 31.8,172.3 31.8,172.3 29.6,170.4 157,15.4 			"/>
			<polygon class="st45" points="29.3,170.3 29.6,170.4 31.8,172.3 31.5,172.1 			"/>
			<polygon class="st46" points="29.3,170.3 31.5,172.1 21.8,168 147.7,15.2 156.2,15.9 			"/>
			<polygon class="st45" points="156.2,15.9 147.7,15.2 147.1,14.6 156.6,15.3 			"/>
			<polygon class="st43" points="147.1,14.6 147.7,15.2 21.8,168 19.7,166.1 144.9,14.4 			"/>
			<polygon class="st45" points="73.9,189.4 74.2,189.6 76.6,191.6 76.2,191.4 			"/>
			<polygon class="st45" points="159.4,226.1 159.9,226.3 162.4,228.6 161.9,228.4 			"/>
			<polygon class="st43" points="159.9,226.3 313.9,27.2 316.5,27.4 317.2,28.2 162.4,228.6 			"/>
			<polygon class="st45" points="317.2,28.2 316.5,27.4 333.6,28.7 333.1,29.5 			"/>
			<polygon class="st46" points="317.2,28.2 333.1,29.5 175.8,234.3 162.4,228.6 			"/>
			<polygon class="st45" points="127.8,212.6 128.3,212.8 130.8,214.9 130.3,214.7 			"/>
			<polygon class="st45" points="50.6,179.4 50.9,179.6 53.2,181.5 52.8,181.3 			"/>
			<polygon class="st45" points="19.4,166 19.7,166.2 21.8,168 21.5,167.8 			"/>
			<polygon class="st46" points="19.4,166 21.5,167.8 12.2,163.9 136,14.4 144.1,15 			"/>
			<polygon class="st45" points="144.1,15 136,14.4 135.4,13.7 144.5,14.4 			"/>
			<polygon class="st43" points="135.4,13.7 136,14.4 12.2,163.9 10.1,162.1 133.2,13.6 			"/>
			<polygon class="st45" points="9.8,161.9 10.1,162.1 12.3,163.9 12,163.7 			"/>
			<polygon class="st46" points="9.8,161.9 12,163.7 3.1,159.9 124.8,13.5 132.4,14.1 			"/>
			<polygon class="st45" points="132.4,14.1 124.8,13.5 124.2,12.9 132.9,13.5 			"/>
			<polygon class="st43" points="124.2,12.9 124.8,13.5 3.1,159.9 1,158.1 122,12.7 			"/>
			<polygon class="st45" points="0.7,158 1,158.1 3.1,159.9 2.8,159.8 2,159.1 1.8,158.9 			"/>
			<polygon class="st45" points="178.6,237.3 178,237 175.5,234.7 176,235 			"/>
			<polygon class="st44" points="176,235 175.5,234.7 175.7,234.4 175.8,234.3 333.1,29.5 333.6,28.7 340,20.4 340.2,20.2 
				340.2,20.2 340.9,20.2 			"/>
			<polygon class="st43" points="176,235 340.9,20.2 340.9,20.2 340.9,21 340.8,24.7 340.8,25.6 179.6,236 179.5,236 178.6,237.3 
							"/>
			<polygon class="st44" points="340.9,20.2 340.2,20.2 340.2,20.2 339.9,20.2 338,17.8 338.4,17.2 344.2,17.6 342.3,20.1 
				341.9,20.1 341.9,20.3 340.9,20.2 			"/>
			<polygon class="st45" points="341,24.5 340.8,24.7 340.9,21 341.9,21 341.9,24.6 341.1,24.5 341.1,24.5 			"/>
			<polygon class="st46" points="1.8,159.3 2.8,159.8 2,159.1 			"/>
			<polygon class="st44" points="119.9,12.1 124.5,6.6 338.8,20.4 333,28 			"/>
			<polygon class="st45" points="338.8,20.4 124.5,6.6 124.4,6.5 336.1,20.1 337.4,18.6 			"/>
			<polygon class="st45" points="122.2,6.4 121.7,5.8 335.6,19.4 336.1,20.1 124.4,6.5 			"/>
			<polygon class="st44" points="335.6,19.4 121.7,5.8 126.1,0.6 341.2,12.1 			"/>
			<polygon class="st43" points="335.6,19.4 341.2,12.1 341.2,13.6 341.2,13.6 338.4,17.2 338,17.8 339.9,20.2 340,20.4 333.6,28.7 
				333,28 338.8,20.4 337.4,18.6 336.1,20.1 			"/>
			<polygon class="st45" points="340.9,21 341.9,21 341.9,20.3 340.9,20.2 			"/>
			<polygon class="st45" points="346,19.8 343.8,19.7 344.8,18.3 			"/>
			<polygon class="st45" points="340,20.4 340.2,20.2 339.9,20.2 			"/>
			<polygon class="st45" points="344.2,17.6 338.4,17.2 341.2,13.6 			"/>
			<polygon class="st43" points="341.2,13.6 341.2,13.6 341.2,12.1 346.6,19 346,19.8 344.8,18.3 343.8,19.7 343.3,20.3 348.8,27.4 
				348.5,27.7 342.6,20.1 342.3,20.1 344.2,17.6 			"/>
			<polygon class="st43" points="472.1,186.1 471,187.6 469.7,185.9 469.4,185.8 343.7,25.4 343.3,25.3 342.7,24.6 342.5,24.6 
				342.6,20.1 348.5,27.7 			"/>
			<polygon class="st47" points="341.9,20.3 341.9,21 341.9,24.6 342.5,24.6 342.6,20.1 342.3,20.1 341.9,20.1 			"/>
			<polygon class="st48" points="341.1,24.5 342.6,24.6 342.7,24.7 342.7,24.6 342.5,24.6 341.9,24.6 341.1,24.5 			"/>
			<polygon class="st33" points="342.7,24.7 342.9,25 342.7,25.3 342.7,25.3 343.3,25.3 342.7,24.6 			"/>
			<polygon class="st33" points="342.4,25 342.7,25.3 342.9,25 342.7,24.7 			"/>
			<polygon class="st2" points="2.3,166.5 2.7,166.7 2.4,162.1 1.9,161.9 			"/>
			<polygon class="st2" points="181.1,247.3 180.9,240.2 181.8,240.5 181.8,240.5 182,247.7 			"/>
			<polygon class="st4" points="182,247.7 181.8,240.5 181.9,240.5 181.8,239.9 181.9,239.9 181.9,239.9 181.9,240 181.9,240 
				182.5,240.4 343.6,29.7 343.3,46.7 342.9,47.2 342.7,47.5 335.2,57.4 329.3,65.1 324.3,71.7 273.4,138.6 268.2,145.4 222.1,206 
				191.6,246 			"/>
			<polygon class="st4" points="343.3,46.7 343.6,29.7 343.9,29.3 471.2,191.5 471.3,191.5 471.3,191.5 471,197.5 464.5,198.6 
				443.6,172.4 			"/>
			<polygon class="st43" points="180.5,238.6 343.7,25.4 343.7,28.6 182,240 181.8,239.9 			"/>
			<polygon class="st49" points="182,240 343.7,28.6 343.9,29.2 182.5,240.3 			"/>
			<polygon class="st50" points="182.5,240.3 343.9,29.2 343.9,29.3 343.6,29.7 182.5,240.4 			"/>
			<polygon class="st51" points="343.9,29.3 343.9,29.2 471.3,191.5 471.3,191.5 471.2,191.5 			"/>
			<polygon class="st45" points="181.8,239.9 181.9,239.9 181.9,239.9 181.9,240 181.9,240 182.5,240.4 182.5,240.3 182,240 
				181.8,239.9 			"/>
			<polygon class="st43" points="343.7,28.6 343.7,25.4 469.4,185.8 469.5,185.9 472.2,189.5 472.3,189.6 471.4,191 471.3,191.1 
				471.3,191.1 			"/>
			<polygon class="st52" points="343.9,29.2 343.7,28.6 471.3,191.1 471.3,191.2 471.3,191.5 			"/>
			<polygon class="st4" points="442.9,189.6 443.6,172.4 464.5,198.6 452,200.8 			"/>
			<polygon class="st2" points="442.6,172.2 442.1,185.3 423.8,180.8 424.1,171.3 424.2,168.5 424.2,168 424.3,167.7 424.3,166.4 
				424.3,165.6 440.2,169.2 			"/>
			<polygon class="st2" points="423.8,180.8 442.1,185.3 441.9,189.4 441.6,197.4 423.4,192.7 			"/>
			<polygon class="st2" points="423.4,192.7 441.6,197.4 441.4,202.2 428,198.6 423.2,197.4 423.3,195.6 			"/>
			<polygon class="st43" points="471.4,191.5 471.4,191.5 471.4,191 472.4,189.5 469.7,186 469.7,185.9 471,187.6 472.5,189.5 
				471.5,191 			"/>
			<polygon class="st44" points="472.4,189.5 471.4,191 471.4,191 472.3,189.6 472.2,189.5 			"/>
			<polygon class="st45" points="472.4,189.5 472.2,189.5 469.5,185.9 469.7,186 			"/>
			<polygon class="st44" points="471.3,191.1 471.3,191.2 471.3,191.5 471.3,191.5 471.3,191.5 471.4,191.5 471.4,191 471.4,191 			
				"/>
			<polygon class="st4" points="471.3,191.1 471.3,191.2 471.3,191.1 			"/>
			<polygon class="st44" points="469.5,185.9 469.7,186 469.7,185.9 469.4,185.8 			"/>
			<polygon class="st4" points="222.4,225.8 222.7,240.6 209.5,242.9 			"/>
			<polygon class="st30" points="209.7,283.9 209.8,290 197.1,292.5 197,286.5 			"/>
			<polygon class="st30" points="211.1,355.2 212.1,406.7 212.4,418.2 212.4,418.2 207.7,419.6 201.6,421.3 201.5,421.4 
				200.1,421.8 198.6,358.3 			"/>
			<polygon class="st30" points="211,349.3 211.1,355.2 198.6,358.3 198.5,352.4 			"/>
			<polygon class="st4" points="222.1,206 222.2,214 222.3,220.2 222.4,225.8 209.5,242.9 196.1,245.3 196,245.3 191.6,246 			"/>
			<polygon class="st30" points="209.8,289.9 211,349.3 198.5,352.4 197.1,292.5 			"/>
			<line class="st53" x1="195.2" y1="428.4" x2="194.8" y2="427.5"/>
			<line class="st53" x1="195.2" y1="428.4" x2="196.2" y2="429.2"/>
			<line class="st53" x1="210.9" y1="427.3" x2="211" y2="426.4"/>
			<line class="st53" x1="210.3" y1="428.2" x2="210.9" y2="427.3"/>
			<line class="st53" x1="209.1" y1="429.1" x2="210.3" y2="428.2"/>
			<line class="st53" x1="207.6" y1="429.8" x2="209.1" y2="429.1"/>
			<line class="st53" x1="205.7" y1="430.2" x2="207.6" y2="429.8"/>
			<line class="st53" x1="203.6" y1="430.5" x2="205.7" y2="430.2"/>
			<line class="st53" x1="201.4" y1="430.5" x2="203.6" y2="430.5"/>
			<line class="st53" x1="199.4" y1="430.3" x2="201.4" y2="430.5"/>
			<line class="st53" x1="197.6" y1="429.9" x2="199.4" y2="430.3"/>
			<line class="st53" x1="196.2" y1="429.2" x2="197.6" y2="429.9"/>
			<polyline class="st53" points="405.6,366.6 406.3,367.3 407.5,367.9 			"/>
			<line class="st53" x1="419.3" y1="367.2" x2="419.5" y2="366.5"/>
			<line class="st53" x1="418.6" y1="367.8" x2="419.3" y2="367.2"/>
			<line class="st53" x1="417.5" y1="368.3" x2="418.6" y2="367.8"/>
			<line class="st53" x1="416.1" y1="368.7" x2="417.5" y2="368.3"/>
			<line class="st53" x1="414.4" y1="368.9" x2="416.1" y2="368.7"/>
			<line class="st53" x1="412.5" y1="368.9" x2="414.4" y2="368.9"/>
			<line class="st53" x1="410.7" y1="368.7" x2="412.5" y2="368.9"/>
			<line class="st53" x1="409" y1="368.4" x2="410.7" y2="368.7"/>
			<line class="st53" x1="407.5" y1="367.9" x2="409" y2="368.4"/>
			<line class="st53" x1="405.6" y1="366.6" x2="405.3" y2="365.9"/>
			<line class="st53" x1="48.2" y1="321.8" x2="48.1" y2="321.2"/>
			<line class="st53" x1="48.2" y1="321.8" x2="48.7" y2="322.2"/>
			<line class="st53" x1="57.3" y1="322.6" x2="58.1" y2="322.3"/>
			<line class="st53" x1="55.7" y1="322.9" x2="57.3" y2="322.6"/>
			<line class="st53" x1="54" y1="323" x2="55.7" y2="322.9"/>
			<line class="st53" x1="52.4" y1="323" x2="54" y2="323"/>
			<line class="st53" x1="50.9" y1="322.9" x2="52.4" y2="323"/>
			<line class="st53" x1="49.6" y1="322.6" x2="50.9" y2="322.9"/>
			<line class="st53" x1="48.7" y1="322.2" x2="49.6" y2="322.6"/>
			<polyline class="st53" points="403.5,396.8 405.6,397.6 408.1,398.2 			"/>
			<line class="st53" x1="401.1" y1="394.7" x2="400.9" y2="393.6"/>
			<line class="st53" x1="421.5" y1="396.2" x2="422" y2="395.1"/>
			<line class="st53" x1="410.8" y1="398.6" x2="413.6" y2="398.6"/>
			<line class="st53" x1="402" y1="395.8" x2="403.5" y2="396.8"/>
			<line class="st53" x1="402" y1="395.8" x2="401.1" y2="394.7"/>
			<line class="st53" x1="418.5" y1="397.9" x2="420.3" y2="397.1"/>
			<line class="st53" x1="408.1" y1="398.2" x2="410.8" y2="398.6"/>
			<polyline class="st53" points="413.6,398.6 416.2,398.4 418.5,397.9 			"/>
			<line class="st53" x1="420.3" y1="397.1" x2="421.5" y2="396.2"/>
			<line class="st53" x1="203.7" y1="464.6" x2="206.9" y2="464.2"/>
			<line class="st53" x1="200.5" y1="464.5" x2="203.7" y2="464.6"/>
			<line class="st53" x1="197.6" y1="464" x2="200.5" y2="464.5"/>
			<line class="st53" x1="206.9" y1="464.2" x2="209.8" y2="463.5"/>
			<line class="st53" x1="195" y1="463.2" x2="197.6" y2="464"/>
			<line class="st53" x1="209.8" y1="463.5" x2="212.3" y2="462.5"/>
			<line class="st53" x1="193.1" y1="462.1" x2="195" y2="463.2"/>
			<line class="st53" x1="212.3" y1="462.5" x2="214.2" y2="461.3"/>
			<line class="st53" x1="193.1" y1="462.1" x2="191.9" y2="460.8"/>
			<line class="st53" x1="214.2" y1="461.3" x2="215.4" y2="459.8"/>
			<line class="st53" x1="191.9" y1="460.8" x2="191.5" y2="459.3"/>
			<line class="st53" x1="215.4" y1="459.8" x2="215.7" y2="458.4"/>
			<line class="st53" x1="57.2" y1="349.3" x2="58" y2="349.2"/>
			<line class="st53" x1="54.7" y1="349.5" x2="57.2" y2="349.3"/>
			<line class="st53" x1="50.1" y1="349.2" x2="52.3" y2="349.5"/>
			<line class="st53" x1="47.1" y1="348.1" x2="46.5" y2="347.3"/>
			<line class="st53" x1="52.3" y1="349.5" x2="54.7" y2="349.5"/>
			<line class="st53" x1="48.4" y1="348.7" x2="50.1" y2="349.2"/>
			<line class="st53" x1="47.1" y1="348.1" x2="48.4" y2="348.7"/>
			<line class="st53" x1="200" y1="421.7" x2="199.7" y2="409.6"/>
			<line class="st53" x1="195.1" y1="406.4" x2="199.7" y2="409.6"/>
			<line class="st53" x1="39.7" y1="208" x2="197" y2="286.5"/>
			<line class="st53" x1="222.2" y1="214" x2="423.2" y2="182.6"/>
			<line class="st53" x1="273.4" y1="138.6" x2="390.4" y2="125.5"/>
			<line class="st53" x1="329.3" y1="65.1" x2="340.9" y2="64.4"/>
			<line class="st53" x1="423.7" y1="168.4" x2="424.2" y2="168.5"/>
			<line class="st53" x1="286.7" y1="233.7" x2="286.6" y2="386.5"/>
			<line class="st53" x1="209.6" y1="247.3" x2="212.7" y2="407.1"/>
			<line class="st53" x1="201.7" y1="429.2" x2="201.6" y2="421.3"/>
			<line class="st53" x1="412.3" y1="367.9" x2="412.5" y2="360.9"/>
			<line class="st53" x1="53" y1="322.2" x2="52.6" y2="317.2"/>
			<line class="st53" x1="161.2" y1="398" x2="161.1" y2="394.1"/>
			<line class="st53" x1="191.4" y1="419.6" x2="191.3" y2="415.6"/>
			<line class="st53" x1="133.8" y1="378.4" x2="133.7" y2="374.7"/>
			<line class="st53" x1="108.8" y1="360.5" x2="108.6" y2="356.9"/>
			<line class="st53" x1="85.9" y1="344.1" x2="85.7" y2="340.6"/>
			<line class="st53" x1="64.8" y1="329" x2="64.6" y2="325.7"/>
			<polyline class="st53" points="393.9,393.1 394.2,394.9 395.6,396.8 398.2,398.4 401.7,399.9 405.8,400.9 410.4,401.5 
				415.1,401.6 419.5,401.2 423.3,400.3 426.3,399 428.3,397.4 429,395.6 			"/>
			<polyline class="st53" points="193.5,467.5 198.4,468.3 203.7,468.4 209.1,467.9 214,466.7 218.1,465 221.3,462.9 223.2,460.5 
				223.8,458 			"/>
			<polyline class="st53" points="183.4,459.6 184,462.1 186,464.3 189.2,466.2 193.5,467.5 			"/>
			<polyline class="st53" points="41.2,349.4 43.2,350.5 46.2,351.3 49.8,351.7 53.8,351.8 58,351.5 60.4,351.1 			"/>
			<line class="st53" x1="40.2" y1="348.1" x2="41.2" y2="349.4"/>
			<line class="st53" x1="422.4" y1="347.6" x2="413.3" y2="350.2"/>
			<line class="st53" x1="455.5" y1="369.1" x2="189.8" y2="449.2"/>
			<polyline class="st53" points="189.8,450.2 189.8,449.2 19,318.7 			"/>
			<line class="st53" x1="416.9" y1="242.4" x2="426.2" y2="240.5"/>
			<line class="st53" x1="415" y1="299.9" x2="424.1" y2="297.7"/>
			<line class="st53" x1="198.5" y1="352.4" x2="42.9" y2="258.8"/>
			<line class="st53" x1="196.2" y1="247.7" x2="196.1" y2="245.3"/>
			<line class="st53" x1="276.3" y1="389.3" x2="276.4" y2="399.9"/>
			<polyline class="st53" points="277,233.7 209.5,245.5 209.5,247.4 			"/>
			<polyline class="st53" points="418.4,208.9 286.6,232 286.6,233.7 			"/>
			<line class="st53" x1="285.9" y1="231.8" x2="286.6" y2="232"/>
			<line class="st53" x1="208.8" y1="245.3" x2="209.5" y2="245.5"/>
			<line class="st53" x1="181.8" y1="240.5" x2="181.7" y2="239.9"/>
			<line class="st53" x1="180.2" y1="238.6" x2="0.5" y2="160.4"/>
			<line class="st53" x1="181.7" y1="239.9" x2="1.8" y2="161.5"/>
			<line class="st53" x1="180.2" y1="238.6" x2="184.6" y2="232.9"/>
			<line class="st53" x1="181.7" y1="239.9" x2="180.2" y2="238.6"/>
			<line class="st53" x1="180.4" y1="236.3" x2="179.6" y2="236"/>
			<line class="st53" x1="180.6" y1="236.5" x2="180.4" y2="236.3"/>
			<polyline class="st53" points="99.5,200.4 99.9,200.6 242.2,21.8 			"/>
			<line class="st53" x1="102.3" y1="202.7" x2="99.9" y2="200.6"/>
			<polyline class="st53" points="61.9,184.3 62.3,184.4 196.7,18.4 			"/>
			<line class="st53" x1="64.6" y1="186.4" x2="62.3" y2="184.4"/>
			<polyline class="st53" points="113.3,206.3 113.8,206.5 258.8,23.1 			"/>
			<line class="st53" x1="116.2" y1="208.6" x2="113.8" y2="206.5"/>
			<polyline class="st53" points="143.2,219.2 143.7,219.4 294.6,25.8 			"/>
			<line class="st53" x1="146.1" y1="221.6" x2="143.7" y2="219.4"/>
			<polyline class="st53" points="86.4,194.8 86.8,194.9 226.3,20.6 			"/>
			<line class="st53" x1="89.1" y1="197" x2="86.8" y2="194.9"/>
			<polyline class="st53" points="39.7,174.7 40,174.9 169.7,16.3 			"/>
			<line class="st53" x1="42.3" y1="176.8" x2="40" y2="174.9"/>
			<polyline class="st53" points="29.3,170.3 29.6,170.4 157,15.4 			"/>
			<line class="st53" x1="31.8" y1="172.3" x2="29.6" y2="170.4"/>
			<polyline class="st53" points="73.9,189.4 74.2,189.6 211.2,19.5 			"/>
			<line class="st53" x1="76.6" y1="191.6" x2="74.2" y2="189.6"/>
			<polyline class="st53" points="159.4,226.1 159.9,226.3 313.9,27.2 			"/>
			<line class="st53" x1="162.4" y1="228.6" x2="159.9" y2="226.3"/>
			<polyline class="st53" points="127.8,212.6 128.3,212.8 276.2,24.4 			"/>
			<line class="st53" x1="130.8" y1="214.9" x2="128.3" y2="212.8"/>
			<polyline class="st53" points="50.6,179.4 50.9,179.6 182.9,17.3 			"/>
			<line class="st53" x1="53.2" y1="181.5" x2="50.9" y2="179.6"/>
			<polyline class="st53" points="19.4,166 19.7,166.2 144.9,14.4 			"/>
			<line class="st53" x1="21.8" y1="168" x2="19.7" y2="166.2"/>
			<polyline class="st53" points="9.8,161.9 10.1,162.1 133.2,13.6 			"/>
			<line class="st53" x1="12.2" y1="163.9" x2="10.1" y2="162.1"/>
			<polyline class="st53" points="0.7,158 1,158.1 122,12.7 			"/>
			<line class="st53" x1="3.1" y1="159.9" x2="1" y2="158.1"/>
			<polyline class="st53" points="175.5,234.7 176,235 340.9,20.2 			"/>
			<line class="st53" x1="178.6" y1="237.3" x2="176" y2="235"/>
			<line class="st53" x1="342.6" y1="24.6" x2="180.4" y2="236.3"/>
			<line class="st53" x1="124.5" y1="6.6" x2="338.8" y2="20.4"/>
			<line class="st53" x1="119.9" y1="12.1" x2="333" y2="28"/>
			<line class="st53" x1="121.7" y1="5.8" x2="335.6" y2="19.4"/>
			<polyline class="st53" points="341.2,12.1 335.6,19.4 336.1,20.1 			"/>
			<line class="st53" x1="338.8" y1="20.4" x2="337.4" y2="18.6"/>
			<polyline class="st53" points="338.8,20.4 333,28 333.6,28.7 			"/>
			<line class="st53" x1="341.9" y1="21" x2="340.9" y2="21"/>
			<line class="st53" x1="339.9" y1="20.2" x2="340.2" y2="20.2"/>
			<line class="st53" x1="340.9" y1="20.2" x2="341.9" y2="20.3"/>
			<line class="st53" x1="338.4" y1="17.2" x2="344.2" y2="17.6"/>
			<line class="st53" x1="341.2" y1="12.1" x2="341.2" y2="13.6"/>
			<line class="st53" x1="344.8" y1="18.3" x2="346" y2="19.8"/>
			<line class="st53" x1="342.3" y1="20.1" x2="344.2" y2="17.6"/>
			<line class="st53" x1="342.6" y1="20.1" x2="342.5" y2="24.6"/>
			<line class="st53" x1="181.8" y1="240.5" x2="182" y2="247.7"/>
			<line class="st53" x1="182.5" y1="240.3" x2="182.5" y2="240.4"/>
			<line class="st53" x1="182.5" y1="240.3" x2="343.9" y2="29.2"/>
			<line class="st53" x1="180.5" y1="238.6" x2="343.7" y2="25.4"/>
			<line class="st53" x1="182" y1="240" x2="343.7" y2="28.6"/>
			<line class="st53" x1="182.5" y1="240.3" x2="182" y2="240"/>
			<line class="st53" x1="471.3" y1="191.5" x2="343.9" y2="29.2"/>
			<line class="st53" x1="471.3" y1="191.1" x2="343.7" y2="28.6"/>
			<line class="st53" x1="343.6" y1="25.5" x2="342.6" y2="25.4"/>
			<line class="st53" x1="343.6" y1="25.5" x2="343.7" y2="25.4"/>
			<line class="st53" x1="442.9" y1="189.6" x2="442.4" y2="202.5"/>
			<line class="st53" x1="443.6" y1="172.4" x2="442.9" y2="189.6"/>
			<line class="st53" x1="471.4" y1="191" x2="472.4" y2="189.5"/>
			<line class="st53" x1="472.2" y1="189.5" x2="472.4" y2="189.5"/>
			<line class="st53" x1="471.4" y1="191.5" x2="471.4" y2="191"/>
			<line class="st53" x1="469.5" y1="185.9" x2="469.7" y2="186"/>
			<line class="st53" x1="471.4" y1="191" x2="471.4" y2="191"/>
			<line class="st53" x1="472.4" y1="189.5" x2="469.7" y2="186"/>
			<line class="st53" x1="469.7" y1="185.9" x2="469.7" y2="186"/>
			<line class="st53" x1="198.5" y1="352.4" x2="198.6" y2="358.3"/>
			<line class="st53" x1="198.6" y1="358.3" x2="200.1" y2="421.8"/>
			<line class="st53" x1="197" y1="286.5" x2="197.1" y2="292.5"/>
			<polyline class="st53" points="341.2,13.6 341.2,13.6 344.2,17.6 			"/>
			<line class="st53" x1="342.7" y1="25.3" x2="342.4" y2="25"/>
			<polyline class="st53" points="342.7,24.6 342.7,24.7 342.4,25 			"/>
			<line class="st53" x1="182" y1="240" x2="181.8" y2="239.9"/>
			<line class="st53" x1="197.1" y1="292.5" x2="198.5" y2="352.4"/>
			<line class="st53" x1="196.1" y1="247.7" x2="197" y2="286.5"/>
			<line class="st53" x1="31.8" y1="172.3" x2="31.8" y2="172.3"/>
			<line class="st53" x1="343.3" y1="46.7" x2="443.6" y2="172.4"/>
			<line class="st53" x1="130.8" y1="214.9" x2="130.3" y2="214.7"/>
			<line class="st53" x1="130.3" y1="214.7" x2="116.2" y2="208.6"/>
			<line class="st53" x1="31.5" y1="172.1" x2="21.8" y2="168"/>
			<line class="st53" x1="116.2" y1="208.6" x2="115.7" y2="208.5"/>
			<line class="st53" x1="21.5" y1="167.8" x2="12.3" y2="163.9"/>
			<line class="st53" x1="2.8" y1="159.8" x2="1.8" y2="159.3"/>
			<line class="st53" x1="12" y1="163.7" x2="3.1" y2="159.9"/>
			<polyline class="st53" points="42.3,176.8 41.9,176.6 31.8,172.3 			"/>
			<line class="st53" x1="65.1" y1="186.6" x2="64.6" y2="186.4"/>
			<line class="st53" x1="52.8" y1="181.3" x2="42.3" y2="176.8"/>
			<polyline class="st53" points="76.6,191.6 76.2,191.4 65.1,186.7 			"/>
			<line class="st53" x1="64.2" y1="186.3" x2="53.2" y2="181.5"/>
			<line class="st53" x1="115.7" y1="208.5" x2="102.3" y2="202.7"/>
			<line class="st53" x1="88.7" y1="196.8" x2="76.6" y2="191.6"/>
			<line class="st53" x1="101.9" y1="202.5" x2="89.1" y2="197"/>
			<line class="st53" x1="161.9" y1="228.4" x2="146.1" y2="221.6"/>
			<line class="st53" x1="209.7" y1="283.9" x2="197" y2="286.5"/>
			<line class="st53" x1="65.1" y1="186.6" x2="65.1" y2="186.7"/>
			<line class="st53" x1="145.7" y1="221.4" x2="130.8" y2="214.9"/>
			<line class="st53" x1="175.8" y1="234.3" x2="162.4" y2="228.6"/>
			<line class="st53" x1="198.5" y1="352.4" x2="211" y2="349.3"/>
			<line class="st54" x1="343" y1="47.3" x2="342.9" y2="47.2"/>
			<line class="st54" x1="423.6" y1="171.2" x2="423.7" y2="168.4"/>
			<line class="st54" x1="423.7" y1="168.1" x2="424.2" y2="168"/>
			<line class="st54" x1="201.7" y1="429.2" x2="207.9" y2="427.4"/>
			<line class="st54" x1="197.9" y1="426.5" x2="198" y2="426.5"/>
			<line class="st54" x1="201.6" y1="429.1" x2="201.7" y2="429.2"/>
			<line class="st54" x1="198" y1="426.5" x2="201.6" y2="429.1"/>
			<polyline class="st54" points="194.9,426.6 195.6,425.7 196.8,424.9 197.9,424.4 			"/>
			<polyline class="st54" points="207.8,424 208.2,424.1 209.6,424.7 210.6,425.5 			"/>
			<line class="st54" x1="211" y1="426.4" x2="210.6" y2="425.5"/>
			<line class="st54" x1="194.8" y1="427.5" x2="194.9" y2="426.6"/>
			<line class="st54" x1="412.3" y1="367.9" x2="416.9" y2="366.6"/>
			<line class="st54" x1="407.9" y1="365.9" x2="408" y2="365.9"/>
			<line class="st54" x1="412.1" y1="367.8" x2="412.3" y2="367.9"/>
			<line class="st54" x1="408" y1="365.9" x2="412.1" y2="367.8"/>
			<line class="st54" x1="419.5" y1="366.5" x2="419.2" y2="365.8"/>
			<polyline class="st54" points="405.3,365.9 405.6,365.3 406.3,364.6 407.4,364.1 408,364 			"/>
			<polyline class="st54" points="417,364.4 417.3,364.5 418.5,365.1 419.2,365.8 			"/>
			<line class="st54" x1="53" y1="322.2" x2="58.1" y2="321.2"/>
			<line class="st54" x1="50.7" y1="320.6" x2="50.8" y2="320.7"/>
			<line class="st54" x1="52.9" y1="322.2" x2="53" y2="322.2"/>
			<line class="st54" x1="50.8" y1="320.7" x2="52.9" y2="322.2"/>
			<polyline class="st54" points="48.4,320.7 49.1,320.2 50.2,319.7 50.7,319.6 			"/>
			<line class="st54" x1="48.1" y1="321.2" x2="48.4" y2="320.7"/>
			<line class="st54" x1="423.7" y1="166.3" x2="423" y2="165.3"/>
			<line class="st54" x1="276.3" y1="399.9" x2="276.3" y2="389.4"/>
			<line class="st54" x1="199.9" y1="421.6" x2="200" y2="421.7"/>
			<line class="st54" x1="199.9" y1="421.6" x2="199.6" y2="410"/>
			<line class="st54" x1="195.1" y1="406.9" x2="195.1" y2="406.4"/>
			<line class="st54" x1="195.1" y1="406.9" x2="199.6" y2="410"/>
			<line class="st54" x1="43.2" y1="263.3" x2="198.6" y2="358.3"/>
			<line class="st54" x1="241.7" y1="21.8" x2="242.2" y2="21.8"/>
			<line class="st54" x1="196.3" y1="18.3" x2="196.7" y2="18.4"/>
			<line class="st54" x1="258.2" y1="23" x2="258.8" y2="23.1"/>
			<line class="st54" x1="294" y1="25.7" x2="294.6" y2="25.8"/>
			<line class="st54" x1="225.8" y1="20.6" x2="226.3" y2="20.6"/>
			<line class="st54" x1="169.3" y1="16.3" x2="169.7" y2="16.3"/>
			<line class="st54" x1="156.6" y1="15.3" x2="157" y2="15.4"/>
			<line class="st54" x1="210.7" y1="19.4" x2="211.2" y2="19.5"/>
			<line class="st54" x1="313.3" y1="27.2" x2="313.9" y2="27.2"/>
			<line class="st54" x1="275.7" y1="24.4" x2="276.2" y2="24.4"/>
			<line class="st54" x1="182.5" y1="17.3" x2="182.9" y2="17.3"/>
			<line class="st54" x1="144.5" y1="14.4" x2="144.9" y2="14.4"/>
			<line class="st54" x1="132.9" y1="13.5" x2="133.2" y2="13.6"/>
			<line class="st54" x1="121.7" y1="12.7" x2="122" y2="12.7"/>
			<polyline class="st54" points="342.7,25.3 342.9,25 342.7,24.7 			"/>
			<line class="st54" x1="124.8" y1="13.5" x2="132.4" y2="14.1"/>
			<line class="st54" x1="136" y1="14.4" x2="144.1" y2="15"/>
			<line class="st54" x1="147.7" y1="15.2" x2="156.2" y2="15.9"/>
			<line class="st54" x1="159.9" y1="16.2" x2="168.8" y2="16.9"/>
			<line class="st54" x1="172.6" y1="17.2" x2="182" y2="17.9"/>
			<line class="st54" x1="185.9" y1="18.2" x2="195.8" y2="18.9"/>
			<line class="st54" x1="199.7" y1="19.2" x2="210.2" y2="20"/>
			<line class="st54" x1="214.2" y1="20.3" x2="225.3" y2="21.2"/>
			<line class="st54" x1="229.4" y1="21.5" x2="241.1" y2="22.4"/>
			<line class="st54" x1="245.3" y1="22.7" x2="257.7" y2="23.7"/>
			<line class="st54" x1="261.9" y1="24" x2="275.2" y2="25"/>
			<line class="st54" x1="279.4" y1="25.3" x2="293.5" y2="26.4"/>
			<line class="st54" x1="297.8" y1="26.8" x2="312.8" y2="27.9"/>
			<line class="st54" x1="317.2" y1="28.2" x2="333.1" y2="29.5"/>
			<line class="st54" x1="342.6" y1="25.4" x2="342.7" y2="25.3"/>
			<polyline class="st54" points="341.2,13.6 341.2,13.6 341.2,12.1 			"/>
			<line class="st54" x1="442.6" y1="172.2" x2="443.6" y2="172.4"/>
			<polyline class="st54" points="343,47.3 343,47.5 342.7,47.5 			"/>
			<line class="st54" x1="423.6" y1="171.2" x2="424.1" y2="171.3"/>
			<line class="st54" x1="287.9" y1="233.5" x2="287.8" y2="386.1"/>
			<line class="st54" x1="286.6" y1="386.5" x2="286" y2="386.1"/>
			<line class="st54" x1="287.8" y1="386.1" x2="286.6" y2="386.5"/>
			<line class="st54" x1="417" y1="210.7" x2="412.2" y2="351.4"/>
			<line class="st54" x1="413.3" y1="351.1" x2="412.2" y2="351.4"/>
			<line class="st54" x1="276.6" y1="235.5" x2="277" y2="389.2"/>
			<line class="st54" x1="275.3" y1="235.7" x2="275.7" y2="389.5"/>
			<line class="st54" x1="211" y1="247.1" x2="214" y2="406.7"/>
			<line class="st54" x1="212.7" y1="407.1" x2="212.1" y2="406.7"/>
			<line class="st54" x1="214.1" y1="406.7" x2="212.7" y2="407.1"/>
			<line class="st54" x1="275.7" y1="389.5" x2="214" y2="406.7"/>
			<line class="st54" x1="352.7" y1="368" x2="287.8" y2="386.1"/>
			<line class="st54" x1="355.4" y1="221.6" x2="352.7" y2="368"/>
			<line class="st54" x1="412.2" y1="351.4" x2="352.7" y2="368"/>
			<line class="st54" x1="198" y1="426.5" x2="197.9" y2="420.2"/>
			<line class="st54" x1="201.6" y1="429.1" x2="201.5" y2="421.4"/>
			<line class="st54" x1="408" y1="365.9" x2="408.1" y2="362.2"/>
			<line class="st54" x1="412.1" y1="367.8" x2="412.4" y2="361"/>
			<line class="st54" x1="50.8" y1="320.7" x2="50.5" y2="315.7"/>
			<line class="st54" x1="52.9" y1="322.2" x2="52.6" y2="317.2"/>
			<line class="st54" x1="423.7" y1="167" x2="424.3" y2="167.7"/>
			<line class="st54" x1="424.3" y1="166.4" x2="423.7" y2="166.3"/>
			<line class="st54" x1="152" y1="391.4" x2="151.8" y2="387.5"/>
			<line class="st54" x1="181.2" y1="412.3" x2="181.1" y2="408.3"/>
			<line class="st54" x1="125.4" y1="372.3" x2="125.2" y2="368.7"/>
			<line class="st54" x1="101.1" y1="355" x2="100.9" y2="351.4"/>
			<line class="st54" x1="78.8" y1="339" x2="78.6" y2="335.6"/>
			<polyline class="st54" points="393.2,417.5 393.5,419.5 394.9,421.4 397.4,423.2 400.9,424.7 405,425.7 409.6,426.4 414.2,426.5 
				418.6,426 422.4,425.1 425.4,423.7 427.3,422.1 428.1,420.2 			"/>
			<polyline class="st54" points="427.1,391.9 424.4,390.3 422.2,389.4 			"/>
			<polyline class="st54" points="401.1,388.3 399.9,388.6 396.9,389.8 394.9,391.3 393.9,393.1 			"/>
			<polyline class="st54" points="429,395.6 428.6,393.7 427.1,391.9 			"/>
			<line class="st54" x1="393.2" y1="417.5" x2="393.9" y2="393.1"/>
			<line class="st54" x1="428.1" y1="420.2" x2="429" y2="395.6"/>
			<polyline class="st54" points="184.2,487.4 184.8,490 186.8,492.3 190,494.3 194.2,495.7 199.1,496.5 204.4,496.6 209.6,496.1 
				214.5,494.8 218.7,493.1 221.8,490.8 223.7,488.3 224.2,485.7 			"/>
			<polyline class="st54" points="223.8,458 223,455.6 220.8,453.5 217.6,451.7 215.6,451.1 			"/>
			<polyline class="st54" points="191.3,452.1 189.5,452.8 186.2,454.8 184.2,457.2 183.4,459.6 			"/>
			<line class="st54" x1="224.2" y1="485.7" x2="223.8" y2="458"/>
			<line class="st54" x1="184.2" y1="487.4" x2="183.4" y2="459.6"/>
			<polyline class="st54" points="42.6,371.6 44.6,372.7 47.6,373.6 51.2,374.1 55.2,374.1 59.4,373.8 63.4,373.1 67,372 
				69.9,370.7 71.9,369.2 72.9,367.7 72.8,366.2 			"/>
			<line class="st54" x1="41.6" y1="370.2" x2="42.6" y2="371.6"/>
			<polyline class="st54" points="46.2,342.7 43.5,343.8 41.4,345.2 40.2,346.6 40.2,348.1 			"/>
			<line class="st54" x1="72.8" y1="366.2" x2="72.5" y2="360.3"/>
			<line class="st54" x1="41.6" y1="370.2" x2="40.2" y2="348.1"/>
			<line class="st54" x1="422.3" y1="347.6" x2="422.4" y2="347.6"/>
			<line class="st54" x1="212.4" y1="418.2" x2="276.3" y2="399.9"/>
			<line class="st54" x1="423.3" y1="195.6" x2="422.7" y2="195.4"/>
			<polyline class="st54" points="181.1,247.3 101.3,211.5 101,205.2 			"/>
			<line class="st54" x1="455.5" y1="369.9" x2="455.6" y2="369.1"/>
			<line class="st54" x1="19.1" y1="319.4" x2="19" y2="318.7"/>
			<line class="st54" x1="422.2" y1="354.2" x2="455.5" y2="369.1"/>
			<line class="st54" x1="19" y1="318.7" x2="46.9" y2="313.1"/>
			<line class="st54" x1="414.8" y1="305" x2="423.9" y2="302.8"/>
			<line class="st54" x1="416.8" y1="247.7" x2="426" y2="245.8"/>
			<line class="st54" x1="40" y1="212.6" x2="197.1" y2="292.5"/>
			<line class="st54" x1="196.1" y1="247.7" x2="196.2" y2="247.7"/>
			<line class="st54" x1="428" y1="198.7" x2="427.7" y2="207.1"/>
			<line class="st54" x1="196.1" y1="247.7" x2="196" y2="245.3"/>
			<line class="st54" x1="276.4" y1="399.9" x2="286" y2="397.2"/>
			<line class="st54" x1="276.3" y1="399.9" x2="276.4" y2="399.9"/>
			<line class="st54" x1="277" y1="235.4" x2="277" y2="233.7"/>
			<line class="st54" x1="418.4" y1="210.5" x2="418.4" y2="208.9"/>
			<line class="st54" x1="423" y1="208" x2="422.9" y2="210.8"/>
			<line class="st54" x1="418" y1="211.7" x2="422.9" y2="210.8"/>
			<line class="st54" x1="222.3" y1="220.2" x2="423" y2="188"/>
			<line class="st54" x1="268.2" y1="145.4" x2="394.7" y2="130.7"/>
			<line class="st54" x1="324.3" y1="71.7" x2="345.6" y2="70.2"/>
			<line class="st54" x1="180.4" y1="238.5" x2="184.7" y2="233"/>
			<line class="st54" x1="184.6" y1="232.9" x2="184.7" y2="233"/>
			<polyline class="st54" points="1.8,161.9 1.8,161.5 0.5,160.4 1.8,158.9 			"/>
			<line class="st54" x1="101.9" y1="202.5" x2="102.3" y2="202.7"/>
			<line class="st54" x1="101.9" y1="202.5" x2="99.5" y2="200.4"/>
			<line class="st54" x1="102.3" y1="202.7" x2="245.3" y2="22.7"/>
			<line class="st54" x1="64.2" y1="186.3" x2="64.6" y2="186.4"/>
			<line class="st54" x1="64.2" y1="186.3" x2="61.9" y2="184.3"/>
			<line class="st54" x1="64.6" y1="186.4" x2="199.7" y2="19.2"/>
			<line class="st54" x1="115.7" y1="208.5" x2="113.3" y2="206.3"/>
			<line class="st54" x1="116.2" y1="208.6" x2="261.9" y2="24"/>
			<line class="st54" x1="145.7" y1="221.4" x2="146.1" y2="221.6"/>
			<line class="st54" x1="145.7" y1="221.4" x2="143.2" y2="219.2"/>
			<line class="st54" x1="146.1" y1="221.6" x2="297.8" y2="26.8"/>
			<line class="st54" x1="88.7" y1="196.8" x2="89.1" y2="197"/>
			<line class="st54" x1="88.7" y1="196.8" x2="86.4" y2="194.8"/>
			<line class="st54" x1="89.1" y1="197" x2="229.4" y2="21.5"/>
			<line class="st54" x1="41.9" y1="176.6" x2="39.7" y2="174.7"/>
			<line class="st54" x1="42.3" y1="176.8" x2="172.6" y2="17.2"/>
			<line class="st54" x1="31.5" y1="172.1" x2="31.8" y2="172.3"/>
			<line class="st54" x1="31.5" y1="172.1" x2="29.3" y2="170.3"/>
			<line class="st54" x1="76.2" y1="191.4" x2="73.9" y2="189.4"/>
			<line class="st54" x1="76.6" y1="191.6" x2="214.2" y2="20.3"/>
			<line class="st54" x1="161.9" y1="228.4" x2="162.4" y2="228.6"/>
			<line class="st54" x1="161.9" y1="228.4" x2="159.4" y2="226.1"/>
			<line class="st54" x1="162.4" y1="228.6" x2="317.2" y2="28.2"/>
			<line class="st54" x1="130.3" y1="214.7" x2="127.8" y2="212.6"/>
			<line class="st54" x1="130.8" y1="214.9" x2="279.4" y2="25.3"/>
			<line class="st54" x1="52.8" y1="181.3" x2="53.2" y2="181.5"/>
			<line class="st54" x1="52.8" y1="181.3" x2="50.6" y2="179.4"/>
			<line class="st54" x1="53.2" y1="181.5" x2="185.9" y2="18.2"/>
			<line class="st54" x1="21.5" y1="167.8" x2="21.8" y2="168"/>
			<line class="st54" x1="21.5" y1="167.8" x2="19.4" y2="166"/>
			<line class="st54" x1="21.8" y1="168" x2="147.7" y2="15.2"/>
			<line class="st54" x1="12" y1="163.7" x2="12.3" y2="163.9"/>
			<line class="st54" x1="12" y1="163.7" x2="9.8" y2="161.9"/>
			<line class="st54" x1="12.2" y1="163.9" x2="136" y2="14.4"/>
			<polyline class="st54" points="2.8,159.8 3.1,159.9 124.8,13.5 			"/>
			<line class="st54" x1="121.7" y1="12.7" x2="0.7" y2="158"/>
			<line class="st54" x1="178" y1="237" x2="178.6" y2="237.3"/>
			<line class="st54" x1="178" y1="237" x2="175.5" y2="234.7"/>
			<line class="st54" x1="340.2" y1="20.2" x2="340.9" y2="20.2"/>
			<line class="st54" x1="340.8" y1="24.7" x2="341" y2="24.5"/>
			<line class="st54" x1="1.8" y1="159.3" x2="2" y2="159.1"/>
			<line class="st54" x1="2" y1="159.5" x2="1.8" y2="159.3"/>
			<line class="st54" x1="124.5" y1="6.6" x2="119.9" y2="12.1"/>
			<line class="st54" x1="120.5" y1="12.6" x2="119.9" y2="12.1"/>
			<line class="st54" x1="122.2" y1="6.4" x2="121.7" y2="5.8"/>
			<line class="st54" x1="124.5" y1="6.6" x2="124.4" y2="6.5"/>
			<polyline class="st54" points="341.2,12.1 126.1,0.6 121.7,5.8 			"/>
			<line class="st54" x1="337.4" y1="18.6" x2="336.1" y2="20.1"/>
			<line class="st54" x1="346" y1="19.8" x2="343.8" y2="19.7"/>
			<polyline class="st54" points="341.2,12.1 346.6,19 346,19.8 			"/>
			<polyline class="st54" points="343.3,20.3 348.8,27.4 348.5,27.7 			"/>
			<line class="st54" x1="471" y1="187.6" x2="472.1" y2="186.1"/>
			<line class="st54" x1="341.1" y1="24.5" x2="341.1" y2="24.5"/>
			<line class="st54" x1="342.7" y1="24.6" x2="343.3" y2="25.3"/>
			<line class="st54" x1="1.9" y1="162" x2="2.3" y2="166.5"/>
			<line class="st54" x1="2.4" y1="162.1" x2="2.7" y2="166.7"/>
			<line class="st54" x1="2.3" y1="166.5" x2="2.7" y2="166.7"/>
			<line class="st54" x1="343.6" y1="29.7" x2="343.3" y2="46.7"/>
			<line class="st54" x1="180.9" y1="240.2" x2="181.1" y2="247.3"/>
			<line class="st54" x1="182" y1="247.7" x2="191.6" y2="246"/>
			<line class="st54" x1="182" y1="247.7" x2="181.1" y2="247.3"/>
			<polyline class="st54" points="343.7,25.4 343.7,28.6 343.9,29.2 			"/>
			<line class="st54" x1="471.3" y1="191.1" x2="471.3" y2="191.2"/>
			<line class="st54" x1="471" y1="197.5" x2="464.5" y2="198.6"/>
			<line class="st54" x1="471.2" y1="191.5" x2="343.9" y2="29.3"/>
			<line class="st54" x1="442.9" y1="189.6" x2="441.9" y2="189.4"/>
			<polyline class="st54" points="452,200.8 442.4,202.5 441.4,202.2 			"/>
			<line class="st54" x1="464.5" y1="198.6" x2="452" y2="200.8"/>
			<line class="st54" x1="442.1" y1="185.3" x2="442.6" y2="172.2"/>
			<line class="st54" x1="423.8" y1="180.8" x2="442.1" y2="185.3"/>
			<line class="st54" x1="423.4" y1="192.7" x2="441.6" y2="197.4"/>
			<line class="st54" x1="423.8" y1="180.8" x2="423.4" y2="192.7"/>
			<line class="st54" x1="441.4" y1="202.2" x2="441.6" y2="197.4"/>
			<line class="st54" x1="471.4" y1="191.5" x2="471.4" y2="191.5"/>
			<line class="st54" x1="469.4" y1="185.8" x2="469.7" y2="185.9"/>
			<line class="st54" x1="471.3" y1="191.5" x2="471.4" y2="191.5"/>
			<polyline class="st54" points="471.4,191.5 471.5,191 472.5,189.5 			"/>
			<line class="st54" x1="222.4" y1="225.8" x2="222.7" y2="240.6"/>
			<line class="st54" x1="209.5" y1="242.9" x2="222.7" y2="240.6"/>
			<polyline class="st54" points="209.8,289.9 209.7,283.9 209,247.1 			"/>
			<polyline class="st54" points="212.1,406.7 211.1,355.2 211,349.3 			"/>
			<polyline class="st54" points="423,188 423.2,182.6 423.6,171.2 			"/>
			<polyline class="st54" points="422.6,165.2 394.7,130.7 390.4,125.5 			"/>
			<polyline class="st54" points="345.6,70.2 340.9,64.4 335.2,57.4 			"/>
			<polyline class="st54" points="181.8,239.9 181.9,239.9 181.9,239.9 181.9,240 181.9,240 			"/>
			<line class="st54" x1="276.3" y1="389.4" x2="275.7" y2="389.5"/>
			<polyline class="st54" points="207.9,427.4 207.8,424 207.7,419.6 			"/>
			<polyline class="st54" points="197.9,426.5 197.9,424.4 197.8,420.1 			"/>
			<polyline class="st54" points="416.9,366.6 417,364.4 417.1,359.6 			"/>
			<polyline class="st54" points="407.9,365.9 408,364 408,362.2 			"/>
			<polyline class="st54" points="50.7,320.6 50.7,319.6 50.4,315.6 			"/>
			<line class="st54" x1="58.3" y1="324.3" x2="58.1" y2="322.3"/>
			<polyline class="st54" points="191.3,449.8 191.3,452.1 191.5,459.3 			"/>
			<polyline class="st54" points="215.4,442.5 215.6,451.1 215.7,458.4 			"/>
			<line class="st54" x1="19.1" y1="319.4" x2="46" y2="340.1"/>
			<line class="st54" x1="189.8" y1="450.2" x2="191.3" y2="449.8"/>
			<polyline class="st54" points="422.6,379.9 422.2,389.4 422,395.1 			"/>
			<polyline class="st54" points="401.2,386.4 401.1,388.3 400.9,393.6 			"/>
			<polyline class="st54" points="46,340.1 46.2,342.7 46.5,347.3 			"/>
			<polyline class="st54" points="422,358.2 422.2,354.2 422.4,347.6 			"/>
			<line class="st54" x1="286" y1="397.1" x2="408" y2="362.2"/>
			<polyline class="st54" points="101.3,211.5 38.1,183.2 2.7,167.3 2.7,166.7 			"/>
			<line class="st54" x1="423.9" y1="302.8" x2="424.1" y2="297.7"/>
			<line class="st54" x1="42.9" y1="258.8" x2="43.2" y2="263.3"/>
			<line class="st54" x1="422.3" y1="347.6" x2="423.9" y2="302.8"/>
			<line class="st54" x1="43.2" y1="263.3" x2="46.3" y2="312.7"/>
			<polyline class="st54" points="426,245.8 426.2,240.5 427.4,207.2 			"/>
			<polyline class="st54" points="38.1,183.2 39.7,208 40,212.6 			"/>
			<line class="st54" x1="423" y1="208" x2="418.1" y2="208.8"/>
			<polyline class="st54" points="285.9,232 285.8,232 276.7,233.6 			"/>
			<polyline class="st54" points="208.8,245.5 208.7,245.5 196.2,247.7 			"/>
			<line class="st54" x1="209.5" y1="247.4" x2="209.6" y2="247.3"/>
			<line class="st54" x1="286.6" y1="233.7" x2="286.7" y2="233.7"/>
			<polyline class="st54" points="285.8,233.4 286,233.5 286.6,233.7 			"/>
			<polyline class="st54" points="418.4,208.9 418.1,208.8 417.6,208.7 			"/>
			<polyline class="st54" points="276.2,233.4 276.7,233.6 277,233.7 			"/>
			<polyline class="st54" points="208.8,247 209,247.1 209.5,247.4 			"/>
			<polyline class="st54" points="181.8,239.9 180.5,238.6 180.4,238.5 			"/>
			<polyline class="st54" points="181.9,240.5 181.8,239.9 181.8,239.9 			"/>
			<line class="st54" x1="1.9" y1="162" x2="1.8" y2="161.9"/>
			<polyline class="st54" points="181.8,240.5 181.8,240.5 181.9,240.5 			"/>
			<polyline class="st54" points="184.6,232.9 183.9,232.6 183.7,232.5 			"/>
			<polyline class="st54" points="241.7,21.8 241.1,22.4 99.5,200.4 			"/>
			<polyline class="st54" points="196.3,18.3 195.8,18.9 61.9,184.3 			"/>
			<polyline class="st54" points="258.2,23 257.7,23.7 113.3,206.3 			"/>
			<polyline class="st54" points="294,25.7 293.5,26.4 143.2,219.2 			"/>
			<polyline class="st54" points="225.8,20.6 225.3,21.2 86.4,194.8 			"/>
			<polyline class="st54" points="169.3,16.3 168.8,16.9 39.7,174.7 			"/>
			<polyline class="st54" points="156.6,15.3 156.2,15.9 29.3,170.3 			"/>
			<polyline class="st54" points="210.7,19.4 210.2,20 73.9,189.4 			"/>
			<polyline class="st54" points="313.3,27.2 312.8,27.9 159.4,226.1 			"/>
			<polyline class="st54" points="275.7,24.4 275.2,25 127.8,212.6 			"/>
			<polyline class="st54" points="182.5,17.3 182,17.9 50.6,179.4 			"/>
			<polyline class="st54" points="144.5,14.4 144.1,15 19.4,166 			"/>
			<polyline class="st54" points="132.9,13.5 132.4,14.1 9.8,161.9 			"/>
			<line class="st54" x1="1.8" y1="158.9" x2="0.7" y2="158"/>
			<line class="st54" x1="178.6" y1="237.3" x2="179.5" y2="236"/>
			<line class="st54" x1="175.7" y1="234.4" x2="175.5" y2="234.7"/>
			<line class="st54" x1="340.8" y1="24.7" x2="340.8" y2="25.6"/>
			<polyline class="st54" points="341,24.5 341.1,24.5 342.6,24.6 342.7,24.7 			"/>
			<polyline class="st54" points="336.1,20.1 124.4,6.5 122.2,6.4 			"/>
			<line class="st54" x1="338.4" y1="17.2" x2="338" y2="17.8"/>
			<polyline class="st54" points="340,20.4 339.9,20.2 338,17.8 			"/>
			<polyline class="st54" points="343.3,20.3 343.8,19.7 344.8,18.3 			"/>
			<polyline class="st54" points="472.1,186.1 348.5,27.7 342.6,20.1 			"/>
			<line class="st54" x1="341.9" y1="21" x2="341.9" y2="24.6"/>
			<polyline class="st54" points="341.9,20.1 342.3,20.1 342.6,20.1 			"/>
			<line class="st54" x1="342.7" y1="25.3" x2="342.7" y2="25.3"/>
			<line class="st54" x1="341.1" y1="24.5" x2="341.9" y2="24.6"/>
			<line class="st54" x1="182.5" y1="240.4" x2="181.9" y2="240"/>
			<polyline class="st54" points="182.5,240.4 343.6,29.7 343.9,29.3 			"/>
			<line class="st54" x1="342.7" y1="25.3" x2="342.7" y2="25.3"/>
			<polyline class="st54" points="471.3,191.5 471.3,191.5 471,197.5 			"/>
			<polyline class="st54" points="471.3,191.5 471.3,191.5 471.2,191.5 			"/>
			<line class="st54" x1="471.3" y1="191.1" x2="471.3" y2="191.1"/>
			<polyline class="st54" points="471.3,191.5 471.3,191.2 471.3,191.1 			"/>
			<line class="st54" x1="441.9" y1="189.4" x2="441.6" y2="197.4"/>
			<line class="st54" x1="442.1" y1="185.3" x2="441.9" y2="189.4"/>
			<line class="st54" x1="424.1" y1="171.3" x2="423.8" y2="180.8"/>
			<polyline class="st54" points="423.2,197.4 428,198.7 441.4,202.2 			"/>
			<polyline class="st54" points="423.4,192.7 423.3,195.6 423.2,197.4 			"/>
			<line class="st54" x1="423" y1="165.3" x2="422.6" y2="165.2"/>
			<polyline class="st54" points="472.5,189.5 471,187.6 469.7,185.9 			"/>
			<line class="st54" x1="222.1" y1="206" x2="222.2" y2="214"/>
			<line class="st54" x1="191.6" y1="246" x2="196" y2="245.3"/>
			<line class="st54" x1="211" y1="349.3" x2="209.8" y2="290"/>
			<line class="st54" x1="390.4" y1="125.5" x2="345.6" y2="70.2"/>
			<polyline class="st54" points="414.8,305 413.3,350.1 413.3,350.2 413.3,351.1 			"/>
			<polyline class="st54" points="277,389.2 276.3,389.3 276.3,389.4 			"/>
			<polyline class="st54" points="58.1,322.3 58.1,321.2 58.1,321 			"/>
			<line class="st54" x1="46" y1="340.1" x2="46.6" y2="340.5"/>
			<line class="st54" x1="191.3" y1="449.8" x2="191.6" y2="449.7"/>
			<line class="st54" x1="408" y1="362.2" x2="408.1" y2="362.2"/>
			<line class="st54" x1="424.1" y1="297.7" x2="426" y2="245.8"/>
			<line class="st54" x1="40" y1="212.6" x2="42.9" y2="258.8"/>
			<line class="st54" x1="181.1" y1="408.3" x2="191.3" y2="415.6"/>
			<polyline class="st54" points="212.1,406.7 212.4,418.2 212.4,418.2 			"/>
			<polyline class="st54" points="201.5,421.4 201.6,421.3 207.7,419.6 212.4,418.2 			"/>
			<polyline class="st54" points="427.7,207.1 427.4,207.2 423,208 			"/>
			<polyline class="st54" points="286,397.2 286,397.1 286,386.1 			"/>
			<line class="st54" x1="209.6" y1="247.3" x2="211" y2="247.1"/>
			<line class="st54" x1="286.7" y1="233.7" x2="287.9" y2="233.5"/>
			<line class="st54" x1="2.4" y1="162.1" x2="1.9" y2="162"/>
			<polyline class="st54" points="2.8,159.8 2,159.1 1.8,158.9 			"/>
			<line class="st54" x1="179.5" y1="236" x2="179.6" y2="236"/>
			<line class="st54" x1="175.8" y1="234.3" x2="175.7" y2="234.4"/>
			<line class="st54" x1="340.9" y1="21" x2="340.8" y2="24.7"/>
			<line class="st54" x1="341.2" y1="13.6" x2="338.4" y2="17.2"/>
			<polyline class="st54" points="341.9,20.1 341.9,20.3 341.9,21 			"/>
			<polyline class="st54" points="341.9,24.6 342.5,24.6 342.7,24.6 			"/>
			<polyline class="st54" points="343,47.3 440.2,169.2 442.6,172.2 			"/>
			<polyline class="st54" points="472.3,189.6 472.2,189.5 469.5,185.9 469.4,185.8 343.7,25.4 			"/>
			<polyline class="st54" points="471.3,191.1 471.4,191 472.3,189.6 			"/>
			<line class="st54" x1="424.2" y1="168.5" x2="424.1" y2="171.3"/>
			<polyline class="st54" points="440.2,169.2 424.3,165.6 423,165.3 			"/>
			<polyline class="st54" points="222.2,214 222.3,220.2 222.4,225.8 			"/>
			<polyline class="st54" points="196,245.3 196.1,245.3 209.5,242.9 			"/>
			<line class="st54" x1="415" y1="299.9" x2="414.8" y2="305"/>
			<line class="st54" x1="46.6" y1="340.5" x2="47.9" y2="341.5"/>
			<line class="st54" x1="191.6" y1="449.7" x2="192.8" y2="449.3"/>
			<line class="st54" x1="46.3" y1="312.7" x2="46.9" y2="313.1"/>
			<line class="st54" x1="151.8" y1="387.5" x2="161.1" y2="394.1"/>
			<line class="st54" x1="191.3" y1="415.6" x2="195.5" y2="418.5"/>
			<line class="st54" x1="211" y1="247.1" x2="275.3" y2="235.7"/>
			<line class="st54" x1="287.9" y1="233.5" x2="355.4" y2="221.6"/>
			<line class="st54" x1="423.7" y1="168.4" x2="423.7" y2="168.1"/>
			<line class="st54" x1="181.8" y1="240.5" x2="180.9" y2="240.2"/>
			<line class="st54" x1="333.1" y1="29.5" x2="175.8" y2="234.3"/>
			<polyline class="st54" points="340.9,20.2 340.9,20.2 340.9,21 			"/>
			<line class="st54" x1="244.6" y1="22" x2="242.2" y2="21.8"/>
			<polyline class="st54" points="342.7,25.3 343.3,25.3 343.7,25.4 			"/>
			<line class="st54" x1="424.2" y1="168" x2="424.2" y2="168.5"/>
			<line class="st54" x1="416.8" y1="247.7" x2="415" y2="299.9"/>
			<line class="st54" x1="47.9" y1="341.5" x2="49.7" y2="342.9"/>
			<line class="st54" x1="192.8" y1="449.3" x2="194.7" y2="448.7"/>
			<polyline class="st54" points="408.1,362.2 412.4,361 412.5,360.9 417.1,359.6 422,358.2 			"/>
			<line class="st54" x1="46.9" y1="313.1" x2="50.4" y2="315.6"/>
			<polyline class="st54" points="161.1,394.1 165.2,397 181.1,408.3 			"/>
			<line class="st54" x1="195.5" y1="418.5" x2="197.8" y2="420.1"/>
			<polyline class="st54" points="275.3,235.7 276.6,235.5 277,235.4 			"/>
			<line class="st54" x1="355.4" y1="221.6" x2="417" y2="210.7"/>
			<line class="st54" x1="423.7" y1="168.1" x2="423.7" y2="167"/>
			<polyline class="st54" points="180.9,240.2 101,205.2 2.4,162.1 			"/>
			<line class="st54" x1="333.6" y1="28.7" x2="333.1" y2="29.5"/>
			<line class="st54" x1="258.2" y1="23" x2="244.6" y2="22"/>
			<line class="st54" x1="199.1" y1="18.6" x2="196.7" y2="18.4"/>
			<line class="st54" x1="424.3" y1="167.7" x2="424.2" y2="168"/>
			<line class="st54" x1="416.9" y1="242.4" x2="416.8" y2="247.7"/>
			<line class="st54" x1="49.7" y1="342.9" x2="52" y2="344.6"/>
			<line class="st54" x1="194.7" y1="448.7" x2="197.2" y2="448"/>
			<line class="st54" x1="50.4" y1="315.6" x2="50.5" y2="315.7"/>
			<line class="st54" x1="197.8" y1="420.1" x2="197.9" y2="420.2"/>
			<polyline class="st54" points="417,210.7 418,210.5 418.4,210.5 			"/>
			<polyline class="st54" points="423.7,167 423.7,166.3 423.7,166.3 			"/>
			<line class="st54" x1="172" y1="16.5" x2="169.7" y2="16.3"/>
			<polyline class="st54" points="273.4,138.6 268.2,145.4 222.1,206 			"/>
			<polyline class="st54" points="424.3,165.6 424.3,166.4 424.3,167.7 			"/>
			<polyline class="st54" points="418,210.5 418,211.7 416.9,242.4 			"/>
			<line class="st54" x1="52" y1="344.6" x2="54.5" y2="346.6"/>
			<line class="st54" x1="197.2" y1="448" x2="200.1" y2="447.1"/>
			<line class="st54" x1="200" y1="421.7" x2="200.1" y2="421.8"/>
			<line class="st54" x1="261.3" y1="23.3" x2="258.8" y2="23.1"/>
			<line class="st54" x1="210.7" y1="19.4" x2="199.1" y2="18.6"/>
			<line class="st54" x1="182.5" y1="17.3" x2="172" y2="16.5"/>
			<polyline class="st54" points="169.3,16.3 159.3,15.5 157,15.4 			"/>
			<polyline class="st54" points="335.2,57.4 329.3,65.1 324.3,71.7 273.4,138.6 			"/>
			<line class="st54" x1="54.5" y1="346.6" x2="57.1" y2="348.6"/>
			<line class="st54" x1="200.1" y1="447.1" x2="203.3" y2="446.1"/>
			<polyline class="st54" points="50.5,315.7 52.6,317.2 52.7,317.2 			"/>
			<line class="st54" x1="197.9" y1="420.2" x2="199.9" y2="421.6"/>
			<polyline class="st54" points="241.7,21.8 228.8,20.8 226.3,20.6 			"/>
			<polyline class="st54" points="156.6,15.3 147.1,14.6 144.9,14.4 			"/>
			<line class="st54" x1="121.7" y1="12.7" x2="120.5" y2="12.6"/>
			<line class="st54" x1="342.7" y1="47.5" x2="335.2" y2="57.4"/>
			<line class="st54" x1="203.3" y1="446.1" x2="206.4" y2="445.2"/>
			<polyline class="st54" points="52.6,317.2 58.1,321 64.6,325.7 			"/>
			<line class="st54" x1="275.7" y1="24.4" x2="261.3" y2="23.3"/>
			<polyline class="st54" points="225.8,20.6 213.6,19.7 211.2,19.5 			"/>
			<polyline class="st54" points="196.3,18.3 185.3,17.5 182.9,17.3 			"/>
			<polyline class="st54" points="144.5,14.4 135.4,13.7 133.2,13.6 			"/>
			<polyline class="st54" points="343.3,46.7 342.9,47.2 342.7,47.5 			"/>
			<line class="st54" x1="57.1" y1="348.6" x2="58" y2="349.2"/>
			<line class="st54" x1="66" y1="355.4" x2="69.1" y2="357.8"/>
			<line class="st54" x1="206.4" y1="445.2" x2="209.4" y2="444.3"/>
			<polyline class="st54" points="64.6,325.7 68.3,328.3 78.6,335.6 85.7,340.6 			"/>
			<line class="st54" x1="297.2" y1="26" x2="294.6" y2="25.8"/>
			<polyline class="st54" points="132.9,13.5 124.2,12.9 122,12.7 			"/>
			<line class="st54" x1="62.2" y1="352.4" x2="66" y2="355.4"/>
			<line class="st54" x1="69.1" y1="357.8" x2="71.3" y2="359.4"/>
			<line class="st54" x1="209.4" y1="444.3" x2="211.9" y2="443.5"/>
			<polyline class="st54" points="340.2,20.2 340.2,20.2 340,20.4 			"/>
			<line class="st54" x1="313.3" y1="27.2" x2="297.2" y2="26"/>
			<polyline class="st54" points="294,25.7 278.8,24.6 276.2,24.4 			"/>
			<polyline class="st54" points="58,349.2 60.4,351.1 62.2,352.4 			"/>
			<line class="st54" x1="71.3" y1="359.4" x2="72.5" y2="360.3"/>
			<line class="st54" x1="211.9" y1="443.5" x2="213.8" y2="443"/>
			<polyline class="st54" points="85.7,340.6 89.5,343.3 100.9,351.4 108.6,356.9 			"/>
			<polyline class="st54" points="72.5,360.3 72.5,360.3 189.8,450.2 			"/>
			<line class="st54" x1="213.8" y1="443" x2="215" y2="442.6"/>
			<polyline class="st54" points="333.6,28.7 316.5,27.4 313.9,27.2 			"/>
			<line class="st54" x1="215" y1="442.6" x2="215.4" y2="442.5"/>
			<polyline class="st54" points="108.6,356.9 112.5,359.6 125.2,368.7 133.7,374.7 137.6,377.4 151.8,387.5 			"/>
			<line class="st54" x1="401.4" y1="386.3" x2="402.3" y2="386"/>
			<polyline class="st54" points="215.4,442.5 401.2,386.4 401.4,386.3 			"/>
			<polyline class="st54" points="402.3,386 403.9,385.5 406,384.9 408.6,384.1 411.4,383.3 414.2,382.4 416.8,381.6 			"/>
			<polyline class="st54" points="416.8,381.6 419.1,380.9 420.9,380.4 			"/>
			<line class="st54" x1="422.6" y1="379.9" x2="455.5" y2="369.9"/>
			<polyline class="st54" points="420.9,380.4 422.1,380 422.6,379.9 			"/>
			<line class="st54" x1="286" y1="386.1" x2="286" y2="233.5"/>
			<line class="st54" x1="211.1" y1="355.2" x2="198.6" y2="358.3"/>
			<line class="st54" x1="31.8" y1="172.3" x2="159.9" y2="16.2"/>
			<line class="st54" x1="340.8" y1="25.6" x2="179.6" y2="236"/>
			<line class="st54" x1="342.6" y1="25.4" x2="183.9" y2="232.6"/>
			<line class="st54" x1="200.1" y1="421.8" x2="201.5" y2="421.4"/>
			<line class="st54" x1="197.1" y1="292.5" x2="209.8" y2="289.9"/>
			<line class="st54" x1="340" y1="20.4" x2="333.6" y2="28.7"/>
			<line class="st54" x1="442.9" y1="189.6" x2="452" y2="200.8"/>
			<line class="st54" x1="222.4" y1="225.8" x2="209.5" y2="242.9"/>
			<line class="st54" x1="191.6" y1="246" x2="222.1" y2="206"/>
			<line class="st54" x1="464.5" y1="198.6" x2="443.6" y2="172.4"/>
		</g>
	</g>
</g>
</svg>
