<?xml version="1.0" encoding="utf-8"?>
<!-- Generator: Adobe Illustrator 20.1.0, SVG Export Plug-In . SVG Version: 6.00 Build 0)  -->
<svg version="1.1" id="Layer_34" xmlns="http://www.w3.org/2000/svg" xmlns:xlink="http://www.w3.org/1999/xlink" x="0px" y="0px"
	 viewBox="0 0 473.1 497.3" style="enable-background:new 0 0 473.1 497.3;" xml:space="preserve">
<style type="text/css">
	.st0{fill:#171717;}
	.st1{fill:#F7C283;}
	.st2{fill:#222222;}
	.st3{fill:#727272;}
	.st4{fill:#2C2C2C;}
	.st5{fill:#181818;}
	.st6{fill:#997D21;}
	.st7{fill:#8C8D8D;}
	.st8{fill:#A4A4A5;}
	.st9{fill:#8A8A8B;}
	.st10{fill:#777777;}
	.st11{fill:#BBBBBC;}
	.st12{fill:#9E9E9E;}
	.st13{fill:#543404;}
	.st14{fill:#6A4109;}
	.st15{fill:#87550D;}
	.st16{fill:#9F6512;}
	.st17{fill:#B17115;}
	.st18{fill:#BD7918;}
	.st19{fill:#C27C19;}
	.st20{fill:#BF7B18;}
	.st21{fill:#B67416;}
	.st22{fill:#A66A14;}
	.st23{fill:#915B0F;}
	.st24{fill:#75490A;}
	.st25{fill:#6F4508;}
	.st26{fill:#9A572A;}
	.st27{fill:#653718;}
	.st28{fill:#915127;}
	.st29{fill:#A45C2E;}
	.st30{fill:#A75E2E;}
	.st31{fill:#9F592B;}
	.st32{fill:#7D4621;}
	.st33{fill:#A95F2F;}
	.st34{fill:#8A4D25;}
	.st35{fill:#BEBEBE;}
	.st36{fill:#A2A2A2;}
	.st37{fill:#747474;}
	.st38{fill:#9F9FA0;}
	.st39{fill:#A0A0A0;}
	.st40{fill:#9DA8AF;}
	.st41{fill:#D2D2D2;}
	.st42{fill:#6C6C6C;}
	.st43{fill:#B4B4B4;}
	.st44{fill:#939393;}
	.st45{fill:none;stroke:#000000;stroke-width:0.5;stroke-linecap:round;stroke-linejoin:round;stroke-miterlimit:10;}
	.st46{fill:none;stroke:#000000;stroke-linecap:round;stroke-linejoin:round;stroke-miterlimit:10;}
</style>
<g id="_x33_4">
	<polyline class="st0" points="343,47.3 342.9,47.2 343.3,46.7 443.6,172.4 442.6,172.2 440.2,169.2 343,47.3 	"/>
	<polyline class="st1" points="342.9,47.2 343,47.3 343,47.5 342.7,47.5 342.9,47.2 	"/>
	<polyline class="st2" points="442.6,172.2 443.6,172.4 442.9,189.6 441.9,189.4 442.1,185.3 442.6,172.2 	"/>
	<polyline class="st3" points="343,47.5 343,47.3 440.2,169.2 424.3,165.6 424.2,165.6 417,156.6 408.1,145.7 399.1,134.5 
		389.9,123.1 380.5,111.5 370.9,99.7 361.1,87.6 360.2,87.5 350.3,75.3 340.1,62.7 335.5,57 342.7,47.5 343,47.5 	"/>
	<polyline class="st4" points="408.1,145.7 417,156.6 241.4,180.6 252.9,165.5 408.1,145.7 	"/>
	<polyline class="st4" points="389.9,123.1 399.1,134.5 264.3,150.6 275.6,135.7 389.9,123.1 	"/>
	<polyline class="st4" points="399.1,134.5 408.1,145.7 252.9,165.5 264.3,150.6 399.1,134.5 	"/>
	<polyline class="st4" points="361.1,87.6 370.9,99.7 297.9,106.4 308.9,91.9 360.4,87.6 361.1,87.6 	"/>
	<polyline class="st5" points="360.2,87.5 361.1,87.6 360.4,87.6 360.2,87.5 	"/>
	<polyline class="st4" points="370.9,99.7 380.5,111.5 286.8,121 297.9,106.4 370.9,99.7 	"/>
	<polyline class="st4" points="417,156.6 424.2,165.6 424.3,165.6 424.3,167.5 229.8,195.9 241.4,180.6 417,156.6 	"/>
	<polyline class="st4" points="229.8,195.9 424.3,167.5 423.8,179.5 222.2,210.6 222.1,206 229.8,195.9 	"/>
	<polyline class="st2" points="424.3,167.5 424.3,165.6 440.2,169.2 442.6,172.2 442.1,185.3 423.8,180.8 423.8,179.5 424.3,167.5 	
		"/>
	<polyline class="st4" points="423.8,179.5 423.8,180.8 423.4,191.3 222.4,224.1 222.2,210.6 423.8,179.5 	"/>
	<polyline class="st2" points="423.4,191.3 423.8,180.8 442.1,185.3 441.9,189.4 441.6,197.4 423.4,192.7 423.4,191.3 	"/>
	<polyline class="st4" points="380.5,111.5 389.9,123.1 275.6,135.7 286.8,121 380.5,111.5 	"/>
	<polyline class="st4" points="423.4,191.3 423.4,192.7 423.2,197.4 431.5,199.6 431.4,201.6 222.6,237.5 222.4,225.8 222.4,224.1 
		423.4,191.3 	"/>
	<polyline class="st2" points="423.2,197.4 423.4,192.7 441.6,197.4 441.4,202.2 431.5,199.6 423.2,197.4 	"/>
	<polyline class="st4" points="360.4,87.6 308.9,91.9 319.9,77.5 350.3,75.3 360.2,87.5 360.4,87.6 	"/>
	<polyline class="st4" points="350.3,75.3 319.9,77.5 330.7,63.3 340.1,62.7 350.3,75.3 	"/>
	<polyline class="st4" points="340.1,62.7 330.7,63.3 335.5,57 340.1,62.7 	"/>
	<polyline class="st4" points="222.6,237.5 431.4,201.6 431,213.3 417.8,215.6 417.9,210.9 356.3,221.8 288.8,233.7 288.8,238.9 
		276.2,241.2 276.2,236 211.8,247.4 211.9,252.8 195,255.8 194.7,245.5 209.5,242.9 222.7,240.6 222.6,237.5 	"/>
	<polyline class="st2" points="35.1,183.6 35,181.8 35.4,182 35.6,183.8 35.1,183.6 	"/>
	<polyline class="st2" points="35.6,183.8 35.4,182 69.8,197.4 69.9,199.3 35.6,183.8 	"/>
	<polyline class="st2" points="69.9,199.3 69.8,197.4 101.3,211.5 181.1,247.3 182,247.7 191.6,246 193.9,245.6 194.2,255.4 
		141.7,231.7 69.9,199.3 	"/>
	<polyline class="st2" points="194.2,255.4 193.9,245.6 194.7,245.5 195,255.8 194.2,255.4 	"/>
	<polyline class="st2" points="35.6,183.8 69.9,199.3 141.7,231.7 142.2,244.1 70.5,210.2 36.2,194 35.6,183.8 	"/>
	<polyline class="st2" points="35.6,183.8 36.2,194 35.8,193.8 35.1,183.6 35.6,183.8 	"/>
	<polyline class="st2" points="142.2,244.1 141.7,231.7 194.2,255.4 194.5,268.9 142.2,244.1 	"/>
	<polyline class="st2" points="36.2,194 70.5,210.2 71.1,221.1 36.9,204.2 36.2,194 	"/>
	<polyline class="st2" points="71.1,221.1 70.5,210.2 142.2,244.1 194.5,268.9 194.8,282.2 142.6,256.4 71.1,221.1 	"/>
	<polyline class="st2" points="194.8,282.2 194.5,268.9 195.3,269.2 195.6,282.6 194.8,282.2 	"/>
	<polyline class="st2" points="36.9,204.2 71.1,221.1 142.6,256.4 143.1,268.6 71.7,231.9 37.5,214.3 36.9,204.2 	"/>
	<polyline class="st2" points="36.9,204.2 37.5,214.3 37,214.1 36.4,204 36.9,204.2 	"/>
	<polyline class="st2" points="143.1,268.6 142.6,256.4 194.8,282.2 195.1,295.4 143.1,268.6 	"/>
	<polyline class="st2" points="36.2,194 36.9,204.2 36.4,204 35.8,193.8 36.2,194 	"/>
	<polyline class="st2" points="37.5,214.3 71.7,231.9 72.3,242.7 38.1,224.4 37.5,214.3 	"/>
	<polyline class="st2" points="72.3,242.7 71.7,231.9 143.1,268.6 195.1,295.4 195.4,308.6 143.5,280.8 72.3,242.7 	"/>
	<polyline class="st2" points="195.4,308.6 195.1,295.4 195.9,295.8 196.2,309 195.4,308.6 	"/>
	<polyline class="st2" points="38.1,224.4 72.3,242.7 143.5,280.8 144,292.9 72.9,253.4 38.8,234.4 38.1,224.4 	"/>
	<polyline class="st2" points="38.1,224.4 38.8,234.4 38.3,234.2 37.7,224.2 38.1,224.4 	"/>
	<polyline class="st2" points="144,292.9 143.5,280.8 195.4,308.6 195.7,321.6 144,292.9 	"/>
	<polyline class="st2" points="37.5,214.3 38.1,224.4 37.7,224.2 37,214.1 37.5,214.3 	"/>
	<polyline class="st2" points="38.8,234.4 72.9,253.4 73.5,264 39.4,244.4 38.8,234.4 	"/>
	<polyline class="st2" points="73.5,264 72.9,253.4 144,292.9 195.7,321.6 196,334.6 144.4,304.9 73.5,264 	"/>
	<polyline class="st2" points="196,334.6 195.7,321.6 196.5,322.1 196.8,335 196,334.6 	"/>
	<polyline class="st2" points="39.4,244.4 73.5,264 144.4,304.9 144.8,316.8 74.1,274.6 40,254.3 39.4,244.4 	"/>
	<polyline class="st2" points="39.4,244.4 40,254.3 39.6,254.1 39,244.1 39.4,244.4 	"/>
	<polyline class="st2" points="144.8,316.8 144.4,304.9 196,334.6 196.3,347.5 144.8,316.8 	"/>
	<polyline class="st2" points="38.8,234.4 39.4,244.4 39,244.1 38.3,234.2 38.8,234.4 	"/>
	<polyline class="st2" points="40,254.3 74.1,274.6 74.6,285.1 40.7,264.2 40,254.3 	"/>
	<polyline class="st2" points="74.6,285.1 74.1,274.6 144.8,316.8 196.3,347.5 196.6,360.2 145.3,328.6 74.6,285.1 	"/>
	<polyline class="st2" points="196.6,360.2 196.3,347.5 197.1,347.9 197.4,360.7 196.6,360.2 	"/>
	<polyline class="st2" points="40.7,264.2 74.6,285.1 145.3,328.6 145.7,340.4 75.2,295.6 41.3,274 40.7,264.2 	"/>
	<polyline class="st2" points="40.7,264.2 41.3,274 40.8,273.7 40.2,263.9 40.7,264.2 	"/>
	<polyline class="st2" points="145.7,340.4 145.3,328.6 196.6,360.2 196.9,372.9 145.7,340.4 	"/>
	<polyline class="st2" points="40,254.3 40.7,264.2 40.2,263.9 39.6,254.1 40,254.3 	"/>
	<polyline class="st2" points="41.3,274 75.2,295.6 75.8,306 41.9,283.8 41.3,274 	"/>
	<polyline class="st2" points="75.8,306 75.2,295.6 145.7,340.4 196.9,372.9 197.2,385.6 146.2,352.1 75.8,306 	"/>
	<polyline class="st2" points="197.2,385.6 196.9,372.9 197.7,373.4 198,386.1 197.2,385.6 	"/>
	<polyline class="st2" points="41.9,283.8 75.8,306 146.2,352.1 146.6,363.7 76.4,316.4 42.5,293.5 41.9,283.8 	"/>
	<polyline class="st2" points="41.9,283.8 42.5,293.5 42.1,293.2 41.5,283.5 41.9,283.8 	"/>
	<polyline class="st2" points="146.6,363.7 146.2,352.1 197.2,385.6 197.5,398.1 146.6,363.7 	"/>
	<polyline class="st2" points="41.3,274 41.9,283.8 41.5,283.5 40.8,273.7 41.3,274 	"/>
	<polyline class="st2" points="42.5,293.5 76.4,316.4 76.9,326.6 43.1,303.2 42.5,293.5 	"/>
	<polyline class="st2" points="76.9,326.6 76.4,316.4 146.6,363.7 197.5,398.1 197.8,410.5 147,375.3 76.9,326.6 	"/>
	<polyline class="st2" points="197.8,410.5 197.5,398.1 198.3,398.6 198.6,411.1 197.8,410.5 	"/>
	<polyline class="st2" points="43.1,303.2 76.9,326.6 147,375.3 147.4,386.8 135.2,378 133.8,377 125.3,371 110.1,360.2 
		108.7,359.2 101,353.7 87.2,343.8 85.8,342.8 78.7,337.8 66.1,328.8 64.7,327.8 58.2,323.1 57.4,322.5 56.1,321.6 52.8,319.3 
		52.7,319.2 50.6,317.7 50.5,317.7 44.8,313.6 43.7,312.8 43.1,303.2 	"/>
	<polyline class="st2" points="43.1,303.2 43.7,312.8 43.3,312.5 42.7,302.9 43.1,303.2 	"/>
	<polyline class="st2" points="147.4,386.8 147,375.3 197.8,410.5 198.1,422.9 198,422.8 197.9,422.7 192.9,419.2 191.4,418.1 
		181.2,410.8 162.7,397.6 161.2,396.6 151.9,390 147.4,386.8 	"/>
	<polyline class="st2" points="42.5,293.5 43.1,303.2 42.7,302.9 42.1,293.2 42.5,293.5 	"/>
	<polyline class="st2" points="198.1,422.9 197.8,410.5 198.6,411.1 198.9,423.5 198.1,422.9 	"/>
	<polyline class="st2" points="197.5,398.1 197.2,385.6 198,386.1 198.3,398.6 197.5,398.1 	"/>
	<polyline class="st2" points="196.9,372.9 196.6,360.2 197.4,360.7 197.7,373.4 196.9,372.9 	"/>
	<polyline class="st2" points="196.3,347.5 196,334.6 196.8,335 197.1,347.9 196.3,347.5 	"/>
	<polyline class="st2" points="195.7,321.6 195.4,308.6 196.2,309 196.5,322.1 195.7,321.6 	"/>
	<polyline class="st2" points="195.1,295.4 194.8,282.2 195.6,282.6 195.9,295.8 195.1,295.4 	"/>
	<polyline class="st2" points="194.5,268.9 194.2,255.4 195,255.8 195.3,269.2 194.5,268.9 	"/>
	<polyline class="st4" points="211.9,252.8 211.8,247.4 276.2,236 276.2,241.2 211.9,252.8 	"/>
	<polyline class="st4" points="288.8,238.9 288.8,233.7 356.3,221.8 356.2,226.7 288.8,238.9 	"/>
	<polyline class="st4" points="417.9,210.9 417.8,215.6 356.2,226.7 356.3,221.8 417.9,210.9 	"/>
	<polyline class="st6" points="198.1,422.9 198.9,423.5 201.5,422.7 201.6,429.1 198,426.5 198,422.8 198.1,422.9 	"/>
	<polyline class="st7" points="198,426.5 201.6,429.1 201.7,429.2 207.9,427.4 207.8,424 208.2,424.1 209.6,424.7 210.6,425.5 
		211,426.4 210.9,427.3 210.3,428.2 209.1,429.1 207.6,429.8 205.7,430.2 203.6,430.5 201.4,430.5 199.4,430.3 197.6,429.9 
		196.2,429.2 195.2,428.4 194.8,427.5 194.9,426.6 195.6,425.7 196.8,424.9 197.9,424.4 197.9,426.5 198,426.5 	"/>
	<polyline class="st8" points="207.9,427.4 201.7,429.2 201.6,422.7 207.8,420.9 207.8,424 207.9,427.4 	"/>
	<polyline class="st9" points="198,426.5 197.9,426.5 197.9,424.4 197.9,422.7 198,422.8 198,426.5 	"/>
	<polyline class="st9" points="201.7,429.2 201.6,429.1 201.5,422.7 201.6,422.7 201.7,429.2 	"/>
	<polyline class="st10" points="194.8,427.5 195.2,428.4 196.2,429.2 197.6,429.9 199.4,430.3 201.4,430.5 203.6,430.5 205.7,430.2 
		207.6,429.8 209.1,429.1 210.3,428.2 210.9,427.3 211,426.4 210.6,425.5 209.6,424.7 208.2,424.1 207.8,424 207.8,420.9 
		215.1,418.8 276.6,401.2 288.6,397.7 353.4,379.1 408,363.4 408,364 407.4,364.1 406.3,364.6 405.6,365.3 405.3,365.9 405.6,366.6 
		406.3,367.3 407.5,367.9 409,368.4 410.7,368.7 412.5,368.9 414.4,368.9 416.1,368.7 417.5,368.3 418.6,367.8 419.3,367.2 
		419.5,366.5 419.2,365.8 418.5,365.1 417.3,364.5 417,364.4 417.1,360.8 425.6,358.4 425.7,355.7 455.5,369.1 189.8,449.2 
		19,318.7 44.8,313.6 50.5,317.7 50.7,319.6 50.2,319.7 49.1,320.2 48.4,320.7 48.1,321.2 48.2,321.8 48.7,322.2 49.6,322.6 
		50.9,322.9 52.4,323 54,323 55.7,322.9 57.3,322.6 57.4,322.5 58.2,323.1 58.3,324.3 64.8,329 66.1,328.8 78.7,337.8 78.8,339 
		85.9,344.1 87.2,343.8 101,353.7 101.1,355 108.8,360.5 110.1,360.2 125.3,371 125.4,372.3 133.8,378.4 135.2,378 147.4,386.8 
		151.9,390 152,391.4 161.2,398 162.7,397.6 181.2,410.8 181.2,412.3 191.4,419.6 192.9,419.2 197.9,422.7 197.9,424.4 196.8,424.9 
		195.6,425.7 194.9,426.6 194.8,427.5 	"/>
	<polyline class="st7" points="406.3,367.3 405.6,366.6 405.3,365.9 405.6,365.3 406.3,364.6 407.4,364.1 408,364 407.9,365.9 
		408,365.9 412.1,367.8 412.3,367.9 416.9,366.6 417,364.4 417.3,364.5 418.5,365.1 419.2,365.8 419.5,366.5 419.3,367.2 
		418.6,367.8 417.5,368.3 416.1,368.7 414.4,368.9 412.5,368.9 410.7,368.7 409,368.4 407.5,367.9 406.3,367.3 	"/>
	<polyline class="st8" points="416.9,366.6 412.3,367.9 412.5,362.2 412.8,362.1 417.1,360.8 417,364.4 416.9,366.6 	"/>
	<polyline class="st9" points="408,365.9 407.9,365.9 408,364 408,363.4 408.1,363.4 408,365.9 	"/>
	<polyline class="st9" points="412.3,367.9 412.1,367.8 412.3,362.2 412.5,362.2 412.3,367.9 	"/>
	<polyline class="st6" points="412.1,367.8 408,365.9 408.1,363.4 412.3,362.2 412.1,367.8 	"/>
	<polyline class="st10" points="48.2,321.8 48.1,321.2 48.4,320.7 49.1,320.2 50.2,319.7 50.7,319.6 50.7,320.6 50.8,320.7 
		52.9,322.2 53,322.2 56.1,321.6 57.4,322.5 57.3,322.6 55.7,322.9 54,323 52.4,323 50.9,322.9 49.6,322.6 48.7,322.2 48.2,321.8 	
		"/>
	<polyline class="st8" points="56.1,321.6 53,322.2 52.8,319.3 56.1,321.6 	"/>
	<polyline class="st9" points="50.8,320.7 50.7,320.6 50.7,319.6 50.5,317.7 50.6,317.7 50.8,320.7 	"/>
	<polyline class="st9" points="53,322.2 52.9,322.2 52.7,319.2 52.8,319.3 53,322.2 	"/>
	<polyline class="st6" points="52.9,322.2 50.8,320.7 50.6,317.7 52.7,319.2 52.9,322.2 	"/>
	<polyline class="st11" points="162.7,397.6 161.2,398 161.2,396.6 162.7,397.6 	"/>
	<polyline class="st12" points="161.2,398 152,391.4 151.9,390 161.2,396.6 161.2,398 	"/>
	<polyline class="st11" points="192.9,419.2 191.4,419.6 191.4,418.1 192.9,419.2 	"/>
	<polyline class="st12" points="191.4,419.6 181.2,412.3 181.2,410.8 191.4,418.1 191.4,419.6 	"/>
	<polyline class="st11" points="135.2,378 133.8,378.4 133.8,377 135.2,378 	"/>
	<polyline class="st12" points="133.8,378.4 125.4,372.3 125.3,371 133.8,377 133.8,378.4 	"/>
	<polyline class="st11" points="110.1,360.2 108.8,360.5 108.7,359.2 110.1,360.2 	"/>
	<polyline class="st12" points="108.8,360.5 101.1,355 101,353.7 108.7,359.2 108.8,360.5 	"/>
	<polyline class="st11" points="87.2,343.8 85.9,344.1 85.8,342.8 87.2,343.8 	"/>
	<polyline class="st12" points="85.9,344.1 78.8,339 78.7,337.8 85.8,342.8 85.9,344.1 	"/>
	<polyline class="st11" points="66.1,328.8 64.8,329 64.7,327.8 66.1,328.8 	"/>
	<polyline class="st12" points="64.8,329 58.3,324.3 58.2,323.1 64.7,327.8 64.8,329 	"/>
	<polyline class="st4" points="198.9,423.5 198.6,411.1 214.8,406.5 215.1,418.8 207.8,420.9 201.6,422.7 201.5,422.7 198.9,423.5 	
		"/>
	<polyline class="st4" points="214.8,406.5 198.6,411.1 198.3,398.6 214.6,394.2 214.8,406.5 	"/>
	<polyline class="st4" points="215.1,418.8 214.8,406.5 276.6,389.3 276.6,401.2 215.1,418.8 	"/>
	<polyline class="st4" points="276.6,401.2 276.6,389.3 288.7,385.9 288.6,397.7 276.6,401.2 	"/>
	<polyline class="st4" points="288.6,397.7 288.7,385.9 353.6,367.8 353.4,379.1 288.6,397.7 	"/>
	<polyline class="st4" points="196.8,335 196.5,322.1 213.2,318.4 213.4,331.2 196.8,335 	"/>
	<polyline class="st4" points="213.2,318.4 196.5,322.1 196.2,309 212.9,305.4 213.2,318.4 	"/>
	<polyline class="st4" points="196.8,335 213.4,331.2 213.6,344 197.1,347.9 196.8,335 	"/>
	<polyline class="st4" points="213.4,331.2 213.2,318.4 276.4,304.3 276.4,316.7 213.4,331.2 	"/>
	<polyline class="st4" points="276.4,316.7 276.4,304.3 288.7,301.5 288.7,313.8 276.4,316.7 	"/>
	<polyline class="st4" points="288.7,313.8 288.7,301.5 355.1,286.8 354.9,298.6 288.7,313.8 	"/>
	<polyline class="st4" points="197.1,347.9 213.6,344 213.9,356.7 197.4,360.7 197.1,347.9 	"/>
	<polyline class="st4" points="213.6,344 213.4,331.2 276.4,316.7 276.4,329 213.6,344 	"/>
	<polyline class="st4" points="276.4,329 276.4,316.7 288.7,313.8 288.7,326 276.4,329 	"/>
	<polyline class="st4" points="288.7,326 288.7,313.8 354.9,298.6 354.7,310.3 288.7,326 	"/>
	<polyline class="st4" points="212.9,305.4 196.2,309 195.9,295.8 212.7,292.4 212.9,305.4 	"/>
	<polyline class="st4" points="213.2,318.4 212.9,305.4 276.3,291.8 276.4,304.3 213.2,318.4 	"/>
	<polyline class="st4" points="276.4,304.3 276.3,291.8 288.7,289.2 288.7,301.5 276.4,304.3 	"/>
	<polyline class="st4" points="288.7,301.5 288.7,289.2 355.3,274.9 355.1,286.8 288.7,301.5 	"/>
	<polyline class="st4" points="198.3,398.6 198,386.1 214.4,381.8 214.6,394.2 198.3,398.6 	"/>
	<polyline class="st4" points="214.4,381.8 198,386.1 197.7,373.4 214.1,369.3 214.4,381.8 	"/>
	<polyline class="st4" points="214.6,394.2 214.4,381.8 276.5,365.4 276.5,377.4 214.6,394.2 	"/>
	<polyline class="st4" points="276.5,377.4 276.5,365.4 288.7,362.2 288.7,374.1 276.5,377.4 	"/>
	<polyline class="st4" points="288.7,374.1 288.7,362.2 354,345 353.8,356.4 288.7,374.1 	"/>
	<polyline class="st4" points="212.7,292.4 195.9,295.8 195.6,282.6 212.4,279.3 212.7,292.4 	"/>
	<polyline class="st4" points="212.9,305.4 212.7,292.4 276.3,279.3 276.3,291.8 212.9,305.4 	"/>
	<polyline class="st4" points="276.3,291.8 276.3,279.3 288.8,276.7 288.7,289.2 276.3,291.8 	"/>
	<polyline class="st4" points="288.7,289.2 288.8,276.7 355.5,263 355.3,274.9 288.7,289.2 	"/>
	<polyline class="st4" points="212.4,279.3 195.6,282.6 195.3,269.2 212.2,266.1 212.4,279.3 	"/>
	<polyline class="st4" points="212.7,292.4 212.4,279.3 276.3,266.7 276.3,279.3 212.7,292.4 	"/>
	<polyline class="st4" points="276.3,279.3 276.3,266.7 288.8,264.2 288.8,276.7 276.3,279.3 	"/>
	<polyline class="st4" points="288.8,276.7 288.8,264.2 355.8,251 355.5,263 288.8,276.7 	"/>
	<polyline class="st4" points="212.2,266.1 195.3,269.2 195,255.8 211.9,252.8 212.2,266.1 	"/>
	<polyline class="st4" points="212.4,279.3 212.2,266.1 276.3,254 276.3,266.7 212.4,279.3 	"/>
	<polyline class="st4" points="276.3,266.7 276.3,254 288.8,251.6 288.8,264.2 276.3,266.7 	"/>
	<polyline class="st4" points="288.8,264.2 288.8,251.6 356,238.9 355.8,251 288.8,264.2 	"/>
	<polyline class="st4" points="197.4,360.7 213.9,356.7 214.1,369.3 197.7,373.4 197.4,360.7 	"/>
	<polyline class="st4" points="213.9,356.7 213.6,344 276.4,329 276.5,341.2 213.9,356.7 	"/>
	<polyline class="st4" points="276.5,341.2 276.4,329 288.7,326 288.7,338.2 276.5,341.2 	"/>
	<polyline class="st4" points="288.7,338.2 288.7,326 354.7,310.3 354.5,321.9 288.7,338.2 	"/>
	<polyline class="st4" points="212.2,266.1 211.9,252.8 276.2,241.2 276.3,254 212.2,266.1 	"/>
	<polyline class="st4" points="276.3,254 276.2,241.2 288.8,238.9 288.8,251.6 276.3,254 	"/>
	<polyline class="st4" points="288.8,251.6 288.8,238.9 356.2,226.7 356,238.9 288.8,251.6 	"/>
	<polyline class="st4" points="214.1,369.3 213.9,356.7 276.5,341.2 276.5,353.3 214.1,369.3 	"/>
	<polyline class="st4" points="276.5,353.3 276.5,341.2 288.7,338.2 288.7,350.2 276.5,353.3 	"/>
	<polyline class="st4" points="288.7,350.2 288.7,338.2 354.5,321.9 354.3,333.5 288.7,350.2 	"/>
	<polyline class="st4" points="214.4,381.8 214.1,369.3 276.5,353.3 276.5,365.4 214.4,381.8 	"/>
	<polyline class="st4" points="276.5,365.4 276.5,353.3 288.7,350.2 288.7,362.2 276.5,365.4 	"/>
	<polyline class="st4" points="288.7,362.2 288.7,350.2 354.3,333.5 354,345 288.7,362.2 	"/>
	<polyline class="st4" points="214.8,406.5 214.6,394.2 276.5,377.4 276.6,389.3 214.8,406.5 	"/>
	<polyline class="st4" points="276.6,389.3 276.5,377.4 288.7,374.1 288.7,385.9 276.6,389.3 	"/>
	<polyline class="st4" points="288.7,385.9 288.7,374.1 353.8,356.4 353.6,367.8 288.7,385.9 	"/>
	<polyline class="st4" points="427.2,314.9 426.8,325.9 413.9,329.3 414.3,318.2 427.2,314.9 	"/>
	<polyline class="st4" points="414.3,318.2 413.9,329.3 354,345 354.3,333.5 414.3,318.2 	"/>
	<polyline class="st4" points="429.7,247.7 429.3,259.1 416.2,261.9 416.6,250.4 429.7,247.7 	"/>
	<polyline class="st4" points="416.6,250.4 416.2,261.9 355.3,274.9 355.5,263 416.6,250.4 	"/>
	<polyline class="st4" points="428.8,270.4 428.4,281.6 415.4,284.6 415.8,273.3 428.8,270.4 	"/>
	<polyline class="st4" points="415.8,273.3 415.4,284.6 354.9,298.6 355.1,286.8 415.8,273.3 	"/>
	<polyline class="st4" points="426.8,325.9 426.4,336.8 413.5,340.3 413.9,329.3 426.8,325.9 	"/>
	<polyline class="st4" points="413.9,329.3 413.5,340.3 353.8,356.4 354,345 413.9,329.3 	"/>
	<polyline class="st4" points="428.4,281.6 428,292.8 415,295.9 415.4,284.6 428.4,281.6 	"/>
	<polyline class="st4" points="415.4,284.6 415,295.9 354.7,310.3 354.9,298.6 415.4,284.6 	"/>
	<polyline class="st4" points="429.3,259.1 428.8,270.4 415.8,273.3 416.2,261.9 429.3,259.1 	"/>
	<polyline class="st4" points="416.2,261.9 415.8,273.3 355.1,286.8 355.3,274.9 416.2,261.9 	"/>
	<polyline class="st4" points="430.1,236.3 429.7,247.7 416.6,250.4 417,238.9 430.1,236.3 	"/>
	<polyline class="st4" points="417,238.9 416.6,250.4 355.5,263 355.8,251 417,238.9 	"/>
	<polyline class="st4" points="426.4,336.8 426,347.6 413.2,351.2 413.5,340.3 426.4,336.8 	"/>
	<polyline class="st4" points="413.5,340.3 413.2,351.2 353.6,367.8 353.8,356.4 413.5,340.3 	"/>
	<polyline class="st4" points="428,292.8 427.6,303.9 414.7,307.1 415,295.9 428,292.8 	"/>
	<polyline class="st4" points="415,295.9 414.7,307.1 354.5,321.9 354.7,310.3 415,295.9 	"/>
	<polyline class="st4" points="430.5,224.8 430.1,236.3 417,238.9 417.4,227.3 430.5,224.8 	"/>
	<polyline class="st4" points="417.4,227.3 417,238.9 355.8,251 356,238.9 417.4,227.3 	"/>
	<polyline class="st4" points="427.6,303.9 427.2,314.9 414.3,318.2 414.7,307.1 427.6,303.9 	"/>
	<polyline class="st4" points="414.7,307.1 414.3,318.2 354.3,333.5 354.5,321.9 414.7,307.1 	"/>
	<polyline class="st4" points="431,213.3 430.5,224.8 417.4,227.3 417.8,215.6 431,213.3 	"/>
	<polyline class="st4" points="417.8,215.6 417.4,227.3 356,238.9 356.2,226.7 417.8,215.6 	"/>
	<polyline class="st13" points="393.5,419.5 393.2,417.5 393.9,393.1 394.2,394.9 393.5,419.5 	"/>
	<polyline class="st14" points="394.9,421.4 393.5,419.5 394.2,394.9 395.6,396.8 394.9,421.4 	"/>
	<polyline class="st15" points="397.4,423.2 394.9,421.4 395.6,396.8 398.2,398.4 397.4,423.2 	"/>
	<polyline class="st16" points="400.9,424.7 397.4,423.2 398.2,398.4 401.7,399.9 400.9,424.7 	"/>
	<polyline class="st17" points="405,425.7 400.9,424.7 401.7,399.9 405.8,400.9 405,425.7 	"/>
	<polyline class="st18" points="409.6,426.4 405,425.7 405.8,400.9 410.4,401.5 409.6,426.4 	"/>
	<polyline class="st19" points="414.2,426.5 409.6,426.4 410.4,401.5 415.1,401.6 414.2,426.5 	"/>
	<polyline class="st20" points="418.6,426 414.2,426.5 415.1,401.6 419.5,401.2 418.6,426 	"/>
	<polyline class="st21" points="422.4,425.1 418.6,426 419.5,401.2 423.3,400.3 422.4,425.1 	"/>
	<polyline class="st22" points="425.4,423.7 422.4,425.1 423.3,400.3 426.3,399 425.4,423.7 	"/>
	<polyline class="st23" points="427.3,422.1 425.4,423.7 426.3,399 428.3,397.4 427.3,422.1 	"/>
	<polyline class="st24" points="428.1,420.2 427.3,422.1 428.3,397.4 429,395.6 428.1,420.2 	"/>
	<polyline class="st25" points="424.4,390.3 427.1,391.9 428.6,393.7 429,395.6 428.3,397.4 426.3,399 423.3,400.3 419.5,401.2 
		415.1,401.6 410.4,401.5 405.8,400.9 401.7,399.9 398.2,398.4 395.6,396.8 394.2,394.9 393.9,393.1 394.9,391.3 396.9,389.8 
		399.9,388.6 401.1,388.3 400.9,393.6 401.1,394.7 402,395.8 403.5,396.8 405.6,397.6 408.1,398.2 410.8,398.6 413.6,398.6 
		416.2,398.4 418.5,397.9 420.3,397.1 421.5,396.2 422,395.1 422.2,389.4 424.4,390.3 	"/>
	<polyline class="st16" points="405.6,397.6 403.5,396.8 403.9,385.5 406,384.9 405.6,397.6 	"/>
	<polyline class="st26" points="408.1,398.2 405.6,397.6 406,384.9 408.6,384.1 408.1,398.2 	"/>
	<polyline class="st13" points="401.1,394.7 400.9,393.6 401.1,388.3 401.2,386.4 401.4,386.3 401.1,394.7 	"/>
	<polyline class="st27" points="422,395.1 421.5,396.2 422.1,380 422.6,379.9 422.2,389.4 422,395.1 	"/>
	<polyline class="st19" points="413.6,398.6 410.8,398.6 411.4,383.3 414.2,382.4 413.6,398.6 	"/>
	<polyline class="st15" points="403.5,396.8 402,395.8 402.3,386 403.9,385.5 403.5,396.8 	"/>
	<polyline class="st14" points="402,395.8 401.1,394.7 401.4,386.3 402.3,386 402,395.8 	"/>
	<polyline class="st28" points="420.3,397.1 418.5,397.9 419.1,380.9 420.9,380.4 420.3,397.1 	"/>
	<polyline class="st29" points="410.8,398.6 408.1,398.2 408.6,384.1 411.4,383.3 410.8,398.6 	"/>
	<polyline class="st30" points="416.2,398.4 413.6,398.6 414.2,382.4 416.8,381.6 416.2,398.4 	"/>
	<polyline class="st31" points="418.5,397.9 416.2,398.4 416.8,381.6 419.1,380.9 418.5,397.9 	"/>
	<polyline class="st32" points="421.5,396.2 420.3,397.1 420.9,380.4 422.1,380 421.5,396.2 	"/>
	<polyline class="st14" points="184.8,490 184.2,487.4 183.4,459.6 184,462.1 184.8,490 	"/>
	<polyline class="st15" points="186.8,492.3 184.8,490 184,462.1 186,464.3 186.8,492.3 	"/>
	<polyline class="st16" points="190,494.3 186.8,492.3 186,464.3 189.2,466.2 190,494.3 	"/>
	<polyline class="st17" points="194.2,495.7 190,494.3 189.2,466.2 193.5,467.5 194.2,495.7 	"/>
	<polyline class="st18" points="199.1,496.5 194.2,495.7 193.5,467.5 198.4,468.3 199.1,496.5 	"/>
	<polyline class="st19" points="204.4,496.6 199.1,496.5 198.4,468.3 203.7,468.4 204.4,496.6 	"/>
	<polyline class="st20" points="209.6,496.1 204.4,496.6 203.7,468.4 209.1,467.9 209.6,496.1 	"/>
	<polyline class="st21" points="214.5,494.8 209.6,496.1 209.1,467.9 214,466.7 214.5,494.8 	"/>
	<polyline class="st22" points="218.7,493.1 214.5,494.8 214,466.7 218.1,465 218.7,493.1 	"/>
	<polyline class="st23" points="221.8,490.8 218.7,493.1 218.1,465 221.3,462.9 221.8,490.8 	"/>
	<polyline class="st24" points="223.7,488.3 221.8,490.8 221.3,462.9 223.2,460.5 223.7,488.3 	"/>
	<polyline class="st13" points="224.2,485.7 223.7,488.3 223.2,460.5 223.8,458 224.2,485.7 	"/>
	<polyline class="st25" points="198.4,468.3 193.5,467.5 189.2,466.2 186,464.3 184,462.1 183.4,459.6 184.2,457.2 186.2,454.8 
		189.5,452.8 191.3,452.1 191.5,459.3 191.9,460.8 193.1,462.1 195,463.2 197.6,464 200.5,464.5 203.7,464.6 206.9,464.2 
		209.8,463.5 212.3,462.5 214.2,461.3 215.4,459.8 215.7,458.4 215.6,451.1 217.6,451.7 220.8,453.5 223,455.6 223.8,458 
		223.2,460.5 221.3,462.9 218.1,465 214,466.7 209.1,467.9 203.7,468.4 198.4,468.3 	"/>
	<polyline class="st30" points="206.9,464.2 203.7,464.6 203.3,446.1 206.4,445.2 206.9,464.2 	"/>
	<polyline class="st33" points="203.7,464.6 200.5,464.5 200.1,447.1 203.3,446.1 203.7,464.6 	"/>
	<polyline class="st18" points="200.5,464.5 197.6,464 197.2,448 200.1,447.1 200.5,464.5 	"/>
	<polyline class="st31" points="209.8,463.5 206.9,464.2 206.4,445.2 209.4,444.3 209.8,463.5 	"/>
	<polyline class="st17" points="197.6,464 195,463.2 194.7,448.7 197.2,448 197.6,464 	"/>
	<polyline class="st22" points="212.3,462.5 209.8,463.5 209.4,444.3 211.9,443.5 212.3,462.5 	"/>
	<polyline class="st34" points="195,463.2 193.1,462.1 192.8,449.3 194.7,448.7 195,463.2 	"/>
	<polyline class="st23" points="214.2,461.3 212.3,462.5 211.9,443.5 213.8,443 214.2,461.3 	"/>
	<polyline class="st15" points="193.1,462.1 191.9,460.8 191.6,449.7 192.8,449.3 193.1,462.1 	"/>
	<polyline class="st24" points="215.4,459.8 214.2,461.3 213.8,443 215,442.6 215.4,459.8 	"/>
	<polyline class="st14" points="191.9,460.8 191.5,459.3 191.3,452.1 191.3,449.8 191.6,449.7 191.9,460.8 	"/>
	<polyline class="st13" points="215.7,458.4 215.4,459.8 215,442.6 215.4,442.5 215.6,451.1 215.7,458.4 	"/>
	<polyline class="st16" points="44.6,372.7 42.6,371.6 41.2,349.4 43.2,350.5 44.6,372.7 	"/>
	<polyline class="st17" points="47.6,373.6 44.6,372.7 43.2,350.5 46.2,351.3 47.6,373.6 	"/>
	<polyline class="st18" points="51.2,374.1 47.6,373.6 46.2,351.3 49.8,351.7 51.2,374.1 	"/>
	<polyline class="st19" points="55.2,374.1 51.2,374.1 49.8,351.7 53.8,351.8 55.2,374.1 	"/>
	<polyline class="st20" points="59.4,373.8 55.2,374.1 53.8,351.8 58,351.5 59.4,373.8 	"/>
	<polyline class="st21" points="63.4,373.1 59.4,373.8 58,351.5 60.4,351.1 62.2,352.4 63.4,373.1 	"/>
	<polyline class="st22" points="67,372 63.4,373.1 62.2,352.4 66,355.4 67,372 	"/>
	<polyline class="st23" points="69.9,370.7 67,372 66,355.4 69.1,357.8 69.9,370.7 	"/>
	<polyline class="st24" points="71.9,369.2 69.9,370.7 69.1,357.8 71.3,359.4 71.9,369.2 	"/>
	<polyline class="st13" points="72.9,367.7 71.9,369.2 71.3,359.4 72.5,360.3 72.9,367.7 	"/>
	<polyline class="st14" points="72.8,366.2 72.9,367.7 72.5,360.3 72.5,360.3 72.8,366.2 	"/>
	<polyline class="st15" points="42.6,371.6 41.6,370.2 40.2,348.1 41.2,349.4 42.6,371.6 	"/>
	<polyline class="st25" points="43.2,350.5 41.2,349.4 40.2,348.1 40.2,346.6 41.4,345.2 43.5,343.8 46.2,342.7 46.5,347.3 
		47.1,348.1 48.4,348.7 50.1,349.2 52.3,349.5 54.7,349.5 57.2,349.3 58,349.2 60.4,351.1 58,351.5 53.8,351.8 49.8,351.7 
		46.2,351.3 43.2,350.5 	"/>
	<polyline class="st17" points="50.1,349.2 48.4,348.7 47.9,341.5 49.7,342.9 50.1,349.2 	"/>
	<polyline class="st18" points="52.3,349.5 50.1,349.2 49.7,342.9 52,344.6 52.3,349.5 	"/>
	<polyline class="st16" points="48.4,348.7 47.1,348.1 46.6,340.5 47.9,341.5 48.4,348.7 	"/>
	<polyline class="st19" points="54.7,349.5 52.3,349.5 52,344.6 54.5,346.6 54.7,349.5 	"/>
	<polyline class="st15" points="47.1,348.1 46.5,347.3 46.2,342.7 46,340.1 46.6,340.5 47.1,348.1 	"/>
	<polyline class="st30" points="57.2,349.3 54.7,349.5 54.5,346.6 57.1,348.6 57.2,349.3 	"/>
	<polyline class="st31" points="58,349.2 57.2,349.3 57.1,348.6 58,349.2 	"/>
	<polyline class="st2" points="181.1,247.3 101.3,211.5 101,205.2 180.9,240.2 181.1,247.3 	"/>
	<polyline class="st2" points="101,205.2 101.3,211.5 69.8,197.4 35.4,182 35,181.8 2.7,167.3 2.7,166.7 2.4,162.1 101,205.2 	"/>
	<polyline class="st11" points="455.5,369.1 455.5,369.9 422.6,379.9 422.1,380 420.9,380.4 419.1,380.9 416.8,381.6 414.2,382.4 
		411.4,383.3 408.6,384.1 406,384.9 403.9,385.5 402.3,386 401.4,386.3 401.2,386.4 215.4,442.5 215,442.6 213.8,443 211.9,443.5 
		209.4,444.3 206.4,445.2 203.3,446.1 200.1,447.1 197.2,448 194.7,448.7 192.8,449.3 191.6,449.7 191.3,449.8 189.8,450.2 
		189.8,449.2 455.5,369.1 	"/>
	<polyline class="st12" points="189.8,449.2 189.8,450.2 72.5,360.3 72.5,360.3 71.3,359.4 69.1,357.8 66,355.4 62.2,352.4 
		60.4,351.1 58,349.2 57.1,348.6 54.5,346.6 52,344.6 49.7,342.9 47.9,341.5 46.6,340.5 46,340.1 19.1,319.4 19,318.7 189.8,449.2 	
		"/>
	<polyline class="st12" points="1.8,161.9 1.8,161.5 181.7,239.9 181.8,240.5 180.9,240.2 101,205.2 2.4,162.1 1.9,162 1.8,161.9 	
		"/>
	<polyline class="st35" points="181.8,240.5 181.7,239.9 180.2,238.6 184.6,232.9 184.7,233 180.4,238.5 180.5,238.6 181.8,239.9 
		181.8,239.9 181.9,240.5 181.8,240.5 181.8,240.5 	"/>
	<polyline class="st36" points="180.4,238.5 184.7,233 184.6,232.9 183.9,232.6 342.6,25.4 343.6,25.5 343.7,25.4 180.5,238.6 
		180.4,238.5 	"/>
	<polyline class="st37" points="181.7,239.9 1.8,161.5 0.5,160.4 180.2,238.6 181.7,239.9 	"/>
	<polyline class="st36" points="180.2,238.6 0.5,160.4 1.8,158.9 2,159.1 1.8,159.3 2,159.5 175.7,234.4 175.5,234.7 178,237 
		178.6,237.3 179.5,236 180.6,236.5 183.7,232.5 183.9,232.6 184.6,232.9 180.2,238.6 	"/>
	<polyline class="st3" points="175.7,234.4 2,159.5 1.8,159.3 2.8,159.8 3.1,159.9 12,163.7 12.2,163.9 21.5,167.8 21.8,168 
		31.5,172.1 31.8,172.3 41.9,176.6 42.3,176.8 52.8,181.3 53.2,181.5 64.2,186.3 64.6,186.4 65.1,186.6 65.1,186.6 76.2,191.4 
		76.6,191.6 78.3,192.3 78.3,192.3 88.7,196.8 89.1,197 101.9,202.5 102.3,202.7 115.7,208.5 116.2,208.6 130.3,214.7 130.8,214.9 
		145.7,221.4 146.1,221.6 161.9,228.4 162.4,228.6 175.8,234.3 175.7,234.4 	"/>
	<polyline class="st3" points="180.6,236.5 179.5,236 179.6,236 180.4,236.3 180.6,236.5 	"/>
	<polyline class="st11" points="183.7,232.5 180.6,236.5 180.4,236.3 342.6,24.6 342.7,24.7 342.4,25 342.7,25.3 342.7,25.3 
		342.6,25.4 183.9,232.6 183.7,232.5 	"/>
	<polyline class="st36" points="342.6,25.4 342.7,25.3 342.7,25.3 342.7,25.3 343.3,25.3 343.7,25.4 343.6,25.5 342.6,25.4 	"/>
	<polyline class="st38" points="180.4,236.3 179.6,236 340.8,25.6 340.8,24.7 341,24.5 341.1,24.5 342.6,24.6 180.4,236.3 	"/>
	<polyline class="st37" points="102.3,202.7 101.9,202.5 99.5,200.4 99.9,200.6 102.3,202.7 	"/>
	<polyline class="st36" points="99.9,200.6 99.5,200.4 241.1,22.4 241.7,21.8 242.2,21.8 99.9,200.6 	"/>
	<polyline class="st37" points="242.2,21.8 241.7,21.8 228.8,20.8 226.3,20.6 225.8,20.6 213.6,19.7 211.2,19.5 210.7,19.4 
		199.1,18.6 196.7,18.4 196.3,18.3 185.3,17.5 182.9,17.3 182.5,17.3 172,16.5 169.7,16.3 169.3,16.3 159.3,15.5 157,15.4 
		156.6,15.3 147.1,14.6 144.9,14.4 144.5,14.4 135.4,13.7 133.2,13.6 132.9,13.5 124.2,12.9 122,12.7 121.7,12.7 120.5,12.6 
		119.9,12.1 333,28 333.6,28.7 316.5,27.4 313.9,27.2 313.3,27.2 297.2,26 294.6,25.8 294,25.7 278.8,24.6 276.2,24.4 275.7,24.4 
		261.3,23.3 258.8,23.1 258.2,23 244.6,22 242.2,21.8 	"/>
	<polyline class="st36" points="196.3,18.3 196.7,18.4 62.3,184.4 61.9,184.3 195.8,18.9 196.3,18.3 	"/>
	<polyline class="st36" points="258.2,23 258.8,23.1 113.8,206.5 113.3,206.3 257.7,23.7 258.2,23 	"/>
	<polyline class="st36" points="294,25.7 294.6,25.8 143.7,219.4 143.2,219.2 293.5,26.4 294,25.7 	"/>
	<polyline class="st36" points="225.8,20.6 226.3,20.6 86.8,194.9 86.4,194.8 225.3,21.2 225.8,20.6 	"/>
	<polyline class="st36" points="169.3,16.3 169.7,16.3 40,174.9 39.7,174.7 168.8,16.9 169.3,16.3 	"/>
	<polyline class="st36" points="156.6,15.3 157,15.4 29.6,170.4 29.3,170.3 156.2,15.9 156.6,15.3 	"/>
	<polyline class="st36" points="210.7,19.4 211.2,19.5 74.2,189.6 73.9,189.4 210.2,20 210.7,19.4 	"/>
	<polyline class="st36" points="313.3,27.2 313.9,27.2 159.9,226.3 159.4,226.1 312.8,27.9 313.3,27.2 	"/>
	<polyline class="st36" points="275.7,24.4 276.2,24.4 128.3,212.8 127.8,212.6 275.2,25 275.7,24.4 	"/>
	<polyline class="st36" points="182.5,17.3 182.9,17.3 50.9,179.6 50.6,179.4 182,17.9 182.5,17.3 	"/>
	<polyline class="st36" points="144.5,14.4 144.9,14.4 19.7,166.2 19.4,166 144.1,15 144.5,14.4 	"/>
	<polyline class="st36" points="132.9,13.5 133.2,13.6 10.1,162.1 9.8,161.9 132.4,14.1 132.9,13.5 	"/>
	<polyline class="st36" points="121.7,12.7 122,12.7 1,158.1 0.7,158 121.7,12.7 	"/>
	<polyline class="st35" points="99.9,200.6 242.2,21.8 244.6,22 245.3,22.7 102.3,202.7 99.9,200.6 	"/>
	<polyline class="st37" points="245.3,22.7 244.6,22 258.2,23 257.7,23.7 245.3,22.7 	"/>
	<polyline class="st38" points="245.3,22.7 257.7,23.7 113.3,206.3 115.7,208.5 102.3,202.7 245.3,22.7 	"/>
	<polyline class="st38" points="99.5,200.4 101.9,202.5 89.1,197 229.4,21.5 241.1,22.4 99.5,200.4 	"/>
	<polyline class="st37" points="241.1,22.4 229.4,21.5 228.8,20.8 241.7,21.8 241.1,22.4 	"/>
	<polyline class="st35" points="228.8,20.8 229.4,21.5 89.1,197 86.8,194.9 226.3,20.6 228.8,20.8 	"/>
	<polyline class="st37" points="61.9,184.3 62.3,184.4 64.6,186.4 64.2,186.3 61.9,184.3 	"/>
	<polyline class="st35" points="62.3,184.4 196.7,18.4 199.1,18.6 199.7,19.2 64.6,186.4 62.3,184.4 	"/>
	<polyline class="st37" points="199.7,19.2 199.1,18.6 210.7,19.4 210.2,20 199.7,19.2 	"/>
	<polyline class="st38" points="199.7,19.2 210.2,20 73.9,189.4 76.2,191.4 65.1,186.6 65.1,186.6 64.6,186.4 199.7,19.2 	"/>
	<polyline class="st38" points="61.9,184.3 64.2,186.3 53.2,181.5 185.9,18.2 195.8,18.9 61.9,184.3 	"/>
	<polyline class="st37" points="195.8,18.9 185.9,18.2 185.3,17.5 196.3,18.3 195.8,18.9 	"/>
	<polyline class="st35" points="185.3,17.5 185.9,18.2 53.2,181.5 50.9,179.6 182.9,17.3 185.3,17.5 	"/>
	<polyline class="st37" points="113.3,206.3 113.8,206.5 116.2,208.6 115.7,208.5 113.3,206.3 	"/>
	<polyline class="st35" points="113.8,206.5 258.8,23.1 261.3,23.3 261.9,24 116.2,208.6 113.8,206.5 	"/>
	<polyline class="st37" points="261.9,24 261.3,23.3 275.7,24.4 275.2,25 261.9,24 	"/>
	<polyline class="st38" points="261.9,24 275.2,25 127.8,212.6 130.3,214.7 116.2,208.6 261.9,24 	"/>
	<polyline class="st37" points="143.2,219.2 143.7,219.4 146.1,221.6 145.7,221.4 143.2,219.2 	"/>
	<polyline class="st35" points="143.7,219.4 294.6,25.8 297.2,26 297.8,26.8 146.1,221.6 143.7,219.4 	"/>
	<polyline class="st37" points="297.8,26.8 297.2,26 313.3,27.2 312.8,27.9 297.8,26.8 	"/>
	<polyline class="st38" points="297.8,26.8 312.8,27.9 159.4,226.1 161.9,228.4 146.1,221.6 297.8,26.8 	"/>
	<polyline class="st38" points="143.2,219.2 145.7,221.4 130.8,214.9 279.4,25.3 293.5,26.4 143.2,219.2 	"/>
	<polyline class="st37" points="293.5,26.4 279.4,25.3 278.8,24.6 294,25.7 293.5,26.4 	"/>
	<polyline class="st35" points="278.8,24.6 279.4,25.3 130.8,214.9 128.3,212.8 276.2,24.4 278.8,24.6 	"/>
	<polyline class="st37" points="86.4,194.8 86.8,194.9 89.1,197 88.7,196.8 86.4,194.8 	"/>
	<polyline class="st38" points="86.4,194.8 88.7,196.8 78.3,192.3 78.3,192.3 76.6,191.6 214.2,20.3 225.3,21.2 86.4,194.8 	"/>
	<polyline class="st37" points="225.3,21.2 214.2,20.3 213.6,19.7 225.8,20.6 225.3,21.2 	"/>
	<polyline class="st35" points="213.6,19.7 214.2,20.3 76.6,191.6 74.2,189.6 211.2,19.5 213.6,19.7 	"/>
	<polyline class="st37" points="39.7,174.7 40,174.9 42.3,176.8 41.9,176.6 39.7,174.7 	"/>
	<polyline class="st35" points="40,174.9 169.7,16.3 172,16.5 172.6,17.2 42.3,176.8 40,174.9 	"/>
	<polyline class="st37" points="172.6,17.2 172,16.5 182.5,17.3 182,17.9 172.6,17.2 	"/>
	<polyline class="st38" points="172.6,17.2 182,17.9 50.6,179.4 52.8,181.3 42.3,176.8 172.6,17.2 	"/>
	<polyline class="st38" points="39.7,174.7 41.9,176.6 31.8,172.3 159.9,16.2 168.8,16.9 39.7,174.7 	"/>
	<polyline class="st37" points="168.8,16.9 159.9,16.2 159.3,15.5 169.3,16.3 168.8,16.9 	"/>
	<polyline class="st35" points="159.3,15.5 159.9,16.2 31.8,172.3 29.6,170.4 157,15.4 159.3,15.5 	"/>
	<polyline class="st37" points="29.3,170.3 29.6,170.4 31.8,172.3 31.5,172.1 29.3,170.3 	"/>
	<polyline class="st38" points="29.3,170.3 31.5,172.1 21.8,168 147.7,15.2 156.2,15.9 29.3,170.3 	"/>
	<polyline class="st37" points="156.2,15.9 147.7,15.2 147.1,14.6 156.6,15.3 156.2,15.9 	"/>
	<polyline class="st35" points="147.1,14.6 147.7,15.2 21.8,168 19.7,166.2 144.9,14.4 147.1,14.6 	"/>
	<polyline class="st37" points="73.9,189.4 74.2,189.6 76.6,191.6 76.2,191.4 73.9,189.4 	"/>
	<polyline class="st37" points="159.4,226.1 159.9,226.3 162.4,228.6 161.9,228.4 159.4,226.1 	"/>
	<polyline class="st35" points="159.9,226.3 313.9,27.2 316.5,27.4 317.2,28.2 162.4,228.6 159.9,226.3 	"/>
	<polyline class="st37" points="317.2,28.2 316.5,27.4 333.6,28.7 333.1,29.5 317.2,28.2 	"/>
	<polyline class="st38" points="317.2,28.2 333.1,29.5 175.8,234.3 162.4,228.6 317.2,28.2 	"/>
	<polyline class="st37" points="127.8,212.6 128.3,212.8 130.8,214.9 130.3,214.7 127.8,212.6 	"/>
	<polyline class="st37" points="50.6,179.4 50.9,179.6 53.2,181.5 52.8,181.3 50.6,179.4 	"/>
	<polyline class="st37" points="19.4,166 19.7,166.2 21.8,168 21.5,167.8 19.4,166 	"/>
	<polyline class="st38" points="19.4,166 21.5,167.8 12.2,163.9 136,14.4 144.1,15 19.4,166 	"/>
	<polyline class="st37" points="144.1,15 136,14.4 135.4,13.7 144.5,14.4 144.1,15 	"/>
	<polyline class="st35" points="135.4,13.7 136,14.4 12.2,163.9 10.1,162.1 133.2,13.6 135.4,13.7 	"/>
	<polyline class="st37" points="9.8,161.9 10.1,162.1 12.2,163.9 12,163.7 9.8,161.9 	"/>
	<polyline class="st38" points="9.8,161.9 12,163.7 3.1,159.9 124.8,13.5 132.4,14.1 9.8,161.9 	"/>
	<polyline class="st37" points="132.4,14.1 124.8,13.5 124.2,12.9 132.9,13.5 132.4,14.1 	"/>
	<polyline class="st35" points="124.2,12.9 124.8,13.5 3.1,159.9 1,158.1 122,12.7 124.2,12.9 	"/>
	<polyline class="st37" points="0.7,158 1,158.1 3.1,159.9 2.8,159.8 2,159.1 1.8,158.9 0.7,158 	"/>
	<polyline class="st37" points="178.6,237.3 178,237 175.5,234.7 176,235 178.6,237.3 	"/>
	<polyline class="st36" points="176,235 175.5,234.7 175.7,234.4 175.8,234.3 333.1,29.5 333.6,28.7 340,20.4 340.2,20.2 
		340.2,20.2 340.9,20.2 176,235 	"/>
	<polyline class="st35" points="176,235 340.9,20.2 340.9,20.2 340.9,21 340.8,24.7 340.8,25.6 179.6,236 179.5,236 178.6,237.3 
		176,235 	"/>
	<polyline class="st36" points="340.9,20.2 340.2,20.2 340.2,20.2 339.9,20.2 338,17.8 338.4,17.2 344.2,17.6 342.3,20.1 
		341.9,20.1 341.9,20.3 340.9,20.2 340.9,20.2 	"/>
	<polyline class="st37" points="341,24.5 340.8,24.7 340.9,21 341.9,21 341.9,24.6 341.1,24.5 341.1,24.5 341,24.5 	"/>
	<polyline class="st38" points="1.8,159.3 2,159.1 2.8,159.8 1.8,159.3 	"/>
	<polyline class="st36" points="119.9,12.1 124.5,6.6 338.8,20.4 333,28 119.9,12.1 	"/>
	<polyline class="st37" points="338.8,20.4 124.5,6.6 124.4,6.5 336.1,20.1 337.4,18.6 338.8,20.4 	"/>
	<polyline class="st37" points="122.2,6.4 121.7,5.8 335.6,19.4 336.1,20.1 124.4,6.5 122.2,6.4 	"/>
	<polyline class="st36" points="335.6,19.4 121.7,5.8 126.1,0.6 341.2,12.1 335.6,19.4 	"/>
	<polyline class="st35" points="335.6,19.4 341.2,12.1 341.2,13.6 341.2,13.6 338.4,17.2 338,17.8 339.9,20.2 340,20.4 333.6,28.7 
		333,28 338.8,20.4 337.4,18.6 336.1,20.1 335.6,19.4 	"/>
	<polyline class="st37" points="341.9,21 340.9,21 340.9,20.2 341.9,20.3 341.9,21 	"/>
	<polyline class="st37" points="346,19.8 343.8,19.7 344.8,18.3 346,19.8 	"/>
	<polyline class="st37" points="339.9,20.2 340.2,20.2 340,20.4 339.9,20.2 	"/>
	<polyline class="st37" points="344.2,17.6 338.4,17.2 341.2,13.6 344.2,17.6 	"/>
	<polyline class="st35" points="341.2,13.6 341.2,13.6 341.2,12.1 346.6,19 346,19.8 344.8,18.3 343.8,19.7 343.3,20.3 348.8,27.4 
		348.5,27.7 342.6,20.1 342.3,20.1 344.2,17.6 341.2,13.6 	"/>
	<polyline class="st35" points="472.1,186.1 471,187.6 469.7,185.9 469.4,185.8 343.7,25.4 343.3,25.3 342.7,24.6 342.5,24.6 
		342.6,20.1 348.5,27.7 472.1,186.1 	"/>
	<polyline class="st39" points="342.6,20.1 342.5,24.6 341.9,24.6 341.9,21 341.9,20.3 341.9,20.1 342.3,20.1 342.6,20.1 	"/>
	<polyline class="st40" points="341.1,24.5 341.1,24.5 341.9,24.6 342.5,24.6 342.7,24.6 342.7,24.7 342.6,24.6 341.1,24.5 	"/>
	<polyline class="st11" points="342.7,24.6 343.3,25.3 342.7,25.3 342.7,25.3 342.9,25 342.7,24.7 342.7,24.6 	"/>
	<polyline class="st11" points="342.9,25 342.7,25.3 342.4,25 342.7,24.7 342.9,25 	"/>
	<polyline class="st2" points="2.3,166.5 1.9,162 2.4,162.1 2.7,166.7 2.3,166.5 	"/>
	<polyline class="st2" points="181.1,247.3 180.9,240.2 181.8,240.5 181.8,240.5 182,247.7 181.1,247.3 	"/>
	<polyline class="st4" points="182,247.7 181.8,240.5 181.9,240.5 181.8,239.9 181.9,239.9 181.9,239.9 181.9,240 181.9,240 
		182.5,240.4 343.6,29.7 343.3,46.7 342.9,47.2 342.7,47.5 335.5,57 330.7,63.3 319.9,77.5 308.9,91.9 297.9,106.4 286.8,121 
		275.6,135.7 264.3,150.6 252.9,165.5 241.4,180.6 229.8,195.9 222.1,206 191.6,246 182,247.7 	"/>
	<polyline class="st4" points="343.3,46.7 343.6,29.7 343.9,29.3 471.2,191.5 471.3,191.5 471.3,191.5 471,197.5 464.5,198.6 
		443.6,172.4 343.3,46.7 	"/>
	<polyline class="st35" points="180.5,238.6 343.7,25.4 343.7,28.6 182,240 181.8,239.9 180.5,238.6 	"/>
	<polyline class="st41" points="182,240 343.7,28.6 343.9,29.2 182.5,240.3 182,240 	"/>
	<polyline class="st42" points="182.5,240.3 343.9,29.2 343.9,29.3 343.6,29.7 182.5,240.4 182.5,240.3 	"/>
	<polyline class="st43" points="343.9,29.3 343.9,29.2 471.3,191.5 471.3,191.5 471.2,191.5 343.9,29.3 	"/>
	<polyline class="st37" points="182.5,240.3 182.5,240.4 181.9,240 181.9,240 181.9,239.9 181.9,239.9 181.8,239.9 181.8,239.9 
		182,240 182.5,240.3 	"/>
	<polyline class="st35" points="343.7,28.6 343.7,25.4 469.4,185.8 469.5,185.9 472.2,189.5 472.3,189.6 471.4,191 471.3,191.1 
		471.3,191.1 343.7,28.6 	"/>
	<polyline class="st44" points="343.9,29.2 343.7,28.6 471.3,191.1 471.3,191.2 471.3,191.5 343.9,29.2 	"/>
	<polyline class="st4" points="353.6,367.8 413.2,351.2 412.8,362.1 412.5,362.2 412.3,362.2 408.1,363.4 408,363.4 353.4,379.1 
		353.6,367.8 	"/>
	<polyline class="st4" points="412.8,362.1 413.2,351.2 426,347.6 425.7,355.7 425.6,358.4 417.1,360.8 412.8,362.1 	"/>
	<polyline class="st2" points="441.9,189.4 442.9,189.6 442.4,202.5 441.4,202.2 441.6,197.4 441.9,189.4 	"/>
	<polyline class="st4" points="442.4,202.5 442.9,189.6 452,200.8 442.4,202.5 	"/>
	<polyline class="st4" points="442.9,189.6 443.6,172.4 464.5,198.6 452,200.8 442.9,189.6 	"/>
	<polyline class="st35" points="471.4,191.5 471.4,191.5 471.4,191 472.4,189.5 469.7,186 469.7,185.9 471,187.6 472.5,189.5 
		471.5,191 471.4,191.5 	"/>
	<polyline class="st36" points="472.4,189.5 471.4,191 471.4,191 472.3,189.6 472.2,189.5 472.4,189.5 	"/>
	<polyline class="st37" points="472.4,189.5 472.2,189.5 469.5,185.9 469.7,186 472.4,189.5 	"/>
	<polyline class="st36" points="471.4,191 471.4,191.5 471.3,191.5 471.3,191.5 471.3,191.5 471.3,191.2 471.3,191.1 471.4,191 
		471.4,191 	"/>
	<polyline class="st4" points="471.3,191.1 471.3,191.2 471.3,191.1 471.3,191.1 	"/>
	<polyline class="st36" points="469.7,186 469.5,185.9 469.4,185.8 469.7,185.9 469.7,186 	"/>
	<polyline class="st4" points="222.7,240.6 209.5,242.9 222.4,225.8 222.6,237.5 222.7,240.6 	"/>
	<polyline class="st4" points="222.1,206 222.2,210.6 222.4,224.1 222.4,225.8 209.5,242.9 194.7,245.5 193.9,245.6 191.6,246 
		222.1,206 	"/>
	<line class="st45" x1="195.2" y1="428.4" x2="194.8" y2="427.5"/>
	<line class="st45" x1="195.2" y1="428.4" x2="196.2" y2="429.2"/>
	<line class="st45" x1="210.9" y1="427.3" x2="211" y2="426.4"/>
	<line class="st45" x1="210.3" y1="428.2" x2="210.9" y2="427.3"/>
	<line class="st45" x1="209.1" y1="429.1" x2="210.3" y2="428.2"/>
	<line class="st45" x1="207.6" y1="429.8" x2="209.1" y2="429.1"/>
	<line class="st45" x1="205.7" y1="430.2" x2="207.6" y2="429.8"/>
	<line class="st45" x1="203.6" y1="430.5" x2="205.7" y2="430.2"/>
	<line class="st45" x1="201.4" y1="430.5" x2="203.6" y2="430.5"/>
	<line class="st45" x1="199.4" y1="430.3" x2="201.4" y2="430.5"/>
	<line class="st45" x1="197.6" y1="429.9" x2="199.4" y2="430.3"/>
	<line class="st45" x1="196.2" y1="429.2" x2="197.6" y2="429.9"/>
	<polyline class="st45" points="405.6,366.6 406.3,367.3 407.5,367.9 	"/>
	<line class="st45" x1="419.3" y1="367.2" x2="419.5" y2="366.5"/>
	<line class="st45" x1="418.6" y1="367.8" x2="419.3" y2="367.2"/>
	<line class="st45" x1="417.5" y1="368.3" x2="418.6" y2="367.8"/>
	<line class="st45" x1="416.1" y1="368.7" x2="417.5" y2="368.3"/>
	<line class="st45" x1="414.4" y1="368.9" x2="416.1" y2="368.7"/>
	<line class="st45" x1="412.5" y1="368.9" x2="414.4" y2="368.9"/>
	<line class="st45" x1="410.7" y1="368.7" x2="412.5" y2="368.9"/>
	<line class="st45" x1="409" y1="368.4" x2="410.7" y2="368.7"/>
	<line class="st45" x1="407.5" y1="367.9" x2="409" y2="368.4"/>
	<line class="st45" x1="405.6" y1="366.6" x2="405.3" y2="365.9"/>
	<line class="st45" x1="48.2" y1="321.8" x2="48.1" y2="321.2"/>
	<line class="st45" x1="48.2" y1="321.8" x2="48.7" y2="322.2"/>
	<line class="st45" x1="57.3" y1="322.6" x2="57.4" y2="322.5"/>
	<line class="st45" x1="55.7" y1="322.9" x2="57.3" y2="322.6"/>
	<line class="st45" x1="54" y1="323" x2="55.7" y2="322.9"/>
	<line class="st45" x1="52.4" y1="323" x2="54" y2="323"/>
	<line class="st45" x1="50.9" y1="322.9" x2="52.4" y2="323"/>
	<line class="st45" x1="49.6" y1="322.6" x2="50.9" y2="322.9"/>
	<line class="st45" x1="48.7" y1="322.2" x2="49.6" y2="322.6"/>
	<polyline class="st45" points="403.5,396.8 405.6,397.6 408.1,398.2 	"/>
	<line class="st45" x1="401.1" y1="394.7" x2="400.9" y2="393.6"/>
	<line class="st45" x1="421.5" y1="396.2" x2="422" y2="395.1"/>
	<line class="st45" x1="410.8" y1="398.6" x2="413.6" y2="398.6"/>
	<line class="st45" x1="402" y1="395.8" x2="403.5" y2="396.8"/>
	<line class="st45" x1="402" y1="395.8" x2="401.1" y2="394.7"/>
	<line class="st45" x1="418.5" y1="397.9" x2="420.3" y2="397.1"/>
	<line class="st45" x1="408.1" y1="398.2" x2="410.8" y2="398.6"/>
	<polyline class="st45" points="413.6,398.6 416.2,398.4 418.5,397.9 	"/>
	<line class="st45" x1="420.3" y1="397.1" x2="421.5" y2="396.2"/>
	<line class="st45" x1="203.7" y1="464.6" x2="206.9" y2="464.2"/>
	<line class="st45" x1="200.5" y1="464.5" x2="203.7" y2="464.6"/>
	<line class="st45" x1="197.6" y1="464" x2="200.5" y2="464.5"/>
	<line class="st45" x1="206.9" y1="464.2" x2="209.8" y2="463.5"/>
	<line class="st45" x1="195" y1="463.2" x2="197.6" y2="464"/>
	<line class="st45" x1="209.8" y1="463.5" x2="212.3" y2="462.5"/>
	<line class="st45" x1="193.1" y1="462.1" x2="195" y2="463.2"/>
	<line class="st45" x1="212.3" y1="462.5" x2="214.2" y2="461.3"/>
	<line class="st45" x1="193.1" y1="462.1" x2="191.9" y2="460.8"/>
	<line class="st45" x1="214.2" y1="461.3" x2="215.4" y2="459.8"/>
	<line class="st45" x1="191.9" y1="460.8" x2="191.5" y2="459.3"/>
	<line class="st45" x1="215.4" y1="459.8" x2="215.7" y2="458.4"/>
	<polyline class="st45" points="48.4,348.7 50.1,349.2 52.3,349.5 	"/>
	<line class="st45" x1="47.1" y1="348.1" x2="48.4" y2="348.7"/>
	<line class="st45" x1="52.3" y1="349.5" x2="54.7" y2="349.5"/>
	<line class="st45" x1="47.1" y1="348.1" x2="46.5" y2="347.3"/>
	<polyline class="st45" points="54.7,349.5 57.2,349.3 58,349.2 	"/>
	<line class="st45" x1="201.7" y1="429.2" x2="201.6" y2="422.7"/>
	<line class="st45" x1="412.3" y1="367.9" x2="412.5" y2="362.2"/>
	<line class="st45" x1="53" y1="322.2" x2="52.8" y2="319.3"/>
	<line class="st45" x1="360.4" y1="87.6" x2="361.1" y2="87.6"/>
	<line class="st45" x1="195" y1="255.8" x2="194.7" y2="245.5"/>
	<line class="st45" x1="198.6" y1="411.1" x2="198.9" y2="423.5"/>
	<line class="st45" x1="196.5" y1="322.1" x2="196.8" y2="335"/>
	<line class="st45" x1="196.8" y1="335" x2="197.1" y2="347.9"/>
	<line class="st45" x1="196.2" y1="309" x2="196.5" y2="322.1"/>
	<line class="st45" x1="198" y1="386.1" x2="198.3" y2="398.6"/>
	<line class="st45" x1="195.9" y1="295.8" x2="196.2" y2="309"/>
	<line class="st45" x1="195.6" y1="282.6" x2="195.9" y2="295.8"/>
	<line class="st45" x1="195.3" y1="269.2" x2="195.6" y2="282.6"/>
	<line class="st45" x1="197.1" y1="347.9" x2="197.4" y2="360.7"/>
	<line class="st45" x1="195" y1="255.8" x2="195.3" y2="269.2"/>
	<line class="st45" x1="197.4" y1="360.7" x2="197.7" y2="373.4"/>
	<line class="st45" x1="197.7" y1="373.4" x2="198" y2="386.1"/>
	<line class="st45" x1="198.3" y1="398.6" x2="198.6" y2="411.1"/>
	<line class="st45" x1="161.2" y1="398" x2="161.2" y2="396.6"/>
	<line class="st45" x1="191.4" y1="419.6" x2="191.4" y2="418.1"/>
	<line class="st45" x1="133.8" y1="378.4" x2="133.8" y2="377"/>
	<line class="st45" x1="108.8" y1="360.5" x2="108.7" y2="359.2"/>
	<line class="st45" x1="85.9" y1="344.1" x2="85.8" y2="342.8"/>
	<line class="st45" x1="64.8" y1="329" x2="64.7" y2="327.8"/>
	<polyline class="st45" points="393.9,393.1 394.2,394.9 395.6,396.8 398.2,398.4 401.7,399.9 405.8,400.9 410.4,401.5 415.1,401.6 
		419.5,401.2 423.3,400.3 426.3,399 428.3,397.4 429,395.6 	"/>
	<polyline class="st45" points="193.5,467.5 198.4,468.3 203.7,468.4 209.1,467.9 214,466.7 218.1,465 221.3,462.9 223.2,460.5 
		223.8,458 	"/>
	<polyline class="st45" points="183.4,459.6 184,462.1 186,464.3 189.2,466.2 193.5,467.5 	"/>
	<polyline class="st45" points="41.2,349.4 43.2,350.5 46.2,351.3 49.8,351.7 53.8,351.8 58,351.5 60.4,351.1 	"/>
	<line class="st45" x1="40.2" y1="348.1" x2="41.2" y2="349.4"/>
	<line class="st45" x1="455.5" y1="369.1" x2="189.8" y2="449.2"/>
	<polyline class="st45" points="189.8,450.2 189.8,449.2 19,318.7 	"/>
	<line class="st45" x1="181.8" y1="240.5" x2="181.7" y2="239.9"/>
	<line class="st45" x1="180.2" y1="238.6" x2="0.5" y2="160.4"/>
	<line class="st45" x1="181.7" y1="239.9" x2="1.8" y2="161.5"/>
	<line class="st45" x1="180.2" y1="238.6" x2="184.6" y2="232.9"/>
	<line class="st45" x1="181.7" y1="239.9" x2="180.2" y2="238.6"/>
	<line class="st45" x1="180.4" y1="236.3" x2="179.6" y2="236"/>
	<line class="st45" x1="180.6" y1="236.5" x2="180.4" y2="236.3"/>
	<polyline class="st45" points="99.5,200.4 99.9,200.6 242.2,21.8 	"/>
	<line class="st45" x1="102.3" y1="202.7" x2="99.9" y2="200.6"/>
	<polyline class="st45" points="61.9,184.3 62.3,184.4 196.7,18.4 	"/>
	<line class="st45" x1="64.6" y1="186.4" x2="62.3" y2="184.4"/>
	<polyline class="st45" points="113.3,206.3 113.8,206.5 258.8,23.1 	"/>
	<line class="st45" x1="116.2" y1="208.6" x2="113.8" y2="206.5"/>
	<polyline class="st45" points="143.2,219.2 143.7,219.4 294.6,25.8 	"/>
	<line class="st45" x1="146.1" y1="221.6" x2="143.7" y2="219.4"/>
	<polyline class="st45" points="86.4,194.8 86.8,194.9 226.3,20.6 	"/>
	<line class="st45" x1="89.1" y1="197" x2="86.8" y2="194.9"/>
	<polyline class="st45" points="39.7,174.7 40,174.9 169.7,16.3 	"/>
	<line class="st45" x1="42.3" y1="176.8" x2="40" y2="174.9"/>
	<polyline class="st45" points="29.3,170.3 29.6,170.4 157,15.4 	"/>
	<line class="st45" x1="31.8" y1="172.3" x2="29.6" y2="170.4"/>
	<polyline class="st45" points="73.9,189.4 74.2,189.6 211.2,19.5 	"/>
	<line class="st45" x1="76.6" y1="191.6" x2="74.2" y2="189.6"/>
	<polyline class="st45" points="159.4,226.1 159.9,226.3 313.9,27.2 	"/>
	<line class="st45" x1="162.4" y1="228.6" x2="159.9" y2="226.3"/>
	<polyline class="st45" points="127.8,212.6 128.3,212.8 276.2,24.4 	"/>
	<line class="st45" x1="130.8" y1="214.9" x2="128.3" y2="212.8"/>
	<polyline class="st45" points="50.6,179.4 50.9,179.6 182.9,17.3 	"/>
	<line class="st45" x1="53.2" y1="181.5" x2="50.9" y2="179.6"/>
	<polyline class="st45" points="19.4,166 19.7,166.2 144.9,14.4 	"/>
	<line class="st45" x1="21.8" y1="168" x2="19.7" y2="166.2"/>
	<polyline class="st45" points="9.8,161.9 10.1,162.1 133.2,13.6 	"/>
	<line class="st45" x1="12.2" y1="163.9" x2="10.1" y2="162.1"/>
	<polyline class="st45" points="0.7,158 1,158.1 122,12.7 	"/>
	<line class="st45" x1="3.1" y1="159.9" x2="1" y2="158.1"/>
	<polyline class="st45" points="175.5,234.7 176,235 340.9,20.2 	"/>
	<line class="st45" x1="178.6" y1="237.3" x2="176" y2="235"/>
	<line class="st45" x1="342.6" y1="24.6" x2="180.4" y2="236.3"/>
	<line class="st45" x1="124.5" y1="6.6" x2="338.8" y2="20.4"/>
	<line class="st45" x1="119.9" y1="12.1" x2="333" y2="28"/>
	<line class="st45" x1="121.7" y1="5.8" x2="335.6" y2="19.4"/>
	<polyline class="st45" points="341.2,12.1 335.6,19.4 336.1,20.1 	"/>
	<line class="st45" x1="338.8" y1="20.4" x2="337.4" y2="18.6"/>
	<polyline class="st45" points="338.8,20.4 333,28 333.6,28.7 	"/>
	<line class="st45" x1="341.9" y1="21" x2="340.9" y2="21"/>
	<line class="st45" x1="339.9" y1="20.2" x2="340.2" y2="20.2"/>
	<line class="st45" x1="340.9" y1="20.2" x2="341.9" y2="20.3"/>
	<line class="st45" x1="338.4" y1="17.2" x2="344.2" y2="17.6"/>
	<line class="st45" x1="341.2" y1="12.1" x2="341.2" y2="13.6"/>
	<line class="st45" x1="344.8" y1="18.3" x2="346" y2="19.8"/>
	<line class="st45" x1="342.3" y1="20.1" x2="344.2" y2="17.6"/>
	<line class="st45" x1="342.6" y1="20.1" x2="342.5" y2="24.6"/>
	<line class="st45" x1="181.8" y1="240.5" x2="182" y2="247.7"/>
	<line class="st45" x1="182.5" y1="240.3" x2="182.5" y2="240.4"/>
	<line class="st45" x1="182.5" y1="240.3" x2="343.9" y2="29.2"/>
	<line class="st45" x1="180.5" y1="238.6" x2="343.7" y2="25.4"/>
	<line class="st45" x1="182" y1="240" x2="343.7" y2="28.6"/>
	<line class="st45" x1="182.5" y1="240.3" x2="182" y2="240"/>
	<line class="st45" x1="471.3" y1="191.5" x2="343.9" y2="29.2"/>
	<line class="st45" x1="471.3" y1="191.1" x2="343.7" y2="28.6"/>
	<line class="st45" x1="343.6" y1="25.5" x2="342.6" y2="25.4"/>
	<line class="st45" x1="343.6" y1="25.5" x2="343.7" y2="25.4"/>
	<line class="st45" x1="211.9" y1="252.8" x2="276.2" y2="241.2"/>
	<line class="st45" x1="276.3" y1="254" x2="212.2" y2="266.1"/>
	<line class="st45" x1="212.4" y1="279.3" x2="276.3" y2="266.7"/>
	<line class="st45" x1="276.3" y1="279.3" x2="212.7" y2="292.4"/>
	<line class="st45" x1="212.9" y1="305.4" x2="276.3" y2="291.8"/>
	<line class="st45" x1="276.4" y1="304.3" x2="213.2" y2="318.4"/>
	<line class="st45" x1="213.4" y1="331.2" x2="276.4" y2="316.7"/>
	<line class="st45" x1="213.6" y1="344" x2="276.4" y2="329"/>
	<line class="st45" x1="276.5" y1="341.2" x2="213.9" y2="356.7"/>
	<line class="st45" x1="214.1" y1="369.3" x2="276.5" y2="353.3"/>
	<line class="st45" x1="276.5" y1="365.4" x2="214.4" y2="381.8"/>
	<line class="st45" x1="214.6" y1="394.2" x2="276.5" y2="377.4"/>
	<line class="st45" x1="276.6" y1="389.3" x2="214.8" y2="406.5"/>
	<line class="st45" x1="288.8" y1="238.9" x2="356.2" y2="226.7"/>
	<line class="st45" x1="417.4" y1="227.3" x2="356" y2="238.9"/>
	<line class="st45" x1="288.8" y1="264.2" x2="355.8" y2="251"/>
	<line class="st45" x1="416.6" y1="250.4" x2="355.5" y2="263"/>
	<line class="st45" x1="288.7" y1="289.2" x2="355.3" y2="274.9"/>
	<line class="st45" x1="415.8" y1="273.3" x2="355.1" y2="286.8"/>
	<line class="st45" x1="288.7" y1="313.8" x2="354.9" y2="298.6"/>
	<line class="st45" x1="415" y1="295.9" x2="354.7" y2="310.3"/>
	<line class="st45" x1="288.7" y1="338.2" x2="354.5" y2="321.9"/>
	<line class="st45" x1="414.3" y1="318.2" x2="354.3" y2="333.5"/>
	<line class="st45" x1="288.7" y1="362.2" x2="354" y2="345"/>
	<line class="st45" x1="413.5" y1="340.3" x2="353.8" y2="356.4"/>
	<line class="st45" x1="288.7" y1="385.9" x2="353.6" y2="367.8"/>
	<polyline class="st45" points="356.3,221.8 356.2,226.7 417.8,215.6 	"/>
	<line class="st45" x1="356" y1="238.9" x2="288.8" y2="251.6"/>
	<line class="st45" x1="355.8" y1="251" x2="417" y2="238.9"/>
	<line class="st45" x1="355.5" y1="263" x2="288.8" y2="276.7"/>
	<line class="st45" x1="355.3" y1="274.9" x2="416.2" y2="261.9"/>
	<line class="st45" x1="355.1" y1="286.8" x2="288.7" y2="301.5"/>
	<line class="st45" x1="354.9" y1="298.6" x2="415.4" y2="284.6"/>
	<line class="st45" x1="354.7" y1="310.3" x2="288.7" y2="326"/>
	<line class="st45" x1="354.5" y1="321.9" x2="414.7" y2="307.1"/>
	<line class="st45" x1="354.3" y1="333.5" x2="288.7" y2="350.2"/>
	<line class="st45" x1="354" y1="345" x2="413.9" y2="329.3"/>
	<line class="st45" x1="353.8" y1="356.4" x2="288.7" y2="374.1"/>
	<line class="st45" x1="353.6" y1="367.8" x2="413.2" y2="351.2"/>
	<line class="st45" x1="354" y1="345" x2="353.8" y2="356.4"/>
	<line class="st45" x1="354.3" y1="333.5" x2="354" y2="345"/>
	<line class="st45" x1="354.9" y1="298.6" x2="354.7" y2="310.3"/>
	<line class="st45" x1="355.1" y1="286.8" x2="354.9" y2="298.6"/>
	<line class="st45" x1="355.3" y1="274.9" x2="355.1" y2="286.8"/>
	<line class="st45" x1="355.5" y1="263" x2="355.3" y2="274.9"/>
	<line class="st45" x1="355.8" y1="251" x2="355.5" y2="263"/>
	<line class="st45" x1="356" y1="238.9" x2="355.8" y2="251"/>
	<line class="st45" x1="356.2" y1="226.7" x2="356" y2="238.9"/>
	<line class="st45" x1="353.6" y1="367.8" x2="353.4" y2="379.1"/>
	<line class="st45" x1="353.8" y1="356.4" x2="353.6" y2="367.8"/>
	<line class="st45" x1="354.5" y1="321.9" x2="354.3" y2="333.5"/>
	<line class="st45" x1="354.7" y1="310.3" x2="354.5" y2="321.9"/>
	<line class="st45" x1="442.9" y1="189.6" x2="442.4" y2="202.5"/>
	<line class="st45" x1="443.6" y1="172.4" x2="442.9" y2="189.6"/>
	<line class="st45" x1="471.4" y1="191" x2="472.4" y2="189.5"/>
	<line class="st45" x1="472.2" y1="189.5" x2="472.4" y2="189.5"/>
	<line class="st45" x1="471.4" y1="191.5" x2="471.4" y2="191"/>
	<line class="st45" x1="469.5" y1="185.9" x2="469.7" y2="186"/>
	<line class="st45" x1="471.4" y1="191" x2="471.4" y2="191"/>
	<line class="st45" x1="472.4" y1="189.5" x2="469.7" y2="186"/>
	<line class="st45" x1="469.7" y1="185.9" x2="469.7" y2="186"/>
	<polyline class="st45" points="341.2,13.6 341.2,13.6 344.2,17.6 	"/>
	<line class="st45" x1="342.7" y1="25.3" x2="342.4" y2="25"/>
	<polyline class="st45" points="342.7,24.6 342.7,24.7 342.4,25 	"/>
	<line class="st45" x1="182" y1="240" x2="181.8" y2="239.9"/>
	<line class="st45" x1="21.8" y1="168" x2="21.5" y2="167.8"/>
	<line class="st45" x1="343.3" y1="46.7" x2="443.6" y2="172.4"/>
	<line class="st45" x1="31.5" y1="172.1" x2="21.8" y2="168"/>
	<line class="st45" x1="52.8" y1="181.3" x2="42.3" y2="176.8"/>
	<line class="st45" x1="41.9" y1="176.6" x2="31.8" y2="172.3"/>
	<line class="st45" x1="21.5" y1="167.8" x2="12.2" y2="163.9"/>
	<polyline class="st45" points="3.1,159.9 2.8,159.8 1.8,159.3 	"/>
	<line class="st45" x1="53.2" y1="181.5" x2="52.8" y2="181.3"/>
	<polyline class="st45" points="12.2,163.9 12,163.7 3.1,159.9 	"/>
	<line class="st45" x1="78.3" y1="192.3" x2="76.6" y2="191.6"/>
	<line class="st45" x1="76.2" y1="191.4" x2="65.1" y2="186.6"/>
	<line class="st45" x1="65.1" y1="186.6" x2="64.6" y2="186.4"/>
	<line class="st45" x1="88.7" y1="196.8" x2="78.3" y2="192.3"/>
	<line class="st45" x1="145.7" y1="221.4" x2="130.8" y2="214.9"/>
	<line class="st45" x1="130.3" y1="214.7" x2="116.2" y2="208.6"/>
	<line class="st45" x1="101.9" y1="202.5" x2="89.1" y2="197"/>
	<line class="st45" x1="115.7" y1="208.5" x2="102.3" y2="202.7"/>
	<line class="st45" x1="162.4" y1="228.6" x2="161.9" y2="228.4"/>
	<line class="st45" x1="65.1" y1="186.6" x2="65.1" y2="186.6"/>
	<line class="st45" x1="78.3" y1="192.3" x2="78.3" y2="192.3"/>
	<line class="st45" x1="64.2" y1="186.3" x2="53.2" y2="181.5"/>
	<line class="st45" x1="161.9" y1="228.4" x2="146.1" y2="221.6"/>
	<line class="st45" x1="175.8" y1="234.3" x2="162.4" y2="228.6"/>
	<line class="st46" x1="343" y1="47.3" x2="342.9" y2="47.2"/>
	<line class="st46" x1="201.7" y1="429.2" x2="207.9" y2="427.4"/>
	<line class="st46" x1="197.9" y1="426.5" x2="198" y2="426.5"/>
	<line class="st46" x1="201.6" y1="429.1" x2="201.7" y2="429.2"/>
	<line class="st46" x1="198" y1="426.5" x2="201.6" y2="429.1"/>
	<polyline class="st46" points="194.9,426.6 195.6,425.7 196.8,424.9 197.9,424.4 	"/>
	<polyline class="st46" points="207.8,424 208.2,424.1 209.6,424.7 210.6,425.5 	"/>
	<line class="st46" x1="211" y1="426.4" x2="210.6" y2="425.5"/>
	<line class="st46" x1="194.8" y1="427.5" x2="194.9" y2="426.6"/>
	<line class="st46" x1="412.3" y1="367.9" x2="416.9" y2="366.6"/>
	<line class="st46" x1="407.9" y1="365.9" x2="408" y2="365.9"/>
	<line class="st46" x1="412.1" y1="367.8" x2="412.3" y2="367.9"/>
	<line class="st46" x1="408" y1="365.9" x2="412.1" y2="367.8"/>
	<line class="st46" x1="419.5" y1="366.5" x2="419.2" y2="365.8"/>
	<polyline class="st46" points="405.3,365.9 405.6,365.3 406.3,364.6 407.4,364.1 408,364 	"/>
	<polyline class="st46" points="417,364.4 417.3,364.5 418.5,365.1 419.2,365.8 	"/>
	<line class="st46" x1="53" y1="322.2" x2="56.1" y2="321.6"/>
	<line class="st46" x1="50.7" y1="320.6" x2="50.8" y2="320.7"/>
	<line class="st46" x1="52.9" y1="322.2" x2="53" y2="322.2"/>
	<line class="st46" x1="50.8" y1="320.7" x2="52.9" y2="322.2"/>
	<polyline class="st46" points="48.4,320.7 49.1,320.2 50.2,319.7 50.7,319.6 	"/>
	<line class="st46" x1="48.1" y1="321.2" x2="48.4" y2="320.7"/>
	<line class="st46" x1="229.8" y1="195.9" x2="424.3" y2="167.5"/>
	<line class="st46" x1="423.8" y1="180.8" x2="423.8" y2="179.5"/>
	<line class="st46" x1="423.4" y1="191.3" x2="423.8" y2="180.8"/>
	<line class="st46" x1="424.3" y1="167.5" x2="424.3" y2="165.6"/>
	<polyline class="st46" points="423.2,197.4 423.4,192.7 423.4,191.3 	"/>
	<line class="st46" x1="241.7" y1="21.8" x2="242.2" y2="21.8"/>
	<line class="st46" x1="196.3" y1="18.3" x2="196.7" y2="18.4"/>
	<line class="st46" x1="258.2" y1="23" x2="258.8" y2="23.1"/>
	<line class="st46" x1="294" y1="25.7" x2="294.6" y2="25.8"/>
	<line class="st46" x1="225.8" y1="20.6" x2="226.3" y2="20.6"/>
	<line class="st46" x1="169.3" y1="16.3" x2="169.7" y2="16.3"/>
	<line class="st46" x1="156.6" y1="15.3" x2="157" y2="15.4"/>
	<line class="st46" x1="210.7" y1="19.4" x2="211.2" y2="19.5"/>
	<line class="st46" x1="313.3" y1="27.2" x2="313.9" y2="27.2"/>
	<line class="st46" x1="275.7" y1="24.4" x2="276.2" y2="24.4"/>
	<line class="st46" x1="182.5" y1="17.3" x2="182.9" y2="17.3"/>
	<line class="st46" x1="144.5" y1="14.4" x2="144.9" y2="14.4"/>
	<line class="st46" x1="132.9" y1="13.5" x2="133.2" y2="13.6"/>
	<line class="st46" x1="121.7" y1="12.7" x2="122" y2="12.7"/>
	<polyline class="st46" points="342.7,25.3 342.9,25 342.7,24.7 	"/>
	<line class="st46" x1="124.8" y1="13.5" x2="132.4" y2="14.1"/>
	<line class="st46" x1="136" y1="14.4" x2="144.1" y2="15"/>
	<line class="st46" x1="147.7" y1="15.2" x2="156.2" y2="15.9"/>
	<line class="st46" x1="159.9" y1="16.2" x2="168.8" y2="16.9"/>
	<line class="st46" x1="172.6" y1="17.2" x2="182" y2="17.9"/>
	<line class="st46" x1="185.9" y1="18.2" x2="195.8" y2="18.9"/>
	<line class="st46" x1="199.7" y1="19.2" x2="210.2" y2="20"/>
	<line class="st46" x1="214.2" y1="20.3" x2="225.3" y2="21.2"/>
	<line class="st46" x1="229.4" y1="21.5" x2="241.1" y2="22.4"/>
	<line class="st46" x1="245.3" y1="22.7" x2="257.7" y2="23.7"/>
	<line class="st46" x1="261.9" y1="24" x2="275.2" y2="25"/>
	<line class="st46" x1="279.4" y1="25.3" x2="293.5" y2="26.4"/>
	<line class="st46" x1="297.8" y1="26.8" x2="312.8" y2="27.9"/>
	<line class="st46" x1="317.2" y1="28.2" x2="333.1" y2="29.5"/>
	<line class="st46" x1="342.6" y1="25.4" x2="342.7" y2="25.3"/>
	<polyline class="st46" points="341.2,13.6 341.2,13.6 341.2,12.1 	"/>
	<line class="st46" x1="442.6" y1="172.2" x2="443.6" y2="172.4"/>
	<polyline class="st46" points="343,47.3 343,47.5 342.7,47.5 	"/>
	<line class="st46" x1="198" y1="426.5" x2="198" y2="422.8"/>
	<line class="st46" x1="201.6" y1="429.1" x2="201.5" y2="422.7"/>
	<line class="st46" x1="408" y1="365.9" x2="408.1" y2="363.4"/>
	<line class="st46" x1="412.1" y1="367.8" x2="412.3" y2="362.2"/>
	<line class="st46" x1="50.8" y1="320.7" x2="50.6" y2="317.7"/>
	<line class="st46" x1="52.9" y1="322.2" x2="52.7" y2="319.2"/>
	<line class="st46" x1="36.2" y1="194" x2="35.6" y2="183.8"/>
	<line class="st46" x1="141.7" y1="231.7" x2="142.2" y2="244.1"/>
	<line class="st46" x1="37.5" y1="214.3" x2="36.9" y2="204.2"/>
	<line class="st46" x1="142.6" y1="256.4" x2="143.1" y2="268.6"/>
	<line class="st46" x1="41.3" y1="274" x2="40.7" y2="264.2"/>
	<line class="st46" x1="145.3" y1="328.6" x2="145.7" y2="340.4"/>
	<line class="st46" x1="38.8" y1="234.4" x2="38.1" y2="224.4"/>
	<line class="st46" x1="143.5" y1="280.8" x2="144" y2="292.9"/>
	<line class="st46" x1="43.7" y1="312.8" x2="43.1" y2="303.2"/>
	<line class="st46" x1="147" y1="375.3" x2="147.4" y2="386.8"/>
	<line class="st46" x1="42.5" y1="293.5" x2="41.9" y2="283.8"/>
	<line class="st46" x1="146.2" y1="352.1" x2="146.6" y2="363.7"/>
	<line class="st46" x1="40" y1="254.3" x2="39.4" y2="244.4"/>
	<line class="st46" x1="144.4" y1="304.9" x2="144.8" y2="316.8"/>
	<line class="st46" x1="74.1" y1="274.6" x2="74.6" y2="285.1"/>
	<line class="st46" x1="196.6" y1="360.2" x2="196.3" y2="347.5"/>
	<line class="st46" x1="71.7" y1="231.9" x2="72.3" y2="242.7"/>
	<line class="st46" x1="195.4" y1="308.6" x2="195.1" y2="295.4"/>
	<line class="st46" x1="76.4" y1="316.4" x2="76.9" y2="326.6"/>
	<line class="st46" x1="197.8" y1="410.5" x2="197.5" y2="398.1"/>
	<line class="st46" x1="72.9" y1="253.4" x2="73.5" y2="264"/>
	<line class="st46" x1="196" y1="334.6" x2="195.7" y2="321.6"/>
	<line class="st46" x1="70.5" y1="210.2" x2="71.1" y2="221.1"/>
	<line class="st46" x1="194.8" y1="282.2" x2="194.5" y2="268.9"/>
	<line class="st46" x1="69.8" y1="197.4" x2="69.9" y2="199.3"/>
	<line class="st46" x1="194.2" y1="255.4" x2="193.9" y2="245.6"/>
	<line class="st46" x1="75.2" y1="295.6" x2="75.8" y2="306"/>
	<line class="st46" x1="197.2" y1="385.6" x2="196.9" y2="372.9"/>
	<polyline class="st46" points="69.9,199.3 35.6,183.8 35.4,182 	"/>
	<line class="st46" x1="70.5" y1="210.2" x2="36.2" y2="194"/>
	<polyline class="st46" points="71.1,221.1 36.9,204.2 36.2,194 	"/>
	<line class="st46" x1="71.7" y1="231.9" x2="37.5" y2="214.3"/>
	<polyline class="st46" points="72.3,242.7 38.1,224.4 37.5,214.3 	"/>
	<line class="st46" x1="72.9" y1="253.4" x2="38.8" y2="234.4"/>
	<polyline class="st46" points="73.5,264 39.4,244.4 38.8,234.4 	"/>
	<line class="st46" x1="74.1" y1="274.6" x2="40" y2="254.3"/>
	<polyline class="st46" points="74.6,285.1 40.7,264.2 40,254.3 	"/>
	<line class="st46" x1="75.2" y1="295.6" x2="41.3" y2="274"/>
	<polyline class="st46" points="75.8,306 41.9,283.8 41.3,274 	"/>
	<line class="st46" x1="76.4" y1="316.4" x2="42.5" y2="293.5"/>
	<polyline class="st46" points="76.9,326.6 43.1,303.2 42.5,293.5 	"/>
	<polyline class="st46" points="198.1,422.9 197.8,410.5 147,375.3 	"/>
	<polyline class="st46" points="197.5,398.1 197.2,385.6 146.2,352.1 	"/>
	<line class="st46" x1="197.5" y1="398.1" x2="146.6" y2="363.7"/>
	<polyline class="st46" points="196.9,372.9 196.6,360.2 145.3,328.6 	"/>
	<line class="st46" x1="196.9" y1="372.9" x2="145.7" y2="340.4"/>
	<polyline class="st46" points="196.3,347.5 196,334.6 144.4,304.9 	"/>
	<line class="st46" x1="196.3" y1="347.5" x2="144.8" y2="316.8"/>
	<polyline class="st46" points="195.7,321.6 195.4,308.6 143.5,280.8 	"/>
	<line class="st46" x1="195.7" y1="321.6" x2="144" y2="292.9"/>
	<polyline class="st46" points="195.1,295.4 194.8,282.2 142.6,256.4 	"/>
	<line class="st46" x1="195.1" y1="295.4" x2="143.1" y2="268.6"/>
	<polyline class="st46" points="194.5,268.9 194.2,255.4 141.7,231.7 	"/>
	<line class="st46" x1="194.5" y1="268.9" x2="142.2" y2="244.1"/>
	<line class="st46" x1="35.1" y1="183.6" x2="35.6" y2="183.8"/>
	<line class="st46" x1="35.1" y1="183.6" x2="35" y2="181.8"/>
	<line class="st46" x1="35.8" y1="193.8" x2="36.2" y2="194"/>
	<line class="st46" x1="35.8" y1="193.8" x2="35.1" y2="183.6"/>
	<line class="st46" x1="42.1" y1="293.2" x2="42.5" y2="293.5"/>
	<line class="st46" x1="42.7" y1="302.9" x2="43.1" y2="303.2"/>
	<line class="st46" x1="42.7" y1="302.9" x2="42.1" y2="293.2"/>
	<line class="st46" x1="40.8" y1="273.7" x2="41.3" y2="274"/>
	<line class="st46" x1="41.5" y1="283.5" x2="41.9" y2="283.8"/>
	<line class="st46" x1="41.5" y1="283.5" x2="40.8" y2="273.7"/>
	<line class="st46" x1="37" y1="214.1" x2="37.5" y2="214.3"/>
	<line class="st46" x1="37.7" y1="224.2" x2="38.1" y2="224.4"/>
	<line class="st46" x1="37.7" y1="224.2" x2="37" y2="214.1"/>
	<line class="st46" x1="36.4" y1="204" x2="36.9" y2="204.2"/>
	<line class="st46" x1="37" y1="214.1" x2="36.4" y2="204"/>
	<line class="st46" x1="39.6" y1="254.1" x2="40" y2="254.3"/>
	<line class="st46" x1="40.2" y1="263.9" x2="40.7" y2="264.2"/>
	<line class="st46" x1="40.2" y1="263.9" x2="39.6" y2="254.1"/>
	<line class="st46" x1="36.4" y1="204" x2="35.8" y2="193.8"/>
	<line class="st46" x1="40.8" y1="273.7" x2="40.2" y2="263.9"/>
	<line class="st46" x1="38.3" y1="234.2" x2="38.8" y2="234.4"/>
	<line class="st46" x1="38.3" y1="234.2" x2="37.7" y2="224.2"/>
	<line class="st46" x1="39" y1="244.1" x2="39.4" y2="244.4"/>
	<line class="st46" x1="39" y1="244.1" x2="38.3" y2="234.2"/>
	<line class="st46" x1="43.3" y1="312.5" x2="43.7" y2="312.8"/>
	<line class="st46" x1="43.3" y1="312.5" x2="42.7" y2="302.9"/>
	<line class="st46" x1="42.1" y1="293.2" x2="41.5" y2="283.5"/>
	<line class="st46" x1="39.6" y1="254.1" x2="39" y2="244.1"/>
	<line class="st46" x1="423.8" y1="179.5" x2="222.2" y2="210.6"/>
	<line class="st46" x1="319.9" y1="77.5" x2="350.3" y2="75.3"/>
	<line class="st46" x1="360.4" y1="87.6" x2="308.9" y2="91.9"/>
	<line class="st46" x1="330.7" y1="63.3" x2="340.1" y2="62.7"/>
	<polyline class="st46" points="350.3,75.3 340.1,62.7 335.5,57 	"/>
	<line class="st46" x1="423.4" y1="191.3" x2="222.4" y2="224.1"/>
	<line class="st46" x1="431.4" y1="201.6" x2="222.6" y2="237.5"/>
	<polyline class="st46" points="431.5,199.6 431.4,201.6 431,213.3 	"/>
	<line class="st46" x1="194.2" y1="255.4" x2="195" y2="255.8"/>
	<line class="st46" x1="211.8" y1="247.4" x2="211.9" y2="252.8"/>
	<line class="st46" x1="276.2" y1="236" x2="211.8" y2="247.4"/>
	<line class="st46" x1="276.2" y1="236" x2="276.2" y2="241.2"/>
	<line class="st46" x1="288.8" y1="233.7" x2="288.8" y2="238.9"/>
	<line class="st46" x1="417.9" y1="210.9" x2="417.8" y2="215.6"/>
	<line class="st46" x1="276.4" y1="329" x2="276.5" y2="341.2"/>
	<line class="st46" x1="288.7" y1="326" x2="288.7" y2="338.2"/>
	<line class="st46" x1="276.6" y1="389.3" x2="276.6" y2="401.2"/>
	<line class="st46" x1="288.7" y1="385.9" x2="288.6" y2="397.7"/>
	<line class="st46" x1="276.5" y1="341.2" x2="276.5" y2="353.3"/>
	<line class="st46" x1="288.7" y1="338.2" x2="288.7" y2="350.2"/>
	<line class="st46" x1="276.3" y1="291.8" x2="276.4" y2="304.3"/>
	<line class="st46" x1="288.7" y1="289.2" x2="288.7" y2="301.5"/>
	<line class="st46" x1="276.5" y1="353.3" x2="276.5" y2="365.4"/>
	<line class="st46" x1="288.7" y1="350.2" x2="288.7" y2="362.2"/>
	<line class="st46" x1="276.4" y1="304.3" x2="276.4" y2="316.7"/>
	<line class="st46" x1="288.7" y1="301.5" x2="288.7" y2="313.8"/>
	<line class="st46" x1="276.5" y1="377.4" x2="276.6" y2="389.3"/>
	<line class="st46" x1="288.7" y1="374.1" x2="288.7" y2="385.9"/>
	<line class="st46" x1="276.4" y1="316.7" x2="276.4" y2="329"/>
	<line class="st46" x1="288.7" y1="313.8" x2="288.7" y2="326"/>
	<line class="st46" x1="276.3" y1="279.3" x2="276.3" y2="291.8"/>
	<line class="st46" x1="288.8" y1="276.7" x2="288.7" y2="289.2"/>
	<line class="st46" x1="276.5" y1="365.4" x2="276.5" y2="377.4"/>
	<line class="st46" x1="288.7" y1="362.2" x2="288.7" y2="374.1"/>
	<line class="st46" x1="276.3" y1="254" x2="276.3" y2="266.7"/>
	<line class="st46" x1="288.8" y1="251.6" x2="288.8" y2="264.2"/>
	<line class="st46" x1="276.3" y1="266.7" x2="276.3" y2="279.3"/>
	<line class="st46" x1="288.8" y1="264.2" x2="288.8" y2="276.7"/>
	<line class="st46" x1="276.2" y1="241.2" x2="276.3" y2="254"/>
	<line class="st46" x1="288.8" y1="238.9" x2="288.8" y2="251.6"/>
	<polyline class="st46" points="197.8,410.5 198.6,411.1 214.8,406.5 	"/>
	<line class="st46" x1="198.1" y1="422.9" x2="198.9" y2="423.5"/>
	<line class="st46" x1="214.8" y1="406.5" x2="215.1" y2="418.8"/>
	<polyline class="st46" points="195.7,321.6 196.5,322.1 213.2,318.4 	"/>
	<line class="st46" x1="196" y1="334.6" x2="196.8" y2="335"/>
	<line class="st46" x1="196.8" y1="335" x2="213.4" y2="331.2"/>
	<line class="st46" x1="213.2" y1="318.4" x2="213.4" y2="331.2"/>
	<line class="st46" x1="196.3" y1="347.5" x2="197.1" y2="347.9"/>
	<line class="st46" x1="197.1" y1="347.9" x2="213.6" y2="344"/>
	<line class="st46" x1="213.4" y1="331.2" x2="213.6" y2="344"/>
	<polyline class="st46" points="195.4,308.6 196.2,309 212.9,305.4 	"/>
	<line class="st46" x1="212.9" y1="305.4" x2="213.2" y2="318.4"/>
	<polyline class="st46" points="197.2,385.6 198,386.1 214.4,381.8 	"/>
	<line class="st46" x1="197.5" y1="398.1" x2="198.3" y2="398.6"/>
	<line class="st46" x1="198.3" y1="398.6" x2="214.6" y2="394.2"/>
	<line class="st46" x1="214.4" y1="381.8" x2="214.6" y2="394.2"/>
	<polyline class="st46" points="195.1,295.4 195.9,295.8 212.7,292.4 	"/>
	<line class="st46" x1="212.7" y1="292.4" x2="212.9" y2="305.4"/>
	<polyline class="st46" points="194.8,282.2 195.6,282.6 212.4,279.3 	"/>
	<line class="st46" x1="212.4" y1="279.3" x2="212.7" y2="292.4"/>
	<polyline class="st46" points="194.5,268.9 195.3,269.2 212.2,266.1 	"/>
	<line class="st46" x1="212.2" y1="266.1" x2="212.4" y2="279.3"/>
	<line class="st46" x1="196.6" y1="360.2" x2="197.4" y2="360.7"/>
	<line class="st46" x1="197.4" y1="360.7" x2="213.9" y2="356.7"/>
	<line class="st46" x1="213.6" y1="344" x2="213.9" y2="356.7"/>
	<line class="st46" x1="211.9" y1="252.8" x2="212.2" y2="266.1"/>
	<line class="st46" x1="196.9" y1="372.9" x2="197.7" y2="373.4"/>
	<line class="st46" x1="197.7" y1="373.4" x2="214.1" y2="369.3"/>
	<line class="st46" x1="213.9" y1="356.7" x2="214.1" y2="369.3"/>
	<line class="st46" x1="214.1" y1="369.3" x2="214.4" y2="381.8"/>
	<line class="st46" x1="214.6" y1="394.2" x2="214.8" y2="406.5"/>
	<line class="st46" x1="413.2" y1="351.2" x2="412.8" y2="362.1"/>
	<line class="st46" x1="427.2" y1="314.9" x2="426.8" y2="325.9"/>
	<line class="st46" x1="414.3" y1="318.2" x2="413.9" y2="329.3"/>
	<line class="st46" x1="429.7" y1="247.7" x2="429.3" y2="259.1"/>
	<line class="st46" x1="416.6" y1="250.4" x2="416.2" y2="261.9"/>
	<line class="st46" x1="428.8" y1="270.4" x2="428.4" y2="281.6"/>
	<line class="st46" x1="415.8" y1="273.3" x2="415.4" y2="284.6"/>
	<line class="st46" x1="426.8" y1="325.9" x2="426.4" y2="336.8"/>
	<line class="st46" x1="413.9" y1="329.3" x2="413.5" y2="340.3"/>
	<line class="st46" x1="428.4" y1="281.6" x2="428" y2="292.8"/>
	<line class="st46" x1="415.4" y1="284.6" x2="415" y2="295.9"/>
	<line class="st46" x1="429.3" y1="259.1" x2="428.8" y2="270.4"/>
	<line class="st46" x1="416.2" y1="261.9" x2="415.8" y2="273.3"/>
	<line class="st46" x1="430.1" y1="236.3" x2="429.7" y2="247.7"/>
	<line class="st46" x1="417" y1="238.9" x2="416.6" y2="250.4"/>
	<line class="st46" x1="426.4" y1="336.8" x2="426" y2="347.6"/>
	<line class="st46" x1="413.5" y1="340.3" x2="413.2" y2="351.2"/>
	<line class="st46" x1="428" y1="292.8" x2="427.6" y2="303.9"/>
	<line class="st46" x1="415" y1="295.9" x2="414.7" y2="307.1"/>
	<line class="st46" x1="430.5" y1="224.8" x2="430.1" y2="236.3"/>
	<line class="st46" x1="417.4" y1="227.3" x2="417" y2="238.9"/>
	<line class="st46" x1="427.6" y1="303.9" x2="427.2" y2="314.9"/>
	<line class="st46" x1="414.7" y1="307.1" x2="414.3" y2="318.2"/>
	<line class="st46" x1="431" y1="213.3" x2="430.5" y2="224.8"/>
	<line class="st46" x1="417.8" y1="215.6" x2="417.4" y2="227.3"/>
	<line class="st46" x1="152" y1="391.4" x2="151.9" y2="390"/>
	<line class="st46" x1="181.2" y1="412.3" x2="181.2" y2="410.8"/>
	<line class="st46" x1="125.4" y1="372.3" x2="125.3" y2="371"/>
	<line class="st46" x1="101.1" y1="355" x2="101" y2="353.7"/>
	<line class="st46" x1="78.8" y1="339" x2="78.7" y2="337.8"/>
	<line class="st46" x1="58.3" y1="324.3" x2="58.2" y2="323.1"/>
	<polyline class="st46" points="393.2,417.5 393.5,419.5 394.9,421.4 397.4,423.2 400.9,424.7 405,425.7 409.6,426.4 414.2,426.5 
		418.6,426 422.4,425.1 425.4,423.7 427.3,422.1 428.1,420.2 	"/>
	<polyline class="st46" points="427.1,391.9 424.4,390.3 422.2,389.4 	"/>
	<polyline class="st46" points="401.1,388.3 399.9,388.6 396.9,389.8 394.9,391.3 393.9,393.1 	"/>
	<polyline class="st46" points="429,395.6 428.6,393.7 427.1,391.9 	"/>
	<line class="st46" x1="393.2" y1="417.5" x2="393.9" y2="393.1"/>
	<line class="st46" x1="428.1" y1="420.2" x2="429" y2="395.6"/>
	<polyline class="st46" points="184.2,487.4 184.8,490 186.8,492.3 190,494.3 194.2,495.7 199.1,496.5 204.4,496.6 209.6,496.1 
		214.5,494.8 218.7,493.1 221.8,490.8 223.7,488.3 224.2,485.7 	"/>
	<polyline class="st46" points="223.8,458 223,455.6 220.8,453.5 217.6,451.7 215.6,451.1 	"/>
	<polyline class="st46" points="191.3,452.1 189.5,452.8 186.2,454.8 184.2,457.2 183.4,459.6 	"/>
	<line class="st46" x1="224.2" y1="485.7" x2="223.8" y2="458"/>
	<line class="st46" x1="184.2" y1="487.4" x2="183.4" y2="459.6"/>
	<polyline class="st46" points="42.6,371.6 44.6,372.7 47.6,373.6 51.2,374.1 55.2,374.1 59.4,373.8 63.4,373.1 67,372 69.9,370.7 
		71.9,369.2 72.9,367.7 72.8,366.2 	"/>
	<line class="st46" x1="41.6" y1="370.2" x2="42.6" y2="371.6"/>
	<polyline class="st46" points="46.2,342.7 43.5,343.8 41.4,345.2 40.2,346.6 40.2,348.1 	"/>
	<line class="st46" x1="72.8" y1="366.2" x2="72.5" y2="360.3"/>
	<line class="st46" x1="41.6" y1="370.2" x2="40.2" y2="348.1"/>
	<polyline class="st46" points="181.1,247.3 101.3,211.5 101,205.2 	"/>
	<line class="st46" x1="455.5" y1="369.9" x2="455.5" y2="369.1"/>
	<line class="st46" x1="19.1" y1="319.4" x2="19" y2="318.7"/>
	<line class="st46" x1="425.7" y1="355.7" x2="455.5" y2="369.1"/>
	<line class="st46" x1="19" y1="318.7" x2="44.8" y2="313.6"/>
	<line class="st46" x1="180.4" y1="238.5" x2="184.7" y2="233"/>
	<line class="st46" x1="184.6" y1="232.9" x2="184.7" y2="233"/>
	<polyline class="st46" points="1.8,161.9 1.8,161.5 0.5,160.4 1.8,158.9 	"/>
	<line class="st46" x1="101.9" y1="202.5" x2="102.3" y2="202.7"/>
	<line class="st46" x1="101.9" y1="202.5" x2="99.5" y2="200.4"/>
	<line class="st46" x1="102.3" y1="202.7" x2="245.3" y2="22.7"/>
	<line class="st46" x1="64.2" y1="186.3" x2="64.6" y2="186.4"/>
	<line class="st46" x1="64.2" y1="186.3" x2="61.9" y2="184.3"/>
	<line class="st46" x1="64.6" y1="186.4" x2="199.7" y2="19.2"/>
	<line class="st46" x1="115.7" y1="208.5" x2="116.2" y2="208.6"/>
	<line class="st46" x1="115.7" y1="208.5" x2="113.3" y2="206.3"/>
	<line class="st46" x1="116.2" y1="208.6" x2="261.9" y2="24"/>
	<line class="st46" x1="145.7" y1="221.4" x2="143.2" y2="219.2"/>
	<line class="st46" x1="146.1" y1="221.6" x2="297.8" y2="26.8"/>
	<line class="st46" x1="88.7" y1="196.8" x2="89.1" y2="197"/>
	<line class="st46" x1="88.7" y1="196.8" x2="86.4" y2="194.8"/>
	<line class="st46" x1="89.1" y1="197" x2="229.4" y2="21.5"/>
	<line class="st46" x1="41.9" y1="176.6" x2="42.3" y2="176.8"/>
	<line class="st46" x1="41.9" y1="176.6" x2="39.7" y2="174.7"/>
	<line class="st46" x1="42.3" y1="176.8" x2="172.6" y2="17.2"/>
	<line class="st46" x1="31.5" y1="172.1" x2="31.8" y2="172.3"/>
	<line class="st46" x1="31.5" y1="172.1" x2="29.3" y2="170.3"/>
	<line class="st46" x1="31.8" y1="172.3" x2="159.9" y2="16.2"/>
	<line class="st46" x1="76.2" y1="191.4" x2="76.6" y2="191.6"/>
	<line class="st46" x1="76.2" y1="191.4" x2="73.9" y2="189.4"/>
	<line class="st46" x1="76.6" y1="191.6" x2="214.2" y2="20.3"/>
	<line class="st46" x1="161.9" y1="228.4" x2="159.4" y2="226.1"/>
	<line class="st46" x1="162.4" y1="228.6" x2="317.2" y2="28.2"/>
	<line class="st46" x1="130.3" y1="214.7" x2="130.8" y2="214.9"/>
	<line class="st46" x1="130.3" y1="214.7" x2="127.8" y2="212.6"/>
	<line class="st46" x1="130.8" y1="214.9" x2="279.4" y2="25.3"/>
	<line class="st46" x1="52.8" y1="181.3" x2="50.6" y2="179.4"/>
	<line class="st46" x1="53.2" y1="181.5" x2="185.9" y2="18.2"/>
	<line class="st46" x1="21.5" y1="167.8" x2="19.4" y2="166"/>
	<line class="st46" x1="21.8" y1="168" x2="147.7" y2="15.2"/>
	<line class="st46" x1="12" y1="163.7" x2="9.8" y2="161.9"/>
	<line class="st46" x1="12.2" y1="163.9" x2="136" y2="14.4"/>
	<line class="st46" x1="3.1" y1="159.9" x2="124.8" y2="13.5"/>
	<line class="st46" x1="121.7" y1="12.7" x2="0.7" y2="158"/>
	<line class="st46" x1="178" y1="237" x2="178.6" y2="237.3"/>
	<line class="st46" x1="178" y1="237" x2="175.5" y2="234.7"/>
	<line class="st46" x1="340.2" y1="20.2" x2="340.9" y2="20.2"/>
	<line class="st46" x1="340.8" y1="24.7" x2="341" y2="24.5"/>
	<line class="st46" x1="1.8" y1="159.3" x2="2" y2="159.1"/>
	<line class="st46" x1="2" y1="159.5" x2="1.8" y2="159.3"/>
	<line class="st46" x1="124.5" y1="6.6" x2="119.9" y2="12.1"/>
	<line class="st46" x1="120.5" y1="12.6" x2="119.9" y2="12.1"/>
	<line class="st46" x1="122.2" y1="6.4" x2="121.7" y2="5.8"/>
	<line class="st46" x1="124.5" y1="6.6" x2="124.4" y2="6.5"/>
	<polyline class="st46" points="341.2,12.1 126.1,0.6 121.7,5.8 	"/>
	<line class="st46" x1="337.4" y1="18.6" x2="336.1" y2="20.1"/>
	<line class="st46" x1="346" y1="19.8" x2="343.8" y2="19.7"/>
	<polyline class="st46" points="341.2,12.1 346.6,19 346,19.8 	"/>
	<polyline class="st46" points="343.3,20.3 348.8,27.4 348.5,27.7 	"/>
	<line class="st46" x1="471" y1="187.6" x2="472.1" y2="186.1"/>
	<line class="st46" x1="341.1" y1="24.5" x2="341.1" y2="24.5"/>
	<line class="st46" x1="342.7" y1="24.6" x2="343.3" y2="25.3"/>
	<line class="st46" x1="1.9" y1="162" x2="2.3" y2="166.5"/>
	<line class="st46" x1="2.4" y1="162.1" x2="2.7" y2="166.7"/>
	<line class="st46" x1="2.3" y1="166.5" x2="2.7" y2="166.7"/>
	<line class="st46" x1="343.6" y1="29.7" x2="343.3" y2="46.7"/>
	<line class="st46" x1="180.9" y1="240.2" x2="181.1" y2="247.3"/>
	<line class="st46" x1="182" y1="247.7" x2="191.6" y2="246"/>
	<line class="st46" x1="182" y1="247.7" x2="181.1" y2="247.3"/>
	<polyline class="st46" points="343.7,25.4 343.7,28.6 343.9,29.2 	"/>
	<line class="st46" x1="471.3" y1="191.1" x2="471.3" y2="191.2"/>
	<line class="st46" x1="471" y1="197.5" x2="464.5" y2="198.6"/>
	<line class="st46" x1="471.2" y1="191.5" x2="343.9" y2="29.3"/>
	<line class="st46" x1="276.6" y1="401.2" x2="215.1" y2="418.8"/>
	<line class="st46" x1="288.8" y1="233.7" x2="356.3" y2="221.8"/>
	<line class="st46" x1="356.3" y1="221.8" x2="417.9" y2="210.9"/>
	<line class="st46" x1="353.4" y1="379.1" x2="288.6" y2="397.7"/>
	<line class="st46" x1="442.9" y1="189.6" x2="441.9" y2="189.4"/>
	<polyline class="st46" points="452,200.8 442.4,202.5 441.4,202.2 	"/>
	<line class="st46" x1="464.5" y1="198.6" x2="452" y2="200.8"/>
	<line class="st46" x1="442.1" y1="185.3" x2="442.6" y2="172.2"/>
	<line class="st46" x1="423.8" y1="180.8" x2="442.1" y2="185.3"/>
	<line class="st46" x1="423.4" y1="192.7" x2="441.6" y2="197.4"/>
	<line class="st46" x1="441.4" y1="202.2" x2="441.6" y2="197.4"/>
	<line class="st46" x1="471.4" y1="191.5" x2="471.4" y2="191.5"/>
	<line class="st46" x1="469.4" y1="185.8" x2="469.7" y2="185.9"/>
	<line class="st46" x1="471.3" y1="191.5" x2="471.4" y2="191.5"/>
	<polyline class="st46" points="471.4,191.5 471.5,191 472.5,189.5 	"/>
	<line class="st46" x1="209.5" y1="242.9" x2="222.7" y2="240.6"/>
	<polyline class="st46" points="181.8,239.9 181.9,239.9 181.9,239.9 181.9,240 181.9,240 	"/>
	<polyline class="st46" points="207.9,427.4 207.8,424 207.8,420.9 	"/>
	<polyline class="st46" points="197.9,426.5 197.9,424.4 197.9,422.7 	"/>
	<polyline class="st46" points="416.9,366.6 417,364.4 417.1,360.8 	"/>
	<polyline class="st46" points="407.9,365.9 408,364 408,363.4 	"/>
	<polyline class="st46" points="50.7,320.6 50.7,319.6 50.5,317.7 	"/>
	<line class="st46" x1="69.9" y1="199.3" x2="141.7" y2="231.7"/>
	<line class="st46" x1="142.2" y1="244.1" x2="70.5" y2="210.2"/>
	<line class="st46" x1="71.1" y1="221.1" x2="142.6" y2="256.4"/>
	<line class="st46" x1="143.1" y1="268.6" x2="71.7" y2="231.9"/>
	<line class="st46" x1="74.6" y1="285.1" x2="145.3" y2="328.6"/>
	<line class="st46" x1="145.7" y1="340.4" x2="75.2" y2="295.6"/>
	<line class="st46" x1="72.3" y1="242.7" x2="143.5" y2="280.8"/>
	<line class="st46" x1="144" y1="292.9" x2="72.9" y2="253.4"/>
	<line class="st46" x1="76.9" y1="326.6" x2="147" y2="375.3"/>
	<line class="st46" x1="44.8" y1="313.6" x2="43.7" y2="312.8"/>
	<line class="st46" x1="75.8" y1="306" x2="146.2" y2="352.1"/>
	<line class="st46" x1="146.6" y1="363.7" x2="76.4" y2="316.4"/>
	<line class="st46" x1="73.5" y1="264" x2="144.4" y2="304.9"/>
	<line class="st46" x1="144.8" y1="316.8" x2="74.1" y2="274.6"/>
	<line class="st46" x1="151.9" y1="390" x2="147.4" y2="386.8"/>
	<polyline class="st46" points="360.4,87.6 360.2,87.5 350.3,75.3 	"/>
	<polyline class="st46" points="426,347.6 425.7,355.7 425.6,358.4 	"/>
	<line class="st46" x1="417.1" y1="360.8" x2="425.6" y2="358.4"/>
	<polyline class="st46" points="191.3,449.8 191.3,452.1 191.5,459.3 	"/>
	<polyline class="st46" points="215.4,442.5 215.6,451.1 215.7,458.4 	"/>
	<line class="st46" x1="19.1" y1="319.4" x2="46" y2="340.1"/>
	<line class="st46" x1="189.8" y1="450.2" x2="191.3" y2="449.8"/>
	<polyline class="st46" points="422.6,379.9 422.2,389.4 422,395.1 	"/>
	<polyline class="st46" points="401.2,386.4 401.1,388.3 400.9,393.6 	"/>
	<polyline class="st46" points="46,340.1 46.2,342.7 46.5,347.3 	"/>
	<line class="st46" x1="2.7" y1="167.3" x2="2.7" y2="166.7"/>
	<polyline class="st46" points="181.8,239.9 180.5,238.6 180.4,238.5 	"/>
	<polyline class="st46" points="181.9,240.5 181.8,239.9 181.8,239.9 	"/>
	<line class="st46" x1="1.9" y1="162" x2="1.8" y2="161.9"/>
	<polyline class="st46" points="181.8,240.5 181.8,240.5 181.9,240.5 	"/>
	<polyline class="st46" points="184.6,232.9 183.9,232.6 183.7,232.5 	"/>
	<polyline class="st46" points="241.7,21.8 241.1,22.4 99.5,200.4 	"/>
	<polyline class="st46" points="196.3,18.3 195.8,18.9 61.9,184.3 	"/>
	<polyline class="st46" points="258.2,23 257.7,23.7 113.3,206.3 	"/>
	<polyline class="st46" points="294,25.7 293.5,26.4 143.2,219.2 	"/>
	<polyline class="st46" points="225.8,20.6 225.3,21.2 86.4,194.8 	"/>
	<polyline class="st46" points="169.3,16.3 168.8,16.9 39.7,174.7 	"/>
	<polyline class="st46" points="156.6,15.3 156.2,15.9 29.3,170.3 	"/>
	<polyline class="st46" points="210.7,19.4 210.2,20 73.9,189.4 	"/>
	<polyline class="st46" points="313.3,27.2 312.8,27.9 159.4,226.1 	"/>
	<polyline class="st46" points="275.7,24.4 275.2,25 127.8,212.6 	"/>
	<polyline class="st46" points="182.5,17.3 182,17.9 50.6,179.4 	"/>
	<polyline class="st46" points="144.5,14.4 144.1,15 19.4,166 	"/>
	<polyline class="st46" points="132.9,13.5 132.4,14.1 9.8,161.9 	"/>
	<line class="st46" x1="1.8" y1="158.9" x2="0.7" y2="158"/>
	<line class="st46" x1="178.6" y1="237.3" x2="179.5" y2="236"/>
	<line class="st46" x1="175.7" y1="234.4" x2="175.5" y2="234.7"/>
	<line class="st46" x1="340.8" y1="24.7" x2="340.8" y2="25.6"/>
	<polyline class="st46" points="341,24.5 341.1,24.5 342.6,24.6 342.7,24.7 	"/>
	<polyline class="st46" points="336.1,20.1 124.4,6.5 122.2,6.4 	"/>
	<line class="st46" x1="338.4" y1="17.2" x2="338" y2="17.8"/>
	<polyline class="st46" points="340,20.4 339.9,20.2 338,17.8 	"/>
	<polyline class="st46" points="343.3,20.3 343.8,19.7 344.8,18.3 	"/>
	<polyline class="st46" points="472.1,186.1 348.5,27.7 342.6,20.1 	"/>
	<line class="st46" x1="341.9" y1="21" x2="341.9" y2="24.6"/>
	<polyline class="st46" points="341.9,20.1 342.3,20.1 342.6,20.1 	"/>
	<line class="st46" x1="342.7" y1="25.3" x2="342.7" y2="25.3"/>
	<line class="st46" x1="341.1" y1="24.5" x2="341.9" y2="24.6"/>
	<line class="st46" x1="182.5" y1="240.4" x2="181.9" y2="240"/>
	<polyline class="st46" points="182.5,240.4 343.6,29.7 343.9,29.3 	"/>
	<line class="st46" x1="342.7" y1="25.3" x2="342.7" y2="25.3"/>
	<polyline class="st46" points="471.3,191.5 471.3,191.5 471,197.5 	"/>
	<polyline class="st46" points="471.3,191.5 471.3,191.5 471.2,191.5 	"/>
	<line class="st46" x1="471.3" y1="191.1" x2="471.3" y2="191.1"/>
	<polyline class="st46" points="471.3,191.5 471.3,191.2 471.3,191.1 	"/>
	<line class="st46" x1="408" y1="363.4" x2="353.4" y2="379.1"/>
	<line class="st46" x1="441.9" y1="189.4" x2="441.6" y2="197.4"/>
	<line class="st46" x1="442.1" y1="185.3" x2="441.9" y2="189.4"/>
	<polyline class="st46" points="423.2,197.4 431.5,199.6 441.4,202.2 	"/>
	<polyline class="st46" points="440.2,169.2 424.3,165.6 424.2,165.6 	"/>
	<polyline class="st46" points="472.5,189.5 471,187.6 469.7,185.9 	"/>
	<polyline class="st46" points="222.4,225.8 222.6,237.5 222.7,240.6 	"/>
	<line class="st46" x1="222.1" y1="206" x2="222.2" y2="210.6"/>
	<line class="st46" x1="191.6" y1="246" x2="193.9" y2="245.6"/>
	<line class="st46" x1="50.5" y1="317.7" x2="44.8" y2="313.6"/>
	<line class="st46" x1="161.2" y1="396.6" x2="151.9" y2="390"/>
	<polyline class="st46" points="198.9,423.5 201.5,422.7 201.6,422.7 207.8,420.9 215.1,418.8 	"/>
	<line class="st46" x1="46" y1="340.1" x2="46.6" y2="340.5"/>
	<line class="st46" x1="191.3" y1="449.8" x2="191.6" y2="449.7"/>
	<polyline class="st46" points="101.3,211.5 69.8,197.4 35.4,182 35,181.8 2.7,167.3 	"/>
	<line class="st46" x1="2.4" y1="162.1" x2="1.9" y2="162"/>
	<polyline class="st46" points="2.8,159.8 2,159.1 1.8,158.9 	"/>
	<line class="st46" x1="179.5" y1="236" x2="179.6" y2="236"/>
	<line class="st46" x1="175.8" y1="234.3" x2="175.7" y2="234.4"/>
	<line class="st46" x1="340.9" y1="21" x2="340.8" y2="24.7"/>
	<line class="st46" x1="341.2" y1="13.6" x2="338.4" y2="17.2"/>
	<polyline class="st46" points="341.9,20.1 341.9,20.3 341.9,21 	"/>
	<polyline class="st46" points="341.9,24.6 342.5,24.6 342.7,24.6 	"/>
	<polyline class="st46" points="343,47.3 440.2,169.2 442.6,172.2 	"/>
	<polyline class="st46" points="472.3,189.6 472.2,189.5 469.5,185.9 469.4,185.8 343.7,25.4 	"/>
	<polyline class="st46" points="471.3,191.1 471.4,191 472.3,189.6 	"/>
	<line class="st46" x1="408.1" y1="363.4" x2="408" y2="363.4"/>
	<line class="st46" x1="424.3" y1="167.5" x2="423.8" y2="179.5"/>
	<polyline class="st46" points="222.2,210.6 222.4,224.1 222.4,225.8 	"/>
	<polyline class="st46" points="193.9,245.6 194.7,245.5 209.5,242.9 	"/>
	<line class="st46" x1="50.6" y1="317.7" x2="50.5" y2="317.7"/>
	<line class="st46" x1="46.6" y1="340.5" x2="47.9" y2="341.5"/>
	<line class="st46" x1="191.6" y1="449.7" x2="192.8" y2="449.3"/>
	<line class="st46" x1="181.8" y1="240.5" x2="180.9" y2="240.2"/>
	<line class="st46" x1="333.1" y1="29.5" x2="175.8" y2="234.3"/>
	<polyline class="st46" points="340.9,20.2 340.9,20.2 340.9,21 	"/>
	<line class="st46" x1="244.6" y1="22" x2="242.2" y2="21.8"/>
	<polyline class="st46" points="342.7,25.3 343.3,25.3 343.7,25.4 	"/>
	<line class="st46" x1="412.8" y1="362.1" x2="412.5" y2="362.2"/>
	<polyline class="st46" points="191.4,418.1 181.2,410.8 162.7,397.6 161.2,396.6 	"/>
	<line class="st46" x1="47.9" y1="341.5" x2="49.7" y2="342.9"/>
	<line class="st46" x1="192.8" y1="449.3" x2="194.7" y2="448.7"/>
	<polyline class="st46" points="180.9,240.2 101,205.2 2.4,162.1 	"/>
	<line class="st46" x1="333.6" y1="28.7" x2="333.1" y2="29.5"/>
	<line class="st46" x1="258.2" y1="23" x2="244.6" y2="22"/>
	<line class="st46" x1="199.1" y1="18.6" x2="196.7" y2="18.4"/>
	<polyline class="st46" points="252.9,165.5 241.4,180.6 229.8,195.9 222.1,206 	"/>
	<polyline class="st46" points="412.5,362.2 412.3,362.2 408.1,363.4 	"/>
	<polyline class="st46" points="52.8,319.3 52.7,319.2 50.6,317.7 	"/>
	<line class="st46" x1="192.9" y1="419.2" x2="191.4" y2="418.1"/>
	<line class="st46" x1="49.7" y1="342.9" x2="52" y2="344.6"/>
	<line class="st46" x1="194.7" y1="448.7" x2="197.2" y2="448"/>
	<line class="st46" x1="172" y1="16.5" x2="169.7" y2="16.3"/>
	<polyline class="st46" points="286.8,121 275.6,135.7 264.3,150.6 252.9,165.5 	"/>
	<polyline class="st46" points="64.7,327.8 58.2,323.1 57.4,322.5 	"/>
	<line class="st46" x1="197.9" y1="422.7" x2="192.9" y2="419.2"/>
	<line class="st46" x1="52" y1="344.6" x2="54.5" y2="346.6"/>
	<line class="st46" x1="197.2" y1="448" x2="200.1" y2="447.1"/>
	<line class="st46" x1="261.3" y1="23.3" x2="258.8" y2="23.1"/>
	<line class="st46" x1="210.7" y1="19.4" x2="199.1" y2="18.6"/>
	<line class="st46" x1="182.5" y1="17.3" x2="172" y2="16.5"/>
	<polyline class="st46" points="169.3,16.3 159.3,15.5 157,15.4 	"/>
	<line class="st46" x1="297.9" y1="106.4" x2="286.8" y2="121"/>
	<polyline class="st46" points="57.4,322.5 56.1,321.6 52.8,319.3 	"/>
	<polyline class="st46" points="198.1,422.9 198,422.8 197.9,422.7 	"/>
	<line class="st46" x1="54.5" y1="346.6" x2="57.1" y2="348.6"/>
	<line class="st46" x1="200.1" y1="447.1" x2="203.3" y2="446.1"/>
	<polyline class="st46" points="241.7,21.8 228.8,20.8 226.3,20.6 	"/>
	<polyline class="st46" points="156.6,15.3 147.1,14.6 144.9,14.4 	"/>
	<line class="st46" x1="121.7" y1="12.7" x2="120.5" y2="12.6"/>
	<line class="st46" x1="308.9" y1="91.9" x2="297.9" y2="106.4"/>
	<polyline class="st46" points="85.8,342.8 78.7,337.8 66.1,328.8 64.7,327.8 	"/>
	<line class="st46" x1="203.3" y1="446.1" x2="206.4" y2="445.2"/>
	<line class="st46" x1="275.7" y1="24.4" x2="261.3" y2="23.3"/>
	<polyline class="st46" points="225.8,20.6 213.6,19.7 211.2,19.5 	"/>
	<polyline class="st46" points="196.3,18.3 185.3,17.5 182.9,17.3 	"/>
	<polyline class="st46" points="144.5,14.4 135.4,13.7 133.2,13.6 	"/>
	<line class="st46" x1="319.9" y1="77.5" x2="308.9" y2="91.9"/>
	<line class="st46" x1="57.1" y1="348.6" x2="58" y2="349.2"/>
	<line class="st46" x1="66" y1="355.4" x2="69.1" y2="357.8"/>
	<line class="st46" x1="206.4" y1="445.2" x2="209.4" y2="444.3"/>
	<line class="st46" x1="297.2" y1="26" x2="294.6" y2="25.8"/>
	<polyline class="st46" points="132.9,13.5 124.2,12.9 122,12.7 	"/>
	<line class="st46" x1="330.7" y1="63.3" x2="319.9" y2="77.5"/>
	<polyline class="st46" points="108.7,359.2 101,353.7 87.2,343.8 85.8,342.8 	"/>
	<line class="st46" x1="62.2" y1="352.4" x2="66" y2="355.4"/>
	<line class="st46" x1="69.1" y1="357.8" x2="71.3" y2="359.4"/>
	<line class="st46" x1="209.4" y1="444.3" x2="211.9" y2="443.5"/>
	<polyline class="st46" points="340.2,20.2 340.2,20.2 340,20.4 	"/>
	<line class="st46" x1="313.3" y1="27.2" x2="297.2" y2="26"/>
	<polyline class="st46" points="294,25.7 278.8,24.6 276.2,24.4 	"/>
	<line class="st46" x1="335.5" y1="57" x2="330.7" y2="63.3"/>
	<polyline class="st46" points="58,349.2 60.4,351.1 62.2,352.4 	"/>
	<line class="st46" x1="71.3" y1="359.4" x2="72.5" y2="360.3"/>
	<line class="st46" x1="211.9" y1="443.5" x2="213.8" y2="443"/>
	<line class="st46" x1="342.7" y1="47.5" x2="335.5" y2="57"/>
	<polyline class="st46" points="133.8,377 125.3,371 110.1,360.2 108.7,359.2 	"/>
	<polyline class="st46" points="72.5,360.3 72.5,360.3 189.8,450.2 	"/>
	<line class="st46" x1="213.8" y1="443" x2="215" y2="442.6"/>
	<polyline class="st46" points="333.6,28.7 316.5,27.4 313.9,27.2 	"/>
	<polyline class="st46" points="343.3,46.7 342.9,47.2 342.7,47.5 	"/>
	<polyline class="st46" points="147.4,386.8 135.2,378 133.8,377 	"/>
	<line class="st46" x1="215" y1="442.6" x2="215.4" y2="442.5"/>
	<line class="st46" x1="401.4" y1="386.3" x2="402.3" y2="386"/>
	<polyline class="st46" points="215.4,442.5 401.2,386.4 401.4,386.3 	"/>
	<polyline class="st46" points="402.3,386 403.9,385.5 406,384.9 408.6,384.1 	"/>
	<line class="st46" x1="408.6" y1="384.1" x2="411.4" y2="383.3"/>
	<polyline class="st46" points="411.4,383.3 414.2,382.4 416.8,381.6 	"/>
	<polyline class="st46" points="416.8,381.6 419.1,380.9 420.9,380.4 	"/>
	<line class="st46" x1="422.6" y1="379.9" x2="455.5" y2="369.9"/>
	<polyline class="st46" points="420.9,380.4 422.1,380 422.6,379.9 	"/>
	<line class="st46" x1="179.6" y1="236" x2="340.8" y2="25.6"/>
	<line class="st46" x1="342.6" y1="25.4" x2="183.9" y2="232.6"/>
	<line class="st46" x1="252.9" y1="165.5" x2="408.1" y2="145.7"/>
	<line class="st46" x1="241.4" y1="180.6" x2="417" y2="156.6"/>
	<line class="st46" x1="275.6" y1="135.7" x2="389.9" y2="123.1"/>
	<line class="st46" x1="264.3" y1="150.6" x2="399.1" y2="134.5"/>
	<line class="st46" x1="297.9" y1="106.4" x2="370.9" y2="99.7"/>
	<line class="st46" x1="286.8" y1="121" x2="380.5" y2="111.5"/>
	<line class="st46" x1="431" y1="213.3" x2="417.8" y2="215.6"/>
	<line class="st46" x1="276.2" y1="241.2" x2="288.8" y2="238.9"/>
	<line class="st46" x1="195" y1="255.8" x2="211.9" y2="252.8"/>
	<line class="st46" x1="288.7" y1="338.2" x2="276.5" y2="341.2"/>
	<line class="st46" x1="288.7" y1="326" x2="276.4" y2="329"/>
	<line class="st46" x1="288.6" y1="397.7" x2="276.6" y2="401.2"/>
	<line class="st46" x1="288.7" y1="385.9" x2="276.6" y2="389.3"/>
	<line class="st46" x1="288.7" y1="350.2" x2="276.5" y2="353.3"/>
	<line class="st46" x1="288.7" y1="301.5" x2="276.4" y2="304.3"/>
	<line class="st46" x1="288.7" y1="289.2" x2="276.3" y2="291.8"/>
	<line class="st46" x1="288.7" y1="362.2" x2="276.5" y2="365.4"/>
	<line class="st46" x1="288.7" y1="313.8" x2="276.4" y2="316.7"/>
	<line class="st46" x1="288.7" y1="374.1" x2="276.5" y2="377.4"/>
	<line class="st46" x1="288.8" y1="276.7" x2="276.3" y2="279.3"/>
	<line class="st46" x1="288.8" y1="264.2" x2="276.3" y2="266.7"/>
	<line class="st46" x1="288.8" y1="251.6" x2="276.3" y2="254"/>
	<line class="st46" x1="412.8" y1="362.1" x2="417.1" y2="360.8"/>
	<line class="st46" x1="426" y1="347.6" x2="413.2" y2="351.2"/>
	<line class="st46" x1="426.8" y1="325.9" x2="413.9" y2="329.3"/>
	<line class="st46" x1="427.2" y1="314.9" x2="414.3" y2="318.2"/>
	<line class="st46" x1="429.3" y1="259.1" x2="416.2" y2="261.9"/>
	<line class="st46" x1="429.7" y1="247.7" x2="416.6" y2="250.4"/>
	<line class="st46" x1="428.4" y1="281.6" x2="415.4" y2="284.6"/>
	<line class="st46" x1="428.8" y1="270.4" x2="415.8" y2="273.3"/>
	<line class="st46" x1="426.4" y1="336.8" x2="413.5" y2="340.3"/>
	<line class="st46" x1="428" y1="292.8" x2="415" y2="295.9"/>
	<line class="st46" x1="430.1" y1="236.3" x2="417" y2="238.9"/>
	<line class="st46" x1="427.6" y1="303.9" x2="414.7" y2="307.1"/>
	<line class="st46" x1="430.5" y1="224.8" x2="417.4" y2="227.3"/>
	<line class="st46" x1="340" y1="20.4" x2="333.6" y2="28.7"/>
	<line class="st46" x1="442.9" y1="189.6" x2="452" y2="200.8"/>
	<line class="st46" x1="222.4" y1="225.8" x2="209.5" y2="242.9"/>
	<line class="st46" x1="191.6" y1="246" x2="222.1" y2="206"/>
	<line class="st46" x1="145.7" y1="221.4" x2="146.1" y2="221.6"/>
	<line class="st46" x1="464.5" y1="198.6" x2="443.6" y2="172.4"/>
</g>
</svg>
